<?xml version="1.0" encoding="UTF-8" standalone="no"?>
<!DOCTYPE svg PUBLIC "-//W3C//DTD SVG 1.1//EN"
 "http://www.w3.org/Graphics/SVG/1.1/DTD/svg11.dtd">
<!-- Generated by graphviz version 2.40.1 (20161225.0304)
 -->
<!-- Title: callback_core.cpp Pages: 1 -->
<svg width="237pt" height="84pt"
 viewBox="0.00 0.00 236.50 84.00" xmlns="http://www.w3.org/2000/svg" xmlns:xlink="http://www.w3.org/1999/xlink">
<g id="graph0" class="graph" transform="scale(1 1) rotate(0) translate(4 80)">
<title>callback_core.cpp</title>
<polygon fill="#ffffff" stroke="transparent" points="-4,4 -4,-80 232.5,-80 232.5,4 -4,4"/>
<!-- Node0 -->
<g id="node1" class="node">
<title>Node0</title>
<polygon fill="#bfbfbf" stroke="#000000" points="59.5,-56.5 59.5,-75.5 154.5,-75.5 154.5,-56.5 59.5,-56.5"/>
<text text-anchor="middle" x="107" y="-63.5" font-family="Helvetica,sans-Serif" font-size="10.00" fill="#000000">callback_core.cpp</text>
</g>
<!-- Node1 -->
<g id="node2" class="node">
<title>Node1</title>
<polygon fill="#ffffff" stroke="#bfbfbf" points="0,-.5 0,-19.5 46,-19.5 46,-.5 0,-.5"/>
<text text-anchor="middle" x="23" y="-7.5" font-family="Helvetica,sans-Serif" font-size="10.00" fill="#000000">stdio.h</text>
</g>
<!-- Node0&#45;&gt;Node1 -->
<g id="edge1" class="edge">
<title>Node0&#45;&gt;Node1</title>
<path fill="none" stroke="#191970" d="M92.3683,-56.2455C79.6006,-47.7337 60.8562,-35.2375 46.0701,-25.3801"/>
<polygon fill="#191970" stroke="#191970" points="47.726,-22.2775 37.464,-19.6427 43.8431,-28.1019 47.726,-22.2775"/>
</g>
<!-- Node2 -->
<g id="node3" class="node">
<title>Node2</title>
<g id="a_node3"><a xlink:href="callback__core_8h.html" target="_top" xlink:title="callback_core.h">
<polygon fill="#ffffff" stroke="#000000" points="64.5,-.5 64.5,-19.5 149.5,-19.5 149.5,-.5 64.5,-.5"/>
<text text-anchor="middle" x="107" y="-7.5" font-family="Helvetica,sans-Serif" font-size="10.00" fill="#000000">callback_core.h</text>
</a>
</g>
</g>
<!-- Node0&#45;&gt;Node2 -->
<g id="edge2" class="edge">
<title>Node0&#45;&gt;Node2</title>
<path fill="none" stroke="#191970" d="M107,-56.2455C107,-48.9382 107,-38.6944 107,-29.7046"/>
<polygon fill="#191970" stroke="#191970" points="110.5001,-29.6426 107,-19.6427 103.5001,-29.6427 110.5001,-29.6426"/>
</g>
<!-- Node3 -->
<g id="node4" class="node">
<title>Node3</title>
<g id="a_node4"><a xlink:href="callback_8h.html" target="_top" xlink:title="callback.h">
<polygon fill="#ffffff" stroke="#000000" points="167.5,-.5 167.5,-19.5 228.5,-19.5 228.5,-.5 167.5,-.5"/>
<text text-anchor="middle" x="198" y="-7.5" font-family="Helvetica,sans-Serif" font-size="10.00" fill="#000000">callback.h</text>
</a>
</g>
</g>
<!-- Node0&#45;&gt;Node3 -->
<g id="edge3" class="edge">
<title>Node0&#45;&gt;Node3</title>
<path fill="none" stroke="#191970" d="M122.851,-56.2455C136.8132,-47.6534 157.3728,-35.0014 173.4596,-25.1018"/>
<polygon fill="#191970" stroke="#191970" points="175.6484,-27.8645 182.3307,-19.6427 171.9797,-21.9029 175.6484,-27.8645"/>
</g>
</g>
</svg>
