<?xml version="1.0" encoding="UTF-8" standalone="no"?>
<!DOCTYPE svg PUBLIC "-//W3C//DTD SVG 1.1//EN"
 "http://www.w3.org/Graphics/SVG/1.1/DTD/svg11.dtd">
<!-- Generated by graphviz version 2.40.1 (20161225.0304)
 -->
<!-- Title: callback_core.h Pages: 1 -->
<svg width="971pt" height="151pt"
 viewBox="0.00 0.00 970.50 151.00" xmlns="http://www.w3.org/2000/svg" xmlns:xlink="http://www.w3.org/1999/xlink">
<g id="graph0" class="graph" transform="scale(1 1) rotate(0) translate(4 147)">
<title>callback_core.h</title>
<polygon fill="#ffffff" stroke="transparent" points="-4,4 -4,-147 966.5,-147 966.5,4 -4,4"/>
<!-- Node1 -->
<g id="node1" class="node">
<title>Node1</title>
<polygon fill="#bfbfbf" stroke="#000000" points="137,-123.5 137,-142.5 222,-142.5 222,-123.5 137,-123.5"/>
<text text-anchor="middle" x="179.5" y="-130.5" font-family="Helvetica,sans-Serif" font-size="10.00" fill="#000000">callback_core.h</text>
</g>
<!-- Node2 -->
<g id="node2" class="node">
<title>Node2</title>
<g id="a_node2"><a xlink:href="callback__core_8cpp.html" target="_top" xlink:title="callback_core.cpp">
<polygon fill="#ffffff" stroke="#000000" points="56,-67.5 56,-86.5 151,-86.5 151,-67.5 56,-67.5"/>
<text text-anchor="middle" x="103.5" y="-74.5" font-family="Helvetica,sans-Serif" font-size="10.00" fill="#000000">callback_core.cpp</text>
</a>
</g>
</g>
<!-- Node1&#45;&gt;Node2 -->
<g id="edge1" class="edge">
<title>Node1&#45;&gt;Node2</title>
<path fill="none" stroke="#191970" d="M158.0703,-117.2097C144.7223,-107.3743 127.9821,-95.0394 116.5865,-86.6427"/>
<polygon fill="#191970" stroke="#191970" points="156.135,-120.1312 166.2618,-123.2455 160.2874,-114.4958 156.135,-120.1312"/>
</g>
<!-- Node3 -->
<g id="node3" class="node">
<title>Node3</title>
<g id="a_node3"><a xlink:href="carlsim_8cpp.html" target="_top" xlink:title="carlsim.cpp">
<polygon fill="#ffffff" stroke="#000000" points="0,-6 0,-25 67,-25 67,-6 0,-6"/>
<text text-anchor="middle" x="33.5" y="-13" font-family="Helvetica,sans-Serif" font-size="10.00" fill="#000000">carlsim.cpp</text>
</a>
</g>
</g>
<!-- Node1&#45;&gt;Node3 -->
<g id="edge2" class="edge">
<title>Node1&#45;&gt;Node3</title>
<path fill="none" stroke="#191970" d="M177.9443,-112.8812C175.8491,-98.5121 170.9477,-79.5749 159.5,-67 152.4804,-59.2892 95.2466,-37.7306 60.376,-25.0843"/>
<polygon fill="#191970" stroke="#191970" points="174.5099,-113.6653 179.0945,-123.2168 181.4669,-112.891 174.5099,-113.6653"/>
</g>
<!-- Node4 -->
<g id="node4" class="node">
<title>Node4</title>
<g id="a_node4"><a xlink:href="snn_8h.html" target="_top" xlink:title="snn.h">
<polygon fill="#ffffff" stroke="#000000" points="354,-67.5 354,-86.5 395,-86.5 395,-67.5 354,-67.5"/>
<text text-anchor="middle" x="374.5" y="-74.5" font-family="Helvetica,sans-Serif" font-size="10.00" fill="#000000">snn.h</text>
</a>
</g>
</g>
<!-- Node1&#45;&gt;Node4 -->
<g id="edge3" class="edge">
<title>Node1&#45;&gt;Node4</title>
<path fill="none" stroke="#191970" d="M222.7113,-120.5906C263.5265,-108.8693 322.9736,-91.7973 353.9686,-82.8962"/>
<polygon fill="#191970" stroke="#191970" points="221.6671,-117.2489 213.0217,-123.3733 223.5993,-123.977 221.6671,-117.2489"/>
</g>
<!-- Node4&#45;&gt;Node3 -->
<g id="edge4" class="edge">
<title>Node4&#45;&gt;Node3</title>
<path fill="none" stroke="#191970" d="M343.9735,-74.2498C289.5752,-68.9166 172.5645,-55.4843 76.5,-31 70.1945,-29.3929 63.5167,-27.225 57.3519,-25.0206"/>
<polygon fill="#191970" stroke="#191970" points="343.7054,-77.7401 353.9936,-75.2094 344.3728,-70.772 343.7054,-77.7401"/>
</g>
<!-- Node5 -->
<g id="node5" class="node">
<title>Node5</title>
<g id="a_node5"><a xlink:href="print__snn__info_8cpp.html" target="_top" xlink:title="print_snn_info.cpp">
<polygon fill="#ffffff" stroke="#000000" points="85.5,-6 85.5,-25 181.5,-25 181.5,-6 85.5,-6"/>
<text text-anchor="middle" x="133.5" y="-13" font-family="Helvetica,sans-Serif" font-size="10.00" fill="#000000">print_snn_info.cpp</text>
</a>
</g>
</g>
<!-- Node4&#45;&gt;Node5 -->
<g id="edge5" class="edge">
<title>Node4&#45;&gt;Node5</title>
<path fill="none" stroke="#191970" d="M343.7397,-69.5145C307.1623,-60.5662 244.2918,-45.0362 190.5,-31 183.2563,-29.1099 175.5088,-27.0373 168.1339,-25.0401"/>
<polygon fill="#191970" stroke="#191970" points="343.2241,-72.9914 353.7691,-71.9643 344.8852,-66.1913 343.2241,-72.9914"/>
</g>
<!-- Node6 -->
<g id="node6" class="node">
<title>Node6</title>
<g id="a_node6"><a xlink:href="snn__cpu__module_8cpp.html" target="_top" xlink:title="snn_cpu_module.cpp">
<polygon fill="#ffffff" stroke="#000000" points="200,-6 200,-25 309,-25 309,-6 200,-6"/>
<text text-anchor="middle" x="254.5" y="-13" font-family="Helvetica,sans-Serif" font-size="10.00" fill="#000000">snn_cpu_module.cpp</text>
</a>
</g>
</g>
<!-- Node4&#45;&gt;Node6 -->
<g id="edge6" class="edge">
<title>Node4&#45;&gt;Node6</title>
<path fill="none" stroke="#191970" d="M346.6491,-62.7264C324.0416,-51.1401 292.7928,-35.1251 273.1183,-25.0419"/>
<polygon fill="#191970" stroke="#191970" points="345.2543,-65.9444 355.75,-67.3906 348.447,-59.7149 345.2543,-65.9444"/>
</g>
<!-- Node7 -->
<g id="node7" class="node">
<title>Node7</title>
<g id="a_node7"><a xlink:href="snn__manager_8cpp.html" target="_top" xlink:title="snn_manager.cpp">
<polygon fill="#ffffff" stroke="#000000" points="327.5,-6 327.5,-25 421.5,-25 421.5,-6 327.5,-6"/>
<text text-anchor="middle" x="374.5" y="-13" font-family="Helvetica,sans-Serif" font-size="10.00" fill="#000000">snn_manager.cpp</text>
</a>
</g>
</g>
<!-- Node4&#45;&gt;Node7 -->
<g id="edge7" class="edge">
<title>Node4&#45;&gt;Node7</title>
<path fill="none" stroke="#191970" d="M374.5,-57.2462C374.5,-46.5519 374.5,-33.814 374.5,-25.2449"/>
<polygon fill="#191970" stroke="#191970" points="371.0001,-57.3906 374.5,-67.3906 378.0001,-57.3907 371.0001,-57.3906"/>
</g>
<!-- Node8 -->
<g id="node8" class="node">
<title>Node8</title>
<g id="a_node8"><a xlink:href="connection__monitor__core_8cpp.html" target="_top" xlink:title="connection_monitor\l_core.cpp">
<polygon fill="#ffffff" stroke="#000000" points="440,-.5 440,-30.5 541,-30.5 541,-.5 440,-.5"/>
<text text-anchor="start" x="448" y="-18.5" font-family="Helvetica,sans-Serif" font-size="10.00" fill="#000000">connection_monitor</text>
<text text-anchor="middle" x="490.5" y="-7.5" font-family="Helvetica,sans-Serif" font-size="10.00" fill="#000000">_core.cpp</text>
</a>
</g>
</g>
<!-- Node4&#45;&gt;Node8 -->
<g id="edge8" class="edge">
<title>Node4&#45;&gt;Node8</title>
<path fill="none" stroke="#191970" d="M401.5527,-62.6574C419.7393,-53.0154 443.6666,-40.3298 462.1232,-30.5446"/>
<polygon fill="#191970" stroke="#191970" points="399.8206,-59.6142 392.625,-67.3906 403.0996,-65.7987 399.8206,-59.6142"/>
</g>
<!-- Node9 -->
<g id="node9" class="node">
<title>Node9</title>
<g id="a_node9"><a xlink:href="group__monitor__core_8cpp.html" target="_top" xlink:title="group_monitor_core.cpp">
<polygon fill="#ffffff" stroke="#000000" points="559,-6 559,-25 680,-25 680,-6 559,-6"/>
<text text-anchor="middle" x="619.5" y="-13" font-family="Helvetica,sans-Serif" font-size="10.00" fill="#000000">group_monitor_core.cpp</text>
</a>
</g>
</g>
<!-- Node4&#45;&gt;Node9 -->
<g id="edge9" class="edge">
<title>Node4&#45;&gt;Node9</title>
<path fill="none" stroke="#191970" d="M405.3677,-69.2516C450.0591,-58.0331 532.7297,-37.2811 581.2356,-25.1052"/>
<polygon fill="#191970" stroke="#191970" points="404.2355,-65.9271 395.3886,-71.7565 405.9398,-72.7165 404.2355,-65.9271"/>
</g>
<!-- Node10 -->
<g id="node10" class="node">
<title>Node10</title>
<g id="a_node10"><a xlink:href="neuron__monitor__core_8cpp.html" target="_top" xlink:title="neuron_monitor_core.cpp">
<polygon fill="#ffffff" stroke="#000000" points="698.5,-6 698.5,-25 824.5,-25 824.5,-6 698.5,-6"/>
<text text-anchor="middle" x="761.5" y="-13" font-family="Helvetica,sans-Serif" font-size="10.00" fill="#000000">neuron_monitor_core.cpp</text>
</a>
</g>
</g>
<!-- Node4&#45;&gt;Node10 -->
<g id="edge10" class="edge">
<title>Node4&#45;&gt;Node10</title>
<path fill="none" stroke="#191970" d="M405.2768,-73.2022C461.7786,-66.0753 585.775,-49.7167 689.5,-31 699.189,-29.2517 709.5633,-27.1528 719.334,-25.0724"/>
<polygon fill="#191970" stroke="#191970" points="404.7039,-69.7465 395.2169,-74.4632 405.5746,-76.6922 404.7039,-69.7465"/>
</g>
<!-- Node11 -->
<g id="node11" class="node">
<title>Node11</title>
<g id="a_node11"><a xlink:href="spike__monitor__core_8cpp.html" target="_top" xlink:title="spike_monitor_core.cpp">
<polygon fill="#ffffff" stroke="#000000" points="842.5,-6 842.5,-25 962.5,-25 962.5,-6 842.5,-6"/>
<text text-anchor="middle" x="902.5" y="-13" font-family="Helvetica,sans-Serif" font-size="10.00" fill="#000000">spike_monitor_core.cpp</text>
</a>
</g>
</g>
<!-- Node4&#45;&gt;Node11 -->
<g id="edge11" class="edge">
<title>Node4&#45;&gt;Node11</title>
<path fill="none" stroke="#191970" d="M405.2421,-75.2096C479.3123,-70.6156 673.3761,-56.9109 833.5,-31 843.4384,-29.3918 854.0895,-27.2235 863.9769,-25.019"/>
<polygon fill="#191970" stroke="#191970" points="404.9711,-71.7195 395.2027,-75.8216 405.3972,-78.7065 404.9711,-71.7195"/>
</g>
</g>
</svg>
