<?xml version="1.0" encoding="UTF-8" standalone="no"?>
<!DOCTYPE svg PUBLIC "-//W3C//DTD SVG 1.1//EN"
 "http://www.w3.org/Graphics/SVG/1.1/DTD/svg11.dtd">
<!-- Generated by graphviz version 2.40.1 (20161225.0304)
 -->
<!-- Title: carlsim_datastructures.h Pages: 1 -->
<!--zoomable 263 -->
<svg id="main" version="1.1" xmlns="http://www.w3.org/2000/svg" xmlns:xlink="http://www.w3.org/1999/xlink" xml:space="preserve" onload="init(evt)">
<style type="text/css"><![CDATA[
.edge:hover path { stroke: red; }
.edge:hover polygon { stroke: red; fill: red; }
]]></style>
<script type="text/javascript"><![CDATA[
var edges = document.getElementsByTagName('g');
if (edges && edges.length) {
  for (var i=0;i<edges.length;i++) {
    if (edges[i].id.substr(0,4)=='edge') {
      edges[i].setAttribute('class','edge');
    }
  }
}
]]></script>
        <defs>
                <circle id="rim" cx="0" cy="0" r="7"/>
                <circle id="rim2" cx="0" cy="0" r="3.5"/>
                <g id="zoomPlus">
                        <use xlink:href="#rim" fill="#404040">
                                <set attributeName="fill" to="#808080" begin="zoomplus.mouseover" end="zoomplus.mouseout"/>
                        </use>
                        <path d="M-4,0h8M0,-4v8" fill="none" stroke="white" stroke-width="1.5" pointer-events="none"/>
                </g>
                <g id="zoomMin">
                        <use xlink:href="#rim" fill="#404040">
                                <set attributeName="fill" to="#808080" begin="zoomminus.mouseover" end="zoomminus.mouseout"/>
                        </use>
                        <path d="M-4,0h8" fill="none" stroke="white" stroke-width="1.5" pointer-events="none"/>
                </g>
                <g id="dirArrow">
                        <path fill="none" stroke="white" stroke-width="1.5" d="M0,-3.0v7 M-2.5,-0.5L0,-3.0L2.5,-0.5"/>
                </g>
               <g id="resetDef">
                       <use xlink:href="#rim2" fill="#404040">
                               <set attributeName="fill" to="#808080" begin="reset.mouseover" end="reset.mouseout"/>
                       </use>
               </g>
        </defs>

<script type="text/javascript">
var viewWidth = 1022;
var viewHeight = 263;
var sectionId = 'dynsection-1';
</script>
<script xlink:href="svgpan.js"/>
<svg id="graph" class="graph">
<g id="viewport">
<title>carlsim_datastructures.h</title>
<polygon fill="#ffffff" stroke="transparent" points="-4,4 -4,-259 1017.5,-259 1017.5,4 -4,4"/>
<!-- Node6 -->
<g id="node1" class="node">
<title>Node6</title>
<polygon fill="#bfbfbf" stroke="#000000" points="451.5,-235.5 451.5,-254.5 575.5,-254.5 575.5,-235.5 451.5,-235.5"/>
<text text-anchor="middle" x="513.5" y="-242.5" font-family="Helvetica,sans-Serif" font-size="10.00" fill="#000000">carlsim_datastructures.h</text>
</g>
<!-- Node7 -->
<g id="node2" class="node">
<title>Node7</title>
<g id="a_node2"><a xlink:href="carlsim_8h.html" target="_top" xlink:title="carlsim.h">
<polygon fill="#ffffff" stroke="#000000" points="444.5,-123.5 444.5,-142.5 500.5,-142.5 500.5,-123.5 444.5,-123.5"/>
<text text-anchor="middle" x="472.5" y="-130.5" font-family="Helvetica,sans-Serif" font-size="10.00" fill="#000000">carlsim.h</text>
</a>
</g>
</g>
<!-- Node6&#45;&gt;Node7 -->
<g id="edge1" class="edge">
<title>Node6&#45;&gt;Node7</title>
<path fill="none" stroke="#191970" d="M505.7786,-225.7438C502.5334,-217.5299 498.7622,-207.8228 495.5,-199 488.1779,-179.1969 480.1838,-155.8233 475.8139,-142.8813"/>
<polygon fill="#191970" stroke="#191970" points="502.5804,-227.1732 509.5298,-235.1705 509.0843,-224.585 502.5804,-227.1732"/>
</g>
<!-- Node19 -->
<g id="node14" class="node">
<title>Node19</title>
<g id="a_node14"><a xlink:href="group__monitor_8cpp.html" target="_top" xlink:title="group_monitor.cpp">
<polygon fill="#ffffff" stroke="#000000" points="280,-123.5 280,-142.5 377,-142.5 377,-123.5 280,-123.5"/>
<text text-anchor="middle" x="328.5" y="-130.5" font-family="Helvetica,sans-Serif" font-size="10.00" fill="#000000">group_monitor.cpp</text>
</a>
</g>
</g>
<!-- Node6&#45;&gt;Node19 -->
<g id="edge14" class="edge">
<title>Node6&#45;&gt;Node19</title>
<path fill="none" stroke="#191970" d="M451.9494,-233.2454C413.317,-224.7681 368.1366,-212.4812 353.5,-199 337.0973,-183.8921 331.3814,-156.9073 329.4474,-142.569"/>
<polygon fill="#191970" stroke="#191970" points="451.6115,-236.7523 462.1229,-235.4249 453.0779,-229.9077 451.6115,-236.7523"/>
</g>
<!-- Node20 -->
<g id="node15" class="node">
<title>Node20</title>
<g id="a_node15"><a xlink:href="group__monitor_8h.html" target="_top" xlink:title="group_monitor.h">
<polygon fill="#ffffff" stroke="#000000" points="362.5,-179.5 362.5,-198.5 448.5,-198.5 448.5,-179.5 362.5,-179.5"/>
<text text-anchor="middle" x="405.5" y="-186.5" font-family="Helvetica,sans-Serif" font-size="10.00" fill="#000000">group_monitor.h</text>
</a>
</g>
</g>
<!-- Node6&#45;&gt;Node20 -->
<g id="edge15" class="edge">
<title>Node6&#45;&gt;Node20</title>
<path fill="none" stroke="#191970" d="M485.7229,-230.5971C466.3618,-220.558 441.0615,-207.4393 424.0966,-198.6427"/>
<polygon fill="#191970" stroke="#191970" points="484.1992,-233.7495 494.6878,-235.2455 487.4214,-227.5352 484.1992,-233.7495"/>
</g>
<!-- Node21 -->
<g id="node16" class="node">
<title>Node21</title>
<g id="a_node16"><a xlink:href="group__monitor__core_8h.html" target="_top" xlink:title="group_monitor_core.h">
<polygon fill="#ffffff" stroke="#000000" points="196.5,-179.5 196.5,-198.5 306.5,-198.5 306.5,-179.5 196.5,-179.5"/>
<text text-anchor="middle" x="251.5" y="-186.5" font-family="Helvetica,sans-Serif" font-size="10.00" fill="#000000">group_monitor_core.h</text>
</a>
</g>
</g>
<!-- Node6&#45;&gt;Node21 -->
<g id="edge19" class="edge">
<title>Node6&#45;&gt;Node21</title>
<path fill="none" stroke="#191970" d="M458.7948,-233.3073C410.5168,-222.9883 341.0178,-208.1336 296.0572,-198.5237"/>
<polygon fill="#191970" stroke="#191970" points="458.2476,-236.7693 468.7583,-235.4369 459.7108,-229.9239 458.2476,-236.7693"/>
</g>
<!-- Node22 -->
<g id="node17" class="node">
<title>Node22</title>
<g id="a_node17"><a xlink:href="neuron__monitor_8h.html" target="_top" xlink:title="neuron_monitor.h">
<polygon fill="#ffffff" stroke="#000000" points="504.5,-179.5 504.5,-198.5 596.5,-198.5 596.5,-179.5 504.5,-179.5"/>
<text text-anchor="middle" x="550.5" y="-186.5" font-family="Helvetica,sans-Serif" font-size="10.00" fill="#000000">neuron_monitor.h</text>
</a>
</g>
</g>
<!-- Node6&#45;&gt;Node22 -->
<g id="edge24" class="edge">
<title>Node6&#45;&gt;Node22</title>
<path fill="none" stroke="#191970" d="M525.6376,-226.6296C531.8093,-217.2887 539.0566,-206.3197 544.1289,-198.6427"/>
<polygon fill="#191970" stroke="#191970" points="522.5373,-224.9728 519.9449,-235.2455 528.3777,-228.8316 522.5373,-224.9728"/>
</g>
<!-- Node24 -->
<g id="node19" class="node">
<title>Node24</title>
<g id="a_node19"><a xlink:href="neuron__monitor__core_8h.html" target="_top" xlink:title="neuron_monitor_core.h">
<polygon fill="#ffffff" stroke="#000000" points="628.5,-179.5 628.5,-198.5 744.5,-198.5 744.5,-179.5 628.5,-179.5"/>
<text text-anchor="middle" x="686.5" y="-186.5" font-family="Helvetica,sans-Serif" font-size="10.00" fill="#000000">neuron_monitor_core.h</text>
</a>
</g>
</g>
<!-- Node6&#45;&gt;Node24 -->
<g id="edge28" class="edge">
<title>Node6&#45;&gt;Node24</title>
<path fill="none" stroke="#191970" d="M553.0723,-232.1905C584.7671,-221.9309 628.5168,-207.7691 657.1483,-198.5011"/>
<polygon fill="#191970" stroke="#191970" points="551.6758,-228.9636 543.2398,-235.3733 553.8316,-235.6234 551.6758,-228.9636"/>
</g>
<!-- Node25 -->
<g id="node20" class="node">
<title>Node25</title>
<g id="a_node20"><a xlink:href="spike__monitor_8h.html" target="_top" xlink:title="spike_monitor.h">
<polygon fill="#ffffff" stroke="#000000" points="769.5,-179.5 769.5,-198.5 855.5,-198.5 855.5,-179.5 769.5,-179.5"/>
<text text-anchor="middle" x="812.5" y="-186.5" font-family="Helvetica,sans-Serif" font-size="10.00" fill="#000000">spike_monitor.h</text>
</a>
</g>
</g>
<!-- Node6&#45;&gt;Node25 -->
<g id="edge32" class="edge">
<title>Node6&#45;&gt;Node25</title>
<path fill="none" stroke="#191970" d="M574.6921,-233.5393C632.6747,-222.6797 718.2809,-206.6464 769.4106,-197.0702"/>
<polygon fill="#191970" stroke="#191970" points="573.7449,-230.1557 564.5602,-235.4369 575.0336,-237.0361 573.7449,-230.1557"/>
</g>
<!-- Node27 -->
<g id="node22" class="node">
<title>Node27</title>
<g id="a_node22"><a xlink:href="spike__monitor__core_8h.html" target="_top" xlink:title="spike_monitor_core.h">
<polygon fill="#ffffff" stroke="#000000" points="895.5,-179.5 895.5,-198.5 1005.5,-198.5 1005.5,-179.5 895.5,-179.5"/>
<text text-anchor="middle" x="950.5" y="-186.5" font-family="Helvetica,sans-Serif" font-size="10.00" fill="#000000">spike_monitor_core.h</text>
</a>
</g>
</g>
<!-- Node6&#45;&gt;Node27 -->
<g id="edge36" class="edge">
<title>Node6&#45;&gt;Node27</title>
<path fill="none" stroke="#191970" d="M585.7052,-235.7472C672.711,-224.5977 816.9642,-206.1121 895.471,-196.0518"/>
<polygon fill="#191970" stroke="#191970" points="585.1213,-232.2933 575.6474,-237.036 586.0111,-239.2365 585.1213,-232.2933"/>
</g>
<!-- Node8 -->
<g id="node3" class="node">
<title>Node8</title>
<g id="a_node3"><a xlink:href="carlsim_8cpp.html" target="_top" xlink:title="carlsim.cpp">
<polygon fill="#ffffff" stroke="#000000" points="254,-6 254,-25 321,-25 321,-6 254,-6"/>
<text text-anchor="middle" x="287.5" y="-13" font-family="Helvetica,sans-Serif" font-size="10.00" fill="#000000">carlsim.cpp</text>
</a>
</g>
</g>
<!-- Node7&#45;&gt;Node8 -->
<g id="edge2" class="edge">
<title>Node7&#45;&gt;Node8</title>
<path fill="none" stroke="#191970" d="M434.4544,-127.1188C377.8593,-117.9876 276.9895,-100.0901 266.5,-87 251.7759,-68.6253 268.6017,-40.2388 279.5594,-25.3631"/>
<polygon fill="#191970" stroke="#191970" points="434.0482,-130.5982 444.475,-128.7187 435.1519,-123.6857 434.0482,-130.5982"/>
</g>
<!-- Node9 -->
<g id="node4" class="node">
<title>Node9</title>
<g id="a_node4"><a xlink:href="snn_8h.html" target="_top" xlink:title="snn.h">
<polygon fill="#ffffff" stroke="#000000" points="276,-67.5 276,-86.5 317,-86.5 317,-67.5 276,-67.5"/>
<text text-anchor="middle" x="296.5" y="-74.5" font-family="Helvetica,sans-Serif" font-size="10.00" fill="#000000">snn.h</text>
</a>
</g>
</g>
<!-- Node7&#45;&gt;Node9 -->
<g id="edge3" class="edge">
<title>Node7&#45;&gt;Node9</title>
<path fill="none" stroke="#191970" d="M434.5416,-120.9223C398.523,-109.4619 345.7511,-92.6708 317.0096,-83.5258"/>
<polygon fill="#191970" stroke="#191970" points="433.6321,-124.3058 444.2226,-124.0026 435.7545,-117.6353 433.6321,-124.3058"/>
</g>
<!-- Node17 -->
<g id="node12" class="node">
<title>Node17</title>
<g id="a_node12"><a xlink:href="spikegen__from__file_8cpp.html" target="_top" xlink:title="spikegen_from_file.cpp">
<polygon fill="#ffffff" stroke="#000000" points="412,-67.5 412,-86.5 529,-86.5 529,-67.5 412,-67.5"/>
<text text-anchor="middle" x="470.5" y="-74.5" font-family="Helvetica,sans-Serif" font-size="10.00" fill="#000000">spikegen_from_file.cpp</text>
</a>
</g>
</g>
<!-- Node7&#45;&gt;Node17 -->
<g id="edge12" class="edge">
<title>Node7&#45;&gt;Node17</title>
<path fill="none" stroke="#191970" d="M471.7913,-113.1575C471.4698,-104.155 471.1043,-93.9199 470.8444,-86.6427"/>
<polygon fill="#191970" stroke="#191970" points="468.2968,-113.3769 472.1516,-123.2455 475.2924,-113.127 468.2968,-113.3769"/>
</g>
<!-- Node18 -->
<g id="node13" class="node">
<title>Node18</title>
<g id="a_node13"><a xlink:href="simple__weight__tuner_8cpp.html" target="_top" xlink:title="simple_weight_tuner.cpp">
<polygon fill="#ffffff" stroke="#000000" points="547,-67.5 547,-86.5 672,-86.5 672,-67.5 547,-67.5"/>
<text text-anchor="middle" x="609.5" y="-74.5" font-family="Helvetica,sans-Serif" font-size="10.00" fill="#000000">simple_weight_tuner.cpp</text>
</a>
</g>
</g>
<!-- Node7&#45;&gt;Node18 -->
<g id="edge13" class="edge">
<title>Node7&#45;&gt;Node18</title>
<path fill="none" stroke="#191970" d="M505.4806,-119.5189C530.4311,-109.3201 564.0734,-95.5685 586.2562,-86.5011"/>
<polygon fill="#191970" stroke="#191970" points="503.9834,-116.3497 496.0511,-123.3733 506.632,-122.8293 503.9834,-116.3497"/>
</g>
<!-- Node9&#45;&gt;Node8 -->
<g id="edge4" class="edge">
<title>Node9&#45;&gt;Node8</title>
<path fill="none" stroke="#191970" d="M293.6092,-57.2462C292.0442,-46.5519 290.1801,-33.814 288.9261,-25.2449"/>
<polygon fill="#191970" stroke="#191970" points="290.1826,-58.0028 295.0938,-67.3906 297.1088,-56.9892 290.1826,-58.0028"/>
</g>
<!-- Node10 -->
<g id="node5" class="node">
<title>Node10</title>
<g id="a_node5"><a xlink:href="print__snn__info_8cpp.html" target="_top" xlink:title="print_snn_info.cpp">
<polygon fill="#ffffff" stroke="#000000" points="139.5,-6 139.5,-25 235.5,-25 235.5,-6 139.5,-6"/>
<text text-anchor="middle" x="187.5" y="-13" font-family="Helvetica,sans-Serif" font-size="10.00" fill="#000000">print_snn_info.cpp</text>
</a>
</g>
</g>
<!-- Node9&#45;&gt;Node10 -->
<g id="edge5" class="edge">
<title>Node9&#45;&gt;Node10</title>
<path fill="none" stroke="#191970" d="M270.6502,-62.415C250.1609,-50.8546 222.1231,-35.035 204.4117,-25.0419"/>
<polygon fill="#191970" stroke="#191970" points="269.0395,-65.5249 279.4688,-67.3906 272.4793,-59.4283 269.0395,-65.5249"/>
</g>
<!-- Node11 -->
<g id="node6" class="node">
<title>Node11</title>
<g id="a_node6"><a xlink:href="snn__cpu__module_8cpp.html" target="_top" xlink:title="snn_cpu_module.cpp">
<polygon fill="#ffffff" stroke="#000000" points="339,-6 339,-25 448,-25 448,-6 339,-6"/>
<text text-anchor="middle" x="393.5" y="-13" font-family="Helvetica,sans-Serif" font-size="10.00" fill="#000000">snn_cpu_module.cpp</text>
</a>
</g>
</g>
<!-- Node9&#45;&gt;Node11 -->
<g id="edge6" class="edge">
<title>Node9&#45;&gt;Node11</title>
<path fill="none" stroke="#191970" d="M320.496,-61.786C338.6337,-50.2864 362.9726,-34.855 378.4502,-25.0419"/>
<polygon fill="#191970" stroke="#191970" points="318.2277,-59.08 311.6563,-67.3906 321.976,-64.9919 318.2277,-59.08"/>
</g>
<!-- Node12 -->
<g id="node7" class="node">
<title>Node12</title>
<g id="a_node7"><a xlink:href="snn__manager_8cpp.html" target="_top" xlink:title="snn_manager.cpp">
<polygon fill="#ffffff" stroke="#000000" points="729.5,-6 729.5,-25 823.5,-25 823.5,-6 729.5,-6"/>
<text text-anchor="middle" x="776.5" y="-13" font-family="Helvetica,sans-Serif" font-size="10.00" fill="#000000">snn_manager.cpp</text>
</a>
</g>
</g>
<!-- Node9&#45;&gt;Node12 -->
<g id="edge7" class="edge">
<title>Node9&#45;&gt;Node12</title>
<path fill="none" stroke="#191970" d="M327.0096,-67.925C328.5221,-67.5878 330.0248,-67.2765 331.5,-67 502.1556,-35.0121 549.7135,-62.2816 720.5,-31 728.8351,-29.4733 737.7295,-27.2797 745.9189,-25.0212"/>
<polygon fill="#191970" stroke="#191970" points="325.9149,-64.5915 317.076,-70.4331 327.6285,-71.3785 325.9149,-64.5915"/>
</g>
<!-- Node13 -->
<g id="node8" class="node">
<title>Node13</title>
<g id="a_node8"><a xlink:href="connection__monitor__core_8cpp.html" target="_top" xlink:title="connection_monitor\l_core.cpp">
<polygon fill="#ffffff" stroke="#000000" points="466,-.5 466,-30.5 567,-30.5 567,-.5 466,-.5"/>
<text text-anchor="start" x="474" y="-18.5" font-family="Helvetica,sans-Serif" font-size="10.00" fill="#000000">connection_monitor</text>
<text text-anchor="middle" x="516.5" y="-7.5" font-family="Helvetica,sans-Serif" font-size="10.00" fill="#000000">_core.cpp</text>
</a>
</g>
</g>
<!-- Node9&#45;&gt;Node13 -->
<g id="edge8" class="edge">
<title>Node9&#45;&gt;Node13</title>
<path fill="none" stroke="#191970" d="M327.0854,-68.2482C328.5777,-67.8253 330.0555,-67.4074 331.5,-67 376.9038,-54.1942 428.6354,-39.8108 465.8281,-29.5061"/>
<polygon fill="#191970" stroke="#191970" points="325.8821,-64.9516 317.2215,-71.0544 327.7976,-71.6844 325.8821,-64.9516"/>
</g>
<!-- Node14 -->
<g id="node9" class="node">
<title>Node14</title>
<g id="a_node9"><a xlink:href="group__monitor__core_8cpp.html" target="_top" xlink:title="group_monitor_core.cpp">
<polygon fill="#ffffff" stroke="#000000" points="0,-6 0,-25 121,-25 121,-6 0,-6"/>
<text text-anchor="middle" x="60.5" y="-13" font-family="Helvetica,sans-Serif" font-size="10.00" fill="#000000">group_monitor_core.cpp</text>
</a>
</g>
</g>
<!-- Node9&#45;&gt;Node14 -->
<g id="edge9" class="edge">
<title>Node9&#45;&gt;Node14</title>
<path fill="none" stroke="#191970" d="M266.0379,-69.0618C222.7747,-57.7877 143.6415,-37.1661 97.201,-25.064"/>
<polygon fill="#191970" stroke="#191970" points="265.4099,-72.515 275.9694,-71.6499 267.1752,-65.7412 265.4099,-72.515"/>
</g>
<!-- Node15 -->
<g id="node10" class="node">
<title>Node15</title>
<g id="a_node10"><a xlink:href="neuron__monitor__core_8cpp.html" target="_top" xlink:title="neuron_monitor_core.cpp">
<polygon fill="#ffffff" stroke="#000000" points="585.5,-6 585.5,-25 711.5,-25 711.5,-6 585.5,-6"/>
<text text-anchor="middle" x="648.5" y="-13" font-family="Helvetica,sans-Serif" font-size="10.00" fill="#000000">neuron_monitor_core.cpp</text>
</a>
</g>
</g>
<!-- Node9&#45;&gt;Node15 -->
<g id="edge10" class="edge">
<title>Node9&#45;&gt;Node15</title>
<path fill="none" stroke="#191970" d="M327.0295,-68.0235C328.5367,-67.6601 330.0328,-67.3164 331.5,-67 438.6552,-43.8926 467.6107,-50.3933 575.5,-31 585.3189,-29.235 595.8353,-27.1295 605.7414,-25.048"/>
<polygon fill="#191970" stroke="#191970" points="325.8999,-64.7012 317.1141,-70.6223 327.6748,-71.4725 325.8999,-64.7012"/>
</g>
<!-- Node16 -->
<g id="node11" class="node">
<title>Node16</title>
<g id="a_node11"><a xlink:href="spike__monitor__core_8cpp.html" target="_top" xlink:title="spike_monitor_core.cpp">
<polygon fill="#ffffff" stroke="#000000" points="893.5,-6 893.5,-25 1013.5,-25 1013.5,-6 893.5,-6"/>
<text text-anchor="middle" x="953.5" y="-13" font-family="Helvetica,sans-Serif" font-size="10.00" fill="#000000">spike_monitor_core.cpp</text>
</a>
</g>
</g>
<!-- Node9&#45;&gt;Node16 -->
<g id="edge11" class="edge">
<title>Node9&#45;&gt;Node16</title>
<path fill="none" stroke="#191970" d="M327.2309,-74.0146C348.3871,-71.9805 377.1415,-69.2576 402.5,-67 593.5242,-49.9935 641.7859,-51.1887 832.5,-31 852.2973,-28.9043 873.8699,-26.2578 893.245,-23.7476"/>
<polygon fill="#191970" stroke="#191970" points="326.8294,-70.537 317.2116,-74.981 327.5015,-77.5047 326.8294,-70.537"/>
</g>
<!-- Node20&#45;&gt;Node7 -->
<g id="edge16" class="edge">
<title>Node20&#45;&gt;Node7</title>
<path fill="none" stroke="#191970" d="M425.0676,-172.645C436.7198,-162.9058 451.1084,-150.8795 460.9632,-142.6427"/>
<polygon fill="#191970" stroke="#191970" points="422.5988,-170.1469 417.1705,-179.2455 427.0879,-175.5179 422.5988,-170.1469"/>
</g>
<!-- Node20&#45;&gt;Node12 -->
<g id="edge17" class="edge">
<title>Node20&#45;&gt;Node12</title>
<path fill="none" stroke="#191970" d="M397.7661,-169.5503C388.5833,-142.8734 377.4427,-95.054 402.5,-67 449.8753,-13.9589 650.6803,-44.5274 720.5,-31 728.6209,-29.4266 737.285,-27.2708 745.3111,-25.0672"/>
<polygon fill="#191970" stroke="#191970" points="394.6054,-171.0953 401.3503,-179.2658 401.1727,-168.6724 394.6054,-171.0953"/>
</g>
<!-- Node20&#45;&gt;Node19 -->
<g id="edge18" class="edge">
<title>Node20&#45;&gt;Node19</title>
<path fill="none" stroke="#191970" d="M383.7884,-173.2097C370.2647,-163.3743 353.3042,-151.0394 341.7587,-142.6427"/>
<polygon fill="#191970" stroke="#191970" points="381.9416,-176.1944 392.0876,-179.2455 386.0589,-170.5332 381.9416,-176.1944"/>
</g>
<!-- Node21&#45;&gt;Node10 -->
<g id="edge20" class="edge">
<title>Node21&#45;&gt;Node10</title>
<path fill="none" stroke="#191970" d="M244.4289,-169.8308C230.8021,-132.8892 201.3459,-53.0353 191.1001,-25.2595"/>
<polygon fill="#191970" stroke="#191970" points="241.2233,-171.254 247.9679,-179.4248 247.7908,-168.8314 241.2233,-171.254"/>
</g>
<!-- Node21&#45;&gt;Node12 -->
<g id="edge21" class="edge">
<title>Node21&#45;&gt;Node12</title>
<path fill="none" stroke="#191970" d="M252.9392,-169.0908C254.9104,-154.8259 259.5596,-135.9273 270.5,-123 289.121,-100.9972 359.7745,-74.8841 387.5,-67 530.6858,-26.2834 574.2845,-58.947 720.5,-31 728.724,-29.4281 737.5018,-27.2462 745.6099,-25.015"/>
<polygon fill="#191970" stroke="#191970" points="249.4271,-169.024 251.8634,-179.3349 256.3888,-169.7551 249.4271,-169.024"/>
</g>
<!-- Node21&#45;&gt;Node14 -->
<g id="edge23" class="edge">
<title>Node21&#45;&gt;Node14</title>
<path fill="none" stroke="#191970" d="M233.4432,-172.5976C194.2951,-137.0364 102.6087,-53.7506 71.2439,-25.2595"/>
<polygon fill="#191970" stroke="#191970" points="231.2035,-175.2916 240.9589,-179.4248 235.9102,-170.1102 231.2035,-175.2916"/>
</g>
<!-- Node21&#45;&gt;Node19 -->
<g id="edge22" class="edge">
<title>Node21&#45;&gt;Node19</title>
<path fill="none" stroke="#191970" d="M273.2116,-173.2097C286.7353,-163.3743 303.6958,-151.0394 315.2413,-142.6427"/>
<polygon fill="#191970" stroke="#191970" points="270.9411,-170.5332 264.9124,-179.2455 275.0584,-176.1944 270.9411,-170.5332"/>
</g>
<!-- Node22&#45;&gt;Node7 -->
<g id="edge25" class="edge">
<title>Node22&#45;&gt;Node7</title>
<path fill="none" stroke="#191970" d="M528.5064,-173.2097C514.8071,-163.3743 497.6264,-151.0394 485.9309,-142.6427"/>
<polygon fill="#191970" stroke="#191970" points="526.7489,-176.2566 536.9134,-179.2455 530.8314,-170.5703 526.7489,-176.2566"/>
</g>
<!-- Node22&#45;&gt;Node12 -->
<g id="edge26" class="edge">
<title>Node22&#45;&gt;Node12</title>
<path fill="none" stroke="#191970" d="M550.0408,-168.6959C550.8033,-154.2346 554.1796,-135.2631 565.5,-123 601.8277,-83.6472 632.7933,-111.3397 680.5,-87 714.5608,-69.6224 749.253,-40.2881 766.073,-25.1621"/>
<polygon fill="#191970" stroke="#191970" points="546.5351,-169.062 549.8878,-179.1123 553.5344,-169.1648 546.5351,-169.062"/>
</g>
<!-- Node23 -->
<g id="node18" class="node">
<title>Node23</title>
<g id="a_node18"><a xlink:href="neuron__monitor_8cpp.html" target="_top" xlink:title="neuron_monitor.cpp">
<polygon fill="#ffffff" stroke="#000000" points="574.5,-123.5 574.5,-142.5 676.5,-142.5 676.5,-123.5 574.5,-123.5"/>
<text text-anchor="middle" x="625.5" y="-130.5" font-family="Helvetica,sans-Serif" font-size="10.00" fill="#000000">neuron_monitor.cpp</text>
</a>
</g>
</g>
<!-- Node22&#45;&gt;Node23 -->
<g id="edge27" class="edge">
<title>Node22&#45;&gt;Node23</title>
<path fill="none" stroke="#191970" d="M571.6477,-173.2097C584.8201,-163.3743 601.34,-151.0394 612.5857,-142.6427"/>
<polygon fill="#191970" stroke="#191970" points="569.4828,-170.4581 563.564,-179.2455 573.6709,-176.0671 569.4828,-170.4581"/>
</g>
<!-- Node24&#45;&gt;Node12 -->
<g id="edge29" class="edge">
<title>Node24&#45;&gt;Node12</title>
<path fill="none" stroke="#191970" d="M699.9244,-171.2977C714.4064,-151.5671 737.4127,-118.3068 752.5,-87 762.732,-65.768 770.4405,-39.045 774.1156,-25.0495"/>
<polygon fill="#191970" stroke="#191970" points="697.0905,-169.2432 693.9294,-179.3555 702.7066,-173.4217 697.0905,-169.2432"/>
</g>
<!-- Node24&#45;&gt;Node15 -->
<g id="edge31" class="edge">
<title>Node24&#45;&gt;Node15</title>
<path fill="none" stroke="#191970" d="M688.7587,-168.9264C690.8104,-144.238 691.9887,-101.3788 680.5,-67 675.1618,-51.0261 663.9964,-34.9024 656.373,-25.0559"/>
<polygon fill="#191970" stroke="#191970" points="685.2457,-168.8922 687.765,-179.1831 692.2131,-169.5672 685.2457,-168.8922"/>
</g>
<!-- Node24&#45;&gt;Node23 -->
<g id="edge30" class="edge">
<title>Node24&#45;&gt;Node23</title>
<path fill="none" stroke="#191970" d="M668.3751,-172.3607C657.822,-162.6727 644.8888,-150.7995 636.0036,-142.6427"/>
<polygon fill="#191970" stroke="#191970" points="666.1411,-175.0611 675.8746,-179.2455 670.875,-169.9045 666.1411,-175.0611"/>
</g>
<!-- Node25&#45;&gt;Node7 -->
<g id="edge33" class="edge">
<title>Node25&#45;&gt;Node7</title>
<path fill="none" stroke="#191970" d="M759.3541,-179.9779C757.378,-179.647 755.4215,-179.3201 753.5,-179 661.096,-163.606 551.5201,-145.7968 500.8273,-137.5831"/>
<polygon fill="#191970" stroke="#191970" points="758.8847,-183.448 769.3265,-181.6536 760.0448,-176.5448 758.8847,-183.448"/>
</g>
<!-- Node25&#45;&gt;Node12 -->
<g id="edge34" class="edge">
<title>Node25&#45;&gt;Node12</title>
<path fill="none" stroke="#191970" d="M809.5088,-169.4256C805.6894,-145.2395 798.5971,-102.8856 790.5,-67 787.1962,-52.3581 782.4675,-35.6241 779.4402,-25.3092"/>
<polygon fill="#191970" stroke="#191970" points="806.0729,-170.1086 811.0682,-179.4519 812.9897,-169.0328 806.0729,-170.1086"/>
</g>
<!-- Node26 -->
<g id="node21" class="node">
<title>Node26</title>
<g id="a_node21"><a xlink:href="spike__monitor_8cpp.html" target="_top" xlink:title="spike_monitor.cpp">
<polygon fill="#ffffff" stroke="#000000" points="842.5,-123.5 842.5,-142.5 938.5,-142.5 938.5,-123.5 842.5,-123.5"/>
<text text-anchor="middle" x="890.5" y="-130.5" font-family="Helvetica,sans-Serif" font-size="10.00" fill="#000000">spike_monitor.cpp</text>
</a>
</g>
</g>
<!-- Node25&#45;&gt;Node26 -->
<g id="edge35" class="edge">
<title>Node25&#45;&gt;Node26</title>
<path fill="none" stroke="#191970" d="M834.4936,-173.2097C848.1929,-163.3743 865.3736,-151.0394 877.0691,-142.6427"/>
<polygon fill="#191970" stroke="#191970" points="832.1686,-170.5703 826.0866,-179.2455 836.2511,-176.2566 832.1686,-170.5703"/>
</g>
<!-- Node27&#45;&gt;Node12 -->
<g id="edge37" class="edge">
<title>Node27&#45;&gt;Node12</title>
<path fill="none" stroke="#191970" d="M954.1744,-169.3083C955.7235,-155.4328 955.6094,-136.9203 947.5,-123 916.6098,-69.9751 848.0439,-39.2104 807.7471,-25.0506"/>
<polygon fill="#191970" stroke="#191970" points="950.7027,-168.8602 952.6965,-179.2657 957.6268,-169.888 950.7027,-168.8602"/>
</g>
<!-- Node27&#45;&gt;Node16 -->
<g id="edge39" class="edge">
<title>Node27&#45;&gt;Node16</title>
<path fill="none" stroke="#191970" d="M965.4691,-171.3445C971.3756,-163.2525 977.4674,-153.2016 980.5,-143 990.1249,-110.6225 988.5762,-99.7981 980.5,-67 976.638,-51.3161 967.0566,-35.1199 960.4137,-25.1783"/>
<polygon fill="#191970" stroke="#191970" points="962.677,-169.2333 959.2861,-179.2709 968.1964,-173.5387 962.677,-169.2333"/>
</g>
<!-- Node27&#45;&gt;Node26 -->
<g id="edge38" class="edge">
<title>Node27&#45;&gt;Node26</title>
<path fill="none" stroke="#191970" d="M932.6722,-172.3607C922.2922,-162.6727 909.5709,-150.7995 900.8314,-142.6427"/>
<polygon fill="#191970" stroke="#191970" points="930.3501,-174.981 940.0488,-179.2455 935.1263,-169.8636 930.3501,-174.981"/>
</g>
</g>
</svg>
        <g id="navigator" transform="translate(0 0)" fill="#404254">
                <rect fill="#f2f5e9" fill-opacity="0.5" stroke="#606060" stroke-width=".5" x="0" y="0" width="60" height="60"/>
                <use id="zoomplus" xlink:href="#zoomPlus" x="17" y="9" onmousedown="handleZoom(evt,'in')"/>
                <use id="zoomminus" xlink:href="#zoomMin" x="42" y="9" onmousedown="handleZoom(evt,'out')"/>
                <use id="reset" xlink:href="#resetDef" x="30" y="36" onmousedown="handleReset()"/>
                <g id="arrowUp" xlink:href="#dirArrow" transform="translate(30 24)" onmousedown="handlePan(0,-1)">
                  <use xlink:href="#rim" fill="#404040">
                        <set attributeName="fill" to="#808080" begin="arrowUp.mouseover" end="arrowUp.mouseout"/>
                  </use>
                  <path fill="none" stroke="white" stroke-width="1.5" d="M0,-3.0v7 M-2.5,-0.5L0,-3.0L2.5,-0.5"/>
                </g>
                <g id="arrowRight" xlink:href="#dirArrow" transform="rotate(90) translate(36 -43)" onmousedown="handlePan(1,0)">
                  <use xlink:href="#rim" fill="#404040">
                        <set attributeName="fill" to="#808080" begin="arrowRight.mouseover" end="arrowRight.mouseout"/>
                  </use>
                  <path fill="none" stroke="white" stroke-width="1.5" d="M0,-3.0v7 M-2.5,-0.5L0,-3.0L2.5,-0.5"/>
                </g>
                <g id="arrowDown" xlink:href="#dirArrow" transform="rotate(180) translate(-30 -48)" onmousedown="handlePan(0,1)">
                  <use xlink:href="#rim" fill="#404040">
                        <set attributeName="fill" to="#808080" begin="arrowDown.mouseover" end="arrowDown.mouseout"/>
                  </use>
                  <path fill="none" stroke="white" stroke-width="1.5" d="M0,-3.0v7 M-2.5,-0.5L0,-3.0L2.5,-0.5"/>
                </g>
                <g id="arrowLeft" xlink:href="#dirArrow" transform="rotate(270) translate(-36 17)" onmousedown="handlePan(-1,0)">
                  <use xlink:href="#rim" fill="#404040">
                        <set attributeName="fill" to="#808080" begin="arrowLeft.mouseover" end="arrowLeft.mouseout"/>
                  </use>
                  <path fill="none" stroke="white" stroke-width="1.5" d="M0,-3.0v7 M-2.5,-0.5L0,-3.0L2.5,-0.5"/>
                </g>
        </g>
        <svg viewBox="0 0 15 15" width="100%" height="30px" preserveAspectRatio="xMaxYMin meet">
         <g id="arrow_out" transform="scale(0.3 0.3)">
          <a xlink:href="carlsim__datastructures_8h__dep__incl_org.svg" target="_base">
           <rect id="button" ry="5" rx="5" y="6" x="6" height="38" width="38"
                fill="#f2f5e9" fill-opacity="0.5" stroke="#606060" stroke-width="1.0"/>
           <path id="arrow"
             d="M 11.500037,31.436501 C 11.940474,20.09759 22.043105,11.32322 32.158766,21.979434 L 37.068811,17.246167 C 37.068811,17.246167 37.088388,32 37.088388,32 L 22.160133,31.978069 C 22.160133,31.978069 26.997745,27.140456 26.997745,27.140456 C 18.528582,18.264221 13.291696,25.230495 11.500037,31.436501 z"
             style="fill:#404040;"/>
          </a>
         </g>
        </svg>
</svg>
