<?xml version="1.0" encoding="UTF-8" standalone="no"?>
<!DOCTYPE svg PUBLIC "-//W3C//DTD SVG 1.1//EN"
 "http://www.w3.org/Graphics/SVG/1.1/DTD/svg11.dtd">
<!-- Generated by graphviz version 2.40.1 (20161225.0304)
 -->
<!-- Title: carlsim_api.h Pages: 1 -->
<!--zoomable 375 -->
<svg id="main" version="1.1" xmlns="http://www.w3.org/2000/svg" xmlns:xlink="http://www.w3.org/1999/xlink" xml:space="preserve" onload="init(evt)">
<style type="text/css"><![CDATA[
.edge:hover path { stroke: red; }
.edge:hover polygon { stroke: red; fill: red; }
]]></style>
<script type="text/javascript"><![CDATA[
var edges = document.getElementsByTagName('g');
if (edges && edges.length) {
  for (var i=0;i<edges.length;i++) {
    if (edges[i].id.substr(0,4)=='edge') {
      edges[i].setAttribute('class','edge');
    }
  }
}
]]></script>
        <defs>
                <circle id="rim" cx="0" cy="0" r="7"/>
                <circle id="rim2" cx="0" cy="0" r="3.5"/>
                <g id="zoomPlus">
                        <use xlink:href="#rim" fill="#404040">
                                <set attributeName="fill" to="#808080" begin="zoomplus.mouseover" end="zoomplus.mouseout"/>
                        </use>
                        <path d="M-4,0h8M0,-4v8" fill="none" stroke="white" stroke-width="1.5" pointer-events="none"/>
                </g>
                <g id="zoomMin">
                        <use xlink:href="#rim" fill="#404040">
                                <set attributeName="fill" to="#808080" begin="zoomminus.mouseover" end="zoomminus.mouseout"/>
                        </use>
                        <path d="M-4,0h8" fill="none" stroke="white" stroke-width="1.5" pointer-events="none"/>
                </g>
                <g id="dirArrow">
                        <path fill="none" stroke="white" stroke-width="1.5" d="M0,-3.0v7 M-2.5,-0.5L0,-3.0L2.5,-0.5"/>
                </g>
               <g id="resetDef">
                       <use xlink:href="#rim2" fill="#404040">
                               <set attributeName="fill" to="#808080" begin="reset.mouseover" end="reset.mouseout"/>
                       </use>
               </g>
        </defs>

<script type="text/javascript">
var viewWidth = 1364;
var viewHeight = 375;
var sectionId = 'dynsection-1';
</script>
<script xlink:href="svgpan.js"/>
<svg id="graph" class="graph">
<g id="viewport">
<title>carlsim_api.h</title>
<polygon fill="#ffffff" stroke="transparent" points="-4,4 -4,-371 1359.5,-371 1359.5,4 -4,4"/>
<!-- Node2 -->
<g id="node1" class="node">
<title>Node2</title>
<polygon fill="#bfbfbf" stroke="#000000" points="756.5,-347.5 756.5,-366.5 830.5,-366.5 830.5,-347.5 756.5,-347.5"/>
<text text-anchor="middle" x="793.5" y="-354.5" font-family="Helvetica,sans-Serif" font-size="10.00" fill="#000000">carlsim_api.h</text>
</g>
<!-- Node3 -->
<g id="node2" class="node">
<title>Node3</title>
<g id="a_node2"><a xlink:href="carlsim_8h.html" target="_top" xlink:title="carlsim.h">
<polygon fill="#ffffff" stroke="#000000" points="605.5,-123.5 605.5,-142.5 661.5,-142.5 661.5,-123.5 605.5,-123.5"/>
<text text-anchor="middle" x="633.5" y="-130.5" font-family="Helvetica,sans-Serif" font-size="10.00" fill="#000000">carlsim.h</text>
</a>
</g>
</g>
<!-- Node2&#45;&gt;Node3 -->
<g id="edge1" class="edge">
<title>Node2&#45;&gt;Node3</title>
<path fill="none" stroke="#191970" d="M746.1826,-348.3794C667.365,-332.951 514.7338,-298.158 483.5,-255 478.2886,-247.799 478.17,-242.1136 483.5,-235 517.6547,-189.416 564.192,-237.1376 606.5,-199 623.2358,-183.9139 629.8221,-156.9198 632.2313,-142.5744"/>
<polygon fill="#191970" stroke="#191970" points="745.8526,-351.8803 756.3348,-350.3394 747.1796,-345.0072 745.8526,-351.8803"/>
</g>
<!-- Node15 -->
<g id="node14" class="node">
<title>Node15</title>
<g id="a_node14"><a xlink:href="poisson__rate_8h.html" target="_top" xlink:title="poisson_rate.h">
<polygon fill="#ffffff" stroke="#000000" points="132.5,-179.5 132.5,-198.5 212.5,-198.5 212.5,-179.5 132.5,-179.5"/>
<text text-anchor="middle" x="172.5" y="-186.5" font-family="Helvetica,sans-Serif" font-size="10.00" fill="#000000">poisson_rate.h</text>
</a>
</g>
</g>
<!-- Node2&#45;&gt;Node15 -->
<g id="edge14" class="edge">
<title>Node2&#45;&gt;Node15</title>
<path fill="none" stroke="#191970" d="M746.2369,-354.6746C671.1608,-350.2814 520.3692,-338.5983 395.5,-311 318.2373,-293.9236 291.6938,-299.8431 226.5,-255 204.2999,-239.7298 186.3722,-212.8134 177.8628,-198.5283"/>
<polygon fill="#191970" stroke="#191970" points="746.135,-358.1744 756.3174,-355.2471 746.5319,-351.1857 746.135,-358.1744"/>
</g>
<!-- Node18 -->
<g id="node17" class="node">
<title>Node18</title>
<g id="a_node17"><a xlink:href="user__errors_8h.html" target="_top" xlink:title="user_errors.h">
<polygon fill="#ffffff" stroke="#000000" points="756.5,-291.5 756.5,-310.5 830.5,-310.5 830.5,-291.5 756.5,-291.5"/>
<text text-anchor="middle" x="793.5" y="-298.5" font-family="Helvetica,sans-Serif" font-size="10.00" fill="#000000">user_errors.h</text>
</a>
</g>
</g>
<!-- Node2&#45;&gt;Node18 -->
<g id="edge19" class="edge">
<title>Node2&#45;&gt;Node18</title>
<path fill="none" stroke="#191970" d="M793.5,-337.1575C793.5,-328.155 793.5,-317.9199 793.5,-310.6427"/>
<polygon fill="#191970" stroke="#191970" points="790.0001,-337.2455 793.5,-347.2455 797.0001,-337.2456 790.0001,-337.2455"/>
</g>
<!-- Node21 -->
<g id="node20" class="node">
<title>Node21</title>
<g id="a_node20"><a xlink:href="group__monitor_8h.html" target="_top" xlink:title="group_monitor.h">
<polygon fill="#ffffff" stroke="#000000" points="511.5,-179.5 511.5,-198.5 597.5,-198.5 597.5,-179.5 511.5,-179.5"/>
<text text-anchor="middle" x="554.5" y="-186.5" font-family="Helvetica,sans-Serif" font-size="10.00" fill="#000000">group_monitor.h</text>
</a>
</g>
</g>
<!-- Node2&#45;&gt;Node21 -->
<g id="edge60" class="edge">
<title>Node2&#45;&gt;Node21</title>
<path fill="none" stroke="#191970" d="M746.0452,-354.7331C648.8283,-349.6021 434.3019,-335.5925 412.5,-311 390.0926,-285.7246 392.6339,-262.318 412.5,-235 424.3119,-218.7574 473.8764,-205.3203 511.1474,-197.2459"/>
<polygon fill="#191970" stroke="#191970" points="746.0221,-358.2365 756.1899,-355.2587 746.3844,-351.2459 746.0221,-358.2365"/>
</g>
<!-- Node23 -->
<g id="node22" class="node">
<title>Node23</title>
<g id="a_node22"><a xlink:href="neuron__monitor_8h.html" target="_top" xlink:title="neuron_monitor.h">
<polygon fill="#ffffff" stroke="#000000" points="1055.5,-179.5 1055.5,-198.5 1147.5,-198.5 1147.5,-179.5 1055.5,-179.5"/>
<text text-anchor="middle" x="1101.5" y="-186.5" font-family="Helvetica,sans-Serif" font-size="10.00" fill="#000000">neuron_monitor.h</text>
</a>
</g>
</g>
<!-- Node2&#45;&gt;Node23 -->
<g id="edge61" class="edge">
<title>Node2&#45;&gt;Node23</title>
<path fill="none" stroke="#191970" d="M840.6658,-355.093C949.1427,-350.2919 1209.3767,-336.251 1239.5,-311 1265.9535,-288.8252 1276.1215,-262.6814 1255.5,-235 1242.4976,-217.5461 1188.1559,-204.2826 1147.6854,-196.5838"/>
<polygon fill="#191970" stroke="#191970" points="840.4928,-351.5971 830.6546,-355.5288 840.7974,-358.5905 840.4928,-351.5971"/>
</g>
<!-- Node26 -->
<g id="node25" class="node">
<title>Node26</title>
<g id="a_node25"><a xlink:href="spike__monitor_8h.html" target="_top" xlink:title="spike_monitor.h">
<polygon fill="#ffffff" stroke="#000000" points="1203.5,-179.5 1203.5,-198.5 1289.5,-198.5 1289.5,-179.5 1203.5,-179.5"/>
<text text-anchor="middle" x="1246.5" y="-186.5" font-family="Helvetica,sans-Serif" font-size="10.00" fill="#000000">spike_monitor.h</text>
</a>
</g>
</g>
<!-- Node2&#45;&gt;Node26 -->
<g id="edge62" class="edge">
<title>Node2&#45;&gt;Node26</title>
<path fill="none" stroke="#191970" d="M840.8625,-355.5144C953.7734,-351.5325 1231.7022,-338.9692 1262.5,-311 1287.7657,-288.0548 1282.4516,-267.9349 1273.5,-235 1269.7597,-221.2386 1260.7487,-207.3875 1254.1619,-198.5346"/>
<polygon fill="#191970" stroke="#191970" points="840.656,-352.0193 830.7828,-355.8625 840.8976,-359.0152 840.656,-352.0193"/>
</g>
<!-- Node33 -->
<g id="node32" class="node">
<title>Node33</title>
<g id="a_node32"><a xlink:href="connection__monitor_8h.html" target="_top" xlink:title="connection_monitor.h">
<polygon fill="#ffffff" stroke="#000000" points="1120.5,-291.5 1120.5,-310.5 1230.5,-310.5 1230.5,-291.5 1120.5,-291.5"/>
<text text-anchor="middle" x="1175.5" y="-298.5" font-family="Helvetica,sans-Serif" font-size="10.00" fill="#000000">connection_monitor.h</text>
</a>
</g>
</g>
<!-- Node2&#45;&gt;Node33 -->
<g id="edge56" class="edge">
<title>Node2&#45;&gt;Node33</title>
<path fill="none" stroke="#191970" d="M840.8099,-350.0645C911.669,-339.6768 1045.0542,-320.1229 1120.2727,-309.0961"/>
<polygon fill="#191970" stroke="#191970" points="840.2099,-346.615 830.8233,-351.5285 841.2252,-353.541 840.2099,-346.615"/>
</g>
<!-- Node4 -->
<g id="node3" class="node">
<title>Node4</title>
<g id="a_node3"><a xlink:href="carlsim_8cpp.html" target="_top" xlink:title="carlsim.cpp">
<polygon fill="#ffffff" stroke="#000000" points="116,-6 116,-25 183,-25 183,-6 116,-6"/>
<text text-anchor="middle" x="149.5" y="-13" font-family="Helvetica,sans-Serif" font-size="10.00" fill="#000000">carlsim.cpp</text>
</a>
</g>
</g>
<!-- Node3&#45;&gt;Node4 -->
<g id="edge2" class="edge">
<title>Node3&#45;&gt;Node4</title>
<path fill="none" stroke="#191970" d="M595.2443,-126.7094C547.5368,-118.6327 463.5927,-103.6579 392.5,-87 302.2098,-65.8439 279.7406,-59.5219 191.5,-31 185.8793,-29.1832 179.8943,-27.0791 174.2565,-25.0183"/>
<polygon fill="#191970" stroke="#191970" points="594.6993,-130.1668 605.1413,-128.3738 595.8603,-123.2637 594.6993,-130.1668"/>
</g>
<!-- Node5 -->
<g id="node4" class="node">
<title>Node5</title>
<g id="a_node4"><a xlink:href="snn_8h.html" target="_top" xlink:title="snn.h">
<polygon fill="#ffffff" stroke="#000000" points="401,-67.5 401,-86.5 442,-86.5 442,-67.5 401,-67.5"/>
<text text-anchor="middle" x="421.5" y="-74.5" font-family="Helvetica,sans-Serif" font-size="10.00" fill="#000000">snn.h</text>
</a>
</g>
</g>
<!-- Node3&#45;&gt;Node5 -->
<g id="edge3" class="edge">
<title>Node3&#45;&gt;Node5</title>
<path fill="none" stroke="#191970" d="M595.3986,-122.9355C550.5035,-111.0764 477.548,-91.8051 442.1167,-82.4459"/>
<polygon fill="#191970" stroke="#191970" points="594.7858,-126.3936 605.348,-125.5636 596.5735,-119.6257 594.7858,-126.3936"/>
</g>
<!-- Node13 -->
<g id="node12" class="node">
<title>Node13</title>
<g id="a_node12"><a xlink:href="spikegen__from__file_8cpp.html" target="_top" xlink:title="spikegen_from_file.cpp">
<polygon fill="#ffffff" stroke="#000000" points="575,-67.5 575,-86.5 692,-86.5 692,-67.5 575,-67.5"/>
<text text-anchor="middle" x="633.5" y="-74.5" font-family="Helvetica,sans-Serif" font-size="10.00" fill="#000000">spikegen_from_file.cpp</text>
</a>
</g>
</g>
<!-- Node3&#45;&gt;Node13 -->
<g id="edge12" class="edge">
<title>Node3&#45;&gt;Node13</title>
<path fill="none" stroke="#191970" d="M633.5,-113.1575C633.5,-104.155 633.5,-93.9199 633.5,-86.6427"/>
<polygon fill="#191970" stroke="#191970" points="630.0001,-113.2455 633.5,-123.2455 637.0001,-113.2456 630.0001,-113.2455"/>
</g>
<!-- Node14 -->
<g id="node13" class="node">
<title>Node14</title>
<g id="a_node13"><a xlink:href="simple__weight__tuner_8cpp.html" target="_top" xlink:title="simple_weight_tuner.cpp">
<polygon fill="#ffffff" stroke="#000000" points="710,-67.5 710,-86.5 835,-86.5 835,-67.5 710,-67.5"/>
<text text-anchor="middle" x="772.5" y="-74.5" font-family="Helvetica,sans-Serif" font-size="10.00" fill="#000000">simple_weight_tuner.cpp</text>
</a>
</g>
</g>
<!-- Node3&#45;&gt;Node14 -->
<g id="edge13" class="edge">
<title>Node3&#45;&gt;Node14</title>
<path fill="none" stroke="#191970" d="M666.9621,-119.5189C692.2769,-109.3201 726.4103,-95.5685 748.9169,-86.5011"/>
<polygon fill="#191970" stroke="#191970" points="665.3626,-116.3899 657.395,-123.3733 667.9784,-122.8827 665.3626,-116.3899"/>
</g>
<!-- Node5&#45;&gt;Node4 -->
<g id="edge4" class="edge">
<title>Node5&#45;&gt;Node4</title>
<path fill="none" stroke="#191970" d="M390.9558,-68.0887C389.4526,-67.7081 387.9612,-67.3428 386.5,-67 300.6982,-46.8712 276.484,-54.3418 191.5,-31 185.5042,-29.3532 179.1541,-27.2219 173.2569,-25.0699"/>
<polygon fill="#191970" stroke="#191970" points="390.2921,-71.5344 400.8577,-70.7477 392.1076,-64.7739 390.2921,-71.5344"/>
</g>
<!-- Node6 -->
<g id="node5" class="node">
<title>Node6</title>
<g id="a_node5"><a xlink:href="print__snn__info_8cpp.html" target="_top" xlink:title="print_snn_info.cpp">
<polygon fill="#ffffff" stroke="#000000" points="586.5,-6 586.5,-25 682.5,-25 682.5,-6 586.5,-6"/>
<text text-anchor="middle" x="634.5" y="-13" font-family="Helvetica,sans-Serif" font-size="10.00" fill="#000000">print_snn_info.cpp</text>
</a>
</g>
</g>
<!-- Node5&#45;&gt;Node6 -->
<g id="edge5" class="edge">
<title>Node5&#45;&gt;Node6</title>
<path fill="none" stroke="#191970" d="M451.9572,-68.206C491.597,-56.7607 560.6137,-36.8334 601.4762,-25.0351"/>
<polygon fill="#191970" stroke="#191970" points="450.9478,-64.8544 442.3112,-70.9911 452.8896,-71.5797 450.9478,-64.8544"/>
</g>
<!-- Node7 -->
<g id="node6" class="node">
<title>Node7</title>
<g id="a_node6"><a xlink:href="snn__cpu__module_8cpp.html" target="_top" xlink:title="snn_cpu_module.cpp">
<polygon fill="#ffffff" stroke="#000000" points="459,-6 459,-25 568,-25 568,-6 459,-6"/>
<text text-anchor="middle" x="513.5" y="-13" font-family="Helvetica,sans-Serif" font-size="10.00" fill="#000000">snn_cpu_module.cpp</text>
</a>
</g>
</g>
<!-- Node5&#45;&gt;Node7 -->
<g id="edge6" class="edge">
<title>Node5&#45;&gt;Node7</title>
<path fill="none" stroke="#191970" d="M444.2591,-61.786C461.4618,-50.2864 484.5462,-34.855 499.2259,-25.0419"/>
<polygon fill="#191970" stroke="#191970" points="442.2434,-58.9234 435.875,-67.3906 446.1337,-64.7429 442.2434,-58.9234"/>
</g>
<!-- Node8 -->
<g id="node7" class="node">
<title>Node8</title>
<g id="a_node7"><a xlink:href="snn__manager_8cpp.html" target="_top" xlink:title="snn_manager.cpp">
<polygon fill="#ffffff" stroke="#000000" points="982.5,-6 982.5,-25 1076.5,-25 1076.5,-6 982.5,-6"/>
<text text-anchor="middle" x="1029.5" y="-13" font-family="Helvetica,sans-Serif" font-size="10.00" fill="#000000">snn_manager.cpp</text>
</a>
</g>
</g>
<!-- Node5&#45;&gt;Node8 -->
<g id="edge7" class="edge">
<title>Node5&#45;&gt;Node8</title>
<path fill="none" stroke="#191970" d="M452.497,-72.3277C465.456,-70.4852 480.6861,-68.4639 494.5,-67 706.8006,-44.5022 763.1799,-67.6489 973.5,-31 981.9473,-29.528 990.9588,-27.3248 999.2285,-25.0381"/>
<polygon fill="#191970" stroke="#191970" points="451.6206,-68.9181 442.2265,-73.8171 452.6253,-75.8456 451.6206,-68.9181"/>
</g>
<!-- Node9 -->
<g id="node8" class="node">
<title>Node9</title>
<g id="a_node8"><a xlink:href="connection__monitor__core_8cpp.html" target="_top" xlink:title="connection_monitor\l_core.cpp">
<polygon fill="#ffffff" stroke="#000000" points="340,-.5 340,-30.5 441,-30.5 441,-.5 340,-.5"/>
<text text-anchor="start" x="348" y="-18.5" font-family="Helvetica,sans-Serif" font-size="10.00" fill="#000000">connection_monitor</text>
<text text-anchor="middle" x="390.5" y="-7.5" font-family="Helvetica,sans-Serif" font-size="10.00" fill="#000000">_core.cpp</text>
</a>
</g>
</g>
<!-- Node5&#45;&gt;Node9 -->
<g id="edge8" class="edge">
<title>Node5&#45;&gt;Node9</title>
<path fill="none" stroke="#191970" d="M412.0404,-58.2334C407.5644,-49.3537 402.2918,-38.8934 398.0835,-30.5446"/>
<polygon fill="#191970" stroke="#191970" points="409.0296,-60.0363 416.6563,-67.3906 415.2804,-56.8855 409.0296,-60.0363"/>
</g>
<!-- Node10 -->
<g id="node9" class="node">
<title>Node10</title>
<g id="a_node9"><a xlink:href="group__monitor__core_8cpp.html" target="_top" xlink:title="group_monitor_core.cpp">
<polygon fill="#ffffff" stroke="#000000" points="201,-6 201,-25 322,-25 322,-6 201,-6"/>
<text text-anchor="middle" x="261.5" y="-13" font-family="Helvetica,sans-Serif" font-size="10.00" fill="#000000">group_monitor_core.cpp</text>
</a>
</g>
</g>
<!-- Node5&#45;&gt;Node10 -->
<g id="edge9" class="edge">
<title>Node5&#45;&gt;Node10</title>
<path fill="none" stroke="#191970" d="M391.2825,-65.3851C360.9588,-53.7295 314.798,-35.9864 286.4787,-25.1012"/>
<polygon fill="#191970" stroke="#191970" points="390.3204,-68.7649 400.9104,-69.0859 392.8319,-62.231 390.3204,-68.7649"/>
</g>
<!-- Node11 -->
<g id="node10" class="node">
<title>Node11</title>
<g id="a_node10"><a xlink:href="neuron__monitor__core_8cpp.html" target="_top" xlink:title="neuron_monitor_core.cpp">
<polygon fill="#ffffff" stroke="#000000" points="838.5,-6 838.5,-25 964.5,-25 964.5,-6 838.5,-6"/>
<text text-anchor="middle" x="901.5" y="-13" font-family="Helvetica,sans-Serif" font-size="10.00" fill="#000000">neuron_monitor_core.cpp</text>
</a>
</g>
</g>
<!-- Node5&#45;&gt;Node11 -->
<g id="edge10" class="edge">
<title>Node5&#45;&gt;Node11</title>
<path fill="none" stroke="#191970" d="M452.5221,-72.5476C465.4851,-70.7398 480.7113,-68.685 494.5,-67 643.1405,-48.8364 681.6557,-54.7903 829.5,-31 839.7254,-29.3546 850.6882,-27.1987 860.898,-25.02"/>
<polygon fill="#191970" stroke="#191970" points="451.661,-69.1342 442.2467,-73.9944 452.6371,-76.0658 451.661,-69.1342"/>
</g>
<!-- Node12 -->
<g id="node11" class="node">
<title>Node12</title>
<g id="a_node11"><a xlink:href="spike__monitor__core_8cpp.html" target="_top" xlink:title="spike_monitor_core.cpp">
<polygon fill="#ffffff" stroke="#000000" points="700.5,-6 700.5,-25 820.5,-25 820.5,-6 700.5,-6"/>
<text text-anchor="middle" x="760.5" y="-13" font-family="Helvetica,sans-Serif" font-size="10.00" fill="#000000">spike_monitor_core.cpp</text>
</a>
</g>
</g>
<!-- Node5&#45;&gt;Node12 -->
<g id="edge11" class="edge">
<title>Node5&#45;&gt;Node12</title>
<path fill="none" stroke="#191970" d="M452.4262,-72.2695C502.7028,-64.4585 605.2289,-48.0268 691.5,-31 700.6545,-29.1932 710.4548,-27.0932 719.7106,-25.0331"/>
<polygon fill="#191970" stroke="#191970" points="451.5775,-68.8591 442.23,-73.8465 452.6475,-75.7768 451.5775,-68.8591"/>
</g>
<!-- Node15&#45;&gt;Node3 -->
<g id="edge15" class="edge">
<title>Node15&#45;&gt;Node3</title>
<path fill="none" stroke="#191970" d="M222.7356,-182.8976C319.6441,-171.1257 529.5265,-145.6302 605.4076,-136.4125"/>
<polygon fill="#191970" stroke="#191970" points="222.1092,-179.4479 212.6043,-184.1283 222.9534,-186.3968 222.1092,-179.4479"/>
</g>
<!-- Node15&#45;&gt;Node5 -->
<g id="edge17" class="edge">
<title>Node15&#45;&gt;Node5</title>
<path fill="none" stroke="#191970" d="M198.1743,-174.3428C223.3126,-160.2824 262.9141,-138.9001 298.5,-123 333.678,-107.2822 376.0142,-92.2697 400.7268,-83.8812"/>
<polygon fill="#191970" stroke="#191970" points="196.2835,-171.3907 189.2866,-179.3464 199.7176,-177.4905 196.2835,-171.3907"/>
</g>
<!-- Node16 -->
<g id="node15" class="node">
<title>Node16</title>
<g id="a_node15"><a xlink:href="poisson__rate_8cpp.html" target="_top" xlink:title="poisson_rate.cpp">
<polygon fill="#ffffff" stroke="#000000" points="0,-123.5 0,-142.5 91,-142.5 91,-123.5 0,-123.5"/>
<text text-anchor="middle" x="45.5" y="-130.5" font-family="Helvetica,sans-Serif" font-size="10.00" fill="#000000">poisson_rate.cpp</text>
</a>
</g>
</g>
<!-- Node15&#45;&gt;Node16 -->
<g id="edge16" class="edge">
<title>Node15&#45;&gt;Node16</title>
<path fill="none" stroke="#191970" d="M141.3108,-175.2473C118.2463,-165.0771 87.4288,-151.4883 67.0472,-142.5011"/>
<polygon fill="#191970" stroke="#191970" points="140.1058,-178.5411 150.6679,-179.3733 142.9301,-172.1361 140.1058,-178.5411"/>
</g>
<!-- Node17 -->
<g id="node16" class="node">
<title>Node17</title>
<g id="a_node16"><a xlink:href="visual__stimulus_8cpp.html" target="_top" xlink:title="visual_stimulus.cpp">
<polygon fill="#ffffff" stroke="#000000" points="109,-123.5 109,-142.5 212,-142.5 212,-123.5 109,-123.5"/>
<text text-anchor="middle" x="160.5" y="-130.5" font-family="Helvetica,sans-Serif" font-size="10.00" fill="#000000">visual_stimulus.cpp</text>
</a>
</g>
</g>
<!-- Node15&#45;&gt;Node17 -->
<g id="edge18" class="edge">
<title>Node15&#45;&gt;Node17</title>
<path fill="none" stroke="#191970" d="M168.3115,-169.4538C166.3672,-160.3803 164.1428,-149.9998 162.5663,-142.6427"/>
<polygon fill="#191970" stroke="#191970" points="164.8921,-170.2009 170.4098,-179.2455 171.7367,-168.7341 164.8921,-170.2009"/>
</g>
<!-- Node18&#45;&gt;Node4 -->
<g id="edge48" class="edge">
<title>Node18&#45;&gt;Node4</title>
<path fill="none" stroke="#191970" d="M746.2338,-299.9078C670.8518,-297.1979 519.2841,-287.7716 395.5,-255 323.1196,-235.8374 240.5,-263.8741 240.5,-189 240.5,-189 240.5,-189 240.5,-133 240.5,-83.9768 190.3734,-42.9984 164.5268,-25.1274"/>
<polygon fill="#191970" stroke="#191970" points="746.2423,-303.4099 756.3541,-300.2473 746.4771,-296.4139 746.2423,-303.4099"/>
</g>
<!-- Node19 -->
<g id="node18" class="node">
<title>Node19</title>
<g id="a_node18"><a xlink:href="carlsim__datastructures_8h.html" target="_top" xlink:title="carlsim_datastructures.h">
<polygon fill="#ffffff" stroke="#000000" points="492.5,-235.5 492.5,-254.5 616.5,-254.5 616.5,-235.5 492.5,-235.5"/>
<text text-anchor="middle" x="554.5" y="-242.5" font-family="Helvetica,sans-Serif" font-size="10.00" fill="#000000">carlsim_datastructures.h</text>
</a>
</g>
</g>
<!-- Node18&#45;&gt;Node19 -->
<g id="edge20" class="edge">
<title>Node18&#45;&gt;Node19</title>
<path fill="none" stroke="#191970" d="M746.5255,-289.9934C702.4519,-279.6666 637.21,-264.3798 595.2732,-254.5536"/>
<polygon fill="#191970" stroke="#191970" points="745.8837,-293.4378 756.4185,-292.3114 747.4807,-286.6223 745.8837,-293.4378"/>
</g>
<!-- Node20 -->
<g id="node19" class="node">
<title>Node20</title>
<g id="a_node19"><a xlink:href="group__monitor_8cpp.html" target="_top" xlink:title="group_monitor.cpp">
<polygon fill="#ffffff" stroke="#000000" points="307,-123.5 307,-142.5 404,-142.5 404,-123.5 307,-123.5"/>
<text text-anchor="middle" x="355.5" y="-130.5" font-family="Helvetica,sans-Serif" font-size="10.00" fill="#000000">group_monitor.cpp</text>
</a>
</g>
</g>
<!-- Node18&#45;&gt;Node20 -->
<g id="edge51" class="edge">
<title>Node18&#45;&gt;Node20</title>
<path fill="none" stroke="#191970" d="M745.8593,-297.9923C684.2474,-293.1869 574.0927,-281.4678 483.5,-255 425.0669,-237.9281 392.7482,-249.3283 358.5,-199 347.0137,-182.1206 350.0501,-156.8058 352.9668,-142.9466"/>
<polygon fill="#191970" stroke="#191970" points="745.8175,-301.499 756.0517,-298.7584 746.3422,-294.5187 745.8175,-301.499"/>
</g>
<!-- Node24 -->
<g id="node23" class="node">
<title>Node24</title>
<g id="a_node23"><a xlink:href="neuron__monitor_8cpp.html" target="_top" xlink:title="neuron_monitor.cpp">
<polygon fill="#ffffff" stroke="#000000" points="990.5,-123.5 990.5,-142.5 1092.5,-142.5 1092.5,-123.5 990.5,-123.5"/>
<text text-anchor="middle" x="1041.5" y="-130.5" font-family="Helvetica,sans-Serif" font-size="10.00" fill="#000000">neuron_monitor.cpp</text>
</a>
</g>
</g>
<!-- Node18&#45;&gt;Node24 -->
<g id="edge52" class="edge">
<title>Node18&#45;&gt;Node24</title>
<path fill="none" stroke="#191970" d="M840.7058,-296.616C896.4965,-290.4856 984.7683,-277.4972 1008.5,-255 1040.8253,-224.3562 1042.6351,-165.598 1041.9989,-142.5819"/>
<polygon fill="#191970" stroke="#191970" points="840.2629,-293.1433 830.6893,-297.6816 841.0035,-300.104 840.2629,-293.1433"/>
</g>
<!-- Node27 -->
<g id="node26" class="node">
<title>Node27</title>
<g id="a_node26"><a xlink:href="spike__monitor_8cpp.html" target="_top" xlink:title="spike_monitor.cpp">
<polygon fill="#ffffff" stroke="#000000" points="1148.5,-123.5 1148.5,-142.5 1244.5,-142.5 1244.5,-123.5 1148.5,-123.5"/>
<text text-anchor="middle" x="1196.5" y="-130.5" font-family="Helvetica,sans-Serif" font-size="10.00" fill="#000000">spike_monitor.cpp</text>
</a>
</g>
</g>
<!-- Node18&#45;&gt;Node27 -->
<g id="edge53" class="edge">
<title>Node18&#45;&gt;Node27</title>
<path fill="none" stroke="#191970" d="M840.6477,-294.9685C888.8408,-288.0731 965.4893,-275.0747 1029.5,-255 1044.2154,-250.385 1144.9119,-209.1762 1156.5,-199 1174.6217,-183.0863 1187.0351,-156.9219 1192.8085,-142.7893"/>
<polygon fill="#191970" stroke="#191970" points="839.9326,-291.5344 830.515,-296.3882 840.9039,-298.4667 839.9326,-291.5344"/>
</g>
<!-- Node29 -->
<g id="node28" class="node">
<title>Node29</title>
<g id="a_node28"><a xlink:href="user__errors_8cpp.html" target="_top" xlink:title="user_errors.cpp">
<polygon fill="#ffffff" stroke="#000000" points="634.5,-235.5 634.5,-254.5 718.5,-254.5 718.5,-235.5 634.5,-235.5"/>
<text text-anchor="middle" x="676.5" y="-242.5" font-family="Helvetica,sans-Serif" font-size="10.00" fill="#000000">user_errors.cpp</text>
</a>
</g>
</g>
<!-- Node18&#45;&gt;Node29 -->
<g id="edge49" class="edge">
<title>Node18&#45;&gt;Node29</title>
<path fill="none" stroke="#191970" d="M764.1958,-286.9741C743.012,-276.8348 714.9597,-263.408 696.3506,-254.5011"/>
<polygon fill="#191970" stroke="#191970" points="762.8559,-290.2129 773.387,-291.3733 765.878,-283.8989 762.8559,-290.2129"/>
</g>
<!-- Node30 -->
<g id="node29" class="node">
<title>Node30</title>
<g id="a_node29"><a xlink:href="connection__monitor_8cpp.html" target="_top" xlink:title="connection_monitor.cpp">
<polygon fill="#ffffff" stroke="#000000" points="1093.5,-235.5 1093.5,-254.5 1213.5,-254.5 1213.5,-235.5 1093.5,-235.5"/>
<text text-anchor="middle" x="1153.5" y="-242.5" font-family="Helvetica,sans-Serif" font-size="10.00" fill="#000000">connection_monitor.cpp</text>
</a>
</g>
</g>
<!-- Node18&#45;&gt;Node30 -->
<g id="edge50" class="edge">
<title>Node18&#45;&gt;Node30</title>
<path fill="none" stroke="#191970" d="M840.6155,-293.6709C905.4516,-283.5853 1022.2091,-265.423 1093.3011,-254.3643"/>
<polygon fill="#191970" stroke="#191970" points="840.0136,-290.2224 830.6704,-295.2179 841.0896,-297.1392 840.0136,-290.2224"/>
</g>
<!-- Node31 -->
<g id="node30" class="node">
<title>Node31</title>
<g id="a_node30"><a xlink:href="periodic__spikegen_8cpp.html" target="_top" xlink:title="periodic_spikegen.cpp">
<polygon fill="#ffffff" stroke="#000000" points="737,-235.5 737,-254.5 850,-254.5 850,-235.5 737,-235.5"/>
<text text-anchor="middle" x="793.5" y="-242.5" font-family="Helvetica,sans-Serif" font-size="10.00" fill="#000000">periodic_spikegen.cpp</text>
</a>
</g>
</g>
<!-- Node18&#45;&gt;Node31 -->
<g id="edge54" class="edge">
<title>Node18&#45;&gt;Node31</title>
<path fill="none" stroke="#191970" d="M793.5,-281.1575C793.5,-272.155 793.5,-261.9199 793.5,-254.6427"/>
<polygon fill="#191970" stroke="#191970" points="790.0001,-281.2455 793.5,-291.2455 797.0001,-281.2456 790.0001,-281.2455"/>
</g>
<!-- Node32 -->
<g id="node31" class="node">
<title>Node32</title>
<g id="a_node31"><a xlink:href="spikegen__from__vector_8cpp.html" target="_top" xlink:title="spikegen_from_vector.cpp">
<polygon fill="#ffffff" stroke="#000000" points="868,-235.5 868,-254.5 999,-254.5 999,-235.5 868,-235.5"/>
<text text-anchor="middle" x="933.5" y="-242.5" font-family="Helvetica,sans-Serif" font-size="10.00" fill="#000000">spikegen_from_vector.cpp</text>
</a>
</g>
</g>
<!-- Node18&#45;&gt;Node32 -->
<g id="edge55" class="edge">
<title>Node18&#45;&gt;Node32</title>
<path fill="none" stroke="#191970" d="M826.8649,-287.6541C852.3952,-277.4419 886.9784,-263.6086 909.7472,-254.5011"/>
<polygon fill="#191970" stroke="#191970" points="825.5517,-284.4096 817.5669,-291.3733 828.1515,-290.909 825.5517,-284.4096"/>
</g>
<!-- Node19&#45;&gt;Node3 -->
<g id="edge21" class="edge">
<title>Node19&#45;&gt;Node3</title>
<path fill="none" stroke="#191970" d="M599.5823,-231.3627C615.0103,-224.2965 630.609,-213.9211 639.5,-199 649.9834,-181.4066 642.9875,-156.3707 637.7512,-142.7477"/>
<polygon fill="#191970" stroke="#191970" points="597.9346,-228.258 590.0598,-235.3459 600.6358,-234.7159 597.9346,-228.258"/>
</g>
<!-- Node19&#45;&gt;Node20 -->
<g id="edge22" class="edge">
<title>Node19&#45;&gt;Node20</title>
<path fill="none" stroke="#191970" d="M482.3334,-234.0437C439.3161,-226.1219 390.1231,-214.1598 374.5,-199 358.9258,-183.8877 355.893,-156.9047 355.4409,-142.5679"/>
<polygon fill="#191970" stroke="#191970" points="481.7942,-237.5027 492.2546,-235.8209 483.0285,-230.6124 481.7942,-237.5027"/>
</g>
<!-- Node19&#45;&gt;Node21 -->
<g id="edge23" class="edge">
<title>Node19&#45;&gt;Node21</title>
<path fill="none" stroke="#191970" d="M554.5,-225.1575C554.5,-216.155 554.5,-205.9199 554.5,-198.6427"/>
<polygon fill="#191970" stroke="#191970" points="551.0001,-225.2455 554.5,-235.2455 558.0001,-225.2456 551.0001,-225.2455"/>
</g>
<!-- Node22 -->
<g id="node21" class="node">
<title>Node22</title>
<g id="a_node21"><a xlink:href="group__monitor__core_8h.html" target="_top" xlink:title="group_monitor_core.h">
<polygon fill="#ffffff" stroke="#000000" points="383.5,-179.5 383.5,-198.5 493.5,-198.5 493.5,-179.5 383.5,-179.5"/>
<text text-anchor="middle" x="438.5" y="-186.5" font-family="Helvetica,sans-Serif" font-size="10.00" fill="#000000">group_monitor_core.h</text>
</a>
</g>
</g>
<!-- Node19&#45;&gt;Node22 -->
<g id="edge27" class="edge">
<title>Node19&#45;&gt;Node22</title>
<path fill="none" stroke="#191970" d="M525.4463,-230.9741C504.4435,-220.8348 476.6309,-207.408 458.1809,-198.5011"/>
<polygon fill="#191970" stroke="#191970" points="524.0317,-234.1776 534.5589,-235.3733 527.075,-227.8738 524.0317,-234.1776"/>
</g>
<!-- Node19&#45;&gt;Node23 -->
<g id="edge32" class="edge">
<title>Node19&#45;&gt;Node23</title>
<path fill="none" stroke="#191970" d="M626.8685,-234.8818C796.9941,-215.1061 841.6282,-215.8134 1008.5,-199 1023.6877,-197.4697 1040.2608,-195.715 1055.1542,-194.107"/>
<polygon fill="#191970" stroke="#191970" points="626.3429,-231.4193 616.817,-236.057 627.1558,-238.372 626.3429,-231.4193"/>
</g>
<!-- Node25 -->
<g id="node24" class="node">
<title>Node25</title>
<g id="a_node24"><a xlink:href="neuron__monitor__core_8h.html" target="_top" xlink:title="neuron_monitor_core.h">
<polygon fill="#ffffff" stroke="#000000" points="883.5,-179.5 883.5,-198.5 999.5,-198.5 999.5,-179.5 883.5,-179.5"/>
<text text-anchor="middle" x="941.5" y="-186.5" font-family="Helvetica,sans-Serif" font-size="10.00" fill="#000000">neuron_monitor_core.h</text>
</a>
</g>
</g>
<!-- Node19&#45;&gt;Node25 -->
<g id="edge36" class="edge">
<title>Node19&#45;&gt;Node25</title>
<path fill="none" stroke="#191970" d="M626.8794,-234.7089C691.748,-225.4586 789.4991,-211.4527 874.5,-199 877.4091,-198.5738 880.3891,-198.1355 883.3982,-197.6915"/>
<polygon fill="#191970" stroke="#191970" points="626.1637,-231.2754 616.7577,-236.1517 627.1516,-238.2054 626.1637,-231.2754"/>
</g>
<!-- Node19&#45;&gt;Node26 -->
<g id="edge40" class="edge">
<title>Node19&#45;&gt;Node26</title>
<path fill="none" stroke="#191970" d="M627.0609,-234.9036C862.5065,-210.754 924.2343,-219.7674 1156.5,-199 1171.6889,-197.6419 1188.2888,-195.8773 1203.0497,-194.2092"/>
<polygon fill="#191970" stroke="#191970" points="626.3933,-231.4539 616.8068,-235.9649 627.1141,-238.4167 626.3933,-231.4539"/>
</g>
<!-- Node28 -->
<g id="node27" class="node">
<title>Node28</title>
<g id="a_node27"><a xlink:href="spike__monitor__core_8h.html" target="_top" xlink:title="spike_monitor_core.h">
<polygon fill="#ffffff" stroke="#000000" points="755.5,-179.5 755.5,-198.5 865.5,-198.5 865.5,-179.5 755.5,-179.5"/>
<text text-anchor="middle" x="810.5" y="-186.5" font-family="Helvetica,sans-Serif" font-size="10.00" fill="#000000">spike_monitor_core.h</text>
</a>
</g>
</g>
<!-- Node19&#45;&gt;Node28 -->
<g id="edge44" class="edge">
<title>Node19&#45;&gt;Node28</title>
<path fill="none" stroke="#191970" d="M608.2487,-233.2425C655.4089,-222.9262 723.1241,-208.1135 766.9632,-198.5237"/>
<polygon fill="#191970" stroke="#191970" points="607.2381,-229.8807 598.2171,-235.4369 608.7341,-236.719 607.2381,-229.8807"/>
</g>
<!-- Node21&#45;&gt;Node3 -->
<g id="edge24" class="edge">
<title>Node21&#45;&gt;Node3</title>
<path fill="none" stroke="#191970" d="M576.7756,-173.2097C590.6505,-163.3743 608.0515,-151.0394 619.8969,-142.6427"/>
<polygon fill="#191970" stroke="#191970" points="574.3949,-170.6071 568.2607,-179.2455 578.4431,-176.3178 574.3949,-170.6071"/>
</g>
<!-- Node21&#45;&gt;Node8 -->
<g id="edge25" class="edge">
<title>Node21&#45;&gt;Node8</title>
<path fill="none" stroke="#191970" d="M549.7041,-169.5386C544.3172,-142.4536 539.518,-93.7183 566.5,-67 598.7591,-35.0563 928.8276,-39.0886 973.5,-31 981.8381,-29.4903 990.7337,-27.3025 998.9231,-25.0441"/>
<polygon fill="#191970" stroke="#191970" points="546.3052,-170.3787 551.8825,-179.3867 553.14,-168.8667 546.3052,-170.3787"/>
</g>
<!-- Node21&#45;&gt;Node20 -->
<g id="edge26" class="edge">
<title>Node21&#45;&gt;Node20</title>
<path fill="none" stroke="#191970" d="M510.3938,-176.5882C473.8323,-166.2996 422.6252,-151.8895 389.2629,-142.5011"/>
<polygon fill="#191970" stroke="#191970" points="509.7164,-180.0335 520.2907,-179.3733 511.6127,-173.2952 509.7164,-180.0335"/>
</g>
<!-- Node22&#45;&gt;Node6 -->
<g id="edge28" class="edge">
<title>Node22&#45;&gt;Node6</title>
<path fill="none" stroke="#191970" d="M442.5837,-169.2056C449.0833,-142.4751 464.2616,-94.9719 494.5,-67 510.0892,-52.5793 563.1608,-35.4995 599.2926,-25.0858"/>
<polygon fill="#191970" stroke="#191970" points="439.0993,-168.7469 440.3109,-179.2723 445.9274,-170.2886 439.0993,-168.7469"/>
</g>
<!-- Node22&#45;&gt;Node8 -->
<g id="edge29" class="edge">
<title>Node22&#45;&gt;Node8</title>
<path fill="none" stroke="#191970" d="M452.225,-170.9197C476.1359,-139.9693 525.196,-79.0002 549.5,-67 634.2889,-25.1352 880.4222,-47.684 973.5,-31 981.8408,-29.5049 990.7372,-27.3222 998.9267,-25.064"/>
<polygon fill="#191970" stroke="#191970" points="449.2354,-169.0666 445.9273,-179.1318 454.7901,-173.3265 449.2354,-169.0666"/>
</g>
<!-- Node22&#45;&gt;Node10 -->
<g id="edge31" class="edge">
<title>Node22&#45;&gt;Node10</title>
<path fill="none" stroke="#191970" d="M434.2559,-169.1183C430.5337,-155.1522 424.0332,-136.6095 413.5,-123 377.0999,-75.9689 314.5015,-41.0103 282.1692,-25.0664"/>
<polygon fill="#191970" stroke="#191970" points="430.9285,-170.2514 436.6694,-179.156 437.7346,-168.6148 430.9285,-170.2514"/>
</g>
<!-- Node22&#45;&gt;Node20 -->
<g id="edge30" class="edge">
<title>Node22&#45;&gt;Node20</title>
<path fill="none" stroke="#191970" d="M415.512,-173.49C400.8678,-163.6096 382.3556,-151.1194 369.7918,-142.6427"/>
<polygon fill="#191970" stroke="#191970" points="413.7953,-176.5539 424.0425,-179.2455 417.7104,-170.7511 413.7953,-176.5539"/>
</g>
<!-- Node23&#45;&gt;Node3 -->
<g id="edge33" class="edge">
<title>Node23&#45;&gt;Node3</title>
<path fill="none" stroke="#191970" d="M1045.3692,-182.2835C944.7733,-170.2464 737.2433,-145.4137 661.7481,-136.3801"/>
<polygon fill="#191970" stroke="#191970" points="1045.0005,-185.7643 1055.3456,-183.4772 1045.8323,-178.8138 1045.0005,-185.7643"/>
</g>
<!-- Node23&#45;&gt;Node8 -->
<g id="edge34" class="edge">
<title>Node23&#45;&gt;Node8</title>
<path fill="none" stroke="#191970" d="M1104.4452,-169.3569C1105.7417,-155.9956 1106.0818,-138.0743 1101.5,-123 1089.0886,-82.1658 1055.4397,-42.7293 1038.9145,-25.109"/>
<polygon fill="#191970" stroke="#191970" points="1100.9636,-168.9931 1103.2182,-179.3452 1107.9114,-169.8466 1100.9636,-168.9931"/>
</g>
<!-- Node23&#45;&gt;Node24 -->
<g id="edge35" class="edge">
<title>Node23&#45;&gt;Node24</title>
<path fill="none" stroke="#191970" d="M1083.6722,-172.3607C1073.2922,-162.6727 1060.5709,-150.7995 1051.8314,-142.6427"/>
<polygon fill="#191970" stroke="#191970" points="1081.3501,-174.981 1091.0488,-179.2455 1086.1263,-169.8636 1081.3501,-174.981"/>
</g>
<!-- Node25&#45;&gt;Node8 -->
<g id="edge37" class="edge">
<title>Node25&#45;&gt;Node8</title>
<path fill="none" stroke="#191970" d="M950.9827,-170.304C969.6115,-133.5756 1010.4015,-53.1545 1024.5499,-25.2595"/>
<polygon fill="#191970" stroke="#191970" points="947.7587,-168.9231 946.3566,-179.4248 954.0016,-172.0895 947.7587,-168.9231"/>
</g>
<!-- Node25&#45;&gt;Node11 -->
<g id="edge39" class="edge">
<title>Node25&#45;&gt;Node11</title>
<path fill="none" stroke="#191970" d="M936.9704,-169.3528C928.406,-132.2047 910.1262,-52.9161 903.75,-25.2595"/>
<polygon fill="#191970" stroke="#191970" points="933.6353,-170.4667 939.2924,-179.4248 940.4564,-168.894 933.6353,-170.4667"/>
</g>
<!-- Node25&#45;&gt;Node24 -->
<g id="edge38" class="edge">
<title>Node25&#45;&gt;Node24</title>
<path fill="none" stroke="#191970" d="M967.7098,-174.3225C985.5717,-164.3198 1008.7155,-151.3593 1024.2809,-142.6427"/>
<polygon fill="#191970" stroke="#191970" points="965.9336,-171.3057 958.9187,-179.2455 969.3539,-177.4132 965.9336,-171.3057"/>
</g>
<!-- Node26&#45;&gt;Node3 -->
<g id="edge41" class="edge">
<title>Node26&#45;&gt;Node3</title>
<path fill="none" stroke="#191970" d="M1193.4883,-182.9052C1181.3405,-181.5654 1168.4773,-180.192 1156.5,-179 967.615,-160.2023 739.9449,-141.5473 661.5847,-135.2422"/>
<polygon fill="#191970" stroke="#191970" points="1193.1633,-186.3905 1203.489,-184.0179 1193.9374,-179.4335 1193.1633,-186.3905"/>
</g>
<!-- Node26&#45;&gt;Node8 -->
<g id="edge42" class="edge">
<title>Node26&#45;&gt;Node8</title>
<path fill="none" stroke="#191970" d="M1254.6273,-169.5848C1259.1144,-155.599 1262.2049,-136.8331 1253.5,-123 1214.7887,-61.4836 1129.9934,-34.3754 1076.5503,-23.0311"/>
<polygon fill="#191970" stroke="#191970" points="1251.2627,-168.5935 1251.0959,-179.187 1257.8325,-171.0097 1251.2627,-168.5935"/>
</g>
<!-- Node26&#45;&gt;Node27 -->
<g id="edge43" class="edge">
<title>Node26&#45;&gt;Node27</title>
<path fill="none" stroke="#191970" d="M1230.8753,-171.5004C1222.3727,-161.9775 1212.1782,-150.5596 1205.1095,-142.6427"/>
<polygon fill="#191970" stroke="#191970" points="1228.5197,-174.1172 1237.7907,-179.2455 1233.7413,-169.4551 1228.5197,-174.1172"/>
</g>
<!-- Node28&#45;&gt;Node8 -->
<g id="edge45" class="edge">
<title>Node28&#45;&gt;Node8</title>
<path fill="none" stroke="#191970" d="M830.6645,-173.0249C875.3548,-137.6196 981.6039,-53.4451 1017.451,-25.0457"/>
<polygon fill="#191970" stroke="#191970" points="828.2512,-170.4715 822.5863,-179.4248 832.5981,-175.9583 828.2512,-170.4715"/>
</g>
<!-- Node28&#45;&gt;Node12 -->
<g id="edge47" class="edge">
<title>Node28&#45;&gt;Node12</title>
<path fill="none" stroke="#191970" d="M823.7974,-170.7895C840.1249,-146.0017 863.4543,-100.8539 844.5,-67 832.9677,-46.4024 809.4592,-33.0463 790.2376,-25.1099"/>
<polygon fill="#191970" stroke="#191970" points="820.7759,-169.0061 817.9853,-179.2268 826.5405,-172.9771 820.7759,-169.0061"/>
</g>
<!-- Node28&#45;&gt;Node27 -->
<g id="edge46" class="edge">
<title>Node28&#45;&gt;Node27</title>
<path fill="none" stroke="#191970" d="M875.6121,-178.8478C978.7426,-163.4727 1087.4778,-148.1649 1148.4641,-139.6622"/>
<polygon fill="#191970" stroke="#191970" points="875.0242,-175.3967 865.651,-180.3357 876.0583,-182.3199 875.0242,-175.3967"/>
</g>
<!-- Node33&#45;&gt;Node3 -->
<g id="edge57" class="edge">
<title>Node33&#45;&gt;Node3</title>
<path fill="none" stroke="#191970" d="M1198.8252,-285.5793C1217.1354,-271.6387 1237.2634,-250.9221 1222.5,-235 1186.437,-196.1066 797.1387,-214.7785 746.5,-199 706.3723,-186.4966 665.2295,-157.5972 645.4946,-142.5288"/>
<polygon fill="#191970" stroke="#191970" points="1196.7309,-282.7744 1190.6722,-291.466 1200.8286,-288.4497 1196.7309,-282.7744"/>
</g>
<!-- Node33&#45;&gt;Node8 -->
<g id="edge58" class="edge">
<title>Node33&#45;&gt;Node8</title>
<path fill="none" stroke="#191970" d="M1238.3842,-288.8417C1290.3026,-274.7241 1355.5,-245.7064 1355.5,-189 1355.5,-189 1355.5,-189 1355.5,-133 1355.5,-74.418 1166.8345,-36.967 1076.555,-22.3996"/>
<polygon fill="#191970" stroke="#191970" points="1237.3378,-285.4971 1228.5324,-291.3891 1239.0902,-292.2742 1237.3378,-285.4971"/>
</g>
<!-- Node33&#45;&gt;Node30 -->
<g id="edge59" class="edge">
<title>Node33&#45;&gt;Node30</title>
<path fill="none" stroke="#191970" d="M1167.9372,-281.7493C1164.3454,-272.6064 1160.2099,-262.0798 1157.2882,-254.6427"/>
<polygon fill="#191970" stroke="#191970" points="1164.7537,-283.2178 1171.6679,-291.2455 1171.2689,-280.6582 1164.7537,-283.2178"/>
</g>
</g>
</svg>
        <g id="navigator" transform="translate(0 0)" fill="#404254">
                <rect fill="#f2f5e9" fill-opacity="0.5" stroke="#606060" stroke-width=".5" x="0" y="0" width="60" height="60"/>
                <use id="zoomplus" xlink:href="#zoomPlus" x="17" y="9" onmousedown="handleZoom(evt,'in')"/>
                <use id="zoomminus" xlink:href="#zoomMin" x="42" y="9" onmousedown="handleZoom(evt,'out')"/>
                <use id="reset" xlink:href="#resetDef" x="30" y="36" onmousedown="handleReset()"/>
                <g id="arrowUp" xlink:href="#dirArrow" transform="translate(30 24)" onmousedown="handlePan(0,-1)">
                  <use xlink:href="#rim" fill="#404040">
                        <set attributeName="fill" to="#808080" begin="arrowUp.mouseover" end="arrowUp.mouseout"/>
                  </use>
                  <path fill="none" stroke="white" stroke-width="1.5" d="M0,-3.0v7 M-2.5,-0.5L0,-3.0L2.5,-0.5"/>
                </g>
                <g id="arrowRight" xlink:href="#dirArrow" transform="rotate(90) translate(36 -43)" onmousedown="handlePan(1,0)">
                  <use xlink:href="#rim" fill="#404040">
                        <set attributeName="fill" to="#808080" begin="arrowRight.mouseover" end="arrowRight.mouseout"/>
                  </use>
                  <path fill="none" stroke="white" stroke-width="1.5" d="M0,-3.0v7 M-2.5,-0.5L0,-3.0L2.5,-0.5"/>
                </g>
                <g id="arrowDown" xlink:href="#dirArrow" transform="rotate(180) translate(-30 -48)" onmousedown="handlePan(0,1)">
                  <use xlink:href="#rim" fill="#404040">
                        <set attributeName="fill" to="#808080" begin="arrowDown.mouseover" end="arrowDown.mouseout"/>
                  </use>
                  <path fill="none" stroke="white" stroke-width="1.5" d="M0,-3.0v7 M-2.5,-0.5L0,-3.0L2.5,-0.5"/>
                </g>
                <g id="arrowLeft" xlink:href="#dirArrow" transform="rotate(270) translate(-36 17)" onmousedown="handlePan(-1,0)">
                  <use xlink:href="#rim" fill="#404040">
                        <set attributeName="fill" to="#808080" begin="arrowLeft.mouseover" end="arrowLeft.mouseout"/>
                  </use>
                  <path fill="none" stroke="white" stroke-width="1.5" d="M0,-3.0v7 M-2.5,-0.5L0,-3.0L2.5,-0.5"/>
                </g>
        </g>
        <svg viewBox="0 0 15 15" width="100%" height="30px" preserveAspectRatio="xMaxYMin meet">
         <g id="arrow_out" transform="scale(0.3 0.3)">
          <a xlink:href="carlsim__api_8h__dep__incl_org.svg" target="_base">
           <rect id="button" ry="5" rx="5" y="6" x="6" height="38" width="38"
                fill="#f2f5e9" fill-opacity="0.5" stroke="#606060" stroke-width="1.0"/>
           <path id="arrow"
             d="M 11.500037,31.436501 C 11.940474,20.09759 22.043105,11.32322 32.158766,21.979434 L 37.068811,17.246167 C 37.068811,17.246167 37.088388,32 37.088388,32 L 22.160133,31.978069 C 22.160133,31.978069 26.997745,27.140456 26.997745,27.140456 C 18.528582,18.264221 13.291696,25.230495 11.500037,31.436501 z"
             style="fill:#404040;"/>
          </a>
         </g>
        </svg>
</svg>
