<?xml version="1.0" encoding="UTF-8" standalone="no"?>
<!DOCTYPE svg PUBLIC "-//W3C//DTD SVG 1.1//EN"
 "http://www.w3.org/Graphics/SVG/1.1/DTD/svg11.dtd">
<!-- Generated by graphviz version 2.40.1 (20161225.0304)
 -->
<!-- Title: carlsim_simple_weight_tuner_api.h Pages: 1 -->
<svg width="133pt" height="151pt"
 viewBox="0.00 0.00 133.00 151.00" xmlns="http://www.w3.org/2000/svg" xmlns:xlink="http://www.w3.org/1999/xlink">
<g id="graph0" class="graph" transform="scale(1 1) rotate(0) translate(4 147)">
<title>carlsim_simple_weight_tuner_api.h</title>
<polygon fill="#ffffff" stroke="transparent" points="-4,4 -4,-147 129,-147 129,4 -4,4"/>
<!-- Node2 -->
<g id="node1" class="node">
<title>Node2</title>
<polygon fill="#bfbfbf" stroke="#000000" points="4.5,-112.5 4.5,-142.5 120.5,-142.5 120.5,-112.5 4.5,-112.5"/>
<text text-anchor="start" x="12.5" y="-130.5" font-family="Helvetica,sans-Serif" font-size="10.00" fill="#000000">carlsim_simple_weight</text>
<text text-anchor="middle" x="62.5" y="-119.5" font-family="Helvetica,sans-Serif" font-size="10.00" fill="#000000">_tuner_api.h</text>
</g>
<!-- Node3 -->
<g id="node2" class="node">
<title>Node3</title>
<g id="a_node2"><a xlink:href="simple__weight__tuner_8h.html" target="_top" xlink:title="simple_weight_tuner.h">
<polygon fill="#ffffff" stroke="#000000" points="5.5,-56.5 5.5,-75.5 119.5,-75.5 119.5,-56.5 5.5,-56.5"/>
<text text-anchor="middle" x="62.5" y="-63.5" font-family="Helvetica,sans-Serif" font-size="10.00" fill="#000000">simple_weight_tuner.h</text>
</a>
</g>
</g>
<!-- Node2&#45;&gt;Node3 -->
<g id="edge1" class="edge">
<title>Node2&#45;&gt;Node3</title>
<path fill="none" stroke="#191970" d="M62.5,-102.2849C62.5,-92.9858 62.5,-82.9883 62.5,-75.8469"/>
<polygon fill="#191970" stroke="#191970" points="59.0001,-102.2977 62.5,-112.2977 66.0001,-102.2978 59.0001,-102.2977"/>
</g>
<!-- Node4 -->
<g id="node3" class="node">
<title>Node4</title>
<g id="a_node3"><a xlink:href="simple__weight__tuner_8cpp.html" target="_top" xlink:title="simple_weight_tuner.cpp">
<polygon fill="#ffffff" stroke="#000000" points="0,-.5 0,-19.5 125,-19.5 125,-.5 0,-.5"/>
<text text-anchor="middle" x="62.5" y="-7.5" font-family="Helvetica,sans-Serif" font-size="10.00" fill="#000000">simple_weight_tuner.cpp</text>
</a>
</g>
</g>
<!-- Node3&#45;&gt;Node4 -->
<g id="edge2" class="edge">
<title>Node3&#45;&gt;Node4</title>
<path fill="none" stroke="#191970" d="M62.5,-46.1575C62.5,-37.155 62.5,-26.9199 62.5,-19.6427"/>
<polygon fill="#191970" stroke="#191970" points="59.0001,-46.2455 62.5,-56.2455 66.0001,-46.2456 59.0001,-46.2455"/>
</g>
</g>
</svg>
