<?xml version="1.0" encoding="UTF-8" standalone="no"?>
<!DOCTYPE svg PUBLIC "-//W3C//DTD SVG 1.1//EN"
 "http://www.w3.org/Graphics/SVG/1.1/DTD/svg11.dtd">
<!-- Generated by graphviz version 2.40.1 (20161225.0304)
 -->
<!-- Title: carlsim_spike_generators_api.h Pages: 1 -->
<svg width="713pt" height="151pt"
 viewBox="0.00 0.00 713.00 151.00" xmlns="http://www.w3.org/2000/svg" xmlns:xlink="http://www.w3.org/1999/xlink">
<g id="graph0" class="graph" transform="scale(1 1) rotate(0) translate(4 147)">
<title>carlsim_spike_generators_api.h</title>
<polygon fill="#ffffff" stroke="transparent" points="-4,4 -4,-147 709,-147 709,4 -4,4"/>
<!-- Node2 -->
<g id="node1" class="node">
<title>Node2</title>
<polygon fill="#bfbfbf" stroke="#000000" points="283.5,-112.5 283.5,-142.5 411.5,-142.5 411.5,-112.5 283.5,-112.5"/>
<text text-anchor="start" x="291.5" y="-130.5" font-family="Helvetica,sans-Serif" font-size="10.00" fill="#000000">carlsim_spike_generators</text>
<text text-anchor="middle" x="347.5" y="-119.5" font-family="Helvetica,sans-Serif" font-size="10.00" fill="#000000">_api.h</text>
</g>
<!-- Node3 -->
<g id="node2" class="node">
<title>Node3</title>
<g id="a_node2"><a xlink:href="interactive__spikegen_8h.html" target="_top" xlink:title="interactive_spikegen.h">
<polygon fill="#ffffff" stroke="#000000" points="15.5,-56.5 15.5,-75.5 129.5,-75.5 129.5,-56.5 15.5,-56.5"/>
<text text-anchor="middle" x="72.5" y="-63.5" font-family="Helvetica,sans-Serif" font-size="10.00" fill="#000000">interactive_spikegen.h</text>
</a>
</g>
</g>
<!-- Node2&#45;&gt;Node3 -->
<g id="edge1" class="edge">
<title>Node2&#45;&gt;Node3</title>
<path fill="none" stroke="#191970" d="M273.452,-110.9402C222.8169,-99.6163 157.4769,-85.0039 115.2836,-75.568"/>
<polygon fill="#191970" stroke="#191970" points="272.849,-114.3917 283.3718,-113.1586 274.3767,-107.5604 272.849,-114.3917"/>
</g>
<!-- Node5 -->
<g id="node4" class="node">
<title>Node5</title>
<g id="a_node4"><a xlink:href="periodic__spikegen_8h.html" target="_top" xlink:title="periodic_spikegen.h">
<polygon fill="#ffffff" stroke="#000000" points="153,-56.5 153,-75.5 256,-75.5 256,-56.5 153,-56.5"/>
<text text-anchor="middle" x="204.5" y="-63.5" font-family="Helvetica,sans-Serif" font-size="10.00" fill="#000000">periodic_spikegen.h</text>
</a>
</g>
</g>
<!-- Node2&#45;&gt;Node5 -->
<g id="edge3" class="edge">
<title>Node2&#45;&gt;Node5</title>
<path fill="none" stroke="#191970" d="M303.0867,-108.3992C277.7098,-97.4853 246.9909,-84.274 226.6599,-75.5303"/>
<polygon fill="#191970" stroke="#191970" points="301.949,-111.7198 312.5183,-112.4554 304.7146,-105.2893 301.949,-111.7198"/>
</g>
<!-- Node7 -->
<g id="node6" class="node">
<title>Node7</title>
<g id="a_node6"><a xlink:href="pre__post__group__spikegen_8h.html" target="_top" xlink:title="pre_post_group_spikegen.h">
<polygon fill="#ffffff" stroke="#000000" points="279.5,-56.5 279.5,-75.5 415.5,-75.5 415.5,-56.5 279.5,-56.5"/>
<text text-anchor="middle" x="347.5" y="-63.5" font-family="Helvetica,sans-Serif" font-size="10.00" fill="#000000">pre_post_group_spikegen.h</text>
</a>
</g>
</g>
<!-- Node2&#45;&gt;Node7 -->
<g id="edge5" class="edge">
<title>Node2&#45;&gt;Node7</title>
<path fill="none" stroke="#191970" d="M347.5,-102.2849C347.5,-92.9858 347.5,-82.9883 347.5,-75.8469"/>
<polygon fill="#191970" stroke="#191970" points="344.0001,-102.2977 347.5,-112.2977 351.0001,-102.2978 344.0001,-102.2977"/>
</g>
<!-- Node9 -->
<g id="node8" class="node">
<title>Node9</title>
<g id="a_node8"><a xlink:href="spikegen__from__file_8h.html" target="_top" xlink:title="spikegen_from_file.h">
<polygon fill="#ffffff" stroke="#000000" points="439,-56.5 439,-75.5 546,-75.5 546,-56.5 439,-56.5"/>
<text text-anchor="middle" x="492.5" y="-63.5" font-family="Helvetica,sans-Serif" font-size="10.00" fill="#000000">spikegen_from_file.h</text>
</a>
</g>
</g>
<!-- Node2&#45;&gt;Node9 -->
<g id="edge7" class="edge">
<title>Node2&#45;&gt;Node9</title>
<path fill="none" stroke="#191970" d="M392.1947,-108.5433C417.9917,-97.6018 449.324,-84.3126 470.0301,-75.5303"/>
<polygon fill="#191970" stroke="#191970" points="390.8105,-105.3285 382.971,-112.4554 393.5438,-111.7728 390.8105,-105.3285"/>
</g>
<!-- Node11 -->
<g id="node10" class="node">
<title>Node11</title>
<g id="a_node10"><a xlink:href="spikegen__from__vector_8h.html" target="_top" xlink:title="spikegen_from_vector.h">
<polygon fill="#ffffff" stroke="#000000" points="571,-56.5 571,-75.5 692,-75.5 692,-56.5 571,-56.5"/>
<text text-anchor="middle" x="631.5" y="-63.5" font-family="Helvetica,sans-Serif" font-size="10.00" fill="#000000">spikegen_from_vector.h</text>
</a>
</g>
</g>
<!-- Node2&#45;&gt;Node11 -->
<g id="edge9" class="edge">
<title>Node2&#45;&gt;Node11</title>
<path fill="none" stroke="#191970" d="M421.5616,-111.462C474.2483,-100.0528 543.2604,-85.1082 587.4998,-75.5282"/>
<polygon fill="#191970" stroke="#191970" points="420.6219,-108.0843 411.5893,-113.6215 422.1035,-114.9257 420.6219,-108.0843"/>
</g>
<!-- Node4 -->
<g id="node3" class="node">
<title>Node4</title>
<g id="a_node3"><a xlink:href="interactive__spikegen_8cpp.html" target="_top" xlink:title="interactive_spikegen.cpp">
<polygon fill="#ffffff" stroke="#000000" points="0,-.5 0,-19.5 125,-19.5 125,-.5 0,-.5"/>
<text text-anchor="middle" x="62.5" y="-7.5" font-family="Helvetica,sans-Serif" font-size="10.00" fill="#000000">interactive_spikegen.cpp</text>
</a>
</g>
</g>
<!-- Node3&#45;&gt;Node4 -->
<g id="edge2" class="edge">
<title>Node3&#45;&gt;Node4</title>
<path fill="none" stroke="#191970" d="M68.9567,-46.1575C67.3491,-37.155 65.5214,-26.9199 64.2219,-19.6427"/>
<polygon fill="#191970" stroke="#191970" points="65.5546,-47.0166 70.7581,-56.2455 72.4456,-45.786 65.5546,-47.0166"/>
</g>
<!-- Node6 -->
<g id="node5" class="node">
<title>Node6</title>
<g id="a_node5"><a xlink:href="periodic__spikegen_8cpp.html" target="_top" xlink:title="periodic_spikegen.cpp">
<polygon fill="#ffffff" stroke="#000000" points="143,-.5 143,-19.5 256,-19.5 256,-.5 143,-.5"/>
<text text-anchor="middle" x="199.5" y="-7.5" font-family="Helvetica,sans-Serif" font-size="10.00" fill="#000000">periodic_spikegen.cpp</text>
</a>
</g>
</g>
<!-- Node5&#45;&gt;Node6 -->
<g id="edge4" class="edge">
<title>Node5&#45;&gt;Node6</title>
<path fill="none" stroke="#191970" d="M202.7283,-46.1575C201.9246,-37.155 201.0107,-26.9199 200.361,-19.6427"/>
<polygon fill="#191970" stroke="#191970" points="199.2535,-46.5965 203.6291,-56.2455 206.2258,-45.9739 199.2535,-46.5965"/>
</g>
<!-- Node8 -->
<g id="node7" class="node">
<title>Node8</title>
<g id="a_node7"><a xlink:href="pre__post__group__spikegen_8cpp.html" target="_top" xlink:title="pre_post_group_spikegen.cpp">
<polygon fill="#ffffff" stroke="#000000" points="274.5,-.5 274.5,-19.5 420.5,-19.5 420.5,-.5 274.5,-.5"/>
<text text-anchor="middle" x="347.5" y="-7.5" font-family="Helvetica,sans-Serif" font-size="10.00" fill="#000000">pre_post_group_spikegen.cpp</text>
</a>
</g>
</g>
<!-- Node7&#45;&gt;Node8 -->
<g id="edge6" class="edge">
<title>Node7&#45;&gt;Node8</title>
<path fill="none" stroke="#191970" d="M347.5,-46.1575C347.5,-37.155 347.5,-26.9199 347.5,-19.6427"/>
<polygon fill="#191970" stroke="#191970" points="344.0001,-46.2455 347.5,-56.2455 351.0001,-46.2456 344.0001,-46.2455"/>
</g>
<!-- Node10 -->
<g id="node9" class="node">
<title>Node10</title>
<g id="a_node9"><a xlink:href="spikegen__from__file_8cpp.html" target="_top" xlink:title="spikegen_from_file.cpp">
<polygon fill="#ffffff" stroke="#000000" points="439,-.5 439,-19.5 556,-19.5 556,-.5 439,-.5"/>
<text text-anchor="middle" x="497.5" y="-7.5" font-family="Helvetica,sans-Serif" font-size="10.00" fill="#000000">spikegen_from_file.cpp</text>
</a>
</g>
</g>
<!-- Node9&#45;&gt;Node10 -->
<g id="edge8" class="edge">
<title>Node9&#45;&gt;Node10</title>
<path fill="none" stroke="#191970" d="M494.2717,-46.1575C495.0754,-37.155 495.9893,-26.9199 496.639,-19.6427"/>
<polygon fill="#191970" stroke="#191970" points="490.7742,-45.9739 493.3709,-56.2455 497.7465,-46.5965 490.7742,-45.9739"/>
</g>
<!-- Node12 -->
<g id="node11" class="node">
<title>Node12</title>
<g id="a_node11"><a xlink:href="spikegen__from__vector_8cpp.html" target="_top" xlink:title="spikegen_from_vector.cpp">
<polygon fill="#ffffff" stroke="#000000" points="574,-.5 574,-19.5 705,-19.5 705,-.5 574,-.5"/>
<text text-anchor="middle" x="639.5" y="-7.5" font-family="Helvetica,sans-Serif" font-size="10.00" fill="#000000">spikegen_from_vector.cpp</text>
</a>
</g>
</g>
<!-- Node11&#45;&gt;Node12 -->
<g id="edge10" class="edge">
<title>Node11&#45;&gt;Node12</title>
<path fill="none" stroke="#191970" d="M634.3346,-46.1575C635.6207,-37.155 637.0829,-26.9199 638.1225,-19.6427"/>
<polygon fill="#191970" stroke="#191970" points="630.843,-45.851 632.8935,-56.2455 637.7726,-46.8411 630.843,-45.851"/>
</g>
</g>
</svg>
