<?xml version="1.0" encoding="UTF-8" standalone="no"?>
<!DOCTYPE svg PUBLIC "-//W3C//DTD SVG 1.1//EN"
 "http://www.w3.org/Graphics/SVG/1.1/DTD/svg11.dtd">
<!-- Generated by graphviz version 2.40.1 (20161225.0304)
 -->
<!-- Title: setGroupMonitor Pages: 1 -->
<!--zoomable 205 -->
<svg id="main" version="1.1" xmlns="http://www.w3.org/2000/svg" xmlns:xlink="http://www.w3.org/1999/xlink" xml:space="preserve" onload="init(evt)">
<style type="text/css"><![CDATA[
.edge:hover path { stroke: red; }
.edge:hover polygon { stroke: red; fill: red; }
]]></style>
<script type="text/javascript"><![CDATA[
var edges = document.getElementsByTagName('g');
if (edges && edges.length) {
  for (var i=0;i<edges.length;i++) {
    if (edges[i].id.substr(0,4)=='edge') {
      edges[i].setAttribute('class','edge');
    }
  }
}
]]></script>
        <defs>
                <circle id="rim" cx="0" cy="0" r="7"/>
                <circle id="rim2" cx="0" cy="0" r="3.5"/>
                <g id="zoomPlus">
                        <use xlink:href="#rim" fill="#404040">
                                <set attributeName="fill" to="#808080" begin="zoomplus.mouseover" end="zoomplus.mouseout"/>
                        </use>
                        <path d="M-4,0h8M0,-4v8" fill="none" stroke="white" stroke-width="1.5" pointer-events="none"/>
                </g>
                <g id="zoomMin">
                        <use xlink:href="#rim" fill="#404040">
                                <set attributeName="fill" to="#808080" begin="zoomminus.mouseover" end="zoomminus.mouseout"/>
                        </use>
                        <path d="M-4,0h8" fill="none" stroke="white" stroke-width="1.5" pointer-events="none"/>
                </g>
                <g id="dirArrow">
                        <path fill="none" stroke="white" stroke-width="1.5" d="M0,-3.0v7 M-2.5,-0.5L0,-3.0L2.5,-0.5"/>
                </g>
               <g id="resetDef">
                       <use xlink:href="#rim2" fill="#404040">
                               <set attributeName="fill" to="#808080" begin="reset.mouseover" end="reset.mouseout"/>
                       </use>
               </g>
        </defs>

<script type="text/javascript">
var viewWidth = 617;
var viewHeight = 205;
var sectionId = 'dynsection-159';
</script>
<script xlink:href="svgpan.js"/>
<svg id="graph" class="graph">
<g id="viewport">
<title>setGroupMonitor</title>
<polygon fill="#ffffff" stroke="transparent" points="-4,4 -4,-201 613,-201 613,4 -4,4"/>
<!-- Node913 -->
<g id="node1" class="node">
<title>Node913</title>
<polygon fill="#bfbfbf" stroke="#000000" points="0,-120.5 0,-139.5 89,-139.5 89,-120.5 0,-120.5"/>
<text text-anchor="middle" x="44.5" y="-127.5" font-family="Helvetica,sans-Serif" font-size="10.00" fill="#000000">setGroupMonitor</text>
</g>
<!-- Node914 -->
<g id="node2" class="node">
<title>Node914</title>
<g id="a_node2"><a xlink:href="classCARLsim_1_1Impl.html#ab0367f8ebd4019bf7d34ebddb1563fe7" target="_top" xlink:title="getGroupName">
<polygon fill="#ffffff" stroke="#000000" points="141.5,-139.5 141.5,-158.5 224.5,-158.5 224.5,-139.5 141.5,-139.5"/>
<text text-anchor="middle" x="183" y="-146.5" font-family="Helvetica,sans-Serif" font-size="10.00" fill="#000000">getGroupName</text>
</a>
</g>
</g>
<!-- Node913&#45;&gt;Node914 -->
<g id="edge1" class="edge">
<title>Node913&#45;&gt;Node914</title>
<path fill="none" stroke="#191970" d="M89.0846,-136.1163C102.5749,-137.9669 117.5016,-140.0147 131.4099,-141.9227"/>
<polygon fill="#191970" stroke="#191970" points="130.9393,-145.3908 141.3222,-143.2825 131.8907,-138.4557 130.9393,-145.3908"/>
</g>
<!-- Node915 -->
<g id="node3" class="node">
<title>Node915</title>
<g id="a_node3"><a xlink:href="classUserErrors.html#a4bbedc6c0817d5e59e74e450bf00472c" target="_top" xlink:title="simple wrapper for assert statement ">
<polygon fill="#ffffff" stroke="#000000" points="290,-177.5 290,-196.5 406,-196.5 406,-177.5 290,-177.5"/>
<text text-anchor="middle" x="348" y="-184.5" font-family="Helvetica,sans-Serif" font-size="10.00" fill="#000000">UserErrors::assertTrue</text>
</a>
</g>
</g>
<!-- Node913&#45;&gt;Node915 -->
<g id="edge6" class="edge">
<title>Node913&#45;&gt;Node915</title>
<path fill="none" stroke="#191970" d="M60.4928,-139.6515C76.2837,-148.6644 101.4215,-161.6514 125,-168 175.6456,-181.6366 234.8826,-186.175 279.5698,-187.4185"/>
<polygon fill="#191970" stroke="#191970" points="279.6589,-190.9214 289.7366,-187.6519 279.8196,-183.9232 279.6589,-190.9214"/>
</g>
<!-- Node918 -->
<g id="node6" class="node">
<title>Node918</title>
<g id="a_node6"><a xlink:href="classSNN.html#ab0367f8ebd4019bf7d34ebddb1563fe7" target="_top" xlink:title="SNN::getGroupName">
<polygon fill="#ffffff" stroke="#000000" points="293,-101.5 293,-120.5 403,-120.5 403,-101.5 293,-101.5"/>
<text text-anchor="middle" x="348" y="-108.5" font-family="Helvetica,sans-Serif" font-size="10.00" fill="#000000">SNN::getGroupName</text>
</a>
</g>
</g>
<!-- Node913&#45;&gt;Node918 -->
<g id="edge7" class="edge">
<title>Node913&#45;&gt;Node918</title>
<path fill="none" stroke="#191970" d="M89.2825,-127.1965C140.3808,-123.9976 224.4022,-118.7376 282.7733,-115.0834"/>
<polygon fill="#191970" stroke="#191970" points="283.2355,-118.5614 292.9972,-114.4433 282.798,-111.5751 283.2355,-118.5614"/>
</g>
<!-- Node919 -->
<g id="node7" class="node">
<title>Node919</title>
<g id="a_node7"><a xlink:href="classSNN.html#a61ef9df510c9eecbdbda7ec787f2db4b" target="_top" xlink:title="sets up a group monitor registered with a callback to process the spikes. ">
<polygon fill="#ffffff" stroke="#000000" points="125,-63.5 125,-82.5 241,-82.5 241,-63.5 125,-63.5"/>
<text text-anchor="middle" x="183" y="-70.5" font-family="Helvetica,sans-Serif" font-size="10.00" fill="#000000">SNN::setGroupMonitor</text>
</a>
</g>
</g>
<!-- Node913&#45;&gt;Node919 -->
<g id="edge8" class="edge">
<title>Node913&#45;&gt;Node919</title>
<path fill="none" stroke="#191970" d="M67.6818,-120.4595C90.252,-111.1706 124.7712,-96.9642 150.1627,-86.5143"/>
<polygon fill="#191970" stroke="#191970" points="151.8272,-89.6141 159.7426,-82.5716 149.163,-83.1409 151.8272,-89.6141"/>
</g>
<!-- Node914&#45;&gt;Node915 -->
<g id="edge2" class="edge">
<title>Node914&#45;&gt;Node915</title>
<path fill="none" stroke="#191970" d="M224.6365,-158.589C246.5081,-163.6261 273.506,-169.8438 296.6636,-175.1771"/>
<polygon fill="#191970" stroke="#191970" points="296.1325,-178.6463 306.6629,-177.4799 297.7036,-171.8249 296.1325,-178.6463"/>
</g>
<!-- Node916 -->
<g id="node4" class="node">
<title>Node916</title>
<g id="a_node4"><a xlink:href="classCARLsim_1_1Impl.html#a292bdee57fec7c77ec4c15ea3f508d60" target="_top" xlink:title="getNumGroups">
<polygon fill="#ffffff" stroke="#000000" points="306.5,-139.5 306.5,-158.5 389.5,-158.5 389.5,-139.5 306.5,-139.5"/>
<text text-anchor="middle" x="348" y="-146.5" font-family="Helvetica,sans-Serif" font-size="10.00" fill="#000000">getNumGroups</text>
</a>
</g>
</g>
<!-- Node914&#45;&gt;Node916 -->
<g id="edge3" class="edge">
<title>Node914&#45;&gt;Node916</title>
<path fill="none" stroke="#191970" d="M224.6365,-149C246.3272,-149 273.0598,-149 296.0883,-149"/>
<polygon fill="#191970" stroke="#191970" points="296.3769,-152.5001 306.3769,-149 296.3768,-145.5001 296.3769,-152.5001"/>
</g>
<!-- Node914&#45;&gt;Node918 -->
<g id="edge5" class="edge">
<title>Node914&#45;&gt;Node918</title>
<path fill="none" stroke="#191970" d="M224.6365,-139.411C246.5081,-134.3739 273.506,-128.1562 296.6636,-122.8229"/>
<polygon fill="#191970" stroke="#191970" points="297.7036,-126.1751 306.6629,-120.5201 296.1325,-119.3537 297.7036,-126.1751"/>
</g>
<!-- Node917 -->
<g id="node5" class="node">
<title>Node917</title>
<g id="a_node5"><a xlink:href="classSNN.html#a292bdee57fec7c77ec4c15ea3f508d60" target="_top" xlink:title="SNN::getNumGroups">
<polygon fill="#ffffff" stroke="#000000" points="477,-139.5 477,-158.5 587,-158.5 587,-139.5 477,-139.5"/>
<text text-anchor="middle" x="532" y="-146.5" font-family="Helvetica,sans-Serif" font-size="10.00" fill="#000000">SNN::getNumGroups</text>
</a>
</g>
</g>
<!-- Node916&#45;&gt;Node917 -->
<g id="edge4" class="edge">
<title>Node916&#45;&gt;Node917</title>
<path fill="none" stroke="#191970" d="M389.7524,-149C412.4985,-149 441.1558,-149 466.7778,-149"/>
<polygon fill="#191970" stroke="#191970" points="466.7998,-152.5001 476.7998,-149 466.7997,-145.5001 466.7998,-152.5001"/>
</g>
<!-- Node920 -->
<g id="node8" class="node">
<title>Node920</title>
<g id="a_node8"><a xlink:href="classSNN.html#a477f99451786873b73e2623b6f89b766" target="_top" xlink:title="deallocates all dynamical structures and exits ">
<polygon fill="#ffffff" stroke="#000000" points="295,-63.5 295,-82.5 401,-82.5 401,-63.5 295,-63.5"/>
<text text-anchor="middle" x="348" y="-70.5" font-family="Helvetica,sans-Serif" font-size="10.00" fill="#000000">SNN::exitSimulation</text>
</a>
</g>
</g>
<!-- Node919&#45;&gt;Node920 -->
<g id="edge9" class="edge">
<title>Node919&#45;&gt;Node920</title>
<path fill="none" stroke="#191970" d="M241.1728,-73C255.209,-73 270.277,-73 284.5416,-73"/>
<polygon fill="#191970" stroke="#191970" points="284.7603,-76.5001 294.7603,-73 284.7602,-69.5001 284.7603,-76.5001"/>
</g>
<!-- Node921 -->
<g id="node9" class="node">
<title>Node921</title>
<g id="a_node9"><a xlink:href="classGroupMonitorCore.html#ac455fddf546e804839052af1614b4b15" target="_top" xlink:title="sets pointer to group data file ">
<polygon fill="#ffffff" stroke="#000000" points="277,-14 277,-44 419,-44 419,-14 277,-14"/>
<text text-anchor="start" x="285" y="-32" font-family="Helvetica,sans-Serif" font-size="10.00" fill="#000000">GroupMonitorCore::setGroup</text>
<text text-anchor="middle" x="348" y="-21" font-family="Helvetica,sans-Serif" font-size="10.00" fill="#000000">FileId</text>
</a>
</g>
</g>
<!-- Node919&#45;&gt;Node921 -->
<g id="edge10" class="edge">
<title>Node919&#45;&gt;Node921</title>
<path fill="none" stroke="#191970" d="M218.8025,-63.4527C237.2137,-58.543 260.2514,-52.3996 281.755,-46.6653"/>
<polygon fill="#191970" stroke="#191970" points="282.7444,-50.0239 291.5049,-44.0654 280.9407,-43.2602 282.7444,-50.0239"/>
</g>
<!-- Node922 -->
<g id="node10" class="node">
<title>Node922</title>
<g id="a_node10"><a xlink:href="classGroupMonitorCore.html#a3a3ffdb35b09328d22e5d72503ed1f55" target="_top" xlink:title="returns recording status ">
<polygon fill="#ffffff" stroke="#000000" points="455,-38.5 455,-57.5 609,-57.5 609,-38.5 455,-38.5"/>
<text text-anchor="middle" x="532" y="-45.5" font-family="Helvetica,sans-Serif" font-size="10.00" fill="#000000">GroupMonitorCore::isRecording</text>
</a>
</g>
</g>
<!-- Node921&#45;&gt;Node922 -->
<g id="edge11" class="edge">
<title>Node921&#45;&gt;Node922</title>
<path fill="none" stroke="#191970" d="M419.1392,-36.3459C427.5708,-37.2165 436.2491,-38.1127 444.8702,-39.0029"/>
<polygon fill="#191970" stroke="#191970" points="444.6395,-42.4976 454.9462,-40.0434 445.3586,-35.5346 444.6395,-42.4976"/>
</g>
<!-- Node923 -->
<g id="node11" class="node">
<title>Node923</title>
<g id="a_node11"><a xlink:href="classSNN.html#ac13b30c40669d3cb8264bd6e211b449d" target="_top" xlink:title="SNN::getGroupGrid3D">
<polygon fill="#ffffff" stroke="#000000" points="474.5,-.5 474.5,-19.5 589.5,-19.5 589.5,-.5 474.5,-.5"/>
<text text-anchor="middle" x="532" y="-7.5" font-family="Helvetica,sans-Serif" font-size="10.00" fill="#000000">SNN::getGroupGrid3D</text>
</a>
</g>
</g>
<!-- Node921&#45;&gt;Node923 -->
<g id="edge12" class="edge">
<title>Node921&#45;&gt;Node923</title>
<path fill="none" stroke="#191970" d="M419.1392,-21.6541C434.0114,-20.1184 449.6512,-18.5034 464.3908,-16.9814"/>
<polygon fill="#191970" stroke="#191970" points="464.8433,-20.4534 474.4308,-15.9446 464.1242,-13.4904 464.8433,-20.4534"/>
</g>
</g>
</svg>
        <g id="navigator" transform="translate(0 0)" fill="#404254">
                <rect fill="#f2f5e9" fill-opacity="0.5" stroke="#606060" stroke-width=".5" x="0" y="0" width="60" height="60"/>
                <use id="zoomplus" xlink:href="#zoomPlus" x="17" y="9" onmousedown="handleZoom(evt,'in')"/>
                <use id="zoomminus" xlink:href="#zoomMin" x="42" y="9" onmousedown="handleZoom(evt,'out')"/>
                <use id="reset" xlink:href="#resetDef" x="30" y="36" onmousedown="handleReset()"/>
                <g id="arrowUp" xlink:href="#dirArrow" transform="translate(30 24)" onmousedown="handlePan(0,-1)">
                  <use xlink:href="#rim" fill="#404040">
                        <set attributeName="fill" to="#808080" begin="arrowUp.mouseover" end="arrowUp.mouseout"/>
                  </use>
                  <path fill="none" stroke="white" stroke-width="1.5" d="M0,-3.0v7 M-2.5,-0.5L0,-3.0L2.5,-0.5"/>
                </g>
                <g id="arrowRight" xlink:href="#dirArrow" transform="rotate(90) translate(36 -43)" onmousedown="handlePan(1,0)">
                  <use xlink:href="#rim" fill="#404040">
                        <set attributeName="fill" to="#808080" begin="arrowRight.mouseover" end="arrowRight.mouseout"/>
                  </use>
                  <path fill="none" stroke="white" stroke-width="1.5" d="M0,-3.0v7 M-2.5,-0.5L0,-3.0L2.5,-0.5"/>
                </g>
                <g id="arrowDown" xlink:href="#dirArrow" transform="rotate(180) translate(-30 -48)" onmousedown="handlePan(0,1)">
                  <use xlink:href="#rim" fill="#404040">
                        <set attributeName="fill" to="#808080" begin="arrowDown.mouseover" end="arrowDown.mouseout"/>
                  </use>
                  <path fill="none" stroke="white" stroke-width="1.5" d="M0,-3.0v7 M-2.5,-0.5L0,-3.0L2.5,-0.5"/>
                </g>
                <g id="arrowLeft" xlink:href="#dirArrow" transform="rotate(270) translate(-36 17)" onmousedown="handlePan(-1,0)">
                  <use xlink:href="#rim" fill="#404040">
                        <set attributeName="fill" to="#808080" begin="arrowLeft.mouseover" end="arrowLeft.mouseout"/>
                  </use>
                  <path fill="none" stroke="white" stroke-width="1.5" d="M0,-3.0v7 M-2.5,-0.5L0,-3.0L2.5,-0.5"/>
                </g>
        </g>
        <svg viewBox="0 0 15 15" width="100%" height="30px" preserveAspectRatio="xMaxYMin meet">
         <g id="arrow_out" transform="scale(0.3 0.3)">
          <a xlink:href="classCARLsim_1_1Impl_ad423c8d8f74e6369615db0d1af700c99_cgraph_org.svg" target="_base">
           <rect id="button" ry="5" rx="5" y="6" x="6" height="38" width="38"
                fill="#f2f5e9" fill-opacity="0.5" stroke="#606060" stroke-width="1.0"/>
           <path id="arrow"
             d="M 11.500037,31.436501 C 11.940474,20.09759 22.043105,11.32322 32.158766,21.979434 L 37.068811,17.246167 C 37.068811,17.246167 37.088388,32 37.088388,32 L 22.160133,31.978069 C 22.160133,31.978069 26.997745,27.140456 26.997745,27.140456 C 18.528582,18.264221 13.291696,25.230495 11.500037,31.436501 z"
             style="fill:#404040;"/>
          </a>
         </g>
        </svg>
</svg>
