<?xml version="1.0" encoding="UTF-8" standalone="no"?>
<!DOCTYPE svg PUBLIC "-//W3C//DTD SVG 1.1//EN"
 "http://www.w3.org/Graphics/SVG/1.1/DTD/svg11.dtd">
<!-- Generated by graphviz version 2.40.1 (20161225.0304)
 -->
<!-- Title: loadSimulation Pages: 1 -->
<svg width="240pt" height="66pt"
 viewBox="0.00 0.00 240.00 66.00" xmlns="http://www.w3.org/2000/svg" xmlns:xlink="http://www.w3.org/1999/xlink">
<g id="graph0" class="graph" transform="scale(1 1) rotate(0) translate(4 62)">
<title>loadSimulation</title>
<polygon fill="#ffffff" stroke="transparent" points="-4,4 -4,-62 236,-62 236,4 -4,4"/>
<!-- Node600 -->
<g id="node1" class="node">
<title>Node600</title>
<polygon fill="#bfbfbf" stroke="#000000" points="0,-19.5 0,-38.5 80,-38.5 80,-19.5 0,-19.5"/>
<text text-anchor="middle" x="40" y="-26.5" font-family="Helvetica,sans-Serif" font-size="10.00" fill="#000000">loadSimulation</text>
</g>
<!-- Node601 -->
<g id="node2" class="node">
<title>Node601</title>
<g id="a_node2"><a xlink:href="classUserErrors.html#a4bbedc6c0817d5e59e74e450bf00472c" target="_top" xlink:title="simple wrapper for assert statement ">
<polygon fill="#ffffff" stroke="#000000" points="116,-38.5 116,-57.5 232,-57.5 232,-38.5 116,-38.5"/>
<text text-anchor="middle" x="174" y="-45.5" font-family="Helvetica,sans-Serif" font-size="10.00" fill="#000000">UserErrors::assertTrue</text>
</a>
</g>
</g>
<!-- Node600&#45;&gt;Node601 -->
<g id="edge1" class="edge">
<title>Node600&#45;&gt;Node601</title>
<path fill="none" stroke="#191970" d="M80.2044,-34.7006C88.3821,-35.8601 97.1974,-37.1101 106.035,-38.3632"/>
<polygon fill="#191970" stroke="#191970" points="105.5974,-41.8361 115.9898,-39.7747 106.5802,-34.9054 105.5974,-41.8361"/>
</g>
<!-- Node602 -->
<g id="node3" class="node">
<title>Node602</title>
<g id="a_node3"><a xlink:href="classSNN.html#aeebb0912ac3497ef828e666805371722" target="_top" xlink:title="SNN::loadSimulation">
<polygon fill="#ffffff" stroke="#000000" points="120,-.5 120,-19.5 228,-19.5 228,-.5 120,-.5"/>
<text text-anchor="middle" x="174" y="-7.5" font-family="Helvetica,sans-Serif" font-size="10.00" fill="#000000">SNN::loadSimulation</text>
</a>
</g>
</g>
<!-- Node600&#45;&gt;Node602 -->
<g id="edge2" class="edge">
<title>Node600&#45;&gt;Node602</title>
<path fill="none" stroke="#191970" d="M80.2044,-23.2994C89.571,-21.9713 99.774,-20.5246 109.8891,-19.0904"/>
<polygon fill="#191970" stroke="#191970" points="110.531,-22.5344 119.9406,-17.6651 109.5483,-15.6038 110.531,-22.5344"/>
</g>
</g>
</svg>
