<?xml version="1.0" encoding="UTF-8" standalone="no"?>
<!DOCTYPE svg PUBLIC "-//W3C//DTD SVG 1.1//EN"
 "http://www.w3.org/Graphics/SVG/1.1/DTD/svg11.dtd">
<!-- Generated by graphviz version 2.40.1 (20161225.0304)
 -->
<!-- Title: getNumNeuronsWithFiringRate Pages: 1 -->
<!--zoomable 474 -->
<svg id="main" version="1.1" xmlns="http://www.w3.org/2000/svg" xmlns:xlink="http://www.w3.org/1999/xlink" xml:space="preserve" onload="init(evt)">
<style type="text/css"><![CDATA[
.edge:hover path { stroke: red; }
.edge:hover polygon { stroke: red; fill: red; }
]]></style>
<script type="text/javascript"><![CDATA[
var edges = document.getElementsByTagName('g');
if (edges && edges.length) {
  for (var i=0;i<edges.length;i++) {
    if (edges[i].id.substr(0,4)=='edge') {
      edges[i].setAttribute('class','edge');
    }
  }
}
]]></script>
        <defs>
                <circle id="rim" cx="0" cy="0" r="7"/>
                <circle id="rim2" cx="0" cy="0" r="3.5"/>
                <g id="zoomPlus">
                        <use xlink:href="#rim" fill="#404040">
                                <set attributeName="fill" to="#808080" begin="zoomplus.mouseover" end="zoomplus.mouseout"/>
                        </use>
                        <path d="M-4,0h8M0,-4v8" fill="none" stroke="white" stroke-width="1.5" pointer-events="none"/>
                </g>
                <g id="zoomMin">
                        <use xlink:href="#rim" fill="#404040">
                                <set attributeName="fill" to="#808080" begin="zoomminus.mouseover" end="zoomminus.mouseout"/>
                        </use>
                        <path d="M-4,0h8" fill="none" stroke="white" stroke-width="1.5" pointer-events="none"/>
                </g>
                <g id="dirArrow">
                        <path fill="none" stroke="white" stroke-width="1.5" d="M0,-3.0v7 M-2.5,-0.5L0,-3.0L2.5,-0.5"/>
                </g>
               <g id="resetDef">
                       <use xlink:href="#rim2" fill="#404040">
                               <set attributeName="fill" to="#808080" begin="reset.mouseover" end="reset.mouseout"/>
                       </use>
               </g>
        </defs>

<script type="text/javascript">
var viewWidth = 1066;
var viewHeight = 474;
var sectionId = 'dynsection-21';
</script>
<script xlink:href="svgpan.js"/>
<svg id="graph" class="graph">
<g id="viewport">
<title>getNumNeuronsWithFiringRate</title>
<polygon fill="#ffffff" stroke="transparent" points="-4,4 -4,-470 1062,-470 1062,4 -4,4"/>
<!-- Node498 -->
<g id="node1" class="node">
<title>Node498</title>
<polygon fill="#bfbfbf" stroke="#000000" points="0,-133.5 0,-152.5 153,-152.5 153,-133.5 0,-133.5"/>
<text text-anchor="middle" x="76.5" y="-140.5" font-family="Helvetica,sans-Serif" font-size="10.00" fill="#000000">getNumNeuronsWithFiringRate</text>
</g>
<!-- Node499 -->
<g id="node2" class="node">
<title>Node499</title>
<g id="a_node2"><a xlink:href="classSpikeMonitorCore.html#a3a3ffdb35b09328d22e5d72503ed1f55" target="_top" xlink:title="returns recording status ">
<polygon fill="#ffffff" stroke="#000000" points="189,-133.5 189,-152.5 257,-152.5 257,-133.5 189,-133.5"/>
<text text-anchor="middle" x="223" y="-140.5" font-family="Helvetica,sans-Serif" font-size="10.00" fill="#000000">isRecording</text>
</a>
</g>
</g>
<!-- Node498&#45;&gt;Node499 -->
<g id="edge1" class="edge">
<title>Node498&#45;&gt;Node499</title>
<path fill="none" stroke="#191970" d="M153.1825,-143C161.8471,-143 170.4475,-143 178.4973,-143"/>
<polygon fill="#191970" stroke="#191970" points="178.7217,-146.5001 188.7216,-143 178.7216,-139.5001 178.7217,-146.5001"/>
</g>
<!-- Node500 -->
<g id="node3" class="node">
<title>Node500</title>
<g id="a_node3"><a xlink:href="classSpikeMonitorCore.html#af0ba89c38f6852cdf9d914687ad6a445" target="_top" xlink:title="prints the AER vector in human&#45;readable format ">
<polygon fill="#ffffff" stroke="#000000" points="305,-228.5 305,-247.5 340,-247.5 340,-228.5 305,-228.5"/>
<text text-anchor="middle" x="322.5" y="-235.5" font-family="Helvetica,sans-Serif" font-size="10.00" fill="#000000">print</text>
</a>
</g>
</g>
<!-- Node499&#45;&gt;Node500 -->
<g id="edge2" class="edge">
<title>Node499&#45;&gt;Node500</title>
<path fill="none" stroke="#191970" d="M238.5469,-152.7813C258.0505,-169.0506 291.1469,-200.7571 309.4158,-220.7655"/>
<polygon fill="#191970" stroke="#191970" points="306.8131,-223.1059 316.0482,-228.2986 312.0669,-218.4802 306.8131,-223.1059"/>
</g>
<!-- Node511 -->
<g id="node14" class="node">
<title>Node511</title>
<g id="a_node14"><a xlink:href="classSpikeMonitorCore.html#a6e116c2994e0449c41e56d03370fa54c" target="_top" xlink:title="inserts a (time,neurId) tupel into the 2D spike vector ">
<polygon fill="#ffffff" stroke="#000000" points="293,-.5 293,-19.5 352,-19.5 352,-.5 293,-.5"/>
<text text-anchor="middle" x="322.5" y="-7.5" font-family="Helvetica,sans-Serif" font-size="10.00" fill="#000000">pushAER</text>
</a>
</g>
</g>
<!-- Node499&#45;&gt;Node511 -->
<g id="edge25" class="edge">
<title>Node499&#45;&gt;Node511</title>
<path fill="none" stroke="#191970" d="M225.7971,-133.3991C233.7959,-112.856 258.0687,-66.6556 291.5725,-27.3006"/>
<polygon fill="#191970" stroke="#191970" points="294.4268,-29.3544 298.3942,-19.5305 289.1664,-24.7361 294.4268,-29.3544"/>
</g>
<!-- Node500&#45;&gt;Node499 -->
<g id="edge3" class="edge">
<title>Node500&#45;&gt;Node499</title>
<path fill="none" stroke="#191970" d="M307.2662,-228.4796C287.8499,-212.3273 254.6032,-180.496 236.2101,-160.3722"/>
<polygon fill="#191970" stroke="#191970" points="238.7668,-157.9797 229.5285,-152.7928 233.5158,-162.6087 238.7668,-157.9797"/>
</g>
<!-- Node501 -->
<g id="node4" class="node">
<title>Node501</title>
<g id="a_node4"><a xlink:href="classSNN.html#a5fd2b156623d78138bcb44167eabab78" target="_top" xlink:title="SNN::getSimTime">
<polygon fill="#ffffff" stroke="#000000" points="394.5,-304.5 394.5,-323.5 491.5,-323.5 491.5,-304.5 394.5,-304.5"/>
<text text-anchor="middle" x="443" y="-311.5" font-family="Helvetica,sans-Serif" font-size="10.00" fill="#000000">SNN::getSimTime</text>
</a>
</g>
</g>
<!-- Node500&#45;&gt;Node501 -->
<g id="edge4" class="edge">
<title>Node500&#45;&gt;Node501</title>
<path fill="none" stroke="#191970" d="M331.367,-247.756C343.195,-260.2545 365.2947,-281.8677 388,-295 391.4912,-297.0192 395.231,-298.8707 399.057,-300.5577"/>
<polygon fill="#191970" stroke="#191970" points="398.0688,-303.9326 408.6527,-304.4141 400.6791,-297.4374 398.0688,-303.9326"/>
</g>
<!-- Node502 -->
<g id="node5" class="node">
<title>Node502</title>
<g id="a_node5"><a xlink:href="classSNN.html#ab0367f8ebd4019bf7d34ebddb1563fe7" target="_top" xlink:title="SNN::getGroupName">
<polygon fill="#ffffff" stroke="#000000" points="388,-266.5 388,-285.5 498,-285.5 498,-266.5 388,-266.5"/>
<text text-anchor="middle" x="443" y="-273.5" font-family="Helvetica,sans-Serif" font-size="10.00" fill="#000000">SNN::getGroupName</text>
</a>
</g>
</g>
<!-- Node500&#45;&gt;Node502 -->
<g id="edge5" class="edge">
<title>Node500&#45;&gt;Node502</title>
<path fill="none" stroke="#191970" d="M340.0217,-243.5255C356.4759,-248.7144 381.6898,-256.6657 403.0494,-263.4015"/>
<polygon fill="#191970" stroke="#191970" points="402.2678,-266.8249 412.8575,-266.4945 404.3732,-260.1489 402.2678,-266.8249"/>
</g>
<!-- Node503 -->
<g id="node6" class="node">
<title>Node503</title>
<g id="a_node6"><a xlink:href="classSpikeMonitorCore.html#af6c333e6cefff92d0e354eca70625cdc" target="_top" xlink:title="returns the total number of recorded spikes in the group ">
<polygon fill="#ffffff" stroke="#000000" points="711,-209.5 711,-228.5 809,-228.5 809,-209.5 711,-209.5"/>
<text text-anchor="middle" x="760" y="-216.5" font-family="Helvetica,sans-Serif" font-size="10.00" fill="#000000">getPopNumSpikes</text>
</a>
</g>
</g>
<!-- Node500&#45;&gt;Node503 -->
<g id="edge6" class="edge">
<title>Node500&#45;&gt;Node503</title>
<path fill="none" stroke="#191970" d="M340.1924,-237.2316C400.5457,-234.6106 600.1498,-225.9421 700.8305,-221.5696"/>
<polygon fill="#191970" stroke="#191970" points="701.0052,-225.0655 710.8439,-221.1348 700.7015,-218.072 701.0052,-225.0655"/>
</g>
<!-- Node506 -->
<g id="node9" class="node">
<title>Node506</title>
<g id="a_node9"><a xlink:href="classSpikeMonitorCore.html#a9cf20c30ff0efdbc5e3c5194648a7fb3" target="_top" xlink:title="returns the total recorded time in ms ">
<polygon fill="#ffffff" stroke="#000000" points="701,-342.5 701,-361.5 819,-361.5 819,-342.5 701,-342.5"/>
<text text-anchor="middle" x="760" y="-349.5" font-family="Helvetica,sans-Serif" font-size="10.00" fill="#000000">getRecordingTotalTime</text>
</a>
</g>
</g>
<!-- Node500&#45;&gt;Node506 -->
<g id="edge11" class="edge">
<title>Node500&#45;&gt;Node506</title>
<path fill="none" stroke="#191970" d="M325.8424,-247.747C333.3281,-267.8768 353.5393,-313.7648 388,-333 438.1402,-360.9872 597.7383,-359.2875 690.7979,-355.621"/>
<polygon fill="#191970" stroke="#191970" points="691.1264,-359.1105 700.9738,-355.2018 690.8382,-352.1164 691.1264,-359.1105"/>
</g>
<!-- Node507 -->
<g id="node10" class="node">
<title>Node507</title>
<g id="a_node10"><a xlink:href="classSpikeMonitorCore.html#ae62d623e8edfc6b05309256c1d825bbd" target="_top" xlink:title="returns the recorded mean firing rate of the group ">
<polygon fill="#ffffff" stroke="#000000" points="541.5,-190.5 541.5,-209.5 657.5,-209.5 657.5,-190.5 541.5,-190.5"/>
<text text-anchor="middle" x="599.5" y="-197.5" font-family="Helvetica,sans-Serif" font-size="10.00" fill="#000000">getPopMeanFiringRate</text>
</a>
</g>
</g>
<!-- Node500&#45;&gt;Node507 -->
<g id="edge12" class="edge">
<title>Node500&#45;&gt;Node507</title>
<path fill="none" stroke="#191970" d="M340.2033,-233.7262C353.3328,-230.6763 371.7033,-226.6598 388,-224 435.6766,-216.2188 489.8103,-210.1264 531.3753,-206.0269"/>
<polygon fill="#191970" stroke="#191970" points="531.7752,-209.5047 541.3897,-205.0537 531.0981,-202.5375 531.7752,-209.5047"/>
</g>
<!-- Node508 -->
<g id="node11" class="node">
<title>Node508</title>
<g id="a_node11"><a xlink:href="classSpikeMonitorCore.html#ad0c4b32bb5cc0c7a8d95ed6023a2695f" target="_top" xlink:title="computes the standard deviation of firing rates in the group ">
<polygon fill="#ffffff" stroke="#000000" points="389.5,-114.5 389.5,-133.5 496.5,-133.5 496.5,-114.5 389.5,-114.5"/>
<text text-anchor="middle" x="443" y="-121.5" font-family="Helvetica,sans-Serif" font-size="10.00" fill="#000000">getPopStdFiringRate</text>
</a>
</g>
</g>
<!-- Node500&#45;&gt;Node508 -->
<g id="edge16" class="edge">
<title>Node500&#45;&gt;Node508</title>
<path fill="none" stroke="#191970" d="M332.7738,-228.2804C353.3164,-208.8459 399.6741,-164.9888 425.2409,-140.8011"/>
<polygon fill="#191970" stroke="#191970" points="427.8933,-143.1099 432.7522,-133.695 423.0826,-138.0249 427.8933,-143.1099"/>
</g>
<!-- Node510 -->
<g id="node13" class="node">
<title>Node510</title>
<g id="a_node13"><a xlink:href="classSpikeMonitorCore.html#aed09edf4583ac05d42fccc7e3556e3c5" target="_top" xlink:title="returns the recorded mean firing rate for a specific neuron ">
<polygon fill="#ffffff" stroke="#000000" points="534,-380.5 534,-399.5 665,-399.5 665,-380.5 534,-380.5"/>
<text text-anchor="middle" x="599.5" y="-387.5" font-family="Helvetica,sans-Serif" font-size="10.00" fill="#000000">getNeuronMeanFiringRate</text>
</a>
</g>
</g>
<!-- Node500&#45;&gt;Node510 -->
<g id="edge21" class="edge">
<title>Node500&#45;&gt;Node510</title>
<path fill="none" stroke="#191970" d="M324.2529,-247.7487C329.2324,-272.3164 345.9214,-336.8773 388,-366 427.1025,-393.0629 480.335,-398.9826 523.6116,-398.1771"/>
<polygon fill="#191970" stroke="#191970" points="523.9287,-401.669 533.8156,-397.8611 523.712,-394.6724 523.9287,-401.669"/>
</g>
<!-- Node503&#45;&gt;Node499 -->
<g id="edge7" class="edge">
<title>Node503&#45;&gt;Node499</title>
<path fill="none" stroke="#191970" d="M756.6313,-209.2015C747.1067,-183.2475 717.2277,-112.8773 665,-86 517.7786,-10.2373 451.3928,-57.7729 293,-106 276.3869,-111.0583 259.1229,-120.1351 245.8966,-128.0323"/>
<polygon fill="#191970" stroke="#191970" points="243.7143,-125.2664 237.0463,-133.4998 247.3933,-131.2216 243.7143,-125.2664"/>
</g>
<!-- Node504 -->
<g id="node7" class="node">
<title>Node504</title>
<g id="a_node7"><a xlink:href="classSpikeMonitorCore.html#a005a2f884f6260054483d4fa6ed6ddbb" target="_top" xlink:title="returns the number of recorded spikes of a specific neuron ">
<polygon fill="#ffffff" stroke="#000000" points="855,-285.5 855,-304.5 968,-304.5 968,-285.5 855,-285.5"/>
<text text-anchor="middle" x="911.5" y="-292.5" font-family="Helvetica,sans-Serif" font-size="10.00" fill="#000000">getNeuronNumSpikes</text>
</a>
</g>
</g>
<!-- Node503&#45;&gt;Node504 -->
<g id="edge8" class="edge">
<title>Node503&#45;&gt;Node504</title>
<path fill="none" stroke="#191970" d="M779.1876,-228.6255C805.4834,-241.8168 852.907,-265.6068 883.2612,-280.834"/>
<polygon fill="#191970" stroke="#191970" points="881.9604,-284.0971 892.4682,-285.4527 885.0992,-277.8403 881.9604,-284.0971"/>
</g>
<!-- Node504&#45;&gt;Node499 -->
<g id="edge9" class="edge">
<title>Node504&#45;&gt;Node499</title>
<path fill="none" stroke="#191970" d="M905.313,-304.5997C891.9655,-324.557 858.4608,-370.7623 819,-396 732.7375,-451.1704 701.8962,-466 599.5,-466 443,-466 443,-466 443,-466 295.4998,-466 239.8623,-233.0667 226.4369,-162.8182"/>
<polygon fill="#191970" stroke="#191970" points="229.8221,-161.873 224.5786,-152.6667 222.9365,-163.1336 229.8221,-161.873"/>
</g>
<!-- Node505 -->
<g id="node8" class="node">
<title>Node505</title>
<g id="a_node8"><a xlink:href="classSpikeMonitorCore.html#abe76071e1ac3632d55f2455b239b3d12" target="_top" xlink:title="returns recording mode ">
<polygon fill="#ffffff" stroke="#000000" points="1004,-114.5 1004,-133.5 1058,-133.5 1058,-114.5 1004,-114.5"/>
<text text-anchor="middle" x="1031" y="-121.5" font-family="Helvetica,sans-Serif" font-size="10.00" fill="#000000">getMode</text>
</a>
</g>
</g>
<!-- Node504&#45;&gt;Node505 -->
<g id="edge10" class="edge">
<title>Node504&#45;&gt;Node505</title>
<path fill="none" stroke="#191970" d="M918.2672,-285.3163C937.5751,-257.6874 993.1527,-178.1581 1018.3325,-142.1268"/>
<polygon fill="#191970" stroke="#191970" points="1021.4477,-143.7792 1024.307,-133.5774 1015.7099,-139.7694 1021.4477,-143.7792"/>
</g>
<!-- Node507&#45;&gt;Node499 -->
<g id="edge13" class="edge">
<title>Node507&#45;&gt;Node499</title>
<path fill="none" stroke="#191970" d="M541.452,-191.2119C465.7774,-179.7551 335.0803,-159.9683 267.0427,-149.6678"/>
<polygon fill="#191970" stroke="#191970" points="267.4872,-146.1953 257.0759,-148.1589 266.4393,-153.1164 267.4872,-146.1953"/>
</g>
<!-- Node507&#45;&gt;Node503 -->
<g id="edge14" class="edge">
<title>Node507&#45;&gt;Node503</title>
<path fill="none" stroke="#191970" d="M657.8982,-206.9132C671.8904,-208.5696 686.842,-210.3395 700.8671,-211.9998"/>
<polygon fill="#191970" stroke="#191970" points="700.5468,-215.4863 710.8889,-213.1862 701.3698,-208.5348 700.5468,-215.4863"/>
</g>
<!-- Node507&#45;&gt;Node506 -->
<g id="edge15" class="edge">
<title>Node507&#45;&gt;Node506</title>
<path fill="none" stroke="#191970" d="M609.54,-209.5083C636.2244,-234.7795 709.1543,-303.8471 742.6995,-335.6157"/>
<polygon fill="#191970" stroke="#191970" points="740.2964,-338.1604 749.9638,-342.4953 745.1097,-333.0778 740.2964,-338.1604"/>
</g>
<!-- Node508&#45;&gt;Node499 -->
<g id="edge17" class="edge">
<title>Node508&#45;&gt;Node499</title>
<path fill="none" stroke="#191970" d="M389.1819,-128.6479C351.7695,-131.879 302.5047,-136.1337 267.3486,-139.1699"/>
<polygon fill="#191970" stroke="#191970" points="267.0367,-135.6837 257.375,-140.0313 267.6391,-142.6577 267.0367,-135.6837"/>
</g>
<!-- Node508&#45;&gt;Node507 -->
<g id="edge18" class="edge">
<title>Node508&#45;&gt;Node507</title>
<path fill="none" stroke="#191970" d="M465.8882,-133.6112C475.8213,-137.8791 487.5495,-143.0487 498,-148 523.6413,-160.1484 552.3813,-174.9904 572.7158,-185.7036"/>
<polygon fill="#191970" stroke="#191970" points="571.2229,-188.8734 581.6989,-190.4558 574.4962,-182.6859 571.2229,-188.8734"/>
</g>
<!-- Node509 -->
<g id="node12" class="node">
<title>Node509</title>
<g id="a_node12"><a xlink:href="classSpikeMonitorCore.html#a0fc20fcc5876030d796debd148ae7cee" target="_top" xlink:title="returns a list of firing rates for all neurons in the group (sorted by neuron ID ascending) ...">
<polygon fill="#ffffff" stroke="#000000" points="553.5,-95.5 553.5,-114.5 645.5,-114.5 645.5,-95.5 553.5,-95.5"/>
<text text-anchor="middle" x="599.5" y="-102.5" font-family="Helvetica,sans-Serif" font-size="10.00" fill="#000000">getAllFiringRates</text>
</a>
</g>
</g>
<!-- Node508&#45;&gt;Node509 -->
<g id="edge19" class="edge">
<title>Node508&#45;&gt;Node509</title>
<path fill="none" stroke="#191970" d="M496.8584,-117.4613C511.801,-115.6472 528.0621,-113.673 543.1433,-111.842"/>
<polygon fill="#191970" stroke="#191970" points="543.8596,-115.2808 553.3649,-110.6011 543.0159,-108.3319 543.8596,-115.2808"/>
</g>
<!-- Node509&#45;&gt;Node499 -->
<g id="edge20" class="edge">
<title>Node509&#45;&gt;Node499</title>
<path fill="none" stroke="#191970" d="M553.1205,-101.9985C510.1557,-99.9282 444.5499,-98.5723 388,-105 345.2519,-109.8589 297.4515,-121.5826 264.3485,-130.7336"/>
<polygon fill="#191970" stroke="#191970" points="263.2498,-127.4066 254.5688,-133.4805 265.1427,-134.1458 263.2498,-127.4066"/>
</g>
<!-- Node510&#45;&gt;Node499 -->
<g id="edge22" class="edge">
<title>Node510&#45;&gt;Node499</title>
<path fill="none" stroke="#191970" d="M568.6783,-399.5814C525.5162,-411.1191 445.87,-425.4187 388,-395 292.6796,-344.896 243.9461,-212.3411 228.5282,-162.402"/>
<polygon fill="#191970" stroke="#191970" points="231.8057,-161.1446 225.596,-152.5603 225.0972,-163.1434 231.8057,-161.1446"/>
</g>
<!-- Node510&#45;&gt;Node504 -->
<g id="edge23" class="edge">
<title>Node510&#45;&gt;Node504</title>
<path fill="none" stroke="#191970" d="M665.2591,-394.311C710.1544,-394.8895 770.1198,-390.925 819,-371 850.7119,-358.0733 879.9205,-330.3039 896.7118,-312.1526"/>
<polygon fill="#191970" stroke="#191970" points="899.4378,-314.3554 903.5174,-304.5775 894.2306,-309.6773 899.4378,-314.3554"/>
</g>
<!-- Node510&#45;&gt;Node506 -->
<g id="edge24" class="edge">
<title>Node510&#45;&gt;Node506</title>
<path fill="none" stroke="#191970" d="M640.0009,-380.411C661.1806,-375.3965 687.3022,-369.2119 709.7604,-363.8947"/>
<polygon fill="#191970" stroke="#191970" points="710.8657,-367.2299 719.7903,-361.5201 709.2529,-360.4182 710.8657,-367.2299"/>
</g>
<!-- Node511&#45;&gt;Node499 -->
<g id="edge26" class="edge">
<title>Node511&#45;&gt;Node499</title>
<path fill="none" stroke="#191970" d="M317.5002,-19.5917C311.283,-26.6095 300.5676,-34.5329 293,-43 269.7362,-69.0291 248.948,-103.568 236.1866,-124.7204"/>
<polygon fill="#191970" stroke="#191970" points="233.104,-123.0537 230.908,-133.4184 239.0882,-126.6854 233.104,-123.0537"/>
</g>
<!-- Node511&#45;&gt;Node505 -->
<g id="edge27" class="edge">
<title>Node511&#45;&gt;Node505</title>
<path fill="none" stroke="#191970" d="M352.0166,-10C402.651,-10 509.3307,-10 599.5,-10 599.5,-10 599.5,-10 760,-10 860.5183,-10 966.7561,-77.4622 1010.4297,-108.5935"/>
<polygon fill="#191970" stroke="#191970" points="1008.3927,-111.4397 1018.5431,-114.4765 1012.5019,-105.7727 1008.3927,-111.4397"/>
</g>
</g>
</svg>
        <g id="navigator" transform="translate(0 0)" fill="#404254">
                <rect fill="#f2f5e9" fill-opacity="0.5" stroke="#606060" stroke-width=".5" x="0" y="0" width="60" height="60"/>
                <use id="zoomplus" xlink:href="#zoomPlus" x="17" y="9" onmousedown="handleZoom(evt,'in')"/>
                <use id="zoomminus" xlink:href="#zoomMin" x="42" y="9" onmousedown="handleZoom(evt,'out')"/>
                <use id="reset" xlink:href="#resetDef" x="30" y="36" onmousedown="handleReset()"/>
                <g id="arrowUp" xlink:href="#dirArrow" transform="translate(30 24)" onmousedown="handlePan(0,-1)">
                  <use xlink:href="#rim" fill="#404040">
                        <set attributeName="fill" to="#808080" begin="arrowUp.mouseover" end="arrowUp.mouseout"/>
                  </use>
                  <path fill="none" stroke="white" stroke-width="1.5" d="M0,-3.0v7 M-2.5,-0.5L0,-3.0L2.5,-0.5"/>
                </g>
                <g id="arrowRight" xlink:href="#dirArrow" transform="rotate(90) translate(36 -43)" onmousedown="handlePan(1,0)">
                  <use xlink:href="#rim" fill="#404040">
                        <set attributeName="fill" to="#808080" begin="arrowRight.mouseover" end="arrowRight.mouseout"/>
                  </use>
                  <path fill="none" stroke="white" stroke-width="1.5" d="M0,-3.0v7 M-2.5,-0.5L0,-3.0L2.5,-0.5"/>
                </g>
                <g id="arrowDown" xlink:href="#dirArrow" transform="rotate(180) translate(-30 -48)" onmousedown="handlePan(0,1)">
                  <use xlink:href="#rim" fill="#404040">
                        <set attributeName="fill" to="#808080" begin="arrowDown.mouseover" end="arrowDown.mouseout"/>
                  </use>
                  <path fill="none" stroke="white" stroke-width="1.5" d="M0,-3.0v7 M-2.5,-0.5L0,-3.0L2.5,-0.5"/>
                </g>
                <g id="arrowLeft" xlink:href="#dirArrow" transform="rotate(270) translate(-36 17)" onmousedown="handlePan(-1,0)">
                  <use xlink:href="#rim" fill="#404040">
                        <set attributeName="fill" to="#808080" begin="arrowLeft.mouseover" end="arrowLeft.mouseout"/>
                  </use>
                  <path fill="none" stroke="white" stroke-width="1.5" d="M0,-3.0v7 M-2.5,-0.5L0,-3.0L2.5,-0.5"/>
                </g>
        </g>
        <svg viewBox="0 0 15 15" width="100%" height="30px" preserveAspectRatio="xMaxYMin meet">
         <g id="arrow_out" transform="scale(0.3 0.3)">
          <a xlink:href="classSpikeMonitorCore_a81857cacf011acddd1791775c34ae4fb_cgraph_org.svg" target="_base">
           <rect id="button" ry="5" rx="5" y="6" x="6" height="38" width="38"
                fill="#f2f5e9" fill-opacity="0.5" stroke="#606060" stroke-width="1.0"/>
           <path id="arrow"
             d="M 11.500037,31.436501 C 11.940474,20.09759 22.043105,11.32322 32.158766,21.979434 L 37.068811,17.246167 C 37.068811,17.246167 37.088388,32 37.088388,32 L 22.160133,31.978069 C 22.160133,31.978069 26.997745,27.140456 26.997745,27.140456 C 18.528582,18.264221 13.291696,25.230495 11.500037,31.436501 z"
             style="fill:#404040;"/>
          </a>
         </g>
        </svg>
</svg>
