<?xml version="1.0" encoding="UTF-8" standalone="no"?>
<!DOCTYPE svg PUBLIC "-//W3C//DTD SVG 1.1//EN"
 "http://www.w3.org/Graphics/SVG/1.1/DTD/svg11.dtd">
<!-- Generated by graphviz version 2.40.1 (20161225.0304)
 -->
<!-- Title: getPopMeanFiringRate Pages: 1 -->
<svg width="412pt" height="39pt"
 viewBox="0.00 0.00 412.00 39.00" xmlns="http://www.w3.org/2000/svg" xmlns:xlink="http://www.w3.org/1999/xlink">
<g id="graph0" class="graph" transform="scale(1 1) rotate(0) translate(4 35)">
<title>getPopMeanFiringRate</title>
<polygon fill="#ffffff" stroke="transparent" points="-4,4 -4,-35 408,-35 408,4 -4,4"/>
<!-- Node243 -->
<g id="node1" class="node">
<title>Node243</title>
<polygon fill="#bfbfbf" stroke="#000000" points="0,-6 0,-25 116,-25 116,-6 0,-6"/>
<text text-anchor="middle" x="58" y="-13" font-family="Helvetica,sans-Serif" font-size="10.00" fill="#000000">getPopMeanFiringRate</text>
</g>
<!-- Node244 -->
<g id="node2" class="node">
<title>Node244</title>
<g id="a_node2"><a xlink:href="classSimpleWeightTuner_1_1Impl.html#a312d84bfa66a5036bb52a4c39db6fa6c" target="_top" xlink:title="SimpleWeightTuner::\lImpl::iterate">
<polygon fill="#ffffff" stroke="#000000" points="152,-.5 152,-30.5 260,-30.5 260,-.5 152,-.5"/>
<text text-anchor="start" x="160" y="-18.5" font-family="Helvetica,sans-Serif" font-size="10.00" fill="#000000">SimpleWeightTuner::</text>
<text text-anchor="middle" x="206" y="-7.5" font-family="Helvetica,sans-Serif" font-size="10.00" fill="#000000">Impl::iterate</text>
</a>
</g>
</g>
<!-- Node243&#45;&gt;Node244 -->
<g id="edge1" class="edge">
<title>Node243&#45;&gt;Node244</title>
<path fill="none" stroke="#191970" d="M126.1513,-15.5C134.8066,-15.5 143.5692,-15.5 151.9617,-15.5"/>
<polygon fill="#191970" stroke="#191970" points="126.0688,-12.0001 116.0687,-15.5 126.0687,-19.0001 126.0688,-12.0001"/>
</g>
<!-- Node245 -->
<g id="node3" class="node">
<title>Node245</title>
<g id="a_node3"><a xlink:href="classSimpleWeightTuner.html#a0df985e3ff7a27edc1e2e3fcc8261843" target="_top" xlink:title="Performs an iteration step of the tuning algorithm. ">
<polygon fill="#ffffff" stroke="#000000" points="296,-.5 296,-30.5 404,-30.5 404,-.5 296,-.5"/>
<text text-anchor="start" x="304" y="-18.5" font-family="Helvetica,sans-Serif" font-size="10.00" fill="#000000">SimpleWeightTuner::</text>
<text text-anchor="middle" x="350" y="-7.5" font-family="Helvetica,sans-Serif" font-size="10.00" fill="#000000">iterate</text>
</a>
</g>
</g>
<!-- Node244&#45;&gt;Node245 -->
<g id="edge2" class="edge">
<title>Node244&#45;&gt;Node245</title>
<path fill="none" stroke="#191970" d="M270.2702,-15.5C278.7504,-15.5 287.3754,-15.5 295.6672,-15.5"/>
<polygon fill="#191970" stroke="#191970" points="270.03,-12.0001 260.03,-15.5 270.0299,-19.0001 270.03,-12.0001"/>
</g>
</g>
</svg>
