<?xml version="1.0" encoding="UTF-8" standalone="no"?>
<!DOCTYPE svg PUBLIC "-//W3C//DTD SVG 1.1//EN"
 "http://www.w3.org/Graphics/SVG/1.1/DTD/svg11.dtd">
<!-- Generated by graphviz version 2.40.1 (20161225.0304)
 -->
<!-- Title: getGroupStartNeuronId Pages: 1 -->
<svg width="514pt" height="39pt"
 viewBox="0.00 0.00 514.00 39.00" xmlns="http://www.w3.org/2000/svg" xmlns:xlink="http://www.w3.org/1999/xlink">
<g id="graph0" class="graph" transform="scale(1 1) rotate(0) translate(4 35)">
<title>getGroupStartNeuronId</title>
<polygon fill="#ffffff" stroke="transparent" points="-4,4 -4,-35 510,-35 510,4 -4,4"/>
<!-- Node590 -->
<g id="node1" class="node">
<title>Node590</title>
<polygon fill="#bfbfbf" stroke="#000000" points="0,-6 0,-25 117,-25 117,-6 0,-6"/>
<text text-anchor="middle" x="58.5" y="-13" font-family="Helvetica,sans-Serif" font-size="10.00" fill="#000000">getGroupStartNeuronId</text>
</g>
<!-- Node591 -->
<g id="node2" class="node">
<title>Node591</title>
<g id="a_node2"><a xlink:href="classCARLsim_1_1Impl.html#acda1b88993a1c30fefeb2d6cf762154a" target="_top" xlink:title="CARLsim::Impl::getGroupStart\lNeuronId">
<polygon fill="#ffffff" stroke="#000000" points="153,-.5 153,-30.5 304,-30.5 304,-.5 153,-.5"/>
<text text-anchor="start" x="161" y="-18.5" font-family="Helvetica,sans-Serif" font-size="10.00" fill="#000000">CARLsim::Impl::getGroupStart</text>
<text text-anchor="middle" x="228.5" y="-7.5" font-family="Helvetica,sans-Serif" font-size="10.00" fill="#000000">NeuronId</text>
</a>
</g>
</g>
<!-- Node590&#45;&gt;Node591 -->
<g id="edge1" class="edge">
<title>Node590&#45;&gt;Node591</title>
<path fill="none" stroke="#191970" d="M127.1566,-15.5C135.5895,-15.5 144.2454,-15.5 152.7752,-15.5"/>
<polygon fill="#191970" stroke="#191970" points="127.0044,-12.0001 117.0044,-15.5 127.0043,-19.0001 127.0044,-12.0001"/>
</g>
<!-- Node592 -->
<g id="node3" class="node">
<title>Node592</title>
<g id="a_node3"><a xlink:href="classCARLsim.html#acda1b88993a1c30fefeb2d6cf762154a" target="_top" xlink:title="returns the first neuron id of a groupd specified by grpId ">
<polygon fill="#ffffff" stroke="#000000" points="340,-6 340,-25 506,-25 506,-6 340,-6"/>
<text text-anchor="middle" x="423" y="-13" font-family="Helvetica,sans-Serif" font-size="10.00" fill="#000000">CARLsim::getGroupStartNeuronId</text>
</a>
</g>
</g>
<!-- Node591&#45;&gt;Node592 -->
<g id="edge2" class="edge">
<title>Node591&#45;&gt;Node592</title>
<path fill="none" stroke="#191970" d="M314.429,-15.5C322.8298,-15.5 331.3449,-15.5 339.7188,-15.5"/>
<polygon fill="#191970" stroke="#191970" points="314.2557,-12.0001 304.2557,-15.5 314.2557,-19.0001 314.2557,-12.0001"/>
</g>
</g>
</svg>
