<?xml version="1.0" encoding="UTF-8" standalone="no"?>
<!DOCTYPE svg PUBLIC "-//W3C//DTD SVG 1.1//EN"
 "http://www.w3.org/Graphics/SVG/1.1/DTD/svg11.dtd">
<!-- Generated by graphviz version 2.40.1 (20161225.0304)
 -->
<!-- Title: ~Impl Pages: 1 -->
<svg width="320pt" height="66pt"
 viewBox="0.00 0.00 320.00 66.00" xmlns="http://www.w3.org/2000/svg" xmlns:xlink="http://www.w3.org/1999/xlink">
<g id="graph0" class="graph" transform="scale(1 1) rotate(0) translate(4 62)">
<title>~Impl</title>
<polygon fill="#ffffff" stroke="transparent" points="-4,4 -4,-62 316,-62 316,4 -4,4"/>
<!-- Node2 -->
<g id="node1" class="node">
<title>Node2</title>
<polygon fill="#bfbfbf" stroke="#000000" points="0,-19.5 0,-38.5 41,-38.5 41,-19.5 0,-19.5"/>
<text text-anchor="middle" x="20.5" y="-26.5" font-family="Helvetica,sans-Serif" font-size="10.00" fill="#000000">~Impl</text>
</g>
<!-- Node3 -->
<g id="node2" class="node">
<title>Node3</title>
<g id="a_node2"><a xlink:href="classCARLsim_1_1Impl.html#aa665c758ce50f34c0a66dffe3a2a6476" target="_top" xlink:title="saveSimulation">
<polygon fill="#ffffff" stroke="#000000" points="77,-19.5 77,-38.5 160,-38.5 160,-19.5 77,-19.5"/>
<text text-anchor="middle" x="118.5" y="-26.5" font-family="Helvetica,sans-Serif" font-size="10.00" fill="#000000">saveSimulation</text>
</a>
</g>
</g>
<!-- Node2&#45;&gt;Node3 -->
<g id="edge1" class="edge">
<title>Node2&#45;&gt;Node3</title>
<path fill="none" stroke="#191970" d="M41.2833,-29C48.7946,-29 57.6478,-29 66.6301,-29"/>
<polygon fill="#191970" stroke="#191970" points="66.7616,-32.5001 76.7615,-29 66.7615,-25.5001 66.7616,-32.5001"/>
</g>
<!-- Node4 -->
<g id="node3" class="node">
<title>Node4</title>
<g id="a_node3"><a xlink:href="classUserErrors.html#a4bbedc6c0817d5e59e74e450bf00472c" target="_top" xlink:title="simple wrapper for assert statement ">
<polygon fill="#ffffff" stroke="#000000" points="196,-38.5 196,-57.5 312,-57.5 312,-38.5 196,-38.5"/>
<text text-anchor="middle" x="254" y="-45.5" font-family="Helvetica,sans-Serif" font-size="10.00" fill="#000000">UserErrors::assertTrue</text>
</a>
</g>
</g>
<!-- Node3&#45;&gt;Node4 -->
<g id="edge2" class="edge">
<title>Node3&#45;&gt;Node4</title>
<path fill="none" stroke="#191970" d="M160.2601,-34.8557C168.3083,-35.9842 176.9332,-37.1936 185.5728,-38.405"/>
<polygon fill="#191970" stroke="#191970" points="185.2988,-41.9008 195.6879,-39.8234 186.2709,-34.9686 185.2988,-41.9008"/>
</g>
<!-- Node5 -->
<g id="node4" class="node">
<title>Node5</title>
<g id="a_node4"><a xlink:href="classSNN.html#a82ffd1eff0b99248989136ba006ed87d" target="_top" xlink:title="stores the pre and post synaptic neuron ids with the weight and delay ">
<polygon fill="#ffffff" stroke="#000000" points="198.5,-.5 198.5,-19.5 309.5,-19.5 309.5,-.5 198.5,-.5"/>
<text text-anchor="middle" x="254" y="-7.5" font-family="Helvetica,sans-Serif" font-size="10.00" fill="#000000">SNN::saveSimulation</text>
</a>
</g>
</g>
<!-- Node3&#45;&gt;Node5 -->
<g id="edge3" class="edge">
<title>Node3&#45;&gt;Node5</title>
<path fill="none" stroke="#191970" d="M160.2601,-23.1443C169.0543,-21.9112 178.5371,-20.5815 187.9752,-19.2581"/>
<polygon fill="#191970" stroke="#191970" points="188.7472,-22.6842 198.1643,-17.8294 187.7751,-15.752 188.7472,-22.6842"/>
</g>
</g>
</svg>
