<?xml version="1.0" encoding="UTF-8" standalone="no"?>
<!DOCTYPE svg PUBLIC "-//W3C//DTD SVG 1.1//EN"
 "http://www.w3.org/Graphics/SVG/1.1/DTD/svg11.dtd">
<!-- Generated by graphviz version 2.40.1 (20161225.0304)
 -->
<!-- Title: getPercentSilentNeurons Pages: 1 -->
<svg width="296pt" height="78pt"
 viewBox="0.00 0.00 296.00 77.50" xmlns="http://www.w3.org/2000/svg" xmlns:xlink="http://www.w3.org/1999/xlink">
<g id="graph0" class="graph" transform="scale(1 1) rotate(0) translate(4 73.5)">
<title>getPercentSilentNeurons</title>
<polygon fill="#ffffff" stroke="transparent" points="-4,4 -4,-73.5 292,-73.5 292,4 -4,4"/>
<!-- Node572 -->
<g id="node1" class="node">
<title>Node572</title>
<polygon fill="#bfbfbf" stroke="#000000" points="0,-22.5 0,-41.5 125,-41.5 125,-22.5 0,-22.5"/>
<text text-anchor="middle" x="62.5" y="-29.5" font-family="Helvetica,sans-Serif" font-size="10.00" fill="#000000">getPercentSilentNeurons</text>
</g>
<!-- Node573 -->
<g id="node2" class="node">
<title>Node573</title>
<g id="a_node2"><a xlink:href="classSpikeMonitor.html#abcba6b94670385ff0bb843586d87ecb3" target="_top" xlink:title="returns the percentage of total neurons in group that are silent. ">
<polygon fill="#ffffff" stroke="#000000" points="161,-39 161,-69 288,-69 288,-39 161,-39"/>
<text text-anchor="start" x="169" y="-57" font-family="Helvetica,sans-Serif" font-size="10.00" fill="#000000">SpikeMonitor::getPercent</text>
<text text-anchor="middle" x="224.5" y="-46" font-family="Helvetica,sans-Serif" font-size="10.00" fill="#000000">SilentNeurons</text>
</a>
</g>
</g>
<!-- Node572&#45;&gt;Node573 -->
<g id="edge1" class="edge">
<title>Node572&#45;&gt;Node573</title>
<path fill="none" stroke="#191970" d="M135.1555,-41.8668C143.7626,-43.0357 152.4968,-44.2218 160.9637,-45.3716"/>
<polygon fill="#191970" stroke="#191970" points="135.5135,-38.3834 125.1334,-40.5058 134.5715,-45.3197 135.5135,-38.3834"/>
</g>
<!-- Node574 -->
<g id="node3" class="node">
<title>Node574</title>
<g id="a_node3"><a xlink:href="classSpikeMonitorCore.html#a3e33677ab9388f1e907302d2a48fdc6b" target="_top" xlink:title="returns the SpikeMonitor ID ">
<polygon fill="#ffffff" stroke="#000000" points="189,-.5 189,-19.5 260,-19.5 260,-.5 189,-.5"/>
<text text-anchor="middle" x="224.5" y="-7.5" font-family="Helvetica,sans-Serif" font-size="10.00" fill="#000000">getMonitorId</text>
</a>
</g>
</g>
<!-- Node572&#45;&gt;Node574 -->
<g id="edge2" class="edge">
<title>Node572&#45;&gt;Node574</title>
<path fill="none" stroke="#191970" d="M135.0853,-22.1427C153.6937,-19.6157 172.9008,-17.0073 188.7212,-14.8588"/>
<polygon fill="#191970" stroke="#191970" points="134.5715,-18.6803 125.1334,-23.4942 135.5135,-25.6166 134.5715,-18.6803"/>
</g>
</g>
</svg>
