<?xml version="1.0" encoding="UTF-8" standalone="no"?>
<!DOCTYPE svg PUBLIC "-//W3C//DTD SVG 1.1//EN"
 "http://www.w3.org/Graphics/SVG/1.1/DTD/svg11.dtd">
<!-- Generated by graphviz version 2.40.1 (20161225.0304)
 -->
<!-- Title: isRecording Pages: 1 -->
<!--zoomable 474 -->
<svg id="main" version="1.1" xmlns="http://www.w3.org/2000/svg" xmlns:xlink="http://www.w3.org/1999/xlink" xml:space="preserve" onload="init(evt)">
<style type="text/css"><![CDATA[
.edge:hover path { stroke: red; }
.edge:hover polygon { stroke: red; fill: red; }
]]></style>
<script type="text/javascript"><![CDATA[
var edges = document.getElementsByTagName('g');
if (edges && edges.length) {
  for (var i=0;i<edges.length;i++) {
    if (edges[i].id.substr(0,4)=='edge') {
      edges[i].setAttribute('class','edge');
    }
  }
}
]]></script>
        <defs>
                <circle id="rim" cx="0" cy="0" r="7"/>
                <circle id="rim2" cx="0" cy="0" r="3.5"/>
                <g id="zoomPlus">
                        <use xlink:href="#rim" fill="#404040">
                                <set attributeName="fill" to="#808080" begin="zoomplus.mouseover" end="zoomplus.mouseout"/>
                        </use>
                        <path d="M-4,0h8M0,-4v8" fill="none" stroke="white" stroke-width="1.5" pointer-events="none"/>
                </g>
                <g id="zoomMin">
                        <use xlink:href="#rim" fill="#404040">
                                <set attributeName="fill" to="#808080" begin="zoomminus.mouseover" end="zoomminus.mouseout"/>
                        </use>
                        <path d="M-4,0h8" fill="none" stroke="white" stroke-width="1.5" pointer-events="none"/>
                </g>
                <g id="dirArrow">
                        <path fill="none" stroke="white" stroke-width="1.5" d="M0,-3.0v7 M-2.5,-0.5L0,-3.0L2.5,-0.5"/>
                </g>
               <g id="resetDef">
                       <use xlink:href="#rim2" fill="#404040">
                               <set attributeName="fill" to="#808080" begin="reset.mouseover" end="reset.mouseout"/>
                       </use>
               </g>
        </defs>

<script type="text/javascript">
var viewWidth = 877;
var viewHeight = 474;
var sectionId = 'dynsection-48';
</script>
<script xlink:href="svgpan.js"/>
<svg id="graph" class="graph">
<g id="viewport">
<title>isRecording</title>
<polygon fill="#ffffff" stroke="transparent" points="-4,4 -4,-470 873,-470 873,4 -4,4"/>
<!-- Node978 -->
<g id="node1" class="node">
<title>Node978</title>
<polygon fill="#bfbfbf" stroke="#000000" points="0,-133.5 0,-152.5 68,-152.5 68,-133.5 0,-133.5"/>
<text text-anchor="middle" x="34" y="-140.5" font-family="Helvetica,sans-Serif" font-size="10.00" fill="#000000">isRecording</text>
</g>
<!-- Node979 -->
<g id="node2" class="node">
<title>Node979</title>
<g id="a_node2"><a xlink:href="classSpikeMonitorCore.html#af0ba89c38f6852cdf9d914687ad6a445" target="_top" xlink:title="prints the AER vector in human&#45;readable format ">
<polygon fill="#ffffff" stroke="#000000" points="116,-228.5 116,-247.5 151,-247.5 151,-228.5 116,-228.5"/>
<text text-anchor="middle" x="133.5" y="-235.5" font-family="Helvetica,sans-Serif" font-size="10.00" fill="#000000">print</text>
</a>
</g>
</g>
<!-- Node978&#45;&gt;Node979 -->
<g id="edge1" class="edge">
<title>Node978&#45;&gt;Node979</title>
<path fill="none" stroke="#191970" d="M49.5469,-152.7813C69.0505,-169.0506 102.1469,-200.7571 120.4158,-220.7655"/>
<polygon fill="#191970" stroke="#191970" points="117.8131,-223.1059 127.0482,-228.2986 123.0669,-218.4802 117.8131,-223.1059"/>
</g>
<!-- Node990 -->
<g id="node13" class="node">
<title>Node990</title>
<g id="a_node13"><a xlink:href="classSpikeMonitorCore.html#a6e116c2994e0449c41e56d03370fa54c" target="_top" xlink:title="inserts a (time,neurId) tupel into the 2D spike vector ">
<polygon fill="#ffffff" stroke="#000000" points="104,-.5 104,-19.5 163,-19.5 163,-.5 104,-.5"/>
<text text-anchor="middle" x="133.5" y="-7.5" font-family="Helvetica,sans-Serif" font-size="10.00" fill="#000000">pushAER</text>
</a>
</g>
</g>
<!-- Node978&#45;&gt;Node990 -->
<g id="edge24" class="edge">
<title>Node978&#45;&gt;Node990</title>
<path fill="none" stroke="#191970" d="M36.7971,-133.3991C44.7959,-112.856 69.0687,-66.6556 102.5725,-27.3006"/>
<polygon fill="#191970" stroke="#191970" points="105.4268,-29.3544 109.3942,-19.5305 100.1664,-24.7361 105.4268,-29.3544"/>
</g>
<!-- Node979&#45;&gt;Node978 -->
<g id="edge2" class="edge">
<title>Node979&#45;&gt;Node978</title>
<path fill="none" stroke="#191970" d="M118.2662,-228.4796C98.8499,-212.3273 65.6032,-180.496 47.2101,-160.3722"/>
<polygon fill="#191970" stroke="#191970" points="49.7668,-157.9797 40.5285,-152.7928 44.5158,-162.6087 49.7668,-157.9797"/>
</g>
<!-- Node980 -->
<g id="node3" class="node">
<title>Node980</title>
<g id="a_node3"><a xlink:href="classSNN.html#a5fd2b156623d78138bcb44167eabab78" target="_top" xlink:title="SNN::getSimTime">
<polygon fill="#ffffff" stroke="#000000" points="205.5,-304.5 205.5,-323.5 302.5,-323.5 302.5,-304.5 205.5,-304.5"/>
<text text-anchor="middle" x="254" y="-311.5" font-family="Helvetica,sans-Serif" font-size="10.00" fill="#000000">SNN::getSimTime</text>
</a>
</g>
</g>
<!-- Node979&#45;&gt;Node980 -->
<g id="edge3" class="edge">
<title>Node979&#45;&gt;Node980</title>
<path fill="none" stroke="#191970" d="M142.367,-247.756C154.195,-260.2545 176.2947,-281.8677 199,-295 202.4912,-297.0192 206.231,-298.8707 210.057,-300.5577"/>
<polygon fill="#191970" stroke="#191970" points="209.0688,-303.9326 219.6527,-304.4141 211.6791,-297.4374 209.0688,-303.9326"/>
</g>
<!-- Node981 -->
<g id="node4" class="node">
<title>Node981</title>
<g id="a_node4"><a xlink:href="classSNN.html#ab0367f8ebd4019bf7d34ebddb1563fe7" target="_top" xlink:title="SNN::getGroupName">
<polygon fill="#ffffff" stroke="#000000" points="199,-266.5 199,-285.5 309,-285.5 309,-266.5 199,-266.5"/>
<text text-anchor="middle" x="254" y="-273.5" font-family="Helvetica,sans-Serif" font-size="10.00" fill="#000000">SNN::getGroupName</text>
</a>
</g>
</g>
<!-- Node979&#45;&gt;Node981 -->
<g id="edge4" class="edge">
<title>Node979&#45;&gt;Node981</title>
<path fill="none" stroke="#191970" d="M151.0217,-243.5255C167.4759,-248.7144 192.6898,-256.6657 214.0494,-263.4015"/>
<polygon fill="#191970" stroke="#191970" points="213.2678,-266.8249 223.8575,-266.4945 215.3732,-260.1489 213.2678,-266.8249"/>
</g>
<!-- Node982 -->
<g id="node5" class="node">
<title>Node982</title>
<g id="a_node5"><a xlink:href="classSpikeMonitorCore.html#af6c333e6cefff92d0e354eca70625cdc" target="_top" xlink:title="returns the total number of recorded spikes in the group ">
<polygon fill="#ffffff" stroke="#000000" points="522,-209.5 522,-228.5 620,-228.5 620,-209.5 522,-209.5"/>
<text text-anchor="middle" x="571" y="-216.5" font-family="Helvetica,sans-Serif" font-size="10.00" fill="#000000">getPopNumSpikes</text>
</a>
</g>
</g>
<!-- Node979&#45;&gt;Node982 -->
<g id="edge5" class="edge">
<title>Node979&#45;&gt;Node982</title>
<path fill="none" stroke="#191970" d="M151.1924,-237.2316C211.5457,-234.6106 411.1498,-225.9421 511.8305,-221.5696"/>
<polygon fill="#191970" stroke="#191970" points="512.0052,-225.0655 521.8439,-221.1348 511.7015,-218.072 512.0052,-225.0655"/>
</g>
<!-- Node985 -->
<g id="node8" class="node">
<title>Node985</title>
<g id="a_node8"><a xlink:href="classSpikeMonitorCore.html#a9cf20c30ff0efdbc5e3c5194648a7fb3" target="_top" xlink:title="returns the total recorded time in ms ">
<polygon fill="#ffffff" stroke="#000000" points="512,-342.5 512,-361.5 630,-361.5 630,-342.5 512,-342.5"/>
<text text-anchor="middle" x="571" y="-349.5" font-family="Helvetica,sans-Serif" font-size="10.00" fill="#000000">getRecordingTotalTime</text>
</a>
</g>
</g>
<!-- Node979&#45;&gt;Node985 -->
<g id="edge10" class="edge">
<title>Node979&#45;&gt;Node985</title>
<path fill="none" stroke="#191970" d="M136.8424,-247.747C144.3281,-267.8768 164.5393,-313.7648 199,-333 249.1402,-360.9872 408.7383,-359.2875 501.7979,-355.621"/>
<polygon fill="#191970" stroke="#191970" points="502.1264,-359.1105 511.9738,-355.2018 501.8382,-352.1164 502.1264,-359.1105"/>
</g>
<!-- Node986 -->
<g id="node9" class="node">
<title>Node986</title>
<g id="a_node9"><a xlink:href="classSpikeMonitorCore.html#ae62d623e8edfc6b05309256c1d825bbd" target="_top" xlink:title="returns the recorded mean firing rate of the group ">
<polygon fill="#ffffff" stroke="#000000" points="352.5,-190.5 352.5,-209.5 468.5,-209.5 468.5,-190.5 352.5,-190.5"/>
<text text-anchor="middle" x="410.5" y="-197.5" font-family="Helvetica,sans-Serif" font-size="10.00" fill="#000000">getPopMeanFiringRate</text>
</a>
</g>
</g>
<!-- Node979&#45;&gt;Node986 -->
<g id="edge11" class="edge">
<title>Node979&#45;&gt;Node986</title>
<path fill="none" stroke="#191970" d="M151.2033,-233.7262C164.3328,-230.6763 182.7033,-226.6598 199,-224 246.6766,-216.2188 300.8103,-210.1264 342.3753,-206.0269"/>
<polygon fill="#191970" stroke="#191970" points="342.7752,-209.5047 352.3897,-205.0537 342.0981,-202.5375 342.7752,-209.5047"/>
</g>
<!-- Node987 -->
<g id="node10" class="node">
<title>Node987</title>
<g id="a_node10"><a xlink:href="classSpikeMonitorCore.html#ad0c4b32bb5cc0c7a8d95ed6023a2695f" target="_top" xlink:title="computes the standard deviation of firing rates in the group ">
<polygon fill="#ffffff" stroke="#000000" points="200.5,-114.5 200.5,-133.5 307.5,-133.5 307.5,-114.5 200.5,-114.5"/>
<text text-anchor="middle" x="254" y="-121.5" font-family="Helvetica,sans-Serif" font-size="10.00" fill="#000000">getPopStdFiringRate</text>
</a>
</g>
</g>
<!-- Node979&#45;&gt;Node987 -->
<g id="edge15" class="edge">
<title>Node979&#45;&gt;Node987</title>
<path fill="none" stroke="#191970" d="M143.7738,-228.2804C164.3164,-208.8459 210.6741,-164.9888 236.2409,-140.8011"/>
<polygon fill="#191970" stroke="#191970" points="238.8933,-143.1099 243.7522,-133.695 234.0826,-138.0249 238.8933,-143.1099"/>
</g>
<!-- Node989 -->
<g id="node12" class="node">
<title>Node989</title>
<g id="a_node12"><a xlink:href="classSpikeMonitorCore.html#aed09edf4583ac05d42fccc7e3556e3c5" target="_top" xlink:title="returns the recorded mean firing rate for a specific neuron ">
<polygon fill="#ffffff" stroke="#000000" points="345,-380.5 345,-399.5 476,-399.5 476,-380.5 345,-380.5"/>
<text text-anchor="middle" x="410.5" y="-387.5" font-family="Helvetica,sans-Serif" font-size="10.00" fill="#000000">getNeuronMeanFiringRate</text>
</a>
</g>
</g>
<!-- Node979&#45;&gt;Node989 -->
<g id="edge20" class="edge">
<title>Node979&#45;&gt;Node989</title>
<path fill="none" stroke="#191970" d="M135.2529,-247.7487C140.2324,-272.3164 156.9214,-336.8773 199,-366 238.1025,-393.0629 291.335,-398.9826 334.6116,-398.1771"/>
<polygon fill="#191970" stroke="#191970" points="334.9287,-401.669 344.8156,-397.8611 334.712,-394.6724 334.9287,-401.669"/>
</g>
<!-- Node982&#45;&gt;Node978 -->
<g id="edge6" class="edge">
<title>Node982&#45;&gt;Node978</title>
<path fill="none" stroke="#191970" d="M567.6313,-209.2015C558.1067,-183.2475 528.2277,-112.8773 476,-86 328.7786,-10.2373 262.3928,-57.7729 104,-106 87.3869,-111.0583 70.1229,-120.1351 56.8966,-128.0323"/>
<polygon fill="#191970" stroke="#191970" points="54.7143,-125.2664 48.0463,-133.4998 58.3933,-131.2216 54.7143,-125.2664"/>
</g>
<!-- Node983 -->
<g id="node6" class="node">
<title>Node983</title>
<g id="a_node6"><a xlink:href="classSpikeMonitorCore.html#a005a2f884f6260054483d4fa6ed6ddbb" target="_top" xlink:title="returns the number of recorded spikes of a specific neuron ">
<polygon fill="#ffffff" stroke="#000000" points="666,-285.5 666,-304.5 779,-304.5 779,-285.5 666,-285.5"/>
<text text-anchor="middle" x="722.5" y="-292.5" font-family="Helvetica,sans-Serif" font-size="10.00" fill="#000000">getNeuronNumSpikes</text>
</a>
</g>
</g>
<!-- Node982&#45;&gt;Node983 -->
<g id="edge7" class="edge">
<title>Node982&#45;&gt;Node983</title>
<path fill="none" stroke="#191970" d="M590.1876,-228.6255C616.4834,-241.8168 663.907,-265.6068 694.2612,-280.834"/>
<polygon fill="#191970" stroke="#191970" points="692.9604,-284.0971 703.4682,-285.4527 696.0992,-277.8403 692.9604,-284.0971"/>
</g>
<!-- Node983&#45;&gt;Node978 -->
<g id="edge8" class="edge">
<title>Node983&#45;&gt;Node978</title>
<path fill="none" stroke="#191970" d="M716.313,-304.5997C702.9655,-324.557 669.4608,-370.7623 630,-396 543.7375,-451.1704 512.8962,-466 410.5,-466 254,-466 254,-466 254,-466 106.4998,-466 50.8623,-233.0667 37.4369,-162.8182"/>
<polygon fill="#191970" stroke="#191970" points="40.8221,-161.873 35.5786,-152.6667 33.9365,-163.1336 40.8221,-161.873"/>
</g>
<!-- Node984 -->
<g id="node7" class="node">
<title>Node984</title>
<g id="a_node7"><a xlink:href="classSpikeMonitorCore.html#abe76071e1ac3632d55f2455b239b3d12" target="_top" xlink:title="returns recording mode ">
<polygon fill="#ffffff" stroke="#000000" points="815,-114.5 815,-133.5 869,-133.5 869,-114.5 815,-114.5"/>
<text text-anchor="middle" x="842" y="-121.5" font-family="Helvetica,sans-Serif" font-size="10.00" fill="#000000">getMode</text>
</a>
</g>
</g>
<!-- Node983&#45;&gt;Node984 -->
<g id="edge9" class="edge">
<title>Node983&#45;&gt;Node984</title>
<path fill="none" stroke="#191970" d="M729.2672,-285.3163C748.5751,-257.6874 804.1527,-178.1581 829.3325,-142.1268"/>
<polygon fill="#191970" stroke="#191970" points="832.4477,-143.7792 835.307,-133.5774 826.7099,-139.7694 832.4477,-143.7792"/>
</g>
<!-- Node986&#45;&gt;Node978 -->
<g id="edge12" class="edge">
<title>Node986&#45;&gt;Node978</title>
<path fill="none" stroke="#191970" d="M352.452,-191.2119C276.7774,-179.7551 146.0803,-159.9683 78.0427,-149.6678"/>
<polygon fill="#191970" stroke="#191970" points="78.4872,-146.1953 68.0759,-148.1589 77.4393,-153.1164 78.4872,-146.1953"/>
</g>
<!-- Node986&#45;&gt;Node982 -->
<g id="edge13" class="edge">
<title>Node986&#45;&gt;Node982</title>
<path fill="none" stroke="#191970" d="M468.8982,-206.9132C482.8904,-208.5696 497.842,-210.3395 511.8671,-211.9998"/>
<polygon fill="#191970" stroke="#191970" points="511.5468,-215.4863 521.8889,-213.1862 512.3698,-208.5348 511.5468,-215.4863"/>
</g>
<!-- Node986&#45;&gt;Node985 -->
<g id="edge14" class="edge">
<title>Node986&#45;&gt;Node985</title>
<path fill="none" stroke="#191970" d="M420.54,-209.5083C447.2244,-234.7795 520.1543,-303.8471 553.6995,-335.6157"/>
<polygon fill="#191970" stroke="#191970" points="551.2964,-338.1604 560.9638,-342.4953 556.1097,-333.0778 551.2964,-338.1604"/>
</g>
<!-- Node987&#45;&gt;Node978 -->
<g id="edge16" class="edge">
<title>Node987&#45;&gt;Node978</title>
<path fill="none" stroke="#191970" d="M200.1819,-128.6479C162.7695,-131.879 113.5047,-136.1337 78.3486,-139.1699"/>
<polygon fill="#191970" stroke="#191970" points="78.0367,-135.6837 68.375,-140.0313 78.6391,-142.6577 78.0367,-135.6837"/>
</g>
<!-- Node987&#45;&gt;Node986 -->
<g id="edge17" class="edge">
<title>Node987&#45;&gt;Node986</title>
<path fill="none" stroke="#191970" d="M276.8882,-133.6112C286.8213,-137.8791 298.5495,-143.0487 309,-148 334.6413,-160.1484 363.3813,-174.9904 383.7158,-185.7036"/>
<polygon fill="#191970" stroke="#191970" points="382.2229,-188.8734 392.6989,-190.4558 385.4962,-182.6859 382.2229,-188.8734"/>
</g>
<!-- Node988 -->
<g id="node11" class="node">
<title>Node988</title>
<g id="a_node11"><a xlink:href="classSpikeMonitorCore.html#a0fc20fcc5876030d796debd148ae7cee" target="_top" xlink:title="returns a list of firing rates for all neurons in the group (sorted by neuron ID ascending) ...">
<polygon fill="#ffffff" stroke="#000000" points="364.5,-95.5 364.5,-114.5 456.5,-114.5 456.5,-95.5 364.5,-95.5"/>
<text text-anchor="middle" x="410.5" y="-102.5" font-family="Helvetica,sans-Serif" font-size="10.00" fill="#000000">getAllFiringRates</text>
</a>
</g>
</g>
<!-- Node987&#45;&gt;Node988 -->
<g id="edge18" class="edge">
<title>Node987&#45;&gt;Node988</title>
<path fill="none" stroke="#191970" d="M307.8584,-117.4613C322.801,-115.6472 339.0621,-113.673 354.1433,-111.842"/>
<polygon fill="#191970" stroke="#191970" points="354.8596,-115.2808 364.3649,-110.6011 354.0159,-108.3319 354.8596,-115.2808"/>
</g>
<!-- Node988&#45;&gt;Node978 -->
<g id="edge19" class="edge">
<title>Node988&#45;&gt;Node978</title>
<path fill="none" stroke="#191970" d="M364.1205,-101.9985C321.1557,-99.9282 255.5499,-98.5723 199,-105 156.2519,-109.8589 108.4515,-121.5826 75.3485,-130.7336"/>
<polygon fill="#191970" stroke="#191970" points="74.2498,-127.4066 65.5688,-133.4805 76.1427,-134.1458 74.2498,-127.4066"/>
</g>
<!-- Node989&#45;&gt;Node978 -->
<g id="edge21" class="edge">
<title>Node989&#45;&gt;Node978</title>
<path fill="none" stroke="#191970" d="M379.6783,-399.5814C336.5162,-411.1191 256.87,-425.4187 199,-395 103.6796,-344.896 54.9461,-212.3411 39.5282,-162.402"/>
<polygon fill="#191970" stroke="#191970" points="42.8057,-161.1446 36.596,-152.5603 36.0972,-163.1434 42.8057,-161.1446"/>
</g>
<!-- Node989&#45;&gt;Node983 -->
<g id="edge22" class="edge">
<title>Node989&#45;&gt;Node983</title>
<path fill="none" stroke="#191970" d="M476.2591,-394.311C521.1544,-394.8895 581.1198,-390.925 630,-371 661.7119,-358.0733 690.9205,-330.3039 707.7118,-312.1526"/>
<polygon fill="#191970" stroke="#191970" points="710.4378,-314.3554 714.5174,-304.5775 705.2306,-309.6773 710.4378,-314.3554"/>
</g>
<!-- Node989&#45;&gt;Node985 -->
<g id="edge23" class="edge">
<title>Node989&#45;&gt;Node985</title>
<path fill="none" stroke="#191970" d="M451.0009,-380.411C472.1806,-375.3965 498.3022,-369.2119 520.7604,-363.8947"/>
<polygon fill="#191970" stroke="#191970" points="521.8657,-367.2299 530.7903,-361.5201 520.2529,-360.4182 521.8657,-367.2299"/>
</g>
<!-- Node990&#45;&gt;Node978 -->
<g id="edge25" class="edge">
<title>Node990&#45;&gt;Node978</title>
<path fill="none" stroke="#191970" d="M128.5002,-19.5917C122.283,-26.6095 111.5676,-34.5329 104,-43 80.7362,-69.0291 59.948,-103.568 47.1866,-124.7204"/>
<polygon fill="#191970" stroke="#191970" points="44.104,-123.0537 41.908,-133.4184 50.0882,-126.6854 44.104,-123.0537"/>
</g>
<!-- Node990&#45;&gt;Node984 -->
<g id="edge26" class="edge">
<title>Node990&#45;&gt;Node984</title>
<path fill="none" stroke="#191970" d="M163.0166,-10C213.651,-10 320.3307,-10 410.5,-10 410.5,-10 410.5,-10 571,-10 671.5183,-10 777.7561,-77.4622 821.4297,-108.5935"/>
<polygon fill="#191970" stroke="#191970" points="819.3927,-111.4397 829.5431,-114.4765 823.5019,-105.7727 819.3927,-111.4397"/>
</g>
</g>
</svg>
        <g id="navigator" transform="translate(0 0)" fill="#404254">
                <rect fill="#f2f5e9" fill-opacity="0.5" stroke="#606060" stroke-width=".5" x="0" y="0" width="60" height="60"/>
                <use id="zoomplus" xlink:href="#zoomPlus" x="17" y="9" onmousedown="handleZoom(evt,'in')"/>
                <use id="zoomminus" xlink:href="#zoomMin" x="42" y="9" onmousedown="handleZoom(evt,'out')"/>
                <use id="reset" xlink:href="#resetDef" x="30" y="36" onmousedown="handleReset()"/>
                <g id="arrowUp" xlink:href="#dirArrow" transform="translate(30 24)" onmousedown="handlePan(0,-1)">
                  <use xlink:href="#rim" fill="#404040">
                        <set attributeName="fill" to="#808080" begin="arrowUp.mouseover" end="arrowUp.mouseout"/>
                  </use>
                  <path fill="none" stroke="white" stroke-width="1.5" d="M0,-3.0v7 M-2.5,-0.5L0,-3.0L2.5,-0.5"/>
                </g>
                <g id="arrowRight" xlink:href="#dirArrow" transform="rotate(90) translate(36 -43)" onmousedown="handlePan(1,0)">
                  <use xlink:href="#rim" fill="#404040">
                        <set attributeName="fill" to="#808080" begin="arrowRight.mouseover" end="arrowRight.mouseout"/>
                  </use>
                  <path fill="none" stroke="white" stroke-width="1.5" d="M0,-3.0v7 M-2.5,-0.5L0,-3.0L2.5,-0.5"/>
                </g>
                <g id="arrowDown" xlink:href="#dirArrow" transform="rotate(180) translate(-30 -48)" onmousedown="handlePan(0,1)">
                  <use xlink:href="#rim" fill="#404040">
                        <set attributeName="fill" to="#808080" begin="arrowDown.mouseover" end="arrowDown.mouseout"/>
                  </use>
                  <path fill="none" stroke="white" stroke-width="1.5" d="M0,-3.0v7 M-2.5,-0.5L0,-3.0L2.5,-0.5"/>
                </g>
                <g id="arrowLeft" xlink:href="#dirArrow" transform="rotate(270) translate(-36 17)" onmousedown="handlePan(-1,0)">
                  <use xlink:href="#rim" fill="#404040">
                        <set attributeName="fill" to="#808080" begin="arrowLeft.mouseover" end="arrowLeft.mouseout"/>
                  </use>
                  <path fill="none" stroke="white" stroke-width="1.5" d="M0,-3.0v7 M-2.5,-0.5L0,-3.0L2.5,-0.5"/>
                </g>
        </g>
        <svg viewBox="0 0 15 15" width="100%" height="30px" preserveAspectRatio="xMaxYMin meet">
         <g id="arrow_out" transform="scale(0.3 0.3)">
          <a xlink:href="classSpikeMonitorCore_a3a3ffdb35b09328d22e5d72503ed1f55_cgraph_org.svg" target="_base">
           <rect id="button" ry="5" rx="5" y="6" x="6" height="38" width="38"
                fill="#f2f5e9" fill-opacity="0.5" stroke="#606060" stroke-width="1.0"/>
           <path id="arrow"
             d="M 11.500037,31.436501 C 11.940474,20.09759 22.043105,11.32322 32.158766,21.979434 L 37.068811,17.246167 C 37.068811,17.246167 37.088388,32 37.088388,32 L 22.160133,31.978069 C 22.160133,31.978069 26.997745,27.140456 26.997745,27.140456 C 18.528582,18.264221 13.291696,25.230495 11.500037,31.436501 z"
             style="fill:#404040;"/>
          </a>
         </g>
        </svg>
</svg>
