<?xml version="1.0" encoding="UTF-8" standalone="no"?>
<!DOCTYPE svg PUBLIC "-//W3C//DTD SVG 1.1//EN"
 "http://www.w3.org/Graphics/SVG/1.1/DTD/svg11.dtd">
<!-- Generated by graphviz version 2.40.1 (20161225.0304)
 -->
<!-- Title: clear Pages: 1 -->
<!--zoomable 395 -->
<svg id="main" version="1.1" xmlns="http://www.w3.org/2000/svg" xmlns:xlink="http://www.w3.org/1999/xlink" xml:space="preserve" onload="init(evt)">
<style type="text/css"><![CDATA[
.edge:hover path { stroke: red; }
.edge:hover polygon { stroke: red; fill: red; }
]]></style>
<script type="text/javascript"><![CDATA[
var edges = document.getElementsByTagName('g');
if (edges && edges.length) {
  for (var i=0;i<edges.length;i++) {
    if (edges[i].id.substr(0,4)=='edge') {
      edges[i].setAttribute('class','edge');
    }
  }
}
]]></script>
        <defs>
                <circle id="rim" cx="0" cy="0" r="7"/>
                <circle id="rim2" cx="0" cy="0" r="3.5"/>
                <g id="zoomPlus">
                        <use xlink:href="#rim" fill="#404040">
                                <set attributeName="fill" to="#808080" begin="zoomplus.mouseover" end="zoomplus.mouseout"/>
                        </use>
                        <path d="M-4,0h8M0,-4v8" fill="none" stroke="white" stroke-width="1.5" pointer-events="none"/>
                </g>
                <g id="zoomMin">
                        <use xlink:href="#rim" fill="#404040">
                                <set attributeName="fill" to="#808080" begin="zoomminus.mouseover" end="zoomminus.mouseout"/>
                        </use>
                        <path d="M-4,0h8" fill="none" stroke="white" stroke-width="1.5" pointer-events="none"/>
                </g>
                <g id="dirArrow">
                        <path fill="none" stroke="white" stroke-width="1.5" d="M0,-3.0v7 M-2.5,-0.5L0,-3.0L2.5,-0.5"/>
                </g>
               <g id="resetDef">
                       <use xlink:href="#rim2" fill="#404040">
                               <set attributeName="fill" to="#808080" begin="reset.mouseover" end="reset.mouseout"/>
                       </use>
               </g>
        </defs>

<script type="text/javascript">
var viewWidth = 925;
var viewHeight = 395;
var sectionId = 'dynsection-1';
</script>
<script xlink:href="svgpan.js"/>
<svg id="graph" class="graph">
<g id="viewport">
<title>clear</title>
<polygon fill="#ffffff" stroke="transparent" points="-4,4 -4,-390.6541 921,-390.6541 921,4 -4,4"/>
<!-- Node42 -->
<g id="node1" class="node">
<title>Node42</title>
<polygon fill="#bfbfbf" stroke="#000000" points="0,-210.5 0,-229.5 38,-229.5 38,-210.5 0,-210.5"/>
<text text-anchor="middle" x="19" y="-217.5" font-family="Helvetica,sans-Serif" font-size="10.00" fill="#000000">clear</text>
</g>
<!-- Node43 -->
<g id="node2" class="node">
<title>Node43</title>
<g id="a_node2"><a xlink:href="classNeuronMonitorCore.html#a3a3ffdb35b09328d22e5d72503ed1f55" target="_top" xlink:title="returns recording status ">
<polygon fill="#ffffff" stroke="#000000" points="74,-210.5 74,-229.5 142,-229.5 142,-210.5 74,-210.5"/>
<text text-anchor="middle" x="108" y="-217.5" font-family="Helvetica,sans-Serif" font-size="10.00" fill="#000000">isRecording</text>
</a>
</g>
</g>
<!-- Node42&#45;&gt;Node43 -->
<g id="edge1" class="edge">
<title>Node42&#45;&gt;Node43</title>
<path fill="none" stroke="#191970" d="M38.3117,-214.3216C45.7343,-213.6106 54.551,-213.2534 63.3743,-213.25"/>
<polygon fill="#191970" stroke="#191970" points="63.5991,-216.7538 73.652,-213.4086 63.7072,-209.7546 63.5991,-216.7538"/>
</g>
<!-- Node43&#45;&gt;Node42 -->
<g id="edge39" class="edge">
<title>Node43&#45;&gt;Node42</title>
<path fill="none" stroke="#191970" d="M73.652,-226.5914C65.3169,-226.856 56.4799,-226.7895 48.3972,-226.3919"/>
<polygon fill="#191970" stroke="#191970" points="48.5338,-222.8929 38.3117,-225.6784 48.0397,-229.8754 48.5338,-222.8929"/>
</g>
<!-- Node44 -->
<g id="node3" class="node">
<title>Node44</title>
<g id="a_node3"><a xlink:href="classNeuronMonitorCore.html#a743a4ad47ef60bc593cc9882bd4ffb57" target="_top" xlink:title="inserts a (time,neurId) tupel into the D Neuron State vector ">
<polygon fill="#ffffff" stroke="#000000" points="484,-266.5 484,-285.5 576,-285.5 576,-266.5 484,-266.5"/>
<text text-anchor="middle" x="530" y="-273.5" font-family="Helvetica,sans-Serif" font-size="10.00" fill="#000000">pushNeuronState</text>
</a>
</g>
</g>
<!-- Node43&#45;&gt;Node44 -->
<g id="edge2" class="edge">
<title>Node43&#45;&gt;Node44</title>
<path fill="none" stroke="#191970" d="M142.1766,-220.6406C216.4477,-226.9255 392.8651,-250.1149 479.8064,-264.7801"/>
<polygon fill="#191970" stroke="#191970" points="479.2525,-268.2362 489.7008,-266.4804 480.4381,-261.3373 479.2525,-268.2362"/>
</g>
<!-- Node45 -->
<g id="node4" class="node">
<title>Node45</title>
<g id="a_node4"><a xlink:href="classNeuronMonitorCore.html#ab91616c118b701c2afd9136393d1f19b" target="_top" xlink:title="starts recording Neuron state ">
<polygon fill="#ffffff" stroke="#000000" points="181,-134.5 181,-153.5 261,-153.5 261,-134.5 181,-134.5"/>
<text text-anchor="middle" x="221" y="-141.5" font-family="Helvetica,sans-Serif" font-size="10.00" fill="#000000">startRecording</text>
</a>
</g>
</g>
<!-- Node43&#45;&gt;Node45 -->
<g id="edge4" class="edge">
<title>Node43&#45;&gt;Node45</title>
<path fill="none" stroke="#191970" d="M113.0768,-210.2089C123.0563,-196.8858 146.3444,-175.0405 172.4295,-157.6942"/>
<polygon fill="#191970" stroke="#191970" points="174.4356,-160.566 180.9836,-152.2368 170.6707,-154.6646 174.4356,-160.566"/>
</g>
<!-- Node64 -->
<g id="node23" class="node">
<title>Node64</title>
<g id="a_node23"><a xlink:href="classNeuronMonitorCore.html#a25e0e98dd4519eaaa6b258f0dcb91ac7" target="_top" xlink:title="stops recording Neuron state ">
<polygon fill="#ffffff" stroke="#000000" points="181,-172.5 181,-191.5 261,-191.5 261,-172.5 181,-172.5"/>
<text text-anchor="middle" x="221" y="-179.5" font-family="Helvetica,sans-Serif" font-size="10.00" fill="#000000">stopRecording</text>
</a>
</g>
</g>
<!-- Node43&#45;&gt;Node64 -->
<g id="edge34" class="edge">
<title>Node43&#45;&gt;Node64</title>
<path fill="none" stroke="#191970" d="M122.7728,-210.3009C135.19,-204.5819 153.6827,-197.7047 171.2842,-192.012"/>
<polygon fill="#191970" stroke="#191970" points="172.4335,-195.3197 180.9268,-188.9862 170.3376,-188.6408 172.4335,-195.3197"/>
</g>
<!-- Node65 -->
<g id="node24" class="node">
<title>Node65</title>
<g id="a_node24"><a xlink:href="classNeuronMonitorCore.html#a5113f6b476e3e3544ecbffefa313234d" target="_top" xlink:title="sets pointer to Neuron file ">
<polygon fill="#ffffff" stroke="#000000" points="178,-304.5 178,-323.5 264,-323.5 264,-304.5 178,-304.5"/>
<text text-anchor="middle" x="221" y="-311.5" font-family="Helvetica,sans-Serif" font-size="10.00" fill="#000000">setNeuronFileId</text>
</a>
</g>
</g>
<!-- Node43&#45;&gt;Node65 -->
<g id="edge40" class="edge">
<title>Node43&#45;&gt;Node65</title>
<path fill="none" stroke="#191970" d="M122.1663,-229.5868C135.5697,-242.6638 156.7484,-264.937 178,-281 186.4241,-287.3674 196.7292,-293.1774 205.1392,-298.4965"/>
<polygon fill="#191970" stroke="#191970" points="203.3965,-301.5448 213.6277,-304.2969 207.3458,-295.7652 203.3965,-301.5448"/>
</g>
<!-- Node44&#45;&gt;Node43 -->
<g id="edge3" class="edge">
<title>Node44&#45;&gt;Node43</title>
<path fill="none" stroke="#191970" d="M483.8639,-274.2858C402.1405,-266.585 232.9879,-244.1165 152.4699,-230.2444"/>
<polygon fill="#191970" stroke="#191970" points="152.6324,-226.7191 142.1766,-228.43 151.4171,-233.6128 152.6324,-226.7191"/>
</g>
<!-- Node45&#45;&gt;Node42 -->
<g id="edge6" class="edge">
<title>Node45&#45;&gt;Node42</title>
<path fill="none" stroke="#191970" d="M195.6307,-153.5449C157.8731,-167.7507 87.1089,-194.3749 47.5754,-209.2489"/>
<polygon fill="#191970" stroke="#191970" points="46.1306,-206.0528 38.0037,-212.8501 48.5957,-212.6045 46.1306,-206.0528"/>
</g>
<!-- Node45&#45;&gt;Node43 -->
<g id="edge5" class="edge">
<title>Node45&#45;&gt;Node43</title>
<path fill="none" stroke="#191970" d="M212.7531,-153.5222C203.8503,-159.1761 189.4129,-165.007 178,-172 162.6908,-181.3804 147.0651,-193.7803 134.4721,-203.812"/>
<polygon fill="#191970" stroke="#191970" points="131.9376,-201.355 126.2795,-210.3124 136.2886,-206.8385 131.9376,-201.355"/>
</g>
<!-- Node46 -->
<g id="node5" class="node">
<title>Node46</title>
<g id="a_node5"><a xlink:href="classSNN.html#a8dd319bdd9a54e38f9254cbec099c30a" target="_top" xlink:title="copy required neuron state values from ??? buffer to ??? buffer ">
<polygon fill="#ffffff" stroke="#000000" points="300,-190.5 300,-209.5 437,-209.5 437,-190.5 300,-190.5"/>
<text text-anchor="middle" x="368.5" y="-197.5" font-family="Helvetica,sans-Serif" font-size="10.00" fill="#000000">SNN::updateNeuronMonitor</text>
</a>
</g>
</g>
<!-- Node45&#45;&gt;Node46 -->
<g id="edge7" class="edge">
<title>Node45&#45;&gt;Node46</title>
<path fill="none" stroke="#191970" d="M246.3562,-153.6267C270.5646,-162.8178 307.2285,-176.7376 334.071,-186.9287"/>
<polygon fill="#191970" stroke="#191970" points="332.8835,-190.2215 343.4747,-190.4989 335.3681,-183.6773 332.8835,-190.2215"/>
</g>
<!-- Node49 -->
<g id="node8" class="node">
<title>Node49</title>
<g id="a_node8"><a xlink:href="classSNN.html#a424b0cf29d7dba87e4ebf244399acad0" target="_top" xlink:title="SNN::getSimTimeMs">
<polygon fill="#ffffff" stroke="#000000" points="475,-76.5 475,-95.5 585,-95.5 585,-76.5 475,-76.5"/>
<text text-anchor="middle" x="530" y="-83.5" font-family="Helvetica,sans-Serif" font-size="10.00" fill="#000000">SNN::getSimTimeMs</text>
</a>
</g>
</g>
<!-- Node45&#45;&gt;Node49 -->
<g id="edge33" class="edge">
<title>Node45&#45;&gt;Node49</title>
<path fill="none" stroke="#191970" d="M261.0796,-136.477C313.9819,-126.5471 407.6033,-108.9741 469.234,-97.4059"/>
<polygon fill="#191970" stroke="#191970" points="470.0343,-100.8169 479.217,-95.5321 468.7429,-93.9371 470.0343,-100.8169"/>
</g>
<!-- Node55 -->
<g id="node14" class="node">
<title>Node55</title>
<g id="a_node14"><a xlink:href="classSNN.html#a85facd004ae52ee52e72451b5d874fae" target="_top" xlink:title="SNN::getSimTimeSec">
<polygon fill="#ffffff" stroke="#000000" points="473,-38.5 473,-57.5 587,-57.5 587,-38.5 473,-38.5"/>
<text text-anchor="middle" x="530" y="-45.5" font-family="Helvetica,sans-Serif" font-size="10.00" fill="#000000">SNN::getSimTimeSec</text>
</a>
</g>
</g>
<!-- Node45&#45;&gt;Node55 -->
<g id="edge32" class="edge">
<title>Node45&#45;&gt;Node55</title>
<path fill="none" stroke="#191970" d="M235.5646,-134.4931C250.994,-124.8067 276.3468,-109.9699 300,-101 353.186,-80.8305 416.319,-66.9511 462.9734,-58.4706"/>
<polygon fill="#191970" stroke="#191970" points="463.7353,-61.8901 472.9666,-56.6907 462.5078,-54.9985 463.7353,-61.8901"/>
</g>
<!-- Node46&#45;&gt;Node43 -->
<g id="edge30" class="edge">
<title>Node46&#45;&gt;Node43</title>
<path fill="none" stroke="#191970" d="M299.9955,-205.2595C253.225,-208.8503 192.635,-213.5021 152.1492,-216.6104"/>
<polygon fill="#191970" stroke="#191970" points="151.7585,-213.13 142.0558,-217.3853 152.2944,-220.1095 151.7585,-213.13"/>
</g>
<!-- Node46&#45;&gt;Node44 -->
<g id="edge31" class="edge">
<title>Node46&#45;&gt;Node44</title>
<path fill="none" stroke="#191970" d="M383.9939,-209.5901C404.0206,-221.7167 440.2192,-242.731 473,-257 477.8375,-259.1057 482.9884,-261.1209 488.1401,-262.9994"/>
<polygon fill="#191970" stroke="#191970" points="487.371,-266.438 497.9658,-266.4307 489.6789,-259.8294 487.371,-266.438"/>
</g>
<!-- Node47 -->
<g id="node6" class="node">
<title>Node47</title>
<g id="a_node6"><a xlink:href="classNeuronMonitorCore.html#a102f8a26e80c556ee9a2ac503cd38ec9" target="_top" xlink:title="returns timestamp of last NeuronMonitor update ">
<polygon fill="#ffffff" stroke="#000000" points="487,-114.5 487,-133.5 573,-133.5 573,-114.5 487,-114.5"/>
<text text-anchor="middle" x="530" y="-121.5" font-family="Helvetica,sans-Serif" font-size="10.00" fill="#000000">getLastUpdated</text>
</a>
</g>
</g>
<!-- Node46&#45;&gt;Node47 -->
<g id="edge8" class="edge">
<title>Node46&#45;&gt;Node47</title>
<path fill="none" stroke="#191970" d="M404.5719,-190.403C415.4091,-186.7297 427.0534,-181.9552 437,-176 455.6225,-164.8504 454.293,-154.0073 473,-143 476.5905,-140.8873 480.448,-138.9714 484.4017,-137.2423"/>
<polygon fill="#191970" stroke="#191970" points="485.719,-140.4852 493.7216,-133.542 483.1358,-133.9792 485.719,-140.4852"/>
</g>
<!-- Node48 -->
<g id="node7" class="node">
<title>Node48</title>
<g id="a_node7"><a xlink:href="classSNN.html#a5fd2b156623d78138bcb44167eabab78" target="_top" xlink:title="SNN::getSimTime">
<polygon fill="#ffffff" stroke="#000000" points="481.5,-228.5 481.5,-247.5 578.5,-247.5 578.5,-228.5 481.5,-228.5"/>
<text text-anchor="middle" x="530" y="-235.5" font-family="Helvetica,sans-Serif" font-size="10.00" fill="#000000">SNN::getSimTime</text>
</a>
</g>
</g>
<!-- Node46&#45;&gt;Node48 -->
<g id="edge9" class="edge">
<title>Node46&#45;&gt;Node48</title>
<path fill="none" stroke="#191970" d="M409.2533,-209.589C430.6609,-214.6261 457.0862,-220.8438 479.7525,-226.1771"/>
<polygon fill="#191970" stroke="#191970" points="479.0039,-229.5964 489.5398,-228.4799 480.6073,-222.7825 479.0039,-229.5964"/>
</g>
<!-- Node46&#45;&gt;Node49 -->
<g id="edge10" class="edge">
<title>Node46&#45;&gt;Node49</title>
<path fill="none" stroke="#191970" d="M411.7874,-190.4478C420.8313,-186.9881 429.7954,-182.3096 437,-176 463.6161,-152.6904 446.2069,-128.1059 473,-105 474.9699,-103.3012 477.0969,-101.753 479.3317,-100.3423"/>
<polygon fill="#191970" stroke="#191970" points="481.179,-103.3247 488.3815,-95.5545 477.9055,-97.1373 481.179,-103.3247"/>
</g>
<!-- Node46&#45;&gt;Node55 -->
<g id="edge19" class="edge">
<title>Node46&#45;&gt;Node55</title>
<path fill="none" stroke="#191970" d="M381.6858,-190.4488C396.545,-179.1867 420.7415,-159.2889 437,-138 458.4739,-109.882 446.2069,-90.1059 473,-67 474.9699,-65.3012 477.0969,-63.753 479.3317,-62.3423"/>
<polygon fill="#191970" stroke="#191970" points="481.179,-65.3247 488.3815,-57.5545 477.9055,-59.1373 481.179,-65.3247"/>
</g>
<!-- Node56 -->
<g id="node15" class="node">
<title>Node56</title>
<g id="a_node15"><a xlink:href="classNeuronMonitorCore.html#a38f87732cc929797d9648e68cd509f1b" target="_top" xlink:title="sets timestamp of last NeuronMonitor update ">
<polygon fill="#ffffff" stroke="#000000" points="487,-190.5 487,-209.5 573,-209.5 573,-190.5 487,-190.5"/>
<text text-anchor="middle" x="530" y="-197.5" font-family="Helvetica,sans-Serif" font-size="10.00" fill="#000000">setLastUpdated</text>
</a>
</g>
</g>
<!-- Node46&#45;&gt;Node56 -->
<g id="edge20" class="edge">
<title>Node46&#45;&gt;Node56</title>
<path fill="none" stroke="#191970" d="M437.459,-200C450.5868,-200 464.1396,-200 476.6889,-200"/>
<polygon fill="#191970" stroke="#191970" points="476.963,-203.5001 486.9629,-200 476.9629,-196.5001 476.963,-203.5001"/>
</g>
<!-- Node63 -->
<g id="node22" class="node">
<title>Node63</title>
<g id="a_node22"><a xlink:href="classNeuronMonitorCore.html#a84e392c48ef98bece7aa0dc7af992360" target="_top" xlink:title="returns a pointer to the neuron state file ">
<polygon fill="#ffffff" stroke="#000000" points="487,-152.5 487,-171.5 573,-171.5 573,-152.5 487,-152.5"/>
<text text-anchor="middle" x="530" y="-159.5" font-family="Helvetica,sans-Serif" font-size="10.00" fill="#000000">getNeuronFileId</text>
</a>
</g>
</g>
<!-- Node46&#45;&gt;Node63 -->
<g id="edge29" class="edge">
<title>Node46&#45;&gt;Node63</title>
<path fill="none" stroke="#191970" d="M409.2533,-190.411C430.6609,-185.3739 457.0862,-179.1562 479.7525,-173.8229"/>
<polygon fill="#191970" stroke="#191970" points="480.6073,-177.2175 489.5398,-171.5201 479.0039,-170.4036 480.6073,-177.2175"/>
</g>
<!-- Node50 -->
<g id="node9" class="node">
<title>Node50</title>
<g id="a_node9"><a xlink:href="classSNN.html#a866a9c6e2b2630816fc66adda1381655" target="_top" xlink:title="Returns pointer to existing SpikeMonitor object, NULL else. ">
<polygon fill="#ffffff" stroke="#000000" points="637,-38.5 637,-57.5 752,-57.5 752,-38.5 637,-38.5"/>
<text text-anchor="middle" x="694.5" y="-45.5" font-family="Helvetica,sans-Serif" font-size="10.00" fill="#000000">SNN::getSpikeMonitor</text>
</a>
</g>
</g>
<!-- Node49&#45;&gt;Node50 -->
<g id="edge11" class="edge">
<title>Node49&#45;&gt;Node50</title>
<path fill="none" stroke="#191970" d="M571.5103,-76.411C593.3156,-71.3739 620.2318,-65.1562 643.3191,-59.8229"/>
<polygon fill="#191970" stroke="#191970" points="644.3326,-63.1811 653.2882,-57.5201 642.757,-56.3607 644.3326,-63.1811"/>
</g>
<!-- Node52 -->
<g id="node11" class="node">
<title>Node52</title>
<g id="a_node11"><a xlink:href="classSNN.html#ad25000cd1457c9b9869122534ada6fdd" target="_top" xlink:title="SNN::getSpikeMonitorCore">
<polygon fill="#ffffff" stroke="#000000" points="626.5,-.5 626.5,-19.5 762.5,-19.5 762.5,-.5 626.5,-.5"/>
<text text-anchor="middle" x="694.5" y="-7.5" font-family="Helvetica,sans-Serif" font-size="10.00" fill="#000000">SNN::getSpikeMonitorCore</text>
</a>
</g>
</g>
<!-- Node49&#45;&gt;Node52 -->
<g id="edge13" class="edge">
<title>Node49&#45;&gt;Node52</title>
<path fill="none" stroke="#191970" d="M567.3915,-76.4743C574.1909,-73.9369 581.0171,-70.8103 587,-67 606.6229,-54.5029 602.9991,-40.8827 623,-29 626.6646,-26.8228 630.5808,-24.8908 634.6216,-23.177"/>
<polygon fill="#191970" stroke="#191970" points="636.0932,-26.3628 644.2168,-19.5614 633.6249,-19.8124 636.0932,-26.3628"/>
</g>
<!-- Node53 -->
<g id="node12" class="node">
<title>Node53</title>
<g id="a_node12"><a xlink:href="classSNN.html#a0eb87addfa5eebdfee4bd6b927b8945f" target="_top" xlink:title="Returns pointer to existing NeuronMonitor object, NULL else. ">
<polygon fill="#ffffff" stroke="#000000" points="633.5,-114.5 633.5,-133.5 755.5,-133.5 755.5,-114.5 633.5,-114.5"/>
<text text-anchor="middle" x="694.5" y="-121.5" font-family="Helvetica,sans-Serif" font-size="10.00" fill="#000000">SNN::getNeuronMonitor</text>
</a>
</g>
</g>
<!-- Node49&#45;&gt;Node53 -->
<g id="edge15" class="edge">
<title>Node49&#45;&gt;Node53</title>
<path fill="none" stroke="#191970" d="M571.5103,-95.589C593.3156,-100.6261 620.2318,-106.8438 643.3191,-112.1771"/>
<polygon fill="#191970" stroke="#191970" points="642.757,-115.6393 653.2882,-114.4799 644.3326,-108.8189 642.757,-115.6393"/>
</g>
<!-- Node54 -->
<g id="node13" class="node">
<title>Node54</title>
<g id="a_node13"><a xlink:href="classSNN.html#a9aa73fa9478383c4af1eed8387d82db9" target="_top" xlink:title="SNN::getNeuronMonitorCore">
<polygon fill="#ffffff" stroke="#000000" points="623,-76.5 623,-95.5 766,-95.5 766,-76.5 623,-76.5"/>
<text text-anchor="middle" x="694.5" y="-83.5" font-family="Helvetica,sans-Serif" font-size="10.00" fill="#000000">SNN::getNeuronMonitorCore</text>
</a>
</g>
</g>
<!-- Node49&#45;&gt;Node54 -->
<g id="edge17" class="edge">
<title>Node49&#45;&gt;Node54</title>
<path fill="none" stroke="#191970" d="M585.2337,-86C594.076,-86 603.387,-86 612.6904,-86"/>
<polygon fill="#191970" stroke="#191970" points="612.7601,-89.5001 622.7601,-86 612.7601,-82.5001 612.7601,-89.5001"/>
</g>
<!-- Node51 -->
<g id="node10" class="node">
<title>Node51</title>
<g id="a_node10"><a xlink:href="classSNN.html#a292bdee57fec7c77ec4c15ea3f508d60" target="_top" xlink:title="SNN::getNumGroups">
<polygon fill="#ffffff" stroke="#000000" points="804.5,-57.5 804.5,-76.5 914.5,-76.5 914.5,-57.5 804.5,-57.5"/>
<text text-anchor="middle" x="859.5" y="-64.5" font-family="Helvetica,sans-Serif" font-size="10.00" fill="#000000">SNN::getNumGroups</text>
</a>
</g>
</g>
<!-- Node50&#45;&gt;Node51 -->
<g id="edge12" class="edge">
<title>Node50&#45;&gt;Node51</title>
<path fill="none" stroke="#191970" d="M752.209,-54.6453C765.8192,-56.2125 780.4217,-57.894 794.3353,-59.4962"/>
<polygon fill="#191970" stroke="#191970" points="793.986,-62.979 804.3208,-60.646 794.7869,-56.025 793.986,-62.979"/>
</g>
<!-- Node52&#45;&gt;Node51 -->
<g id="edge14" class="edge">
<title>Node52&#45;&gt;Node51</title>
<path fill="none" stroke="#191970" d="M734.1016,-19.5695C744.5534,-22.3543 755.7686,-25.5767 766,-29 787.3108,-36.1303 810.7356,-45.6535 828.8077,-53.3825"/>
<polygon fill="#191970" stroke="#191970" points="827.6818,-56.7089 838.2496,-57.4652 830.4601,-50.2838 827.6818,-56.7089"/>
</g>
<!-- Node53&#45;&gt;Node51 -->
<g id="edge16" class="edge">
<title>Node53&#45;&gt;Node51</title>
<path fill="none" stroke="#191970" d="M734.1016,-114.4305C744.5534,-111.6457 755.7686,-108.4233 766,-105 787.3108,-97.8697 810.7356,-88.3465 828.8077,-80.6175"/>
<polygon fill="#191970" stroke="#191970" points="830.4601,-83.7162 838.2496,-76.5348 827.6818,-77.2911 830.4601,-83.7162"/>
</g>
<!-- Node54&#45;&gt;Node51 -->
<g id="edge18" class="edge">
<title>Node54&#45;&gt;Node51</title>
<path fill="none" stroke="#191970" d="M766.3914,-77.7216C775.6037,-76.6608 784.9953,-75.5793 794.0967,-74.5313"/>
<polygon fill="#191970" stroke="#191970" points="794.69,-77.9862 804.224,-73.3651 793.8892,-71.0321 794.69,-77.9862"/>
</g>
<!-- Node57 -->
<g id="node16" class="node">
<title>Node57</title>
<g id="a_node16"><a xlink:href="classNeuronMonitorCore.html#aaeb6a64ac5d9fd3b7a979f0f12ec87dc" target="_top" xlink:title="returns true if state buffers are close to maxAllowedBufferSize ">
<polygon fill="#ffffff" stroke="#000000" points="662,-152.5 662,-171.5 727,-171.5 727,-152.5 662,-152.5"/>
<text text-anchor="middle" x="694.5" y="-159.5" font-family="Helvetica,sans-Serif" font-size="10.00" fill="#000000">isBufferBig</text>
</a>
</g>
</g>
<!-- Node56&#45;&gt;Node57 -->
<g id="edge21" class="edge">
<title>Node56&#45;&gt;Node57</title>
<path fill="none" stroke="#191970" d="M571.5103,-190.411C596.1045,-184.7297 627.2003,-177.5464 651.9709,-171.8243"/>
<polygon fill="#191970" stroke="#191970" points="652.8601,-175.2112 661.8157,-169.5502 651.2845,-168.3908 652.8601,-175.2112"/>
</g>
<!-- Node58 -->
<g id="node17" class="node">
<title>Node58</title>
<g id="a_node17"><a xlink:href="classNeuronMonitorCore.html#a30f19d45f562061cc82c04e7289ba956" target="_top" xlink:title="returns the approximate size of the state vectors in bytes ">
<polygon fill="#ffffff" stroke="#000000" points="821.5,-171.5 821.5,-190.5 897.5,-190.5 897.5,-171.5 821.5,-171.5"/>
<text text-anchor="middle" x="859.5" y="-178.5" font-family="Helvetica,sans-Serif" font-size="10.00" fill="#000000">getBufferSize</text>
</a>
</g>
</g>
<!-- Node56&#45;&gt;Node58 -->
<g id="edge23" class="edge">
<title>Node56&#45;&gt;Node58</title>
<path fill="none" stroke="#191970" d="M573.0764,-197.5161C634.4645,-193.9762 746.7758,-187.5 811.0085,-183.7962"/>
<polygon fill="#191970" stroke="#191970" points="811.49,-187.2743 821.2719,-183.2044 811.087,-180.2859 811.49,-187.2743"/>
</g>
<!-- Node59 -->
<g id="node18" class="node">
<title>Node59</title>
<g id="a_node18"><a xlink:href="classNeuronMonitorCore.html#a3a0e4e77a2b83f5dd0e86aafcf227595" target="_top" xlink:title="returns the total accumulated time ">
<polygon fill="#ffffff" stroke="#000000" points="653,-228.5 653,-247.5 736,-247.5 736,-228.5 653,-228.5"/>
<text text-anchor="middle" x="694.5" y="-235.5" font-family="Helvetica,sans-Serif" font-size="10.00" fill="#000000">getAccumTime</text>
</a>
</g>
</g>
<!-- Node56&#45;&gt;Node59 -->
<g id="edge24" class="edge">
<title>Node56&#45;&gt;Node59</title>
<path fill="none" stroke="#191970" d="M571.5103,-209.589C593.3156,-214.6261 620.2318,-220.8438 643.3191,-226.1771"/>
<polygon fill="#191970" stroke="#191970" points="642.757,-229.6393 653.2882,-228.4799 644.3326,-222.8189 642.757,-229.6393"/>
</g>
<!-- Node60 -->
<g id="node19" class="node">
<title>Node60</title>
<g id="a_node19"><a xlink:href="classNeuronMonitorCore.html#a4d3c2252230fe74bf03bcc3045ff8972" target="_top" xlink:title="writeNeuronFileHeader">
<polygon fill="#ffffff" stroke="#000000" points="636.5,-276.5 636.5,-295.5 752.5,-295.5 752.5,-276.5 636.5,-276.5"/>
<text text-anchor="middle" x="694.5" y="-283.5" font-family="Helvetica,sans-Serif" font-size="10.00" fill="#000000">writeNeuronFileHeader</text>
</a>
</g>
</g>
<!-- Node56&#45;&gt;Node60 -->
<g id="edge25" class="edge">
<title>Node56&#45;&gt;Node60</title>
<path fill="none" stroke="#191970" d="M567.3915,-209.5257C574.1909,-212.0631 581.0171,-215.1897 587,-219 606.6229,-231.4971 603.7842,-243.8856 623,-257 632.2334,-263.3016 643.0451,-268.5765 653.4248,-272.8244"/>
<polygon fill="#191970" stroke="#191970" points="652.1886,-276.0989 662.778,-276.4368 654.7106,-269.569 652.1886,-276.0989"/>
</g>
<!-- Node62 -->
<g id="node21" class="node">
<title>Node62</title>
<g id="a_node21"><a xlink:href="classNeuronMonitorCore.html#aec9349ebca384aed5e233754559075e0" target="_top" xlink:title="prints neuron states in human&#45;readable format ">
<polygon fill="#ffffff" stroke="#000000" points="677,-333.5 677,-352.5 712,-352.5 712,-333.5 677,-333.5"/>
<text text-anchor="middle" x="694.5" y="-340.5" font-family="Helvetica,sans-Serif" font-size="10.00" fill="#000000">print</text>
</a>
</g>
</g>
<!-- Node56&#45;&gt;Node62 -->
<g id="edge27" class="edge">
<title>Node56&#45;&gt;Node62</title>
<path fill="none" stroke="#191970" d="M572.46,-209.5286C577.7652,-211.9949 582.7946,-215.0975 587,-219 617.3732,-247.1853 595.0796,-274.3832 623,-305 634.929,-318.0811 652.4248,-327.4882 667.1234,-333.6703"/>
<polygon fill="#191970" stroke="#191970" points="666.1619,-337.0526 676.7497,-337.4406 668.7148,-330.5347 666.1619,-337.0526"/>
</g>
<!-- Node57&#45;&gt;Node58 -->
<g id="edge22" class="edge">
<title>Node57&#45;&gt;Node58</title>
<path fill="none" stroke="#191970" d="M727.0987,-165.7538C751.1663,-168.5252 784.3097,-172.3417 811.4147,-175.4629"/>
<polygon fill="#191970" stroke="#191970" points="811.141,-178.9544 821.4757,-176.6214 811.9418,-172.0004 811.141,-178.9544"/>
</g>
<!-- Node61 -->
<g id="node20" class="node">
<title>Node61</title>
<g id="a_node20"><a xlink:href="classSNN.html#ac13b30c40669d3cb8264bd6e211b449d" target="_top" xlink:title="SNN::getGroupGrid3D">
<polygon fill="#ffffff" stroke="#000000" points="802,-276.5 802,-295.5 917,-295.5 917,-276.5 802,-276.5"/>
<text text-anchor="middle" x="859.5" y="-283.5" font-family="Helvetica,sans-Serif" font-size="10.00" fill="#000000">SNN::getGroupGrid3D</text>
</a>
</g>
</g>
<!-- Node60&#45;&gt;Node61 -->
<g id="edge26" class="edge">
<title>Node60&#45;&gt;Node61</title>
<path fill="none" stroke="#191970" d="M752.6728,-286C765.2651,-286 778.6878,-286 791.6159,-286"/>
<polygon fill="#191970" stroke="#191970" points="791.8526,-289.5001 801.8526,-286 791.8525,-282.5001 791.8526,-289.5001"/>
</g>
<!-- Node62&#45;&gt;Node43 -->
<g id="edge28" class="edge">
<title>Node62&#45;&gt;Node43</title>
<path fill="none" stroke="#191970" d="M676.9021,-348.256C607.6683,-367.8516 349.4486,-430.6582 178,-333 142.223,-312.6212 122.3139,-265.7604 113.5327,-239.2293"/>
<polygon fill="#191970" stroke="#191970" points="116.833,-238.0551 110.5244,-229.5433 110.148,-240.1314 116.833,-238.0551"/>
</g>
<!-- Node64&#45;&gt;Node43 -->
<g id="edge35" class="edge">
<title>Node64&#45;&gt;Node43</title>
<path fill="none" stroke="#191970" d="M206.6293,-191.5133C192.8337,-197.9072 171.2808,-205.7938 151.8372,-211.8553"/>
<polygon fill="#191970" stroke="#191970" points="150.7758,-208.5196 142.2104,-214.7553 152.7949,-215.2221 150.7758,-208.5196"/>
</g>
<!-- Node64&#45;&gt;Node46 -->
<g id="edge36" class="edge">
<title>Node64&#45;&gt;Node46</title>
<path fill="none" stroke="#191970" d="M261.305,-186.9186C270.1679,-188.0002 279.8484,-189.1815 289.6495,-190.3776"/>
<polygon fill="#191970" stroke="#191970" points="289.5275,-193.8886 299.8779,-191.6258 290.3755,-186.9401 289.5275,-193.8886"/>
</g>
<!-- Node64&#45;&gt;Node49 -->
<g id="edge38" class="edge">
<title>Node64&#45;&gt;Node49</title>
<path fill="none" stroke="#191970" d="M261.3332,-180.2075C306.3827,-176.7882 380.4019,-166.8533 437,-138 456.3373,-128.142 454.293,-116.0073 473,-105 476.5905,-102.8873 480.448,-100.9714 484.4017,-99.2423"/>
<polygon fill="#191970" stroke="#191970" points="485.719,-102.4852 493.7216,-95.542 483.1358,-95.9792 485.719,-102.4852"/>
</g>
<!-- Node64&#45;&gt;Node55 -->
<g id="edge37" class="edge">
<title>Node64&#45;&gt;Node55</title>
<path fill="none" stroke="#191970" d="M245.0534,-172.3393C251.3372,-169.5552 258.0218,-166.3559 264,-163 280.9862,-153.4645 282.4502,-146.4535 300,-138 357.2605,-110.4185 381.0043,-127.0664 437,-97 455.3495,-87.1474 454.8052,-77.1355 473,-67 476.7419,-64.9156 480.7499,-63.011 484.8423,-61.2822"/>
<polygon fill="#191970" stroke="#191970" points="486.3934,-64.4351 494.4593,-57.5654 483.8699,-57.9058 486.3934,-64.4351"/>
</g>
<!-- Node65&#45;&gt;Node43 -->
<g id="edge41" class="edge">
<title>Node65&#45;&gt;Node43</title>
<path fill="none" stroke="#191970" d="M185.7518,-304.3771C183.0704,-302.6643 180.4553,-300.8558 178,-299 154.4154,-281.1736 130.9207,-255.6988 118.0434,-238.1722"/>
<polygon fill="#191970" stroke="#191970" points="120.8642,-236.0965 112.333,-229.814 115.0843,-240.0454 120.8642,-236.0965"/>
</g>
<!-- Node65&#45;&gt;Node60 -->
<g id="edge42" class="edge">
<title>Node65&#45;&gt;Node60</title>
<path fill="none" stroke="#191970" d="M264.129,-312.2039C332.5954,-309.2528 470.3528,-302.9086 587,-295 599.6062,-294.1453 613.034,-293.116 625.9748,-292.0636"/>
<polygon fill="#191970" stroke="#191970" points="626.5456,-295.5284 636.2237,-291.2174 625.9696,-288.5522 626.5456,-295.5284"/>
</g>
</g>
</svg>
        <g id="navigator" transform="translate(0 0)" fill="#404254">
                <rect fill="#f2f5e9" fill-opacity="0.5" stroke="#606060" stroke-width=".5" x="0" y="0" width="60" height="60"/>
                <use id="zoomplus" xlink:href="#zoomPlus" x="17" y="9" onmousedown="handleZoom(evt,'in')"/>
                <use id="zoomminus" xlink:href="#zoomMin" x="42" y="9" onmousedown="handleZoom(evt,'out')"/>
                <use id="reset" xlink:href="#resetDef" x="30" y="36" onmousedown="handleReset()"/>
                <g id="arrowUp" xlink:href="#dirArrow" transform="translate(30 24)" onmousedown="handlePan(0,-1)">
                  <use xlink:href="#rim" fill="#404040">
                        <set attributeName="fill" to="#808080" begin="arrowUp.mouseover" end="arrowUp.mouseout"/>
                  </use>
                  <path fill="none" stroke="white" stroke-width="1.5" d="M0,-3.0v7 M-2.5,-0.5L0,-3.0L2.5,-0.5"/>
                </g>
                <g id="arrowRight" xlink:href="#dirArrow" transform="rotate(90) translate(36 -43)" onmousedown="handlePan(1,0)">
                  <use xlink:href="#rim" fill="#404040">
                        <set attributeName="fill" to="#808080" begin="arrowRight.mouseover" end="arrowRight.mouseout"/>
                  </use>
                  <path fill="none" stroke="white" stroke-width="1.5" d="M0,-3.0v7 M-2.5,-0.5L0,-3.0L2.5,-0.5"/>
                </g>
                <g id="arrowDown" xlink:href="#dirArrow" transform="rotate(180) translate(-30 -48)" onmousedown="handlePan(0,1)">
                  <use xlink:href="#rim" fill="#404040">
                        <set attributeName="fill" to="#808080" begin="arrowDown.mouseover" end="arrowDown.mouseout"/>
                  </use>
                  <path fill="none" stroke="white" stroke-width="1.5" d="M0,-3.0v7 M-2.5,-0.5L0,-3.0L2.5,-0.5"/>
                </g>
                <g id="arrowLeft" xlink:href="#dirArrow" transform="rotate(270) translate(-36 17)" onmousedown="handlePan(-1,0)">
                  <use xlink:href="#rim" fill="#404040">
                        <set attributeName="fill" to="#808080" begin="arrowLeft.mouseover" end="arrowLeft.mouseout"/>
                  </use>
                  <path fill="none" stroke="white" stroke-width="1.5" d="M0,-3.0v7 M-2.5,-0.5L0,-3.0L2.5,-0.5"/>
                </g>
        </g>
        <svg viewBox="0 0 15 15" width="100%" height="30px" preserveAspectRatio="xMaxYMin meet">
         <g id="arrow_out" transform="scale(0.3 0.3)">
          <a xlink:href="classNeuronMonitorCore_ac8bb3912a3ce86b15842e79d0b421204_cgraph_org.svg" target="_base">
           <rect id="button" ry="5" rx="5" y="6" x="6" height="38" width="38"
                fill="#f2f5e9" fill-opacity="0.5" stroke="#606060" stroke-width="1.0"/>
           <path id="arrow"
             d="M 11.500037,31.436501 C 11.940474,20.09759 22.043105,11.32322 32.158766,21.979434 L 37.068811,17.246167 C 37.068811,17.246167 37.088388,32 37.088388,32 L 22.160133,31.978069 C 22.160133,31.978069 26.997745,27.140456 26.997745,27.140456 C 18.528582,18.264221 13.291696,25.230495 11.500037,31.436501 z"
             style="fill:#404040;"/>
          </a>
         </g>
        </svg>
</svg>
