<?xml version="1.0" encoding="UTF-8" standalone="no"?>
<!DOCTYPE svg PUBLIC "-//W3C//DTD SVG 1.1//EN"
 "http://www.w3.org/Graphics/SVG/1.1/DTD/svg11.dtd">
<!-- Generated by graphviz version 2.40.1 (20161225.0304)
 -->
<!-- Title: setLastUpdated Pages: 1 -->
<!--zoomable 458 -->
<svg id="main" version="1.1" xmlns="http://www.w3.org/2000/svg" xmlns:xlink="http://www.w3.org/1999/xlink" xml:space="preserve" onload="init(evt)">
<style type="text/css"><![CDATA[
.edge:hover path { stroke: red; }
.edge:hover polygon { stroke: red; fill: red; }
]]></style>
<script type="text/javascript"><![CDATA[
var edges = document.getElementsByTagName('g');
if (edges && edges.length) {
  for (var i=0;i<edges.length;i++) {
    if (edges[i].id.substr(0,4)=='edge') {
      edges[i].setAttribute('class','edge');
    }
  }
}
]]></script>
        <defs>
                <circle id="rim" cx="0" cy="0" r="7"/>
                <circle id="rim2" cx="0" cy="0" r="3.5"/>
                <g id="zoomPlus">
                        <use xlink:href="#rim" fill="#404040">
                                <set attributeName="fill" to="#808080" begin="zoomplus.mouseover" end="zoomplus.mouseout"/>
                        </use>
                        <path d="M-4,0h8M0,-4v8" fill="none" stroke="white" stroke-width="1.5" pointer-events="none"/>
                </g>
                <g id="zoomMin">
                        <use xlink:href="#rim" fill="#404040">
                                <set attributeName="fill" to="#808080" begin="zoomminus.mouseover" end="zoomminus.mouseout"/>
                        </use>
                        <path d="M-4,0h8" fill="none" stroke="white" stroke-width="1.5" pointer-events="none"/>
                </g>
                <g id="dirArrow">
                        <path fill="none" stroke="white" stroke-width="1.5" d="M0,-3.0v7 M-2.5,-0.5L0,-3.0L2.5,-0.5"/>
                </g>
               <g id="resetDef">
                       <use xlink:href="#rim2" fill="#404040">
                               <set attributeName="fill" to="#808080" begin="reset.mouseover" end="reset.mouseout"/>
                       </use>
               </g>
        </defs>

<script type="text/javascript">
var viewWidth = 1289;
var viewHeight = 458;
var sectionId = 'dynsection-23';
</script>
<script xlink:href="svgpan.js"/>
<svg id="graph" class="graph">
<g id="viewport">
<title>setLastUpdated</title>
<polygon fill="#ffffff" stroke="transparent" points="-4,4 -4,-453.5 1285,-453.5 1285,4 -4,4"/>
<!-- Node537 -->
<g id="node1" class="node">
<title>Node537</title>
<polygon fill="#bfbfbf" stroke="#000000" points="0,-114.5 0,-133.5 86,-133.5 86,-114.5 0,-114.5"/>
<text text-anchor="middle" x="43" y="-121.5" font-family="Helvetica,sans-Serif" font-size="10.00" fill="#000000">setLastUpdated</text>
</g>
<!-- Node538 -->
<g id="node2" class="node">
<title>Node538</title>
<g id="a_node2"><a xlink:href="classSNN.html#a8dd319bdd9a54e38f9254cbec099c30a" target="_top" xlink:title="copy required neuron state values from ??? buffer to ??? buffer ">
<polygon fill="#ffffff" stroke="#000000" points="122,-247.5 122,-266.5 259,-266.5 259,-247.5 122,-247.5"/>
<text text-anchor="middle" x="190.5" y="-254.5" font-family="Helvetica,sans-Serif" font-size="10.00" fill="#000000">SNN::updateNeuronMonitor</text>
</a>
</g>
</g>
<!-- Node537&#45;&gt;Node538 -->
<g id="edge1" class="edge">
<title>Node537&#45;&gt;Node538</title>
<path fill="none" stroke="#191970" d="M61.1204,-140.339C92.1228,-168.2938 154.4292,-224.4752 179.5903,-247.1628"/>
<polygon fill="#191970" stroke="#191970" points="63.3784,-137.6623 53.6078,-133.565 58.6907,-142.861 63.3784,-137.6623"/>
</g>
<!-- Node539 -->
<g id="node3" class="node">
<title>Node539</title>
<g id="a_node3"><a xlink:href="classNeuronMonitorCore.html#ab91616c118b701c2afd9136393d1f19b" target="_top" xlink:title="starts recording Neuron state ">
<polygon fill="#ffffff" stroke="#000000" points="302.5,-266.5 302.5,-285.5 382.5,-285.5 382.5,-266.5 302.5,-266.5"/>
<text text-anchor="middle" x="342.5" y="-273.5" font-family="Helvetica,sans-Serif" font-size="10.00" fill="#000000">startRecording</text>
</a>
</g>
</g>
<!-- Node538&#45;&gt;Node539 -->
<g id="edge2" class="edge">
<title>Node538&#45;&gt;Node539</title>
<path fill="none" stroke="#191970" d="M269.3437,-266.8555C280.681,-268.2726 291.9338,-269.6792 302.0911,-270.9489"/>
<polygon fill="#191970" stroke="#191970" points="269.7412,-263.378 259.3843,-265.6105 268.8729,-270.3239 269.7412,-263.378"/>
</g>
<!-- Node553 -->
<g id="node17" class="node">
<title>Node553</title>
<g id="a_node17"><a xlink:href="classNeuronMonitorCore.html#a25e0e98dd4519eaaa6b258f0dcb91ac7" target="_top" xlink:title="stops recording Neuron state ">
<polygon fill="#ffffff" stroke="#000000" points="631,-38.5 631,-57.5 711,-57.5 711,-38.5 631,-38.5"/>
<text text-anchor="middle" x="671" y="-45.5" font-family="Helvetica,sans-Serif" font-size="10.00" fill="#000000">stopRecording</text>
</a>
</g>
</g>
<!-- Node538&#45;&gt;Node553 -->
<g id="edge42" class="edge">
<title>Node538&#45;&gt;Node553</title>
<path fill="none" stroke="#191970" d="M233.1454,-244.5167C305.3213,-222.2553 454.5678,-171.2649 566,-100 584.2854,-88.3058 583.0077,-77.5073 602,-67 610.8064,-62.128 620.9478,-58.4369 630.6978,-55.6672"/>
<polygon fill="#191970" stroke="#191970" points="232.0266,-241.1987 223.4845,-247.4663 234.0707,-247.8936 232.0266,-241.1987"/>
</g>
<!-- Node563 -->
<g id="node27" class="node">
<title>Node563</title>
<g id="a_node27"><a xlink:href="classSNN.html#a3df37c7539f784fe7a939c5da922f41b" target="_top" xlink:title="run the simulation for n sec ">
<polygon fill="#ffffff" stroke="#000000" points="295,-372.5 295,-391.5 390,-391.5 390,-372.5 295,-372.5"/>
<text text-anchor="middle" x="342.5" y="-379.5" font-family="Helvetica,sans-Serif" font-size="10.00" fill="#000000">SNN::runNetwork</text>
</a>
</g>
</g>
<!-- Node538&#45;&gt;Node563 -->
<g id="edge43" class="edge">
<title>Node538&#45;&gt;Node563</title>
<path fill="none" stroke="#191970" d="M210.2406,-273.234C242.2703,-299.5742 304.5964,-350.8292 330.6282,-372.237"/>
<polygon fill="#191970" stroke="#191970" points="212.374,-270.457 202.4272,-266.8085 207.9278,-275.8636 212.374,-270.457"/>
</g>
<!-- Node540 -->
<g id="node4" class="node">
<title>Node540</title>
<g id="a_node4"><a xlink:href="classNeuronMonitor.html#ab91616c118b701c2afd9136393d1f19b" target="_top" xlink:title="NeuronMonitor::startRecording">
<polygon fill="#ffffff" stroke="#000000" points="778.5,-266.5 778.5,-285.5 928.5,-285.5 928.5,-266.5 778.5,-266.5"/>
<text text-anchor="middle" x="853.5" y="-273.5" font-family="Helvetica,sans-Serif" font-size="10.00" fill="#000000">NeuronMonitor::startRecording</text>
</a>
</g>
</g>
<!-- Node539&#45;&gt;Node540 -->
<g id="edge3" class="edge">
<title>Node539&#45;&gt;Node540</title>
<path fill="none" stroke="#191970" d="M370.7676,-289.9375C437.825,-320.944 610.5928,-388.6622 740,-333 761.3713,-323.8075 755.8853,-306.689 776,-295 782.7075,-291.1021 790.189,-288.0004 797.7849,-285.533"/>
<polygon fill="#191970" stroke="#191970" points="372.1969,-286.742 361.6587,-285.6482 369.2147,-293.075 372.1969,-286.742"/>
</g>
<!-- Node541 -->
<g id="node5" class="node">
<title>Node541</title>
<g id="a_node5"><a xlink:href="classNeuronMonitorCore.html#a3a3ffdb35b09328d22e5d72503ed1f55" target="_top" xlink:title="returns recording status ">
<polygon fill="#ffffff" stroke="#000000" points="462,-228.5 462,-247.5 530,-247.5 530,-228.5 462,-228.5"/>
<text text-anchor="middle" x="496" y="-235.5" font-family="Helvetica,sans-Serif" font-size="10.00" fill="#000000">isRecording</text>
</a>
</g>
</g>
<!-- Node539&#45;&gt;Node541 -->
<g id="edge4" class="edge">
<title>Node539&#45;&gt;Node541</title>
<path fill="none" stroke="#191970" d="M371.8274,-263.2989C397.5505,-255.283 434.9606,-245.9298 461.9892,-240.7026"/>
<polygon fill="#191970" stroke="#191970" points="370.6835,-259.9904 362.2532,-266.4076 372.8453,-266.6482 370.6835,-259.9904"/>
</g>
<!-- Node541&#45;&gt;Node538 -->
<g id="edge41" class="edge">
<title>Node541&#45;&gt;Node538</title>
<path fill="none" stroke="#191970" d="M451.4071,-240.7734C400.8579,-243.9172 317.8576,-249.0792 259.0602,-252.736"/>
<polygon fill="#191970" stroke="#191970" points="451.9174,-244.2485 461.6808,-240.1344 451.4828,-237.262 451.9174,-244.2485"/>
</g>
<!-- Node541&#45;&gt;Node539 -->
<g id="edge22" class="edge">
<title>Node541&#45;&gt;Node539</title>
<path fill="none" stroke="#191970" d="M466.9685,-250.6087C443.1813,-258.0379 409.2563,-266.6367 382.8303,-272.0392"/>
<polygon fill="#191970" stroke="#191970" points="468.0654,-253.9325 476.491,-247.5092 465.8987,-247.2763 468.0654,-253.9325"/>
</g>
<!-- Node542 -->
<g id="node6" class="node">
<title>Node542</title>
<g id="a_node6"><a xlink:href="classNeuronMonitor.html#a3a3ffdb35b09328d22e5d72503ed1f55" target="_top" xlink:title="NeuronMonitor::isRecording">
<polygon fill="#ffffff" stroke="#000000" points="602,-152.5 602,-171.5 740,-171.5 740,-152.5 602,-152.5"/>
<text text-anchor="middle" x="671" y="-159.5" font-family="Helvetica,sans-Serif" font-size="10.00" fill="#000000">NeuronMonitor::isRecording</text>
</a>
</g>
</g>
<!-- Node541&#45;&gt;Node542 -->
<g id="edge5" class="edge">
<title>Node541&#45;&gt;Node542</title>
<path fill="none" stroke="#191970" d="M539.9197,-226.0455C548.8554,-222.7679 557.9702,-218.7711 566,-214 584.6598,-202.9129 583.0077,-191.5073 602,-181 608.9582,-177.1505 616.7497,-174.0382 624.5231,-171.5352"/>
<polygon fill="#191970" stroke="#191970" points="538.6796,-222.7705 530.3534,-229.3223 540.948,-229.3928 538.6796,-222.7705"/>
</g>
<!-- Node550 -->
<g id="node14" class="node">
<title>Node550</title>
<g id="a_node14"><a xlink:href="classNeuronMonitorCore.html#ac8bb3912a3ce86b15842e79d0b421204" target="_top" xlink:title="deletes data from the neuron state vector ">
<polygon fill="#ffffff" stroke="#000000" points="652,-266.5 652,-285.5 690,-285.5 690,-266.5 652,-266.5"/>
<text text-anchor="middle" x="671" y="-273.5" font-family="Helvetica,sans-Serif" font-size="10.00" fill="#000000">clear</text>
</a>
</g>
</g>
<!-- Node541&#45;&gt;Node550 -->
<g id="edge14" class="edge">
<title>Node541&#45;&gt;Node550</title>
<path fill="none" stroke="#191970" d="M540.3596,-241.672C576.1958,-248.0258 624.908,-259.1117 651.5744,-267.3466"/>
<polygon fill="#191970" stroke="#191970" points="540.6026,-238.1631 530.1572,-239.936 539.4284,-245.0639 540.6026,-238.1631"/>
</g>
<!-- Node552 -->
<g id="node16" class="node">
<title>Node552</title>
<g id="a_node16"><a xlink:href="classNeuronMonitorCore.html#a743a4ad47ef60bc593cc9882bd4ffb57" target="_top" xlink:title="inserts a (time,neurId) tupel into the D Neuron State vector ">
<polygon fill="#ffffff" stroke="#000000" points="625,-304.5 625,-323.5 717,-323.5 717,-304.5 625,-304.5"/>
<text text-anchor="middle" x="671" y="-311.5" font-family="Helvetica,sans-Serif" font-size="10.00" fill="#000000">pushNeuronState</text>
</a>
</g>
</g>
<!-- Node541&#45;&gt;Node552 -->
<g id="edge19" class="edge">
<title>Node541&#45;&gt;Node552</title>
<path fill="none" stroke="#191970" d="M532.5674,-252.3134C552.5552,-262.8116 578.0556,-276.4074 602,-286 620.5695,-293.4393 643.0732,-299.0363 657.2179,-304.4046"/>
<polygon fill="#191970" stroke="#191970" points="533.9982,-249.1122 523.5138,-247.5868 530.7586,-255.3174 533.9982,-249.1122"/>
</g>
<!-- Node541&#45;&gt;Node553 -->
<g id="edge23" class="edge">
<title>Node541&#45;&gt;Node553</title>
<path fill="none" stroke="#191970" d="M528.1867,-225.6374C541.5887,-221.582 556.263,-215.6566 566,-205 611.3719,-155.3429 555.1205,-106.2365 602,-58 609.6204,-50.159 620.1551,-45.4635 630.7001,-43.0432"/>
<polygon fill="#191970" stroke="#191970" points="526.9677,-222.3444 518.2891,-228.4215 528.8632,-229.0829 526.9677,-222.3444"/>
</g>
<!-- Node554 -->
<g id="node18" class="node">
<title>Node554</title>
<g id="a_node18"><a xlink:href="classNeuronMonitorCore.html#a5113f6b476e3e3544ecbffefa313234d" target="_top" xlink:title="sets pointer to Neuron file ">
<polygon fill="#ffffff" stroke="#000000" points="628,-228.5 628,-247.5 714,-247.5 714,-228.5 628,-228.5"/>
<text text-anchor="middle" x="671" y="-235.5" font-family="Helvetica,sans-Serif" font-size="10.00" fill="#000000">setNeuronFileId</text>
</a>
</g>
</g>
<!-- Node541&#45;&gt;Node554 -->
<g id="edge26" class="edge">
<title>Node541&#45;&gt;Node554</title>
<path fill="none" stroke="#191970" d="M540.4332,-232.0367C567.2799,-230.9696 601.3327,-230.9881 627.9301,-232.0921"/>
<polygon fill="#191970" stroke="#191970" points="539.9821,-228.5539 530.1572,-232.519 540.3103,-235.5462 539.9821,-228.5539"/>
</g>
<!-- Node559 -->
<g id="node23" class="node">
<title>Node559</title>
<g id="a_node23"><a xlink:href="classNeuronMonitorCore.html#a5414db20073ada3806b3c35686c9a6f4" target="_top" xlink:title="returns the Neuron state vector ">
<polygon fill="#ffffff" stroke="#000000" points="638.5,-190.5 638.5,-209.5 703.5,-209.5 703.5,-190.5 638.5,-190.5"/>
<text text-anchor="middle" x="671" y="-197.5" font-family="Helvetica,sans-Serif" font-size="10.00" fill="#000000">getVectorV</text>
</a>
</g>
</g>
<!-- Node541&#45;&gt;Node559 -->
<g id="edge32" class="edge">
<title>Node541&#45;&gt;Node559</title>
<path fill="none" stroke="#191970" d="M540.1291,-228.4177C570.6945,-221.7806 610.7107,-213.0914 638.4084,-207.077"/>
<polygon fill="#191970" stroke="#191970" points="539.1867,-225.0407 530.1572,-230.583 540.6722,-231.8812 539.1867,-225.0407"/>
</g>
<!-- Node560 -->
<g id="node24" class="node">
<title>Node560</title>
<g id="a_node24"><a xlink:href="classNeuronMonitorCore.html#aff9eb621d9c78a5e33f1435eff0e9ba9" target="_top" xlink:title="getVectorU">
<polygon fill="#ffffff" stroke="#000000" points="638,-114.5 638,-133.5 704,-133.5 704,-114.5 638,-114.5"/>
<text text-anchor="middle" x="671" y="-121.5" font-family="Helvetica,sans-Serif" font-size="10.00" fill="#000000">getVectorU</text>
</a>
</g>
</g>
<!-- Node541&#45;&gt;Node560 -->
<g id="edge34" class="edge">
<title>Node541&#45;&gt;Node560</title>
<path fill="none" stroke="#191970" d="M539.7954,-228.7556C549.1843,-225.2737 558.5181,-220.5082 566,-214 592.6941,-190.7798 574.6036,-165.3873 602,-143 612.1023,-134.7448 625.5253,-130.0651 637.8455,-127.4166"/>
<polygon fill="#191970" stroke="#191970" points="538.4825,-225.5026 530.0667,-231.9388 540.6593,-232.1555 538.4825,-225.5026"/>
</g>
<!-- Node561 -->
<g id="node25" class="node">
<title>Node561</title>
<g id="a_node25"><a xlink:href="classNeuronMonitorCore.html#aa1e83b424e9145add71076cadfadb200" target="_top" xlink:title="getVectorI">
<polygon fill="#ffffff" stroke="#000000" points="640,-76.5 640,-95.5 702,-95.5 702,-76.5 640,-76.5"/>
<text text-anchor="middle" x="671" y="-83.5" font-family="Helvetica,sans-Serif" font-size="10.00" fill="#000000">getVectorI</text>
</a>
</g>
</g>
<!-- Node541&#45;&gt;Node561 -->
<g id="edge36" class="edge">
<title>Node541&#45;&gt;Node561</title>
<path fill="none" stroke="#191970" d="M539.7,-229.863C549.3471,-226.3292 558.8189,-221.2628 566,-214 601.8709,-177.7214 565.029,-140.1569 602,-105 612.1745,-95.3248 626.8107,-90.489 639.9874,-88.1055"/>
<polygon fill="#191970" stroke="#191970" points="538.5502,-226.5558 530.0728,-232.9106 540.6628,-233.2294 538.5502,-226.5558"/>
</g>
<!-- Node562 -->
<g id="node26" class="node">
<title>Node562</title>
<g id="a_node26"><a xlink:href="classNeuronMonitorCore.html#a388f572c62279f839ee138a9afbdeeb5" target="_top" xlink:title="prints neuron states in human&#45;readable format ">
<polygon fill="#ffffff" stroke="#000000" points="653.5,-.5 653.5,-19.5 688.5,-19.5 688.5,-.5 653.5,-.5"/>
<text text-anchor="middle" x="671" y="-7.5" font-family="Helvetica,sans-Serif" font-size="10.00" fill="#000000">print</text>
</a>
</g>
</g>
<!-- Node541&#45;&gt;Node562 -->
<g id="edge38" class="edge">
<title>Node541&#45;&gt;Node562</title>
<path fill="none" stroke="#191970" d="M505.3835,-219.4985C531.3067,-168.3858 602,-29 602,-29 616.6243,-17.0496 638.2074,-12.5921 653.3302,-10.9426"/>
<polygon fill="#191970" stroke="#191970" points="502.2319,-217.9749 500.83,-228.4766 508.4749,-221.1412 502.2319,-217.9749"/>
</g>
<!-- Node542&#45;&gt;Node540 -->
<g id="edge7" class="edge">
<title>Node542&#45;&gt;Node540</title>
<path fill="none" stroke="#191970" d="M733.6321,-176.3953C735.8673,-177.7913 738.0019,-179.3219 740,-181 768.621,-205.0369 747.0419,-233.3702 776,-257 780.7227,-260.8537 786.1114,-263.944 791.7976,-266.4194"/>
<polygon fill="#191970" stroke="#191970" points="735.0688,-173.1967 724.5874,-171.6504 731.8169,-179.3954 735.0688,-173.1967"/>
</g>
<!-- Node543 -->
<g id="node7" class="node">
<title>Node543</title>
<g id="a_node7"><a xlink:href="classNeuronMonitor.html#ac8bb3912a3ce86b15842e79d0b421204" target="_top" xlink:title="NeuronMonitor::clear">
<polygon fill="#ffffff" stroke="#000000" points="800,-228.5 800,-247.5 907,-247.5 907,-228.5 800,-228.5"/>
<text text-anchor="middle" x="853.5" y="-235.5" font-family="Helvetica,sans-Serif" font-size="10.00" fill="#000000">NeuronMonitor::clear</text>
</a>
</g>
</g>
<!-- Node542&#45;&gt;Node543 -->
<g id="edge6" class="edge">
<title>Node542&#45;&gt;Node543</title>
<path fill="none" stroke="#191970" d="M728.5884,-175.2168C732.5577,-176.9227 736.4045,-178.842 740,-181 759.9474,-192.9723 755.8853,-207.311 776,-219 783.3064,-223.2459 791.5312,-226.5471 799.8217,-229.1128"/>
<polygon fill="#191970" stroke="#191970" points="729.7555,-171.916 719.1651,-171.6115 727.2542,-178.4538 729.7555,-171.916"/>
</g>
<!-- Node544 -->
<g id="node8" class="node">
<title>Node544</title>
<g id="a_node8"><a xlink:href="classNeuronMonitor.html#a25e0e98dd4519eaaa6b258f0dcb91ac7" target="_top" xlink:title="NeuronMonitor::stopRecording">
<polygon fill="#ffffff" stroke="#000000" points="779,-38.5 779,-57.5 928,-57.5 928,-38.5 779,-38.5"/>
<text text-anchor="middle" x="853.5" y="-45.5" font-family="Helvetica,sans-Serif" font-size="10.00" fill="#000000">NeuronMonitor::stopRecording</text>
</a>
</g>
</g>
<!-- Node542&#45;&gt;Node544 -->
<g id="edge8" class="edge">
<title>Node542&#45;&gt;Node544</title>
<path fill="none" stroke="#191970" d="M733.6321,-147.6047C735.8673,-146.2087 738.0019,-144.6781 740,-143 768.621,-118.9631 747.0419,-90.6298 776,-67 780.7227,-63.1463 786.1114,-60.056 791.7976,-57.5806"/>
<polygon fill="#191970" stroke="#191970" points="731.8169,-144.6046 724.5874,-152.3496 735.0688,-150.8033 731.8169,-144.6046"/>
</g>
<!-- Node545 -->
<g id="node9" class="node">
<title>Node545</title>
<g id="a_node9"><a xlink:href="classNeuronMonitor.html#a388f572c62279f839ee138a9afbdeeb5" target="_top" xlink:title="NeuronMonitor::print">
<polygon fill="#ffffff" stroke="#000000" points="801,-.5 801,-19.5 906,-19.5 906,-.5 801,-.5"/>
<text text-anchor="middle" x="853.5" y="-7.5" font-family="Helvetica,sans-Serif" font-size="10.00" fill="#000000">NeuronMonitor::print</text>
</a>
</g>
</g>
<!-- Node542&#45;&gt;Node545 -->
<g id="edge9" class="edge">
<title>Node542&#45;&gt;Node545</title>
<path fill="none" stroke="#191970" d="M734.7633,-147.3538C736.6103,-146.0239 738.3643,-144.576 740,-143 778.2625,-106.1341 737.22,-65.3211 776,-29 782.8755,-22.5604 791.5666,-18.2013 800.6235,-15.2717"/>
<polygon fill="#191970" stroke="#191970" points="732.9649,-144.351 726.1476,-152.4612 736.5345,-150.3725 732.9649,-144.351"/>
</g>
<!-- Node546 -->
<g id="node10" class="node">
<title>Node546</title>
<g id="a_node10"><a xlink:href="classNeuronMonitor.html#a22cd4deca28f0e9e8dd2e576b75b02a8" target="_top" xlink:title="Returns the ... ">
<polygon fill="#ffffff" stroke="#000000" points="776,-152.5 776,-171.5 931,-171.5 931,-152.5 776,-152.5"/>
<text text-anchor="middle" x="853.5" y="-159.5" font-family="Helvetica,sans-Serif" font-size="10.00" fill="#000000">NeuronMonitor::getLastUpdated</text>
</a>
</g>
</g>
<!-- Node542&#45;&gt;Node546 -->
<g id="edge10" class="edge">
<title>Node542&#45;&gt;Node546</title>
<path fill="none" stroke="#191970" d="M750.4184,-162C758.8214,-162 767.3606,-162 775.7443,-162"/>
<polygon fill="#191970" stroke="#191970" points="750.2557,-158.5001 740.2556,-162 750.2556,-165.5001 750.2557,-158.5001"/>
</g>
<!-- Node547 -->
<g id="node11" class="node">
<title>Node547</title>
<g id="a_node11"><a xlink:href="classNeuronMonitor.html#a5414db20073ada3806b3c35686c9a6f4" target="_top" xlink:title="returns the Neuron state vectors ">
<polygon fill="#ffffff" stroke="#000000" points="786,-190.5 786,-209.5 921,-209.5 921,-190.5 786,-190.5"/>
<text text-anchor="middle" x="853.5" y="-197.5" font-family="Helvetica,sans-Serif" font-size="10.00" fill="#000000">NeuronMonitor::getVectorV</text>
</a>
</g>
</g>
<!-- Node542&#45;&gt;Node547 -->
<g id="edge11" class="edge">
<title>Node542&#45;&gt;Node547</title>
<path fill="none" stroke="#191970" d="M727.0995,-173.681C752.9804,-179.0699 783.3146,-185.3861 807.7787,-190.4799"/>
<polygon fill="#191970" stroke="#191970" points="727.556,-170.201 717.0525,-171.589 726.129,-177.0541 727.556,-170.201"/>
</g>
<!-- Node548 -->
<g id="node12" class="node">
<title>Node548</title>
<g id="a_node12"><a xlink:href="classNeuronMonitor.html#aff9eb621d9c78a5e33f1435eff0e9ba9" target="_top" xlink:title="NeuronMonitor::getVectorU">
<polygon fill="#ffffff" stroke="#000000" points="785.5,-114.5 785.5,-133.5 921.5,-133.5 921.5,-114.5 785.5,-114.5"/>
<text text-anchor="middle" x="853.5" y="-121.5" font-family="Helvetica,sans-Serif" font-size="10.00" fill="#000000">NeuronMonitor::getVectorU</text>
</a>
</g>
</g>
<!-- Node542&#45;&gt;Node548 -->
<g id="edge12" class="edge">
<title>Node542&#45;&gt;Node548</title>
<path fill="none" stroke="#191970" d="M727.0995,-150.319C752.9804,-144.9301 783.3146,-138.6139 807.7787,-133.5201"/>
<polygon fill="#191970" stroke="#191970" points="726.129,-146.9459 717.0525,-152.411 727.556,-153.799 726.129,-146.9459"/>
</g>
<!-- Node549 -->
<g id="node13" class="node">
<title>Node549</title>
<g id="a_node13"><a xlink:href="classNeuronMonitor.html#aa1e83b424e9145add71076cadfadb200" target="_top" xlink:title="NeuronMonitor::getVectorI">
<polygon fill="#ffffff" stroke="#000000" points="788,-76.5 788,-95.5 919,-95.5 919,-76.5 788,-76.5"/>
<text text-anchor="middle" x="853.5" y="-83.5" font-family="Helvetica,sans-Serif" font-size="10.00" fill="#000000">NeuronMonitor::getVectorI</text>
</a>
</g>
</g>
<!-- Node542&#45;&gt;Node549 -->
<g id="edge13" class="edge">
<title>Node542&#45;&gt;Node549</title>
<path fill="none" stroke="#191970" d="M728.5884,-148.7832C732.5577,-147.0773 736.4045,-145.158 740,-143 759.9474,-131.0277 755.8853,-116.689 776,-105 782.7075,-101.1021 790.189,-98.0004 797.7849,-95.533"/>
<polygon fill="#191970" stroke="#191970" points="727.2542,-145.5462 719.1651,-152.3885 729.7555,-152.084 727.2542,-145.5462"/>
</g>
<!-- Node550&#45;&gt;Node539 -->
<g id="edge17" class="edge">
<title>Node550&#45;&gt;Node539</title>
<path fill="none" stroke="#191970" d="M641.823,-276C582.9557,-276 449.8761,-276 382.7805,-276"/>
<polygon fill="#191970" stroke="#191970" points="641.9186,-279.5001 651.9186,-276 641.9185,-272.5001 641.9186,-279.5001"/>
</g>
<!-- Node550&#45;&gt;Node541 -->
<g id="edge18" class="edge">
<title>Node550&#45;&gt;Node541</title>
<path fill="none" stroke="#191970" d="M641.7934,-274.8443C607.0997,-269.5462 549.9759,-256.9808 518.5199,-247.5924"/>
<polygon fill="#191970" stroke="#191970" points="641.3983,-278.3231 651.7871,-276.2437 642.3691,-271.3907 641.3983,-278.3231"/>
</g>
<!-- Node550&#45;&gt;Node543 -->
<g id="edge15" class="edge">
<title>Node550&#45;&gt;Node543</title>
<path fill="none" stroke="#191970" d="M700.0735,-269.9463C728.9994,-263.9234 773.8208,-254.5907 807.5635,-247.5649"/>
<polygon fill="#191970" stroke="#191970" points="699.2623,-266.5401 690.1858,-272.0052 700.6893,-273.3931 699.2623,-266.5401"/>
</g>
<!-- Node551 -->
<g id="node15" class="node">
<title>Node551</title>
<g id="a_node15"><a xlink:href="classNeuronMonitorCore.html#a1fea34ca55f65e7cfeb05d870b2e741b" target="_top" xlink:title="constructor (called by CARLsim::setNeuronMonitor) ">
<polygon fill="#ffffff" stroke="#000000" points="803,-380.5 803,-399.5 904,-399.5 904,-380.5 803,-380.5"/>
<text text-anchor="middle" x="853.5" y="-387.5" font-family="Helvetica,sans-Serif" font-size="10.00" fill="#000000">NeuronMonitorCore</text>
</a>
</g>
</g>
<!-- Node550&#45;&gt;Node551 -->
<g id="edge16" class="edge">
<title>Node550&#45;&gt;Node551</title>
<path fill="none" stroke="#191970" d="M700.4374,-278.516C713.7631,-280.9613 728.9637,-285.7314 740,-295 768.621,-319.0369 747.0419,-347.3702 776,-371 783.728,-377.306 793.2394,-381.5679 802.9197,-384.4365"/>
<polygon fill="#191970" stroke="#191970" points="700.6724,-275.0127 690.2679,-277.0118 699.6481,-281.9374 700.6724,-275.0127"/>
</g>
<!-- Node552&#45;&gt;Node538 -->
<g id="edge21" class="edge">
<title>Node552&#45;&gt;Node538</title>
<path fill="none" stroke="#191970" d="M614.6767,-316.3327C540.5765,-318.2279 406.6629,-317.5922 295,-295 264.9152,-288.9131 231.8897,-275.7285 211.1819,-266.6109"/>
<polygon fill="#191970" stroke="#191970" points="614.8292,-319.8298 624.727,-316.0505 614.6327,-312.8326 614.8292,-319.8298"/>
</g>
<!-- Node552&#45;&gt;Node541 -->
<g id="edge20" class="edge">
<title>Node552&#45;&gt;Node541</title>
<path fill="none" stroke="#191970" d="M615.0642,-308.7328C610.603,-307.2716 606.2009,-305.6829 602,-304 563.4017,-288.5368 520.7598,-262.671 503.6844,-247.6918"/>
<polygon fill="#191970" stroke="#191970" points="614.2839,-312.1537 624.8696,-311.7152 616.3209,-305.4567 614.2839,-312.1537"/>
</g>
<!-- Node553&#45;&gt;Node541 -->
<g id="edge25" class="edge">
<title>Node553&#45;&gt;Node541</title>
<path fill="none" stroke="#191970" d="M631.5426,-60.0635C620.7184,-63.2157 609.8234,-67.9501 602,-76 555.1205,-124.2365 611.3719,-173.3429 566,-223 556.7275,-233.1483 542.9774,-239.006 530.1125,-241.7297"/>
<polygon fill="#191970" stroke="#191970" points="632.5442,-63.4203 641.3732,-57.5638 630.8191,-56.6362 632.5442,-63.4203"/>
</g>
<!-- Node553&#45;&gt;Node544 -->
<g id="edge24" class="edge">
<title>Node553&#45;&gt;Node544</title>
<path fill="none" stroke="#191970" d="M721.2239,-48C739.069,-48 759.5579,-48 778.9968,-48"/>
<polygon fill="#191970" stroke="#191970" points="721.0504,-44.5001 711.0504,-48 721.0504,-51.5001 721.0504,-44.5001"/>
</g>
<!-- Node554&#45;&gt;Node541 -->
<g id="edge28" class="edge">
<title>Node554&#45;&gt;Node541</title>
<path fill="none" stroke="#191970" d="M617.7289,-244.2683C589.2595,-245.1107 555.0509,-244.8482 530.1572,-243.481"/>
<polygon fill="#191970" stroke="#191970" points="618.0599,-247.7589 627.9301,-243.9079 617.8128,-240.7632 618.0599,-247.7589"/>
</g>
<!-- Node555 -->
<g id="node19" class="node">
<title>Node555</title>
<g id="a_node19"><a xlink:href="classNeuronMonitor.html#a11168f8252e1416f1706b5f7cae0be1e" target="_top" xlink:title="NeuronMonitor::setLogFile">
<polygon fill="#ffffff" stroke="#000000" points="788,-304.5 788,-323.5 919,-323.5 919,-304.5 788,-304.5"/>
<text text-anchor="middle" x="853.5" y="-311.5" font-family="Helvetica,sans-Serif" font-size="10.00" fill="#000000">NeuronMonitor::setLogFile</text>
</a>
</g>
</g>
<!-- Node554&#45;&gt;Node555 -->
<g id="edge27" class="edge">
<title>Node554&#45;&gt;Node555</title>
<path fill="none" stroke="#191970" d="M723.7185,-249.2491C729.4035,-251.4087 734.9496,-253.9688 740,-257 759.9474,-268.9723 755.8853,-283.311 776,-295 782.7075,-298.8979 790.189,-301.9996 797.7849,-304.467"/>
<polygon fill="#191970" stroke="#191970" points="724.6773,-245.8785 714.083,-245.9805 722.4286,-252.5075 724.6773,-245.8785"/>
</g>
<!-- Node556 -->
<g id="node20" class="node">
<title>Node556</title>
<g id="a_node20"><a xlink:href="classSNN.html#a4c62ae1b8cff6aedfdf98cb8808d14e1" target="_top" xlink:title="sets up a neuron monitor registered with a callback to process the neuron state values, there can only be one NeuronMonitor per group ">
<polygon fill="#ffffff" stroke="#000000" points="792.5,-342.5 792.5,-361.5 914.5,-361.5 914.5,-342.5 792.5,-342.5"/>
<text text-anchor="middle" x="853.5" y="-349.5" font-family="Helvetica,sans-Serif" font-size="10.00" fill="#000000">SNN::setNeuronMonitor</text>
</a>
</g>
</g>
<!-- Node554&#45;&gt;Node556 -->
<g id="edge29" class="edge">
<title>Node554&#45;&gt;Node556</title>
<path fill="none" stroke="#191970" d="M723.7047,-247.2681C729.5939,-249.7781 735.1921,-252.9622 740,-257 768.621,-281.0369 747.0419,-309.3702 776,-333 780.83,-336.9413 786.3566,-340.084 792.1857,-342.5872"/>
<polygon fill="#191970" stroke="#191970" points="724.8766,-243.9701 714.2824,-243.8527 722.4911,-250.5511 724.8766,-243.9701"/>
</g>
<!-- Node557 -->
<g id="node21" class="node">
<title>Node557</title>
<g id="a_node21"><a xlink:href="classCARLsim_1_1Impl.html#ad09ccf4ff95aa4f7b629afad588b0c88" target="_top" xlink:title="CARLsim::Impl::setNeuron\lMonitor">
<polygon fill="#ffffff" stroke="#000000" points="967,-337 967,-367 1102,-367 1102,-337 967,-337"/>
<text text-anchor="start" x="975" y="-355" font-family="Helvetica,sans-Serif" font-size="10.00" fill="#000000">CARLsim::Impl::setNeuron</text>
<text text-anchor="middle" x="1034.5" y="-344" font-family="Helvetica,sans-Serif" font-size="10.00" fill="#000000">Monitor</text>
</a>
</g>
</g>
<!-- Node556&#45;&gt;Node557 -->
<g id="edge30" class="edge">
<title>Node556&#45;&gt;Node557</title>
<path fill="none" stroke="#191970" d="M924.5426,-352C938.4834,-352 953.0707,-352 966.8952,-352"/>
<polygon fill="#191970" stroke="#191970" points="924.526,-348.5001 914.526,-352 924.526,-355.5001 924.526,-348.5001"/>
</g>
<!-- Node558 -->
<g id="node22" class="node">
<title>Node558</title>
<g id="a_node22"><a xlink:href="classCARLsim.html#a9f96445ca9cb3edb1532b6c741ec5736" target="_top" xlink:title="Sets a Neuron Monitor for a groups, print voltage, recovery, and total current values to binary file...">
<polygon fill="#ffffff" stroke="#000000" points="1138,-342.5 1138,-361.5 1281,-361.5 1281,-342.5 1138,-342.5"/>
<text text-anchor="middle" x="1209.5" y="-349.5" font-family="Helvetica,sans-Serif" font-size="10.00" fill="#000000">CARLsim::setNeuronMonitor</text>
</a>
</g>
</g>
<!-- Node557&#45;&gt;Node558 -->
<g id="edge31" class="edge">
<title>Node557&#45;&gt;Node558</title>
<path fill="none" stroke="#191970" d="M1112.4394,-352C1120.9344,-352 1129.551,-352 1137.9638,-352"/>
<polygon fill="#191970" stroke="#191970" points="1112.1596,-348.5001 1102.1596,-352 1112.1595,-355.5001 1112.1596,-348.5001"/>
</g>
<!-- Node559&#45;&gt;Node547 -->
<g id="edge33" class="edge">
<title>Node559&#45;&gt;Node547</title>
<path fill="none" stroke="#191970" d="M713.698,-200C735.1006,-200 761.531,-200 785.6289,-200"/>
<polygon fill="#191970" stroke="#191970" points="713.6274,-196.5001 703.6273,-200 713.6273,-203.5001 713.6274,-196.5001"/>
</g>
<!-- Node560&#45;&gt;Node548 -->
<g id="edge35" class="edge">
<title>Node560&#45;&gt;Node548</title>
<path fill="none" stroke="#191970" d="M714.3261,-124C735.4789,-124 761.4289,-124 785.1666,-124"/>
<polygon fill="#191970" stroke="#191970" points="714.0494,-120.5001 704.0494,-124 714.0493,-127.5001 714.0494,-120.5001"/>
</g>
<!-- Node561&#45;&gt;Node549 -->
<g id="edge37" class="edge">
<title>Node561&#45;&gt;Node549</title>
<path fill="none" stroke="#191970" d="M712.4824,-86C734.7323,-86 762.6699,-86 787.7966,-86"/>
<polygon fill="#191970" stroke="#191970" points="712.3729,-82.5001 702.3729,-86 712.3728,-89.5001 712.3729,-82.5001"/>
</g>
<!-- Node562&#45;&gt;Node537 -->
<g id="edge40" class="edge">
<title>Node562&#45;&gt;Node537</title>
<path fill="none" stroke="#191970" d="M643.2734,-15.0332C544.1182,-33.0327 206.6282,-94.2968 86.165,-116.1643"/>
<polygon fill="#191970" stroke="#191970" points="644.1818,-18.4256 653.3958,-13.1957 642.9315,-11.5381 644.1818,-18.4256"/>
</g>
<!-- Node562&#45;&gt;Node545 -->
<g id="edge39" class="edge">
<title>Node562&#45;&gt;Node545</title>
<path fill="none" stroke="#191970" d="M699.1292,-10C726.1893,-10 767.7695,-10 800.9612,-10"/>
<polygon fill="#191970" stroke="#191970" points="698.8312,-6.5001 688.8312,-10 698.8311,-13.5001 698.8312,-6.5001"/>
</g>
<!-- Node564 -->
<g id="node28" class="node">
<title>Node564</title>
<g id="a_node28"><a xlink:href="classCARLsim_1_1Impl.html#a749f370debe5eec8661cf9ca1b1bb4c0" target="_top" xlink:title="CARLsim::Impl::runNetwork">
<polygon fill="#ffffff" stroke="#000000" points="426,-402.5 426,-421.5 566,-421.5 566,-402.5 426,-402.5"/>
<text text-anchor="middle" x="496" y="-409.5" font-family="Helvetica,sans-Serif" font-size="10.00" fill="#000000">CARLsim::Impl::runNetwork</text>
</a>
</g>
</g>
<!-- Node563&#45;&gt;Node564 -->
<g id="edge44" class="edge">
<title>Node563&#45;&gt;Node564</title>
<path fill="none" stroke="#191970" d="M400.2166,-393.2801C415.7038,-396.3069 432.2948,-399.5495 447.2438,-402.4711"/>
<polygon fill="#191970" stroke="#191970" points="400.7126,-389.8109 390.2269,-391.3277 399.3699,-396.6809 400.7126,-389.8109"/>
</g>
<!-- Node565 -->
<g id="node29" class="node">
<title>Node565</title>
<g id="a_node29"><a xlink:href="classCARLsim.html#aafb2d44405c96aafe089f96ff867018d" target="_top" xlink:title="run the simulation for time=(nSec*seconds + nMsec*milliseconds) ">
<polygon fill="#ffffff" stroke="#000000" points="613,-413.5 613,-432.5 729,-432.5 729,-413.5 613,-413.5"/>
<text text-anchor="middle" x="671" y="-420.5" font-family="Helvetica,sans-Serif" font-size="10.00" fill="#000000">CARLsim::runNetwork</text>
</a>
</g>
</g>
<!-- Node564&#45;&gt;Node565 -->
<g id="edge45" class="edge">
<title>Node564&#45;&gt;Node565</title>
<path fill="none" stroke="#191970" d="M576.4296,-417.0556C588.7203,-417.8281 601.1984,-418.6125 612.8852,-419.3471"/>
<polygon fill="#191970" stroke="#191970" points="576.3708,-413.5451 566.1709,-416.4107 575.9316,-420.5313 576.3708,-413.5451"/>
</g>
<!-- Node566 -->
<g id="node30" class="node">
<title>Node566</title>
<g id="a_node30"><a xlink:href="classSimpleWeightTuner_1_1Impl.html#a312d84bfa66a5036bb52a4c39db6fa6c" target="_top" xlink:title="SimpleWeightTuner::\lImpl::iterate">
<polygon fill="#ffffff" stroke="#000000" points="799.5,-419 799.5,-449 907.5,-449 907.5,-419 799.5,-419"/>
<text text-anchor="start" x="807.5" y="-437" font-family="Helvetica,sans-Serif" font-size="10.00" fill="#000000">SimpleWeightTuner::</text>
<text text-anchor="middle" x="853.5" y="-426" font-family="Helvetica,sans-Serif" font-size="10.00" fill="#000000">Impl::iterate</text>
</a>
</g>
</g>
<!-- Node565&#45;&gt;Node566 -->
<g id="edge46" class="edge">
<title>Node565&#45;&gt;Node566</title>
<path fill="none" stroke="#191970" d="M739.4152,-427.1237C759.1686,-428.3143 780.4477,-429.5968 799.2159,-430.7281"/>
<polygon fill="#191970" stroke="#191970" points="739.4384,-423.6188 729.2459,-426.5107 739.0172,-430.6061 739.4384,-423.6188"/>
</g>
<!-- Node567 -->
<g id="node31" class="node">
<title>Node567</title>
<g id="a_node31"><a xlink:href="classSimpleWeightTuner.html#a0df985e3ff7a27edc1e2e3fcc8261843" target="_top" xlink:title="Performs an iteration step of the tuning algorithm. ">
<polygon fill="#ffffff" stroke="#000000" points="980.5,-419 980.5,-449 1088.5,-449 1088.5,-419 980.5,-419"/>
<text text-anchor="start" x="988.5" y="-437" font-family="Helvetica,sans-Serif" font-size="10.00" fill="#000000">SimpleWeightTuner::</text>
<text text-anchor="middle" x="1034.5" y="-426" font-family="Helvetica,sans-Serif" font-size="10.00" fill="#000000">iterate</text>
</a>
</g>
</g>
<!-- Node566&#45;&gt;Node567 -->
<g id="edge47" class="edge">
<title>Node566&#45;&gt;Node567</title>
<path fill="none" stroke="#191970" d="M917.9488,-434C938.33,-434 960.6383,-434 980.2324,-434"/>
<polygon fill="#191970" stroke="#191970" points="917.806,-430.5001 907.806,-434 917.8059,-437.5001 917.806,-430.5001"/>
</g>
</g>
</svg>
        <g id="navigator" transform="translate(0 0)" fill="#404254">
                <rect fill="#f2f5e9" fill-opacity="0.5" stroke="#606060" stroke-width=".5" x="0" y="0" width="60" height="60"/>
                <use id="zoomplus" xlink:href="#zoomPlus" x="17" y="9" onmousedown="handleZoom(evt,'in')"/>
                <use id="zoomminus" xlink:href="#zoomMin" x="42" y="9" onmousedown="handleZoom(evt,'out')"/>
                <use id="reset" xlink:href="#resetDef" x="30" y="36" onmousedown="handleReset()"/>
                <g id="arrowUp" xlink:href="#dirArrow" transform="translate(30 24)" onmousedown="handlePan(0,-1)">
                  <use xlink:href="#rim" fill="#404040">
                        <set attributeName="fill" to="#808080" begin="arrowUp.mouseover" end="arrowUp.mouseout"/>
                  </use>
                  <path fill="none" stroke="white" stroke-width="1.5" d="M0,-3.0v7 M-2.5,-0.5L0,-3.0L2.5,-0.5"/>
                </g>
                <g id="arrowRight" xlink:href="#dirArrow" transform="rotate(90) translate(36 -43)" onmousedown="handlePan(1,0)">
                  <use xlink:href="#rim" fill="#404040">
                        <set attributeName="fill" to="#808080" begin="arrowRight.mouseover" end="arrowRight.mouseout"/>
                  </use>
                  <path fill="none" stroke="white" stroke-width="1.5" d="M0,-3.0v7 M-2.5,-0.5L0,-3.0L2.5,-0.5"/>
                </g>
                <g id="arrowDown" xlink:href="#dirArrow" transform="rotate(180) translate(-30 -48)" onmousedown="handlePan(0,1)">
                  <use xlink:href="#rim" fill="#404040">
                        <set attributeName="fill" to="#808080" begin="arrowDown.mouseover" end="arrowDown.mouseout"/>
                  </use>
                  <path fill="none" stroke="white" stroke-width="1.5" d="M0,-3.0v7 M-2.5,-0.5L0,-3.0L2.5,-0.5"/>
                </g>
                <g id="arrowLeft" xlink:href="#dirArrow" transform="rotate(270) translate(-36 17)" onmousedown="handlePan(-1,0)">
                  <use xlink:href="#rim" fill="#404040">
                        <set attributeName="fill" to="#808080" begin="arrowLeft.mouseover" end="arrowLeft.mouseout"/>
                  </use>
                  <path fill="none" stroke="white" stroke-width="1.5" d="M0,-3.0v7 M-2.5,-0.5L0,-3.0L2.5,-0.5"/>
                </g>
        </g>
        <svg viewBox="0 0 15 15" width="100%" height="30px" preserveAspectRatio="xMaxYMin meet">
         <g id="arrow_out" transform="scale(0.3 0.3)">
          <a xlink:href="classNeuronMonitorCore_a38f87732cc929797d9648e68cd509f1b_icgraph_org.svg" target="_base">
           <rect id="button" ry="5" rx="5" y="6" x="6" height="38" width="38"
                fill="#f2f5e9" fill-opacity="0.5" stroke="#606060" stroke-width="1.0"/>
           <path id="arrow"
             d="M 11.500037,31.436501 C 11.940474,20.09759 22.043105,11.32322 32.158766,21.979434 L 37.068811,17.246167 C 37.068811,17.246167 37.088388,32 37.088388,32 L 22.160133,31.978069 C 22.160133,31.978069 26.997745,27.140456 26.997745,27.140456 C 18.528582,18.264221 13.291696,25.230495 11.500037,31.436501 z"
             style="fill:#404040;"/>
          </a>
         </g>
        </svg>
</svg>
