<?xml version="1.0" encoding="UTF-8" standalone="no"?>
<!DOCTYPE svg PUBLIC "-//W3C//DTD SVG 1.1//EN"
 "http://www.w3.org/Graphics/SVG/1.1/DTD/svg11.dtd">
<!-- Generated by graphviz version 2.40.1 (20161225.0304)
 -->
<!-- Title: setRate Pages: 1 -->
<svg width="372pt" height="39pt"
 viewBox="0.00 0.00 372.00 39.00" xmlns="http://www.w3.org/2000/svg" xmlns:xlink="http://www.w3.org/1999/xlink">
<g id="graph0" class="graph" transform="scale(1 1) rotate(0) translate(4 35)">
<title>setRate</title>
<polygon fill="#ffffff" stroke="transparent" points="-4,4 -4,-35 368,-35 368,4 -4,4"/>
<!-- Node39 -->
<g id="node1" class="node">
<title>Node39</title>
<polygon fill="#bfbfbf" stroke="#000000" points="0,-6 0,-25 51,-25 51,-6 0,-6"/>
<text text-anchor="middle" x="25.5" y="-13" font-family="Helvetica,sans-Serif" font-size="10.00" fill="#000000">setRate</text>
</g>
<!-- Node40 -->
<g id="node2" class="node">
<title>Node40</title>
<g id="a_node2"><a xlink:href="classVisualStimulus_1_1Impl.html#a7c85c4aea5e909cdc928547d8fd62b2e" target="_top" xlink:title="VisualStimulus::Impl\l::readFramePoisson">
<polygon fill="#ffffff" stroke="#000000" points="87,-.5 87,-30.5 194,-30.5 194,-.5 87,-.5"/>
<text text-anchor="start" x="95" y="-18.5" font-family="Helvetica,sans-Serif" font-size="10.00" fill="#000000">VisualStimulus::Impl</text>
<text text-anchor="middle" x="140.5" y="-7.5" font-family="Helvetica,sans-Serif" font-size="10.00" fill="#000000">::readFramePoisson</text>
</a>
</g>
</g>
<!-- Node39&#45;&gt;Node40 -->
<g id="edge1" class="edge">
<title>Node39&#45;&gt;Node40</title>
<path fill="none" stroke="#191970" d="M61.2238,-15.5C69.3317,-15.5 78.1175,-15.5 86.7878,-15.5"/>
<polygon fill="#191970" stroke="#191970" points="61.0223,-12.0001 51.0222,-15.5 61.0222,-19.0001 61.0223,-12.0001"/>
</g>
<!-- Node41 -->
<g id="node3" class="node">
<title>Node41</title>
<g id="a_node3"><a xlink:href="classVisualStimulus.html#aac6cca8793faebe5b1e8c533d12744e2" target="_top" xlink:title="Reads the next image frame and returns a pointer to a PoissonRate object. ">
<polygon fill="#ffffff" stroke="#000000" points="230,-.5 230,-30.5 364,-30.5 364,-.5 230,-.5"/>
<text text-anchor="start" x="238" y="-18.5" font-family="Helvetica,sans-Serif" font-size="10.00" fill="#000000">VisualStimulus::readFrame</text>
<text text-anchor="middle" x="297" y="-7.5" font-family="Helvetica,sans-Serif" font-size="10.00" fill="#000000">Poisson</text>
</a>
</g>
</g>
<!-- Node40&#45;&gt;Node41 -->
<g id="edge2" class="edge">
<title>Node40&#45;&gt;Node41</title>
<path fill="none" stroke="#191970" d="M204.4152,-15.5C212.7738,-15.5 221.3584,-15.5 229.7696,-15.5"/>
<polygon fill="#191970" stroke="#191970" points="204.3585,-12.0001 194.3584,-15.5 204.3584,-19.0001 204.3585,-12.0001"/>
</g>
</g>
</svg>
