<?xml version="1.0" encoding="UTF-8" standalone="no"?>
<!DOCTYPE svg PUBLIC "-//W3C//DTD SVG 1.1//EN"
 "http://www.w3.org/Graphics/SVG/1.1/DTD/svg11.dtd">
<!-- Generated by graphviz version 2.40.1 (20161225.0304)
 -->
<!-- Title: isRecording Pages: 1 -->
<!--zoomable 486 -->
<svg id="main" version="1.1" xmlns="http://www.w3.org/2000/svg" xmlns:xlink="http://www.w3.org/1999/xlink" xml:space="preserve" onload="init(evt)">
<style type="text/css"><![CDATA[
.edge:hover path { stroke: red; }
.edge:hover polygon { stroke: red; fill: red; }
]]></style>
<script type="text/javascript"><![CDATA[
var edges = document.getElementsByTagName('g');
if (edges && edges.length) {
  for (var i=0;i<edges.length;i++) {
    if (edges[i].id.substr(0,4)=='edge') {
      edges[i].setAttribute('class','edge');
    }
  }
}
]]></script>
        <defs>
                <circle id="rim" cx="0" cy="0" r="7"/>
                <circle id="rim2" cx="0" cy="0" r="3.5"/>
                <g id="zoomPlus">
                        <use xlink:href="#rim" fill="#404040">
                                <set attributeName="fill" to="#808080" begin="zoomplus.mouseover" end="zoomplus.mouseout"/>
                        </use>
                        <path d="M-4,0h8M0,-4v8" fill="none" stroke="white" stroke-width="1.5" pointer-events="none"/>
                </g>
                <g id="zoomMin">
                        <use xlink:href="#rim" fill="#404040">
                                <set attributeName="fill" to="#808080" begin="zoomminus.mouseover" end="zoomminus.mouseout"/>
                        </use>
                        <path d="M-4,0h8" fill="none" stroke="white" stroke-width="1.5" pointer-events="none"/>
                </g>
                <g id="dirArrow">
                        <path fill="none" stroke="white" stroke-width="1.5" d="M0,-3.0v7 M-2.5,-0.5L0,-3.0L2.5,-0.5"/>
                </g>
               <g id="resetDef">
                       <use xlink:href="#rim2" fill="#404040">
                               <set attributeName="fill" to="#808080" begin="reset.mouseover" end="reset.mouseout"/>
                       </use>
               </g>
        </defs>

<script type="text/javascript">
var viewWidth = 1342;
var viewHeight = 486;
var sectionId = 'dynsection-23';
</script>
<script xlink:href="svgpan.js"/>
<svg id="graph" class="graph">
<g id="viewport">
<title>isRecording</title>
<polygon fill="#ffffff" stroke="transparent" points="-4,4 -4,-482 1338,-482 1338,4 -4,4"/>
<!-- Node372 -->
<g id="node1" class="node">
<title>Node372</title>
<polygon fill="#bfbfbf" stroke="#000000" points="0,-145.5 0,-164.5 68,-164.5 68,-145.5 0,-145.5"/>
<text text-anchor="middle" x="34" y="-152.5" font-family="Helvetica,sans-Serif" font-size="10.00" fill="#000000">isRecording</text>
</g>
<!-- Node373 -->
<g id="node2" class="node">
<title>Node373</title>
<g id="a_node2"><a xlink:href="classSpikeMonitorCore.html#a3a3ffdb35b09328d22e5d72503ed1f55" target="_top" xlink:title="returns recording status ">
<polygon fill="#ffffff" stroke="#000000" points="104,-145.5 104,-164.5 256,-164.5 256,-145.5 104,-145.5"/>
<text text-anchor="middle" x="180" y="-152.5" font-family="Helvetica,sans-Serif" font-size="10.00" fill="#000000">SpikeMonitorCore::isRecording</text>
</a>
</g>
</g>
<!-- Node372&#45;&gt;Node373 -->
<g id="edge1" class="edge">
<title>Node372&#45;&gt;Node373</title>
<path fill="none" stroke="#191970" d="M68.2305,-155C76.0689,-155 84.7474,-155 93.7022,-155"/>
<polygon fill="#191970" stroke="#191970" points="93.8998,-158.5001 103.8998,-155 93.8997,-151.5001 93.8998,-158.5001"/>
</g>
<!-- Node374 -->
<g id="node3" class="node">
<title>Node374</title>
<g id="a_node3"><a xlink:href="classSpikeMonitorCore.html#af0ba89c38f6852cdf9d914687ad6a445" target="_top" xlink:title="prints the AER vector in human&#45;readable format ">
<polygon fill="#ffffff" stroke="#000000" points="304,-240.5 304,-259.5 423,-259.5 423,-240.5 304,-240.5"/>
<text text-anchor="middle" x="363.5" y="-247.5" font-family="Helvetica,sans-Serif" font-size="10.00" fill="#000000">SpikeMonitorCore::print</text>
</a>
</g>
</g>
<!-- Node373&#45;&gt;Node374 -->
<g id="edge2" class="edge">
<title>Node373&#45;&gt;Node374</title>
<path fill="none" stroke="#191970" d="M208.2697,-164.5995C245.4193,-181.371 309.8028,-214.8926 342.7587,-234.7944"/>
<polygon fill="#191970" stroke="#191970" points="341.2034,-237.949 351.543,-240.2608 344.9018,-232.0057 341.2034,-237.949"/>
</g>
<!-- Node385 -->
<g id="node14" class="node">
<title>Node385</title>
<g id="a_node14"><a xlink:href="classSpikeMonitorCore.html#a6e116c2994e0449c41e56d03370fa54c" target="_top" xlink:title="inserts a (time,neurId) tupel into the 2D spike vector ">
<polygon fill="#ffffff" stroke="#000000" points="292,-.5 292,-19.5 435,-19.5 435,-.5 292,-.5"/>
<text text-anchor="middle" x="363.5" y="-7.5" font-family="Helvetica,sans-Serif" font-size="10.00" fill="#000000">SpikeMonitorCore::pushAER</text>
</a>
</g>
</g>
<!-- Node373&#45;&gt;Node385 -->
<g id="edge25" class="edge">
<title>Node373&#45;&gt;Node385</title>
<path fill="none" stroke="#191970" d="M183.9008,-145.2409C196.8559,-120.4667 240.5578,-58.2585 292,-25 292.1856,-24.88 292.3718,-24.7606 292.5586,-24.6417"/>
<polygon fill="#191970" stroke="#191970" points="294.3736,-27.6361 301.3452,-19.6582 290.9202,-21.5473 294.3736,-27.6361"/>
</g>
<!-- Node374&#45;&gt;Node373 -->
<g id="edge3" class="edge">
<title>Node374&#45;&gt;Node373</title>
<path fill="none" stroke="#191970" d="M335.2882,-240.4266C298.0635,-223.6258 233.4219,-189.9655 200.5175,-170.0703"/>
<polygon fill="#191970" stroke="#191970" points="202.0957,-166.9298 191.7579,-164.6104 198.393,-172.8703 202.0957,-166.9298"/>
</g>
<!-- Node375 -->
<g id="node4" class="node">
<title>Node375</title>
<g id="a_node4"><a xlink:href="classSNN.html#a5fd2b156623d78138bcb44167eabab78" target="_top" xlink:title="SNN::getSimTime">
<polygon fill="#ffffff" stroke="#000000" points="488,-316.5 488,-335.5 585,-335.5 585,-316.5 488,-316.5"/>
<text text-anchor="middle" x="536.5" y="-323.5" font-family="Helvetica,sans-Serif" font-size="10.00" fill="#000000">SNN::getSimTime</text>
</a>
</g>
</g>
<!-- Node374&#45;&gt;Node375 -->
<g id="edge4" class="edge">
<title>Node374&#45;&gt;Node375</title>
<path fill="none" stroke="#191970" d="M379.037,-259.5498C399.5136,-271.8255 436.9332,-293.198 471,-307 476.7613,-309.3342 482.9143,-311.51 489.056,-313.4944"/>
<polygon fill="#191970" stroke="#191970" points="488.0527,-316.8476 498.6401,-316.4502 490.1158,-310.1584 488.0527,-316.8476"/>
</g>
<!-- Node376 -->
<g id="node5" class="node">
<title>Node376</title>
<g id="a_node5"><a xlink:href="classSNN.html#ab0367f8ebd4019bf7d34ebddb1563fe7" target="_top" xlink:title="SNN::getGroupName">
<polygon fill="#ffffff" stroke="#000000" points="481.5,-278.5 481.5,-297.5 591.5,-297.5 591.5,-278.5 481.5,-278.5"/>
<text text-anchor="middle" x="536.5" y="-285.5" font-family="Helvetica,sans-Serif" font-size="10.00" fill="#000000">SNN::getGroupName</text>
</a>
</g>
</g>
<!-- Node374&#45;&gt;Node376 -->
<g id="edge5" class="edge">
<title>Node374&#45;&gt;Node376</title>
<path fill="none" stroke="#191970" d="M407.1552,-259.589C430.2929,-264.6713 458.9024,-270.9554 483.3268,-276.3203"/>
<polygon fill="#191970" stroke="#191970" points="482.6406,-279.753 493.1587,-278.4799 484.1425,-272.916 482.6406,-279.753"/>
</g>
<!-- Node377 -->
<g id="node6" class="node">
<title>Node377</title>
<g id="a_node6"><a xlink:href="classSpikeMonitorCore.html#af6c333e6cefff92d0e354eca70625cdc" target="_top" xlink:title="returns the total number of recorded spikes in the group ">
<polygon fill="#ffffff" stroke="#000000" points="833.5,-213 833.5,-243 964.5,-243 964.5,-213 833.5,-213"/>
<text text-anchor="start" x="841.5" y="-231" font-family="Helvetica,sans-Serif" font-size="10.00" fill="#000000">SpikeMonitorCore::getPop</text>
<text text-anchor="middle" x="899" y="-220" font-family="Helvetica,sans-Serif" font-size="10.00" fill="#000000">NumSpikes</text>
</a>
</g>
</g>
<!-- Node374&#45;&gt;Node377 -->
<g id="edge6" class="edge">
<title>Node374&#45;&gt;Node377</title>
<path fill="none" stroke="#191970" d="M423.1117,-247.551C520.9605,-243.531 715.4864,-235.5393 823.0587,-231.1199"/>
<polygon fill="#191970" stroke="#191970" points="823.3434,-234.6113 833.1913,-230.7036 823.056,-227.6172 823.3434,-234.6113"/>
</g>
<!-- Node380 -->
<g id="node9" class="node">
<title>Node380</title>
<g id="a_node9"><a xlink:href="classSpikeMonitorCore.html#a9cf20c30ff0efdbc5e3c5194648a7fb3" target="_top" xlink:title="returns the total recorded time in ms ">
<polygon fill="#ffffff" stroke="#000000" points="820,-349 820,-379 978,-379 978,-349 820,-349"/>
<text text-anchor="start" x="828" y="-367" font-family="Helvetica,sans-Serif" font-size="10.00" fill="#000000">SpikeMonitorCore::getRecording</text>
<text text-anchor="middle" x="899" y="-356" font-family="Helvetica,sans-Serif" font-size="10.00" fill="#000000">TotalTime</text>
</a>
</g>
</g>
<!-- Node374&#45;&gt;Node380 -->
<g id="edge11" class="edge">
<title>Node374&#45;&gt;Node380</title>
<path fill="none" stroke="#191970" d="M370.5129,-259.5742C385.9749,-279.7978 425.2775,-326.5225 471,-345 581.2263,-389.545 720.6606,-385.8715 809.8585,-376.8267"/>
<polygon fill="#191970" stroke="#191970" points="810.3669,-380.2926 819.943,-375.7595 809.6302,-373.3314 810.3669,-380.2926"/>
</g>
<!-- Node381 -->
<g id="node10" class="node">
<title>Node381</title>
<g id="a_node10"><a xlink:href="classSpikeMonitorCore.html#ae62d623e8edfc6b05309256c1d825bbd" target="_top" xlink:title="returns the recorded mean firing rate of the group ">
<polygon fill="#ffffff" stroke="#000000" points="645.5,-191 645.5,-221 776.5,-221 776.5,-191 645.5,-191"/>
<text text-anchor="start" x="653.5" y="-209" font-family="Helvetica,sans-Serif" font-size="10.00" fill="#000000">SpikeMonitorCore::getPop</text>
<text text-anchor="middle" x="711" y="-198" font-family="Helvetica,sans-Serif" font-size="10.00" fill="#000000">MeanFiringRate</text>
</a>
</g>
</g>
<!-- Node374&#45;&gt;Node381 -->
<g id="edge12" class="edge">
<title>Node374&#45;&gt;Node381</title>
<path fill="none" stroke="#191970" d="M423.1974,-242.1699C438.7566,-240.1443 455.5044,-237.9775 471,-236 525.9101,-228.9926 587.9099,-221.2469 635.137,-215.3815"/>
<polygon fill="#191970" stroke="#191970" points="635.793,-218.827 645.2857,-214.1218 634.9307,-211.8803 635.793,-218.827"/>
</g>
<!-- Node382 -->
<g id="node11" class="node">
<title>Node382</title>
<g id="a_node11"><a xlink:href="classSpikeMonitorCore.html#ad0c4b32bb5cc0c7a8d95ed6023a2695f" target="_top" xlink:title="computes the standard deviation of firing rates in the group ">
<polygon fill="#ffffff" stroke="#000000" points="471,-115 471,-145 602,-145 602,-115 471,-115"/>
<text text-anchor="start" x="479" y="-133" font-family="Helvetica,sans-Serif" font-size="10.00" fill="#000000">SpikeMonitorCore::getPop</text>
<text text-anchor="middle" x="536.5" y="-122" font-family="Helvetica,sans-Serif" font-size="10.00" fill="#000000">StdFiringRate</text>
</a>
</g>
</g>
<!-- Node374&#45;&gt;Node382 -->
<g id="edge16" class="edge">
<title>Node374&#45;&gt;Node382</title>
<path fill="none" stroke="#191970" d="M377.3649,-240.3827C405.2009,-221.0745 468.4531,-177.2001 506.2946,-150.9517"/>
<polygon fill="#191970" stroke="#191970" points="508.6525,-153.5758 514.8745,-145.0004 504.6628,-147.824 508.6525,-153.5758"/>
</g>
<!-- Node384 -->
<g id="node13" class="node">
<title>Node384</title>
<g id="a_node13"><a xlink:href="classSpikeMonitorCore.html#aed09edf4583ac05d42fccc7e3556e3c5" target="_top" xlink:title="returns the recorded mean firing rate for a specific neuron ">
<polygon fill="#ffffff" stroke="#000000" points="638,-393 638,-423 784,-423 784,-393 638,-393"/>
<text text-anchor="start" x="646" y="-411" font-family="Helvetica,sans-Serif" font-size="10.00" fill="#000000">SpikeMonitorCore::getNeuron</text>
<text text-anchor="middle" x="711" y="-400" font-family="Helvetica,sans-Serif" font-size="10.00" fill="#000000">MeanFiringRate</text>
</a>
</g>
</g>
<!-- Node374&#45;&gt;Node384 -->
<g id="edge21" class="edge">
<title>Node374&#45;&gt;Node384</title>
<path fill="none" stroke="#191970" d="M368.3776,-259.8309C381.2447,-284.5916 418.7437,-349.568 471,-378 518.607,-403.9023 579.216,-411.3118 627.6149,-412.2915"/>
<polygon fill="#191970" stroke="#191970" points="627.7089,-415.7927 637.7483,-412.4073 627.789,-408.7931 627.7089,-415.7927"/>
</g>
<!-- Node377&#45;&gt;Node373 -->
<g id="edge7" class="edge">
<title>Node377&#45;&gt;Node373</title>
<path fill="none" stroke="#191970" d="M892.2266,-212.7709C877.6276,-182.1 839.929,-113.5566 784,-87 586.3379,6.8552 504.7514,-53.8535 292,-105 260.7989,-112.5009 227.5206,-128.4973 205.4228,-140.3878"/>
<polygon fill="#191970" stroke="#191970" points="203.4653,-137.4698 196.39,-145.3559 206.8389,-143.6033 203.4653,-137.4698"/>
</g>
<!-- Node378 -->
<g id="node7" class="node">
<title>Node378</title>
<g id="a_node7"><a xlink:href="classSpikeMonitorCore.html#a005a2f884f6260054483d4fa6ed6ddbb" target="_top" xlink:title="returns the number of recorded spikes of a specific neuron ">
<polygon fill="#ffffff" stroke="#000000" points="1014,-314 1014,-344 1160,-344 1160,-314 1014,-314"/>
<text text-anchor="start" x="1022" y="-332" font-family="Helvetica,sans-Serif" font-size="10.00" fill="#000000">SpikeMonitorCore::getNeuron</text>
<text text-anchor="middle" x="1087" y="-321" font-family="Helvetica,sans-Serif" font-size="10.00" fill="#000000">NumSpikes</text>
</a>
</g>
</g>
<!-- Node377&#45;&gt;Node378 -->
<g id="edge8" class="edge">
<title>Node377&#45;&gt;Node378</title>
<path fill="none" stroke="#191970" d="M927.1455,-243.1207C959.774,-260.6499 1013.6764,-289.6081 1049.7529,-308.9896"/>
<polygon fill="#191970" stroke="#191970" points="1048.5039,-312.2917 1058.9695,-313.9411 1051.8168,-306.1252 1048.5039,-312.2917"/>
</g>
<!-- Node378&#45;&gt;Node373 -->
<g id="edge9" class="edge">
<title>Node378&#45;&gt;Node373</title>
<path fill="none" stroke="#191970" d="M1071.8056,-344.1218C1051.9377,-363.0372 1015.2581,-395.1083 978,-413 867.9038,-465.8694 833.1325,-478 711,-478 536.5,-478 536.5,-478 536.5,-478 414.6572,-478 379.9996,-438.2719 292,-354 235.9915,-300.364 200.1842,-212.5088 186.407,-174.0434"/>
<polygon fill="#191970" stroke="#191970" points="189.7028,-172.8646 183.1069,-164.5733 183.0926,-175.1681 189.7028,-172.8646"/>
</g>
<!-- Node379 -->
<g id="node8" class="node">
<title>Node379</title>
<g id="a_node8"><a xlink:href="classSpikeMonitorCore.html#abe76071e1ac3632d55f2455b239b3d12" target="_top" xlink:title="returns recording mode ">
<polygon fill="#ffffff" stroke="#000000" points="1196,-98.5 1196,-117.5 1334,-117.5 1334,-98.5 1196,-98.5"/>
<text text-anchor="middle" x="1265" y="-105.5" font-family="Helvetica,sans-Serif" font-size="10.00" fill="#000000">SpikeMonitorCore::getMode</text>
</a>
</g>
</g>
<!-- Node378&#45;&gt;Node379 -->
<g id="edge10" class="edge">
<title>Node378&#45;&gt;Node379</title>
<path fill="none" stroke="#191970" d="M1099.2347,-313.8098C1131.0597,-274.2967 1216.3266,-168.4316 1250.5203,-125.9776"/>
<polygon fill="#191970" stroke="#191970" points="1253.4572,-127.911 1257.0041,-117.9275 1248.0055,-123.5201 1253.4572,-127.911"/>
</g>
<!-- Node381&#45;&gt;Node373 -->
<g id="edge13" class="edge">
<title>Node381&#45;&gt;Node373</title>
<path fill="none" stroke="#191970" d="M645.1062,-199.6712C549.4439,-190.4833 371.9969,-173.4404 266.099,-163.2694"/>
<polygon fill="#191970" stroke="#191970" points="266.3682,-159.7792 256.0794,-162.3071 265.6989,-166.7472 266.3682,-159.7792"/>
</g>
<!-- Node381&#45;&gt;Node377 -->
<g id="edge14" class="edge">
<title>Node381&#45;&gt;Node377</title>
<path fill="none" stroke="#191970" d="M776.7533,-213.6945C791.78,-215.453 807.8685,-217.3357 823.2756,-219.1386"/>
<polygon fill="#191970" stroke="#191970" points="822.9448,-222.6237 833.2838,-220.3098 823.7585,-215.6712 822.9448,-222.6237"/>
</g>
<!-- Node381&#45;&gt;Node380 -->
<g id="edge15" class="edge">
<title>Node381&#45;&gt;Node380</title>
<path fill="none" stroke="#191970" d="M729.0262,-221.1497C762.5744,-249.3445 834.6852,-309.9482 873.3185,-342.4166"/>
<polygon fill="#191970" stroke="#191970" points="871.121,-345.1417 881.0283,-348.8962 875.6247,-339.7829 871.121,-345.1417"/>
</g>
<!-- Node382&#45;&gt;Node373 -->
<g id="edge17" class="edge">
<title>Node382&#45;&gt;Node373</title>
<path fill="none" stroke="#191970" d="M470.7554,-134.6104C413.2333,-138.6442 329.2727,-144.5321 266.3465,-148.9448"/>
<polygon fill="#191970" stroke="#191970" points="265.7716,-145.4765 256.0409,-149.6675 266.2613,-152.4593 265.7716,-145.4765"/>
</g>
<!-- Node382&#45;&gt;Node381 -->
<g id="edge18" class="edge">
<title>Node382&#45;&gt;Node381</title>
<path fill="none" stroke="#191970" d="M570.9756,-145.0152C598.4907,-156.9988 637.2221,-173.8675 666.9779,-186.827"/>
<polygon fill="#191970" stroke="#191970" points="665.7321,-190.1019 676.2978,-190.8862 668.5272,-183.6842 665.7321,-190.1019"/>
</g>
<!-- Node383 -->
<g id="node12" class="node">
<title>Node383</title>
<g id="a_node12"><a xlink:href="classSpikeMonitorCore.html#a0fc20fcc5876030d796debd148ae7cee" target="_top" xlink:title="returns a list of firing rates for all neurons in the group (sorted by neuron ID ascending) ...">
<polygon fill="#ffffff" stroke="#000000" points="648.5,-96 648.5,-126 773.5,-126 773.5,-96 648.5,-96"/>
<text text-anchor="start" x="656.5" y="-114" font-family="Helvetica,sans-Serif" font-size="10.00" fill="#000000">SpikeMonitorCore::getAll</text>
<text text-anchor="middle" x="711" y="-103" font-family="Helvetica,sans-Serif" font-size="10.00" fill="#000000">FiringRates</text>
</a>
</g>
</g>
<!-- Node382&#45;&gt;Node383 -->
<g id="edge19" class="edge">
<title>Node382&#45;&gt;Node383</title>
<path fill="none" stroke="#191970" d="M602.471,-122.8169C614.116,-121.549 626.2997,-120.2224 638.1214,-118.9352"/>
<polygon fill="#191970" stroke="#191970" points="638.832,-122.3786 648.3943,-117.8167 638.0742,-115.4197 638.832,-122.3786"/>
</g>
<!-- Node383&#45;&gt;Node373 -->
<g id="edge20" class="edge">
<title>Node383&#45;&gt;Node373</title>
<path fill="none" stroke="#191970" d="M648.4774,-107.6393C633.2729,-106.9581 617.0561,-106.3451 602,-106 543.7931,-104.6657 529.0592,-101.6459 471,-106 390.7698,-112.0168 371.2706,-119.2429 292,-133 273.8021,-136.1582 254.0086,-139.933 236.1938,-143.4567"/>
<polygon fill="#191970" stroke="#191970" points="235.0836,-140.1091 225.9604,-145.4959 236.4516,-146.9741 235.0836,-140.1091"/>
</g>
<!-- Node384&#45;&gt;Node373 -->
<g id="edge22" class="edge">
<title>Node384&#45;&gt;Node373</title>
<path fill="none" stroke="#191970" d="M637.8395,-420.0807C589.2273,-425.2173 524.7051,-426.4034 471,-408 338.6454,-362.6454 228.4504,-222.7268 192.4442,-172.8712"/>
<polygon fill="#191970" stroke="#191970" points="195.2456,-170.7713 186.5957,-164.6533 189.5424,-174.8301 195.2456,-170.7713"/>
</g>
<!-- Node384&#45;&gt;Node378 -->
<g id="edge23" class="edge">
<title>Node384&#45;&gt;Node378</title>
<path fill="none" stroke="#191970" d="M784.1733,-411.1643C838.689,-411.5292 914.3777,-407.7862 978,-389 1006.8224,-380.4894 1036.51,-363.5084 1057.6098,-349.7771"/>
<polygon fill="#191970" stroke="#191970" points="1059.7147,-352.5805 1066.0992,-344.1254 1055.8356,-346.7536 1059.7147,-352.5805"/>
</g>
<!-- Node384&#45;&gt;Node380 -->
<g id="edge24" class="edge">
<title>Node384&#45;&gt;Node380</title>
<path fill="none" stroke="#191970" d="M775.1731,-392.9808C791.1172,-389.2492 808.3385,-385.2186 824.7227,-381.384"/>
<polygon fill="#191970" stroke="#191970" points="825.8579,-384.713 834.7971,-379.0262 824.2626,-377.8972 825.8579,-384.713"/>
</g>
<!-- Node385&#45;&gt;Node373 -->
<g id="edge26" class="edge">
<title>Node385&#45;&gt;Node373</title>
<path fill="none" stroke="#191970" d="M348.2992,-19.5979C333.1247,-25.0941 309.5934,-31.6255 292,-43 251.7892,-68.9972 216.3078,-112.6828 196.5438,-137.3298"/>
<polygon fill="#191970" stroke="#191970" points="193.7608,-135.2056 190.2265,-145.1936 199.2179,-139.5896 193.7608,-135.2056"/>
</g>
<!-- Node385&#45;&gt;Node379 -->
<g id="edge27" class="edge">
<title>Node385&#45;&gt;Node379</title>
<path fill="none" stroke="#191970" d="M435.0446,-10C505.3016,-10 615.528,-10 711,-10 711,-10 711,-10 899,-10 1027.6726,-10 1173.3973,-67.2176 1234.989,-94.2126"/>
<polygon fill="#191970" stroke="#191970" points="1233.9159,-97.5655 1244.4758,-98.4249 1236.7566,-91.1678 1233.9159,-97.5655"/>
</g>
</g>
</svg>
        <g id="navigator" transform="translate(0 0)" fill="#404254">
                <rect fill="#f2f5e9" fill-opacity="0.5" stroke="#606060" stroke-width=".5" x="0" y="0" width="60" height="60"/>
                <use id="zoomplus" xlink:href="#zoomPlus" x="17" y="9" onmousedown="handleZoom(evt,'in')"/>
                <use id="zoomminus" xlink:href="#zoomMin" x="42" y="9" onmousedown="handleZoom(evt,'out')"/>
                <use id="reset" xlink:href="#resetDef" x="30" y="36" onmousedown="handleReset()"/>
                <g id="arrowUp" xlink:href="#dirArrow" transform="translate(30 24)" onmousedown="handlePan(0,-1)">
                  <use xlink:href="#rim" fill="#404040">
                        <set attributeName="fill" to="#808080" begin="arrowUp.mouseover" end="arrowUp.mouseout"/>
                  </use>
                  <path fill="none" stroke="white" stroke-width="1.5" d="M0,-3.0v7 M-2.5,-0.5L0,-3.0L2.5,-0.5"/>
                </g>
                <g id="arrowRight" xlink:href="#dirArrow" transform="rotate(90) translate(36 -43)" onmousedown="handlePan(1,0)">
                  <use xlink:href="#rim" fill="#404040">
                        <set attributeName="fill" to="#808080" begin="arrowRight.mouseover" end="arrowRight.mouseout"/>
                  </use>
                  <path fill="none" stroke="white" stroke-width="1.5" d="M0,-3.0v7 M-2.5,-0.5L0,-3.0L2.5,-0.5"/>
                </g>
                <g id="arrowDown" xlink:href="#dirArrow" transform="rotate(180) translate(-30 -48)" onmousedown="handlePan(0,1)">
                  <use xlink:href="#rim" fill="#404040">
                        <set attributeName="fill" to="#808080" begin="arrowDown.mouseover" end="arrowDown.mouseout"/>
                  </use>
                  <path fill="none" stroke="white" stroke-width="1.5" d="M0,-3.0v7 M-2.5,-0.5L0,-3.0L2.5,-0.5"/>
                </g>
                <g id="arrowLeft" xlink:href="#dirArrow" transform="rotate(270) translate(-36 17)" onmousedown="handlePan(-1,0)">
                  <use xlink:href="#rim" fill="#404040">
                        <set attributeName="fill" to="#808080" begin="arrowLeft.mouseover" end="arrowLeft.mouseout"/>
                  </use>
                  <path fill="none" stroke="white" stroke-width="1.5" d="M0,-3.0v7 M-2.5,-0.5L0,-3.0L2.5,-0.5"/>
                </g>
        </g>
        <svg viewBox="0 0 15 15" width="100%" height="30px" preserveAspectRatio="xMaxYMin meet">
         <g id="arrow_out" transform="scale(0.3 0.3)">
          <a xlink:href="classSpikeMonitor_a3a3ffdb35b09328d22e5d72503ed1f55_cgraph_org.svg" target="_base">
           <rect id="button" ry="5" rx="5" y="6" x="6" height="38" width="38"
                fill="#f2f5e9" fill-opacity="0.5" stroke="#606060" stroke-width="1.0"/>
           <path id="arrow"
             d="M 11.500037,31.436501 C 11.940474,20.09759 22.043105,11.32322 32.158766,21.979434 L 37.068811,17.246167 C 37.068811,17.246167 37.088388,32 37.088388,32 L 22.160133,31.978069 C 22.160133,31.978069 26.997745,27.140456 26.997745,27.140456 C 18.528582,18.264221 13.291696,25.230495 11.500037,31.436501 z"
             style="fill:#404040;"/>
          </a>
         </g>
        </svg>
</svg>
