<?xml version="1.0" encoding="UTF-8" standalone="no"?>
<!DOCTYPE svg PUBLIC "-//W3C//DTD SVG 1.1//EN"
 "http://www.w3.org/Graphics/SVG/1.1/DTD/svg11.dtd">
<!-- Generated by graphviz version 2.40.1 (20161225.0304)
 -->
<!-- Title: updateGroupMonitor Pages: 1 -->
<svg width="1015pt" height="148pt"
 viewBox="0.00 0.00 1015.00 147.50" xmlns="http://www.w3.org/2000/svg" xmlns:xlink="http://www.w3.org/1999/xlink">
<g id="graph0" class="graph" transform="scale(1 1) rotate(0) translate(4 143.5)">
<title>updateGroupMonitor</title>
<polygon fill="#ffffff" stroke="transparent" points="-4,4 -4,-143.5 1011,-143.5 1011,4 -4,4"/>
<!-- Node2008 -->
<g id="node1" class="node">
<title>Node2008</title>
<polygon fill="#bfbfbf" stroke="#000000" points="0,-44 0,-63 104,-63 104,-44 0,-44"/>
<text text-anchor="middle" x="52" y="-51" font-family="Helvetica,sans-Serif" font-size="10.00" fill="#000000">updateGroupMonitor</text>
</g>
<!-- Node2009 -->
<g id="node2" class="node">
<title>Node2009</title>
<g id="a_node2"><a xlink:href="classGroupMonitorCore.html#ab91616c118b701c2afd9136393d1f19b" target="_top" xlink:title="starts recording group data ">
<polygon fill="#ffffff" stroke="#000000" points="140,-82 140,-101 306,-101 306,-82 140,-82"/>
<text text-anchor="middle" x="223" y="-89" font-family="Helvetica,sans-Serif" font-size="10.00" fill="#000000">GroupMonitorCore::startRecording</text>
</a>
</g>
</g>
<!-- Node2008&#45;&gt;Node2009 -->
<g id="edge1" class="edge">
<title>Node2008&#45;&gt;Node2009</title>
<path fill="none" stroke="#191970" d="M105.2092,-65.3243C129.3172,-70.6816 157.4401,-76.9311 180.1598,-81.9799"/>
<polygon fill="#191970" stroke="#191970" points="105.6717,-61.8417 95.1505,-63.089 104.1531,-68.675 105.6717,-61.8417"/>
</g>
<!-- Node2013 -->
<g id="node6" class="node">
<title>Node2013</title>
<g id="a_node6"><a xlink:href="classGroupMonitorCore.html#a25e0e98dd4519eaaa6b258f0dcb91ac7" target="_top" xlink:title="stops recording group data ">
<polygon fill="#ffffff" stroke="#000000" points="140.5,-44 140.5,-63 305.5,-63 305.5,-44 140.5,-44"/>
<text text-anchor="middle" x="223" y="-51" font-family="Helvetica,sans-Serif" font-size="10.00" fill="#000000">GroupMonitorCore::stopRecording</text>
</a>
</g>
</g>
<!-- Node2008&#45;&gt;Node2013 -->
<g id="edge5" class="edge">
<title>Node2008&#45;&gt;Node2013</title>
<path fill="none" stroke="#191970" d="M114.3247,-53.5C122.7485,-53.5 131.497,-53.5 140.208,-53.5"/>
<polygon fill="#191970" stroke="#191970" points="114.2348,-50.0001 104.2348,-53.5 114.2348,-57.0001 114.2348,-50.0001"/>
</g>
<!-- Node2015 -->
<g id="node8" class="node">
<title>Node2015</title>
<g id="a_node8"><a xlink:href="classSNN.html#a3df37c7539f784fe7a939c5da922f41b" target="_top" xlink:title="run the simulation for n sec ">
<polygon fill="#ffffff" stroke="#000000" points="189.5,-6 189.5,-25 256.5,-25 256.5,-6 189.5,-6"/>
<text text-anchor="middle" x="223" y="-13" font-family="Helvetica,sans-Serif" font-size="10.00" fill="#000000">runNetwork</text>
</a>
</g>
</g>
<!-- Node2008&#45;&gt;Node2015 -->
<g id="edge8" class="edge">
<title>Node2008&#45;&gt;Node2015</title>
<path fill="none" stroke="#191970" d="M105.0178,-41.7183C132.5176,-35.6072 165.2833,-28.3259 189.2988,-22.9891"/>
<polygon fill="#191970" stroke="#191970" points="104.1531,-38.325 95.1505,-43.911 105.6717,-45.1583 104.1531,-38.325"/>
</g>
<!-- Node2010 -->
<g id="node3" class="node">
<title>Node2010</title>
<g id="a_node3"><a xlink:href="classGroupMonitor.html#ab91616c118b701c2afd9136393d1f19b" target="_top" xlink:title="Starts a new recording period. ">
<polygon fill="#ffffff" stroke="#000000" points="360,-120 360,-139 505,-139 505,-120 360,-120"/>
<text text-anchor="middle" x="432.5" y="-127" font-family="Helvetica,sans-Serif" font-size="10.00" fill="#000000">GroupMonitor::startRecording</text>
</a>
</g>
</g>
<!-- Node2009&#45;&gt;Node2010 -->
<g id="edge2" class="edge">
<title>Node2009&#45;&gt;Node2010</title>
<path fill="none" stroke="#191970" d="M285.5575,-102.847C315.616,-108.2991 351.2397,-114.7607 379.8831,-119.9561"/>
<polygon fill="#191970" stroke="#191970" points="286.0594,-99.3809 275.5953,-101.04 284.8101,-106.2686 286.0594,-99.3809"/>
</g>
<!-- Node2011 -->
<g id="node4" class="node">
<title>Node2011</title>
<g id="a_node4"><a xlink:href="classGroupMonitorCore.html#a7ac2c997b5281ea2f2bc00cc9706d37c" target="_top" xlink:title="sets status of PersistentData mode ">
<polygon fill="#ffffff" stroke="#000000" points="342,-82 342,-101 523,-101 523,-82 342,-82"/>
<text text-anchor="middle" x="432.5" y="-89" font-family="Helvetica,sans-Serif" font-size="10.00" fill="#000000">GroupMonitorCore::setPersistentData</text>
</a>
</g>
</g>
<!-- Node2009&#45;&gt;Node2011 -->
<g id="edge3" class="edge">
<title>Node2009&#45;&gt;Node2011</title>
<path fill="none" stroke="#191970" d="M316.1055,-91.5C324.6811,-91.5 333.3622,-91.5 341.9149,-91.5"/>
<polygon fill="#191970" stroke="#191970" points="316.1009,-88.0001 306.1008,-91.5 316.1008,-95.0001 316.1009,-88.0001"/>
</g>
<!-- Node2012 -->
<g id="node5" class="node">
<title>Node2012</title>
<g id="a_node5"><a xlink:href="classGroupMonitor.html#a7ac2c997b5281ea2f2bc00cc9706d37c" target="_top" xlink:title="Sets PersistentMode either on (true) or off (false) ">
<polygon fill="#ffffff" stroke="#000000" points="559,-82 559,-101 719,-101 719,-82 559,-82"/>
<text text-anchor="middle" x="639" y="-89" font-family="Helvetica,sans-Serif" font-size="10.00" fill="#000000">GroupMonitor::setPersistentData</text>
</a>
</g>
</g>
<!-- Node2011&#45;&gt;Node2012 -->
<g id="edge4" class="edge">
<title>Node2011&#45;&gt;Node2012</title>
<path fill="none" stroke="#191970" d="M533.1716,-91.5C541.795,-91.5 550.4425,-91.5 558.8731,-91.5"/>
<polygon fill="#191970" stroke="#191970" points="533.0739,-88.0001 523.0739,-91.5 533.0739,-95.0001 533.0739,-88.0001"/>
</g>
<!-- Node2013&#45;&gt;Node2011 -->
<g id="edge7" class="edge">
<title>Node2013&#45;&gt;Node2011</title>
<path fill="none" stroke="#191970" d="M285.5575,-64.847C315.616,-70.2991 351.2397,-76.7607 379.8831,-81.9561"/>
<polygon fill="#191970" stroke="#191970" points="286.0594,-61.3809 275.5953,-63.04 284.8101,-68.2686 286.0594,-61.3809"/>
</g>
<!-- Node2014 -->
<g id="node7" class="node">
<title>Node2014</title>
<g id="a_node7"><a xlink:href="classGroupMonitor.html#a25e0e98dd4519eaaa6b258f0dcb91ac7" target="_top" xlink:title="Ends a recording period. ">
<polygon fill="#ffffff" stroke="#000000" points="360.5,-44 360.5,-63 504.5,-63 504.5,-44 360.5,-44"/>
<text text-anchor="middle" x="432.5" y="-51" font-family="Helvetica,sans-Serif" font-size="10.00" fill="#000000">GroupMonitor::stopRecording</text>
</a>
</g>
</g>
<!-- Node2013&#45;&gt;Node2014 -->
<g id="edge6" class="edge">
<title>Node2013&#45;&gt;Node2014</title>
<path fill="none" stroke="#191970" d="M316.046,-53.5C330.9414,-53.5 346.1565,-53.5 360.4661,-53.5"/>
<polygon fill="#191970" stroke="#191970" points="315.8,-50.0001 305.7999,-53.5 315.7999,-57.0001 315.8,-50.0001"/>
</g>
<!-- Node2016 -->
<g id="node9" class="node">
<title>Node2016</title>
<g id="a_node9"><a xlink:href="classCARLsim_1_1Impl.html#a749f370debe5eec8661cf9ca1b1bb4c0" target="_top" xlink:title="CARLsim::Impl::runNetwork">
<polygon fill="#ffffff" stroke="#000000" points="362.5,-6 362.5,-25 502.5,-25 502.5,-6 362.5,-6"/>
<text text-anchor="middle" x="432.5" y="-13" font-family="Helvetica,sans-Serif" font-size="10.00" fill="#000000">CARLsim::Impl::runNetwork</text>
</a>
</g>
</g>
<!-- Node2015&#45;&gt;Node2016 -->
<g id="edge9" class="edge">
<title>Node2015&#45;&gt;Node2016</title>
<path fill="none" stroke="#191970" d="M266.8117,-15.5C294.4845,-15.5 330.8566,-15.5 362.471,-15.5"/>
<polygon fill="#191970" stroke="#191970" points="266.6598,-12.0001 256.6598,-15.5 266.6598,-19.0001 266.6598,-12.0001"/>
</g>
<!-- Node2017 -->
<g id="node10" class="node">
<title>Node2017</title>
<g id="a_node10"><a xlink:href="classCARLsim.html#aafb2d44405c96aafe089f96ff867018d" target="_top" xlink:title="run the simulation for time=(nSec*seconds + nMsec*milliseconds) ">
<polygon fill="#ffffff" stroke="#000000" points="581,-6 581,-25 697,-25 697,-6 581,-6"/>
<text text-anchor="middle" x="639" y="-13" font-family="Helvetica,sans-Serif" font-size="10.00" fill="#000000">CARLsim::runNetwork</text>
</a>
</g>
</g>
<!-- Node2016&#45;&gt;Node2017 -->
<g id="edge10" class="edge">
<title>Node2016&#45;&gt;Node2017</title>
<path fill="none" stroke="#191970" d="M512.9498,-15.5C535.5298,-15.5 559.641,-15.5 580.6658,-15.5"/>
<polygon fill="#191970" stroke="#191970" points="512.6997,-12.0001 502.6996,-15.5 512.6996,-19.0001 512.6997,-12.0001"/>
</g>
<!-- Node2018 -->
<g id="node11" class="node">
<title>Node2018</title>
<g id="a_node11"><a xlink:href="classSimpleWeightTuner_1_1Impl.html#a312d84bfa66a5036bb52a4c39db6fa6c" target="_top" xlink:title="SimpleWeightTuner::\lImpl::iterate">
<polygon fill="#ffffff" stroke="#000000" points="755,-.5 755,-30.5 863,-30.5 863,-.5 755,-.5"/>
<text text-anchor="start" x="763" y="-18.5" font-family="Helvetica,sans-Serif" font-size="10.00" fill="#000000">SimpleWeightTuner::</text>
<text text-anchor="middle" x="809" y="-7.5" font-family="Helvetica,sans-Serif" font-size="10.00" fill="#000000">Impl::iterate</text>
</a>
</g>
</g>
<!-- Node2017&#45;&gt;Node2018 -->
<g id="edge11" class="edge">
<title>Node2017&#45;&gt;Node2018</title>
<path fill="none" stroke="#191970" d="M707.3047,-15.5C723.1556,-15.5 739.8128,-15.5 754.9527,-15.5"/>
<polygon fill="#191970" stroke="#191970" points="707.0289,-12.0001 697.0289,-15.5 707.0288,-19.0001 707.0289,-12.0001"/>
</g>
<!-- Node2019 -->
<g id="node12" class="node">
<title>Node2019</title>
<g id="a_node12"><a xlink:href="classSimpleWeightTuner.html#a0df985e3ff7a27edc1e2e3fcc8261843" target="_top" xlink:title="Performs an iteration step of the tuning algorithm. ">
<polygon fill="#ffffff" stroke="#000000" points="899,-.5 899,-30.5 1007,-30.5 1007,-.5 899,-.5"/>
<text text-anchor="start" x="907" y="-18.5" font-family="Helvetica,sans-Serif" font-size="10.00" fill="#000000">SimpleWeightTuner::</text>
<text text-anchor="middle" x="953" y="-7.5" font-family="Helvetica,sans-Serif" font-size="10.00" fill="#000000">iterate</text>
</a>
</g>
</g>
<!-- Node2018&#45;&gt;Node2019 -->
<g id="edge12" class="edge">
<title>Node2018&#45;&gt;Node2019</title>
<path fill="none" stroke="#191970" d="M873.2702,-15.5C881.7504,-15.5 890.3754,-15.5 898.6672,-15.5"/>
<polygon fill="#191970" stroke="#191970" points="873.03,-12.0001 863.03,-15.5 873.0299,-19.0001 873.03,-12.0001"/>
</g>
</g>
</svg>
