<?xml version="1.0" encoding="UTF-8" standalone="no"?>
<!DOCTYPE svg PUBLIC "-//W3C//DTD SVG 1.1//EN"
 "http://www.w3.org/Graphics/SVG/1.1/DTD/svg11.dtd">
<!-- Generated by graphviz version 2.40.1 (20161225.0304)
 -->
<!-- Title: stopRecording Pages: 1 -->
<svg width="748pt" height="498pt"
 viewBox="0.00 0.00 748.00 497.85" xmlns="http://www.w3.org/2000/svg" xmlns:xlink="http://www.w3.org/1999/xlink">
<g id="graph0" class="graph" transform="scale(1 1) rotate(0) translate(4 493.8459)">
<title>stopRecording</title>
<polygon fill="#ffffff" stroke="transparent" points="-4,4 -4,-493.8459 744,-493.8459 744,4 -4,4"/>
<!-- Node261 -->
<g id="node1" class="node">
<title>Node261</title>
<polygon fill="#bfbfbf" stroke="#000000" points="0,-180.5 0,-199.5 80,-199.5 80,-180.5 0,-180.5"/>
<text text-anchor="middle" x="40" y="-187.5" font-family="Helvetica,sans-Serif" font-size="10.00" fill="#000000">stopRecording</text>
</g>
<!-- Node262 -->
<g id="node2" class="node">
<title>Node262</title>
<g id="a_node2"><a xlink:href="classGroupMonitorCore.html#a3a3ffdb35b09328d22e5d72503ed1f55" target="_top" xlink:title="returns recording status ">
<polygon fill="#ffffff" stroke="#000000" points="648.5,-386.5 648.5,-405.5 716.5,-405.5 716.5,-386.5 648.5,-386.5"/>
<text text-anchor="middle" x="682.5" y="-393.5" font-family="Helvetica,sans-Serif" font-size="10.00" fill="#000000">isRecording</text>
</a>
</g>
</g>
<!-- Node261&#45;&gt;Node262 -->
<g id="edge1" class="edge">
<title>Node261&#45;&gt;Node262</title>
<path fill="none" stroke="#191970" d="M45.1435,-199.554C67.2528,-239.4921 158.8021,-393.6553 284,-451 407.2667,-507.4602 459.0421,-495.6442 589,-457 618.2165,-448.3122 646.8223,-427.2779 664.5417,-412.3452"/>
<polygon fill="#191970" stroke="#191970" points="667.0681,-414.7866 672.3208,-405.5855 662.4767,-409.5028 667.0681,-414.7866"/>
</g>
<!-- Node263 -->
<g id="node3" class="node">
<title>Node263</title>
<g id="a_node3"><a xlink:href="classSNN.html#a14317186d53aeff564b126a41a333d3c" target="_top" xlink:title="access group status (currently the concentration of neuromodulator) ">
<polygon fill="#ffffff" stroke="#000000" points="116,-221.5 116,-240.5 248,-240.5 248,-221.5 116,-221.5"/>
<text text-anchor="middle" x="182" y="-228.5" font-family="Helvetica,sans-Serif" font-size="10.00" fill="#000000">SNN::updateGroupMonitor</text>
</a>
</g>
</g>
<!-- Node261&#45;&gt;Node263 -->
<g id="edge2" class="edge">
<title>Node261&#45;&gt;Node263</title>
<path fill="none" stroke="#191970" d="M72.9346,-199.5093C92.5972,-205.1865 117.7897,-212.4604 139.0079,-218.5868"/>
<polygon fill="#191970" stroke="#191970" points="138.1737,-221.9888 148.7521,-221.4003 140.1155,-215.2635 138.1737,-221.9888"/>
</g>
<!-- Node266 -->
<g id="node6" class="node">
<title>Node266</title>
<g id="a_node6"><a xlink:href="classSNN.html#a424b0cf29d7dba87e4ebf244399acad0" target="_top" xlink:title="SNN::getSimTimeMs">
<polygon fill="#ffffff" stroke="#000000" points="286,-76.5 286,-95.5 396,-95.5 396,-76.5 286,-76.5"/>
<text text-anchor="middle" x="341" y="-83.5" font-family="Helvetica,sans-Serif" font-size="10.00" fill="#000000">SNN::getSimTimeMs</text>
</a>
</g>
</g>
<!-- Node261&#45;&gt;Node266 -->
<g id="edge30" class="edge">
<title>Node261&#45;&gt;Node266</title>
<path fill="none" stroke="#191970" d="M67.039,-180.4473C112.0048,-164.5911 205.0254,-131.9169 284,-105 289.9611,-102.9683 296.2808,-100.8381 302.4584,-98.7689"/>
<polygon fill="#191970" stroke="#191970" points="303.6006,-102.0776 311.9772,-95.5904 301.3835,-95.4379 303.6006,-102.0776"/>
</g>
<!-- Node272 -->
<g id="node12" class="node">
<title>Node272</title>
<g id="a_node12"><a xlink:href="classSNN.html#a85facd004ae52ee52e72451b5d874fae" target="_top" xlink:title="SNN::getSimTimeSec">
<polygon fill="#ffffff" stroke="#000000" points="284,-38.5 284,-57.5 398,-57.5 398,-38.5 284,-38.5"/>
<text text-anchor="middle" x="341" y="-45.5" font-family="Helvetica,sans-Serif" font-size="10.00" fill="#000000">SNN::getSimTimeSec</text>
</a>
</g>
</g>
<!-- Node261&#45;&gt;Node272 -->
<g id="edge29" class="edge">
<title>Node261&#45;&gt;Node272</title>
<path fill="none" stroke="#191970" d="M47.0845,-180.4374C59.3635,-164.5315 86.1629,-132.6467 116,-115 164.8612,-86.1019 227.1564,-68.8162 273.8045,-59.0612"/>
<polygon fill="#191970" stroke="#191970" points="274.7031,-62.4503 283.8087,-57.0339 273.3128,-55.5898 274.7031,-62.4503"/>
</g>
<!-- Node263&#45;&gt;Node262 -->
<g id="edge20" class="edge">
<title>Node263&#45;&gt;Node262</title>
<path fill="none" stroke="#191970" d="M183.6952,-240.8799C189.9287,-273.7507 214.9209,-379.6806 284,-421 403.0329,-492.1991 579.4356,-436.8278 650.8114,-409.2452"/>
<polygon fill="#191970" stroke="#191970" points="652.151,-412.4792 660.1689,-405.5536 649.5821,-405.9676 652.151,-412.4792"/>
</g>
<!-- Node264 -->
<g id="node4" class="node">
<title>Node264</title>
<g id="a_node4"><a xlink:href="classGroupMonitorCore.html#a22cd4deca28f0e9e8dd2e576b75b02a8" target="_top" xlink:title="returns timestamp of last GroupMonitor update ">
<polygon fill="#ffffff" stroke="#000000" points="298,-278.5 298,-297.5 384,-297.5 384,-278.5 298,-278.5"/>
<text text-anchor="middle" x="341" y="-285.5" font-family="Helvetica,sans-Serif" font-size="10.00" fill="#000000">getLastUpdated</text>
</a>
</g>
</g>
<!-- Node263&#45;&gt;Node264 -->
<g id="edge3" class="edge">
<title>Node263&#45;&gt;Node264</title>
<path fill="none" stroke="#191970" d="M207.0618,-240.6146C227.6551,-248.4478 257.6254,-259.6945 284,-269 289.7346,-271.0233 295.8132,-273.1103 301.7819,-275.1272"/>
<polygon fill="#191970" stroke="#191970" points="301.0488,-278.5728 311.6427,-278.4316 303.273,-271.9356 301.0488,-278.5728"/>
</g>
<!-- Node265 -->
<g id="node5" class="node">
<title>Node265</title>
<g id="a_node5"><a xlink:href="classSNN.html#a5fd2b156623d78138bcb44167eabab78" target="_top" xlink:title="SNN::getSimTime">
<polygon fill="#ffffff" stroke="#000000" points="292.5,-240.5 292.5,-259.5 389.5,-259.5 389.5,-240.5 292.5,-240.5"/>
<text text-anchor="middle" x="341" y="-247.5" font-family="Helvetica,sans-Serif" font-size="10.00" fill="#000000">SNN::getSimTime</text>
</a>
</g>
</g>
<!-- Node263&#45;&gt;Node265 -->
<g id="edge4" class="edge">
<title>Node263&#45;&gt;Node265</title>
<path fill="none" stroke="#191970" d="M248.049,-238.8926C259.4155,-240.2509 271.1599,-241.6543 282.316,-242.9874"/>
<polygon fill="#191970" stroke="#191970" points="282.0235,-246.4773 292.3682,-244.1887 282.8542,-239.5268 282.0235,-246.4773"/>
</g>
<!-- Node263&#45;&gt;Node266 -->
<g id="edge5" class="edge">
<title>Node263&#45;&gt;Node266</title>
<path fill="none" stroke="#191970" d="M188.8757,-221.1305C207.6424,-194.4317 259.9422,-121.6721 284,-105 286.7436,-103.0987 289.6918,-101.3759 292.7508,-99.8166"/>
<polygon fill="#191970" stroke="#191970" points="294.4606,-102.8863 302.1657,-95.6144 291.6075,-96.4941 294.4606,-102.8863"/>
</g>
<!-- Node263&#45;&gt;Node272 -->
<g id="edge14" class="edge">
<title>Node263&#45;&gt;Node272</title>
<path fill="none" stroke="#191970" d="M185.3423,-221.2425C195.4984,-193.0332 228.7247,-110.6188 284,-67 286.303,-65.1826 288.788,-63.5352 291.3872,-62.0424"/>
<polygon fill="#191970" stroke="#191970" points="293.129,-65.0865 300.5656,-57.5401 290.0462,-58.8019 293.129,-65.0865"/>
</g>
<!-- Node273 -->
<g id="node13" class="node">
<title>Node273</title>
<g id="a_node13"><a xlink:href="classGroupMonitorCore.html#a964e44e2f5503d2e5aa92c2a1e08b487" target="_top" xlink:title="sets timestamp of last GroupMonitor update ">
<polygon fill="#ffffff" stroke="#000000" points="298,-164.5 298,-183.5 384,-183.5 384,-164.5 298,-164.5"/>
<text text-anchor="middle" x="341" y="-171.5" font-family="Helvetica,sans-Serif" font-size="10.00" fill="#000000">setLastUpdated</text>
</a>
</g>
</g>
<!-- Node263&#45;&gt;Node273 -->
<g id="edge15" class="edge">
<title>Node263&#45;&gt;Node273</title>
<path fill="none" stroke="#191970" d="M207.0618,-221.3854C227.6551,-213.5522 257.6254,-202.3055 284,-193 289.7346,-190.9767 295.8132,-188.8897 301.7819,-186.8728"/>
<polygon fill="#191970" stroke="#191970" points="303.273,-190.0644 311.6427,-183.5684 301.0488,-183.4272 303.273,-190.0644"/>
</g>
<!-- Node274 -->
<g id="node14" class="node">
<title>Node274</title>
<g id="a_node14"><a xlink:href="classGroupMonitorCore.html#ae9a0ff72777f33d1ae3125990e45f89b" target="_top" xlink:title="returns a pointer to the group data file ">
<polygon fill="#ffffff" stroke="#000000" points="301,-202.5 301,-221.5 381,-221.5 381,-202.5 301,-202.5"/>
<text text-anchor="middle" x="341" y="-209.5" font-family="Helvetica,sans-Serif" font-size="10.00" fill="#000000">getGroupFileId</text>
</a>
</g>
</g>
<!-- Node263&#45;&gt;Node274 -->
<g id="edge16" class="edge">
<title>Node263&#45;&gt;Node274</title>
<path fill="none" stroke="#191970" d="M248.049,-223.1074C262.3272,-221.4012 277.2015,-219.6237 290.757,-218.0039"/>
<polygon fill="#191970" stroke="#191970" points="291.3202,-221.4616 300.8343,-216.7997 290.4896,-214.511 291.3202,-221.4616"/>
</g>
<!-- Node277 -->
<g id="node17" class="node">
<title>Node277</title>
<g id="a_node17"><a xlink:href="classGroupMonitorCore.html#a614d294d5208a18dd7fcbcaaf30e8842" target="_top" xlink:title="isInAllMode">
<polygon fill="#ffffff" stroke="#000000" points="307,-316.5 307,-335.5 375,-335.5 375,-316.5 307,-316.5"/>
<text text-anchor="middle" x="341" y="-323.5" font-family="Helvetica,sans-Serif" font-size="10.00" fill="#000000">isInAllMode</text>
</a>
</g>
</g>
<!-- Node263&#45;&gt;Node277 -->
<g id="edge21" class="edge">
<title>Node263&#45;&gt;Node277</title>
<path fill="none" stroke="#191970" d="M192.5407,-240.6764C210.2413,-256.4862 247.5865,-287.994 284,-307 288.2277,-309.2067 292.7634,-311.2312 297.3621,-313.0681"/>
<polygon fill="#191970" stroke="#191970" points="296.2188,-316.377 306.8118,-316.5738 298.6535,-309.8141 296.2188,-316.377"/>
</g>
<!-- Node278 -->
<g id="node18" class="node">
<title>Node278</title>
<g id="a_node18"><a xlink:href="classGroupMonitorCore.html#affd44eca3bd6d1a7fc62759157df43ac" target="_top" xlink:title="inserts group data (time, value) into the vectors , if monitor is in DA_MODE ">
<polygon fill="#ffffff" stroke="#000000" points="482,-342.5 482,-361.5 541,-361.5 541,-342.5 482,-342.5"/>
<text text-anchor="middle" x="511.5" y="-349.5" font-family="Helvetica,sans-Serif" font-size="10.00" fill="#000000">pushData</text>
</a>
</g>
</g>
<!-- Node263&#45;&gt;Node278 -->
<g id="edge24" class="edge">
<title>Node263&#45;&gt;Node278</title>
<path fill="none" stroke="#191970" d="M187.0213,-240.709C199.6264,-263.8931 235.1281,-322.2407 284,-345 344.6109,-373.2261 424.4847,-367.1981 471.6796,-359.8658"/>
<polygon fill="#191970" stroke="#191970" points="472.5083,-363.2765 481.8045,-358.194 471.3679,-356.37 472.5083,-363.2765"/>
</g>
<!-- Node279 -->
<g id="node19" class="node">
<title>Node279</title>
<g id="a_node19"><a xlink:href="classSpikeGeneratorCore.html#ad75a73e6aa374ced00cb16b1a5a2eb25" target="_top" xlink:title="controls spike generation using a callback mechanism ">
<polygon fill="#ffffff" stroke="#000000" points="288.5,-115 288.5,-145 393.5,-145 393.5,-115 288.5,-115"/>
<text text-anchor="start" x="296.5" y="-133" font-family="Helvetica,sans-Serif" font-size="10.00" fill="#000000">SpikeGeneratorCore</text>
<text text-anchor="middle" x="341" y="-122" font-family="Helvetica,sans-Serif" font-size="10.00" fill="#000000">::nextSpikeTime</text>
</a>
</g>
</g>
<!-- Node263&#45;&gt;Node279 -->
<g id="edge25" class="edge">
<title>Node263&#45;&gt;Node279</title>
<path fill="none" stroke="#191970" d="M193.0363,-221.4452C211.1438,-206.084 248.6855,-175.5419 284,-155 287.2254,-153.1238 290.6178,-151.2989 294.0734,-149.5456"/>
<polygon fill="#191970" stroke="#191970" points="295.8178,-152.5899 303.297,-145.0856 292.7706,-146.2879 295.8178,-152.5899"/>
</g>
<!-- Node281 -->
<g id="node21" class="node">
<title>Node281</title>
<g id="a_node21"><a xlink:href="classSpikeBuffer.html#a5922ba31daa2c306a5c1ecbf8d19220d" target="_top" xlink:title="Schedule a spike. ">
<polygon fill="#ffffff" stroke="#000000" points="284.5,-392.5 284.5,-411.5 397.5,-411.5 397.5,-392.5 284.5,-392.5"/>
<text text-anchor="middle" x="341" y="-399.5" font-family="Helvetica,sans-Serif" font-size="10.00" fill="#000000">SpikeBuffer::schedule</text>
</a>
</g>
</g>
<!-- Node263&#45;&gt;Node281 -->
<g id="edge27" class="edge">
<title>Node263&#45;&gt;Node281</title>
<path fill="none" stroke="#191970" d="M186.291,-240.6437C198.1912,-266.3843 234.057,-337.5008 284,-378 288.9257,-381.9943 294.6126,-385.423 300.4472,-388.3345"/>
<polygon fill="#191970" stroke="#191970" points="299.0952,-391.5642 309.6494,-392.4909 301.9767,-385.1848 299.0952,-391.5642"/>
</g>
<!-- Node267 -->
<g id="node7" class="node">
<title>Node267</title>
<g id="a_node7"><a xlink:href="classSNN.html#a866a9c6e2b2630816fc66adda1381655" target="_top" xlink:title="Returns pointer to existing SpikeMonitor object, NULL else. ">
<polygon fill="#ffffff" stroke="#000000" points="454,-38.5 454,-57.5 569,-57.5 569,-38.5 454,-38.5"/>
<text text-anchor="middle" x="511.5" y="-45.5" font-family="Helvetica,sans-Serif" font-size="10.00" fill="#000000">SNN::getSpikeMonitor</text>
</a>
</g>
</g>
<!-- Node266&#45;&gt;Node267 -->
<g id="edge6" class="edge">
<title>Node266&#45;&gt;Node267</title>
<path fill="none" stroke="#191970" d="M384.0243,-76.411C406.7264,-71.3513 434.7732,-65.1004 458.774,-59.7512"/>
<polygon fill="#191970" stroke="#191970" points="459.7859,-63.1117 468.785,-57.5201 458.2631,-56.2793 459.7859,-63.1117"/>
</g>
<!-- Node269 -->
<g id="node9" class="node">
<title>Node269</title>
<g id="a_node9"><a xlink:href="classSNN.html#ad25000cd1457c9b9869122534ada6fdd" target="_top" xlink:title="SNN::getSpikeMonitorCore">
<polygon fill="#ffffff" stroke="#000000" points="443.5,-.5 443.5,-19.5 579.5,-19.5 579.5,-.5 443.5,-.5"/>
<text text-anchor="middle" x="511.5" y="-7.5" font-family="Helvetica,sans-Serif" font-size="10.00" fill="#000000">SNN::getSpikeMonitorCore</text>
</a>
</g>
</g>
<!-- Node266&#45;&gt;Node269 -->
<g id="edge8" class="edge">
<title>Node266&#45;&gt;Node269</title>
<path fill="none" stroke="#191970" d="M378.3915,-76.4743C385.1909,-73.9369 392.0171,-70.8103 398,-67 417.6229,-54.5029 413.8853,-40.689 434,-29 437.8778,-26.7466 442.0143,-24.7592 446.282,-23.0067"/>
<polygon fill="#191970" stroke="#191970" points="447.5943,-26.2535 455.7849,-19.533 445.191,-19.679 447.5943,-26.2535"/>
</g>
<!-- Node270 -->
<g id="node10" class="node">
<title>Node270</title>
<g id="a_node10"><a xlink:href="classSNN.html#a0eb87addfa5eebdfee4bd6b927b8945f" target="_top" xlink:title="Returns pointer to existing NeuronMonitor object, NULL else. ">
<polygon fill="#ffffff" stroke="#000000" points="450.5,-114.5 450.5,-133.5 572.5,-133.5 572.5,-114.5 450.5,-114.5"/>
<text text-anchor="middle" x="511.5" y="-121.5" font-family="Helvetica,sans-Serif" font-size="10.00" fill="#000000">SNN::getNeuronMonitor</text>
</a>
</g>
</g>
<!-- Node266&#45;&gt;Node270 -->
<g id="edge10" class="edge">
<title>Node266&#45;&gt;Node270</title>
<path fill="none" stroke="#191970" d="M384.0243,-95.589C406.7264,-100.6487 434.7732,-106.8996 458.774,-112.2488"/>
<polygon fill="#191970" stroke="#191970" points="458.2631,-115.7207 468.785,-114.4799 459.7859,-108.8883 458.2631,-115.7207"/>
</g>
<!-- Node271 -->
<g id="node11" class="node">
<title>Node271</title>
<g id="a_node11"><a xlink:href="classSNN.html#a9aa73fa9478383c4af1eed8387d82db9" target="_top" xlink:title="SNN::getNeuronMonitorCore">
<polygon fill="#ffffff" stroke="#000000" points="440,-76.5 440,-95.5 583,-95.5 583,-76.5 440,-76.5"/>
<text text-anchor="middle" x="511.5" y="-83.5" font-family="Helvetica,sans-Serif" font-size="10.00" fill="#000000">SNN::getNeuronMonitorCore</text>
</a>
</g>
</g>
<!-- Node266&#45;&gt;Node271 -->
<g id="edge12" class="edge">
<title>Node266&#45;&gt;Node271</title>
<path fill="none" stroke="#191970" d="M396.3565,-86C407.0023,-86 418.3603,-86 429.639,-86"/>
<polygon fill="#191970" stroke="#191970" points="429.9521,-89.5001 439.9521,-86 429.952,-82.5001 429.9521,-89.5001"/>
</g>
<!-- Node268 -->
<g id="node8" class="node">
<title>Node268</title>
<g id="a_node8"><a xlink:href="classSNN.html#a292bdee57fec7c77ec4c15ea3f508d60" target="_top" xlink:title="SNN::getNumGroups">
<polygon fill="#ffffff" stroke="#000000" points="627.5,-57.5 627.5,-76.5 737.5,-76.5 737.5,-57.5 627.5,-57.5"/>
<text text-anchor="middle" x="682.5" y="-64.5" font-family="Helvetica,sans-Serif" font-size="10.00" fill="#000000">SNN::getNumGroups</text>
</a>
</g>
</g>
<!-- Node267&#45;&gt;Node268 -->
<g id="edge7" class="edge">
<title>Node267&#45;&gt;Node268</title>
<path fill="none" stroke="#191970" d="M569.3928,-54.4325C584.7327,-56.137 601.4007,-57.989 617.1088,-59.7343"/>
<polygon fill="#191970" stroke="#191970" points="616.9436,-63.2374 627.269,-60.8632 617.7167,-56.2802 616.9436,-63.2374"/>
</g>
<!-- Node269&#45;&gt;Node268 -->
<g id="edge9" class="edge">
<title>Node269&#45;&gt;Node268</title>
<path fill="none" stroke="#191970" d="M555.2617,-19.5496C566.3577,-22.2925 578.193,-25.4998 589,-29 610.3787,-35.9242 633.8033,-45.4478 651.8584,-53.2286"/>
<polygon fill="#191970" stroke="#191970" points="650.7243,-56.5524 661.2895,-57.3443 653.5241,-50.1367 650.7243,-56.5524"/>
</g>
<!-- Node270&#45;&gt;Node268 -->
<g id="edge11" class="edge">
<title>Node270&#45;&gt;Node268</title>
<path fill="none" stroke="#191970" d="M555.2617,-114.4504C566.3577,-111.7075 578.193,-108.5002 589,-105 610.3787,-98.0758 633.8033,-88.5522 651.8584,-80.7714"/>
<polygon fill="#191970" stroke="#191970" points="653.5241,-83.8633 661.2895,-76.6557 650.7243,-77.4476 653.5241,-83.8633"/>
</g>
<!-- Node271&#45;&gt;Node268 -->
<g id="edge13" class="edge">
<title>Node271&#45;&gt;Node268</title>
<path fill="none" stroke="#191970" d="M583.0286,-78.0524C594.38,-76.7911 606.0691,-75.4923 617.2661,-74.2482"/>
<polygon fill="#191970" stroke="#191970" points="617.8346,-77.7067 627.3869,-73.1237 617.0616,-70.7495 617.8346,-77.7067"/>
</g>
<!-- Node275 -->
<g id="node15" class="node">
<title>Node275</title>
<g id="a_node15"><a xlink:href="classGroupMonitorCore.html#ac455fddf546e804839052af1614b4b15" target="_top" xlink:title="sets pointer to group data file ">
<polygon fill="#ffffff" stroke="#000000" points="471.5,-253.5 471.5,-272.5 551.5,-272.5 551.5,-253.5 471.5,-253.5"/>
<text text-anchor="middle" x="511.5" y="-260.5" font-family="Helvetica,sans-Serif" font-size="10.00" fill="#000000">setGroupFileId</text>
</a>
</g>
</g>
<!-- Node274&#45;&gt;Node275 -->
<g id="edge17" class="edge">
<title>Node274&#45;&gt;Node275</title>
<path fill="none" stroke="#191970" d="M373.0697,-221.5927C400.4565,-229.7847 440.035,-241.6234 469.8637,-250.5457"/>
<polygon fill="#191970" stroke="#191970" points="468.9904,-253.9377 479.5741,-253.4503 470.9965,-247.2313 468.9904,-253.9377"/>
</g>
<!-- Node275&#45;&gt;Node262 -->
<g id="edge18" class="edge">
<title>Node275&#45;&gt;Node262</title>
<path fill="none" stroke="#191970" d="M523.7979,-272.565C552.7426,-295.0776 625.4399,-351.6199 661.5177,-379.6805"/>
<polygon fill="#191970" stroke="#191970" points="659.8098,-382.7861 669.8522,-386.1628 664.1074,-377.2606 659.8098,-382.7861"/>
</g>
<!-- Node276 -->
<g id="node16" class="node">
<title>Node276</title>
<g id="a_node16"><a xlink:href="classSNN.html#ac13b30c40669d3cb8264bd6e211b449d" target="_top" xlink:title="SNN::getGroupGrid3D">
<polygon fill="#ffffff" stroke="#000000" points="625,-253.5 625,-272.5 740,-272.5 740,-253.5 625,-253.5"/>
<text text-anchor="middle" x="682.5" y="-260.5" font-family="Helvetica,sans-Serif" font-size="10.00" fill="#000000">SNN::getGroupGrid3D</text>
</a>
</g>
</g>
<!-- Node275&#45;&gt;Node276 -->
<g id="edge19" class="edge">
<title>Node275&#45;&gt;Node276</title>
<path fill="none" stroke="#191970" d="M551.5919,-263C570.4254,-263 593.3999,-263 614.8142,-263"/>
<polygon fill="#191970" stroke="#191970" points="614.8484,-266.5001 624.8484,-263 614.8484,-259.5001 614.8484,-266.5001"/>
</g>
<!-- Node277&#45;&gt;Node278 -->
<g id="edge22" class="edge">
<title>Node277&#45;&gt;Node278</title>
<path fill="none" stroke="#191970" d="M375.0934,-331.199C402.9982,-335.4543 442.5072,-341.4791 471.8276,-345.9503"/>
<polygon fill="#191970" stroke="#191970" points="471.3246,-349.4139 481.738,-347.4615 472.3799,-342.4939 471.3246,-349.4139"/>
</g>
<!-- Node278&#45;&gt;Node262 -->
<g id="edge23" class="edge">
<title>Node278&#45;&gt;Node262</title>
<path fill="none" stroke="#191970" d="M541.2859,-359.6642C568.1087,-366.566 607.8888,-376.8018 638.3986,-384.6523"/>
<polygon fill="#191970" stroke="#191970" points="637.8011,-388.1125 648.3578,-387.2149 639.5455,-381.3333 637.8011,-388.1125"/>
</g>
<!-- Node280 -->
<g id="node20" class="node">
<title>Node280</title>
<g id="a_node20"><a xlink:href="classSpikeGenerator.html#a356c7b25be9b3ced55d390d2baea3140" target="_top" xlink:title="controls spike generation using a callback mechanism ">
<polygon fill="#ffffff" stroke="#000000" points="434,-152.5 434,-171.5 589,-171.5 589,-152.5 434,-152.5"/>
<text text-anchor="middle" x="511.5" y="-159.5" font-family="Helvetica,sans-Serif" font-size="10.00" fill="#000000">SpikeGenerator::nextSpikeTime</text>
</a>
</g>
</g>
<!-- Node279&#45;&gt;Node280 -->
<g id="edge26" class="edge">
<title>Node279&#45;&gt;Node280</title>
<path fill="none" stroke="#191970" d="M393.5468,-139.8622C411.7106,-143.2712 432.2089,-147.1184 450.9612,-150.6379"/>
<polygon fill="#191970" stroke="#191970" points="450.4049,-154.0945 460.8789,-152.4993 451.6962,-147.2146 450.4049,-154.0945"/>
</g>
<!-- Node282 -->
<g id="node22" class="node">
<title>Node282</title>
<g id="a_node22"><a xlink:href="classSpikeBuffer_1_1Impl.html#a5922ba31daa2c306a5c1ecbf8d19220d" target="_top" xlink:title="SpikeBuffer::Impl::\lschedule">
<polygon fill="#ffffff" stroke="#000000" points="462.5,-381 462.5,-411 560.5,-411 560.5,-381 462.5,-381"/>
<text text-anchor="start" x="470.5" y="-399" font-family="Helvetica,sans-Serif" font-size="10.00" fill="#000000">SpikeBuffer::Impl::</text>
<text text-anchor="middle" x="511.5" y="-388" font-family="Helvetica,sans-Serif" font-size="10.00" fill="#000000">schedule</text>
</a>
</g>
</g>
<!-- Node281&#45;&gt;Node282 -->
<g id="edge28" class="edge">
<title>Node281&#45;&gt;Node282</title>
<path fill="none" stroke="#191970" d="M397.774,-400.0021C415.2655,-399.3866 434.5639,-398.7074 452.2194,-398.0861"/>
<polygon fill="#191970" stroke="#191970" points="452.5281,-401.5775 462.3988,-397.7279 452.2819,-394.5819 452.5281,-401.5775"/>
</g>
</g>
</svg>
