<?xml version="1.0" encoding="UTF-8" standalone="no"?>
<!DOCTYPE svg PUBLIC "-//W3C//DTD SVG 1.1//EN"
 "http://www.w3.org/Graphics/SVG/1.1/DTD/svg11.dtd">
<!-- Generated by graphviz version 2.40.1 (20161225.0304)
 -->
<!-- Title: getUpdateTimeIntervalSec Pages: 1 -->
<svg width="911pt" height="560pt"
 viewBox="0.00 0.00 911.00 560.00" xmlns="http://www.w3.org/2000/svg" xmlns:xlink="http://www.w3.org/1999/xlink">
<g id="graph0" class="graph" transform="scale(1 1) rotate(0) translate(4 556)">
<title>getUpdateTimeIntervalSec</title>
<polygon fill="#ffffff" stroke="transparent" points="-4,4 -4,-556 907,-556 907,4 -4,4"/>
<!-- Node199 -->
<g id="node1" class="node">
<title>Node199</title>
<polygon fill="#bfbfbf" stroke="#000000" points="0,-266.5 0,-285.5 133,-285.5 133,-266.5 0,-266.5"/>
<text text-anchor="middle" x="66.5" y="-273.5" font-family="Helvetica,sans-Serif" font-size="10.00" fill="#000000">getUpdateTimeIntervalSec</text>
</g>
<!-- Node200 -->
<g id="node2" class="node">
<title>Node200</title>
<g id="a_node2"><a xlink:href="classConnectionMonitorCore.html#a991b87f83f8f3a210ab97c6090eeaad9" target="_top" xlink:title="returns absolute sum of all weight changes since last snapshot ">
<polygon fill="#ffffff" stroke="#000000" points="169,-513.5 169,-532.5 303,-532.5 303,-513.5 169,-513.5"/>
<text text-anchor="middle" x="236" y="-520.5" font-family="Helvetica,sans-Serif" font-size="10.00" fill="#000000">getTotalAbsWeightChange</text>
</a>
</g>
</g>
<!-- Node199&#45;&gt;Node200 -->
<g id="edge1" class="edge">
<title>Node199&#45;&gt;Node200</title>
<path fill="none" stroke="#191970" d="M69.0836,-285.9468C77.9183,-318.2939 109.7067,-422.0403 169,-485 178.3321,-494.9092 190.8356,-502.946 202.513,-509.0328"/>
<polygon fill="#191970" stroke="#191970" points="201.1044,-512.2401 211.6247,-513.4947 204.183,-505.9534 201.1044,-512.2401"/>
</g>
<!-- Node202 -->
<g id="node4" class="node">
<title>Node202</title>
<g id="a_node4"><a xlink:href="classConnectionMonitorCore.html#a388f572c62279f839ee138a9afbdeeb5" target="_top" xlink:title="prints current weight state as 2D matrix (non&#45;existent synapses: NAN, existent but zero weigth: 0...">
<polygon fill="#ffffff" stroke="#000000" points="218.5,-380.5 218.5,-399.5 253.5,-399.5 253.5,-380.5 218.5,-380.5"/>
<text text-anchor="middle" x="236" y="-387.5" font-family="Helvetica,sans-Serif" font-size="10.00" fill="#000000">print</text>
</a>
</g>
</g>
<!-- Node199&#45;&gt;Node202 -->
<g id="edge3" class="edge">
<title>Node199&#45;&gt;Node202</title>
<path fill="none" stroke="#191970" d="M75.1697,-285.7361C91.7546,-303.8378 129.8218,-342.9256 169,-366 181.2268,-373.2011 195.9672,-378.7712 208.5053,-382.7245"/>
<polygon fill="#191970" stroke="#191970" points="207.8334,-386.1759 218.4159,-385.6653 209.8247,-379.4651 207.8334,-386.1759"/>
</g>
<!-- Node205 -->
<g id="node7" class="node">
<title>Node205</title>
<g id="a_node7"><a xlink:href="classConnectionMonitorCore.html#ab4eedda550b6dfb0be0456a30830f067" target="_top" xlink:title="printSparse">
<polygon fill="#ffffff" stroke="#000000" points="203,-456.5 203,-475.5 269,-475.5 269,-456.5 203,-456.5"/>
<text text-anchor="middle" x="236" y="-463.5" font-family="Helvetica,sans-Serif" font-size="10.00" fill="#000000">printSparse</text>
</a>
</g>
</g>
<!-- Node199&#45;&gt;Node205 -->
<g id="edge6" class="edge">
<title>Node199&#45;&gt;Node205</title>
<path fill="none" stroke="#191970" d="M72.8358,-285.566C88.0445,-308.2058 128.379,-366.367 169,-409 183.3948,-424.1078 201.5108,-439.3268 215.2747,-450.2341"/>
<polygon fill="#191970" stroke="#191970" points="213.1737,-453.0342 223.21,-456.4288 217.4812,-447.5164 213.1737,-453.0342"/>
</g>
<!-- Node207 -->
<g id="node9" class="node">
<title>Node207</title>
<g id="a_node9"><a xlink:href="classConnectionMonitorCore.html#ab64d9ff17fece61e850660bdd4ca00d2" target="_top" xlink:title="takeSnapshot">
<polygon fill="#ffffff" stroke="#000000" points="197.5,-304.5 197.5,-323.5 274.5,-323.5 274.5,-304.5 197.5,-304.5"/>
<text text-anchor="middle" x="236" y="-311.5" font-family="Helvetica,sans-Serif" font-size="10.00" fill="#000000">takeSnapshot</text>
</a>
</g>
</g>
<!-- Node199&#45;&gt;Node207 -->
<g id="edge11" class="edge">
<title>Node199&#45;&gt;Node207</title>
<path fill="none" stroke="#191970" d="M109.272,-285.589C133.0622,-290.9225 162.7564,-297.5796 187.42,-303.1089"/>
<polygon fill="#191970" stroke="#191970" points="186.7757,-306.5513 197.2992,-305.3237 188.3071,-299.7208 186.7757,-306.5513"/>
</g>
<!-- Node208 -->
<g id="node10" class="node">
<title>Node208</title>
<g id="a_node10"><a xlink:href="classConnectionMonitorCore.html#a879cc76753757f4df109f005aac872a5" target="_top" xlink:title="writes each snapshot to connect file ">
<polygon fill="#ffffff" stroke="#000000" points="348.5,-342.5 348.5,-361.5 479.5,-361.5 479.5,-342.5 348.5,-342.5"/>
<text text-anchor="middle" x="414" y="-349.5" font-family="Helvetica,sans-Serif" font-size="10.00" fill="#000000">writeConnectFileSnapshot</text>
</a>
</g>
</g>
<!-- Node199&#45;&gt;Node208 -->
<g id="edge42" class="edge">
<title>Node199&#45;&gt;Node208</title>
<path fill="none" stroke="#191970" d="M79.2689,-285.5162C97.8927,-298.8112 134.1003,-322.4921 169,-333 224.0143,-349.5641 288.9478,-353.9589 338.1398,-354.4039"/>
<polygon fill="#191970" stroke="#191970" points="338.3758,-357.9047 348.3887,-354.4419 338.4018,-350.9048 338.3758,-357.9047"/>
</g>
<!-- Node209 -->
<g id="node11" class="node">
<title>Node209</title>
<g id="a_node11"><a xlink:href="classConnectionMonitorCore.html#a02fd73d861ef2e4aabb38c0c9ff82947" target="_top" xlink:title="init">
<polygon fill="#ffffff" stroke="#000000" points="399.5,-171.5 399.5,-190.5 428.5,-190.5 428.5,-171.5 399.5,-171.5"/>
<text text-anchor="middle" x="414" y="-178.5" font-family="Helvetica,sans-Serif" font-size="10.00" fill="#000000">init</text>
</a>
</g>
</g>
<!-- Node199&#45;&gt;Node209 -->
<g id="edge35" class="edge">
<title>Node199&#45;&gt;Node209</title>
<path fill="none" stroke="#191970" d="M133.1378,-279.6715C181.5966,-280.2055 248.0561,-276.4523 303,-257 339.765,-243.9837 375.7973,-215.6099 396.4088,-197.4529"/>
<polygon fill="#191970" stroke="#191970" points="398.9293,-199.893 404.0117,-190.5968 394.2413,-194.6946 398.9293,-199.893"/>
</g>
<!-- Node227 -->
<g id="node29" class="node">
<title>Node227</title>
<g id="a_node29"><a xlink:href="classConnectionMonitorCore.html#ac8bb3912a3ce86b15842e79d0b421204" target="_top" xlink:title="deletes data from the 2D weight matrix ">
<polygon fill="#ffffff" stroke="#000000" points="217,-228.5 217,-247.5 255,-247.5 255,-228.5 217,-228.5"/>
<text text-anchor="middle" x="236" y="-235.5" font-family="Helvetica,sans-Serif" font-size="10.00" fill="#000000">clear</text>
</a>
</g>
</g>
<!-- Node199&#45;&gt;Node227 -->
<g id="edge34" class="edge">
<title>Node199&#45;&gt;Node227</title>
<path fill="none" stroke="#191970" d="M109.272,-266.411C139.748,-259.5786 179.9127,-250.5741 206.779,-244.551"/>
<polygon fill="#191970" stroke="#191970" points="207.7291,-247.925 216.7212,-242.3221 206.1977,-241.0945 207.7291,-247.925"/>
</g>
<!-- Node228 -->
<g id="node30" class="node">
<title>Node228</title>
<g id="a_node30"><a xlink:href="classConnectionMonitorCore.html#a43f41ade383159b5ece84bd43a77fbad" target="_top" xlink:title="updates an entry in the current weight matrix (called by CARLsim::updateConnectionMonitor) ...">
<polygon fill="#ffffff" stroke="#000000" points="197.5,-190.5 197.5,-209.5 274.5,-209.5 274.5,-190.5 197.5,-190.5"/>
<text text-anchor="middle" x="236" y="-197.5" font-family="Helvetica,sans-Serif" font-size="10.00" fill="#000000">updateWeight</text>
</a>
</g>
</g>
<!-- Node199&#45;&gt;Node228 -->
<g id="edge36" class="edge">
<title>Node199&#45;&gt;Node228</title>
<path fill="none" stroke="#191970" d="M81.2341,-266.3672C100.6717,-254.0019 136.2572,-232.5326 169,-219 174.8663,-216.5755 181.1443,-214.3463 187.4184,-212.3343"/>
<polygon fill="#191970" stroke="#191970" points="188.6662,-215.6132 197.2149,-209.3545 186.6292,-208.9161 188.6662,-215.6132"/>
</g>
<!-- Node229 -->
<g id="node31" class="node">
<title>Node229</title>
<g id="a_node31"><a xlink:href="classConnectionMonitorCore.html#ae21cabe9bfa12c5defe528c888094368" target="_top" xlink:title="updates timestamp of the snapshots, returns true if update was needed ">
<polygon fill="#ffffff" stroke="#000000" points="202,-152.5 202,-171.5 270,-171.5 270,-152.5 202,-152.5"/>
<text text-anchor="middle" x="236" y="-159.5" font-family="Helvetica,sans-Serif" font-size="10.00" fill="#000000">updateTime</text>
</a>
</g>
</g>
<!-- Node199&#45;&gt;Node229 -->
<g id="edge37" class="edge">
<title>Node199&#45;&gt;Node229</title>
<path fill="none" stroke="#191970" d="M74.1598,-266.3363C89.8705,-247.1647 127.7518,-204.1747 169,-181 176.1192,-177.0002 184.1454,-173.7884 192.1045,-171.2272"/>
<polygon fill="#191970" stroke="#191970" points="193.0987,-174.5832 201.7141,-168.4166 191.1336,-167.8646 193.0987,-174.5832"/>
</g>
<!-- Node230 -->
<g id="node32" class="node">
<title>Node230</title>
<g id="a_node32"><a xlink:href="classConnectionMonitorCore.html#a5e62c217cf681fc744ef481c41f36206" target="_top" xlink:title="sets pointer to connection file ">
<polygon fill="#ffffff" stroke="#000000" points="190.5,-114.5 190.5,-133.5 281.5,-133.5 281.5,-114.5 190.5,-114.5"/>
<text text-anchor="middle" x="236" y="-121.5" font-family="Helvetica,sans-Serif" font-size="10.00" fill="#000000">setConnectFileId</text>
</a>
</g>
</g>
<!-- Node199&#45;&gt;Node230 -->
<g id="edge38" class="edge">
<title>Node199&#45;&gt;Node230</title>
<path fill="none" stroke="#191970" d="M71.1916,-266.2574C83.5562,-241.6378 119.5176,-176.5096 169,-143 172.7041,-140.4916 176.7371,-138.3114 180.9264,-136.4169"/>
<polygon fill="#191970" stroke="#191970" points="182.2739,-139.6478 190.2807,-132.7094 179.6946,-133.1403 182.2739,-139.6478"/>
</g>
<!-- Node231 -->
<g id="node33" class="node">
<title>Node231</title>
<g id="a_node33"><a xlink:href="classConnectionMonitorCore.html#a90d83641a405b71b3652c01fb3ee5f0f" target="_top" xlink:title="sets time update interval (seconds) for periodically storing weights to file ">
<polygon fill="#ffffff" stroke="#000000" points="169.5,-76.5 169.5,-95.5 302.5,-95.5 302.5,-76.5 169.5,-76.5"/>
<text text-anchor="middle" x="236" y="-83.5" font-family="Helvetica,sans-Serif" font-size="10.00" fill="#000000">setUpdateTimeIntervalSec</text>
</a>
</g>
</g>
<!-- Node199&#45;&gt;Node231 -->
<g id="edge39" class="edge">
<title>Node199&#45;&gt;Node231</title>
<path fill="none" stroke="#191970" d="M69.5133,-266.1226C78.9838,-236.7777 111.0184,-149.4051 169,-105 171.4642,-103.1128 174.108,-101.413 176.8705,-99.882"/>
<polygon fill="#191970" stroke="#191970" points="178.4856,-102.9898 186.0231,-95.5442 175.4877,-96.6643 178.4856,-102.9898"/>
</g>
<!-- Node201 -->
<g id="node3" class="node">
<title>Node201</title>
<g id="a_node3"><a xlink:href="classConnectionMonitorCore.html#a730c0ec47d470c8920ab57288c31ca3b" target="_top" xlink:title="calculates weight changes since last snapshot and reports them in 2D weight change matrix ...">
<polygon fill="#ffffff" stroke="#000000" points="362,-532.5 362,-551.5 466,-551.5 466,-532.5 362,-532.5"/>
<text text-anchor="middle" x="414" y="-539.5" font-family="Helvetica,sans-Serif" font-size="10.00" fill="#000000">calcWeightChanges</text>
</a>
</g>
</g>
<!-- Node200&#45;&gt;Node201 -->
<g id="edge2" class="edge">
<title>Node200&#45;&gt;Node201</title>
<path fill="none" stroke="#191970" d="M303.0405,-530.156C318.9664,-531.856 335.8928,-533.6627 351.6017,-535.3395"/>
<polygon fill="#191970" stroke="#191970" points="351.4111,-538.839 361.7261,-536.4202 352.1541,-531.8785 351.4111,-538.839"/>
</g>
<!-- Node203 -->
<g id="node5" class="node">
<title>Node203</title>
<g id="a_node5"><a xlink:href="classConnectionMonitorCore.html#a1025cfe9db2e3f4eddc8a93928ec1a99" target="_top" xlink:title="returns the timestamp of the current snapshot (not necessarily CARLsim::getSimTime) ...">
<polygon fill="#ffffff" stroke="#000000" points="344.5,-418.5 344.5,-437.5 483.5,-437.5 483.5,-418.5 344.5,-418.5"/>
<text text-anchor="middle" x="414" y="-425.5" font-family="Helvetica,sans-Serif" font-size="10.00" fill="#000000">getTimeMsCurrentSnapshot</text>
</a>
</g>
</g>
<!-- Node202&#45;&gt;Node203 -->
<g id="edge4" class="edge">
<title>Node202&#45;&gt;Node203</title>
<path fill="none" stroke="#191970" d="M253.7181,-393.7825C278.1532,-398.999 323.2763,-408.632 359.4342,-416.3511"/>
<polygon fill="#191970" stroke="#191970" points="358.8598,-419.8073 369.3702,-418.4723 360.3213,-412.9616 358.8598,-419.8073"/>
</g>
<!-- Node204 -->
<g id="node6" class="node">
<title>Node204</title>
<g id="a_node6"><a xlink:href="classSNN.html#ab0367f8ebd4019bf7d34ebddb1563fe7" target="_top" xlink:title="SNN::getGroupName">
<polygon fill="#ffffff" stroke="#000000" points="763,-418.5 763,-437.5 873,-437.5 873,-418.5 763,-418.5"/>
<text text-anchor="middle" x="818" y="-425.5" font-family="Helvetica,sans-Serif" font-size="10.00" fill="#000000">SNN::getGroupName</text>
</a>
</g>
</g>
<!-- Node202&#45;&gt;Node204 -->
<g id="edge5" class="edge">
<title>Node202&#45;&gt;Node204</title>
<path fill="none" stroke="#191970" d="M253.7359,-391.158C328.5599,-396.0434 620.6432,-415.1142 752.6236,-423.7314"/>
<polygon fill="#191970" stroke="#191970" points="752.3993,-427.2242 762.6061,-424.3832 752.8554,-420.239 752.3993,-427.2242"/>
</g>
<!-- Node205&#45;&gt;Node201 -->
<g id="edge10" class="edge">
<title>Node205&#45;&gt;Node201</title>
<path fill="none" stroke="#191970" d="M253.105,-475.689C273.2303,-486.8389 307.8563,-505.2487 339,-518 349.0671,-522.1218 360.1218,-526 370.5776,-529.3878"/>
<polygon fill="#191970" stroke="#191970" points="369.7772,-532.8053 380.367,-532.4775 371.8842,-526.1299 369.7772,-532.8053"/>
</g>
<!-- Node205&#45;&gt;Node203 -->
<g id="edge7" class="edge">
<title>Node205&#45;&gt;Node203</title>
<path fill="none" stroke="#191970" d="M269.0633,-458.9415C294.3352,-453.5464 329.7265,-445.991 359.2098,-439.6968"/>
<polygon fill="#191970" stroke="#191970" points="360.3169,-443.0394 369.3657,-437.5287 358.8554,-436.1937 360.3169,-443.0394"/>
</g>
<!-- Node205&#45;&gt;Node204 -->
<g id="edge8" class="edge">
<title>Node205&#45;&gt;Node204</title>
<path fill="none" stroke="#191970" d="M269.1851,-473.7126C289.2664,-477.981 315.4595,-482.847 339,-485 498.2794,-499.5679 686.5011,-460.6745 771.8297,-439.9802"/>
<polygon fill="#191970" stroke="#191970" points="772.8404,-443.3361 781.7167,-437.5515 771.1704,-436.5382 772.8404,-443.3361"/>
</g>
<!-- Node206 -->
<g id="node8" class="node">
<title>Node206</title>
<g id="a_node8"><a xlink:href="classConnectionMonitorCore.html#a17077ba6a308bcd6bef84e186594f470" target="_top" xlink:title="returns the time passed between current and last snapshot ">
<polygon fill="#ffffff" stroke="#000000" points="339,-456.5 339,-475.5 489,-475.5 489,-456.5 339,-456.5"/>
<text text-anchor="middle" x="414" y="-463.5" font-family="Helvetica,sans-Serif" font-size="10.00" fill="#000000">getTimeMsSinceLastSnapshot</text>
</a>
</g>
</g>
<!-- Node205&#45;&gt;Node206 -->
<g id="edge9" class="edge">
<title>Node205&#45;&gt;Node206</title>
<path fill="none" stroke="#191970" d="M269.0633,-466C285.9881,-466 307.4515,-466 328.6394,-466"/>
<polygon fill="#191970" stroke="#191970" points="328.6662,-469.5001 338.6662,-466 328.6661,-462.5001 328.6662,-469.5001"/>
</g>
<!-- Node207&#45;&gt;Node208 -->
<g id="edge12" class="edge">
<title>Node207&#45;&gt;Node208</title>
<path fill="none" stroke="#191970" d="M274.6233,-322.2454C299.4841,-327.5528 332.1644,-334.5295 359.631,-340.3931"/>
<polygon fill="#191970" stroke="#191970" points="358.9799,-343.8329 369.4903,-342.4979 360.4414,-336.9872 358.9799,-343.8329"/>
</g>
<!-- Node207&#45;&gt;Node209 -->
<g id="edge13" class="edge">
<title>Node207&#45;&gt;Node209</title>
<path fill="none" stroke="#191970" d="M271.7496,-304.3867C282.2551,-300.7332 293.4746,-295.9738 303,-290 343.5534,-264.5672 381.1582,-222.1051 400.4595,-198.3833"/>
<polygon fill="#191970" stroke="#191970" points="403.2046,-200.5546 406.7139,-190.5579 397.7364,-196.1843 403.2046,-200.5546"/>
</g>
<!-- Node224 -->
<g id="node26" class="node">
<title>Node224</title>
<g id="a_node26"><a xlink:href="classSNN.html#ac13b30c40669d3cb8264bd6e211b449d" target="_top" xlink:title="SNN::getGroupGrid3D">
<polygon fill="#ffffff" stroke="#000000" points="760.5,-380.5 760.5,-399.5 875.5,-399.5 875.5,-380.5 760.5,-380.5"/>
<text text-anchor="middle" x="818" y="-387.5" font-family="Helvetica,sans-Serif" font-size="10.00" fill="#000000">SNN::getGroupGrid3D</text>
</a>
</g>
</g>
<!-- Node207&#45;&gt;Node224 -->
<g id="edge33" class="edge">
<title>Node207&#45;&gt;Node224</title>
<path fill="none" stroke="#191970" d="M274.6911,-315.7423C324.4226,-318.2483 413.3763,-323.6316 489,-333 585.1097,-344.9062 695.8909,-365.5474 761.2644,-378.4523"/>
<polygon fill="#191970" stroke="#191970" points="760.8674,-381.9417 771.3573,-380.4545 762.2296,-375.0755 760.8674,-381.9417"/>
</g>
<!-- Node210 -->
<g id="node12" class="node">
<title>Node210</title>
<g id="a_node12"><a xlink:href="classSNN.html#a11e19a0ccbeca92ba843a5933b3321e0" target="_top" xlink:title="SNN::getGroupNumNeurons">
<polygon fill="#ffffff" stroke="#000000" points="540,-190.5 540,-209.5 682,-209.5 682,-190.5 540,-190.5"/>
<text text-anchor="middle" x="611" y="-197.5" font-family="Helvetica,sans-Serif" font-size="10.00" fill="#000000">SNN::getGroupNumNeurons</text>
</a>
</g>
</g>
<!-- Node209&#45;&gt;Node210 -->
<g id="edge14" class="edge">
<title>Node209&#45;&gt;Node210</title>
<path fill="none" stroke="#191970" d="M428.807,-182.4281C450.3281,-184.5037 491.8327,-188.5067 529.7978,-192.1683"/>
<polygon fill="#191970" stroke="#191970" points="529.5843,-195.6639 539.8741,-193.1401 530.2564,-188.6962 529.5843,-195.6639"/>
</g>
<!-- Node211 -->
<g id="node13" class="node">
<title>Node211</title>
<g id="a_node13"><a xlink:href="classSNN.html#a821a04dec998f1fcebcc048d39cc8b21" target="_top" xlink:title="returns whether synapses in connection are fixed (false) or plastic (true) ">
<polygon fill="#ffffff" stroke="#000000" points="545.5,-152.5 545.5,-171.5 676.5,-171.5 676.5,-152.5 545.5,-152.5"/>
<text text-anchor="middle" x="611" y="-159.5" font-family="Helvetica,sans-Serif" font-size="10.00" fill="#000000">SNN::isConnectionPlastic</text>
</a>
</g>
</g>
<!-- Node209&#45;&gt;Node211 -->
<g id="edge15" class="edge">
<title>Node209&#45;&gt;Node211</title>
<path fill="none" stroke="#191970" d="M428.807,-179.5719C451.3616,-177.3966 495.8654,-173.1044 535.2407,-169.3067"/>
<polygon fill="#191970" stroke="#191970" points="535.7712,-172.7719 545.389,-168.328 535.0992,-165.8042 535.7712,-172.7719"/>
</g>
<!-- Node212 -->
<g id="node14" class="node">
<title>Node212</title>
<g id="a_node14"><a xlink:href="classSNN.html#a52f149e224abff772962dea6680398e2" target="_top" xlink:title="gets number of connections associated with a connection ID ">
<polygon fill="#ffffff" stroke="#000000" points="525,-76.5 525,-95.5 697,-95.5 697,-76.5 525,-76.5"/>
<text text-anchor="middle" x="611" y="-83.5" font-family="Helvetica,sans-Serif" font-size="10.00" fill="#000000">SNN::getNumSynapticConnections</text>
</a>
</g>
</g>
<!-- Node209&#45;&gt;Node212 -->
<g id="edge16" class="edge">
<title>Node209&#45;&gt;Node212</title>
<path fill="none" stroke="#191970" d="M426.284,-171.3889C446.0443,-156.3461 486.577,-127.1864 525,-110 535.1836,-105.4449 546.4382,-101.5542 557.3569,-98.3142"/>
<polygon fill="#191970" stroke="#191970" points="558.5766,-101.6068 567.2494,-95.5214 556.6746,-94.8701 558.5766,-101.6068"/>
</g>
<!-- Node214 -->
<g id="node16" class="node">
<title>Node214</title>
<g id="a_node16"><a xlink:href="classSNN.html#acdfe8b1c7c69be228cc51535cfec0215" target="_top" xlink:title="required for homeostasis ">
<polygon fill="#ffffff" stroke="#000000" points="756.5,-76.5 756.5,-95.5 879.5,-95.5 879.5,-76.5 756.5,-76.5"/>
<text text-anchor="middle" x="818" y="-83.5" font-family="Helvetica,sans-Serif" font-size="10.00" fill="#000000">SNN::getConnectConfig</text>
</a>
</g>
</g>
<!-- Node209&#45;&gt;Node214 -->
<g id="edge18" class="edge">
<title>Node209&#45;&gt;Node214</title>
<path fill="none" stroke="#191970" d="M428.5249,-175.308C449.541,-167.238 489.7745,-152.408 525,-143 599.5428,-123.0911 686.485,-107.0598 746.1901,-97.1299"/>
<polygon fill="#191970" stroke="#191970" points="746.9735,-100.5481 756.2711,-95.4682 745.8349,-93.6413 746.9735,-100.5481"/>
</g>
<!-- Node215 -->
<g id="node17" class="node">
<title>Node215</title>
<g id="a_node17"><a xlink:href="classSNN.html#aca55cbeeccd57d4b6de64ca8e1d7d2c5" target="_top" xlink:title="function writes population weights from gIDpre to gIDpost to file fname in binary. ">
<polygon fill="#ffffff" stroke="#000000" points="563,-38.5 563,-57.5 659,-57.5 659,-38.5 563,-38.5"/>
<text text-anchor="middle" x="611" y="-45.5" font-family="Helvetica,sans-Serif" font-size="10.00" fill="#000000">SNN::getLogFpInf</text>
</a>
</g>
</g>
<!-- Node209&#45;&gt;Node215 -->
<g id="edge19" class="edge">
<title>Node209&#45;&gt;Node215</title>
<path fill="none" stroke="#191970" d="M428.7796,-172.0526C444.8775,-161.8187 470.7622,-143.8889 489,-124 509.2505,-101.9162 500.4832,-84.2251 525,-67 533.2575,-61.1984 542.9734,-57.1254 552.8469,-54.2753"/>
<polygon fill="#191970" stroke="#191970" points="553.8676,-57.628 562.7247,-51.814 552.1751,-50.8357 553.8676,-57.628"/>
</g>
<!-- Node216 -->
<g id="node18" class="node">
<title>Node216</title>
<g id="a_node18"><a xlink:href="classSNN.html#a5de043bd478d97d08d1671967cddc551" target="_top" xlink:title="returns file pointer to error log ">
<polygon fill="#ffffff" stroke="#000000" points="562,-.5 562,-19.5 660,-19.5 660,-.5 562,-.5"/>
<text text-anchor="middle" x="611" y="-7.5" font-family="Helvetica,sans-Serif" font-size="10.00" fill="#000000">SNN::getLogFpErr</text>
</a>
</g>
</g>
<!-- Node209&#45;&gt;Node216 -->
<g id="edge20" class="edge">
<title>Node209&#45;&gt;Node216</title>
<path fill="none" stroke="#191970" d="M428.6652,-173.2276C445.3956,-163.6812 472.557,-146.0121 489,-124 516.0217,-87.8262 490.8469,-58.5344 525,-29 532.6334,-22.3989 542.0471,-17.9386 551.8156,-14.954"/>
<polygon fill="#191970" stroke="#191970" points="552.83,-18.3073 561.6497,-12.4367 551.0941,-11.5259 552.83,-18.3073"/>
</g>
<!-- Node217 -->
<g id="node19" class="node">
<title>Node217</title>
<g id="a_node19"><a xlink:href="classSNN.html#a618dd0ac460a947283a39c3044e727d6" target="_top" xlink:title="returns file pointer to debug log ">
<polygon fill="#ffffff" stroke="#000000" points="559.5,-266.5 559.5,-285.5 662.5,-285.5 662.5,-266.5 559.5,-266.5"/>
<text text-anchor="middle" x="611" y="-273.5" font-family="Helvetica,sans-Serif" font-size="10.00" fill="#000000">SNN::getLogFpDeb</text>
</a>
</g>
</g>
<!-- Node209&#45;&gt;Node217 -->
<g id="edge21" class="edge">
<title>Node209&#45;&gt;Node217</title>
<path fill="none" stroke="#191970" d="M424.807,-190.5429C443.7342,-206.7382 484.7124,-239.5422 525,-257 532.6639,-260.321 540.9728,-263.0898 549.3025,-265.3909"/>
<polygon fill="#191970" stroke="#191970" points="548.4977,-268.7976 559.053,-267.8823 550.2308,-262.0155 548.4977,-268.7976"/>
</g>
<!-- Node218 -->
<g id="node20" class="node">
<title>Node218</title>
<g id="a_node20"><a xlink:href="classSNN.html#acd2fe569d2092f6e9cf624d18b93b1bf" target="_top" xlink:title="returns file pointer to log file ">
<polygon fill="#ffffff" stroke="#000000" points="560.5,-228.5 560.5,-247.5 661.5,-247.5 661.5,-228.5 560.5,-228.5"/>
<text text-anchor="middle" x="611" y="-235.5" font-family="Helvetica,sans-Serif" font-size="10.00" fill="#000000">SNN::getLogFpLog</text>
</a>
</g>
</g>
<!-- Node209&#45;&gt;Node218 -->
<g id="edge22" class="edge">
<title>Node209&#45;&gt;Node218</title>
<path fill="none" stroke="#191970" d="M428.5579,-186.5713C449.6143,-194.4945 489.8964,-209.1472 525,-219 534.1781,-221.5761 543.9863,-224.0243 553.5733,-226.2541"/>
<polygon fill="#191970" stroke="#191970" points="552.9217,-229.6952 563.4484,-228.495 554.4709,-222.8687 552.9217,-229.6952"/>
</g>
<!-- Node213 -->
<g id="node15" class="node">
<title>Node213</title>
<g id="a_node15"><a xlink:href="classSNN.html#a477f99451786873b73e2623b6f89b766" target="_top" xlink:title="deallocates all dynamical structures and exits ">
<polygon fill="#ffffff" stroke="#000000" points="765,-38.5 765,-57.5 871,-57.5 871,-38.5 765,-38.5"/>
<text text-anchor="middle" x="818" y="-45.5" font-family="Helvetica,sans-Serif" font-size="10.00" fill="#000000">SNN::exitSimulation</text>
</a>
</g>
</g>
<!-- Node212&#45;&gt;Node213 -->
<g id="edge17" class="edge">
<title>Node212&#45;&gt;Node213</title>
<path fill="none" stroke="#191970" d="M662.9677,-76.46C691.2658,-71.2652 726.464,-64.8037 756.1665,-59.3511"/>
<polygon fill="#191970" stroke="#191970" points="756.8073,-62.792 766.011,-57.5439 755.5433,-55.9071 756.8073,-62.792"/>
</g>
<!-- Node218&#45;&gt;Node204 -->
<g id="edge31" class="edge">
<title>Node218&#45;&gt;Node204</title>
<path fill="none" stroke="#191970" d="M661.5627,-239.7034C674.5545,-242.4803 687.5226,-247.6649 697,-257 746.4602,-305.718 683.6002,-360.2208 733,-409 738.674,-414.6027 745.6173,-418.7034 753.066,-421.6832"/>
<polygon fill="#191970" stroke="#191970" points="752.1206,-425.0571 762.714,-424.8868 754.3265,-418.4138 752.1206,-425.0571"/>
</g>
<!-- Node218&#45;&gt;Node214 -->
<g id="edge25" class="edge">
<title>Node218&#45;&gt;Node214</title>
<path fill="none" stroke="#191970" d="M661.5716,-235.7374C674.4113,-232.9357 687.2996,-227.8783 697,-219 736.1948,-183.1269 693.8496,-140.9216 733,-105 737.1085,-101.2303 741.7971,-98.1524 746.8133,-95.6451"/>
<polygon fill="#191970" stroke="#191970" points="748.2804,-98.8251 756.1418,-91.7223 745.5669,-92.3724 748.2804,-98.8251"/>
</g>
<!-- Node219 -->
<g id="node21" class="node">
<title>Node219</title>
<g id="a_node21"><a xlink:href="classSNN.html#a2f4a65f43d2b15b984464dfb19959fe3" target="_top" xlink:title="Sets the file pointers for all log files file pointer NULL means don&#39;t change it. ...">
<polygon fill="#ffffff" stroke="#000000" points="773,-228.5 773,-247.5 863,-247.5 863,-228.5 773,-228.5"/>
<text text-anchor="middle" x="818" y="-235.5" font-family="Helvetica,sans-Serif" font-size="10.00" fill="#000000">SNN::setLogsFp</text>
</a>
</g>
</g>
<!-- Node218&#45;&gt;Node219 -->
<g id="edge23" class="edge">
<title>Node218&#45;&gt;Node219</title>
<path fill="none" stroke="#191970" d="M661.6379,-238C692.1779,-238 731.1119,-238 762.4887,-238"/>
<polygon fill="#191970" stroke="#191970" points="762.8168,-241.5001 772.8168,-238 762.8167,-234.5001 762.8168,-241.5001"/>
</g>
<!-- Node220 -->
<g id="node22" class="node">
<title>Node220</title>
<g id="a_node22"><a xlink:href="classSNN.html#a44b05911f213714c351379021852e12a" target="_top" xlink:title="find connection ID based on pre&#45;post group pair, O(N) ">
<polygon fill="#ffffff" stroke="#000000" points="766.5,-190.5 766.5,-209.5 869.5,-209.5 869.5,-190.5 766.5,-190.5"/>
<text text-anchor="middle" x="818" y="-197.5" font-family="Helvetica,sans-Serif" font-size="10.00" fill="#000000">SNN::getConnectId</text>
</a>
</g>
</g>
<!-- Node218&#45;&gt;Node220 -->
<g id="edge24" class="edge">
<title>Node218&#45;&gt;Node220</title>
<path fill="none" stroke="#191970" d="M661.6379,-228.7042C690.2423,-223.4531 726.2103,-216.8503 756.4357,-211.3017"/>
<polygon fill="#191970" stroke="#191970" points="757.2433,-214.712 766.4469,-209.4638 755.9793,-207.827 757.2433,-214.712"/>
</g>
<!-- Node221 -->
<g id="node23" class="node">
<title>Node221</title>
<g id="a_node23"><a xlink:href="classSNN.html#a37221c7881b5fa8d1d806804fb9521ab" target="_top" xlink:title="SNN::getConnSTDPInfo">
<polygon fill="#ffffff" stroke="#000000" points="755.5,-152.5 755.5,-171.5 880.5,-171.5 880.5,-152.5 755.5,-152.5"/>
<text text-anchor="middle" x="818" y="-159.5" font-family="Helvetica,sans-Serif" font-size="10.00" fill="#000000">SNN::getConnSTDPInfo</text>
</a>
</g>
</g>
<!-- Node218&#45;&gt;Node221 -->
<g id="edge26" class="edge">
<title>Node218&#45;&gt;Node221</title>
<path fill="none" stroke="#191970" d="M661.5076,-232.0536C673.6529,-229.2412 686.2207,-225.0995 697,-219 717.2477,-207.5429 712.7665,-192.4822 733,-181 736.9536,-178.7564 741.1507,-176.7778 745.4798,-175.0328"/>
<polygon fill="#191970" stroke="#191970" points="746.8929,-178.2443 755.1242,-171.5737 744.5296,-171.6553 746.8929,-178.2443"/>
</g>
<!-- Node222 -->
<g id="node24" class="node">
<title>Node222</title>
<g id="a_node24"><a xlink:href="classSNN.html#aee3e497537bc8121f6c0c8fb3730ae72" target="_top" xlink:title="returns the RangeDelay struct of a connection ">
<polygon fill="#ffffff" stroke="#000000" points="762,-114.5 762,-133.5 874,-133.5 874,-114.5 762,-114.5"/>
<text text-anchor="middle" x="818" y="-121.5" font-family="Helvetica,sans-Serif" font-size="10.00" fill="#000000">SNN::getDelayRange</text>
</a>
</g>
</g>
<!-- Node218&#45;&gt;Node222 -->
<g id="edge27" class="edge">
<title>Node218&#45;&gt;Node222</title>
<path fill="none" stroke="#191970" d="M661.6964,-234.6359C674.244,-231.803 686.9559,-227.0055 697,-219 726.2277,-195.7045 703.8012,-166.3317 733,-143 738.685,-138.4573 745.2365,-134.9511 752.1277,-132.2523"/>
<polygon fill="#191970" stroke="#191970" points="753.3153,-135.5457 761.6859,-129.0509 751.0921,-128.9081 753.3153,-135.5457"/>
</g>
<!-- Node223 -->
<g id="node25" class="node">
<title>Node223</title>
<g id="a_node25"><a xlink:href="classSNN.html#a317da03ce4b0b13d9621e277f468e058" target="_top" xlink:title="Returns the delay information for all synaptic connections between a pre&#45;synaptic and a post&#45;synaptic...">
<polygon fill="#ffffff" stroke="#000000" points="773.5,-342.5 773.5,-361.5 862.5,-361.5 862.5,-342.5 773.5,-342.5"/>
<text text-anchor="middle" x="818" y="-349.5" font-family="Helvetica,sans-Serif" font-size="10.00" fill="#000000">SNN::getDelays</text>
</a>
</g>
</g>
<!-- Node218&#45;&gt;Node223 -->
<g id="edge28" class="edge">
<title>Node218&#45;&gt;Node223</title>
<path fill="none" stroke="#191970" d="M661.6964,-241.3641C674.244,-244.197 686.9559,-248.9945 697,-257 726.2277,-280.2955 703.8012,-309.6683 733,-333 741.6826,-339.9379 752.3861,-344.4581 763.2345,-347.3771"/>
<polygon fill="#191970" stroke="#191970" points="762.658,-350.8351 773.1842,-349.631 764.2046,-344.0081 762.658,-350.8351"/>
</g>
<!-- Node218&#45;&gt;Node224 -->
<g id="edge29" class="edge">
<title>Node218&#45;&gt;Node224</title>
<path fill="none" stroke="#191970" d="M661.5716,-240.2626C674.4113,-243.0643 687.2996,-248.1217 697,-257 736.1948,-292.8731 693.8496,-335.0784 733,-371 738.0904,-375.6706 744.0712,-379.2793 750.4623,-382.0563"/>
<polygon fill="#191970" stroke="#191970" points="749.47,-385.4198 760.0639,-385.5567 751.8676,-378.8432 749.47,-385.4198"/>
</g>
<!-- Node225 -->
<g id="node27" class="node">
<title>Node225</title>
<g id="a_node27"><a xlink:href="classSNN.html#a757c874860e9e4d5ce0716e76b1a3e78" target="_top" xlink:title="SNN::getGroupId">
<polygon fill="#ffffff" stroke="#000000" points="772,-304.5 772,-323.5 864,-323.5 864,-304.5 772,-304.5"/>
<text text-anchor="middle" x="818" y="-311.5" font-family="Helvetica,sans-Serif" font-size="10.00" fill="#000000">SNN::getGroupId</text>
</a>
</g>
</g>
<!-- Node218&#45;&gt;Node225 -->
<g id="edge30" class="edge">
<title>Node218&#45;&gt;Node225</title>
<path fill="none" stroke="#191970" d="M661.5076,-243.9464C673.6529,-246.7588 686.2207,-250.9005 697,-257 717.2477,-268.4571 712.7665,-283.5178 733,-295 741.7784,-299.9816 751.7578,-303.6571 761.7152,-306.3689"/>
<polygon fill="#191970" stroke="#191970" points="761.0765,-309.8154 771.6198,-308.7722 762.7272,-303.0128 761.0765,-309.8154"/>
</g>
<!-- Node226 -->
<g id="node28" class="node">
<title>Node226</title>
<g id="a_node28"><a xlink:href="classSNN.html#aa1c9457d6e17337cfc20cee263f1159f" target="_top" xlink:title="SNN::getGroupNeuromodulatorInfo">
<polygon fill="#ffffff" stroke="#000000" points="733,-266.5 733,-285.5 903,-285.5 903,-266.5 733,-266.5"/>
<text text-anchor="middle" x="818" y="-273.5" font-family="Helvetica,sans-Serif" font-size="10.00" fill="#000000">SNN::getGroupNeuromodulatorInfo</text>
</a>
</g>
</g>
<!-- Node218&#45;&gt;Node226 -->
<g id="edge32" class="edge">
<title>Node218&#45;&gt;Node226</title>
<path fill="none" stroke="#191970" d="M661.6379,-247.2958C690.1348,-252.5272 725.94,-259.1001 756.0945,-264.6357"/>
<polygon fill="#191970" stroke="#191970" points="755.6179,-268.1066 766.0855,-266.4698 756.8819,-261.2217 755.6179,-268.1066"/>
</g>
<!-- Node232 -->
<g id="node34" class="node">
<title>Node232</title>
<g id="a_node34"><a xlink:href="classSNN.html#a5fd2b156623d78138bcb44167eabab78" target="_top" xlink:title="SNN::getSimTime">
<polygon fill="#ffffff" stroke="#000000" points="365.5,-95.5 365.5,-114.5 462.5,-114.5 462.5,-95.5 365.5,-95.5"/>
<text text-anchor="middle" x="414" y="-102.5" font-family="Helvetica,sans-Serif" font-size="10.00" fill="#000000">SNN::getSimTime</text>
</a>
</g>
</g>
<!-- Node231&#45;&gt;Node232 -->
<g id="edge40" class="edge">
<title>Node231&#45;&gt;Node232</title>
<path fill="none" stroke="#191970" d="M302.5338,-93.1019C319.7882,-94.9437 338.2481,-96.9141 355.081,-98.7109"/>
<polygon fill="#191970" stroke="#191970" points="355.0112,-102.2232 365.3262,-99.8045 355.7543,-95.2628 355.0112,-102.2232"/>
</g>
<!-- Node233 -->
<g id="node35" class="node">
<title>Node233</title>
<g id="a_node35"><a xlink:href="classSNN.html#a592ba98ba647dc5ae0aba0d26241fef8" target="_top" xlink:title="SNN::getWeightMatrix2D">
<polygon fill="#ffffff" stroke="#000000" points="350,-57.5 350,-76.5 478,-76.5 478,-57.5 350,-57.5"/>
<text text-anchor="middle" x="414" y="-64.5" font-family="Helvetica,sans-Serif" font-size="10.00" fill="#000000">SNN::getWeightMatrix2D</text>
</a>
</g>
</g>
<!-- Node231&#45;&gt;Node233 -->
<g id="edge41" class="edge">
<title>Node231&#45;&gt;Node233</title>
<path fill="none" stroke="#191970" d="M302.5338,-78.8981C314.6457,-77.6052 327.3515,-76.249 339.6717,-74.9339"/>
<polygon fill="#191970" stroke="#191970" points="340.3364,-78.3829 349.9084,-73.8412 339.5933,-71.4225 340.3364,-78.3829"/>
</g>
</g>
</svg>
