<?xml version="1.0" encoding="UTF-8" standalone="no"?>
<!DOCTYPE svg PUBLIC "-//W3C//DTD SVG 1.1//EN"
 "http://www.w3.org/Graphics/SVG/1.1/DTD/svg11.dtd">
<!-- Generated by graphviz version 2.40.1 (20161225.0304)
 -->
<!-- Title: getNumWeightsWithValue Pages: 1 -->
<!--zoomable 176 -->
<svg id="main" version="1.1" xmlns="http://www.w3.org/2000/svg" xmlns:xlink="http://www.w3.org/1999/xlink" xml:space="preserve" onload="init(evt)">
<style type="text/css"><![CDATA[
.edge:hover path { stroke: red; }
.edge:hover polygon { stroke: red; fill: red; }
]]></style>
<script type="text/javascript"><![CDATA[
var edges = document.getElementsByTagName('g');
if (edges && edges.length) {
  for (var i=0;i<edges.length;i++) {
    if (edges[i].id.substr(0,4)=='edge') {
      edges[i].setAttribute('class','edge');
    }
  }
}
]]></script>
        <defs>
                <circle id="rim" cx="0" cy="0" r="7"/>
                <circle id="rim2" cx="0" cy="0" r="3.5"/>
                <g id="zoomPlus">
                        <use xlink:href="#rim" fill="#404040">
                                <set attributeName="fill" to="#808080" begin="zoomplus.mouseover" end="zoomplus.mouseout"/>
                        </use>
                        <path d="M-4,0h8M0,-4v8" fill="none" stroke="white" stroke-width="1.5" pointer-events="none"/>
                </g>
                <g id="zoomMin">
                        <use xlink:href="#rim" fill="#404040">
                                <set attributeName="fill" to="#808080" begin="zoomminus.mouseover" end="zoomminus.mouseout"/>
                        </use>
                        <path d="M-4,0h8" fill="none" stroke="white" stroke-width="1.5" pointer-events="none"/>
                </g>
                <g id="dirArrow">
                        <path fill="none" stroke="white" stroke-width="1.5" d="M0,-3.0v7 M-2.5,-0.5L0,-3.0L2.5,-0.5"/>
                </g>
               <g id="resetDef">
                       <use xlink:href="#rim2" fill="#404040">
                               <set attributeName="fill" to="#808080" begin="reset.mouseover" end="reset.mouseout"/>
                       </use>
               </g>
        </defs>

<script type="text/javascript">
var viewWidth = 822;
var viewHeight = 176;
var sectionId = 'dynsection-18';
</script>
<script xlink:href="svgpan.js"/>
<svg id="graph" class="graph">
<g id="viewport">
<title>getNumWeightsWithValue</title>
<polygon fill="#ffffff" stroke="transparent" points="-4,4 -4,-172 818,-172 818,4 -4,4"/>
<!-- Node147 -->
<g id="node1" class="node">
<title>Node147</title>
<polygon fill="#bfbfbf" stroke="#000000" points="0,-88 0,-107 132,-107 132,-88 0,-88"/>
<text text-anchor="middle" x="66" y="-95" font-family="Helvetica,sans-Serif" font-size="10.00" fill="#000000">getNumWeightsWithValue</text>
</g>
<!-- Node148 -->
<g id="node2" class="node">
<title>Node148</title>
<g id="a_node2"><a xlink:href="classConnectionMonitor.html#af0258258ab62c21e22a4bc98dcaa050e" target="_top" xlink:title="Returns the number of weights in the connection with a particular value. ">
<polygon fill="#ffffff" stroke="#000000" points="168,-129.5 168,-159.5 300,-159.5 300,-129.5 168,-129.5"/>
<text text-anchor="start" x="176" y="-147.5" font-family="Helvetica,sans-Serif" font-size="10.00" fill="#000000">ConnectionMonitor::</text>
<text text-anchor="middle" x="234" y="-136.5" font-family="Helvetica,sans-Serif" font-size="10.00" fill="#000000">getNumWeightsWithValue</text>
</a>
</g>
</g>
<!-- Node147&#45;&gt;Node148 -->
<g id="edge1" class="edge">
<title>Node147&#45;&gt;Node148</title>
<path fill="none" stroke="#191970" d="M109.845,-109.7662C131.3673,-115.7873 157.4886,-123.095 180.2084,-129.4512"/>
<polygon fill="#191970" stroke="#191970" points="110.5705,-106.3348 99.9973,-107.0112 108.6846,-113.076 110.5705,-106.3348"/>
</g>
<!-- Node150 -->
<g id="node4" class="node">
<title>Node150</title>
<g id="a_node4"><a xlink:href="classConnectionMonitorCore.html#a7373a8cecde25ccd48b3df967b5b0417" target="_top" xlink:title="returns number of synapses that exist in the connection ">
<polygon fill="#ffffff" stroke="#000000" points="186.5,-88 186.5,-107 281.5,-107 281.5,-88 186.5,-88"/>
<text text-anchor="middle" x="234" y="-95" font-family="Helvetica,sans-Serif" font-size="10.00" fill="#000000">getNumSynapses</text>
</a>
</g>
</g>
<!-- Node147&#45;&gt;Node150 -->
<g id="edge3" class="edge">
<title>Node147&#45;&gt;Node150</title>
<path fill="none" stroke="#191970" d="M142.658,-97.5C157.5836,-97.5 172.8207,-97.5 186.465,-97.5"/>
<polygon fill="#191970" stroke="#191970" points="142.3981,-94.0001 132.398,-97.5 142.398,-101.0001 142.3981,-94.0001"/>
</g>
<!-- Node149 -->
<g id="node3" class="node">
<title>Node149</title>
<g id="a_node3"><a xlink:href="classConnectionMonitor.html#aaae3bcd84ecd00b25b7c8e03ac37e5c0" target="_top" xlink:title="Returns the percentage of weights in the connection with a particular value. ">
<polygon fill="#ffffff" stroke="#000000" points="496,-137.5 496,-167.5 641,-167.5 641,-137.5 496,-137.5"/>
<text text-anchor="start" x="504" y="-155.5" font-family="Helvetica,sans-Serif" font-size="10.00" fill="#000000">ConnectionMonitor::</text>
<text text-anchor="middle" x="568.5" y="-144.5" font-family="Helvetica,sans-Serif" font-size="10.00" fill="#000000">getPercentWeightsWithValue</text>
</a>
</g>
</g>
<!-- Node148&#45;&gt;Node149 -->
<g id="edge2" class="edge">
<title>Node148&#45;&gt;Node149</title>
<path fill="none" stroke="#191970" d="M310.2539,-146.3237C365.9629,-147.6561 441.0365,-149.4515 495.8782,-150.7632"/>
<polygon fill="#191970" stroke="#191970" points="310.1673,-142.8207 300.0864,-146.0805 309.9999,-149.8187 310.1673,-142.8207"/>
</g>
<!-- Node151 -->
<g id="node5" class="node">
<title>Node151</title>
<g id="a_node5"><a xlink:href="classConnectionMonitor.html#a7373a8cecde25ccd48b3df967b5b0417" target="_top" xlink:title="Returns the number of allocated synapses. ">
<polygon fill="#ffffff" stroke="#000000" points="346,-88.5 346,-118.5 450,-118.5 450,-88.5 346,-88.5"/>
<text text-anchor="start" x="354" y="-106.5" font-family="Helvetica,sans-Serif" font-size="10.00" fill="#000000">ConnectionMonitor::</text>
<text text-anchor="middle" x="398" y="-95.5" font-family="Helvetica,sans-Serif" font-size="10.00" fill="#000000">getNumSynapses</text>
</a>
</g>
</g>
<!-- Node150&#45;&gt;Node151 -->
<g id="edge4" class="edge">
<title>Node150&#45;&gt;Node151</title>
<path fill="none" stroke="#191970" d="M291.9816,-99.6213C309.5058,-100.2624 328.6351,-100.9623 345.7607,-101.5888"/>
<polygon fill="#191970" stroke="#191970" points="291.9978,-96.1196 281.8765,-99.2516 291.7418,-103.1149 291.9978,-96.1196"/>
</g>
<!-- Node154 -->
<g id="node8" class="node">
<title>Node154</title>
<g id="a_node8"><a xlink:href="classConnectionMonitorCore.html#a6c63078d9c2226cd48f51e4d4ed0d4db" target="_top" xlink:title="returns number of weights with values in range e[minVal,maxVal] (inclusive) ">
<polygon fill="#ffffff" stroke="#000000" points="336,-50 336,-69 460,-69 460,-50 336,-50"/>
<text text-anchor="middle" x="398" y="-57" font-family="Helvetica,sans-Serif" font-size="10.00" fill="#000000">getNumWeightsInRange</text>
</a>
</g>
</g>
<!-- Node150&#45;&gt;Node154 -->
<g id="edge8" class="edge">
<title>Node150&#45;&gt;Node154</title>
<path fill="none" stroke="#191970" d="M264.9099,-84.9227C284.932,-79.0654 311.7095,-72.4765 335.995,-67.2986"/>
<polygon fill="#191970" stroke="#191970" points="263.6516,-81.6471 255.1044,-87.9076 265.6903,-88.3436 263.6516,-81.6471"/>
</g>
<!-- Node151&#45;&gt;Node149 -->
<g id="edge7" class="edge">
<title>Node151&#45;&gt;Node149</title>
<path fill="none" stroke="#191970" d="M459.8585,-121.2775C478.3173,-126.5824 498.3619,-132.343 516.1494,-137.4549"/>
<polygon fill="#191970" stroke="#191970" points="460.6598,-117.8662 450.0821,-118.4679 458.7263,-124.5939 460.6598,-117.8662"/>
</g>
<!-- Node152 -->
<g id="node6" class="node">
<title>Node152</title>
<g id="a_node6"><a xlink:href="classConnectionMonitor.html#ab8aa0b542059991a270030b6528d92bd" target="_top" xlink:title="Returns the percentage of weights that have changed since the last snapshot. ">
<polygon fill="#ffffff" stroke="#000000" points="499,-88.5 499,-118.5 638,-118.5 638,-88.5 499,-88.5"/>
<text text-anchor="start" x="507" y="-106.5" font-family="Helvetica,sans-Serif" font-size="10.00" fill="#000000">ConnectionMonitor::</text>
<text text-anchor="middle" x="568.5" y="-95.5" font-family="Helvetica,sans-Serif" font-size="10.00" fill="#000000">getPercentWeightsChanged</text>
</a>
</g>
</g>
<!-- Node151&#45;&gt;Node152 -->
<g id="edge5" class="edge">
<title>Node151&#45;&gt;Node152</title>
<path fill="none" stroke="#191970" d="M460.3908,-103.5C472.8924,-103.5 486.1022,-103.5 498.8322,-103.5"/>
<polygon fill="#191970" stroke="#191970" points="460.0821,-100.0001 450.0821,-103.5 460.082,-107.0001 460.0821,-100.0001"/>
</g>
<!-- Node153 -->
<g id="node7" class="node">
<title>Node153</title>
<g id="a_node7"><a xlink:href="classConnectionMonitor.html#a173c90da62c3cb84f7e8c9db9a00d950" target="_top" xlink:title="Returns the percentage of weights whose values are within some range (inclusive) ">
<polygon fill="#ffffff" stroke="#000000" points="677,-22.5 677,-52.5 814,-52.5 814,-22.5 677,-22.5"/>
<text text-anchor="start" x="685" y="-40.5" font-family="Helvetica,sans-Serif" font-size="10.00" fill="#000000">ConnectionMonitor::</text>
<text text-anchor="middle" x="745.5" y="-29.5" font-family="Helvetica,sans-Serif" font-size="10.00" fill="#000000">getPercentWeightsInRange</text>
</a>
</g>
</g>
<!-- Node151&#45;&gt;Node153 -->
<g id="edge6" class="edge">
<title>Node151&#45;&gt;Node153</title>
<path fill="none" stroke="#191970" d="M460.0379,-86.8081C471.932,-83.8539 484.3186,-80.9449 496,-78.5 556.7967,-65.7751 626.6107,-54.5911 676.8992,-47.1321"/>
<polygon fill="#191970" stroke="#191970" points="459.03,-83.4526 450.1891,-89.2911 460.7413,-90.2402 459.03,-83.4526"/>
</g>
<!-- Node154&#45;&gt;Node147 -->
<g id="edge11" class="edge">
<title>Node154&#45;&gt;Node147</title>
<path fill="none" stroke="#191970" d="M325.7789,-63.5746C280.3639,-66.6043 220.6095,-71.4457 168,-78.5 149.4327,-80.9896 129.1174,-84.5922 111.5386,-87.9925"/>
<polygon fill="#191970" stroke="#191970" points="326.0772,-67.0627 335.8278,-62.9181 325.6208,-60.0775 326.0772,-67.0627"/>
</g>
<!-- Node154&#45;&gt;Node150 -->
<g id="edge12" class="edge">
<title>Node154&#45;&gt;Node150</title>
<path fill="none" stroke="#191970" d="M367.458,-71.9696C343.4292,-79.0174 309.5071,-87.1469 281.8765,-92.6078"/>
<polygon fill="#191970" stroke="#191970" points="368.5601,-75.2926 377.1031,-69.0262 366.5169,-68.5975 368.5601,-75.2926"/>
</g>
<!-- Node155 -->
<g id="node9" class="node">
<title>Node155</title>
<g id="a_node9"><a xlink:href="classConnectionMonitor.html#ad005723dcdb0848e308eb2483c2dab2c" target="_top" xlink:title="Returns the number of weights in the connection whose values are within some range (inclusive) ...">
<polygon fill="#ffffff" stroke="#000000" points="506.5,-.5 506.5,-30.5 630.5,-30.5 630.5,-.5 506.5,-.5"/>
<text text-anchor="start" x="514.5" y="-18.5" font-family="Helvetica,sans-Serif" font-size="10.00" fill="#000000">ConnectionMonitor::</text>
<text text-anchor="middle" x="568.5" y="-7.5" font-family="Helvetica,sans-Serif" font-size="10.00" fill="#000000">getNumWeightsInRange</text>
</a>
</g>
</g>
<!-- Node154&#45;&gt;Node155 -->
<g id="edge9" class="edge">
<title>Node154&#45;&gt;Node155</title>
<path fill="none" stroke="#191970" d="M444.8773,-47.4026C465.0427,-42.1987 488.828,-36.0605 510.1217,-30.5654"/>
<polygon fill="#191970" stroke="#191970" points="443.8041,-44.0648 434.996,-49.9527 445.5533,-50.8428 443.8041,-44.0648"/>
</g>
<!-- Node155&#45;&gt;Node153 -->
<g id="edge10" class="edge">
<title>Node155&#45;&gt;Node153</title>
<path fill="none" stroke="#191970" d="M641.1268,-24.5271C652.8985,-25.9902 665.0575,-27.5015 676.7337,-28.9528"/>
<polygon fill="#191970" stroke="#191970" points="641.259,-21.0166 630.9036,-23.2564 640.3955,-27.9632 641.259,-21.0166"/>
</g>
</g>
</svg>
        <g id="navigator" transform="translate(0 0)" fill="#404254">
                <rect fill="#f2f5e9" fill-opacity="0.5" stroke="#606060" stroke-width=".5" x="0" y="0" width="60" height="60"/>
                <use id="zoomplus" xlink:href="#zoomPlus" x="17" y="9" onmousedown="handleZoom(evt,'in')"/>
                <use id="zoomminus" xlink:href="#zoomMin" x="42" y="9" onmousedown="handleZoom(evt,'out')"/>
                <use id="reset" xlink:href="#resetDef" x="30" y="36" onmousedown="handleReset()"/>
                <g id="arrowUp" xlink:href="#dirArrow" transform="translate(30 24)" onmousedown="handlePan(0,-1)">
                  <use xlink:href="#rim" fill="#404040">
                        <set attributeName="fill" to="#808080" begin="arrowUp.mouseover" end="arrowUp.mouseout"/>
                  </use>
                  <path fill="none" stroke="white" stroke-width="1.5" d="M0,-3.0v7 M-2.5,-0.5L0,-3.0L2.5,-0.5"/>
                </g>
                <g id="arrowRight" xlink:href="#dirArrow" transform="rotate(90) translate(36 -43)" onmousedown="handlePan(1,0)">
                  <use xlink:href="#rim" fill="#404040">
                        <set attributeName="fill" to="#808080" begin="arrowRight.mouseover" end="arrowRight.mouseout"/>
                  </use>
                  <path fill="none" stroke="white" stroke-width="1.5" d="M0,-3.0v7 M-2.5,-0.5L0,-3.0L2.5,-0.5"/>
                </g>
                <g id="arrowDown" xlink:href="#dirArrow" transform="rotate(180) translate(-30 -48)" onmousedown="handlePan(0,1)">
                  <use xlink:href="#rim" fill="#404040">
                        <set attributeName="fill" to="#808080" begin="arrowDown.mouseover" end="arrowDown.mouseout"/>
                  </use>
                  <path fill="none" stroke="white" stroke-width="1.5" d="M0,-3.0v7 M-2.5,-0.5L0,-3.0L2.5,-0.5"/>
                </g>
                <g id="arrowLeft" xlink:href="#dirArrow" transform="rotate(270) translate(-36 17)" onmousedown="handlePan(-1,0)">
                  <use xlink:href="#rim" fill="#404040">
                        <set attributeName="fill" to="#808080" begin="arrowLeft.mouseover" end="arrowLeft.mouseout"/>
                  </use>
                  <path fill="none" stroke="white" stroke-width="1.5" d="M0,-3.0v7 M-2.5,-0.5L0,-3.0L2.5,-0.5"/>
                </g>
        </g>
        <svg viewBox="0 0 15 15" width="100%" height="30px" preserveAspectRatio="xMaxYMin meet">
         <g id="arrow_out" transform="scale(0.3 0.3)">
          <a xlink:href="classConnectionMonitorCore_af0258258ab62c21e22a4bc98dcaa050e_icgraph_org.svg" target="_base">
           <rect id="button" ry="5" rx="5" y="6" x="6" height="38" width="38"
                fill="#f2f5e9" fill-opacity="0.5" stroke="#606060" stroke-width="1.0"/>
           <path id="arrow"
             d="M 11.500037,31.436501 C 11.940474,20.09759 22.043105,11.32322 32.158766,21.979434 L 37.068811,17.246167 C 37.068811,17.246167 37.088388,32 37.088388,32 L 22.160133,31.978069 C 22.160133,31.978069 26.997745,27.140456 26.997745,27.140456 C 18.528582,18.264221 13.291696,25.230495 11.500037,31.436501 z"
             style="fill:#404040;"/>
          </a>
         </g>
        </svg>
</svg>
