<?xml version="1.0" encoding="UTF-8" standalone="no"?>
<!DOCTYPE svg PUBLIC "-//W3C//DTD SVG 1.1//EN"
 "http://www.w3.org/Graphics/SVG/1.1/DTD/svg11.dtd">
<!-- Generated by graphviz version 2.40.1 (20161225.0304)
 -->
<!-- Title: setDefaultISTDPparams Pages: 1 -->
<svg width="455pt" height="39pt"
 viewBox="0.00 0.00 455.00 39.00" xmlns="http://www.w3.org/2000/svg" xmlns:xlink="http://www.w3.org/1999/xlink">
<g id="graph0" class="graph" transform="scale(1 1) rotate(0) translate(4 35)">
<title>setDefaultISTDPparams</title>
<polygon fill="#ffffff" stroke="transparent" points="-4,4 -4,-35 451,-35 451,4 -4,4"/>
<!-- Node627 -->
<g id="node1" class="node">
<title>Node627</title>
<polygon fill="#bfbfbf" stroke="#000000" points="0,-6 0,-25 124,-25 124,-6 0,-6"/>
<text text-anchor="middle" x="62" y="-13" font-family="Helvetica,sans-Serif" font-size="10.00" fill="#000000">setDefaultISTDPparams</text>
</g>
<!-- Node628 -->
<g id="node2" class="node">
<title>Node628</title>
<g id="a_node2"><a xlink:href="classCARLsim_1_1Impl.html#a5640d10d796eb10b044cfc8c2e021619" target="_top" xlink:title="CARLsim::Impl::setDefault\lISTDPparams">
<polygon fill="#ffffff" stroke="#000000" points="160,-.5 160,-30.5 295,-30.5 295,-.5 160,-.5"/>
<text text-anchor="start" x="168" y="-18.5" font-family="Helvetica,sans-Serif" font-size="10.00" fill="#000000">CARLsim::Impl::setDefault</text>
<text text-anchor="middle" x="227.5" y="-7.5" font-family="Helvetica,sans-Serif" font-size="10.00" fill="#000000">ISTDPparams</text>
</a>
</g>
</g>
<!-- Node627&#45;&gt;Node628 -->
<g id="edge1" class="edge">
<title>Node627&#45;&gt;Node628</title>
<path fill="none" stroke="#191970" d="M124.097,-15.5C132.4694,-15.5 141.1432,-15.5 149.7447,-15.5"/>
<polygon fill="#191970" stroke="#191970" points="149.7866,-19.0001 159.7866,-15.5 149.7866,-12.0001 149.7866,-19.0001"/>
</g>
<!-- Node629 -->
<g id="node3" class="node">
<title>Node629</title>
<g id="a_node3"><a xlink:href="classUserErrors.html#a4bbedc6c0817d5e59e74e450bf00472c" target="_top" xlink:title="simple wrapper for assert statement ">
<polygon fill="#ffffff" stroke="#000000" points="331,-6 331,-25 447,-25 447,-6 331,-6"/>
<text text-anchor="middle" x="389" y="-13" font-family="Helvetica,sans-Serif" font-size="10.00" fill="#000000">UserErrors::assertTrue</text>
</a>
</g>
</g>
<!-- Node628&#45;&gt;Node629 -->
<g id="edge2" class="edge">
<title>Node628&#45;&gt;Node629</title>
<path fill="none" stroke="#191970" d="M295.0548,-15.5C303.535,-15.5 312.2147,-15.5 320.7061,-15.5"/>
<polygon fill="#191970" stroke="#191970" points="320.9444,-19.0001 330.9443,-15.5 320.9443,-12.0001 320.9444,-19.0001"/>
</g>
</g>
</svg>
