<?xml version="1.0" encoding="UTF-8" standalone="no"?>
<!DOCTYPE svg PUBLIC "-//W3C//DTD SVG 1.1//EN"
 "http://www.w3.org/Graphics/SVG/1.1/DTD/svg11.dtd">
<!-- Generated by graphviz version 2.40.1 (20161225.0304)
 -->
<!-- Title: getMode Pages: 1 -->
<svg width="211pt" height="104pt"
 viewBox="0.00 0.00 211.00 104.00" xmlns="http://www.w3.org/2000/svg" xmlns:xlink="http://www.w3.org/1999/xlink">
<g id="graph0" class="graph" transform="scale(1 1) rotate(0) translate(4 100)">
<title>getMode</title>
<polygon fill="#ffffff" stroke="transparent" points="-4,4 -4,-100 207,-100 207,4 -4,4"/>
<!-- Node97 -->
<g id="node1" class="node">
<title>Node97</title>
<polygon fill="#bfbfbf" stroke="#000000" points="0,-38.5 0,-57.5 54,-57.5 54,-38.5 0,-38.5"/>
<text text-anchor="middle" x="27" y="-45.5" font-family="Helvetica,sans-Serif" font-size="10.00" fill="#000000">getMode</text>
</g>
<!-- Node98 -->
<g id="node2" class="node">
<title>Node98</title>
<g id="a_node2"><a xlink:href="classSpikeMonitor.html#af6c333e6cefff92d0e354eca70625cdc" target="_top" xlink:title="Returns the total number of spikes in the group. ">
<polygon fill="#ffffff" stroke="#000000" points="97.5,-76.5 97.5,-95.5 195.5,-95.5 195.5,-76.5 97.5,-76.5"/>
<text text-anchor="middle" x="146.5" y="-83.5" font-family="Helvetica,sans-Serif" font-size="10.00" fill="#000000">getPopNumSpikes</text>
</a>
</g>
</g>
<!-- Node97&#45;&gt;Node98 -->
<g id="edge1" class="edge">
<title>Node97&#45;&gt;Node98</title>
<path fill="none" stroke="#191970" d="M63.7075,-59.6727C80.6574,-65.0626 100.5288,-71.3815 116.5547,-76.4777"/>
<polygon fill="#191970" stroke="#191970" points="64.7068,-56.3178 54.1164,-56.6228 62.5855,-62.9887 64.7068,-56.3178"/>
</g>
<!-- Node99 -->
<g id="node3" class="node">
<title>Node99</title>
<g id="a_node3"><a xlink:href="classSpikeMonitor.html#a005a2f884f6260054483d4fa6ed6ddbb" target="_top" xlink:title="returns the total number of spikes of a specific neuron in the group ">
<polygon fill="#ffffff" stroke="#000000" points="90,-38.5 90,-57.5 203,-57.5 203,-38.5 90,-38.5"/>
<text text-anchor="middle" x="146.5" y="-45.5" font-family="Helvetica,sans-Serif" font-size="10.00" fill="#000000">getNeuronNumSpikes</text>
</a>
</g>
</g>
<!-- Node97&#45;&gt;Node99 -->
<g id="edge2" class="edge">
<title>Node97&#45;&gt;Node99</title>
<path fill="none" stroke="#191970" d="M64.3,-48C72.3732,-48 81.0862,-48 89.7165,-48"/>
<polygon fill="#191970" stroke="#191970" points="64.1164,-44.5001 54.1164,-48 64.1164,-51.5001 64.1164,-44.5001"/>
</g>
<!-- Node100 -->
<g id="node4" class="node">
<title>Node100</title>
<g id="a_node4"><a xlink:href="classSpikeMonitor.html#a64ccdac1d5dacee8b6e45e8a2a9fc40b" target="_top" xlink:title="returns the 2D spike vector ">
<polygon fill="#ffffff" stroke="#000000" points="98.5,-.5 98.5,-19.5 194.5,-19.5 194.5,-.5 98.5,-.5"/>
<text text-anchor="middle" x="146.5" y="-7.5" font-family="Helvetica,sans-Serif" font-size="10.00" fill="#000000">getSpikeVector2D</text>
</a>
</g>
</g>
<!-- Node97&#45;&gt;Node100 -->
<g id="edge3" class="edge">
<title>Node97&#45;&gt;Node100</title>
<path fill="none" stroke="#191970" d="M63.7075,-36.3273C80.6574,-30.9374 100.5288,-24.6185 116.5547,-19.5223"/>
<polygon fill="#191970" stroke="#191970" points="62.5855,-33.0113 54.1164,-39.3772 64.7068,-39.6822 62.5855,-33.0113"/>
</g>
</g>
</svg>
