<?xml version="1.0" encoding="UTF-8" standalone="no"?>
<!DOCTYPE svg PUBLIC "-//W3C//DTD SVG 1.1//EN"
 "http://www.w3.org/Graphics/SVG/1.1/DTD/svg11.dtd">
<!-- Generated by graphviz version 2.40.1 (20161225.0304)
 -->
<!-- Title: setESTDP Pages: 1 -->
<!--zoomable 218 -->
<svg id="main" version="1.1" xmlns="http://www.w3.org/2000/svg" xmlns:xlink="http://www.w3.org/1999/xlink" xml:space="preserve" onload="init(evt)">
<style type="text/css"><![CDATA[
.edge:hover path { stroke: red; }
.edge:hover polygon { stroke: red; fill: red; }
]]></style>
<script type="text/javascript"><![CDATA[
var edges = document.getElementsByTagName('g');
if (edges && edges.length) {
  for (var i=0;i<edges.length;i++) {
    if (edges[i].id.substr(0,4)=='edge') {
      edges[i].setAttribute('class','edge');
    }
  }
}
]]></script>
        <defs>
                <circle id="rim" cx="0" cy="0" r="7"/>
                <circle id="rim2" cx="0" cy="0" r="3.5"/>
                <g id="zoomPlus">
                        <use xlink:href="#rim" fill="#404040">
                                <set attributeName="fill" to="#808080" begin="zoomplus.mouseover" end="zoomplus.mouseout"/>
                        </use>
                        <path d="M-4,0h8M0,-4v8" fill="none" stroke="white" stroke-width="1.5" pointer-events="none"/>
                </g>
                <g id="zoomMin">
                        <use xlink:href="#rim" fill="#404040">
                                <set attributeName="fill" to="#808080" begin="zoomminus.mouseover" end="zoomminus.mouseout"/>
                        </use>
                        <path d="M-4,0h8" fill="none" stroke="white" stroke-width="1.5" pointer-events="none"/>
                </g>
                <g id="dirArrow">
                        <path fill="none" stroke="white" stroke-width="1.5" d="M0,-3.0v7 M-2.5,-0.5L0,-3.0L2.5,-0.5"/>
                </g>
               <g id="resetDef">
                       <use xlink:href="#rim2" fill="#404040">
                               <set attributeName="fill" to="#808080" begin="reset.mouseover" end="reset.mouseout"/>
                       </use>
               </g>
        </defs>

<script type="text/javascript">
var viewWidth = 775;
var viewHeight = 218;
var sectionId = 'dynsection-94';
</script>
<script xlink:href="svgpan.js"/>
<svg id="graph" class="graph">
<g id="viewport">
<title>setESTDP</title>
<polygon fill="#ffffff" stroke="transparent" points="-4,4 -4,-214 771,-214 771,4 -4,4"/>
<!-- Node692 -->
<g id="node1" class="node">
<title>Node692</title>
<polygon fill="#bfbfbf" stroke="#000000" points="0,-114.5 0,-133.5 64,-133.5 64,-114.5 0,-114.5"/>
<text text-anchor="middle" x="32" y="-121.5" font-family="Helvetica,sans-Serif" font-size="10.00" fill="#000000">setESTDP</text>
</g>
<!-- Node693 -->
<g id="node2" class="node">
<title>Node693</title>
<g id="a_node2"><a xlink:href="classCARLsim_1_1Impl.html#ac79aadf0ac87b2ae34f39ae796ad81a3" target="_top" xlink:title="CARLsim::Impl::setESTDP">
<polygon fill="#ffffff" stroke="#000000" points="100,-114.5 100,-133.5 237,-133.5 237,-114.5 100,-114.5"/>
<text text-anchor="middle" x="168.5" y="-121.5" font-family="Helvetica,sans-Serif" font-size="10.00" fill="#000000">CARLsim::Impl::setESTDP</text>
</a>
</g>
</g>
<!-- Node692&#45;&gt;Node693 -->
<g id="edge1" class="edge">
<title>Node692&#45;&gt;Node693</title>
<path fill="none" stroke="#191970" d="M64.0032,-124C71.8468,-124 80.5902,-124 89.5871,-124"/>
<polygon fill="#191970" stroke="#191970" points="89.8181,-127.5001 99.8181,-124 89.818,-120.5001 89.8181,-127.5001"/>
</g>
<!-- Node694 -->
<g id="node3" class="node">
<title>Node694</title>
<g id="a_node3"><a xlink:href="classCARLsim_1_1Impl.html#ab0367f8ebd4019bf7d34ebddb1563fe7" target="_top" xlink:title="CARLsim::Impl::getGroupName">
<polygon fill="#ffffff" stroke="#000000" points="273,-92.5 273,-111.5 429,-111.5 429,-92.5 273,-92.5"/>
<text text-anchor="middle" x="351" y="-99.5" font-family="Helvetica,sans-Serif" font-size="10.00" fill="#000000">CARLsim::Impl::getGroupName</text>
</a>
</g>
</g>
<!-- Node693&#45;&gt;Node694 -->
<g id="edge2" class="edge">
<title>Node693&#45;&gt;Node694</title>
<path fill="none" stroke="#191970" d="M237.2354,-115.7141C245.5871,-114.7073 254.2072,-113.6682 262.7914,-112.6334"/>
<polygon fill="#191970" stroke="#191970" points="263.3245,-116.0945 272.8337,-111.4228 262.4866,-109.1448 263.3245,-116.0945"/>
</g>
<!-- Node695 -->
<g id="node4" class="node">
<title>Node695</title>
<g id="a_node4"><a xlink:href="classUserErrors.html#a4bbedc6c0817d5e59e74e450bf00472c" target="_top" xlink:title="simple wrapper for assert statement ">
<polygon fill="#ffffff" stroke="#000000" points="485,-152.5 485,-171.5 601,-171.5 601,-152.5 485,-152.5"/>
<text text-anchor="middle" x="543" y="-159.5" font-family="Helvetica,sans-Serif" font-size="10.00" fill="#000000">UserErrors::assertTrue</text>
</a>
</g>
</g>
<!-- Node693&#45;&gt;Node695 -->
<g id="edge7" class="edge">
<title>Node693&#45;&gt;Node695</title>
<path fill="none" stroke="#191970" d="M184.064,-133.5419C203.8725,-145.0735 239.5454,-163.823 273,-171 341.9651,-185.7951 423.0812,-180.1012 478.2713,-172.8853"/>
<polygon fill="#191970" stroke="#191970" points="478.8295,-176.3417 488.2661,-171.5248 477.8853,-169.4056 478.8295,-176.3417"/>
</g>
<!-- Node699 -->
<g id="node8" class="node">
<title>Node699</title>
<g id="a_node8"><a xlink:href="classCARLsim_1_1Impl.html#ae136e178382096490a2d34f78cd2afa2" target="_top" xlink:title="CARLsim::Impl::isPoisson\lGroup">
<polygon fill="#ffffff" stroke="#000000" points="284.5,-131 284.5,-161 417.5,-161 417.5,-131 284.5,-131"/>
<text text-anchor="start" x="292.5" y="-149" font-family="Helvetica,sans-Serif" font-size="10.00" fill="#000000">CARLsim::Impl::isPoisson</text>
<text text-anchor="middle" x="351" y="-138" font-family="Helvetica,sans-Serif" font-size="10.00" fill="#000000">Group</text>
</a>
</g>
</g>
<!-- Node693&#45;&gt;Node699 -->
<g id="edge8" class="edge">
<title>Node693&#45;&gt;Node699</title>
<path fill="none" stroke="#191970" d="M237.2354,-132.2859C249.313,-133.7418 261.9519,-135.2654 274.2317,-136.7457"/>
<polygon fill="#191970" stroke="#191970" points="274.0951,-140.2545 284.4421,-137.9766 274.9329,-133.3048 274.0951,-140.2545"/>
</g>
<!-- Node701 -->
<g id="node10" class="node">
<title>Node701</title>
<g id="a_node10"><a xlink:href="classSNN.html#abe7f46d33329d940d390817f64114356" target="_top" xlink:title="Set the spike&#45;timing&#45;dependent plasticity (STDP) for a neuron group. ">
<polygon fill="#ffffff" stroke="#000000" points="305,-54.5 305,-73.5 397,-73.5 397,-54.5 305,-54.5"/>
<text text-anchor="middle" x="351" y="-61.5" font-family="Helvetica,sans-Serif" font-size="10.00" fill="#000000">SNN::setESTDP</text>
</a>
</g>
</g>
<!-- Node693&#45;&gt;Node701 -->
<g id="edge12" class="edge">
<title>Node693&#45;&gt;Node701</title>
<path fill="none" stroke="#191970" d="M190.2088,-114.4884C211.1332,-105.559 243.8278,-92.2294 273,-83 280.8412,-80.5192 289.2118,-78.1726 297.4511,-76.0301"/>
<polygon fill="#191970" stroke="#191970" points="298.5514,-79.3623 307.3916,-73.5227 296.8393,-72.5749 298.5514,-79.3623"/>
</g>
<!-- Node694&#45;&gt;Node695 -->
<g id="edge3" class="edge">
<title>Node694&#45;&gt;Node695</title>
<path fill="none" stroke="#191970" d="M397.0589,-111.5553C407.7313,-114.3847 418.9127,-117.859 429,-122 446.1356,-129.0344 447.8223,-136.0691 465,-143 471.2526,-145.5228 477.9273,-147.7706 484.6414,-149.7573"/>
<polygon fill="#191970" stroke="#191970" points="483.8901,-153.181 494.4619,-152.4827 485.7621,-146.4359 483.8901,-153.181"/>
</g>
<!-- Node696 -->
<g id="node5" class="node">
<title>Node696</title>
<g id="a_node5"><a xlink:href="classCARLsim_1_1Impl.html#a292bdee57fec7c77ec4c15ea3f508d60" target="_top" xlink:title="CARLsim::Impl::getNumGroups">
<polygon fill="#ffffff" stroke="#000000" points="465,-114.5 465,-133.5 621,-133.5 621,-114.5 465,-114.5"/>
<text text-anchor="middle" x="543" y="-121.5" font-family="Helvetica,sans-Serif" font-size="10.00" fill="#000000">CARLsim::Impl::getNumGroups</text>
</a>
</g>
</g>
<!-- Node694&#45;&gt;Node696 -->
<g id="edge4" class="edge">
<title>Node694&#45;&gt;Node696</title>
<path fill="none" stroke="#191970" d="M429.0938,-110.9482C437.6006,-111.923 446.3019,-112.92 454.9175,-113.9072"/>
<polygon fill="#191970" stroke="#191970" points="454.642,-117.3985 464.9755,-115.0597 455.4389,-110.444 454.642,-117.3985"/>
</g>
<!-- Node698 -->
<g id="node7" class="node">
<title>Node698</title>
<g id="a_node7"><a xlink:href="classSNN.html#ab0367f8ebd4019bf7d34ebddb1563fe7" target="_top" xlink:title="SNN::getGroupName">
<polygon fill="#ffffff" stroke="#000000" points="488,-76.5 488,-95.5 598,-95.5 598,-76.5 488,-76.5"/>
<text text-anchor="middle" x="543" y="-83.5" font-family="Helvetica,sans-Serif" font-size="10.00" fill="#000000">SNN::getGroupName</text>
</a>
</g>
</g>
<!-- Node694&#45;&gt;Node698 -->
<g id="edge6" class="edge">
<title>Node694&#45;&gt;Node698</title>
<path fill="none" stroke="#191970" d="M429.0938,-95.4922C445.2752,-94.1437 462.1603,-92.7366 477.8212,-91.4316"/>
<polygon fill="#191970" stroke="#191970" points="478.2415,-94.9088 487.9162,-90.5903 477.6601,-87.933 478.2415,-94.9088"/>
</g>
<!-- Node697 -->
<g id="node6" class="node">
<title>Node697</title>
<g id="a_node6"><a xlink:href="classSNN.html#a292bdee57fec7c77ec4c15ea3f508d60" target="_top" xlink:title="SNN::getNumGroups">
<polygon fill="#ffffff" stroke="#000000" points="657,-114.5 657,-133.5 767,-133.5 767,-114.5 657,-114.5"/>
<text text-anchor="middle" x="712" y="-121.5" font-family="Helvetica,sans-Serif" font-size="10.00" fill="#000000">SNN::getNumGroups</text>
</a>
</g>
</g>
<!-- Node696&#45;&gt;Node697 -->
<g id="edge5" class="edge">
<title>Node696&#45;&gt;Node697</title>
<path fill="none" stroke="#191970" d="M621.069,-124C629.6771,-124 638.3747,-124 646.8018,-124"/>
<polygon fill="#191970" stroke="#191970" points="646.9225,-127.5001 656.9225,-124 646.9225,-120.5001 646.9225,-127.5001"/>
</g>
<!-- Node699&#45;&gt;Node695 -->
<g id="edge9" class="edge">
<title>Node699&#45;&gt;Node695</title>
<path fill="none" stroke="#191970" d="M417.6134,-151.5511C436.0733,-153.0894 456.1376,-154.7615 474.6925,-156.3077"/>
<polygon fill="#191970" stroke="#191970" points="474.5696,-159.8095 484.8258,-157.1521 475.151,-152.8337 474.5696,-159.8095"/>
</g>
<!-- Node699&#45;&gt;Node696 -->
<g id="edge10" class="edge">
<title>Node699&#45;&gt;Node696</title>
<path fill="none" stroke="#191970" d="M417.6134,-138.3672C429.6637,-136.9865 442.3975,-135.5274 454.9489,-134.0892"/>
<polygon fill="#191970" stroke="#191970" points="455.4227,-137.5579 464.9592,-132.9422 454.6258,-130.6034 455.4227,-137.5579"/>
</g>
<!-- Node700 -->
<g id="node9" class="node">
<title>Node700</title>
<g id="a_node9"><a xlink:href="classSNN.html#a3764348d44236ad4932627cd4d199c31" target="_top" xlink:title="SNN::isPoissonGroup">
<polygon fill="#ffffff" stroke="#000000" points="486.5,-190.5 486.5,-209.5 599.5,-209.5 599.5,-190.5 486.5,-190.5"/>
<text text-anchor="middle" x="543" y="-197.5" font-family="Helvetica,sans-Serif" font-size="10.00" fill="#000000">SNN::isPoissonGroup</text>
</a>
</g>
</g>
<!-- Node699&#45;&gt;Node700 -->
<g id="edge11" class="edge">
<title>Node699&#45;&gt;Node700</title>
<path fill="none" stroke="#191970" d="M397.686,-161.0136C418.2471,-167.4494 442.7422,-174.8781 465,-181 473.7834,-183.4158 483.1661,-185.8366 492.2695,-188.1023"/>
<polygon fill="#191970" stroke="#191970" points="491.4503,-191.505 501.9966,-190.4923 493.1206,-184.7072 491.4503,-191.505"/>
</g>
<!-- Node701&#45;&gt;Node698 -->
<g id="edge14" class="edge">
<title>Node701&#45;&gt;Node698</title>
<path fill="none" stroke="#191970" d="M397.4778,-69.3256C421.4821,-72.0761 451.1748,-75.4784 477.4663,-78.4909"/>
<polygon fill="#191970" stroke="#191970" points="477.4018,-82.0064 487.7353,-79.6676 478.1988,-75.0519 477.4018,-82.0064"/>
</g>
<!-- Node702 -->
<g id="node11" class="node">
<title>Node702</title>
<g id="a_node11"><a xlink:href="classSNN.html#a44b05911f213714c351379021852e12a" target="_top" xlink:title="find connection ID based on pre&#45;post group pair, O(N) ">
<polygon fill="#ffffff" stroke="#000000" points="491.5,-38.5 491.5,-57.5 594.5,-57.5 594.5,-38.5 491.5,-38.5"/>
<text text-anchor="middle" x="543" y="-45.5" font-family="Helvetica,sans-Serif" font-size="10.00" fill="#000000">SNN::getConnectId</text>
</a>
</g>
</g>
<!-- Node701&#45;&gt;Node702 -->
<g id="edge13" class="edge">
<title>Node701&#45;&gt;Node702</title>
<path fill="none" stroke="#191970" d="M397.4778,-60.1268C422.5724,-58.0356 453.884,-55.4263 481.027,-53.1644"/>
<polygon fill="#191970" stroke="#191970" points="481.5293,-56.6348 491.2041,-52.3163 480.948,-49.659 481.5293,-56.6348"/>
</g>
<!-- Node703 -->
<g id="node12" class="node">
<title>Node703</title>
<g id="a_node12"><a xlink:href="classSNN.html#a477f99451786873b73e2623b6f89b766" target="_top" xlink:title="deallocates all dynamical structures and exits ">
<polygon fill="#ffffff" stroke="#000000" points="490,-.5 490,-19.5 596,-19.5 596,-.5 490,-.5"/>
<text text-anchor="middle" x="543" y="-7.5" font-family="Helvetica,sans-Serif" font-size="10.00" fill="#000000">SNN::exitSimulation</text>
</a>
</g>
</g>
<!-- Node701&#45;&gt;Node703 -->
<g id="edge15" class="edge">
<title>Node701&#45;&gt;Node703</title>
<path fill="none" stroke="#191970" d="M380.386,-54.4561C403.3261,-47.1325 436.0549,-36.9612 465,-29 473.7834,-26.5842 483.1661,-24.1634 492.2695,-21.8977"/>
<polygon fill="#191970" stroke="#191970" points="493.1206,-25.2928 501.9966,-19.5077 491.4503,-18.495 493.1206,-25.2928"/>
</g>
</g>
</svg>
        <g id="navigator" transform="translate(0 0)" fill="#404254">
                <rect fill="#f2f5e9" fill-opacity="0.5" stroke="#606060" stroke-width=".5" x="0" y="0" width="60" height="60"/>
                <use id="zoomplus" xlink:href="#zoomPlus" x="17" y="9" onmousedown="handleZoom(evt,'in')"/>
                <use id="zoomminus" xlink:href="#zoomMin" x="42" y="9" onmousedown="handleZoom(evt,'out')"/>
                <use id="reset" xlink:href="#resetDef" x="30" y="36" onmousedown="handleReset()"/>
                <g id="arrowUp" xlink:href="#dirArrow" transform="translate(30 24)" onmousedown="handlePan(0,-1)">
                  <use xlink:href="#rim" fill="#404040">
                        <set attributeName="fill" to="#808080" begin="arrowUp.mouseover" end="arrowUp.mouseout"/>
                  </use>
                  <path fill="none" stroke="white" stroke-width="1.5" d="M0,-3.0v7 M-2.5,-0.5L0,-3.0L2.5,-0.5"/>
                </g>
                <g id="arrowRight" xlink:href="#dirArrow" transform="rotate(90) translate(36 -43)" onmousedown="handlePan(1,0)">
                  <use xlink:href="#rim" fill="#404040">
                        <set attributeName="fill" to="#808080" begin="arrowRight.mouseover" end="arrowRight.mouseout"/>
                  </use>
                  <path fill="none" stroke="white" stroke-width="1.5" d="M0,-3.0v7 M-2.5,-0.5L0,-3.0L2.5,-0.5"/>
                </g>
                <g id="arrowDown" xlink:href="#dirArrow" transform="rotate(180) translate(-30 -48)" onmousedown="handlePan(0,1)">
                  <use xlink:href="#rim" fill="#404040">
                        <set attributeName="fill" to="#808080" begin="arrowDown.mouseover" end="arrowDown.mouseout"/>
                  </use>
                  <path fill="none" stroke="white" stroke-width="1.5" d="M0,-3.0v7 M-2.5,-0.5L0,-3.0L2.5,-0.5"/>
                </g>
                <g id="arrowLeft" xlink:href="#dirArrow" transform="rotate(270) translate(-36 17)" onmousedown="handlePan(-1,0)">
                  <use xlink:href="#rim" fill="#404040">
                        <set attributeName="fill" to="#808080" begin="arrowLeft.mouseover" end="arrowLeft.mouseout"/>
                  </use>
                  <path fill="none" stroke="white" stroke-width="1.5" d="M0,-3.0v7 M-2.5,-0.5L0,-3.0L2.5,-0.5"/>
                </g>
        </g>
        <svg viewBox="0 0 15 15" width="100%" height="30px" preserveAspectRatio="xMaxYMin meet">
         <g id="arrow_out" transform="scale(0.3 0.3)">
          <a xlink:href="classCARLsim_a45d4ebed07a1bf9014e476b9b8f49ec8_cgraph_org.svg" target="_base">
           <rect id="button" ry="5" rx="5" y="6" x="6" height="38" width="38"
                fill="#f2f5e9" fill-opacity="0.5" stroke="#606060" stroke-width="1.0"/>
           <path id="arrow"
             d="M 11.500037,31.436501 C 11.940474,20.09759 22.043105,11.32322 32.158766,21.979434 L 37.068811,17.246167 C 37.068811,17.246167 37.088388,32 37.088388,32 L 22.160133,31.978069 C 22.160133,31.978069 26.997745,27.140456 26.997745,27.140456 C 18.528582,18.264221 13.291696,25.230495 11.500037,31.436501 z"
             style="fill:#404040;"/>
          </a>
         </g>
        </svg>
</svg>
