<?xml version="1.0" encoding="UTF-8" standalone="no"?>
<!DOCTYPE svg PUBLIC "-//W3C//DTD SVG 1.1//EN"
 "http://www.w3.org/Graphics/SVG/1.1/DTD/svg11.dtd">
<!-- Generated by graphviz version 2.40.1 (20161225.0304)
 -->
<!-- Title: setLastUpdated Pages: 1 -->
<!--zoomable 414 -->
<svg id="main" version="1.1" xmlns="http://www.w3.org/2000/svg" xmlns:xlink="http://www.w3.org/1999/xlink" xml:space="preserve" onload="init(evt)">
<style type="text/css"><![CDATA[
.edge:hover path { stroke: red; }
.edge:hover polygon { stroke: red; fill: red; }
]]></style>
<script type="text/javascript"><![CDATA[
var edges = document.getElementsByTagName('g');
if (edges && edges.length) {
  for (var i=0;i<edges.length;i++) {
    if (edges[i].id.substr(0,4)=='edge') {
      edges[i].setAttribute('class','edge');
    }
  }
}
]]></script>
        <defs>
                <circle id="rim" cx="0" cy="0" r="7"/>
                <circle id="rim2" cx="0" cy="0" r="3.5"/>
                <g id="zoomPlus">
                        <use xlink:href="#rim" fill="#404040">
                                <set attributeName="fill" to="#808080" begin="zoomplus.mouseover" end="zoomplus.mouseout"/>
                        </use>
                        <path d="M-4,0h8M0,-4v8" fill="none" stroke="white" stroke-width="1.5" pointer-events="none"/>
                </g>
                <g id="zoomMin">
                        <use xlink:href="#rim" fill="#404040">
                                <set attributeName="fill" to="#808080" begin="zoomminus.mouseover" end="zoomminus.mouseout"/>
                        </use>
                        <path d="M-4,0h8" fill="none" stroke="white" stroke-width="1.5" pointer-events="none"/>
                </g>
                <g id="dirArrow">
                        <path fill="none" stroke="white" stroke-width="1.5" d="M0,-3.0v7 M-2.5,-0.5L0,-3.0L2.5,-0.5"/>
                </g>
               <g id="resetDef">
                       <use xlink:href="#rim2" fill="#404040">
                               <set attributeName="fill" to="#808080" begin="reset.mouseover" end="reset.mouseout"/>
                       </use>
               </g>
        </defs>

<script type="text/javascript">
var viewWidth = 1096;
var viewHeight = 414;
var sectionId = 'dynsection-22';
</script>
<script xlink:href="svgpan.js"/>
<svg id="graph" class="graph">
<g id="viewport">
<title>setLastUpdated</title>
<polygon fill="#ffffff" stroke="transparent" points="-4,4 -4,-410.2399 1092,-410.2399 1092,4 -4,4"/>
<!-- Node513 -->
<g id="node1" class="node">
<title>Node513</title>
<polygon fill="#bfbfbf" stroke="#000000" points="0,-308.5 0,-327.5 86,-327.5 86,-308.5 0,-308.5"/>
<text text-anchor="middle" x="43" y="-315.5" font-family="Helvetica,sans-Serif" font-size="10.00" fill="#000000">setLastUpdated</text>
</g>
<!-- Node514 -->
<g id="node2" class="node">
<title>Node514</title>
<g id="a_node2"><a xlink:href="classNeuronMonitorCore.html#aaeb6a64ac5d9fd3b7a979f0f12ec87dc" target="_top" xlink:title="returns true if state buffers are close to maxAllowedBufferSize ">
<polygon fill="#ffffff" stroke="#000000" points="131,-365.5 131,-384.5 196,-384.5 196,-365.5 131,-365.5"/>
<text text-anchor="middle" x="163.5" y="-372.5" font-family="Helvetica,sans-Serif" font-size="10.00" fill="#000000">isBufferBig</text>
</a>
</g>
</g>
<!-- Node513&#45;&gt;Node514 -->
<g id="edge1" class="edge">
<title>Node513&#45;&gt;Node514</title>
<path fill="none" stroke="#191970" d="M62.7549,-327.6306C78.7052,-335.3754 101.7473,-346.494 122,-356 125.609,-357.694 129.4024,-359.456 133.1683,-361.1938"/>
<polygon fill="#191970" stroke="#191970" points="131.8038,-364.4186 142.352,-365.4116 134.7253,-358.0574 131.8038,-364.4186"/>
</g>
<!-- Node515 -->
<g id="node3" class="node">
<title>Node515</title>
<g id="a_node3"><a xlink:href="classNeuronMonitorCore.html#a30f19d45f562061cc82c04e7289ba956" target="_top" xlink:title="returns the approximate size of the state vectors in bytes ">
<polygon fill="#ffffff" stroke="#000000" points="241,-384.5 241,-403.5 317,-403.5 317,-384.5 241,-384.5"/>
<text text-anchor="middle" x="279" y="-391.5" font-family="Helvetica,sans-Serif" font-size="10.00" fill="#000000">getBufferSize</text>
</a>
</g>
</g>
<!-- Node513&#45;&gt;Node515 -->
<g id="edge3" class="edge">
<title>Node513&#45;&gt;Node515</title>
<path fill="none" stroke="#191970" d="M49.1718,-327.5833C60.9026,-344.7955 88.2836,-380.4149 122,-394 156.4476,-407.8797 198.7014,-406.9847 230.6936,-403.1105"/>
<polygon fill="#191970" stroke="#191970" points="231.2539,-406.5667 240.6971,-401.763 230.3194,-399.6294 231.2539,-406.5667"/>
</g>
<!-- Node516 -->
<g id="node4" class="node">
<title>Node516</title>
<g id="a_node4"><a xlink:href="classNeuronMonitorCore.html#a3a0e4e77a2b83f5dd0e86aafcf227595" target="_top" xlink:title="returns the total accumulated time ">
<polygon fill="#ffffff" stroke="#000000" points="122,-327.5 122,-346.5 205,-346.5 205,-327.5 122,-327.5"/>
<text text-anchor="middle" x="163.5" y="-334.5" font-family="Helvetica,sans-Serif" font-size="10.00" fill="#000000">getAccumTime</text>
</a>
</g>
</g>
<!-- Node513&#45;&gt;Node516 -->
<g id="edge4" class="edge">
<title>Node513&#45;&gt;Node516</title>
<path fill="none" stroke="#191970" d="M86.1629,-324.8058C94.5115,-326.1221 103.3373,-327.5138 111.9231,-328.8675"/>
<polygon fill="#191970" stroke="#191970" points="111.4257,-332.3323 121.8488,-330.4326 112.516,-325.4177 111.4257,-332.3323"/>
</g>
<!-- Node517 -->
<g id="node5" class="node">
<title>Node517</title>
<g id="a_node5"><a xlink:href="classNeuronMonitorCore.html#a4d3c2252230fe74bf03bcc3045ff8972" target="_top" xlink:title="writeNeuronFileHeader">
<polygon fill="#ffffff" stroke="#000000" points="485.5,-289.5 485.5,-308.5 601.5,-308.5 601.5,-289.5 485.5,-289.5"/>
<text text-anchor="middle" x="543.5" y="-296.5" font-family="Helvetica,sans-Serif" font-size="10.00" fill="#000000">writeNeuronFileHeader</text>
</a>
</g>
</g>
<!-- Node513&#45;&gt;Node517 -->
<g id="edge5" class="edge">
<title>Node513&#45;&gt;Node517</title>
<path fill="none" stroke="#191970" d="M86.1055,-316.3636C173.0762,-313.062 370.1734,-305.5798 474.9791,-301.6012"/>
<polygon fill="#191970" stroke="#191970" points="475.2746,-305.0926 485.1346,-301.2157 475.009,-298.0976 475.2746,-305.0926"/>
</g>
<!-- Node519 -->
<g id="node7" class="node">
<title>Node519</title>
<g id="a_node7"><a xlink:href="classNeuronMonitorCore.html#a388f572c62279f839ee138a9afbdeeb5" target="_top" xlink:title="prints neuron states in human&#45;readable format ">
<polygon fill="#ffffff" stroke="#000000" points="146,-204.5 146,-223.5 181,-223.5 181,-204.5 146,-204.5"/>
<text text-anchor="middle" x="163.5" y="-211.5" font-family="Helvetica,sans-Serif" font-size="10.00" fill="#000000">print</text>
</a>
</g>
</g>
<!-- Node513&#45;&gt;Node519 -->
<g id="edge7" class="edge">
<title>Node513&#45;&gt;Node519</title>
<path fill="none" stroke="#191970" d="M54.1204,-308.4023C74.7447,-290.6021 119.1342,-252.2908 144.5691,-230.3387"/>
<polygon fill="#191970" stroke="#191970" points="147.123,-232.7579 152.4065,-223.5745 142.5493,-227.4586 147.123,-232.7579"/>
</g>
<!-- Node514&#45;&gt;Node515 -->
<g id="edge2" class="edge">
<title>Node514&#45;&gt;Node515</title>
<path fill="none" stroke="#191970" d="M196.2887,-380.3938C207.018,-382.1588 219.1706,-384.1579 230.7929,-386.0698"/>
<polygon fill="#191970" stroke="#191970" points="230.3853,-389.5497 240.8208,-387.7194 231.5216,-382.6426 230.3853,-389.5497"/>
</g>
<!-- Node518 -->
<g id="node6" class="node">
<title>Node518</title>
<g id="a_node6"><a xlink:href="classSNN.html#ac13b30c40669d3cb8264bd6e211b449d" target="_top" xlink:title="SNN::getGroupGrid3D">
<polygon fill="#ffffff" stroke="#000000" points="648,-289.5 648,-308.5 763,-308.5 763,-289.5 648,-289.5"/>
<text text-anchor="middle" x="705.5" y="-296.5" font-family="Helvetica,sans-Serif" font-size="10.00" fill="#000000">SNN::getGroupGrid3D</text>
</a>
</g>
</g>
<!-- Node517&#45;&gt;Node518 -->
<g id="edge6" class="edge">
<title>Node517&#45;&gt;Node518</title>
<path fill="none" stroke="#191970" d="M601.5281,-299C613.3024,-299 625.7826,-299 637.8558,-299"/>
<polygon fill="#191970" stroke="#191970" points="637.877,-302.5001 647.877,-299 637.877,-295.5001 637.877,-302.5001"/>
</g>
<!-- Node520 -->
<g id="node8" class="node">
<title>Node520</title>
<g id="a_node8"><a xlink:href="classNeuronMonitorCore.html#a3a3ffdb35b09328d22e5d72503ed1f55" target="_top" xlink:title="returns recording status ">
<polygon fill="#ffffff" stroke="#000000" points="245,-157.5 245,-176.5 313,-176.5 313,-157.5 245,-157.5"/>
<text text-anchor="middle" x="279" y="-164.5" font-family="Helvetica,sans-Serif" font-size="10.00" fill="#000000">isRecording</text>
</a>
</g>
</g>
<!-- Node519&#45;&gt;Node520 -->
<g id="edge8" class="edge">
<title>Node519&#45;&gt;Node520</title>
<path fill="none" stroke="#191970" d="M181.042,-206.8617C198.2258,-199.8692 224.8386,-189.0397 245.9909,-180.4323"/>
<polygon fill="#191970" stroke="#191970" points="247.3285,-183.6667 255.2717,-176.6557 244.69,-177.183 247.3285,-183.6667"/>
</g>
<!-- Node521 -->
<g id="node9" class="node">
<title>Node521</title>
<g id="a_node9"><a xlink:href="classNeuronMonitorCore.html#a743a4ad47ef60bc593cc9882bd4ffb57" target="_top" xlink:title="inserts a (time,neurId) tupel into the D Neuron State vector ">
<polygon fill="#ffffff" stroke="#000000" points="659.5,-.5 659.5,-19.5 751.5,-19.5 751.5,-.5 659.5,-.5"/>
<text text-anchor="middle" x="705.5" y="-7.5" font-family="Helvetica,sans-Serif" font-size="10.00" fill="#000000">pushNeuronState</text>
</a>
</g>
</g>
<!-- Node520&#45;&gt;Node521 -->
<g id="edge9" class="edge">
<title>Node520&#45;&gt;Node521</title>
<path fill="none" stroke="#191970" d="M282.0112,-157.43C290.7658,-137.1805 317.836,-93.4055 353,-72 445.8819,-15.4597 575.5593,-2.9905 648.9608,-3.6303"/>
<polygon fill="#191970" stroke="#191970" points="649.3102,-7.137 659.3711,-3.8162 649.4352,-.1381 649.3102,-7.137"/>
</g>
<!-- Node522 -->
<g id="node10" class="node">
<title>Node522</title>
<g id="a_node10"><a xlink:href="classNeuronMonitorCore.html#ab91616c118b701c2afd9136393d1f19b" target="_top" xlink:title="starts recording Neuron state ">
<polygon fill="#ffffff" stroke="#000000" points="356,-157.5 356,-176.5 436,-176.5 436,-157.5 356,-157.5"/>
<text text-anchor="middle" x="396" y="-164.5" font-family="Helvetica,sans-Serif" font-size="10.00" fill="#000000">startRecording</text>
</a>
</g>
</g>
<!-- Node520&#45;&gt;Node522 -->
<g id="edge11" class="edge">
<title>Node520&#45;&gt;Node522</title>
<path fill="none" stroke="#191970" d="M313.1558,-160.7989C323.2764,-160.3156 334.5801,-160.1514 345.5043,-160.3065"/>
<polygon fill="#191970" stroke="#191970" points="345.7299,-163.8128 355.8107,-160.5529 345.8973,-156.8148 345.7299,-163.8128"/>
</g>
<!-- Node523 -->
<g id="node11" class="node">
<title>Node523</title>
<g id="a_node11"><a xlink:href="classNeuronMonitorCore.html#ac8bb3912a3ce86b15842e79d0b421204" target="_top" xlink:title="deletes data from the neuron state vector ">
<polygon fill="#ffffff" stroke="#000000" points="524.5,-251.5 524.5,-270.5 562.5,-270.5 562.5,-251.5 524.5,-251.5"/>
<text text-anchor="middle" x="543.5" y="-258.5" font-family="Helvetica,sans-Serif" font-size="10.00" fill="#000000">clear</text>
</a>
</g>
</g>
<!-- Node520&#45;&gt;Node523 -->
<g id="edge39" class="edge">
<title>Node520&#45;&gt;Node523</title>
<path fill="none" stroke="#191970" d="M313.0373,-174.3941C366.4441,-190.5007 468.805,-227.0293 517.0737,-247.3585"/>
<polygon fill="#191970" stroke="#191970" points="515.9476,-250.6846 526.5156,-251.4375 518.7237,-244.2586 515.9476,-250.6846"/>
</g>
<!-- Node535 -->
<g id="node23" class="node">
<title>Node535</title>
<g id="a_node23"><a xlink:href="classNeuronMonitorCore.html#a25e0e98dd4519eaaa6b258f0dcb91ac7" target="_top" xlink:title="stops recording Neuron state ">
<polygon fill="#ffffff" stroke="#000000" points="356,-119.5 356,-138.5 436,-138.5 436,-119.5 356,-119.5"/>
<text text-anchor="middle" x="396" y="-126.5" font-family="Helvetica,sans-Serif" font-size="10.00" fill="#000000">stopRecording</text>
</a>
</g>
</g>
<!-- Node520&#45;&gt;Node535 -->
<g id="edge34" class="edge">
<title>Node520&#45;&gt;Node535</title>
<path fill="none" stroke="#191970" d="M294.2957,-157.3009C307.5353,-151.4117 327.4455,-144.2942 346.1494,-138.5068"/>
<polygon fill="#191970" stroke="#191970" points="347.2079,-141.8434 355.7787,-135.6151 345.1946,-135.1392 347.2079,-141.8434"/>
</g>
<!-- Node536 -->
<g id="node24" class="node">
<title>Node536</title>
<g id="a_node24"><a xlink:href="classNeuronMonitorCore.html#a5113f6b476e3e3544ecbffefa313234d" target="_top" xlink:title="sets pointer to Neuron file ">
<polygon fill="#ffffff" stroke="#000000" points="353,-251.5 353,-270.5 439,-270.5 439,-251.5 353,-251.5"/>
<text text-anchor="middle" x="396" y="-258.5" font-family="Helvetica,sans-Serif" font-size="10.00" fill="#000000">setNeuronFileId</text>
</a>
</g>
</g>
<!-- Node520&#45;&gt;Node536 -->
<g id="edge40" class="edge">
<title>Node520&#45;&gt;Node536</title>
<path fill="none" stroke="#191970" d="M294.1492,-176.5121C308.4381,-189.5375 330.9054,-211.7769 353,-228 361.6119,-234.3233 372.0627,-240.1922 380.5048,-245.5905"/>
<polygon fill="#191970" stroke="#191970" points="378.7699,-248.6472 388.9777,-251.4845 382.7673,-242.9008 378.7699,-248.6472"/>
</g>
<!-- Node521&#45;&gt;Node520 -->
<g id="edge10" class="edge">
<title>Node521&#45;&gt;Node520</title>
<path fill="none" stroke="#191970" d="M659.3711,-15.2679C588.4034,-19.8706 450.4499,-30.6791 353,-90 328.3568,-105.0011 307.6887,-130.9886 294.514,-148.7947"/>
<polygon fill="#191970" stroke="#191970" points="291.4024,-147.1204 288.3261,-157.2588 297.0534,-151.2517 291.4024,-147.1204"/>
</g>
<!-- Node522&#45;&gt;Node520 -->
<g id="edge12" class="edge">
<title>Node522&#45;&gt;Node520</title>
<path fill="none" stroke="#191970" d="M355.8107,-173.4471C345.2887,-173.8061 333.8877,-173.846 323.1705,-173.5667"/>
<polygon fill="#191970" stroke="#191970" points="323.2768,-170.0683 313.1558,-173.2011 323.0214,-177.0637 323.2768,-170.0683"/>
</g>
<!-- Node522&#45;&gt;Node523 -->
<g id="edge13" class="edge">
<title>Node522&#45;&gt;Node523</title>
<path fill="none" stroke="#191970" d="M417.2065,-176.6817C424.5228,-180.5626 432.5049,-185.4408 439,-191 458.7232,-207.8811 453.8992,-221.8761 475,-237 486.7184,-245.3991 501.6448,-251.0845 514.571,-254.8041"/>
<polygon fill="#191970" stroke="#191970" points="513.8488,-258.233 524.4092,-257.3801 515.6219,-251.4612 513.8488,-258.233"/>
</g>
<!-- Node524 -->
<g id="node12" class="node">
<title>Node524</title>
<g id="a_node12"><a xlink:href="classSNN.html#a8dd319bdd9a54e38f9254cbec099c30a" target="_top" xlink:title="copy required neuron state values from ??? buffer to ??? buffer ">
<polygon fill="#ffffff" stroke="#000000" points="475,-61.5 475,-80.5 612,-80.5 612,-61.5 475,-61.5"/>
<text text-anchor="middle" x="543.5" y="-68.5" font-family="Helvetica,sans-Serif" font-size="10.00" fill="#000000">SNN::updateNeuronMonitor</text>
</a>
</g>
</g>
<!-- Node522&#45;&gt;Node524 -->
<g id="edge15" class="edge">
<title>Node522&#45;&gt;Node524</title>
<path fill="none" stroke="#191970" d="M420.1179,-157.4523C426.4012,-154.6674 433.0695,-151.4394 439,-148 470.5565,-129.6988 503.9878,-103.755 524.3055,-87.1512"/>
<polygon fill="#191970" stroke="#191970" points="526.6865,-89.7241 532.1666,-80.6567 522.228,-84.3276 526.6865,-89.7241"/>
</g>
<!-- Node527 -->
<g id="node15" class="node">
<title>Node527</title>
<g id="a_node15"><a xlink:href="classSNN.html#a424b0cf29d7dba87e4ebf244399acad0" target="_top" xlink:title="SNN::getSimTimeMs">
<polygon fill="#ffffff" stroke="#000000" points="650.5,-190.5 650.5,-209.5 760.5,-209.5 760.5,-190.5 650.5,-190.5"/>
<text text-anchor="middle" x="705.5" y="-197.5" font-family="Helvetica,sans-Serif" font-size="10.00" fill="#000000">SNN::getSimTimeMs</text>
</a>
</g>
</g>
<!-- Node522&#45;&gt;Node527 -->
<g id="edge33" class="edge">
<title>Node522&#45;&gt;Node527</title>
<path fill="none" stroke="#191970" d="M436.1462,-172.932C448.5854,-174.6779 462.3469,-176.516 475,-178 530.6774,-184.5302 594.0942,-190.4742 640.2967,-194.5329"/>
<polygon fill="#191970" stroke="#191970" points="640.207,-198.0383 650.4735,-195.4208 640.8156,-191.0648 640.207,-198.0383"/>
</g>
<!-- Node533 -->
<g id="node21" class="node">
<title>Node533</title>
<g id="a_node21"><a xlink:href="classSNN.html#a85facd004ae52ee52e72451b5d874fae" target="_top" xlink:title="SNN::getSimTimeSec">
<polygon fill="#ffffff" stroke="#000000" points="648.5,-152.5 648.5,-171.5 762.5,-171.5 762.5,-152.5 648.5,-152.5"/>
<text text-anchor="middle" x="705.5" y="-159.5" font-family="Helvetica,sans-Serif" font-size="10.00" fill="#000000">SNN::getSimTimeSec</text>
</a>
</g>
</g>
<!-- Node522&#45;&gt;Node533 -->
<g id="edge32" class="edge">
<title>Node522&#45;&gt;Node533</title>
<path fill="none" stroke="#191970" d="M436.1444,-166.3515C487.3506,-165.5242 576.645,-164.0817 638.3025,-163.0856"/>
<polygon fill="#191970" stroke="#191970" points="638.3896,-166.5847 648.3317,-162.9236 638.2764,-159.5856 638.3896,-166.5847"/>
</g>
<!-- Node523&#45;&gt;Node520 -->
<g id="edge14" class="edge">
<title>Node523&#45;&gt;Node520</title>
<path fill="none" stroke="#191970" d="M524.2347,-257.8765C477.599,-245.1558 358.5676,-203.028 305.3752,-180.62"/>
<polygon fill="#191970" stroke="#191970" points="306.516,-177.3002 295.948,-176.5463 303.7393,-183.7259 306.516,-177.3002"/>
</g>
<!-- Node524&#45;&gt;Node513 -->
<g id="edge28" class="edge">
<title>Node524&#45;&gt;Node513</title>
<path fill="none" stroke="#191970" d="M474.5867,-67.9583C437.9305,-67.9966 392.4139,-70.7072 353,-81 242.2267,-109.9281 207.3782,-118.7234 122,-195 88.2491,-225.153 63.1853,-272.9821 51.0833,-299.2297"/>
<polygon fill="#191970" stroke="#191970" points="47.8475,-297.892 46.9591,-308.4496 54.2373,-300.7504 47.8475,-297.892"/>
</g>
<!-- Node524&#45;&gt;Node520 -->
<g id="edge30" class="edge">
<title>Node524&#45;&gt;Node520</title>
<path fill="none" stroke="#191970" d="M474.5972,-77.4564C437.3198,-82.8095 391.2187,-92.5118 353,-110 331.3047,-119.9274 310.105,-137.2705 295.9969,-150.2267"/>
<polygon fill="#191970" stroke="#191970" points="293.4211,-147.8454 288.5596,-157.259 298.2304,-152.9317 293.4211,-147.8454"/>
</g>
<!-- Node524&#45;&gt;Node521 -->
<g id="edge31" class="edge">
<title>Node524&#45;&gt;Node521</title>
<path fill="none" stroke="#191970" d="M573.4837,-61.4136C585.5788,-57.3095 599.5828,-52.2546 612,-47 628.4742,-40.0285 631.4642,-35.8241 648,-29 653.1629,-26.8693 658.6592,-24.8048 664.1282,-22.8706"/>
<polygon fill="#191970" stroke="#191970" points="665.5337,-26.0891 673.865,-19.5438 663.2705,-19.4651 665.5337,-26.0891"/>
</g>
<!-- Node525 -->
<g id="node13" class="node">
<title>Node525</title>
<g id="a_node13"><a xlink:href="classNeuronMonitorCore.html#a102f8a26e80c556ee9a2ac503cd38ec9" target="_top" xlink:title="returns timestamp of last NeuronMonitor update ">
<polygon fill="#ffffff" stroke="#000000" points="662.5,-38.5 662.5,-57.5 748.5,-57.5 748.5,-38.5 662.5,-38.5"/>
<text text-anchor="middle" x="705.5" y="-45.5" font-family="Helvetica,sans-Serif" font-size="10.00" fill="#000000">getLastUpdated</text>
</a>
</g>
</g>
<!-- Node524&#45;&gt;Node525 -->
<g id="edge16" class="edge">
<title>Node524&#45;&gt;Node525</title>
<path fill="none" stroke="#191970" d="M610.7952,-61.4457C624.5142,-59.498 638.7734,-57.4735 651.9364,-55.6047"/>
<polygon fill="#191970" stroke="#191970" points="652.818,-59.0147 662.2267,-54.1437 651.8339,-52.0842 652.818,-59.0147"/>
</g>
<!-- Node526 -->
<g id="node14" class="node">
<title>Node526</title>
<g id="a_node14"><a xlink:href="classSNN.html#a5fd2b156623d78138bcb44167eabab78" target="_top" xlink:title="SNN::getSimTime">
<polygon fill="#ffffff" stroke="#000000" points="657,-114.5 657,-133.5 754,-133.5 754,-114.5 657,-114.5"/>
<text text-anchor="middle" x="705.5" y="-121.5" font-family="Helvetica,sans-Serif" font-size="10.00" fill="#000000">SNN::getSimTime</text>
</a>
</g>
</g>
<!-- Node524&#45;&gt;Node526 -->
<g id="edge17" class="edge">
<title>Node524&#45;&gt;Node526</title>
<path fill="none" stroke="#191970" d="M572.837,-80.5979C599.1003,-89.1902 637.8001,-101.8513 666.6314,-111.2837"/>
<polygon fill="#191970" stroke="#191970" points="665.7887,-114.6905 676.3813,-114.4735 667.9653,-108.0375 665.7887,-114.6905"/>
</g>
<!-- Node524&#45;&gt;Node527 -->
<g id="edge18" class="edge">
<title>Node524&#45;&gt;Node527</title>
<path fill="none" stroke="#191970" d="M555.7813,-80.8831C570.0165,-92.6093 593.8428,-113.0879 612,-133 629.9679,-152.7045 626.3465,-165.436 648,-181 650.6892,-182.9329 653.5871,-184.6778 656.6018,-186.2517"/>
<polygon fill="#191970" stroke="#191970" points="655.3515,-189.5279 665.9037,-190.4774 658.2468,-183.1547 655.3515,-189.5279"/>
</g>
<!-- Node524&#45;&gt;Node533 -->
<g id="edge27" class="edge">
<title>Node524&#45;&gt;Node533</title>
<path fill="none" stroke="#191970" d="M583.5072,-80.6006C593.3951,-84.1245 603.5621,-88.82 612,-95 633.5136,-110.7568 626.3465,-127.436 648,-143 650.6892,-144.9329 653.5871,-146.6778 656.6018,-148.2517"/>
<polygon fill="#191970" stroke="#191970" points="655.3515,-151.5279 665.9037,-152.4774 658.2468,-145.1547 655.3515,-151.5279"/>
</g>
<!-- Node534 -->
<g id="node22" class="node">
<title>Node534</title>
<g id="a_node22"><a xlink:href="classNeuronMonitorCore.html#a84e392c48ef98bece7aa0dc7af992360" target="_top" xlink:title="returns a pointer to the neuron state file ">
<polygon fill="#ffffff" stroke="#000000" points="662.5,-76.5 662.5,-95.5 748.5,-95.5 748.5,-76.5 662.5,-76.5"/>
<text text-anchor="middle" x="705.5" y="-83.5" font-family="Helvetica,sans-Serif" font-size="10.00" fill="#000000">getNeuronFileId</text>
</a>
</g>
</g>
<!-- Node524&#45;&gt;Node534 -->
<g id="edge29" class="edge">
<title>Node524&#45;&gt;Node534</title>
<path fill="none" stroke="#191970" d="M612.2026,-77.3614C625.5396,-78.5963 639.332,-79.8733 652.0878,-81.0544"/>
<polygon fill="#191970" stroke="#191970" points="651.7869,-84.5414 662.067,-81.9784 652.4323,-77.5713 651.7869,-84.5414"/>
</g>
<!-- Node528 -->
<g id="node16" class="node">
<title>Node528</title>
<g id="a_node16"><a xlink:href="classSNN.html#a866a9c6e2b2630816fc66adda1381655" target="_top" xlink:title="Returns pointer to existing SpikeMonitor object, NULL else. ">
<polygon fill="#ffffff" stroke="#000000" points="813,-247.5 813,-266.5 928,-266.5 928,-247.5 813,-247.5"/>
<text text-anchor="middle" x="870.5" y="-254.5" font-family="Helvetica,sans-Serif" font-size="10.00" fill="#000000">SNN::getSpikeMonitor</text>
</a>
</g>
</g>
<!-- Node527&#45;&gt;Node528 -->
<g id="edge19" class="edge">
<title>Node527&#45;&gt;Node528</title>
<path fill="none" stroke="#191970" d="M726.7504,-209.5348C745.5161,-217.7373 773.7428,-229.5492 799,-238 806.1141,-240.3803 813.7037,-242.6634 821.1816,-244.7699"/>
<polygon fill="#191970" stroke="#191970" points="820.3291,-248.1652 830.8984,-247.4305 822.1778,-241.4137 820.3291,-248.1652"/>
</g>
<!-- Node530 -->
<g id="node18" class="node">
<title>Node530</title>
<g id="a_node18"><a xlink:href="classSNN.html#ad25000cd1457c9b9869122534ada6fdd" target="_top" xlink:title="SNN::getSpikeMonitorCore">
<polygon fill="#ffffff" stroke="#000000" points="802.5,-209.5 802.5,-228.5 938.5,-228.5 938.5,-209.5 802.5,-209.5"/>
<text text-anchor="middle" x="870.5" y="-216.5" font-family="Helvetica,sans-Serif" font-size="10.00" fill="#000000">SNN::getSpikeMonitorCore</text>
</a>
</g>
</g>
<!-- Node527&#45;&gt;Node530 -->
<g id="edge21" class="edge">
<title>Node527&#45;&gt;Node530</title>
<path fill="none" stroke="#191970" d="M760.9016,-206.3796C770.9762,-207.5397 781.6572,-208.7696 792.2448,-209.9888"/>
<polygon fill="#191970" stroke="#191970" points="792.0095,-213.4847 802.3443,-211.1518 792.8104,-206.5307 792.0095,-213.4847"/>
</g>
<!-- Node531 -->
<g id="node19" class="node">
<title>Node531</title>
<g id="a_node19"><a xlink:href="classSNN.html#a0eb87addfa5eebdfee4bd6b927b8945f" target="_top" xlink:title="Returns pointer to existing NeuronMonitor object, NULL else. ">
<polygon fill="#ffffff" stroke="#000000" points="809.5,-171.5 809.5,-190.5 931.5,-190.5 931.5,-171.5 809.5,-171.5"/>
<text text-anchor="middle" x="870.5" y="-178.5" font-family="Helvetica,sans-Serif" font-size="10.00" fill="#000000">SNN::getNeuronMonitor</text>
</a>
</g>
</g>
<!-- Node527&#45;&gt;Node531 -->
<g id="edge23" class="edge">
<title>Node527&#45;&gt;Node531</title>
<path fill="none" stroke="#191970" d="M760.9016,-193.6204C773.1646,-192.2083 786.3261,-190.6927 799.1239,-189.2191"/>
<polygon fill="#191970" stroke="#191970" points="799.7515,-192.67 809.2854,-188.049 798.9506,-185.716 799.7515,-192.67"/>
</g>
<!-- Node532 -->
<g id="node20" class="node">
<title>Node532</title>
<g id="a_node20"><a xlink:href="classSNN.html#a9aa73fa9478383c4af1eed8387d82db9" target="_top" xlink:title="SNN::getNeuronMonitorCore">
<polygon fill="#ffffff" stroke="#000000" points="799,-133.5 799,-152.5 942,-152.5 942,-133.5 799,-133.5"/>
<text text-anchor="middle" x="870.5" y="-140.5" font-family="Helvetica,sans-Serif" font-size="10.00" fill="#000000">SNN::getNeuronMonitorCore</text>
</a>
</g>
</g>
<!-- Node527&#45;&gt;Node532 -->
<g id="edge25" class="edge">
<title>Node527&#45;&gt;Node532</title>
<path fill="none" stroke="#191970" d="M737.4857,-190.4781C745.8899,-187.6929 754.874,-184.4584 763,-181 779.6467,-173.9151 782.1502,-168.5874 799,-162 805.1886,-159.5806 811.796,-157.3631 818.4001,-155.3647"/>
<polygon fill="#191970" stroke="#191970" points="819.382,-158.7242 828.0244,-152.5956 817.4465,-151.9971 819.382,-158.7242"/>
</g>
<!-- Node529 -->
<g id="node17" class="node">
<title>Node529</title>
<g id="a_node17"><a xlink:href="classSNN.html#a292bdee57fec7c77ec4c15ea3f508d60" target="_top" xlink:title="SNN::getNumGroups">
<polygon fill="#ffffff" stroke="#000000" points="978,-190.5 978,-209.5 1088,-209.5 1088,-190.5 978,-190.5"/>
<text text-anchor="middle" x="1033" y="-197.5" font-family="Helvetica,sans-Serif" font-size="10.00" fill="#000000">SNN::getNumGroups</text>
</a>
</g>
</g>
<!-- Node528&#45;&gt;Node529 -->
<g id="edge20" class="edge">
<title>Node528&#45;&gt;Node529</title>
<path fill="none" stroke="#191970" d="M910.1239,-247.4966C920.5755,-244.7113 931.785,-241.4721 942,-238 962.7892,-230.9337 985.5876,-221.4103 1003.1644,-213.6653"/>
<polygon fill="#191970" stroke="#191970" points="1004.6376,-216.8406 1012.3461,-209.5723 1001.7875,-210.4471 1004.6376,-216.8406"/>
</g>
<!-- Node530&#45;&gt;Node529 -->
<g id="edge22" class="edge">
<title>Node530&#45;&gt;Node529</title>
<path fill="none" stroke="#191970" d="M938.9437,-210.9974C948.4984,-209.8802 958.2956,-208.7347 967.7886,-207.6247"/>
<polygon fill="#191970" stroke="#191970" points="968.4183,-211.075 977.9442,-206.4373 967.6054,-204.1224 968.4183,-211.075"/>
</g>
<!-- Node531&#45;&gt;Node529 -->
<g id="edge24" class="edge">
<title>Node531&#45;&gt;Node529</title>
<path fill="none" stroke="#191970" d="M931.9343,-188.1831C943.6127,-189.5486 955.8728,-190.9821 967.6672,-192.3611"/>
<polygon fill="#191970" stroke="#191970" points="967.5469,-195.8708 977.8857,-193.5559 968.3599,-188.9181 967.5469,-195.8708"/>
</g>
<!-- Node532&#45;&gt;Node529 -->
<g id="edge26" class="edge">
<title>Node532&#45;&gt;Node529</title>
<path fill="none" stroke="#191970" d="M910.1239,-152.5034C920.5755,-155.2887 931.785,-158.5279 942,-162 962.7892,-169.0663 985.5876,-178.5897 1003.1644,-186.3347"/>
<polygon fill="#191970" stroke="#191970" points="1001.7875,-189.5529 1012.3461,-190.4277 1004.6376,-183.1594 1001.7875,-189.5529"/>
</g>
<!-- Node535&#45;&gt;Node520 -->
<g id="edge35" class="edge">
<title>Node535&#45;&gt;Node520</title>
<path fill="none" stroke="#191970" d="M381.0918,-138.5262C366.4675,-145.0696 343.4438,-153.173 322.9597,-159.2837"/>
<polygon fill="#191970" stroke="#191970" points="321.7962,-155.9764 313.1558,-162.1078 323.7339,-162.7029 321.7962,-155.9764"/>
</g>
<!-- Node535&#45;&gt;Node524 -->
<g id="edge36" class="edge">
<title>Node535&#45;&gt;Node524</title>
<path fill="none" stroke="#191970" d="M417.293,-119.3594C433.0993,-112.3198 455.2452,-102.701 475,-95 484.686,-91.2241 495.2431,-87.3894 505.104,-83.9259"/>
<polygon fill="#191970" stroke="#191970" points="506.3765,-87.1891 514.6747,-80.602 504.0799,-80.5765 506.3765,-87.1891"/>
</g>
<!-- Node535&#45;&gt;Node527 -->
<g id="edge38" class="edge">
<title>Node535&#45;&gt;Node527</title>
<path fill="none" stroke="#191970" d="M436.3854,-136.5891C479.9131,-144.9605 551.1411,-159.2158 612,-174 628.948,-178.1171 647.4776,-183.1558 663.5387,-187.6976"/>
<polygon fill="#191970" stroke="#191970" points="662.6073,-191.0714 673.1838,-190.4486 664.5273,-184.3399 662.6073,-191.0714"/>
</g>
<!-- Node535&#45;&gt;Node533 -->
<g id="edge37" class="edge">
<title>Node535&#45;&gt;Node533</title>
<path fill="none" stroke="#191970" d="M436.1095,-126.3902C479.7049,-124.3308 551.2715,-123.2225 612,-133 617.6526,-133.9101 643.2598,-141.8969 666.2487,-149.2584"/>
<polygon fill="#191970" stroke="#191970" points="665.2835,-152.6245 675.8749,-152.3526 667.4257,-145.9603 665.2835,-152.6245"/>
</g>
<!-- Node536&#45;&gt;Node517 -->
<g id="edge42" class="edge">
<title>Node536&#45;&gt;Node517</title>
<path fill="none" stroke="#191970" d="M433.2205,-270.589C452.5093,-275.5583 476.2584,-281.6767 496.771,-286.9613"/>
<polygon fill="#191970" stroke="#191970" points="495.9902,-290.3744 506.5472,-289.4799 497.7366,-283.5957 495.9902,-290.3744"/>
</g>
<!-- Node536&#45;&gt;Node520 -->
<g id="edge41" class="edge">
<title>Node536&#45;&gt;Node520</title>
<path fill="none" stroke="#191970" d="M360.8083,-251.3011C358.1143,-249.6054 355.4808,-247.8216 353,-246 328.4799,-227.9959 303.5008,-202.5822 289.7504,-185.1148"/>
<polygon fill="#191970" stroke="#191970" points="292.3801,-182.7821 283.6452,-176.7862 286.7345,-186.9206 292.3801,-182.7821"/>
</g>
</g>
</svg>
        <g id="navigator" transform="translate(0 0)" fill="#404254">
                <rect fill="#f2f5e9" fill-opacity="0.5" stroke="#606060" stroke-width=".5" x="0" y="0" width="60" height="60"/>
                <use id="zoomplus" xlink:href="#zoomPlus" x="17" y="9" onmousedown="handleZoom(evt,'in')"/>
                <use id="zoomminus" xlink:href="#zoomMin" x="42" y="9" onmousedown="handleZoom(evt,'out')"/>
                <use id="reset" xlink:href="#resetDef" x="30" y="36" onmousedown="handleReset()"/>
                <g id="arrowUp" xlink:href="#dirArrow" transform="translate(30 24)" onmousedown="handlePan(0,-1)">
                  <use xlink:href="#rim" fill="#404040">
                        <set attributeName="fill" to="#808080" begin="arrowUp.mouseover" end="arrowUp.mouseout"/>
                  </use>
                  <path fill="none" stroke="white" stroke-width="1.5" d="M0,-3.0v7 M-2.5,-0.5L0,-3.0L2.5,-0.5"/>
                </g>
                <g id="arrowRight" xlink:href="#dirArrow" transform="rotate(90) translate(36 -43)" onmousedown="handlePan(1,0)">
                  <use xlink:href="#rim" fill="#404040">
                        <set attributeName="fill" to="#808080" begin="arrowRight.mouseover" end="arrowRight.mouseout"/>
                  </use>
                  <path fill="none" stroke="white" stroke-width="1.5" d="M0,-3.0v7 M-2.5,-0.5L0,-3.0L2.5,-0.5"/>
                </g>
                <g id="arrowDown" xlink:href="#dirArrow" transform="rotate(180) translate(-30 -48)" onmousedown="handlePan(0,1)">
                  <use xlink:href="#rim" fill="#404040">
                        <set attributeName="fill" to="#808080" begin="arrowDown.mouseover" end="arrowDown.mouseout"/>
                  </use>
                  <path fill="none" stroke="white" stroke-width="1.5" d="M0,-3.0v7 M-2.5,-0.5L0,-3.0L2.5,-0.5"/>
                </g>
                <g id="arrowLeft" xlink:href="#dirArrow" transform="rotate(270) translate(-36 17)" onmousedown="handlePan(-1,0)">
                  <use xlink:href="#rim" fill="#404040">
                        <set attributeName="fill" to="#808080" begin="arrowLeft.mouseover" end="arrowLeft.mouseout"/>
                  </use>
                  <path fill="none" stroke="white" stroke-width="1.5" d="M0,-3.0v7 M-2.5,-0.5L0,-3.0L2.5,-0.5"/>
                </g>
        </g>
        <svg viewBox="0 0 15 15" width="100%" height="30px" preserveAspectRatio="xMaxYMin meet">
         <g id="arrow_out" transform="scale(0.3 0.3)">
          <a xlink:href="classNeuronMonitorCore_a38f87732cc929797d9648e68cd509f1b_cgraph_org.svg" target="_base">
           <rect id="button" ry="5" rx="5" y="6" x="6" height="38" width="38"
                fill="#f2f5e9" fill-opacity="0.5" stroke="#606060" stroke-width="1.0"/>
           <path id="arrow"
             d="M 11.500037,31.436501 C 11.940474,20.09759 22.043105,11.32322 32.158766,21.979434 L 37.068811,17.246167 C 37.068811,17.246167 37.088388,32 37.088388,32 L 22.160133,31.978069 C 22.160133,31.978069 26.997745,27.140456 26.997745,27.140456 C 18.528582,18.264221 13.291696,25.230495 11.500037,31.436501 z"
             style="fill:#404040;"/>
          </a>
         </g>
        </svg>
</svg>
