<?xml version="1.0" encoding="UTF-8" standalone="no"?>
<!DOCTYPE svg PUBLIC "-//W3C//DTD SVG 1.1//EN"
 "http://www.w3.org/Graphics/SVG/1.1/DTD/svg11.dtd">
<!-- Generated by graphviz version 2.40.1 (20161225.0304)
 -->
<!-- Title: getNumNeuronsRegInh Pages: 1 -->
<svg width="507pt" height="39pt"
 viewBox="0.00 0.00 507.00 39.00" xmlns="http://www.w3.org/2000/svg" xmlns:xlink="http://www.w3.org/1999/xlink">
<g id="graph0" class="graph" transform="scale(1 1) rotate(0) translate(4 35)">
<title>getNumNeuronsRegInh</title>
<polygon fill="#ffffff" stroke="transparent" points="-4,4 -4,-35 503,-35 503,4 -4,4"/>
<!-- Node312 -->
<g id="node1" class="node">
<title>Node312</title>
<polygon fill="#bfbfbf" stroke="#000000" points="0,-6 0,-25 119,-25 119,-6 0,-6"/>
<text text-anchor="middle" x="59.5" y="-13" font-family="Helvetica,sans-Serif" font-size="10.00" fill="#000000">getNumNeuronsRegInh</text>
</g>
<!-- Node313 -->
<g id="node2" class="node">
<title>Node313</title>
<g id="a_node2"><a xlink:href="classCARLsim_1_1Impl.html#aab3213bb39ea25778422e80887685424" target="_top" xlink:title="CARLsim::Impl::getNumNeurons\lRegInh">
<polygon fill="#ffffff" stroke="#000000" points="155,-.5 155,-30.5 316,-30.5 316,-.5 155,-.5"/>
<text text-anchor="start" x="163" y="-18.5" font-family="Helvetica,sans-Serif" font-size="10.00" fill="#000000">CARLsim::Impl::getNumNeurons</text>
<text text-anchor="middle" x="235.5" y="-7.5" font-family="Helvetica,sans-Serif" font-size="10.00" fill="#000000">RegInh</text>
</a>
</g>
</g>
<!-- Node312&#45;&gt;Node313 -->
<g id="edge1" class="edge">
<title>Node312&#45;&gt;Node313</title>
<path fill="none" stroke="#191970" d="M119.0856,-15.5C127.3284,-15.5 135.9439,-15.5 144.5968,-15.5"/>
<polygon fill="#191970" stroke="#191970" points="144.7518,-19.0001 154.7517,-15.5 144.7517,-12.0001 144.7518,-19.0001"/>
</g>
<!-- Node314 -->
<g id="node3" class="node">
<title>Node314</title>
<g id="a_node3"><a xlink:href="classSNN.html#aab3213bb39ea25778422e80887685424" target="_top" xlink:title="SNN::getNumNeuronsRegInh">
<polygon fill="#ffffff" stroke="#000000" points="352,-6 352,-25 499,-25 499,-6 352,-6"/>
<text text-anchor="middle" x="425.5" y="-13" font-family="Helvetica,sans-Serif" font-size="10.00" fill="#000000">SNN::getNumNeuronsRegInh</text>
</a>
</g>
</g>
<!-- Node313&#45;&gt;Node314 -->
<g id="edge2" class="edge">
<title>Node313&#45;&gt;Node314</title>
<path fill="none" stroke="#191970" d="M316.0771,-15.5C324.49,-15.5 333.0575,-15.5 341.5071,-15.5"/>
<polygon fill="#191970" stroke="#191970" points="341.7373,-19.0001 351.7372,-15.5 341.7372,-12.0001 341.7373,-19.0001"/>
</g>
</g>
</svg>
