<?xml version="1.0" encoding="UTF-8" standalone="no"?>
<!DOCTYPE svg PUBLIC "-//W3C//DTD SVG 1.1//EN"
 "http://www.w3.org/Graphics/SVG/1.1/DTD/svg11.dtd">
<!-- Generated by graphviz version 2.40.1 (20161225.0304)
 -->
<!-- Title: getWeightRange Pages: 1 -->
<!--zoomable 78 -->
<svg id="main" version="1.1" xmlns="http://www.w3.org/2000/svg" xmlns:xlink="http://www.w3.org/1999/xlink" xml:space="preserve" onload="init(evt)">
<style type="text/css"><![CDATA[
.edge:hover path { stroke: red; }
.edge:hover polygon { stroke: red; fill: red; }
]]></style>
<script type="text/javascript"><![CDATA[
var edges = document.getElementsByTagName('g');
if (edges && edges.length) {
  for (var i=0;i<edges.length;i++) {
    if (edges[i].id.substr(0,4)=='edge') {
      edges[i].setAttribute('class','edge');
    }
  }
}
]]></script>
        <defs>
                <circle id="rim" cx="0" cy="0" r="7"/>
                <circle id="rim2" cx="0" cy="0" r="3.5"/>
                <g id="zoomPlus">
                        <use xlink:href="#rim" fill="#404040">
                                <set attributeName="fill" to="#808080" begin="zoomplus.mouseover" end="zoomplus.mouseout"/>
                        </use>
                        <path d="M-4,0h8M0,-4v8" fill="none" stroke="white" stroke-width="1.5" pointer-events="none"/>
                </g>
                <g id="zoomMin">
                        <use xlink:href="#rim" fill="#404040">
                                <set attributeName="fill" to="#808080" begin="zoomminus.mouseover" end="zoomminus.mouseout"/>
                        </use>
                        <path d="M-4,0h8" fill="none" stroke="white" stroke-width="1.5" pointer-events="none"/>
                </g>
                <g id="dirArrow">
                        <path fill="none" stroke="white" stroke-width="1.5" d="M0,-3.0v7 M-2.5,-0.5L0,-3.0L2.5,-0.5"/>
                </g>
               <g id="resetDef">
                       <use xlink:href="#rim2" fill="#404040">
                               <set attributeName="fill" to="#808080" begin="reset.mouseover" end="reset.mouseout"/>
                       </use>
               </g>
        </defs>

<script type="text/javascript">
var viewWidth = 729;
var viewHeight = 78;
var sectionId = 'dynsection-78';
</script>
<script xlink:href="svgpan.js"/>
<svg id="graph" class="graph">
<g id="viewport">
<title>getWeightRange</title>
<polygon fill="#ffffff" stroke="transparent" points="-4,4 -4,-73.5 725,-73.5 725,4 -4,4"/>
<!-- Node1410 -->
<g id="node1" class="node">
<title>Node1410</title>
<polygon fill="#bfbfbf" stroke="#000000" points="0,-22.5 0,-41.5 89,-41.5 89,-22.5 0,-22.5"/>
<text text-anchor="middle" x="44.5" y="-29.5" font-family="Helvetica,sans-Serif" font-size="10.00" fill="#000000">getWeightRange</text>
</g>
<!-- Node1411 -->
<g id="node2" class="node">
<title>Node1411</title>
<g id="a_node2"><a xlink:href="classCARLsim_1_1Impl.html#a4afa2f85f5939e81ec45c7760e23d932" target="_top" xlink:title="CARLsim::Impl::getWeight\lRange">
<polygon fill="#ffffff" stroke="#000000" points="125,-39 125,-69 259,-69 259,-39 125,-39"/>
<text text-anchor="start" x="133" y="-57" font-family="Helvetica,sans-Serif" font-size="10.00" fill="#000000">CARLsim::Impl::getWeight</text>
<text text-anchor="middle" x="192" y="-46" font-family="Helvetica,sans-Serif" font-size="10.00" fill="#000000">Range</text>
</a>
</g>
</g>
<!-- Node1410&#45;&gt;Node1411 -->
<g id="edge1" class="edge">
<title>Node1410&#45;&gt;Node1411</title>
<path fill="none" stroke="#191970" d="M99.1736,-40.1547C107.5567,-41.4051 116.2929,-42.7081 124.907,-43.9929"/>
<polygon fill="#191970" stroke="#191970" points="99.5621,-36.674 89.1551,-38.6604 98.5294,-43.5974 99.5621,-36.674"/>
</g>
<!-- Node1415 -->
<g id="node6" class="node">
<title>Node1415</title>
<g id="a_node6"><a xlink:href="classSNN.html#a1234b840b62d280e9131486f4fad0d93" target="_top" xlink:title="temporary getter to return pointer to stpx[] ">
<polygon fill="#ffffff" stroke="#000000" points="164.5,-.5 164.5,-19.5 219.5,-19.5 219.5,-.5 164.5,-.5"/>
<text text-anchor="middle" x="192" y="-7.5" font-family="Helvetica,sans-Serif" font-size="10.00" fill="#000000">getSTPx</text>
</a>
</g>
</g>
<!-- Node1410&#45;&gt;Node1415 -->
<g id="edge5" class="edge">
<title>Node1410&#45;&gt;Node1415</title>
<path fill="none" stroke="#191970" d="M99.1217,-23.853C121.2603,-20.551 145.8693,-16.8805 164.1914,-14.1477"/>
<polygon fill="#191970" stroke="#191970" points="98.5294,-20.4026 89.1551,-25.3396 99.5621,-27.326 98.5294,-20.4026"/>
</g>
<!-- Node1412 -->
<g id="node3" class="node">
<title>Node1412</title>
<g id="a_node3"><a xlink:href="classCARLsim.html#a4afa2f85f5939e81ec45c7760e23d932" target="_top" xlink:title="returns the RangeWeight struct for a specific connection ID ">
<polygon fill="#ffffff" stroke="#000000" points="295,-44.5 295,-63.5 433,-63.5 433,-44.5 295,-44.5"/>
<text text-anchor="middle" x="364" y="-51.5" font-family="Helvetica,sans-Serif" font-size="10.00" fill="#000000">CARLsim::getWeightRange</text>
</a>
</g>
</g>
<!-- Node1411&#45;&gt;Node1412 -->
<g id="edge2" class="edge">
<title>Node1411&#45;&gt;Node1412</title>
<path fill="none" stroke="#191970" d="M269.6201,-54C277.9901,-54 286.4669,-54 294.7294,-54"/>
<polygon fill="#191970" stroke="#191970" points="269.4853,-50.5001 259.4853,-54 269.4853,-57.5001 269.4853,-50.5001"/>
</g>
<!-- Node1413 -->
<g id="node4" class="node">
<title>Node1413</title>
<g id="a_node4"><a xlink:href="classSimpleWeightTuner_1_1Impl.html#a312d84bfa66a5036bb52a4c39db6fa6c" target="_top" xlink:title="SimpleWeightTuner::\lImpl::iterate">
<polygon fill="#ffffff" stroke="#000000" points="469,-39 469,-69 577,-69 577,-39 469,-39"/>
<text text-anchor="start" x="477" y="-57" font-family="Helvetica,sans-Serif" font-size="10.00" fill="#000000">SimpleWeightTuner::</text>
<text text-anchor="middle" x="523" y="-46" font-family="Helvetica,sans-Serif" font-size="10.00" fill="#000000">Impl::iterate</text>
</a>
</g>
</g>
<!-- Node1412&#45;&gt;Node1413 -->
<g id="edge3" class="edge">
<title>Node1412&#45;&gt;Node1413</title>
<path fill="none" stroke="#191970" d="M443.3532,-54C451.9579,-54 460.5649,-54 468.771,-54"/>
<polygon fill="#191970" stroke="#191970" points="443.2772,-50.5001 433.2772,-54 443.2771,-57.5001 443.2772,-50.5001"/>
</g>
<!-- Node1414 -->
<g id="node5" class="node">
<title>Node1414</title>
<g id="a_node5"><a xlink:href="classSimpleWeightTuner.html#a0df985e3ff7a27edc1e2e3fcc8261843" target="_top" xlink:title="Performs an iteration step of the tuning algorithm. ">
<polygon fill="#ffffff" stroke="#000000" points="613,-39 613,-69 721,-69 721,-39 613,-39"/>
<text text-anchor="start" x="621" y="-57" font-family="Helvetica,sans-Serif" font-size="10.00" fill="#000000">SimpleWeightTuner::</text>
<text text-anchor="middle" x="667" y="-46" font-family="Helvetica,sans-Serif" font-size="10.00" fill="#000000">iterate</text>
</a>
</g>
</g>
<!-- Node1413&#45;&gt;Node1414 -->
<g id="edge4" class="edge">
<title>Node1413&#45;&gt;Node1414</title>
<path fill="none" stroke="#191970" d="M587.2702,-54C595.7504,-54 604.3754,-54 612.6672,-54"/>
<polygon fill="#191970" stroke="#191970" points="587.03,-50.5001 577.03,-54 587.0299,-57.5001 587.03,-50.5001"/>
</g>
</g>
</svg>
        <g id="navigator" transform="translate(0 0)" fill="#404254">
                <rect fill="#f2f5e9" fill-opacity="0.5" stroke="#606060" stroke-width=".5" x="0" y="0" width="60" height="60"/>
                <use id="zoomplus" xlink:href="#zoomPlus" x="17" y="9" onmousedown="handleZoom(evt,'in')"/>
                <use id="zoomminus" xlink:href="#zoomMin" x="42" y="9" onmousedown="handleZoom(evt,'out')"/>
                <use id="reset" xlink:href="#resetDef" x="30" y="36" onmousedown="handleReset()"/>
                <g id="arrowUp" xlink:href="#dirArrow" transform="translate(30 24)" onmousedown="handlePan(0,-1)">
                  <use xlink:href="#rim" fill="#404040">
                        <set attributeName="fill" to="#808080" begin="arrowUp.mouseover" end="arrowUp.mouseout"/>
                  </use>
                  <path fill="none" stroke="white" stroke-width="1.5" d="M0,-3.0v7 M-2.5,-0.5L0,-3.0L2.5,-0.5"/>
                </g>
                <g id="arrowRight" xlink:href="#dirArrow" transform="rotate(90) translate(36 -43)" onmousedown="handlePan(1,0)">
                  <use xlink:href="#rim" fill="#404040">
                        <set attributeName="fill" to="#808080" begin="arrowRight.mouseover" end="arrowRight.mouseout"/>
                  </use>
                  <path fill="none" stroke="white" stroke-width="1.5" d="M0,-3.0v7 M-2.5,-0.5L0,-3.0L2.5,-0.5"/>
                </g>
                <g id="arrowDown" xlink:href="#dirArrow" transform="rotate(180) translate(-30 -48)" onmousedown="handlePan(0,1)">
                  <use xlink:href="#rim" fill="#404040">
                        <set attributeName="fill" to="#808080" begin="arrowDown.mouseover" end="arrowDown.mouseout"/>
                  </use>
                  <path fill="none" stroke="white" stroke-width="1.5" d="M0,-3.0v7 M-2.5,-0.5L0,-3.0L2.5,-0.5"/>
                </g>
                <g id="arrowLeft" xlink:href="#dirArrow" transform="rotate(270) translate(-36 17)" onmousedown="handlePan(-1,0)">
                  <use xlink:href="#rim" fill="#404040">
                        <set attributeName="fill" to="#808080" begin="arrowLeft.mouseover" end="arrowLeft.mouseout"/>
                  </use>
                  <path fill="none" stroke="white" stroke-width="1.5" d="M0,-3.0v7 M-2.5,-0.5L0,-3.0L2.5,-0.5"/>
                </g>
        </g>
        <svg viewBox="0 0 15 15" width="100%" height="30px" preserveAspectRatio="xMaxYMin meet">
         <g id="arrow_out" transform="scale(0.3 0.3)">
          <a xlink:href="classSNN_a4afa2f85f5939e81ec45c7760e23d932_icgraph_org.svg" target="_base">
           <rect id="button" ry="5" rx="5" y="6" x="6" height="38" width="38"
                fill="#f2f5e9" fill-opacity="0.5" stroke="#606060" stroke-width="1.0"/>
           <path id="arrow"
             d="M 11.500037,31.436501 C 11.940474,20.09759 22.043105,11.32322 32.158766,21.979434 L 37.068811,17.246167 C 37.068811,17.246167 37.088388,32 37.088388,32 L 22.160133,31.978069 C 22.160133,31.978069 26.997745,27.140456 26.997745,27.140456 C 18.528582,18.264221 13.291696,25.230495 11.500037,31.436501 z"
             style="fill:#404040;"/>
          </a>
         </g>
        </svg>
</svg>
