<?xml version="1.0" encoding="UTF-8" standalone="no"?>
<!DOCTYPE svg PUBLIC "-//W3C//DTD SVG 1.1//EN"
 "http://www.w3.org/Graphics/SVG/1.1/DTD/svg11.dtd">
<!-- Generated by graphviz version 2.40.1 (20161225.0304)
 -->
<!-- Title: isPoissonGroup Pages: 1 -->
<svg width="392pt" height="104pt"
 viewBox="0.00 0.00 392.00 104.00" xmlns="http://www.w3.org/2000/svg" xmlns:xlink="http://www.w3.org/1999/xlink">
<g id="graph0" class="graph" transform="scale(1 1) rotate(0) translate(4 100)">
<title>isPoissonGroup</title>
<polygon fill="#ffffff" stroke="transparent" points="-4,4 -4,-100 388,-100 388,4 -4,4"/>
<!-- Node564 -->
<g id="node1" class="node">
<title>Node564</title>
<polygon fill="#bfbfbf" stroke="#000000" points="0,-38.5 0,-57.5 86,-57.5 86,-38.5 0,-38.5"/>
<text text-anchor="middle" x="43" y="-45.5" font-family="Helvetica,sans-Serif" font-size="10.00" fill="#000000">isPoissonGroup</text>
</g>
<!-- Node565 -->
<g id="node2" class="node">
<title>Node565</title>
<g id="a_node2"><a xlink:href="classUserErrors.html#a4bbedc6c0817d5e59e74e450bf00472c" target="_top" xlink:title="simple wrapper for assert statement ">
<polygon fill="#ffffff" stroke="#000000" points="122,-76.5 122,-95.5 238,-95.5 238,-76.5 122,-76.5"/>
<text text-anchor="middle" x="180" y="-83.5" font-family="Helvetica,sans-Serif" font-size="10.00" fill="#000000">UserErrors::assertTrue</text>
</a>
</g>
</g>
<!-- Node564&#45;&gt;Node565 -->
<g id="edge1" class="edge">
<title>Node564&#45;&gt;Node565</title>
<path fill="none" stroke="#191970" d="M77.5709,-57.589C95.1752,-62.4719 116.7793,-68.4643 135.601,-73.685"/>
<polygon fill="#191970" stroke="#191970" points="134.8685,-77.1138 145.4402,-76.4141 136.7395,-70.3685 134.8685,-77.1138"/>
</g>
<!-- Node566 -->
<g id="node3" class="node">
<title>Node566</title>
<g id="a_node3"><a xlink:href="classCARLsim_1_1Impl.html#a292bdee57fec7c77ec4c15ea3f508d60" target="_top" xlink:title="getNumGroups">
<polygon fill="#ffffff" stroke="#000000" points="138.5,-38.5 138.5,-57.5 221.5,-57.5 221.5,-38.5 138.5,-38.5"/>
<text text-anchor="middle" x="180" y="-45.5" font-family="Helvetica,sans-Serif" font-size="10.00" fill="#000000">getNumGroups</text>
</a>
</g>
</g>
<!-- Node564&#45;&gt;Node566 -->
<g id="edge2" class="edge">
<title>Node564&#45;&gt;Node566</title>
<path fill="none" stroke="#191970" d="M86.3477,-48C99.591,-48 114.2909,-48 128.0444,-48"/>
<polygon fill="#191970" stroke="#191970" points="128.3375,-51.5001 138.3375,-48 128.3375,-44.5001 128.3375,-51.5001"/>
</g>
<!-- Node568 -->
<g id="node5" class="node">
<title>Node568</title>
<g id="a_node5"><a xlink:href="classSNN.html#a3764348d44236ad4932627cd4d199c31" target="_top" xlink:title="SNN::isPoissonGroup">
<polygon fill="#ffffff" stroke="#000000" points="123.5,-.5 123.5,-19.5 236.5,-19.5 236.5,-.5 123.5,-.5"/>
<text text-anchor="middle" x="180" y="-7.5" font-family="Helvetica,sans-Serif" font-size="10.00" fill="#000000">SNN::isPoissonGroup</text>
</a>
</g>
</g>
<!-- Node564&#45;&gt;Node568 -->
<g id="edge4" class="edge">
<title>Node564&#45;&gt;Node568</title>
<path fill="none" stroke="#191970" d="M77.5709,-38.411C95.1752,-33.5281 116.7793,-27.5357 135.601,-22.315"/>
<polygon fill="#191970" stroke="#191970" points="136.7395,-25.6315 145.4402,-19.5859 134.8685,-18.8862 136.7395,-25.6315"/>
</g>
<!-- Node567 -->
<g id="node4" class="node">
<title>Node567</title>
<g id="a_node4"><a xlink:href="classSNN.html#a292bdee57fec7c77ec4c15ea3f508d60" target="_top" xlink:title="SNN::getNumGroups">
<polygon fill="#ffffff" stroke="#000000" points="274,-38.5 274,-57.5 384,-57.5 384,-38.5 274,-38.5"/>
<text text-anchor="middle" x="329" y="-45.5" font-family="Helvetica,sans-Serif" font-size="10.00" fill="#000000">SNN::getNumGroups</text>
</a>
</g>
</g>
<!-- Node566&#45;&gt;Node567 -->
<g id="edge3" class="edge">
<title>Node566&#45;&gt;Node567</title>
<path fill="none" stroke="#191970" d="M221.5048,-48C234.5315,-48 249.2449,-48 263.5109,-48"/>
<polygon fill="#191970" stroke="#191970" points="263.7892,-51.5001 273.7892,-48 263.7891,-44.5001 263.7892,-51.5001"/>
</g>
</g>
</svg>
