<?xml version="1.0" encoding="UTF-8" standalone="no"?>
<!DOCTYPE svg PUBLIC "-//W3C//DTD SVG 1.1//EN"
 "http://www.w3.org/Graphics/SVG/1.1/DTD/svg11.dtd">
<!-- Generated by graphviz version 2.40.1 (20161225.0304)
 -->
<!-- Title: getWeightRange Pages: 1 -->
<svg width="559pt" height="39pt"
 viewBox="0.00 0.00 559.00 39.00" xmlns="http://www.w3.org/2000/svg" xmlns:xlink="http://www.w3.org/1999/xlink">
<g id="graph0" class="graph" transform="scale(1 1) rotate(0) translate(4 35)">
<title>getWeightRange</title>
<polygon fill="#ffffff" stroke="transparent" points="-4,4 -4,-35 555,-35 555,4 -4,4"/>
<!-- Node505 -->
<g id="node1" class="node">
<title>Node505</title>
<polygon fill="#bfbfbf" stroke="#000000" points="0,-6 0,-25 89,-25 89,-6 0,-6"/>
<text text-anchor="middle" x="44.5" y="-13" font-family="Helvetica,sans-Serif" font-size="10.00" fill="#000000">getWeightRange</text>
</g>
<!-- Node506 -->
<g id="node2" class="node">
<title>Node506</title>
<g id="a_node2"><a xlink:href="classCARLsim.html#a4afa2f85f5939e81ec45c7760e23d932" target="_top" xlink:title="returns the RangeWeight struct for a specific connection ID ">
<polygon fill="#ffffff" stroke="#000000" points="125,-6 125,-25 263,-25 263,-6 125,-6"/>
<text text-anchor="middle" x="194" y="-13" font-family="Helvetica,sans-Serif" font-size="10.00" fill="#000000">CARLsim::getWeightRange</text>
</a>
</g>
</g>
<!-- Node505&#45;&gt;Node506 -->
<g id="edge1" class="edge">
<title>Node505&#45;&gt;Node506</title>
<path fill="none" stroke="#191970" d="M99.5625,-15.5C107.7919,-15.5 116.3641,-15.5 124.84,-15.5"/>
<polygon fill="#191970" stroke="#191970" points="99.355,-12.0001 89.3549,-15.5 99.3549,-19.0001 99.355,-12.0001"/>
</g>
<!-- Node507 -->
<g id="node3" class="node">
<title>Node507</title>
<g id="a_node3"><a xlink:href="classSimpleWeightTuner_1_1Impl.html#a312d84bfa66a5036bb52a4c39db6fa6c" target="_top" xlink:title="SimpleWeightTuner::\lImpl::iterate">
<polygon fill="#ffffff" stroke="#000000" points="299,-.5 299,-30.5 407,-30.5 407,-.5 299,-.5"/>
<text text-anchor="start" x="307" y="-18.5" font-family="Helvetica,sans-Serif" font-size="10.00" fill="#000000">SimpleWeightTuner::</text>
<text text-anchor="middle" x="353" y="-7.5" font-family="Helvetica,sans-Serif" font-size="10.00" fill="#000000">Impl::iterate</text>
</a>
</g>
</g>
<!-- Node506&#45;&gt;Node507 -->
<g id="edge2" class="edge">
<title>Node506&#45;&gt;Node507</title>
<path fill="none" stroke="#191970" d="M273.3532,-15.5C281.9579,-15.5 290.5649,-15.5 298.771,-15.5"/>
<polygon fill="#191970" stroke="#191970" points="273.2772,-12.0001 263.2772,-15.5 273.2771,-19.0001 273.2772,-12.0001"/>
</g>
<!-- Node508 -->
<g id="node4" class="node">
<title>Node508</title>
<g id="a_node4"><a xlink:href="classSimpleWeightTuner.html#a0df985e3ff7a27edc1e2e3fcc8261843" target="_top" xlink:title="Performs an iteration step of the tuning algorithm. ">
<polygon fill="#ffffff" stroke="#000000" points="443,-.5 443,-30.5 551,-30.5 551,-.5 443,-.5"/>
<text text-anchor="start" x="451" y="-18.5" font-family="Helvetica,sans-Serif" font-size="10.00" fill="#000000">SimpleWeightTuner::</text>
<text text-anchor="middle" x="497" y="-7.5" font-family="Helvetica,sans-Serif" font-size="10.00" fill="#000000">iterate</text>
</a>
</g>
</g>
<!-- Node507&#45;&gt;Node508 -->
<g id="edge3" class="edge">
<title>Node507&#45;&gt;Node508</title>
<path fill="none" stroke="#191970" d="M417.2702,-15.5C425.7504,-15.5 434.3754,-15.5 442.6672,-15.5"/>
<polygon fill="#191970" stroke="#191970" points="417.03,-12.0001 407.03,-15.5 417.0299,-19.0001 417.03,-12.0001"/>
</g>
</g>
</svg>
