<?xml version="1.0" encoding="UTF-8" standalone="no"?>
<!DOCTYPE svg PUBLIC "-//W3C//DTD SVG 1.1//EN"
 "http://www.w3.org/Graphics/SVG/1.1/DTD/svg11.dtd">
<!-- Generated by graphviz version 2.40.1 (20161225.0304)
 -->
<!-- Title: startRecording Pages: 1 -->
<!--zoomable 66 -->
<svg id="main" version="1.1" xmlns="http://www.w3.org/2000/svg" xmlns:xlink="http://www.w3.org/1999/xlink" xml:space="preserve" onload="init(evt)">
<style type="text/css"><![CDATA[
.edge:hover path { stroke: red; }
.edge:hover polygon { stroke: red; fill: red; }
]]></style>
<script type="text/javascript"><![CDATA[
var edges = document.getElementsByTagName('g');
if (edges && edges.length) {
  for (var i=0;i<edges.length;i++) {
    if (edges[i].id.substr(0,4)=='edge') {
      edges[i].setAttribute('class','edge');
    }
  }
}
]]></script>
        <defs>
                <circle id="rim" cx="0" cy="0" r="7"/>
                <circle id="rim2" cx="0" cy="0" r="3.5"/>
                <g id="zoomPlus">
                        <use xlink:href="#rim" fill="#404040">
                                <set attributeName="fill" to="#808080" begin="zoomplus.mouseover" end="zoomplus.mouseout"/>
                        </use>
                        <path d="M-4,0h8M0,-4v8" fill="none" stroke="white" stroke-width="1.5" pointer-events="none"/>
                </g>
                <g id="zoomMin">
                        <use xlink:href="#rim" fill="#404040">
                                <set attributeName="fill" to="#808080" begin="zoomminus.mouseover" end="zoomminus.mouseout"/>
                        </use>
                        <path d="M-4,0h8" fill="none" stroke="white" stroke-width="1.5" pointer-events="none"/>
                </g>
                <g id="dirArrow">
                        <path fill="none" stroke="white" stroke-width="1.5" d="M0,-3.0v7 M-2.5,-0.5L0,-3.0L2.5,-0.5"/>
                </g>
               <g id="resetDef">
                       <use xlink:href="#rim2" fill="#404040">
                               <set attributeName="fill" to="#808080" begin="reset.mouseover" end="reset.mouseout"/>
                       </use>
               </g>
        </defs>

<script type="text/javascript">
var viewWidth = 701;
var viewHeight = 66;
var sectionId = 'dynsection-62';
</script>
<script xlink:href="svgpan.js"/>
<svg id="graph" class="graph">
<g id="viewport">
<title>startRecording</title>
<polygon fill="#ffffff" stroke="transparent" points="-4,4 -4,-62 697,-62 697,4 -4,4"/>
<!-- Node1337 -->
<g id="node1" class="node">
<title>Node1337</title>
<polygon fill="#bfbfbf" stroke="#000000" points="0,-19.5 0,-38.5 80,-38.5 80,-19.5 0,-19.5"/>
<text text-anchor="middle" x="40" y="-26.5" font-family="Helvetica,sans-Serif" font-size="10.00" fill="#000000">startRecording</text>
</g>
<!-- Node1338 -->
<g id="node2" class="node">
<title>Node1338</title>
<g id="a_node2"><a xlink:href="classSpikeMonitor.html#ab91616c118b701c2afd9136393d1f19b" target="_top" xlink:title="Starts a new recording period. ">
<polygon fill="#ffffff" stroke="#000000" points="254.5,-38.5 254.5,-57.5 397.5,-57.5 397.5,-38.5 254.5,-38.5"/>
<text text-anchor="middle" x="326" y="-45.5" font-family="Helvetica,sans-Serif" font-size="10.00" fill="#000000">SpikeMonitor::startRecording</text>
</a>
</g>
</g>
<!-- Node1337&#45;&gt;Node1338 -->
<g id="edge1" class="edge">
<title>Node1337&#45;&gt;Node1338</title>
<path fill="none" stroke="#191970" d="M90.2696,-32.3396C135.7126,-35.3585 203.1224,-39.8368 254.2303,-43.2321"/>
<polygon fill="#191970" stroke="#191970" points="90.2783,-28.8325 80.0682,-31.6619 89.8142,-35.8171 90.2783,-28.8325"/>
</g>
<!-- Node1341 -->
<g id="node5" class="node">
<title>Node1341</title>
<g id="a_node5"><a xlink:href="classSpikeMonitorCore.html#a7ac2c997b5281ea2f2bc00cc9706d37c" target="_top" xlink:title="sets status of PersistentData mode ">
<polygon fill="#ffffff" stroke="#000000" points="116,-.5 116,-19.5 211,-19.5 211,-.5 116,-.5"/>
<text text-anchor="middle" x="163.5" y="-7.5" font-family="Helvetica,sans-Serif" font-size="10.00" fill="#000000">setPersistentData</text>
</a>
</g>
</g>
<!-- Node1337&#45;&gt;Node1341 -->
<g id="edge4" class="edge">
<title>Node1337&#45;&gt;Node1341</title>
<path fill="none" stroke="#191970" d="M90.2298,-21.2723C98.6954,-19.9699 107.4606,-18.6215 115.858,-17.3295"/>
<polygon fill="#191970" stroke="#191970" points="89.4484,-17.8513 80.0969,-22.8312 90.5129,-24.7699 89.4484,-17.8513"/>
</g>
<!-- Node1339 -->
<g id="node3" class="node">
<title>Node1339</title>
<g id="a_node3"><a xlink:href="classSimpleWeightTuner_1_1Impl.html#a312d84bfa66a5036bb52a4c39db6fa6c" target="_top" xlink:title="SimpleWeightTuner::\lImpl::iterate">
<polygon fill="#ffffff" stroke="#000000" points="441,-14 441,-44 549,-44 549,-14 441,-14"/>
<text text-anchor="start" x="449" y="-32" font-family="Helvetica,sans-Serif" font-size="10.00" fill="#000000">SimpleWeightTuner::</text>
<text text-anchor="middle" x="495" y="-21" font-family="Helvetica,sans-Serif" font-size="10.00" fill="#000000">Impl::iterate</text>
</a>
</g>
</g>
<!-- Node1338&#45;&gt;Node1339 -->
<g id="edge2" class="edge">
<title>Node1338&#45;&gt;Node1339</title>
<path fill="none" stroke="#191970" d="M407.9175,-38.7903C419.1178,-37.5311 430.3786,-36.2651 440.9118,-35.0809"/>
<polygon fill="#191970" stroke="#191970" points="407.2176,-35.3469 397.6712,-39.9423 407.9997,-42.3031 407.2176,-35.3469"/>
</g>
<!-- Node1340 -->
<g id="node4" class="node">
<title>Node1340</title>
<g id="a_node4"><a xlink:href="classSimpleWeightTuner.html#a0df985e3ff7a27edc1e2e3fcc8261843" target="_top" xlink:title="Performs an iteration step of the tuning algorithm. ">
<polygon fill="#ffffff" stroke="#000000" points="585,-14 585,-44 693,-44 693,-14 585,-14"/>
<text text-anchor="start" x="593" y="-32" font-family="Helvetica,sans-Serif" font-size="10.00" fill="#000000">SimpleWeightTuner::</text>
<text text-anchor="middle" x="639" y="-21" font-family="Helvetica,sans-Serif" font-size="10.00" fill="#000000">iterate</text>
</a>
</g>
</g>
<!-- Node1339&#45;&gt;Node1340 -->
<g id="edge3" class="edge">
<title>Node1339&#45;&gt;Node1340</title>
<path fill="none" stroke="#191970" d="M559.2702,-29C567.7504,-29 576.3754,-29 584.6672,-29"/>
<polygon fill="#191970" stroke="#191970" points="559.03,-25.5001 549.03,-29 559.0299,-32.5001 559.03,-25.5001"/>
</g>
<!-- Node1342 -->
<g id="node6" class="node">
<title>Node1342</title>
<g id="a_node6"><a xlink:href="classSpikeMonitor.html#a7ac2c997b5281ea2f2bc00cc9706d37c" target="_top" xlink:title="Sets PersistentMode either on (true) or off (false) ">
<polygon fill="#ffffff" stroke="#000000" points="247,-.5 247,-19.5 405,-19.5 405,-.5 247,-.5"/>
<text text-anchor="middle" x="326" y="-7.5" font-family="Helvetica,sans-Serif" font-size="10.00" fill="#000000">SpikeMonitor::setPersistentData</text>
</a>
</g>
</g>
<!-- Node1341&#45;&gt;Node1342 -->
<g id="edge5" class="edge">
<title>Node1341&#45;&gt;Node1342</title>
<path fill="none" stroke="#191970" d="M221.5386,-10C229.7284,-10 238.2618,-10 246.7657,-10"/>
<polygon fill="#191970" stroke="#191970" points="221.3765,-6.5001 211.3765,-10 221.3764,-13.5001 221.3765,-6.5001"/>
</g>
<!-- Node1342&#45;&gt;Node1339 -->
<g id="edge6" class="edge">
<title>Node1342&#45;&gt;Node1339</title>
<path fill="none" stroke="#191970" d="M415.218,-20.0304C423.8663,-21.0027 432.4485,-21.9676 440.6007,-22.8841"/>
<polygon fill="#191970" stroke="#191970" points="415.3855,-16.5273 405.0571,-18.8881 414.6034,-23.4835 415.3855,-16.5273"/>
</g>
</g>
</svg>
        <g id="navigator" transform="translate(0 0)" fill="#404254">
                <rect fill="#f2f5e9" fill-opacity="0.5" stroke="#606060" stroke-width=".5" x="0" y="0" width="60" height="60"/>
                <use id="zoomplus" xlink:href="#zoomPlus" x="17" y="9" onmousedown="handleZoom(evt,'in')"/>
                <use id="zoomminus" xlink:href="#zoomMin" x="42" y="9" onmousedown="handleZoom(evt,'out')"/>
                <use id="reset" xlink:href="#resetDef" x="30" y="36" onmousedown="handleReset()"/>
                <g id="arrowUp" xlink:href="#dirArrow" transform="translate(30 24)" onmousedown="handlePan(0,-1)">
                  <use xlink:href="#rim" fill="#404040">
                        <set attributeName="fill" to="#808080" begin="arrowUp.mouseover" end="arrowUp.mouseout"/>
                  </use>
                  <path fill="none" stroke="white" stroke-width="1.5" d="M0,-3.0v7 M-2.5,-0.5L0,-3.0L2.5,-0.5"/>
                </g>
                <g id="arrowRight" xlink:href="#dirArrow" transform="rotate(90) translate(36 -43)" onmousedown="handlePan(1,0)">
                  <use xlink:href="#rim" fill="#404040">
                        <set attributeName="fill" to="#808080" begin="arrowRight.mouseover" end="arrowRight.mouseout"/>
                  </use>
                  <path fill="none" stroke="white" stroke-width="1.5" d="M0,-3.0v7 M-2.5,-0.5L0,-3.0L2.5,-0.5"/>
                </g>
                <g id="arrowDown" xlink:href="#dirArrow" transform="rotate(180) translate(-30 -48)" onmousedown="handlePan(0,1)">
                  <use xlink:href="#rim" fill="#404040">
                        <set attributeName="fill" to="#808080" begin="arrowDown.mouseover" end="arrowDown.mouseout"/>
                  </use>
                  <path fill="none" stroke="white" stroke-width="1.5" d="M0,-3.0v7 M-2.5,-0.5L0,-3.0L2.5,-0.5"/>
                </g>
                <g id="arrowLeft" xlink:href="#dirArrow" transform="rotate(270) translate(-36 17)" onmousedown="handlePan(-1,0)">
                  <use xlink:href="#rim" fill="#404040">
                        <set attributeName="fill" to="#808080" begin="arrowLeft.mouseover" end="arrowLeft.mouseout"/>
                  </use>
                  <path fill="none" stroke="white" stroke-width="1.5" d="M0,-3.0v7 M-2.5,-0.5L0,-3.0L2.5,-0.5"/>
                </g>
        </g>
        <svg viewBox="0 0 15 15" width="100%" height="30px" preserveAspectRatio="xMaxYMin meet">
         <g id="arrow_out" transform="scale(0.3 0.3)">
          <a xlink:href="classSpikeMonitorCore_ab91616c118b701c2afd9136393d1f19b_icgraph_org.svg" target="_base">
           <rect id="button" ry="5" rx="5" y="6" x="6" height="38" width="38"
                fill="#f2f5e9" fill-opacity="0.5" stroke="#606060" stroke-width="1.0"/>
           <path id="arrow"
             d="M 11.500037,31.436501 C 11.940474,20.09759 22.043105,11.32322 32.158766,21.979434 L 37.068811,17.246167 C 37.068811,17.246167 37.088388,32 37.088388,32 L 22.160133,31.978069 C 22.160133,31.978069 26.997745,27.140456 26.997745,27.140456 C 18.528582,18.264221 13.291696,25.230495 11.500037,31.436501 z"
             style="fill:#404040;"/>
          </a>
         </g>
        </svg>
</svg>
