<?xml version="1.0" encoding="UTF-8" standalone="no"?>
<!DOCTYPE svg PUBLIC "-//W3C//DTD SVG 1.1//EN"
 "http://www.w3.org/Graphics/SVG/1.1/DTD/svg11.dtd">
<!-- Generated by graphviz version 2.40.1 (20161225.0304)
 -->
<!-- Title: getConnSTDPInfo Pages: 1 -->
<!--zoomable 242 -->
<svg id="main" version="1.1" xmlns="http://www.w3.org/2000/svg" xmlns:xlink="http://www.w3.org/1999/xlink" xml:space="preserve" onload="init(evt)">
<style type="text/css"><![CDATA[
.edge:hover path { stroke: red; }
.edge:hover polygon { stroke: red; fill: red; }
]]></style>
<script type="text/javascript"><![CDATA[
var edges = document.getElementsByTagName('g');
if (edges && edges.length) {
  for (var i=0;i<edges.length;i++) {
    if (edges[i].id.substr(0,4)=='edge') {
      edges[i].setAttribute('class','edge');
    }
  }
}
]]></script>
        <defs>
                <circle id="rim" cx="0" cy="0" r="7"/>
                <circle id="rim2" cx="0" cy="0" r="3.5"/>
                <g id="zoomPlus">
                        <use xlink:href="#rim" fill="#404040">
                                <set attributeName="fill" to="#808080" begin="zoomplus.mouseover" end="zoomplus.mouseout"/>
                        </use>
                        <path d="M-4,0h8M0,-4v8" fill="none" stroke="white" stroke-width="1.5" pointer-events="none"/>
                </g>
                <g id="zoomMin">
                        <use xlink:href="#rim" fill="#404040">
                                <set attributeName="fill" to="#808080" begin="zoomminus.mouseover" end="zoomminus.mouseout"/>
                        </use>
                        <path d="M-4,0h8" fill="none" stroke="white" stroke-width="1.5" pointer-events="none"/>
                </g>
                <g id="dirArrow">
                        <path fill="none" stroke="white" stroke-width="1.5" d="M0,-3.0v7 M-2.5,-0.5L0,-3.0L2.5,-0.5"/>
                </g>
               <g id="resetDef">
                       <use xlink:href="#rim2" fill="#404040">
                               <set attributeName="fill" to="#808080" begin="reset.mouseover" end="reset.mouseout"/>
                       </use>
               </g>
        </defs>

<script type="text/javascript">
var viewWidth = 1792;
var viewHeight = 242;
var sectionId = 'dynsection-25';
</script>
<script xlink:href="svgpan.js"/>
<svg id="graph" class="graph">
<g id="viewport">
<title>getConnSTDPInfo</title>
<polygon fill="#ffffff" stroke="transparent" points="-4,4 -4,-238 1788,-238 1788,4 -4,4"/>
<!-- Node208 -->
<g id="node1" class="node">
<title>Node208</title>
<polygon fill="#bfbfbf" stroke="#000000" points="0,-129.5 0,-148.5 97,-148.5 97,-129.5 0,-129.5"/>
<text text-anchor="middle" x="48.5" y="-136.5" font-family="Helvetica,sans-Serif" font-size="10.00" fill="#000000">getConnSTDPInfo</text>
</g>
<!-- Node209 -->
<g id="node2" class="node">
<title>Node209</title>
<g id="a_node2"><a xlink:href="classCARLsim_1_1Impl.html#ac59a4a3c4479879564d6c3ec9bc4ac4f" target="_top" xlink:title="CARLsim::Impl::getConnSTDPInfo">
<polygon fill="#ffffff" stroke="#000000" points="133,-181.5 133,-200.5 303,-200.5 303,-181.5 133,-181.5"/>
<text text-anchor="middle" x="218" y="-188.5" font-family="Helvetica,sans-Serif" font-size="10.00" fill="#000000">CARLsim::Impl::getConnSTDPInfo</text>
</a>
</g>
</g>
<!-- Node208&#45;&gt;Node209 -->
<g id="edge1" class="edge">
<title>Node208&#45;&gt;Node209</title>
<path fill="none" stroke="#191970" d="M89.3322,-151.5267C119.3043,-160.7217 159.4027,-173.0233 186.8216,-181.435"/>
<polygon fill="#191970" stroke="#191970" points="90.1757,-148.1245 79.5889,-148.5376 88.1226,-154.8167 90.1757,-148.1245"/>
</g>
<!-- Node211 -->
<g id="node4" class="node">
<title>Node211</title>
<g id="a_node4"><a xlink:href="classSNN.html#acd2fe569d2092f6e9cf624d18b93b1bf" target="_top" xlink:title="returns file pointer to log file ">
<polygon fill="#ffffff" stroke="#000000" points="181.5,-110.5 181.5,-129.5 254.5,-129.5 254.5,-110.5 181.5,-110.5"/>
<text text-anchor="middle" x="218" y="-117.5" font-family="Helvetica,sans-Serif" font-size="10.00" fill="#000000">getLogFpLog</text>
</a>
</g>
</g>
<!-- Node208&#45;&gt;Node211 -->
<g id="edge3" class="edge">
<title>Node208&#45;&gt;Node211</title>
<path fill="none" stroke="#191970" d="M107.046,-132.4373C131.6887,-129.675 159.6098,-126.5452 181.2781,-124.1163"/>
<polygon fill="#191970" stroke="#191970" points="106.6197,-128.9631 97.0719,-133.5554 107.3996,-135.9195 106.6197,-128.9631"/>
</g>
<!-- Node210 -->
<g id="node3" class="node">
<title>Node210</title>
<g id="a_node3"><a xlink:href="classCARLsim.html#af8249e8ed1482db90a1aa71c8219b6e5" target="_top" xlink:title="returns the stdp information of a group specified by grpId ">
<polygon fill="#ffffff" stroke="#000000" points="357,-214.5 357,-233.5 503,-233.5 503,-214.5 357,-214.5"/>
<text text-anchor="middle" x="430" y="-221.5" font-family="Helvetica,sans-Serif" font-size="10.00" fill="#000000">CARLsim::getConnSTDPInfo</text>
</a>
</g>
</g>
<!-- Node209&#45;&gt;Node210 -->
<g id="edge2" class="edge">
<title>Node209&#45;&gt;Node210</title>
<path fill="none" stroke="#191970" d="M289.1228,-202.071C314.9079,-206.0847 343.792,-210.5808 368.6619,-214.4521"/>
<polygon fill="#191970" stroke="#191970" points="289.4541,-198.5805 279.0348,-200.5007 288.3774,-205.4972 289.4541,-198.5805"/>
</g>
<!-- Node212 -->
<g id="node5" class="node">
<title>Node212</title>
<g id="a_node5"><a xlink:href="classCARLsim_1_1Impl.html#acd2fe569d2092f6e9cf624d18b93b1bf" target="_top" xlink:title="CARLsim::Impl::getLogFpLog">
<polygon fill="#ffffff" stroke="#000000" points="357,-176.5 357,-195.5 503,-195.5 503,-176.5 357,-176.5"/>
<text text-anchor="middle" x="430" y="-183.5" font-family="Helvetica,sans-Serif" font-size="10.00" fill="#000000">CARLsim::Impl::getLogFpLog</text>
</a>
</g>
</g>
<!-- Node211&#45;&gt;Node212 -->
<g id="edge4" class="edge">
<title>Node211&#45;&gt;Node212</title>
<path fill="none" stroke="#191970" d="M248.838,-133.604C273.003,-143.8647 307.6659,-157.7121 339,-167 351.0696,-170.5776 364.2322,-173.7389 376.7013,-176.4056"/>
<polygon fill="#191970" stroke="#191970" points="250.0535,-130.317 239.4837,-129.5885 247.2922,-136.7494 250.0535,-130.317"/>
</g>
<!-- Node214 -->
<g id="node7" class="node">
<title>Node214</title>
<g id="a_node7"><a xlink:href="classConnectionMonitorCore.html#a02fd73d861ef2e4aabb38c0c9ff82947" target="_top" xlink:title="ConnectionMonitorCore\l::init">
<polygon fill="#ffffff" stroke="#000000" points="370.5,-127 370.5,-157 489.5,-157 489.5,-127 370.5,-127"/>
<text text-anchor="start" x="378.5" y="-145" font-family="Helvetica,sans-Serif" font-size="10.00" fill="#000000">ConnectionMonitorCore</text>
<text text-anchor="middle" x="430" y="-134" font-family="Helvetica,sans-Serif" font-size="10.00" fill="#000000">::init</text>
</a>
</g>
</g>
<!-- Node211&#45;&gt;Node214 -->
<g id="edge6" class="edge">
<title>Node211&#45;&gt;Node214</title>
<path fill="none" stroke="#191970" d="M265.0438,-124.8819C296.0646,-128.101 336.9638,-132.3453 370.2761,-135.8022"/>
<polygon fill="#191970" stroke="#191970" points="265.2355,-121.3831 254.9276,-123.8321 264.5129,-128.3457 265.2355,-121.3831"/>
</g>
<!-- Node227 -->
<g id="node20" class="node">
<title>Node227</title>
<g id="a_node20"><a xlink:href="classGroupMonitorCore.html#abbe561f1d7285414b1a9333fc09ac382" target="_top" xlink:title="constructor (called by CARLsim::setGroupMonitor) ">
<polygon fill="#ffffff" stroke="#000000" points="339,-88.5 339,-107.5 521,-107.5 521,-88.5 339,-88.5"/>
<text text-anchor="middle" x="430" y="-95.5" font-family="Helvetica,sans-Serif" font-size="10.00" fill="#000000">GroupMonitorCore::GroupMonitorCore</text>
</a>
</g>
</g>
<!-- Node211&#45;&gt;Node227 -->
<g id="edge20" class="edge">
<title>Node211&#45;&gt;Node227</title>
<path fill="none" stroke="#191970" d="M264.8808,-115.135C286.6556,-112.8754 313.3236,-110.1079 338.8241,-107.4616"/>
<polygon fill="#191970" stroke="#191970" points="264.5129,-111.6543 254.9276,-116.1679 265.2355,-118.6169 264.5129,-111.6543"/>
</g>
<!-- Node228 -->
<g id="node21" class="node">
<title>Node228</title>
<g id="a_node21"><a xlink:href="classNeuronMonitorCore.html#a1fea34ca55f65e7cfeb05d870b2e741b" target="_top" xlink:title="constructor (called by CARLsim::setNeuronMonitor) ">
<polygon fill="#ffffff" stroke="#000000" points="376.5,-39 376.5,-69 483.5,-69 483.5,-39 376.5,-39"/>
<text text-anchor="start" x="384.5" y="-57" font-family="Helvetica,sans-Serif" font-size="10.00" fill="#000000">NeuronMonitorCore::</text>
<text text-anchor="middle" x="430" y="-46" font-family="Helvetica,sans-Serif" font-size="10.00" fill="#000000">NeuronMonitorCore</text>
</a>
</g>
</g>
<!-- Node211&#45;&gt;Node228 -->
<g id="edge21" class="edge">
<title>Node211&#45;&gt;Node228</title>
<path fill="none" stroke="#191970" d="M254.4878,-107.0143C278.4067,-98.656 310.4243,-87.7583 339,-79 351.0618,-75.3031 364.1004,-71.5684 376.437,-68.1531"/>
<polygon fill="#191970" stroke="#191970" points="253.0424,-103.8123 244.7664,-110.4273 255.3612,-110.4171 253.0424,-103.8123"/>
</g>
<!-- Node229 -->
<g id="node22" class="node">
<title>Node229</title>
<g id="a_node22"><a xlink:href="classSpikeMonitorCore.html#ad925d84fd6af2e2d1565a65987c11e43" target="_top" xlink:title="constructor (called by CARLsim::setSpikeMonitor) ">
<polygon fill="#ffffff" stroke="#000000" points="340.5,-.5 340.5,-19.5 519.5,-19.5 519.5,-.5 340.5,-.5"/>
<text text-anchor="middle" x="430" y="-7.5" font-family="Helvetica,sans-Serif" font-size="10.00" fill="#000000">SpikeMonitorCore::SpikeMonitorCore</text>
</a>
</g>
</g>
<!-- Node211&#45;&gt;Node229 -->
<g id="edge22" class="edge">
<title>Node211&#45;&gt;Node229</title>
<path fill="none" stroke="#191970" d="M234.9315,-103.344C256.9856,-82.6361 297.6312,-47.7392 339,-29 347.5268,-25.1376 356.8609,-22.05 366.199,-19.5845"/>
<polygon fill="#191970" stroke="#191970" points="232.4909,-100.8351 227.6806,-110.275 237.3278,-105.8952 232.4909,-100.8351"/>
</g>
<!-- Node213 -->
<g id="node6" class="node">
<title>Node213</title>
<g id="a_node6"><a xlink:href="classCARLsim.html#a62495363b0ec3da7e68bf2a90bdc4fd8" target="_top" xlink:title="returns file pointer to log file ">
<polygon fill="#ffffff" stroke="#000000" points="557,-198.5 557,-217.5 679,-217.5 679,-198.5 557,-198.5"/>
<text text-anchor="middle" x="618" y="-205.5" font-family="Helvetica,sans-Serif" font-size="10.00" fill="#000000">CARLsim::getLogFpLog</text>
</a>
</g>
</g>
<!-- Node212&#45;&gt;Node213 -->
<g id="edge5" class="edge">
<title>Node212&#45;&gt;Node213</title>
<path fill="none" stroke="#191970" d="M513.2907,-195.7468C527.9382,-197.4609 542.9372,-199.2161 556.84,-200.843"/>
<polygon fill="#191970" stroke="#191970" points="513.5631,-192.2549 503.224,-194.5688 512.7494,-199.2074 513.5631,-192.2549"/>
</g>
<!-- Node215 -->
<g id="node8" class="node">
<title>Node215</title>
<g id="a_node8"><a xlink:href="classConnectionMonitorCore.html#ab64d9ff17fece61e850660bdd4ca00d2" target="_top" xlink:title="ConnectionMonitorCore\l::takeSnapshot">
<polygon fill="#ffffff" stroke="#000000" points="558.5,-149 558.5,-179 677.5,-179 677.5,-149 558.5,-149"/>
<text text-anchor="start" x="566.5" y="-167" font-family="Helvetica,sans-Serif" font-size="10.00" fill="#000000">ConnectionMonitorCore</text>
<text text-anchor="middle" x="618" y="-156" font-family="Helvetica,sans-Serif" font-size="10.00" fill="#000000">::takeSnapshot</text>
</a>
</g>
</g>
<!-- Node214&#45;&gt;Node215 -->
<g id="edge7" class="edge">
<title>Node214&#45;&gt;Node215</title>
<path fill="none" stroke="#191970" d="M499.6817,-150.1542C518.9799,-152.4125 539.7465,-154.8427 558.4127,-157.027"/>
<polygon fill="#191970" stroke="#191970" points="500.0817,-146.6773 489.7427,-148.9912 499.2681,-153.6298 500.0817,-146.6773"/>
</g>
<!-- Node217 -->
<g id="node10" class="node">
<title>Node217</title>
<g id="a_node10"><a xlink:href="classConnectionMonitorCore.html#acf625cff31a558c7d6786773d0c2693c" target="_top" xlink:title="ConnectionMonitorCore\l::getUpdateTimeIntervalSec">
<polygon fill="#ffffff" stroke="#000000" points="722,-108 722,-138 861,-138 861,-108 722,-108"/>
<text text-anchor="start" x="730" y="-126" font-family="Helvetica,sans-Serif" font-size="10.00" fill="#000000">ConnectionMonitorCore</text>
<text text-anchor="middle" x="791.5" y="-115" font-family="Helvetica,sans-Serif" font-size="10.00" fill="#000000">::getUpdateTimeIntervalSec</text>
</a>
</g>
</g>
<!-- Node214&#45;&gt;Node217 -->
<g id="edge16" class="edge">
<title>Node214&#45;&gt;Node217</title>
<path fill="none" stroke="#191970" d="M499.6881,-138.3373C563.6349,-134.9763 657.866,-130.0236 721.8125,-126.6627"/>
<polygon fill="#191970" stroke="#191970" points="499.4969,-134.8424 489.6944,-138.8625 499.8643,-141.8328 499.4969,-134.8424"/>
</g>
<!-- Node224 -->
<g id="node17" class="node">
<title>Node224</title>
<g id="a_node17"><a xlink:href="classSNN.html#a9773c7b8f7fbb53c92ec5623ea99cb69" target="_top" xlink:title="sets up a network monitor registered with a callback to process the spikes. ">
<polygon fill="#ffffff" stroke="#000000" points="562,-69.5 562,-88.5 674,-88.5 674,-69.5 562,-69.5"/>
<text text-anchor="middle" x="618" y="-76.5" font-family="Helvetica,sans-Serif" font-size="10.00" fill="#000000">setConnectionMonitor</text>
</a>
</g>
</g>
<!-- Node214&#45;&gt;Node224 -->
<g id="edge17" class="edge">
<title>Node214&#45;&gt;Node224</title>
<path fill="none" stroke="#191970" d="M498.2584,-124.0888C505.9647,-121.8178 513.6752,-119.4334 521,-117 546.9177,-108.3898 576.0084,-96.7161 595.5118,-88.5886"/>
<polygon fill="#191970" stroke="#191970" points="497.1643,-120.7617 488.5287,-126.9 499.1073,-127.4866 497.1643,-120.7617"/>
</g>
<!-- Node216 -->
<g id="node9" class="node">
<title>Node216</title>
<g id="a_node9"><a xlink:href="classConnectionMonitor.html#ab64d9ff17fece61e850660bdd4ca00d2" target="_top" xlink:title="Takes a snapshot of the current weight state. ">
<polygon fill="#ffffff" stroke="#000000" points="739.5,-157 739.5,-187 843.5,-187 843.5,-157 739.5,-157"/>
<text text-anchor="start" x="747.5" y="-175" font-family="Helvetica,sans-Serif" font-size="10.00" fill="#000000">ConnectionMonitor::</text>
<text text-anchor="middle" x="791.5" y="-164" font-family="Helvetica,sans-Serif" font-size="10.00" fill="#000000">takeSnapshot</text>
</a>
</g>
</g>
<!-- Node215&#45;&gt;Node216 -->
<g id="edge8" class="edge">
<title>Node215&#45;&gt;Node216</title>
<path fill="none" stroke="#191970" d="M687.7014,-167.2139C704.8918,-168.0065 723.0121,-168.8421 739.2164,-169.5892"/>
<polygon fill="#191970" stroke="#191970" points="687.8595,-163.7176 677.7089,-166.7531 687.537,-170.7101 687.8595,-163.7176"/>
</g>
<!-- Node215&#45;&gt;Node217 -->
<g id="edge9" class="edge">
<title>Node215&#45;&gt;Node217</title>
<path fill="none" stroke="#191970" d="M687.7155,-147.5254C700.9703,-144.3932 714.7773,-141.1304 727.8321,-138.0454"/>
<polygon fill="#191970" stroke="#191970" points="686.6359,-144.1841 677.7089,-149.8901 688.2458,-150.9965 686.6359,-144.1841"/>
</g>
<!-- Node218 -->
<g id="node11" class="node">
<title>Node218</title>
<g id="a_node11"><a xlink:href="classSNN.html#a68862cb4e6c749219c20c38aeab06986" target="_top" xlink:title="polls connection weights ">
<polygon fill="#ffffff" stroke="#000000" points="920.5,-113.5 920.5,-132.5 1048.5,-132.5 1048.5,-113.5 920.5,-113.5"/>
<text text-anchor="middle" x="984.5" y="-120.5" font-family="Helvetica,sans-Serif" font-size="10.00" fill="#000000">updateConnectionMonitor</text>
</a>
</g>
</g>
<!-- Node217&#45;&gt;Node218 -->
<g id="edge10" class="edge">
<title>Node217&#45;&gt;Node218</title>
<path fill="none" stroke="#191970" d="M871.2637,-123C887.6286,-123 904.6558,-123 920.3846,-123"/>
<polygon fill="#191970" stroke="#191970" points="871.1775,-119.5001 861.1774,-123 871.1774,-126.5001 871.1775,-119.5001"/>
</g>
<!-- Node219 -->
<g id="node12" class="node">
<title>Node219</title>
<g id="a_node12"><a xlink:href="classSNN.html#a3df37c7539f784fe7a939c5da922f41b" target="_top" xlink:title="run the simulation for n sec ">
<polygon fill="#ffffff" stroke="#000000" points="1101,-113.5 1101,-132.5 1168,-132.5 1168,-113.5 1101,-113.5"/>
<text text-anchor="middle" x="1134.5" y="-120.5" font-family="Helvetica,sans-Serif" font-size="10.00" fill="#000000">runNetwork</text>
</a>
</g>
</g>
<!-- Node218&#45;&gt;Node219 -->
<g id="edge11" class="edge">
<title>Node218&#45;&gt;Node219</title>
<path fill="none" stroke="#191970" d="M1058.7339,-123C1073.4957,-123 1088.297,-123 1100.8502,-123"/>
<polygon fill="#191970" stroke="#191970" points="1058.5486,-119.5001 1048.5486,-123 1058.5486,-126.5001 1058.5486,-119.5001"/>
</g>
<!-- Node220 -->
<g id="node13" class="node">
<title>Node220</title>
<g id="a_node13"><a xlink:href="classCARLsim_1_1Impl.html#a749f370debe5eec8661cf9ca1b1bb4c0" target="_top" xlink:title="CARLsim::Impl::runNetwork">
<polygon fill="#ffffff" stroke="#000000" points="1204,-113.5 1204,-132.5 1344,-132.5 1344,-113.5 1204,-113.5"/>
<text text-anchor="middle" x="1274" y="-120.5" font-family="Helvetica,sans-Serif" font-size="10.00" fill="#000000">CARLsim::Impl::runNetwork</text>
</a>
</g>
</g>
<!-- Node219&#45;&gt;Node220 -->
<g id="edge12" class="edge">
<title>Node219&#45;&gt;Node220</title>
<path fill="none" stroke="#191970" d="M1178.2708,-123C1186.4331,-123 1195.1492,-123 1203.8732,-123"/>
<polygon fill="#191970" stroke="#191970" points="1178.2691,-119.5001 1168.2691,-123 1178.269,-126.5001 1178.2691,-119.5001"/>
</g>
<!-- Node221 -->
<g id="node14" class="node">
<title>Node221</title>
<g id="a_node14"><a xlink:href="classCARLsim.html#aafb2d44405c96aafe089f96ff867018d" target="_top" xlink:title="run the simulation for time=(nSec*seconds + nMsec*milliseconds) ">
<polygon fill="#ffffff" stroke="#000000" points="1380,-113.5 1380,-132.5 1496,-132.5 1496,-113.5 1380,-113.5"/>
<text text-anchor="middle" x="1438" y="-120.5" font-family="Helvetica,sans-Serif" font-size="10.00" fill="#000000">CARLsim::runNetwork</text>
</a>
</g>
</g>
<!-- Node220&#45;&gt;Node221 -->
<g id="edge13" class="edge">
<title>Node220&#45;&gt;Node221</title>
<path fill="none" stroke="#191970" d="M1354.1489,-123C1362.8022,-123 1371.483,-123 1379.8055,-123"/>
<polygon fill="#191970" stroke="#191970" points="1354.0265,-119.5001 1344.0265,-123 1354.0264,-126.5001 1354.0265,-119.5001"/>
</g>
<!-- Node222 -->
<g id="node15" class="node">
<title>Node222</title>
<g id="a_node15"><a xlink:href="classSimpleWeightTuner_1_1Impl.html#a312d84bfa66a5036bb52a4c39db6fa6c" target="_top" xlink:title="SimpleWeightTuner::\lImpl::iterate">
<polygon fill="#ffffff" stroke="#000000" points="1532,-108 1532,-138 1640,-138 1640,-108 1532,-108"/>
<text text-anchor="start" x="1540" y="-126" font-family="Helvetica,sans-Serif" font-size="10.00" fill="#000000">SimpleWeightTuner::</text>
<text text-anchor="middle" x="1586" y="-115" font-family="Helvetica,sans-Serif" font-size="10.00" fill="#000000">Impl::iterate</text>
</a>
</g>
</g>
<!-- Node221&#45;&gt;Node222 -->
<g id="edge14" class="edge">
<title>Node221&#45;&gt;Node222</title>
<path fill="none" stroke="#191970" d="M1506.1513,-123C1514.8066,-123 1523.5692,-123 1531.9617,-123"/>
<polygon fill="#191970" stroke="#191970" points="1506.0688,-119.5001 1496.0687,-123 1506.0687,-126.5001 1506.0688,-119.5001"/>
</g>
<!-- Node223 -->
<g id="node16" class="node">
<title>Node223</title>
<g id="a_node16"><a xlink:href="classSimpleWeightTuner.html#a0df985e3ff7a27edc1e2e3fcc8261843" target="_top" xlink:title="Performs an iteration step of the tuning algorithm. ">
<polygon fill="#ffffff" stroke="#000000" points="1676,-108 1676,-138 1784,-138 1784,-108 1676,-108"/>
<text text-anchor="start" x="1684" y="-126" font-family="Helvetica,sans-Serif" font-size="10.00" fill="#000000">SimpleWeightTuner::</text>
<text text-anchor="middle" x="1730" y="-115" font-family="Helvetica,sans-Serif" font-size="10.00" fill="#000000">iterate</text>
</a>
</g>
</g>
<!-- Node222&#45;&gt;Node223 -->
<g id="edge15" class="edge">
<title>Node222&#45;&gt;Node223</title>
<path fill="none" stroke="#191970" d="M1650.2702,-123C1658.7504,-123 1667.3754,-123 1675.6672,-123"/>
<polygon fill="#191970" stroke="#191970" points="1650.03,-119.5001 1640.03,-123 1650.0299,-126.5001 1650.03,-119.5001"/>
</g>
<!-- Node225 -->
<g id="node18" class="node">
<title>Node225</title>
<g id="a_node18"><a xlink:href="classCARLsim_1_1Impl.html#a012dcdbbe9769131d98ddf680743bff3" target="_top" xlink:title="CARLsim::Impl::setConnection\lMonitor">
<polygon fill="#ffffff" stroke="#000000" points="715,-59 715,-89 868,-89 868,-59 715,-59"/>
<text text-anchor="start" x="723" y="-77" font-family="Helvetica,sans-Serif" font-size="10.00" fill="#000000">CARLsim::Impl::setConnection</text>
<text text-anchor="middle" x="791.5" y="-66" font-family="Helvetica,sans-Serif" font-size="10.00" fill="#000000">Monitor</text>
</a>
</g>
</g>
<!-- Node224&#45;&gt;Node225 -->
<g id="edge18" class="edge">
<title>Node224&#45;&gt;Node225</title>
<path fill="none" stroke="#191970" d="M684.5391,-77.0824C694.4883,-76.7957 704.8131,-76.4982 714.9496,-76.2061"/>
<polygon fill="#191970" stroke="#191970" points="684.2255,-73.5899 674.3305,-77.3766 684.4272,-80.587 684.2255,-73.5899"/>
</g>
<!-- Node226 -->
<g id="node19" class="node">
<title>Node226</title>
<g id="a_node19"><a xlink:href="classCARLsim.html#a0f4f273689484d0ceaa5a40f64fc82fc" target="_top" xlink:title="Sets a connection monitor for a group, custom ConnectionMonitor class. ">
<polygon fill="#ffffff" stroke="#000000" points="904,-64.5 904,-83.5 1065,-83.5 1065,-64.5 904,-64.5"/>
<text text-anchor="middle" x="984.5" y="-71.5" font-family="Helvetica,sans-Serif" font-size="10.00" fill="#000000">CARLsim::setConnectionMonitor</text>
</a>
</g>
</g>
<!-- Node225&#45;&gt;Node226 -->
<g id="edge19" class="edge">
<title>Node225&#45;&gt;Node226</title>
<path fill="none" stroke="#191970" d="M878.0833,-74C886.6808,-74 895.3844,-74 903.9173,-74"/>
<polygon fill="#191970" stroke="#191970" points="878.0559,-70.5001 868.0559,-74 878.0559,-77.5001 878.0559,-70.5001"/>
</g>
</g>
</svg>
        <g id="navigator" transform="translate(0 0)" fill="#404254">
                <rect fill="#f2f5e9" fill-opacity="0.5" stroke="#606060" stroke-width=".5" x="0" y="0" width="60" height="60"/>
                <use id="zoomplus" xlink:href="#zoomPlus" x="17" y="9" onmousedown="handleZoom(evt,'in')"/>
                <use id="zoomminus" xlink:href="#zoomMin" x="42" y="9" onmousedown="handleZoom(evt,'out')"/>
                <use id="reset" xlink:href="#resetDef" x="30" y="36" onmousedown="handleReset()"/>
                <g id="arrowUp" xlink:href="#dirArrow" transform="translate(30 24)" onmousedown="handlePan(0,-1)">
                  <use xlink:href="#rim" fill="#404040">
                        <set attributeName="fill" to="#808080" begin="arrowUp.mouseover" end="arrowUp.mouseout"/>
                  </use>
                  <path fill="none" stroke="white" stroke-width="1.5" d="M0,-3.0v7 M-2.5,-0.5L0,-3.0L2.5,-0.5"/>
                </g>
                <g id="arrowRight" xlink:href="#dirArrow" transform="rotate(90) translate(36 -43)" onmousedown="handlePan(1,0)">
                  <use xlink:href="#rim" fill="#404040">
                        <set attributeName="fill" to="#808080" begin="arrowRight.mouseover" end="arrowRight.mouseout"/>
                  </use>
                  <path fill="none" stroke="white" stroke-width="1.5" d="M0,-3.0v7 M-2.5,-0.5L0,-3.0L2.5,-0.5"/>
                </g>
                <g id="arrowDown" xlink:href="#dirArrow" transform="rotate(180) translate(-30 -48)" onmousedown="handlePan(0,1)">
                  <use xlink:href="#rim" fill="#404040">
                        <set attributeName="fill" to="#808080" begin="arrowDown.mouseover" end="arrowDown.mouseout"/>
                  </use>
                  <path fill="none" stroke="white" stroke-width="1.5" d="M0,-3.0v7 M-2.5,-0.5L0,-3.0L2.5,-0.5"/>
                </g>
                <g id="arrowLeft" xlink:href="#dirArrow" transform="rotate(270) translate(-36 17)" onmousedown="handlePan(-1,0)">
                  <use xlink:href="#rim" fill="#404040">
                        <set attributeName="fill" to="#808080" begin="arrowLeft.mouseover" end="arrowLeft.mouseout"/>
                  </use>
                  <path fill="none" stroke="white" stroke-width="1.5" d="M0,-3.0v7 M-2.5,-0.5L0,-3.0L2.5,-0.5"/>
                </g>
        </g>
        <svg viewBox="0 0 15 15" width="100%" height="30px" preserveAspectRatio="xMaxYMin meet">
         <g id="arrow_out" transform="scale(0.3 0.3)">
          <a xlink:href="classSNN_a37221c7881b5fa8d1d806804fb9521ab_icgraph_org.svg" target="_base">
           <rect id="button" ry="5" rx="5" y="6" x="6" height="38" width="38"
                fill="#f2f5e9" fill-opacity="0.5" stroke="#606060" stroke-width="1.0"/>
           <path id="arrow"
             d="M 11.500037,31.436501 C 11.940474,20.09759 22.043105,11.32322 32.158766,21.979434 L 37.068811,17.246167 C 37.068811,17.246167 37.088388,32 37.088388,32 L 22.160133,31.978069 C 22.160133,31.978069 26.997745,27.140456 26.997745,27.140456 C 18.528582,18.264221 13.291696,25.230495 11.500037,31.436501 z"
             style="fill:#404040;"/>
          </a>
         </g>
        </svg>
</svg>
