<?xml version="1.0" encoding="UTF-8" standalone="no"?>
<!DOCTYPE svg PUBLIC "-//W3C//DTD SVG 1.1//EN"
 "http://www.w3.org/Graphics/SVG/1.1/DTD/svg11.dtd">
<!-- Generated by graphviz version 2.40.1 (20161225.0304)
 -->
<!-- Title: getGroupId Pages: 1 -->
<svg width="375pt" height="28pt"
 viewBox="0.00 0.00 375.00 28.00" xmlns="http://www.w3.org/2000/svg" xmlns:xlink="http://www.w3.org/1999/xlink">
<g id="graph0" class="graph" transform="scale(1 1) rotate(0) translate(4 24)">
<title>getGroupId</title>
<polygon fill="#ffffff" stroke="transparent" points="-4,4 -4,-24 371,-24 371,4 -4,4"/>
<!-- Node191 -->
<g id="node1" class="node">
<title>Node191</title>
<polygon fill="#bfbfbf" stroke="#000000" points="0,-.5 0,-19.5 65,-19.5 65,-.5 0,-.5"/>
<text text-anchor="middle" x="32.5" y="-7.5" font-family="Helvetica,sans-Serif" font-size="10.00" fill="#000000">getGroupId</text>
</g>
<!-- Node192 -->
<g id="node2" class="node">
<title>Node192</title>
<g id="a_node2"><a xlink:href="classCARLsim_1_1Impl.html#a757c874860e9e4d5ce0716e76b1a3e78" target="_top" xlink:title="CARLsim::Impl::getGroupId">
<polygon fill="#ffffff" stroke="#000000" points="101,-.5 101,-19.5 239,-19.5 239,-.5 101,-.5"/>
<text text-anchor="middle" x="170" y="-7.5" font-family="Helvetica,sans-Serif" font-size="10.00" fill="#000000">CARLsim::Impl::getGroupId</text>
</a>
</g>
</g>
<!-- Node191&#45;&gt;Node192 -->
<g id="edge1" class="edge">
<title>Node191&#45;&gt;Node192</title>
<path fill="none" stroke="#191970" d="M65.0856,-10C72.9328,-10 81.6588,-10 90.6321,-10"/>
<polygon fill="#191970" stroke="#191970" points="90.8346,-13.5001 100.8346,-10 90.8345,-6.5001 90.8346,-13.5001"/>
</g>
<!-- Node193 -->
<g id="node3" class="node">
<title>Node193</title>
<g id="a_node3"><a xlink:href="classSNN.html#a757c874860e9e4d5ce0716e76b1a3e78" target="_top" xlink:title="SNN::getGroupId">
<polygon fill="#ffffff" stroke="#000000" points="275,-.5 275,-19.5 367,-19.5 367,-.5 275,-.5"/>
<text text-anchor="middle" x="321" y="-7.5" font-family="Helvetica,sans-Serif" font-size="10.00" fill="#000000">SNN::getGroupId</text>
</a>
</g>
</g>
<!-- Node192&#45;&gt;Node193 -->
<g id="edge2" class="edge">
<title>Node192&#45;&gt;Node193</title>
<path fill="none" stroke="#191970" d="M239.3128,-10C247.9114,-10 256.6177,-10 264.9816,-10"/>
<polygon fill="#191970" stroke="#191970" points="264.9838,-13.5001 274.9837,-10 264.9837,-6.5001 264.9838,-13.5001"/>
</g>
</g>
</svg>
