<?xml version="1.0" encoding="UTF-8" standalone="no"?>
<!DOCTYPE svg PUBLIC "-//W3C//DTD SVG 1.1//EN"
 "http://www.w3.org/Graphics/SVG/1.1/DTD/svg11.dtd">
<!-- Generated by graphviz version 2.40.1 (20161225.0304)
 -->
<!-- Title: getConductanceAMPA Pages: 1 -->
<svg width="486pt" height="104pt"
 viewBox="0.00 0.00 486.00 104.00" xmlns="http://www.w3.org/2000/svg" xmlns:xlink="http://www.w3.org/1999/xlink">
<g id="graph0" class="graph" transform="scale(1 1) rotate(0) translate(4 100)">
<title>getConductanceAMPA</title>
<polygon fill="#ffffff" stroke="transparent" points="-4,4 -4,-100 482,-100 482,4 -4,4"/>
<!-- Node98 -->
<g id="node1" class="node">
<title>Node98</title>
<polygon fill="#bfbfbf" stroke="#000000" points="0,-38.5 0,-57.5 116,-57.5 116,-38.5 0,-38.5"/>
<text text-anchor="middle" x="58" y="-45.5" font-family="Helvetica,sans-Serif" font-size="10.00" fill="#000000">getConductanceAMPA</text>
</g>
<!-- Node99 -->
<g id="node2" class="node">
<title>Node99</title>
<g id="a_node2"><a xlink:href="classUserErrors.html#a4bbedc6c0817d5e59e74e450bf00472c" target="_top" xlink:title="simple wrapper for assert statement ">
<polygon fill="#ffffff" stroke="#000000" points="166,-76.5 166,-95.5 282,-95.5 282,-76.5 166,-76.5"/>
<text text-anchor="middle" x="224" y="-83.5" font-family="Helvetica,sans-Serif" font-size="10.00" fill="#000000">UserErrors::assertTrue</text>
</a>
</g>
</g>
<!-- Node98&#45;&gt;Node99 -->
<g id="edge1" class="edge">
<title>Node98&#45;&gt;Node99</title>
<path fill="none" stroke="#191970" d="M99.8888,-57.589C121.893,-62.6261 149.0545,-68.8438 172.3524,-74.1771"/>
<polygon fill="#191970" stroke="#191970" points="171.8835,-77.6602 182.4124,-76.4799 173.4456,-70.8367 171.8835,-77.6602"/>
</g>
<!-- Node100 -->
<g id="node3" class="node">
<title>Node100</title>
<g id="a_node3"><a xlink:href="classCARLsim_1_1Impl.html#a292bdee57fec7c77ec4c15ea3f508d60" target="_top" xlink:title="getNumGroups">
<polygon fill="#ffffff" stroke="#000000" points="182.5,-38.5 182.5,-57.5 265.5,-57.5 265.5,-38.5 182.5,-38.5"/>
<text text-anchor="middle" x="224" y="-45.5" font-family="Helvetica,sans-Serif" font-size="10.00" fill="#000000">getNumGroups</text>
</a>
</g>
</g>
<!-- Node98&#45;&gt;Node100 -->
<g id="edge2" class="edge">
<title>Node98&#45;&gt;Node100</title>
<path fill="none" stroke="#191970" d="M116.0587,-48C134.3473,-48 154.4169,-48 172.2372,-48"/>
<polygon fill="#191970" stroke="#191970" points="172.4392,-51.5001 182.4392,-48 172.4391,-44.5001 172.4392,-51.5001"/>
</g>
<!-- Node102 -->
<g id="node5" class="node">
<title>Node102</title>
<g id="a_node5"><a xlink:href="classSNN.html#a9f12565a3b01482ccba3b63c5d6c3279" target="_top" xlink:title="SNN::getConductanceAMPA">
<polygon fill="#ffffff" stroke="#000000" points="152,-.5 152,-19.5 296,-19.5 296,-.5 152,-.5"/>
<text text-anchor="middle" x="224" y="-7.5" font-family="Helvetica,sans-Serif" font-size="10.00" fill="#000000">SNN::getConductanceAMPA</text>
</a>
</g>
</g>
<!-- Node98&#45;&gt;Node102 -->
<g id="edge4" class="edge">
<title>Node98&#45;&gt;Node102</title>
<path fill="none" stroke="#191970" d="M99.8888,-38.411C121.893,-33.3739 149.0545,-27.1562 172.3524,-21.8229"/>
<polygon fill="#191970" stroke="#191970" points="173.4456,-25.1633 182.4124,-19.5201 171.8835,-18.3398 173.4456,-25.1633"/>
</g>
<!-- Node101 -->
<g id="node4" class="node">
<title>Node101</title>
<g id="a_node4"><a xlink:href="classSNN.html#a292bdee57fec7c77ec4c15ea3f508d60" target="_top" xlink:title="SNN::getNumGroups">
<polygon fill="#ffffff" stroke="#000000" points="350,-38.5 350,-57.5 460,-57.5 460,-38.5 350,-38.5"/>
<text text-anchor="middle" x="405" y="-45.5" font-family="Helvetica,sans-Serif" font-size="10.00" fill="#000000">SNN::getNumGroups</text>
</a>
</g>
</g>
<!-- Node100&#45;&gt;Node101 -->
<g id="edge3" class="edge">
<title>Node100&#45;&gt;Node101</title>
<path fill="none" stroke="#191970" d="M265.5251,-48C287.5406,-48 315.0894,-48 339.8756,-48"/>
<polygon fill="#191970" stroke="#191970" points="339.9415,-51.5001 349.9414,-48 339.9414,-44.5001 339.9415,-51.5001"/>
</g>
<!-- Node103 -->
<g id="node6" class="node">
<title>Node103</title>
<g id="a_node6"><a xlink:href="classSNN.html#ad4930e827d0e5cc6a63dc4a07e1879dc" target="_top" xlink:title="SNN::isSimulationWithCOBA">
<polygon fill="#ffffff" stroke="#000000" points="332,-.5 332,-19.5 478,-19.5 478,-.5 332,-.5"/>
<text text-anchor="middle" x="405" y="-7.5" font-family="Helvetica,sans-Serif" font-size="10.00" fill="#000000">SNN::isSimulationWithCOBA</text>
</a>
</g>
</g>
<!-- Node102&#45;&gt;Node103 -->
<g id="edge5" class="edge">
<title>Node102&#45;&gt;Node103</title>
<path fill="none" stroke="#191970" d="M296.0561,-10C304.4881,-10 313.1432,-10 321.7115,-10"/>
<polygon fill="#191970" stroke="#191970" points="321.7116,-13.5001 331.7116,-10 321.7116,-6.5001 321.7116,-13.5001"/>
</g>
</g>
</svg>
