<?xml version="1.0" encoding="UTF-8" standalone="no"?>
<!DOCTYPE svg PUBLIC "-//W3C//DTD SVG 1.1//EN"
 "http://www.w3.org/Graphics/SVG/1.1/DTD/svg11.dtd">
<!-- Generated by graphviz version 2.40.1 (20161225.0304)
 -->
<!-- Title: setNeuronParametersLIF Pages: 1 -->
<svg width="835pt" height="148pt"
 viewBox="0.00 0.00 835.00 148.00" xmlns="http://www.w3.org/2000/svg" xmlns:xlink="http://www.w3.org/1999/xlink">
<g id="graph0" class="graph" transform="scale(1 1) rotate(0) translate(4 144)">
<title>setNeuronParametersLIF</title>
<polygon fill="#ffffff" stroke="transparent" points="-4,4 -4,-144 831,-144 831,4 -4,4"/>
<!-- Node938 -->
<g id="node1" class="node">
<title>Node938</title>
<polygon fill="#bfbfbf" stroke="#000000" points="0,-60.5 0,-79.5 126,-79.5 126,-60.5 0,-60.5"/>
<text text-anchor="middle" x="63" y="-67.5" font-family="Helvetica,sans-Serif" font-size="10.00" fill="#000000">setNeuronParametersLIF</text>
</g>
<!-- Node939 -->
<g id="node2" class="node">
<title>Node939</title>
<g id="a_node2"><a xlink:href="classCARLsim_1_1Impl.html#ae3d3c73126e9aa3fe8e81ea180860952" target="_top" xlink:title="CARLsim::Impl::setNeuron\lParametersLIF">
<polygon fill="#ffffff" stroke="#000000" points="162,-55 162,-85 297,-85 297,-55 162,-55"/>
<text text-anchor="start" x="170" y="-73" font-family="Helvetica,sans-Serif" font-size="10.00" fill="#000000">CARLsim::Impl::setNeuron</text>
<text text-anchor="middle" x="229.5" y="-62" font-family="Helvetica,sans-Serif" font-size="10.00" fill="#000000">ParametersLIF</text>
</a>
</g>
</g>
<!-- Node938&#45;&gt;Node939 -->
<g id="edge1" class="edge">
<title>Node938&#45;&gt;Node939</title>
<path fill="none" stroke="#191970" d="M126.4215,-70C134.6537,-70 143.1606,-70 151.5941,-70"/>
<polygon fill="#191970" stroke="#191970" points="151.8212,-73.5001 161.8212,-70 151.8212,-66.5001 151.8212,-73.5001"/>
</g>
<!-- Node940 -->
<g id="node3" class="node">
<title>Node940</title>
<g id="a_node3"><a xlink:href="classCARLsim_1_1Impl.html#ab0367f8ebd4019bf7d34ebddb1563fe7" target="_top" xlink:title="CARLsim::Impl::getGroupName">
<polygon fill="#ffffff" stroke="#000000" points="333,-38.5 333,-57.5 489,-57.5 489,-38.5 333,-38.5"/>
<text text-anchor="middle" x="411" y="-45.5" font-family="Helvetica,sans-Serif" font-size="10.00" fill="#000000">CARLsim::Impl::getGroupName</text>
</a>
</g>
</g>
<!-- Node939&#45;&gt;Node940 -->
<g id="edge2" class="edge">
<title>Node939&#45;&gt;Node940</title>
<path fill="none" stroke="#191970" d="M297.0839,-61.808C305.487,-60.7895 314.1742,-59.7365 322.83,-58.6873"/>
<polygon fill="#191970" stroke="#191970" points="323.4517,-62.1376 332.9579,-57.4597 322.6093,-55.1885 323.4517,-62.1376"/>
</g>
<!-- Node941 -->
<g id="node4" class="node">
<title>Node941</title>
<g id="a_node4"><a xlink:href="classUserErrors.html#a4bbedc6c0817d5e59e74e450bf00472c" target="_top" xlink:title="simple wrapper for assert statement ">
<polygon fill="#ffffff" stroke="#000000" points="545,-120.5 545,-139.5 661,-139.5 661,-120.5 545,-120.5"/>
<text text-anchor="middle" x="603" y="-127.5" font-family="Helvetica,sans-Serif" font-size="10.00" fill="#000000">UserErrors::assertTrue</text>
</a>
</g>
</g>
<!-- Node939&#45;&gt;Node941 -->
<g id="edge7" class="edge">
<title>Node939&#45;&gt;Node941</title>
<path fill="none" stroke="#191970" d="M255.3136,-85.0536C275.6755,-96.0909 305.1859,-110.2763 333,-117 400.3126,-133.272 479.736,-135.1042 534.9424,-133.737"/>
<polygon fill="#191970" stroke="#191970" points="535.0659,-137.235 544.9605,-133.4472 534.8634,-130.2379 535.0659,-137.235"/>
</g>
<!-- Node945 -->
<g id="node8" class="node">
<title>Node945</title>
<g id="a_node8"><a xlink:href="classCARLsim_1_1Impl.html#ae136e178382096490a2d34f78cd2afa2" target="_top" xlink:title="CARLsim::Impl::isPoisson\lGroup">
<polygon fill="#ffffff" stroke="#000000" points="344.5,-77 344.5,-107 477.5,-107 477.5,-77 344.5,-77"/>
<text text-anchor="start" x="352.5" y="-95" font-family="Helvetica,sans-Serif" font-size="10.00" fill="#000000">CARLsim::Impl::isPoisson</text>
<text text-anchor="middle" x="411" y="-84" font-family="Helvetica,sans-Serif" font-size="10.00" fill="#000000">Group</text>
</a>
</g>
</g>
<!-- Node939&#45;&gt;Node945 -->
<g id="edge8" class="edge">
<title>Node939&#45;&gt;Node945</title>
<path fill="none" stroke="#191970" d="M297.0839,-78.192C309.1311,-79.6523 321.7621,-81.1833 334.0476,-82.6724"/>
<polygon fill="#191970" stroke="#191970" points="333.9172,-86.1822 344.2658,-83.911 334.7596,-79.233 333.9172,-86.1822"/>
</g>
<!-- Node947 -->
<g id="node10" class="node">
<title>Node947</title>
<g id="a_node10"><a xlink:href="classSNN.html#a9d89d9bf7ced3aa5b19d356bfb4c3687" target="_top" xlink:title="Sets neuron parameters for a group of LIF spiking neurons. ">
<polygon fill="#ffffff" stroke="#000000" points="334,-.5 334,-19.5 488,-19.5 488,-.5 334,-.5"/>
<text text-anchor="middle" x="411" y="-7.5" font-family="Helvetica,sans-Serif" font-size="10.00" fill="#000000">SNN::setNeuronParametersLIF</text>
</a>
</g>
</g>
<!-- Node939&#45;&gt;Node947 -->
<g id="edge12" class="edge">
<title>Node939&#45;&gt;Node947</title>
<path fill="none" stroke="#191970" d="M264.0387,-54.9291C283.9548,-46.5909 309.6099,-36.4423 333,-29 340.7427,-26.5364 349.0039,-24.2095 357.146,-22.0849"/>
<polygon fill="#191970" stroke="#191970" points="358.1395,-25.4439 366.9755,-19.598 356.4225,-18.6577 358.1395,-25.4439"/>
</g>
<!-- Node940&#45;&gt;Node941 -->
<g id="edge3" class="edge">
<title>Node940&#45;&gt;Node941</title>
<path fill="none" stroke="#191970" d="M466.4928,-57.6265C474.3855,-60.2856 482.1406,-63.6766 489,-68 510.0858,-81.29 503.8344,-97.8375 525,-111 528.4305,-113.1334 532.084,-115.0272 535.8662,-116.7084"/>
<polygon fill="#191970" stroke="#191970" points="534.8905,-120.0849 545.4785,-120.4648 537.4384,-113.565 534.8905,-120.0849"/>
</g>
<!-- Node942 -->
<g id="node5" class="node">
<title>Node942</title>
<g id="a_node5"><a xlink:href="classCARLsim_1_1Impl.html#a292bdee57fec7c77ec4c15ea3f508d60" target="_top" xlink:title="CARLsim::Impl::getNumGroups">
<polygon fill="#ffffff" stroke="#000000" points="525,-44.5 525,-63.5 681,-63.5 681,-44.5 525,-44.5"/>
<text text-anchor="middle" x="603" y="-51.5" font-family="Helvetica,sans-Serif" font-size="10.00" fill="#000000">CARLsim::Impl::getNumGroups</text>
</a>
</g>
</g>
<!-- Node940&#45;&gt;Node942 -->
<g id="edge4" class="edge">
<title>Node940&#45;&gt;Node942</title>
<path fill="none" stroke="#191970" d="M489.0938,-50.4404C497.6006,-50.7063 506.3019,-50.9782 514.9175,-51.2474"/>
<polygon fill="#191970" stroke="#191970" points="514.871,-54.7476 524.9755,-51.5617 515.0897,-47.751 514.871,-54.7476"/>
</g>
<!-- Node944 -->
<g id="node7" class="node">
<title>Node944</title>
<g id="a_node7"><a xlink:href="classSNN.html#ab0367f8ebd4019bf7d34ebddb1563fe7" target="_top" xlink:title="SNN::getGroupName">
<polygon fill="#ffffff" stroke="#000000" points="548,-6.5 548,-25.5 658,-25.5 658,-6.5 548,-6.5"/>
<text text-anchor="middle" x="603" y="-13.5" font-family="Helvetica,sans-Serif" font-size="10.00" fill="#000000">SNN::getGroupName</text>
</a>
</g>
</g>
<!-- Node940&#45;&gt;Node944 -->
<g id="edge6" class="edge">
<title>Node940&#45;&gt;Node944</title>
<path fill="none" stroke="#191970" d="M468.0865,-38.4856C490.0407,-34.8265 515.2634,-30.6228 537.9152,-26.8475"/>
<polygon fill="#191970" stroke="#191970" points="538.495,-30.2992 547.7836,-25.2027 537.3442,-23.3944 538.495,-30.2992"/>
</g>
<!-- Node943 -->
<g id="node6" class="node">
<title>Node943</title>
<g id="a_node6"><a xlink:href="classSNN.html#a292bdee57fec7c77ec4c15ea3f508d60" target="_top" xlink:title="SNN::getNumGroups">
<polygon fill="#ffffff" stroke="#000000" points="717,-44.5 717,-63.5 827,-63.5 827,-44.5 717,-44.5"/>
<text text-anchor="middle" x="772" y="-51.5" font-family="Helvetica,sans-Serif" font-size="10.00" fill="#000000">SNN::getNumGroups</text>
</a>
</g>
</g>
<!-- Node942&#45;&gt;Node943 -->
<g id="edge5" class="edge">
<title>Node942&#45;&gt;Node943</title>
<path fill="none" stroke="#191970" d="M681.069,-54C689.6771,-54 698.3747,-54 706.8018,-54"/>
<polygon fill="#191970" stroke="#191970" points="706.9225,-57.5001 716.9225,-54 706.9225,-50.5001 706.9225,-57.5001"/>
</g>
<!-- Node945&#45;&gt;Node941 -->
<g id="edge9" class="edge">
<title>Node945&#45;&gt;Node941</title>
<path fill="none" stroke="#191970" d="M477.6134,-105.1839C499.5862,-109.5327 523.832,-114.3313 545.0999,-118.5406"/>
<polygon fill="#191970" stroke="#191970" points="544.4703,-121.9838 554.9596,-120.492 545.8294,-115.117 544.4703,-121.9838"/>
</g>
<!-- Node945&#45;&gt;Node942 -->
<g id="edge10" class="edge">
<title>Node945&#45;&gt;Node942</title>
<path fill="none" stroke="#191970" d="M477.6134,-78.8161C499.5862,-74.4673 523.832,-69.6687 545.0999,-65.4594"/>
<polygon fill="#191970" stroke="#191970" points="545.8294,-68.883 554.9596,-63.508 544.4703,-62.0162 545.8294,-68.883"/>
</g>
<!-- Node946 -->
<g id="node9" class="node">
<title>Node946</title>
<g id="a_node9"><a xlink:href="classSNN.html#a3764348d44236ad4932627cd4d199c31" target="_top" xlink:title="SNN::isPoissonGroup">
<polygon fill="#ffffff" stroke="#000000" points="546.5,-82.5 546.5,-101.5 659.5,-101.5 659.5,-82.5 546.5,-82.5"/>
<text text-anchor="middle" x="603" y="-89.5" font-family="Helvetica,sans-Serif" font-size="10.00" fill="#000000">SNN::isPoissonGroup</text>
</a>
</g>
</g>
<!-- Node945&#45;&gt;Node946 -->
<g id="edge11" class="edge">
<title>Node945&#45;&gt;Node946</title>
<path fill="none" stroke="#191970" d="M477.6134,-92C496.6179,-92 517.3227,-92 536.3304,-92"/>
<polygon fill="#191970" stroke="#191970" points="536.3947,-95.5001 546.3947,-92 536.3947,-88.5001 536.3947,-95.5001"/>
</g>
</g>
</svg>
