<?xml version="1.0" encoding="UTF-8" standalone="no"?>
<!DOCTYPE svg PUBLIC "-//W3C//DTD SVG 1.1//EN"
 "http://www.w3.org/Graphics/SVG/1.1/DTD/svg11.dtd">
<!-- Generated by graphviz version 2.40.1 (20161225.0304)
 -->
<!-- Title: getNumNeuronsPost Pages: 1 -->
<svg width="400pt" height="88pt"
 viewBox="0.00 0.00 400.00 88.00" xmlns="http://www.w3.org/2000/svg" xmlns:xlink="http://www.w3.org/1999/xlink">
<g id="graph0" class="graph" transform="scale(1 1) rotate(0) translate(4 84)">
<title>getNumNeuronsPost</title>
<polygon fill="#ffffff" stroke="transparent" points="-4,4 -4,-84 396,-84 396,4 -4,4"/>
<!-- Node87 -->
<g id="node1" class="node">
<title>Node87</title>
<polygon fill="#bfbfbf" stroke="#000000" points="0,-30 0,-49 108,-49 108,-30 0,-30"/>
<text text-anchor="middle" x="54" y="-37" font-family="Helvetica,sans-Serif" font-size="10.00" fill="#000000">getNumNeuronsPost</text>
</g>
<!-- Node88 -->
<g id="node2" class="node">
<title>Node88</title>
<g id="a_node2"><a xlink:href="classConnectionMonitor.html#a7d71d4ec2b08c52054491ec818ad6ed7" target="_top" xlink:title="Returns the number of post&#45;synaptic neurons. ">
<polygon fill="#ffffff" stroke="#000000" points="144,-24.5 144,-54.5 252,-54.5 252,-24.5 144,-24.5"/>
<text text-anchor="start" x="152" y="-42.5" font-family="Helvetica,sans-Serif" font-size="10.00" fill="#000000">ConnectionMonitor::</text>
<text text-anchor="middle" x="198" y="-31.5" font-family="Helvetica,sans-Serif" font-size="10.00" fill="#000000">getNumNeuronsPost</text>
</a>
</g>
</g>
<!-- Node87&#45;&gt;Node88 -->
<g id="edge1" class="edge">
<title>Node87&#45;&gt;Node88</title>
<path fill="none" stroke="#191970" d="M118.2702,-39.5C126.7504,-39.5 135.3754,-39.5 143.6672,-39.5"/>
<polygon fill="#191970" stroke="#191970" points="118.03,-36.0001 108.03,-39.5 118.0299,-43.0001 118.03,-36.0001"/>
</g>
<!-- Node89 -->
<g id="node3" class="node">
<title>Node89</title>
<g id="a_node3"><a xlink:href="classConnectionMonitor.html#a46e73089106a296d8a0b2c4a5066f079" target="_top" xlink:title="Returns the number of incoming synapses for a specific post&#45;synaptic neuron. ">
<polygon fill="#ffffff" stroke="#000000" points="288,-49.5 288,-79.5 392,-79.5 392,-49.5 288,-49.5"/>
<text text-anchor="start" x="296" y="-67.5" font-family="Helvetica,sans-Serif" font-size="10.00" fill="#000000">ConnectionMonitor::</text>
<text text-anchor="middle" x="340" y="-56.5" font-family="Helvetica,sans-Serif" font-size="10.00" fill="#000000">getFanIn</text>
</a>
</g>
</g>
<!-- Node88&#45;&gt;Node89 -->
<g id="edge2" class="edge">
<title>Node88&#45;&gt;Node89</title>
<path fill="none" stroke="#191970" d="M262.1337,-50.7911C270.77,-52.3116 279.5431,-53.8562 287.9355,-55.3337"/>
<polygon fill="#191970" stroke="#191970" points="262.5446,-47.3097 252.0892,-49.0227 261.3308,-54.2037 262.5446,-47.3097"/>
</g>
<!-- Node90 -->
<g id="node4" class="node">
<title>Node90</title>
<g id="a_node4"><a xlink:href="classConnectionMonitor.html#a71dc2d0a7970622052e156ca863f4216" target="_top" xlink:title="Prints the current weight state as a sparse list of weights. ">
<polygon fill="#ffffff" stroke="#000000" points="288,-.5 288,-30.5 392,-30.5 392,-.5 288,-.5"/>
<text text-anchor="start" x="296" y="-18.5" font-family="Helvetica,sans-Serif" font-size="10.00" fill="#000000">ConnectionMonitor::</text>
<text text-anchor="middle" x="340" y="-7.5" font-family="Helvetica,sans-Serif" font-size="10.00" fill="#000000">printSparse</text>
</a>
</g>
</g>
<!-- Node88&#45;&gt;Node90 -->
<g id="edge3" class="edge">
<title>Node88&#45;&gt;Node90</title>
<path fill="none" stroke="#191970" d="M262.1337,-28.6605C270.77,-27.2008 279.5431,-25.7181 287.9355,-24.2996"/>
<polygon fill="#191970" stroke="#191970" points="261.366,-25.2405 252.0892,-30.3582 262.5327,-32.1426 261.366,-25.2405"/>
</g>
</g>
</svg>
