<?xml version="1.0" encoding="UTF-8" standalone="no"?>
<!DOCTYPE svg PUBLIC "-//W3C//DTD SVG 1.1//EN"
 "http://www.w3.org/Graphics/SVG/1.1/DTD/svg11.dtd">
<!-- Generated by graphviz version 2.40.1 (20161225.0304)
 -->
<!-- Title: setCompartmentParameters Pages: 1 -->
<svg width="521pt" height="28pt"
 viewBox="0.00 0.00 521.00 28.00" xmlns="http://www.w3.org/2000/svg" xmlns:xlink="http://www.w3.org/1999/xlink">
<g id="graph0" class="graph" transform="scale(1 1) rotate(0) translate(4 24)">
<title>setCompartmentParameters</title>
<polygon fill="#ffffff" stroke="transparent" points="-4,4 -4,-24 517,-24 517,4 -4,4"/>
<!-- Node1209 -->
<g id="node1" class="node">
<title>Node1209</title>
<polygon fill="#bfbfbf" stroke="#000000" points="0,-.5 0,-19.5 140,-19.5 140,-.5 0,-.5"/>
<text text-anchor="middle" x="70" y="-7.5" font-family="Helvetica,sans-Serif" font-size="10.00" fill="#000000">setCompartmentParameters</text>
</g>
<!-- Node1210 -->
<g id="node2" class="node">
<title>Node1210</title>
<g id="a_node2"><a xlink:href="classCARLsim.html#adb7dd274136fd2a3307c0f7f0767275a" target="_top" xlink:title="Sets coupling constants G_u and G_d for the compartment. ">
<polygon fill="#ffffff" stroke="#000000" points="176,-.5 176,-19.5 364,-19.5 364,-.5 176,-.5"/>
<text text-anchor="middle" x="270" y="-7.5" font-family="Helvetica,sans-Serif" font-size="10.00" fill="#000000">CARLsim::setCompartmentParameters</text>
</a>
</g>
</g>
<!-- Node1209&#45;&gt;Node1210 -->
<g id="edge1" class="edge">
<title>Node1209&#45;&gt;Node1210</title>
<path fill="none" stroke="#191970" d="M150.3149,-10C158.673,-10 167.222,-10 175.7158,-10"/>
<polygon fill="#191970" stroke="#191970" points="150.2313,-6.5001 140.2313,-10 150.2313,-13.5001 150.2313,-6.5001"/>
</g>
<!-- Node1211 -->
<g id="node3" class="node">
<title>Node1211</title>
<g id="a_node3"><a xlink:href="classCARLsim_1_1Impl.html#abb10cfa3d0f3a246442e1187ecb837ae" target="_top" xlink:title="setDefaultSTPparams">
<polygon fill="#ffffff" stroke="#000000" points="400,-.5 400,-19.5 513,-19.5 513,-.5 400,-.5"/>
<text text-anchor="middle" x="456.5" y="-7.5" font-family="Helvetica,sans-Serif" font-size="10.00" fill="#000000">setDefaultSTPparams</text>
</a>
</g>
</g>
<!-- Node1210&#45;&gt;Node1211 -->
<g id="edge2" class="edge">
<title>Node1210&#45;&gt;Node1211</title>
<path fill="none" stroke="#191970" d="M374.0734,-10C382.8999,-10 391.5952,-10 399.8372,-10"/>
<polygon fill="#191970" stroke="#191970" points="374.0696,-6.5001 364.0696,-10 374.0695,-13.5001 374.0696,-6.5001"/>
</g>
</g>
</svg>
