<?xml version="1.0" encoding="UTF-8" standalone="no"?>
<!DOCTYPE svg PUBLIC "-//W3C//DTD SVG 1.1//EN"
 "http://www.w3.org/Graphics/SVG/1.1/DTD/svg11.dtd">
<!-- Generated by graphviz version 2.40.1 (20161225.0304)
 -->
<!-- Title: setSpikeFileId Pages: 1 -->
<svg width="1278pt" height="192pt"
 viewBox="0.00 0.00 1278.00 191.50" xmlns="http://www.w3.org/2000/svg" xmlns:xlink="http://www.w3.org/1999/xlink">
<g id="graph0" class="graph" transform="scale(1 1) rotate(0) translate(4 187.5)">
<title>setSpikeFileId</title>
<polygon fill="#ffffff" stroke="transparent" points="-4,4 -4,-187.5 1274,-187.5 1274,4 -4,4"/>
<!-- Node1285 -->
<g id="node1" class="node">
<title>Node1285</title>
<polygon fill="#bfbfbf" stroke="#000000" points="0,-114.5 0,-133.5 79,-133.5 79,-114.5 0,-114.5"/>
<text text-anchor="middle" x="39.5" y="-121.5" font-family="Helvetica,sans-Serif" font-size="10.00" fill="#000000">setSpikeFileId</text>
</g>
<!-- Node1286 -->
<g id="node2" class="node">
<title>Node1286</title>
<g id="a_node2"><a xlink:href="classSNN.html#ace11f3a7995a24298caf842498eebbaf" target="_top" xlink:title="sets up a spike monitor registered with a callback to process the spikes, there can only be one Spike...">
<polygon fill="#ffffff" stroke="#000000" points="120,-152.5 120,-171.5 235,-171.5 235,-152.5 120,-152.5"/>
<text text-anchor="middle" x="177.5" y="-159.5" font-family="Helvetica,sans-Serif" font-size="10.00" fill="#000000">SNN::setSpikeMonitor</text>
</a>
</g>
</g>
<!-- Node1285&#45;&gt;Node1286 -->
<g id="edge1" class="edge">
<title>Node1285&#45;&gt;Node1286</title>
<path fill="none" stroke="#191970" d="M83.973,-136.2462C102.9946,-141.484 124.8751,-147.5091 142.6879,-152.4141"/>
<polygon fill="#191970" stroke="#191970" points="84.8936,-132.8695 74.3232,-133.589 83.0352,-139.6183 84.8936,-132.8695"/>
</g>
<!-- Node1291 -->
<g id="node7" class="node">
<title>Node1291</title>
<g id="a_node7"><a xlink:href="classSpikeMonitor.html#a11168f8252e1416f1706b5f7cae0be1e" target="_top" xlink:title="Sets the name of the spike file binary. ">
<polygon fill="#ffffff" stroke="#000000" points="115,-114.5 115,-133.5 240,-133.5 240,-114.5 115,-114.5"/>
<text text-anchor="middle" x="177.5" y="-121.5" font-family="Helvetica,sans-Serif" font-size="10.00" fill="#000000">SpikeMonitor::setLogFile</text>
</a>
</g>
</g>
<!-- Node1285&#45;&gt;Node1291 -->
<g id="edge6" class="edge">
<title>Node1285&#45;&gt;Node1291</title>
<path fill="none" stroke="#191970" d="M89.2703,-124C97.5434,-124 106.2173,-124 114.7621,-124"/>
<polygon fill="#191970" stroke="#191970" points="89.0453,-120.5001 79.0453,-124 89.0452,-127.5001 89.0453,-120.5001"/>
</g>
<!-- Node1292 -->
<g id="node8" class="node">
<title>Node1292</title>
<g id="a_node8"><a xlink:href="classSpikeMonitorCore.html#a46187d03667c0fa3cc4dc3a654ee52e8" target="_top" xlink:title="returns a pointer to the spike file ">
<polygon fill="#ffffff" stroke="#000000" points="138,-76.5 138,-95.5 217,-95.5 217,-76.5 138,-76.5"/>
<text text-anchor="middle" x="177.5" y="-83.5" font-family="Helvetica,sans-Serif" font-size="10.00" fill="#000000">getSpikeFileId</text>
</a>
</g>
</g>
<!-- Node1285&#45;&gt;Node1292 -->
<g id="edge7" class="edge">
<title>Node1285&#45;&gt;Node1292</title>
<path fill="none" stroke="#191970" d="M83.973,-111.7538C102.9946,-106.516 124.8751,-100.4909 142.6879,-95.5859"/>
<polygon fill="#191970" stroke="#191970" points="83.0352,-108.3817 74.3232,-114.411 84.8936,-115.1305 83.0352,-108.3817"/>
</g>
<!-- Node1287 -->
<g id="node3" class="node">
<title>Node1287</title>
<g id="a_node3"><a xlink:href="classCARLsim_1_1Impl.html#a76311719fdd8a942d292caead86cf0e6" target="_top" xlink:title="CARLsim::Impl::setSpikeMonitor">
<polygon fill="#ffffff" stroke="#000000" points="276,-153.5 276,-172.5 437,-172.5 437,-153.5 276,-153.5"/>
<text text-anchor="middle" x="356.5" y="-160.5" font-family="Helvetica,sans-Serif" font-size="10.00" fill="#000000">CARLsim::Impl::setSpikeMonitor</text>
</a>
</g>
</g>
<!-- Node1286&#45;&gt;Node1287 -->
<g id="edge2" class="edge">
<title>Node1286&#45;&gt;Node1287</title>
<path fill="none" stroke="#191970" d="M245.3437,-162.379C255.3062,-162.4347 265.6496,-162.4925 275.8387,-162.5494"/>
<polygon fill="#191970" stroke="#191970" points="245.1415,-158.8779 235.122,-162.3219 245.1023,-165.8778 245.1415,-158.8779"/>
</g>
<!-- Node1288 -->
<g id="node4" class="node">
<title>Node1288</title>
<g id="a_node4"><a xlink:href="classCARLsim.html#a1e0b4d170b65f5075f1a996554c842ab" target="_top" xlink:title="Sets a Spike Monitor for a groups, prints spikes to binary file. ">
<polygon fill="#ffffff" stroke="#000000" points="473,-155.5 473,-174.5 609,-174.5 609,-155.5 473,-155.5"/>
<text text-anchor="middle" x="541" y="-162.5" font-family="Helvetica,sans-Serif" font-size="10.00" fill="#000000">CARLsim::setSpikeMonitor</text>
</a>
</g>
</g>
<!-- Node1287&#45;&gt;Node1288 -->
<g id="edge3" class="edge">
<title>Node1287&#45;&gt;Node1288</title>
<path fill="none" stroke="#191970" d="M447.2634,-163.9839C455.8956,-164.0775 464.5452,-164.1712 472.9096,-164.2619"/>
<polygon fill="#191970" stroke="#191970" points="447.1934,-160.483 437.156,-163.8743 447.1174,-167.4826 447.1934,-160.483"/>
</g>
<!-- Node1289 -->
<g id="node5" class="node">
<title>Node1289</title>
<g id="a_node5"><a xlink:href="classSimpleWeightTuner_1_1Impl.html#ac1c93ba1766ad5ada73dea7ba499d541" target="_top" xlink:title="SimpleWeightTuner::\lImpl::setTargetFiringRate">
<polygon fill="#ffffff" stroke="#000000" points="652.5,-153 652.5,-183 780.5,-183 780.5,-153 652.5,-153"/>
<text text-anchor="start" x="660.5" y="-171" font-family="Helvetica,sans-Serif" font-size="10.00" fill="#000000">SimpleWeightTuner::</text>
<text text-anchor="middle" x="716.5" y="-160" font-family="Helvetica,sans-Serif" font-size="10.00" fill="#000000">Impl::setTargetFiringRate</text>
</a>
</g>
</g>
<!-- Node1288&#45;&gt;Node1289 -->
<g id="edge4" class="edge">
<title>Node1288&#45;&gt;Node1289</title>
<path fill="none" stroke="#191970" d="M619.2301,-166.3373C630.3419,-166.5272 641.6597,-166.7207 652.4596,-166.9053"/>
<polygon fill="#191970" stroke="#191970" points="619.1625,-162.8357 609.1041,-166.1642 619.0428,-169.8347 619.1625,-162.8357"/>
</g>
<!-- Node1290 -->
<g id="node6" class="node">
<title>Node1290</title>
<g id="a_node6"><a xlink:href="classSimpleWeightTuner.html#ac1c93ba1766ad5ada73dea7ba499d541" target="_top" xlink:title="Sets up the target firing rate of a specific group. ">
<polygon fill="#ffffff" stroke="#000000" points="849,-153 849,-183 957,-183 957,-153 849,-153"/>
<text text-anchor="start" x="857" y="-171" font-family="Helvetica,sans-Serif" font-size="10.00" fill="#000000">SimpleWeightTuner::</text>
<text text-anchor="middle" x="903" y="-160" font-family="Helvetica,sans-Serif" font-size="10.00" fill="#000000">setTargetFiringRate</text>
</a>
</g>
</g>
<!-- Node1289&#45;&gt;Node1290 -->
<g id="edge5" class="edge">
<title>Node1289&#45;&gt;Node1290</title>
<path fill="none" stroke="#191970" d="M790.726,-168C810.1688,-168 830.7639,-168 848.9332,-168"/>
<polygon fill="#191970" stroke="#191970" points="790.6828,-164.5001 780.6827,-168 790.6827,-171.5001 790.6828,-164.5001"/>
</g>
<!-- Node1293 -->
<g id="node9" class="node">
<title>Node1293</title>
<g id="a_node9"><a xlink:href="classSNN.html#a876185f4e003c98fb227861e7b84fded" target="_top" xlink:title="copy required spikes from firing buffer to spike buffer ">
<polygon fill="#ffffff" stroke="#000000" points="291,-76.5 291,-95.5 422,-95.5 422,-76.5 291,-76.5"/>
<text text-anchor="middle" x="356.5" y="-83.5" font-family="Helvetica,sans-Serif" font-size="10.00" fill="#000000">SNN::updateSpikeMonitor</text>
</a>
</g>
</g>
<!-- Node1292&#45;&gt;Node1293 -->
<g id="edge8" class="edge">
<title>Node1292&#45;&gt;Node1293</title>
<path fill="none" stroke="#191970" d="M227.4779,-86C247.1177,-86 269.9346,-86 290.8714,-86"/>
<polygon fill="#191970" stroke="#191970" points="227.2259,-82.5001 217.2259,-86 227.2259,-89.5001 227.2259,-82.5001"/>
</g>
<!-- Node1294 -->
<g id="node10" class="node">
<title>Node1294</title>
<g id="a_node10"><a xlink:href="classSNN.html#a3df37c7539f784fe7a939c5da922f41b" target="_top" xlink:title="run the simulation for n sec ">
<polygon fill="#ffffff" stroke="#000000" points="493.5,-114.5 493.5,-133.5 588.5,-133.5 588.5,-114.5 493.5,-114.5"/>
<text text-anchor="middle" x="541" y="-121.5" font-family="Helvetica,sans-Serif" font-size="10.00" fill="#000000">SNN::runNetwork</text>
</a>
</g>
</g>
<!-- Node1293&#45;&gt;Node1294 -->
<g id="edge9" class="edge">
<title>Node1293&#45;&gt;Node1294</title>
<path fill="none" stroke="#191970" d="M412.8672,-97.6095C439.1074,-103.014 469.936,-109.3635 494.7776,-114.4799"/>
<polygon fill="#191970" stroke="#191970" points="413.5576,-94.1783 403.0571,-95.589 412.1455,-101.0344 413.5576,-94.1783"/>
</g>
<!-- Node1299 -->
<g id="node15" class="node">
<title>Node1299</title>
<g id="a_node15"><a xlink:href="classSpikeMonitorCore.html#ab91616c118b701c2afd9136393d1f19b" target="_top" xlink:title="starts recording AER data ">
<polygon fill="#ffffff" stroke="#000000" points="501,-76.5 501,-95.5 581,-95.5 581,-76.5 501,-76.5"/>
<text text-anchor="middle" x="541" y="-83.5" font-family="Helvetica,sans-Serif" font-size="10.00" fill="#000000">startRecording</text>
</a>
</g>
</g>
<!-- Node1293&#45;&gt;Node1299 -->
<g id="edge14" class="edge">
<title>Node1293&#45;&gt;Node1299</title>
<path fill="none" stroke="#191970" d="M432.3785,-86C455.8675,-86 480.8196,-86 500.8774,-86"/>
<polygon fill="#191970" stroke="#191970" points="432.0673,-82.5001 422.0673,-86 432.0673,-89.5001 432.0673,-82.5001"/>
</g>
<!-- Node1303 -->
<g id="node19" class="node">
<title>Node1303</title>
<g id="a_node19"><a xlink:href="classSpikeMonitorCore.html#a25e0e98dd4519eaaa6b258f0dcb91ac7" target="_top" xlink:title="stops recording AER data ">
<polygon fill="#ffffff" stroke="#000000" points="501,-38.5 501,-57.5 581,-57.5 581,-38.5 501,-38.5"/>
<text text-anchor="middle" x="541" y="-45.5" font-family="Helvetica,sans-Serif" font-size="10.00" fill="#000000">stopRecording</text>
</a>
</g>
</g>
<!-- Node1293&#45;&gt;Node1303 -->
<g id="edge20" class="edge">
<title>Node1293&#45;&gt;Node1303</title>
<path fill="none" stroke="#191970" d="M413.2222,-74.3174C441.5262,-68.4878 475.0971,-61.5735 500.7244,-56.2952"/>
<polygon fill="#191970" stroke="#191970" points="412.1455,-70.9656 403.0571,-76.411 413.5576,-77.8217 412.1455,-70.9656"/>
</g>
<!-- Node1295 -->
<g id="node11" class="node">
<title>Node1295</title>
<g id="a_node11"><a xlink:href="classCARLsim_1_1Impl.html#a749f370debe5eec8661cf9ca1b1bb4c0" target="_top" xlink:title="CARLsim::Impl::runNetwork">
<polygon fill="#ffffff" stroke="#000000" points="646.5,-114.5 646.5,-133.5 786.5,-133.5 786.5,-114.5 646.5,-114.5"/>
<text text-anchor="middle" x="716.5" y="-121.5" font-family="Helvetica,sans-Serif" font-size="10.00" fill="#000000">CARLsim::Impl::runNetwork</text>
</a>
</g>
</g>
<!-- Node1294&#45;&gt;Node1295 -->
<g id="edge10" class="edge">
<title>Node1294&#45;&gt;Node1295</title>
<path fill="none" stroke="#191970" d="M599.1514,-124C614.2193,-124 630.6061,-124 646.2234,-124"/>
<polygon fill="#191970" stroke="#191970" points="598.9562,-120.5001 588.9561,-124 598.9561,-127.5001 598.9562,-120.5001"/>
</g>
<!-- Node1296 -->
<g id="node12" class="node">
<title>Node1296</title>
<g id="a_node12"><a xlink:href="classCARLsim.html#aafb2d44405c96aafe089f96ff867018d" target="_top" xlink:title="run the simulation for time=(nSec*seconds + nMsec*milliseconds) ">
<polygon fill="#ffffff" stroke="#000000" points="845,-114.5 845,-133.5 961,-133.5 961,-114.5 845,-114.5"/>
<text text-anchor="middle" x="903" y="-121.5" font-family="Helvetica,sans-Serif" font-size="10.00" fill="#000000">CARLsim::runNetwork</text>
</a>
</g>
</g>
<!-- Node1295&#45;&gt;Node1296 -->
<g id="edge11" class="edge">
<title>Node1295&#45;&gt;Node1296</title>
<path fill="none" stroke="#191970" d="M796.7499,-124C812.9632,-124 829.7113,-124 844.9817,-124"/>
<polygon fill="#191970" stroke="#191970" points="796.7419,-120.5001 786.7419,-124 796.7419,-127.5001 796.7419,-120.5001"/>
</g>
<!-- Node1297 -->
<g id="node13" class="node">
<title>Node1297</title>
<g id="a_node13"><a xlink:href="classSimpleWeightTuner_1_1Impl.html#a312d84bfa66a5036bb52a4c39db6fa6c" target="_top" xlink:title="SimpleWeightTuner::\lImpl::iterate">
<polygon fill="#ffffff" stroke="#000000" points="1018,-52 1018,-82 1126,-82 1126,-52 1018,-52"/>
<text text-anchor="start" x="1026" y="-70" font-family="Helvetica,sans-Serif" font-size="10.00" fill="#000000">SimpleWeightTuner::</text>
<text text-anchor="middle" x="1072" y="-59" font-family="Helvetica,sans-Serif" font-size="10.00" fill="#000000">Impl::iterate</text>
</a>
</g>
</g>
<!-- Node1296&#45;&gt;Node1297 -->
<g id="edge12" class="edge">
<title>Node1296&#45;&gt;Node1297</title>
<path fill="none" stroke="#191970" d="M958.2014,-111.9467C966.2445,-109.8375 974.3787,-107.5068 982,-105 1001.6561,-98.5348 1023.0175,-89.6015 1039.9948,-82.0208"/>
<polygon fill="#191970" stroke="#191970" points="957.3129,-108.5611 948.4765,-114.4065 959.0294,-115.3474 957.3129,-108.5611"/>
</g>
<!-- Node1298 -->
<g id="node14" class="node">
<title>Node1298</title>
<g id="a_node14"><a xlink:href="classSimpleWeightTuner.html#a0df985e3ff7a27edc1e2e3fcc8261843" target="_top" xlink:title="Performs an iteration step of the tuning algorithm. ">
<polygon fill="#ffffff" stroke="#000000" points="1162,-52 1162,-82 1270,-82 1270,-52 1162,-52"/>
<text text-anchor="start" x="1170" y="-70" font-family="Helvetica,sans-Serif" font-size="10.00" fill="#000000">SimpleWeightTuner::</text>
<text text-anchor="middle" x="1216" y="-59" font-family="Helvetica,sans-Serif" font-size="10.00" fill="#000000">iterate</text>
</a>
</g>
</g>
<!-- Node1297&#45;&gt;Node1298 -->
<g id="edge13" class="edge">
<title>Node1297&#45;&gt;Node1298</title>
<path fill="none" stroke="#191970" d="M1136.2702,-67C1144.7504,-67 1153.3754,-67 1161.6672,-67"/>
<polygon fill="#191970" stroke="#191970" points="1136.03,-63.5001 1126.03,-67 1136.0299,-70.5001 1136.03,-63.5001"/>
</g>
<!-- Node1300 -->
<g id="node16" class="node">
<title>Node1300</title>
<g id="a_node16"><a xlink:href="classSpikeMonitor.html#ab91616c118b701c2afd9136393d1f19b" target="_top" xlink:title="Starts a new recording period. ">
<polygon fill="#ffffff" stroke="#000000" points="831.5,-76.5 831.5,-95.5 974.5,-95.5 974.5,-76.5 831.5,-76.5"/>
<text text-anchor="middle" x="903" y="-83.5" font-family="Helvetica,sans-Serif" font-size="10.00" fill="#000000">SpikeMonitor::startRecording</text>
</a>
</g>
</g>
<!-- Node1299&#45;&gt;Node1300 -->
<g id="edge15" class="edge">
<title>Node1299&#45;&gt;Node1300</title>
<path fill="none" stroke="#191970" d="M591.4886,-86C653.8543,-86 760.3676,-86 831.2185,-86"/>
<polygon fill="#191970" stroke="#191970" points="591.1235,-82.5001 581.1235,-86 591.1234,-89.5001 591.1235,-82.5001"/>
</g>
<!-- Node1301 -->
<g id="node17" class="node">
<title>Node1301</title>
<g id="a_node17"><a xlink:href="classSpikeMonitorCore.html#a7ac2c997b5281ea2f2bc00cc9706d37c" target="_top" xlink:title="sets status of PersistentData mode ">
<polygon fill="#ffffff" stroke="#000000" points="669,-38.5 669,-57.5 764,-57.5 764,-38.5 669,-38.5"/>
<text text-anchor="middle" x="716.5" y="-45.5" font-family="Helvetica,sans-Serif" font-size="10.00" fill="#000000">setPersistentData</text>
</a>
</g>
</g>
<!-- Node1299&#45;&gt;Node1301 -->
<g id="edge17" class="edge">
<title>Node1299&#45;&gt;Node1301</title>
<path fill="none" stroke="#191970" d="M591.1662,-75.1378C616.8016,-69.5871 647.7135,-62.8939 672.4237,-57.5436"/>
<polygon fill="#191970" stroke="#191970" points="590.2961,-71.745 581.2632,-77.282 591.7775,-78.5865 590.2961,-71.745"/>
</g>
<!-- Node1300&#45;&gt;Node1297 -->
<g id="edge16" class="edge">
<title>Node1300&#45;&gt;Node1297</title>
<path fill="none" stroke="#191970" d="M984.9175,-76.7903C996.1178,-75.5311 1007.3786,-74.2651 1017.9118,-73.0809"/>
<polygon fill="#191970" stroke="#191970" points="984.2176,-73.3469 974.6712,-77.9423 984.9997,-80.3031 984.2176,-73.3469"/>
</g>
<!-- Node1302 -->
<g id="node18" class="node">
<title>Node1302</title>
<g id="a_node18"><a xlink:href="classSpikeMonitor.html#a7ac2c997b5281ea2f2bc00cc9706d37c" target="_top" xlink:title="Sets PersistentMode either on (true) or off (false) ">
<polygon fill="#ffffff" stroke="#000000" points="824,-38.5 824,-57.5 982,-57.5 982,-38.5 824,-38.5"/>
<text text-anchor="middle" x="903" y="-45.5" font-family="Helvetica,sans-Serif" font-size="10.00" fill="#000000">SpikeMonitor::setPersistentData</text>
</a>
</g>
</g>
<!-- Node1301&#45;&gt;Node1302 -->
<g id="edge18" class="edge">
<title>Node1301&#45;&gt;Node1302</title>
<path fill="none" stroke="#191970" d="M774.0916,-48C789.7623,-48 807.0148,-48 823.6621,-48"/>
<polygon fill="#191970" stroke="#191970" points="774.0444,-44.5001 764.0444,-48 774.0443,-51.5001 774.0444,-44.5001"/>
</g>
<!-- Node1302&#45;&gt;Node1297 -->
<g id="edge19" class="edge">
<title>Node1302&#45;&gt;Node1297</title>
<path fill="none" stroke="#191970" d="M992.218,-58.0304C1000.8663,-59.0027 1009.4485,-59.9676 1017.6007,-60.8841"/>
<polygon fill="#191970" stroke="#191970" points="992.3855,-54.5273 982.0571,-56.8881 991.6034,-61.4835 992.3855,-54.5273"/>
</g>
<!-- Node1303&#45;&gt;Node1301 -->
<g id="edge23" class="edge">
<title>Node1303&#45;&gt;Node1301</title>
<path fill="none" stroke="#191970" d="M591.4017,-48C615.8018,-48 644.9384,-48 668.9511,-48"/>
<polygon fill="#191970" stroke="#191970" points="591.2633,-44.5001 581.2632,-48 591.2632,-51.5001 591.2633,-44.5001"/>
</g>
<!-- Node1304 -->
<g id="node20" class="node">
<title>Node1304</title>
<g id="a_node20"><a xlink:href="classSpikeMonitor.html#a25e0e98dd4519eaaa6b258f0dcb91ac7" target="_top" xlink:title="Ends a recording period. ">
<polygon fill="#ffffff" stroke="#000000" points="645,-.5 645,-19.5 788,-19.5 788,-.5 645,-.5"/>
<text text-anchor="middle" x="716.5" y="-7.5" font-family="Helvetica,sans-Serif" font-size="10.00" fill="#000000">SpikeMonitor::stopRecording</text>
</a>
</g>
</g>
<!-- Node1303&#45;&gt;Node1304 -->
<g id="edge21" class="edge">
<title>Node1303&#45;&gt;Node1304</title>
<path fill="none" stroke="#191970" d="M591.1662,-37.1378C616.8016,-31.5871 647.7135,-24.8939 672.4237,-19.5436"/>
<polygon fill="#191970" stroke="#191970" points="590.2961,-33.745 581.2632,-39.282 591.7775,-40.5865 590.2961,-33.745"/>
</g>
<!-- Node1304&#45;&gt;Node1297 -->
<g id="edge22" class="edge">
<title>Node1304&#45;&gt;Node1297</title>
<path fill="none" stroke="#191970" d="M798.2136,-8.9759C851.2624,-9.9854 921.5262,-14.4905 982,-29 1003.2754,-34.1046 1025.9622,-43.7137 1043.2356,-51.9915"/>
<polygon fill="#191970" stroke="#191970" points="798.2308,-5.4759 788.1785,-8.8225 798.1238,-12.475 798.2308,-5.4759"/>
</g>
</g>
</svg>
