<?xml version="1.0" encoding="UTF-8" standalone="no"?>
<!DOCTYPE svg PUBLIC "-//W3C//DTD SVG 1.1//EN"
 "http://www.w3.org/Graphics/SVG/1.1/DTD/svg11.dtd">
<!-- Generated by graphviz version 2.40.1 (20161225.0304)
 -->
<!-- Title: getRecordingStopTime Pages: 1 -->
<svg width="510pt" height="116pt"
 viewBox="0.00 0.00 510.00 115.50" xmlns="http://www.w3.org/2000/svg" xmlns:xlink="http://www.w3.org/1999/xlink">
<g id="graph0" class="graph" transform="scale(1 1) rotate(0) translate(4 111.5)">
<title>getRecordingStopTime</title>
<polygon fill="#ffffff" stroke="transparent" points="-4,4 -4,-111.5 506,-111.5 506,4 -4,4"/>
<!-- Node43 -->
<g id="node1" class="node">
<title>Node43</title>
<polygon fill="#bfbfbf" stroke="#000000" points="0,-50 0,-69 116,-69 116,-50 0,-50"/>
<text text-anchor="middle" x="58" y="-57" font-family="Helvetica,sans-Serif" font-size="10.00" fill="#000000">getRecordingStopTime</text>
</g>
<!-- Node44 -->
<g id="node2" class="node">
<title>Node44</title>
<g id="a_node2"><a xlink:href="classUserErrors.html#a4bbedc6c0817d5e59e74e450bf00472c" target="_top" xlink:title="simple wrapper for assert statement ">
<polygon fill="#ffffff" stroke="#000000" points="174,-88 174,-107 290,-107 290,-88 174,-88"/>
<text text-anchor="middle" x="232" y="-95" font-family="Helvetica,sans-Serif" font-size="10.00" fill="#000000">UserErrors::assertTrue</text>
</a>
</g>
</g>
<!-- Node43&#45;&gt;Node44 -->
<g id="edge1" class="edge">
<title>Node43&#45;&gt;Node44</title>
<path fill="none" stroke="#191970" d="M101.9075,-69.089C125.179,-74.1713 153.9538,-80.4554 178.5195,-85.8203"/>
<polygon fill="#191970" stroke="#191970" points="177.8917,-89.2657 188.4082,-87.9799 179.3852,-82.4268 177.8917,-89.2657"/>
</g>
<!-- Node45 -->
<g id="node3" class="node">
<title>Node45</title>
<g id="a_node3"><a xlink:href="classGroupMonitor.html#a3a3ffdb35b09328d22e5d72503ed1f55" target="_top" xlink:title="Recording status (true=recording, false=not recording) ">
<polygon fill="#ffffff" stroke="#000000" points="198,-50 198,-69 266,-69 266,-50 198,-50"/>
<text text-anchor="middle" x="232" y="-57" font-family="Helvetica,sans-Serif" font-size="10.00" fill="#000000">isRecording</text>
</a>
</g>
</g>
<!-- Node43&#45;&gt;Node45 -->
<g id="edge2" class="edge">
<title>Node43&#45;&gt;Node45</title>
<path fill="none" stroke="#191970" d="M116.4235,-59.5C139.6709,-59.5 165.9807,-59.5 187.6191,-59.5"/>
<polygon fill="#191970" stroke="#191970" points="187.8325,-63.0001 197.8324,-59.5 187.8324,-56.0001 187.8325,-63.0001"/>
</g>
<!-- Node47 -->
<g id="node5" class="node">
<title>Node47</title>
<g id="a_node5"><a xlink:href="classGroupMonitorCore.html#a219899d7deb62081f61a2f59e1bbcad8" target="_top" xlink:title="returns the timestamp of stopRecording ">
<polygon fill="#ffffff" stroke="#000000" points="152,-.5 152,-30.5 312,-30.5 312,-.5 152,-.5"/>
<text text-anchor="start" x="160" y="-18.5" font-family="Helvetica,sans-Serif" font-size="10.00" fill="#000000">GroupMonitorCore::getRecording</text>
<text text-anchor="middle" x="232" y="-7.5" font-family="Helvetica,sans-Serif" font-size="10.00" fill="#000000">StopTime</text>
</a>
</g>
</g>
<!-- Node43&#45;&gt;Node47 -->
<g id="edge4" class="edge">
<title>Node43&#45;&gt;Node47</title>
<path fill="none" stroke="#191970" d="M95.7554,-49.9527C115.2583,-45.0209 139.6841,-38.8442 162.4479,-33.0879"/>
<polygon fill="#191970" stroke="#191970" points="163.5866,-36.4102 172.4233,-30.5654 161.8704,-29.6238 163.5866,-36.4102"/>
</g>
<!-- Node46 -->
<g id="node4" class="node">
<title>Node46</title>
<g id="a_node4"><a xlink:href="classGroupMonitorCore.html#a3a3ffdb35b09328d22e5d72503ed1f55" target="_top" xlink:title="returns recording status ">
<polygon fill="#ffffff" stroke="#000000" points="348,-50 348,-69 502,-69 502,-50 348,-50"/>
<text text-anchor="middle" x="425" y="-57" font-family="Helvetica,sans-Serif" font-size="10.00" fill="#000000">GroupMonitorCore::isRecording</text>
</a>
</g>
</g>
<!-- Node45&#45;&gt;Node46 -->
<g id="edge3" class="edge">
<title>Node45&#45;&gt;Node46</title>
<path fill="none" stroke="#191970" d="M266.0603,-59.5C286.0269,-59.5 312.2435,-59.5 337.6126,-59.5"/>
<polygon fill="#191970" stroke="#191970" points="337.6539,-63.0001 347.6539,-59.5 337.6538,-56.0001 337.6539,-63.0001"/>
</g>
</g>
</svg>
