<?xml version="1.0" encoding="UTF-8" standalone="no"?>
<!DOCTYPE svg PUBLIC "-//W3C//DTD SVG 1.1//EN"
 "http://www.w3.org/Graphics/SVG/1.1/DTD/svg11.dtd">
<!-- Generated by graphviz version 2.40.1 (20161225.0304)
 -->
<!-- Title: getTimeMsSinceLastSnapshot Pages: 1 -->
<!--zoomable 105 -->
<svg id="main" version="1.1" xmlns="http://www.w3.org/2000/svg" xmlns:xlink="http://www.w3.org/1999/xlink" xml:space="preserve" onload="init(evt)">
<style type="text/css"><![CDATA[
.edge:hover path { stroke: red; }
.edge:hover polygon { stroke: red; fill: red; }
]]></style>
<script type="text/javascript"><![CDATA[
var edges = document.getElementsByTagName('g');
if (edges && edges.length) {
  for (var i=0;i<edges.length;i++) {
    if (edges[i].id.substr(0,4)=='edge') {
      edges[i].setAttribute('class','edge');
    }
  }
}
]]></script>
        <defs>
                <circle id="rim" cx="0" cy="0" r="7"/>
                <circle id="rim2" cx="0" cy="0" r="3.5"/>
                <g id="zoomPlus">
                        <use xlink:href="#rim" fill="#404040">
                                <set attributeName="fill" to="#808080" begin="zoomplus.mouseover" end="zoomplus.mouseout"/>
                        </use>
                        <path d="M-4,0h8M0,-4v8" fill="none" stroke="white" stroke-width="1.5" pointer-events="none"/>
                </g>
                <g id="zoomMin">
                        <use xlink:href="#rim" fill="#404040">
                                <set attributeName="fill" to="#808080" begin="zoomminus.mouseover" end="zoomminus.mouseout"/>
                        </use>
                        <path d="M-4,0h8" fill="none" stroke="white" stroke-width="1.5" pointer-events="none"/>
                </g>
                <g id="dirArrow">
                        <path fill="none" stroke="white" stroke-width="1.5" d="M0,-3.0v7 M-2.5,-0.5L0,-3.0L2.5,-0.5"/>
                </g>
               <g id="resetDef">
                       <use xlink:href="#rim2" fill="#404040">
                               <set attributeName="fill" to="#808080" begin="reset.mouseover" end="reset.mouseout"/>
                       </use>
               </g>
        </defs>

<script type="text/javascript">
var viewWidth = 1451;
var viewHeight = 105;
var sectionId = 'dynsection-22';
</script>
<script xlink:href="svgpan.js"/>
<svg id="graph" class="graph">
<g id="viewport">
<title>getTimeMsSinceLastSnapshot</title>
<polygon fill="#ffffff" stroke="transparent" points="-4,4 -4,-101 1447,-101 1447,4 -4,4"/>
<!-- Node177 -->
<g id="node1" class="node">
<title>Node177</title>
<polygon fill="#bfbfbf" stroke="#000000" points="0,-50 0,-69 150,-69 150,-50 0,-50"/>
<text text-anchor="middle" x="75" y="-57" font-family="Helvetica,sans-Serif" font-size="10.00" fill="#000000">getTimeMsSinceLastSnapshot</text>
</g>
<!-- Node178 -->
<g id="node2" class="node">
<title>Node178</title>
<g id="a_node2"><a xlink:href="classConnectionMonitor.html#a17077ba6a308bcd6bef84e186594f470" target="_top" xlink:title="Returns the timestamp difference of the current and last snapshot. ">
<polygon fill="#ffffff" stroke="#000000" points="186,-66.5 186,-96.5 336,-96.5 336,-66.5 186,-66.5"/>
<text text-anchor="start" x="194" y="-84.5" font-family="Helvetica,sans-Serif" font-size="10.00" fill="#000000">ConnectionMonitor::</text>
<text text-anchor="middle" x="261" y="-73.5" font-family="Helvetica,sans-Serif" font-size="10.00" fill="#000000">getTimeMsSinceLastSnapshot</text>
</a>
</g>
</g>
<!-- Node177&#45;&gt;Node178 -->
<g id="edge1" class="edge">
<title>Node177&#45;&gt;Node178</title>
<path fill="none" stroke="#191970" d="M160.1473,-69.5712C168.7419,-70.5877 177.4265,-71.615 185.9048,-72.6178"/>
<polygon fill="#191970" stroke="#191970" points="160.4591,-66.0838 150.1172,-68.3848 159.6368,-73.0353 160.4591,-66.0838"/>
</g>
<!-- Node179 -->
<g id="node3" class="node">
<title>Node179</title>
<g id="a_node3"><a xlink:href="classConnectionMonitorCore.html#ab4eedda550b6dfb0be0456a30830f067" target="_top" xlink:title="printSparse">
<polygon fill="#ffffff" stroke="#000000" points="228,-28 228,-47 294,-47 294,-28 228,-28"/>
<text text-anchor="middle" x="261" y="-35" font-family="Helvetica,sans-Serif" font-size="10.00" fill="#000000">printSparse</text>
</a>
</g>
</g>
<!-- Node177&#45;&gt;Node179 -->
<g id="edge2" class="edge">
<title>Node177&#45;&gt;Node179</title>
<path fill="none" stroke="#191970" d="M160.3294,-49.4073C184.2992,-46.5721 208.9534,-43.6561 227.8642,-41.4193"/>
<polygon fill="#191970" stroke="#191970" points="159.6368,-45.9647 150.1172,-50.6152 160.4591,-52.9162 159.6368,-45.9647"/>
</g>
<!-- Node180 -->
<g id="node4" class="node">
<title>Node180</title>
<g id="a_node4"><a xlink:href="classConnectionMonitor.html#a71dc2d0a7970622052e156ca863f4216" target="_top" xlink:title="Prints the current weight state as a sparse list of weights. ">
<polygon fill="#ffffff" stroke="#000000" points="386.5,-44.5 386.5,-74.5 490.5,-74.5 490.5,-44.5 386.5,-44.5"/>
<text text-anchor="start" x="394.5" y="-62.5" font-family="Helvetica,sans-Serif" font-size="10.00" fill="#000000">ConnectionMonitor::</text>
<text text-anchor="middle" x="438.5" y="-51.5" font-family="Helvetica,sans-Serif" font-size="10.00" fill="#000000">printSparse</text>
</a>
</g>
</g>
<!-- Node179&#45;&gt;Node180 -->
<g id="edge3" class="edge">
<title>Node179&#45;&gt;Node180</title>
<path fill="none" stroke="#191970" d="M304.5603,-42.899C329.2897,-45.9641 360.4034,-49.8204 386.4173,-53.0447"/>
<polygon fill="#191970" stroke="#191970" points="304.741,-39.3947 294.3864,-41.638 303.8799,-46.3416 304.741,-39.3947"/>
</g>
<!-- Node181 -->
<g id="node5" class="node">
<title>Node181</title>
<g id="a_node5"><a xlink:href="classConnectionMonitorCore.html#acf625cff31a558c7d6786773d0c2693c" target="_top" xlink:title="getUpdateTimeIntervalSec">
<polygon fill="#ffffff" stroke="#000000" points="372,-6 372,-25 505,-25 505,-6 372,-6"/>
<text text-anchor="middle" x="438.5" y="-13" font-family="Helvetica,sans-Serif" font-size="10.00" fill="#000000">getUpdateTimeIntervalSec</text>
</a>
</g>
</g>
<!-- Node179&#45;&gt;Node181 -->
<g id="edge4" class="edge">
<title>Node179&#45;&gt;Node181</title>
<path fill="none" stroke="#191970" d="M304.5475,-32.1026C324.788,-29.5939 349.3076,-26.5548 371.8078,-23.7661"/>
<polygon fill="#191970" stroke="#191970" points="303.8799,-28.6584 294.3864,-33.362 304.741,-35.6053 303.8799,-28.6584"/>
</g>
<!-- Node182 -->
<g id="node6" class="node">
<title>Node182</title>
<g id="a_node6"><a xlink:href="classSNN.html#a68862cb4e6c749219c20c38aeab06986" target="_top" xlink:title="polls connection weights ">
<polygon fill="#ffffff" stroke="#000000" points="541,-6 541,-25 696,-25 696,-6 541,-6"/>
<text text-anchor="middle" x="618.5" y="-13" font-family="Helvetica,sans-Serif" font-size="10.00" fill="#000000">SNN::updateConnectionMonitor</text>
</a>
</g>
</g>
<!-- Node181&#45;&gt;Node182 -->
<g id="edge5" class="edge">
<title>Node181&#45;&gt;Node182</title>
<path fill="none" stroke="#191970" d="M515.2083,-15.5C523.6475,-15.5 532.2461,-15.5 540.6984,-15.5"/>
<polygon fill="#191970" stroke="#191970" points="515.014,-12.0001 505.0139,-15.5 515.0139,-19.0001 515.014,-12.0001"/>
</g>
<!-- Node183 -->
<g id="node7" class="node">
<title>Node183</title>
<g id="a_node7"><a xlink:href="classSNN.html#a3df37c7539f784fe7a939c5da922f41b" target="_top" xlink:title="run the simulation for n sec ">
<polygon fill="#ffffff" stroke="#000000" points="732,-6 732,-25 827,-25 827,-6 732,-6"/>
<text text-anchor="middle" x="779.5" y="-13" font-family="Helvetica,sans-Serif" font-size="10.00" fill="#000000">SNN::runNetwork</text>
</a>
</g>
</g>
<!-- Node182&#45;&gt;Node183 -->
<g id="edge6" class="edge">
<title>Node182&#45;&gt;Node183</title>
<path fill="none" stroke="#191970" d="M706.1932,-15.5C715.0469,-15.5 723.7837,-15.5 731.9704,-15.5"/>
<polygon fill="#191970" stroke="#191970" points="706.1705,-12.0001 696.1704,-15.5 706.1704,-19.0001 706.1705,-12.0001"/>
</g>
<!-- Node184 -->
<g id="node8" class="node">
<title>Node184</title>
<g id="a_node8"><a xlink:href="classCARLsim_1_1Impl.html#a749f370debe5eec8661cf9ca1b1bb4c0" target="_top" xlink:title="CARLsim::Impl::runNetwork">
<polygon fill="#ffffff" stroke="#000000" points="863,-6 863,-25 1003,-25 1003,-6 863,-6"/>
<text text-anchor="middle" x="933" y="-13" font-family="Helvetica,sans-Serif" font-size="10.00" fill="#000000">CARLsim::Impl::runNetwork</text>
</a>
</g>
</g>
<!-- Node183&#45;&gt;Node184 -->
<g id="edge7" class="edge">
<title>Node183&#45;&gt;Node184</title>
<path fill="none" stroke="#191970" d="M837.4873,-15.5C845.7425,-15.5 854.3063,-15.5 862.7638,-15.5"/>
<polygon fill="#191970" stroke="#191970" points="837.227,-12.0001 827.2269,-15.5 837.2269,-19.0001 837.227,-12.0001"/>
</g>
<!-- Node185 -->
<g id="node9" class="node">
<title>Node185</title>
<g id="a_node9"><a xlink:href="classCARLsim.html#aafb2d44405c96aafe089f96ff867018d" target="_top" xlink:title="run the simulation for time=(nSec*seconds + nMsec*milliseconds) ">
<polygon fill="#ffffff" stroke="#000000" points="1039,-6 1039,-25 1155,-25 1155,-6 1039,-6"/>
<text text-anchor="middle" x="1097" y="-13" font-family="Helvetica,sans-Serif" font-size="10.00" fill="#000000">CARLsim::runNetwork</text>
</a>
</g>
</g>
<!-- Node184&#45;&gt;Node185 -->
<g id="edge8" class="edge">
<title>Node184&#45;&gt;Node185</title>
<path fill="none" stroke="#191970" d="M1013.1489,-15.5C1021.8022,-15.5 1030.483,-15.5 1038.8055,-15.5"/>
<polygon fill="#191970" stroke="#191970" points="1013.0265,-12.0001 1003.0265,-15.5 1013.0264,-19.0001 1013.0265,-12.0001"/>
</g>
<!-- Node186 -->
<g id="node10" class="node">
<title>Node186</title>
<g id="a_node10"><a xlink:href="classSimpleWeightTuner_1_1Impl.html#a312d84bfa66a5036bb52a4c39db6fa6c" target="_top" xlink:title="SimpleWeightTuner::\lImpl::iterate">
<polygon fill="#ffffff" stroke="#000000" points="1191,-.5 1191,-30.5 1299,-30.5 1299,-.5 1191,-.5"/>
<text text-anchor="start" x="1199" y="-18.5" font-family="Helvetica,sans-Serif" font-size="10.00" fill="#000000">SimpleWeightTuner::</text>
<text text-anchor="middle" x="1245" y="-7.5" font-family="Helvetica,sans-Serif" font-size="10.00" fill="#000000">Impl::iterate</text>
</a>
</g>
</g>
<!-- Node185&#45;&gt;Node186 -->
<g id="edge9" class="edge">
<title>Node185&#45;&gt;Node186</title>
<path fill="none" stroke="#191970" d="M1165.1513,-15.5C1173.8066,-15.5 1182.5692,-15.5 1190.9617,-15.5"/>
<polygon fill="#191970" stroke="#191970" points="1165.0688,-12.0001 1155.0687,-15.5 1165.0687,-19.0001 1165.0688,-12.0001"/>
</g>
<!-- Node187 -->
<g id="node11" class="node">
<title>Node187</title>
<g id="a_node11"><a xlink:href="classSimpleWeightTuner.html#a0df985e3ff7a27edc1e2e3fcc8261843" target="_top" xlink:title="Performs an iteration step of the tuning algorithm. ">
<polygon fill="#ffffff" stroke="#000000" points="1335,-.5 1335,-30.5 1443,-30.5 1443,-.5 1335,-.5"/>
<text text-anchor="start" x="1343" y="-18.5" font-family="Helvetica,sans-Serif" font-size="10.00" fill="#000000">SimpleWeightTuner::</text>
<text text-anchor="middle" x="1389" y="-7.5" font-family="Helvetica,sans-Serif" font-size="10.00" fill="#000000">iterate</text>
</a>
</g>
</g>
<!-- Node186&#45;&gt;Node187 -->
<g id="edge10" class="edge">
<title>Node186&#45;&gt;Node187</title>
<path fill="none" stroke="#191970" d="M1309.2702,-15.5C1317.7504,-15.5 1326.3754,-15.5 1334.6672,-15.5"/>
<polygon fill="#191970" stroke="#191970" points="1309.03,-12.0001 1299.03,-15.5 1309.0299,-19.0001 1309.03,-12.0001"/>
</g>
</g>
</svg>
        <g id="navigator" transform="translate(0 0)" fill="#404254">
                <rect fill="#f2f5e9" fill-opacity="0.5" stroke="#606060" stroke-width=".5" x="0" y="0" width="60" height="60"/>
                <use id="zoomplus" xlink:href="#zoomPlus" x="17" y="9" onmousedown="handleZoom(evt,'in')"/>
                <use id="zoomminus" xlink:href="#zoomMin" x="42" y="9" onmousedown="handleZoom(evt,'out')"/>
                <use id="reset" xlink:href="#resetDef" x="30" y="36" onmousedown="handleReset()"/>
                <g id="arrowUp" xlink:href="#dirArrow" transform="translate(30 24)" onmousedown="handlePan(0,-1)">
                  <use xlink:href="#rim" fill="#404040">
                        <set attributeName="fill" to="#808080" begin="arrowUp.mouseover" end="arrowUp.mouseout"/>
                  </use>
                  <path fill="none" stroke="white" stroke-width="1.5" d="M0,-3.0v7 M-2.5,-0.5L0,-3.0L2.5,-0.5"/>
                </g>
                <g id="arrowRight" xlink:href="#dirArrow" transform="rotate(90) translate(36 -43)" onmousedown="handlePan(1,0)">
                  <use xlink:href="#rim" fill="#404040">
                        <set attributeName="fill" to="#808080" begin="arrowRight.mouseover" end="arrowRight.mouseout"/>
                  </use>
                  <path fill="none" stroke="white" stroke-width="1.5" d="M0,-3.0v7 M-2.5,-0.5L0,-3.0L2.5,-0.5"/>
                </g>
                <g id="arrowDown" xlink:href="#dirArrow" transform="rotate(180) translate(-30 -48)" onmousedown="handlePan(0,1)">
                  <use xlink:href="#rim" fill="#404040">
                        <set attributeName="fill" to="#808080" begin="arrowDown.mouseover" end="arrowDown.mouseout"/>
                  </use>
                  <path fill="none" stroke="white" stroke-width="1.5" d="M0,-3.0v7 M-2.5,-0.5L0,-3.0L2.5,-0.5"/>
                </g>
                <g id="arrowLeft" xlink:href="#dirArrow" transform="rotate(270) translate(-36 17)" onmousedown="handlePan(-1,0)">
                  <use xlink:href="#rim" fill="#404040">
                        <set attributeName="fill" to="#808080" begin="arrowLeft.mouseover" end="arrowLeft.mouseout"/>
                  </use>
                  <path fill="none" stroke="white" stroke-width="1.5" d="M0,-3.0v7 M-2.5,-0.5L0,-3.0L2.5,-0.5"/>
                </g>
        </g>
        <svg viewBox="0 0 15 15" width="100%" height="30px" preserveAspectRatio="xMaxYMin meet">
         <g id="arrow_out" transform="scale(0.3 0.3)">
          <a xlink:href="classConnectionMonitorCore_a17077ba6a308bcd6bef84e186594f470_icgraph_org.svg" target="_base">
           <rect id="button" ry="5" rx="5" y="6" x="6" height="38" width="38"
                fill="#f2f5e9" fill-opacity="0.5" stroke="#606060" stroke-width="1.0"/>
           <path id="arrow"
             d="M 11.500037,31.436501 C 11.940474,20.09759 22.043105,11.32322 32.158766,21.979434 L 37.068811,17.246167 C 37.068811,17.246167 37.088388,32 37.088388,32 L 22.160133,31.978069 C 22.160133,31.978069 26.997745,27.140456 26.997745,27.140456 C 18.528582,18.264221 13.291696,25.230495 11.500037,31.436501 z"
             style="fill:#404040;"/>
          </a>
         </g>
        </svg>
</svg>
