<?xml version="1.0" encoding="UTF-8" standalone="no"?>
<!DOCTYPE svg PUBLIC "-//W3C//DTD SVG 1.1//EN"
 "http://www.w3.org/Graphics/SVG/1.1/DTD/svg11.dtd">
<!-- Generated by graphviz version 2.40.1 (20161225.0304)
 -->
<!-- Title: stopRecording Pages: 1 -->
<!--zoomable 447 -->
<svg id="main" version="1.1" xmlns="http://www.w3.org/2000/svg" xmlns:xlink="http://www.w3.org/1999/xlink" xml:space="preserve" onload="init(evt)">
<style type="text/css"><![CDATA[
.edge:hover path { stroke: red; }
.edge:hover polygon { stroke: red; fill: red; }
]]></style>
<script type="text/javascript"><![CDATA[
var edges = document.getElementsByTagName('g');
if (edges && edges.length) {
  for (var i=0;i<edges.length;i++) {
    if (edges[i].id.substr(0,4)=='edge') {
      edges[i].setAttribute('class','edge');
    }
  }
}
]]></script>
        <defs>
                <circle id="rim" cx="0" cy="0" r="7"/>
                <circle id="rim2" cx="0" cy="0" r="3.5"/>
                <g id="zoomPlus">
                        <use xlink:href="#rim" fill="#404040">
                                <set attributeName="fill" to="#808080" begin="zoomplus.mouseover" end="zoomplus.mouseout"/>
                        </use>
                        <path d="M-4,0h8M0,-4v8" fill="none" stroke="white" stroke-width="1.5" pointer-events="none"/>
                </g>
                <g id="zoomMin">
                        <use xlink:href="#rim" fill="#404040">
                                <set attributeName="fill" to="#808080" begin="zoomminus.mouseover" end="zoomminus.mouseout"/>
                        </use>
                        <path d="M-4,0h8" fill="none" stroke="white" stroke-width="1.5" pointer-events="none"/>
                </g>
                <g id="dirArrow">
                        <path fill="none" stroke="white" stroke-width="1.5" d="M0,-3.0v7 M-2.5,-0.5L0,-3.0L2.5,-0.5"/>
                </g>
               <g id="resetDef">
                       <use xlink:href="#rim2" fill="#404040">
                               <set attributeName="fill" to="#808080" begin="reset.mouseover" end="reset.mouseout"/>
                       </use>
               </g>
        </defs>

<script type="text/javascript">
var viewWidth = 1179;
var viewHeight = 447;
var sectionId = 'dynsection-12';
</script>
<script xlink:href="svgpan.js"/>
<svg id="graph" class="graph">
<g id="viewport">
<title>stopRecording</title>
<polygon fill="#ffffff" stroke="transparent" points="-4,4 -4,-442.5 1175,-442.5 1175,4 -4,4"/>
<!-- Node270 -->
<g id="node1" class="node">
<title>Node270</title>
<polygon fill="#bfbfbf" stroke="#000000" points="0,-215.5 0,-234.5 80,-234.5 80,-215.5 0,-215.5"/>
<text text-anchor="middle" x="40" y="-222.5" font-family="Helvetica,sans-Serif" font-size="10.00" fill="#000000">stopRecording</text>
</g>
<!-- Node271 -->
<g id="node2" class="node">
<title>Node271</title>
<g id="a_node2"><a xlink:href="classUserErrors.html#a4bbedc6c0817d5e59e74e450bf00472c" target="_top" xlink:title="simple wrapper for assert statement ">
<polygon fill="#ffffff" stroke="#000000" points="116,-253.5 116,-272.5 232,-272.5 232,-253.5 116,-253.5"/>
<text text-anchor="middle" x="174" y="-260.5" font-family="Helvetica,sans-Serif" font-size="10.00" fill="#000000">UserErrors::assertTrue</text>
</a>
</g>
</g>
<!-- Node270&#45;&gt;Node271 -->
<g id="edge1" class="edge">
<title>Node270&#45;&gt;Node271</title>
<path fill="none" stroke="#191970" d="M73.8139,-234.589C91.0326,-239.4719 112.1637,-245.4643 130.5733,-250.685"/>
<polygon fill="#191970" stroke="#191970" points="129.6214,-254.053 140.197,-253.4141 131.5312,-247.3185 129.6214,-254.053"/>
</g>
<!-- Node272 -->
<g id="node3" class="node">
<title>Node272</title>
<g id="a_node3"><a xlink:href="classNeuronMonitor.html#a3a3ffdb35b09328d22e5d72503ed1f55" target="_top" xlink:title="isRecording">
<polygon fill="#ffffff" stroke="#000000" points="140,-215.5 140,-234.5 208,-234.5 208,-215.5 140,-215.5"/>
<text text-anchor="middle" x="174" y="-222.5" font-family="Helvetica,sans-Serif" font-size="10.00" fill="#000000">isRecording</text>
</a>
</g>
</g>
<!-- Node270&#45;&gt;Node272 -->
<g id="edge2" class="edge">
<title>Node270&#45;&gt;Node272</title>
<path fill="none" stroke="#191970" d="M80.2044,-225C95.7611,-225 113.6254,-225 129.5615,-225"/>
<polygon fill="#191970" stroke="#191970" points="129.7119,-228.5001 139.7119,-225 129.7118,-221.5001 129.7119,-228.5001"/>
</g>
<!-- Node295 -->
<g id="node26" class="node">
<title>Node295</title>
<g id="a_node26"><a xlink:href="classNeuronMonitorCore.html#a25e0e98dd4519eaaa6b258f0dcb91ac7" target="_top" xlink:title="stops recording Neuron state ">
<polygon fill="#ffffff" stroke="#000000" points="411,-121 411,-151 518,-151 518,-121 411,-121"/>
<text text-anchor="start" x="419" y="-139" font-family="Helvetica,sans-Serif" font-size="10.00" fill="#000000">NeuronMonitorCore::</text>
<text text-anchor="middle" x="464.5" y="-128" font-family="Helvetica,sans-Serif" font-size="10.00" fill="#000000">stopRecording</text>
</a>
</g>
</g>
<!-- Node270&#45;&gt;Node295 -->
<g id="edge46" class="edge">
<title>Node270&#45;&gt;Node295</title>
<path fill="none" stroke="#191970" d="M76.6408,-215.4719C89.1018,-212.3297 103.1301,-208.8996 116,-206 215.1254,-183.6669 330.9058,-161.1049 400.9117,-147.847"/>
<polygon fill="#191970" stroke="#191970" points="401.7246,-151.2554 410.9009,-145.9596 400.4249,-144.3771 401.7246,-151.2554"/>
</g>
<!-- Node273 -->
<g id="node4" class="node">
<title>Node273</title>
<g id="a_node4"><a xlink:href="classNeuronMonitorCore.html#a3a3ffdb35b09328d22e5d72503ed1f55" target="_top" xlink:title="returns recording status ">
<polygon fill="#ffffff" stroke="#000000" points="268,-261 268,-291 375,-291 375,-261 268,-261"/>
<text text-anchor="start" x="276" y="-279" font-family="Helvetica,sans-Serif" font-size="10.00" fill="#000000">NeuronMonitorCore::</text>
<text text-anchor="middle" x="321.5" y="-268" font-family="Helvetica,sans-Serif" font-size="10.00" fill="#000000">isRecording</text>
</a>
</g>
</g>
<!-- Node272&#45;&gt;Node273 -->
<g id="edge3" class="edge">
<title>Node272&#45;&gt;Node273</title>
<path fill="none" stroke="#191970" d="M203.5572,-234.5132C212.6931,-237.4992 222.7776,-240.8414 232,-244 244.5646,-248.3033 258.0752,-253.0637 270.695,-257.5685"/>
<polygon fill="#191970" stroke="#191970" points="269.5469,-260.8749 280.1414,-260.9517 271.9071,-254.2848 269.5469,-260.8749"/>
</g>
<!-- Node274 -->
<g id="node5" class="node">
<title>Node274</title>
<g id="a_node5"><a xlink:href="classNeuronMonitorCore.html#a743a4ad47ef60bc593cc9882bd4ffb57" target="_top" xlink:title="inserts a (time,neurId) tupel into the D Neuron State vector ">
<polygon fill="#ffffff" stroke="#000000" points="730.5,-320 730.5,-350 837.5,-350 837.5,-320 730.5,-320"/>
<text text-anchor="start" x="738.5" y="-338" font-family="Helvetica,sans-Serif" font-size="10.00" fill="#000000">NeuronMonitorCore::</text>
<text text-anchor="middle" x="784" y="-327" font-family="Helvetica,sans-Serif" font-size="10.00" fill="#000000">pushNeuronState</text>
</a>
</g>
</g>
<!-- Node273&#45;&gt;Node274 -->
<g id="edge4" class="edge">
<title>Node273&#45;&gt;Node274</title>
<path fill="none" stroke="#191970" d="M375.1585,-282.4487C386.8959,-285.1578 399.3071,-287.9461 411,-290 518.5562,-308.8925 645.4272,-318.4871 720.0436,-325.3916"/>
<polygon fill="#191970" stroke="#191970" points="719.9342,-328.8967 730.218,-326.3487 720.5898,-321.9274 719.9342,-328.8967"/>
</g>
<!-- Node275 -->
<g id="node6" class="node">
<title>Node275</title>
<g id="a_node6"><a xlink:href="classNeuronMonitorCore.html#ab91616c118b701c2afd9136393d1f19b" target="_top" xlink:title="starts recording Neuron state ">
<polygon fill="#ffffff" stroke="#000000" points="411,-170 411,-200 518,-200 518,-170 411,-170"/>
<text text-anchor="start" x="419" y="-188" font-family="Helvetica,sans-Serif" font-size="10.00" fill="#000000">NeuronMonitorCore::</text>
<text text-anchor="middle" x="464.5" y="-177" font-family="Helvetica,sans-Serif" font-size="10.00" fill="#000000">startRecording</text>
</a>
</g>
</g>
<!-- Node273&#45;&gt;Node275 -->
<g id="edge6" class="edge">
<title>Node273&#45;&gt;Node275</title>
<path fill="none" stroke="#191970" d="M334.0158,-260.8829C351.1138,-245.7254 382.8665,-223.4294 411,-206 411.396,-205.7546 411.7942,-205.5089 412.1942,-205.2629"/>
<polygon fill="#191970" stroke="#191970" points="414.0275,-208.2447 420.8103,-200.1056 410.4323,-202.2385 414.0275,-208.2447"/>
</g>
<!-- Node276 -->
<g id="node7" class="node">
<title>Node276</title>
<g id="a_node7"><a xlink:href="classNeuronMonitorCore.html#ac8bb3912a3ce86b15842e79d0b421204" target="_top" xlink:title="deletes data from the neuron state vector ">
<polygon fill="#ffffff" stroke="#000000" points="569,-261 569,-291 676,-291 676,-261 569,-261"/>
<text text-anchor="start" x="577" y="-279" font-family="Helvetica,sans-Serif" font-size="10.00" fill="#000000">NeuronMonitorCore::</text>
<text text-anchor="middle" x="622.5" y="-268" font-family="Helvetica,sans-Serif" font-size="10.00" fill="#000000">clear</text>
</a>
</g>
</g>
<!-- Node273&#45;&gt;Node276 -->
<g id="edge42" class="edge">
<title>Node273&#45;&gt;Node276</title>
<path fill="none" stroke="#191970" d="M375.3128,-270.6841C426.7039,-268.8854 504.1789,-268.7787 558.6649,-270.364"/>
<polygon fill="#191970" stroke="#191970" points="558.7932,-273.8698 568.9,-270.6916 559.0172,-266.8734 558.7932,-273.8698"/>
</g>
<!-- Node273&#45;&gt;Node295 -->
<g id="edge37" class="edge">
<title>Node273&#45;&gt;Node295</title>
<path fill="none" stroke="#191970" d="M328.8131,-260.6858C344.2902,-234.0643 380.7598,-181.3242 403.0252,-158.3834"/>
<polygon fill="#191970" stroke="#191970" points="405.601,-160.7668 410.5204,-151.3833 400.8231,-155.651 405.601,-160.7668"/>
</g>
<!-- Node296 -->
<g id="node27" class="node">
<title>Node296</title>
<g id="a_node27"><a xlink:href="classNeuronMonitorCore.html#a5113f6b476e3e3544ecbffefa313234d" target="_top" xlink:title="sets pointer to Neuron file ">
<polygon fill="#ffffff" stroke="#000000" points="411,-408 411,-438 518,-438 518,-408 411,-408"/>
<text text-anchor="start" x="419" y="-426" font-family="Helvetica,sans-Serif" font-size="10.00" fill="#000000">NeuronMonitorCore::</text>
<text text-anchor="middle" x="464.5" y="-415" font-family="Helvetica,sans-Serif" font-size="10.00" fill="#000000">setNeuronFileId</text>
</a>
</g>
</g>
<!-- Node273&#45;&gt;Node296 -->
<g id="edge43" class="edge">
<title>Node273&#45;&gt;Node296</title>
<path fill="none" stroke="#191970" d="M334.1712,-291.1318C349.8025,-313.7639 378.3484,-355.6829 411,-384 419.0851,-391.0118 429.0674,-397.1418 438.2113,-402.5462"/>
<polygon fill="#191970" stroke="#191970" points="436.5828,-405.6491 446.9744,-407.7145 440.1389,-399.6196 436.5828,-405.6491"/>
</g>
<!-- Node274&#45;&gt;Node273 -->
<g id="edge5" class="edge">
<title>Node274&#45;&gt;Node273</title>
<path fill="none" stroke="#191970" d="M730.218,-338.5244C657.4047,-337.3691 523.6151,-327.7811 411,-308 392.6805,-304.7821 372.5976,-299.7616 356.1058,-294.3951"/>
<polygon fill="#191970" stroke="#191970" points="356.944,-290.9817 346.3493,-291.0221 354.6568,-297.5975 356.944,-290.9817"/>
</g>
<!-- Node275&#45;&gt;Node273 -->
<g id="edge7" class="edge">
<title>Node275&#45;&gt;Node273</title>
<path fill="none" stroke="#191970" d="M449.7684,-200.2753C438.9092,-207.6771 423.8544,-216.0364 411,-224 394.9651,-233.934 377.7545,-245.4489 362.7516,-255.2391"/>
<polygon fill="#191970" stroke="#191970" points="360.6892,-252.4049 354.1989,-260.779 364.4948,-258.28 360.6892,-252.4049"/>
</g>
<!-- Node275&#45;&gt;Node276 -->
<g id="edge8" class="edge">
<title>Node275&#45;&gt;Node276</title>
<path fill="none" stroke="#191970" d="M490.5905,-200.0268C517.1208,-215.3069 558.385,-239.073 587.6897,-255.951"/>
<polygon fill="#191970" stroke="#191970" points="585.9584,-258.9929 596.3708,-260.9509 589.4521,-252.927 585.9584,-258.9929"/>
</g>
<!-- Node277 -->
<g id="node8" class="node">
<title>Node277</title>
<g id="a_node8"><a xlink:href="classSNN.html#a8dd319bdd9a54e38f9254cbec099c30a" target="_top" xlink:title="copy required neuron state values from ??? buffer to ??? buffer ">
<polygon fill="#ffffff" stroke="#000000" points="554,-195.5 554,-214.5 691,-214.5 691,-195.5 554,-195.5"/>
<text text-anchor="middle" x="622.5" y="-202.5" font-family="Helvetica,sans-Serif" font-size="10.00" fill="#000000">SNN::updateNeuronMonitor</text>
</a>
</g>
</g>
<!-- Node275&#45;&gt;Node277 -->
<g id="edge10" class="edge">
<title>Node275&#45;&gt;Node277</title>
<path fill="none" stroke="#191970" d="M518.4327,-191.8269C526.593,-192.8599 535.1514,-193.9432 543.7066,-195.0261"/>
<polygon fill="#191970" stroke="#191970" points="543.3636,-198.5106 553.724,-196.2942 544.2428,-191.566 543.3636,-198.5106"/>
</g>
<!-- Node280 -->
<g id="node11" class="node">
<title>Node280</title>
<g id="a_node11"><a xlink:href="classSNN.html#a424b0cf29d7dba87e4ebf244399acad0" target="_top" xlink:title="SNN::getSimTimeMs">
<polygon fill="#ffffff" stroke="#000000" points="729,-57.5 729,-76.5 839,-76.5 839,-57.5 729,-57.5"/>
<text text-anchor="middle" x="784" y="-64.5" font-family="Helvetica,sans-Serif" font-size="10.00" fill="#000000">SNN::getSimTimeMs</text>
</a>
</g>
</g>
<!-- Node275&#45;&gt;Node280 -->
<g id="edge36" class="edge">
<title>Node275&#45;&gt;Node280</title>
<path fill="none" stroke="#191970" d="M499.9615,-169.9057C506.1134,-166.8738 512.3455,-163.5264 518,-160 535.4332,-149.1277 535.7266,-140.3919 554,-131 606.3119,-104.1135 671.3011,-87.3691 718.8391,-77.7843"/>
<polygon fill="#191970" stroke="#191970" points="719.5693,-81.2079 728.7075,-75.8466 718.2205,-74.339 719.5693,-81.2079"/>
</g>
<!-- Node286 -->
<g id="node17" class="node">
<title>Node286</title>
<g id="a_node17"><a xlink:href="classSNN.html#a85facd004ae52ee52e72451b5d874fae" target="_top" xlink:title="SNN::getSimTimeSec">
<polygon fill="#ffffff" stroke="#000000" points="727,-95.5 727,-114.5 841,-114.5 841,-95.5 727,-95.5"/>
<text text-anchor="middle" x="784" y="-102.5" font-family="Helvetica,sans-Serif" font-size="10.00" fill="#000000">SNN::getSimTimeSec</text>
</a>
</g>
</g>
<!-- Node275&#45;&gt;Node286 -->
<g id="edge35" class="edge">
<title>Node275&#45;&gt;Node286</title>
<path fill="none" stroke="#191970" d="M518.393,-174.601C564.5049,-165.3471 632.5043,-150.853 691,-135 701.5311,-132.1459 724.9584,-124.5861 745.6636,-117.7699"/>
<polygon fill="#191970" stroke="#191970" points="746.8362,-121.0686 755.2341,-114.609 744.6409,-114.4218 746.8362,-121.0686"/>
</g>
<!-- Node276&#45;&gt;Node273 -->
<g id="edge9" class="edge">
<title>Node276&#45;&gt;Node273</title>
<path fill="none" stroke="#191970" d="M568.9,-281.3084C517.581,-283.1118 440.1105,-283.2232 385.561,-281.6426"/>
<polygon fill="#191970" stroke="#191970" points="385.4192,-278.1364 375.3128,-281.3159 385.1961,-285.1328 385.4192,-278.1364"/>
</g>
<!-- Node277&#45;&gt;Node273 -->
<g id="edge33" class="edge">
<title>Node277&#45;&gt;Node273</title>
<path fill="none" stroke="#191970" d="M582.1523,-214.5172C531.7293,-226.411 444.8414,-246.9062 385.3502,-260.939"/>
<polygon fill="#191970" stroke="#191970" points="384.2421,-257.6042 375.3128,-263.3066 385.8492,-264.4173 384.2421,-257.6042"/>
</g>
<!-- Node277&#45;&gt;Node274 -->
<g id="edge34" class="edge">
<title>Node277&#45;&gt;Node274</title>
<path fill="none" stroke="#191970" d="M641.2598,-214.644C656.0126,-222.8799 676.4373,-235.7896 691,-251 712.2435,-273.1883 703.8681,-289.7881 727,-310 728.752,-311.5309 730.6126,-312.9811 732.5509,-314.3534"/>
<polygon fill="#191970" stroke="#191970" points="731.1112,-317.5791 741.4533,-319.8795 734.803,-311.6318 731.1112,-317.5791"/>
</g>
<!-- Node278 -->
<g id="node9" class="node">
<title>Node278</title>
<g id="a_node9"><a xlink:href="classNeuronMonitorCore.html#a102f8a26e80c556ee9a2ac503cd38ec9" target="_top" xlink:title="returns timestamp of last NeuronMonitor update ">
<polygon fill="#ffffff" stroke="#000000" points="730.5,-134 730.5,-164 837.5,-164 837.5,-134 730.5,-134"/>
<text text-anchor="start" x="738.5" y="-152" font-family="Helvetica,sans-Serif" font-size="10.00" fill="#000000">NeuronMonitorCore::</text>
<text text-anchor="middle" x="784" y="-141" font-family="Helvetica,sans-Serif" font-size="10.00" fill="#000000">getLastUpdated</text>
</a>
</g>
</g>
<!-- Node277&#45;&gt;Node278 -->
<g id="edge11" class="edge">
<title>Node277&#45;&gt;Node278</title>
<path fill="none" stroke="#191970" d="M650.2628,-195.3733C672.3514,-187.7141 703.9105,-176.771 730.8248,-167.4384"/>
<polygon fill="#191970" stroke="#191970" points="732.2029,-170.6651 740.5044,-164.0821 729.9096,-164.0514 732.2029,-170.6651"/>
</g>
<!-- Node279 -->
<g id="node10" class="node">
<title>Node279</title>
<g id="a_node10"><a xlink:href="classSNN.html#a5fd2b156623d78138bcb44167eabab78" target="_top" xlink:title="SNN::getSimTime">
<polygon fill="#ffffff" stroke="#000000" points="735.5,-281.5 735.5,-300.5 832.5,-300.5 832.5,-281.5 735.5,-281.5"/>
<text text-anchor="middle" x="784" y="-288.5" font-family="Helvetica,sans-Serif" font-size="10.00" fill="#000000">SNN::getSimTime</text>
</a>
</g>
</g>
<!-- Node277&#45;&gt;Node279 -->
<g id="edge12" class="edge">
<title>Node277&#45;&gt;Node279</title>
<path fill="none" stroke="#191970" d="M636.8588,-214.6378C660.9955,-230.7412 708.841,-262.2196 727,-271 732.0748,-273.4538 737.5314,-275.7589 742.9856,-277.8695"/>
<polygon fill="#191970" stroke="#191970" points="742.1244,-281.282 752.7179,-281.4488 744.5406,-274.7122 742.1244,-281.282"/>
</g>
<!-- Node277&#45;&gt;Node280 -->
<g id="edge13" class="edge">
<title>Node277&#45;&gt;Node280</title>
<path fill="none" stroke="#191970" d="M628.3106,-195.449C642.4142,-173.0491 680.7256,-116.7138 727,-86 729.9576,-84.0369 733.1362,-82.26 736.4247,-80.6544"/>
<polygon fill="#191970" stroke="#191970" points="738.0954,-83.7456 745.8914,-76.5711 735.3229,-77.318 738.0954,-83.7456"/>
</g>
<!-- Node277&#45;&gt;Node286 -->
<g id="edge22" class="edge">
<title>Node277&#45;&gt;Node286</title>
<path fill="none" stroke="#191970" d="M663.9282,-195.4681C673.4651,-191.9757 683.1124,-187.2778 691,-181 714.4439,-162.3409 703.4145,-142.4798 727,-124 729.3093,-122.1906 731.7992,-120.5494 734.4021,-119.0614"/>
<polygon fill="#191970" stroke="#191970" points="736.1425,-122.1065 743.5892,-114.57 733.068,-115.8177 736.1425,-122.1065"/>
</g>
<!-- Node287 -->
<g id="node18" class="node">
<title>Node287</title>
<g id="a_node18"><a xlink:href="classNeuronMonitorCore.html#a38f87732cc929797d9648e68cd509f1b" target="_top" xlink:title="sets timestamp of last NeuronMonitor update ">
<polygon fill="#ffffff" stroke="#000000" points="730.5,-232 730.5,-262 837.5,-262 837.5,-232 730.5,-232"/>
<text text-anchor="start" x="738.5" y="-250" font-family="Helvetica,sans-Serif" font-size="10.00" fill="#000000">NeuronMonitorCore::</text>
<text text-anchor="middle" x="784" y="-239" font-family="Helvetica,sans-Serif" font-size="10.00" fill="#000000">setLastUpdated</text>
</a>
</g>
</g>
<!-- Node277&#45;&gt;Node287 -->
<g id="edge23" class="edge">
<title>Node277&#45;&gt;Node287</title>
<path fill="none" stroke="#191970" d="M659.1468,-214.5305C677.304,-219.2524 699.7526,-225.0905 720.5855,-230.5083"/>
<polygon fill="#191970" stroke="#191970" points="719.7795,-233.9151 730.3385,-233.0447 721.5414,-227.1404 719.7795,-233.9151"/>
</g>
<!-- Node294 -->
<g id="node25" class="node">
<title>Node294</title>
<g id="a_node25"><a xlink:href="classNeuronMonitorCore.html#a84e392c48ef98bece7aa0dc7af992360" target="_top" xlink:title="returns a pointer to the neuron state file ">
<polygon fill="#ffffff" stroke="#000000" points="730.5,-183 730.5,-213 837.5,-213 837.5,-183 730.5,-183"/>
<text text-anchor="start" x="738.5" y="-201" font-family="Helvetica,sans-Serif" font-size="10.00" fill="#000000">NeuronMonitorCore::</text>
<text text-anchor="middle" x="784" y="-190" font-family="Helvetica,sans-Serif" font-size="10.00" fill="#000000">getNeuronFileId</text>
</a>
</g>
</g>
<!-- Node277&#45;&gt;Node294 -->
<g id="edge32" class="edge">
<title>Node277&#45;&gt;Node294</title>
<path fill="none" stroke="#191970" d="M691.459,-202.0111C701.0289,-201.5963 710.8247,-201.1717 720.2929,-200.7613"/>
<polygon fill="#191970" stroke="#191970" points="720.5731,-204.2525 730.4121,-200.3227 720.2699,-197.2591 720.5731,-204.2525"/>
</g>
<!-- Node281 -->
<g id="node12" class="node">
<title>Node281</title>
<g id="a_node12"><a xlink:href="classSNN.html#a866a9c6e2b2630816fc66adda1381655" target="_top" xlink:title="Returns pointer to existing SpikeMonitor object, NULL else. ">
<polygon fill="#ffffff" stroke="#000000" points="891,-38.5 891,-57.5 1006,-57.5 1006,-38.5 891,-38.5"/>
<text text-anchor="middle" x="948.5" y="-45.5" font-family="Helvetica,sans-Serif" font-size="10.00" fill="#000000">SNN::getSpikeMonitor</text>
</a>
</g>
</g>
<!-- Node280&#45;&gt;Node281 -->
<g id="edge14" class="edge">
<title>Node280&#45;&gt;Node281</title>
<path fill="none" stroke="#191970" d="M839.2337,-60.6204C852.6029,-59.0763 867.0434,-57.4084 880.9095,-55.8068"/>
<polygon fill="#191970" stroke="#191970" points="881.3487,-59.2794 890.881,-54.6551 880.5455,-52.3257 881.3487,-59.2794"/>
</g>
<!-- Node283 -->
<g id="node14" class="node">
<title>Node283</title>
<g id="a_node14"><a xlink:href="classSNN.html#ad25000cd1457c9b9869122534ada6fdd" target="_top" xlink:title="SNN::getSpikeMonitorCore">
<polygon fill="#ffffff" stroke="#000000" points="880.5,-.5 880.5,-19.5 1016.5,-19.5 1016.5,-.5 880.5,-.5"/>
<text text-anchor="middle" x="948.5" y="-7.5" font-family="Helvetica,sans-Serif" font-size="10.00" fill="#000000">SNN::getSpikeMonitorCore</text>
</a>
</g>
</g>
<!-- Node280&#45;&gt;Node283 -->
<g id="edge16" class="edge">
<title>Node280&#45;&gt;Node283</title>
<path fill="none" stroke="#191970" d="M805.1311,-57.4577C823.7929,-49.2504 851.8665,-37.4355 877,-29 884.1118,-26.6131 891.7003,-24.3263 899.1776,-22.2182"/>
<polygon fill="#191970" stroke="#191970" points="900.1741,-25.5743 908.894,-19.5565 898.3246,-18.823 900.1741,-25.5743"/>
</g>
<!-- Node284 -->
<g id="node15" class="node">
<title>Node284</title>
<g id="a_node15"><a xlink:href="classSNN.html#a0eb87addfa5eebdfee4bd6b927b8945f" target="_top" xlink:title="Returns pointer to existing NeuronMonitor object, NULL else. ">
<polygon fill="#ffffff" stroke="#000000" points="887.5,-114.5 887.5,-133.5 1009.5,-133.5 1009.5,-114.5 887.5,-114.5"/>
<text text-anchor="middle" x="948.5" y="-121.5" font-family="Helvetica,sans-Serif" font-size="10.00" fill="#000000">SNN::getNeuronMonitor</text>
</a>
</g>
</g>
<!-- Node280&#45;&gt;Node284 -->
<g id="edge18" class="edge">
<title>Node280&#45;&gt;Node284</title>
<path fill="none" stroke="#191970" d="M815.7042,-76.5444C824.0353,-79.3293 832.9422,-82.5581 841,-86 857.6375,-93.1066 860.1502,-98.4126 877,-105 883.1886,-107.4194 889.796,-109.6369 896.4001,-111.6353"/>
<polygon fill="#191970" stroke="#191970" points="895.4465,-115.0029 906.0244,-114.4044 897.382,-108.2758 895.4465,-115.0029"/>
</g>
<!-- Node285 -->
<g id="node16" class="node">
<title>Node285</title>
<g id="a_node16"><a xlink:href="classSNN.html#a9aa73fa9478383c4af1eed8387d82db9" target="_top" xlink:title="SNN::getNeuronMonitorCore">
<polygon fill="#ffffff" stroke="#000000" points="877,-76.5 877,-95.5 1020,-95.5 1020,-76.5 877,-76.5"/>
<text text-anchor="middle" x="948.5" y="-83.5" font-family="Helvetica,sans-Serif" font-size="10.00" fill="#000000">SNN::getNeuronMonitorCore</text>
</a>
</g>
</g>
<!-- Node280&#45;&gt;Node285 -->
<g id="edge20" class="edge">
<title>Node280&#45;&gt;Node285</title>
<path fill="none" stroke="#191970" d="M839.2337,-73.3796C848.076,-74.4009 857.387,-75.4763 866.6904,-76.5509"/>
<polygon fill="#191970" stroke="#191970" points="866.4245,-80.0433 876.7601,-77.7139 867.2278,-73.0896 866.4245,-80.0433"/>
</g>
<!-- Node282 -->
<g id="node13" class="node">
<title>Node282</title>
<g id="a_node13"><a xlink:href="classSNN.html#a292bdee57fec7c77ec4c15ea3f508d60" target="_top" xlink:title="SNN::getNumGroups">
<polygon fill="#ffffff" stroke="#000000" points="1058.5,-57.5 1058.5,-76.5 1168.5,-76.5 1168.5,-57.5 1058.5,-57.5"/>
<text text-anchor="middle" x="1113.5" y="-64.5" font-family="Helvetica,sans-Serif" font-size="10.00" fill="#000000">SNN::getNumGroups</text>
</a>
</g>
</g>
<!-- Node281&#45;&gt;Node282 -->
<g id="edge15" class="edge">
<title>Node281&#45;&gt;Node282</title>
<path fill="none" stroke="#191970" d="M1006.209,-54.6453C1019.8192,-56.2125 1034.4217,-57.894 1048.3353,-59.4962"/>
<polygon fill="#191970" stroke="#191970" points="1047.986,-62.979 1058.3208,-60.646 1048.7869,-56.025 1047.986,-62.979"/>
</g>
<!-- Node283&#45;&gt;Node282 -->
<g id="edge17" class="edge">
<title>Node283&#45;&gt;Node282</title>
<path fill="none" stroke="#191970" d="M988.1016,-19.5695C998.5534,-22.3543 1009.7686,-25.5767 1020,-29 1041.3108,-36.1303 1064.7356,-45.6535 1082.8077,-53.3825"/>
<polygon fill="#191970" stroke="#191970" points="1081.6818,-56.7089 1092.2496,-57.4652 1084.4601,-50.2838 1081.6818,-56.7089"/>
</g>
<!-- Node284&#45;&gt;Node282 -->
<g id="edge19" class="edge">
<title>Node284&#45;&gt;Node282</title>
<path fill="none" stroke="#191970" d="M988.1016,-114.4305C998.5534,-111.6457 1009.7686,-108.4233 1020,-105 1041.3108,-97.8697 1064.7356,-88.3465 1082.8077,-80.6175"/>
<polygon fill="#191970" stroke="#191970" points="1084.4601,-83.7162 1092.2496,-76.5348 1081.6818,-77.2911 1084.4601,-83.7162"/>
</g>
<!-- Node285&#45;&gt;Node282 -->
<g id="edge21" class="edge">
<title>Node285&#45;&gt;Node282</title>
<path fill="none" stroke="#191970" d="M1020.3914,-77.7216C1029.6037,-76.6608 1038.9953,-75.5793 1048.0967,-74.5313"/>
<polygon fill="#191970" stroke="#191970" points="1048.69,-77.9862 1058.224,-73.3651 1047.8892,-71.0321 1048.69,-77.9862"/>
</g>
<!-- Node288 -->
<g id="node19" class="node">
<title>Node288</title>
<g id="a_node19"><a xlink:href="classNeuronMonitorCore.html#aaeb6a64ac5d9fd3b7a979f0f12ec87dc" target="_top" xlink:title="returns true if state buffers are close to maxAllowedBufferSize ">
<polygon fill="#ffffff" stroke="#000000" points="895,-276 895,-306 1002,-306 1002,-276 895,-276"/>
<text text-anchor="start" x="903" y="-294" font-family="Helvetica,sans-Serif" font-size="10.00" fill="#000000">NeuronMonitorCore::</text>
<text text-anchor="middle" x="948.5" y="-283" font-family="Helvetica,sans-Serif" font-size="10.00" fill="#000000">isBufferBig</text>
</a>
</g>
</g>
<!-- Node287&#45;&gt;Node288 -->
<g id="edge24" class="edge">
<title>Node287&#45;&gt;Node288</title>
<path fill="none" stroke="#191970" d="M837.8635,-261.4072C852.852,-265.4163 869.2741,-269.8089 884.7709,-273.9539"/>
<polygon fill="#191970" stroke="#191970" points="884.2318,-277.4327 894.7966,-276.6356 886.0406,-270.6704 884.2318,-277.4327"/>
</g>
<!-- Node289 -->
<g id="node20" class="node">
<title>Node289</title>
<g id="a_node20"><a xlink:href="classNeuronMonitorCore.html#a30f19d45f562061cc82c04e7289ba956" target="_top" xlink:title="returns the approximate size of the state vectors in bytes ">
<polygon fill="#ffffff" stroke="#000000" points="1060,-254 1060,-284 1167,-284 1167,-254 1060,-254"/>
<text text-anchor="start" x="1068" y="-272" font-family="Helvetica,sans-Serif" font-size="10.00" fill="#000000">NeuronMonitorCore::</text>
<text text-anchor="middle" x="1113.5" y="-261" font-family="Helvetica,sans-Serif" font-size="10.00" fill="#000000">getBufferSize</text>
</a>
</g>
</g>
<!-- Node287&#45;&gt;Node289 -->
<g id="edge26" class="edge">
<title>Node287&#45;&gt;Node289</title>
<path fill="none" stroke="#191970" d="M837.6732,-250.5836C895.7146,-254.4589 988.1845,-260.633 1049.8488,-264.7502"/>
<polygon fill="#191970" stroke="#191970" points="1049.6388,-268.2438 1059.8498,-265.4179 1050.1052,-261.2594 1049.6388,-268.2438"/>
</g>
<!-- Node290 -->
<g id="node21" class="node">
<title>Node290</title>
<g id="a_node21"><a xlink:href="classNeuronMonitorCore.html#a3a0e4e77a2b83f5dd0e86aafcf227595" target="_top" xlink:title="returns the total accumulated time ">
<polygon fill="#ffffff" stroke="#000000" points="895,-188 895,-218 1002,-218 1002,-188 895,-188"/>
<text text-anchor="start" x="903" y="-206" font-family="Helvetica,sans-Serif" font-size="10.00" fill="#000000">NeuronMonitorCore::</text>
<text text-anchor="middle" x="948.5" y="-195" font-family="Helvetica,sans-Serif" font-size="10.00" fill="#000000">getAccumTime</text>
</a>
</g>
</g>
<!-- Node287&#45;&gt;Node290 -->
<g id="edge27" class="edge">
<title>Node287&#45;&gt;Node290</title>
<path fill="none" stroke="#191970" d="M837.8635,-232.5928C852.852,-228.5837 869.2741,-224.1911 884.7709,-220.0461"/>
<polygon fill="#191970" stroke="#191970" points="886.0406,-223.3296 894.7966,-217.3644 884.2318,-216.5673 886.0406,-223.3296"/>
</g>
<!-- Node291 -->
<g id="node22" class="node">
<title>Node291</title>
<g id="a_node22"><a xlink:href="classNeuronMonitorCore.html#a4d3c2252230fe74bf03bcc3045ff8972" target="_top" xlink:title="NeuronMonitorCore::\lwriteNeuronFileHeader">
<polygon fill="#ffffff" stroke="#000000" points="890.5,-399 890.5,-429 1006.5,-429 1006.5,-399 890.5,-399"/>
<text text-anchor="start" x="898.5" y="-417" font-family="Helvetica,sans-Serif" font-size="10.00" fill="#000000">NeuronMonitorCore::</text>
<text text-anchor="middle" x="948.5" y="-406" font-family="Helvetica,sans-Serif" font-size="10.00" fill="#000000">writeNeuronFileHeader</text>
</a>
</g>
</g>
<!-- Node287&#45;&gt;Node291 -->
<g id="edge28" class="edge">
<title>Node287&#45;&gt;Node291</title>
<path fill="none" stroke="#191970" d="M828.837,-262.0855C833.3323,-264.8792 837.5146,-268.1588 841,-272 875.5669,-310.0954 842.576,-343.7755 877,-382 881.0229,-386.467 885.7883,-390.3455 890.9198,-393.7054"/>
<polygon fill="#191970" stroke="#191970" points="889.4297,-396.8875 899.8349,-398.8829 892.9451,-390.8342 889.4297,-396.8875"/>
</g>
<!-- Node293 -->
<g id="node24" class="node">
<title>Node293</title>
<g id="a_node24"><a xlink:href="classNeuronMonitorCore.html#aec9349ebca384aed5e233754559075e0" target="_top" xlink:title="prints neuron states in human&#45;readable format ">
<polygon fill="#ffffff" stroke="#000000" points="895,-342 895,-372 1002,-372 1002,-342 895,-342"/>
<text text-anchor="start" x="903" y="-360" font-family="Helvetica,sans-Serif" font-size="10.00" fill="#000000">NeuronMonitorCore::</text>
<text text-anchor="middle" x="948.5" y="-349" font-family="Helvetica,sans-Serif" font-size="10.00" fill="#000000">print</text>
</a>
</g>
</g>
<!-- Node287&#45;&gt;Node293 -->
<g id="edge30" class="edge">
<title>Node287&#45;&gt;Node293</title>
<path fill="none" stroke="#191970" d="M824.8488,-262.1339C830.5138,-265.0147 836.0727,-268.3042 841,-272 860.9389,-286.9558 857.9759,-298.8966 877,-315 886.6147,-323.1386 898.0099,-330.6204 908.8451,-336.9435"/>
<polygon fill="#191970" stroke="#191970" points="907.3338,-340.1093 917.7637,-341.9714 910.7715,-334.0116 907.3338,-340.1093"/>
</g>
<!-- Node288&#45;&gt;Node289 -->
<g id="edge25" class="edge">
<title>Node288&#45;&gt;Node289</title>
<path fill="none" stroke="#191970" d="M1002.0708,-283.8572C1017.2774,-281.8297 1033.9854,-279.6019 1049.7322,-277.5024"/>
<polygon fill="#191970" stroke="#191970" points="1050.4662,-280.9356 1059.9159,-276.1446 1049.541,-273.997 1050.4662,-280.9356"/>
</g>
<!-- Node292 -->
<g id="node23" class="node">
<title>Node292</title>
<g id="a_node23"><a xlink:href="classSNN.html#ac13b30c40669d3cb8264bd6e211b449d" target="_top" xlink:title="SNN::getGroupGrid3D">
<polygon fill="#ffffff" stroke="#000000" points="1056,-404.5 1056,-423.5 1171,-423.5 1171,-404.5 1056,-404.5"/>
<text text-anchor="middle" x="1113.5" y="-411.5" font-family="Helvetica,sans-Serif" font-size="10.00" fill="#000000">SNN::getGroupGrid3D</text>
</a>
</g>
</g>
<!-- Node291&#45;&gt;Node292 -->
<g id="edge29" class="edge">
<title>Node291&#45;&gt;Node292</title>
<path fill="none" stroke="#191970" d="M1006.6728,-414C1019.2651,-414 1032.6878,-414 1045.6159,-414"/>
<polygon fill="#191970" stroke="#191970" points="1045.8526,-417.5001 1055.8526,-414 1045.8525,-410.5001 1045.8526,-417.5001"/>
</g>
<!-- Node293&#45;&gt;Node273 -->
<g id="edge31" class="edge">
<title>Node293&#45;&gt;Node273</title>
<path fill="none" stroke="#191970" d="M894.7482,-363.9783C795.8165,-374.7424 579.5936,-388.5111 411,-330 388.809,-322.2985 366.1778,-308.5801 349.2246,-296.8981"/>
<polygon fill="#191970" stroke="#191970" points="351.0947,-293.9338 340.9092,-291.0174 347.0529,-299.6491 351.0947,-293.9338"/>
</g>
<!-- Node295&#45;&gt;Node273 -->
<g id="edge38" class="edge">
<title>Node295&#45;&gt;Node273</title>
<path fill="none" stroke="#191970" d="M442.8449,-151.0382C432.5367,-155.8823 420.4329,-161.5625 411,-169 394.7989,-181.774 363.1927,-224.937 342.2101,-252.5568"/>
<polygon fill="#191970" stroke="#191970" points="339.3685,-250.5109 336.0682,-260.5787 344.9265,-254.7665 339.3685,-250.5109"/>
</g>
<!-- Node295&#45;&gt;Node277 -->
<g id="edge39" class="edge">
<title>Node295&#45;&gt;Node277</title>
<path fill="none" stroke="#191970" d="M499.1738,-151.1423C526.6811,-163.1551 564.7894,-179.7973 591.3374,-191.391"/>
<polygon fill="#191970" stroke="#191970" points="589.9891,-194.6214 600.5541,-195.416 592.7906,-188.2064 589.9891,-194.6214"/>
</g>
<!-- Node295&#45;&gt;Node280 -->
<g id="edge41" class="edge">
<title>Node295&#45;&gt;Node280</title>
<path fill="none" stroke="#191970" d="M481.1857,-120.9334C498.1408,-106.6674 525.8481,-86.1154 554,-77 607.4922,-59.6796 671.6483,-58.3754 718.5949,-60.7151"/>
<polygon fill="#191970" stroke="#191970" points="718.4581,-64.2129 728.6401,-61.2841 718.8541,-57.2241 718.4581,-64.2129"/>
</g>
<!-- Node295&#45;&gt;Node286 -->
<g id="edge40" class="edge">
<title>Node295&#45;&gt;Node286</title>
<path fill="none" stroke="#191970" d="M518.3375,-130.7763C573.0593,-125.4669 657.9578,-117.2294 716.9982,-111.501"/>
<polygon fill="#191970" stroke="#191970" points="717.3592,-114.9825 726.9744,-110.533 716.6831,-108.0152 717.3592,-114.9825"/>
</g>
<!-- Node296&#45;&gt;Node273 -->
<g id="edge44" class="edge">
<title>Node296&#45;&gt;Node273</title>
<path fill="none" stroke="#191970" d="M418.4072,-407.8272C415.824,-405.9732 413.333,-404.0233 411,-402 376.7801,-372.3228 347.0698,-327.7057 332.0092,-300.0466"/>
<polygon fill="#191970" stroke="#191970" points="335.033,-298.2754 327.3097,-291.0228 328.8245,-301.5088 335.033,-298.2754"/>
</g>
<!-- Node296&#45;&gt;Node291 -->
<g id="edge45" class="edge">
<title>Node296&#45;&gt;Node291</title>
<path fill="none" stroke="#191970" d="M518.1457,-422.0025C606.6932,-420.3559 783.2875,-417.0721 880.4725,-415.265"/>
<polygon fill="#191970" stroke="#191970" points="880.5515,-418.7642 890.4846,-415.0788 880.4212,-411.7654 880.5515,-418.7642"/>
</g>
</g>
</svg>
        <g id="navigator" transform="translate(0 0)" fill="#404254">
                <rect fill="#f2f5e9" fill-opacity="0.5" stroke="#606060" stroke-width=".5" x="0" y="0" width="60" height="60"/>
                <use id="zoomplus" xlink:href="#zoomPlus" x="17" y="9" onmousedown="handleZoom(evt,'in')"/>
                <use id="zoomminus" xlink:href="#zoomMin" x="42" y="9" onmousedown="handleZoom(evt,'out')"/>
                <use id="reset" xlink:href="#resetDef" x="30" y="36" onmousedown="handleReset()"/>
                <g id="arrowUp" xlink:href="#dirArrow" transform="translate(30 24)" onmousedown="handlePan(0,-1)">
                  <use xlink:href="#rim" fill="#404040">
                        <set attributeName="fill" to="#808080" begin="arrowUp.mouseover" end="arrowUp.mouseout"/>
                  </use>
                  <path fill="none" stroke="white" stroke-width="1.5" d="M0,-3.0v7 M-2.5,-0.5L0,-3.0L2.5,-0.5"/>
                </g>
                <g id="arrowRight" xlink:href="#dirArrow" transform="rotate(90) translate(36 -43)" onmousedown="handlePan(1,0)">
                  <use xlink:href="#rim" fill="#404040">
                        <set attributeName="fill" to="#808080" begin="arrowRight.mouseover" end="arrowRight.mouseout"/>
                  </use>
                  <path fill="none" stroke="white" stroke-width="1.5" d="M0,-3.0v7 M-2.5,-0.5L0,-3.0L2.5,-0.5"/>
                </g>
                <g id="arrowDown" xlink:href="#dirArrow" transform="rotate(180) translate(-30 -48)" onmousedown="handlePan(0,1)">
                  <use xlink:href="#rim" fill="#404040">
                        <set attributeName="fill" to="#808080" begin="arrowDown.mouseover" end="arrowDown.mouseout"/>
                  </use>
                  <path fill="none" stroke="white" stroke-width="1.5" d="M0,-3.0v7 M-2.5,-0.5L0,-3.0L2.5,-0.5"/>
                </g>
                <g id="arrowLeft" xlink:href="#dirArrow" transform="rotate(270) translate(-36 17)" onmousedown="handlePan(-1,0)">
                  <use xlink:href="#rim" fill="#404040">
                        <set attributeName="fill" to="#808080" begin="arrowLeft.mouseover" end="arrowLeft.mouseout"/>
                  </use>
                  <path fill="none" stroke="white" stroke-width="1.5" d="M0,-3.0v7 M-2.5,-0.5L0,-3.0L2.5,-0.5"/>
                </g>
        </g>
        <svg viewBox="0 0 15 15" width="100%" height="30px" preserveAspectRatio="xMaxYMin meet">
         <g id="arrow_out" transform="scale(0.3 0.3)">
          <a xlink:href="classNeuronMonitor_a25e0e98dd4519eaaa6b258f0dcb91ac7_cgraph_org.svg" target="_base">
           <rect id="button" ry="5" rx="5" y="6" x="6" height="38" width="38"
                fill="#f2f5e9" fill-opacity="0.5" stroke="#606060" stroke-width="1.0"/>
           <path id="arrow"
             d="M 11.500037,31.436501 C 11.940474,20.09759 22.043105,11.32322 32.158766,21.979434 L 37.068811,17.246167 C 37.068811,17.246167 37.088388,32 37.088388,32 L 22.160133,31.978069 C 22.160133,31.978069 26.997745,27.140456 26.997745,27.140456 C 18.528582,18.264221 13.291696,25.230495 11.500037,31.436501 z"
             style="fill:#404040;"/>
          </a>
         </g>
        </svg>
</svg>
