<?xml version="1.0" encoding="UTF-8" standalone="no"?>
<!DOCTYPE svg PUBLIC "-//W3C//DTD SVG 1.1//EN"
 "http://www.w3.org/Graphics/SVG/1.1/DTD/svg11.dtd">
<!-- Generated by graphviz version 2.40.1 (20161225.0304)
 -->
<!-- Title: getNumNeuronsPre Pages: 1 -->
<svg width="391pt" height="39pt"
 viewBox="0.00 0.00 391.00 39.00" xmlns="http://www.w3.org/2000/svg" xmlns:xlink="http://www.w3.org/1999/xlink">
<g id="graph0" class="graph" transform="scale(1 1) rotate(0) translate(4 35)">
<title>getNumNeuronsPre</title>
<polygon fill="#ffffff" stroke="transparent" points="-4,4 -4,-35 387,-35 387,4 -4,4"/>
<!-- Node92 -->
<g id="node1" class="node">
<title>Node92</title>
<polygon fill="#bfbfbf" stroke="#000000" points="0,-6 0,-25 103,-25 103,-6 0,-6"/>
<text text-anchor="middle" x="51.5" y="-13" font-family="Helvetica,sans-Serif" font-size="10.00" fill="#000000">getNumNeuronsPre</text>
</g>
<!-- Node93 -->
<g id="node2" class="node">
<title>Node93</title>
<g id="a_node2"><a xlink:href="classConnectionMonitor.html#a438060213521c95ad7f38ea9039dfa9c" target="_top" xlink:title="Returns the number of pre&#45;synaptic neurons. ">
<polygon fill="#ffffff" stroke="#000000" points="139,-.5 139,-30.5 243,-30.5 243,-.5 139,-.5"/>
<text text-anchor="start" x="147" y="-18.5" font-family="Helvetica,sans-Serif" font-size="10.00" fill="#000000">ConnectionMonitor::</text>
<text text-anchor="middle" x="191" y="-7.5" font-family="Helvetica,sans-Serif" font-size="10.00" fill="#000000">getNumNeuronsPre</text>
</a>
</g>
</g>
<!-- Node92&#45;&gt;Node93 -->
<g id="edge1" class="edge">
<title>Node92&#45;&gt;Node93</title>
<path fill="none" stroke="#191970" d="M113.2921,-15.5C121.7832,-15.5 130.4337,-15.5 138.7314,-15.5"/>
<polygon fill="#191970" stroke="#191970" points="113.0483,-12.0001 103.0483,-15.5 113.0483,-19.0001 113.0483,-12.0001"/>
</g>
<!-- Node94 -->
<g id="node3" class="node">
<title>Node94</title>
<g id="a_node3"><a xlink:href="classConnectionMonitor.html#aa1f808f36c992cd6bd10ffe41a3053e8" target="_top" xlink:title="Returns the number of outgoing synapses for a specific pre&#45;synaptic neuron. ">
<polygon fill="#ffffff" stroke="#000000" points="279,-.5 279,-30.5 383,-30.5 383,-.5 279,-.5"/>
<text text-anchor="start" x="287" y="-18.5" font-family="Helvetica,sans-Serif" font-size="10.00" fill="#000000">ConnectionMonitor::</text>
<text text-anchor="middle" x="331" y="-7.5" font-family="Helvetica,sans-Serif" font-size="10.00" fill="#000000">getFanOut</text>
</a>
</g>
</g>
<!-- Node93&#45;&gt;Node94 -->
<g id="edge2" class="edge">
<title>Node93&#45;&gt;Node94</title>
<path fill="none" stroke="#191970" d="M253.3869,-15.5C261.8847,-15.5 270.5339,-15.5 278.8256,-15.5"/>
<polygon fill="#191970" stroke="#191970" points="253.1309,-12.0001 243.1308,-15.5 253.1308,-19.0001 253.1309,-12.0001"/>
</g>
</g>
</svg>
