<?xml version="1.0" encoding="UTF-8" standalone="no"?>
<!DOCTYPE svg PUBLIC "-//W3C//DTD SVG 1.1//EN"
 "http://www.w3.org/Graphics/SVG/1.1/DTD/svg11.dtd">
<!-- Generated by graphviz version 2.40.1 (20161225.0304)
 -->
<!-- Title: setESTDP Pages: 1 -->
<svg width="191pt" height="104pt"
 viewBox="0.00 0.00 191.00 104.00" xmlns="http://www.w3.org/2000/svg" xmlns:xlink="http://www.w3.org/1999/xlink">
<g id="graph0" class="graph" transform="scale(1 1) rotate(0) translate(4 100)">
<title>setESTDP</title>
<polygon fill="#ffffff" stroke="transparent" points="-4,4 -4,-100 187,-100 187,4 -4,4"/>
<!-- Node1742 -->
<g id="node1" class="node">
<title>Node1742</title>
<polygon fill="#bfbfbf" stroke="#000000" points="0,-38.5 0,-57.5 64,-57.5 64,-38.5 0,-38.5"/>
<text text-anchor="middle" x="32" y="-45.5" font-family="Helvetica,sans-Serif" font-size="10.00" fill="#000000">setESTDP</text>
</g>
<!-- Node1743 -->
<g id="node2" class="node">
<title>Node1743</title>
<g id="a_node2"><a xlink:href="classSNN.html#a44b05911f213714c351379021852e12a" target="_top" xlink:title="find connection ID based on pre&#45;post group pair, O(N) ">
<polygon fill="#ffffff" stroke="#000000" points="104,-76.5 104,-95.5 179,-95.5 179,-76.5 104,-76.5"/>
<text text-anchor="middle" x="141.5" y="-83.5" font-family="Helvetica,sans-Serif" font-size="10.00" fill="#000000">getConnectId</text>
</a>
</g>
</g>
<!-- Node1742&#45;&gt;Node1743 -->
<g id="edge1" class="edge">
<title>Node1742&#45;&gt;Node1743</title>
<path fill="none" stroke="#191970" d="M59.6315,-57.589C73.1185,-62.2694 89.5427,-67.9692 104.1303,-73.0315"/>
<polygon fill="#191970" stroke="#191970" points="103.2826,-76.442 113.8774,-76.4141 105.5776,-69.8289 103.2826,-76.442"/>
</g>
<!-- Node1744 -->
<g id="node3" class="node">
<title>Node1744</title>
<g id="a_node3"><a xlink:href="classSNN.html#ab0367f8ebd4019bf7d34ebddb1563fe7" target="_top" xlink:title="getGroupName">
<polygon fill="#ffffff" stroke="#000000" points="100,-38.5 100,-57.5 183,-57.5 183,-38.5 100,-38.5"/>
<text text-anchor="middle" x="141.5" y="-45.5" font-family="Helvetica,sans-Serif" font-size="10.00" fill="#000000">getGroupName</text>
</a>
</g>
</g>
<!-- Node1742&#45;&gt;Node1744 -->
<g id="edge2" class="edge">
<title>Node1742&#45;&gt;Node1744</title>
<path fill="none" stroke="#191970" d="M64.2614,-48C72.2417,-48 80.9935,-48 89.6485,-48"/>
<polygon fill="#191970" stroke="#191970" points="89.7123,-51.5001 99.7122,-48 89.7122,-44.5001 89.7123,-51.5001"/>
</g>
<!-- Node1745 -->
<g id="node4" class="node">
<title>Node1745</title>
<g id="a_node4"><a xlink:href="classSNN.html#a477f99451786873b73e2623b6f89b766" target="_top" xlink:title="deallocates all dynamical structures and exits ">
<polygon fill="#ffffff" stroke="#000000" points="102.5,-.5 102.5,-19.5 180.5,-19.5 180.5,-.5 102.5,-.5"/>
<text text-anchor="middle" x="141.5" y="-7.5" font-family="Helvetica,sans-Serif" font-size="10.00" fill="#000000">exitSimulation</text>
</a>
</g>
</g>
<!-- Node1742&#45;&gt;Node1745 -->
<g id="edge3" class="edge">
<title>Node1742&#45;&gt;Node1745</title>
<path fill="none" stroke="#191970" d="M59.6315,-38.411C73.1185,-33.7306 89.5427,-28.0308 104.1303,-22.9685"/>
<polygon fill="#191970" stroke="#191970" points="105.5776,-26.1711 113.8774,-19.5859 103.2826,-19.558 105.5776,-26.1711"/>
</g>
</g>
</svg>
