<?xml version="1.0" encoding="UTF-8" standalone="no"?>
<!DOCTYPE svg PUBLIC "-//W3C//DTD SVG 1.1//EN"
 "http://www.w3.org/Graphics/SVG/1.1/DTD/svg11.dtd">
<!-- Generated by graphviz version 2.40.1 (20161225.0304)
 -->
<!-- Title: isRecording Pages: 1 -->
<!--zoomable 402 -->
<svg id="main" version="1.1" xmlns="http://www.w3.org/2000/svg" xmlns:xlink="http://www.w3.org/1999/xlink" xml:space="preserve" onload="init(evt)">
<style type="text/css"><![CDATA[
.edge:hover path { stroke: red; }
.edge:hover polygon { stroke: red; fill: red; }
]]></style>
<script type="text/javascript"><![CDATA[
var edges = document.getElementsByTagName('g');
if (edges && edges.length) {
  for (var i=0;i<edges.length;i++) {
    if (edges[i].id.substr(0,4)=='edge') {
      edges[i].setAttribute('class','edge');
    }
  }
}
]]></script>
        <defs>
                <circle id="rim" cx="0" cy="0" r="7"/>
                <circle id="rim2" cx="0" cy="0" r="3.5"/>
                <g id="zoomPlus">
                        <use xlink:href="#rim" fill="#404040">
                                <set attributeName="fill" to="#808080" begin="zoomplus.mouseover" end="zoomplus.mouseout"/>
                        </use>
                        <path d="M-4,0h8M0,-4v8" fill="none" stroke="white" stroke-width="1.5" pointer-events="none"/>
                </g>
                <g id="zoomMin">
                        <use xlink:href="#rim" fill="#404040">
                                <set attributeName="fill" to="#808080" begin="zoomminus.mouseover" end="zoomminus.mouseout"/>
                        </use>
                        <path d="M-4,0h8" fill="none" stroke="white" stroke-width="1.5" pointer-events="none"/>
                </g>
                <g id="dirArrow">
                        <path fill="none" stroke="white" stroke-width="1.5" d="M0,-3.0v7 M-2.5,-0.5L0,-3.0L2.5,-0.5"/>
                </g>
               <g id="resetDef">
                       <use xlink:href="#rim2" fill="#404040">
                               <set attributeName="fill" to="#808080" begin="reset.mouseover" end="reset.mouseout"/>
                       </use>
               </g>
        </defs>

<script type="text/javascript">
var viewWidth = 851;
var viewHeight = 402;
var sectionId = 'dynsection-16';
</script>
<script xlink:href="svgpan.js"/>
<svg id="graph" class="graph">
<g id="viewport">
<title>isRecording</title>
<polygon fill="#ffffff" stroke="transparent" points="-4,4 -4,-398 847,-398 847,4 -4,4"/>
<!-- Node348 -->
<g id="node1" class="node">
<title>Node348</title>
<polygon fill="#bfbfbf" stroke="#000000" points="0,-209.5 0,-228.5 68,-228.5 68,-209.5 0,-209.5"/>
<text text-anchor="middle" x="34" y="-216.5" font-family="Helvetica,sans-Serif" font-size="10.00" fill="#000000">isRecording</text>
</g>
<!-- Node349 -->
<g id="node2" class="node">
<title>Node349</title>
<g id="a_node2"><a xlink:href="classNeuronMonitorCore.html#a743a4ad47ef60bc593cc9882bd4ffb57" target="_top" xlink:title="inserts a (time,neurId) tupel into the D Neuron State vector ">
<polygon fill="#ffffff" stroke="#000000" points="410,-374.5 410,-393.5 502,-393.5 502,-374.5 410,-374.5"/>
<text text-anchor="middle" x="456" y="-381.5" font-family="Helvetica,sans-Serif" font-size="10.00" fill="#000000">pushNeuronState</text>
</a>
</g>
</g>
<!-- Node348&#45;&gt;Node349 -->
<g id="edge1" class="edge">
<title>Node348&#45;&gt;Node349</title>
<path fill="none" stroke="#191970" d="M40.9632,-228.6624C51.4019,-247.154 73.221,-285.4433 104,-305 195.9161,-363.4026 326.3993,-374.6872 399.9434,-378.833"/>
<polygon fill="#191970" stroke="#191970" points="399.7581,-382.328 409.933,-379.3748 400.1372,-375.3383 399.7581,-382.328"/>
</g>
<!-- Node350 -->
<g id="node3" class="node">
<title>Node350</title>
<g id="a_node3"><a xlink:href="classNeuronMonitorCore.html#ab91616c118b701c2afd9136393d1f19b" target="_top" xlink:title="starts recording Neuron state ">
<polygon fill="#ffffff" stroke="#000000" points="107,-152.5 107,-171.5 187,-171.5 187,-152.5 107,-152.5"/>
<text text-anchor="middle" x="147" y="-159.5" font-family="Helvetica,sans-Serif" font-size="10.00" fill="#000000">startRecording</text>
</a>
</g>
</g>
<!-- Node348&#45;&gt;Node350 -->
<g id="edge3" class="edge">
<title>Node348&#45;&gt;Node350</title>
<path fill="none" stroke="#191970" d="M44.8349,-209.3558C59.0455,-199.931 84.7674,-186.185 106.8457,-175.7624"/>
<polygon fill="#191970" stroke="#191970" points="108.4258,-178.888 116.0405,-171.5214 105.494,-172.5316 108.4258,-178.888"/>
</g>
<!-- Node351 -->
<g id="node4" class="node">
<title>Node351</title>
<g id="a_node4"><a xlink:href="classNeuronMonitorCore.html#ac8bb3912a3ce86b15842e79d0b421204" target="_top" xlink:title="deletes data from the neuron state vector ">
<polygon fill="#ffffff" stroke="#000000" points="275.5,-28.5 275.5,-47.5 313.5,-47.5 313.5,-28.5 275.5,-28.5"/>
<text text-anchor="middle" x="294.5" y="-35.5" font-family="Helvetica,sans-Serif" font-size="10.00" fill="#000000">clear</text>
</a>
</g>
</g>
<!-- Node348&#45;&gt;Node351 -->
<g id="edge39" class="edge">
<title>Node348&#45;&gt;Node351</title>
<path fill="none" stroke="#191970" d="M35.8054,-209.2934C41.9643,-184.6981 64.0143,-123.1277 104,-91 152.0573,-52.3869 224.8904,-37.5215 265.1527,-35.0169"/>
<polygon fill="#191970" stroke="#191970" points="265.5008,-38.5064 275.3614,-34.631 265.2363,-31.5114 265.5008,-38.5064"/>
</g>
<!-- Node370 -->
<g id="node23" class="node">
<title>Node370</title>
<g id="a_node23"><a xlink:href="classNeuronMonitorCore.html#a25e0e98dd4519eaaa6b258f0dcb91ac7" target="_top" xlink:title="stops recording Neuron state ">
<polygon fill="#ffffff" stroke="#000000" points="107,-209.5 107,-228.5 187,-228.5 187,-209.5 107,-209.5"/>
<text text-anchor="middle" x="147" y="-216.5" font-family="Helvetica,sans-Serif" font-size="10.00" fill="#000000">stopRecording</text>
</a>
</g>
</g>
<!-- Node348&#45;&gt;Node370 -->
<g id="edge34" class="edge">
<title>Node348&#45;&gt;Node370</title>
<path fill="none" stroke="#191970" d="M68.2104,-212.7404C77.1787,-212.3252 87.0394,-212.1736 96.6591,-212.2858"/>
<polygon fill="#191970" stroke="#191970" points="96.875,-215.7912 106.9492,-212.511 97.0282,-208.7929 96.875,-215.7912"/>
</g>
<!-- Node371 -->
<g id="node24" class="node">
<title>Node371</title>
<g id="a_node24"><a xlink:href="classNeuronMonitorCore.html#a5113f6b476e3e3544ecbffefa313234d" target="_top" xlink:title="sets pointer to Neuron file ">
<polygon fill="#ffffff" stroke="#000000" points="104,-285.5 104,-304.5 190,-304.5 190,-285.5 104,-285.5"/>
<text text-anchor="middle" x="147" y="-292.5" font-family="Helvetica,sans-Serif" font-size="10.00" fill="#000000">setNeuronFileId</text>
</a>
</g>
</g>
<!-- Node348&#45;&gt;Node371 -->
<g id="edge40" class="edge">
<title>Node348&#45;&gt;Node371</title>
<path fill="none" stroke="#191970" d="M55.858,-228.5897C69.4066,-237.8672 87.3462,-251.2314 104,-262 113.0683,-267.8637 123.6562,-273.7838 132.0566,-279.3583"/>
<polygon fill="#191970" stroke="#191970" points="129.9959,-282.1874 140.1378,-285.2525 134.1209,-276.5319 129.9959,-282.1874"/>
</g>
<!-- Node349&#45;&gt;Node348 -->
<g id="edge2" class="edge">
<title>Node349&#45;&gt;Node348</title>
<path fill="none" stroke="#191970" d="M409.933,-390.7996C338.7591,-393.6445 200.2394,-384.1496 104,-323 72.2179,-302.806 49.9893,-262.6385 39.979,-238.2571"/>
<polygon fill="#191970" stroke="#191970" points="43.1392,-236.7166 36.3463,-228.586 36.5863,-239.1781 43.1392,-236.7166"/>
</g>
<!-- Node350&#45;&gt;Node348 -->
<g id="edge4" class="edge">
<title>Node350&#45;&gt;Node348</title>
<path fill="none" stroke="#191970" d="M136.1354,-171.6638C121.961,-181.0601 96.3699,-194.7407 74.3511,-205.1446"/>
<polygon fill="#191970" stroke="#191970" points="72.7885,-202.011 65.1769,-209.3808 75.723,-208.3662 72.7885,-202.011"/>
</g>
<!-- Node350&#45;&gt;Node351 -->
<g id="edge5" class="edge">
<title>Node350&#45;&gt;Node351</title>
<path fill="none" stroke="#191970" d="M152.1667,-152.2453C163.1428,-132.4223 190.6958,-87.1822 226,-62 237.7375,-53.6277 252.666,-47.9452 265.5886,-44.2204"/>
<polygon fill="#191970" stroke="#191970" points="266.6392,-47.5633 275.4229,-41.639 264.862,-40.7927 266.6392,-47.5633"/>
</g>
<!-- Node352 -->
<g id="node5" class="node">
<title>Node352</title>
<g id="a_node5"><a xlink:href="classSNN.html#a8dd319bdd9a54e38f9254cbec099c30a" target="_top" xlink:title="copy required neuron state values from ??? buffer to ??? buffer ">
<polygon fill="#ffffff" stroke="#000000" points="226,-256.5 226,-275.5 363,-275.5 363,-256.5 226,-256.5"/>
<text text-anchor="middle" x="294.5" y="-263.5" font-family="Helvetica,sans-Serif" font-size="10.00" fill="#000000">SNN::updateNeuronMonitor</text>
</a>
</g>
</g>
<!-- Node350&#45;&gt;Node352 -->
<g id="edge7" class="edge">
<title>Node350&#45;&gt;Node352</title>
<path fill="none" stroke="#191970" d="M160.6121,-171.5977C186.1869,-189.6301 241.6157,-228.7121 272.5337,-250.5119"/>
<polygon fill="#191970" stroke="#191970" points="270.7312,-253.5235 280.9208,-256.4255 274.765,-247.8026 270.7312,-253.5235"/>
</g>
<!-- Node355 -->
<g id="node8" class="node">
<title>Node355</title>
<g id="a_node8"><a xlink:href="classSNN.html#a424b0cf29d7dba87e4ebf244399acad0" target="_top" xlink:title="SNN::getSimTimeMs">
<polygon fill="#ffffff" stroke="#000000" points="401,-66.5 401,-85.5 511,-85.5 511,-66.5 401,-66.5"/>
<text text-anchor="middle" x="456" y="-73.5" font-family="Helvetica,sans-Serif" font-size="10.00" fill="#000000">SNN::getSimTimeMs</text>
</a>
</g>
</g>
<!-- Node350&#45;&gt;Node355 -->
<g id="edge33" class="edge">
<title>Node350&#45;&gt;Node355</title>
<path fill="none" stroke="#191970" d="M181.249,-152.4679C237.513,-136.8087 349.4582,-105.6524 411.6854,-88.3335"/>
<polygon fill="#191970" stroke="#191970" points="412.9022,-91.628 421.5976,-85.5748 411.0253,-84.8843 412.9022,-91.628"/>
</g>
<!-- Node361 -->
<g id="node14" class="node">
<title>Node361</title>
<g id="a_node14"><a xlink:href="classSNN.html#a85facd004ae52ee52e72451b5d874fae" target="_top" xlink:title="SNN::getSimTimeSec">
<polygon fill="#ffffff" stroke="#000000" points="399,-142.5 399,-161.5 513,-161.5 513,-142.5 399,-142.5"/>
<text text-anchor="middle" x="456" y="-149.5" font-family="Helvetica,sans-Serif" font-size="10.00" fill="#000000">SNN::getSimTimeSec</text>
</a>
</g>
</g>
<!-- Node350&#45;&gt;Node361 -->
<g id="edge32" class="edge">
<title>Node350&#45;&gt;Node361</title>
<path fill="none" stroke="#191970" d="M187.0796,-160.7029C238.203,-159.0484 327.3531,-156.1633 388.9111,-154.1712"/>
<polygon fill="#191970" stroke="#191970" points="389.0425,-157.6688 398.924,-153.8471 388.816,-150.6725 389.0425,-157.6688"/>
</g>
<!-- Node351&#45;&gt;Node348 -->
<g id="edge6" class="edge">
<title>Node351&#45;&gt;Node348</title>
<path fill="none" stroke="#191970" d="M275.3614,-44.8579C238.454,-52.9953 156.4634,-66.8467 104,-109 73.4268,-133.5649 53.3392,-175.3426 42.8231,-199.9441"/>
<polygon fill="#191970" stroke="#191970" points="39.5249,-198.7594 38.8996,-209.3358 45.9839,-201.4579 39.5249,-198.7594"/>
</g>
<!-- Node352&#45;&gt;Node348 -->
<g id="edge30" class="edge">
<title>Node352&#45;&gt;Node348</title>
<path fill="none" stroke="#191970" d="M225.82,-257.9151C189.4308,-253.126 144.0881,-246.3556 104,-238 94.7659,-236.0753 84.9425,-233.6503 75.6652,-231.1824"/>
<polygon fill="#191970" stroke="#191970" points="76.4352,-227.7646 65.8665,-228.5094 74.5929,-234.5179 76.4352,-227.7646"/>
</g>
<!-- Node352&#45;&gt;Node349 -->
<g id="edge31" class="edge">
<title>Node352&#45;&gt;Node349</title>
<path fill="none" stroke="#191970" d="M307.7162,-275.6564C335.5162,-295.9685 400.2729,-343.283 434.2717,-368.1242"/>
<polygon fill="#191970" stroke="#191970" points="432.4619,-371.1366 442.6012,-374.2101 436.5916,-365.4845 432.4619,-371.1366"/>
</g>
<!-- Node353 -->
<g id="node6" class="node">
<title>Node353</title>
<g id="a_node6"><a xlink:href="classNeuronMonitorCore.html#a102f8a26e80c556ee9a2ac503cd38ec9" target="_top" xlink:title="returns timestamp of last NeuronMonitor update ">
<polygon fill="#ffffff" stroke="#000000" points="413,-218.5 413,-237.5 499,-237.5 499,-218.5 413,-218.5"/>
<text text-anchor="middle" x="456" y="-225.5" font-family="Helvetica,sans-Serif" font-size="10.00" fill="#000000">getLastUpdated</text>
</a>
</g>
</g>
<!-- Node352&#45;&gt;Node353 -->
<g id="edge8" class="edge">
<title>Node352&#45;&gt;Node353</title>
<path fill="none" stroke="#191970" d="M335.2533,-256.411C356.6609,-251.3739 383.0862,-245.1562 405.7525,-239.8229"/>
<polygon fill="#191970" stroke="#191970" points="406.6073,-243.2175 415.5398,-237.5201 405.0039,-236.4036 406.6073,-243.2175"/>
</g>
<!-- Node354 -->
<g id="node7" class="node">
<title>Node354</title>
<g id="a_node7"><a xlink:href="classSNN.html#a5fd2b156623d78138bcb44167eabab78" target="_top" xlink:title="SNN::getSimTime">
<polygon fill="#ffffff" stroke="#000000" points="407.5,-180.5 407.5,-199.5 504.5,-199.5 504.5,-180.5 407.5,-180.5"/>
<text text-anchor="middle" x="456" y="-187.5" font-family="Helvetica,sans-Serif" font-size="10.00" fill="#000000">SNN::getSimTime</text>
</a>
</g>
</g>
<!-- Node352&#45;&gt;Node354 -->
<g id="edge9" class="edge">
<title>Node352&#45;&gt;Node354</title>
<path fill="none" stroke="#191970" d="M330.5719,-256.403C341.4091,-252.7297 353.0534,-247.9552 363,-242 381.6225,-230.8504 380.293,-220.0073 399,-209 402.5905,-206.8873 406.448,-204.9714 410.4017,-203.2423"/>
<polygon fill="#191970" stroke="#191970" points="411.719,-206.4852 419.7216,-199.542 409.1358,-199.9792 411.719,-206.4852"/>
</g>
<!-- Node352&#45;&gt;Node355 -->
<g id="edge10" class="edge">
<title>Node352&#45;&gt;Node355</title>
<path fill="none" stroke="#191970" d="M307.6858,-256.4488C322.545,-245.1867 346.7415,-225.2889 363,-204 384.4739,-175.882 378.2323,-161.6436 399,-133 409.9462,-117.9026 424.9401,-103.0789 436.8024,-92.3343"/>
<polygon fill="#191970" stroke="#191970" points="439.2525,-94.8399 444.4262,-85.5942 434.616,-89.5955 439.2525,-94.8399"/>
</g>
<!-- Node352&#45;&gt;Node361 -->
<g id="edge19" class="edge">
<title>Node352&#45;&gt;Node361</title>
<path fill="none" stroke="#191970" d="M337.7874,-256.4478C346.8313,-252.9881 355.7954,-248.3096 363,-242 389.6161,-218.6904 372.2069,-194.1059 399,-171 400.9699,-169.3012 403.0969,-167.753 405.3317,-166.3423"/>
<polygon fill="#191970" stroke="#191970" points="407.179,-169.3247 414.3815,-161.5545 403.9055,-163.1373 407.179,-169.3247"/>
</g>
<!-- Node362 -->
<g id="node15" class="node">
<title>Node362</title>
<g id="a_node15"><a xlink:href="classNeuronMonitorCore.html#a38f87732cc929797d9648e68cd509f1b" target="_top" xlink:title="sets timestamp of last NeuronMonitor update ">
<polygon fill="#ffffff" stroke="#000000" points="413,-294.5 413,-313.5 499,-313.5 499,-294.5 413,-294.5"/>
<text text-anchor="middle" x="456" y="-301.5" font-family="Helvetica,sans-Serif" font-size="10.00" fill="#000000">setLastUpdated</text>
</a>
</g>
</g>
<!-- Node352&#45;&gt;Node362 -->
<g id="edge20" class="edge">
<title>Node352&#45;&gt;Node362</title>
<path fill="none" stroke="#191970" d="M335.2533,-275.589C356.6609,-280.6261 383.0862,-286.8438 405.7525,-292.1771"/>
<polygon fill="#191970" stroke="#191970" points="405.0039,-295.5964 415.5398,-294.4799 406.6073,-288.7825 405.0039,-295.5964"/>
</g>
<!-- Node369 -->
<g id="node22" class="node">
<title>Node369</title>
<g id="a_node22"><a xlink:href="classNeuronMonitorCore.html#a84e392c48ef98bece7aa0dc7af992360" target="_top" xlink:title="returns a pointer to the neuron state file ">
<polygon fill="#ffffff" stroke="#000000" points="413,-256.5 413,-275.5 499,-275.5 499,-256.5 413,-256.5"/>
<text text-anchor="middle" x="456" y="-263.5" font-family="Helvetica,sans-Serif" font-size="10.00" fill="#000000">getNeuronFileId</text>
</a>
</g>
</g>
<!-- Node352&#45;&gt;Node369 -->
<g id="edge29" class="edge">
<title>Node352&#45;&gt;Node369</title>
<path fill="none" stroke="#191970" d="M363.459,-266C376.5868,-266 390.1396,-266 402.6889,-266"/>
<polygon fill="#191970" stroke="#191970" points="402.963,-269.5001 412.9629,-266 402.9629,-262.5001 402.963,-269.5001"/>
</g>
<!-- Node356 -->
<g id="node9" class="node">
<title>Node356</title>
<g id="a_node9"><a xlink:href="classSNN.html#a866a9c6e2b2630816fc66adda1381655" target="_top" xlink:title="Returns pointer to existing SpikeMonitor object, NULL else. ">
<polygon fill="#ffffff" stroke="#000000" points="563,-.5 563,-19.5 678,-19.5 678,-.5 563,-.5"/>
<text text-anchor="middle" x="620.5" y="-7.5" font-family="Helvetica,sans-Serif" font-size="10.00" fill="#000000">SNN::getSpikeMonitor</text>
</a>
</g>
</g>
<!-- Node355&#45;&gt;Node356 -->
<g id="edge11" class="edge">
<title>Node355&#45;&gt;Node356</title>
<path fill="none" stroke="#191970" d="M472.325,-66.4323C490.534,-56.0765 521.1045,-39.6223 549,-29 555.3711,-26.574 562.1739,-24.3372 568.9556,-22.3154"/>
<polygon fill="#191970" stroke="#191970" points="570.1618,-25.6113 578.8236,-19.5102 568.2477,-18.878 570.1618,-25.6113"/>
</g>
<!-- Node358 -->
<g id="node11" class="node">
<title>Node358</title>
<g id="a_node11"><a xlink:href="classSNN.html#ad25000cd1457c9b9869122534ada6fdd" target="_top" xlink:title="SNN::getSpikeMonitorCore">
<polygon fill="#ffffff" stroke="#000000" points="552.5,-114.5 552.5,-133.5 688.5,-133.5 688.5,-114.5 552.5,-114.5"/>
<text text-anchor="middle" x="620.5" y="-121.5" font-family="Helvetica,sans-Serif" font-size="10.00" fill="#000000">SNN::getSpikeMonitorCore</text>
</a>
</g>
</g>
<!-- Node355&#45;&gt;Node358 -->
<g id="edge13" class="edge">
<title>Node355&#45;&gt;Node358</title>
<path fill="none" stroke="#191970" d="M485.6402,-85.5957C503.8598,-91.406 527.7135,-98.8559 549,-105 556.8958,-107.279 565.3113,-109.6058 573.4933,-111.814"/>
<polygon fill="#191970" stroke="#191970" points="572.7426,-115.2361 583.3073,-114.4375 574.5505,-108.4736 572.7426,-115.2361"/>
</g>
<!-- Node359 -->
<g id="node12" class="node">
<title>Node359</title>
<g id="a_node12"><a xlink:href="classSNN.html#a0eb87addfa5eebdfee4bd6b927b8945f" target="_top" xlink:title="Returns pointer to existing NeuronMonitor object, NULL else. ">
<polygon fill="#ffffff" stroke="#000000" points="559.5,-76.5 559.5,-95.5 681.5,-95.5 681.5,-76.5 559.5,-76.5"/>
<text text-anchor="middle" x="620.5" y="-83.5" font-family="Helvetica,sans-Serif" font-size="10.00" fill="#000000">SNN::getNeuronMonitor</text>
</a>
</g>
</g>
<!-- Node355&#45;&gt;Node359 -->
<g id="edge15" class="edge">
<title>Node355&#45;&gt;Node359</title>
<path fill="none" stroke="#191970" d="M511.2337,-79.3577C523.4595,-80.1009 536.5812,-80.8986 549.3402,-81.6742"/>
<polygon fill="#191970" stroke="#191970" points="549.2769,-85.1767 559.4709,-82.29 549.7017,-78.1896 549.2769,-85.1767"/>
</g>
<!-- Node360 -->
<g id="node13" class="node">
<title>Node360</title>
<g id="a_node13"><a xlink:href="classSNN.html#a9aa73fa9478383c4af1eed8387d82db9" target="_top" xlink:title="SNN::getNeuronMonitorCore">
<polygon fill="#ffffff" stroke="#000000" points="549,-38.5 549,-57.5 692,-57.5 692,-38.5 549,-38.5"/>
<text text-anchor="middle" x="620.5" y="-45.5" font-family="Helvetica,sans-Serif" font-size="10.00" fill="#000000">SNN::getNeuronMonitorCore</text>
</a>
</g>
</g>
<!-- Node355&#45;&gt;Node360 -->
<g id="edge17" class="edge">
<title>Node355&#45;&gt;Node360</title>
<path fill="none" stroke="#191970" d="M511.2337,-66.5985C525.0536,-64.2462 540.0181,-61.699 554.3096,-59.2664"/>
<polygon fill="#191970" stroke="#191970" points="555.3002,-62.6483 564.5711,-57.5198 554.1256,-55.7475 555.3002,-62.6483"/>
</g>
<!-- Node357 -->
<g id="node10" class="node">
<title>Node357</title>
<g id="a_node10"><a xlink:href="classSNN.html#a292bdee57fec7c77ec4c15ea3f508d60" target="_top" xlink:title="SNN::getNumGroups">
<polygon fill="#ffffff" stroke="#000000" points="730.5,-57.5 730.5,-76.5 840.5,-76.5 840.5,-57.5 730.5,-57.5"/>
<text text-anchor="middle" x="785.5" y="-64.5" font-family="Helvetica,sans-Serif" font-size="10.00" fill="#000000">SNN::getNumGroups</text>
</a>
</g>
</g>
<!-- Node356&#45;&gt;Node357 -->
<g id="edge12" class="edge">
<title>Node356&#45;&gt;Node357</title>
<path fill="none" stroke="#191970" d="M660.1016,-19.5695C670.5534,-22.3543 681.7686,-25.5767 692,-29 713.3108,-36.1303 736.7356,-45.6535 754.8077,-53.3825"/>
<polygon fill="#191970" stroke="#191970" points="753.6818,-56.7089 764.2496,-57.4652 756.4601,-50.2838 753.6818,-56.7089"/>
</g>
<!-- Node358&#45;&gt;Node357 -->
<g id="edge14" class="edge">
<title>Node358&#45;&gt;Node357</title>
<path fill="none" stroke="#191970" d="M660.1016,-114.4305C670.5534,-111.6457 681.7686,-108.4233 692,-105 713.3108,-97.8697 736.7356,-88.3465 754.8077,-80.6175"/>
<polygon fill="#191970" stroke="#191970" points="756.4601,-83.7162 764.2496,-76.5348 753.6818,-77.2911 756.4601,-83.7162"/>
</g>
<!-- Node359&#45;&gt;Node357 -->
<g id="edge16" class="edge">
<title>Node359&#45;&gt;Node357</title>
<path fill="none" stroke="#191970" d="M681.9399,-78.9251C694.4474,-77.4848 707.647,-75.9649 720.2805,-74.5101"/>
<polygon fill="#191970" stroke="#191970" points="720.7331,-77.9812 730.267,-73.3602 719.9323,-71.0272 720.7331,-77.9812"/>
</g>
<!-- Node360&#45;&gt;Node357 -->
<g id="edge18" class="edge">
<title>Node360&#45;&gt;Node357</title>
<path fill="none" stroke="#191970" d="M692.3914,-56.2784C701.6037,-57.3392 710.9953,-58.4207 720.0967,-59.4687"/>
<polygon fill="#191970" stroke="#191970" points="719.8892,-62.9679 730.224,-60.6349 720.69,-56.0138 719.8892,-62.9679"/>
</g>
<!-- Node363 -->
<g id="node16" class="node">
<title>Node363</title>
<g id="a_node16"><a xlink:href="classNeuronMonitorCore.html#aaeb6a64ac5d9fd3b7a979f0f12ec87dc" target="_top" xlink:title="returns true if state buffers are close to maxAllowedBufferSize ">
<polygon fill="#ffffff" stroke="#000000" points="588,-256.5 588,-275.5 653,-275.5 653,-256.5 588,-256.5"/>
<text text-anchor="middle" x="620.5" y="-263.5" font-family="Helvetica,sans-Serif" font-size="10.00" fill="#000000">isBufferBig</text>
</a>
</g>
</g>
<!-- Node362&#45;&gt;Node363 -->
<g id="edge21" class="edge">
<title>Node362&#45;&gt;Node363</title>
<path fill="none" stroke="#191970" d="M497.5103,-294.411C522.1045,-288.7297 553.2003,-281.5464 577.9709,-275.8243"/>
<polygon fill="#191970" stroke="#191970" points="578.8601,-279.2112 587.8157,-273.5502 577.2845,-272.3908 578.8601,-279.2112"/>
</g>
<!-- Node364 -->
<g id="node17" class="node">
<title>Node364</title>
<g id="a_node17"><a xlink:href="classNeuronMonitorCore.html#a30f19d45f562061cc82c04e7289ba956" target="_top" xlink:title="returns the approximate size of the state vectors in bytes ">
<polygon fill="#ffffff" stroke="#000000" points="747.5,-275.5 747.5,-294.5 823.5,-294.5 823.5,-275.5 747.5,-275.5"/>
<text text-anchor="middle" x="785.5" y="-282.5" font-family="Helvetica,sans-Serif" font-size="10.00" fill="#000000">getBufferSize</text>
</a>
</g>
</g>
<!-- Node362&#45;&gt;Node364 -->
<g id="edge23" class="edge">
<title>Node362&#45;&gt;Node364</title>
<path fill="none" stroke="#191970" d="M499.0764,-301.5161C560.4645,-297.9762 672.7758,-291.5 737.0085,-287.7962"/>
<polygon fill="#191970" stroke="#191970" points="737.49,-291.2743 747.2719,-287.2044 737.087,-284.2859 737.49,-291.2743"/>
</g>
<!-- Node365 -->
<g id="node18" class="node">
<title>Node365</title>
<g id="a_node18"><a xlink:href="classNeuronMonitorCore.html#a3a0e4e77a2b83f5dd0e86aafcf227595" target="_top" xlink:title="returns the total accumulated time ">
<polygon fill="#ffffff" stroke="#000000" points="579,-218.5 579,-237.5 662,-237.5 662,-218.5 579,-218.5"/>
<text text-anchor="middle" x="620.5" y="-225.5" font-family="Helvetica,sans-Serif" font-size="10.00" fill="#000000">getAccumTime</text>
</a>
</g>
</g>
<!-- Node362&#45;&gt;Node365 -->
<g id="edge24" class="edge">
<title>Node362&#45;&gt;Node365</title>
<path fill="none" stroke="#191970" d="M493.3915,-294.4743C500.1909,-291.9369 507.0171,-288.8103 513,-285 532.6229,-272.5029 528.9991,-258.8827 549,-247 555.2251,-243.3016 562.1758,-240.3108 569.2307,-237.8951"/>
<polygon fill="#191970" stroke="#191970" points="570.3215,-241.2215 578.8572,-234.9452 568.2706,-234.5287 570.3215,-241.2215"/>
</g>
<!-- Node366 -->
<g id="node19" class="node">
<title>Node366</title>
<g id="a_node19"><a xlink:href="classNeuronMonitorCore.html#a4d3c2252230fe74bf03bcc3045ff8972" target="_top" xlink:title="writeNeuronFileHeader">
<polygon fill="#ffffff" stroke="#000000" points="562.5,-332.5 562.5,-351.5 678.5,-351.5 678.5,-332.5 562.5,-332.5"/>
<text text-anchor="middle" x="620.5" y="-339.5" font-family="Helvetica,sans-Serif" font-size="10.00" fill="#000000">writeNeuronFileHeader</text>
</a>
</g>
</g>
<!-- Node362&#45;&gt;Node366 -->
<g id="edge25" class="edge">
<title>Node362&#45;&gt;Node366</title>
<path fill="none" stroke="#191970" d="M497.5103,-313.589C519.3156,-318.6261 546.2318,-324.8438 569.3191,-330.1771"/>
<polygon fill="#191970" stroke="#191970" points="568.757,-333.6393 579.2882,-332.4799 570.3326,-326.8189 568.757,-333.6393"/>
</g>
<!-- Node368 -->
<g id="node21" class="node">
<title>Node368</title>
<g id="a_node21"><a xlink:href="classNeuronMonitorCore.html#a388f572c62279f839ee138a9afbdeeb5" target="_top" xlink:title="prints neuron states in human&#45;readable format ">
<polygon fill="#ffffff" stroke="#000000" points="603,-171.5 603,-190.5 638,-190.5 638,-171.5 603,-171.5"/>
<text text-anchor="middle" x="620.5" y="-178.5" font-family="Helvetica,sans-Serif" font-size="10.00" fill="#000000">print</text>
</a>
</g>
</g>
<!-- Node362&#45;&gt;Node368 -->
<g id="edge27" class="edge">
<title>Node362&#45;&gt;Node368</title>
<path fill="none" stroke="#191970" d="M498.0054,-294.4233C503.4413,-291.9624 508.628,-288.874 513,-285 540.9735,-260.2125 521.674,-234.4996 549,-209 561.1566,-197.6559 578.4399,-190.7193 592.9687,-186.5882"/>
<polygon fill="#191970" stroke="#191970" points="594.1179,-189.9075 602.9483,-184.053 592.3944,-183.1229 594.1179,-189.9075"/>
</g>
<!-- Node363&#45;&gt;Node364 -->
<g id="edge22" class="edge">
<title>Node363&#45;&gt;Node364</title>
<path fill="none" stroke="#191970" d="M653.0987,-269.7538C677.1663,-272.5252 710.3097,-276.3417 737.4147,-279.4629"/>
<polygon fill="#191970" stroke="#191970" points="737.141,-282.9544 747.4757,-280.6214 737.9418,-276.0004 737.141,-282.9544"/>
</g>
<!-- Node367 -->
<g id="node20" class="node">
<title>Node367</title>
<g id="a_node20"><a xlink:href="classSNN.html#ac13b30c40669d3cb8264bd6e211b449d" target="_top" xlink:title="SNN::getGroupGrid3D">
<polygon fill="#ffffff" stroke="#000000" points="728,-332.5 728,-351.5 843,-351.5 843,-332.5 728,-332.5"/>
<text text-anchor="middle" x="785.5" y="-339.5" font-family="Helvetica,sans-Serif" font-size="10.00" fill="#000000">SNN::getGroupGrid3D</text>
</a>
</g>
</g>
<!-- Node366&#45;&gt;Node367 -->
<g id="edge26" class="edge">
<title>Node366&#45;&gt;Node367</title>
<path fill="none" stroke="#191970" d="M678.6728,-342C691.2651,-342 704.6878,-342 717.6159,-342"/>
<polygon fill="#191970" stroke="#191970" points="717.8526,-345.5001 727.8526,-342 717.8525,-338.5001 717.8526,-345.5001"/>
</g>
<!-- Node368&#45;&gt;Node348 -->
<g id="edge28" class="edge">
<title>Node368&#45;&gt;Node348</title>
<path fill="none" stroke="#191970" d="M604.8329,-171.459C584.5181,-159.6998 547.5831,-140.3702 513,-133 335.1616,-95.0998 269.2656,-67.1701 104,-143 77.6207,-155.1038 56.6244,-182.266 44.7441,-200.6174"/>
<polygon fill="#191970" stroke="#191970" points="41.6669,-198.9388 39.3821,-209.2844 47.6198,-202.6217 41.6669,-198.9388"/>
</g>
<!-- Node370&#45;&gt;Node348 -->
<g id="edge35" class="edge">
<title>Node370&#45;&gt;Node348</title>
<path fill="none" stroke="#191970" d="M106.9492,-225.489C97.6522,-225.7919 87.7042,-225.8312 78.2386,-225.6067"/>
<polygon fill="#191970" stroke="#191970" points="78.3255,-222.1077 68.2104,-225.2596 78.0833,-229.1035 78.3255,-222.1077"/>
</g>
<!-- Node370&#45;&gt;Node352 -->
<g id="edge36" class="edge">
<title>Node370&#45;&gt;Node352</title>
<path fill="none" stroke="#191970" d="M176.8488,-228.5112C199.2666,-235.6544 230.1931,-245.509 254.7122,-253.3218"/>
<polygon fill="#191970" stroke="#191970" points="253.8522,-256.7211 264.4428,-256.4224 255.9774,-250.0515 253.8522,-256.7211"/>
</g>
<!-- Node370&#45;&gt;Node355 -->
<g id="edge38" class="edge">
<title>Node370&#45;&gt;Node355</title>
<path fill="none" stroke="#191970" d="M176.7797,-209.4757C219.178,-195.4598 298.9054,-167.4059 363,-135 388.5158,-122.0993 415.9535,-104.1397 434.3624,-91.4326"/>
<polygon fill="#191970" stroke="#191970" points="436.4314,-94.2567 442.6262,-85.6616 432.4236,-88.5176 436.4314,-94.2567"/>
</g>
<!-- Node370&#45;&gt;Node361 -->
<g id="edge37" class="edge">
<title>Node370&#45;&gt;Node361</title>
<path fill="none" stroke="#191970" d="M187.0596,-223.8718C231.8637,-227.6204 305.6638,-228.6235 363,-204 382.9437,-195.435 380.293,-182.0073 399,-171 402.5905,-168.8873 406.448,-166.9714 410.4017,-165.2423"/>
<polygon fill="#191970" stroke="#191970" points="411.719,-168.4852 419.7216,-161.542 409.1358,-161.9792 411.719,-168.4852"/>
</g>
<!-- Node371&#45;&gt;Node348 -->
<g id="edge41" class="edge">
<title>Node371&#45;&gt;Node348</title>
<path fill="none" stroke="#191970" d="M112.496,-285.2376C109.5938,-283.5332 106.7281,-281.764 104,-280 83.1708,-266.5315 60.3303,-249.0029 46.585,-235.7687"/>
<polygon fill="#191970" stroke="#191970" points="49.0822,-233.3161 39.627,-228.5361 44.0376,-238.1692 49.0822,-233.3161"/>
</g>
<!-- Node371&#45;&gt;Node366 -->
<g id="edge42" class="edge">
<title>Node371&#45;&gt;Node366</title>
<path fill="none" stroke="#191970" d="M190.219,-300.1357C240.3839,-306.0194 325.6224,-315.7775 399,-323 450.314,-328.0508 508.3922,-333.0043 552.2005,-336.5866"/>
<polygon fill="#191970" stroke="#191970" points="551.917,-340.075 562.1681,-337.3982 552.4852,-333.0981 551.917,-340.075"/>
</g>
</g>
</svg>
        <g id="navigator" transform="translate(0 0)" fill="#404254">
                <rect fill="#f2f5e9" fill-opacity="0.5" stroke="#606060" stroke-width=".5" x="0" y="0" width="60" height="60"/>
                <use id="zoomplus" xlink:href="#zoomPlus" x="17" y="9" onmousedown="handleZoom(evt,'in')"/>
                <use id="zoomminus" xlink:href="#zoomMin" x="42" y="9" onmousedown="handleZoom(evt,'out')"/>
                <use id="reset" xlink:href="#resetDef" x="30" y="36" onmousedown="handleReset()"/>
                <g id="arrowUp" xlink:href="#dirArrow" transform="translate(30 24)" onmousedown="handlePan(0,-1)">
                  <use xlink:href="#rim" fill="#404040">
                        <set attributeName="fill" to="#808080" begin="arrowUp.mouseover" end="arrowUp.mouseout"/>
                  </use>
                  <path fill="none" stroke="white" stroke-width="1.5" d="M0,-3.0v7 M-2.5,-0.5L0,-3.0L2.5,-0.5"/>
                </g>
                <g id="arrowRight" xlink:href="#dirArrow" transform="rotate(90) translate(36 -43)" onmousedown="handlePan(1,0)">
                  <use xlink:href="#rim" fill="#404040">
                        <set attributeName="fill" to="#808080" begin="arrowRight.mouseover" end="arrowRight.mouseout"/>
                  </use>
                  <path fill="none" stroke="white" stroke-width="1.5" d="M0,-3.0v7 M-2.5,-0.5L0,-3.0L2.5,-0.5"/>
                </g>
                <g id="arrowDown" xlink:href="#dirArrow" transform="rotate(180) translate(-30 -48)" onmousedown="handlePan(0,1)">
                  <use xlink:href="#rim" fill="#404040">
                        <set attributeName="fill" to="#808080" begin="arrowDown.mouseover" end="arrowDown.mouseout"/>
                  </use>
                  <path fill="none" stroke="white" stroke-width="1.5" d="M0,-3.0v7 M-2.5,-0.5L0,-3.0L2.5,-0.5"/>
                </g>
                <g id="arrowLeft" xlink:href="#dirArrow" transform="rotate(270) translate(-36 17)" onmousedown="handlePan(-1,0)">
                  <use xlink:href="#rim" fill="#404040">
                        <set attributeName="fill" to="#808080" begin="arrowLeft.mouseover" end="arrowLeft.mouseout"/>
                  </use>
                  <path fill="none" stroke="white" stroke-width="1.5" d="M0,-3.0v7 M-2.5,-0.5L0,-3.0L2.5,-0.5"/>
                </g>
        </g>
        <svg viewBox="0 0 15 15" width="100%" height="30px" preserveAspectRatio="xMaxYMin meet">
         <g id="arrow_out" transform="scale(0.3 0.3)">
          <a xlink:href="classNeuronMonitorCore_a3a3ffdb35b09328d22e5d72503ed1f55_cgraph_org.svg" target="_base">
           <rect id="button" ry="5" rx="5" y="6" x="6" height="38" width="38"
                fill="#f2f5e9" fill-opacity="0.5" stroke="#606060" stroke-width="1.0"/>
           <path id="arrow"
             d="M 11.500037,31.436501 C 11.940474,20.09759 22.043105,11.32322 32.158766,21.979434 L 37.068811,17.246167 C 37.068811,17.246167 37.088388,32 37.088388,32 L 22.160133,31.978069 C 22.160133,31.978069 26.997745,27.140456 26.997745,27.140456 C 18.528582,18.264221 13.291696,25.230495 11.500037,31.436501 z"
             style="fill:#404040;"/>
          </a>
         </g>
        </svg>
</svg>
