<?xml version="1.0" encoding="UTF-8" standalone="no"?>
<!DOCTYPE svg PUBLIC "-//W3C//DTD SVG 1.1//EN"
 "http://www.w3.org/Graphics/SVG/1.1/DTD/svg11.dtd">
<!-- Generated by graphviz version 2.40.1 (20161225.0304)
 -->
<!-- Title: setSpikeMonitor Pages: 1 -->
<svg width="1687pt" height="695pt"
 viewBox="0.00 0.00 1687.00 695.00" xmlns="http://www.w3.org/2000/svg" xmlns:xlink="http://www.w3.org/1999/xlink">
<g id="graph0" class="graph" transform="scale(1 1) rotate(0) translate(4 691)">
<title>setSpikeMonitor</title>
<polygon fill="#ffffff" stroke="transparent" points="-4,4 -4,-691 1683,-691 1683,4 -4,4"/>
<!-- Node1157 -->
<g id="node1" class="node">
<title>Node1157</title>
<polygon fill="#bfbfbf" stroke="#000000" points="0,-620.5 0,-639.5 87,-639.5 87,-620.5 0,-620.5"/>
<text text-anchor="middle" x="43.5" y="-627.5" font-family="Helvetica,sans-Serif" font-size="10.00" fill="#000000">setSpikeMonitor</text>
</g>
<!-- Node1158 -->
<g id="node2" class="node">
<title>Node1158</title>
<g id="a_node2"><a xlink:href="classCARLsim_1_1Impl.html#ab0367f8ebd4019bf7d34ebddb1563fe7" target="_top" xlink:title="getGroupName">
<polygon fill="#ffffff" stroke="#000000" points="139,-601.5 139,-620.5 222,-620.5 222,-601.5 139,-601.5"/>
<text text-anchor="middle" x="180.5" y="-608.5" font-family="Helvetica,sans-Serif" font-size="10.00" fill="#000000">getGroupName</text>
</a>
</g>
</g>
<!-- Node1157&#45;&gt;Node1158 -->
<g id="edge1" class="edge">
<title>Node1157&#45;&gt;Node1158</title>
<path fill="none" stroke="#191970" d="M87.2243,-623.936C100.3288,-622.1186 114.8313,-620.1073 128.4182,-618.223"/>
<polygon fill="#191970" stroke="#191970" points="129.1669,-621.6528 138.5913,-616.8122 128.2053,-614.7191 129.1669,-621.6528"/>
</g>
<!-- Node1159 -->
<g id="node3" class="node">
<title>Node1159</title>
<g id="a_node3"><a xlink:href="classUserErrors.html#a4bbedc6c0817d5e59e74e450bf00472c" target="_top" xlink:title="simple wrapper for assert statement ">
<polygon fill="#ffffff" stroke="#000000" points="285.5,-639.5 285.5,-658.5 401.5,-658.5 401.5,-639.5 285.5,-639.5"/>
<text text-anchor="middle" x="343.5" y="-646.5" font-family="Helvetica,sans-Serif" font-size="10.00" fill="#000000">UserErrors::assertTrue</text>
</a>
</g>
</g>
<!-- Node1157&#45;&gt;Node1159 -->
<g id="edge6" class="edge">
<title>Node1157&#45;&gt;Node1159</title>
<path fill="none" stroke="#191970" d="M87.1226,-632.7628C136.4864,-635.8891 217.5181,-641.0211 275.2661,-644.6785"/>
<polygon fill="#191970" stroke="#191970" points="275.2029,-648.1814 285.4042,-645.3206 275.6454,-641.1954 275.2029,-648.1814"/>
</g>
<!-- Node1162 -->
<g id="node6" class="node">
<title>Node1162</title>
<g id="a_node6"><a xlink:href="classSNN.html#ab0367f8ebd4019bf7d34ebddb1563fe7" target="_top" xlink:title="SNN::getGroupName">
<polygon fill="#ffffff" stroke="#000000" points="826.5,-601.5 826.5,-620.5 936.5,-620.5 936.5,-601.5 826.5,-601.5"/>
<text text-anchor="middle" x="881.5" y="-608.5" font-family="Helvetica,sans-Serif" font-size="10.00" fill="#000000">SNN::getGroupName</text>
</a>
</g>
</g>
<!-- Node1157&#45;&gt;Node1162 -->
<g id="edge7" class="edge">
<title>Node1157&#45;&gt;Node1162</title>
<path fill="none" stroke="#191970" d="M73.3759,-639.5405C126.9219,-655.767 243.0364,-687 343.5,-687 343.5,-687 343.5,-687 525,-687 644.5384,-687 781.7662,-645.6217 845.4956,-623.9287"/>
<polygon fill="#191970" stroke="#191970" points="846.7652,-627.1932 855.0788,-620.6255 844.4841,-620.5753 846.7652,-627.1932"/>
</g>
<!-- Node1163 -->
<g id="node7" class="node">
<title>Node1163</title>
<g id="a_node7"><a xlink:href="classSNN.html#ace11f3a7995a24298caf842498eebbaf" target="_top" xlink:title="sets up a spike monitor registered with a callback to process the spikes, there can only be one Spike...">
<polygon fill="#ffffff" stroke="#000000" points="123,-79.5 123,-98.5 238,-98.5 238,-79.5 123,-79.5"/>
<text text-anchor="middle" x="180.5" y="-86.5" font-family="Helvetica,sans-Serif" font-size="10.00" fill="#000000">SNN::setSpikeMonitor</text>
</a>
</g>
</g>
<!-- Node1157&#45;&gt;Node1163 -->
<g id="edge8" class="edge">
<title>Node1157&#45;&gt;Node1163</title>
<path fill="none" stroke="#191970" d="M45.9948,-620.1481C62.2711,-555.8748 153.3635,-196.1594 175.6023,-108.3404"/>
<polygon fill="#191970" stroke="#191970" points="179.0047,-109.1621 178.0667,-98.6089 172.2189,-107.4436 179.0047,-109.1621"/>
</g>
<!-- Node1158&#45;&gt;Node1159 -->
<g id="edge2" class="edge">
<title>Node1158&#45;&gt;Node1159</title>
<path fill="none" stroke="#191970" d="M221.6318,-620.589C243.2383,-625.6261 269.909,-631.8438 292.7858,-637.1771"/>
<polygon fill="#191970" stroke="#191970" points="292.1305,-640.6181 302.664,-639.4799 293.7198,-633.8009 292.1305,-640.6181"/>
</g>
<!-- Node1160 -->
<g id="node4" class="node">
<title>Node1160</title>
<g id="a_node4"><a xlink:href="classCARLsim_1_1Impl.html#a292bdee57fec7c77ec4c15ea3f508d60" target="_top" xlink:title="getNumGroups">
<polygon fill="#ffffff" stroke="#000000" points="302,-76.5 302,-95.5 385,-95.5 385,-76.5 302,-76.5"/>
<text text-anchor="middle" x="343.5" y="-83.5" font-family="Helvetica,sans-Serif" font-size="10.00" fill="#000000">getNumGroups</text>
</a>
</g>
</g>
<!-- Node1158&#45;&gt;Node1160 -->
<g id="edge3" class="edge">
<title>Node1158&#45;&gt;Node1160</title>
<path fill="none" stroke="#191970" d="M180.923,-601.3362C183.8904,-537.9305 203.5683,-181.6218 274,-105 279.005,-99.5551 285.4054,-95.6117 292.2896,-92.7669"/>
<polygon fill="#191970" stroke="#191970" points="293.5331,-96.0412 301.8914,-89.5304 291.2972,-89.4079 293.5331,-96.0412"/>
</g>
<!-- Node1158&#45;&gt;Node1162 -->
<g id="edge5" class="edge">
<title>Node1158&#45;&gt;Node1162</title>
<path fill="none" stroke="#191970" d="M222.2514,-611C339.7175,-611 673.7339,-611 816.0183,-611"/>
<polygon fill="#191970" stroke="#191970" points="816.3338,-614.5001 826.3337,-611 816.3337,-607.5001 816.3338,-614.5001"/>
</g>
<!-- Node1161 -->
<g id="node5" class="node">
<title>Node1161</title>
<g id="a_node5"><a xlink:href="classSNN.html#a292bdee57fec7c77ec4c15ea3f508d60" target="_top" xlink:title="SNN::getNumGroups">
<polygon fill="#ffffff" stroke="#000000" points="470,-19.5 470,-38.5 580,-38.5 580,-19.5 470,-19.5"/>
<text text-anchor="middle" x="525" y="-26.5" font-family="Helvetica,sans-Serif" font-size="10.00" fill="#000000">SNN::getNumGroups</text>
</a>
</g>
</g>
<!-- Node1160&#45;&gt;Node1161 -->
<g id="edge4" class="edge">
<title>Node1160&#45;&gt;Node1161</title>
<path fill="none" stroke="#191970" d="M384.4145,-76.4162C393.929,-73.7491 403.9257,-70.5849 413,-67 429.8262,-60.3526 432.1021,-54.4629 449,-48 455.4012,-45.5518 462.227,-43.3312 469.0623,-41.3435"/>
<polygon fill="#191970" stroke="#191970" points="470.3226,-44.6268 479.0352,-38.5985 468.4649,-37.8778 470.3226,-44.6268"/>
</g>
<!-- Node1164 -->
<g id="node8" class="node">
<title>Node1164</title>
<g id="a_node8"><a xlink:href="classSNN.html#a866a9c6e2b2630816fc66adda1381655" target="_top" xlink:title="Returns pointer to existing SpikeMonitor object, NULL else. ">
<polygon fill="#ffffff" stroke="#000000" points="286,-38.5 286,-57.5 401,-57.5 401,-38.5 286,-38.5"/>
<text text-anchor="middle" x="343.5" y="-45.5" font-family="Helvetica,sans-Serif" font-size="10.00" fill="#000000">SNN::getSpikeMonitor</text>
</a>
</g>
</g>
<!-- Node1163&#45;&gt;Node1164 -->
<g id="edge9" class="edge">
<title>Node1163&#45;&gt;Node1164</title>
<path fill="none" stroke="#191970" d="M218.3052,-79.4907C241.3668,-73.6899 271.0554,-66.2223 295.7334,-60.0149"/>
<polygon fill="#191970" stroke="#191970" points="296.7737,-63.3623 305.6179,-57.5286 295.0661,-56.5738 296.7737,-63.3623"/>
</g>
<!-- Node1165 -->
<g id="node9" class="node">
<title>Node1165</title>
<g id="a_node9"><a xlink:href="classSNN.html#ad25000cd1457c9b9869122534ada6fdd" target="_top" xlink:title="SNN::getSpikeMonitorCore">
<polygon fill="#ffffff" stroke="#000000" points="275.5,-.5 275.5,-19.5 411.5,-19.5 411.5,-.5 275.5,-.5"/>
<text text-anchor="middle" x="343.5" y="-7.5" font-family="Helvetica,sans-Serif" font-size="10.00" fill="#000000">SNN::getSpikeMonitorCore</text>
</a>
</g>
</g>
<!-- Node1163&#45;&gt;Node1165 -->
<g id="edge11" class="edge">
<title>Node1163&#45;&gt;Node1165</title>
<path fill="none" stroke="#191970" d="M192.8059,-79.3504C210.053,-66.2489 242.8101,-42.8797 274,-29 279.3445,-26.6217 285.0556,-24.4782 290.8211,-22.5632"/>
<polygon fill="#191970" stroke="#191970" points="292.006,-25.8603 300.5202,-19.5549 289.9322,-19.1745 292.006,-25.8603"/>
</g>
<!-- Node1166 -->
<g id="node10" class="node">
<title>Node1166</title>
<g id="a_node10"><a xlink:href="classSpikeMonitorCore.html#a1d57dedf987505ea4cdcd4475578ce68" target="_top" xlink:title="sets pointer to spike file ">
<polygon fill="#ffffff" stroke="#000000" points="274,-115 274,-145 413,-145 413,-115 274,-115"/>
<text text-anchor="start" x="282" y="-133" font-family="Helvetica,sans-Serif" font-size="10.00" fill="#000000">SpikeMonitorCore::setSpike</text>
<text text-anchor="middle" x="343.5" y="-122" font-family="Helvetica,sans-Serif" font-size="10.00" fill="#000000">FileId</text>
</a>
</g>
</g>
<!-- Node1163&#45;&gt;Node1166 -->
<g id="edge13" class="edge">
<title>Node1163&#45;&gt;Node1166</title>
<path fill="none" stroke="#191970" d="M218.3052,-98.5093C234.803,-102.659 254.6923,-107.6619 273.7125,-112.4461"/>
<polygon fill="#191970" stroke="#191970" points="273.0053,-115.8772 283.557,-114.9223 274.7129,-109.0886 273.0053,-115.8772"/>
</g>
<!-- Node1164&#45;&gt;Node1161 -->
<g id="edge10" class="edge">
<title>Node1164&#45;&gt;Node1161</title>
<path fill="none" stroke="#191970" d="M401.1771,-41.9622C419.8304,-40.0095 440.6433,-37.8307 459.802,-35.8251"/>
<polygon fill="#191970" stroke="#191970" points="460.3681,-39.2851 469.9494,-34.7629 459.6393,-32.3231 460.3681,-39.2851"/>
</g>
<!-- Node1165&#45;&gt;Node1161 -->
<g id="edge12" class="edge">
<title>Node1165&#45;&gt;Node1161</title>
<path fill="none" stroke="#191970" d="M411.6003,-17.129C427.3605,-18.7788 444.0943,-20.5305 459.73,-22.1673"/>
<polygon fill="#191970" stroke="#191970" points="459.5149,-25.6639 469.825,-23.2241 460.2438,-18.7019 459.5149,-25.6639"/>
</g>
<!-- Node1167 -->
<g id="node11" class="node">
<title>Node1167</title>
<g id="a_node11"><a xlink:href="classSpikeMonitorCore.html#a3a3ffdb35b09328d22e5d72503ed1f55" target="_top" xlink:title="returns recording status ">
<polygon fill="#ffffff" stroke="#000000" points="449,-247.5 449,-266.5 601,-266.5 601,-247.5 449,-247.5"/>
<text text-anchor="middle" x="525" y="-254.5" font-family="Helvetica,sans-Serif" font-size="10.00" fill="#000000">SpikeMonitorCore::isRecording</text>
</a>
</g>
</g>
<!-- Node1166&#45;&gt;Node1167 -->
<g id="edge14" class="edge">
<title>Node1166&#45;&gt;Node1167</title>
<path fill="none" stroke="#191970" d="M365.0332,-145.0673C399.6849,-169.314 467.4857,-216.7558 502.6503,-241.3614"/>
<polygon fill="#191970" stroke="#191970" points="501.0487,-244.5124 511.2487,-247.3779 505.0619,-238.777 501.0487,-244.5124"/>
</g>
<!-- Node1172 -->
<g id="node16" class="node">
<title>Node1172</title>
<g id="a_node16"><a xlink:href="classSpikeMonitorCore.html#abe76071e1ac3632d55f2455b239b3d12" target="_top" xlink:title="returns recording mode ">
<polygon fill="#ffffff" stroke="#000000" points="1541,-133.5 1541,-152.5 1679,-152.5 1679,-133.5 1541,-133.5"/>
<text text-anchor="middle" x="1610" y="-140.5" font-family="Helvetica,sans-Serif" font-size="10.00" fill="#000000">SpikeMonitorCore::getMode</text>
</a>
</g>
</g>
<!-- Node1166&#45;&gt;Node1172 -->
<g id="edge41" class="edge">
<title>Node1166&#45;&gt;Node1172</title>
<path fill="none" stroke="#191970" d="M413.0362,-122.3974C486.4035,-115.0422 605.4444,-105 708.5,-105 708.5,-105 708.5,-105 1244,-105 1349.0957,-105 1470.2632,-120.6928 1543.4451,-131.9092"/>
<polygon fill="#191970" stroke="#191970" points="1543.028,-135.3862 1553.4463,-133.46 1544.1007,-128.4689 1543.028,-135.3862"/>
</g>
<!-- Node1179 -->
<g id="node23" class="node">
<title>Node1179</title>
<g id="a_node23"><a xlink:href="classSNN.html#ac13b30c40669d3cb8264bd6e211b449d" target="_top" xlink:title="SNN::getGroupGrid3D">
<polygon fill="#ffffff" stroke="#000000" points="467.5,-57.5 467.5,-76.5 582.5,-76.5 582.5,-57.5 467.5,-57.5"/>
<text text-anchor="middle" x="525" y="-64.5" font-family="Helvetica,sans-Serif" font-size="10.00" fill="#000000">SNN::getGroupGrid3D</text>
</a>
</g>
</g>
<!-- Node1166&#45;&gt;Node1179 -->
<g id="edge42" class="edge">
<title>Node1166&#45;&gt;Node1179</title>
<path fill="none" stroke="#191970" d="M385.8293,-114.9687C394.8147,-111.7234 404.2331,-108.2808 413,-105 429.0783,-98.983 432.8062,-96.6989 449,-91 460.1044,-87.0921 472.2221,-83.131 483.453,-79.5835"/>
<polygon fill="#191970" stroke="#191970" points="484.5465,-82.9088 493.0466,-76.5844 482.4578,-76.2277 484.5465,-82.9088"/>
</g>
<!-- Node1168 -->
<g id="node12" class="node">
<title>Node1168</title>
<g id="a_node12"><a xlink:href="classSpikeMonitorCore.html#af0ba89c38f6852cdf9d914687ad6a445" target="_top" xlink:title="prints the AER vector in human&#45;readable format ">
<polygon fill="#ffffff" stroke="#000000" points="649,-411.5 649,-430.5 768,-430.5 768,-411.5 649,-411.5"/>
<text text-anchor="middle" x="708.5" y="-418.5" font-family="Helvetica,sans-Serif" font-size="10.00" fill="#000000">SpikeMonitorCore::print</text>
</a>
</g>
</g>
<!-- Node1167&#45;&gt;Node1168 -->
<g id="edge15" class="edge">
<title>Node1167&#45;&gt;Node1168</title>
<path fill="none" stroke="#191970" d="M533.064,-266.8673C549.1062,-291.4904 587.759,-353.5881 637,-388 650.6456,-397.5362 668.373,-403.5199 682.7621,-408.2301"/>
<polygon fill="#191970" stroke="#191970" points="681.9501,-411.6481 692.5434,-411.4674 684.1496,-405.0026 681.9501,-411.6481"/>
</g>
<!-- Node1178 -->
<g id="node22" class="node">
<title>Node1178</title>
<g id="a_node22"><a xlink:href="classSpikeMonitorCore.html#a6e116c2994e0449c41e56d03370fa54c" target="_top" xlink:title="inserts a (time,neurId) tupel into the 2D spike vector ">
<polygon fill="#ffffff" stroke="#000000" points="637,-133.5 637,-152.5 780,-152.5 780,-133.5 637,-133.5"/>
<text text-anchor="middle" x="708.5" y="-140.5" font-family="Helvetica,sans-Serif" font-size="10.00" fill="#000000">SpikeMonitorCore::pushAER</text>
</a>
</g>
</g>
<!-- Node1167&#45;&gt;Node1178 -->
<g id="edge38" class="edge">
<title>Node1167&#45;&gt;Node1178</title>
<path fill="none" stroke="#191970" d="M530.3138,-247.4396C545.5538,-227.1707 591.2577,-183.0118 637,-158 637.6678,-157.6349 638.3421,-157.2739 639.0223,-156.9173"/>
<polygon fill="#191970" stroke="#191970" points="640.6482,-160.0192 648.1448,-152.5325 637.6156,-153.7102 640.6482,-160.0192"/>
</g>
<!-- Node1168&#45;&gt;Node1162 -->
<g id="edge18" class="edge">
<title>Node1168&#45;&gt;Node1162</title>
<path fill="none" stroke="#191970" d="M715.9676,-430.6315C732.9732,-452.3948 776.1965,-506.7596 816,-549 831.1175,-565.043 849.4164,-582.1911 862.8259,-594.3771"/>
<polygon fill="#191970" stroke="#191970" points="860.7001,-597.173 870.4711,-601.2691 865.3871,-591.9737 860.7001,-597.173"/>
</g>
<!-- Node1168&#45;&gt;Node1167 -->
<g id="edge16" class="edge">
<title>Node1168&#45;&gt;Node1167</title>
<path fill="none" stroke="#191970" d="M648.6812,-412.8898C644.5901,-410.8463 640.6491,-408.5502 637,-406 587.0424,-371.0873 547.9835,-307.6773 532.378,-275.7617"/>
<polygon fill="#191970" stroke="#191970" points="535.513,-274.2017 528.1513,-266.5822 529.1546,-277.1294 535.513,-274.2017"/>
</g>
<!-- Node1169 -->
<g id="node13" class="node">
<title>Node1169</title>
<g id="a_node13"><a xlink:href="classSNN.html#a5fd2b156623d78138bcb44167eabab78" target="_top" xlink:title="SNN::getSimTime">
<polygon fill="#ffffff" stroke="#000000" points="833,-411.5 833,-430.5 930,-430.5 930,-411.5 833,-411.5"/>
<text text-anchor="middle" x="881.5" y="-418.5" font-family="Helvetica,sans-Serif" font-size="10.00" fill="#000000">SNN::getSimTime</text>
</a>
</g>
</g>
<!-- Node1168&#45;&gt;Node1169 -->
<g id="edge17" class="edge">
<title>Node1168&#45;&gt;Node1169</title>
<path fill="none" stroke="#191970" d="M768.0368,-421C785.6849,-421 804.9968,-421 822.6041,-421"/>
<polygon fill="#191970" stroke="#191970" points="822.7486,-424.5001 832.7486,-421 822.7486,-417.5001 822.7486,-424.5001"/>
</g>
<!-- Node1170 -->
<g id="node14" class="node">
<title>Node1170</title>
<g id="a_node14"><a xlink:href="classSpikeMonitorCore.html#af6c333e6cefff92d0e354eca70625cdc" target="_top" xlink:title="returns the total number of recorded spikes in the group ">
<polygon fill="#ffffff" stroke="#000000" points="1178.5,-291 1178.5,-321 1309.5,-321 1309.5,-291 1178.5,-291"/>
<text text-anchor="start" x="1186.5" y="-309" font-family="Helvetica,sans-Serif" font-size="10.00" fill="#000000">SpikeMonitorCore::getPop</text>
<text text-anchor="middle" x="1244" y="-298" font-family="Helvetica,sans-Serif" font-size="10.00" fill="#000000">NumSpikes</text>
</a>
</g>
</g>
<!-- Node1168&#45;&gt;Node1170 -->
<g id="edge19" class="edge">
<title>Node1168&#45;&gt;Node1170</title>
<path fill="none" stroke="#191970" d="M752.7778,-411.4912C844.2371,-391.8501 1054.9252,-346.6043 1168.3783,-322.2399"/>
<polygon fill="#191970" stroke="#191970" points="1169.3369,-325.614 1178.3791,-320.0923 1167.8671,-318.77 1169.3369,-325.614"/>
</g>
<!-- Node1173 -->
<g id="node17" class="node">
<title>Node1173</title>
<g id="a_node17"><a xlink:href="classSpikeMonitorCore.html#a9cf20c30ff0efdbc5e3c5194648a7fb3" target="_top" xlink:title="returns the total recorded time in ms ">
<polygon fill="#ffffff" stroke="#000000" points="1165,-482 1165,-512 1323,-512 1323,-482 1165,-482"/>
<text text-anchor="start" x="1173" y="-500" font-family="Helvetica,sans-Serif" font-size="10.00" fill="#000000">SpikeMonitorCore::getRecording</text>
<text text-anchor="middle" x="1244" y="-489" font-family="Helvetica,sans-Serif" font-size="10.00" fill="#000000">TotalTime</text>
</a>
</g>
</g>
<!-- Node1168&#45;&gt;Node1173 -->
<g id="edge24" class="edge">
<title>Node1168&#45;&gt;Node1173</title>
<path fill="none" stroke="#191970" d="M731.9745,-430.6077C753.4662,-438.9807 786.3442,-450.7359 816,-457 931.3647,-481.368 1067.3535,-490.8936 1154.5678,-494.6156"/>
<polygon fill="#191970" stroke="#191970" points="1154.5585,-498.118 1164.6936,-495.0309 1154.8455,-491.1239 1154.5585,-498.118"/>
</g>
<!-- Node1174 -->
<g id="node18" class="node">
<title>Node1174</title>
<g id="a_node18"><a xlink:href="classSpikeMonitorCore.html#ae62d623e8edfc6b05309256c1d825bbd" target="_top" xlink:title="returns the recorded mean firing rate of the group ">
<polygon fill="#ffffff" stroke="#000000" points="990.5,-374 990.5,-404 1121.5,-404 1121.5,-374 990.5,-374"/>
<text text-anchor="start" x="998.5" y="-392" font-family="Helvetica,sans-Serif" font-size="10.00" fill="#000000">SpikeMonitorCore::getPop</text>
<text text-anchor="middle" x="1056" y="-381" font-family="Helvetica,sans-Serif" font-size="10.00" fill="#000000">MeanFiringRate</text>
</a>
</g>
</g>
<!-- Node1168&#45;&gt;Node1174 -->
<g id="edge25" class="edge">
<title>Node1168&#45;&gt;Node1174</title>
<path fill="none" stroke="#191970" d="M744.9253,-430.522C792.1091,-441.3559 876.651,-455.6439 947,-440 973.8258,-434.0346 1001.8609,-420.7353 1022.7806,-409.2135"/>
<polygon fill="#191970" stroke="#191970" points="1024.5892,-412.2117 1031.5734,-404.2447 1021.1453,-406.1174 1024.5892,-412.2117"/>
</g>
<!-- Node1175 -->
<g id="node19" class="node">
<title>Node1175</title>
<g id="a_node19"><a xlink:href="classSpikeMonitorCore.html#ad0c4b32bb5cc0c7a8d95ed6023a2695f" target="_top" xlink:title="computes the standard deviation of firing rates in the group ">
<polygon fill="#ffffff" stroke="#000000" points="816,-286 816,-316 947,-316 947,-286 816,-286"/>
<text text-anchor="start" x="824" y="-304" font-family="Helvetica,sans-Serif" font-size="10.00" fill="#000000">SpikeMonitorCore::getPop</text>
<text text-anchor="middle" x="881.5" y="-293" font-family="Helvetica,sans-Serif" font-size="10.00" fill="#000000">StdFiringRate</text>
</a>
</g>
</g>
<!-- Node1168&#45;&gt;Node1175 -->
<g id="edge29" class="edge">
<title>Node1168&#45;&gt;Node1175</title>
<path fill="none" stroke="#191970" d="M718.1693,-411.3409C736.1982,-393.7046 776.6917,-355.8232 816,-331 821.8264,-327.3206 828.1786,-323.8355 834.5605,-320.6314"/>
<polygon fill="#191970" stroke="#191970" points="836.3818,-323.6391 843.8742,-316.1482 833.3457,-317.3318 836.3818,-323.6391"/>
</g>
<!-- Node1177 -->
<g id="node21" class="node">
<title>Node1177</title>
<g id="a_node21"><a xlink:href="classSpikeMonitorCore.html#aed09edf4583ac05d42fccc7e3556e3c5" target="_top" xlink:title="returns the recorded mean firing rate for a specific neuron ">
<polygon fill="#ffffff" stroke="#000000" points="983,-526 983,-556 1129,-556 1129,-526 983,-526"/>
<text text-anchor="start" x="991" y="-544" font-family="Helvetica,sans-Serif" font-size="10.00" fill="#000000">SpikeMonitorCore::getNeuron</text>
<text text-anchor="middle" x="1056" y="-533" font-family="Helvetica,sans-Serif" font-size="10.00" fill="#000000">MeanFiringRate</text>
</a>
</g>
</g>
<!-- Node1168&#45;&gt;Node1177 -->
<g id="edge34" class="edge">
<title>Node1168&#45;&gt;Node1177</title>
<path fill="none" stroke="#191970" d="M716.4897,-430.6671C732.8883,-449.75 772.483,-492.0505 816,-511 865.1384,-532.3973 924.9367,-539.9156 972.5508,-542.0755"/>
<polygon fill="#191970" stroke="#191970" points="972.6998,-545.5836 982.8261,-542.4677 972.9669,-538.5887 972.6998,-545.5836"/>
</g>
<!-- Node1170&#45;&gt;Node1167 -->
<g id="edge20" class="edge">
<title>Node1170&#45;&gt;Node1167</title>
<path fill="none" stroke="#191970" d="M1216.6273,-290.9511C1193.9218,-279.3714 1160.3903,-264.3152 1129,-258 947.6994,-221.5256 729.5439,-234.8314 611.3561,-246.6402"/>
<polygon fill="#191970" stroke="#191970" points="610.8736,-243.1711 601.2803,-247.6676 611.5838,-250.135 610.8736,-243.1711"/>
</g>
<!-- Node1171 -->
<g id="node15" class="node">
<title>Node1171</title>
<g id="a_node15"><a xlink:href="classSpikeMonitorCore.html#a005a2f884f6260054483d4fa6ed6ddbb" target="_top" xlink:title="returns the number of recorded spikes of a specific neuron ">
<polygon fill="#ffffff" stroke="#000000" points="1359,-251 1359,-281 1505,-281 1505,-251 1359,-251"/>
<text text-anchor="start" x="1367" y="-269" font-family="Helvetica,sans-Serif" font-size="10.00" fill="#000000">SpikeMonitorCore::getNeuron</text>
<text text-anchor="middle" x="1432" y="-258" font-family="Helvetica,sans-Serif" font-size="10.00" fill="#000000">NumSpikes</text>
</a>
</g>
</g>
<!-- Node1170&#45;&gt;Node1171 -->
<g id="edge21" class="edge">
<title>Node1170&#45;&gt;Node1171</title>
<path fill="none" stroke="#191970" d="M1309.7533,-292.0099C1323.2157,-289.1456 1337.5303,-286.0999 1351.4437,-283.1396"/>
<polygon fill="#191970" stroke="#191970" points="1352.4333,-286.5075 1361.486,-281.003 1350.9765,-279.6608 1352.4333,-286.5075"/>
</g>
<!-- Node1171&#45;&gt;Node1167 -->
<g id="edge22" class="edge">
<title>Node1171&#45;&gt;Node1167</title>
<path fill="none" stroke="#191970" d="M1392.5976,-250.9994C1324.8559,-226.5976 1181.4844,-181 1056,-181 881.5,-181 881.5,-181 881.5,-181 761.9616,-181 624.7338,-222.3783 561.0044,-244.0713"/>
<polygon fill="#191970" stroke="#191970" points="559.7348,-240.8068 551.4212,-247.3745 562.0159,-247.4247 559.7348,-240.8068"/>
</g>
<!-- Node1171&#45;&gt;Node1172 -->
<g id="edge23" class="edge">
<title>Node1171&#45;&gt;Node1172</title>
<path fill="none" stroke="#191970" d="M1453.8263,-250.9178C1487.9139,-227.3629 1553.4325,-182.0888 1587.7677,-158.3628"/>
<polygon fill="#191970" stroke="#191970" points="1589.9436,-161.1136 1596.1808,-152.5493 1585.9641,-155.3548 1589.9436,-161.1136"/>
</g>
<!-- Node1174&#45;&gt;Node1167 -->
<g id="edge26" class="edge">
<title>Node1174&#45;&gt;Node1167</title>
<path fill="none" stroke="#191970" d="M990.2474,-375.7585C907.37,-358.6512 760.774,-327.0043 637,-293 611.7233,-286.0558 583.6406,-277.026 561.9186,-269.7473"/>
<polygon fill="#191970" stroke="#191970" points="563.0129,-266.4227 552.4187,-266.54 560.7737,-273.0549 563.0129,-266.4227"/>
</g>
<!-- Node1174&#45;&gt;Node1170 -->
<g id="edge27" class="edge">
<title>Node1174&#45;&gt;Node1170</title>
<path fill="none" stroke="#191970" d="M1093.6393,-373.8841C1105.0405,-369.2107 1117.5689,-363.9804 1129,-359 1153.5782,-348.2916 1180.8371,-335.7581 1202.6449,-325.5684"/>
<polygon fill="#191970" stroke="#191970" points="1204.3717,-328.6245 1211.942,-321.2123 1201.4017,-322.2858 1204.3717,-328.6245"/>
</g>
<!-- Node1174&#45;&gt;Node1173 -->
<g id="edge28" class="edge">
<title>Node1174&#45;&gt;Node1173</title>
<path fill="none" stroke="#191970" d="M1082.1406,-404.0169C1115.1594,-422.9852 1172.0976,-455.6944 1208.8868,-476.8286"/>
<polygon fill="#191970" stroke="#191970" points="1207.3645,-479.9905 1217.7791,-481.9369 1210.8514,-473.9207 1207.3645,-479.9905"/>
</g>
<!-- Node1175&#45;&gt;Node1167 -->
<g id="edge30" class="edge">
<title>Node1175&#45;&gt;Node1167</title>
<path fill="none" stroke="#191970" d="M815.858,-292.9867C766.6284,-286.967 697.5859,-278.5035 637,-271 628.5222,-269.95 619.684,-268.8517 610.854,-267.7519"/>
<polygon fill="#191970" stroke="#191970" points="611.2638,-264.276 600.9076,-266.5121 610.3979,-271.2222 611.2638,-264.276"/>
</g>
<!-- Node1175&#45;&gt;Node1174 -->
<g id="edge31" class="edge">
<title>Node1175&#45;&gt;Node1174</title>
<path fill="none" stroke="#191970" d="M911.4976,-316.1277C940.6769,-330.8428 985.1517,-353.2714 1017.0504,-369.3578"/>
<polygon fill="#191970" stroke="#191970" points="1015.5975,-372.5449 1026.1024,-373.9227 1018.7495,-366.2947 1015.5975,-372.5449"/>
</g>
<!-- Node1176 -->
<g id="node20" class="node">
<title>Node1176</title>
<g id="a_node20"><a xlink:href="classSpikeMonitorCore.html#a0fc20fcc5876030d796debd148ae7cee" target="_top" xlink:title="returns a list of firing rates for all neurons in the group (sorted by neuron ID ascending) ...">
<polygon fill="#ffffff" stroke="#000000" points="993.5,-267 993.5,-297 1118.5,-297 1118.5,-267 993.5,-267"/>
<text text-anchor="start" x="1001.5" y="-285" font-family="Helvetica,sans-Serif" font-size="10.00" fill="#000000">SpikeMonitorCore::getAll</text>
<text text-anchor="middle" x="1056" y="-274" font-family="Helvetica,sans-Serif" font-size="10.00" fill="#000000">FiringRates</text>
</a>
</g>
</g>
<!-- Node1175&#45;&gt;Node1176 -->
<g id="edge32" class="edge">
<title>Node1175&#45;&gt;Node1176</title>
<path fill="none" stroke="#191970" d="M947.471,-293.8169C959.116,-292.549 971.2997,-291.2224 983.1214,-289.9352"/>
<polygon fill="#191970" stroke="#191970" points="983.832,-293.3786 993.3943,-288.8167 983.0742,-286.4197 983.832,-293.3786"/>
</g>
<!-- Node1176&#45;&gt;Node1167 -->
<g id="edge33" class="edge">
<title>Node1176&#45;&gt;Node1167</title>
<path fill="none" stroke="#191970" d="M993.3298,-279.0494C898.5121,-274.5853 718.3246,-266.1019 611.2117,-261.0589"/>
<polygon fill="#191970" stroke="#191970" points="611.2329,-257.5561 601.0794,-260.5819 610.9037,-264.5484 611.2329,-257.5561"/>
</g>
<!-- Node1177&#45;&gt;Node1167 -->
<g id="edge35" class="edge">
<title>Node1177&#45;&gt;Node1167</title>
<path fill="none" stroke="#191970" d="M982.8328,-549.6182C934.6468,-553.0585 870.6093,-553.3383 816,-539 728.0679,-515.9124 702.6839,-502.8547 637,-440 585.0723,-390.3089 547.7958,-311.5624 532.5846,-275.7894"/>
<polygon fill="#191970" stroke="#191970" points="535.8024,-274.4119 528.7322,-266.5212 529.3386,-277.0987 535.8024,-274.4119"/>
</g>
<!-- Node1177&#45;&gt;Node1171 -->
<g id="edge36" class="edge">
<title>Node1177&#45;&gt;Node1171</title>
<path fill="none" stroke="#191970" d="M1129.1583,-555.1062C1187.0626,-562.0509 1267.1986,-561.8078 1323,-522 1400.6482,-466.607 1423.3609,-344.3654 1429.6883,-291.3513"/>
<polygon fill="#191970" stroke="#191970" points="1433.1972,-291.4593 1430.8037,-281.1383 1426.2386,-290.6992 1433.1972,-291.4593"/>
</g>
<!-- Node1177&#45;&gt;Node1173 -->
<g id="edge37" class="edge">
<title>Node1177&#45;&gt;Node1173</title>
<path fill="none" stroke="#191970" d="M1120.1731,-525.9808C1136.1172,-522.2492 1153.3385,-518.2186 1169.7227,-514.384"/>
<polygon fill="#191970" stroke="#191970" points="1170.8579,-517.713 1179.7971,-512.0262 1169.2626,-510.8972 1170.8579,-517.713"/>
</g>
<!-- Node1178&#45;&gt;Node1167 -->
<g id="edge39" class="edge">
<title>Node1178&#45;&gt;Node1167</title>
<path fill="none" stroke="#191970" d="M695.005,-152.6029C680.1792,-158.6609 655.9561,-165.6349 637,-176 603.767,-194.1717 570.5544,-222.45 549.0298,-240.5745"/>
<polygon fill="#191970" stroke="#191970" points="546.5258,-238.1061 541.1033,-247.2081 551.0184,-243.4743 546.5258,-238.1061"/>
</g>
<!-- Node1178&#45;&gt;Node1172 -->
<g id="edge40" class="edge">
<title>Node1178&#45;&gt;Node1172</title>
<path fill="none" stroke="#191970" d="M780.0446,-143C850.3016,-143 960.528,-143 1056,-143 1056,-143 1056,-143 1244,-143 1342.7685,-143 1456.5297,-143 1530.6637,-143"/>
<polygon fill="#191970" stroke="#191970" points="1530.8557,-146.5001 1540.8557,-143 1530.8557,-139.5001 1530.8557,-146.5001"/>
</g>
</g>
</svg>
