<?xml version="1.0" encoding="UTF-8" standalone="no"?>
<!DOCTYPE svg PUBLIC "-//W3C//DTD SVG 1.1//EN"
 "http://www.w3.org/Graphics/SVG/1.1/DTD/svg11.dtd">
<!-- Generated by graphviz version 2.40.1 (20161225.0304)
 -->
<!-- Title: createGroupLIF Pages: 1 -->
<svg width="386pt" height="66pt"
 viewBox="0.00 0.00 386.00 66.00" xmlns="http://www.w3.org/2000/svg" xmlns:xlink="http://www.w3.org/1999/xlink">
<g id="graph0" class="graph" transform="scale(1 1) rotate(0) translate(4 62)">
<title>createGroupLIF</title>
<polygon fill="#ffffff" stroke="transparent" points="-4,4 -4,-62 382,-62 382,4 -4,4"/>
<!-- Node80 -->
<g id="node1" class="node">
<title>Node80</title>
<polygon fill="#bfbfbf" stroke="#000000" points="0,-19.5 0,-38.5 84,-38.5 84,-19.5 0,-19.5"/>
<text text-anchor="middle" x="42" y="-26.5" font-family="Helvetica,sans-Serif" font-size="10.00" fill="#000000">createGroupLIF</text>
</g>
<!-- Node81 -->
<g id="node2" class="node">
<title>Node81</title>
<g id="a_node2"><a xlink:href="classUserErrors.html#a4bbedc6c0817d5e59e74e450bf00472c" target="_top" xlink:title="simple wrapper for assert statement ">
<polygon fill="#ffffff" stroke="#000000" points="120,-38.5 120,-57.5 236,-57.5 236,-38.5 120,-38.5"/>
<text text-anchor="middle" x="178" y="-45.5" font-family="Helvetica,sans-Serif" font-size="10.00" fill="#000000">UserErrors::assertTrue</text>
</a>
</g>
</g>
<!-- Node80&#45;&gt;Node81 -->
<g id="edge1" class="edge">
<title>Node80&#45;&gt;Node81</title>
<path fill="none" stroke="#191970" d="M84.2858,-34.9076C92.3561,-36.035 100.9932,-37.2417 109.6381,-38.4494"/>
<polygon fill="#191970" stroke="#191970" points="109.3685,-41.9457 119.7566,-39.8631 110.3371,-35.013 109.3685,-41.9457"/>
</g>
<!-- Node82 -->
<g id="node3" class="node">
<title>Node82</title>
<g id="a_node3"><a xlink:href="classSNN.html#ab47cbdc62b1d4af153d9f8395cf5e5b1" target="_top" xlink:title="Creates a group of LIF spiking neurons. ">
<polygon fill="#ffffff" stroke="#000000" points="122,-.5 122,-19.5 234,-19.5 234,-.5 122,-.5"/>
<text text-anchor="middle" x="178" y="-7.5" font-family="Helvetica,sans-Serif" font-size="10.00" fill="#000000">SNN::createGroupLIF</text>
</a>
</g>
</g>
<!-- Node80&#45;&gt;Node82 -->
<g id="edge2" class="edge">
<title>Node80&#45;&gt;Node82</title>
<path fill="none" stroke="#191970" d="M84.2858,-23.0924C92.9897,-21.8764 102.3528,-20.5684 111.6739,-19.2661"/>
<polygon fill="#191970" stroke="#191970" points="112.3192,-22.7101 121.7387,-17.86 111.3506,-15.7774 112.3192,-22.7101"/>
</g>
<!-- Node83 -->
<g id="node4" class="node">
<title>Node83</title>
<g id="a_node4"><a xlink:href="classSNN.html#a477f99451786873b73e2623b6f89b766" target="_top" xlink:title="deallocates all dynamical structures and exits ">
<polygon fill="#ffffff" stroke="#000000" points="272,-.5 272,-19.5 378,-19.5 378,-.5 272,-.5"/>
<text text-anchor="middle" x="325" y="-7.5" font-family="Helvetica,sans-Serif" font-size="10.00" fill="#000000">SNN::exitSimulation</text>
</a>
</g>
</g>
<!-- Node82&#45;&gt;Node83 -->
<g id="edge3" class="edge">
<title>Node82&#45;&gt;Node83</title>
<path fill="none" stroke="#191970" d="M234.4136,-10C243.3554,-10 252.6542,-10 261.7402,-10"/>
<polygon fill="#191970" stroke="#191970" points="261.8777,-13.5001 271.8777,-10 261.8776,-6.5001 261.8777,-13.5001"/>
</g>
</g>
</svg>
