<?xml version="1.0" encoding="UTF-8" standalone="no"?>
<!DOCTYPE svg PUBLIC "-//W3C//DTD SVG 1.1//EN"
 "http://www.w3.org/Graphics/SVG/1.1/DTD/svg11.dtd">
<!-- Generated by graphviz version 2.40.1 (20161225.0304)
 -->
<!-- Title: setSTDP Pages: 1 -->
<svg width="935pt" height="218pt"
 viewBox="0.00 0.00 935.00 218.00" xmlns="http://www.w3.org/2000/svg" xmlns:xlink="http://www.w3.org/1999/xlink">
<g id="graph0" class="graph" transform="scale(1 1) rotate(0) translate(4 214)">
<title>setSTDP</title>
<polygon fill="#ffffff" stroke="transparent" points="-4,4 -4,-214 931,-214 931,4 -4,4"/>
<!-- Node1029 -->
<g id="node1" class="node">
<title>Node1029</title>
<polygon fill="#bfbfbf" stroke="#000000" points="0,-114.5 0,-133.5 57,-133.5 57,-114.5 0,-114.5"/>
<text text-anchor="middle" x="28.5" y="-121.5" font-family="Helvetica,sans-Serif" font-size="10.00" fill="#000000">setSTDP</text>
</g>
<!-- Node1030 -->
<g id="node2" class="node">
<title>Node1030</title>
<g id="a_node2"><a xlink:href="classCARLsim_1_1Impl.html#af69130fee82ddc631a62ed0878c65e9f" target="_top" xlink:title="CARLsim::Impl::setSTDP">
<polygon fill="#ffffff" stroke="#000000" points="93,-114.5 93,-133.5 224,-133.5 224,-114.5 93,-114.5"/>
<text text-anchor="middle" x="158.5" y="-121.5" font-family="Helvetica,sans-Serif" font-size="10.00" fill="#000000">CARLsim::Impl::setSTDP</text>
</a>
</g>
</g>
<!-- Node1029&#45;&gt;Node1030 -->
<g id="edge1" class="edge">
<title>Node1029&#45;&gt;Node1030</title>
<path fill="none" stroke="#191970" d="M57.0291,-124C64.7403,-124 73.464,-124 82.4791,-124"/>
<polygon fill="#191970" stroke="#191970" points="82.7428,-127.5001 92.7428,-124 82.7427,-120.5001 82.7428,-127.5001"/>
</g>
<!-- Node1031 -->
<g id="node3" class="node">
<title>Node1031</title>
<g id="a_node3"><a xlink:href="classCARLsim_1_1Impl.html#ac79aadf0ac87b2ae34f39ae796ad81a3" target="_top" xlink:title="CARLsim::Impl::setESTDP">
<polygon fill="#ffffff" stroke="#000000" points="260,-114.5 260,-133.5 397,-133.5 397,-114.5 260,-114.5"/>
<text text-anchor="middle" x="328.5" y="-121.5" font-family="Helvetica,sans-Serif" font-size="10.00" fill="#000000">CARLsim::Impl::setESTDP</text>
</a>
</g>
</g>
<!-- Node1030&#45;&gt;Node1031 -->
<g id="edge2" class="edge">
<title>Node1030&#45;&gt;Node1031</title>
<path fill="none" stroke="#191970" d="M224.2264,-124C232.6209,-124 241.28,-124 249.8525,-124"/>
<polygon fill="#191970" stroke="#191970" points="249.8551,-127.5001 259.855,-124 249.855,-120.5001 249.8551,-127.5001"/>
</g>
<!-- Node1032 -->
<g id="node4" class="node">
<title>Node1032</title>
<g id="a_node4"><a xlink:href="classCARLsim_1_1Impl.html#ab0367f8ebd4019bf7d34ebddb1563fe7" target="_top" xlink:title="CARLsim::Impl::getGroupName">
<polygon fill="#ffffff" stroke="#000000" points="433,-92.5 433,-111.5 589,-111.5 589,-92.5 433,-92.5"/>
<text text-anchor="middle" x="511" y="-99.5" font-family="Helvetica,sans-Serif" font-size="10.00" fill="#000000">CARLsim::Impl::getGroupName</text>
</a>
</g>
</g>
<!-- Node1031&#45;&gt;Node1032 -->
<g id="edge3" class="edge">
<title>Node1031&#45;&gt;Node1032</title>
<path fill="none" stroke="#191970" d="M397.2354,-115.7141C405.5871,-114.7073 414.2072,-113.6682 422.7914,-112.6334"/>
<polygon fill="#191970" stroke="#191970" points="423.3245,-116.0945 432.8337,-111.4228 422.4866,-109.1448 423.3245,-116.0945"/>
</g>
<!-- Node1033 -->
<g id="node5" class="node">
<title>Node1033</title>
<g id="a_node5"><a xlink:href="classUserErrors.html#a4bbedc6c0817d5e59e74e450bf00472c" target="_top" xlink:title="simple wrapper for assert statement ">
<polygon fill="#ffffff" stroke="#000000" points="645,-152.5 645,-171.5 761,-171.5 761,-152.5 645,-152.5"/>
<text text-anchor="middle" x="703" y="-159.5" font-family="Helvetica,sans-Serif" font-size="10.00" fill="#000000">UserErrors::assertTrue</text>
</a>
</g>
</g>
<!-- Node1031&#45;&gt;Node1033 -->
<g id="edge8" class="edge">
<title>Node1031&#45;&gt;Node1033</title>
<path fill="none" stroke="#191970" d="M344.064,-133.5419C363.8725,-145.0735 399.5454,-163.823 433,-171 501.9651,-185.7951 583.0812,-180.1012 638.2713,-172.8853"/>
<polygon fill="#191970" stroke="#191970" points="638.8295,-176.3417 648.2661,-171.5248 637.8853,-169.4056 638.8295,-176.3417"/>
</g>
<!-- Node1037 -->
<g id="node9" class="node">
<title>Node1037</title>
<g id="a_node9"><a xlink:href="classCARLsim_1_1Impl.html#ae136e178382096490a2d34f78cd2afa2" target="_top" xlink:title="CARLsim::Impl::isPoisson\lGroup">
<polygon fill="#ffffff" stroke="#000000" points="444.5,-131 444.5,-161 577.5,-161 577.5,-131 444.5,-131"/>
<text text-anchor="start" x="452.5" y="-149" font-family="Helvetica,sans-Serif" font-size="10.00" fill="#000000">CARLsim::Impl::isPoisson</text>
<text text-anchor="middle" x="511" y="-138" font-family="Helvetica,sans-Serif" font-size="10.00" fill="#000000">Group</text>
</a>
</g>
</g>
<!-- Node1031&#45;&gt;Node1037 -->
<g id="edge9" class="edge">
<title>Node1031&#45;&gt;Node1037</title>
<path fill="none" stroke="#191970" d="M397.2354,-132.2859C409.313,-133.7418 421.9519,-135.2654 434.2317,-136.7457"/>
<polygon fill="#191970" stroke="#191970" points="434.0951,-140.2545 444.4421,-137.9766 434.9329,-133.3048 434.0951,-140.2545"/>
</g>
<!-- Node1039 -->
<g id="node11" class="node">
<title>Node1039</title>
<g id="a_node11"><a xlink:href="classSNN.html#abe7f46d33329d940d390817f64114356" target="_top" xlink:title="Set the spike&#45;timing&#45;dependent plasticity (STDP) for a neuron group. ">
<polygon fill="#ffffff" stroke="#000000" points="465,-54.5 465,-73.5 557,-73.5 557,-54.5 465,-54.5"/>
<text text-anchor="middle" x="511" y="-61.5" font-family="Helvetica,sans-Serif" font-size="10.00" fill="#000000">SNN::setESTDP</text>
</a>
</g>
</g>
<!-- Node1031&#45;&gt;Node1039 -->
<g id="edge13" class="edge">
<title>Node1031&#45;&gt;Node1039</title>
<path fill="none" stroke="#191970" d="M350.2088,-114.4884C371.1332,-105.559 403.8278,-92.2294 433,-83 440.8412,-80.5192 449.2118,-78.1726 457.4511,-76.0301"/>
<polygon fill="#191970" stroke="#191970" points="458.5514,-79.3623 467.3916,-73.5227 456.8393,-72.5749 458.5514,-79.3623"/>
</g>
<!-- Node1032&#45;&gt;Node1033 -->
<g id="edge4" class="edge">
<title>Node1032&#45;&gt;Node1033</title>
<path fill="none" stroke="#191970" d="M557.0589,-111.5553C567.7313,-114.3847 578.9127,-117.859 589,-122 606.1356,-129.0344 607.8223,-136.0691 625,-143 631.2526,-145.5228 637.9273,-147.7706 644.6414,-149.7573"/>
<polygon fill="#191970" stroke="#191970" points="643.8901,-153.181 654.4619,-152.4827 645.7621,-146.4359 643.8901,-153.181"/>
</g>
<!-- Node1034 -->
<g id="node6" class="node">
<title>Node1034</title>
<g id="a_node6"><a xlink:href="classCARLsim_1_1Impl.html#a292bdee57fec7c77ec4c15ea3f508d60" target="_top" xlink:title="CARLsim::Impl::getNumGroups">
<polygon fill="#ffffff" stroke="#000000" points="625,-114.5 625,-133.5 781,-133.5 781,-114.5 625,-114.5"/>
<text text-anchor="middle" x="703" y="-121.5" font-family="Helvetica,sans-Serif" font-size="10.00" fill="#000000">CARLsim::Impl::getNumGroups</text>
</a>
</g>
</g>
<!-- Node1032&#45;&gt;Node1034 -->
<g id="edge5" class="edge">
<title>Node1032&#45;&gt;Node1034</title>
<path fill="none" stroke="#191970" d="M589.0938,-110.9482C597.6006,-111.923 606.3019,-112.92 614.9175,-113.9072"/>
<polygon fill="#191970" stroke="#191970" points="614.642,-117.3985 624.9755,-115.0597 615.4389,-110.444 614.642,-117.3985"/>
</g>
<!-- Node1036 -->
<g id="node8" class="node">
<title>Node1036</title>
<g id="a_node8"><a xlink:href="classSNN.html#ab0367f8ebd4019bf7d34ebddb1563fe7" target="_top" xlink:title="SNN::getGroupName">
<polygon fill="#ffffff" stroke="#000000" points="648,-76.5 648,-95.5 758,-95.5 758,-76.5 648,-76.5"/>
<text text-anchor="middle" x="703" y="-83.5" font-family="Helvetica,sans-Serif" font-size="10.00" fill="#000000">SNN::getGroupName</text>
</a>
</g>
</g>
<!-- Node1032&#45;&gt;Node1036 -->
<g id="edge7" class="edge">
<title>Node1032&#45;&gt;Node1036</title>
<path fill="none" stroke="#191970" d="M589.0938,-95.4922C605.2752,-94.1437 622.1603,-92.7366 637.8212,-91.4316"/>
<polygon fill="#191970" stroke="#191970" points="638.2415,-94.9088 647.9162,-90.5903 637.6601,-87.933 638.2415,-94.9088"/>
</g>
<!-- Node1035 -->
<g id="node7" class="node">
<title>Node1035</title>
<g id="a_node7"><a xlink:href="classSNN.html#a292bdee57fec7c77ec4c15ea3f508d60" target="_top" xlink:title="SNN::getNumGroups">
<polygon fill="#ffffff" stroke="#000000" points="817,-114.5 817,-133.5 927,-133.5 927,-114.5 817,-114.5"/>
<text text-anchor="middle" x="872" y="-121.5" font-family="Helvetica,sans-Serif" font-size="10.00" fill="#000000">SNN::getNumGroups</text>
</a>
</g>
</g>
<!-- Node1034&#45;&gt;Node1035 -->
<g id="edge6" class="edge">
<title>Node1034&#45;&gt;Node1035</title>
<path fill="none" stroke="#191970" d="M781.069,-124C789.6771,-124 798.3747,-124 806.8018,-124"/>
<polygon fill="#191970" stroke="#191970" points="806.9225,-127.5001 816.9225,-124 806.9225,-120.5001 806.9225,-127.5001"/>
</g>
<!-- Node1037&#45;&gt;Node1033 -->
<g id="edge10" class="edge">
<title>Node1037&#45;&gt;Node1033</title>
<path fill="none" stroke="#191970" d="M577.6134,-151.5511C596.0733,-153.0894 616.1376,-154.7615 634.6925,-156.3077"/>
<polygon fill="#191970" stroke="#191970" points="634.5696,-159.8095 644.8258,-157.1521 635.151,-152.8337 634.5696,-159.8095"/>
</g>
<!-- Node1037&#45;&gt;Node1034 -->
<g id="edge11" class="edge">
<title>Node1037&#45;&gt;Node1034</title>
<path fill="none" stroke="#191970" d="M577.6134,-138.3672C589.6637,-136.9865 602.3975,-135.5274 614.9489,-134.0892"/>
<polygon fill="#191970" stroke="#191970" points="615.4227,-137.5579 624.9592,-132.9422 614.6258,-130.6034 615.4227,-137.5579"/>
</g>
<!-- Node1038 -->
<g id="node10" class="node">
<title>Node1038</title>
<g id="a_node10"><a xlink:href="classSNN.html#a3764348d44236ad4932627cd4d199c31" target="_top" xlink:title="SNN::isPoissonGroup">
<polygon fill="#ffffff" stroke="#000000" points="646.5,-190.5 646.5,-209.5 759.5,-209.5 759.5,-190.5 646.5,-190.5"/>
<text text-anchor="middle" x="703" y="-197.5" font-family="Helvetica,sans-Serif" font-size="10.00" fill="#000000">SNN::isPoissonGroup</text>
</a>
</g>
</g>
<!-- Node1037&#45;&gt;Node1038 -->
<g id="edge12" class="edge">
<title>Node1037&#45;&gt;Node1038</title>
<path fill="none" stroke="#191970" d="M557.686,-161.0136C578.2471,-167.4494 602.7422,-174.8781 625,-181 633.7834,-183.4158 643.1661,-185.8366 652.2695,-188.1023"/>
<polygon fill="#191970" stroke="#191970" points="651.4503,-191.505 661.9966,-190.4923 653.1206,-184.7072 651.4503,-191.505"/>
</g>
<!-- Node1039&#45;&gt;Node1036 -->
<g id="edge15" class="edge">
<title>Node1039&#45;&gt;Node1036</title>
<path fill="none" stroke="#191970" d="M557.4778,-69.3256C581.4821,-72.0761 611.1748,-75.4784 637.4663,-78.4909"/>
<polygon fill="#191970" stroke="#191970" points="637.4018,-82.0064 647.7353,-79.6676 638.1988,-75.0519 637.4018,-82.0064"/>
</g>
<!-- Node1040 -->
<g id="node12" class="node">
<title>Node1040</title>
<g id="a_node12"><a xlink:href="classSNN.html#a44b05911f213714c351379021852e12a" target="_top" xlink:title="find connection ID based on pre&#45;post group pair, O(N) ">
<polygon fill="#ffffff" stroke="#000000" points="651.5,-38.5 651.5,-57.5 754.5,-57.5 754.5,-38.5 651.5,-38.5"/>
<text text-anchor="middle" x="703" y="-45.5" font-family="Helvetica,sans-Serif" font-size="10.00" fill="#000000">SNN::getConnectId</text>
</a>
</g>
</g>
<!-- Node1039&#45;&gt;Node1040 -->
<g id="edge14" class="edge">
<title>Node1039&#45;&gt;Node1040</title>
<path fill="none" stroke="#191970" d="M557.4778,-60.1268C582.5724,-58.0356 613.884,-55.4263 641.027,-53.1644"/>
<polygon fill="#191970" stroke="#191970" points="641.5293,-56.6348 651.2041,-52.3163 640.948,-49.659 641.5293,-56.6348"/>
</g>
<!-- Node1041 -->
<g id="node13" class="node">
<title>Node1041</title>
<g id="a_node13"><a xlink:href="classSNN.html#a477f99451786873b73e2623b6f89b766" target="_top" xlink:title="deallocates all dynamical structures and exits ">
<polygon fill="#ffffff" stroke="#000000" points="650,-.5 650,-19.5 756,-19.5 756,-.5 650,-.5"/>
<text text-anchor="middle" x="703" y="-7.5" font-family="Helvetica,sans-Serif" font-size="10.00" fill="#000000">SNN::exitSimulation</text>
</a>
</g>
</g>
<!-- Node1039&#45;&gt;Node1041 -->
<g id="edge16" class="edge">
<title>Node1039&#45;&gt;Node1041</title>
<path fill="none" stroke="#191970" d="M540.386,-54.4561C563.3261,-47.1325 596.0549,-36.9612 625,-29 633.7834,-26.5842 643.1661,-24.1634 652.2695,-21.8977"/>
<polygon fill="#191970" stroke="#191970" points="653.1206,-25.2928 661.9966,-19.5077 651.4503,-18.495 653.1206,-25.2928"/>
</g>
</g>
</svg>
