<?xml version="1.0" encoding="UTF-8" standalone="no"?>
<!DOCTYPE svg PUBLIC "-//W3C//DTD SVG 1.1//EN"
 "http://www.w3.org/Graphics/SVG/1.1/DTD/svg11.dtd">
<!-- Generated by graphviz version 2.40.1 (20161225.0304)
 -->
<!-- Title: setDefaultSTDPparams Pages: 1 -->
<svg width="623pt" height="39pt"
 viewBox="0.00 0.00 623.00 39.00" xmlns="http://www.w3.org/2000/svg" xmlns:xlink="http://www.w3.org/1999/xlink">
<g id="graph0" class="graph" transform="scale(1 1) rotate(0) translate(4 35)">
<title>setDefaultSTDPparams</title>
<polygon fill="#ffffff" stroke="transparent" points="-4,4 -4,-35 619,-35 619,4 -4,4"/>
<!-- Node643 -->
<g id="node1" class="node">
<title>Node643</title>
<polygon fill="#bfbfbf" stroke="#000000" points="0,-6 0,-25 121,-25 121,-6 0,-6"/>
<text text-anchor="middle" x="60.5" y="-13" font-family="Helvetica,sans-Serif" font-size="10.00" fill="#000000">setDefaultSTDPparams</text>
</g>
<!-- Node644 -->
<g id="node2" class="node">
<title>Node644</title>
<g id="a_node2"><a xlink:href="classCARLsim_1_1Impl.html#a4eaad13df15f4a2710688a7be024a4f2" target="_top" xlink:title="CARLsim::Impl::setDefault\lSTDPparams">
<polygon fill="#ffffff" stroke="#000000" points="157,-.5 157,-30.5 292,-30.5 292,-.5 157,-.5"/>
<text text-anchor="start" x="165" y="-18.5" font-family="Helvetica,sans-Serif" font-size="10.00" fill="#000000">CARLsim::Impl::setDefault</text>
<text text-anchor="middle" x="224.5" y="-7.5" font-family="Helvetica,sans-Serif" font-size="10.00" fill="#000000">STDPparams</text>
</a>
</g>
</g>
<!-- Node643&#45;&gt;Node644 -->
<g id="edge1" class="edge">
<title>Node643&#45;&gt;Node644</title>
<path fill="none" stroke="#191970" d="M121.1016,-15.5C129.4961,-15.5 138.2124,-15.5 146.8637,-15.5"/>
<polygon fill="#191970" stroke="#191970" points="146.9666,-19.0001 156.9665,-15.5 146.9665,-12.0001 146.9666,-19.0001"/>
</g>
<!-- Node645 -->
<g id="node3" class="node">
<title>Node645</title>
<g id="a_node3"><a xlink:href="classCARLsim_1_1Impl.html#a800d13fcd2488793532832fb094c252f" target="_top" xlink:title="CARLsim::Impl::setDefault\lESTDPparams">
<polygon fill="#ffffff" stroke="#000000" points="328,-.5 328,-30.5 463,-30.5 463,-.5 328,-.5"/>
<text text-anchor="start" x="336" y="-18.5" font-family="Helvetica,sans-Serif" font-size="10.00" fill="#000000">CARLsim::Impl::setDefault</text>
<text text-anchor="middle" x="395.5" y="-7.5" font-family="Helvetica,sans-Serif" font-size="10.00" fill="#000000">ESTDPparams</text>
</a>
</g>
</g>
<!-- Node644&#45;&gt;Node645 -->
<g id="edge2" class="edge">
<title>Node644&#45;&gt;Node645</title>
<path fill="none" stroke="#191970" d="M292.0837,-15.5C300.5381,-15.5 309.2372,-15.5 317.83,-15.5"/>
<polygon fill="#191970" stroke="#191970" points="317.8472,-19.0001 327.8472,-15.5 317.8472,-12.0001 317.8472,-19.0001"/>
</g>
<!-- Node646 -->
<g id="node4" class="node">
<title>Node646</title>
<g id="a_node4"><a xlink:href="classUserErrors.html#a4bbedc6c0817d5e59e74e450bf00472c" target="_top" xlink:title="simple wrapper for assert statement ">
<polygon fill="#ffffff" stroke="#000000" points="499,-6 499,-25 615,-25 615,-6 499,-6"/>
<text text-anchor="middle" x="557" y="-13" font-family="Helvetica,sans-Serif" font-size="10.00" fill="#000000">UserErrors::assertTrue</text>
</a>
</g>
</g>
<!-- Node645&#45;&gt;Node646 -->
<g id="edge3" class="edge">
<title>Node645&#45;&gt;Node646</title>
<path fill="none" stroke="#191970" d="M463.0548,-15.5C471.535,-15.5 480.2147,-15.5 488.7061,-15.5"/>
<polygon fill="#191970" stroke="#191970" points="488.9444,-19.0001 498.9443,-15.5 488.9443,-12.0001 488.9444,-19.0001"/>
</g>
</g>
</svg>
