<?xml version="1.0" encoding="UTF-8" standalone="no"?>
<!DOCTYPE svg PUBLIC "-//W3C//DTD SVG 1.1//EN"
 "http://www.w3.org/Graphics/SVG/1.1/DTD/svg11.dtd">
<!-- Generated by graphviz version 2.40.1 (20161225.0304)
 -->
<!-- Title: setGroupMonitor Pages: 1 -->
<svg width="465pt" height="91pt"
 viewBox="0.00 0.00 465.00 91.00" xmlns="http://www.w3.org/2000/svg" xmlns:xlink="http://www.w3.org/1999/xlink">
<g id="graph0" class="graph" transform="scale(1 1) rotate(0) translate(4 87)">
<title>setGroupMonitor</title>
<polygon fill="#ffffff" stroke="transparent" points="-4,4 -4,-87 461,-87 461,4 -4,4"/>
<!-- Node1763 -->
<g id="node1" class="node">
<title>Node1763</title>
<polygon fill="#bfbfbf" stroke="#000000" points="0,-41.5 0,-60.5 89,-60.5 89,-41.5 0,-41.5"/>
<text text-anchor="middle" x="44.5" y="-48.5" font-family="Helvetica,sans-Serif" font-size="10.00" fill="#000000">setGroupMonitor</text>
</g>
<!-- Node1764 -->
<g id="node2" class="node">
<title>Node1764</title>
<g id="a_node2"><a xlink:href="classSNN.html#a477f99451786873b73e2623b6f89b766" target="_top" xlink:title="deallocates all dynamical structures and exits ">
<polygon fill="#ffffff" stroke="#000000" points="157,-63.5 157,-82.5 235,-82.5 235,-63.5 157,-63.5"/>
<text text-anchor="middle" x="196" y="-70.5" font-family="Helvetica,sans-Serif" font-size="10.00" fill="#000000">exitSimulation</text>
</a>
</g>
</g>
<!-- Node1763&#45;&gt;Node1764 -->
<g id="edge1" class="edge">
<title>Node1763&#45;&gt;Node1764</title>
<path fill="none" stroke="#191970" d="M89.1356,-57.4817C107.2522,-60.1125 128.2427,-63.1607 146.7996,-65.8554"/>
<polygon fill="#191970" stroke="#191970" points="146.4257,-69.3377 156.8249,-67.3112 147.4317,-62.4104 146.4257,-69.3377"/>
</g>
<!-- Node1765 -->
<g id="node3" class="node">
<title>Node1765</title>
<g id="a_node3"><a xlink:href="classGroupMonitorCore.html#ac455fddf546e804839052af1614b4b15" target="_top" xlink:title="sets pointer to group data file ">
<polygon fill="#ffffff" stroke="#000000" points="125,-14 125,-44 267,-44 267,-14 125,-14"/>
<text text-anchor="start" x="133" y="-32" font-family="Helvetica,sans-Serif" font-size="10.00" fill="#000000">GroupMonitorCore::setGroup</text>
<text text-anchor="middle" x="196" y="-21" font-family="Helvetica,sans-Serif" font-size="10.00" fill="#000000">FileId</text>
</a>
</g>
</g>
<!-- Node1763&#45;&gt;Node1765 -->
<g id="edge2" class="edge">
<title>Node1763&#45;&gt;Node1765</title>
<path fill="none" stroke="#191970" d="M89.1356,-44.5183C97.3163,-43.3303 106.083,-42.0573 114.947,-40.7701"/>
<polygon fill="#191970" stroke="#191970" points="115.5769,-44.2154 124.9701,-39.3146 114.5709,-37.2881 115.5769,-44.2154"/>
</g>
<!-- Node1766 -->
<g id="node4" class="node">
<title>Node1766</title>
<g id="a_node4"><a xlink:href="classGroupMonitorCore.html#a3a3ffdb35b09328d22e5d72503ed1f55" target="_top" xlink:title="returns recording status ">
<polygon fill="#ffffff" stroke="#000000" points="303,-38.5 303,-57.5 457,-57.5 457,-38.5 303,-38.5"/>
<text text-anchor="middle" x="380" y="-45.5" font-family="Helvetica,sans-Serif" font-size="10.00" fill="#000000">GroupMonitorCore::isRecording</text>
</a>
</g>
</g>
<!-- Node1765&#45;&gt;Node1766 -->
<g id="edge3" class="edge">
<title>Node1765&#45;&gt;Node1766</title>
<path fill="none" stroke="#191970" d="M267.1392,-36.3459C275.5708,-37.2165 284.2491,-38.1127 292.8702,-39.0029"/>
<polygon fill="#191970" stroke="#191970" points="292.6395,-42.4976 302.9462,-40.0434 293.3586,-35.5346 292.6395,-42.4976"/>
</g>
<!-- Node1767 -->
<g id="node5" class="node">
<title>Node1767</title>
<g id="a_node5"><a xlink:href="classSNN.html#ac13b30c40669d3cb8264bd6e211b449d" target="_top" xlink:title="getGroupGrid3D">
<polygon fill="#ffffff" stroke="#000000" points="336.5,-.5 336.5,-19.5 423.5,-19.5 423.5,-.5 336.5,-.5"/>
<text text-anchor="middle" x="380" y="-7.5" font-family="Helvetica,sans-Serif" font-size="10.00" fill="#000000">getGroupGrid3D</text>
</a>
</g>
</g>
<!-- Node1765&#45;&gt;Node1767 -->
<g id="edge4" class="edge">
<title>Node1765&#45;&gt;Node1767</title>
<path fill="none" stroke="#191970" d="M267.1392,-21.6541C286.8497,-19.6188 307.9087,-17.4442 326.4332,-15.5314"/>
<polygon fill="#191970" stroke="#191970" points="326.8516,-19.0069 336.4392,-14.4981 326.1326,-12.0439 326.8516,-19.0069"/>
</g>
</g>
</svg>
