<?xml version="1.0" encoding="UTF-8" standalone="no"?>
<!DOCTYPE svg PUBLIC "-//W3C//DTD SVG 1.1//EN"
 "http://www.w3.org/Graphics/SVG/1.1/DTD/svg11.dtd">
<!-- Generated by graphviz version 2.40.1 (20161225.0304)
 -->
<!-- Title: getAllFiringRatesSorted Pages: 1 -->
<svg width="485pt" height="135pt"
 viewBox="0.00 0.00 485.00 134.50" xmlns="http://www.w3.org/2000/svg" xmlns:xlink="http://www.w3.org/1999/xlink">
<g id="graph0" class="graph" transform="scale(1 1) rotate(0) translate(4 130.5)">
<title>getAllFiringRatesSorted</title>
<polygon fill="#ffffff" stroke="transparent" points="-4,4 -4,-130.5 481,-130.5 481,4 -4,4"/>
<!-- Node162 -->
<g id="node1" class="node">
<title>Node162</title>
<polygon fill="#bfbfbf" stroke="#000000" points="0,-57.5 0,-76.5 120,-76.5 120,-57.5 0,-57.5"/>
<text text-anchor="middle" x="60" y="-64.5" font-family="Helvetica,sans-Serif" font-size="10.00" fill="#000000">getAllFiringRatesSorted</text>
</g>
<!-- Node163 -->
<g id="node2" class="node">
<title>Node163</title>
<g id="a_node2"><a xlink:href="classSpikeMonitor.html#ac0d8bd3f92fa0eae87b37f9245e0e13a" target="_top" xlink:title="Returns all the neuronal mean firing rates in ascending order. ">
<polygon fill="#ffffff" stroke="#000000" points="156,-96 156,-126 284,-126 284,-96 156,-96"/>
<text text-anchor="start" x="164" y="-114" font-family="Helvetica,sans-Serif" font-size="10.00" fill="#000000">SpikeMonitor::getAllFiring</text>
<text text-anchor="middle" x="220" y="-103" font-family="Helvetica,sans-Serif" font-size="10.00" fill="#000000">RatesSorted</text>
</a>
</g>
</g>
<!-- Node162&#45;&gt;Node163 -->
<g id="edge1" class="edge">
<title>Node162&#45;&gt;Node163</title>
<path fill="none" stroke="#191970" d="M104.5098,-79.2402C123.3215,-84.4134 145.417,-90.4897 165.2169,-95.9346"/>
<polygon fill="#191970" stroke="#191970" points="105.2877,-75.8243 94.7176,-76.5473 103.4316,-82.5737 105.2877,-75.8243"/>
</g>
<!-- Node164 -->
<g id="node3" class="node">
<title>Node164</title>
<g id="a_node3"><a xlink:href="classSpikeMonitorCore.html#ab245e956a782d7d5fc8dc4257d94ecfa" target="_top" xlink:title="returns the largest recorded firing rate ">
<polygon fill="#ffffff" stroke="#000000" points="173,-57.5 173,-76.5 267,-76.5 267,-57.5 173,-57.5"/>
<text text-anchor="middle" x="220" y="-64.5" font-family="Helvetica,sans-Serif" font-size="10.00" fill="#000000">getMaxFiringRate</text>
</a>
</g>
</g>
<!-- Node162&#45;&gt;Node164 -->
<g id="edge2" class="edge">
<title>Node162&#45;&gt;Node164</title>
<path fill="none" stroke="#191970" d="M130.3971,-67C144.7689,-67 159.5602,-67 172.8795,-67"/>
<polygon fill="#191970" stroke="#191970" points="130.0333,-63.5001 120.0333,-67 130.0333,-70.5001 130.0333,-63.5001"/>
</g>
<!-- Node167 -->
<g id="node6" class="node">
<title>Node167</title>
<g id="a_node6"><a xlink:href="classSpikeMonitorCore.html#a30bedc8503ea2e68ce042291f25fd0f8" target="_top" xlink:title="returns the smallest recorded firing rate ">
<polygon fill="#ffffff" stroke="#000000" points="174.5,-19.5 174.5,-38.5 265.5,-38.5 265.5,-19.5 174.5,-19.5"/>
<text text-anchor="middle" x="220" y="-26.5" font-family="Helvetica,sans-Serif" font-size="10.00" fill="#000000">getMinFiringRate</text>
</a>
</g>
</g>
<!-- Node162&#45;&gt;Node167 -->
<g id="edge5" class="edge">
<title>Node162&#45;&gt;Node167</title>
<path fill="none" stroke="#191970" d="M110.3915,-55.032C132.813,-49.7069 158.8472,-43.5238 179.9156,-38.5201"/>
<polygon fill="#191970" stroke="#191970" points="109.2953,-51.6949 100.3748,-57.411 110.9129,-58.5055 109.2953,-51.6949"/>
</g>
<!-- Node165 -->
<g id="node4" class="node">
<title>Node165</title>
<g id="a_node4"><a xlink:href="classSpikeMonitor.html#ab245e956a782d7d5fc8dc4257d94ecfa" target="_top" xlink:title="returns the largest neuronal mean firing rate in the group ">
<polygon fill="#ffffff" stroke="#000000" points="320,-76.5 320,-95.5 477,-95.5 477,-76.5 320,-76.5"/>
<text text-anchor="middle" x="398.5" y="-83.5" font-family="Helvetica,sans-Serif" font-size="10.00" fill="#000000">SpikeMonitor::getMaxFiringRate</text>
</a>
</g>
</g>
<!-- Node164&#45;&gt;Node165 -->
<g id="edge3" class="edge">
<title>Node164&#45;&gt;Node165</title>
<path fill="none" stroke="#191970" d="M277.4515,-73.1153C290.9571,-74.5529 305.5803,-76.1094 319.8379,-77.627"/>
<polygon fill="#191970" stroke="#191970" points="277.6804,-69.62 267.3661,-72.0418 276.9394,-76.5806 277.6804,-69.62"/>
</g>
<!-- Node166 -->
<g id="node5" class="node">
<title>Node166</title>
<g id="a_node5"><a xlink:href="classSpikeMonitorCore.html#a1f1e21d6e994001e7b7e6acbb88990be" target="_top" xlink:title="returns number of neurons in the group ">
<polygon fill="#ffffff" stroke="#000000" points="346.5,-38.5 346.5,-57.5 450.5,-57.5 450.5,-38.5 346.5,-38.5"/>
<text text-anchor="middle" x="398.5" y="-45.5" font-family="Helvetica,sans-Serif" font-size="10.00" fill="#000000">getGrpNumNeurons</text>
</a>
</g>
</g>
<!-- Node164&#45;&gt;Node166 -->
<g id="edge4" class="edge">
<title>Node164&#45;&gt;Node166</title>
<path fill="none" stroke="#191970" d="M277.5954,-60.8694C299.6488,-58.522 324.6645,-55.8592 346.1962,-53.5673"/>
<polygon fill="#191970" stroke="#191970" points="276.9394,-57.4194 267.3661,-61.9582 277.6804,-64.38 276.9394,-57.4194"/>
</g>
<!-- Node167&#45;&gt;Node166 -->
<g id="edge7" class="edge">
<title>Node167&#45;&gt;Node166</title>
<path fill="none" stroke="#191970" d="M275.6294,-34.9213C298.2367,-37.3277 324.2149,-40.0929 346.444,-42.459"/>
<polygon fill="#191970" stroke="#191970" points="275.8193,-31.4219 265.5049,-33.8437 275.0783,-38.3825 275.8193,-31.4219"/>
</g>
<!-- Node168 -->
<g id="node7" class="node">
<title>Node168</title>
<g id="a_node7"><a xlink:href="classSpikeMonitor.html#a30bedc8503ea2e68ce042291f25fd0f8" target="_top" xlink:title="returns the smallest neuronal mean firing rate in the group ">
<polygon fill="#ffffff" stroke="#000000" points="321.5,-.5 321.5,-19.5 475.5,-19.5 475.5,-.5 321.5,-.5"/>
<text text-anchor="middle" x="398.5" y="-7.5" font-family="Helvetica,sans-Serif" font-size="10.00" fill="#000000">SpikeMonitor::getMinFiringRate</text>
</a>
</g>
</g>
<!-- Node167&#45;&gt;Node168 -->
<g id="edge6" class="edge">
<title>Node167&#45;&gt;Node168</title>
<path fill="none" stroke="#191970" d="M275.724,-23.0686C290.1249,-21.5357 305.8884,-19.8578 321.1766,-18.2305"/>
<polygon fill="#191970" stroke="#191970" points="275.0783,-19.6175 265.5049,-24.1563 275.8193,-26.5781 275.0783,-19.6175"/>
</g>
</g>
</svg>
