<?xml version="1.0" encoding="UTF-8" standalone="no"?>
<!DOCTYPE svg PUBLIC "-//W3C//DTD SVG 1.1//EN"
 "http://www.w3.org/Graphics/SVG/1.1/DTD/svg11.dtd">
<!-- Generated by graphviz version 2.40.1 (20161225.0304)
 -->
<!-- Title: getRecordingTotalTime Pages: 1 -->
<svg width="1544pt" height="572pt"
 viewBox="0.00 0.00 1544.00 572.00" xmlns="http://www.w3.org/2000/svg" xmlns:xlink="http://www.w3.org/1999/xlink">
<g id="graph0" class="graph" transform="scale(1 1) rotate(0) translate(4 568)">
<title>getRecordingTotalTime</title>
<polygon fill="#ffffff" stroke="transparent" points="-4,4 -4,-568 1540,-568 1540,4 -4,4"/>
<!-- Node336 -->
<g id="node1" class="node">
<title>Node336</title>
<polygon fill="#bfbfbf" stroke="#000000" points="0,-506.5 0,-525.5 118,-525.5 118,-506.5 0,-506.5"/>
<text text-anchor="middle" x="59" y="-513.5" font-family="Helvetica,sans-Serif" font-size="10.00" fill="#000000">getRecordingTotalTime</text>
</g>
<!-- Node337 -->
<g id="node2" class="node">
<title>Node337</title>
<g id="a_node2"><a xlink:href="classUserErrors.html#a4bbedc6c0817d5e59e74e450bf00472c" target="_top" xlink:title="simple wrapper for assert statement ">
<polygon fill="#ffffff" stroke="#000000" points="154,-544.5 154,-563.5 270,-563.5 270,-544.5 154,-544.5"/>
<text text-anchor="middle" x="212" y="-551.5" font-family="Helvetica,sans-Serif" font-size="10.00" fill="#000000">UserErrors::assertTrue</text>
</a>
</g>
</g>
<!-- Node336&#45;&gt;Node337 -->
<g id="edge1" class="edge">
<title>Node336&#45;&gt;Node337</title>
<path fill="none" stroke="#191970" d="M97.6084,-525.589C117.7074,-530.5809 142.4751,-536.7324 163.8185,-542.0334"/>
<polygon fill="#191970" stroke="#191970" points="163.1204,-545.4662 173.6693,-544.4799 164.8078,-538.6726 163.1204,-545.4662"/>
</g>
<!-- Node338 -->
<g id="node3" class="node">
<title>Node338</title>
<g id="a_node3"><a xlink:href="classSpikeMonitor.html#a3a3ffdb35b09328d22e5d72503ed1f55" target="_top" xlink:title="Recording status (true=recording, false=not recording) ">
<polygon fill="#ffffff" stroke="#000000" points="178,-313.5 178,-332.5 246,-332.5 246,-313.5 178,-313.5"/>
<text text-anchor="middle" x="212" y="-320.5" font-family="Helvetica,sans-Serif" font-size="10.00" fill="#000000">isRecording</text>
</a>
</g>
</g>
<!-- Node336&#45;&gt;Node338 -->
<g id="edge2" class="edge">
<title>Node336&#45;&gt;Node338</title>
<path fill="none" stroke="#191970" d="M66.5873,-506.4291C90.8042,-475.881 166.5039,-380.3905 198.0166,-340.6392"/>
<polygon fill="#191970" stroke="#191970" points="200.8974,-342.6393 204.3669,-332.6287 195.4119,-338.2907 200.8974,-342.6393"/>
</g>
<!-- Node346 -->
<g id="node11" class="node">
<title>Node346</title>
<g id="a_node11"><a xlink:href="classSpikeMonitorCore.html#a9cf20c30ff0efdbc5e3c5194648a7fb3" target="_top" xlink:title="returns the total recorded time in ms ">
<polygon fill="#ffffff" stroke="#000000" points="1022,-320 1022,-350 1180,-350 1180,-320 1022,-320"/>
<text text-anchor="start" x="1030" y="-338" font-family="Helvetica,sans-Serif" font-size="10.00" fill="#000000">SpikeMonitorCore::getRecording</text>
<text text-anchor="middle" x="1101" y="-327" font-family="Helvetica,sans-Serif" font-size="10.00" fill="#000000">TotalTime</text>
</a>
</g>
</g>
<!-- Node336&#45;&gt;Node346 -->
<g id="edge30" class="edge">
<title>Node336&#45;&gt;Node346</title>
<path fill="none" stroke="#191970" d="M118.2355,-516C183.0153,-516 289.8945,-516 382,-516 382,-516 382,-516 738.5,-516 852.5762,-516 887.1376,-504.9176 986,-448 1026.319,-424.7873 1062.76,-384.0828 1083.3626,-358.385"/>
<polygon fill="#191970" stroke="#191970" points="1086.2959,-360.3169 1089.7251,-350.2924 1080.793,-355.9905 1086.2959,-360.3169"/>
</g>
<!-- Node339 -->
<g id="node4" class="node">
<title>Node339</title>
<g id="a_node4"><a xlink:href="classSpikeMonitorCore.html#a3a3ffdb35b09328d22e5d72503ed1f55" target="_top" xlink:title="returns recording status ">
<polygon fill="#ffffff" stroke="#000000" points="306,-158.5 306,-177.5 458,-177.5 458,-158.5 306,-158.5"/>
<text text-anchor="middle" x="382" y="-165.5" font-family="Helvetica,sans-Serif" font-size="10.00" fill="#000000">SpikeMonitorCore::isRecording</text>
</a>
</g>
</g>
<!-- Node338&#45;&gt;Node339 -->
<g id="edge3" class="edge">
<title>Node338&#45;&gt;Node339</title>
<path fill="none" stroke="#191970" d="M222.6343,-313.3041C250.8981,-287.5341 328.1447,-217.1033 363.6755,-184.7077"/>
<polygon fill="#191970" stroke="#191970" points="366.3383,-187.0162 371.3698,-177.6923 361.622,-181.8435 366.3383,-187.0162"/>
</g>
<!-- Node340 -->
<g id="node5" class="node">
<title>Node340</title>
<g id="a_node5"><a xlink:href="classSpikeMonitorCore.html#af0ba89c38f6852cdf9d914687ad6a445" target="_top" xlink:title="prints the AER vector in human&#45;readable format ">
<polygon fill="#ffffff" stroke="#000000" points="506,-278.5 506,-297.5 625,-297.5 625,-278.5 506,-278.5"/>
<text text-anchor="middle" x="565.5" y="-285.5" font-family="Helvetica,sans-Serif" font-size="10.00" fill="#000000">SpikeMonitorCore::print</text>
</a>
</g>
</g>
<!-- Node339&#45;&gt;Node340 -->
<g id="edge4" class="edge">
<title>Node339&#45;&gt;Node340</title>
<path fill="none" stroke="#191970" d="M403.7705,-177.6823C440.3727,-198.5837 513.5577,-246.5544 547.4753,-271.9923"/>
<polygon fill="#191970" stroke="#191970" points="545.5169,-274.9018 555.5733,-278.2366 549.7914,-269.3585 545.5169,-274.9018"/>
</g>
<!-- Node351 -->
<g id="node16" class="node">
<title>Node351</title>
<g id="a_node16"><a xlink:href="classSpikeMonitorCore.html#a6e116c2994e0449c41e56d03370fa54c" target="_top" xlink:title="inserts a (time,neurId) tupel into the 2D spike vector ">
<polygon fill="#ffffff" stroke="#000000" points="494,-.5 494,-19.5 637,-19.5 637,-.5 494,-.5"/>
<text text-anchor="middle" x="565.5" y="-7.5" font-family="Helvetica,sans-Serif" font-size="10.00" fill="#000000">SpikeMonitorCore::pushAER</text>
</a>
</g>
</g>
<!-- Node339&#45;&gt;Node351 -->
<g id="edge27" class="edge">
<title>Node339&#45;&gt;Node351</title>
<path fill="none" stroke="#191970" d="M385.3876,-158.3193C397.3654,-131.9392 439.9191,-61.9368 494,-25 494.0879,-24.94 494.1759,-24.8801 494.264,-24.8204"/>
<polygon fill="#191970" stroke="#191970" points="496.0887,-27.8074 502.8704,-19.6674 492.4927,-21.8016 496.0887,-27.8074"/>
</g>
<!-- Node340&#45;&gt;Node339 -->
<g id="edge5" class="edge">
<title>Node340&#45;&gt;Node339</title>
<path fill="none" stroke="#191970" d="M543.9509,-278.444C507.2926,-257.5358 433.4861,-209.1531 399.6622,-183.7356"/>
<polygon fill="#191970" stroke="#191970" points="401.6594,-180.8556 391.6074,-177.5077 397.3776,-186.3934 401.6594,-180.8556"/>
</g>
<!-- Node341 -->
<g id="node6" class="node">
<title>Node341</title>
<g id="a_node6"><a xlink:href="classSNN.html#a5fd2b156623d78138bcb44167eabab78" target="_top" xlink:title="SNN::getSimTime">
<polygon fill="#ffffff" stroke="#000000" points="690,-392.5 690,-411.5 787,-411.5 787,-392.5 690,-392.5"/>
<text text-anchor="middle" x="738.5" y="-399.5" font-family="Helvetica,sans-Serif" font-size="10.00" fill="#000000">SNN::getSimTime</text>
</a>
</g>
</g>
<!-- Node340&#45;&gt;Node341 -->
<g id="edge6" class="edge">
<title>Node340&#45;&gt;Node341</title>
<path fill="none" stroke="#191970" d="M573.6542,-297.623C590.3485,-316.7213 630.4487,-359.586 673,-383 677.0181,-385.211 681.3198,-387.1879 685.7273,-388.9509"/>
<polygon fill="#191970" stroke="#191970" points="684.8818,-392.3669 695.4761,-392.4767 687.2626,-385.7842 684.8818,-392.3669"/>
</g>
<!-- Node342 -->
<g id="node7" class="node">
<title>Node342</title>
<g id="a_node7"><a xlink:href="classSNN.html#ab0367f8ebd4019bf7d34ebddb1563fe7" target="_top" xlink:title="SNN::getGroupName">
<polygon fill="#ffffff" stroke="#000000" points="683.5,-354.5 683.5,-373.5 793.5,-373.5 793.5,-354.5 683.5,-354.5"/>
<text text-anchor="middle" x="738.5" y="-361.5" font-family="Helvetica,sans-Serif" font-size="10.00" fill="#000000">SNN::getGroupName</text>
</a>
</g>
</g>
<!-- Node340&#45;&gt;Node342 -->
<g id="edge7" class="edge">
<title>Node340&#45;&gt;Node342</title>
<path fill="none" stroke="#191970" d="M583.8861,-297.586C605.0883,-308.4771 641.1225,-326.4893 673,-340 681.9258,-343.783 691.6736,-347.5468 700.8568,-350.9334"/>
<polygon fill="#191970" stroke="#191970" points="699.9401,-354.324 710.5343,-354.4434 702.3269,-347.7434 699.9401,-354.324"/>
</g>
<!-- Node343 -->
<g id="node8" class="node">
<title>Node343</title>
<g id="a_node8"><a xlink:href="classSpikeMonitorCore.html#af6c333e6cefff92d0e354eca70625cdc" target="_top" xlink:title="returns the total number of recorded spikes in the group ">
<polygon fill="#ffffff" stroke="#000000" points="1035.5,-158 1035.5,-188 1166.5,-188 1166.5,-158 1035.5,-158"/>
<text text-anchor="start" x="1043.5" y="-176" font-family="Helvetica,sans-Serif" font-size="10.00" fill="#000000">SpikeMonitorCore::getPop</text>
<text text-anchor="middle" x="1101" y="-165" font-family="Helvetica,sans-Serif" font-size="10.00" fill="#000000">NumSpikes</text>
</a>
</g>
</g>
<!-- Node340&#45;&gt;Node343 -->
<g id="edge8" class="edge">
<title>Node340&#45;&gt;Node343</title>
<path fill="none" stroke="#191970" d="M625.0053,-288.401C708.05,-287.2733 862.4094,-278.9958 986,-237 1016.749,-226.5516 1048.8031,-207.9769 1071.2347,-193.5203"/>
<polygon fill="#191970" stroke="#191970" points="1073.1925,-196.4219 1079.6333,-188.0096 1069.3523,-190.5693 1073.1925,-196.4219"/>
</g>
<!-- Node340&#45;&gt;Node346 -->
<g id="edge13" class="edge">
<title>Node340&#45;&gt;Node346</title>
<path fill="none" stroke="#191970" d="M625.1391,-296.334C640.6991,-298.3528 657.4619,-300.3903 673,-302 789.7637,-314.0962 924.8724,-323.8002 1011.5471,-329.4764"/>
<polygon fill="#191970" stroke="#191970" points="1011.4042,-332.9744 1021.6105,-330.1316 1011.8591,-325.9892 1011.4042,-332.9744"/>
</g>
<!-- Node347 -->
<g id="node12" class="node">
<title>Node347</title>
<g id="a_node12"><a xlink:href="classSpikeMonitorCore.html#ae62d623e8edfc6b05309256c1d825bbd" target="_top" xlink:title="returns the recorded mean firing rate of the group ">
<polygon fill="#ffffff" stroke="#000000" points="847.5,-197 847.5,-227 978.5,-227 978.5,-197 847.5,-197"/>
<text text-anchor="start" x="855.5" y="-215" font-family="Helvetica,sans-Serif" font-size="10.00" fill="#000000">SpikeMonitorCore::getPop</text>
<text text-anchor="middle" x="913" y="-204" font-family="Helvetica,sans-Serif" font-size="10.00" fill="#000000">MeanFiringRate</text>
</a>
</g>
</g>
<!-- Node340&#45;&gt;Node347 -->
<g id="edge14" class="edge">
<title>Node340&#45;&gt;Node347</title>
<path fill="none" stroke="#191970" d="M609.1593,-278.4515C666.3207,-265.95 767.4361,-243.8356 837.2242,-228.5726"/>
<polygon fill="#191970" stroke="#191970" points="838.2632,-231.9281 847.2845,-226.3723 836.7676,-225.0898 838.2632,-231.9281"/>
</g>
<!-- Node348 -->
<g id="node13" class="node">
<title>Node348</title>
<g id="a_node13"><a xlink:href="classSpikeMonitorCore.html#ad0c4b32bb5cc0c7a8d95ed6023a2695f" target="_top" xlink:title="computes the standard deviation of firing rates in the group ">
<polygon fill="#ffffff" stroke="#000000" points="673,-153 673,-183 804,-183 804,-153 673,-153"/>
<text text-anchor="start" x="681" y="-171" font-family="Helvetica,sans-Serif" font-size="10.00" fill="#000000">SpikeMonitorCore::getPop</text>
<text text-anchor="middle" x="738.5" y="-160" font-family="Helvetica,sans-Serif" font-size="10.00" fill="#000000">StdFiringRate</text>
</a>
</g>
</g>
<!-- Node340&#45;&gt;Node348 -->
<g id="edge18" class="edge">
<title>Node340&#45;&gt;Node348</title>
<path fill="none" stroke="#191970" d="M579.3649,-278.3827C607.2009,-259.0745 670.4531,-215.2001 708.2946,-188.9517"/>
<polygon fill="#191970" stroke="#191970" points="710.6525,-191.5758 716.8745,-183.0004 706.6628,-185.824 710.6525,-191.5758"/>
</g>
<!-- Node350 -->
<g id="node15" class="node">
<title>Node350</title>
<g id="a_node15"><a xlink:href="classSpikeMonitorCore.html#aed09edf4583ac05d42fccc7e3556e3c5" target="_top" xlink:title="returns the recorded mean firing rate for a specific neuron ">
<polygon fill="#ffffff" stroke="#000000" points="840,-408 840,-438 986,-438 986,-408 840,-408"/>
<text text-anchor="start" x="848" y="-426" font-family="Helvetica,sans-Serif" font-size="10.00" fill="#000000">SpikeMonitorCore::getNeuron</text>
<text text-anchor="middle" x="913" y="-415" font-family="Helvetica,sans-Serif" font-size="10.00" fill="#000000">MeanFiringRate</text>
</a>
</g>
</g>
<!-- Node340&#45;&gt;Node350 -->
<g id="edge23" class="edge">
<title>Node340&#45;&gt;Node350</title>
<path fill="none" stroke="#191970" d="M569.7243,-297.8164C581.5261,-323.8148 617.6522,-394.2856 673,-421 721.4341,-444.3774 782.0362,-444.6905 830.2249,-439.2539"/>
<polygon fill="#191970" stroke="#191970" points="830.813,-442.708 840.3106,-438.0127 829.958,-435.7604 830.813,-442.708"/>
</g>
<!-- Node343&#45;&gt;Node339 -->
<g id="edge9" class="edge">
<title>Node343&#45;&gt;Node339</title>
<path fill="none" stroke="#191970" d="M1074.6228,-157.8021C1051.9588,-145.673 1017.9719,-129.6497 986,-123 771.7716,-78.4432 710.5398,-109.5419 494,-141 470.696,-144.3855 445.1381,-150.3677 424.3285,-155.8422"/>
<polygon fill="#191970" stroke="#191970" points="423.2748,-152.5011 414.525,-158.4752 425.0906,-159.2615 423.2748,-152.5011"/>
</g>
<!-- Node344 -->
<g id="node9" class="node">
<title>Node344</title>
<g id="a_node9"><a xlink:href="classSpikeMonitorCore.html#a005a2f884f6260054483d4fa6ed6ddbb" target="_top" xlink:title="returns the number of recorded spikes of a specific neuron ">
<polygon fill="#ffffff" stroke="#000000" points="1216,-118 1216,-148 1362,-148 1362,-118 1216,-118"/>
<text text-anchor="start" x="1224" y="-136" font-family="Helvetica,sans-Serif" font-size="10.00" fill="#000000">SpikeMonitorCore::getNeuron</text>
<text text-anchor="middle" x="1289" y="-125" font-family="Helvetica,sans-Serif" font-size="10.00" fill="#000000">NumSpikes</text>
</a>
</g>
</g>
<!-- Node343&#45;&gt;Node344 -->
<g id="edge10" class="edge">
<title>Node343&#45;&gt;Node344</title>
<path fill="none" stroke="#191970" d="M1166.7533,-159.0099C1180.2157,-156.1456 1194.5303,-153.0999 1208.4437,-150.1396"/>
<polygon fill="#191970" stroke="#191970" points="1209.4333,-153.5075 1218.486,-148.003 1207.9765,-146.6608 1209.4333,-153.5075"/>
</g>
<!-- Node344&#45;&gt;Node339 -->
<g id="edge11" class="edge">
<title>Node344&#45;&gt;Node339</title>
<path fill="none" stroke="#191970" d="M1249.5976,-117.9994C1181.8559,-93.5976 1038.4844,-48 913,-48 738.5,-48 738.5,-48 738.5,-48 607.9341,-48 463.8638,-121.1936 407.0209,-153.2537"/>
<polygon fill="#191970" stroke="#191970" points="404.9947,-150.3805 398.0509,-158.3827 408.4694,-156.4573 404.9947,-150.3805"/>
</g>
<!-- Node345 -->
<g id="node10" class="node">
<title>Node345</title>
<g id="a_node10"><a xlink:href="classSpikeMonitorCore.html#abe76071e1ac3632d55f2455b239b3d12" target="_top" xlink:title="returns recording mode ">
<polygon fill="#ffffff" stroke="#000000" points="1398,-22.5 1398,-41.5 1536,-41.5 1536,-22.5 1398,-22.5"/>
<text text-anchor="middle" x="1467" y="-29.5" font-family="Helvetica,sans-Serif" font-size="10.00" fill="#000000">SpikeMonitorCore::getMode</text>
</a>
</g>
</g>
<!-- Node344&#45;&gt;Node345 -->
<g id="edge12" class="edge">
<title>Node344&#45;&gt;Node345</title>
<path fill="none" stroke="#191970" d="M1315.6484,-117.8793C1349.5126,-98.6642 1407.58,-65.7158 1441.0886,-46.7025"/>
<polygon fill="#191970" stroke="#191970" points="1442.8779,-49.7115 1449.848,-41.7323 1439.4233,-43.6233 1442.8779,-49.7115"/>
</g>
<!-- Node347&#45;&gt;Node339 -->
<g id="edge15" class="edge">
<title>Node347&#45;&gt;Node339</title>
<path fill="none" stroke="#191970" d="M847.2306,-208.3696C764.6429,-203.5628 618.6561,-194.245 494,-182 484.2003,-181.0374 473.9324,-179.9132 463.7578,-178.7281"/>
<polygon fill="#191970" stroke="#191970" points="463.978,-175.2297 453.635,-177.5263 463.1527,-182.1809 463.978,-175.2297"/>
</g>
<!-- Node347&#45;&gt;Node343 -->
<g id="edge16" class="edge">
<title>Node347&#45;&gt;Node343</title>
<path fill="none" stroke="#191970" d="M978.7533,-198.3597C993.78,-195.2424 1009.8685,-191.9049 1025.2756,-188.7088"/>
<polygon fill="#191970" stroke="#191970" points="1026.2033,-192.0909 1035.2838,-186.6326 1024.7814,-185.2369 1026.2033,-192.0909"/>
</g>
<!-- Node347&#45;&gt;Node346 -->
<g id="edge17" class="edge">
<title>Node347&#45;&gt;Node346</title>
<path fill="none" stroke="#191970" d="M936.0525,-227.0822C969.5475,-248.9965 1031.7762,-289.71 1069.4845,-314.3808"/>
<polygon fill="#191970" stroke="#191970" points="1067.7689,-317.4409 1078.0533,-319.987 1071.6014,-311.5832 1067.7689,-317.4409"/>
</g>
<!-- Node348&#45;&gt;Node339 -->
<g id="edge19" class="edge">
<title>Node348&#45;&gt;Node339</title>
<path fill="none" stroke="#191970" d="M672.7554,-168C615.2333,-168 531.2727,-168 468.3465,-168"/>
<polygon fill="#191970" stroke="#191970" points="468.041,-164.5001 458.0409,-168 468.0409,-171.5001 468.041,-164.5001"/>
</g>
<!-- Node348&#45;&gt;Node347 -->
<g id="edge20" class="edge">
<title>Node348&#45;&gt;Node347</title>
<path fill="none" stroke="#191970" d="M798.0649,-183.0192C812.7245,-186.7156 828.5473,-190.7053 843.6258,-194.5074"/>
<polygon fill="#191970" stroke="#191970" points="842.8552,-197.9225 853.4074,-196.9738 844.5667,-191.135 842.8552,-197.9225"/>
</g>
<!-- Node349 -->
<g id="node14" class="node">
<title>Node349</title>
<g id="a_node14"><a xlink:href="classSpikeMonitorCore.html#a0fc20fcc5876030d796debd148ae7cee" target="_top" xlink:title="returns a list of firing rates for all neurons in the group (sorted by neuron ID ascending) ...">
<polygon fill="#ffffff" stroke="#000000" points="850.5,-132 850.5,-162 975.5,-162 975.5,-132 850.5,-132"/>
<text text-anchor="start" x="858.5" y="-150" font-family="Helvetica,sans-Serif" font-size="10.00" fill="#000000">SpikeMonitorCore::getAll</text>
<text text-anchor="middle" x="913" y="-139" font-family="Helvetica,sans-Serif" font-size="10.00" fill="#000000">FiringRates</text>
</a>
</g>
</g>
<!-- Node348&#45;&gt;Node349 -->
<g id="edge21" class="edge">
<title>Node348&#45;&gt;Node349</title>
<path fill="none" stroke="#191970" d="M804.471,-160.0608C816.116,-158.6594 828.2997,-157.1932 840.1214,-155.7705"/>
<polygon fill="#191970" stroke="#191970" points="840.8842,-159.204 850.3943,-154.5342 840.0477,-152.2542 840.8842,-159.204"/>
</g>
<!-- Node349&#45;&gt;Node339 -->
<g id="edge22" class="edge">
<title>Node349&#45;&gt;Node339</title>
<path fill="none" stroke="#191970" d="M850.4666,-144.9835C835.2624,-144.5748 819.0485,-144.2071 804,-144 745.7833,-143.199 731.1729,-141.6052 673,-144 604.0764,-146.8374 526.2029,-153.4397 468.3692,-159.0026"/>
<polygon fill="#191970" stroke="#191970" points="467.7899,-155.5422 458.1749,-159.9923 468.4664,-162.5095 467.7899,-155.5422"/>
</g>
<!-- Node350&#45;&gt;Node339 -->
<g id="edge24" class="edge">
<title>Node350&#45;&gt;Node339</title>
<path fill="none" stroke="#191970" d="M867.4563,-438.0564C818.1811,-451.8779 737.953,-467.1311 673,-445 533.7749,-397.5627 426.4649,-240.3232 392.9598,-186.364"/>
<polygon fill="#191970" stroke="#191970" points="395.7704,-184.2507 387.5715,-177.5403 389.7962,-187.899 395.7704,-184.2507"/>
</g>
<!-- Node350&#45;&gt;Node344 -->
<g id="edge25" class="edge">
<title>Node350&#45;&gt;Node344</title>
<path fill="none" stroke="#191970" d="M986.1399,-422.4126C1044.4192,-418.3342 1125.0765,-404.1811 1180,-360 1245.5754,-307.2504 1274.1644,-205.4733 1284.3121,-158.2313"/>
<polygon fill="#191970" stroke="#191970" points="1287.7821,-158.7317 1286.3566,-148.2332 1280.9241,-157.3293 1287.7821,-158.7317"/>
</g>
<!-- Node350&#45;&gt;Node346 -->
<g id="edge26" class="edge">
<title>Node350&#45;&gt;Node346</title>
<path fill="none" stroke="#191970" d="M945.3184,-407.8723C976.8899,-393.0941 1025.0822,-370.536 1059.4788,-354.4354"/>
<polygon fill="#191970" stroke="#191970" points="1061.2163,-357.4867 1068.7894,-350.0773 1058.2486,-351.1469 1061.2163,-357.4867"/>
</g>
<!-- Node351&#45;&gt;Node339 -->
<g id="edge28" class="edge">
<title>Node351&#45;&gt;Node339</title>
<path fill="none" stroke="#191970" d="M549.8881,-19.5121C534.61,-24.8436 511.192,-31.258 494,-43 450.8104,-72.4981 414.9726,-123.0848 396.1889,-150.193"/>
<polygon fill="#191970" stroke="#191970" points="393.3056,-148.2088 390.4865,-158.4218 399.0592,-152.1959 393.3056,-148.2088"/>
</g>
<!-- Node351&#45;&gt;Node345 -->
<g id="edge29" class="edge">
<title>Node351&#45;&gt;Node345</title>
<path fill="none" stroke="#191970" d="M637.0446,-10C707.3016,-10 817.528,-10 913,-10 913,-10 913,-10 1101,-10 1199.9468,-10 1313.6697,-18.1108 1387.7463,-24.4829"/>
<polygon fill="#191970" stroke="#191970" points="1387.6641,-27.9889 1397.93,-25.3694 1388.2713,-21.0152 1387.6641,-27.9889"/>
</g>
</g>
</svg>
