<?xml version="1.0" encoding="UTF-8" standalone="no"?>
<!DOCTYPE svg PUBLIC "-//W3C//DTD SVG 1.1//EN"
 "http://www.w3.org/Graphics/SVG/1.1/DTD/svg11.dtd">
<!-- Generated by graphviz version 2.40.1 (20161225.0304)
 -->
<!-- Title: isBufferBig Pages: 1 -->
<!--zoomable 458 -->
<svg id="main" version="1.1" xmlns="http://www.w3.org/2000/svg" xmlns:xlink="http://www.w3.org/1999/xlink" xml:space="preserve" onload="init(evt)">
<style type="text/css"><![CDATA[
.edge:hover path { stroke: red; }
.edge:hover polygon { stroke: red; fill: red; }
]]></style>
<script type="text/javascript"><![CDATA[
var edges = document.getElementsByTagName('g');
if (edges && edges.length) {
  for (var i=0;i<edges.length;i++) {
    if (edges[i].id.substr(0,4)=='edge') {
      edges[i].setAttribute('class','edge');
    }
  }
}
]]></script>
        <defs>
                <circle id="rim" cx="0" cy="0" r="7"/>
                <circle id="rim2" cx="0" cy="0" r="3.5"/>
                <g id="zoomPlus">
                        <use xlink:href="#rim" fill="#404040">
                                <set attributeName="fill" to="#808080" begin="zoomplus.mouseover" end="zoomplus.mouseout"/>
                        </use>
                        <path d="M-4,0h8M0,-4v8" fill="none" stroke="white" stroke-width="1.5" pointer-events="none"/>
                </g>
                <g id="zoomMin">
                        <use xlink:href="#rim" fill="#404040">
                                <set attributeName="fill" to="#808080" begin="zoomminus.mouseover" end="zoomminus.mouseout"/>
                        </use>
                        <path d="M-4,0h8" fill="none" stroke="white" stroke-width="1.5" pointer-events="none"/>
                </g>
                <g id="dirArrow">
                        <path fill="none" stroke="white" stroke-width="1.5" d="M0,-3.0v7 M-2.5,-0.5L0,-3.0L2.5,-0.5"/>
                </g>
               <g id="resetDef">
                       <use xlink:href="#rim2" fill="#404040">
                               <set attributeName="fill" to="#808080" begin="reset.mouseover" end="reset.mouseout"/>
                       </use>
               </g>
        </defs>

<script type="text/javascript">
var viewWidth = 1390;
var viewHeight = 458;
var sectionId = 'dynsection-15';
</script>
<script xlink:href="svgpan.js"/>
<svg id="graph" class="graph">
<g id="viewport">
<title>isBufferBig</title>
<polygon fill="#ffffff" stroke="transparent" points="-4,4 -4,-453.5 1386,-453.5 1386,4 -4,4"/>
<!-- Node316 -->
<g id="node1" class="node">
<title>Node316</title>
<polygon fill="#bfbfbf" stroke="#000000" points="0,-114.5 0,-133.5 65,-133.5 65,-114.5 0,-114.5"/>
<text text-anchor="middle" x="32.5" y="-121.5" font-family="Helvetica,sans-Serif" font-size="10.00" fill="#000000">isBufferBig</text>
</g>
<!-- Node317 -->
<g id="node2" class="node">
<title>Node317</title>
<g id="a_node2"><a xlink:href="classNeuronMonitorCore.html#a38f87732cc929797d9648e68cd509f1b" target="_top" xlink:title="sets timestamp of last NeuronMonitor update ">
<polygon fill="#ffffff" stroke="#000000" points="101,-114.5 101,-133.5 187,-133.5 187,-114.5 101,-114.5"/>
<text text-anchor="middle" x="144" y="-121.5" font-family="Helvetica,sans-Serif" font-size="10.00" fill="#000000">setLastUpdated</text>
</a>
</g>
</g>
<!-- Node316&#45;&gt;Node317 -->
<g id="edge1" class="edge">
<title>Node316&#45;&gt;Node317</title>
<path fill="none" stroke="#191970" d="M75.0732,-124C83.5099,-124 92.3737,-124 100.8301,-124"/>
<polygon fill="#191970" stroke="#191970" points="75.0502,-120.5001 65.0502,-124 75.0501,-127.5001 75.0502,-120.5001"/>
</g>
<!-- Node318 -->
<g id="node3" class="node">
<title>Node318</title>
<g id="a_node3"><a xlink:href="classSNN.html#a8dd319bdd9a54e38f9254cbec099c30a" target="_top" xlink:title="copy required neuron state values from ??? buffer to ??? buffer ">
<polygon fill="#ffffff" stroke="#000000" points="223,-247.5 223,-266.5 360,-266.5 360,-247.5 223,-247.5"/>
<text text-anchor="middle" x="291.5" y="-254.5" font-family="Helvetica,sans-Serif" font-size="10.00" fill="#000000">SNN::updateNeuronMonitor</text>
</a>
</g>
</g>
<!-- Node317&#45;&gt;Node318 -->
<g id="edge2" class="edge">
<title>Node317&#45;&gt;Node318</title>
<path fill="none" stroke="#191970" d="M162.1204,-140.339C193.1228,-168.2938 255.4292,-224.4752 280.5903,-247.1628"/>
<polygon fill="#191970" stroke="#191970" points="164.3784,-137.6623 154.6078,-133.565 159.6907,-142.861 164.3784,-137.6623"/>
</g>
<!-- Node319 -->
<g id="node4" class="node">
<title>Node319</title>
<g id="a_node4"><a xlink:href="classNeuronMonitorCore.html#ab91616c118b701c2afd9136393d1f19b" target="_top" xlink:title="starts recording Neuron state ">
<polygon fill="#ffffff" stroke="#000000" points="403.5,-266.5 403.5,-285.5 483.5,-285.5 483.5,-266.5 403.5,-266.5"/>
<text text-anchor="middle" x="443.5" y="-273.5" font-family="Helvetica,sans-Serif" font-size="10.00" fill="#000000">startRecording</text>
</a>
</g>
</g>
<!-- Node318&#45;&gt;Node319 -->
<g id="edge3" class="edge">
<title>Node318&#45;&gt;Node319</title>
<path fill="none" stroke="#191970" d="M370.3437,-266.8555C381.681,-268.2726 392.9338,-269.6792 403.0911,-270.9489"/>
<polygon fill="#191970" stroke="#191970" points="370.7412,-263.378 360.3843,-265.6105 369.8729,-270.3239 370.7412,-263.378"/>
</g>
<!-- Node333 -->
<g id="node18" class="node">
<title>Node333</title>
<g id="a_node18"><a xlink:href="classNeuronMonitorCore.html#a25e0e98dd4519eaaa6b258f0dcb91ac7" target="_top" xlink:title="stops recording Neuron state ">
<polygon fill="#ffffff" stroke="#000000" points="732,-38.5 732,-57.5 812,-57.5 812,-38.5 732,-38.5"/>
<text text-anchor="middle" x="772" y="-45.5" font-family="Helvetica,sans-Serif" font-size="10.00" fill="#000000">stopRecording</text>
</a>
</g>
</g>
<!-- Node318&#45;&gt;Node333 -->
<g id="edge43" class="edge">
<title>Node318&#45;&gt;Node333</title>
<path fill="none" stroke="#191970" d="M334.1454,-244.5167C406.3213,-222.2553 555.5678,-171.2649 667,-100 685.2854,-88.3058 684.0077,-77.5073 703,-67 711.8064,-62.128 721.9478,-58.4369 731.6978,-55.6672"/>
<polygon fill="#191970" stroke="#191970" points="333.0266,-241.1987 324.4845,-247.4663 335.0707,-247.8936 333.0266,-241.1987"/>
</g>
<!-- Node343 -->
<g id="node28" class="node">
<title>Node343</title>
<g id="a_node28"><a xlink:href="classSNN.html#a3df37c7539f784fe7a939c5da922f41b" target="_top" xlink:title="run the simulation for n sec ">
<polygon fill="#ffffff" stroke="#000000" points="396,-372.5 396,-391.5 491,-391.5 491,-372.5 396,-372.5"/>
<text text-anchor="middle" x="443.5" y="-379.5" font-family="Helvetica,sans-Serif" font-size="10.00" fill="#000000">SNN::runNetwork</text>
</a>
</g>
</g>
<!-- Node318&#45;&gt;Node343 -->
<g id="edge44" class="edge">
<title>Node318&#45;&gt;Node343</title>
<path fill="none" stroke="#191970" d="M311.2406,-273.234C343.2703,-299.5742 405.5964,-350.8292 431.6282,-372.237"/>
<polygon fill="#191970" stroke="#191970" points="313.374,-270.457 303.4272,-266.8085 308.9278,-275.8636 313.374,-270.457"/>
</g>
<!-- Node320 -->
<g id="node5" class="node">
<title>Node320</title>
<g id="a_node5"><a xlink:href="classNeuronMonitor.html#ab91616c118b701c2afd9136393d1f19b" target="_top" xlink:title="NeuronMonitor::startRecording">
<polygon fill="#ffffff" stroke="#000000" points="879.5,-266.5 879.5,-285.5 1029.5,-285.5 1029.5,-266.5 879.5,-266.5"/>
<text text-anchor="middle" x="954.5" y="-273.5" font-family="Helvetica,sans-Serif" font-size="10.00" fill="#000000">NeuronMonitor::startRecording</text>
</a>
</g>
</g>
<!-- Node319&#45;&gt;Node320 -->
<g id="edge4" class="edge">
<title>Node319&#45;&gt;Node320</title>
<path fill="none" stroke="#191970" d="M471.7676,-289.9375C538.825,-320.944 711.5928,-388.6622 841,-333 862.3713,-323.8075 856.8853,-306.689 877,-295 883.7075,-291.1021 891.189,-288.0004 898.7849,-285.533"/>
<polygon fill="#191970" stroke="#191970" points="473.1969,-286.742 462.6587,-285.6482 470.2147,-293.075 473.1969,-286.742"/>
</g>
<!-- Node321 -->
<g id="node6" class="node">
<title>Node321</title>
<g id="a_node6"><a xlink:href="classNeuronMonitorCore.html#a3a3ffdb35b09328d22e5d72503ed1f55" target="_top" xlink:title="returns recording status ">
<polygon fill="#ffffff" stroke="#000000" points="563,-228.5 563,-247.5 631,-247.5 631,-228.5 563,-228.5"/>
<text text-anchor="middle" x="597" y="-235.5" font-family="Helvetica,sans-Serif" font-size="10.00" fill="#000000">isRecording</text>
</a>
</g>
</g>
<!-- Node319&#45;&gt;Node321 -->
<g id="edge5" class="edge">
<title>Node319&#45;&gt;Node321</title>
<path fill="none" stroke="#191970" d="M472.8274,-263.2989C498.5505,-255.283 535.9606,-245.9298 562.9892,-240.7026"/>
<polygon fill="#191970" stroke="#191970" points="471.6835,-259.9904 463.2532,-266.4076 473.8453,-266.6482 471.6835,-259.9904"/>
</g>
<!-- Node321&#45;&gt;Node318 -->
<g id="edge42" class="edge">
<title>Node321&#45;&gt;Node318</title>
<path fill="none" stroke="#191970" d="M552.4071,-240.7734C501.8579,-243.9172 418.8576,-249.0792 360.0602,-252.736"/>
<polygon fill="#191970" stroke="#191970" points="552.9174,-244.2485 562.6808,-240.1344 552.4828,-237.262 552.9174,-244.2485"/>
</g>
<!-- Node321&#45;&gt;Node319 -->
<g id="edge23" class="edge">
<title>Node321&#45;&gt;Node319</title>
<path fill="none" stroke="#191970" d="M567.9685,-250.6087C544.1813,-258.0379 510.2563,-266.6367 483.8303,-272.0392"/>
<polygon fill="#191970" stroke="#191970" points="569.0654,-253.9325 577.491,-247.5092 566.8987,-247.2763 569.0654,-253.9325"/>
</g>
<!-- Node322 -->
<g id="node7" class="node">
<title>Node322</title>
<g id="a_node7"><a xlink:href="classNeuronMonitor.html#a3a3ffdb35b09328d22e5d72503ed1f55" target="_top" xlink:title="NeuronMonitor::isRecording">
<polygon fill="#ffffff" stroke="#000000" points="703,-152.5 703,-171.5 841,-171.5 841,-152.5 703,-152.5"/>
<text text-anchor="middle" x="772" y="-159.5" font-family="Helvetica,sans-Serif" font-size="10.00" fill="#000000">NeuronMonitor::isRecording</text>
</a>
</g>
</g>
<!-- Node321&#45;&gt;Node322 -->
<g id="edge6" class="edge">
<title>Node321&#45;&gt;Node322</title>
<path fill="none" stroke="#191970" d="M640.9197,-226.0455C649.8554,-222.7679 658.9702,-218.7711 667,-214 685.6598,-202.9129 684.0077,-191.5073 703,-181 709.9582,-177.1505 717.7497,-174.0382 725.5231,-171.5352"/>
<polygon fill="#191970" stroke="#191970" points="639.6796,-222.7705 631.3534,-229.3223 641.948,-229.3928 639.6796,-222.7705"/>
</g>
<!-- Node330 -->
<g id="node15" class="node">
<title>Node330</title>
<g id="a_node15"><a xlink:href="classNeuronMonitorCore.html#ac8bb3912a3ce86b15842e79d0b421204" target="_top" xlink:title="deletes data from the neuron state vector ">
<polygon fill="#ffffff" stroke="#000000" points="753,-266.5 753,-285.5 791,-285.5 791,-266.5 753,-266.5"/>
<text text-anchor="middle" x="772" y="-273.5" font-family="Helvetica,sans-Serif" font-size="10.00" fill="#000000">clear</text>
</a>
</g>
</g>
<!-- Node321&#45;&gt;Node330 -->
<g id="edge15" class="edge">
<title>Node321&#45;&gt;Node330</title>
<path fill="none" stroke="#191970" d="M641.3596,-241.672C677.1958,-248.0258 725.908,-259.1117 752.5744,-267.3466"/>
<polygon fill="#191970" stroke="#191970" points="641.6026,-238.1631 631.1572,-239.936 640.4284,-245.0639 641.6026,-238.1631"/>
</g>
<!-- Node332 -->
<g id="node17" class="node">
<title>Node332</title>
<g id="a_node17"><a xlink:href="classNeuronMonitorCore.html#a743a4ad47ef60bc593cc9882bd4ffb57" target="_top" xlink:title="inserts a (time,neurId) tupel into the D Neuron State vector ">
<polygon fill="#ffffff" stroke="#000000" points="726,-304.5 726,-323.5 818,-323.5 818,-304.5 726,-304.5"/>
<text text-anchor="middle" x="772" y="-311.5" font-family="Helvetica,sans-Serif" font-size="10.00" fill="#000000">pushNeuronState</text>
</a>
</g>
</g>
<!-- Node321&#45;&gt;Node332 -->
<g id="edge20" class="edge">
<title>Node321&#45;&gt;Node332</title>
<path fill="none" stroke="#191970" d="M633.5674,-252.3134C653.5552,-262.8116 679.0556,-276.4074 703,-286 721.5695,-293.4393 744.0732,-299.0363 758.2179,-304.4046"/>
<polygon fill="#191970" stroke="#191970" points="634.9982,-249.1122 624.5138,-247.5868 631.7586,-255.3174 634.9982,-249.1122"/>
</g>
<!-- Node321&#45;&gt;Node333 -->
<g id="edge24" class="edge">
<title>Node321&#45;&gt;Node333</title>
<path fill="none" stroke="#191970" d="M629.1867,-225.6374C642.5887,-221.582 657.263,-215.6566 667,-205 712.3719,-155.3429 656.1205,-106.2365 703,-58 710.6204,-50.159 721.1551,-45.4635 731.7001,-43.0432"/>
<polygon fill="#191970" stroke="#191970" points="627.9677,-222.3444 619.2891,-228.4215 629.8632,-229.0829 627.9677,-222.3444"/>
</g>
<!-- Node334 -->
<g id="node19" class="node">
<title>Node334</title>
<g id="a_node19"><a xlink:href="classNeuronMonitorCore.html#a5113f6b476e3e3544ecbffefa313234d" target="_top" xlink:title="sets pointer to Neuron file ">
<polygon fill="#ffffff" stroke="#000000" points="729,-228.5 729,-247.5 815,-247.5 815,-228.5 729,-228.5"/>
<text text-anchor="middle" x="772" y="-235.5" font-family="Helvetica,sans-Serif" font-size="10.00" fill="#000000">setNeuronFileId</text>
</a>
</g>
</g>
<!-- Node321&#45;&gt;Node334 -->
<g id="edge27" class="edge">
<title>Node321&#45;&gt;Node334</title>
<path fill="none" stroke="#191970" d="M641.4332,-232.0367C668.2799,-230.9696 702.3327,-230.9881 728.9301,-232.0921"/>
<polygon fill="#191970" stroke="#191970" points="640.9821,-228.5539 631.1572,-232.519 641.3103,-235.5462 640.9821,-228.5539"/>
</g>
<!-- Node339 -->
<g id="node24" class="node">
<title>Node339</title>
<g id="a_node24"><a xlink:href="classNeuronMonitorCore.html#a5414db20073ada3806b3c35686c9a6f4" target="_top" xlink:title="returns the Neuron state vector ">
<polygon fill="#ffffff" stroke="#000000" points="739.5,-190.5 739.5,-209.5 804.5,-209.5 804.5,-190.5 739.5,-190.5"/>
<text text-anchor="middle" x="772" y="-197.5" font-family="Helvetica,sans-Serif" font-size="10.00" fill="#000000">getVectorV</text>
</a>
</g>
</g>
<!-- Node321&#45;&gt;Node339 -->
<g id="edge33" class="edge">
<title>Node321&#45;&gt;Node339</title>
<path fill="none" stroke="#191970" d="M641.1291,-228.4177C671.6945,-221.7806 711.7107,-213.0914 739.4084,-207.077"/>
<polygon fill="#191970" stroke="#191970" points="640.1867,-225.0407 631.1572,-230.583 641.6722,-231.8812 640.1867,-225.0407"/>
</g>
<!-- Node340 -->
<g id="node25" class="node">
<title>Node340</title>
<g id="a_node25"><a xlink:href="classNeuronMonitorCore.html#aff9eb621d9c78a5e33f1435eff0e9ba9" target="_top" xlink:title="getVectorU">
<polygon fill="#ffffff" stroke="#000000" points="739,-114.5 739,-133.5 805,-133.5 805,-114.5 739,-114.5"/>
<text text-anchor="middle" x="772" y="-121.5" font-family="Helvetica,sans-Serif" font-size="10.00" fill="#000000">getVectorU</text>
</a>
</g>
</g>
<!-- Node321&#45;&gt;Node340 -->
<g id="edge35" class="edge">
<title>Node321&#45;&gt;Node340</title>
<path fill="none" stroke="#191970" d="M640.7954,-228.7556C650.1843,-225.2737 659.5181,-220.5082 667,-214 693.6941,-190.7798 675.6036,-165.3873 703,-143 713.1023,-134.7448 726.5253,-130.0651 738.8455,-127.4166"/>
<polygon fill="#191970" stroke="#191970" points="639.4825,-225.5026 631.0667,-231.9388 641.6593,-232.1555 639.4825,-225.5026"/>
</g>
<!-- Node341 -->
<g id="node26" class="node">
<title>Node341</title>
<g id="a_node26"><a xlink:href="classNeuronMonitorCore.html#aa1e83b424e9145add71076cadfadb200" target="_top" xlink:title="getVectorI">
<polygon fill="#ffffff" stroke="#000000" points="741,-76.5 741,-95.5 803,-95.5 803,-76.5 741,-76.5"/>
<text text-anchor="middle" x="772" y="-83.5" font-family="Helvetica,sans-Serif" font-size="10.00" fill="#000000">getVectorI</text>
</a>
</g>
</g>
<!-- Node321&#45;&gt;Node341 -->
<g id="edge37" class="edge">
<title>Node321&#45;&gt;Node341</title>
<path fill="none" stroke="#191970" d="M640.7,-229.863C650.3471,-226.3292 659.8189,-221.2628 667,-214 702.8709,-177.7214 666.029,-140.1569 703,-105 713.1745,-95.3248 727.8107,-90.489 740.9874,-88.1055"/>
<polygon fill="#191970" stroke="#191970" points="639.5502,-226.5558 631.0728,-232.9106 641.6628,-233.2294 639.5502,-226.5558"/>
</g>
<!-- Node342 -->
<g id="node27" class="node">
<title>Node342</title>
<g id="a_node27"><a xlink:href="classNeuronMonitorCore.html#a388f572c62279f839ee138a9afbdeeb5" target="_top" xlink:title="prints neuron states in human&#45;readable format ">
<polygon fill="#ffffff" stroke="#000000" points="754.5,-.5 754.5,-19.5 789.5,-19.5 789.5,-.5 754.5,-.5"/>
<text text-anchor="middle" x="772" y="-7.5" font-family="Helvetica,sans-Serif" font-size="10.00" fill="#000000">print</text>
</a>
</g>
</g>
<!-- Node321&#45;&gt;Node342 -->
<g id="edge39" class="edge">
<title>Node321&#45;&gt;Node342</title>
<path fill="none" stroke="#191970" d="M606.3835,-219.4985C632.3067,-168.3858 703,-29 703,-29 717.6243,-17.0496 739.2074,-12.5921 754.3302,-10.9426"/>
<polygon fill="#191970" stroke="#191970" points="603.2319,-217.9749 601.83,-228.4766 609.4749,-221.1412 603.2319,-217.9749"/>
</g>
<!-- Node322&#45;&gt;Node320 -->
<g id="edge8" class="edge">
<title>Node322&#45;&gt;Node320</title>
<path fill="none" stroke="#191970" d="M834.6321,-176.3953C836.8673,-177.7913 839.0019,-179.3219 841,-181 869.621,-205.0369 848.0419,-233.3702 877,-257 881.7227,-260.8537 887.1114,-263.944 892.7976,-266.4194"/>
<polygon fill="#191970" stroke="#191970" points="836.0688,-173.1967 825.5874,-171.6504 832.8169,-179.3954 836.0688,-173.1967"/>
</g>
<!-- Node323 -->
<g id="node8" class="node">
<title>Node323</title>
<g id="a_node8"><a xlink:href="classNeuronMonitor.html#ac8bb3912a3ce86b15842e79d0b421204" target="_top" xlink:title="NeuronMonitor::clear">
<polygon fill="#ffffff" stroke="#000000" points="901,-228.5 901,-247.5 1008,-247.5 1008,-228.5 901,-228.5"/>
<text text-anchor="middle" x="954.5" y="-235.5" font-family="Helvetica,sans-Serif" font-size="10.00" fill="#000000">NeuronMonitor::clear</text>
</a>
</g>
</g>
<!-- Node322&#45;&gt;Node323 -->
<g id="edge7" class="edge">
<title>Node322&#45;&gt;Node323</title>
<path fill="none" stroke="#191970" d="M829.5884,-175.2168C833.5577,-176.9227 837.4045,-178.842 841,-181 860.9474,-192.9723 856.8853,-207.311 877,-219 884.3064,-223.2459 892.5312,-226.5471 900.8217,-229.1128"/>
<polygon fill="#191970" stroke="#191970" points="830.7555,-171.916 820.1651,-171.6115 828.2542,-178.4538 830.7555,-171.916"/>
</g>
<!-- Node324 -->
<g id="node9" class="node">
<title>Node324</title>
<g id="a_node9"><a xlink:href="classNeuronMonitor.html#a25e0e98dd4519eaaa6b258f0dcb91ac7" target="_top" xlink:title="NeuronMonitor::stopRecording">
<polygon fill="#ffffff" stroke="#000000" points="880,-38.5 880,-57.5 1029,-57.5 1029,-38.5 880,-38.5"/>
<text text-anchor="middle" x="954.5" y="-45.5" font-family="Helvetica,sans-Serif" font-size="10.00" fill="#000000">NeuronMonitor::stopRecording</text>
</a>
</g>
</g>
<!-- Node322&#45;&gt;Node324 -->
<g id="edge9" class="edge">
<title>Node322&#45;&gt;Node324</title>
<path fill="none" stroke="#191970" d="M834.6321,-147.6047C836.8673,-146.2087 839.0019,-144.6781 841,-143 869.621,-118.9631 848.0419,-90.6298 877,-67 881.7227,-63.1463 887.1114,-60.056 892.7976,-57.5806"/>
<polygon fill="#191970" stroke="#191970" points="832.8169,-144.6046 825.5874,-152.3496 836.0688,-150.8033 832.8169,-144.6046"/>
</g>
<!-- Node325 -->
<g id="node10" class="node">
<title>Node325</title>
<g id="a_node10"><a xlink:href="classNeuronMonitor.html#a388f572c62279f839ee138a9afbdeeb5" target="_top" xlink:title="NeuronMonitor::print">
<polygon fill="#ffffff" stroke="#000000" points="902,-.5 902,-19.5 1007,-19.5 1007,-.5 902,-.5"/>
<text text-anchor="middle" x="954.5" y="-7.5" font-family="Helvetica,sans-Serif" font-size="10.00" fill="#000000">NeuronMonitor::print</text>
</a>
</g>
</g>
<!-- Node322&#45;&gt;Node325 -->
<g id="edge10" class="edge">
<title>Node322&#45;&gt;Node325</title>
<path fill="none" stroke="#191970" d="M835.7633,-147.3538C837.6103,-146.0239 839.3643,-144.576 841,-143 879.2625,-106.1341 838.22,-65.3211 877,-29 883.8755,-22.5604 892.5666,-18.2013 901.6235,-15.2717"/>
<polygon fill="#191970" stroke="#191970" points="833.9649,-144.351 827.1476,-152.4612 837.5345,-150.3725 833.9649,-144.351"/>
</g>
<!-- Node326 -->
<g id="node11" class="node">
<title>Node326</title>
<g id="a_node11"><a xlink:href="classNeuronMonitor.html#a22cd4deca28f0e9e8dd2e576b75b02a8" target="_top" xlink:title="Returns the ... ">
<polygon fill="#ffffff" stroke="#000000" points="877,-152.5 877,-171.5 1032,-171.5 1032,-152.5 877,-152.5"/>
<text text-anchor="middle" x="954.5" y="-159.5" font-family="Helvetica,sans-Serif" font-size="10.00" fill="#000000">NeuronMonitor::getLastUpdated</text>
</a>
</g>
</g>
<!-- Node322&#45;&gt;Node326 -->
<g id="edge11" class="edge">
<title>Node322&#45;&gt;Node326</title>
<path fill="none" stroke="#191970" d="M851.4184,-162C859.8214,-162 868.3606,-162 876.7443,-162"/>
<polygon fill="#191970" stroke="#191970" points="851.2557,-158.5001 841.2556,-162 851.2556,-165.5001 851.2557,-158.5001"/>
</g>
<!-- Node327 -->
<g id="node12" class="node">
<title>Node327</title>
<g id="a_node12"><a xlink:href="classNeuronMonitor.html#a5414db20073ada3806b3c35686c9a6f4" target="_top" xlink:title="returns the Neuron state vectors ">
<polygon fill="#ffffff" stroke="#000000" points="887,-190.5 887,-209.5 1022,-209.5 1022,-190.5 887,-190.5"/>
<text text-anchor="middle" x="954.5" y="-197.5" font-family="Helvetica,sans-Serif" font-size="10.00" fill="#000000">NeuronMonitor::getVectorV</text>
</a>
</g>
</g>
<!-- Node322&#45;&gt;Node327 -->
<g id="edge12" class="edge">
<title>Node322&#45;&gt;Node327</title>
<path fill="none" stroke="#191970" d="M828.0995,-173.681C853.9804,-179.0699 884.3146,-185.3861 908.7787,-190.4799"/>
<polygon fill="#191970" stroke="#191970" points="828.556,-170.201 818.0525,-171.589 827.129,-177.0541 828.556,-170.201"/>
</g>
<!-- Node328 -->
<g id="node13" class="node">
<title>Node328</title>
<g id="a_node13"><a xlink:href="classNeuronMonitor.html#aff9eb621d9c78a5e33f1435eff0e9ba9" target="_top" xlink:title="NeuronMonitor::getVectorU">
<polygon fill="#ffffff" stroke="#000000" points="886.5,-114.5 886.5,-133.5 1022.5,-133.5 1022.5,-114.5 886.5,-114.5"/>
<text text-anchor="middle" x="954.5" y="-121.5" font-family="Helvetica,sans-Serif" font-size="10.00" fill="#000000">NeuronMonitor::getVectorU</text>
</a>
</g>
</g>
<!-- Node322&#45;&gt;Node328 -->
<g id="edge13" class="edge">
<title>Node322&#45;&gt;Node328</title>
<path fill="none" stroke="#191970" d="M828.0995,-150.319C853.9804,-144.9301 884.3146,-138.6139 908.7787,-133.5201"/>
<polygon fill="#191970" stroke="#191970" points="827.129,-146.9459 818.0525,-152.411 828.556,-153.799 827.129,-146.9459"/>
</g>
<!-- Node329 -->
<g id="node14" class="node">
<title>Node329</title>
<g id="a_node14"><a xlink:href="classNeuronMonitor.html#aa1e83b424e9145add71076cadfadb200" target="_top" xlink:title="NeuronMonitor::getVectorI">
<polygon fill="#ffffff" stroke="#000000" points="889,-76.5 889,-95.5 1020,-95.5 1020,-76.5 889,-76.5"/>
<text text-anchor="middle" x="954.5" y="-83.5" font-family="Helvetica,sans-Serif" font-size="10.00" fill="#000000">NeuronMonitor::getVectorI</text>
</a>
</g>
</g>
<!-- Node322&#45;&gt;Node329 -->
<g id="edge14" class="edge">
<title>Node322&#45;&gt;Node329</title>
<path fill="none" stroke="#191970" d="M829.5884,-148.7832C833.5577,-147.0773 837.4045,-145.158 841,-143 860.9474,-131.0277 856.8853,-116.689 877,-105 883.7075,-101.1021 891.189,-98.0004 898.7849,-95.533"/>
<polygon fill="#191970" stroke="#191970" points="828.2542,-145.5462 820.1651,-152.3885 830.7555,-152.084 828.2542,-145.5462"/>
</g>
<!-- Node330&#45;&gt;Node319 -->
<g id="edge18" class="edge">
<title>Node330&#45;&gt;Node319</title>
<path fill="none" stroke="#191970" d="M742.823,-276C683.9557,-276 550.8761,-276 483.7805,-276"/>
<polygon fill="#191970" stroke="#191970" points="742.9186,-279.5001 752.9186,-276 742.9185,-272.5001 742.9186,-279.5001"/>
</g>
<!-- Node330&#45;&gt;Node321 -->
<g id="edge19" class="edge">
<title>Node330&#45;&gt;Node321</title>
<path fill="none" stroke="#191970" d="M742.7934,-274.8443C708.0997,-269.5462 650.9759,-256.9808 619.5199,-247.5924"/>
<polygon fill="#191970" stroke="#191970" points="742.3983,-278.3231 752.7871,-276.2437 743.3691,-271.3907 742.3983,-278.3231"/>
</g>
<!-- Node330&#45;&gt;Node323 -->
<g id="edge16" class="edge">
<title>Node330&#45;&gt;Node323</title>
<path fill="none" stroke="#191970" d="M801.0735,-269.9463C829.9994,-263.9234 874.8208,-254.5907 908.5635,-247.5649"/>
<polygon fill="#191970" stroke="#191970" points="800.2623,-266.5401 791.1858,-272.0052 801.6893,-273.3931 800.2623,-266.5401"/>
</g>
<!-- Node331 -->
<g id="node16" class="node">
<title>Node331</title>
<g id="a_node16"><a xlink:href="classNeuronMonitorCore.html#a1fea34ca55f65e7cfeb05d870b2e741b" target="_top" xlink:title="constructor (called by CARLsim::setNeuronMonitor) ">
<polygon fill="#ffffff" stroke="#000000" points="904,-380.5 904,-399.5 1005,-399.5 1005,-380.5 904,-380.5"/>
<text text-anchor="middle" x="954.5" y="-387.5" font-family="Helvetica,sans-Serif" font-size="10.00" fill="#000000">NeuronMonitorCore</text>
</a>
</g>
</g>
<!-- Node330&#45;&gt;Node331 -->
<g id="edge17" class="edge">
<title>Node330&#45;&gt;Node331</title>
<path fill="none" stroke="#191970" d="M801.4374,-278.516C814.7631,-280.9613 829.9637,-285.7314 841,-295 869.621,-319.0369 848.0419,-347.3702 877,-371 884.728,-377.306 894.2394,-381.5679 903.9197,-384.4365"/>
<polygon fill="#191970" stroke="#191970" points="801.6724,-275.0127 791.2679,-277.0118 800.6481,-281.9374 801.6724,-275.0127"/>
</g>
<!-- Node332&#45;&gt;Node318 -->
<g id="edge22" class="edge">
<title>Node332&#45;&gt;Node318</title>
<path fill="none" stroke="#191970" d="M715.6767,-316.3327C641.5765,-318.2279 507.6629,-317.5922 396,-295 365.9152,-288.9131 332.8897,-275.7285 312.1819,-266.6109"/>
<polygon fill="#191970" stroke="#191970" points="715.8292,-319.8298 725.727,-316.0505 715.6327,-312.8326 715.8292,-319.8298"/>
</g>
<!-- Node332&#45;&gt;Node321 -->
<g id="edge21" class="edge">
<title>Node332&#45;&gt;Node321</title>
<path fill="none" stroke="#191970" d="M716.0642,-308.7328C711.603,-307.2716 707.2009,-305.6829 703,-304 664.4017,-288.5368 621.7598,-262.671 604.6844,-247.6918"/>
<polygon fill="#191970" stroke="#191970" points="715.2839,-312.1537 725.8696,-311.7152 717.3209,-305.4567 715.2839,-312.1537"/>
</g>
<!-- Node333&#45;&gt;Node321 -->
<g id="edge26" class="edge">
<title>Node333&#45;&gt;Node321</title>
<path fill="none" stroke="#191970" d="M732.5426,-60.0635C721.7184,-63.2157 710.8234,-67.9501 703,-76 656.1205,-124.2365 712.3719,-173.3429 667,-223 657.7275,-233.1483 643.9774,-239.006 631.1125,-241.7297"/>
<polygon fill="#191970" stroke="#191970" points="733.5442,-63.4203 742.3732,-57.5638 731.8191,-56.6362 733.5442,-63.4203"/>
</g>
<!-- Node333&#45;&gt;Node324 -->
<g id="edge25" class="edge">
<title>Node333&#45;&gt;Node324</title>
<path fill="none" stroke="#191970" d="M822.2239,-48C840.069,-48 860.5579,-48 879.9968,-48"/>
<polygon fill="#191970" stroke="#191970" points="822.0504,-44.5001 812.0504,-48 822.0504,-51.5001 822.0504,-44.5001"/>
</g>
<!-- Node334&#45;&gt;Node321 -->
<g id="edge29" class="edge">
<title>Node334&#45;&gt;Node321</title>
<path fill="none" stroke="#191970" d="M718.7289,-244.2683C690.2595,-245.1107 656.0509,-244.8482 631.1572,-243.481"/>
<polygon fill="#191970" stroke="#191970" points="719.0599,-247.7589 728.9301,-243.9079 718.8128,-240.7632 719.0599,-247.7589"/>
</g>
<!-- Node335 -->
<g id="node20" class="node">
<title>Node335</title>
<g id="a_node20"><a xlink:href="classNeuronMonitor.html#a11168f8252e1416f1706b5f7cae0be1e" target="_top" xlink:title="NeuronMonitor::setLogFile">
<polygon fill="#ffffff" stroke="#000000" points="889,-304.5 889,-323.5 1020,-323.5 1020,-304.5 889,-304.5"/>
<text text-anchor="middle" x="954.5" y="-311.5" font-family="Helvetica,sans-Serif" font-size="10.00" fill="#000000">NeuronMonitor::setLogFile</text>
</a>
</g>
</g>
<!-- Node334&#45;&gt;Node335 -->
<g id="edge28" class="edge">
<title>Node334&#45;&gt;Node335</title>
<path fill="none" stroke="#191970" d="M824.7185,-249.2491C830.4035,-251.4087 835.9496,-253.9688 841,-257 860.9474,-268.9723 856.8853,-283.311 877,-295 883.7075,-298.8979 891.189,-301.9996 898.7849,-304.467"/>
<polygon fill="#191970" stroke="#191970" points="825.6773,-245.8785 815.083,-245.9805 823.4286,-252.5075 825.6773,-245.8785"/>
</g>
<!-- Node336 -->
<g id="node21" class="node">
<title>Node336</title>
<g id="a_node21"><a xlink:href="classSNN.html#a4c62ae1b8cff6aedfdf98cb8808d14e1" target="_top" xlink:title="sets up a neuron monitor registered with a callback to process the neuron state values, there can only be one NeuronMonitor per group ">
<polygon fill="#ffffff" stroke="#000000" points="893.5,-342.5 893.5,-361.5 1015.5,-361.5 1015.5,-342.5 893.5,-342.5"/>
<text text-anchor="middle" x="954.5" y="-349.5" font-family="Helvetica,sans-Serif" font-size="10.00" fill="#000000">SNN::setNeuronMonitor</text>
</a>
</g>
</g>
<!-- Node334&#45;&gt;Node336 -->
<g id="edge30" class="edge">
<title>Node334&#45;&gt;Node336</title>
<path fill="none" stroke="#191970" d="M824.7047,-247.2681C830.5939,-249.7781 836.1921,-252.9622 841,-257 869.621,-281.0369 848.0419,-309.3702 877,-333 881.83,-336.9413 887.3566,-340.084 893.1857,-342.5872"/>
<polygon fill="#191970" stroke="#191970" points="825.8766,-243.9701 815.2824,-243.8527 823.4911,-250.5511 825.8766,-243.9701"/>
</g>
<!-- Node337 -->
<g id="node22" class="node">
<title>Node337</title>
<g id="a_node22"><a xlink:href="classCARLsim_1_1Impl.html#ad09ccf4ff95aa4f7b629afad588b0c88" target="_top" xlink:title="CARLsim::Impl::setNeuron\lMonitor">
<polygon fill="#ffffff" stroke="#000000" points="1068,-337 1068,-367 1203,-367 1203,-337 1068,-337"/>
<text text-anchor="start" x="1076" y="-355" font-family="Helvetica,sans-Serif" font-size="10.00" fill="#000000">CARLsim::Impl::setNeuron</text>
<text text-anchor="middle" x="1135.5" y="-344" font-family="Helvetica,sans-Serif" font-size="10.00" fill="#000000">Monitor</text>
</a>
</g>
</g>
<!-- Node336&#45;&gt;Node337 -->
<g id="edge31" class="edge">
<title>Node336&#45;&gt;Node337</title>
<path fill="none" stroke="#191970" d="M1025.5426,-352C1039.4834,-352 1054.0707,-352 1067.8952,-352"/>
<polygon fill="#191970" stroke="#191970" points="1025.526,-348.5001 1015.526,-352 1025.526,-355.5001 1025.526,-348.5001"/>
</g>
<!-- Node338 -->
<g id="node23" class="node">
<title>Node338</title>
<g id="a_node23"><a xlink:href="classCARLsim.html#a9f96445ca9cb3edb1532b6c741ec5736" target="_top" xlink:title="Sets a Neuron Monitor for a groups, print voltage, recovery, and total current values to binary file...">
<polygon fill="#ffffff" stroke="#000000" points="1239,-342.5 1239,-361.5 1382,-361.5 1382,-342.5 1239,-342.5"/>
<text text-anchor="middle" x="1310.5" y="-349.5" font-family="Helvetica,sans-Serif" font-size="10.00" fill="#000000">CARLsim::setNeuronMonitor</text>
</a>
</g>
</g>
<!-- Node337&#45;&gt;Node338 -->
<g id="edge32" class="edge">
<title>Node337&#45;&gt;Node338</title>
<path fill="none" stroke="#191970" d="M1213.4394,-352C1221.9344,-352 1230.551,-352 1238.9638,-352"/>
<polygon fill="#191970" stroke="#191970" points="1213.1596,-348.5001 1203.1596,-352 1213.1595,-355.5001 1213.1596,-348.5001"/>
</g>
<!-- Node339&#45;&gt;Node327 -->
<g id="edge34" class="edge">
<title>Node339&#45;&gt;Node327</title>
<path fill="none" stroke="#191970" d="M814.698,-200C836.1006,-200 862.531,-200 886.6289,-200"/>
<polygon fill="#191970" stroke="#191970" points="814.6274,-196.5001 804.6273,-200 814.6273,-203.5001 814.6274,-196.5001"/>
</g>
<!-- Node340&#45;&gt;Node328 -->
<g id="edge36" class="edge">
<title>Node340&#45;&gt;Node328</title>
<path fill="none" stroke="#191970" d="M815.3261,-124C836.4789,-124 862.4289,-124 886.1666,-124"/>
<polygon fill="#191970" stroke="#191970" points="815.0494,-120.5001 805.0494,-124 815.0493,-127.5001 815.0494,-120.5001"/>
</g>
<!-- Node341&#45;&gt;Node329 -->
<g id="edge38" class="edge">
<title>Node341&#45;&gt;Node329</title>
<path fill="none" stroke="#191970" d="M813.4824,-86C835.7323,-86 863.6699,-86 888.7966,-86"/>
<polygon fill="#191970" stroke="#191970" points="813.3729,-82.5001 803.3729,-86 813.3728,-89.5001 813.3729,-82.5001"/>
</g>
<!-- Node342&#45;&gt;Node317 -->
<g id="edge41" class="edge">
<title>Node342&#45;&gt;Node317</title>
<path fill="none" stroke="#191970" d="M744.2734,-15.0332C645.1182,-33.0327 307.6282,-94.2968 187.165,-116.1643"/>
<polygon fill="#191970" stroke="#191970" points="745.1818,-18.4256 754.3958,-13.1957 743.9315,-11.5381 745.1818,-18.4256"/>
</g>
<!-- Node342&#45;&gt;Node325 -->
<g id="edge40" class="edge">
<title>Node342&#45;&gt;Node325</title>
<path fill="none" stroke="#191970" d="M800.1292,-10C827.1893,-10 868.7695,-10 901.9612,-10"/>
<polygon fill="#191970" stroke="#191970" points="799.8312,-6.5001 789.8312,-10 799.8311,-13.5001 799.8312,-6.5001"/>
</g>
<!-- Node344 -->
<g id="node29" class="node">
<title>Node344</title>
<g id="a_node29"><a xlink:href="classCARLsim_1_1Impl.html#a749f370debe5eec8661cf9ca1b1bb4c0" target="_top" xlink:title="CARLsim::Impl::runNetwork">
<polygon fill="#ffffff" stroke="#000000" points="527,-402.5 527,-421.5 667,-421.5 667,-402.5 527,-402.5"/>
<text text-anchor="middle" x="597" y="-409.5" font-family="Helvetica,sans-Serif" font-size="10.00" fill="#000000">CARLsim::Impl::runNetwork</text>
</a>
</g>
</g>
<!-- Node343&#45;&gt;Node344 -->
<g id="edge45" class="edge">
<title>Node343&#45;&gt;Node344</title>
<path fill="none" stroke="#191970" d="M501.2166,-393.2801C516.7038,-396.3069 533.2948,-399.5495 548.2438,-402.4711"/>
<polygon fill="#191970" stroke="#191970" points="501.7126,-389.8109 491.2269,-391.3277 500.3699,-396.6809 501.7126,-389.8109"/>
</g>
<!-- Node345 -->
<g id="node30" class="node">
<title>Node345</title>
<g id="a_node30"><a xlink:href="classCARLsim.html#aafb2d44405c96aafe089f96ff867018d" target="_top" xlink:title="run the simulation for time=(nSec*seconds + nMsec*milliseconds) ">
<polygon fill="#ffffff" stroke="#000000" points="714,-413.5 714,-432.5 830,-432.5 830,-413.5 714,-413.5"/>
<text text-anchor="middle" x="772" y="-420.5" font-family="Helvetica,sans-Serif" font-size="10.00" fill="#000000">CARLsim::runNetwork</text>
</a>
</g>
</g>
<!-- Node344&#45;&gt;Node345 -->
<g id="edge46" class="edge">
<title>Node344&#45;&gt;Node345</title>
<path fill="none" stroke="#191970" d="M677.4296,-417.0556C689.7203,-417.8281 702.1984,-418.6125 713.8852,-419.3471"/>
<polygon fill="#191970" stroke="#191970" points="677.3708,-413.5451 667.1709,-416.4107 676.9316,-420.5313 677.3708,-413.5451"/>
</g>
<!-- Node346 -->
<g id="node31" class="node">
<title>Node346</title>
<g id="a_node31"><a xlink:href="classSimpleWeightTuner_1_1Impl.html#a312d84bfa66a5036bb52a4c39db6fa6c" target="_top" xlink:title="SimpleWeightTuner::\lImpl::iterate">
<polygon fill="#ffffff" stroke="#000000" points="900.5,-419 900.5,-449 1008.5,-449 1008.5,-419 900.5,-419"/>
<text text-anchor="start" x="908.5" y="-437" font-family="Helvetica,sans-Serif" font-size="10.00" fill="#000000">SimpleWeightTuner::</text>
<text text-anchor="middle" x="954.5" y="-426" font-family="Helvetica,sans-Serif" font-size="10.00" fill="#000000">Impl::iterate</text>
</a>
</g>
</g>
<!-- Node345&#45;&gt;Node346 -->
<g id="edge47" class="edge">
<title>Node345&#45;&gt;Node346</title>
<path fill="none" stroke="#191970" d="M840.4152,-427.1237C860.1686,-428.3143 881.4477,-429.5968 900.2159,-430.7281"/>
<polygon fill="#191970" stroke="#191970" points="840.4384,-423.6188 830.2459,-426.5107 840.0172,-430.6061 840.4384,-423.6188"/>
</g>
<!-- Node347 -->
<g id="node32" class="node">
<title>Node347</title>
<g id="a_node32"><a xlink:href="classSimpleWeightTuner.html#a0df985e3ff7a27edc1e2e3fcc8261843" target="_top" xlink:title="Performs an iteration step of the tuning algorithm. ">
<polygon fill="#ffffff" stroke="#000000" points="1081.5,-419 1081.5,-449 1189.5,-449 1189.5,-419 1081.5,-419"/>
<text text-anchor="start" x="1089.5" y="-437" font-family="Helvetica,sans-Serif" font-size="10.00" fill="#000000">SimpleWeightTuner::</text>
<text text-anchor="middle" x="1135.5" y="-426" font-family="Helvetica,sans-Serif" font-size="10.00" fill="#000000">iterate</text>
</a>
</g>
</g>
<!-- Node346&#45;&gt;Node347 -->
<g id="edge48" class="edge">
<title>Node346&#45;&gt;Node347</title>
<path fill="none" stroke="#191970" d="M1018.9488,-434C1039.33,-434 1061.6383,-434 1081.2324,-434"/>
<polygon fill="#191970" stroke="#191970" points="1018.806,-430.5001 1008.806,-434 1018.8059,-437.5001 1018.806,-430.5001"/>
</g>
</g>
</svg>
        <g id="navigator" transform="translate(0 0)" fill="#404254">
                <rect fill="#f2f5e9" fill-opacity="0.5" stroke="#606060" stroke-width=".5" x="0" y="0" width="60" height="60"/>
                <use id="zoomplus" xlink:href="#zoomPlus" x="17" y="9" onmousedown="handleZoom(evt,'in')"/>
                <use id="zoomminus" xlink:href="#zoomMin" x="42" y="9" onmousedown="handleZoom(evt,'out')"/>
                <use id="reset" xlink:href="#resetDef" x="30" y="36" onmousedown="handleReset()"/>
                <g id="arrowUp" xlink:href="#dirArrow" transform="translate(30 24)" onmousedown="handlePan(0,-1)">
                  <use xlink:href="#rim" fill="#404040">
                        <set attributeName="fill" to="#808080" begin="arrowUp.mouseover" end="arrowUp.mouseout"/>
                  </use>
                  <path fill="none" stroke="white" stroke-width="1.5" d="M0,-3.0v7 M-2.5,-0.5L0,-3.0L2.5,-0.5"/>
                </g>
                <g id="arrowRight" xlink:href="#dirArrow" transform="rotate(90) translate(36 -43)" onmousedown="handlePan(1,0)">
                  <use xlink:href="#rim" fill="#404040">
                        <set attributeName="fill" to="#808080" begin="arrowRight.mouseover" end="arrowRight.mouseout"/>
                  </use>
                  <path fill="none" stroke="white" stroke-width="1.5" d="M0,-3.0v7 M-2.5,-0.5L0,-3.0L2.5,-0.5"/>
                </g>
                <g id="arrowDown" xlink:href="#dirArrow" transform="rotate(180) translate(-30 -48)" onmousedown="handlePan(0,1)">
                  <use xlink:href="#rim" fill="#404040">
                        <set attributeName="fill" to="#808080" begin="arrowDown.mouseover" end="arrowDown.mouseout"/>
                  </use>
                  <path fill="none" stroke="white" stroke-width="1.5" d="M0,-3.0v7 M-2.5,-0.5L0,-3.0L2.5,-0.5"/>
                </g>
                <g id="arrowLeft" xlink:href="#dirArrow" transform="rotate(270) translate(-36 17)" onmousedown="handlePan(-1,0)">
                  <use xlink:href="#rim" fill="#404040">
                        <set attributeName="fill" to="#808080" begin="arrowLeft.mouseover" end="arrowLeft.mouseout"/>
                  </use>
                  <path fill="none" stroke="white" stroke-width="1.5" d="M0,-3.0v7 M-2.5,-0.5L0,-3.0L2.5,-0.5"/>
                </g>
        </g>
        <svg viewBox="0 0 15 15" width="100%" height="30px" preserveAspectRatio="xMaxYMin meet">
         <g id="arrow_out" transform="scale(0.3 0.3)">
          <a xlink:href="classNeuronMonitorCore_aaeb6a64ac5d9fd3b7a979f0f12ec87dc_icgraph_org.svg" target="_base">
           <rect id="button" ry="5" rx="5" y="6" x="6" height="38" width="38"
                fill="#f2f5e9" fill-opacity="0.5" stroke="#606060" stroke-width="1.0"/>
           <path id="arrow"
             d="M 11.500037,31.436501 C 11.940474,20.09759 22.043105,11.32322 32.158766,21.979434 L 37.068811,17.246167 C 37.068811,17.246167 37.088388,32 37.088388,32 L 22.160133,31.978069 C 22.160133,31.978069 26.997745,27.140456 26.997745,27.140456 C 18.528582,18.264221 13.291696,25.230495 11.500037,31.436501 z"
             style="fill:#404040;"/>
          </a>
         </g>
        </svg>
</svg>
