<?xml version="1.0" encoding="UTF-8" standalone="no"?>
<!DOCTYPE svg PUBLIC "-//W3C//DTD SVG 1.1//EN"
 "http://www.w3.org/Graphics/SVG/1.1/DTD/svg11.dtd">
<!-- Generated by graphviz version 2.40.1 (20161225.0304)
 -->
<!-- Title: getNumGroups Pages: 1 -->
<svg width="675pt" height="1282pt"
 viewBox="0.00 0.00 675.00 1282.00" xmlns="http://www.w3.org/2000/svg" xmlns:xlink="http://www.w3.org/1999/xlink">
<g id="graph0" class="graph" transform="scale(1 1) rotate(0) translate(4 1278)">
<title>getNumGroups</title>
<polygon fill="#ffffff" stroke="transparent" points="-4,4 -4,-1278 671,-1278 671,4 -4,4"/>
<!-- Node350 -->
<g id="node1" class="node">
<title>Node350</title>
<polygon fill="#bfbfbf" stroke="#000000" points="0,-361.5 0,-380.5 83,-380.5 83,-361.5 0,-361.5"/>
<text text-anchor="middle" x="41.5" y="-368.5" font-family="Helvetica,sans-Serif" font-size="10.00" fill="#000000">getNumGroups</text>
</g>
<!-- Node351 -->
<g id="node2" class="node">
<title>Node351</title>
<g id="a_node2"><a xlink:href="classCARLsim_1_1Impl.html#a7ce184c0de7c3d3c80b27a1ea7bb3e59" target="_top" xlink:title="connectCompartments">
<polygon fill="#ffffff" stroke="#000000" points="324,-1216.5 324,-1235.5 440,-1235.5 440,-1216.5 324,-1216.5"/>
<text text-anchor="middle" x="382" y="-1223.5" font-family="Helvetica,sans-Serif" font-size="10.00" fill="#000000">connectCompartments</text>
</a>
</g>
</g>
<!-- Node350&#45;&gt;Node351 -->
<g id="edge1" class="edge">
<title>Node350&#45;&gt;Node351</title>
<path fill="none" stroke="#191970" d="M42.0418,-390.5416C45.4521,-507.2282 65.5558,-1108.9295 119,-1169 169.8519,-1226.1567 263.2556,-1233.5146 323.9687,-1231.3954"/>
<polygon fill="#191970" stroke="#191970" points="45.5402,-390.432 41.756,-380.536 38.543,-390.6319 45.5402,-390.432"/>
</g>
<!-- Node353 -->
<g id="node4" class="node">
<title>Node353</title>
<g id="a_node4"><a xlink:href="classCARLsim_1_1Impl.html#af614535178ba3d0a11d4a6bda3fa5413" target="_top" xlink:title="getConductanceAMPA">
<polygon fill="#ffffff" stroke="#000000" points="132,-418.5 132,-437.5 248,-437.5 248,-418.5 132,-418.5"/>
<text text-anchor="middle" x="190" y="-425.5" font-family="Helvetica,sans-Serif" font-size="10.00" fill="#000000">getConductanceAMPA</text>
</a>
</g>
</g>
<!-- Node350&#45;&gt;Node353 -->
<g id="edge3" class="edge">
<title>Node350&#45;&gt;Node353</title>
<path fill="none" stroke="#191970" d="M67.6542,-385.4085C82.4185,-393.1356 101.3893,-402.3979 119,-409 128.5585,-412.5834 139.0765,-415.7827 149.0209,-418.4879"/>
<polygon fill="#191970" stroke="#191970" points="69.0876,-382.2066 58.6159,-380.5958 65.7975,-388.3852 69.0876,-382.2066"/>
</g>
<!-- Node355 -->
<g id="node6" class="node">
<title>Node355</title>
<g id="a_node6"><a xlink:href="classCARLsim_1_1Impl.html#a450adf3cd56dd307b86c7d33df5afffd" target="_top" xlink:title="getConductanceNMDA">
<polygon fill="#ffffff" stroke="#000000" points="131,-380.5 131,-399.5 249,-399.5 249,-380.5 131,-380.5"/>
<text text-anchor="middle" x="190" y="-387.5" font-family="Helvetica,sans-Serif" font-size="10.00" fill="#000000">getConductanceNMDA</text>
</a>
</g>
</g>
<!-- Node350&#45;&gt;Node355 -->
<g id="edge5" class="edge">
<title>Node350&#45;&gt;Node355</title>
<path fill="none" stroke="#191970" d="M93.2175,-377.6171C105.3581,-379.1704 118.3864,-380.8373 130.8255,-382.4288"/>
<polygon fill="#191970" stroke="#191970" points="93.6241,-374.1406 83.2607,-376.3431 92.7356,-381.084 93.6241,-374.1406"/>
</g>
<!-- Node357 -->
<g id="node8" class="node">
<title>Node357</title>
<g id="a_node8"><a xlink:href="classCARLsim_1_1Impl.html#aaf0866addc7106a9d3ca39fe467af659" target="_top" xlink:title="getConductanceGABAa">
<polygon fill="#ffffff" stroke="#000000" points="129.5,-342.5 129.5,-361.5 250.5,-361.5 250.5,-342.5 129.5,-342.5"/>
<text text-anchor="middle" x="190" y="-349.5" font-family="Helvetica,sans-Serif" font-size="10.00" fill="#000000">getConductanceGABAa</text>
</a>
</g>
</g>
<!-- Node350&#45;&gt;Node357 -->
<g id="edge7" class="edge">
<title>Node350&#45;&gt;Node357</title>
<path fill="none" stroke="#191970" d="M93.2747,-364.3756C104.9471,-362.8822 117.4377,-361.2841 129.4346,-359.7491"/>
<polygon fill="#191970" stroke="#191970" points="92.7356,-360.916 83.2607,-365.6569 93.6241,-367.8594 92.7356,-360.916"/>
</g>
<!-- Node359 -->
<g id="node10" class="node">
<title>Node359</title>
<g id="a_node10"><a xlink:href="classCARLsim_1_1Impl.html#a917e6c84361a393ba5752f365cce008f" target="_top" xlink:title="getConductanceGABAb">
<polygon fill="#ffffff" stroke="#000000" points="129.5,-304.5 129.5,-323.5 250.5,-323.5 250.5,-304.5 129.5,-304.5"/>
<text text-anchor="middle" x="190" y="-311.5" font-family="Helvetica,sans-Serif" font-size="10.00" fill="#000000">getConductanceGABAb</text>
</a>
</g>
</g>
<!-- Node350&#45;&gt;Node359 -->
<g id="edge9" class="edge">
<title>Node350&#45;&gt;Node359</title>
<path fill="none" stroke="#191970" d="M67.6542,-356.5915C82.4185,-348.8644 101.3893,-339.6021 119,-333 128.5585,-329.4166 139.0765,-326.2173 149.0209,-323.5121"/>
<polygon fill="#191970" stroke="#191970" points="65.7975,-353.6148 58.6159,-361.4042 69.0876,-359.7934 65.7975,-353.6148"/>
</g>
<!-- Node361 -->
<g id="node12" class="node">
<title>Node361</title>
<g id="a_node12"><a xlink:href="classCARLsim_1_1Impl.html#a63f122c6ae63a6d02a3fb8bace721910" target="_top" xlink:title="getDelays">
<polygon fill="#ffffff" stroke="#000000" points="159.5,-266.5 159.5,-285.5 220.5,-285.5 220.5,-266.5 159.5,-266.5"/>
<text text-anchor="middle" x="190" y="-273.5" font-family="Helvetica,sans-Serif" font-size="10.00" fill="#000000">getDelays</text>
</a>
</g>
</g>
<!-- Node350&#45;&gt;Node361 -->
<g id="edge11" class="edge">
<title>Node350&#45;&gt;Node361</title>
<path fill="none" stroke="#191970" d="M54.9487,-353.2881C69.0579,-335.9258 92.7968,-309.9526 119,-295 131.3017,-287.9801 146.2838,-283.4757 159.3091,-280.6252"/>
<polygon fill="#191970" stroke="#191970" points="51.9328,-351.46 48.4862,-361.4785 57.4282,-355.796 51.9328,-351.46"/>
</g>
<!-- Node363 -->
<g id="node14" class="node">
<title>Node363</title>
<g id="a_node14"><a xlink:href="classCARLsim_1_1Impl.html#ac13b30c40669d3cb8264bd6e211b449d" target="_top" xlink:title="getGroupGrid3D">
<polygon fill="#ffffff" stroke="#000000" points="146.5,-228.5 146.5,-247.5 233.5,-247.5 233.5,-228.5 146.5,-228.5"/>
<text text-anchor="middle" x="190" y="-235.5" font-family="Helvetica,sans-Serif" font-size="10.00" fill="#000000">getGroupGrid3D</text>
</a>
</g>
</g>
<!-- Node350&#45;&gt;Node363 -->
<g id="edge13" class="edge">
<title>Node350&#45;&gt;Node363</title>
<path fill="none" stroke="#191970" d="M49.2857,-351.9925C60.729,-326.4633 84.5319,-281.4829 119,-257 127.0102,-251.3103 136.6251,-247.3244 146.1547,-244.5321"/>
<polygon fill="#191970" stroke="#191970" points="46.0043,-350.7634 45.2641,-361.3324 52.4336,-353.5318 46.0043,-350.7634"/>
</g>
<!-- Node365 -->
<g id="node16" class="node">
<title>Node365</title>
<g id="a_node16"><a xlink:href="classCARLsim_1_1Impl.html#ab0367f8ebd4019bf7d34ebddb1563fe7" target="_top" xlink:title="getGroupName">
<polygon fill="#ffffff" stroke="#000000" points="148.5,-760.5 148.5,-779.5 231.5,-779.5 231.5,-760.5 148.5,-760.5"/>
<text text-anchor="middle" x="190" y="-767.5" font-family="Helvetica,sans-Serif" font-size="10.00" fill="#000000">getGroupName</text>
</a>
</g>
</g>
<!-- Node350&#45;&gt;Node365 -->
<g id="edge15" class="edge">
<title>Node350&#45;&gt;Node365</title>
<path fill="none" stroke="#191970" d="M48.7338,-390.4363C75.3422,-461.9296 167.2355,-708.8347 186.4575,-760.4818"/>
<polygon fill="#191970" stroke="#191970" points="51.9391,-389.0141 45.1708,-380.863 45.3787,-391.4558 51.9391,-389.0141"/>
</g>
<!-- Node406 -->
<g id="node35" class="node">
<title>Node406</title>
<g id="a_node35"><a xlink:href="classCARLsim_1_1Impl.html#acda1b88993a1c30fefeb2d6cf762154a" target="_top" xlink:title="getGroupStartNeuronId">
<polygon fill="#ffffff" stroke="#000000" points="131.5,-190.5 131.5,-209.5 248.5,-209.5 248.5,-190.5 131.5,-190.5"/>
<text text-anchor="middle" x="190" y="-197.5" font-family="Helvetica,sans-Serif" font-size="10.00" fill="#000000">getGroupStartNeuronId</text>
</a>
</g>
</g>
<!-- Node350&#45;&gt;Node406 -->
<g id="edge34" class="edge">
<title>Node350&#45;&gt;Node406</title>
<path fill="none" stroke="#191970" d="M45.9773,-351.3974C54.4464,-318.8592 75.9524,-253.8381 119,-219 123.7611,-215.1469 129.2328,-212.0708 134.9814,-209.6157"/>
<polygon fill="#191970" stroke="#191970" points="42.4948,-350.9033 43.5114,-361.4492 49.2932,-352.5711 42.4948,-350.9033"/>
</g>
<!-- Node408 -->
<g id="node37" class="node">
<title>Node408</title>
<g id="a_node37"><a xlink:href="classCARLsim_1_1Impl.html#a12040462a7fa56b1cbc871265b3f2f8c" target="_top" xlink:title="getGroupEndNeuronId">
<polygon fill="#ffffff" stroke="#000000" points="133.5,-152.5 133.5,-171.5 246.5,-171.5 246.5,-152.5 133.5,-152.5"/>
<text text-anchor="middle" x="190" y="-159.5" font-family="Helvetica,sans-Serif" font-size="10.00" fill="#000000">getGroupEndNeuronId</text>
</a>
</g>
</g>
<!-- Node350&#45;&gt;Node408 -->
<g id="edge36" class="edge">
<title>Node350&#45;&gt;Node408</title>
<path fill="none" stroke="#191970" d="M43.7465,-351.4678C49.2397,-312.9321 66.9483,-226.8828 119,-181 123.4032,-177.1187 128.5164,-174.0187 133.9423,-171.5447"/>
<polygon fill="#191970" stroke="#191970" points="40.2729,-351.0389 42.4556,-361.4064 47.2146,-351.9406 40.2729,-351.0389"/>
</g>
<!-- Node410 -->
<g id="node39" class="node">
<title>Node410</title>
<g id="a_node39"><a xlink:href="classCARLsim_1_1Impl.html#ad85b898d98abe24dcae4390f0fe61e84" target="_top" xlink:title="getGroupNumNeurons">
<polygon fill="#ffffff" stroke="#000000" points="133,-1140.5 133,-1159.5 247,-1159.5 247,-1140.5 133,-1140.5"/>
<text text-anchor="middle" x="190" y="-1147.5" font-family="Helvetica,sans-Serif" font-size="10.00" fill="#000000">getGroupNumNeurons</text>
</a>
</g>
</g>
<!-- Node350&#45;&gt;Node410 -->
<g id="edge38" class="edge">
<title>Node350&#45;&gt;Node410</title>
<path fill="none" stroke="#191970" d="M42.3619,-391.1022C46.8338,-490.4401 69.1282,-929.1588 119,-1055 133.0342,-1090.4125 163.8631,-1124.2549 179.884,-1140.303"/>
<polygon fill="#191970" stroke="#191970" points="45.851,-390.7754 41.9139,-380.9393 38.8578,-391.0837 45.851,-390.7754"/>
</g>
<!-- Node413 -->
<g id="node41" class="node">
<title>Node413</title>
<g id="a_node41"><a xlink:href="classCARLsim_1_1Impl.html#af750970a60eaa5f0cb82ae57c279443c" target="_top" xlink:title="getNeuronLocation3D">
<polygon fill="#ffffff" stroke="#000000" points="326.5,-1254.5 326.5,-1273.5 437.5,-1273.5 437.5,-1254.5 326.5,-1254.5"/>
<text text-anchor="middle" x="382" y="-1261.5" font-family="Helvetica,sans-Serif" font-size="10.00" fill="#000000">getNeuronLocation3D</text>
</a>
</g>
</g>
<!-- Node350&#45;&gt;Node413 -->
<g id="edge45" class="edge">
<title>Node350&#45;&gt;Node413</title>
<path fill="none" stroke="#191970" d="M41.9126,-390.5264C44.6382,-511.0728 61.7476,-1150.9571 119,-1214 170.791,-1271.0291 265.7678,-1275.1703 326.2971,-1271.0023"/>
<polygon fill="#191970" stroke="#191970" points="45.4117,-390.4394 41.6929,-380.5187 38.4133,-390.5932 45.4117,-390.4394"/>
</g>
<!-- Node415 -->
<g id="node43" class="node">
<title>Node415</title>
<g id="a_node43"><a xlink:href="classCARLsim_1_1Impl.html#a8f28281023666c073fff6141def960b5" target="_top" xlink:title="getNeuronId">
<polygon fill="#ffffff" stroke="#ff0000" points="155,-114.5 155,-133.5 225,-133.5 225,-114.5 155,-114.5"/>
<text text-anchor="middle" x="190" y="-121.5" font-family="Helvetica,sans-Serif" font-size="10.00" fill="#000000">getNeuronId</text>
</a>
</g>
</g>
<!-- Node350&#45;&gt;Node415 -->
<g id="edge46" class="edge">
<title>Node350&#45;&gt;Node415</title>
<path fill="none" stroke="#191970" d="M45.6281,-351.6188C56.5581,-302.0358 87.5713,-172.4146 119,-143 128.689,-133.9319 142.2235,-129.0959 154.8799,-126.55"/>
<polygon fill="#191970" stroke="#191970" points="42.2022,-350.9024 43.5013,-361.4173 49.0429,-352.3873 42.2022,-350.9024"/>
</g>
<!-- Node417 -->
<g id="node44" class="node">
<title>Node417</title>
<g id="a_node44"><a xlink:href="classCARLsim_1_1Impl.html#aa1c9457d6e17337cfc20cee263f1159f" target="_top" xlink:title="getGroupNeuromodulatorInfo">
<polygon fill="#ffffff" stroke="#ff0000" points="119,-76.5 119,-95.5 261,-95.5 261,-76.5 119,-76.5"/>
<text text-anchor="middle" x="190" y="-83.5" font-family="Helvetica,sans-Serif" font-size="10.00" fill="#000000">getGroupNeuromodulatorInfo</text>
</a>
</g>
</g>
<!-- Node350&#45;&gt;Node417 -->
<g id="edge47" class="edge">
<title>Node350&#45;&gt;Node417</title>
<path fill="none" stroke="#191970" d="M44.6686,-351.3965C53.9953,-296.036 82.9711,-140.2439 119,-105 122.9223,-101.1632 127.5301,-98.0792 132.4824,-95.6035"/>
<polygon fill="#191970" stroke="#191970" points="41.2034,-350.8991 43.0249,-361.3362 48.1096,-352.0413 41.2034,-350.8991"/>
</g>
<!-- Node419 -->
<g id="node45" class="node">
<title>Node419</title>
<g id="a_node45"><a xlink:href="classCARLsim_1_1Impl.html#aa2f49d6a802e4b3697bb20ef5ee51690" target="_top" xlink:title="getSpikeMonitor">
<polygon fill="#ffffff" stroke="#ff0000" points="146.5,-38.5 146.5,-57.5 233.5,-57.5 233.5,-38.5 146.5,-38.5"/>
<text text-anchor="middle" x="190" y="-45.5" font-family="Helvetica,sans-Serif" font-size="10.00" fill="#000000">getSpikeMonitor</text>
</a>
</g>
</g>
<!-- Node350&#45;&gt;Node419 -->
<g id="edge48" class="edge">
<title>Node350&#45;&gt;Node419</title>
<path fill="none" stroke="#191970" d="M43.9496,-351.0581C51.8223,-290.1389 78.3583,-108.1266 119,-67 126.3547,-59.5576 136.2823,-54.9336 146.3801,-52.086"/>
<polygon fill="#191970" stroke="#191970" points="40.4421,-350.8978 42.6612,-361.2576 47.3869,-351.7751 40.4421,-350.8978"/>
</g>
<!-- Node421 -->
<g id="node46" class="node">
<title>Node421</title>
<g id="a_node46"><a xlink:href="classCARLsim_1_1Impl.html#aa9a9c5646dd11beb60fcf70d2216024a" target="_top" xlink:title="isGroupWithHomeostasis">
<polygon fill="#ffffff" stroke="#ff0000" points="126,-1026.5 126,-1045.5 254,-1045.5 254,-1026.5 126,-1026.5"/>
<text text-anchor="middle" x="190" y="-1033.5" font-family="Helvetica,sans-Serif" font-size="10.00" fill="#000000">isGroupWithHomeostasis</text>
</a>
</g>
</g>
<!-- Node350&#45;&gt;Node421 -->
<g id="edge49" class="edge">
<title>Node350&#45;&gt;Node421</title>
<path fill="none" stroke="#191970" d="M42.88,-391.0137C50.0156,-492.4112 83.7558,-946.6138 119,-998 128.2521,-1011.4896 143.8775,-1020.5862 158.1181,-1026.4876"/>
<polygon fill="#191970" stroke="#191970" points="46.3624,-390.6378 42.1749,-380.9056 39.3793,-391.1249 46.3624,-390.6378"/>
</g>
<!-- Node423 -->
<g id="node47" class="node">
<title>Node423</title>
<g id="a_node47"><a xlink:href="classCARLsim_1_1Impl.html#a31ec8880e31fbcb9d002d713ce0d8f1d" target="_top" xlink:title="isExcitatoryGroup">
<polygon fill="#ffffff" stroke="#ff0000" points="142.5,-494.5 142.5,-513.5 237.5,-513.5 237.5,-494.5 142.5,-494.5"/>
<text text-anchor="middle" x="190" y="-501.5" font-family="Helvetica,sans-Serif" font-size="10.00" fill="#000000">isExcitatoryGroup</text>
</a>
</g>
</g>
<!-- Node350&#45;&gt;Node423 -->
<g id="edge51" class="edge">
<title>Node350&#45;&gt;Node423</title>
<path fill="none" stroke="#191970" d="M49.2857,-390.0075C60.729,-415.5367 84.5319,-460.5171 119,-485 125.9699,-489.9508 134.1548,-493.6116 142.4413,-496.3185"/>
<polygon fill="#191970" stroke="#191970" points="52.4336,-388.4682 45.2641,-380.6676 46.0043,-391.2366 52.4336,-388.4682"/>
</g>
<!-- Node425 -->
<g id="node48" class="node">
<title>Node425</title>
<g id="a_node48"><a xlink:href="classCARLsim_1_1Impl.html#a3f0193605d59ef263b682a468bbcbf87" target="_top" xlink:title="isInhibitoryGroup">
<polygon fill="#ffffff" stroke="#ff0000" points="145,-456.5 145,-475.5 235,-475.5 235,-456.5 145,-456.5"/>
<text text-anchor="middle" x="190" y="-463.5" font-family="Helvetica,sans-Serif" font-size="10.00" fill="#000000">isInhibitoryGroup</text>
</a>
</g>
</g>
<!-- Node350&#45;&gt;Node425 -->
<g id="edge53" class="edge">
<title>Node350&#45;&gt;Node425</title>
<path fill="none" stroke="#191970" d="M54.9487,-388.7119C69.0579,-406.0742 92.7968,-432.0474 119,-447 126.8687,-451.4902 135.834,-454.9512 144.6824,-457.6085"/>
<polygon fill="#191970" stroke="#191970" points="57.4282,-386.204 48.4862,-380.5215 51.9328,-390.54 57.4282,-386.204"/>
</g>
<!-- Node427 -->
<g id="node49" class="node">
<title>Node427</title>
<g id="a_node49"><a xlink:href="classCARLsim_1_1Impl.html#ae136e178382096490a2d34f78cd2afa2" target="_top" xlink:title="isPoissonGroup">
<polygon fill="#ffffff" stroke="#ff0000" points="147,-969.5 147,-988.5 233,-988.5 233,-969.5 147,-969.5"/>
<text text-anchor="middle" x="190" y="-976.5" font-family="Helvetica,sans-Serif" font-size="10.00" fill="#000000">isPoissonGroup</text>
</a>
</g>
</g>
<!-- Node350&#45;&gt;Node427 -->
<g id="edge55" class="edge">
<title>Node350&#45;&gt;Node427</title>
<path fill="none" stroke="#191970" d="M43.8928,-390.5676C51.5175,-450.78 77.224,-638.3283 119,-789 138.6641,-859.9216 173.5433,-941.6802 185.6877,-969.3104"/>
<polygon fill="#191970" stroke="#191970" points="47.355,-390.0465 42.6445,-380.5565 40.4088,-390.9127 47.355,-390.0465"/>
</g>
<!-- Node429 -->
<g id="node50" class="node">
<title>Node429</title>
<g id="a_node50"><a xlink:href="classCARLsim.html#a292bdee57fec7c77ec4c15ea3f508d60" target="_top" xlink:title="returns the number of groups in the network ">
<polygon fill="#ffffff" stroke="#000000" points="124.5,-.5 124.5,-19.5 255.5,-19.5 255.5,-.5 124.5,-.5"/>
<text text-anchor="middle" x="190" y="-7.5" font-family="Helvetica,sans-Serif" font-size="10.00" fill="#000000">CARLsim::getNumGroups</text>
</a>
</g>
</g>
<!-- Node350&#45;&gt;Node429 -->
<g id="edge67" class="edge">
<title>Node350&#45;&gt;Node429</title>
<path fill="none" stroke="#191970" d="M43.3275,-351.201C49.7831,-285.4995 73.6068,-76.1817 119,-29 122.7157,-25.1379 127.1232,-22.0317 131.8956,-19.5373"/>
<polygon fill="#191970" stroke="#191970" points="39.8186,-351.1284 42.3516,-361.416 46.7869,-351.7942 39.8186,-351.1284"/>
</g>
<!-- Node352 -->
<g id="node3" class="node">
<title>Node352</title>
<g id="a_node3"><a xlink:href="classCARLsim.html#a7ce184c0de7c3d3c80b27a1ea7bb3e59" target="_top" xlink:title="make a compartmental connection between two compartmentally enabled groups Note: all compartmentally ...">
<polygon fill="#ffffff" stroke="#000000" points="503,-1216.5 503,-1235.5 667,-1235.5 667,-1216.5 503,-1216.5"/>
<text text-anchor="middle" x="585" y="-1223.5" font-family="Helvetica,sans-Serif" font-size="10.00" fill="#000000">CARLsim::connectCompartments</text>
</a>
</g>
</g>
<!-- Node351&#45;&gt;Node352 -->
<g id="edge2" class="edge">
<title>Node351&#45;&gt;Node352</title>
<path fill="none" stroke="#191970" d="M450.4753,-1226C467.3379,-1226 485.5652,-1226 502.9956,-1226"/>
<polygon fill="#191970" stroke="#191970" points="450.1717,-1222.5001 440.1717,-1226 450.1716,-1229.5001 450.1717,-1222.5001"/>
</g>
<!-- Node354 -->
<g id="node5" class="node">
<title>Node354</title>
<g id="a_node5"><a xlink:href="classCARLsim.html#a9f12565a3b01482ccba3b63c5d6c3279" target="_top" xlink:title="gets AMPA vector of a group ">
<polygon fill="#ffffff" stroke="#000000" points="299.5,-418.5 299.5,-437.5 464.5,-437.5 464.5,-418.5 299.5,-418.5"/>
<text text-anchor="middle" x="382" y="-425.5" font-family="Helvetica,sans-Serif" font-size="10.00" fill="#000000">CARLsim::getConductanceAMPA</text>
</a>
</g>
</g>
<!-- Node353&#45;&gt;Node354 -->
<g id="edge4" class="edge">
<title>Node353&#45;&gt;Node354</title>
<path fill="none" stroke="#191970" d="M258.1378,-428C271.453,-428 285.551,-428 299.2797,-428"/>
<polygon fill="#191970" stroke="#191970" points="258.1274,-424.5001 248.1274,-428 258.1273,-431.5001 258.1274,-424.5001"/>
</g>
<!-- Node356 -->
<g id="node7" class="node">
<title>Node356</title>
<g id="a_node7"><a xlink:href="classCARLsim.html#ab251be3aba6d73b79fdb0d44019b1790" target="_top" xlink:title="gets NMDA vector of a group ">
<polygon fill="#ffffff" stroke="#000000" points="298.5,-380.5 298.5,-399.5 465.5,-399.5 465.5,-380.5 298.5,-380.5"/>
<text text-anchor="middle" x="382" y="-387.5" font-family="Helvetica,sans-Serif" font-size="10.00" fill="#000000">CARLsim::getConductanceNMDA</text>
</a>
</g>
</g>
<!-- Node355&#45;&gt;Node356 -->
<g id="edge6" class="edge">
<title>Node355&#45;&gt;Node356</title>
<path fill="none" stroke="#191970" d="M259.1879,-390C271.8809,-390 285.2538,-390 298.3173,-390"/>
<polygon fill="#191970" stroke="#191970" points="259.173,-386.5001 249.173,-390 259.173,-393.5001 259.173,-386.5001"/>
</g>
<!-- Node358 -->
<g id="node9" class="node">
<title>Node358</title>
<g id="a_node9"><a xlink:href="classCARLsim.html#a42c7f8460a85cfb8566a1959da9a925d" target="_top" xlink:title="gets GABAa vector of a group ">
<polygon fill="#ffffff" stroke="#000000" points="297,-342.5 297,-361.5 467,-361.5 467,-342.5 297,-342.5"/>
<text text-anchor="middle" x="382" y="-349.5" font-family="Helvetica,sans-Serif" font-size="10.00" fill="#000000">CARLsim::getConductanceGABAa</text>
</a>
</g>
</g>
<!-- Node357&#45;&gt;Node358 -->
<g id="edge8" class="edge">
<title>Node357&#45;&gt;Node358</title>
<path fill="none" stroke="#191970" d="M260.8572,-352C272.5367,-352 284.7503,-352 296.7378,-352"/>
<polygon fill="#191970" stroke="#191970" points="260.75,-348.5001 250.75,-352 260.75,-355.5001 260.75,-348.5001"/>
</g>
<!-- Node360 -->
<g id="node11" class="node">
<title>Node360</title>
<g id="a_node11"><a xlink:href="classCARLsim.html#aa50bf7b25bc7c5c164e2a11ee763796e" target="_top" xlink:title="gets GABAb vector of a group ">
<polygon fill="#ffffff" stroke="#000000" points="297,-304.5 297,-323.5 467,-323.5 467,-304.5 297,-304.5"/>
<text text-anchor="middle" x="382" y="-311.5" font-family="Helvetica,sans-Serif" font-size="10.00" fill="#000000">CARLsim::getConductanceGABAb</text>
</a>
</g>
</g>
<!-- Node359&#45;&gt;Node360 -->
<g id="edge10" class="edge">
<title>Node359&#45;&gt;Node360</title>
<path fill="none" stroke="#191970" d="M260.8572,-314C272.5367,-314 284.7503,-314 296.7378,-314"/>
<polygon fill="#191970" stroke="#191970" points="260.75,-310.5001 250.75,-314 260.75,-317.5001 260.75,-310.5001"/>
</g>
<!-- Node362 -->
<g id="node13" class="node">
<title>Node362</title>
<g id="a_node13"><a xlink:href="classCARLsim.html#aab97629d22d95919c0a44591aa272fbc" target="_top" xlink:title="gets delays ">
<polygon fill="#ffffff" stroke="#000000" points="327,-266.5 327,-285.5 437,-285.5 437,-266.5 327,-266.5"/>
<text text-anchor="middle" x="382" y="-273.5" font-family="Helvetica,sans-Serif" font-size="10.00" fill="#000000">CARLsim::getDelays</text>
</a>
</g>
</g>
<!-- Node361&#45;&gt;Node362 -->
<g id="edge12" class="edge">
<title>Node361&#45;&gt;Node362</title>
<path fill="none" stroke="#191970" d="M231.0642,-276C259.0029,-276 296.2987,-276 326.8258,-276"/>
<polygon fill="#191970" stroke="#191970" points="230.8482,-272.5001 220.8481,-276 230.8481,-279.5001 230.8482,-272.5001"/>
</g>
<!-- Node364 -->
<g id="node15" class="node">
<title>Node364</title>
<g id="a_node15"><a xlink:href="classCARLsim.html#ac13b30c40669d3cb8264bd6e211b449d" target="_top" xlink:title="returns the 3D grid struct of a group ">
<polygon fill="#ffffff" stroke="#000000" points="314,-228.5 314,-247.5 450,-247.5 450,-228.5 314,-228.5"/>
<text text-anchor="middle" x="382" y="-235.5" font-family="Helvetica,sans-Serif" font-size="10.00" fill="#000000">CARLsim::getGroupGrid3D</text>
</a>
</g>
</g>
<!-- Node363&#45;&gt;Node364 -->
<g id="edge14" class="edge">
<title>Node363&#45;&gt;Node364</title>
<path fill="none" stroke="#191970" d="M243.5996,-238C265.339,-238 290.7087,-238 313.7462,-238"/>
<polygon fill="#191970" stroke="#191970" points="243.5678,-234.5001 233.5678,-238 243.5677,-241.5001 243.5678,-234.5001"/>
</g>
<!-- Node366 -->
<g id="node17" class="node">
<title>Node366</title>
<g id="a_node17"><a xlink:href="classCARLsim_1_1Impl.html#afed01f52e943df5e5476428c4fbef8f7" target="_top" xlink:title="connect">
<polygon fill="#ffffff" stroke="#ff0000" points="356.5,-1102.5 356.5,-1121.5 407.5,-1121.5 407.5,-1102.5 356.5,-1102.5"/>
<text text-anchor="middle" x="382" y="-1109.5" font-family="Helvetica,sans-Serif" font-size="10.00" fill="#000000">connect</text>
</a>
</g>
</g>
<!-- Node365&#45;&gt;Node366 -->
<g id="edge16" class="edge">
<title>Node365&#45;&gt;Node366</title>
<path fill="none" stroke="#191970" d="M197.9493,-789.4329C211.7668,-823.591 240.6791,-896.7754 261,-960 279.7384,-1018.3009 252.7469,-1050.6705 297,-1093 312.735,-1108.051 337.6627,-1112.1814 356.4626,-1112.9146"/>
<polygon fill="#191970" stroke="#191970" points="201.0319,-787.7217 194.0235,-779.7761 194.5472,-790.3579 201.0319,-787.7217"/>
</g>
<!-- Node368 -->
<g id="node18" class="node">
<title>Node368</title>
<g id="a_node18"><a xlink:href="classCARLsim_1_1Impl.html#adb7dd274136fd2a3307c0f7f0767275a" target="_top" xlink:title="setCompartmentParameters">
<polygon fill="#ffffff" stroke="#ff0000" points="312,-532.5 312,-551.5 452,-551.5 452,-532.5 312,-532.5"/>
<text text-anchor="middle" x="382" y="-539.5" font-family="Helvetica,sans-Serif" font-size="10.00" fill="#000000">setCompartmentParameters</text>
</a>
</g>
</g>
<!-- Node365&#45;&gt;Node368 -->
<g id="edge17" class="edge">
<title>Node365&#45;&gt;Node368</title>
<path fill="none" stroke="#191970" d="M194.1181,-750.4633C203.9898,-708.6911 233.0869,-610.4774 297,-561 301.9024,-557.2049 307.4147,-554.1381 313.2158,-551.6636"/>
<polygon fill="#191970" stroke="#191970" points="190.7001,-749.7104 191.9211,-760.2346 197.5296,-751.246 190.7001,-749.7104"/>
</g>
<!-- Node370 -->
<g id="node19" class="node">
<title>Node370</title>
<g id="a_node19"><a xlink:href="classCARLsim_1_1Impl.html#af9e05685af30a329664ab73a6a420d7f" target="_top" xlink:title="setHomeostasis">
<polygon fill="#ffffff" stroke="#ff0000" points="338,-874.5 338,-893.5 426,-893.5 426,-874.5 338,-874.5"/>
<text text-anchor="middle" x="382" y="-881.5" font-family="Helvetica,sans-Serif" font-size="10.00" fill="#000000">setHomeostasis</text>
</a>
</g>
</g>
<!-- Node365&#45;&gt;Node370 -->
<g id="edge18" class="edge">
<title>Node365&#45;&gt;Node370</title>
<path fill="none" stroke="#191970" d="M204.3745,-787.2976C223.3147,-808.9073 258.7355,-845.4189 297,-865 309.5187,-871.4062 324.1595,-875.6654 337.7285,-878.4921"/>
<polygon fill="#191970" stroke="#191970" points="206.9013,-784.8674 197.735,-779.5541 201.5872,-789.4239 206.9013,-784.8674"/>
</g>
<!-- Node372 -->
<g id="node20" class="node">
<title>Node372</title>
<g id="a_node20"><a xlink:href="classCARLsim_1_1Impl.html#aef4d35935c52e55a957aa96e4d6218f6" target="_top" xlink:title="setHomeoBaseFiringRate">
<polygon fill="#ffffff" stroke="#ff0000" points="317.5,-1026.5 317.5,-1045.5 446.5,-1045.5 446.5,-1026.5 317.5,-1026.5"/>
<text text-anchor="middle" x="382" y="-1033.5" font-family="Helvetica,sans-Serif" font-size="10.00" fill="#000000">setHomeoBaseFiringRate</text>
</a>
</g>
</g>
<!-- Node365&#45;&gt;Node372 -->
<g id="edge19" class="edge">
<title>Node365&#45;&gt;Node372</title>
<path fill="none" stroke="#191970" d="M197.1519,-789.1736C217.936,-844.4736 278.0505,-1001.3298 297,-1017 302.943,-1021.9145 309.8915,-1025.625 317.2091,-1028.4161"/>
<polygon fill="#191970" stroke="#191970" points="200.3287,-787.6765 193.5433,-779.5396 193.7734,-790.1319 200.3287,-787.6765"/>
</g>
<!-- Node374 -->
<g id="node21" class="node">
<title>Node374</title>
<g id="a_node21"><a xlink:href="classCARLsim_1_1Impl.html#aa6e1dc5ae50722ae3d693f2c963d84cd" target="_top" xlink:title="setNeuronParameters">
<polygon fill="#ffffff" stroke="#ff0000" points="326,-836.5 326,-855.5 438,-855.5 438,-836.5 326,-836.5"/>
<text text-anchor="middle" x="382" y="-843.5" font-family="Helvetica,sans-Serif" font-size="10.00" fill="#000000">setNeuronParameters</text>
</a>
</g>
</g>
<!-- Node365&#45;&gt;Node374 -->
<g id="edge20" class="edge">
<title>Node365&#45;&gt;Node374</title>
<path fill="none" stroke="#191970" d="M213.5916,-784.9656C234.7159,-797.7728 266.9117,-815.8566 297,-827 307.0677,-830.7286 318.0892,-833.8505 328.7609,-836.4154"/>
<polygon fill="#191970" stroke="#191970" points="215.3341,-781.9283 204.9835,-779.6661 211.6642,-787.8892 215.3341,-781.9283"/>
</g>
<!-- Node376 -->
<g id="node22" class="node">
<title>Node376</title>
<g id="a_node22"><a xlink:href="classCARLsim_1_1Impl.html#ae3d3c73126e9aa3fe8e81ea180860952" target="_top" xlink:title="setNeuronParametersLIF">
<polygon fill="#ffffff" stroke="#ff0000" points="319,-798.5 319,-817.5 445,-817.5 445,-798.5 319,-798.5"/>
<text text-anchor="middle" x="382" y="-805.5" font-family="Helvetica,sans-Serif" font-size="10.00" fill="#000000">setNeuronParametersLIF</text>
</a>
</g>
</g>
<!-- Node365&#45;&gt;Node376 -->
<g id="edge21" class="edge">
<title>Node365&#45;&gt;Node376</title>
<path fill="none" stroke="#191970" d="M241.5194,-780.1966C270.2615,-785.8851 305.833,-792.9253 333.9895,-798.4979"/>
<polygon fill="#191970" stroke="#191970" points="242.1504,-776.7536 231.6611,-778.2454 240.7913,-783.6204 242.1504,-776.7536"/>
</g>
<!-- Node378 -->
<g id="node23" class="node">
<title>Node378</title>
<g id="a_node23"><a xlink:href="classCARLsim_1_1Impl.html#ae15083e3e6bfdb506a10b6ad835a2fc1" target="_top" xlink:title="setNeuromodulator">
<polygon fill="#ffffff" stroke="#ff0000" points="332.5,-494.5 332.5,-513.5 431.5,-513.5 431.5,-494.5 332.5,-494.5"/>
<text text-anchor="middle" x="382" y="-501.5" font-family="Helvetica,sans-Serif" font-size="10.00" fill="#000000">setNeuromodulator</text>
</a>
</g>
</g>
<!-- Node365&#45;&gt;Node378 -->
<g id="edge22" class="edge">
<title>Node365&#45;&gt;Node378</title>
<path fill="none" stroke="#191970" d="M192.4818,-750.2438C199.5001,-703.0868 223.971,-583.3912 297,-523 306.9049,-514.8091 319.6032,-509.9629 332.1478,-507.1432"/>
<polygon fill="#191970" stroke="#191970" points="188.9864,-749.97 191.0843,-760.355 195.9205,-750.9284 188.9864,-749.97"/>
</g>
<!-- Node380 -->
<g id="node24" class="node">
<title>Node380</title>
<g id="a_node24"><a xlink:href="classCARLsim_1_1Impl.html#ac79aadf0ac87b2ae34f39ae796ad81a3" target="_top" xlink:title="setESTDP">
<polygon fill="#ffffff" stroke="#ff0000" points="350,-988.5 350,-1007.5 414,-1007.5 414,-988.5 350,-988.5"/>
<text text-anchor="middle" x="382" y="-995.5" font-family="Helvetica,sans-Serif" font-size="10.00" fill="#000000">setESTDP</text>
</a>
</g>
</g>
<!-- Node365&#45;&gt;Node380 -->
<g id="edge23" class="edge">
<title>Node365&#45;&gt;Node380</title>
<path fill="none" stroke="#191970" d="M194.1181,-789.5367C203.9898,-831.3089 233.0869,-929.5226 297,-979 311.9462,-990.5704 332.5621,-995.3715 349.7474,-997.2554"/>
<polygon fill="#191970" stroke="#191970" points="197.5296,-788.754 191.9211,-779.7654 190.7001,-790.2896 197.5296,-788.754"/>
</g>
<!-- Node385 -->
<g id="node25" class="node">
<title>Node385</title>
<g id="a_node25"><a xlink:href="classCARLsim_1_1Impl.html#a675bb0d593722135066c11b0d3d99d50" target="_top" xlink:title="setISTDP">
<polygon fill="#ffffff" stroke="#ff0000" points="352,-950.5 352,-969.5 412,-969.5 412,-950.5 352,-950.5"/>
<text text-anchor="middle" x="382" y="-957.5" font-family="Helvetica,sans-Serif" font-size="10.00" fill="#000000">setISTDP</text>
</a>
</g>
</g>
<!-- Node365&#45;&gt;Node385 -->
<g id="edge24" class="edge">
<title>Node365&#45;&gt;Node385</title>
<path fill="none" stroke="#191970" d="M196.4019,-789.3665C209.3257,-825.2936 242.0758,-902.1369 297,-941 312.9233,-952.2669 334.3822,-957.0034 351.7546,-958.93"/>
<polygon fill="#191970" stroke="#191970" points="199.6054,-787.9212 193.025,-779.6176 192.991,-790.2124 199.6054,-787.9212"/>
</g>
<!-- Node387 -->
<g id="node26" class="node">
<title>Node387</title>
<g id="a_node26"><a xlink:href="classCARLsim_1_1Impl.html#aa2a365fb2d2fa56ec274bc4ba7be6747" target="_top" xlink:title="setSTP">
<polygon fill="#ffffff" stroke="#ff0000" points="357,-456.5 357,-475.5 407,-475.5 407,-456.5 357,-456.5"/>
<text text-anchor="middle" x="382" y="-463.5" font-family="Helvetica,sans-Serif" font-size="10.00" fill="#000000">setSTP</text>
</a>
</g>
</g>
<!-- Node365&#45;&gt;Node387 -->
<g id="edge25" class="edge">
<title>Node365&#45;&gt;Node387</title>
<path fill="none" stroke="#191970" d="M191.2242,-750.1041C195.5509,-697.9864 214.6898,-556.579 297,-485 313.4306,-470.7115 338.2713,-466.4859 356.862,-465.5233"/>
<polygon fill="#191970" stroke="#191970" points="187.7153,-750.0992 190.4758,-760.3281 194.6966,-750.6104 187.7153,-750.0992"/>
</g>
<!-- Node389 -->
<g id="node27" class="node">
<title>Node389</title>
<g id="a_node27"><a xlink:href="classCARLsim_1_1Impl.html#aac61df1a82373e89549e608b78557b82" target="_top" xlink:title="setNM4STP">
<polygon fill="#ffffff" stroke="#ff0000" points="346.5,-760.5 346.5,-779.5 417.5,-779.5 417.5,-760.5 346.5,-760.5"/>
<text text-anchor="middle" x="382" y="-767.5" font-family="Helvetica,sans-Serif" font-size="10.00" fill="#000000">setNM4STP</text>
</a>
</g>
</g>
<!-- Node365&#45;&gt;Node389 -->
<g id="edge26" class="edge">
<title>Node365&#45;&gt;Node389</title>
<path fill="none" stroke="#191970" d="M242.0429,-770C275.0598,-770 316.9237,-770 346.2274,-770"/>
<polygon fill="#191970" stroke="#191970" points="241.6612,-766.5001 231.6611,-770 241.6611,-773.5001 241.6612,-766.5001"/>
</g>
<!-- Node391 -->
<g id="node28" class="node">
<title>Node391</title>
<g id="a_node28"><a xlink:href="classCARLsim_1_1Impl.html#a012dcdbbe9769131d98ddf680743bff3" target="_top" xlink:title="setConnectionMonitor">
<polygon fill="#ffffff" stroke="#ff0000" points="326,-722.5 326,-741.5 438,-741.5 438,-722.5 326,-722.5"/>
<text text-anchor="middle" x="382" y="-729.5" font-family="Helvetica,sans-Serif" font-size="10.00" fill="#000000">setConnectionMonitor</text>
</a>
</g>
</g>
<!-- Node365&#45;&gt;Node391 -->
<g id="edge27" class="edge">
<title>Node365&#45;&gt;Node391</title>
<path fill="none" stroke="#191970" d="M241.5194,-759.8034C270.2615,-754.1149 305.833,-747.0747 333.9895,-741.5021"/>
<polygon fill="#191970" stroke="#191970" points="240.7913,-756.3796 231.6611,-761.7546 242.1504,-763.2464 240.7913,-756.3796"/>
</g>
<!-- Node393 -->
<g id="node29" class="node">
<title>Node393</title>
<g id="a_node29"><a xlink:href="classCARLsim_1_1Impl.html#a875708f5a61243433e23e99ce4d6aea1" target="_top" xlink:title="setExternalCurrent">
<polygon fill="#ffffff" stroke="#ff0000" points="333,-1064.5 333,-1083.5 431,-1083.5 431,-1064.5 333,-1064.5"/>
<text text-anchor="middle" x="382" y="-1071.5" font-family="Helvetica,sans-Serif" font-size="10.00" fill="#000000">setExternalCurrent</text>
</a>
</g>
</g>
<!-- Node365&#45;&gt;Node393 -->
<g id="edge28" class="edge">
<title>Node365&#45;&gt;Node393</title>
<path fill="none" stroke="#191970" d="M197.2834,-789.4919C221.2734,-853.6828 296.3299,-1054.4173 297,-1055 306.9268,-1063.6326 319.9235,-1068.5921 332.757,-1071.3781"/>
<polygon fill="#191970" stroke="#191970" points="200.436,-787.9295 193.6568,-779.7874 193.8789,-790.3799 200.436,-787.9295"/>
</g>
<!-- Node395 -->
<g id="node30" class="node">
<title>Node395</title>
<g id="a_node30"><a xlink:href="classCARLsim_1_1Impl.html#ad423c8d8f74e6369615db0d1af700c99" target="_top" xlink:title="setGroupMonitor">
<polygon fill="#ffffff" stroke="#ff0000" points="337.5,-684.5 337.5,-703.5 426.5,-703.5 426.5,-684.5 337.5,-684.5"/>
<text text-anchor="middle" x="382" y="-691.5" font-family="Helvetica,sans-Serif" font-size="10.00" fill="#000000">setGroupMonitor</text>
</a>
</g>
</g>
<!-- Node365&#45;&gt;Node395 -->
<g id="edge29" class="edge">
<title>Node365&#45;&gt;Node395</title>
<path fill="none" stroke="#191970" d="M213.5916,-755.0344C234.7159,-742.2272 266.9117,-724.1434 297,-713 309.7619,-708.2736 324.0563,-704.5221 337.2282,-701.6442"/>
<polygon fill="#191970" stroke="#191970" points="211.6642,-752.1108 204.9835,-760.3339 215.3341,-758.0717 211.6642,-752.1108"/>
</g>
<!-- Node397 -->
<g id="node31" class="node">
<title>Node397</title>
<g id="a_node31"><a xlink:href="classCARLsim_1_1Impl.html#adc71069e71cd551526ddafb3d873d649" target="_top" xlink:title="setSpikeGenerator">
<polygon fill="#ffffff" stroke="#ff0000" points="333,-912.5 333,-931.5 431,-931.5 431,-912.5 333,-912.5"/>
<text text-anchor="middle" x="382" y="-919.5" font-family="Helvetica,sans-Serif" font-size="10.00" fill="#000000">setSpikeGenerator</text>
</a>
</g>
</g>
<!-- Node365&#45;&gt;Node397 -->
<g id="edge30" class="edge">
<title>Node365&#45;&gt;Node397</title>
<path fill="none" stroke="#191970" d="M199.5727,-788.6771C215.5772,-817.9206 250.6336,-874.149 297,-903 307.656,-909.6306 320.3373,-913.9589 332.6104,-916.7808"/>
<polygon fill="#191970" stroke="#191970" points="202.5038,-786.7343 194.7189,-779.5478 196.323,-790.0205 202.5038,-786.7343"/>
</g>
<!-- Node399 -->
<g id="node32" class="node">
<title>Node399</title>
<g id="a_node32"><a xlink:href="classCARLsim_1_1Impl.html#a76311719fdd8a942d292caead86cf0e6" target="_top" xlink:title="setSpikeMonitor">
<polygon fill="#ffffff" stroke="#ff0000" points="338.5,-646.5 338.5,-665.5 425.5,-665.5 425.5,-646.5 338.5,-646.5"/>
<text text-anchor="middle" x="382" y="-653.5" font-family="Helvetica,sans-Serif" font-size="10.00" fill="#000000">setSpikeMonitor</text>
</a>
</g>
</g>
<!-- Node365&#45;&gt;Node399 -->
<g id="edge31" class="edge">
<title>Node365&#45;&gt;Node399</title>
<path fill="none" stroke="#191970" d="M204.3745,-752.7024C223.3147,-731.0927 258.7355,-694.5811 297,-675 309.6533,-668.5249 324.4746,-664.2432 338.1658,-661.4172"/>
<polygon fill="#191970" stroke="#191970" points="201.5872,-750.5761 197.735,-760.4459 206.9013,-755.1326 201.5872,-750.5761"/>
</g>
<!-- Node403 -->
<g id="node33" class="node">
<title>Node403</title>
<g id="a_node33"><a xlink:href="classCARLsim_1_1Impl.html#ad09ccf4ff95aa4f7b629afad588b0c88" target="_top" xlink:title="setNeuronMonitor">
<polygon fill="#ffffff" stroke="#ff0000" points="335,-608.5 335,-627.5 429,-627.5 429,-608.5 335,-608.5"/>
<text text-anchor="middle" x="382" y="-615.5" font-family="Helvetica,sans-Serif" font-size="10.00" fill="#000000">setNeuronMonitor</text>
</a>
</g>
</g>
<!-- Node365&#45;&gt;Node403 -->
<g id="edge32" class="edge">
<title>Node365&#45;&gt;Node403</title>
<path fill="none" stroke="#191970" d="M199.5727,-751.3229C215.5772,-722.0794 250.6336,-665.851 297,-637 308.298,-629.97 321.8725,-625.528 334.8235,-622.7254"/>
<polygon fill="#191970" stroke="#191970" points="196.323,-749.9795 194.7189,-760.4522 202.5038,-753.2657 196.323,-749.9795"/>
</g>
<!-- Node405 -->
<g id="node34" class="node">
<title>Node405</title>
<g id="a_node34"><a xlink:href="classCARLsim.html#ab0367f8ebd4019bf7d34ebddb1563fe7" target="_top" xlink:title="gets group name ">
<polygon fill="#ffffff" stroke="#000000" points="316.5,-570.5 316.5,-589.5 447.5,-589.5 447.5,-570.5 316.5,-570.5"/>
<text text-anchor="middle" x="382" y="-577.5" font-family="Helvetica,sans-Serif" font-size="10.00" fill="#000000">CARLsim::getGroupName</text>
</a>
</g>
</g>
<!-- Node365&#45;&gt;Node405 -->
<g id="edge33" class="edge">
<title>Node365&#45;&gt;Node405</title>
<path fill="none" stroke="#191970" d="M196.4019,-750.6335C209.3257,-714.7064 242.0758,-637.8631 297,-599 302.8015,-594.895 309.3378,-591.6569 316.1436,-589.1057"/>
<polygon fill="#191970" stroke="#191970" points="192.991,-749.7876 193.025,-760.3824 199.6054,-752.0788 192.991,-749.7876"/>
</g>
<!-- Node407 -->
<g id="node36" class="node">
<title>Node407</title>
<g id="a_node36"><a xlink:href="classCARLsim.html#acda1b88993a1c30fefeb2d6cf762154a" target="_top" xlink:title="returns the first neuron id of a groupd specified by grpId ">
<polygon fill="#ffffff" stroke="#000000" points="299,-190.5 299,-209.5 465,-209.5 465,-190.5 299,-190.5"/>
<text text-anchor="middle" x="382" y="-197.5" font-family="Helvetica,sans-Serif" font-size="10.00" fill="#000000">CARLsim::getGroupStartNeuronId</text>
</a>
</g>
</g>
<!-- Node406&#45;&gt;Node407 -->
<g id="edge35" class="edge">
<title>Node406&#45;&gt;Node407</title>
<path fill="none" stroke="#191970" d="M258.8942,-200C271.8866,-200 285.6006,-200 298.9724,-200"/>
<polygon fill="#191970" stroke="#191970" points="258.6496,-196.5001 248.6496,-200 258.6496,-203.5001 258.6496,-196.5001"/>
</g>
<!-- Node409 -->
<g id="node38" class="node">
<title>Node409</title>
<g id="a_node38"><a xlink:href="classCARLsim.html#a12040462a7fa56b1cbc871265b3f2f8c" target="_top" xlink:title="returns the last neuron id of a groupd specified by grpId ">
<polygon fill="#ffffff" stroke="#000000" points="301,-152.5 301,-171.5 463,-171.5 463,-152.5 301,-152.5"/>
<text text-anchor="middle" x="382" y="-159.5" font-family="Helvetica,sans-Serif" font-size="10.00" fill="#000000">CARLsim::getGroupEndNeuronId</text>
</a>
</g>
</g>
<!-- Node408&#45;&gt;Node409 -->
<g id="edge37" class="edge">
<title>Node408&#45;&gt;Node409</title>
<path fill="none" stroke="#191970" d="M256.7582,-162C271.0118,-162 286.2162,-162 300.94,-162"/>
<polygon fill="#191970" stroke="#191970" points="256.5679,-158.5001 246.5679,-162 256.5678,-165.5001 256.5679,-158.5001"/>
</g>
<!-- Node410&#45;&gt;Node351 -->
<g id="edge40" class="edge">
<title>Node410&#45;&gt;Node351</title>
<path fill="none" stroke="#191970" d="M213.5916,-1164.9656C234.7159,-1177.7728 266.9117,-1195.8566 297,-1207 307.0677,-1210.7286 318.0892,-1213.8505 328.7609,-1216.4154"/>
<polygon fill="#191970" stroke="#191970" points="215.3341,-1161.9283 204.9835,-1159.6661 211.6642,-1167.8892 215.3341,-1161.9283"/>
</g>
<!-- Node410&#45;&gt;Node366 -->
<g id="edge39" class="edge">
<title>Node410&#45;&gt;Node366</title>
<path fill="none" stroke="#191970" d="M248.3665,-1138.4483C284.3904,-1131.3186 328.814,-1122.5264 356.2742,-1117.0916"/>
<polygon fill="#191970" stroke="#191970" points="247.5799,-1135.036 238.4497,-1140.411 248.939,-1141.9028 247.5799,-1135.036"/>
</g>
<!-- Node410&#45;&gt;Node393 -->
<g id="edge41" class="edge">
<title>Node410&#45;&gt;Node393</title>
<path fill="none" stroke="#191970" d="M213.5916,-1135.0344C234.7159,-1122.2272 266.9117,-1104.1434 297,-1093 308.3439,-1088.7987 320.8986,-1085.3678 332.7997,-1082.636"/>
<polygon fill="#191970" stroke="#191970" points="211.6642,-1132.1108 204.9835,-1140.3339 215.3341,-1138.0717 211.6642,-1132.1108"/>
</g>
<!-- Node411 -->
<g id="node40" class="node">
<title>Node411</title>
<g id="a_node40"><a xlink:href="classCARLsim_1_1Impl.html#aec206ed9aaaed83f1d3170f012a86b70" target="_top" xlink:title="setSpikeRate">
<polygon fill="#ffffff" stroke="#ff0000" points="344,-1140.5 344,-1159.5 420,-1159.5 420,-1140.5 344,-1140.5"/>
<text text-anchor="middle" x="382" y="-1147.5" font-family="Helvetica,sans-Serif" font-size="10.00" fill="#000000">setSpikeRate</text>
</a>
</g>
</g>
<!-- Node410&#45;&gt;Node411 -->
<g id="edge42" class="edge">
<title>Node410&#45;&gt;Node411</title>
<path fill="none" stroke="#191970" d="M257.1862,-1150C286.2536,-1150 319.2055,-1150 343.9496,-1150"/>
<polygon fill="#191970" stroke="#191970" points="257.0865,-1146.5001 247.0865,-1150 257.0865,-1153.5001 257.0865,-1146.5001"/>
</g>
<!-- Node410&#45;&gt;Node413 -->
<g id="edge43" class="edge">
<title>Node410&#45;&gt;Node413</title>
<path fill="none" stroke="#191970" d="M204.3745,-1167.2976C223.3147,-1188.9073 258.7355,-1225.4189 297,-1245 306.0189,-1249.6152 316.1391,-1253.1161 326.1665,-1255.7698"/>
<polygon fill="#191970" stroke="#191970" points="206.9013,-1164.8674 197.735,-1159.5541 201.5872,-1169.4239 206.9013,-1164.8674"/>
</g>
<!-- Node414 -->
<g id="node42" class="node">
<title>Node414</title>
<g id="a_node42"><a xlink:href="classCARLsim.html#ad85b898d98abe24dcae4390f0fe61e84" target="_top" xlink:title="returns the number of neurons of a group specified by grpId ">
<polygon fill="#ffffff" stroke="#000000" points="300.5,-1178.5 300.5,-1197.5 463.5,-1197.5 463.5,-1178.5 300.5,-1178.5"/>
<text text-anchor="middle" x="382" y="-1185.5" font-family="Helvetica,sans-Serif" font-size="10.00" fill="#000000">CARLsim::getGroupNumNeurons</text>
</a>
</g>
</g>
<!-- Node410&#45;&gt;Node414 -->
<g id="edge44" class="edge">
<title>Node410&#45;&gt;Node414</title>
<path fill="none" stroke="#191970" d="M248.298,-1161.5381C275.6826,-1166.958 307.9334,-1173.341 333.8987,-1178.4799"/>
<polygon fill="#191970" stroke="#191970" points="248.939,-1158.0972 238.4497,-1159.589 247.5799,-1164.964 248.939,-1158.0972"/>
</g>
<!-- Node421&#45;&gt;Node372 -->
<g id="edge50" class="edge">
<title>Node421&#45;&gt;Node372</title>
<path fill="none" stroke="#191970" d="M264.3338,-1036C281.7741,-1036 300.221,-1036 317.2057,-1036"/>
<polygon fill="#191970" stroke="#191970" points="264.2002,-1032.5001 254.2002,-1036 264.2001,-1039.5001 264.2002,-1032.5001"/>
</g>
<!-- Node423&#45;&gt;Node387 -->
<g id="edge52" class="edge">
<title>Node423&#45;&gt;Node387</title>
<path fill="none" stroke="#191970" d="M247.9649,-492.5278C284.3516,-485.3263 329.4345,-476.4036 356.9394,-470.9599"/>
<polygon fill="#191970" stroke="#191970" points="247.0846,-489.134 237.9544,-494.509 248.4437,-496.0008 247.0846,-489.134"/>
</g>
<!-- Node425&#45;&gt;Node387 -->
<g id="edge54" class="edge">
<title>Node425&#45;&gt;Node387</title>
<path fill="none" stroke="#191970" d="M245.1263,-466C281.9867,-466 328.7325,-466 356.9555,-466"/>
<polygon fill="#191970" stroke="#191970" points="245.0155,-462.5001 235.0155,-466 245.0154,-469.5001 245.0155,-462.5001"/>
</g>
<!-- Node427&#45;&gt;Node351 -->
<g id="edge57" class="edge">
<title>Node427&#45;&gt;Node351</title>
<path fill="none" stroke="#191970" d="M230.2983,-992.8314C241.8039,-998.62 253.296,-1006.507 261,-1017 311.8652,-1086.2791 237.2269,-1145.2421 297,-1207 304.2562,-1214.4971 313.7758,-1219.3331 323.8117,-1222.3979"/>
<polygon fill="#191970" stroke="#191970" points="231.6888,-989.6187 221.1402,-988.6293 228.7694,-995.9809 231.6888,-989.6187"/>
</g>
<!-- Node427&#45;&gt;Node366 -->
<g id="edge56" class="edge">
<title>Node427&#45;&gt;Node366</title>
<path fill="none" stroke="#191970" d="M226.0743,-992.782C238.3116,-998.7963 251.3203,-1006.8335 261,-1017 286.7726,-1044.0686 267.8012,-1069.6683 297,-1093 313.7745,-1106.4038 338.0924,-1110.7837 356.4242,-1112.0265"/>
<polygon fill="#191970" stroke="#191970" points="227.4821,-989.5771 216.9347,-988.5755 224.5554,-995.9359 227.4821,-989.5771"/>
</g>
<!-- Node427&#45;&gt;Node370 -->
<g id="edge58" class="edge">
<title>Node427&#45;&gt;Node370</title>
<path fill="none" stroke="#191970" d="M208.1126,-962.6545C228.3403,-945.2758 262.7566,-918.241 297,-903 309.7094,-897.3433 324.2617,-893.2985 337.6909,-890.4376"/>
<polygon fill="#191970" stroke="#191970" points="205.5714,-960.2275 200.3542,-969.4487 210.1831,-965.4936 205.5714,-960.2275"/>
</g>
<!-- Node427&#45;&gt;Node372 -->
<g id="edge59" class="edge">
<title>Node427&#45;&gt;Node372</title>
<path fill="none" stroke="#191970" d="M223.7664,-992.178C244.6571,-1000.0333 272.1443,-1009.837 297,-1017 309.0597,-1020.4754 322.2345,-1023.6945 334.5336,-1026.4581"/>
<polygon fill="#191970" stroke="#191970" points="224.9651,-988.8894 214.374,-988.6107 222.4797,-995.4333 224.9651,-988.8894"/>
</g>
<!-- Node427&#45;&gt;Node374 -->
<g id="edge60" class="edge">
<title>Node427&#45;&gt;Node374</title>
<path fill="none" stroke="#191970" d="M201.7589,-960.8055C219.2938,-935.2281 254.7946,-889.0805 297,-865 305.7996,-859.9793 315.8154,-856.2852 325.808,-853.5672"/>
<polygon fill="#191970" stroke="#191970" points="198.782,-958.9609 196.1324,-969.2191 204.6008,-962.8521 198.782,-958.9609"/>
</g>
<!-- Node427&#45;&gt;Node376 -->
<g id="edge61" class="edge">
<title>Node427&#45;&gt;Node376</title>
<path fill="none" stroke="#191970" d="M197.8212,-959.9619C212.2746,-927.2868 246.3832,-860.7934 297,-827 303.6652,-822.5501 311.2139,-819.1283 318.9946,-816.4997"/>
<polygon fill="#191970" stroke="#191970" points="194.5424,-958.7276 193.8232,-969.298 200.9772,-961.4832 194.5424,-958.7276"/>
</g>
<!-- Node427&#45;&gt;Node380 -->
<g id="edge62" class="edge">
<title>Node427&#45;&gt;Node380</title>
<path fill="none" stroke="#191970" d="M243.3811,-984.2825C277.5646,-987.6652 320.7937,-991.9431 349.8094,-994.8145"/>
<polygon fill="#191970" stroke="#191970" points="243.3846,-980.7658 233.0885,-983.264 242.6952,-987.7318 243.3846,-980.7658"/>
</g>
<!-- Node427&#45;&gt;Node385 -->
<g id="edge63" class="edge">
<title>Node427&#45;&gt;Node385</title>
<path fill="none" stroke="#191970" d="M243.1616,-973.7392C278.2035,-970.2715 322.8253,-965.8558 351.8854,-962.9801"/>
<polygon fill="#191970" stroke="#191970" points="242.6952,-970.2682 233.0885,-974.736 243.3846,-977.2342 242.6952,-970.2682"/>
</g>
<!-- Node427&#45;&gt;Node393 -->
<g id="edge64" class="edge">
<title>Node427&#45;&gt;Node393</title>
<path fill="none" stroke="#191970" d="M221.5847,-993.1646C234.3845,-999.5876 248.9556,-1007.8073 261,-1017 279.4934,-1031.1148 276.7665,-1043.5178 297,-1055 307.9154,-1061.1943 320.6879,-1065.3692 332.9658,-1068.1831"/>
<polygon fill="#191970" stroke="#191970" points="222.7377,-989.8338 212.213,-988.6168 219.6816,-996.1315 222.7377,-989.8338"/>
</g>
<!-- Node427&#45;&gt;Node397 -->
<g id="edge65" class="edge">
<title>Node427&#45;&gt;Node397</title>
<path fill="none" stroke="#191970" d="M223.7664,-965.822C244.6571,-957.9667 272.1443,-948.163 297,-941 309.0597,-937.5246 322.2345,-934.3055 334.5336,-931.5419"/>
<polygon fill="#191970" stroke="#191970" points="222.4797,-962.5667 214.374,-969.3893 224.9651,-969.1106 222.4797,-962.5667"/>
</g>
<!-- Node427&#45;&gt;Node411 -->
<g id="edge66" class="edge">
<title>Node427&#45;&gt;Node411</title>
<path fill="none" stroke="#191970" d="M228.3936,-992.8237C240.2353,-998.7013 252.4058,-1006.6426 261,-1017 294.9287,-1057.8895 257.8496,-1095.0784 297,-1131 309.5902,-1142.5519 327.627,-1147.6076 343.849,-1149.6513"/>
<polygon fill="#191970" stroke="#191970" points="229.5914,-989.5229 219.0417,-988.5457 226.6794,-995.8885 229.5914,-989.5229"/>
</g>
</g>
</svg>
