<?xml version="1.0" encoding="UTF-8" standalone="no"?>
<!DOCTYPE svg PUBLIC "-//W3C//DTD SVG 1.1//EN"
 "http://www.w3.org/Graphics/SVG/1.1/DTD/svg11.dtd">
<!-- Generated by graphviz version 2.40.1 (20161225.0304)
 -->
<!-- Title: updateNeuronMonitor Pages: 1 -->
<!--zoomable 582 -->
<svg id="main" version="1.1" xmlns="http://www.w3.org/2000/svg" xmlns:xlink="http://www.w3.org/1999/xlink" xml:space="preserve" onload="init(evt)">
<style type="text/css"><![CDATA[
.edge:hover path { stroke: red; }
.edge:hover polygon { stroke: red; fill: red; }
]]></style>
<script type="text/javascript"><![CDATA[
var edges = document.getElementsByTagName('g');
if (edges && edges.length) {
  for (var i=0;i<edges.length;i++) {
    if (edges[i].id.substr(0,4)=='edge') {
      edges[i].setAttribute('class','edge');
    }
  }
}
]]></script>
        <defs>
                <circle id="rim" cx="0" cy="0" r="7"/>
                <circle id="rim2" cx="0" cy="0" r="3.5"/>
                <g id="zoomPlus">
                        <use xlink:href="#rim" fill="#404040">
                                <set attributeName="fill" to="#808080" begin="zoomplus.mouseover" end="zoomplus.mouseout"/>
                        </use>
                        <path d="M-4,0h8M0,-4v8" fill="none" stroke="white" stroke-width="1.5" pointer-events="none"/>
                </g>
                <g id="zoomMin">
                        <use xlink:href="#rim" fill="#404040">
                                <set attributeName="fill" to="#808080" begin="zoomminus.mouseover" end="zoomminus.mouseout"/>
                        </use>
                        <path d="M-4,0h8" fill="none" stroke="white" stroke-width="1.5" pointer-events="none"/>
                </g>
                <g id="dirArrow">
                        <path fill="none" stroke="white" stroke-width="1.5" d="M0,-3.0v7 M-2.5,-0.5L0,-3.0L2.5,-0.5"/>
                </g>
               <g id="resetDef">
                       <use xlink:href="#rim2" fill="#404040">
                               <set attributeName="fill" to="#808080" begin="reset.mouseover" end="reset.mouseout"/>
                       </use>
               </g>
        </defs>

<script type="text/javascript">
var viewWidth = 1112;
var viewHeight = 582;
var sectionId = 'dynsection-146';
</script>
<script xlink:href="svgpan.js"/>
<svg id="graph" class="graph">
<g id="viewport">
<title>updateNeuronMonitor</title>
<polygon fill="#ffffff" stroke="transparent" points="-4,4 -4,-578 1108,-578 1108,4 -4,4"/>
<!-- Node2008 -->
<g id="node1" class="node">
<title>Node2008</title>
<polygon fill="#bfbfbf" stroke="#000000" points="0,-372 0,-391 110,-391 110,-372 0,-372"/>
<text text-anchor="middle" x="55" y="-379" font-family="Helvetica,sans-Serif" font-size="10.00" fill="#000000">updateNeuronMonitor</text>
</g>
<!-- Node2009 -->
<g id="node2" class="node">
<title>Node2009</title>
<g id="a_node2"><a xlink:href="classNeuronMonitorCore.html#a102f8a26e80c556ee9a2ac503cd38ec9" target="_top" xlink:title="returns timestamp of last NeuronMonitor update ">
<polygon fill="#ffffff" stroke="#000000" points="146,-543.5 146,-573.5 253,-573.5 253,-543.5 146,-543.5"/>
<text text-anchor="start" x="154" y="-561.5" font-family="Helvetica,sans-Serif" font-size="10.00" fill="#000000">NeuronMonitorCore::</text>
<text text-anchor="middle" x="199.5" y="-550.5" font-family="Helvetica,sans-Serif" font-size="10.00" fill="#000000">getLastUpdated</text>
</a>
</g>
</g>
<!-- Node2008&#45;&gt;Node2009 -->
<g id="edge1" class="edge">
<title>Node2008&#45;&gt;Node2009</title>
<path fill="none" stroke="#191970" d="M58.3892,-391.0065C68.1169,-417.0823 98.5098,-490.636 146,-533.5 147.7005,-535.0348 149.5117,-536.4922 151.4014,-537.8739"/>
<polygon fill="#191970" stroke="#191970" points="149.7831,-540.9942 160.0886,-543.4532 153.5658,-535.1043 149.7831,-540.9942"/>
</g>
<!-- Node2010 -->
<g id="node3" class="node">
<title>Node2010</title>
<g id="a_node3"><a xlink:href="classSNN.html#a5fd2b156623d78138bcb44167eabab78" target="_top" xlink:title="getSimTime">
<polygon fill="#ffffff" stroke="#000000" points="165,-505 165,-524 234,-524 234,-505 165,-505"/>
<text text-anchor="middle" x="199.5" y="-512" font-family="Helvetica,sans-Serif" font-size="10.00" fill="#000000">getSimTime</text>
</a>
</g>
</g>
<!-- Node2008&#45;&gt;Node2010 -->
<g id="edge2" class="edge">
<title>Node2008&#45;&gt;Node2010</title>
<path fill="none" stroke="#191970" d="M60.9058,-391.2105C73.9352,-411.9384 107.0965,-461.0222 146,-490.5 151.0585,-494.3329 156.8261,-497.7223 162.6574,-500.6569"/>
<polygon fill="#191970" stroke="#191970" points="161.2367,-503.8561 171.7807,-504.8924 164.1843,-497.5069 161.2367,-503.8561"/>
</g>
<!-- Node2011 -->
<g id="node4" class="node">
<title>Node2011</title>
<g id="a_node4"><a xlink:href="classSNN.html#a424b0cf29d7dba87e4ebf244399acad0" target="_top" xlink:title="getSimTimeMs">
<polygon fill="#ffffff" stroke="#000000" points="734.5,-404 734.5,-423 817.5,-423 817.5,-404 734.5,-404"/>
<text text-anchor="middle" x="776" y="-411" font-family="Helvetica,sans-Serif" font-size="10.00" fill="#000000">getSimTimeMs</text>
</a>
</g>
</g>
<!-- Node2008&#45;&gt;Node2011 -->
<g id="edge3" class="edge">
<title>Node2008&#45;&gt;Node2011</title>
<path fill="none" stroke="#191970" d="M68.8302,-391.196C86.113,-402.8789 116.96,-422.3269 146,-433.5 229.4373,-465.6024 253.1001,-476.5 342.5,-476.5 342.5,-476.5 342.5,-476.5 485.5,-476.5 579.2644,-476.5 686.2641,-444.7657 740.4812,-426.3427"/>
<polygon fill="#191970" stroke="#191970" points="741.6629,-429.6376 749.9753,-423.0683 739.3806,-423.0201 741.6629,-429.6376"/>
</g>
<!-- Node2017 -->
<g id="node10" class="node">
<title>Node2017</title>
<g id="a_node10"><a xlink:href="classSNN.html#a85facd004ae52ee52e72451b5d874fae" target="_top" xlink:title="getSimTimeSec">
<polygon fill="#ffffff" stroke="#000000" points="733,-366 733,-385 819,-385 819,-366 733,-366"/>
<text text-anchor="middle" x="776" y="-373" font-family="Helvetica,sans-Serif" font-size="10.00" fill="#000000">getSimTimeSec</text>
</a>
</g>
</g>
<!-- Node2008&#45;&gt;Node2017 -->
<g id="edge12" class="edge">
<title>Node2008&#45;&gt;Node2017</title>
<path fill="none" stroke="#191970" d="M110.3412,-386.7354C205.2922,-395.4268 405.4082,-412.4741 575,-418.5 622.5256,-420.1887 636.485,-432.2808 682,-418.5 700.4045,-412.9276 700.7039,-402.9038 718,-394.5 722.4138,-392.3554 727.1289,-390.365 731.8917,-388.543"/>
<polygon fill="#191970" stroke="#191970" points="733.4209,-391.713 741.6539,-385.0446 731.0594,-385.1234 733.4209,-391.713"/>
</g>
<!-- Node2018 -->
<g id="node11" class="node">
<title>Node2018</title>
<g id="a_node11"><a xlink:href="classNeuronMonitorCore.html#a38f87732cc929797d9648e68cd509f1b" target="_top" xlink:title="sets timestamp of last NeuronMonitor update ">
<polygon fill="#ffffff" stroke="#000000" points="146,-131.5 146,-161.5 253,-161.5 253,-131.5 146,-131.5"/>
<text text-anchor="start" x="154" y="-149.5" font-family="Helvetica,sans-Serif" font-size="10.00" fill="#000000">NeuronMonitorCore::</text>
<text text-anchor="middle" x="199.5" y="-138.5" font-family="Helvetica,sans-Serif" font-size="10.00" fill="#000000">setLastUpdated</text>
</a>
</g>
</g>
<!-- Node2008&#45;&gt;Node2018 -->
<g id="edge13" class="edge">
<title>Node2008&#45;&gt;Node2018</title>
<path fill="none" stroke="#191970" d="M60.8435,-371.9967C81.8196,-337.8833 153.7234,-220.9464 184.8939,-170.2539"/>
<polygon fill="#191970" stroke="#191970" points="187.9621,-171.9461 190.2186,-161.5943 181.9992,-168.2795 187.9621,-171.9461"/>
</g>
<!-- Node2025 -->
<g id="node18" class="node">
<title>Node2025</title>
<g id="a_node18"><a xlink:href="classNeuronMonitorCore.html#a3a3ffdb35b09328d22e5d72503ed1f55" target="_top" xlink:title="returns recording status ">
<polygon fill="#ffffff" stroke="#000000" points="432,-265.5 432,-295.5 539,-295.5 539,-265.5 432,-265.5"/>
<text text-anchor="start" x="440" y="-283.5" font-family="Helvetica,sans-Serif" font-size="10.00" fill="#000000">NeuronMonitorCore::</text>
<text text-anchor="middle" x="485.5" y="-272.5" font-family="Helvetica,sans-Serif" font-size="10.00" fill="#000000">isRecording</text>
</a>
</g>
</g>
<!-- Node2008&#45;&gt;Node2025 -->
<g id="edge41" class="edge">
<title>Node2008&#45;&gt;Node2025</title>
<path fill="none" stroke="#191970" d="M63.6709,-371.8005C78.6505,-355.7896 111.1371,-324.2371 146,-310.5 236.9054,-274.6805 351.7922,-272.5886 421.8998,-275.6167"/>
<polygon fill="#191970" stroke="#191970" points="421.7541,-279.1136 431.9104,-276.0972 422.0898,-272.1217 421.7541,-279.1136"/>
</g>
<!-- Node2026 -->
<g id="node19" class="node">
<title>Node2026</title>
<g id="a_node19"><a xlink:href="classNeuronMonitorCore.html#a743a4ad47ef60bc593cc9882bd4ffb57" target="_top" xlink:title="inserts a (time,neurId) tupel into the D Neuron State vector ">
<polygon fill="#ffffff" stroke="#000000" points="575,-281.5 575,-311.5 682,-311.5 682,-281.5 575,-281.5"/>
<text text-anchor="start" x="583" y="-299.5" font-family="Helvetica,sans-Serif" font-size="10.00" fill="#000000">NeuronMonitorCore::</text>
<text text-anchor="middle" x="628.5" y="-288.5" font-family="Helvetica,sans-Serif" font-size="10.00" fill="#000000">pushNeuronState</text>
</a>
</g>
</g>
<!-- Node2008&#45;&gt;Node2026 -->
<g id="edge42" class="edge">
<title>Node2008&#45;&gt;Node2026</title>
<path fill="none" stroke="#191970" d="M107.4034,-371.991C120.029,-369.7816 133.4856,-367.4945 146,-365.5 295.8147,-341.6236 472.4303,-317.349 564.8347,-304.9438"/>
<polygon fill="#191970" stroke="#191970" points="565.4194,-308.3968 574.8659,-303.5993 564.4895,-301.4588 565.4194,-308.3968"/>
</g>
<!-- Node2031 -->
<g id="node24" class="node">
<title>Node2031</title>
<g id="a_node24"><a xlink:href="classNeuronMonitorCore.html#a84e392c48ef98bece7aa0dc7af992360" target="_top" xlink:title="returns a pointer to the neuron state file ">
<polygon fill="#ffffff" stroke="#000000" points="146,-82.5 146,-112.5 253,-112.5 253,-82.5 146,-82.5"/>
<text text-anchor="start" x="154" y="-100.5" font-family="Helvetica,sans-Serif" font-size="10.00" fill="#000000">NeuronMonitorCore::</text>
<text text-anchor="middle" x="199.5" y="-89.5" font-family="Helvetica,sans-Serif" font-size="10.00" fill="#000000">getNeuronFileId</text>
</a>
</g>
</g>
<!-- Node2008&#45;&gt;Node2031 -->
<g id="edge40" class="edge">
<title>Node2008&#45;&gt;Node2031</title>
<path fill="none" stroke="#191970" d="M55.6918,-371.866C58.8515,-334.6915 74.9939,-198.8144 146,-121.5 146.8715,-120.5511 147.7876,-119.6373 148.7417,-118.7576"/>
<polygon fill="#191970" stroke="#191970" points="150.8878,-121.5225 156.6933,-112.6598 146.6281,-115.9678 150.8878,-121.5225"/>
</g>
<!-- Node2012 -->
<g id="node5" class="node">
<title>Node2012</title>
<g id="a_node5"><a xlink:href="classSNN.html#a866a9c6e2b2630816fc66adda1381655" target="_top" xlink:title="Returns pointer to existing SpikeMonitor object, NULL else. ">
<polygon fill="#ffffff" stroke="#000000" points="884,-385 884,-404 971,-404 971,-385 884,-385"/>
<text text-anchor="middle" x="927.5" y="-392" font-family="Helvetica,sans-Serif" font-size="10.00" fill="#000000">getSpikeMonitor</text>
</a>
</g>
</g>
<!-- Node2011&#45;&gt;Node2012 -->
<g id="edge4" class="edge">
<title>Node2011&#45;&gt;Node2012</title>
<path fill="none" stroke="#191970" d="M817.7991,-408.2579C835.1654,-406.0799 855.5334,-403.5255 873.9737,-401.2129"/>
<polygon fill="#191970" stroke="#191970" points="874.502,-404.6741 883.9887,-399.9569 873.6308,-397.7285 874.502,-404.6741"/>
</g>
<!-- Node2014 -->
<g id="node7" class="node">
<title>Node2014</title>
<g id="a_node7"><a xlink:href="classSNN.html#ad25000cd1457c9b9869122534ada6fdd" target="_top" xlink:title="getSpikeMonitorCore">
<polygon fill="#ffffff" stroke="#000000" points="873.5,-347 873.5,-366 981.5,-366 981.5,-347 873.5,-347"/>
<text text-anchor="middle" x="927.5" y="-354" font-family="Helvetica,sans-Serif" font-size="10.00" fill="#000000">getSpikeMonitorCore</text>
</a>
</g>
</g>
<!-- Node2011&#45;&gt;Node2014 -->
<g id="edge6" class="edge">
<title>Node2011&#45;&gt;Node2014</title>
<path fill="none" stroke="#191970" d="M808.5702,-403.9009C816.96,-401.1381 825.9033,-397.9337 834,-394.5 850.6558,-387.4365 853.3533,-382.5849 870,-375.5 875.0788,-373.3385 880.4927,-371.2644 885.8908,-369.3329"/>
<polygon fill="#191970" stroke="#191970" points="887.197,-372.5849 895.5143,-366.0219 884.9196,-365.9657 887.197,-372.5849"/>
</g>
<!-- Node2015 -->
<g id="node8" class="node">
<title>Node2015</title>
<g id="a_node8"><a xlink:href="classSNN.html#a0eb87addfa5eebdfee4bd6b927b8945f" target="_top" xlink:title="Returns pointer to existing NeuronMonitor object, NULL else. ">
<polygon fill="#ffffff" stroke="#000000" points="880.5,-461 880.5,-480 974.5,-480 974.5,-461 880.5,-461"/>
<text text-anchor="middle" x="927.5" y="-468" font-family="Helvetica,sans-Serif" font-size="10.00" fill="#000000">getNeuronMonitor</text>
</a>
</g>
</g>
<!-- Node2011&#45;&gt;Node2015 -->
<g id="edge8" class="edge">
<title>Node2011&#45;&gt;Node2015</title>
<path fill="none" stroke="#191970" d="M798.6328,-423.1314C817.5735,-431.0751 845.3773,-442.4658 870,-451.5 875.6275,-453.5648 881.6005,-455.6523 887.486,-457.65"/>
<polygon fill="#191970" stroke="#191970" points="886.6379,-461.0568 897.2316,-460.9073 888.8569,-454.4178 886.6379,-461.0568"/>
</g>
<!-- Node2016 -->
<g id="node9" class="node">
<title>Node2016</title>
<g id="a_node9"><a xlink:href="classSNN.html#a9aa73fa9478383c4af1eed8387d82db9" target="_top" xlink:title="getNeuronMonitorCore">
<polygon fill="#ffffff" stroke="#000000" points="870,-423 870,-442 985,-442 985,-423 870,-423"/>
<text text-anchor="middle" x="927.5" y="-430" font-family="Helvetica,sans-Serif" font-size="10.00" fill="#000000">getNeuronMonitorCore</text>
</a>
</g>
</g>
<!-- Node2011&#45;&gt;Node2016 -->
<g id="edge10" class="edge">
<title>Node2011&#45;&gt;Node2016</title>
<path fill="none" stroke="#191970" d="M817.7991,-418.7421C830.767,-420.3685 845.4087,-422.2047 859.6717,-423.9935"/>
<polygon fill="#191970" stroke="#191970" points="859.6032,-427.5122 869.9611,-425.2839 860.4743,-420.5666 859.6032,-427.5122"/>
</g>
<!-- Node2013 -->
<g id="node6" class="node">
<title>Node2013</title>
<g id="a_node6"><a xlink:href="classSNN.html#a292bdee57fec7c77ec4c15ea3f508d60" target="_top" xlink:title="getNumGroups">
<polygon fill="#ffffff" stroke="#000000" points="1021,-404 1021,-423 1104,-423 1104,-404 1021,-404"/>
<text text-anchor="middle" x="1062.5" y="-411" font-family="Helvetica,sans-Serif" font-size="10.00" fill="#000000">getNumGroups</text>
</a>
</g>
</g>
<!-- Node2012&#45;&gt;Node2013 -->
<g id="edge5" class="edge">
<title>Node2012&#45;&gt;Node2013</title>
<path fill="none" stroke="#191970" d="M971.3306,-400.6688C983.8452,-402.4301 997.6026,-404.3663 1010.5524,-406.1889"/>
<polygon fill="#191970" stroke="#191970" points="1010.3353,-409.6927 1020.7255,-407.6206 1011.3109,-402.761 1010.3353,-409.6927"/>
</g>
<!-- Node2014&#45;&gt;Node2013 -->
<g id="edge7" class="edge">
<title>Node2014&#45;&gt;Node2013</title>
<path fill="none" stroke="#191970" d="M959.1173,-366.0868C967.6075,-368.894 976.7261,-372.1231 985,-375.5 1002.1855,-382.5142 1020.8844,-391.6371 1035.6088,-399.1859"/>
<polygon fill="#191970" stroke="#191970" points="1034.167,-402.3809 1044.655,-403.8813 1037.3918,-396.1679 1034.167,-402.3809"/>
</g>
<!-- Node2015&#45;&gt;Node2013 -->
<g id="edge9" class="edge">
<title>Node2015&#45;&gt;Node2013</title>
<path fill="none" stroke="#191970" d="M959.1173,-460.9132C967.6075,-458.106 976.7261,-454.8769 985,-451.5 1002.1855,-444.4858 1020.8844,-435.3629 1035.6088,-427.8141"/>
<polygon fill="#191970" stroke="#191970" points="1037.3918,-430.8321 1044.655,-423.1187 1034.167,-424.6191 1037.3918,-430.8321"/>
</g>
<!-- Node2016&#45;&gt;Node2013 -->
<g id="edge11" class="edge">
<title>Node2016&#45;&gt;Node2013</title>
<path fill="none" stroke="#191970" d="M985.1437,-424.3872C993.7033,-423.1825 1002.4789,-421.9474 1010.904,-420.7617"/>
<polygon fill="#191970" stroke="#191970" points="1011.5542,-424.2047 1020.9688,-419.3451 1010.5786,-417.273 1011.5542,-424.2047"/>
</g>
<!-- Node2019 -->
<g id="node12" class="node">
<title>Node2019</title>
<g id="a_node12"><a xlink:href="classNeuronMonitorCore.html#aaeb6a64ac5d9fd3b7a979f0f12ec87dc" target="_top" xlink:title="returns true if state buffers are close to maxAllowedBufferSize ">
<polygon fill="#ffffff" stroke="#000000" points="289,-.5 289,-30.5 396,-30.5 396,-.5 289,-.5"/>
<text text-anchor="start" x="297" y="-18.5" font-family="Helvetica,sans-Serif" font-size="10.00" fill="#000000">NeuronMonitorCore::</text>
<text text-anchor="middle" x="342.5" y="-7.5" font-family="Helvetica,sans-Serif" font-size="10.00" fill="#000000">isBufferBig</text>
</a>
</g>
</g>
<!-- Node2018&#45;&gt;Node2019 -->
<g id="edge14" class="edge">
<title>Node2018&#45;&gt;Node2019</title>
<path fill="none" stroke="#191970" d="M240.1779,-131.4405C244.8555,-128.6095 249.2748,-125.3136 253,-121.5 280.8123,-93.0277 260.9685,-67.7566 289,-39.5 290.053,-38.4385 291.1613,-37.4199 292.3151,-36.4426"/>
<polygon fill="#191970" stroke="#191970" points="294.4024,-39.2527 300.4856,-30.5782 290.3207,-33.5658 294.4024,-39.2527"/>
</g>
<!-- Node2020 -->
<g id="node13" class="node">
<title>Node2020</title>
<g id="a_node13"><a xlink:href="classNeuronMonitorCore.html#a30f19d45f562061cc82c04e7289ba956" target="_top" xlink:title="returns the approximate size of the state vectors in bytes ">
<polygon fill="#ffffff" stroke="#000000" points="432,-44.5 432,-74.5 539,-74.5 539,-44.5 432,-44.5"/>
<text text-anchor="start" x="440" y="-62.5" font-family="Helvetica,sans-Serif" font-size="10.00" fill="#000000">NeuronMonitorCore::</text>
<text text-anchor="middle" x="485.5" y="-51.5" font-family="Helvetica,sans-Serif" font-size="10.00" fill="#000000">getBufferSize</text>
</a>
</g>
</g>
<!-- Node2018&#45;&gt;Node2020 -->
<g id="edge16" class="edge">
<title>Node2018&#45;&gt;Node2020</title>
<path fill="none" stroke="#191970" d="M251.7416,-131.486C291.4018,-119.9896 347.2401,-103.5929 396,-88.5 406.9819,-85.1007 418.6904,-81.3785 429.8958,-77.7679"/>
<polygon fill="#191970" stroke="#191970" points="431.1451,-81.0424 439.5826,-74.6346 428.9908,-74.3822 431.1451,-81.0424"/>
</g>
<!-- Node2021 -->
<g id="node14" class="node">
<title>Node2021</title>
<g id="a_node14"><a xlink:href="classNeuronMonitorCore.html#a3a0e4e77a2b83f5dd0e86aafcf227595" target="_top" xlink:title="returns the total accumulated time ">
<polygon fill="#ffffff" stroke="#000000" points="289,-49.5 289,-79.5 396,-79.5 396,-49.5 289,-49.5"/>
<text text-anchor="start" x="297" y="-67.5" font-family="Helvetica,sans-Serif" font-size="10.00" fill="#000000">NeuronMonitorCore::</text>
<text text-anchor="middle" x="342.5" y="-56.5" font-family="Helvetica,sans-Serif" font-size="10.00" fill="#000000">getAccumTime</text>
</a>
</g>
</g>
<!-- Node2018&#45;&gt;Node2021 -->
<g id="edge17" class="edge">
<title>Node2018&#45;&gt;Node2021</title>
<path fill="none" stroke="#191970" d="M234.5767,-131.3803C240.8308,-128.3284 247.1974,-124.9807 253,-121.5 270.1509,-111.2118 272.241,-105.4149 289,-94.5 294.0876,-91.1865 299.5628,-87.8609 305.0005,-84.6929"/>
<polygon fill="#191970" stroke="#191970" points="307.0865,-87.5326 314.0415,-79.5401 303.6204,-81.4509 307.0865,-87.5326"/>
</g>
<!-- Node2022 -->
<g id="node15" class="node">
<title>Node2022</title>
<g id="a_node15"><a xlink:href="classNeuronMonitorCore.html#a4d3c2252230fe74bf03bcc3045ff8972" target="_top" xlink:title="NeuronMonitorCore::\lwriteNeuronFileHeader">
<polygon fill="#ffffff" stroke="#000000" points="718,-153.5 718,-183.5 834,-183.5 834,-153.5 718,-153.5"/>
<text text-anchor="start" x="726" y="-171.5" font-family="Helvetica,sans-Serif" font-size="10.00" fill="#000000">NeuronMonitorCore::</text>
<text text-anchor="middle" x="776" y="-160.5" font-family="Helvetica,sans-Serif" font-size="10.00" fill="#000000">writeNeuronFileHeader</text>
</a>
</g>
</g>
<!-- Node2018&#45;&gt;Node2022 -->
<g id="edge18" class="edge">
<title>Node2018&#45;&gt;Node2022</title>
<path fill="none" stroke="#191970" d="M253.218,-148.55C358.4959,-152.5675 591.7762,-161.4698 707.7707,-165.8963"/>
<polygon fill="#191970" stroke="#191970" points="707.8197,-169.4006 717.946,-166.2846 708.0868,-162.4057 707.8197,-169.4006"/>
</g>
<!-- Node2024 -->
<g id="node17" class="node">
<title>Node2024</title>
<g id="a_node17"><a xlink:href="classNeuronMonitorCore.html#aec9349ebca384aed5e233754559075e0" target="_top" xlink:title="prints neuron states in human&#45;readable format ">
<polygon fill="#ffffff" stroke="#000000" points="289,-201.5 289,-231.5 396,-231.5 396,-201.5 289,-201.5"/>
<text text-anchor="start" x="297" y="-219.5" font-family="Helvetica,sans-Serif" font-size="10.00" fill="#000000">NeuronMonitorCore::</text>
<text text-anchor="middle" x="342.5" y="-208.5" font-family="Helvetica,sans-Serif" font-size="10.00" fill="#000000">print</text>
</a>
</g>
</g>
<!-- Node2018&#45;&gt;Node2024 -->
<g id="edge20" class="edge">
<title>Node2018&#45;&gt;Node2024</title>
<path fill="none" stroke="#191970" d="M230.1771,-161.5168C251.2387,-171.8266 279.4075,-185.6155 302.2666,-196.8053"/>
<polygon fill="#191970" stroke="#191970" points="300.8597,-200.0135 311.3802,-201.2665 303.9374,-193.7263 300.8597,-200.0135"/>
</g>
<!-- Node2019&#45;&gt;Node2020 -->
<g id="edge15" class="edge">
<title>Node2019&#45;&gt;Node2020</title>
<path fill="none" stroke="#191970" d="M391.3125,-30.5192C402.6905,-34.0202 414.9236,-37.7842 426.6838,-41.4027"/>
<polygon fill="#191970" stroke="#191970" points="425.8348,-44.8034 436.422,-44.3991 427.8935,-38.1129 425.8348,-44.8034"/>
</g>
<!-- Node2023 -->
<g id="node16" class="node">
<title>Node2023</title>
<g id="a_node16"><a xlink:href="classSNN.html#ac13b30c40669d3cb8264bd6e211b449d" target="_top" xlink:title="getGroupGrid3D">
<polygon fill="#ffffff" stroke="#000000" points="884,-159 884,-178 971,-178 971,-159 884,-159"/>
<text text-anchor="middle" x="927.5" y="-166" font-family="Helvetica,sans-Serif" font-size="10.00" fill="#000000">getGroupGrid3D</text>
</a>
</g>
</g>
<!-- Node2022&#45;&gt;Node2023 -->
<g id="edge19" class="edge">
<title>Node2022&#45;&gt;Node2023</title>
<path fill="none" stroke="#191970" d="M834.1406,-168.5C847.1775,-168.5 860.9512,-168.5 873.798,-168.5"/>
<polygon fill="#191970" stroke="#191970" points="873.8705,-172.0001 883.8705,-168.5 873.8704,-165.0001 873.8705,-172.0001"/>
</g>
<!-- Node2024&#45;&gt;Node2025 -->
<g id="edge21" class="edge">
<title>Node2024&#45;&gt;Node2025</title>
<path fill="none" stroke="#191970" d="M376.0271,-231.5052C395.8744,-240.3878 421.2209,-251.7317 442.5257,-261.2667"/>
<polygon fill="#191970" stroke="#191970" points="441.1301,-264.4766 451.6874,-265.3671 443.9897,-258.0873 441.1301,-264.4766"/>
</g>
<!-- Node2025&#45;&gt;Node2026 -->
<g id="edge22" class="edge">
<title>Node2025&#45;&gt;Node2026</title>
<path fill="none" stroke="#191970" d="M539.1548,-279.9438C547.3808,-280.6852 555.9436,-281.5904 564.3684,-282.6064"/>
<polygon fill="#191970" stroke="#191970" points="564.1836,-286.1109 574.5445,-283.897 565.0644,-279.1665 564.1836,-286.1109"/>
</g>
<!-- Node2027 -->
<g id="node20" class="node">
<title>Node2027</title>
<g id="a_node20"><a xlink:href="classNeuronMonitorCore.html#ab91616c118b701c2afd9136393d1f19b" target="_top" xlink:title="starts recording Neuron state ">
<polygon fill="#ffffff" stroke="#000000" points="575,-330.5 575,-360.5 682,-360.5 682,-330.5 575,-330.5"/>
<text text-anchor="start" x="583" y="-348.5" font-family="Helvetica,sans-Serif" font-size="10.00" fill="#000000">NeuronMonitorCore::</text>
<text text-anchor="middle" x="628.5" y="-337.5" font-family="Helvetica,sans-Serif" font-size="10.00" fill="#000000">startRecording</text>
</a>
</g>
</g>
<!-- Node2025&#45;&gt;Node2027 -->
<g id="edge24" class="edge">
<title>Node2025&#45;&gt;Node2027</title>
<path fill="none" stroke="#191970" d="M532.7199,-295.5721C554.0159,-304.5997 578.5729,-316 597.4895,-325.727"/>
<polygon fill="#191970" stroke="#191970" points="596.0718,-328.9359 606.5514,-330.4943 599.3309,-322.7409 596.0718,-328.9359"/>
</g>
<!-- Node2028 -->
<g id="node21" class="node">
<title>Node2028</title>
<g id="a_node21"><a xlink:href="classNeuronMonitorCore.html#ac8bb3912a3ce86b15842e79d0b421204" target="_top" xlink:title="deletes data from the neuron state vector ">
<polygon fill="#ffffff" stroke="#000000" points="722.5,-228.5 722.5,-258.5 829.5,-258.5 829.5,-228.5 722.5,-228.5"/>
<text text-anchor="start" x="730.5" y="-246.5" font-family="Helvetica,sans-Serif" font-size="10.00" fill="#000000">NeuronMonitorCore::</text>
<text text-anchor="middle" x="776" y="-235.5" font-family="Helvetica,sans-Serif" font-size="10.00" fill="#000000">clear</text>
</a>
</g>
</g>
<!-- Node2025&#45;&gt;Node2028 -->
<g id="edge36" class="edge">
<title>Node2025&#45;&gt;Node2028</title>
<path fill="none" stroke="#191970" d="M539.1207,-268.2945C587.9959,-260.3539 660.2661,-251.04 712.1158,-245.9335"/>
<polygon fill="#191970" stroke="#191970" points="712.5787,-249.4053 722.2005,-244.97 711.9129,-242.4371 712.5787,-249.4053"/>
</g>
<!-- Node2029 -->
<g id="node22" class="node">
<title>Node2029</title>
<g id="a_node22"><a xlink:href="classNeuronMonitorCore.html#a25e0e98dd4519eaaa6b258f0dcb91ac7" target="_top" xlink:title="stops recording Neuron state ">
<polygon fill="#ffffff" stroke="#000000" points="575,-379.5 575,-409.5 682,-409.5 682,-379.5 575,-379.5"/>
<text text-anchor="start" x="583" y="-397.5" font-family="Helvetica,sans-Serif" font-size="10.00" fill="#000000">NeuronMonitorCore::</text>
<text text-anchor="middle" x="628.5" y="-386.5" font-family="Helvetica,sans-Serif" font-size="10.00" fill="#000000">stopRecording</text>
</a>
</g>
</g>
<!-- Node2025&#45;&gt;Node2029 -->
<g id="edge31" class="edge">
<title>Node2025&#45;&gt;Node2029</title>
<path fill="none" stroke="#191970" d="M503.9596,-295.7243C520.9161,-313.2575 547.5172,-341.2971 575,-360.5 582.6325,-365.833 591.583,-370.5286 599.9557,-374.7696"/>
<polygon fill="#191970" stroke="#191970" points="598.5588,-377.9852 609.0621,-379.3745 601.7176,-371.7385 598.5588,-377.9852"/>
</g>
<!-- Node2030 -->
<g id="node23" class="node">
<title>Node2030</title>
<g id="a_node23"><a xlink:href="classNeuronMonitorCore.html#a5113f6b476e3e3544ecbffefa313234d" target="_top" xlink:title="sets pointer to Neuron file ">
<polygon fill="#ffffff" stroke="#000000" points="575,-175.5 575,-205.5 682,-205.5 682,-175.5 575,-175.5"/>
<text text-anchor="start" x="583" y="-193.5" font-family="Helvetica,sans-Serif" font-size="10.00" fill="#000000">NeuronMonitorCore::</text>
<text text-anchor="middle" x="628.5" y="-182.5" font-family="Helvetica,sans-Serif" font-size="10.00" fill="#000000">setNeuronFileId</text>
</a>
</g>
</g>
<!-- Node2025&#45;&gt;Node2030 -->
<g id="edge37" class="edge">
<title>Node2025&#45;&gt;Node2030</title>
<path fill="none" stroke="#191970" d="M498.3323,-265.3018C515.5243,-250.3806 547.1051,-228.6339 575,-211.5 575.397,-211.2562 575.796,-211.0119 576.1969,-210.7673"/>
<polygon fill="#191970" stroke="#191970" points="578.0226,-213.7538 584.8271,-205.6328 574.4435,-207.738 578.0226,-213.7538"/>
</g>
<!-- Node2026&#45;&gt;Node2025 -->
<g id="edge23" class="edge">
<title>Node2026&#45;&gt;Node2025</title>
<path fill="none" stroke="#191970" d="M574.5445,-297.0291C566.3103,-296.2837 557.7452,-295.3751 549.3238,-294.3564"/>
<polygon fill="#191970" stroke="#191970" points="549.5165,-290.8528 539.1548,-293.0629 548.6332,-297.7969 549.5165,-290.8528"/>
</g>
<!-- Node2027&#45;&gt;Node2008 -->
<g id="edge28" class="edge">
<title>Node2027&#45;&gt;Node2008</title>
<path fill="none" stroke="#191970" d="M574.991,-348.8589C469.435,-355.4849 234.7226,-370.2184 120.2767,-377.4024"/>
<polygon fill="#191970" stroke="#191970" points="120.0109,-373.9121 110.2499,-378.0318 120.4495,-380.8984 120.0109,-373.9121"/>
</g>
<!-- Node2027&#45;&gt;Node2011 -->
<g id="edge30" class="edge">
<title>Node2027&#45;&gt;Node2011</title>
<path fill="none" stroke="#191970" d="M664.6389,-360.6092C670.5336,-363.3862 676.505,-366.395 682,-369.5 698.9593,-379.0832 700.5606,-385.821 718,-394.5 722.337,-396.6584 726.9747,-398.6518 731.6675,-400.4703"/>
<polygon fill="#191970" stroke="#191970" points="730.7043,-403.8438 741.2986,-403.9544 733.0856,-397.2613 730.7043,-403.8438"/>
</g>
<!-- Node2027&#45;&gt;Node2017 -->
<g id="edge29" class="edge">
<title>Node2027&#45;&gt;Node2017</title>
<path fill="none" stroke="#191970" d="M682.1681,-356.4156C695.4273,-359.1123 709.6238,-361.9998 722.8578,-364.6914"/>
<polygon fill="#191970" stroke="#191970" points="722.2619,-368.1418 732.7588,-366.7052 723.6571,-361.2822 722.2619,-368.1418"/>
</g>
<!-- Node2027&#45;&gt;Node2025 -->
<g id="edge25" class="edge">
<title>Node2027&#45;&gt;Node2025</title>
<path fill="none" stroke="#191970" d="M581.2755,-330.4259C560.0099,-321.4111 535.4935,-310.0308 516.5889,-300.3133"/>
<polygon fill="#191970" stroke="#191970" points="518.0102,-297.1064 507.5304,-295.5498 514.7522,-303.302 518.0102,-297.1064"/>
</g>
<!-- Node2027&#45;&gt;Node2028 -->
<g id="edge26" class="edge">
<title>Node2027&#45;&gt;Node2028</title>
<path fill="none" stroke="#191970" d="M663.9857,-330.4443C670.1351,-327.4083 676.36,-324.0495 682,-320.5 707.5467,-304.4221 733.9016,-282.262 752.1804,-265.8416"/>
<polygon fill="#191970" stroke="#191970" points="754.9393,-268.0632 759.9786,-258.7434 750.2274,-262.8865 754.9393,-268.0632"/>
</g>
<!-- Node2028&#45;&gt;Node2025 -->
<g id="edge27" class="edge">
<title>Node2028&#45;&gt;Node2025</title>
<path fill="none" stroke="#191970" d="M722.2005,-255.7345C673.2683,-263.6785 600.9945,-272.9889 549.1947,-278.0851"/>
<polygon fill="#191970" stroke="#191970" points="548.7429,-274.6122 539.1207,-279.0465 549.408,-281.5806 548.7429,-274.6122"/>
</g>
<!-- Node2029&#45;&gt;Node2008 -->
<g id="edge33" class="edge">
<title>Node2029&#45;&gt;Node2008</title>
<path fill="none" stroke="#191970" d="M574.8139,-404.1636C485.1995,-418.6401 299.7943,-441.5247 146,-414.5 124.8306,-410.7801 102.0999,-402.5402 84.6519,-395.2253"/>
<polygon fill="#191970" stroke="#191970" points="85.6086,-391.8257 75.041,-391.0664 82.8286,-398.25 85.6086,-391.8257"/>
</g>
<!-- Node2029&#45;&gt;Node2011 -->
<g id="edge35" class="edge">
<title>Node2029&#45;&gt;Node2011</title>
<path fill="none" stroke="#191970" d="M682.1681,-401.4132C695.8211,-403.1719 710.468,-405.0586 724.0345,-406.8061"/>
<polygon fill="#191970" stroke="#191970" points="723.7987,-410.3046 734.1639,-408.1109 724.693,-403.362 723.7987,-410.3046"/>
</g>
<!-- Node2029&#45;&gt;Node2017 -->
<g id="edge34" class="edge">
<title>Node2029&#45;&gt;Node2017</title>
<path fill="none" stroke="#191970" d="M682.1681,-387.5868C695.2973,-385.8956 709.3456,-384.086 722.4683,-382.3956"/>
<polygon fill="#191970" stroke="#191970" points="723.288,-385.819 732.7588,-381.07 722.3936,-378.8764 723.288,-385.819"/>
</g>
<!-- Node2029&#45;&gt;Node2025 -->
<g id="edge32" class="edge">
<title>Node2029&#45;&gt;Node2025</title>
<path fill="none" stroke="#191970" d="M576.2723,-379.3749C575.8444,-379.0853 575.4202,-378.7936 575,-378.5 544.8705,-357.4478 515.8008,-325.775 499.3368,-303.9052"/>
<polygon fill="#191970" stroke="#191970" points="502.1572,-301.8323 493.4737,-295.762 496.4764,-305.9225 502.1572,-301.8323"/>
</g>
<!-- Node2030&#45;&gt;Node2022 -->
<g id="edge39" class="edge">
<title>Node2030&#45;&gt;Node2022</title>
<path fill="none" stroke="#191970" d="M682.1681,-182.4953C690.5159,-181.2502 699.2353,-179.9497 707.852,-178.6644"/>
<polygon fill="#191970" stroke="#191970" points="708.5176,-182.104 717.8918,-177.167 707.4849,-175.1806 708.5176,-182.104"/>
</g>
<!-- Node2030&#45;&gt;Node2025 -->
<g id="edge38" class="edge">
<title>Node2030&#45;&gt;Node2025</title>
<path fill="none" stroke="#191970" d="M613.7865,-205.8046C602.9363,-213.221 587.8848,-221.5858 575,-229.5 559.1435,-239.2396 542.096,-250.4696 527.1774,-260.0331"/>
<polygon fill="#191970" stroke="#191970" points="525.2241,-257.1274 518.6646,-265.4475 528.9809,-263.0339 525.2241,-257.1274"/>
</g>
</g>
</svg>
        <g id="navigator" transform="translate(0 0)" fill="#404254">
                <rect fill="#f2f5e9" fill-opacity="0.5" stroke="#606060" stroke-width=".5" x="0" y="0" width="60" height="60"/>
                <use id="zoomplus" xlink:href="#zoomPlus" x="17" y="9" onmousedown="handleZoom(evt,'in')"/>
                <use id="zoomminus" xlink:href="#zoomMin" x="42" y="9" onmousedown="handleZoom(evt,'out')"/>
                <use id="reset" xlink:href="#resetDef" x="30" y="36" onmousedown="handleReset()"/>
                <g id="arrowUp" xlink:href="#dirArrow" transform="translate(30 24)" onmousedown="handlePan(0,-1)">
                  <use xlink:href="#rim" fill="#404040">
                        <set attributeName="fill" to="#808080" begin="arrowUp.mouseover" end="arrowUp.mouseout"/>
                  </use>
                  <path fill="none" stroke="white" stroke-width="1.5" d="M0,-3.0v7 M-2.5,-0.5L0,-3.0L2.5,-0.5"/>
                </g>
                <g id="arrowRight" xlink:href="#dirArrow" transform="rotate(90) translate(36 -43)" onmousedown="handlePan(1,0)">
                  <use xlink:href="#rim" fill="#404040">
                        <set attributeName="fill" to="#808080" begin="arrowRight.mouseover" end="arrowRight.mouseout"/>
                  </use>
                  <path fill="none" stroke="white" stroke-width="1.5" d="M0,-3.0v7 M-2.5,-0.5L0,-3.0L2.5,-0.5"/>
                </g>
                <g id="arrowDown" xlink:href="#dirArrow" transform="rotate(180) translate(-30 -48)" onmousedown="handlePan(0,1)">
                  <use xlink:href="#rim" fill="#404040">
                        <set attributeName="fill" to="#808080" begin="arrowDown.mouseover" end="arrowDown.mouseout"/>
                  </use>
                  <path fill="none" stroke="white" stroke-width="1.5" d="M0,-3.0v7 M-2.5,-0.5L0,-3.0L2.5,-0.5"/>
                </g>
                <g id="arrowLeft" xlink:href="#dirArrow" transform="rotate(270) translate(-36 17)" onmousedown="handlePan(-1,0)">
                  <use xlink:href="#rim" fill="#404040">
                        <set attributeName="fill" to="#808080" begin="arrowLeft.mouseover" end="arrowLeft.mouseout"/>
                  </use>
                  <path fill="none" stroke="white" stroke-width="1.5" d="M0,-3.0v7 M-2.5,-0.5L0,-3.0L2.5,-0.5"/>
                </g>
        </g>
        <svg viewBox="0 0 15 15" width="100%" height="30px" preserveAspectRatio="xMaxYMin meet">
         <g id="arrow_out" transform="scale(0.3 0.3)">
          <a xlink:href="classSNN_a8dd319bdd9a54e38f9254cbec099c30a_cgraph_org.svg" target="_base">
           <rect id="button" ry="5" rx="5" y="6" x="6" height="38" width="38"
                fill="#f2f5e9" fill-opacity="0.5" stroke="#606060" stroke-width="1.0"/>
           <path id="arrow"
             d="M 11.500037,31.436501 C 11.940474,20.09759 22.043105,11.32322 32.158766,21.979434 L 37.068811,17.246167 C 37.068811,17.246167 37.088388,32 37.088388,32 L 22.160133,31.978069 C 22.160133,31.978069 26.997745,27.140456 26.997745,27.140456 C 18.528582,18.264221 13.291696,25.230495 11.500037,31.436501 z"
             style="fill:#404040;"/>
          </a>
         </g>
        </svg>
</svg>
