<?xml version="1.0" encoding="UTF-8" standalone="no"?>
<!DOCTYPE svg PUBLIC "-//W3C//DTD SVG 1.1//EN"
 "http://www.w3.org/Graphics/SVG/1.1/DTD/svg11.dtd">
<!-- Generated by graphviz version 2.40.1 (20161225.0304)
 -->
<!-- Title: isSimulationWithNMDARise Pages: 1 -->
<!--zoomable 85 -->
<svg id="main" version="1.1" xmlns="http://www.w3.org/2000/svg" xmlns:xlink="http://www.w3.org/1999/xlink" xml:space="preserve" onload="init(evt)">
<style type="text/css"><![CDATA[
.edge:hover path { stroke: red; }
.edge:hover polygon { stroke: red; fill: red; }
]]></style>
<script type="text/javascript"><![CDATA[
var edges = document.getElementsByTagName('g');
if (edges && edges.length) {
  for (var i=0;i<edges.length;i++) {
    if (edges[i].id.substr(0,4)=='edge') {
      edges[i].setAttribute('class','edge');
    }
  }
}
]]></script>
        <defs>
                <circle id="rim" cx="0" cy="0" r="7"/>
                <circle id="rim2" cx="0" cy="0" r="3.5"/>
                <g id="zoomPlus">
                        <use xlink:href="#rim" fill="#404040">
                                <set attributeName="fill" to="#808080" begin="zoomplus.mouseover" end="zoomplus.mouseout"/>
                        </use>
                        <path d="M-4,0h8M0,-4v8" fill="none" stroke="white" stroke-width="1.5" pointer-events="none"/>
                </g>
                <g id="zoomMin">
                        <use xlink:href="#rim" fill="#404040">
                                <set attributeName="fill" to="#808080" begin="zoomminus.mouseover" end="zoomminus.mouseout"/>
                        </use>
                        <path d="M-4,0h8" fill="none" stroke="white" stroke-width="1.5" pointer-events="none"/>
                </g>
                <g id="dirArrow">
                        <path fill="none" stroke="white" stroke-width="1.5" d="M0,-3.0v7 M-2.5,-0.5L0,-3.0L2.5,-0.5"/>
                </g>
               <g id="resetDef">
                       <use xlink:href="#rim2" fill="#404040">
                               <set attributeName="fill" to="#808080" begin="reset.mouseover" end="reset.mouseout"/>
                       </use>
               </g>
        </defs>

<script type="text/javascript">
var viewWidth = 732;
var viewHeight = 85;
var sectionId = 'dynsection-95';
</script>
<script xlink:href="svgpan.js"/>
<svg id="graph" class="graph">
<g id="viewport">
<title>isSimulationWithNMDARise</title>
<polygon fill="#ffffff" stroke="transparent" points="-4,4 -4,-81 728,-81 728,4 -4,4"/>
<!-- Node1571 -->
<g id="node1" class="node">
<title>Node1571</title>
<polygon fill="#bfbfbf" stroke="#000000" points="0,-38.5 0,-57.5 140,-57.5 140,-38.5 0,-38.5"/>
<text text-anchor="middle" x="70" y="-45.5" font-family="Helvetica,sans-Serif" font-size="10.00" fill="#000000">isSimulationWithNMDARise</text>
</g>
<!-- Node1572 -->
<g id="node2" class="node">
<title>Node1572</title>
<g id="a_node2"><a xlink:href="snn__cpu__module_8cpp.html#ac42c21b5ae4b743f8e00b7dfe04dcfe3" target="_top" xlink:title="dvdtLIF">
<polygon fill="#ffffff" stroke="#000000" points="210,-57.5 210,-76.5 260,-76.5 260,-57.5 210,-57.5"/>
<text text-anchor="middle" x="235" y="-64.5" font-family="Helvetica,sans-Serif" font-size="10.00" fill="#000000">dvdtLIF</text>
</a>
</g>
</g>
<!-- Node1571&#45;&gt;Node1572 -->
<g id="edge1" class="edge">
<title>Node1571&#45;&gt;Node1572</title>
<path fill="none" stroke="#191970" d="M150.6438,-57.2863C172.1679,-59.7648 193.8605,-62.2627 209.8573,-64.1048"/>
<polygon fill="#191970" stroke="#191970" points="150.7882,-53.7798 140.4535,-56.1128 149.9874,-60.7339 150.7882,-53.7798"/>
</g>
<!-- Node1573 -->
<g id="node3" class="node">
<title>Node1573</title>
<g id="a_node3"><a xlink:href="classSNN.html#ab251be3aba6d73b79fdb0d44019b1790" target="_top" xlink:title="getConductanceNMDA">
<polygon fill="#ffffff" stroke="#000000" points="176,-19.5 176,-38.5 294,-38.5 294,-19.5 176,-19.5"/>
<text text-anchor="middle" x="235" y="-26.5" font-family="Helvetica,sans-Serif" font-size="10.00" fill="#000000">getConductanceNMDA</text>
</a>
</g>
</g>
<!-- Node1571&#45;&gt;Node1573 -->
<g id="edge2" class="edge">
<title>Node1571&#45;&gt;Node1573</title>
<path fill="none" stroke="#191970" d="M150.4884,-38.7316C159.067,-37.7438 167.6747,-36.7526 175.94,-35.8008"/>
<polygon fill="#191970" stroke="#191970" points="149.9874,-35.2661 140.4535,-39.8872 150.7882,-42.2202 149.9874,-35.2661"/>
</g>
<!-- Node1574 -->
<g id="node4" class="node">
<title>Node1574</title>
<g id="a_node4"><a xlink:href="classCARLsim_1_1Impl.html#a450adf3cd56dd307b86c7d33df5afffd" target="_top" xlink:title="CARLsim::Impl::getConductanceNMDA">
<polygon fill="#ffffff" stroke="#000000" points="330,-38.5 330,-57.5 521,-57.5 521,-38.5 330,-38.5"/>
<text text-anchor="middle" x="425.5" y="-45.5" font-family="Helvetica,sans-Serif" font-size="10.00" fill="#000000">CARLsim::Impl::getConductanceNMDA</text>
</a>
</g>
</g>
<!-- Node1573&#45;&gt;Node1574 -->
<g id="edge3" class="edge">
<title>Node1573&#45;&gt;Node1574</title>
<path fill="none" stroke="#191970" d="M304.2633,-35.9082C312.6212,-36.7417 321.2681,-37.6042 329.9186,-38.4669"/>
<polygon fill="#191970" stroke="#191970" points="304.5292,-32.4174 294.2311,-34.9076 303.8344,-39.3828 304.5292,-32.4174"/>
</g>
<!-- Node1576 -->
<g id="node6" class="node">
<title>Node1576</title>
<g id="a_node6"><a xlink:href="classSNN.html#a0d88c00011be6536c68f8e6bc70ca1a3" target="_top" xlink:title="temporary getter to return pointer to current[] ">
<polygon fill="#ffffff" stroke="#000000" points="394.5,-.5 394.5,-19.5 456.5,-19.5 456.5,-.5 394.5,-.5"/>
<text text-anchor="middle" x="425.5" y="-7.5" font-family="Helvetica,sans-Serif" font-size="10.00" fill="#000000">getCurrent</text>
</a>
</g>
</g>
<!-- Node1573&#45;&gt;Node1576 -->
<g id="edge5" class="edge">
<title>Node1573&#45;&gt;Node1576</title>
<path fill="none" stroke="#191970" d="M304.5045,-22.0678C335.2972,-18.9966 369.9711,-15.5383 394.2811,-13.1137"/>
<polygon fill="#191970" stroke="#191970" points="303.8344,-18.6172 294.2311,-23.0924 304.5292,-25.5826 303.8344,-18.6172"/>
</g>
<!-- Node1575 -->
<g id="node5" class="node">
<title>Node1575</title>
<g id="a_node5"><a xlink:href="classCARLsim.html#ab251be3aba6d73b79fdb0d44019b1790" target="_top" xlink:title="gets NMDA vector of a group ">
<polygon fill="#ffffff" stroke="#000000" points="557,-38.5 557,-57.5 724,-57.5 724,-38.5 557,-38.5"/>
<text text-anchor="middle" x="640.5" y="-45.5" font-family="Helvetica,sans-Serif" font-size="10.00" fill="#000000">CARLsim::getConductanceNMDA</text>
</a>
</g>
</g>
<!-- Node1574&#45;&gt;Node1575 -->
<g id="edge4" class="edge">
<title>Node1574&#45;&gt;Node1575</title>
<path fill="none" stroke="#191970" d="M531.1184,-48C539.709,-48 548.3157,-48 556.7188,-48"/>
<polygon fill="#191970" stroke="#191970" points="531.0542,-44.5001 521.0542,-48 531.0542,-51.5001 531.0542,-44.5001"/>
</g>
</g>
</svg>
        <g id="navigator" transform="translate(0 0)" fill="#404254">
                <rect fill="#f2f5e9" fill-opacity="0.5" stroke="#606060" stroke-width=".5" x="0" y="0" width="60" height="60"/>
                <use id="zoomplus" xlink:href="#zoomPlus" x="17" y="9" onmousedown="handleZoom(evt,'in')"/>
                <use id="zoomminus" xlink:href="#zoomMin" x="42" y="9" onmousedown="handleZoom(evt,'out')"/>
                <use id="reset" xlink:href="#resetDef" x="30" y="36" onmousedown="handleReset()"/>
                <g id="arrowUp" xlink:href="#dirArrow" transform="translate(30 24)" onmousedown="handlePan(0,-1)">
                  <use xlink:href="#rim" fill="#404040">
                        <set attributeName="fill" to="#808080" begin="arrowUp.mouseover" end="arrowUp.mouseout"/>
                  </use>
                  <path fill="none" stroke="white" stroke-width="1.5" d="M0,-3.0v7 M-2.5,-0.5L0,-3.0L2.5,-0.5"/>
                </g>
                <g id="arrowRight" xlink:href="#dirArrow" transform="rotate(90) translate(36 -43)" onmousedown="handlePan(1,0)">
                  <use xlink:href="#rim" fill="#404040">
                        <set attributeName="fill" to="#808080" begin="arrowRight.mouseover" end="arrowRight.mouseout"/>
                  </use>
                  <path fill="none" stroke="white" stroke-width="1.5" d="M0,-3.0v7 M-2.5,-0.5L0,-3.0L2.5,-0.5"/>
                </g>
                <g id="arrowDown" xlink:href="#dirArrow" transform="rotate(180) translate(-30 -48)" onmousedown="handlePan(0,1)">
                  <use xlink:href="#rim" fill="#404040">
                        <set attributeName="fill" to="#808080" begin="arrowDown.mouseover" end="arrowDown.mouseout"/>
                  </use>
                  <path fill="none" stroke="white" stroke-width="1.5" d="M0,-3.0v7 M-2.5,-0.5L0,-3.0L2.5,-0.5"/>
                </g>
                <g id="arrowLeft" xlink:href="#dirArrow" transform="rotate(270) translate(-36 17)" onmousedown="handlePan(-1,0)">
                  <use xlink:href="#rim" fill="#404040">
                        <set attributeName="fill" to="#808080" begin="arrowLeft.mouseover" end="arrowLeft.mouseout"/>
                  </use>
                  <path fill="none" stroke="white" stroke-width="1.5" d="M0,-3.0v7 M-2.5,-0.5L0,-3.0L2.5,-0.5"/>
                </g>
        </g>
        <svg viewBox="0 0 15 15" width="100%" height="30px" preserveAspectRatio="xMaxYMin meet">
         <g id="arrow_out" transform="scale(0.3 0.3)">
          <a xlink:href="classSNN_a201166567b58f8243db9455ad31b3763_icgraph_org.svg" target="_base">
           <rect id="button" ry="5" rx="5" y="6" x="6" height="38" width="38"
                fill="#f2f5e9" fill-opacity="0.5" stroke="#606060" stroke-width="1.0"/>
           <path id="arrow"
             d="M 11.500037,31.436501 C 11.940474,20.09759 22.043105,11.32322 32.158766,21.979434 L 37.068811,17.246167 C 37.068811,17.246167 37.088388,32 37.088388,32 L 22.160133,31.978069 C 22.160133,31.978069 26.997745,27.140456 26.997745,27.140456 C 18.528582,18.264221 13.291696,25.230495 11.500037,31.436501 z"
             style="fill:#404040;"/>
          </a>
         </g>
        </svg>
</svg>
