<?xml version="1.0" encoding="UTF-8" standalone="no"?>
<!DOCTYPE svg PUBLIC "-//W3C//DTD SVG 1.1//EN"
 "http://www.w3.org/Graphics/SVG/1.1/DTD/svg11.dtd">
<!-- Generated by graphviz version 2.40.1 (20161225.0304)
 -->
<!-- Title: getFanIn Pages: 1 -->
<svg width="203pt" height="78pt"
 viewBox="0.00 0.00 203.00 77.50" xmlns="http://www.w3.org/2000/svg" xmlns:xlink="http://www.w3.org/1999/xlink">
<g id="graph0" class="graph" transform="scale(1 1) rotate(0) translate(4 73.5)">
<title>getFanIn</title>
<polygon fill="#ffffff" stroke="transparent" points="-4,4 -4,-73.5 199,-73.5 199,4 -4,4"/>
<!-- Node51 -->
<g id="node1" class="node">
<title>Node51</title>
<polygon fill="#bfbfbf" stroke="#000000" points="0,-22.5 0,-41.5 55,-41.5 55,-22.5 0,-22.5"/>
<text text-anchor="middle" x="27.5" y="-29.5" font-family="Helvetica,sans-Serif" font-size="10.00" fill="#000000">getFanIn</text>
</g>
<!-- Node52 -->
<g id="node2" class="node">
<title>Node52</title>
<g id="a_node2"><a xlink:href="classConnectionMonitor.html#a46e73089106a296d8a0b2c4a5066f079" target="_top" xlink:title="Returns the number of incoming synapses for a specific post&#45;synaptic neuron. ">
<polygon fill="#ffffff" stroke="#000000" points="91,-39 91,-69 195,-69 195,-39 91,-39"/>
<text text-anchor="start" x="99" y="-57" font-family="Helvetica,sans-Serif" font-size="10.00" fill="#000000">ConnectionMonitor::</text>
<text text-anchor="middle" x="143" y="-46" font-family="Helvetica,sans-Serif" font-size="10.00" fill="#000000">getFanIn</text>
</a>
</g>
</g>
<!-- Node51&#45;&gt;Node52 -->
<g id="edge1" class="edge">
<title>Node51&#45;&gt;Node52</title>
<path fill="none" stroke="#191970" d="M65.1202,-39.1658C73.2847,-40.7209 82.0626,-42.3929 90.6781,-44.0339"/>
<polygon fill="#191970" stroke="#191970" points="65.6434,-35.7026 55.1651,-37.2695 64.3336,-42.5789 65.6434,-35.7026"/>
</g>
<!-- Node53 -->
<g id="node3" class="node">
<title>Node53</title>
<g id="a_node3"><a xlink:href="classConnectionMonitorCore.html#a8a5954a3717d51fa8730788e182cc345" target="_top" xlink:title="returns pointer to connection file ">
<polygon fill="#ffffff" stroke="#000000" points="97.5,-.5 97.5,-19.5 188.5,-19.5 188.5,-.5 97.5,-.5"/>
<text text-anchor="middle" x="143" y="-7.5" font-family="Helvetica,sans-Serif" font-size="10.00" fill="#000000">getConnectFileId</text>
</a>
</g>
</g>
<!-- Node51&#45;&gt;Node53 -->
<g id="edge2" class="edge">
<title>Node51&#45;&gt;Node53</title>
<path fill="none" stroke="#191970" d="M65.0114,-24.855C75.2373,-22.9072 86.4324,-20.7748 97.0688,-18.7488"/>
<polygon fill="#191970" stroke="#191970" points="64.3336,-21.4211 55.1651,-26.7305 65.6434,-28.2974 64.3336,-21.4211"/>
</g>
</g>
</svg>
