<?xml version="1.0" encoding="UTF-8" standalone="no"?>
<!DOCTYPE svg PUBLIC "-//W3C//DTD SVG 1.1//EN"
 "http://www.w3.org/Graphics/SVG/1.1/DTD/svg11.dtd">
<!-- Generated by graphviz version 2.40.1 (20161225.0304)
 -->
<!-- Title: nextSpikeTime Pages: 1 -->
<svg width="1344pt" height="208pt"
 viewBox="0.00 0.00 1344.00 207.50" xmlns="http://www.w3.org/2000/svg" xmlns:xlink="http://www.w3.org/1999/xlink">
<g id="graph0" class="graph" transform="scale(1 1) rotate(0) translate(4 203.5)">
<title>nextSpikeTime</title>
<polygon fill="#ffffff" stroke="transparent" points="-4,4 -4,-203.5 1340,-203.5 1340,4 -4,4"/>
<!-- Node4 -->
<g id="node1" class="node">
<title>Node4</title>
<polygon fill="#bfbfbf" stroke="#000000" points="0,-79 0,-98 82,-98 82,-79 0,-79"/>
<text text-anchor="middle" x="41" y="-86" font-family="Helvetica,sans-Serif" font-size="10.00" fill="#000000">nextSpikeTime</text>
</g>
<!-- Node5 -->
<g id="node2" class="node">
<title>Node5</title>
<g id="a_node2"><a xlink:href="classSpikeGenerator.html#ac94996e4d00d0db0a3f5866e0fc042f8" target="_top" xlink:title="~SpikeGenerator">
<polygon fill="#ffffff" stroke="#000000" points="146.5,-148 146.5,-167 236.5,-167 236.5,-148 146.5,-148"/>
<text text-anchor="middle" x="191.5" y="-155" font-family="Helvetica,sans-Serif" font-size="10.00" fill="#000000">~SpikeGenerator</text>
</a>
</g>
</g>
<!-- Node4&#45;&gt;Node5 -->
<g id="edge1" class="edge">
<title>Node4&#45;&gt;Node5</title>
<path fill="none" stroke="#191970" d="M61.1141,-104.1619C76.0765,-115.1459 97.3885,-129.4325 118,-138.5 126.9274,-142.4274 136.8351,-145.6718 146.4104,-148.3"/>
<polygon fill="#191970" stroke="#191970" points="63.1905,-101.3442 53.0915,-98.1408 58.9886,-106.9428 63.1905,-101.3442"/>
</g>
<!-- Node6 -->
<g id="node3" class="node">
<title>Node6</title>
<g id="a_node3"><a xlink:href="classSpikeGeneratorCore.html#ad75a73e6aa374ced00cb16b1a5a2eb25" target="_top" xlink:title="controls spike generation using a callback mechanism ">
<polygon fill="#ffffff" stroke="#000000" points="139,-98.5 139,-128.5 244,-128.5 244,-98.5 139,-98.5"/>
<text text-anchor="start" x="147" y="-116.5" font-family="Helvetica,sans-Serif" font-size="10.00" fill="#000000">SpikeGeneratorCore</text>
<text text-anchor="middle" x="191.5" y="-105.5" font-family="Helvetica,sans-Serif" font-size="10.00" fill="#000000">::nextSpikeTime</text>
</a>
</g>
</g>
<!-- Node4&#45;&gt;Node6 -->
<g id="edge2" class="edge">
<title>Node4&#45;&gt;Node6</title>
<path fill="none" stroke="#191970" d="M92.2601,-97.015C107.2776,-99.5096 123.7187,-102.2407 138.8228,-104.7496"/>
<polygon fill="#191970" stroke="#191970" points="92.5632,-93.5174 82.1248,-95.3314 91.416,-100.4228 92.5632,-93.5174"/>
</g>
<!-- Node19 -->
<g id="node16" class="node">
<title>Node19</title>
<g id="a_node16"><a xlink:href="classPeriodicSpikeGenerator.html#a6bcff4e03bc0d9e250ad6205b24de217" target="_top" xlink:title="PeriodicSpikeGenerator destructor. ">
<polygon fill="#ffffff" stroke="#000000" points="126,-49.5 126,-79.5 257,-79.5 257,-49.5 126,-49.5"/>
<text text-anchor="start" x="134" y="-67.5" font-family="Helvetica,sans-Serif" font-size="10.00" fill="#000000">PeriodicSpikeGenerator</text>
<text text-anchor="middle" x="191.5" y="-56.5" font-family="Helvetica,sans-Serif" font-size="10.00" fill="#000000">::~PeriodicSpikeGenerator</text>
</a>
</g>
</g>
<!-- Node4&#45;&gt;Node19 -->
<g id="edge16" class="edge">
<title>Node4&#45;&gt;Node19</title>
<path fill="none" stroke="#191970" d="M92.2192,-80.3322C103.0185,-78.61 114.5556,-76.7702 125.8032,-74.9766"/>
<polygon fill="#191970" stroke="#191970" points="91.4488,-76.9107 82.1248,-81.9419 92.5512,-83.8234 91.4488,-76.9107"/>
</g>
<!-- Node20 -->
<g id="node17" class="node">
<title>Node20</title>
<g id="a_node17"><a xlink:href="classSpikeGeneratorFromVector.html#a1ef23ee53826efe88ea3c2b2c4268fdf" target="_top" xlink:title="PeriodicSpikeGenerator destructor. ">
<polygon fill="#ffffff" stroke="#000000" points="118,-.5 118,-30.5 265,-30.5 265,-.5 118,-.5"/>
<text text-anchor="start" x="126" y="-18.5" font-family="Helvetica,sans-Serif" font-size="10.00" fill="#000000">SpikeGeneratorFromVector</text>
<text text-anchor="middle" x="191.5" y="-7.5" font-family="Helvetica,sans-Serif" font-size="10.00" fill="#000000">::~SpikeGeneratorFromVector</text>
</a>
</g>
</g>
<!-- Node4&#45;&gt;Node20 -->
<g id="edge17" class="edge">
<title>Node4&#45;&gt;Node20</title>
<path fill="none" stroke="#191970" d="M62.2977,-72.8841C77.307,-62.4045 98.1847,-48.8571 118,-39.5 124.9188,-36.2329 132.4003,-33.2308 139.8511,-30.5378"/>
<polygon fill="#191970" stroke="#191970" points="59.8929,-70.2995 53.7726,-78.9478 63.9502,-76.0037 59.8929,-70.2995"/>
</g>
<!-- Node7 -->
<g id="node4" class="node">
<title>Node7</title>
<g id="a_node4"><a xlink:href="classSNN.html#a14317186d53aeff564b126a41a333d3c" target="_top" xlink:title="access group status (currently the concentration of neuromodulator) ">
<polygon fill="#ffffff" stroke="#000000" points="301,-104 301,-123 433,-123 433,-104 301,-104"/>
<text text-anchor="middle" x="367" y="-111" font-family="Helvetica,sans-Serif" font-size="10.00" fill="#000000">SNN::updateGroupMonitor</text>
</a>
</g>
</g>
<!-- Node6&#45;&gt;Node7 -->
<g id="edge3" class="edge">
<title>Node6&#45;&gt;Node7</title>
<path fill="none" stroke="#191970" d="M254.3696,-113.5C269.4031,-113.5 285.4986,-113.5 300.6822,-113.5"/>
<polygon fill="#191970" stroke="#191970" points="254.1558,-110.0001 244.1558,-113.5 254.1558,-117.0001 254.1558,-110.0001"/>
</g>
<!-- Node8 -->
<g id="node5" class="node">
<title>Node8</title>
<g id="a_node5"><a xlink:href="classGroupMonitorCore.html#ab91616c118b701c2afd9136393d1f19b" target="_top" xlink:title="starts recording group data ">
<polygon fill="#ffffff" stroke="#000000" points="469,-142 469,-161 635,-161 635,-142 469,-142"/>
<text text-anchor="middle" x="552" y="-149" font-family="Helvetica,sans-Serif" font-size="10.00" fill="#000000">GroupMonitorCore::startRecording</text>
</a>
</g>
</g>
<!-- Node7&#45;&gt;Node8 -->
<g id="edge4" class="edge">
<title>Node7&#45;&gt;Node8</title>
<path fill="none" stroke="#191970" d="M423.52,-125.1095C449.8312,-130.514 480.7435,-136.8635 505.6524,-141.9799"/>
<polygon fill="#191970" stroke="#191970" points="424.183,-121.6727 413.6833,-123.089 422.7746,-128.5296 424.183,-121.6727"/>
</g>
<!-- Node12 -->
<g id="node9" class="node">
<title>Node12</title>
<g id="a_node9"><a xlink:href="classGroupMonitorCore.html#a25e0e98dd4519eaaa6b258f0dcb91ac7" target="_top" xlink:title="stops recording group data ">
<polygon fill="#ffffff" stroke="#000000" points="469.5,-104 469.5,-123 634.5,-123 634.5,-104 469.5,-104"/>
<text text-anchor="middle" x="552" y="-111" font-family="Helvetica,sans-Serif" font-size="10.00" fill="#000000">GroupMonitorCore::stopRecording</text>
</a>
</g>
</g>
<!-- Node7&#45;&gt;Node12 -->
<g id="edge8" class="edge">
<title>Node7&#45;&gt;Node12</title>
<path fill="none" stroke="#191970" d="M443.0278,-113.5C451.6585,-113.5 460.4869,-113.5 469.1992,-113.5"/>
<polygon fill="#191970" stroke="#191970" points="443.0058,-110.0001 433.0057,-113.5 443.0057,-117.0001 443.0058,-110.0001"/>
</g>
<!-- Node14 -->
<g id="node11" class="node">
<title>Node14</title>
<g id="a_node11"><a xlink:href="classSNN.html#a3df37c7539f784fe7a939c5da922f41b" target="_top" xlink:title="run the simulation for n sec ">
<polygon fill="#ffffff" stroke="#000000" points="504.5,-66 504.5,-85 599.5,-85 599.5,-66 504.5,-66"/>
<text text-anchor="middle" x="552" y="-73" font-family="Helvetica,sans-Serif" font-size="10.00" fill="#000000">SNN::runNetwork</text>
</a>
</g>
</g>
<!-- Node7&#45;&gt;Node14 -->
<g id="edge11" class="edge">
<title>Node7&#45;&gt;Node14</title>
<path fill="none" stroke="#191970" d="M423.52,-101.8905C449.8312,-96.486 480.7435,-90.1365 505.6524,-85.0201"/>
<polygon fill="#191970" stroke="#191970" points="422.7746,-98.4704 413.6833,-103.911 424.183,-105.3273 422.7746,-98.4704"/>
</g>
<!-- Node9 -->
<g id="node6" class="node">
<title>Node9</title>
<g id="a_node6"><a xlink:href="classGroupMonitor.html#ab91616c118b701c2afd9136393d1f19b" target="_top" xlink:title="Starts a new recording period. ">
<polygon fill="#ffffff" stroke="#000000" points="689,-180 689,-199 834,-199 834,-180 689,-180"/>
<text text-anchor="middle" x="761.5" y="-187" font-family="Helvetica,sans-Serif" font-size="10.00" fill="#000000">GroupMonitor::startRecording</text>
</a>
</g>
</g>
<!-- Node8&#45;&gt;Node9 -->
<g id="edge5" class="edge">
<title>Node8&#45;&gt;Node9</title>
<path fill="none" stroke="#191970" d="M614.5575,-162.847C644.616,-168.2991 680.2397,-174.7607 708.8831,-179.9561"/>
<polygon fill="#191970" stroke="#191970" points="615.0594,-159.3809 604.5953,-161.04 613.8101,-166.2686 615.0594,-159.3809"/>
</g>
<!-- Node10 -->
<g id="node7" class="node">
<title>Node10</title>
<g id="a_node7"><a xlink:href="classGroupMonitorCore.html#a7ac2c997b5281ea2f2bc00cc9706d37c" target="_top" xlink:title="sets status of PersistentData mode ">
<polygon fill="#ffffff" stroke="#000000" points="671,-142 671,-161 852,-161 852,-142 671,-142"/>
<text text-anchor="middle" x="761.5" y="-149" font-family="Helvetica,sans-Serif" font-size="10.00" fill="#000000">GroupMonitorCore::setPersistentData</text>
</a>
</g>
</g>
<!-- Node8&#45;&gt;Node10 -->
<g id="edge6" class="edge">
<title>Node8&#45;&gt;Node10</title>
<path fill="none" stroke="#191970" d="M645.1055,-151.5C653.6811,-151.5 662.3622,-151.5 670.9149,-151.5"/>
<polygon fill="#191970" stroke="#191970" points="645.1009,-148.0001 635.1008,-151.5 645.1008,-155.0001 645.1009,-148.0001"/>
</g>
<!-- Node11 -->
<g id="node8" class="node">
<title>Node11</title>
<g id="a_node8"><a xlink:href="classGroupMonitor.html#a7ac2c997b5281ea2f2bc00cc9706d37c" target="_top" xlink:title="Sets PersistentMode either on (true) or off (false) ">
<polygon fill="#ffffff" stroke="#000000" points="888,-142 888,-161 1048,-161 1048,-142 888,-142"/>
<text text-anchor="middle" x="968" y="-149" font-family="Helvetica,sans-Serif" font-size="10.00" fill="#000000">GroupMonitor::setPersistentData</text>
</a>
</g>
</g>
<!-- Node10&#45;&gt;Node11 -->
<g id="edge7" class="edge">
<title>Node10&#45;&gt;Node11</title>
<path fill="none" stroke="#191970" d="M862.1716,-151.5C870.795,-151.5 879.4425,-151.5 887.8731,-151.5"/>
<polygon fill="#191970" stroke="#191970" points="862.0739,-148.0001 852.0739,-151.5 862.0739,-155.0001 862.0739,-148.0001"/>
</g>
<!-- Node12&#45;&gt;Node10 -->
<g id="edge10" class="edge">
<title>Node12&#45;&gt;Node10</title>
<path fill="none" stroke="#191970" d="M614.5575,-124.847C644.616,-130.2991 680.2397,-136.7607 708.8831,-141.9561"/>
<polygon fill="#191970" stroke="#191970" points="615.0594,-121.3809 604.5953,-123.04 613.8101,-128.2686 615.0594,-121.3809"/>
</g>
<!-- Node13 -->
<g id="node10" class="node">
<title>Node13</title>
<g id="a_node10"><a xlink:href="classGroupMonitor.html#a25e0e98dd4519eaaa6b258f0dcb91ac7" target="_top" xlink:title="Ends a recording period. ">
<polygon fill="#ffffff" stroke="#000000" points="689.5,-104 689.5,-123 833.5,-123 833.5,-104 689.5,-104"/>
<text text-anchor="middle" x="761.5" y="-111" font-family="Helvetica,sans-Serif" font-size="10.00" fill="#000000">GroupMonitor::stopRecording</text>
</a>
</g>
</g>
<!-- Node12&#45;&gt;Node13 -->
<g id="edge9" class="edge">
<title>Node12&#45;&gt;Node13</title>
<path fill="none" stroke="#191970" d="M645.046,-113.5C659.9414,-113.5 675.1565,-113.5 689.4661,-113.5"/>
<polygon fill="#191970" stroke="#191970" points="644.8,-110.0001 634.7999,-113.5 644.7999,-117.0001 644.8,-110.0001"/>
</g>
<!-- Node15 -->
<g id="node12" class="node">
<title>Node15</title>
<g id="a_node12"><a xlink:href="classCARLsim_1_1Impl.html#a749f370debe5eec8661cf9ca1b1bb4c0" target="_top" xlink:title="CARLsim::Impl::runNetwork">
<polygon fill="#ffffff" stroke="#000000" points="691.5,-66 691.5,-85 831.5,-85 831.5,-66 691.5,-66"/>
<text text-anchor="middle" x="761.5" y="-73" font-family="Helvetica,sans-Serif" font-size="10.00" fill="#000000">CARLsim::Impl::runNetwork</text>
</a>
</g>
</g>
<!-- Node14&#45;&gt;Node15 -->
<g id="edge12" class="edge">
<title>Node14&#45;&gt;Node15</title>
<path fill="none" stroke="#191970" d="M609.7115,-75.5C635.0099,-75.5 664.9282,-75.5 691.487,-75.5"/>
<polygon fill="#191970" stroke="#191970" points="609.5388,-72.0001 599.5388,-75.5 609.5388,-79.0001 609.5388,-72.0001"/>
</g>
<!-- Node16 -->
<g id="node13" class="node">
<title>Node16</title>
<g id="a_node13"><a xlink:href="classCARLsim.html#aafb2d44405c96aafe089f96ff867018d" target="_top" xlink:title="run the simulation for time=(nSec*seconds + nMsec*milliseconds) ">
<polygon fill="#ffffff" stroke="#000000" points="910,-66 910,-85 1026,-85 1026,-66 910,-66"/>
<text text-anchor="middle" x="968" y="-73" font-family="Helvetica,sans-Serif" font-size="10.00" fill="#000000">CARLsim::runNetwork</text>
</a>
</g>
</g>
<!-- Node15&#45;&gt;Node16 -->
<g id="edge13" class="edge">
<title>Node15&#45;&gt;Node16</title>
<path fill="none" stroke="#191970" d="M841.9498,-75.5C864.5298,-75.5 888.641,-75.5 909.6658,-75.5"/>
<polygon fill="#191970" stroke="#191970" points="841.6997,-72.0001 831.6996,-75.5 841.6996,-79.0001 841.6997,-72.0001"/>
</g>
<!-- Node17 -->
<g id="node14" class="node">
<title>Node17</title>
<g id="a_node14"><a xlink:href="classSimpleWeightTuner_1_1Impl.html#a312d84bfa66a5036bb52a4c39db6fa6c" target="_top" xlink:title="SimpleWeightTuner::\lImpl::iterate">
<polygon fill="#ffffff" stroke="#000000" points="1084,-60.5 1084,-90.5 1192,-90.5 1192,-60.5 1084,-60.5"/>
<text text-anchor="start" x="1092" y="-78.5" font-family="Helvetica,sans-Serif" font-size="10.00" fill="#000000">SimpleWeightTuner::</text>
<text text-anchor="middle" x="1138" y="-67.5" font-family="Helvetica,sans-Serif" font-size="10.00" fill="#000000">Impl::iterate</text>
</a>
</g>
</g>
<!-- Node16&#45;&gt;Node17 -->
<g id="edge14" class="edge">
<title>Node16&#45;&gt;Node17</title>
<path fill="none" stroke="#191970" d="M1036.3047,-75.5C1052.1556,-75.5 1068.8128,-75.5 1083.9527,-75.5"/>
<polygon fill="#191970" stroke="#191970" points="1036.0289,-72.0001 1026.0289,-75.5 1036.0288,-79.0001 1036.0289,-72.0001"/>
</g>
<!-- Node18 -->
<g id="node15" class="node">
<title>Node18</title>
<g id="a_node15"><a xlink:href="classSimpleWeightTuner.html#a0df985e3ff7a27edc1e2e3fcc8261843" target="_top" xlink:title="Performs an iteration step of the tuning algorithm. ">
<polygon fill="#ffffff" stroke="#000000" points="1228,-60.5 1228,-90.5 1336,-90.5 1336,-60.5 1228,-60.5"/>
<text text-anchor="start" x="1236" y="-78.5" font-family="Helvetica,sans-Serif" font-size="10.00" fill="#000000">SimpleWeightTuner::</text>
<text text-anchor="middle" x="1282" y="-67.5" font-family="Helvetica,sans-Serif" font-size="10.00" fill="#000000">iterate</text>
</a>
</g>
</g>
<!-- Node17&#45;&gt;Node18 -->
<g id="edge15" class="edge">
<title>Node17&#45;&gt;Node18</title>
<path fill="none" stroke="#191970" d="M1202.2702,-75.5C1210.7504,-75.5 1219.3754,-75.5 1227.6672,-75.5"/>
<polygon fill="#191970" stroke="#191970" points="1202.03,-72.0001 1192.03,-75.5 1202.0299,-79.0001 1202.03,-72.0001"/>
</g>
</g>
</svg>
