<?xml version="1.0" encoding="UTF-8" standalone="no"?>
<!DOCTYPE svg PUBLIC "-//W3C//DTD SVG 1.1//EN"
 "http://www.w3.org/Graphics/SVG/1.1/DTD/svg11.dtd">
<!-- Generated by graphviz version 2.40.1 (20161225.0304)
 -->
<!-- Title: print Pages: 1 -->
<svg width="948pt" height="341pt"
 viewBox="0.00 0.00 948.00 341.11" xmlns="http://www.w3.org/2000/svg" xmlns:xlink="http://www.w3.org/1999/xlink">
<g id="graph0" class="graph" transform="scale(1 1) rotate(0) translate(4 337.1073)">
<title>print</title>
<polygon fill="#ffffff" stroke="transparent" points="-4,4 -4,-337.1073 944,-337.1073 944,4 -4,4"/>
<!-- Node1056 -->
<g id="node1" class="node">
<title>Node1056</title>
<polygon fill="#bfbfbf" stroke="#000000" points="0,-152.5 0,-171.5 35,-171.5 35,-152.5 0,-152.5"/>
<text text-anchor="middle" x="17.5" y="-159.5" font-family="Helvetica,sans-Serif" font-size="10.00" fill="#000000">print</text>
</g>
<!-- Node1057 -->
<g id="node2" class="node">
<title>Node1057</title>
<g id="a_node2"><a xlink:href="classSpikeMonitorCore.html#a3a3ffdb35b09328d22e5d72503ed1f55" target="_top" xlink:title="returns recording status ">
<polygon fill="#ffffff" stroke="#000000" points="687,-228.5 687,-247.5 755,-247.5 755,-228.5 687,-228.5"/>
<text text-anchor="middle" x="721" y="-235.5" font-family="Helvetica,sans-Serif" font-size="10.00" fill="#000000">isRecording</text>
</a>
</g>
</g>
<!-- Node1056&#45;&gt;Node1057 -->
<g id="edge1" class="edge">
<title>Node1056&#45;&gt;Node1057</title>
<path fill="none" stroke="#191970" d="M24.9353,-171.5782C33.698,-186.6085 49.7927,-214.1368 71,-231 150.0377,-293.8477 181.5208,-314 282.5,-314 282.5,-314 282.5,-314 443,-314 536.2783,-314 565.4006,-323.0619 651,-286 668.4607,-278.4401 685.1036,-265.231 697.7774,-254.3911"/>
<polygon fill="#191970" stroke="#191970" points="700.2394,-256.8888 705.5014,-247.693 695.6533,-251.6003 700.2394,-256.8888"/>
</g>
<!-- Node1060 -->
<g id="node5" class="node">
<title>Node1060</title>
<g id="a_node5"><a xlink:href="classSNN.html#a5fd2b156623d78138bcb44167eabab78" target="_top" xlink:title="SNN::getSimTime">
<polygon fill="#ffffff" stroke="#000000" points="77.5,-38.5 77.5,-57.5 174.5,-57.5 174.5,-38.5 77.5,-38.5"/>
<text text-anchor="middle" x="126" y="-45.5" font-family="Helvetica,sans-Serif" font-size="10.00" fill="#000000">SNN::getSimTime</text>
</a>
</g>
</g>
<!-- Node1056&#45;&gt;Node1060 -->
<g id="edge6" class="edge">
<title>Node1056&#45;&gt;Node1060</title>
<path fill="none" stroke="#191970" d="M20.3374,-152.4163C26.4512,-133.3886 42.6568,-90.6446 71,-67 73.0363,-65.3013 75.2333,-63.7511 77.5366,-62.337"/>
<polygon fill="#191970" stroke="#191970" points="79.5576,-65.2322 86.8326,-57.53 76.3422,-59.0144 79.5576,-65.2322"/>
</g>
<!-- Node1061 -->
<g id="node6" class="node">
<title>Node1061</title>
<g id="a_node6"><a xlink:href="classSNN.html#ab0367f8ebd4019bf7d34ebddb1563fe7" target="_top" xlink:title="SNN::getGroupName">
<polygon fill="#ffffff" stroke="#000000" points="71,-.5 71,-19.5 181,-19.5 181,-.5 71,-.5"/>
<text text-anchor="middle" x="126" y="-7.5" font-family="Helvetica,sans-Serif" font-size="10.00" fill="#000000">SNN::getGroupName</text>
</a>
</g>
</g>
<!-- Node1056&#45;&gt;Node1061 -->
<g id="edge7" class="edge">
<title>Node1056&#45;&gt;Node1061</title>
<path fill="none" stroke="#191970" d="M18.6227,-152.4548C21.9649,-128.2984 34.035,-64.1675 71,-29 72.6651,-27.4159 74.4686,-25.9632 76.3728,-24.6312"/>
<polygon fill="#191970" stroke="#191970" points="78.3228,-27.5475 85.2491,-19.5302 74.8349,-21.4783 78.3228,-27.5475"/>
</g>
<!-- Node1062 -->
<g id="node7" class="node">
<title>Node1062</title>
<g id="a_node7"><a xlink:href="classSpikeMonitorCore.html#af6c333e6cefff92d0e354eca70625cdc" target="_top" xlink:title="returns the total number of recorded spikes in the group ">
<polygon fill="#ffffff" stroke="#000000" points="394,-152.5 394,-171.5 492,-171.5 492,-152.5 394,-152.5"/>
<text text-anchor="middle" x="443" y="-159.5" font-family="Helvetica,sans-Serif" font-size="10.00" fill="#000000">getPopNumSpikes</text>
</a>
</g>
</g>
<!-- Node1056&#45;&gt;Node1062 -->
<g id="edge8" class="edge">
<title>Node1056&#45;&gt;Node1062</title>
<path fill="none" stroke="#191970" d="M35.2415,-162C94.2576,-162 285.7701,-162 383.882,-162"/>
<polygon fill="#191970" stroke="#191970" points="383.9375,-165.5001 393.9374,-162 383.9374,-158.5001 383.9375,-165.5001"/>
</g>
<!-- Node1064 -->
<g id="node9" class="node">
<title>Node1064</title>
<g id="a_node9"><a xlink:href="classSpikeMonitorCore.html#a9cf20c30ff0efdbc5e3c5194648a7fb3" target="_top" xlink:title="returns the total recorded time in ms ">
<polygon fill="#ffffff" stroke="#000000" points="384,-190.5 384,-209.5 502,-209.5 502,-190.5 384,-190.5"/>
<text text-anchor="middle" x="443" y="-197.5" font-family="Helvetica,sans-Serif" font-size="10.00" fill="#000000">getRecordingTotalTime</text>
</a>
</g>
</g>
<!-- Node1056&#45;&gt;Node1064 -->
<g id="edge13" class="edge">
<title>Node1056&#45;&gt;Node1064</title>
<path fill="none" stroke="#191970" d="M35.1511,-167.5299C45.4931,-170.5399 58.8681,-174.0399 71,-176 175.6477,-192.9078 298.6716,-198.0046 373.7158,-199.4826"/>
<polygon fill="#191970" stroke="#191970" points="373.918,-202.9868 383.9796,-199.668 374.0444,-195.9879 373.918,-202.9868"/>
</g>
<!-- Node1065 -->
<g id="node10" class="node">
<title>Node1065</title>
<g id="a_node10"><a xlink:href="classSpikeMonitorCore.html#ae62d623e8edfc6b05309256c1d825bbd" target="_top" xlink:title="returns the recorded mean firing rate of the group ">
<polygon fill="#ffffff" stroke="#000000" points="224.5,-114.5 224.5,-133.5 340.5,-133.5 340.5,-114.5 224.5,-114.5"/>
<text text-anchor="middle" x="282.5" y="-121.5" font-family="Helvetica,sans-Serif" font-size="10.00" fill="#000000">getPopMeanFiringRate</text>
</a>
</g>
</g>
<!-- Node1056&#45;&gt;Node1065 -->
<g id="edge14" class="edge">
<title>Node1056&#45;&gt;Node1065</title>
<path fill="none" stroke="#191970" d="M35.1895,-156.6906C45.5443,-153.7541 58.9193,-150.2541 71,-148 118.4878,-139.1393 172.6256,-133.0698 214.2397,-129.2514"/>
<polygon fill="#191970" stroke="#191970" points="214.6196,-132.7315 224.2671,-128.3525 213.9945,-125.7594 214.6196,-132.7315"/>
</g>
<!-- Node1066 -->
<g id="node11" class="node">
<title>Node1066</title>
<g id="a_node11"><a xlink:href="classSpikeMonitorCore.html#ad0c4b32bb5cc0c7a8d95ed6023a2695f" target="_top" xlink:title="computes the standard deviation of firing rates in the group ">
<polygon fill="#ffffff" stroke="#000000" points="72.5,-76.5 72.5,-95.5 179.5,-95.5 179.5,-76.5 72.5,-76.5"/>
<text text-anchor="middle" x="126" y="-83.5" font-family="Helvetica,sans-Serif" font-size="10.00" fill="#000000">getPopStdFiringRate</text>
</a>
</g>
</g>
<!-- Node1056&#45;&gt;Node1066 -->
<g id="edge18" class="edge">
<title>Node1056&#45;&gt;Node1066</title>
<path fill="none" stroke="#191970" d="M25.3673,-152.4934C35.1252,-141.1781 52.7193,-122.2749 71,-110 76.7531,-106.137 83.2296,-102.6612 89.6652,-99.6322"/>
<polygon fill="#191970" stroke="#191970" points="91.2418,-102.7621 98.9758,-95.5209 88.4142,-96.3586 91.2418,-102.7621"/>
</g>
<!-- Node1068 -->
<g id="node13" class="node">
<title>Node1068</title>
<g id="a_node13"><a xlink:href="classSpikeMonitorCore.html#aed09edf4583ac05d42fccc7e3556e3c5" target="_top" xlink:title="returns the recorded mean firing rate for a specific neuron ">
<polygon fill="#ffffff" stroke="#000000" points="217,-228.5 217,-247.5 348,-247.5 348,-228.5 217,-228.5"/>
<text text-anchor="middle" x="282.5" y="-235.5" font-family="Helvetica,sans-Serif" font-size="10.00" fill="#000000">getNeuronMeanFiringRate</text>
</a>
</g>
</g>
<!-- Node1056&#45;&gt;Node1068 -->
<g id="edge23" class="edge">
<title>Node1056&#45;&gt;Node1068</title>
<path fill="none" stroke="#191970" d="M24.1807,-171.6199C33.2342,-183.8003 50.6291,-204.3578 71,-214 112.966,-233.8639 164.6833,-240.0109 206.472,-241.1204"/>
<polygon fill="#191970" stroke="#191970" points="206.5356,-244.622 216.5952,-241.297 206.6578,-237.623 206.5356,-244.622"/>
</g>
<!-- Node1057&#45;&gt;Node1056 -->
<g id="edge2" class="edge">
<title>Node1057&#45;&gt;Node1056</title>
<path fill="none" stroke="#191970" d="M716.5458,-247.91C706.3089,-263.7614 679.764,-291.5461 651,-304 565.4006,-341.0619 536.2783,-332 443,-332 282.5,-332 282.5,-332 282.5,-332 181.5208,-332 150.0377,-311.8477 71,-249 48.4532,-231.0717 31.6852,-201.0885 23.3632,-181.0939"/>
<polygon fill="#191970" stroke="#191970" points="26.608,-179.7793 19.7953,-171.6653 20.0611,-182.2568 26.608,-179.7793"/>
</g>
<!-- Node1058 -->
<g id="node3" class="node">
<title>Node1058</title>
<g id="a_node3"><a xlink:href="classSpikeMonitorCore.html#a6e116c2994e0449c41e56d03370fa54c" target="_top" xlink:title="inserts a (time,neurId) tupel into the 2D spike vector ">
<polygon fill="#ffffff" stroke="#000000" points="791,-228.5 791,-247.5 850,-247.5 850,-228.5 791,-228.5"/>
<text text-anchor="middle" x="820.5" y="-235.5" font-family="Helvetica,sans-Serif" font-size="10.00" fill="#000000">pushAER</text>
</a>
</g>
</g>
<!-- Node1057&#45;&gt;Node1058 -->
<g id="edge3" class="edge">
<title>Node1057&#45;&gt;Node1058</title>
<path fill="none" stroke="#191970" d="M755.2423,-231.5503C763.475,-231.2216 772.3374,-231.1627 780.7955,-231.3738"/>
<polygon fill="#191970" stroke="#191970" points="780.7138,-234.8732 790.8425,-231.7652 780.9864,-227.8785 780.7138,-234.8732"/>
</g>
<!-- Node1058&#45;&gt;Node1057 -->
<g id="edge4" class="edge">
<title>Node1058&#45;&gt;Node1057</title>
<path fill="none" stroke="#191970" d="M790.8425,-244.2348C782.7966,-244.6701 773.9079,-244.8296 765.2446,-244.7131"/>
<polygon fill="#191970" stroke="#191970" points="765.331,-241.2143 755.2423,-244.4497 765.1466,-248.2119 765.331,-241.2143"/>
</g>
<!-- Node1059 -->
<g id="node4" class="node">
<title>Node1059</title>
<g id="a_node4"><a xlink:href="classSpikeMonitorCore.html#abe76071e1ac3632d55f2455b239b3d12" target="_top" xlink:title="returns recording mode ">
<polygon fill="#ffffff" stroke="#000000" points="886,-247.5 886,-266.5 940,-266.5 940,-247.5 886,-247.5"/>
<text text-anchor="middle" x="913" y="-254.5" font-family="Helvetica,sans-Serif" font-size="10.00" fill="#000000">getMode</text>
</a>
</g>
</g>
<!-- Node1058&#45;&gt;Node1059 -->
<g id="edge5" class="edge">
<title>Node1058&#45;&gt;Node1059</title>
<path fill="none" stroke="#191970" d="M850.0219,-244.064C858.3064,-245.7656 867.4184,-247.6373 876.0757,-249.4155"/>
<polygon fill="#191970" stroke="#191970" points="875.453,-252.8606 885.9527,-251.4443 876.8615,-246.0038 875.453,-252.8606"/>
</g>
<!-- Node1062&#45;&gt;Node1057 -->
<g id="edge9" class="edge">
<title>Node1062&#45;&gt;Node1057</title>
<path fill="none" stroke="#191970" d="M477.9274,-171.5485C528.4485,-185.36 621.8882,-210.9047 677.0356,-225.981"/>
<polygon fill="#191970" stroke="#191970" points="676.2992,-229.408 686.8682,-228.669 678.1452,-222.6558 676.2992,-229.408"/>
</g>
<!-- Node1063 -->
<g id="node8" class="node">
<title>Node1063</title>
<g id="a_node8"><a xlink:href="classSpikeMonitorCore.html#a005a2f884f6260054483d4fa6ed6ddbb" target="_top" xlink:title="returns the number of recorded spikes of a specific neuron ">
<polygon fill="#ffffff" stroke="#000000" points="538,-266.5 538,-285.5 651,-285.5 651,-266.5 538,-266.5"/>
<text text-anchor="middle" x="594.5" y="-273.5" font-family="Helvetica,sans-Serif" font-size="10.00" fill="#000000">getNeuronNumSpikes</text>
</a>
</g>
</g>
<!-- Node1062&#45;&gt;Node1063 -->
<g id="edge10" class="edge">
<title>Node1062&#45;&gt;Node1063</title>
<path fill="none" stroke="#191970" d="M481.9724,-171.5631C488.9115,-174.0875 495.8728,-177.1999 502,-181 535.3792,-201.7017 565.3547,-237.0095 581.6357,-258.2571"/>
<polygon fill="#191970" stroke="#191970" points="578.9504,-260.5104 587.7448,-266.4188 584.5544,-256.3157 578.9504,-260.5104"/>
</g>
<!-- Node1063&#45;&gt;Node1057 -->
<g id="edge11" class="edge">
<title>Node1063&#45;&gt;Node1057</title>
<path fill="none" stroke="#191970" d="M626.4213,-266.411C642.4516,-261.5956 662.0738,-255.7012 679.2816,-250.532"/>
<polygon fill="#191970" stroke="#191970" points="680.5187,-253.815 689.0889,-247.5859 678.5047,-247.1109 680.5187,-253.815"/>
</g>
<!-- Node1063&#45;&gt;Node1059 -->
<g id="edge12" class="edge">
<title>Node1063&#45;&gt;Node1059</title>
<path fill="none" stroke="#191970" d="M651.0744,-272.6251C715.8973,-268.7581 820.2875,-262.5307 875.6799,-259.2263"/>
<polygon fill="#191970" stroke="#191970" points="875.9818,-262.7146 885.7556,-258.6253 875.5649,-255.727 875.9818,-262.7146"/>
</g>
<!-- Node1065&#45;&gt;Node1057 -->
<g id="edge15" class="edge">
<title>Node1065&#45;&gt;Node1057</title>
<path fill="none" stroke="#191970" d="M340.6405,-123.0257C416.1106,-124.0243 550.0805,-133.6473 651,-184 670.5625,-193.7605 690.0263,-209.3767 703.4453,-221.3109"/>
<polygon fill="#191970" stroke="#191970" points="701.2221,-224.0205 710.9661,-228.1804 705.943,-218.852 701.2221,-224.0205"/>
</g>
<!-- Node1065&#45;&gt;Node1062 -->
<g id="edge16" class="edge">
<title>Node1065&#45;&gt;Node1062</title>
<path fill="none" stroke="#191970" d="M323.0009,-133.589C344.1806,-138.6035 370.3022,-144.7881 392.7604,-150.1053"/>
<polygon fill="#191970" stroke="#191970" points="392.2529,-153.5818 402.7903,-152.4799 393.8657,-146.7701 392.2529,-153.5818"/>
</g>
<!-- Node1065&#45;&gt;Node1064 -->
<g id="edge17" class="edge">
<title>Node1065&#45;&gt;Node1064</title>
<path fill="none" stroke="#191970" d="M297.485,-133.6786C316.869,-145.8985 351.9569,-167.0114 384,-181 389.0544,-183.2065 394.4497,-185.2911 399.8468,-187.214"/>
<polygon fill="#191970" stroke="#191970" points="398.8959,-190.5874 409.4903,-190.4923 401.1489,-183.9599 398.8959,-190.5874"/>
</g>
<!-- Node1066&#45;&gt;Node1057 -->
<g id="edge19" class="edge">
<title>Node1066&#45;&gt;Node1057</title>
<path fill="none" stroke="#191970" d="M179.5506,-85.9509C296.9254,-86.736 572.6284,-93.7173 651,-141 681.3778,-159.3273 702.3845,-196.3907 712.9993,-219.0222"/>
<polygon fill="#191970" stroke="#191970" points="709.8643,-220.5856 717.1415,-228.2858 716.2546,-217.7282 709.8643,-220.5856"/>
</g>
<!-- Node1066&#45;&gt;Node1065 -->
<g id="edge20" class="edge">
<title>Node1066&#45;&gt;Node1065</title>
<path fill="none" stroke="#191970" d="M165.4916,-95.589C186.1434,-100.6035 211.614,-106.7881 233.5125,-112.1053"/>
<polygon fill="#191970" stroke="#191970" points="232.7489,-115.5215 243.2924,-114.4799 234.4007,-108.7191 232.7489,-115.5215"/>
</g>
<!-- Node1067 -->
<g id="node12" class="node">
<title>Node1067</title>
<g id="a_node12"><a xlink:href="classSpikeMonitorCore.html#a0fc20fcc5876030d796debd148ae7cee" target="_top" xlink:title="returns a list of firing rates for all neurons in the group (sorted by neuron ID ascending) ...">
<polygon fill="#ffffff" stroke="#000000" points="548.5,-38.5 548.5,-57.5 640.5,-57.5 640.5,-38.5 548.5,-38.5"/>
<text text-anchor="middle" x="594.5" y="-45.5" font-family="Helvetica,sans-Serif" font-size="10.00" fill="#000000">getAllFiringRates</text>
</a>
</g>
</g>
<!-- Node1066&#45;&gt;Node1067 -->
<g id="edge21" class="edge">
<title>Node1066&#45;&gt;Node1067</title>
<path fill="none" stroke="#191970" d="M179.7887,-76.9124C191.996,-75.0765 204.9227,-73.3103 217,-72 330.7971,-59.6538 464.634,-52.994 538.4679,-50.0006"/>
<polygon fill="#191970" stroke="#191970" points="538.6267,-53.4971 548.4797,-49.6023 538.3484,-46.5027 538.6267,-53.4971"/>
</g>
<!-- Node1067&#45;&gt;Node1057 -->
<g id="edge22" class="edge">
<title>Node1067&#45;&gt;Node1057</title>
<path fill="none" stroke="#191970" d="M628.77,-57.6149C636.814,-61.1265 644.8287,-65.8125 651,-72 692.6723,-113.7817 710.9414,-184.1431 717.6686,-218.2633"/>
<polygon fill="#191970" stroke="#191970" points="714.2729,-219.1499 719.5246,-228.3515 721.1573,-217.8833 714.2729,-219.1499"/>
</g>
<!-- Node1068&#45;&gt;Node1057 -->
<g id="edge24" class="edge">
<title>Node1068&#45;&gt;Node1057</title>
<path fill="none" stroke="#191970" d="M348.1479,-238C438.5099,-238 598.8256,-238 676.4388,-238"/>
<polygon fill="#191970" stroke="#191970" points="676.8256,-241.5001 686.8256,-238 676.8255,-234.5001 676.8256,-241.5001"/>
</g>
<!-- Node1068&#45;&gt;Node1063 -->
<g id="edge25" class="edge">
<title>Node1068&#45;&gt;Node1063</title>
<path fill="none" stroke="#191970" d="M348.2624,-247.3007C360.1508,-248.9165 372.44,-250.544 384,-252 432.0421,-258.0511 486.3391,-264.2254 527.7536,-268.796"/>
<polygon fill="#191970" stroke="#191970" points="527.4015,-272.2783 537.7243,-269.8929 528.167,-265.3203 527.4015,-272.2783"/>
</g>
<!-- Node1068&#45;&gt;Node1064 -->
<g id="edge26" class="edge">
<title>Node1068&#45;&gt;Node1064</title>
<path fill="none" stroke="#191970" d="M323.0009,-228.411C344.1806,-223.3965 370.3022,-217.2119 392.7604,-211.8947"/>
<polygon fill="#191970" stroke="#191970" points="393.8657,-215.2299 402.7903,-209.5201 392.2529,-208.4182 393.8657,-215.2299"/>
</g>
</g>
</svg>
