<?xml version="1.0" encoding="UTF-8" standalone="no"?>
<!DOCTYPE svg PUBLIC "-//W3C//DTD SVG 1.1//EN"
 "http://www.w3.org/Graphics/SVG/1.1/DTD/svg11.dtd">
<!-- Generated by graphviz version 2.40.1 (20161225.0304)
 -->
<!-- Title: getTotalAbsWeightChange Pages: 1 -->
<svg width="1250pt" height="83pt"
 viewBox="0.00 0.00 1250.00 83.00" xmlns="http://www.w3.org/2000/svg" xmlns:xlink="http://www.w3.org/1999/xlink">
<g id="graph0" class="graph" transform="scale(1 1) rotate(0) translate(4 79)">
<title>getTotalAbsWeightChange</title>
<polygon fill="#ffffff" stroke="transparent" points="-4,4 -4,-79 1246,-79 1246,4 -4,4"/>
<!-- Node190 -->
<g id="node1" class="node">
<title>Node190</title>
<polygon fill="#bfbfbf" stroke="#000000" points="0,-28 0,-47 134,-47 134,-28 0,-28"/>
<text text-anchor="middle" x="67" y="-35" font-family="Helvetica,sans-Serif" font-size="10.00" fill="#000000">getTotalAbsWeightChange</text>
</g>
<!-- Node191 -->
<g id="node2" class="node">
<title>Node191</title>
<g id="a_node2"><a xlink:href="classConnectionMonitor.html#a991b87f83f8f3a210ab97c6090eeaad9" target="_top" xlink:title="Returns the absolute sum of all the weight changes since the last snapshot. ">
<polygon fill="#ffffff" stroke="#000000" points="170,-44.5 170,-74.5 304,-74.5 304,-44.5 170,-44.5"/>
<text text-anchor="start" x="178" y="-62.5" font-family="Helvetica,sans-Serif" font-size="10.00" fill="#000000">ConnectionMonitor::</text>
<text text-anchor="middle" x="237" y="-51.5" font-family="Helvetica,sans-Serif" font-size="10.00" fill="#000000">getTotalAbsWeightChange</text>
</a>
</g>
</g>
<!-- Node190&#45;&gt;Node191 -->
<g id="edge1" class="edge">
<title>Node190&#45;&gt;Node191</title>
<path fill="none" stroke="#191970" d="M144.146,-47.4836C152.6879,-48.589 161.3366,-49.7083 169.7428,-50.7961"/>
<polygon fill="#191970" stroke="#191970" points="144.555,-44.0074 134.1885,-46.195 143.6566,-50.9495 144.555,-44.0074"/>
</g>
<!-- Node192 -->
<g id="node3" class="node">
<title>Node192</title>
<g id="a_node3"><a xlink:href="classConnectionMonitorCore.html#acf625cff31a558c7d6786773d0c2693c" target="_top" xlink:title="getUpdateTimeIntervalSec">
<polygon fill="#ffffff" stroke="#000000" points="170.5,-6 170.5,-25 303.5,-25 303.5,-6 170.5,-6"/>
<text text-anchor="middle" x="237" y="-13" font-family="Helvetica,sans-Serif" font-size="10.00" fill="#000000">getUpdateTimeIntervalSec</text>
</a>
</g>
</g>
<!-- Node190&#45;&gt;Node192 -->
<g id="edge2" class="edge">
<title>Node190&#45;&gt;Node192</title>
<path fill="none" stroke="#191970" d="M144.3052,-27.4958C152.984,-26.3727 161.7707,-25.2356 170.2994,-24.1318"/>
<polygon fill="#191970" stroke="#191970" points="143.6566,-24.0505 134.1885,-28.805 144.555,-30.9926 143.6566,-24.0505"/>
</g>
<!-- Node193 -->
<g id="node4" class="node">
<title>Node193</title>
<g id="a_node4"><a xlink:href="classSNN.html#a68862cb4e6c749219c20c38aeab06986" target="_top" xlink:title="polls connection weights ">
<polygon fill="#ffffff" stroke="#000000" points="340,-6 340,-25 495,-25 495,-6 340,-6"/>
<text text-anchor="middle" x="417.5" y="-13" font-family="Helvetica,sans-Serif" font-size="10.00" fill="#000000">SNN::updateConnectionMonitor</text>
</a>
</g>
</g>
<!-- Node192&#45;&gt;Node193 -->
<g id="edge3" class="edge">
<title>Node192&#45;&gt;Node193</title>
<path fill="none" stroke="#191970" d="M313.729,-15.5C322.3559,-15.5 331.1514,-15.5 339.7906,-15.5"/>
<polygon fill="#191970" stroke="#191970" points="313.6987,-12.0001 303.6987,-15.5 313.6987,-19.0001 313.6987,-12.0001"/>
</g>
<!-- Node194 -->
<g id="node5" class="node">
<title>Node194</title>
<g id="a_node5"><a xlink:href="classSNN.html#a3df37c7539f784fe7a939c5da922f41b" target="_top" xlink:title="run the simulation for n sec ">
<polygon fill="#ffffff" stroke="#000000" points="531,-6 531,-25 626,-25 626,-6 531,-6"/>
<text text-anchor="middle" x="578.5" y="-13" font-family="Helvetica,sans-Serif" font-size="10.00" fill="#000000">SNN::runNetwork</text>
</a>
</g>
</g>
<!-- Node193&#45;&gt;Node194 -->
<g id="edge4" class="edge">
<title>Node193&#45;&gt;Node194</title>
<path fill="none" stroke="#191970" d="M505.1932,-15.5C514.0469,-15.5 522.7837,-15.5 530.9704,-15.5"/>
<polygon fill="#191970" stroke="#191970" points="505.1705,-12.0001 495.1704,-15.5 505.1704,-19.0001 505.1705,-12.0001"/>
</g>
<!-- Node195 -->
<g id="node6" class="node">
<title>Node195</title>
<g id="a_node6"><a xlink:href="classCARLsim_1_1Impl.html#a749f370debe5eec8661cf9ca1b1bb4c0" target="_top" xlink:title="CARLsim::Impl::runNetwork">
<polygon fill="#ffffff" stroke="#000000" points="662,-6 662,-25 802,-25 802,-6 662,-6"/>
<text text-anchor="middle" x="732" y="-13" font-family="Helvetica,sans-Serif" font-size="10.00" fill="#000000">CARLsim::Impl::runNetwork</text>
</a>
</g>
</g>
<!-- Node194&#45;&gt;Node195 -->
<g id="edge5" class="edge">
<title>Node194&#45;&gt;Node195</title>
<path fill="none" stroke="#191970" d="M636.4873,-15.5C644.7425,-15.5 653.3063,-15.5 661.7638,-15.5"/>
<polygon fill="#191970" stroke="#191970" points="636.227,-12.0001 626.2269,-15.5 636.2269,-19.0001 636.227,-12.0001"/>
</g>
<!-- Node196 -->
<g id="node7" class="node">
<title>Node196</title>
<g id="a_node7"><a xlink:href="classCARLsim.html#aafb2d44405c96aafe089f96ff867018d" target="_top" xlink:title="run the simulation for time=(nSec*seconds + nMsec*milliseconds) ">
<polygon fill="#ffffff" stroke="#000000" points="838,-6 838,-25 954,-25 954,-6 838,-6"/>
<text text-anchor="middle" x="896" y="-13" font-family="Helvetica,sans-Serif" font-size="10.00" fill="#000000">CARLsim::runNetwork</text>
</a>
</g>
</g>
<!-- Node195&#45;&gt;Node196 -->
<g id="edge6" class="edge">
<title>Node195&#45;&gt;Node196</title>
<path fill="none" stroke="#191970" d="M812.1489,-15.5C820.8022,-15.5 829.483,-15.5 837.8055,-15.5"/>
<polygon fill="#191970" stroke="#191970" points="812.0265,-12.0001 802.0265,-15.5 812.0264,-19.0001 812.0265,-12.0001"/>
</g>
<!-- Node197 -->
<g id="node8" class="node">
<title>Node197</title>
<g id="a_node8"><a xlink:href="classSimpleWeightTuner_1_1Impl.html#a312d84bfa66a5036bb52a4c39db6fa6c" target="_top" xlink:title="SimpleWeightTuner::\lImpl::iterate">
<polygon fill="#ffffff" stroke="#000000" points="990,-.5 990,-30.5 1098,-30.5 1098,-.5 990,-.5"/>
<text text-anchor="start" x="998" y="-18.5" font-family="Helvetica,sans-Serif" font-size="10.00" fill="#000000">SimpleWeightTuner::</text>
<text text-anchor="middle" x="1044" y="-7.5" font-family="Helvetica,sans-Serif" font-size="10.00" fill="#000000">Impl::iterate</text>
</a>
</g>
</g>
<!-- Node196&#45;&gt;Node197 -->
<g id="edge7" class="edge">
<title>Node196&#45;&gt;Node197</title>
<path fill="none" stroke="#191970" d="M964.1513,-15.5C972.8066,-15.5 981.5692,-15.5 989.9617,-15.5"/>
<polygon fill="#191970" stroke="#191970" points="964.0688,-12.0001 954.0687,-15.5 964.0687,-19.0001 964.0688,-12.0001"/>
</g>
<!-- Node198 -->
<g id="node9" class="node">
<title>Node198</title>
<g id="a_node9"><a xlink:href="classSimpleWeightTuner.html#a0df985e3ff7a27edc1e2e3fcc8261843" target="_top" xlink:title="Performs an iteration step of the tuning algorithm. ">
<polygon fill="#ffffff" stroke="#000000" points="1134,-.5 1134,-30.5 1242,-30.5 1242,-.5 1134,-.5"/>
<text text-anchor="start" x="1142" y="-18.5" font-family="Helvetica,sans-Serif" font-size="10.00" fill="#000000">SimpleWeightTuner::</text>
<text text-anchor="middle" x="1188" y="-7.5" font-family="Helvetica,sans-Serif" font-size="10.00" fill="#000000">iterate</text>
</a>
</g>
</g>
<!-- Node197&#45;&gt;Node198 -->
<g id="edge8" class="edge">
<title>Node197&#45;&gt;Node198</title>
<path fill="none" stroke="#191970" d="M1108.2702,-15.5C1116.7504,-15.5 1125.3754,-15.5 1133.6672,-15.5"/>
<polygon fill="#191970" stroke="#191970" points="1108.03,-12.0001 1098.03,-15.5 1108.0299,-19.0001 1108.03,-12.0001"/>
</g>
</g>
</svg>
