<?xml version="1.0" encoding="UTF-8" standalone="no"?>
<!DOCTYPE svg PUBLIC "-//W3C//DTD SVG 1.1//EN"
 "http://www.w3.org/Graphics/SVG/1.1/DTD/svg11.dtd">
<!-- Generated by graphviz version 2.40.1 (20161225.0304)
 -->
<!-- Title: updateTime Pages: 1 -->
<svg width="1183pt" height="39pt"
 viewBox="0.00 0.00 1183.00 39.00" xmlns="http://www.w3.org/2000/svg" xmlns:xlink="http://www.w3.org/1999/xlink">
<g id="graph0" class="graph" transform="scale(1 1) rotate(0) translate(4 35)">
<title>updateTime</title>
<polygon fill="#ffffff" stroke="transparent" points="-4,4 -4,-35 1179,-35 1179,4 -4,4"/>
<!-- Node357 -->
<g id="node1" class="node">
<title>Node357</title>
<polygon fill="#bfbfbf" stroke="#000000" points="0,-6 0,-25 68,-25 68,-6 0,-6"/>
<text text-anchor="middle" x="34" y="-13" font-family="Helvetica,sans-Serif" font-size="10.00" fill="#000000">updateTime</text>
</g>
<!-- Node358 -->
<g id="node2" class="node">
<title>Node358</title>
<g id="a_node2"><a xlink:href="classConnectionMonitorCore.html#acf625cff31a558c7d6786773d0c2693c" target="_top" xlink:title="getUpdateTimeIntervalSec">
<polygon fill="#ffffff" stroke="#000000" points="104,-6 104,-25 237,-25 237,-6 104,-6"/>
<text text-anchor="middle" x="170.5" y="-13" font-family="Helvetica,sans-Serif" font-size="10.00" fill="#000000">getUpdateTimeIntervalSec</text>
</a>
</g>
</g>
<!-- Node357&#45;&gt;Node358 -->
<g id="edge1" class="edge">
<title>Node357&#45;&gt;Node358</title>
<path fill="none" stroke="#191970" d="M78.169,-15.5C86.3833,-15.5 95.1314,-15.5 103.8448,-15.5"/>
<polygon fill="#191970" stroke="#191970" points="78.0926,-12.0001 68.0926,-15.5 78.0926,-19.0001 78.0926,-12.0001"/>
</g>
<!-- Node359 -->
<g id="node3" class="node">
<title>Node359</title>
<g id="a_node3"><a xlink:href="classSNN.html#a68862cb4e6c749219c20c38aeab06986" target="_top" xlink:title="polls connection weights ">
<polygon fill="#ffffff" stroke="#000000" points="273,-6 273,-25 428,-25 428,-6 273,-6"/>
<text text-anchor="middle" x="350.5" y="-13" font-family="Helvetica,sans-Serif" font-size="10.00" fill="#000000">SNN::updateConnectionMonitor</text>
</a>
</g>
</g>
<!-- Node358&#45;&gt;Node359 -->
<g id="edge2" class="edge">
<title>Node358&#45;&gt;Node359</title>
<path fill="none" stroke="#191970" d="M247.2083,-15.5C255.6475,-15.5 264.2461,-15.5 272.6984,-15.5"/>
<polygon fill="#191970" stroke="#191970" points="247.014,-12.0001 237.0139,-15.5 247.0139,-19.0001 247.014,-12.0001"/>
</g>
<!-- Node360 -->
<g id="node4" class="node">
<title>Node360</title>
<g id="a_node4"><a xlink:href="classSNN.html#a3df37c7539f784fe7a939c5da922f41b" target="_top" xlink:title="run the simulation for n sec ">
<polygon fill="#ffffff" stroke="#000000" points="464,-6 464,-25 559,-25 559,-6 464,-6"/>
<text text-anchor="middle" x="511.5" y="-13" font-family="Helvetica,sans-Serif" font-size="10.00" fill="#000000">SNN::runNetwork</text>
</a>
</g>
</g>
<!-- Node359&#45;&gt;Node360 -->
<g id="edge3" class="edge">
<title>Node359&#45;&gt;Node360</title>
<path fill="none" stroke="#191970" d="M438.1932,-15.5C447.0469,-15.5 455.7837,-15.5 463.9704,-15.5"/>
<polygon fill="#191970" stroke="#191970" points="438.1705,-12.0001 428.1704,-15.5 438.1704,-19.0001 438.1705,-12.0001"/>
</g>
<!-- Node361 -->
<g id="node5" class="node">
<title>Node361</title>
<g id="a_node5"><a xlink:href="classCARLsim_1_1Impl.html#a749f370debe5eec8661cf9ca1b1bb4c0" target="_top" xlink:title="CARLsim::Impl::runNetwork">
<polygon fill="#ffffff" stroke="#000000" points="595,-6 595,-25 735,-25 735,-6 595,-6"/>
<text text-anchor="middle" x="665" y="-13" font-family="Helvetica,sans-Serif" font-size="10.00" fill="#000000">CARLsim::Impl::runNetwork</text>
</a>
</g>
</g>
<!-- Node360&#45;&gt;Node361 -->
<g id="edge4" class="edge">
<title>Node360&#45;&gt;Node361</title>
<path fill="none" stroke="#191970" d="M569.4873,-15.5C577.7425,-15.5 586.3063,-15.5 594.7638,-15.5"/>
<polygon fill="#191970" stroke="#191970" points="569.227,-12.0001 559.2269,-15.5 569.2269,-19.0001 569.227,-12.0001"/>
</g>
<!-- Node362 -->
<g id="node6" class="node">
<title>Node362</title>
<g id="a_node6"><a xlink:href="classCARLsim.html#aafb2d44405c96aafe089f96ff867018d" target="_top" xlink:title="run the simulation for time=(nSec*seconds + nMsec*milliseconds) ">
<polygon fill="#ffffff" stroke="#000000" points="771,-6 771,-25 887,-25 887,-6 771,-6"/>
<text text-anchor="middle" x="829" y="-13" font-family="Helvetica,sans-Serif" font-size="10.00" fill="#000000">CARLsim::runNetwork</text>
</a>
</g>
</g>
<!-- Node361&#45;&gt;Node362 -->
<g id="edge5" class="edge">
<title>Node361&#45;&gt;Node362</title>
<path fill="none" stroke="#191970" d="M745.1489,-15.5C753.8022,-15.5 762.483,-15.5 770.8055,-15.5"/>
<polygon fill="#191970" stroke="#191970" points="745.0265,-12.0001 735.0265,-15.5 745.0264,-19.0001 745.0265,-12.0001"/>
</g>
<!-- Node363 -->
<g id="node7" class="node">
<title>Node363</title>
<g id="a_node7"><a xlink:href="classSimpleWeightTuner_1_1Impl.html#a312d84bfa66a5036bb52a4c39db6fa6c" target="_top" xlink:title="SimpleWeightTuner::\lImpl::iterate">
<polygon fill="#ffffff" stroke="#000000" points="923,-.5 923,-30.5 1031,-30.5 1031,-.5 923,-.5"/>
<text text-anchor="start" x="931" y="-18.5" font-family="Helvetica,sans-Serif" font-size="10.00" fill="#000000">SimpleWeightTuner::</text>
<text text-anchor="middle" x="977" y="-7.5" font-family="Helvetica,sans-Serif" font-size="10.00" fill="#000000">Impl::iterate</text>
</a>
</g>
</g>
<!-- Node362&#45;&gt;Node363 -->
<g id="edge6" class="edge">
<title>Node362&#45;&gt;Node363</title>
<path fill="none" stroke="#191970" d="M897.1513,-15.5C905.8066,-15.5 914.5692,-15.5 922.9617,-15.5"/>
<polygon fill="#191970" stroke="#191970" points="897.0688,-12.0001 887.0687,-15.5 897.0687,-19.0001 897.0688,-12.0001"/>
</g>
<!-- Node364 -->
<g id="node8" class="node">
<title>Node364</title>
<g id="a_node8"><a xlink:href="classSimpleWeightTuner.html#a0df985e3ff7a27edc1e2e3fcc8261843" target="_top" xlink:title="Performs an iteration step of the tuning algorithm. ">
<polygon fill="#ffffff" stroke="#000000" points="1067,-.5 1067,-30.5 1175,-30.5 1175,-.5 1067,-.5"/>
<text text-anchor="start" x="1075" y="-18.5" font-family="Helvetica,sans-Serif" font-size="10.00" fill="#000000">SimpleWeightTuner::</text>
<text text-anchor="middle" x="1121" y="-7.5" font-family="Helvetica,sans-Serif" font-size="10.00" fill="#000000">iterate</text>
</a>
</g>
</g>
<!-- Node363&#45;&gt;Node364 -->
<g id="edge7" class="edge">
<title>Node363&#45;&gt;Node364</title>
<path fill="none" stroke="#191970" d="M1041.2702,-15.5C1049.7504,-15.5 1058.3754,-15.5 1066.6672,-15.5"/>
<polygon fill="#191970" stroke="#191970" points="1041.03,-12.0001 1031.03,-15.5 1041.0299,-19.0001 1041.03,-12.0001"/>
</g>
</g>
</svg>
