<?xml version="1.0" encoding="UTF-8" standalone="no"?>
<!DOCTYPE svg PUBLIC "-//W3C//DTD SVG 1.1//EN"
 "http://www.w3.org/Graphics/SVG/1.1/DTD/svg11.dtd">
<!-- Generated by graphviz version 2.40.1 (20161225.0304)
 -->
<!-- Title: setConductances Pages: 1 -->
<svg width="482pt" height="66pt"
 viewBox="0.00 0.00 482.00 66.00" xmlns="http://www.w3.org/2000/svg" xmlns:xlink="http://www.w3.org/1999/xlink">
<g id="graph0" class="graph" transform="scale(1 1) rotate(0) translate(4 62)">
<title>setConductances</title>
<polygon fill="#ffffff" stroke="transparent" points="-4,4 -4,-62 478,-62 478,4 -4,4"/>
<!-- Node1698 -->
<g id="node1" class="node">
<title>Node1698</title>
<polygon fill="#bfbfbf" stroke="#000000" points="0,-19.5 0,-38.5 93,-38.5 93,-19.5 0,-19.5"/>
<text text-anchor="middle" x="46.5" y="-26.5" font-family="Helvetica,sans-Serif" font-size="10.00" fill="#000000">setConductances</text>
</g>
<!-- Node1699 -->
<g id="node2" class="node">
<title>Node1699</title>
<g id="a_node2"><a xlink:href="classCARLsim_1_1Impl.html#a580acd7bfec3145c00014b0bd1742e2e" target="_top" xlink:title="CARLsim::Impl::setConductances">
<polygon fill="#ffffff" stroke="#000000" points="129,-38.5 129,-57.5 296,-57.5 296,-38.5 129,-38.5"/>
<text text-anchor="middle" x="212.5" y="-45.5" font-family="Helvetica,sans-Serif" font-size="10.00" fill="#000000">CARLsim::Impl::setConductances</text>
</a>
</g>
</g>
<!-- Node1698&#45;&gt;Node1699 -->
<g id="edge1" class="edge">
<title>Node1698&#45;&gt;Node1699</title>
<path fill="none" stroke="#191970" d="M103.2491,-35.4954C111.6885,-36.4613 120.5316,-37.4735 129.3765,-38.4859"/>
<polygon fill="#191970" stroke="#191970" points="103.5152,-32.0031 93.182,-34.3431 102.7191,-38.9577 103.5152,-32.0031"/>
</g>
<!-- Node1701 -->
<g id="node4" class="node">
<title>Node1701</title>
<g id="a_node4"><a xlink:href="classCARLsim_1_1Impl.html#abb1c64e1a1dccd802e71145edea251e2" target="_top" xlink:title="CARLsim::Impl::setNM4weighted">
<polygon fill="#ffffff" stroke="#000000" points="130.5,-.5 130.5,-19.5 294.5,-19.5 294.5,-.5 130.5,-.5"/>
<text text-anchor="middle" x="212.5" y="-7.5" font-family="Helvetica,sans-Serif" font-size="10.00" fill="#000000">CARLsim::Impl::setNM4weighted</text>
</a>
</g>
</g>
<!-- Node1698&#45;&gt;Node1701 -->
<g id="edge3" class="edge">
<title>Node1698&#45;&gt;Node1701</title>
<path fill="none" stroke="#191970" d="M103.2255,-22.5073C111.9738,-21.506 121.1563,-20.455 130.3254,-19.4055"/>
<polygon fill="#191970" stroke="#191970" points="102.7191,-19.0423 93.182,-23.6569 103.5152,-25.9969 102.7191,-19.0423"/>
</g>
<!-- Node1700 -->
<g id="node3" class="node">
<title>Node1700</title>
<g id="a_node3"><a xlink:href="classCARLsim.html#a580acd7bfec3145c00014b0bd1742e2e" target="_top" xlink:title="Sets default values for conduction decay and rise times or disables COBA alltogether. ">
<polygon fill="#ffffff" stroke="#000000" points="332,-38.5 332,-57.5 474,-57.5 474,-38.5 332,-38.5"/>
<text text-anchor="middle" x="403" y="-45.5" font-family="Helvetica,sans-Serif" font-size="10.00" fill="#000000">CARLsim::setConductances</text>
</a>
</g>
</g>
<!-- Node1699&#45;&gt;Node1700 -->
<g id="edge2" class="edge">
<title>Node1699&#45;&gt;Node1700</title>
<path fill="none" stroke="#191970" d="M306.1355,-48C314.743,-48 323.368,-48 331.7294,-48"/>
<polygon fill="#191970" stroke="#191970" points="306.0561,-44.5001 296.0561,-48 306.056,-51.5001 306.0561,-44.5001"/>
</g>
<!-- Node1702 -->
<g id="node5" class="node">
<title>Node1702</title>
<g id="a_node5"><a xlink:href="classCARLsim.html#aeda549f4dcee2377a1b335ea96b340f5" target="_top" xlink:title="Sets IcalcType to NM4weighted for a specific neuron group. ">
<polygon fill="#ffffff" stroke="#000000" points="333.5,-.5 333.5,-19.5 472.5,-19.5 472.5,-.5 333.5,-.5"/>
<text text-anchor="middle" x="403" y="-7.5" font-family="Helvetica,sans-Serif" font-size="10.00" fill="#000000">CARLsim::setNM4weighted</text>
</a>
</g>
</g>
<!-- Node1701&#45;&gt;Node1702 -->
<g id="edge4" class="edge">
<title>Node1701&#45;&gt;Node1702</title>
<path fill="none" stroke="#191970" d="M304.6891,-10C314.3325,-10 324.0178,-10 333.349,-10"/>
<polygon fill="#191970" stroke="#191970" points="304.6714,-6.5001 294.6714,-10 304.6713,-13.5001 304.6714,-6.5001"/>
</g>
</g>
</svg>
