<?xml version="1.0" encoding="UTF-8" standalone="no"?>
<!DOCTYPE svg PUBLIC "-//W3C//DTD SVG 1.1//EN"
 "http://www.w3.org/Graphics/SVG/1.1/DTD/svg11.dtd">
<!-- Generated by graphviz version 2.40.1 (20161225.0304)
 -->
<!-- Title: getSimTimeMs Pages: 1 -->
<svg width="361pt" height="142pt"
 viewBox="0.00 0.00 361.00 142.00" xmlns="http://www.w3.org/2000/svg" xmlns:xlink="http://www.w3.org/1999/xlink">
<g id="graph0" class="graph" transform="scale(1 1) rotate(0) translate(4 138)">
<title>getSimTimeMs</title>
<polygon fill="#ffffff" stroke="transparent" points="-4,4 -4,-138 357,-138 357,4 -4,4"/>
<!-- Node1165 -->
<g id="node1" class="node">
<title>Node1165</title>
<polygon fill="#bfbfbf" stroke="#000000" points="0,-57.5 0,-76.5 83,-76.5 83,-57.5 0,-57.5"/>
<text text-anchor="middle" x="41.5" y="-64.5" font-family="Helvetica,sans-Serif" font-size="10.00" fill="#000000">getSimTimeMs</text>
</g>
<!-- Node1166 -->
<g id="node2" class="node">
<title>Node1166</title>
<g id="a_node2"><a xlink:href="classSNN.html#a866a9c6e2b2630816fc66adda1381655" target="_top" xlink:title="Returns pointer to existing SpikeMonitor object, NULL else. ">
<polygon fill="#ffffff" stroke="#000000" points="133,-114.5 133,-133.5 220,-133.5 220,-114.5 133,-114.5"/>
<text text-anchor="middle" x="176.5" y="-121.5" font-family="Helvetica,sans-Serif" font-size="10.00" fill="#000000">getSpikeMonitor</text>
</a>
</g>
</g>
<!-- Node1165&#45;&gt;Node1166 -->
<g id="edge1" class="edge">
<title>Node1165&#45;&gt;Node1166</title>
<path fill="none" stroke="#191970" d="M59.345,-76.6187C74.8511,-84.765 98.0501,-96.4494 119,-105 124.1712,-107.1106 129.6723,-109.1634 135.1438,-111.0916"/>
<polygon fill="#191970" stroke="#191970" points="134.2881,-114.4977 144.8827,-114.4132 136.5478,-107.8724 134.2881,-114.4977"/>
</g>
<!-- Node1168 -->
<g id="node4" class="node">
<title>Node1168</title>
<g id="a_node4"><a xlink:href="classSNN.html#ad25000cd1457c9b9869122534ada6fdd" target="_top" xlink:title="getSpikeMonitorCore">
<polygon fill="#ffffff" stroke="#000000" points="122.5,-76.5 122.5,-95.5 230.5,-95.5 230.5,-76.5 122.5,-76.5"/>
<text text-anchor="middle" x="176.5" y="-83.5" font-family="Helvetica,sans-Serif" font-size="10.00" fill="#000000">getSpikeMonitorCore</text>
</a>
</g>
</g>
<!-- Node1165&#45;&gt;Node1168 -->
<g id="edge3" class="edge">
<title>Node1165&#45;&gt;Node1168</title>
<path fill="none" stroke="#191970" d="M83.106,-72.8557C92.4028,-74.1641 102.472,-75.5812 112.4408,-76.9843"/>
<polygon fill="#191970" stroke="#191970" points="111.9537,-80.4501 122.3439,-78.378 112.9293,-73.5184 111.9537,-80.4501"/>
</g>
<!-- Node1169 -->
<g id="node5" class="node">
<title>Node1169</title>
<g id="a_node5"><a xlink:href="classSNN.html#a0eb87addfa5eebdfee4bd6b927b8945f" target="_top" xlink:title="Returns pointer to existing NeuronMonitor object, NULL else. ">
<polygon fill="#ffffff" stroke="#000000" points="129.5,-38.5 129.5,-57.5 223.5,-57.5 223.5,-38.5 129.5,-38.5"/>
<text text-anchor="middle" x="176.5" y="-45.5" font-family="Helvetica,sans-Serif" font-size="10.00" fill="#000000">getNeuronMonitor</text>
</a>
</g>
</g>
<!-- Node1165&#45;&gt;Node1169 -->
<g id="edge5" class="edge">
<title>Node1165&#45;&gt;Node1169</title>
<path fill="none" stroke="#191970" d="M83.106,-61.1443C94.4849,-59.5429 107.0209,-57.7785 119.1138,-56.0766"/>
<polygon fill="#191970" stroke="#191970" points="119.7178,-59.5261 129.1324,-54.6665 118.7422,-52.5945 119.7178,-59.5261"/>
</g>
<!-- Node1170 -->
<g id="node6" class="node">
<title>Node1170</title>
<g id="a_node6"><a xlink:href="classSNN.html#a9aa73fa9478383c4af1eed8387d82db9" target="_top" xlink:title="getNeuronMonitorCore">
<polygon fill="#ffffff" stroke="#000000" points="119,-.5 119,-19.5 234,-19.5 234,-.5 119,-.5"/>
<text text-anchor="middle" x="176.5" y="-7.5" font-family="Helvetica,sans-Serif" font-size="10.00" fill="#000000">getNeuronMonitorCore</text>
</a>
</g>
</g>
<!-- Node1165&#45;&gt;Node1170 -->
<g id="edge7" class="edge">
<title>Node1165&#45;&gt;Node1170</title>
<path fill="none" stroke="#191970" d="M59.345,-57.3813C74.8511,-49.235 98.0501,-37.5506 119,-29 124.1712,-26.8894 129.6723,-24.8366 135.1438,-22.9084"/>
<polygon fill="#191970" stroke="#191970" points="136.5478,-26.1276 144.8827,-19.5868 134.2881,-19.5023 136.5478,-26.1276"/>
</g>
<!-- Node1167 -->
<g id="node3" class="node">
<title>Node1167</title>
<g id="a_node3"><a xlink:href="classSNN.html#a292bdee57fec7c77ec4c15ea3f508d60" target="_top" xlink:title="getNumGroups">
<polygon fill="#ffffff" stroke="#000000" points="270,-57.5 270,-76.5 353,-76.5 353,-57.5 270,-57.5"/>
<text text-anchor="middle" x="311.5" y="-64.5" font-family="Helvetica,sans-Serif" font-size="10.00" fill="#000000">getNumGroups</text>
</a>
</g>
</g>
<!-- Node1166&#45;&gt;Node1167 -->
<g id="edge2" class="edge">
<title>Node1166&#45;&gt;Node1167</title>
<path fill="none" stroke="#191970" d="M208.1173,-114.4132C216.6075,-111.606 225.7261,-108.3769 234,-105 251.1855,-97.9858 269.8844,-88.8629 284.6088,-81.3141"/>
<polygon fill="#191970" stroke="#191970" points="286.3918,-84.3321 293.655,-76.6187 283.167,-78.1191 286.3918,-84.3321"/>
</g>
<!-- Node1168&#45;&gt;Node1167 -->
<g id="edge4" class="edge">
<title>Node1168&#45;&gt;Node1167</title>
<path fill="none" stroke="#191970" d="M230.6318,-78.3815C240.2207,-77.0319 250.1846,-75.6296 259.707,-74.2894"/>
<polygon fill="#191970" stroke="#191970" points="260.4132,-77.7246 269.8278,-72.865 259.4376,-70.7929 260.4132,-77.7246"/>
</g>
<!-- Node1169&#45;&gt;Node1167 -->
<g id="edge6" class="edge">
<title>Node1169&#45;&gt;Node1167</title>
<path fill="none" stroke="#191970" d="M223.7164,-54.6453C235.3605,-56.2841 247.8924,-58.0478 259.7393,-59.7152"/>
<polygon fill="#191970" stroke="#191970" points="259.5441,-63.2221 269.9343,-61.15 260.5197,-56.2904 259.5441,-63.2221"/>
</g>
<!-- Node1170&#45;&gt;Node1167 -->
<g id="edge8" class="edge">
<title>Node1170&#45;&gt;Node1167</title>
<path fill="none" stroke="#191970" d="M208.1173,-19.5868C216.6075,-22.394 225.7261,-25.6231 234,-29 251.1855,-36.0142 269.8844,-45.1371 284.6088,-52.6859"/>
<polygon fill="#191970" stroke="#191970" points="283.167,-55.8809 293.655,-57.3813 286.3918,-49.6679 283.167,-55.8809"/>
</g>
</g>
</svg>
