<?xml version="1.0" encoding="UTF-8" standalone="no"?>
<!DOCTYPE svg PUBLIC "-//W3C//DTD SVG 1.1//EN"
 "http://www.w3.org/Graphics/SVG/1.1/DTD/svg11.dtd">
<!-- Generated by graphviz version 2.40.1 (20161225.0304)
 -->
<!-- Title: getNumWeightsChanged Pages: 1 -->
<svg width="985pt" height="203pt"
 viewBox="0.00 0.00 985.00 203.00" xmlns="http://www.w3.org/2000/svg" xmlns:xlink="http://www.w3.org/1999/xlink">
<g id="graph0" class="graph" transform="scale(1 1) rotate(0) translate(4 199)">
<title>getNumWeightsChanged</title>
<polygon fill="#ffffff" stroke="transparent" points="-4,4 -4,-199 981,-199 981,4 -4,4"/>
<!-- Node113 -->
<g id="node1" class="node">
<title>Node113</title>
<polygon fill="#bfbfbf" stroke="#000000" points="0,-104 0,-123 126,-123 126,-104 0,-104"/>
<text text-anchor="middle" x="63" y="-111" font-family="Helvetica,sans-Serif" font-size="10.00" fill="#000000">getNumWeightsChanged</text>
</g>
<!-- Node114 -->
<g id="node2" class="node">
<title>Node114</title>
<g id="a_node2"><a xlink:href="classConnectionMonitor.html#ad094dca7a9d2ac2c46e89f1035706eba" target="_top" xlink:title="Returns the number of weights that have changed since the last snapshot. ">
<polygon fill="#ffffff" stroke="#000000" points="162,-142.5 162,-172.5 288,-172.5 288,-142.5 162,-142.5"/>
<text text-anchor="start" x="170" y="-160.5" font-family="Helvetica,sans-Serif" font-size="10.00" fill="#000000">ConnectionMonitor::</text>
<text text-anchor="middle" x="225" y="-149.5" font-family="Helvetica,sans-Serif" font-size="10.00" fill="#000000">getNumWeightsChanged</text>
</a>
</g>
</g>
<!-- Node113&#45;&gt;Node114 -->
<g id="edge1" class="edge">
<title>Node113&#45;&gt;Node114</title>
<path fill="none" stroke="#191970" d="M107.803,-125.6687C126.9068,-130.8574 149.3923,-136.9646 169.5321,-142.4346"/>
<polygon fill="#191970" stroke="#191970" points="108.7194,-122.2909 98.1516,-123.0473 106.8846,-129.0461 108.7194,-122.2909"/>
</g>
<!-- Node116 -->
<g id="node4" class="node">
<title>Node116</title>
<g id="a_node4"><a xlink:href="classConnectionMonitorCore.html#a7373a8cecde25ccd48b3df967b5b0417" target="_top" xlink:title="returns number of synapses that exist in the connection ">
<polygon fill="#ffffff" stroke="#000000" points="177.5,-82 177.5,-101 272.5,-101 272.5,-82 177.5,-82"/>
<text text-anchor="middle" x="225" y="-89" font-family="Helvetica,sans-Serif" font-size="10.00" fill="#000000">getNumSynapses</text>
</a>
</g>
</g>
<!-- Node113&#45;&gt;Node116 -->
<g id="edge3" class="edge">
<title>Node113&#45;&gt;Node116</title>
<path fill="none" stroke="#191970" d="M136.1955,-103.5599C150.1727,-101.6617 164.4628,-99.7211 177.3801,-97.9669"/>
<polygon fill="#191970" stroke="#191970" points="135.5353,-100.1173 126.0973,-104.9312 136.4774,-107.0536 135.5353,-100.1173"/>
</g>
<!-- Node115 -->
<g id="node3" class="node">
<title>Node115</title>
<g id="a_node3"><a xlink:href="classConnectionMonitor.html#ab8aa0b542059991a270030b6528d92bd" target="_top" xlink:title="Returns the percentage of weights that have changed since the last snapshot. ">
<polygon fill="#ffffff" stroke="#000000" points="484,-164.5 484,-194.5 623,-194.5 623,-164.5 484,-164.5"/>
<text text-anchor="start" x="492" y="-182.5" font-family="Helvetica,sans-Serif" font-size="10.00" fill="#000000">ConnectionMonitor::</text>
<text text-anchor="middle" x="553.5" y="-171.5" font-family="Helvetica,sans-Serif" font-size="10.00" fill="#000000">getPercentWeightsChanged</text>
</a>
</g>
</g>
<!-- Node114&#45;&gt;Node115 -->
<g id="edge2" class="edge">
<title>Node114&#45;&gt;Node115</title>
<path fill="none" stroke="#191970" d="M298.4399,-162.4183C353.845,-166.1289 429.3549,-171.1859 483.821,-174.8335"/>
<polygon fill="#191970" stroke="#191970" points="298.5497,-158.918 288.3381,-161.7418 298.0818,-165.9023 298.5497,-158.918"/>
</g>
<!-- Node117 -->
<g id="node5" class="node">
<title>Node117</title>
<g id="a_node5"><a xlink:href="classConnectionMonitor.html#a7373a8cecde25ccd48b3df967b5b0417" target="_top" xlink:title="Returns the number of allocated synapses. ">
<polygon fill="#ffffff" stroke="#000000" points="334,-120.5 334,-150.5 438,-150.5 438,-120.5 334,-120.5"/>
<text text-anchor="start" x="342" y="-138.5" font-family="Helvetica,sans-Serif" font-size="10.00" fill="#000000">ConnectionMonitor::</text>
<text text-anchor="middle" x="386" y="-127.5" font-family="Helvetica,sans-Serif" font-size="10.00" fill="#000000">getNumSynapses</text>
</a>
</g>
</g>
<!-- Node116&#45;&gt;Node117 -->
<g id="edge4" class="edge">
<title>Node116&#45;&gt;Node117</title>
<path fill="none" stroke="#191970" d="M269.6536,-103.7035C289.5085,-109.1297 313.0194,-115.555 333.6914,-121.2045"/>
<polygon fill="#191970" stroke="#191970" points="270.5036,-100.3075 259.9346,-101.0473 268.6581,-107.0599 270.5036,-100.3075"/>
</g>
<!-- Node120 -->
<g id="node8" class="node">
<title>Node120</title>
<g id="a_node8"><a xlink:href="classConnectionMonitorCore.html#a6c63078d9c2226cd48f51e4d4ed0d4db" target="_top" xlink:title="returns number of weights with values in range e[minVal,maxVal] (inclusive) ">
<polygon fill="#ffffff" stroke="#000000" points="324,-44 324,-63 448,-63 448,-44 324,-44"/>
<text text-anchor="middle" x="386" y="-51" font-family="Helvetica,sans-Serif" font-size="10.00" fill="#000000">getNumWeightsInRange</text>
</a>
</g>
</g>
<!-- Node116&#45;&gt;Node120 -->
<g id="edge8" class="edge">
<title>Node116&#45;&gt;Node120</title>
<path fill="none" stroke="#191970" d="M255.4362,-78.8953C274.6905,-73.1615 300.2813,-66.7303 323.7028,-61.6095"/>
<polygon fill="#191970" stroke="#191970" points="254.2337,-75.6037 245.7183,-81.9076 256.3063,-82.2899 254.2337,-75.6037"/>
</g>
<!-- Node117&#45;&gt;Node115 -->
<g id="edge5" class="edge">
<title>Node117&#45;&gt;Node115</title>
<path fill="none" stroke="#191970" d="M447.7779,-151.7282C463.6237,-155.8907 480.5988,-160.3498 496.2074,-164.45"/>
<polygon fill="#191970" stroke="#191970" points="448.641,-148.3363 438.0799,-149.1807 446.8625,-155.1066 448.641,-148.3363"/>
</g>
<!-- Node118 -->
<g id="node6" class="node">
<title>Node118</title>
<g id="a_node6"><a xlink:href="classConnectionMonitor.html#a173c90da62c3cb84f7e8c9db9a00d950" target="_top" xlink:title="Returns the percentage of weights whose values are within some range (inclusive) ">
<polygon fill="#ffffff" stroke="#000000" points="659,-7.5 659,-37.5 796,-37.5 796,-7.5 659,-7.5"/>
<text text-anchor="start" x="667" y="-25.5" font-family="Helvetica,sans-Serif" font-size="10.00" fill="#000000">ConnectionMonitor::</text>
<text text-anchor="middle" x="727.5" y="-14.5" font-family="Helvetica,sans-Serif" font-size="10.00" fill="#000000">getPercentWeightsInRange</text>
</a>
</g>
</g>
<!-- Node117&#45;&gt;Node118 -->
<g id="edge6" class="edge">
<title>Node117&#45;&gt;Node118</title>
<path fill="none" stroke="#191970" d="M448.515,-124.9984C497.0757,-115.7672 565.5886,-100.3712 623,-78.5 625.0196,-77.7306 669.3929,-53.8539 699.6609,-37.5295"/>
<polygon fill="#191970" stroke="#191970" points="447.6543,-121.5985 438.4667,-126.8748 448.9393,-128.4796 447.6543,-121.5985"/>
</g>
<!-- Node119 -->
<g id="node7" class="node">
<title>Node119</title>
<g id="a_node7"><a xlink:href="classConnectionMonitor.html#aaae3bcd84ecd00b25b7c8e03ac37e5c0" target="_top" xlink:title="Returns the percentage of weights in the connection with a particular value. ">
<polygon fill="#ffffff" stroke="#000000" points="832,-94.5 832,-124.5 977,-124.5 977,-94.5 832,-94.5"/>
<text text-anchor="start" x="840" y="-112.5" font-family="Helvetica,sans-Serif" font-size="10.00" fill="#000000">ConnectionMonitor::</text>
<text text-anchor="middle" x="904.5" y="-101.5" font-family="Helvetica,sans-Serif" font-size="10.00" fill="#000000">getPercentWeightsWithValue</text>
</a>
</g>
</g>
<!-- Node117&#45;&gt;Node119 -->
<g id="edge7" class="edge">
<title>Node117&#45;&gt;Node119</title>
<path fill="none" stroke="#191970" d="M448.2633,-132.3778C544.6311,-127.5455 729.4454,-118.2781 831.7969,-113.1457"/>
<polygon fill="#191970" stroke="#191970" points="447.9019,-128.8915 438.0897,-132.888 448.2525,-135.8827 447.9019,-128.8915"/>
</g>
<!-- Node120&#45;&gt;Node116 -->
<g id="edge15" class="edge">
<title>Node120&#45;&gt;Node116</title>
<path fill="none" stroke="#191970" d="M355.6058,-66.0921C332.2944,-73.0363 299.6763,-81.0058 272.8694,-86.4324"/>
<polygon fill="#191970" stroke="#191970" points="356.7796,-69.3927 365.2945,-63.0882 354.7065,-62.7066 356.7796,-69.3927"/>
</g>
<!-- Node121 -->
<g id="node9" class="node">
<title>Node121</title>
<g id="a_node9"><a xlink:href="classConnectionMonitor.html#ad005723dcdb0848e308eb2483c2dab2c" target="_top" xlink:title="Returns the number of weights in the connection whose values are within some range (inclusive) ...">
<polygon fill="#ffffff" stroke="#000000" points="491.5,-.5 491.5,-30.5 615.5,-30.5 615.5,-.5 491.5,-.5"/>
<text text-anchor="start" x="499.5" y="-18.5" font-family="Helvetica,sans-Serif" font-size="10.00" fill="#000000">ConnectionMonitor::</text>
<text text-anchor="middle" x="553.5" y="-7.5" font-family="Helvetica,sans-Serif" font-size="10.00" fill="#000000">getNumWeightsInRange</text>
</a>
</g>
</g>
<!-- Node120&#45;&gt;Node121 -->
<g id="edge9" class="edge">
<title>Node120&#45;&gt;Node121</title>
<path fill="none" stroke="#191970" d="M438.4234,-41.6069C455.188,-37.8036 473.9092,-33.5564 491.3003,-29.611"/>
<polygon fill="#191970" stroke="#191970" points="437.2451,-38.2852 428.2673,-43.911 438.7939,-45.1118 437.2451,-38.2852"/>
</g>
<!-- Node122 -->
<g id="node10" class="node">
<title>Node122</title>
<g id="a_node10"><a xlink:href="classConnectionMonitorCore.html#af0258258ab62c21e22a4bc98dcaa050e" target="_top" xlink:title="returns number of weights that have a certain value ">
<polygon fill="#ffffff" stroke="#000000" points="487.5,-50 487.5,-69 619.5,-69 619.5,-50 487.5,-50"/>
<text text-anchor="middle" x="553.5" y="-57" font-family="Helvetica,sans-Serif" font-size="10.00" fill="#000000">getNumWeightsWithValue</text>
</a>
</g>
</g>
<!-- Node120&#45;&gt;Node122 -->
<g id="edge11" class="edge">
<title>Node120&#45;&gt;Node122</title>
<path fill="none" stroke="#191970" d="M458.6508,-56.1024C468.218,-56.4451 477.9818,-56.7949 487.4311,-57.1334"/>
<polygon fill="#191970" stroke="#191970" points="458.4897,-52.5945 448.3708,-55.7342 458.2391,-59.59 458.4897,-52.5945"/>
</g>
<!-- Node121&#45;&gt;Node118 -->
<g id="edge10" class="edge">
<title>Node121&#45;&gt;Node118</title>
<path fill="none" stroke="#191970" d="M626.0976,-18.4206C636.9321,-18.8565 648.0732,-19.3047 658.8233,-19.7371"/>
<polygon fill="#191970" stroke="#191970" points="625.9592,-14.9123 615.8265,-18.0074 625.6777,-21.9066 625.9592,-14.9123"/>
</g>
<!-- Node122&#45;&gt;Node116 -->
<g id="edge14" class="edge">
<title>Node122&#45;&gt;Node116</title>
<path fill="none" stroke="#191970" d="M477.2343,-69.2426C467.4037,-70.397 457.468,-71.5137 448,-72.5 387.7116,-78.7805 318.0913,-84.4621 272.8998,-87.9425"/>
<polygon fill="#191970" stroke="#191970" points="477.9009,-72.6881 487.4168,-68.0298 477.073,-65.7372 477.9009,-72.6881"/>
</g>
<!-- Node123 -->
<g id="node11" class="node">
<title>Node123</title>
<g id="a_node11"><a xlink:href="classConnectionMonitor.html#af0258258ab62c21e22a4bc98dcaa050e" target="_top" xlink:title="Returns the number of weights in the connection with a particular value. ">
<polygon fill="#ffffff" stroke="#000000" points="661.5,-69.5 661.5,-99.5 793.5,-99.5 793.5,-69.5 661.5,-69.5"/>
<text text-anchor="start" x="669.5" y="-87.5" font-family="Helvetica,sans-Serif" font-size="10.00" fill="#000000">ConnectionMonitor::</text>
<text text-anchor="middle" x="727.5" y="-76.5" font-family="Helvetica,sans-Serif" font-size="10.00" fill="#000000">getNumWeightsWithValue</text>
</a>
</g>
</g>
<!-- Node122&#45;&gt;Node123 -->
<g id="edge12" class="edge">
<title>Node122&#45;&gt;Node123</title>
<path fill="none" stroke="#191970" d="M629.7932,-70.4617C640.3284,-71.9753 651.0761,-73.5196 661.406,-75.0037"/>
<polygon fill="#191970" stroke="#191970" points="630.1745,-66.9806 619.7783,-69.0227 629.1789,-73.9094 630.1745,-66.9806"/>
</g>
<!-- Node123&#45;&gt;Node119 -->
<g id="edge13" class="edge">
<title>Node123&#45;&gt;Node119</title>
<path fill="none" stroke="#191970" d="M803.7111,-95.2643C813.06,-96.5847 822.5955,-97.9316 831.8893,-99.2443"/>
<polygon fill="#191970" stroke="#191970" points="804.0512,-91.7777 793.66,-93.8446 803.0722,-98.7089 804.0512,-91.7777"/>
</g>
</g>
</svg>
