<?xml version="1.0" encoding="UTF-8" standalone="no"?>
<!DOCTYPE svg PUBLIC "-//W3C//DTD SVG 1.1//EN"
 "http://www.w3.org/Graphics/SVG/1.1/DTD/svg11.dtd">
<!-- Generated by graphviz version 2.40.1 (20161225.0304)
 -->
<!-- Title: front Pages: 1 -->
<svg width="662pt" height="106pt"
 viewBox="0.00 0.00 662.00 105.50" xmlns="http://www.w3.org/2000/svg" xmlns:xlink="http://www.w3.org/1999/xlink">
<g id="graph0" class="graph" transform="scale(1 1) rotate(0) translate(4 101.5)">
<title>front</title>
<polygon fill="#ffffff" stroke="transparent" points="-4,4 -4,-101.5 658,-101.5 658,4 -4,4"/>
<!-- Node15 -->
<g id="node1" class="node">
<title>Node15</title>
<polygon fill="#bfbfbf" stroke="#000000" points="0,-28 0,-47 36,-47 36,-28 0,-28"/>
<text text-anchor="middle" x="18" y="-35" font-family="Helvetica,sans-Serif" font-size="10.00" fill="#000000">front</text>
</g>
<!-- Node16 -->
<g id="node2" class="node">
<title>Node16</title>
<g id="a_node2"><a xlink:href="classSpikeBuffer.html#a4f84af934c8a89f48edf5bdcb9b24e0d" target="_top" xlink:title="pointer to the front of the spike buffer ">
<polygon fill="#ffffff" stroke="#000000" points="72,-28 72,-47 165,-47 165,-28 72,-28"/>
<text text-anchor="middle" x="118.5" y="-35" font-family="Helvetica,sans-Serif" font-size="10.00" fill="#000000">SpikeBuffer::front</text>
</a>
</g>
</g>
<!-- Node15&#45;&gt;Node16 -->
<g id="edge1" class="edge">
<title>Node15&#45;&gt;Node16</title>
<path fill="none" stroke="#191970" d="M46.52,-37.5C54.387,-37.5 63.1342,-37.5 71.7439,-37.5"/>
<polygon fill="#191970" stroke="#191970" points="46.4333,-34.0001 36.4332,-37.5 46.4332,-41.0001 46.4333,-34.0001"/>
</g>
<!-- Node17 -->
<g id="node3" class="node">
<title>Node17</title>
<g id="a_node3"><a xlink:href="classSNN.html#a845adad4645977755e508610dc3c1464" target="_top" xlink:title="checks whether a point pre lies in the receptive field for point post ">
<polygon fill="#ffffff" stroke="#000000" points="214.5,-50 214.5,-69 316.5,-69 316.5,-50 214.5,-50"/>
<text text-anchor="middle" x="265.5" y="-57" font-family="Helvetica,sans-Serif" font-size="10.00" fill="#000000">SNN::getRFDist3D</text>
</a>
</g>
</g>
<!-- Node16&#45;&gt;Node17 -->
<g id="edge2" class="edge">
<title>Node16&#45;&gt;Node17</title>
<path fill="none" stroke="#191970" d="M175.1882,-45.984C188.1143,-47.9185 201.7735,-49.9627 214.4476,-51.8595"/>
<polygon fill="#191970" stroke="#191970" points="175.4196,-42.4797 165.0117,-44.4609 174.3835,-49.4026 175.4196,-42.4797"/>
</g>
<!-- Node21 -->
<g id="node7" class="node">
<title>Node21</title>
<g id="a_node7"><a xlink:href="classSpikeBuffer_1_1SpikeIterator.html#a62ca91a5c80425f2cd4f6af0ca687e6a" target="_top" xlink:title="SpikeBuffer::SpikeIterator\l::operator++">
<polygon fill="#ffffff" stroke="#000000" points="201,-.5 201,-30.5 330,-30.5 330,-.5 201,-.5"/>
<text text-anchor="start" x="209" y="-18.5" font-family="Helvetica,sans-Serif" font-size="10.00" fill="#000000">SpikeBuffer::SpikeIterator</text>
<text text-anchor="middle" x="265.5" y="-7.5" font-family="Helvetica,sans-Serif" font-size="10.00" fill="#000000">::operator++</text>
</a>
</g>
</g>
<!-- Node16&#45;&gt;Node21 -->
<g id="edge8" class="edge">
<title>Node16&#45;&gt;Node21</title>
<path fill="none" stroke="#191970" d="M175.0774,-29.0326C183.4824,-27.7747 192.1996,-26.4701 200.7563,-25.1895"/>
<polygon fill="#191970" stroke="#191970" points="174.3835,-25.5974 165.0117,-30.5391 175.4196,-32.5203 174.3835,-25.5974"/>
</g>
<!-- Node18 -->
<g id="node4" class="node">
<title>Node18</title>
<g id="a_node4"><a xlink:href="classSNN.html#a3a42619b35349cd8d68f2ea21c865e36" target="_top" xlink:title="SNN::getConductanceConfig">
<polygon fill="#ffffff" stroke="#000000" points="510,-78 510,-97 654,-97 654,-78 510,-78"/>
<text text-anchor="middle" x="582" y="-85" font-family="Helvetica,sans-Serif" font-size="10.00" fill="#000000">SNN::getConductanceConfig</text>
</a>
</g>
</g>
<!-- Node17&#45;&gt;Node18 -->
<g id="edge3" class="edge">
<title>Node17&#45;&gt;Node18</title>
<path fill="none" stroke="#191970" d="M318.1718,-70.9478C333.5231,-73.879 350.371,-76.7066 366,-78.5 413.7285,-83.9766 467.7285,-86.2266 509.7963,-87.1075"/>
<polygon fill="#191970" stroke="#191970" points="318.8146,-67.5072 308.3278,-69.0164 317.4668,-74.3763 318.8146,-67.5072"/>
</g>
<!-- Node19 -->
<g id="node5" class="node">
<title>Node19</title>
<g id="a_node5"><a xlink:href="snn__manager_8cpp.html#af7e3c6ada8c131790477ada99ec34bc3" target="_top" xlink:title="compareDelay">
<polygon fill="#ffffff" stroke="#000000" points="542,-31 542,-50 622,-50 622,-31 542,-31"/>
<text text-anchor="middle" x="582" y="-38" font-family="Helvetica,sans-Serif" font-size="10.00" fill="#000000">compareDelay</text>
</a>
</g>
</g>
<!-- Node17&#45;&gt;Node19 -->
<g id="edge4" class="edge">
<title>Node17&#45;&gt;Node19</title>
<path fill="none" stroke="#191970" d="M316.429,-47.9617C332.2283,-44.8987 349.7569,-42.0219 366,-40.5 427.0451,-34.7802 498.2214,-36.3666 541.6875,-38.2597"/>
<polygon fill="#191970" stroke="#191970" points="315.443,-44.5897 306.3272,-49.9891 316.8205,-51.4529 315.443,-44.5897"/>
</g>
<!-- Node20 -->
<g id="node6" class="node">
<title>Node20</title>
<g id="a_node6"><a xlink:href="classSNN.html#aa1487d5e850f107e5b6890cf6933b7c1" target="_top" xlink:title="SNN::isPoint3DinRF">
<polygon fill="#ffffff" stroke="#000000" points="366,-50 366,-69 474,-69 474,-50 366,-50"/>
<text text-anchor="middle" x="420" y="-57" font-family="Helvetica,sans-Serif" font-size="10.00" fill="#000000">SNN::isPoint3DinRF</text>
</a>
</g>
</g>
<!-- Node17&#45;&gt;Node20 -->
<g id="edge5" class="edge">
<title>Node17&#45;&gt;Node20</title>
<path fill="none" stroke="#191970" d="M326.7221,-59.5C339.6507,-59.5 353.2059,-59.5 365.8515,-59.5"/>
<polygon fill="#191970" stroke="#191970" points="326.5173,-56.0001 316.5173,-59.5 326.5172,-63.0001 326.5173,-56.0001"/>
</g>
<!-- Node20&#45;&gt;Node18 -->
<g id="edge6" class="edge">
<title>Node20&#45;&gt;Node18</title>
<path fill="none" stroke="#191970" d="M484.478,-70.6443C498.5296,-73.073 513.274,-75.6214 526.9211,-77.9802"/>
<polygon fill="#191970" stroke="#191970" points="484.8443,-67.1558 474.3943,-68.9015 483.6521,-74.0536 484.8443,-67.1558"/>
</g>
<!-- Node20&#45;&gt;Node19 -->
<g id="edge7" class="edge">
<title>Node20&#45;&gt;Node19</title>
<path fill="none" stroke="#191970" d="M484.3891,-51.9482C503.7808,-49.6739 524.4998,-47.2438 541.838,-45.2104"/>
<polygon fill="#191970" stroke="#191970" points="483.9185,-48.4793 474.3943,-53.1204 484.734,-55.4316 483.9185,-48.4793"/>
</g>
</g>
</svg>
