<?xml version="1.0" encoding="UTF-8" standalone="no"?>
<!DOCTYPE svg PUBLIC "-//W3C//DTD SVG 1.1//EN"
 "http://www.w3.org/Graphics/SVG/1.1/DTD/svg11.dtd">
<!-- Generated by graphviz version 2.40.1 (20161225.0304)
 -->
<!-- Title: getLastUpdated Pages: 1 -->
<svg width="1053pt" height="142pt"
 viewBox="0.00 0.00 1053.00 142.00" xmlns="http://www.w3.org/2000/svg" xmlns:xlink="http://www.w3.org/1999/xlink">
<g id="graph0" class="graph" transform="scale(1 1) rotate(0) translate(4 138)">
<title>getLastUpdated</title>
<polygon fill="#ffffff" stroke="transparent" points="-4,4 -4,-138 1049,-138 1049,4 -4,4"/>
<!-- Node206 -->
<g id="node1" class="node">
<title>Node206</title>
<polygon fill="#bfbfbf" stroke="#000000" points="0,-76.5 0,-95.5 86,-95.5 86,-76.5 0,-76.5"/>
<text text-anchor="middle" x="43" y="-83.5" font-family="Helvetica,sans-Serif" font-size="10.00" fill="#000000">getLastUpdated</text>
</g>
<!-- Node207 -->
<g id="node2" class="node">
<title>Node207</title>
<g id="a_node2"><a xlink:href="classSNN.html#a876185f4e003c98fb227861e7b84fded" target="_top" xlink:title="copy required spikes from firing buffer to spike buffer ">
<polygon fill="#ffffff" stroke="#000000" points="122,-76.5 122,-95.5 253,-95.5 253,-76.5 122,-76.5"/>
<text text-anchor="middle" x="187.5" y="-83.5" font-family="Helvetica,sans-Serif" font-size="10.00" fill="#000000">SNN::updateSpikeMonitor</text>
</a>
</g>
</g>
<!-- Node206&#45;&gt;Node207 -->
<g id="edge1" class="edge">
<title>Node206&#45;&gt;Node207</title>
<path fill="none" stroke="#191970" d="M96.6087,-86C104.8799,-86 113.501,-86 121.9965,-86"/>
<polygon fill="#191970" stroke="#191970" points="96.3548,-82.5001 86.3548,-86 96.3547,-89.5001 96.3548,-82.5001"/>
</g>
<!-- Node208 -->
<g id="node3" class="node">
<title>Node208</title>
<g id="a_node3"><a xlink:href="classSNN.html#a3df37c7539f784fe7a939c5da922f41b" target="_top" xlink:title="run the simulation for n sec ">
<polygon fill="#ffffff" stroke="#000000" points="289,-114.5 289,-133.5 384,-133.5 384,-114.5 289,-114.5"/>
<text text-anchor="middle" x="336.5" y="-121.5" font-family="Helvetica,sans-Serif" font-size="10.00" fill="#000000">SNN::runNetwork</text>
</a>
</g>
</g>
<!-- Node207&#45;&gt;Node208 -->
<g id="edge2" class="edge">
<title>Node207&#45;&gt;Node208</title>
<path fill="none" stroke="#191970" d="M234.9922,-98.1121C255.7436,-103.4044 279.7282,-109.5213 299.1714,-114.4799"/>
<polygon fill="#191970" stroke="#191970" points="235.6538,-94.6689 225.099,-95.589 233.9239,-101.4518 235.6538,-94.6689"/>
</g>
<!-- Node213 -->
<g id="node8" class="node">
<title>Node213</title>
<g id="a_node8"><a xlink:href="classSpikeMonitorCore.html#ab91616c118b701c2afd9136393d1f19b" target="_top" xlink:title="starts recording AER data ">
<polygon fill="#ffffff" stroke="#000000" points="296.5,-76.5 296.5,-95.5 376.5,-95.5 376.5,-76.5 296.5,-76.5"/>
<text text-anchor="middle" x="336.5" y="-83.5" font-family="Helvetica,sans-Serif" font-size="10.00" fill="#000000">startRecording</text>
</a>
</g>
</g>
<!-- Node207&#45;&gt;Node213 -->
<g id="edge7" class="edge">
<title>Node207&#45;&gt;Node213</title>
<path fill="none" stroke="#191970" d="M263.2924,-86C274.6962,-86 286.0596,-86 296.3134,-86"/>
<polygon fill="#191970" stroke="#191970" points="263.2873,-82.5001 253.2873,-86 263.2873,-89.5001 263.2873,-82.5001"/>
</g>
<!-- Node217 -->
<g id="node12" class="node">
<title>Node217</title>
<g id="a_node12"><a xlink:href="classSpikeMonitorCore.html#a25e0e98dd4519eaaa6b258f0dcb91ac7" target="_top" xlink:title="stops recording AER data ">
<polygon fill="#ffffff" stroke="#000000" points="296.5,-38.5 296.5,-57.5 376.5,-57.5 376.5,-38.5 296.5,-38.5"/>
<text text-anchor="middle" x="336.5" y="-45.5" font-family="Helvetica,sans-Serif" font-size="10.00" fill="#000000">stopRecording</text>
</a>
</g>
</g>
<!-- Node207&#45;&gt;Node217 -->
<g id="edge13" class="edge">
<title>Node207&#45;&gt;Node217</title>
<path fill="none" stroke="#191970" d="M234.9922,-73.8879C255.7436,-68.5956 279.7282,-62.4787 299.1714,-57.5201"/>
<polygon fill="#191970" stroke="#191970" points="233.9239,-70.5482 225.099,-76.411 235.6538,-77.3311 233.9239,-70.5482"/>
</g>
<!-- Node209 -->
<g id="node4" class="node">
<title>Node209</title>
<g id="a_node4"><a xlink:href="classCARLsim_1_1Impl.html#a749f370debe5eec8661cf9ca1b1bb4c0" target="_top" xlink:title="CARLsim::Impl::runNetwork">
<polygon fill="#ffffff" stroke="#000000" points="421.5,-114.5 421.5,-133.5 561.5,-133.5 561.5,-114.5 421.5,-114.5"/>
<text text-anchor="middle" x="491.5" y="-121.5" font-family="Helvetica,sans-Serif" font-size="10.00" fill="#000000">CARLsim::Impl::runNetwork</text>
</a>
</g>
</g>
<!-- Node208&#45;&gt;Node209 -->
<g id="edge3" class="edge">
<title>Node208&#45;&gt;Node209</title>
<path fill="none" stroke="#191970" d="M394.4017,-124C403.1989,-124 412.3567,-124 421.3798,-124"/>
<polygon fill="#191970" stroke="#191970" points="394.2699,-120.5001 384.2699,-124 394.2698,-127.5001 394.2699,-120.5001"/>
</g>
<!-- Node210 -->
<g id="node5" class="node">
<title>Node210</title>
<g id="a_node5"><a xlink:href="classCARLsim.html#aafb2d44405c96aafe089f96ff867018d" target="_top" xlink:title="run the simulation for time=(nSec*seconds + nMsec*milliseconds) ">
<polygon fill="#ffffff" stroke="#000000" points="620,-114.5 620,-133.5 736,-133.5 736,-114.5 620,-114.5"/>
<text text-anchor="middle" x="678" y="-121.5" font-family="Helvetica,sans-Serif" font-size="10.00" fill="#000000">CARLsim::runNetwork</text>
</a>
</g>
</g>
<!-- Node209&#45;&gt;Node210 -->
<g id="edge4" class="edge">
<title>Node209&#45;&gt;Node210</title>
<path fill="none" stroke="#191970" d="M571.7499,-124C587.9632,-124 604.7113,-124 619.9817,-124"/>
<polygon fill="#191970" stroke="#191970" points="571.7419,-120.5001 561.7419,-124 571.7419,-127.5001 571.7419,-120.5001"/>
</g>
<!-- Node211 -->
<g id="node6" class="node">
<title>Node211</title>
<g id="a_node6"><a xlink:href="classSimpleWeightTuner_1_1Impl.html#a312d84bfa66a5036bb52a4c39db6fa6c" target="_top" xlink:title="SimpleWeightTuner::\lImpl::iterate">
<polygon fill="#ffffff" stroke="#000000" points="793,-52 793,-82 901,-82 901,-52 793,-52"/>
<text text-anchor="start" x="801" y="-70" font-family="Helvetica,sans-Serif" font-size="10.00" fill="#000000">SimpleWeightTuner::</text>
<text text-anchor="middle" x="847" y="-59" font-family="Helvetica,sans-Serif" font-size="10.00" fill="#000000">Impl::iterate</text>
</a>
</g>
</g>
<!-- Node210&#45;&gt;Node211 -->
<g id="edge5" class="edge">
<title>Node210&#45;&gt;Node211</title>
<path fill="none" stroke="#191970" d="M733.2014,-111.9467C741.2445,-109.8375 749.3787,-107.5068 757,-105 776.6561,-98.5348 798.0175,-89.6015 814.9948,-82.0208"/>
<polygon fill="#191970" stroke="#191970" points="732.3129,-108.5611 723.4765,-114.4065 734.0294,-115.3474 732.3129,-108.5611"/>
</g>
<!-- Node212 -->
<g id="node7" class="node">
<title>Node212</title>
<g id="a_node7"><a xlink:href="classSimpleWeightTuner.html#a0df985e3ff7a27edc1e2e3fcc8261843" target="_top" xlink:title="Performs an iteration step of the tuning algorithm. ">
<polygon fill="#ffffff" stroke="#000000" points="937,-52 937,-82 1045,-82 1045,-52 937,-52"/>
<text text-anchor="start" x="945" y="-70" font-family="Helvetica,sans-Serif" font-size="10.00" fill="#000000">SimpleWeightTuner::</text>
<text text-anchor="middle" x="991" y="-59" font-family="Helvetica,sans-Serif" font-size="10.00" fill="#000000">iterate</text>
</a>
</g>
</g>
<!-- Node211&#45;&gt;Node212 -->
<g id="edge6" class="edge">
<title>Node211&#45;&gt;Node212</title>
<path fill="none" stroke="#191970" d="M911.2702,-67C919.7504,-67 928.3754,-67 936.6672,-67"/>
<polygon fill="#191970" stroke="#191970" points="911.03,-63.5001 901.03,-67 911.0299,-70.5001 911.03,-63.5001"/>
</g>
<!-- Node214 -->
<g id="node9" class="node">
<title>Node214</title>
<g id="a_node9"><a xlink:href="classSpikeMonitor.html#ab91616c118b701c2afd9136393d1f19b" target="_top" xlink:title="Starts a new recording period. ">
<polygon fill="#ffffff" stroke="#000000" points="606.5,-76.5 606.5,-95.5 749.5,-95.5 749.5,-76.5 606.5,-76.5"/>
<text text-anchor="middle" x="678" y="-83.5" font-family="Helvetica,sans-Serif" font-size="10.00" fill="#000000">SpikeMonitor::startRecording</text>
</a>
</g>
</g>
<!-- Node213&#45;&gt;Node214 -->
<g id="edge8" class="edge">
<title>Node213&#45;&gt;Node214</title>
<path fill="none" stroke="#191970" d="M386.705,-86C444.7263,-86 540.6492,-86 606.4624,-86"/>
<polygon fill="#191970" stroke="#191970" points="386.6786,-82.5001 376.6786,-86 386.6786,-89.5001 386.6786,-82.5001"/>
</g>
<!-- Node215 -->
<g id="node10" class="node">
<title>Node215</title>
<g id="a_node10"><a xlink:href="classSpikeMonitorCore.html#a7ac2c997b5281ea2f2bc00cc9706d37c" target="_top" xlink:title="sets status of PersistentData mode ">
<polygon fill="#ffffff" stroke="#000000" points="444,-38.5 444,-57.5 539,-57.5 539,-38.5 444,-38.5"/>
<text text-anchor="middle" x="491.5" y="-45.5" font-family="Helvetica,sans-Serif" font-size="10.00" fill="#000000">setPersistentData</text>
</a>
</g>
</g>
<!-- Node213&#45;&gt;Node215 -->
<g id="edge10" class="edge">
<title>Node213&#45;&gt;Node215</title>
<path fill="none" stroke="#191970" d="M385.6105,-73.96C407.2647,-68.6512 432.3502,-62.5012 452.6682,-57.5201"/>
<polygon fill="#191970" stroke="#191970" points="384.492,-70.6305 375.613,-76.411 386.1588,-77.4292 384.492,-70.6305"/>
</g>
<!-- Node214&#45;&gt;Node211 -->
<g id="edge9" class="edge">
<title>Node214&#45;&gt;Node211</title>
<path fill="none" stroke="#191970" d="M759.9175,-76.7903C771.1178,-75.5311 782.3786,-74.2651 792.9118,-73.0809"/>
<polygon fill="#191970" stroke="#191970" points="759.2176,-73.3469 749.6712,-77.9423 759.9997,-80.3031 759.2176,-73.3469"/>
</g>
<!-- Node216 -->
<g id="node11" class="node">
<title>Node216</title>
<g id="a_node11"><a xlink:href="classSpikeMonitor.html#a7ac2c997b5281ea2f2bc00cc9706d37c" target="_top" xlink:title="Sets PersistentMode either on (true) or off (false) ">
<polygon fill="#ffffff" stroke="#000000" points="599,-38.5 599,-57.5 757,-57.5 757,-38.5 599,-38.5"/>
<text text-anchor="middle" x="678" y="-45.5" font-family="Helvetica,sans-Serif" font-size="10.00" fill="#000000">SpikeMonitor::setPersistentData</text>
</a>
</g>
</g>
<!-- Node215&#45;&gt;Node216 -->
<g id="edge11" class="edge">
<title>Node215&#45;&gt;Node216</title>
<path fill="none" stroke="#191970" d="M549.0916,-48C564.7623,-48 582.0148,-48 598.6621,-48"/>
<polygon fill="#191970" stroke="#191970" points="549.0444,-44.5001 539.0444,-48 549.0443,-51.5001 549.0444,-44.5001"/>
</g>
<!-- Node216&#45;&gt;Node211 -->
<g id="edge12" class="edge">
<title>Node216&#45;&gt;Node211</title>
<path fill="none" stroke="#191970" d="M767.218,-58.0304C775.8663,-59.0027 784.4485,-59.9676 792.6007,-60.8841"/>
<polygon fill="#191970" stroke="#191970" points="767.3855,-54.5273 757.0571,-56.8881 766.6034,-61.4835 767.3855,-54.5273"/>
</g>
<!-- Node217&#45;&gt;Node215 -->
<g id="edge16" class="edge">
<title>Node217&#45;&gt;Node215</title>
<path fill="none" stroke="#191970" d="M387.0069,-48C405.3101,-48 425.9088,-48 443.9489,-48"/>
<polygon fill="#191970" stroke="#191970" points="386.8198,-44.5001 376.8198,-48 386.8198,-51.5001 386.8198,-44.5001"/>
</g>
<!-- Node218 -->
<g id="node13" class="node">
<title>Node218</title>
<g id="a_node13"><a xlink:href="classSpikeMonitor.html#a25e0e98dd4519eaaa6b258f0dcb91ac7" target="_top" xlink:title="Ends a recording period. ">
<polygon fill="#ffffff" stroke="#000000" points="420,-.5 420,-19.5 563,-19.5 563,-.5 420,-.5"/>
<text text-anchor="middle" x="491.5" y="-7.5" font-family="Helvetica,sans-Serif" font-size="10.00" fill="#000000">SpikeMonitor::stopRecording</text>
</a>
</g>
</g>
<!-- Node217&#45;&gt;Node218 -->
<g id="edge14" class="edge">
<title>Node217&#45;&gt;Node218</title>
<path fill="none" stroke="#191970" d="M385.6105,-35.96C407.2647,-30.6512 432.3502,-24.5012 452.6682,-19.5201"/>
<polygon fill="#191970" stroke="#191970" points="384.492,-32.6305 375.613,-38.411 386.1588,-39.4292 384.492,-32.6305"/>
</g>
<!-- Node218&#45;&gt;Node211 -->
<g id="edge15" class="edge">
<title>Node218&#45;&gt;Node211</title>
<path fill="none" stroke="#191970" d="M573.2136,-8.9759C626.2624,-9.9854 696.5262,-14.4905 757,-29 778.2754,-34.1046 800.9622,-43.7137 818.2356,-51.9915"/>
<polygon fill="#191970" stroke="#191970" points="573.2308,-5.4759 563.1785,-8.8225 573.1238,-12.475 573.2308,-5.4759"/>
</g>
</g>
</svg>
