<?xml version="1.0" encoding="UTF-8" standalone="no"?>
<!DOCTYPE svg PUBLIC "-//W3C//DTD SVG 1.1//EN"
 "http://www.w3.org/Graphics/SVG/1.1/DTD/svg11.dtd">
<!-- Generated by graphviz version 2.40.1 (20161225.0304)
 -->
<!-- Title: takeSnapshot Pages: 1 -->
<svg width="827pt" height="484pt"
 viewBox="0.00 0.00 827.00 484.00" xmlns="http://www.w3.org/2000/svg" xmlns:xlink="http://www.w3.org/1999/xlink">
<g id="graph0" class="graph" transform="scale(1 1) rotate(0) translate(4 480)">
<title>takeSnapshot</title>
<polygon fill="#ffffff" stroke="transparent" points="-4,4 -4,-480 823,-480 823,4 -4,4"/>
<!-- Node151 -->
<g id="node1" class="node">
<title>Node151</title>
<polygon fill="#bfbfbf" stroke="#000000" points="0,-304.5 0,-323.5 77,-323.5 77,-304.5 0,-304.5"/>
<text text-anchor="middle" x="38.5" y="-311.5" font-family="Helvetica,sans-Serif" font-size="10.00" fill="#000000">takeSnapshot</text>
</g>
<!-- Node152 -->
<g id="node2" class="node">
<title>Node152</title>
<g id="a_node2"><a xlink:href="classConnectionMonitorCore.html#ab64d9ff17fece61e850660bdd4ca00d2" target="_top" xlink:title="ConnectionMonitorCore\l::takeSnapshot">
<polygon fill="#ffffff" stroke="#000000" points="113,-299 113,-329 232,-329 232,-299 113,-299"/>
<text text-anchor="start" x="121" y="-317" font-family="Helvetica,sans-Serif" font-size="10.00" fill="#000000">ConnectionMonitorCore</text>
<text text-anchor="middle" x="172.5" y="-306" font-family="Helvetica,sans-Serif" font-size="10.00" fill="#000000">::takeSnapshot</text>
</a>
</g>
</g>
<!-- Node151&#45;&gt;Node152 -->
<g id="edge1" class="edge">
<title>Node151&#45;&gt;Node152</title>
<path fill="none" stroke="#191970" d="M77.2584,-314C85.2584,-314 93.9161,-314 102.6385,-314"/>
<polygon fill="#191970" stroke="#191970" points="102.8721,-317.5001 112.8721,-314 102.872,-310.5001 102.8721,-317.5001"/>
</g>
<!-- Node153 -->
<g id="node3" class="node">
<title>Node153</title>
<g id="a_node3"><a xlink:href="classConnectionMonitorCore.html#a879cc76753757f4df109f005aac872a5" target="_top" xlink:title="writes each snapshot to connect file ">
<polygon fill="#ffffff" stroke="#000000" points="268,-348 268,-378 405,-378 405,-348 268,-348"/>
<text text-anchor="start" x="276" y="-366" font-family="Helvetica,sans-Serif" font-size="10.00" fill="#000000">ConnectionMonitorCore</text>
<text text-anchor="middle" x="336.5" y="-355" font-family="Helvetica,sans-Serif" font-size="10.00" fill="#000000">::writeConnectFileSnapshot</text>
</a>
</g>
</g>
<!-- Node152&#45;&gt;Node153 -->
<g id="edge2" class="edge">
<title>Node152&#45;&gt;Node153</title>
<path fill="none" stroke="#191970" d="M223.0436,-329.1014C239.9579,-334.1551 258.9769,-339.8376 276.5391,-345.0848"/>
<polygon fill="#191970" stroke="#191970" points="275.5398,-348.4391 286.1233,-347.9484 277.5438,-341.7321 275.5398,-348.4391"/>
</g>
<!-- Node154 -->
<g id="node4" class="node">
<title>Node154</title>
<g id="a_node4"><a xlink:href="classConnectionMonitorCore.html#a02fd73d861ef2e4aabb38c0c9ff82947" target="_top" xlink:title="ConnectionMonitorCore\l::init">
<polygon fill="#ffffff" stroke="#000000" points="277,-299 277,-329 396,-329 396,-299 277,-299"/>
<text text-anchor="start" x="285" y="-317" font-family="Helvetica,sans-Serif" font-size="10.00" fill="#000000">ConnectionMonitorCore</text>
<text text-anchor="middle" x="336.5" y="-306" font-family="Helvetica,sans-Serif" font-size="10.00" fill="#000000">::init</text>
</a>
</g>
</g>
<!-- Node152&#45;&gt;Node154 -->
<g id="edge3" class="edge">
<title>Node152&#45;&gt;Node154</title>
<path fill="none" stroke="#191970" d="M232.1717,-314C243.4345,-314 255.3057,-314 266.8433,-314"/>
<polygon fill="#191970" stroke="#191970" points="266.8728,-317.5001 276.8727,-314 266.8727,-310.5001 266.8728,-317.5001"/>
</g>
<!-- Node169 -->
<g id="node19" class="node">
<title>Node169</title>
<g id="a_node19"><a xlink:href="classSNN.html#ac13b30c40669d3cb8264bd6e211b449d" target="_top" xlink:title="SNN::getGroupGrid3D">
<polygon fill="#ffffff" stroke="#000000" points="676.5,-.5 676.5,-19.5 791.5,-19.5 791.5,-.5 676.5,-.5"/>
<text text-anchor="middle" x="734" y="-7.5" font-family="Helvetica,sans-Serif" font-size="10.00" fill="#000000">SNN::getGroupGrid3D</text>
</a>
</g>
</g>
<!-- Node152&#45;&gt;Node169 -->
<g id="edge23" class="edge">
<title>Node152&#45;&gt;Node169</title>
<path fill="none" stroke="#191970" d="M192.6182,-298.6823C256.0172,-251.16 458.7356,-104.8776 649,-29 655.417,-26.4409 662.2508,-24.1901 669.1483,-22.219"/>
<polygon fill="#191970" stroke="#191970" points="670.4952,-25.4824 679.2584,-19.528 668.6946,-18.718 670.4952,-25.4824"/>
</g>
<!-- Node155 -->
<g id="node5" class="node">
<title>Node155</title>
<g id="a_node5"><a xlink:href="classSNN.html#a11e19a0ccbeca92ba843a5933b3321e0" target="_top" xlink:title="SNN::getGroupNumNeurons">
<polygon fill="#ffffff" stroke="#000000" points="456,-456.5 456,-475.5 598,-475.5 598,-456.5 456,-456.5"/>
<text text-anchor="middle" x="527" y="-463.5" font-family="Helvetica,sans-Serif" font-size="10.00" fill="#000000">SNN::getGroupNumNeurons</text>
</a>
</g>
</g>
<!-- Node154&#45;&gt;Node155 -->
<g id="edge4" class="edge">
<title>Node154&#45;&gt;Node155</title>
<path fill="none" stroke="#191970" d="M391.9706,-329.0148C396.7529,-331.7996 401.2054,-335.0969 405,-339 440.2692,-375.2778 403.4064,-413.1367 441,-447 442.9385,-448.7461 445.0006,-450.3439 447.1612,-451.8053"/>
<polygon fill="#191970" stroke="#191970" points="445.5076,-454.8912 455.9306,-456.7917 448.9677,-448.8062 445.5076,-454.8912"/>
</g>
<!-- Node156 -->
<g id="node6" class="node">
<title>Node156</title>
<g id="a_node6"><a xlink:href="classSNN.html#a821a04dec998f1fcebcc048d39cc8b21" target="_top" xlink:title="returns whether synapses in connection are fixed (false) or plastic (true) ">
<polygon fill="#ffffff" stroke="#000000" points="461.5,-418.5 461.5,-437.5 592.5,-437.5 592.5,-418.5 461.5,-418.5"/>
<text text-anchor="middle" x="527" y="-425.5" font-family="Helvetica,sans-Serif" font-size="10.00" fill="#000000">SNN::isConnectionPlastic</text>
</a>
</g>
</g>
<!-- Node154&#45;&gt;Node156 -->
<g id="edge5" class="edge">
<title>Node154&#45;&gt;Node156</title>
<path fill="none" stroke="#191970" d="M390.3438,-329.0915C395.6236,-331.8725 400.6329,-335.1476 405,-339 431.2352,-362.1433 413.2902,-387.6443 441,-409 444.4063,-411.6252 448.1021,-413.9028 451.9827,-415.8777"/>
<polygon fill="#191970" stroke="#191970" points="450.7588,-419.1623 461.3238,-419.9571 453.5604,-412.7474 450.7588,-419.1623"/>
</g>
<!-- Node157 -->
<g id="node7" class="node">
<title>Node157</title>
<g id="a_node7"><a xlink:href="classSNN.html#a52f149e224abff772962dea6680398e2" target="_top" xlink:title="gets number of connections associated with a connection ID ">
<polygon fill="#ffffff" stroke="#000000" points="441,-380.5 441,-399.5 613,-399.5 613,-380.5 441,-380.5"/>
<text text-anchor="middle" x="527" y="-387.5" font-family="Helvetica,sans-Serif" font-size="10.00" fill="#000000">SNN::getNumSynapticConnections</text>
</a>
</g>
</g>
<!-- Node154&#45;&gt;Node157 -->
<g id="edge6" class="edge">
<title>Node154&#45;&gt;Node157</title>
<path fill="none" stroke="#191970" d="M383.3682,-329.0124C390.7679,-331.9742 398.2109,-335.3199 405,-339 422.583,-348.5309 423.0597,-357.1601 441,-366 450.3781,-370.621 460.784,-374.4729 471.0252,-377.6403"/>
<polygon fill="#191970" stroke="#191970" points="470.1751,-381.038 480.7547,-380.4701 472.13,-374.3165 470.1751,-381.038"/>
</g>
<!-- Node159 -->
<g id="node9" class="node">
<title>Node159</title>
<g id="a_node9"><a xlink:href="classSNN.html#acdfe8b1c7c69be228cc51535cfec0215" target="_top" xlink:title="required for homeostasis ">
<polygon fill="#ffffff" stroke="#000000" points="672.5,-342.5 672.5,-361.5 795.5,-361.5 795.5,-342.5 672.5,-342.5"/>
<text text-anchor="middle" x="734" y="-349.5" font-family="Helvetica,sans-Serif" font-size="10.00" fill="#000000">SNN::getConnectConfig</text>
</a>
</g>
</g>
<!-- Node154&#45;&gt;Node159 -->
<g id="edge8" class="edge">
<title>Node154&#45;&gt;Node159</title>
<path fill="none" stroke="#191970" d="M396.0015,-326.0413C410.6627,-328.6699 426.3584,-331.2003 441,-333 516.2084,-342.2445 602.8665,-347.1593 662.3192,-349.6557"/>
<polygon fill="#191970" stroke="#191970" points="662.2224,-353.1546 672.3568,-350.065 662.5077,-346.1604 662.2224,-353.1546"/>
</g>
<!-- Node160 -->
<g id="node10" class="node">
<title>Node160</title>
<g id="a_node10"><a xlink:href="classSNN.html#aca55cbeeccd57d4b6de64ca8e1d7d2c5" target="_top" xlink:title="function writes population weights from gIDpre to gIDpost to file fname in binary. ">
<polygon fill="#ffffff" stroke="#000000" points="479,-304.5 479,-323.5 575,-323.5 575,-304.5 479,-304.5"/>
<text text-anchor="middle" x="527" y="-311.5" font-family="Helvetica,sans-Serif" font-size="10.00" fill="#000000">SNN::getLogFpInf</text>
</a>
</g>
</g>
<!-- Node154&#45;&gt;Node160 -->
<g id="edge9" class="edge">
<title>Node154&#45;&gt;Node160</title>
<path fill="none" stroke="#191970" d="M396.2527,-314C419.341,-314 445.6764,-314 468.6318,-314"/>
<polygon fill="#191970" stroke="#191970" points="468.9173,-317.5001 478.9173,-314 468.9172,-310.5001 468.9173,-317.5001"/>
</g>
<!-- Node161 -->
<g id="node11" class="node">
<title>Node161</title>
<g id="a_node11"><a xlink:href="classSNN.html#a5de043bd478d97d08d1671967cddc551" target="_top" xlink:title="returns file pointer to error log ">
<polygon fill="#ffffff" stroke="#000000" points="478,-266.5 478,-285.5 576,-285.5 576,-266.5 478,-266.5"/>
<text text-anchor="middle" x="527" y="-273.5" font-family="Helvetica,sans-Serif" font-size="10.00" fill="#000000">SNN::getLogFpErr</text>
</a>
</g>
</g>
<!-- Node154&#45;&gt;Node161 -->
<g id="edge10" class="edge">
<title>Node154&#45;&gt;Node161</title>
<path fill="none" stroke="#191970" d="M396.2527,-302.0808C419.54,-297.4356 446.1308,-292.1314 469.2248,-287.5247"/>
<polygon fill="#191970" stroke="#191970" points="470.1035,-290.9185 479.2256,-285.5298 468.7341,-284.0537 470.1035,-290.9185"/>
</g>
<!-- Node162 -->
<g id="node12" class="node">
<title>Node162</title>
<g id="a_node12"><a xlink:href="classSNN.html#a618dd0ac460a947283a39c3044e727d6" target="_top" xlink:title="returns file pointer to debug log ">
<polygon fill="#ffffff" stroke="#000000" points="475.5,-228.5 475.5,-247.5 578.5,-247.5 578.5,-228.5 475.5,-228.5"/>
<text text-anchor="middle" x="527" y="-235.5" font-family="Helvetica,sans-Serif" font-size="10.00" fill="#000000">SNN::getLogFpDeb</text>
</a>
</g>
</g>
<!-- Node154&#45;&gt;Node162 -->
<g id="edge11" class="edge">
<title>Node154&#45;&gt;Node162</title>
<path fill="none" stroke="#191970" d="M359.6625,-298.8771C380.2591,-286.0471 411.5839,-268.0183 441,-257 448.8218,-254.0702 457.2212,-251.5256 465.5956,-249.3353"/>
<polygon fill="#191970" stroke="#191970" points="466.5065,-252.7156 475.3788,-246.9249 464.8318,-245.9189 466.5065,-252.7156"/>
</g>
<!-- Node163 -->
<g id="node13" class="node">
<title>Node163</title>
<g id="a_node13"><a xlink:href="classSNN.html#acd2fe569d2092f6e9cf624d18b93b1bf" target="_top" xlink:title="returns file pointer to log file ">
<polygon fill="#ffffff" stroke="#000000" points="476.5,-190.5 476.5,-209.5 577.5,-209.5 577.5,-190.5 476.5,-190.5"/>
<text text-anchor="middle" x="527" y="-197.5" font-family="Helvetica,sans-Serif" font-size="10.00" fill="#000000">SNN::getLogFpLog</text>
</a>
</g>
</g>
<!-- Node154&#45;&gt;Node163 -->
<g id="edge12" class="edge">
<title>Node154&#45;&gt;Node163</title>
<path fill="none" stroke="#191970" d="M348.5963,-298.8619C366.4622,-277.5823 402.0232,-239.1743 441,-219 448.893,-214.9146 457.6353,-211.7049 466.4343,-209.1838"/>
<polygon fill="#191970" stroke="#191970" points="467.5449,-212.5119 476.3504,-206.6201 465.7927,-205.7347 467.5449,-212.5119"/>
</g>
<!-- Node158 -->
<g id="node8" class="node">
<title>Node158</title>
<g id="a_node8"><a xlink:href="classSNN.html#a477f99451786873b73e2623b6f89b766" target="_top" xlink:title="deallocates all dynamical structures and exits ">
<polygon fill="#ffffff" stroke="#000000" points="681,-380.5 681,-399.5 787,-399.5 787,-380.5 681,-380.5"/>
<text text-anchor="middle" x="734" y="-387.5" font-family="Helvetica,sans-Serif" font-size="10.00" fill="#000000">SNN::exitSimulation</text>
</a>
</g>
</g>
<!-- Node157&#45;&gt;Node158 -->
<g id="edge7" class="edge">
<title>Node157&#45;&gt;Node158</title>
<path fill="none" stroke="#191970" d="M613.2877,-390C632.5734,-390 652.6794,-390 670.8253,-390"/>
<polygon fill="#191970" stroke="#191970" points="670.9733,-393.5001 680.9732,-390 670.9732,-386.5001 670.9733,-393.5001"/>
</g>
<!-- Node163&#45;&gt;Node159 -->
<g id="edge15" class="edge">
<title>Node163&#45;&gt;Node159</title>
<path fill="none" stroke="#191970" d="M577.5716,-202.2626C590.4113,-205.0643 603.2996,-210.1217 613,-219 652.1948,-254.8731 609.8496,-297.0784 649,-333 653.1085,-336.7697 657.7971,-339.8476 662.8133,-342.3549"/>
<polygon fill="#191970" stroke="#191970" points="661.5669,-345.6276 672.1418,-346.2777 664.2804,-339.1749 661.5669,-345.6276"/>
</g>
<!-- Node164 -->
<g id="node14" class="node">
<title>Node164</title>
<g id="a_node14"><a xlink:href="classSNN.html#a2f4a65f43d2b15b984464dfb19959fe3" target="_top" xlink:title="Sets the file pointers for all log files file pointer NULL means don&#39;t change it. ...">
<polygon fill="#ffffff" stroke="#000000" points="689,-304.5 689,-323.5 779,-323.5 779,-304.5 689,-304.5"/>
<text text-anchor="middle" x="734" y="-311.5" font-family="Helvetica,sans-Serif" font-size="10.00" fill="#000000">SNN::setLogsFp</text>
</a>
</g>
</g>
<!-- Node163&#45;&gt;Node164 -->
<g id="edge13" class="edge">
<title>Node163&#45;&gt;Node164</title>
<path fill="none" stroke="#191970" d="M577.6964,-203.3641C590.244,-206.197 602.9559,-210.9945 613,-219 642.2277,-242.2955 619.8012,-271.6683 649,-295 657.5921,-301.8656 668.1634,-306.3637 678.8955,-309.2853"/>
<polygon fill="#191970" stroke="#191970" points="678.2149,-312.7201 688.7447,-311.548 679.7822,-305.8978 678.2149,-312.7201"/>
</g>
<!-- Node165 -->
<g id="node15" class="node">
<title>Node165</title>
<g id="a_node15"><a xlink:href="classSNN.html#a44b05911f213714c351379021852e12a" target="_top" xlink:title="find connection ID based on pre&#45;post group pair, O(N) ">
<polygon fill="#ffffff" stroke="#000000" points="682.5,-266.5 682.5,-285.5 785.5,-285.5 785.5,-266.5 682.5,-266.5"/>
<text text-anchor="middle" x="734" y="-273.5" font-family="Helvetica,sans-Serif" font-size="10.00" fill="#000000">SNN::getConnectId</text>
</a>
</g>
</g>
<!-- Node163&#45;&gt;Node165 -->
<g id="edge14" class="edge">
<title>Node163&#45;&gt;Node165</title>
<path fill="none" stroke="#191970" d="M577.5076,-205.9464C589.6529,-208.7588 602.2207,-212.9005 613,-219 633.2477,-230.4571 628.7665,-245.5178 649,-257 656.2783,-261.1303 664.3823,-264.3628 672.6148,-266.8926"/>
<polygon fill="#191970" stroke="#191970" points="671.7264,-270.2781 682.2963,-269.5513 673.5801,-263.528 671.7264,-270.2781"/>
</g>
<!-- Node166 -->
<g id="node16" class="node">
<title>Node166</title>
<g id="a_node16"><a xlink:href="classSNN.html#a37221c7881b5fa8d1d806804fb9521ab" target="_top" xlink:title="SNN::getConnSTDPInfo">
<polygon fill="#ffffff" stroke="#000000" points="671.5,-228.5 671.5,-247.5 796.5,-247.5 796.5,-228.5 671.5,-228.5"/>
<text text-anchor="middle" x="734" y="-235.5" font-family="Helvetica,sans-Serif" font-size="10.00" fill="#000000">SNN::getConnSTDPInfo</text>
</a>
</g>
</g>
<!-- Node163&#45;&gt;Node166 -->
<g id="edge16" class="edge">
<title>Node163&#45;&gt;Node166</title>
<path fill="none" stroke="#191970" d="M577.6379,-209.2958C606.1348,-214.5272 641.94,-221.1001 672.0945,-226.6357"/>
<polygon fill="#191970" stroke="#191970" points="671.6179,-230.1066 682.0855,-228.4698 672.8819,-223.2217 671.6179,-230.1066"/>
</g>
<!-- Node167 -->
<g id="node17" class="node">
<title>Node167</title>
<g id="a_node17"><a xlink:href="classSNN.html#aee3e497537bc8121f6c0c8fb3730ae72" target="_top" xlink:title="returns the RangeDelay struct of a connection ">
<polygon fill="#ffffff" stroke="#000000" points="678,-190.5 678,-209.5 790,-209.5 790,-190.5 678,-190.5"/>
<text text-anchor="middle" x="734" y="-197.5" font-family="Helvetica,sans-Serif" font-size="10.00" fill="#000000">SNN::getDelayRange</text>
</a>
</g>
</g>
<!-- Node163&#45;&gt;Node167 -->
<g id="edge17" class="edge">
<title>Node163&#45;&gt;Node167</title>
<path fill="none" stroke="#191970" d="M577.6379,-200C604.7261,-200 638.4178,-200 667.5827,-200"/>
<polygon fill="#191970" stroke="#191970" points="667.6917,-203.5001 677.6916,-200 667.6916,-196.5001 667.6917,-203.5001"/>
</g>
<!-- Node168 -->
<g id="node18" class="node">
<title>Node168</title>
<g id="a_node18"><a xlink:href="classSNN.html#a317da03ce4b0b13d9621e277f468e058" target="_top" xlink:title="Returns the delay information for all synaptic connections between a pre&#45;synaptic and a post&#45;synaptic...">
<polygon fill="#ffffff" stroke="#000000" points="689.5,-152.5 689.5,-171.5 778.5,-171.5 778.5,-152.5 689.5,-152.5"/>
<text text-anchor="middle" x="734" y="-159.5" font-family="Helvetica,sans-Serif" font-size="10.00" fill="#000000">SNN::getDelays</text>
</a>
</g>
</g>
<!-- Node163&#45;&gt;Node168 -->
<g id="edge18" class="edge">
<title>Node163&#45;&gt;Node168</title>
<path fill="none" stroke="#191970" d="M577.6379,-190.7042C608.4187,-185.0536 647.7263,-177.8377 679.2294,-172.0545"/>
<polygon fill="#191970" stroke="#191970" points="679.9591,-175.4791 689.1628,-170.231 678.6952,-168.5942 679.9591,-175.4791"/>
</g>
<!-- Node163&#45;&gt;Node169 -->
<g id="edge19" class="edge">
<title>Node163&#45;&gt;Node169</title>
<path fill="none" stroke="#191970" d="M536.6426,-190.4272C553.5259,-173.3323 588.9303,-135.9668 613,-100 632.6773,-70.5967 621.0657,-50.7123 649,-29 654.3744,-24.8227 660.4869,-21.527 666.9118,-18.932"/>
<polygon fill="#191970" stroke="#191970" points="668.1958,-22.1914 676.4989,-15.6104 665.9042,-15.5771 668.1958,-22.1914"/>
</g>
<!-- Node170 -->
<g id="node20" class="node">
<title>Node170</title>
<g id="a_node20"><a xlink:href="classSNN.html#a757c874860e9e4d5ce0716e76b1a3e78" target="_top" xlink:title="SNN::getGroupId">
<polygon fill="#ffffff" stroke="#000000" points="688,-114.5 688,-133.5 780,-133.5 780,-114.5 688,-114.5"/>
<text text-anchor="middle" x="734" y="-121.5" font-family="Helvetica,sans-Serif" font-size="10.00" fill="#000000">SNN::getGroupId</text>
</a>
</g>
</g>
<!-- Node163&#45;&gt;Node170 -->
<g id="edge20" class="edge">
<title>Node163&#45;&gt;Node170</title>
<path fill="none" stroke="#191970" d="M544.2819,-190.456C567.4841,-177.9886 610.2756,-156.199 649,-143 658.1354,-139.8862 667.9994,-137.144 677.6608,-134.7817"/>
<polygon fill="#191970" stroke="#191970" points="678.674,-138.1394 687.6165,-132.4577 677.0827,-131.3226 678.674,-138.1394"/>
</g>
<!-- Node171 -->
<g id="node21" class="node">
<title>Node171</title>
<g id="a_node21"><a xlink:href="classSNN.html#ab0367f8ebd4019bf7d34ebddb1563fe7" target="_top" xlink:title="SNN::getGroupName">
<polygon fill="#ffffff" stroke="#000000" points="679,-76.5 679,-95.5 789,-95.5 789,-76.5 679,-76.5"/>
<text text-anchor="middle" x="734" y="-83.5" font-family="Helvetica,sans-Serif" font-size="10.00" fill="#000000">SNN::getGroupName</text>
</a>
</g>
</g>
<!-- Node163&#45;&gt;Node171 -->
<g id="edge21" class="edge">
<title>Node163&#45;&gt;Node171</title>
<path fill="none" stroke="#191970" d="M536.1215,-190.4899C555.1795,-171.2094 601.4131,-127.4473 649,-105 655.2482,-102.0526 661.9735,-99.5522 668.8066,-97.4329"/>
<polygon fill="#191970" stroke="#191970" points="670.1812,-100.6815 678.8519,-94.593 668.2769,-93.9455 670.1812,-100.6815"/>
</g>
<!-- Node172 -->
<g id="node22" class="node">
<title>Node172</title>
<g id="a_node22"><a xlink:href="classSNN.html#aa1c9457d6e17337cfc20cee263f1159f" target="_top" xlink:title="SNN::getGroupNeuromodulatorInfo">
<polygon fill="#ffffff" stroke="#000000" points="649,-38.5 649,-57.5 819,-57.5 819,-38.5 649,-38.5"/>
<text text-anchor="middle" x="734" y="-45.5" font-family="Helvetica,sans-Serif" font-size="10.00" fill="#000000">SNN::getGroupNeuromodulatorInfo</text>
</a>
</g>
</g>
<!-- Node163&#45;&gt;Node172 -->
<g id="edge22" class="edge">
<title>Node163&#45;&gt;Node172</title>
<path fill="none" stroke="#191970" d="M535.299,-190.3004C560.3915,-161.0675 634.6233,-75.3121 649,-67 652.8597,-64.7685 656.9578,-62.7989 661.1883,-61.0606"/>
<polygon fill="#191970" stroke="#191970" points="662.4295,-64.3335 670.6197,-57.6126 660.0259,-57.759 662.4295,-64.3335"/>
</g>
</g>
</svg>
