<?xml version="1.0" encoding="UTF-8" standalone="no"?>
<!DOCTYPE svg PUBLIC "-//W3C//DTD SVG 1.1//EN"
 "http://www.w3.org/Graphics/SVG/1.1/DTD/svg11.dtd">
<!-- Generated by graphviz version 2.40.1 (20161225.0304)
 -->
<!-- Title: setConnectionModulation Pages: 1 -->
<svg width="536pt" height="39pt"
 viewBox="0.00 0.00 536.00 39.00" xmlns="http://www.w3.org/2000/svg" xmlns:xlink="http://www.w3.org/1999/xlink">
<g id="graph0" class="graph" transform="scale(1 1) rotate(0) translate(4 35)">
<title>setConnectionModulation</title>
<polygon fill="#ffffff" stroke="transparent" points="-4,4 -4,-35 532,-35 532,4 -4,4"/>
<!-- Node1715 -->
<g id="node1" class="node">
<title>Node1715</title>
<polygon fill="#bfbfbf" stroke="#000000" points="0,-6 0,-25 127,-25 127,-6 0,-6"/>
<text text-anchor="middle" x="63.5" y="-13" font-family="Helvetica,sans-Serif" font-size="10.00" fill="#000000">setConnectionModulation</text>
</g>
<!-- Node1716 -->
<g id="node2" class="node">
<title>Node1716</title>
<g id="a_node2"><a xlink:href="classCARLsim_1_1Impl.html#aceb9ef9d09b941d06f3619131ed2d950" target="_top" xlink:title="CARLsim::Impl::setConnection\lModulation">
<polygon fill="#ffffff" stroke="#000000" points="163,-.5 163,-30.5 316,-30.5 316,-.5 163,-.5"/>
<text text-anchor="start" x="171" y="-18.5" font-family="Helvetica,sans-Serif" font-size="10.00" fill="#000000">CARLsim::Impl::setConnection</text>
<text text-anchor="middle" x="239.5" y="-7.5" font-family="Helvetica,sans-Serif" font-size="10.00" fill="#000000">Modulation</text>
</a>
</g>
</g>
<!-- Node1715&#45;&gt;Node1716 -->
<g id="edge1" class="edge">
<title>Node1715&#45;&gt;Node1716</title>
<path fill="none" stroke="#191970" d="M137.2487,-15.5C145.7092,-15.5 154.3503,-15.5 162.8478,-15.5"/>
<polygon fill="#191970" stroke="#191970" points="137.0401,-12.0001 127.04,-15.5 137.04,-19.0001 137.0401,-12.0001"/>
</g>
<!-- Node1717 -->
<g id="node3" class="node">
<title>Node1717</title>
<g id="a_node3"><a xlink:href="classCARLsim.html#aceb9ef9d09b941d06f3619131ed2d950" target="_top" xlink:title="CARLsim::setConnectionModulation">
<polygon fill="#ffffff" stroke="#000000" points="352,-6 352,-25 528,-25 528,-6 352,-6"/>
<text text-anchor="middle" x="440" y="-13" font-family="Helvetica,sans-Serif" font-size="10.00" fill="#000000">CARLsim::setConnectionModulation</text>
</a>
</g>
</g>
<!-- Node1716&#45;&gt;Node1717 -->
<g id="edge2" class="edge">
<title>Node1716&#45;&gt;Node1717</title>
<path fill="none" stroke="#191970" d="M326.4183,-15.5C334.8957,-15.5 343.5025,-15.5 351.9905,-15.5"/>
<polygon fill="#191970" stroke="#191970" points="326.1587,-12.0001 316.1587,-15.5 326.1586,-19.0001 326.1587,-12.0001"/>
</g>
</g>
</svg>
