<?xml version="1.0" encoding="UTF-8" standalone="no"?>
<!DOCTYPE svg PUBLIC "-//W3C//DTD SVG 1.1//EN"
 "http://www.w3.org/Graphics/SVG/1.1/DTD/svg11.dtd">
<!-- Generated by graphviz version 2.40.1 (20161225.0304)
 -->
<!-- Title: getNumSynapses Pages: 1 -->
<svg width="547pt" height="141pt"
 viewBox="0.00 0.00 547.00 141.00" xmlns="http://www.w3.org/2000/svg" xmlns:xlink="http://www.w3.org/1999/xlink">
<g id="graph0" class="graph" transform="scale(1 1) rotate(0) translate(4 137)">
<title>getNumSynapses</title>
<polygon fill="#ffffff" stroke="transparent" points="-4,4 -4,-137 543,-137 543,4 -4,4"/>
<!-- Node95 -->
<g id="node1" class="node">
<title>Node95</title>
<polygon fill="#bfbfbf" stroke="#000000" points="0,-66.5 0,-85.5 95,-85.5 95,-66.5 0,-66.5"/>
<text text-anchor="middle" x="47.5" y="-73.5" font-family="Helvetica,sans-Serif" font-size="10.00" fill="#000000">getNumSynapses</text>
</g>
<!-- Node96 -->
<g id="node2" class="node">
<title>Node96</title>
<g id="a_node2"><a xlink:href="classConnectionMonitorCore.html#ad094dca7a9d2ac2c46e89f1035706eba" target="_top" xlink:title="returns number of weights with &gt;=minAbsChanged weight change since last snapshot ">
<polygon fill="#ffffff" stroke="#000000" points="134,-113.5 134,-132.5 260,-132.5 260,-113.5 134,-113.5"/>
<text text-anchor="middle" x="197" y="-120.5" font-family="Helvetica,sans-Serif" font-size="10.00" fill="#000000">getNumWeightsChanged</text>
</a>
</g>
</g>
<!-- Node95&#45;&gt;Node96 -->
<g id="edge1" class="edge">
<title>Node95&#45;&gt;Node96</title>
<path fill="none" stroke="#191970" d="M77.7536,-85.5112C100.4753,-92.6544 131.8212,-102.509 156.6727,-110.3218"/>
<polygon fill="#191970" stroke="#191970" points="155.9459,-113.7622 166.5352,-113.4224 158.0453,-107.0844 155.9459,-113.7622"/>
</g>
<!-- Node98 -->
<g id="node4" class="node">
<title>Node98</title>
<g id="a_node4"><a xlink:href="classConnectionMonitorCore.html#a6c63078d9c2226cd48f51e4d4ed0d4db" target="_top" xlink:title="returns number of weights with values in range e[minVal,maxVal] (inclusive) ">
<polygon fill="#ffffff" stroke="#000000" points="299,-66.5 299,-85.5 423,-85.5 423,-66.5 299,-66.5"/>
<text text-anchor="middle" x="361" y="-73.5" font-family="Helvetica,sans-Serif" font-size="10.00" fill="#000000">getNumWeightsInRange</text>
</a>
</g>
</g>
<!-- Node95&#45;&gt;Node98 -->
<g id="edge3" class="edge">
<title>Node95&#45;&gt;Node98</title>
<path fill="none" stroke="#191970" d="M95.1139,-70.9906C146.6054,-68.9676 229.2887,-68.708 288.7866,-70.2117"/>
<polygon fill="#191970" stroke="#191970" points="288.7764,-73.7127 298.8693,-70.4904 288.9699,-66.7154 288.7764,-73.7127"/>
</g>
<!-- Node101 -->
<g id="node7" class="node">
<title>Node101</title>
<g id="a_node7"><a xlink:href="classConnectionMonitorCore.html#af0258258ab62c21e22a4bc98dcaa050e" target="_top" xlink:title="returns number of weights that have a certain value ">
<polygon fill="#ffffff" stroke="#000000" points="131,-19.5 131,-38.5 263,-38.5 263,-19.5 131,-19.5"/>
<text text-anchor="middle" x="197" y="-26.5" font-family="Helvetica,sans-Serif" font-size="10.00" fill="#000000">getNumWeightsWithValue</text>
</a>
</g>
</g>
<!-- Node95&#45;&gt;Node101 -->
<g id="edge7" class="edge">
<title>Node95&#45;&gt;Node101</title>
<path fill="none" stroke="#191970" d="M77.7536,-66.4888C100.4753,-59.3456 131.8212,-49.491 156.6727,-41.6782"/>
<polygon fill="#191970" stroke="#191970" points="158.0453,-44.9156 166.5352,-38.5776 155.9459,-38.2378 158.0453,-44.9156"/>
</g>
<!-- Node97 -->
<g id="node3" class="node">
<title>Node97</title>
<g id="a_node3"><a xlink:href="classConnectionMonitorCore.html#a730c0ec47d470c8920ab57288c31ca3b" target="_top" xlink:title="calculates weight changes since last snapshot and reports them in 2D weight change matrix ...">
<polygon fill="#ffffff" stroke="#000000" points="309,-113.5 309,-132.5 413,-132.5 413,-113.5 309,-113.5"/>
<text text-anchor="middle" x="361" y="-120.5" font-family="Helvetica,sans-Serif" font-size="10.00" fill="#000000">calcWeightChanges</text>
</a>
</g>
</g>
<!-- Node96&#45;&gt;Node97 -->
<g id="edge2" class="edge">
<title>Node96&#45;&gt;Node97</title>
<path fill="none" stroke="#191970" d="M260.4067,-123C272.9412,-123 286.0876,-123 298.5888,-123"/>
<polygon fill="#191970" stroke="#191970" points="298.9105,-126.5001 308.9105,-123 298.9104,-119.5001 298.9105,-126.5001"/>
</g>
<!-- Node98&#45;&gt;Node95 -->
<g id="edge6" class="edge">
<title>Node98&#45;&gt;Node95</title>
<path fill="none" stroke="#191970" d="M298.8693,-81.5096C242.5871,-83.2067 160.299,-83.1623 105.3775,-81.3764"/>
<polygon fill="#191970" stroke="#191970" points="105.2326,-77.869 95.1139,-81.0094 104.9824,-84.8646 105.2326,-77.869"/>
</g>
<!-- Node99 -->
<g id="node5" class="node">
<title>Node99</title>
<g id="a_node5"><a xlink:href="classConnectionMonitorCore.html#aa096d9983144b3323d6f370e37b0859c" target="_top" xlink:title="returns min weight in the connection (getCurrent=false: RangeWeight.min, true: current smallest) ...">
<polygon fill="#ffffff" stroke="#000000" points="460.5,-47.5 460.5,-66.5 537.5,-66.5 537.5,-47.5 460.5,-47.5"/>
<text text-anchor="middle" x="499" y="-54.5" font-family="Helvetica,sans-Serif" font-size="10.00" fill="#000000">getMinWeight</text>
</a>
</g>
</g>
<!-- Node98&#45;&gt;Node99 -->
<g id="edge4" class="edge">
<title>Node98&#45;&gt;Node99</title>
<path fill="none" stroke="#191970" d="M423.1371,-67.4449C432.1869,-66.1989 441.3959,-64.931 450.1328,-63.7281"/>
<polygon fill="#191970" stroke="#191970" points="450.7055,-67.1824 460.1346,-62.351 449.7506,-60.2478 450.7055,-67.1824"/>
</g>
<!-- Node100 -->
<g id="node6" class="node">
<title>Node100</title>
<g id="a_node6"><a xlink:href="classConnectionMonitorCore.html#a30f10c789ec0f272848c2a68cd35fa97" target="_top" xlink:title="returns max weight in the connection (getCurrent=false: RangeWeight.max, true: current largest) ...">
<polygon fill="#ffffff" stroke="#000000" points="459,-.5 459,-19.5 539,-19.5 539,-.5 459,-.5"/>
<text text-anchor="middle" x="499" y="-7.5" font-family="Helvetica,sans-Serif" font-size="10.00" fill="#000000">getMaxWeight</text>
</a>
</g>
</g>
<!-- Node98&#45;&gt;Node100 -->
<g id="edge5" class="edge">
<title>Node98&#45;&gt;Node100</title>
<path fill="none" stroke="#191970" d="M381.0664,-66.403C404.3686,-55.2585 443.0111,-36.7773 469.6774,-24.0238"/>
<polygon fill="#191970" stroke="#191970" points="471.3982,-27.0806 478.9094,-19.6085 468.3779,-20.7657 471.3982,-27.0806"/>
</g>
<!-- Node101&#45;&gt;Node98 -->
<g id="edge10" class="edge">
<title>Node101&#45;&gt;Node98</title>
<path fill="none" stroke="#191970" d="M230.1878,-38.5112C255.4457,-45.7497 290.4181,-55.7723 317.848,-63.6333"/>
<polygon fill="#191970" stroke="#191970" points="317.0032,-67.032 327.5805,-66.4224 318.9317,-60.3029 317.0032,-67.032"/>
</g>
<!-- Node101&#45;&gt;Node99 -->
<g id="edge8" class="edge">
<title>Node101&#45;&gt;Node99</title>
<path fill="none" stroke="#191970" d="M263.2752,-35.1447C319.6416,-40.3707 399.2961,-47.7559 450.0465,-52.4613"/>
<polygon fill="#191970" stroke="#191970" points="449.8265,-55.9558 460.1069,-53.394 450.4728,-48.9857 449.8265,-55.9558"/>
</g>
<!-- Node101&#45;&gt;Node100 -->
<g id="edge9" class="edge">
<title>Node101&#45;&gt;Node100</title>
<path fill="none" stroke="#191970" d="M263.2752,-24.8304C319.1543,-21.3148 397.9205,-16.3593 448.7237,-13.1631"/>
<polygon fill="#191970" stroke="#191970" points="449.0485,-16.6497 458.809,-12.5286 448.6089,-9.6635 449.0485,-16.6497"/>
</g>
</g>
</svg>
