<?xml version="1.0" encoding="UTF-8" standalone="no"?>
<!DOCTYPE svg PUBLIC "-//W3C//DTD SVG 1.1//EN"
 "http://www.w3.org/Graphics/SVG/1.1/DTD/svg11.dtd">
<!-- Generated by graphviz version 2.40.1 (20161225.0304)
 -->
<!-- Title: getMaxFiringRate Pages: 1 -->
<svg width="1163pt" height="474pt"
 viewBox="0.00 0.00 1163.00 474.00" xmlns="http://www.w3.org/2000/svg" xmlns:xlink="http://www.w3.org/1999/xlink">
<g id="graph0" class="graph" transform="scale(1 1) rotate(0) translate(4 470)">
<title>getMaxFiringRate</title>
<polygon fill="#ffffff" stroke="transparent" points="-4,4 -4,-470 1159,-470 1159,4 -4,4"/>
<!-- Node219 -->
<g id="node1" class="node">
<title>Node219</title>
<polygon fill="#bfbfbf" stroke="#000000" points="0,-133.5 0,-152.5 94,-152.5 94,-133.5 0,-133.5"/>
<text text-anchor="middle" x="47" y="-140.5" font-family="Helvetica,sans-Serif" font-size="10.00" fill="#000000">getMaxFiringRate</text>
</g>
<!-- Node220 -->
<g id="node2" class="node">
<title>Node220</title>
<g id="a_node2"><a xlink:href="classSpikeMonitorCore.html#a3a3ffdb35b09328d22e5d72503ed1f55" target="_top" xlink:title="returns recording status ">
<polygon fill="#ffffff" stroke="#000000" points="286,-133.5 286,-152.5 354,-152.5 354,-133.5 286,-133.5"/>
<text text-anchor="middle" x="320" y="-140.5" font-family="Helvetica,sans-Serif" font-size="10.00" fill="#000000">isRecording</text>
</a>
</g>
</g>
<!-- Node219&#45;&gt;Node220 -->
<g id="edge1" class="edge">
<title>Node219&#45;&gt;Node220</title>
<path fill="none" stroke="#191970" d="M94.2413,-143C145.2475,-143 225.8639,-143 275.697,-143"/>
<polygon fill="#191970" stroke="#191970" points="275.8419,-146.5001 285.8419,-143 275.8419,-139.5001 275.8419,-146.5001"/>
</g>
<!-- Node233 -->
<g id="node15" class="node">
<title>Node233</title>
<g id="a_node15"><a xlink:href="classSpikeMonitorCore.html#ac0d8bd3f92fa0eae87b37f9245e0e13a" target="_top" xlink:title="returns a list of firing rates for all neurons in the group (sorted by firing rate ascending) ...">
<polygon fill="#ffffff" stroke="#000000" points="130,-114.5 130,-133.5 250,-133.5 250,-114.5 130,-114.5"/>
<text text-anchor="middle" x="190" y="-121.5" font-family="Helvetica,sans-Serif" font-size="10.00" fill="#000000">getAllFiringRatesSorted</text>
</a>
</g>
</g>
<!-- Node219&#45;&gt;Node233 -->
<g id="edge28" class="edge">
<title>Node219&#45;&gt;Node233</title>
<path fill="none" stroke="#191970" d="M94.2199,-136.726C102.406,-135.6384 111.074,-134.4867 119.7182,-133.3381"/>
<polygon fill="#191970" stroke="#191970" points="120.3727,-136.782 129.8246,-131.9953 119.4507,-129.843 120.3727,-136.782"/>
</g>
<!-- Node221 -->
<g id="node3" class="node">
<title>Node221</title>
<g id="a_node3"><a xlink:href="classSpikeMonitorCore.html#af0ba89c38f6852cdf9d914687ad6a445" target="_top" xlink:title="prints the AER vector in human&#45;readable format ">
<polygon fill="#ffffff" stroke="#000000" points="402,-228.5 402,-247.5 437,-247.5 437,-228.5 402,-228.5"/>
<text text-anchor="middle" x="419.5" y="-235.5" font-family="Helvetica,sans-Serif" font-size="10.00" fill="#000000">print</text>
</a>
</g>
</g>
<!-- Node220&#45;&gt;Node221 -->
<g id="edge2" class="edge">
<title>Node220&#45;&gt;Node221</title>
<path fill="none" stroke="#191970" d="M335.5469,-152.7813C355.0505,-169.0506 388.1469,-200.7571 406.4158,-220.7655"/>
<polygon fill="#191970" stroke="#191970" points="403.8131,-223.1059 413.0482,-228.2986 409.0669,-218.4802 403.8131,-223.1059"/>
</g>
<!-- Node232 -->
<g id="node14" class="node">
<title>Node232</title>
<g id="a_node14"><a xlink:href="classSpikeMonitorCore.html#a6e116c2994e0449c41e56d03370fa54c" target="_top" xlink:title="inserts a (time,neurId) tupel into the 2D spike vector ">
<polygon fill="#ffffff" stroke="#000000" points="390,-.5 390,-19.5 449,-19.5 449,-.5 390,-.5"/>
<text text-anchor="middle" x="419.5" y="-7.5" font-family="Helvetica,sans-Serif" font-size="10.00" fill="#000000">pushAER</text>
</a>
</g>
</g>
<!-- Node220&#45;&gt;Node232 -->
<g id="edge25" class="edge">
<title>Node220&#45;&gt;Node232</title>
<path fill="none" stroke="#191970" d="M322.7971,-133.3991C330.7959,-112.856 355.0687,-66.6556 388.5725,-27.3006"/>
<polygon fill="#191970" stroke="#191970" points="391.4268,-29.3544 395.3942,-19.5305 386.1664,-24.7361 391.4268,-29.3544"/>
</g>
<!-- Node221&#45;&gt;Node220 -->
<g id="edge3" class="edge">
<title>Node221&#45;&gt;Node220</title>
<path fill="none" stroke="#191970" d="M404.2662,-228.4796C384.8499,-212.3273 351.6032,-180.496 333.2101,-160.3722"/>
<polygon fill="#191970" stroke="#191970" points="335.7668,-157.9797 326.5285,-152.7928 330.5158,-162.6087 335.7668,-157.9797"/>
</g>
<!-- Node222 -->
<g id="node4" class="node">
<title>Node222</title>
<g id="a_node4"><a xlink:href="classSNN.html#a5fd2b156623d78138bcb44167eabab78" target="_top" xlink:title="SNN::getSimTime">
<polygon fill="#ffffff" stroke="#000000" points="491.5,-304.5 491.5,-323.5 588.5,-323.5 588.5,-304.5 491.5,-304.5"/>
<text text-anchor="middle" x="540" y="-311.5" font-family="Helvetica,sans-Serif" font-size="10.00" fill="#000000">SNN::getSimTime</text>
</a>
</g>
</g>
<!-- Node221&#45;&gt;Node222 -->
<g id="edge4" class="edge">
<title>Node221&#45;&gt;Node222</title>
<path fill="none" stroke="#191970" d="M428.367,-247.756C440.195,-260.2545 462.2947,-281.8677 485,-295 488.4912,-297.0192 492.231,-298.8707 496.057,-300.5577"/>
<polygon fill="#191970" stroke="#191970" points="495.0688,-303.9326 505.6527,-304.4141 497.6791,-297.4374 495.0688,-303.9326"/>
</g>
<!-- Node223 -->
<g id="node5" class="node">
<title>Node223</title>
<g id="a_node5"><a xlink:href="classSNN.html#ab0367f8ebd4019bf7d34ebddb1563fe7" target="_top" xlink:title="SNN::getGroupName">
<polygon fill="#ffffff" stroke="#000000" points="485,-266.5 485,-285.5 595,-285.5 595,-266.5 485,-266.5"/>
<text text-anchor="middle" x="540" y="-273.5" font-family="Helvetica,sans-Serif" font-size="10.00" fill="#000000">SNN::getGroupName</text>
</a>
</g>
</g>
<!-- Node221&#45;&gt;Node223 -->
<g id="edge5" class="edge">
<title>Node221&#45;&gt;Node223</title>
<path fill="none" stroke="#191970" d="M437.0217,-243.5255C453.4759,-248.7144 478.6898,-256.6657 500.0494,-263.4015"/>
<polygon fill="#191970" stroke="#191970" points="499.2678,-266.8249 509.8575,-266.4945 501.3732,-260.1489 499.2678,-266.8249"/>
</g>
<!-- Node224 -->
<g id="node6" class="node">
<title>Node224</title>
<g id="a_node6"><a xlink:href="classSpikeMonitorCore.html#af6c333e6cefff92d0e354eca70625cdc" target="_top" xlink:title="returns the total number of recorded spikes in the group ">
<polygon fill="#ffffff" stroke="#000000" points="808,-209.5 808,-228.5 906,-228.5 906,-209.5 808,-209.5"/>
<text text-anchor="middle" x="857" y="-216.5" font-family="Helvetica,sans-Serif" font-size="10.00" fill="#000000">getPopNumSpikes</text>
</a>
</g>
</g>
<!-- Node221&#45;&gt;Node224 -->
<g id="edge6" class="edge">
<title>Node221&#45;&gt;Node224</title>
<path fill="none" stroke="#191970" d="M437.1924,-237.2316C497.5457,-234.6106 697.1498,-225.9421 797.8305,-221.5696"/>
<polygon fill="#191970" stroke="#191970" points="798.0052,-225.0655 807.8439,-221.1348 797.7015,-218.072 798.0052,-225.0655"/>
</g>
<!-- Node227 -->
<g id="node9" class="node">
<title>Node227</title>
<g id="a_node9"><a xlink:href="classSpikeMonitorCore.html#a9cf20c30ff0efdbc5e3c5194648a7fb3" target="_top" xlink:title="returns the total recorded time in ms ">
<polygon fill="#ffffff" stroke="#000000" points="798,-342.5 798,-361.5 916,-361.5 916,-342.5 798,-342.5"/>
<text text-anchor="middle" x="857" y="-349.5" font-family="Helvetica,sans-Serif" font-size="10.00" fill="#000000">getRecordingTotalTime</text>
</a>
</g>
</g>
<!-- Node221&#45;&gt;Node227 -->
<g id="edge11" class="edge">
<title>Node221&#45;&gt;Node227</title>
<path fill="none" stroke="#191970" d="M422.8424,-247.747C430.3281,-267.8768 450.5393,-313.7648 485,-333 535.1402,-360.9872 694.7383,-359.2875 787.7979,-355.621"/>
<polygon fill="#191970" stroke="#191970" points="788.1264,-359.1105 797.9738,-355.2018 787.8382,-352.1164 788.1264,-359.1105"/>
</g>
<!-- Node228 -->
<g id="node10" class="node">
<title>Node228</title>
<g id="a_node10"><a xlink:href="classSpikeMonitorCore.html#ae62d623e8edfc6b05309256c1d825bbd" target="_top" xlink:title="returns the recorded mean firing rate of the group ">
<polygon fill="#ffffff" stroke="#000000" points="638.5,-190.5 638.5,-209.5 754.5,-209.5 754.5,-190.5 638.5,-190.5"/>
<text text-anchor="middle" x="696.5" y="-197.5" font-family="Helvetica,sans-Serif" font-size="10.00" fill="#000000">getPopMeanFiringRate</text>
</a>
</g>
</g>
<!-- Node221&#45;&gt;Node228 -->
<g id="edge12" class="edge">
<title>Node221&#45;&gt;Node228</title>
<path fill="none" stroke="#191970" d="M437.2033,-233.7262C450.3328,-230.6763 468.7033,-226.6598 485,-224 532.6766,-216.2188 586.8103,-210.1264 628.3753,-206.0269"/>
<polygon fill="#191970" stroke="#191970" points="628.7752,-209.5047 638.3897,-205.0537 628.0981,-202.5375 628.7752,-209.5047"/>
</g>
<!-- Node229 -->
<g id="node11" class="node">
<title>Node229</title>
<g id="a_node11"><a xlink:href="classSpikeMonitorCore.html#ad0c4b32bb5cc0c7a8d95ed6023a2695f" target="_top" xlink:title="computes the standard deviation of firing rates in the group ">
<polygon fill="#ffffff" stroke="#000000" points="486.5,-114.5 486.5,-133.5 593.5,-133.5 593.5,-114.5 486.5,-114.5"/>
<text text-anchor="middle" x="540" y="-121.5" font-family="Helvetica,sans-Serif" font-size="10.00" fill="#000000">getPopStdFiringRate</text>
</a>
</g>
</g>
<!-- Node221&#45;&gt;Node229 -->
<g id="edge16" class="edge">
<title>Node221&#45;&gt;Node229</title>
<path fill="none" stroke="#191970" d="M429.7738,-228.2804C450.3164,-208.8459 496.6741,-164.9888 522.2409,-140.8011"/>
<polygon fill="#191970" stroke="#191970" points="524.8933,-143.1099 529.7522,-133.695 520.0826,-138.0249 524.8933,-143.1099"/>
</g>
<!-- Node231 -->
<g id="node13" class="node">
<title>Node231</title>
<g id="a_node13"><a xlink:href="classSpikeMonitorCore.html#aed09edf4583ac05d42fccc7e3556e3c5" target="_top" xlink:title="returns the recorded mean firing rate for a specific neuron ">
<polygon fill="#ffffff" stroke="#000000" points="631,-380.5 631,-399.5 762,-399.5 762,-380.5 631,-380.5"/>
<text text-anchor="middle" x="696.5" y="-387.5" font-family="Helvetica,sans-Serif" font-size="10.00" fill="#000000">getNeuronMeanFiringRate</text>
</a>
</g>
</g>
<!-- Node221&#45;&gt;Node231 -->
<g id="edge21" class="edge">
<title>Node221&#45;&gt;Node231</title>
<path fill="none" stroke="#191970" d="M421.2529,-247.7487C426.2324,-272.3164 442.9214,-336.8773 485,-366 524.1025,-393.0629 577.335,-398.9826 620.6116,-398.1771"/>
<polygon fill="#191970" stroke="#191970" points="620.9287,-401.669 630.8156,-397.8611 620.712,-394.6724 620.9287,-401.669"/>
</g>
<!-- Node224&#45;&gt;Node220 -->
<g id="edge7" class="edge">
<title>Node224&#45;&gt;Node220</title>
<path fill="none" stroke="#191970" d="M853.6313,-209.2015C844.1067,-183.2475 814.2277,-112.8773 762,-86 614.7569,-10.2261 548.6846,-59.6562 390,-107 373.6666,-111.8731 356.6326,-120.5433 343.4577,-128.1538"/>
<polygon fill="#191970" stroke="#191970" points="341.4013,-125.3053 334.6117,-133.4387 344.9914,-131.3146 341.4013,-125.3053"/>
</g>
<!-- Node225 -->
<g id="node7" class="node">
<title>Node225</title>
<g id="a_node7"><a xlink:href="classSpikeMonitorCore.html#a005a2f884f6260054483d4fa6ed6ddbb" target="_top" xlink:title="returns the number of recorded spikes of a specific neuron ">
<polygon fill="#ffffff" stroke="#000000" points="952,-285.5 952,-304.5 1065,-304.5 1065,-285.5 952,-285.5"/>
<text text-anchor="middle" x="1008.5" y="-292.5" font-family="Helvetica,sans-Serif" font-size="10.00" fill="#000000">getNeuronNumSpikes</text>
</a>
</g>
</g>
<!-- Node224&#45;&gt;Node225 -->
<g id="edge8" class="edge">
<title>Node224&#45;&gt;Node225</title>
<path fill="none" stroke="#191970" d="M876.1876,-228.6255C902.4834,-241.8168 949.907,-265.6068 980.2612,-280.834"/>
<polygon fill="#191970" stroke="#191970" points="978.9604,-284.0971 989.4682,-285.4527 982.0992,-277.8403 978.9604,-284.0971"/>
</g>
<!-- Node225&#45;&gt;Node220 -->
<g id="edge9" class="edge">
<title>Node225&#45;&gt;Node220</title>
<path fill="none" stroke="#191970" d="M1002.313,-304.5997C988.9655,-324.557 955.4608,-370.7623 916,-396 829.7375,-451.1704 798.8962,-466 696.5,-466 540,-466 540,-466 540,-466 392.4998,-466 336.8623,-233.0667 323.4369,-162.8182"/>
<polygon fill="#191970" stroke="#191970" points="326.8221,-161.873 321.5786,-152.6667 319.9365,-163.1336 326.8221,-161.873"/>
</g>
<!-- Node226 -->
<g id="node8" class="node">
<title>Node226</title>
<g id="a_node8"><a xlink:href="classSpikeMonitorCore.html#abe76071e1ac3632d55f2455b239b3d12" target="_top" xlink:title="returns recording mode ">
<polygon fill="#ffffff" stroke="#000000" points="1101,-114.5 1101,-133.5 1155,-133.5 1155,-114.5 1101,-114.5"/>
<text text-anchor="middle" x="1128" y="-121.5" font-family="Helvetica,sans-Serif" font-size="10.00" fill="#000000">getMode</text>
</a>
</g>
</g>
<!-- Node225&#45;&gt;Node226 -->
<g id="edge10" class="edge">
<title>Node225&#45;&gt;Node226</title>
<path fill="none" stroke="#191970" d="M1015.2672,-285.3163C1034.5751,-257.6874 1090.1527,-178.1581 1115.3325,-142.1268"/>
<polygon fill="#191970" stroke="#191970" points="1118.4477,-143.7792 1121.307,-133.5774 1112.7099,-139.7694 1118.4477,-143.7792"/>
</g>
<!-- Node228&#45;&gt;Node220 -->
<g id="edge13" class="edge">
<title>Node228&#45;&gt;Node220</title>
<path fill="none" stroke="#191970" d="M638.452,-191.2119C562.7774,-179.7551 432.0803,-159.9683 364.0427,-149.6678"/>
<polygon fill="#191970" stroke="#191970" points="364.4872,-146.1953 354.0759,-148.1589 363.4393,-153.1164 364.4872,-146.1953"/>
</g>
<!-- Node228&#45;&gt;Node224 -->
<g id="edge14" class="edge">
<title>Node228&#45;&gt;Node224</title>
<path fill="none" stroke="#191970" d="M754.8982,-206.9132C768.8904,-208.5696 783.842,-210.3395 797.8671,-211.9998"/>
<polygon fill="#191970" stroke="#191970" points="797.5468,-215.4863 807.8889,-213.1862 798.3698,-208.5348 797.5468,-215.4863"/>
</g>
<!-- Node228&#45;&gt;Node227 -->
<g id="edge15" class="edge">
<title>Node228&#45;&gt;Node227</title>
<path fill="none" stroke="#191970" d="M706.54,-209.5083C733.2244,-234.7795 806.1543,-303.8471 839.6995,-335.6157"/>
<polygon fill="#191970" stroke="#191970" points="837.2964,-338.1604 846.9638,-342.4953 842.1097,-333.0778 837.2964,-338.1604"/>
</g>
<!-- Node229&#45;&gt;Node220 -->
<g id="edge17" class="edge">
<title>Node229&#45;&gt;Node220</title>
<path fill="none" stroke="#191970" d="M486.1819,-128.6479C448.7695,-131.879 399.5047,-136.1337 364.3486,-139.1699"/>
<polygon fill="#191970" stroke="#191970" points="364.0367,-135.6837 354.375,-140.0313 364.6391,-142.6577 364.0367,-135.6837"/>
</g>
<!-- Node229&#45;&gt;Node228 -->
<g id="edge18" class="edge">
<title>Node229&#45;&gt;Node228</title>
<path fill="none" stroke="#191970" d="M562.8882,-133.6112C572.8213,-137.8791 584.5495,-143.0487 595,-148 620.6413,-160.1484 649.3813,-174.9904 669.7158,-185.7036"/>
<polygon fill="#191970" stroke="#191970" points="668.2229,-188.8734 678.6989,-190.4558 671.4962,-182.6859 668.2229,-188.8734"/>
</g>
<!-- Node230 -->
<g id="node12" class="node">
<title>Node230</title>
<g id="a_node12"><a xlink:href="classSpikeMonitorCore.html#a0fc20fcc5876030d796debd148ae7cee" target="_top" xlink:title="returns a list of firing rates for all neurons in the group (sorted by neuron ID ascending) ...">
<polygon fill="#ffffff" stroke="#000000" points="650.5,-95.5 650.5,-114.5 742.5,-114.5 742.5,-95.5 650.5,-95.5"/>
<text text-anchor="middle" x="696.5" y="-102.5" font-family="Helvetica,sans-Serif" font-size="10.00" fill="#000000">getAllFiringRates</text>
</a>
</g>
</g>
<!-- Node229&#45;&gt;Node230 -->
<g id="edge19" class="edge">
<title>Node229&#45;&gt;Node230</title>
<path fill="none" stroke="#191970" d="M593.8584,-117.4613C608.801,-115.6472 625.0621,-113.673 640.1433,-111.842"/>
<polygon fill="#191970" stroke="#191970" points="640.8596,-115.2808 650.3649,-110.6011 640.0159,-108.3319 640.8596,-115.2808"/>
</g>
<!-- Node230&#45;&gt;Node220 -->
<g id="edge20" class="edge">
<title>Node230&#45;&gt;Node220</title>
<path fill="none" stroke="#191970" d="M650.1205,-101.9985C607.1557,-99.9282 541.5499,-98.5723 485,-105 442.2519,-109.8589 394.4515,-121.5826 361.3485,-130.7336"/>
<polygon fill="#191970" stroke="#191970" points="360.2498,-127.4066 351.5688,-133.4805 362.1427,-134.1458 360.2498,-127.4066"/>
</g>
<!-- Node231&#45;&gt;Node220 -->
<g id="edge22" class="edge">
<title>Node231&#45;&gt;Node220</title>
<path fill="none" stroke="#191970" d="M665.6783,-399.5814C622.5162,-411.1191 542.87,-425.4187 485,-395 389.6796,-344.896 340.9461,-212.3411 325.5282,-162.402"/>
<polygon fill="#191970" stroke="#191970" points="328.8057,-161.1446 322.596,-152.5603 322.0972,-163.1434 328.8057,-161.1446"/>
</g>
<!-- Node231&#45;&gt;Node225 -->
<g id="edge23" class="edge">
<title>Node231&#45;&gt;Node225</title>
<path fill="none" stroke="#191970" d="M762.2591,-394.311C807.1544,-394.8895 867.1198,-390.925 916,-371 947.7119,-358.0733 976.9205,-330.3039 993.7118,-312.1526"/>
<polygon fill="#191970" stroke="#191970" points="996.4378,-314.3554 1000.5174,-304.5775 991.2306,-309.6773 996.4378,-314.3554"/>
</g>
<!-- Node231&#45;&gt;Node227 -->
<g id="edge24" class="edge">
<title>Node231&#45;&gt;Node227</title>
<path fill="none" stroke="#191970" d="M737.0009,-380.411C758.1806,-375.3965 784.3022,-369.2119 806.7604,-363.8947"/>
<polygon fill="#191970" stroke="#191970" points="807.8657,-367.2299 816.7903,-361.5201 806.2529,-360.4182 807.8657,-367.2299"/>
</g>
<!-- Node232&#45;&gt;Node220 -->
<g id="edge26" class="edge">
<title>Node232&#45;&gt;Node220</title>
<path fill="none" stroke="#191970" d="M414.5002,-19.5917C408.283,-26.6095 397.5676,-34.5329 390,-43 366.7362,-69.0291 345.948,-103.568 333.1866,-124.7204"/>
<polygon fill="#191970" stroke="#191970" points="330.104,-123.0537 327.908,-133.4184 336.0882,-126.6854 330.104,-123.0537"/>
</g>
<!-- Node232&#45;&gt;Node226 -->
<g id="edge27" class="edge">
<title>Node232&#45;&gt;Node226</title>
<path fill="none" stroke="#191970" d="M449.0166,-10C499.651,-10 606.3307,-10 696.5,-10 696.5,-10 696.5,-10 857,-10 957.5183,-10 1063.7561,-77.4622 1107.4297,-108.5935"/>
<polygon fill="#191970" stroke="#191970" points="1105.3927,-111.4397 1115.5431,-114.4765 1109.5019,-105.7727 1105.3927,-111.4397"/>
</g>
<!-- Node233&#45;&gt;Node220 -->
<g id="edge29" class="edge">
<title>Node233&#45;&gt;Node220</title>
<path fill="none" stroke="#191970" d="M250.0531,-132.777C258.6601,-134.0349 267.3836,-135.3099 275.6149,-136.513"/>
<polygon fill="#191970" stroke="#191970" points="275.3314,-140.0086 285.7325,-137.9917 276.3438,-133.0822 275.3314,-140.0086"/>
</g>
</g>
</svg>
