<?xml version="1.0" encoding="UTF-8" standalone="no"?>
<!DOCTYPE svg PUBLIC "-//W3C//DTD SVG 1.1//EN"
 "http://www.w3.org/Graphics/SVG/1.1/DTD/svg11.dtd">
<!-- Generated by graphviz version 2.40.1 (20161225.0304)
 -->
<!-- Title: getNumSynapticConnections Pages: 1 -->
<!--zoomable 85 -->
<svg id="main" version="1.1" xmlns="http://www.w3.org/2000/svg" xmlns:xlink="http://www.w3.org/1999/xlink" xml:space="preserve" onload="init(evt)">
<style type="text/css"><![CDATA[
.edge:hover path { stroke: red; }
.edge:hover polygon { stroke: red; fill: red; }
]]></style>
<script type="text/javascript"><![CDATA[
var edges = document.getElementsByTagName('g');
if (edges && edges.length) {
  for (var i=0;i<edges.length;i++) {
    if (edges[i].id.substr(0,4)=='edge') {
      edges[i].setAttribute('class','edge');
    }
  }
}
]]></script>
        <defs>
                <circle id="rim" cx="0" cy="0" r="7"/>
                <circle id="rim2" cx="0" cy="0" r="3.5"/>
                <g id="zoomPlus">
                        <use xlink:href="#rim" fill="#404040">
                                <set attributeName="fill" to="#808080" begin="zoomplus.mouseover" end="zoomplus.mouseout"/>
                        </use>
                        <path d="M-4,0h8M0,-4v8" fill="none" stroke="white" stroke-width="1.5" pointer-events="none"/>
                </g>
                <g id="zoomMin">
                        <use xlink:href="#rim" fill="#404040">
                                <set attributeName="fill" to="#808080" begin="zoomminus.mouseover" end="zoomminus.mouseout"/>
                        </use>
                        <path d="M-4,0h8" fill="none" stroke="white" stroke-width="1.5" pointer-events="none"/>
                </g>
                <g id="dirArrow">
                        <path fill="none" stroke="white" stroke-width="1.5" d="M0,-3.0v7 M-2.5,-0.5L0,-3.0L2.5,-0.5"/>
                </g>
               <g id="resetDef">
                       <use xlink:href="#rim2" fill="#404040">
                               <set attributeName="fill" to="#808080" begin="reset.mouseover" end="reset.mouseout"/>
                       </use>
               </g>
        </defs>

<script type="text/javascript">
var viewWidth = 1086;
var viewHeight = 85;
var sectionId = 'dynsection-51';
</script>
<script xlink:href="svgpan.js"/>
<svg id="graph" class="graph">
<g id="viewport">
<title>getNumSynapticConnections</title>
<polygon fill="#ffffff" stroke="transparent" points="-4,4 -4,-81 1082,-81 1082,4 -4,4"/>
<!-- Node317 -->
<g id="node1" class="node">
<title>Node317</title>
<polygon fill="#bfbfbf" stroke="#000000" points="0,-19.5 0,-38.5 144,-38.5 144,-19.5 0,-19.5"/>
<text text-anchor="middle" x="72" y="-26.5" font-family="Helvetica,sans-Serif" font-size="10.00" fill="#000000">getNumSynapticConnections</text>
</g>
<!-- Node318 -->
<g id="node2" class="node">
<title>Node318</title>
<g id="a_node2"><a xlink:href="classCARLsim_1_1Impl.html#a52f149e224abff772962dea6680398e2" target="_top" xlink:title="CARLsim::Impl::getNumSynaptic\lConnections">
<polygon fill="#ffffff" stroke="#000000" points="180,-14 180,-44 343,-44 343,-14 180,-14"/>
<text text-anchor="start" x="188" y="-32" font-family="Helvetica,sans-Serif" font-size="10.00" fill="#000000">CARLsim::Impl::getNumSynaptic</text>
<text text-anchor="middle" x="261.5" y="-21" font-family="Helvetica,sans-Serif" font-size="10.00" fill="#000000">Connections</text>
</a>
</g>
</g>
<!-- Node317&#45;&gt;Node318 -->
<g id="edge1" class="edge">
<title>Node317&#45;&gt;Node318</title>
<path fill="none" stroke="#191970" d="M144.1824,-29C152.5271,-29 161.1198,-29 169.6806,-29"/>
<polygon fill="#191970" stroke="#191970" points="169.6987,-32.5001 179.6987,-29 169.6987,-25.5001 169.6987,-32.5001"/>
</g>
<!-- Node319 -->
<g id="node3" class="node">
<title>Node319</title>
<g id="a_node3"><a xlink:href="classUserErrors.html#a4bbedc6c0817d5e59e74e450bf00472c" target="_top" xlink:title="simple wrapper for assert statement ">
<polygon fill="#ffffff" stroke="#000000" points="410.5,-57.5 410.5,-76.5 526.5,-76.5 526.5,-57.5 410.5,-57.5"/>
<text text-anchor="middle" x="468.5" y="-64.5" font-family="Helvetica,sans-Serif" font-size="10.00" fill="#000000">UserErrors::assertTrue</text>
</a>
</g>
</g>
<!-- Node318&#45;&gt;Node319 -->
<g id="edge2" class="edge">
<title>Node318&#45;&gt;Node319</title>
<path fill="none" stroke="#191970" d="M343.0147,-43.9641C364.2108,-47.8551 386.6966,-51.9829 406.6902,-55.6533"/>
<polygon fill="#191970" stroke="#191970" points="406.1247,-59.1079 416.5923,-57.4711 407.3886,-52.2229 406.1247,-59.1079"/>
</g>
<!-- Node320 -->
<g id="node4" class="node">
<title>Node320</title>
<g id="a_node4"><a xlink:href="classCARLsim_1_1Impl.html#a14efb66377e70d7f0f4596c223fbc5cc" target="_top" xlink:title="CARLsim::Impl::getNumConnections">
<polygon fill="#ffffff" stroke="#000000" points="379,-19.5 379,-38.5 558,-38.5 558,-19.5 379,-19.5"/>
<text text-anchor="middle" x="468.5" y="-26.5" font-family="Helvetica,sans-Serif" font-size="10.00" fill="#000000">CARLsim::Impl::getNumConnections</text>
</a>
</g>
</g>
<!-- Node318&#45;&gt;Node320 -->
<g id="edge3" class="edge">
<title>Node318&#45;&gt;Node320</title>
<path fill="none" stroke="#191970" d="M343.0147,-29C351.4718,-29 360.1341,-29 368.7616,-29"/>
<polygon fill="#191970" stroke="#191970" points="368.859,-32.5001 378.859,-29 368.859,-25.5001 368.859,-32.5001"/>
</g>
<!-- Node322 -->
<g id="node6" class="node">
<title>Node322</title>
<g id="a_node6"><a xlink:href="classSNN.html#a52f149e224abff772962dea6680398e2" target="_top" xlink:title="gets number of connections associated with a connection ID ">
<polygon fill="#ffffff" stroke="#000000" points="764,-.5 764,-19.5 936,-19.5 936,-.5 764,-.5"/>
<text text-anchor="middle" x="850" y="-7.5" font-family="Helvetica,sans-Serif" font-size="10.00" fill="#000000">SNN::getNumSynapticConnections</text>
</a>
</g>
</g>
<!-- Node318&#45;&gt;Node322 -->
<g id="edge7" class="edge">
<title>Node318&#45;&gt;Node322</title>
<path fill="none" stroke="#191970" d="M343.153,-14.0712C355.1379,-12.3826 367.3622,-10.9349 379,-10 508.3673,.392 658.3675,-2.1018 753.6895,-5.4979"/>
<polygon fill="#191970" stroke="#191970" points="753.7662,-9.003 763.8879,-5.8721 754.023,-2.0077 753.7662,-9.003"/>
</g>
<!-- Node321 -->
<g id="node5" class="node">
<title>Node321</title>
<g id="a_node5"><a xlink:href="classSNN.html#a14efb66377e70d7f0f4596c223fbc5cc" target="_top" xlink:title="SNN::getNumConnections">
<polygon fill="#ffffff" stroke="#000000" points="594,-19.5 594,-38.5 728,-38.5 728,-19.5 594,-19.5"/>
<text text-anchor="middle" x="661" y="-26.5" font-family="Helvetica,sans-Serif" font-size="10.00" fill="#000000">SNN::getNumConnections</text>
</a>
</g>
</g>
<!-- Node320&#45;&gt;Node321 -->
<g id="edge4" class="edge">
<title>Node320&#45;&gt;Node321</title>
<path fill="none" stroke="#191970" d="M558.2688,-29C566.7703,-29 575.3396,-29 583.7097,-29"/>
<polygon fill="#191970" stroke="#191970" points="583.8027,-32.5001 593.8027,-29 583.8027,-25.5001 583.8027,-32.5001"/>
</g>
<!-- Node321&#45;&gt;Node322 -->
<g id="edge5" class="edge">
<title>Node321&#45;&gt;Node322</title>
<path fill="none" stroke="#191970" d="M728.1665,-22.2478C736.4789,-21.4122 745.1,-20.5455 753.7407,-19.6769"/>
<polygon fill="#191970" stroke="#191970" points="754.2762,-23.1408 763.8759,-18.658 753.5759,-16.1759 754.2762,-23.1408"/>
</g>
<!-- Node323 -->
<g id="node7" class="node">
<title>Node323</title>
<g id="a_node7"><a xlink:href="classSNN.html#a477f99451786873b73e2623b6f89b766" target="_top" xlink:title="deallocates all dynamical structures and exits ">
<polygon fill="#ffffff" stroke="#000000" points="972,-.5 972,-19.5 1078,-19.5 1078,-.5 972,-.5"/>
<text text-anchor="middle" x="1025" y="-7.5" font-family="Helvetica,sans-Serif" font-size="10.00" fill="#000000">SNN::exitSimulation</text>
</a>
</g>
</g>
<!-- Node322&#45;&gt;Node323 -->
<g id="edge6" class="edge">
<title>Node322&#45;&gt;Node323</title>
<path fill="none" stroke="#191970" d="M936.2183,-10C944.711,-10 953.2199,-10 961.4247,-10"/>
<polygon fill="#191970" stroke="#191970" points="961.6308,-13.5001 971.6308,-10 961.6308,-6.5001 961.6308,-13.5001"/>
</g>
</g>
</svg>
        <g id="navigator" transform="translate(0 0)" fill="#404254">
                <rect fill="#f2f5e9" fill-opacity="0.5" stroke="#606060" stroke-width=".5" x="0" y="0" width="60" height="60"/>
                <use id="zoomplus" xlink:href="#zoomPlus" x="17" y="9" onmousedown="handleZoom(evt,'in')"/>
                <use id="zoomminus" xlink:href="#zoomMin" x="42" y="9" onmousedown="handleZoom(evt,'out')"/>
                <use id="reset" xlink:href="#resetDef" x="30" y="36" onmousedown="handleReset()"/>
                <g id="arrowUp" xlink:href="#dirArrow" transform="translate(30 24)" onmousedown="handlePan(0,-1)">
                  <use xlink:href="#rim" fill="#404040">
                        <set attributeName="fill" to="#808080" begin="arrowUp.mouseover" end="arrowUp.mouseout"/>
                  </use>
                  <path fill="none" stroke="white" stroke-width="1.5" d="M0,-3.0v7 M-2.5,-0.5L0,-3.0L2.5,-0.5"/>
                </g>
                <g id="arrowRight" xlink:href="#dirArrow" transform="rotate(90) translate(36 -43)" onmousedown="handlePan(1,0)">
                  <use xlink:href="#rim" fill="#404040">
                        <set attributeName="fill" to="#808080" begin="arrowRight.mouseover" end="arrowRight.mouseout"/>
                  </use>
                  <path fill="none" stroke="white" stroke-width="1.5" d="M0,-3.0v7 M-2.5,-0.5L0,-3.0L2.5,-0.5"/>
                </g>
                <g id="arrowDown" xlink:href="#dirArrow" transform="rotate(180) translate(-30 -48)" onmousedown="handlePan(0,1)">
                  <use xlink:href="#rim" fill="#404040">
                        <set attributeName="fill" to="#808080" begin="arrowDown.mouseover" end="arrowDown.mouseout"/>
                  </use>
                  <path fill="none" stroke="white" stroke-width="1.5" d="M0,-3.0v7 M-2.5,-0.5L0,-3.0L2.5,-0.5"/>
                </g>
                <g id="arrowLeft" xlink:href="#dirArrow" transform="rotate(270) translate(-36 17)" onmousedown="handlePan(-1,0)">
                  <use xlink:href="#rim" fill="#404040">
                        <set attributeName="fill" to="#808080" begin="arrowLeft.mouseover" end="arrowLeft.mouseout"/>
                  </use>
                  <path fill="none" stroke="white" stroke-width="1.5" d="M0,-3.0v7 M-2.5,-0.5L0,-3.0L2.5,-0.5"/>
                </g>
        </g>
        <svg viewBox="0 0 15 15" width="100%" height="30px" preserveAspectRatio="xMaxYMin meet">
         <g id="arrow_out" transform="scale(0.3 0.3)">
          <a xlink:href="classCARLsim_a52f149e224abff772962dea6680398e2_cgraph_org.svg" target="_base">
           <rect id="button" ry="5" rx="5" y="6" x="6" height="38" width="38"
                fill="#f2f5e9" fill-opacity="0.5" stroke="#606060" stroke-width="1.0"/>
           <path id="arrow"
             d="M 11.500037,31.436501 C 11.940474,20.09759 22.043105,11.32322 32.158766,21.979434 L 37.068811,17.246167 C 37.068811,17.246167 37.088388,32 37.088388,32 L 22.160133,31.978069 C 22.160133,31.978069 26.997745,27.140456 26.997745,27.140456 C 18.528582,18.264221 13.291696,25.230495 11.500037,31.436501 z"
             style="fill:#404040;"/>
          </a>
         </g>
        </svg>
</svg>
