<?xml version="1.0" encoding="UTF-8" standalone="no"?>
<!DOCTYPE svg PUBLIC "-//W3C//DTD SVG 1.1//EN"
 "http://www.w3.org/Graphics/SVG/1.1/DTD/svg11.dtd">
<!-- Generated by graphviz version 2.40.1 (20161225.0304)
 -->
<!-- Title: setESTDP Pages: 1 -->
<svg width="554pt" height="104pt"
 viewBox="0.00 0.00 554.00 104.00" xmlns="http://www.w3.org/2000/svg" xmlns:xlink="http://www.w3.org/1999/xlink">
<g id="graph0" class="graph" transform="scale(1 1) rotate(0) translate(4 100)">
<title>setESTDP</title>
<polygon fill="#ffffff" stroke="transparent" points="-4,4 -4,-100 550,-100 550,4 -4,4"/>
<!-- Node1746 -->
<g id="node1" class="node">
<title>Node1746</title>
<polygon fill="#bfbfbf" stroke="#000000" points="0,-38.5 0,-57.5 64,-57.5 64,-38.5 0,-38.5"/>
<text text-anchor="middle" x="32" y="-45.5" font-family="Helvetica,sans-Serif" font-size="10.00" fill="#000000">setESTDP</text>
</g>
<!-- Node1747 -->
<g id="node2" class="node">
<title>Node1747</title>
<g id="a_node2"><a xlink:href="classCARLsim_1_1Impl.html#ac79aadf0ac87b2ae34f39ae796ad81a3" target="_top" xlink:title="CARLsim::Impl::setESTDP">
<polygon fill="#ffffff" stroke="#000000" points="100,-38.5 100,-57.5 237,-57.5 237,-38.5 100,-38.5"/>
<text text-anchor="middle" x="168.5" y="-45.5" font-family="Helvetica,sans-Serif" font-size="10.00" fill="#000000">CARLsim::Impl::setESTDP</text>
</a>
</g>
</g>
<!-- Node1746&#45;&gt;Node1747 -->
<g id="edge1" class="edge">
<title>Node1746&#45;&gt;Node1747</title>
<path fill="none" stroke="#191970" d="M74.0245,-48C82.2223,-48 91.0154,-48 99.8181,-48"/>
<polygon fill="#191970" stroke="#191970" points="74.0032,-44.5001 64.0032,-48 74.0032,-51.5001 74.0032,-44.5001"/>
</g>
<!-- Node1748 -->
<g id="node3" class="node">
<title>Node1748</title>
<g id="a_node3"><a xlink:href="classCARLsim_1_1Impl.html#af69130fee82ddc631a62ed0878c65e9f" target="_top" xlink:title="CARLsim::Impl::setSTDP">
<polygon fill="#ffffff" stroke="#000000" points="273,-76.5 273,-95.5 404,-95.5 404,-76.5 273,-76.5"/>
<text text-anchor="middle" x="338.5" y="-83.5" font-family="Helvetica,sans-Serif" font-size="10.00" fill="#000000">CARLsim::Impl::setSTDP</text>
</a>
</g>
</g>
<!-- Node1747&#45;&gt;Node1748 -->
<g id="edge2" class="edge">
<title>Node1747&#45;&gt;Node1748</title>
<path fill="none" stroke="#191970" d="M221.3981,-59.8243C245.365,-65.1816 273.3235,-71.4311 295.9103,-76.4799"/>
<polygon fill="#191970" stroke="#191970" points="221.9209,-56.3548 211.3982,-57.589 220.3938,-63.1862 221.9209,-56.3548"/>
</g>
<!-- Node1750 -->
<g id="node5" class="node">
<title>Node1750</title>
<g id="a_node5"><a xlink:href="classCARLsim.html#ac79aadf0ac87b2ae34f39ae796ad81a3" target="_top" xlink:title="Sets default E&#45;STDP mode and parameters. ">
<polygon fill="#ffffff" stroke="#000000" points="282,-38.5 282,-57.5 395,-57.5 395,-38.5 282,-38.5"/>
<text text-anchor="middle" x="338.5" y="-45.5" font-family="Helvetica,sans-Serif" font-size="10.00" fill="#000000">CARLsim::setESTDP</text>
</a>
</g>
</g>
<!-- Node1747&#45;&gt;Node1750 -->
<g id="edge4" class="edge">
<title>Node1747&#45;&gt;Node1750</title>
<path fill="none" stroke="#191970" d="M247.3237,-48C258.9652,-48 270.7619,-48 281.8343,-48"/>
<polygon fill="#191970" stroke="#191970" points="247.1555,-44.5001 237.1555,-48 247.1555,-51.5001 247.1555,-44.5001"/>
</g>
<!-- Node1751 -->
<g id="node6" class="node">
<title>Node1751</title>
<g id="a_node6"><a xlink:href="classCARLsim.html#a675bb0d593722135066c11b0d3d99d50" target="_top" xlink:title="Sets default I&#45;STDP mode and parameters. ">
<polygon fill="#ffffff" stroke="#000000" points="284,-.5 284,-19.5 393,-19.5 393,-.5 284,-.5"/>
<text text-anchor="middle" x="338.5" y="-7.5" font-family="Helvetica,sans-Serif" font-size="10.00" fill="#000000">CARLsim::setISTDP</text>
</a>
</g>
</g>
<!-- Node1747&#45;&gt;Node1751 -->
<g id="edge5" class="edge">
<title>Node1747&#45;&gt;Node1751</title>
<path fill="none" stroke="#191970" d="M221.3981,-36.1757C245.365,-30.8184 273.3235,-24.5689 295.9103,-19.5201"/>
<polygon fill="#191970" stroke="#191970" points="220.3938,-32.8138 211.3982,-38.411 221.9209,-39.6452 220.3938,-32.8138"/>
</g>
<!-- Node1749 -->
<g id="node4" class="node">
<title>Node1749</title>
<g id="a_node4"><a xlink:href="classCARLsim.html#af69130fee82ddc631a62ed0878c65e9f" target="_top" xlink:title="Sets default STDP mode and params. ">
<polygon fill="#ffffff" stroke="#000000" points="440,-76.5 440,-95.5 546,-95.5 546,-76.5 440,-76.5"/>
<text text-anchor="middle" x="493" y="-83.5" font-family="Helvetica,sans-Serif" font-size="10.00" fill="#000000">CARLsim::setSTDP</text>
</a>
</g>
</g>
<!-- Node1748&#45;&gt;Node1749 -->
<g id="edge3" class="edge">
<title>Node1748&#45;&gt;Node1749</title>
<path fill="none" stroke="#191970" d="M414.0784,-86C422.6776,-86 431.3044,-86 439.5323,-86"/>
<polygon fill="#191970" stroke="#191970" points="414.0219,-82.5001 404.0219,-86 414.0219,-89.5001 414.0219,-82.5001"/>
</g>
</g>
</svg>
