<?xml version="1.0" encoding="UTF-8" standalone="no"?>
<!DOCTYPE svg PUBLIC "-//W3C//DTD SVG 1.1//EN"
 "http://www.w3.org/Graphics/SVG/1.1/DTD/svg11.dtd">
<!-- Generated by graphviz version 2.40.1 (20161225.0304)
 -->
<!-- Title: setSpikeRate Pages: 1 -->
<svg width="566pt" height="205pt"
 viewBox="0.00 0.00 566.00 204.50" xmlns="http://www.w3.org/2000/svg" xmlns:xlink="http://www.w3.org/1999/xlink">
<g id="graph0" class="graph" transform="scale(1 1) rotate(0) translate(4 200.5)">
<title>setSpikeRate</title>
<polygon fill="#ffffff" stroke="transparent" points="-4,4 -4,-200.5 562,-200.5 562,4 -4,4"/>
<!-- Node1176 -->
<g id="node1" class="node">
<title>Node1176</title>
<polygon fill="#bfbfbf" stroke="#000000" points="0,-63 0,-82 76,-82 76,-63 0,-63"/>
<text text-anchor="middle" x="38" y="-70" font-family="Helvetica,sans-Serif" font-size="10.00" fill="#000000">setSpikeRate</text>
</g>
<!-- Node1177 -->
<g id="node2" class="node">
<title>Node1177</title>
<g id="a_node2"><a xlink:href="classUserErrors.html#a4bbedc6c0817d5e59e74e450bf00472c" target="_top" xlink:title="simple wrapper for assert statement ">
<polygon fill="#ffffff" stroke="#000000" points="279,-63 279,-82 395,-82 395,-63 279,-63"/>
<text text-anchor="middle" x="337" y="-70" font-family="Helvetica,sans-Serif" font-size="10.00" fill="#000000">UserErrors::assertTrue</text>
</a>
</g>
</g>
<!-- Node1176&#45;&gt;Node1177 -->
<g id="edge1" class="edge">
<title>Node1176&#45;&gt;Node1177</title>
<path fill="none" stroke="#191970" d="M76.1723,-72.5C124.6149,-72.5 209.0353,-72.5 268.6939,-72.5"/>
<polygon fill="#191970" stroke="#191970" points="268.7876,-76.0001 278.7875,-72.5 268.7875,-69.0001 268.7876,-76.0001"/>
</g>
<!-- Node1178 -->
<g id="node3" class="node">
<title>Node1178</title>
<g id="a_node3"><a xlink:href="classCARLsim_1_1Impl.html#ae136e178382096490a2d34f78cd2afa2" target="_top" xlink:title="isPoissonGroup">
<polygon fill="#ffffff" stroke="#000000" points="126,-101 126,-120 212,-120 212,-101 126,-101"/>
<text text-anchor="middle" x="169" y="-108" font-family="Helvetica,sans-Serif" font-size="10.00" fill="#000000">isPoissonGroup</text>
</a>
</g>
</g>
<!-- Node1176&#45;&gt;Node1178 -->
<g id="edge2" class="edge">
<title>Node1176&#45;&gt;Node1178</title>
<path fill="none" stroke="#191970" d="M71.0568,-82.089C87.8125,-86.9494 108.3577,-92.9091 126.2965,-98.1127"/>
<polygon fill="#191970" stroke="#191970" points="125.3745,-101.4895 135.9537,-100.9141 127.3247,-94.7666 125.3745,-101.4895"/>
</g>
<!-- Node1182 -->
<g id="node7" class="node">
<title>Node1182</title>
<g id="a_node7"><a xlink:href="classPoissonRate.html#a00ddee44990cd4763a7d4df074e6d405" target="_top" xlink:title="Returns the number of neurons for which to generate Poisson spike trains. ">
<polygon fill="#ffffff" stroke="#000000" points="262,-6 262,-25 412,-25 412,-6 262,-6"/>
<text text-anchor="middle" x="337" y="-13" font-family="Helvetica,sans-Serif" font-size="10.00" fill="#000000">PoissonRate::getNumNeurons</text>
</a>
</g>
</g>
<!-- Node1176&#45;&gt;Node1182 -->
<g id="edge7" class="edge">
<title>Node1176&#45;&gt;Node1182</title>
<path fill="none" stroke="#191970" d="M46.3874,-62.8994C59.009,-49.2661 84.3679,-24.9084 112,-15.5 164.0824,2.2333 226.9634,.4534 272.9948,-4.7359"/>
<polygon fill="#191970" stroke="#191970" points="272.7894,-8.2365 283.1379,-5.9649 273.6315,-1.2874 272.7894,-8.2365"/>
</g>
<!-- Node1184 -->
<g id="node9" class="node">
<title>Node1184</title>
<g id="a_node9"><a xlink:href="classCARLsim_1_1Impl.html#ad85b898d98abe24dcae4390f0fe61e84" target="_top" xlink:title="getGroupNumNeurons">
<polygon fill="#ffffff" stroke="#000000" points="112,-139 112,-158 226,-158 226,-139 112,-139"/>
<text text-anchor="middle" x="169" y="-146" font-family="Helvetica,sans-Serif" font-size="10.00" fill="#000000">getGroupNumNeurons</text>
</a>
</g>
</g>
<!-- Node1176&#45;&gt;Node1184 -->
<g id="edge9" class="edge">
<title>Node1176&#45;&gt;Node1184</title>
<path fill="none" stroke="#191970" d="M48.2462,-82.2179C61.8563,-94.6753 87.0907,-116.2441 112,-129.5 115.9927,-131.6248 120.2681,-133.5749 124.6158,-135.3485"/>
<polygon fill="#191970" stroke="#191970" points="123.5758,-138.6968 134.1677,-138.9486 126.0446,-132.1466 123.5758,-138.6968"/>
</g>
<!-- Node1186 -->
<g id="node11" class="node">
<title>Node1186</title>
<g id="a_node11"><a xlink:href="classSNN.html#aec206ed9aaaed83f1d3170f012a86b70" target="_top" xlink:title="Sets the Poisson spike rate for a group. For information on how to set up spikeRate, see Section Poisson spike generators in the Tutorial. ">
<polygon fill="#ffffff" stroke="#000000" points="117,-25 117,-44 221,-44 221,-25 117,-25"/>
<text text-anchor="middle" x="169" y="-32" font-family="Helvetica,sans-Serif" font-size="10.00" fill="#000000">SNN::setSpikeRate</text>
</a>
</g>
</g>
<!-- Node1176&#45;&gt;Node1186 -->
<g id="edge13" class="edge">
<title>Node1176&#45;&gt;Node1186</title>
<path fill="none" stroke="#191970" d="M71.0568,-62.911C87.8125,-58.0506 108.3577,-52.0909 126.2965,-46.8873"/>
<polygon fill="#191970" stroke="#191970" points="127.3247,-50.2334 135.9537,-44.0859 125.3745,-43.5105 127.3247,-50.2334"/>
</g>
<!-- Node1178&#45;&gt;Node1177 -->
<g id="edge3" class="edge">
<title>Node1178&#45;&gt;Node1177</title>
<path fill="none" stroke="#191970" d="M211.3935,-100.911C233.7626,-95.8513 261.3982,-89.6004 285.0472,-84.2512"/>
<polygon fill="#191970" stroke="#191970" points="285.9299,-87.6401 294.9114,-82.0201 284.3856,-80.8125 285.9299,-87.6401"/>
</g>
<!-- Node1179 -->
<g id="node4" class="node">
<title>Node1179</title>
<g id="a_node4"><a xlink:href="classCARLsim_1_1Impl.html#a292bdee57fec7c77ec4c15ea3f508d60" target="_top" xlink:title="getNumGroups">
<polygon fill="#ffffff" stroke="#000000" points="295.5,-139 295.5,-158 378.5,-158 378.5,-139 295.5,-139"/>
<text text-anchor="middle" x="337" y="-146" font-family="Helvetica,sans-Serif" font-size="10.00" fill="#000000">getNumGroups</text>
</a>
</g>
</g>
<!-- Node1178&#45;&gt;Node1179 -->
<g id="edge4" class="edge">
<title>Node1178&#45;&gt;Node1179</title>
<path fill="none" stroke="#191970" d="M211.3935,-120.089C233.9327,-125.1872 261.8188,-131.4947 285.586,-136.8706"/>
<polygon fill="#191970" stroke="#191970" points="284.9663,-140.3188 295.4921,-139.1113 286.5107,-133.4913 284.9663,-140.3188"/>
</g>
<!-- Node1181 -->
<g id="node6" class="node">
<title>Node1181</title>
<g id="a_node6"><a xlink:href="classSNN.html#a3764348d44236ad4932627cd4d199c31" target="_top" xlink:title="SNN::isPoissonGroup">
<polygon fill="#ffffff" stroke="#000000" points="280.5,-101 280.5,-120 393.5,-120 393.5,-101 280.5,-101"/>
<text text-anchor="middle" x="337" y="-108" font-family="Helvetica,sans-Serif" font-size="10.00" fill="#000000">SNN::isPoissonGroup</text>
</a>
</g>
</g>
<!-- Node1178&#45;&gt;Node1181 -->
<g id="edge6" class="edge">
<title>Node1178&#45;&gt;Node1181</title>
<path fill="none" stroke="#191970" d="M212.2642,-110.5C229.8984,-110.5 250.693,-110.5 270.1956,-110.5"/>
<polygon fill="#191970" stroke="#191970" points="270.2528,-114.0001 280.2528,-110.5 270.2528,-107.0001 270.2528,-114.0001"/>
</g>
<!-- Node1180 -->
<g id="node5" class="node">
<title>Node1180</title>
<g id="a_node5"><a xlink:href="classSNN.html#a292bdee57fec7c77ec4c15ea3f508d60" target="_top" xlink:title="SNN::getNumGroups">
<polygon fill="#ffffff" stroke="#000000" points="448,-139 448,-158 558,-158 558,-139 448,-139"/>
<text text-anchor="middle" x="503" y="-146" font-family="Helvetica,sans-Serif" font-size="10.00" fill="#000000">SNN::getNumGroups</text>
</a>
</g>
</g>
<!-- Node1179&#45;&gt;Node1180 -->
<g id="edge5" class="edge">
<title>Node1179&#45;&gt;Node1180</title>
<path fill="none" stroke="#191970" d="M378.8888,-148.5C396.7191,-148.5 417.9357,-148.5 437.739,-148.5"/>
<polygon fill="#191970" stroke="#191970" points="437.9406,-152.0001 447.9406,-148.5 437.9405,-145.0001 437.9406,-152.0001"/>
</g>
<!-- Node1183 -->
<g id="node8" class="node">
<title>Node1183</title>
<g id="a_node8"><a xlink:href="classPoissonRate_1_1Impl.html#a00ddee44990cd4763a7d4df074e6d405" target="_top" xlink:title="PoissonRate::Impl::\lgetNumNeurons">
<polygon fill="#ffffff" stroke="#000000" points="451,-.5 451,-30.5 555,-30.5 555,-.5 451,-.5"/>
<text text-anchor="start" x="459" y="-18.5" font-family="Helvetica,sans-Serif" font-size="10.00" fill="#000000">PoissonRate::Impl::</text>
<text text-anchor="middle" x="503" y="-7.5" font-family="Helvetica,sans-Serif" font-size="10.00" fill="#000000">getNumNeurons</text>
</a>
</g>
</g>
<!-- Node1182&#45;&gt;Node1183 -->
<g id="edge8" class="edge">
<title>Node1182&#45;&gt;Node1183</title>
<path fill="none" stroke="#191970" d="M412.2289,-15.5C421.7027,-15.5 431.3127,-15.5 440.5594,-15.5"/>
<polygon fill="#191970" stroke="#191970" points="440.8183,-19.0001 450.8182,-15.5 440.8182,-12.0001 440.8183,-19.0001"/>
</g>
<!-- Node1184&#45;&gt;Node1177 -->
<g id="edge10" class="edge">
<title>Node1184&#45;&gt;Node1177</title>
<path fill="none" stroke="#191970" d="M206.3915,-138.9743C213.1909,-136.4369 220.0171,-133.3103 226,-129.5 245.6229,-117.0029 241.9304,-103.2663 262,-91.5 265.7153,-89.3218 269.6763,-87.3912 273.7634,-85.6804"/>
<polygon fill="#191970" stroke="#191970" points="275.3167,-88.8371 283.4721,-82.074 272.8792,-82.2752 275.3167,-88.8371"/>
</g>
<!-- Node1184&#45;&gt;Node1179 -->
<g id="edge11" class="edge">
<title>Node1184&#45;&gt;Node1179</title>
<path fill="none" stroke="#191970" d="M226.3462,-148.5C245.4345,-148.5 266.5714,-148.5 285.2135,-148.5"/>
<polygon fill="#191970" stroke="#191970" points="285.2848,-152.0001 295.2847,-148.5 285.2847,-145.0001 285.2848,-152.0001"/>
</g>
<!-- Node1185 -->
<g id="node10" class="node">
<title>Node1185</title>
<g id="a_node10"><a xlink:href="classSNN.html#a11e19a0ccbeca92ba843a5933b3321e0" target="_top" xlink:title="SNN::getGroupNumNeurons">
<polygon fill="#ffffff" stroke="#000000" points="266,-177 266,-196 408,-196 408,-177 266,-177"/>
<text text-anchor="middle" x="337" y="-184" font-family="Helvetica,sans-Serif" font-size="10.00" fill="#000000">SNN::getGroupNumNeurons</text>
</a>
</g>
</g>
<!-- Node1184&#45;&gt;Node1185 -->
<g id="edge12" class="edge">
<title>Node1184&#45;&gt;Node1185</title>
<path fill="none" stroke="#191970" d="M211.3935,-158.089C233.7626,-163.1487 261.3982,-169.3996 285.0472,-174.7488"/>
<polygon fill="#191970" stroke="#191970" points="284.3856,-178.1875 294.9114,-176.9799 285.9299,-171.3599 284.3856,-178.1875"/>
</g>
<!-- Node1186&#45;&gt;Node1182 -->
<g id="edge14" class="edge">
<title>Node1186&#45;&gt;Node1182</title>
<path fill="none" stroke="#191970" d="M221.2353,-28.5924C231.0165,-27.4862 241.4716,-26.3038 251.9484,-25.1189"/>
<polygon fill="#191970" stroke="#191970" points="252.4354,-28.5863 261.9787,-23.9846 251.6487,-21.6306 252.4354,-28.5863"/>
</g>
</g>
</svg>
