<?xml version="1.0" encoding="UTF-8" standalone="no"?>
<!DOCTYPE svg PUBLIC "-//W3C//DTD SVG 1.1//EN"
 "http://www.w3.org/Graphics/SVG/1.1/DTD/svg11.dtd">
<!-- Generated by graphviz version 2.40.1 (20161225.0304)
 -->
<!-- Title: setNeuronFileId Pages: 1 -->
<!--zoomable 601 -->
<svg id="main" version="1.1" xmlns="http://www.w3.org/2000/svg" xmlns:xlink="http://www.w3.org/1999/xlink" xml:space="preserve" onload="init(evt)">
<style type="text/css"><![CDATA[
.edge:hover path { stroke: red; }
.edge:hover polygon { stroke: red; fill: red; }
]]></style>
<script type="text/javascript"><![CDATA[
var edges = document.getElementsByTagName('g');
if (edges && edges.length) {
  for (var i=0;i<edges.length;i++) {
    if (edges[i].id.substr(0,4)=='edge') {
      edges[i].setAttribute('class','edge');
    }
  }
}
]]></script>
        <defs>
                <circle id="rim" cx="0" cy="0" r="7"/>
                <circle id="rim2" cx="0" cy="0" r="3.5"/>
                <g id="zoomPlus">
                        <use xlink:href="#rim" fill="#404040">
                                <set attributeName="fill" to="#808080" begin="zoomplus.mouseover" end="zoomplus.mouseout"/>
                        </use>
                        <path d="M-4,0h8M0,-4v8" fill="none" stroke="white" stroke-width="1.5" pointer-events="none"/>
                </g>
                <g id="zoomMin">
                        <use xlink:href="#rim" fill="#404040">
                                <set attributeName="fill" to="#808080" begin="zoomminus.mouseover" end="zoomminus.mouseout"/>
                        </use>
                        <path d="M-4,0h8" fill="none" stroke="white" stroke-width="1.5" pointer-events="none"/>
                </g>
                <g id="dirArrow">
                        <path fill="none" stroke="white" stroke-width="1.5" d="M0,-3.0v7 M-2.5,-0.5L0,-3.0L2.5,-0.5"/>
                </g>
               <g id="resetDef">
                       <use xlink:href="#rim2" fill="#404040">
                               <set attributeName="fill" to="#808080" begin="reset.mouseover" end="reset.mouseout"/>
                       </use>
               </g>
        </defs>

<script type="text/javascript">
var viewWidth = 1556;
var viewHeight = 601;
var sectionId = 'dynsection-25';
</script>
<script xlink:href="svgpan.js"/>
<svg id="graph" class="graph">
<g id="viewport">
<title>setNeuronFileId</title>
<polygon fill="#ffffff" stroke="transparent" points="-4,4 -4,-596.5422 1552,-596.5422 1552,4 -4,4"/>
<!-- Node592 -->
<g id="node1" class="node">
<title>Node592</title>
<polygon fill="#bfbfbf" stroke="#000000" points="0,-296 0,-315 86,-315 86,-296 0,-296"/>
<text text-anchor="middle" x="43" y="-303" font-family="Helvetica,sans-Serif" font-size="10.00" fill="#000000">setNeuronFileId</text>
</g>
<!-- Node593 -->
<g id="node2" class="node">
<title>Node593</title>
<g id="a_node2"><a xlink:href="classNeuronMonitor.html#a11168f8252e1416f1706b5f7cae0be1e" target="_top" xlink:title="NeuronMonitor::setLogFile">
<polygon fill="#ffffff" stroke="#000000" points="122,-334 122,-353 253,-353 253,-334 122,-334"/>
<text text-anchor="middle" x="187.5" y="-341" font-family="Helvetica,sans-Serif" font-size="10.00" fill="#000000">NeuronMonitor::setLogFile</text>
</a>
</g>
</g>
<!-- Node592&#45;&gt;Node593 -->
<g id="edge1" class="edge">
<title>Node592&#45;&gt;Node593</title>
<path fill="none" stroke="#191970" d="M89.3325,-317.6843C109.3939,-322.96 132.5285,-329.0438 151.2988,-333.9799"/>
<polygon fill="#191970" stroke="#191970" points="90.0248,-314.2474 79.4635,-315.089 88.2445,-321.0173 90.0248,-314.2474"/>
</g>
<!-- Node594 -->
<g id="node3" class="node">
<title>Node594</title>
<g id="a_node3"><a xlink:href="classNeuronMonitorCore.html#a3a3ffdb35b09328d22e5d72503ed1f55" target="_top" xlink:title="returns recording status ">
<polygon fill="#ffffff" stroke="#000000" points="153.5,-296 153.5,-315 221.5,-315 221.5,-296 153.5,-296"/>
<text text-anchor="middle" x="187.5" y="-303" font-family="Helvetica,sans-Serif" font-size="10.00" fill="#000000">isRecording</text>
</a>
</g>
</g>
<!-- Node592&#45;&gt;Node594 -->
<g id="edge2" class="edge">
<title>Node592&#45;&gt;Node594</title>
<path fill="none" stroke="#191970" d="M96.4066,-298.9583C115.4498,-298.5283 136.3707,-298.764 153.3556,-299.6654"/>
<polygon fill="#191970" stroke="#191970" points="96.2472,-295.4614 86.3548,-299.2547 96.4536,-302.4584 96.2472,-295.4614"/>
</g>
<!-- Node620 -->
<g id="node29" class="node">
<title>Node620</title>
<g id="a_node29"><a xlink:href="classSNN.html#a4c62ae1b8cff6aedfdf98cb8808d14e1" target="_top" xlink:title="sets up a neuron monitor registered with a callback to process the neuron state values, there can only be one NeuronMonitor per group ">
<polygon fill="#ffffff" stroke="#000000" points="126.5,-132 126.5,-151 248.5,-151 248.5,-132 126.5,-132"/>
<text text-anchor="middle" x="187.5" y="-139" font-family="Helvetica,sans-Serif" font-size="10.00" fill="#000000">SNN::setNeuronMonitor</text>
</a>
</g>
</g>
<!-- Node592&#45;&gt;Node620 -->
<g id="edge45" class="edge">
<title>Node592&#45;&gt;Node620</title>
<path fill="none" stroke="#191970" d="M58.5211,-287.8844C88.9777,-253.3177 155.6458,-177.6528 179.1197,-151.0112"/>
<polygon fill="#191970" stroke="#191970" points="55.5913,-285.9153 51.6064,-295.7322 60.8434,-290.5429 55.5913,-285.9153"/>
</g>
<!-- Node594&#45;&gt;Node592 -->
<g id="edge33" class="edge">
<title>Node594&#45;&gt;Node592</title>
<path fill="none" stroke="#191970" d="M143.3459,-311.7742C125.2495,-312.4181 104.3677,-312.4084 86.3548,-311.7453"/>
<polygon fill="#191970" stroke="#191970" points="143.5189,-315.2701 153.3556,-311.3346 143.2116,-308.2769 143.5189,-315.2701"/>
</g>
<!-- Node595 -->
<g id="node4" class="node">
<title>Node595</title>
<g id="a_node4"><a xlink:href="classNeuronMonitor.html#a3a3ffdb35b09328d22e5d72503ed1f55" target="_top" xlink:title="NeuronMonitor::isRecording">
<polygon fill="#ffffff" stroke="#000000" points="289,-334 289,-353 427,-353 427,-334 289,-334"/>
<text text-anchor="middle" x="358" y="-341" font-family="Helvetica,sans-Serif" font-size="10.00" fill="#000000">NeuronMonitor::isRecording</text>
</a>
</g>
</g>
<!-- Node594&#45;&gt;Node595 -->
<g id="edge3" class="edge">
<title>Node594&#45;&gt;Node595</title>
<path fill="none" stroke="#191970" d="M231.4705,-315.2999C257.2321,-321.0415 289.623,-328.2605 315.1828,-333.9572"/>
<polygon fill="#191970" stroke="#191970" points="232.1154,-311.8578 221.5934,-313.0985 230.5926,-318.6902 232.1154,-311.8578"/>
</g>
<!-- Node604 -->
<g id="node13" class="node">
<title>Node604</title>
<g id="a_node13"><a xlink:href="classNeuronMonitorCore.html#ac8bb3912a3ce86b15842e79d0b421204" target="_top" xlink:title="deletes data from the neuron state vector ">
<polygon fill="#ffffff" stroke="#000000" points="339,-182 339,-201 377,-201 377,-182 339,-182"/>
<text text-anchor="middle" x="358" y="-189" font-family="Helvetica,sans-Serif" font-size="10.00" fill="#000000">clear</text>
</a>
</g>
</g>
<!-- Node594&#45;&gt;Node604 -->
<g id="edge12" class="edge">
<title>Node594&#45;&gt;Node604</title>
<path fill="none" stroke="#191970" d="M198.2854,-287.5755C215.6556,-265.1946 251.6753,-228.373 289,-206.5 304.7573,-197.2659 324.6197,-190.8264 338.9832,-188.5611"/>
<polygon fill="#191970" stroke="#191970" points="195.2631,-285.7806 192.2132,-295.927 200.9248,-289.8971 195.2631,-285.7806"/>
</g>
<!-- Node606 -->
<g id="node15" class="node">
<title>Node606</title>
<g id="a_node15"><a xlink:href="classNeuronMonitorCore.html#ab91616c118b701c2afd9136393d1f19b" target="_top" xlink:title="starts recording Neuron state ">
<polygon fill="#ffffff" stroke="#000000" points="834.5,-106 834.5,-125 914.5,-125 914.5,-106 834.5,-106"/>
<text text-anchor="middle" x="874.5" y="-113" font-family="Helvetica,sans-Serif" font-size="10.00" fill="#000000">startRecording</text>
</a>
</g>
</g>
<!-- Node594&#45;&gt;Node606 -->
<g id="edge31" class="edge">
<title>Node594&#45;&gt;Node606</title>
<path fill="none" stroke="#191970" d="M194.514,-286.749C208.8074,-256.2334 243.8125,-197.1958 289,-163.5 355.3047,-114.0574 381.8061,-113.2619 463,-97.5 606.1169,-69.7172 645.6459,-82.2528 791,-93.5 815.2816,-95.3789 843.1823,-100.2872 859.7989,-105.96"/>
<polygon fill="#191970" stroke="#191970" points="191.2998,-285.3638 190.4759,-295.9265 197.707,-288.183 191.2998,-285.3638"/>
</g>
<!-- Node607 -->
<g id="node16" class="node">
<title>Node607</title>
<g id="a_node16"><a xlink:href="classNeuronMonitorCore.html#a743a4ad47ef60bc593cc9882bd4ffb57" target="_top" xlink:title="inserts a (time,neurId) tupel into the D Neuron State vector ">
<polygon fill="#ffffff" stroke="#000000" points="312,-486 312,-505 404,-505 404,-486 312,-486"/>
<text text-anchor="middle" x="358" y="-493" font-family="Helvetica,sans-Serif" font-size="10.00" fill="#000000">pushNeuronState</text>
</a>
</g>
</g>
<!-- Node594&#45;&gt;Node607 -->
<g id="edge19" class="edge">
<title>Node594&#45;&gt;Node607</title>
<path fill="none" stroke="#191970" d="M231.5699,-302.5658C239.5666,-305.2249 247.1977,-309.4015 253,-315.5 300.8538,-365.7968 240.8047,-417.5304 289,-467.5 299.1782,-478.0529 314.6334,-482.9142 328.3383,-485.9701"/>
<polygon fill="#191970" stroke="#191970" points="232.2884,-299.137 221.7327,-300.0478 230.5525,-305.9183 232.2884,-299.137"/>
</g>
<!-- Node608 -->
<g id="node17" class="node">
<title>Node608</title>
<g id="a_node17"><a xlink:href="classSNN.html#a8dd319bdd9a54e38f9254cbec099c30a" target="_top" xlink:title="copy required neuron state values from ??? buffer to ??? buffer ">
<polygon fill="#ffffff" stroke="#000000" points="654,-372 654,-391 791,-391 791,-372 654,-372"/>
<text text-anchor="middle" x="722.5" y="-379" font-family="Helvetica,sans-Serif" font-size="10.00" fill="#000000">SNN::updateNeuronMonitor</text>
</a>
</g>
</g>
<!-- Node594&#45;&gt;Node608 -->
<g id="edge44" class="edge">
<title>Node594&#45;&gt;Node608</title>
<path fill="none" stroke="#191970" d="M207.8655,-289.8798C227.4427,-275.9228 258.4802,-256.4832 289,-248.5 359.7314,-229.9984 552.2443,-216.5404 618,-248.5 672.6703,-275.0717 707.2531,-345.6305 718.4889,-371.6679"/>
<polygon fill="#191970" stroke="#191970" points="205.7195,-287.1132 199.7201,-295.8458 209.8558,-292.7605 205.7195,-287.1132"/>
</g>
<!-- Node609 -->
<g id="node18" class="node">
<title>Node609</title>
<g id="a_node18"><a xlink:href="classNeuronMonitorCore.html#a25e0e98dd4519eaaa6b258f0dcb91ac7" target="_top" xlink:title="stops recording Neuron state ">
<polygon fill="#ffffff" stroke="#000000" points="834.5,-528 834.5,-547 914.5,-547 914.5,-528 834.5,-528"/>
<text text-anchor="middle" x="874.5" y="-535" font-family="Helvetica,sans-Serif" font-size="10.00" fill="#000000">stopRecording</text>
</a>
</g>
</g>
<!-- Node594&#45;&gt;Node609 -->
<g id="edge32" class="edge">
<title>Node594&#45;&gt;Node609</title>
<path fill="none" stroke="#191970" d="M231.5489,-302.2828C239.6167,-304.9528 247.2807,-309.2094 253,-315.5 310.8171,-379.0929 232.9488,-440.3454 289,-505.5 342.4432,-567.6231 382.214,-552.7495 463,-566.5 597.9131,-589.4634 760.2387,-557.1084 834.2221,-542.8463"/>
<polygon fill="#191970" stroke="#191970" points="232.163,-298.8283 221.6112,-299.7828 230.4551,-305.6168 232.163,-298.8283"/>
</g>
<!-- Node615 -->
<g id="node24" class="node">
<title>Node615</title>
<g id="a_node24"><a xlink:href="classNeuronMonitorCore.html#a5414db20073ada3806b3c35686c9a6f4" target="_top" xlink:title="returns the Neuron state vector ">
<polygon fill="#ffffff" stroke="#000000" points="325.5,-391 325.5,-410 390.5,-410 390.5,-391 325.5,-391"/>
<text text-anchor="middle" x="358" y="-398" font-family="Helvetica,sans-Serif" font-size="10.00" fill="#000000">getVectorV</text>
</a>
</g>
</g>
<!-- Node594&#45;&gt;Node615 -->
<g id="edge34" class="edge">
<title>Node594&#45;&gt;Node615</title>
<path fill="none" stroke="#191970" d="M231.3778,-314.7163C238.8886,-317.2629 246.3919,-320.4724 253,-324.5 272.8654,-336.6079 270.5915,-348.2746 289,-362.5 303.825,-373.9562 322.5437,-384.0336 336.7428,-390.9269"/>
<polygon fill="#191970" stroke="#191970" points="232.1602,-311.2961 221.5746,-311.7373 230.1249,-317.9937 232.1602,-311.2961"/>
</g>
<!-- Node616 -->
<g id="node25" class="node">
<title>Node616</title>
<g id="a_node25"><a xlink:href="classNeuronMonitorCore.html#aff9eb621d9c78a5e33f1435eff0e9ba9" target="_top" xlink:title="getVectorU">
<polygon fill="#ffffff" stroke="#000000" points="325,-296 325,-315 391,-315 391,-296 325,-296"/>
<text text-anchor="middle" x="358" y="-303" font-family="Helvetica,sans-Serif" font-size="10.00" fill="#000000">getVectorU</text>
</a>
</g>
</g>
<!-- Node594&#45;&gt;Node616 -->
<g id="edge36" class="edge">
<title>Node594&#45;&gt;Node616</title>
<path fill="none" stroke="#191970" d="M231.8933,-305.5C260.9663,-305.5 298.3423,-305.5 324.8359,-305.5"/>
<polygon fill="#191970" stroke="#191970" points="231.5935,-302.0001 221.5934,-305.5 231.5934,-309.0001 231.5935,-302.0001"/>
</g>
<!-- Node617 -->
<g id="node26" class="node">
<title>Node617</title>
<g id="a_node26"><a xlink:href="classNeuronMonitorCore.html#aa1e83b424e9145add71076cadfadb200" target="_top" xlink:title="getVectorI">
<polygon fill="#ffffff" stroke="#000000" points="327,-258 327,-277 389,-277 389,-258 327,-258"/>
<text text-anchor="middle" x="358" y="-265" font-family="Helvetica,sans-Serif" font-size="10.00" fill="#000000">getVectorI</text>
</a>
</g>
</g>
<!-- Node594&#45;&gt;Node617 -->
<g id="edge38" class="edge">
<title>Node594&#45;&gt;Node617</title>
<path fill="none" stroke="#191970" d="M231.3545,-295.726C261.2401,-289.0652 300.0886,-280.4069 326.8361,-274.4456"/>
<polygon fill="#191970" stroke="#191970" points="230.5926,-292.3098 221.5934,-297.9015 232.1154,-299.1422 230.5926,-292.3098"/>
</g>
<!-- Node618 -->
<g id="node27" class="node">
<title>Node618</title>
<g id="a_node27"><a xlink:href="classNeuronMonitorCore.html#aec9349ebca384aed5e233754559075e0" target="_top" xlink:title="prints neuron states in human&#45;readable format ">
<polygon fill="#ffffff" stroke="#000000" points="340.5,-448 340.5,-467 375.5,-467 375.5,-448 340.5,-448"/>
<text text-anchor="middle" x="358" y="-455" font-family="Helvetica,sans-Serif" font-size="10.00" fill="#000000">print</text>
</a>
</g>
</g>
<!-- Node594&#45;&gt;Node618 -->
<g id="edge40" class="edge">
<title>Node594&#45;&gt;Node618</title>
<path fill="none" stroke="#191970" d="M231.4529,-312.1512C239.3249,-314.9473 246.9385,-318.9045 253,-324.5 286.1771,-355.1268 259.4039,-385.4004 289,-419.5 302.8047,-435.4053 324.9701,-445.9258 340.4417,-451.7844"/>
<polygon fill="#191970" stroke="#191970" points="232.3924,-308.7792 221.8096,-309.2844 230.3976,-315.489 232.3924,-308.7792"/>
</g>
<!-- Node596 -->
<g id="node5" class="node">
<title>Node596</title>
<g id="a_node5"><a xlink:href="classNeuronMonitor.html#ac8bb3912a3ce86b15842e79d0b421204" target="_top" xlink:title="NeuronMonitor::clear">
<polygon fill="#ffffff" stroke="#000000" points="487,-182 487,-201 594,-201 594,-182 487,-182"/>
<text text-anchor="middle" x="540.5" y="-189" font-family="Helvetica,sans-Serif" font-size="10.00" fill="#000000">NeuronMonitor::clear</text>
</a>
</g>
</g>
<!-- Node595&#45;&gt;Node596 -->
<g id="edge4" class="edge">
<title>Node595&#45;&gt;Node596</title>
<path fill="none" stroke="#191970" d="M420.6321,-329.1047C422.8673,-327.7087 425.0019,-326.1781 427,-324.5 455.621,-300.4631 439.2231,-277.3374 463,-248.5 479.8941,-228.0103 505.6988,-210.9844 522.8284,-201.0238"/>
<polygon fill="#191970" stroke="#191970" points="418.8169,-326.1046 411.5874,-333.8496 422.0688,-332.3033 418.8169,-326.1046"/>
</g>
<!-- Node597 -->
<g id="node6" class="node">
<title>Node597</title>
<g id="a_node6"><a xlink:href="classNeuronMonitor.html#ab91616c118b701c2afd9136393d1f19b" target="_top" xlink:title="NeuronMonitor::startRecording">
<polygon fill="#ffffff" stroke="#000000" points="958,-220 958,-239 1108,-239 1108,-220 958,-220"/>
<text text-anchor="middle" x="1033" y="-227" font-family="Helvetica,sans-Serif" font-size="10.00" fill="#000000">NeuronMonitor::startRecording</text>
</a>
</g>
</g>
<!-- Node595&#45;&gt;Node597 -->
<g id="edge5" class="edge">
<title>Node595&#45;&gt;Node597</title>
<path fill="none" stroke="#191970" d="M437.1199,-340.8442C488.8171,-338.3409 557.6818,-333.5541 618,-324.5 761.6285,-302.9406 929.2729,-258.5065 999.4426,-239.0162"/>
<polygon fill="#191970" stroke="#191970" points="436.8432,-337.3532 427.017,-341.315 437.1691,-344.3456 436.8432,-337.3532"/>
</g>
<!-- Node598 -->
<g id="node7" class="node">
<title>Node598</title>
<g id="a_node7"><a xlink:href="classNeuronMonitor.html#a25e0e98dd4519eaaa6b258f0dcb91ac7" target="_top" xlink:title="NeuronMonitor::stopRecording">
<polygon fill="#ffffff" stroke="#000000" points="958.5,-429 958.5,-448 1107.5,-448 1107.5,-429 958.5,-429"/>
<text text-anchor="middle" x="1033" y="-436" font-family="Helvetica,sans-Serif" font-size="10.00" fill="#000000">NeuronMonitor::stopRecording</text>
</a>
</g>
</g>
<!-- Node595&#45;&gt;Node598 -->
<g id="edge6" class="edge">
<title>Node595&#45;&gt;Node598</title>
<path fill="none" stroke="#191970" d="M384.186,-357.8927C414.585,-374.575 460.8672,-399.8822 463,-400.5 634.9475,-450.3085 847.7892,-448.7704 958.3767,-443.5308"/>
<polygon fill="#191970" stroke="#191970" points="385.7784,-354.7741 375.3282,-353.0292 382.4093,-360.9101 385.7784,-354.7741"/>
</g>
<!-- Node599 -->
<g id="node8" class="node">
<title>Node599</title>
<g id="a_node8"><a xlink:href="classNeuronMonitor.html#a0b7a1a6453e1fc0469e96a3ba76c0f8b" target="_top" xlink:title="NeuronMonitor::print">
<polygon fill="#ffffff" stroke="#000000" points="488,-486 488,-505 593,-505 593,-486 488,-486"/>
<text text-anchor="middle" x="540.5" y="-493" font-family="Helvetica,sans-Serif" font-size="10.00" fill="#000000">NeuronMonitor::print</text>
</a>
</g>
</g>
<!-- Node595&#45;&gt;Node599 -->
<g id="edge7" class="edge">
<title>Node595&#45;&gt;Node599</title>
<path fill="none" stroke="#191970" d="M394.1418,-357.3759C405.8873,-363.3351 418.1585,-371.3131 427,-381.5 456.5961,-415.5996 429.1885,-446.5751 463,-476.5 470.0542,-482.7433 478.829,-487.0105 487.9126,-489.9108"/>
<polygon fill="#191970" stroke="#191970" points="395.4483,-354.1225 384.9103,-353.0261 392.4645,-360.4548 395.4483,-354.1225"/>
</g>
<!-- Node600 -->
<g id="node9" class="node">
<title>Node600</title>
<g id="a_node9"><a xlink:href="classNeuronMonitor.html#a22cd4deca28f0e9e8dd2e576b75b02a8" target="_top" xlink:title="Returns the ... ">
<polygon fill="#ffffff" stroke="#000000" points="463,-372 463,-391 618,-391 618,-372 463,-372"/>
<text text-anchor="middle" x="540.5" y="-379" font-family="Helvetica,sans-Serif" font-size="10.00" fill="#000000">NeuronMonitor::getLastUpdated</text>
</a>
</g>
</g>
<!-- Node595&#45;&gt;Node600 -->
<g id="edge8" class="edge">
<title>Node595&#45;&gt;Node600</title>
<path fill="none" stroke="#191970" d="M414.0995,-355.181C439.9804,-360.5699 470.3146,-366.8861 494.7787,-371.9799"/>
<polygon fill="#191970" stroke="#191970" points="414.556,-351.701 404.0525,-353.089 413.129,-358.5541 414.556,-351.701"/>
</g>
<!-- Node601 -->
<g id="node10" class="node">
<title>Node601</title>
<g id="a_node10"><a xlink:href="classNeuronMonitor.html#a5414db20073ada3806b3c35686c9a6f4" target="_top" xlink:title="returns the Neuron state vectors ">
<polygon fill="#ffffff" stroke="#000000" points="473,-448 473,-467 608,-467 608,-448 473,-448"/>
<text text-anchor="middle" x="540.5" y="-455" font-family="Helvetica,sans-Serif" font-size="10.00" fill="#000000">NeuronMonitor::getVectorV</text>
</a>
</g>
</g>
<!-- Node595&#45;&gt;Node601 -->
<g id="edge9" class="edge">
<title>Node595&#45;&gt;Node601</title>
<path fill="none" stroke="#191970" d="M390.5081,-357.4896C402.7699,-363.7273 416.3222,-371.8607 427,-381.5 447.8649,-400.3356 440.3332,-416.8765 463,-433.5 471.6322,-439.8307 481.9695,-444.5178 492.2386,-447.9792"/>
<polygon fill="#191970" stroke="#191970" points="391.9767,-354.312 381.4519,-353.0956 388.921,-360.6098 391.9767,-354.312"/>
</g>
<!-- Node602 -->
<g id="node11" class="node">
<title>Node602</title>
<g id="a_node11"><a xlink:href="classNeuronMonitor.html#aff9eb621d9c78a5e33f1435eff0e9ba9" target="_top" xlink:title="NeuronMonitor::getVectorU">
<polygon fill="#ffffff" stroke="#000000" points="472.5,-296 472.5,-315 608.5,-315 608.5,-296 472.5,-296"/>
<text text-anchor="middle" x="540.5" y="-303" font-family="Helvetica,sans-Serif" font-size="10.00" fill="#000000">NeuronMonitor::getVectorU</text>
</a>
</g>
</g>
<!-- Node595&#45;&gt;Node602 -->
<g id="edge10" class="edge">
<title>Node595&#45;&gt;Node602</title>
<path fill="none" stroke="#191970" d="M414.0995,-331.819C439.9804,-326.4301 470.3146,-320.1139 494.7787,-315.0201"/>
<polygon fill="#191970" stroke="#191970" points="413.129,-328.4459 404.0525,-333.911 414.556,-335.299 413.129,-328.4459"/>
</g>
<!-- Node603 -->
<g id="node12" class="node">
<title>Node603</title>
<g id="a_node12"><a xlink:href="classNeuronMonitor.html#aa1e83b424e9145add71076cadfadb200" target="_top" xlink:title="NeuronMonitor::getVectorI">
<polygon fill="#ffffff" stroke="#000000" points="475,-258 475,-277 606,-277 606,-258 475,-258"/>
<text text-anchor="middle" x="540.5" y="-265" font-family="Helvetica,sans-Serif" font-size="10.00" fill="#000000">NeuronMonitor::getVectorI</text>
</a>
</g>
</g>
<!-- Node595&#45;&gt;Node603 -->
<g id="edge11" class="edge">
<title>Node595&#45;&gt;Node603</title>
<path fill="none" stroke="#191970" d="M415.5884,-330.2832C419.5577,-328.5773 423.4045,-326.658 427,-324.5 446.9474,-312.5277 442.8853,-298.189 463,-286.5 469.7075,-282.6021 477.189,-279.5004 484.7849,-277.033"/>
<polygon fill="#191970" stroke="#191970" points="414.2542,-327.0462 406.1651,-333.8885 416.7555,-333.584 414.2542,-327.0462"/>
</g>
<!-- Node604&#45;&gt;Node594 -->
<g id="edge18" class="edge">
<title>Node604&#45;&gt;Node594</title>
<path fill="none" stroke="#191970" d="M335.5281,-204.6552C321.5476,-209.8474 303.5289,-215.9858 289,-224.5 253.8478,-245.1 219.8529,-278.959 201.5045,-295.9715"/>
<polygon fill="#191970" stroke="#191970" points="336.8317,-207.9036 344.8866,-201.0211 334.2978,-201.3783 336.8317,-207.9036"/>
</g>
<!-- Node604&#45;&gt;Node596 -->
<g id="edge13" class="edge">
<title>Node604&#45;&gt;Node596</title>
<path fill="none" stroke="#191970" d="M387.4348,-191.5C414.2109,-191.5 454.3894,-191.5 486.8637,-191.5"/>
<polygon fill="#191970" stroke="#191970" points="387.1858,-188.0001 377.1858,-191.5 387.1857,-195.0001 387.1858,-188.0001"/>
</g>
<!-- Node605 -->
<g id="node14" class="node">
<title>Node605</title>
<g id="a_node14"><a xlink:href="classNeuronMonitorCore.html#a1fea34ca55f65e7cfeb05d870b2e741b" target="_top" xlink:title="constructor (called by CARLsim::setNeuronMonitor) ">
<polygon fill="#ffffff" stroke="#000000" points="490,-144 490,-163 591,-163 591,-144 490,-144"/>
<text text-anchor="middle" x="540.5" y="-151" font-family="Helvetica,sans-Serif" font-size="10.00" fill="#000000">NeuronMonitorCore</text>
</a>
</g>
</g>
<!-- Node604&#45;&gt;Node605 -->
<g id="edge14" class="edge">
<title>Node604&#45;&gt;Node605</title>
<path fill="none" stroke="#191970" d="M387.0735,-185.4463C415.9994,-179.4234 460.8208,-170.0907 494.5635,-163.0649"/>
<polygon fill="#191970" stroke="#191970" points="386.2623,-182.0401 377.1858,-187.5052 387.6893,-188.8931 386.2623,-182.0401"/>
</g>
<!-- Node604&#45;&gt;Node606 -->
<g id="edge15" class="edge">
<title>Node604&#45;&gt;Node606</title>
<path fill="none" stroke="#191970" d="M379.3087,-176.1585C399.6885,-162.4331 431.8447,-143.1809 463,-134.5 594.9296,-97.74 759.7449,-105.3445 834.4214,-111.51"/>
<polygon fill="#191970" stroke="#191970" points="377.321,-173.2777 371.0763,-181.8366 381.2954,-179.04 377.321,-173.2777"/>
</g>
<!-- Node606&#45;&gt;Node594 -->
<g id="edge17" class="edge">
<title>Node606&#45;&gt;Node594</title>
<path fill="none" stroke="#191970" d="M824.0919,-115.1553C813.2143,-113.758 801.7523,-112.332 791,-111.5 645.6459,-100.2528 606.1169,-87.7172 463,-115.5 381.8061,-131.2619 355.3047,-132.0574 289,-181.5 244.5256,-214.664 209.9148,-272.3763 195.2062,-295.8075"/>
<polygon fill="#191970" stroke="#191970" points="823.9353,-118.6638 834.2996,-116.4658 824.8268,-111.7208 823.9353,-118.6638"/>
</g>
<!-- Node606&#45;&gt;Node597 -->
<g id="edge16" class="edge">
<title>Node606&#45;&gt;Node597</title>
<path fill="none" stroke="#191970" d="M895.8696,-130.8699C929.0192,-154.7125 991.8847,-199.9281 1019.4607,-219.762"/>
<polygon fill="#191970" stroke="#191970" points="897.9029,-128.0211 887.741,-125.0235 893.8156,-133.7039 897.9029,-128.0211"/>
</g>
<!-- Node607&#45;&gt;Node594 -->
<g id="edge20" class="edge">
<title>Node607&#45;&gt;Node594</title>
<path fill="none" stroke="#191970" d="M302.5571,-495.2078C297.5305,-492.7211 292.8815,-489.5244 289,-485.5 240.8047,-435.5304 300.8538,-383.7968 253,-333.5 242.9614,-322.949 227.4486,-318.1507 214.0394,-315.0145"/>
<polygon fill="#191970" stroke="#191970" points="301.3436,-498.4918 311.9289,-498.9425 303.935,-491.9891 301.3436,-498.4918"/>
</g>
<!-- Node607&#45;&gt;Node608 -->
<g id="edge21" class="edge">
<title>Node607&#45;&gt;Node608</title>
<path fill="none" stroke="#191970" d="M378.8813,-510.9386C399.1795,-524.9133 431.4776,-544.4956 463,-552.5 529.7699,-569.4547 557.9154,-586.1975 618,-552.5 682.636,-516.2499 712.0565,-421.943 720.1163,-391.2846"/>
<polygon fill="#191970" stroke="#191970" points="380.8867,-508.0701 370.6998,-505.1586 376.8477,-513.7873 380.8867,-508.0701"/>
</g>
<!-- Node608&#45;&gt;Node606 -->
<g id="edge22" class="edge">
<title>Node608&#45;&gt;Node606</title>
<path fill="none" stroke="#191970" d="M733.1623,-362.841C763.0286,-310.575 846.7785,-164.0126 869.0194,-125.091"/>
<polygon fill="#191970" stroke="#191970" points="730.0126,-361.2985 728.09,-371.7175 736.0903,-364.7715 730.0126,-361.2985"/>
</g>
<!-- Node608&#45;&gt;Node609 -->
<g id="edge23" class="edge">
<title>Node608&#45;&gt;Node609</title>
<path fill="none" stroke="#191970" d="M739.293,-398.7349C771.2431,-431.5258 839.8349,-501.9227 864.9953,-527.7452"/>
<polygon fill="#191970" stroke="#191970" points="741.4938,-395.9783 732.0083,-391.2585 736.4801,-400.8634 741.4938,-395.9783"/>
</g>
<!-- Node610 -->
<g id="node19" class="node">
<title>Node610</title>
<g id="a_node19"><a xlink:href="classSNN.html#a3df37c7539f784fe7a939c5da922f41b" target="_top" xlink:title="run the simulation for n sec ">
<polygon fill="#ffffff" stroke="#000000" points="827,-372 827,-391 922,-391 922,-372 827,-372"/>
<text text-anchor="middle" x="874.5" y="-379" font-family="Helvetica,sans-Serif" font-size="10.00" fill="#000000">SNN::runNetwork</text>
</a>
</g>
</g>
<!-- Node608&#45;&gt;Node610 -->
<g id="edge26" class="edge">
<title>Node608&#45;&gt;Node610</title>
<path fill="none" stroke="#191970" d="M801.4878,-381.5C810.097,-381.5 818.6551,-381.5 826.7191,-381.5"/>
<polygon fill="#191970" stroke="#191970" points="801.3843,-378.0001 791.3843,-381.5 801.3842,-385.0001 801.3843,-378.0001"/>
</g>
<!-- Node609&#45;&gt;Node594 -->
<g id="edge25" class="edge">
<title>Node609&#45;&gt;Node594</title>
<path fill="none" stroke="#191970" d="M844.5754,-550.2529C776.4268,-571.7588 604.6122,-608.6037 463,-584.5 382.214,-570.7495 342.4432,-585.6231 289,-523.5 232.9488,-458.3454 310.8171,-397.0929 253,-333.5 243.4419,-322.9871 228.4525,-318.1553 215.2237,-315.0614"/>
<polygon fill="#191970" stroke="#191970" points="845.8294,-553.5249 854.2328,-547.0725 843.6398,-546.8761 845.8294,-553.5249"/>
</g>
<!-- Node609&#45;&gt;Node598 -->
<g id="edge24" class="edge">
<title>Node609&#45;&gt;Node598</title>
<path fill="none" stroke="#191970" d="M898.5848,-522.4565C931.6225,-501.821 990.0416,-465.3321 1017.6843,-448.0663"/>
<polygon fill="#191970" stroke="#191970" points="896.6136,-519.5611 889.9862,-527.8272 900.3219,-525.4981 896.6136,-519.5611"/>
</g>
<!-- Node611 -->
<g id="node20" class="node">
<title>Node611</title>
<g id="a_node20"><a xlink:href="classCARLsim_1_1Impl.html#a749f370debe5eec8661cf9ca1b1bb4c0" target="_top" xlink:title="CARLsim::Impl::runNetwork">
<polygon fill="#ffffff" stroke="#000000" points="963,-372 963,-391 1103,-391 1103,-372 963,-372"/>
<text text-anchor="middle" x="1033" y="-379" font-family="Helvetica,sans-Serif" font-size="10.00" fill="#000000">CARLsim::Impl::runNetwork</text>
</a>
</g>
</g>
<!-- Node610&#45;&gt;Node611 -->
<g id="edge27" class="edge">
<title>Node610&#45;&gt;Node611</title>
<path fill="none" stroke="#191970" d="M932.2359,-381.5C942.204,-381.5 952.6634,-381.5 962.9154,-381.5"/>
<polygon fill="#191970" stroke="#191970" points="932.0553,-378.0001 922.0552,-381.5 932.0552,-385.0001 932.0553,-378.0001"/>
</g>
<!-- Node612 -->
<g id="node21" class="node">
<title>Node612</title>
<g id="a_node21"><a xlink:href="classCARLsim.html#aafb2d44405c96aafe089f96ff867018d" target="_top" xlink:title="run the simulation for time=(nSec*seconds + nMsec*milliseconds) ">
<polygon fill="#ffffff" stroke="#000000" points="1144,-372 1144,-391 1260,-391 1260,-372 1144,-372"/>
<text text-anchor="middle" x="1202" y="-379" font-family="Helvetica,sans-Serif" font-size="10.00" fill="#000000">CARLsim::runNetwork</text>
</a>
</g>
</g>
<!-- Node611&#45;&gt;Node612 -->
<g id="edge28" class="edge">
<title>Node611&#45;&gt;Node612</title>
<path fill="none" stroke="#191970" d="M1113.4092,-381.5C1123.6647,-381.5 1134.0007,-381.5 1143.8111,-381.5"/>
<polygon fill="#191970" stroke="#191970" points="1113.2031,-378.0001 1103.203,-381.5 1113.203,-385.0001 1113.2031,-378.0001"/>
</g>
<!-- Node613 -->
<g id="node22" class="node">
<title>Node613</title>
<g id="a_node22"><a xlink:href="classSimpleWeightTuner_1_1Impl.html#a312d84bfa66a5036bb52a4c39db6fa6c" target="_top" xlink:title="SimpleWeightTuner::\lImpl::iterate">
<polygon fill="#ffffff" stroke="#000000" points="1296,-366.5 1296,-396.5 1404,-396.5 1404,-366.5 1296,-366.5"/>
<text text-anchor="start" x="1304" y="-384.5" font-family="Helvetica,sans-Serif" font-size="10.00" fill="#000000">SimpleWeightTuner::</text>
<text text-anchor="middle" x="1350" y="-373.5" font-family="Helvetica,sans-Serif" font-size="10.00" fill="#000000">Impl::iterate</text>
</a>
</g>
</g>
<!-- Node612&#45;&gt;Node613 -->
<g id="edge29" class="edge">
<title>Node612&#45;&gt;Node613</title>
<path fill="none" stroke="#191970" d="M1270.1513,-381.5C1278.8066,-381.5 1287.5692,-381.5 1295.9617,-381.5"/>
<polygon fill="#191970" stroke="#191970" points="1270.0688,-378.0001 1260.0687,-381.5 1270.0687,-385.0001 1270.0688,-378.0001"/>
</g>
<!-- Node614 -->
<g id="node23" class="node">
<title>Node614</title>
<g id="a_node23"><a xlink:href="classSimpleWeightTuner.html#a0df985e3ff7a27edc1e2e3fcc8261843" target="_top" xlink:title="Performs an iteration step of the tuning algorithm. ">
<polygon fill="#ffffff" stroke="#000000" points="1440,-366.5 1440,-396.5 1548,-396.5 1548,-366.5 1440,-366.5"/>
<text text-anchor="start" x="1448" y="-384.5" font-family="Helvetica,sans-Serif" font-size="10.00" fill="#000000">SimpleWeightTuner::</text>
<text text-anchor="middle" x="1494" y="-373.5" font-family="Helvetica,sans-Serif" font-size="10.00" fill="#000000">iterate</text>
</a>
</g>
</g>
<!-- Node613&#45;&gt;Node614 -->
<g id="edge30" class="edge">
<title>Node613&#45;&gt;Node614</title>
<path fill="none" stroke="#191970" d="M1414.2702,-381.5C1422.7504,-381.5 1431.3754,-381.5 1439.6672,-381.5"/>
<polygon fill="#191970" stroke="#191970" points="1414.03,-378.0001 1404.03,-381.5 1414.0299,-385.0001 1414.03,-378.0001"/>
</g>
<!-- Node615&#45;&gt;Node601 -->
<g id="edge35" class="edge">
<title>Node615&#45;&gt;Node601</title>
<path fill="none" stroke="#191970" d="M398.1172,-413.1516C417.6821,-419.3107 441.5638,-426.8123 463,-433.5 478.3285,-438.2822 495.3736,-443.5645 509.5667,-447.9532"/>
<polygon fill="#191970" stroke="#191970" points="398.9048,-409.7303 388.3153,-410.0647 396.802,-416.407 398.9048,-409.7303"/>
</g>
<!-- Node616&#45;&gt;Node602 -->
<g id="edge37" class="edge">
<title>Node616&#45;&gt;Node602</title>
<path fill="none" stroke="#191970" d="M401.3261,-305.5C422.4789,-305.5 448.4289,-305.5 472.1666,-305.5"/>
<polygon fill="#191970" stroke="#191970" points="401.0494,-302.0001 391.0494,-305.5 401.0493,-309.0001 401.0494,-302.0001"/>
</g>
<!-- Node617&#45;&gt;Node603 -->
<g id="edge39" class="edge">
<title>Node617&#45;&gt;Node603</title>
<path fill="none" stroke="#191970" d="M399.4824,-267.5C421.7323,-267.5 449.6699,-267.5 474.7966,-267.5"/>
<polygon fill="#191970" stroke="#191970" points="399.3729,-264.0001 389.3729,-267.5 399.3728,-271.0001 399.3729,-264.0001"/>
</g>
<!-- Node618&#45;&gt;Node599 -->
<g id="edge41" class="edge">
<title>Node618&#45;&gt;Node599</title>
<path fill="none" stroke="#191970" d="M385.6468,-463.2566C414.5052,-469.2655 460.2494,-478.7903 494.5506,-485.9325"/>
<polygon fill="#191970" stroke="#191970" points="386.3347,-459.8248 375.8312,-461.2128 384.9077,-466.6778 386.3347,-459.8248"/>
</g>
<!-- Node619 -->
<g id="node28" class="node">
<title>Node619</title>
<g id="a_node28"><a xlink:href="classNeuronMonitorCore.html#a38f87732cc929797d9648e68cd509f1b" target="_top" xlink:title="sets timestamp of last NeuronMonitor update ">
<polygon fill="#ffffff" stroke="#000000" points="497.5,-524 497.5,-543 583.5,-543 583.5,-524 497.5,-524"/>
<text text-anchor="middle" x="540.5" y="-531" font-family="Helvetica,sans-Serif" font-size="10.00" fill="#000000">setLastUpdated</text>
</a>
</g>
</g>
<!-- Node618&#45;&gt;Node619 -->
<g id="edge42" class="edge">
<title>Node618&#45;&gt;Node619</title>
<path fill="none" stroke="#191970" d="M385.7201,-461.5641C398.9007,-464.3624 414.4747,-468.9824 427,-476.5 446.9474,-488.4723 442.8853,-502.811 463,-514.5 473.4206,-520.5556 485.7093,-524.6897 497.3927,-527.5089"/>
<polygon fill="#191970" stroke="#191970" points="386.2416,-458.1009 375.7667,-459.6899 384.9463,-464.98 386.2416,-458.1009"/>
</g>
<!-- Node619&#45;&gt;Node608 -->
<g id="edge43" class="edge">
<title>Node619&#45;&gt;Node608</title>
<path fill="none" stroke="#191970" d="M593.3411,-525.5676C601.9953,-522.8865 610.5555,-519.2993 618,-514.5 668.5957,-481.8822 705.1699,-416.2175 717.7344,-391.3488"/>
<polygon fill="#191970" stroke="#191970" points="592.3128,-522.2202 583.5847,-528.2261 594.1531,-528.9739 592.3128,-522.2202"/>
</g>
<!-- Node621 -->
<g id="node30" class="node">
<title>Node621</title>
<g id="a_node30"><a xlink:href="classCARLsim_1_1Impl.html#ad09ccf4ff95aa4f7b629afad588b0c88" target="_top" xlink:title="CARLsim::Impl::setNeuron\lMonitor">
<polygon fill="#ffffff" stroke="#000000" points="290.5,-.5 290.5,-30.5 425.5,-30.5 425.5,-.5 290.5,-.5"/>
<text text-anchor="start" x="298.5" y="-18.5" font-family="Helvetica,sans-Serif" font-size="10.00" fill="#000000">CARLsim::Impl::setNeuron</text>
<text text-anchor="middle" x="358" y="-7.5" font-family="Helvetica,sans-Serif" font-size="10.00" fill="#000000">Monitor</text>
</a>
</g>
</g>
<!-- Node620&#45;&gt;Node621 -->
<g id="edge46" class="edge">
<title>Node620&#45;&gt;Node621</title>
<path fill="none" stroke="#191970" d="M202.3541,-124.159C220.9262,-103.3136 254.4943,-68.297 289,-45.5 297.6099,-39.8116 307.4768,-34.7772 317.0049,-30.5347"/>
<polygon fill="#191970" stroke="#191970" points="199.5289,-122.0723 195.5683,-131.899 204.7925,-126.6869 199.5289,-122.0723"/>
</g>
<!-- Node622 -->
<g id="node31" class="node">
<title>Node622</title>
<g id="a_node31"><a xlink:href="classCARLsim.html#a9f96445ca9cb3edb1532b6c741ec5736" target="_top" xlink:title="Sets a Neuron Monitor for a groups, print voltage, recovery, and total current values to binary file...">
<polygon fill="#ffffff" stroke="#000000" points="469,-6 469,-25 612,-25 612,-6 469,-6"/>
<text text-anchor="middle" x="540.5" y="-13" font-family="Helvetica,sans-Serif" font-size="10.00" fill="#000000">CARLsim::setNeuronMonitor</text>
</a>
</g>
</g>
<!-- Node621&#45;&gt;Node622 -->
<g id="edge47" class="edge">
<title>Node621&#45;&gt;Node622</title>
<path fill="none" stroke="#191970" d="M435.7249,-15.5C446.7473,-15.5 458.0391,-15.5 468.9374,-15.5"/>
<polygon fill="#191970" stroke="#191970" points="435.697,-12.0001 425.6969,-15.5 435.6969,-19.0001 435.697,-12.0001"/>
</g>
</g>
</svg>
        <g id="navigator" transform="translate(0 0)" fill="#404254">
                <rect fill="#f2f5e9" fill-opacity="0.5" stroke="#606060" stroke-width=".5" x="0" y="0" width="60" height="60"/>
                <use id="zoomplus" xlink:href="#zoomPlus" x="17" y="9" onmousedown="handleZoom(evt,'in')"/>
                <use id="zoomminus" xlink:href="#zoomMin" x="42" y="9" onmousedown="handleZoom(evt,'out')"/>
                <use id="reset" xlink:href="#resetDef" x="30" y="36" onmousedown="handleReset()"/>
                <g id="arrowUp" xlink:href="#dirArrow" transform="translate(30 24)" onmousedown="handlePan(0,-1)">
                  <use xlink:href="#rim" fill="#404040">
                        <set attributeName="fill" to="#808080" begin="arrowUp.mouseover" end="arrowUp.mouseout"/>
                  </use>
                  <path fill="none" stroke="white" stroke-width="1.5" d="M0,-3.0v7 M-2.5,-0.5L0,-3.0L2.5,-0.5"/>
                </g>
                <g id="arrowRight" xlink:href="#dirArrow" transform="rotate(90) translate(36 -43)" onmousedown="handlePan(1,0)">
                  <use xlink:href="#rim" fill="#404040">
                        <set attributeName="fill" to="#808080" begin="arrowRight.mouseover" end="arrowRight.mouseout"/>
                  </use>
                  <path fill="none" stroke="white" stroke-width="1.5" d="M0,-3.0v7 M-2.5,-0.5L0,-3.0L2.5,-0.5"/>
                </g>
                <g id="arrowDown" xlink:href="#dirArrow" transform="rotate(180) translate(-30 -48)" onmousedown="handlePan(0,1)">
                  <use xlink:href="#rim" fill="#404040">
                        <set attributeName="fill" to="#808080" begin="arrowDown.mouseover" end="arrowDown.mouseout"/>
                  </use>
                  <path fill="none" stroke="white" stroke-width="1.5" d="M0,-3.0v7 M-2.5,-0.5L0,-3.0L2.5,-0.5"/>
                </g>
                <g id="arrowLeft" xlink:href="#dirArrow" transform="rotate(270) translate(-36 17)" onmousedown="handlePan(-1,0)">
                  <use xlink:href="#rim" fill="#404040">
                        <set attributeName="fill" to="#808080" begin="arrowLeft.mouseover" end="arrowLeft.mouseout"/>
                  </use>
                  <path fill="none" stroke="white" stroke-width="1.5" d="M0,-3.0v7 M-2.5,-0.5L0,-3.0L2.5,-0.5"/>
                </g>
        </g>
        <svg viewBox="0 0 15 15" width="100%" height="30px" preserveAspectRatio="xMaxYMin meet">
         <g id="arrow_out" transform="scale(0.3 0.3)">
          <a xlink:href="classNeuronMonitorCore_a5113f6b476e3e3544ecbffefa313234d_icgraph_org.svg" target="_base">
           <rect id="button" ry="5" rx="5" y="6" x="6" height="38" width="38"
                fill="#f2f5e9" fill-opacity="0.5" stroke="#606060" stroke-width="1.0"/>
           <path id="arrow"
             d="M 11.500037,31.436501 C 11.940474,20.09759 22.043105,11.32322 32.158766,21.979434 L 37.068811,17.246167 C 37.068811,17.246167 37.088388,32 37.088388,32 L 22.160133,31.978069 C 22.160133,31.978069 26.997745,27.140456 26.997745,27.140456 C 18.528582,18.264221 13.291696,25.230495 11.500037,31.436501 z"
             style="fill:#404040;"/>
          </a>
         </g>
        </svg>
</svg>
