<?xml version="1.0" encoding="UTF-8" standalone="no"?>
<!DOCTYPE svg PUBLIC "-//W3C//DTD SVG 1.1//EN"
 "http://www.w3.org/Graphics/SVG/1.1/DTD/svg11.dtd">
<!-- Generated by graphviz version 2.40.1 (20161225.0304)
 -->
<!-- Title: setUpdateTimeIntervalSec Pages: 1 -->
<svg width="480pt" height="91pt"
 viewBox="0.00 0.00 480.00 91.00" xmlns="http://www.w3.org/2000/svg" xmlns:xlink="http://www.w3.org/1999/xlink">
<g id="graph0" class="graph" transform="scale(1 1) rotate(0) translate(4 87)">
<title>setUpdateTimeIntervalSec</title>
<polygon fill="#ffffff" stroke="transparent" points="-4,4 -4,-87 476,-87 476,4 -4,4"/>
<!-- Node145 -->
<g id="node1" class="node">
<title>Node145</title>
<polygon fill="#bfbfbf" stroke="#000000" points="0,-41.5 0,-60.5 133,-60.5 133,-41.5 0,-41.5"/>
<text text-anchor="middle" x="66.5" y="-48.5" font-family="Helvetica,sans-Serif" font-size="10.00" fill="#000000">setUpdateTimeIntervalSec</text>
</g>
<!-- Node146 -->
<g id="node2" class="node">
<title>Node146</title>
<g id="a_node2"><a xlink:href="classUserErrors.html#a4bbedc6c0817d5e59e74e450bf00472c" target="_top" xlink:title="simple wrapper for assert statement ">
<polygon fill="#ffffff" stroke="#000000" points="180.5,-63.5 180.5,-82.5 296.5,-82.5 296.5,-63.5 180.5,-63.5"/>
<text text-anchor="middle" x="238.5" y="-70.5" font-family="Helvetica,sans-Serif" font-size="10.00" fill="#000000">UserErrors::assertTrue</text>
</a>
</g>
</g>
<!-- Node145&#45;&gt;Node146 -->
<g id="edge1" class="edge">
<title>Node145&#45;&gt;Node146</title>
<path fill="none" stroke="#191970" d="M133.4922,-59.5688C145.5777,-61.1146 158.1903,-62.7278 170.3095,-64.278"/>
<polygon fill="#191970" stroke="#191970" points="169.9878,-67.7652 180.3511,-65.5623 170.876,-60.8218 169.9878,-67.7652"/>
</g>
<!-- Node147 -->
<g id="node3" class="node">
<title>Node147</title>
<g id="a_node3"><a xlink:href="classConnectionMonitorCore.html#a90d83641a405b71b3652c01fb3ee5f0f" target="_top" xlink:title="sets time update interval (seconds) for periodically storing weights to file ">
<polygon fill="#ffffff" stroke="#000000" points="169,-14 169,-44 308,-44 308,-14 169,-14"/>
<text text-anchor="start" x="177" y="-32" font-family="Helvetica,sans-Serif" font-size="10.00" fill="#000000">ConnectionMonitorCore</text>
<text text-anchor="middle" x="238.5" y="-21" font-family="Helvetica,sans-Serif" font-size="10.00" fill="#000000">::setUpdateTimeIntervalSec</text>
</a>
</g>
</g>
<!-- Node145&#45;&gt;Node147 -->
<g id="edge2" class="edge">
<title>Node145&#45;&gt;Node147</title>
<path fill="none" stroke="#191970" d="M133.4922,-42.4312C141.8312,-41.3646 150.4211,-40.2659 158.9268,-39.178"/>
<polygon fill="#191970" stroke="#191970" points="159.3778,-42.6489 168.8529,-37.9084 158.4896,-35.7055 159.3778,-42.6489"/>
</g>
<!-- Node148 -->
<g id="node4" class="node">
<title>Node148</title>
<g id="a_node4"><a xlink:href="classSNN.html#a5fd2b156623d78138bcb44167eabab78" target="_top" xlink:title="SNN::getSimTime">
<polygon fill="#ffffff" stroke="#000000" points="359.5,-38.5 359.5,-57.5 456.5,-57.5 456.5,-38.5 359.5,-38.5"/>
<text text-anchor="middle" x="408" y="-45.5" font-family="Helvetica,sans-Serif" font-size="10.00" fill="#000000">SNN::getSimTime</text>
</a>
</g>
</g>
<!-- Node147&#45;&gt;Node148 -->
<g id="edge3" class="edge">
<title>Node147&#45;&gt;Node148</title>
<path fill="none" stroke="#191970" d="M308.4207,-36.8377C321.9486,-38.3541 335.9968,-39.9288 349.1281,-41.4008"/>
<polygon fill="#191970" stroke="#191970" points="349.1075,-44.9203 359.4352,-42.5562 349.8874,-37.9639 349.1075,-44.9203"/>
</g>
<!-- Node149 -->
<g id="node5" class="node">
<title>Node149</title>
<g id="a_node5"><a xlink:href="classSNN.html#a592ba98ba647dc5ae0aba0d26241fef8" target="_top" xlink:title="SNN::getWeightMatrix2D">
<polygon fill="#ffffff" stroke="#000000" points="344,-.5 344,-19.5 472,-19.5 472,-.5 344,-.5"/>
<text text-anchor="middle" x="408" y="-7.5" font-family="Helvetica,sans-Serif" font-size="10.00" fill="#000000">SNN::getWeightMatrix2D</text>
</a>
</g>
</g>
<!-- Node147&#45;&gt;Node149 -->
<g id="edge4" class="edge">
<title>Node147&#45;&gt;Node149</title>
<path fill="none" stroke="#191970" d="M308.4207,-21.1623C316.7841,-20.2248 325.3463,-19.265 333.7679,-18.321"/>
<polygon fill="#191970" stroke="#191970" points="334.3998,-21.7722 343.9476,-17.1799 333.62,-14.8157 334.3998,-21.7722"/>
</g>
</g>
</svg>
