<?xml version="1.0" encoding="UTF-8" standalone="no"?>
<!DOCTYPE svg PUBLIC "-//W3C//DTD SVG 1.1//EN"
 "http://www.w3.org/Graphics/SVG/1.1/DTD/svg11.dtd">
<!-- Generated by graphviz version 2.40.1 (20161225.0304)
 -->
<!-- Title: getRFDist3D Pages: 1 -->
<svg width="502pt" height="154pt"
 viewBox="0.00 0.00 502.00 153.50" xmlns="http://www.w3.org/2000/svg" xmlns:xlink="http://www.w3.org/1999/xlink">
<g id="graph0" class="graph" transform="scale(1 1) rotate(0) translate(4 149.5)">
<title>getRFDist3D</title>
<polygon fill="#ffffff" stroke="transparent" points="-4,4 -4,-149.5 498,-149.5 498,4 -4,4"/>
<!-- Node1045 -->
<g id="node1" class="node">
<title>Node1045</title>
<polygon fill="#bfbfbf" stroke="#000000" points="0,-69 0,-88 74,-88 74,-69 0,-69"/>
<text text-anchor="middle" x="37" y="-76" font-family="Helvetica,sans-Serif" font-size="10.00" fill="#000000">getRFDist3D</text>
</g>
<!-- Node1046 -->
<g id="node2" class="node">
<title>Node1046</title>
<g id="a_node2"><a xlink:href="classSNN.html#a477f99451786873b73e2623b6f89b766" target="_top" xlink:title="deallocates all dynamical structures and exits ">
<polygon fill="#ffffff" stroke="#000000" points="118.5,-126 118.5,-145 196.5,-145 196.5,-126 118.5,-126"/>
<text text-anchor="middle" x="157.5" y="-133" font-family="Helvetica,sans-Serif" font-size="10.00" fill="#000000">exitSimulation</text>
</a>
</g>
</g>
<!-- Node1045&#45;&gt;Node1046 -->
<g id="edge1" class="edge">
<title>Node1045&#45;&gt;Node1046</title>
<path fill="none" stroke="#191970" d="M54.1637,-88.0522C68.8066,-96.0513 90.5212,-107.5612 110,-116.5 114.1068,-118.3846 118.4573,-120.2705 122.7924,-122.0829"/>
<polygon fill="#191970" stroke="#191970" points="121.5763,-125.3667 132.1575,-125.9036 124.2205,-118.8854 121.5763,-125.3667"/>
</g>
<!-- Node1047 -->
<g id="node3" class="node">
<title>Node1047</title>
<g id="a_node3"><a xlink:href="classSpikeBuffer.html#adbf613d02805d9a0e54f115d2b0f48da" target="_top" xlink:title="Reset buffer data. ">
<polygon fill="#ffffff" stroke="#000000" points="110,-88 110,-107 205,-107 205,-88 110,-88"/>
<text text-anchor="middle" x="157.5" y="-95" font-family="Helvetica,sans-Serif" font-size="10.00" fill="#000000">SpikeBuffer::reset</text>
</a>
</g>
</g>
<!-- Node1045&#45;&gt;Node1047 -->
<g id="edge2" class="edge">
<title>Node1045&#45;&gt;Node1047</title>
<path fill="none" stroke="#191970" d="M74.1372,-84.3557C82.1891,-85.6253 90.8901,-86.9972 99.5286,-88.3593"/>
<polygon fill="#191970" stroke="#191970" points="99.1749,-91.8467 109.598,-89.947 100.2652,-84.9321 99.1749,-91.8467"/>
</g>
<!-- Node1049 -->
<g id="node5" class="node">
<title>Node1049</title>
<g id="a_node5"><a xlink:href="classSpikeBuffer.html#a91568181a88cf6248893e88275269313" target="_top" xlink:title="pointer to the back of the spike buffer ">
<polygon fill="#ffffff" stroke="#000000" points="110,-50 110,-69 205,-69 205,-50 110,-50"/>
<text text-anchor="middle" x="157.5" y="-57" font-family="Helvetica,sans-Serif" font-size="10.00" fill="#000000">SpikeBuffer::back</text>
</a>
</g>
</g>
<!-- Node1045&#45;&gt;Node1049 -->
<g id="edge4" class="edge">
<title>Node1045&#45;&gt;Node1049</title>
<path fill="none" stroke="#191970" d="M74.1372,-72.6443C82.1891,-71.3747 90.8901,-70.0028 99.5286,-68.6407"/>
<polygon fill="#191970" stroke="#191970" points="100.2652,-72.0679 109.598,-67.053 99.1749,-65.1533 100.2652,-72.0679"/>
</g>
<!-- Node1051 -->
<g id="node7" class="node">
<title>Node1051</title>
<g id="a_node7"><a xlink:href="classSpikeBuffer.html#a4f84af934c8a89f48edf5bdcb9b24e0d" target="_top" xlink:title="pointer to the front of the spike buffer ">
<polygon fill="#ffffff" stroke="#000000" points="111,-9 111,-28 204,-28 204,-9 111,-9"/>
<text text-anchor="middle" x="157.5" y="-16" font-family="Helvetica,sans-Serif" font-size="10.00" fill="#000000">SpikeBuffer::front</text>
</a>
</g>
</g>
<!-- Node1045&#45;&gt;Node1051 -->
<g id="edge6" class="edge">
<title>Node1045&#45;&gt;Node1051</title>
<path fill="none" stroke="#191970" d="M54.8822,-68.8974C69.589,-61.0711 91.0225,-49.828 110,-40.5 115.434,-37.829 121.2568,-35.0582 126.898,-32.4205"/>
<polygon fill="#191970" stroke="#191970" points="128.5175,-35.5276 136.1197,-28.148 125.5748,-29.1762 128.5175,-35.5276"/>
</g>
<!-- Node1048 -->
<g id="node4" class="node">
<title>Node1048</title>
<g id="a_node4"><a xlink:href="classSpikeBuffer_1_1Impl.html#adbf613d02805d9a0e54f115d2b0f48da" target="_top" xlink:title="SpikeBuffer::Impl::\lreset">
<polygon fill="#ffffff" stroke="#000000" points="251.5,-88.5 251.5,-118.5 349.5,-118.5 349.5,-88.5 251.5,-88.5"/>
<text text-anchor="start" x="259.5" y="-106.5" font-family="Helvetica,sans-Serif" font-size="10.00" fill="#000000">SpikeBuffer::Impl::</text>
<text text-anchor="middle" x="300.5" y="-95.5" font-family="Helvetica,sans-Serif" font-size="10.00" fill="#000000">reset</text>
</a>
</g>
</g>
<!-- Node1047&#45;&gt;Node1048 -->
<g id="edge3" class="edge">
<title>Node1047&#45;&gt;Node1048</title>
<path fill="none" stroke="#191970" d="M205.1169,-99.4979C216.5538,-99.9778 228.9118,-100.4963 240.8198,-100.9959"/>
<polygon fill="#191970" stroke="#191970" points="240.9963,-104.5063 251.1342,-101.4287 241.2898,-97.5125 240.9963,-104.5063"/>
</g>
<!-- Node1050 -->
<g id="node6" class="node">
<title>Node1050</title>
<g id="a_node6"><a xlink:href="classSpikeBuffer_1_1Impl.html#afc0208313f3c3491b910a943c46c49d1" target="_top" xlink:title="SpikeBuffer::Impl::back">
<polygon fill="#ffffff" stroke="#000000" points="241,-50 241,-69 360,-69 360,-50 241,-50"/>
<text text-anchor="middle" x="300.5" y="-57" font-family="Helvetica,sans-Serif" font-size="10.00" fill="#000000">SpikeBuffer::Impl::back</text>
</a>
</g>
</g>
<!-- Node1049&#45;&gt;Node1050 -->
<g id="edge5" class="edge">
<title>Node1049&#45;&gt;Node1050</title>
<path fill="none" stroke="#191970" d="M205.1169,-59.5C213.3509,-59.5 222.0622,-59.5 230.7394,-59.5"/>
<polygon fill="#191970" stroke="#191970" points="230.8793,-63.0001 240.8793,-59.5 230.8793,-56.0001 230.8793,-63.0001"/>
</g>
<!-- Node1052 -->
<g id="node8" class="node">
<title>Node1052</title>
<g id="a_node8"><a xlink:href="classSpikeBuffer_1_1Impl.html#a957018d0ce9dbff3f302ffd89e5841f6" target="_top" xlink:title="SpikeBuffer::Impl::\lfront">
<polygon fill="#ffffff" stroke="#000000" points="251.5,-.5 251.5,-30.5 349.5,-30.5 349.5,-.5 251.5,-.5"/>
<text text-anchor="start" x="259.5" y="-18.5" font-family="Helvetica,sans-Serif" font-size="10.00" fill="#000000">SpikeBuffer::Impl::</text>
<text text-anchor="middle" x="300.5" y="-7.5" font-family="Helvetica,sans-Serif" font-size="10.00" fill="#000000">front</text>
</a>
</g>
</g>
<!-- Node1051&#45;&gt;Node1052 -->
<g id="edge7" class="edge">
<title>Node1051&#45;&gt;Node1052</title>
<path fill="none" stroke="#191970" d="M204.3235,-17.5177C216.0327,-17.272 228.7482,-17.0053 240.9819,-16.7486"/>
<polygon fill="#191970" stroke="#191970" points="241.188,-20.2452 251.1123,-16.5361 241.0411,-13.2467 241.188,-20.2452"/>
</g>
<!-- Node1053 -->
<g id="node9" class="node">
<title>Node1053</title>
<g id="a_node9"><a xlink:href="classSpikeBuffer_1_1Impl.html#a247bd0fb9923075af341c93f52ff7b9b" target="_top" xlink:title="SpikeBuffer::Impl::\llength">
<polygon fill="#ffffff" stroke="#000000" points="396,-.5 396,-30.5 494,-30.5 494,-.5 396,-.5"/>
<text text-anchor="start" x="404" y="-18.5" font-family="Helvetica,sans-Serif" font-size="10.00" fill="#000000">SpikeBuffer::Impl::</text>
<text text-anchor="middle" x="445" y="-7.5" font-family="Helvetica,sans-Serif" font-size="10.00" fill="#000000">length</text>
</a>
</g>
</g>
<!-- Node1052&#45;&gt;Node1053 -->
<g id="edge8" class="edge">
<title>Node1052&#45;&gt;Node1053</title>
<path fill="none" stroke="#191970" d="M349.8246,-15.5C361.3334,-15.5 373.708,-15.5 385.6025,-15.5"/>
<polygon fill="#191970" stroke="#191970" points="385.8978,-19.0001 395.8977,-15.5 385.8977,-12.0001 385.8978,-19.0001"/>
</g>
</g>
</svg>
