<?xml version="1.0" encoding="UTF-8" standalone="no"?>
<!DOCTYPE svg PUBLIC "-//W3C//DTD SVG 1.1//EN"
 "http://www.w3.org/Graphics/SVG/1.1/DTD/svg11.dtd">
<!-- Generated by graphviz version 2.40.1 (20161225.0304)
 -->
<!-- Title: takeSnapshot Pages: 1 -->
<svg width="666pt" height="484pt"
 viewBox="0.00 0.00 666.00 484.00" xmlns="http://www.w3.org/2000/svg" xmlns:xlink="http://www.w3.org/1999/xlink">
<g id="graph0" class="graph" transform="scale(1 1) rotate(0) translate(4 480)">
<title>takeSnapshot</title>
<polygon fill="#ffffff" stroke="transparent" points="-4,4 -4,-480 662,-480 662,4 -4,4"/>
<!-- Node326 -->
<g id="node1" class="node">
<title>Node326</title>
<polygon fill="#bfbfbf" stroke="#000000" points="0,-304.5 0,-323.5 77,-323.5 77,-304.5 0,-304.5"/>
<text text-anchor="middle" x="38.5" y="-311.5" font-family="Helvetica,sans-Serif" font-size="10.00" fill="#000000">takeSnapshot</text>
</g>
<!-- Node327 -->
<g id="node2" class="node">
<title>Node327</title>
<g id="a_node2"><a xlink:href="classConnectionMonitorCore.html#a879cc76753757f4df109f005aac872a5" target="_top" xlink:title="writes each snapshot to connect file ">
<polygon fill="#ffffff" stroke="#000000" points="113,-342.5 113,-361.5 244,-361.5 244,-342.5 113,-342.5"/>
<text text-anchor="middle" x="178.5" y="-349.5" font-family="Helvetica,sans-Serif" font-size="10.00" fill="#000000">writeConnectFileSnapshot</text>
</a>
</g>
</g>
<!-- Node326&#45;&gt;Node327 -->
<g id="edge1" class="edge">
<title>Node326&#45;&gt;Node327</title>
<path fill="none" stroke="#191970" d="M73.8279,-323.589C91.9006,-328.4944 114.0984,-334.5196 133.3945,-339.7571"/>
<polygon fill="#191970" stroke="#191970" points="132.6157,-343.1723 143.1834,-342.4141 134.4494,-336.4167 132.6157,-343.1723"/>
</g>
<!-- Node328 -->
<g id="node3" class="node">
<title>Node328</title>
<g id="a_node3"><a xlink:href="classConnectionMonitorCore.html#a02fd73d861ef2e4aabb38c0c9ff82947" target="_top" xlink:title="init">
<polygon fill="#ffffff" stroke="#000000" points="164,-304.5 164,-323.5 193,-323.5 193,-304.5 164,-304.5"/>
<text text-anchor="middle" x="178.5" y="-311.5" font-family="Helvetica,sans-Serif" font-size="10.00" fill="#000000">init</text>
</a>
</g>
</g>
<!-- Node326&#45;&gt;Node328 -->
<g id="edge2" class="edge">
<title>Node326&#45;&gt;Node328</title>
<path fill="none" stroke="#191970" d="M77.1262,-314C101.5246,-314 132.3345,-314 153.5482,-314"/>
<polygon fill="#191970" stroke="#191970" points="153.6822,-317.5001 163.6821,-314 153.6821,-310.5001 153.6822,-317.5001"/>
</g>
<!-- Node343 -->
<g id="node18" class="node">
<title>Node343</title>
<g id="a_node18"><a xlink:href="classSNN.html#ac13b30c40669d3cb8264bd6e211b449d" target="_top" xlink:title="SNN::getGroupGrid3D">
<polygon fill="#ffffff" stroke="#000000" points="515.5,-.5 515.5,-19.5 630.5,-19.5 630.5,-.5 515.5,-.5"/>
<text text-anchor="middle" x="573" y="-7.5" font-family="Helvetica,sans-Serif" font-size="10.00" fill="#000000">SNN::getGroupGrid3D</text>
</a>
</g>
</g>
<!-- Node326&#45;&gt;Node343 -->
<g id="edge22" class="edge">
<title>Node326&#45;&gt;Node343</title>
<path fill="none" stroke="#191970" d="M50.1507,-304.4059C99.6247,-264.1655 298.466,-107.4618 488,-29 494.1954,-26.4353 500.7949,-24.189 507.4725,-22.2278"/>
<polygon fill="#191970" stroke="#191970" points="508.5475,-25.5625 517.274,-19.5544 506.7055,-18.8092 508.5475,-25.5625"/>
</g>
<!-- Node329 -->
<g id="node4" class="node">
<title>Node329</title>
<g id="a_node4"><a xlink:href="classSNN.html#a11e19a0ccbeca92ba843a5933b3321e0" target="_top" xlink:title="SNN::getGroupNumNeurons">
<polygon fill="#ffffff" stroke="#000000" points="295,-456.5 295,-475.5 437,-475.5 437,-456.5 295,-456.5"/>
<text text-anchor="middle" x="366" y="-463.5" font-family="Helvetica,sans-Serif" font-size="10.00" fill="#000000">SNN::getGroupNumNeurons</text>
</a>
</g>
</g>
<!-- Node328&#45;&gt;Node329 -->
<g id="edge3" class="edge">
<title>Node328&#45;&gt;Node329</title>
<path fill="none" stroke="#191970" d="M193.2316,-314.4047C207.9718,-315.5993 230.3627,-319.6802 244,-333 282.0105,-370.1257 240.8052,-411.1269 280,-447 281.9246,-448.7615 283.9746,-450.3725 286.1249,-451.8454"/>
<polygon fill="#191970" stroke="#191970" points="284.4479,-454.9184 294.862,-456.8672 287.9362,-448.8495 284.4479,-454.9184"/>
</g>
<!-- Node330 -->
<g id="node5" class="node">
<title>Node330</title>
<g id="a_node5"><a xlink:href="classSNN.html#a821a04dec998f1fcebcc048d39cc8b21" target="_top" xlink:title="returns whether synapses in connection are fixed (false) or plastic (true) ">
<polygon fill="#ffffff" stroke="#000000" points="300.5,-418.5 300.5,-437.5 431.5,-437.5 431.5,-418.5 300.5,-418.5"/>
<text text-anchor="middle" x="366" y="-425.5" font-family="Helvetica,sans-Serif" font-size="10.00" fill="#000000">SNN::isConnectionPlastic</text>
</a>
</g>
</g>
<!-- Node328&#45;&gt;Node330 -->
<g id="edge4" class="edge">
<title>Node328&#45;&gt;Node330</title>
<path fill="none" stroke="#191970" d="M193.1396,-314.8302C207.5963,-316.3666 229.5763,-320.7179 244,-333 272.4566,-357.2313 250.7723,-385.7045 280,-409 283.363,-411.6804 287.025,-414.0012 290.8798,-416.009"/>
<polygon fill="#191970" stroke="#191970" points="289.6153,-419.2772 300.1743,-420.1479 292.4629,-412.8825 289.6153,-419.2772"/>
</g>
<!-- Node331 -->
<g id="node6" class="node">
<title>Node331</title>
<g id="a_node6"><a xlink:href="classSNN.html#a52f149e224abff772962dea6680398e2" target="_top" xlink:title="gets number of connections associated with a connection ID ">
<polygon fill="#ffffff" stroke="#000000" points="280,-380.5 280,-399.5 452,-399.5 452,-380.5 280,-380.5"/>
<text text-anchor="middle" x="366" y="-387.5" font-family="Helvetica,sans-Serif" font-size="10.00" fill="#000000">SNN::getNumSynapticConnections</text>
</a>
</g>
</g>
<!-- Node328&#45;&gt;Node331 -->
<g id="edge5" class="edge">
<title>Node328&#45;&gt;Node331</title>
<path fill="none" stroke="#191970" d="M193.0405,-316.2397C206.8316,-318.8082 227.7958,-323.8905 244,-333 262.9203,-343.6364 261.0258,-355.4601 280,-366 288.3475,-370.6369 297.6573,-374.4319 306.983,-377.5218"/>
<polygon fill="#191970" stroke="#191970" points="306.0807,-380.9059 316.6674,-380.4921 308.1334,-374.2136 306.0807,-380.9059"/>
</g>
<!-- Node333 -->
<g id="node8" class="node">
<title>Node333</title>
<g id="a_node8"><a xlink:href="classSNN.html#acdfe8b1c7c69be228cc51535cfec0215" target="_top" xlink:title="required for homeostasis ">
<polygon fill="#ffffff" stroke="#000000" points="511.5,-342.5 511.5,-361.5 634.5,-361.5 634.5,-342.5 511.5,-342.5"/>
<text text-anchor="middle" x="573" y="-349.5" font-family="Helvetica,sans-Serif" font-size="10.00" fill="#000000">SNN::getConnectConfig</text>
</a>
</g>
</g>
<!-- Node328&#45;&gt;Node333 -->
<g id="edge7" class="edge">
<title>Node328&#45;&gt;Node333</title>
<path fill="none" stroke="#191970" d="M193.2049,-317.3289C212.8702,-321.648 248.8711,-329.0916 280,-333 355.1841,-342.4399 441.8461,-347.3232 501.3064,-349.7588"/>
<polygon fill="#191970" stroke="#191970" points="501.2143,-353.2578 511.3453,-350.1573 501.492,-346.2633 501.2143,-353.2578"/>
</g>
<!-- Node334 -->
<g id="node9" class="node">
<title>Node334</title>
<g id="a_node9"><a xlink:href="classSNN.html#aca55cbeeccd57d4b6de64ca8e1d7d2c5" target="_top" xlink:title="function writes population weights from gIDpre to gIDpost to file fname in binary. ">
<polygon fill="#ffffff" stroke="#000000" points="318,-304.5 318,-323.5 414,-323.5 414,-304.5 318,-304.5"/>
<text text-anchor="middle" x="366" y="-311.5" font-family="Helvetica,sans-Serif" font-size="10.00" fill="#000000">SNN::getLogFpInf</text>
</a>
</g>
</g>
<!-- Node328&#45;&gt;Node334 -->
<g id="edge8" class="edge">
<title>Node328&#45;&gt;Node334</title>
<path fill="none" stroke="#191970" d="M193.2128,-314C217.594,-314 267.6497,-314 307.6379,-314"/>
<polygon fill="#191970" stroke="#191970" points="307.8283,-317.5001 317.8283,-314 307.8282,-310.5001 307.8283,-317.5001"/>
</g>
<!-- Node335 -->
<g id="node10" class="node">
<title>Node335</title>
<g id="a_node10"><a xlink:href="classSNN.html#a5de043bd478d97d08d1671967cddc551" target="_top" xlink:title="returns file pointer to error log ">
<polygon fill="#ffffff" stroke="#000000" points="317,-266.5 317,-285.5 415,-285.5 415,-266.5 317,-266.5"/>
<text text-anchor="middle" x="366" y="-273.5" font-family="Helvetica,sans-Serif" font-size="10.00" fill="#000000">SNN::getLogFpErr</text>
</a>
</g>
</g>
<!-- Node328&#45;&gt;Node335 -->
<g id="edge9" class="edge">
<title>Node328&#45;&gt;Node335</title>
<path fill="none" stroke="#191970" d="M193.2128,-311.0182C217.8845,-306.0181 268.8462,-295.6898 309.063,-287.5392"/>
<polygon fill="#191970" stroke="#191970" points="309.9281,-290.9351 319.0336,-285.5185 308.5376,-284.0746 309.9281,-290.9351"/>
</g>
<!-- Node336 -->
<g id="node11" class="node">
<title>Node336</title>
<g id="a_node11"><a xlink:href="classSNN.html#a618dd0ac460a947283a39c3044e727d6" target="_top" xlink:title="returns file pointer to debug log ">
<polygon fill="#ffffff" stroke="#000000" points="314.5,-228.5 314.5,-247.5 417.5,-247.5 417.5,-228.5 314.5,-228.5"/>
<text text-anchor="middle" x="366" y="-235.5" font-family="Helvetica,sans-Serif" font-size="10.00" fill="#000000">SNN::getLogFpDeb</text>
</a>
</g>
</g>
<!-- Node328&#45;&gt;Node336 -->
<g id="edge10" class="edge">
<title>Node328&#45;&gt;Node336</title>
<path fill="none" stroke="#191970" d="M192.3053,-304.4952C211.2554,-291.8677 246.768,-269.682 280,-257 287.8036,-254.022 296.1925,-251.4498 304.5618,-249.2458"/>
<polygon fill="#191970" stroke="#191970" points="305.475,-252.6255 314.3412,-246.8254 303.7932,-245.8305 305.475,-252.6255"/>
</g>
<!-- Node337 -->
<g id="node12" class="node">
<title>Node337</title>
<g id="a_node12"><a xlink:href="classSNN.html#acd2fe569d2092f6e9cf624d18b93b1bf" target="_top" xlink:title="returns file pointer to log file ">
<polygon fill="#ffffff" stroke="#000000" points="315.5,-190.5 315.5,-209.5 416.5,-209.5 416.5,-190.5 315.5,-190.5"/>
<text text-anchor="middle" x="366" y="-197.5" font-family="Helvetica,sans-Serif" font-size="10.00" fill="#000000">SNN::getLogFpLog</text>
</a>
</g>
</g>
<!-- Node328&#45;&gt;Node337 -->
<g id="edge11" class="edge">
<title>Node328&#45;&gt;Node337</title>
<path fill="none" stroke="#191970" d="M185.7159,-304.4243C200.8839,-285.0231 238.1468,-241.0497 280,-219 287.8632,-214.8574 296.5891,-211.6165 305.3807,-209.0813"/>
<polygon fill="#191970" stroke="#191970" points="306.4923,-212.4089 315.2921,-206.5085 304.7335,-205.6334 306.4923,-212.4089"/>
</g>
<!-- Node332 -->
<g id="node7" class="node">
<title>Node332</title>
<g id="a_node7"><a xlink:href="classSNN.html#a477f99451786873b73e2623b6f89b766" target="_top" xlink:title="deallocates all dynamical structures and exits ">
<polygon fill="#ffffff" stroke="#000000" points="520,-380.5 520,-399.5 626,-399.5 626,-380.5 520,-380.5"/>
<text text-anchor="middle" x="573" y="-387.5" font-family="Helvetica,sans-Serif" font-size="10.00" fill="#000000">SNN::exitSimulation</text>
</a>
</g>
</g>
<!-- Node331&#45;&gt;Node332 -->
<g id="edge6" class="edge">
<title>Node331&#45;&gt;Node332</title>
<path fill="none" stroke="#191970" d="M452.2877,-390C471.5734,-390 491.6794,-390 509.8253,-390"/>
<polygon fill="#191970" stroke="#191970" points="509.9733,-393.5001 519.9732,-390 509.9732,-386.5001 509.9733,-393.5001"/>
</g>
<!-- Node337&#45;&gt;Node333 -->
<g id="edge14" class="edge">
<title>Node337&#45;&gt;Node333</title>
<path fill="none" stroke="#191970" d="M416.5716,-202.2626C429.4113,-205.0643 442.2996,-210.1217 452,-219 491.1948,-254.8731 448.8496,-297.0784 488,-333 492.1085,-336.7697 496.7971,-339.8476 501.8133,-342.3549"/>
<polygon fill="#191970" stroke="#191970" points="500.5669,-345.6276 511.1418,-346.2777 503.2804,-339.1749 500.5669,-345.6276"/>
</g>
<!-- Node338 -->
<g id="node13" class="node">
<title>Node338</title>
<g id="a_node13"><a xlink:href="classSNN.html#a2f4a65f43d2b15b984464dfb19959fe3" target="_top" xlink:title="Sets the file pointers for all log files file pointer NULL means don&#39;t change it. ...">
<polygon fill="#ffffff" stroke="#000000" points="528,-304.5 528,-323.5 618,-323.5 618,-304.5 528,-304.5"/>
<text text-anchor="middle" x="573" y="-311.5" font-family="Helvetica,sans-Serif" font-size="10.00" fill="#000000">SNN::setLogsFp</text>
</a>
</g>
</g>
<!-- Node337&#45;&gt;Node338 -->
<g id="edge12" class="edge">
<title>Node337&#45;&gt;Node338</title>
<path fill="none" stroke="#191970" d="M416.6964,-203.3641C429.244,-206.197 441.9559,-210.9945 452,-219 481.2277,-242.2955 458.8012,-271.6683 488,-295 496.5921,-301.8656 507.1634,-306.3637 517.8955,-309.2853"/>
<polygon fill="#191970" stroke="#191970" points="517.2149,-312.7201 527.7447,-311.548 518.7822,-305.8978 517.2149,-312.7201"/>
</g>
<!-- Node339 -->
<g id="node14" class="node">
<title>Node339</title>
<g id="a_node14"><a xlink:href="classSNN.html#a44b05911f213714c351379021852e12a" target="_top" xlink:title="find connection ID based on pre&#45;post group pair, O(N) ">
<polygon fill="#ffffff" stroke="#000000" points="521.5,-266.5 521.5,-285.5 624.5,-285.5 624.5,-266.5 521.5,-266.5"/>
<text text-anchor="middle" x="573" y="-273.5" font-family="Helvetica,sans-Serif" font-size="10.00" fill="#000000">SNN::getConnectId</text>
</a>
</g>
</g>
<!-- Node337&#45;&gt;Node339 -->
<g id="edge13" class="edge">
<title>Node337&#45;&gt;Node339</title>
<path fill="none" stroke="#191970" d="M416.5076,-205.9464C428.6529,-208.7588 441.2207,-212.9005 452,-219 472.2477,-230.4571 467.7665,-245.5178 488,-257 495.2783,-261.1303 503.3823,-264.3628 511.6148,-266.8926"/>
<polygon fill="#191970" stroke="#191970" points="510.7264,-270.2781 521.2963,-269.5513 512.5801,-263.528 510.7264,-270.2781"/>
</g>
<!-- Node340 -->
<g id="node15" class="node">
<title>Node340</title>
<g id="a_node15"><a xlink:href="classSNN.html#a37221c7881b5fa8d1d806804fb9521ab" target="_top" xlink:title="SNN::getConnSTDPInfo">
<polygon fill="#ffffff" stroke="#000000" points="510.5,-228.5 510.5,-247.5 635.5,-247.5 635.5,-228.5 510.5,-228.5"/>
<text text-anchor="middle" x="573" y="-235.5" font-family="Helvetica,sans-Serif" font-size="10.00" fill="#000000">SNN::getConnSTDPInfo</text>
</a>
</g>
</g>
<!-- Node337&#45;&gt;Node340 -->
<g id="edge15" class="edge">
<title>Node337&#45;&gt;Node340</title>
<path fill="none" stroke="#191970" d="M416.6379,-209.2958C445.1348,-214.5272 480.94,-221.1001 511.0945,-226.6357"/>
<polygon fill="#191970" stroke="#191970" points="510.6179,-230.1066 521.0855,-228.4698 511.8819,-223.2217 510.6179,-230.1066"/>
</g>
<!-- Node341 -->
<g id="node16" class="node">
<title>Node341</title>
<g id="a_node16"><a xlink:href="classSNN.html#aee3e497537bc8121f6c0c8fb3730ae72" target="_top" xlink:title="returns the RangeDelay struct of a connection ">
<polygon fill="#ffffff" stroke="#000000" points="517,-190.5 517,-209.5 629,-209.5 629,-190.5 517,-190.5"/>
<text text-anchor="middle" x="573" y="-197.5" font-family="Helvetica,sans-Serif" font-size="10.00" fill="#000000">SNN::getDelayRange</text>
</a>
</g>
</g>
<!-- Node337&#45;&gt;Node341 -->
<g id="edge16" class="edge">
<title>Node337&#45;&gt;Node341</title>
<path fill="none" stroke="#191970" d="M416.6379,-200C443.7261,-200 477.4178,-200 506.5827,-200"/>
<polygon fill="#191970" stroke="#191970" points="506.6917,-203.5001 516.6916,-200 506.6916,-196.5001 506.6917,-203.5001"/>
</g>
<!-- Node342 -->
<g id="node17" class="node">
<title>Node342</title>
<g id="a_node17"><a xlink:href="classSNN.html#a317da03ce4b0b13d9621e277f468e058" target="_top" xlink:title="Returns the delay information for all synaptic connections between a pre&#45;synaptic and a post&#45;synaptic...">
<polygon fill="#ffffff" stroke="#000000" points="528.5,-152.5 528.5,-171.5 617.5,-171.5 617.5,-152.5 528.5,-152.5"/>
<text text-anchor="middle" x="573" y="-159.5" font-family="Helvetica,sans-Serif" font-size="10.00" fill="#000000">SNN::getDelays</text>
</a>
</g>
</g>
<!-- Node337&#45;&gt;Node342 -->
<g id="edge17" class="edge">
<title>Node337&#45;&gt;Node342</title>
<path fill="none" stroke="#191970" d="M416.6379,-190.7042C447.4187,-185.0536 486.7263,-177.8377 518.2294,-172.0545"/>
<polygon fill="#191970" stroke="#191970" points="518.9591,-175.4791 528.1628,-170.231 517.6952,-168.5942 518.9591,-175.4791"/>
</g>
<!-- Node337&#45;&gt;Node343 -->
<g id="edge18" class="edge">
<title>Node337&#45;&gt;Node343</title>
<path fill="none" stroke="#191970" d="M375.6426,-190.4272C392.5259,-173.3323 427.9303,-135.9668 452,-100 471.6773,-70.5967 460.0657,-50.7123 488,-29 493.3744,-24.8227 499.4869,-21.527 505.9118,-18.932"/>
<polygon fill="#191970" stroke="#191970" points="507.1958,-22.1914 515.4989,-15.6104 504.9042,-15.5771 507.1958,-22.1914"/>
</g>
<!-- Node344 -->
<g id="node19" class="node">
<title>Node344</title>
<g id="a_node19"><a xlink:href="classSNN.html#a757c874860e9e4d5ce0716e76b1a3e78" target="_top" xlink:title="SNN::getGroupId">
<polygon fill="#ffffff" stroke="#000000" points="527,-114.5 527,-133.5 619,-133.5 619,-114.5 527,-114.5"/>
<text text-anchor="middle" x="573" y="-121.5" font-family="Helvetica,sans-Serif" font-size="10.00" fill="#000000">SNN::getGroupId</text>
</a>
</g>
</g>
<!-- Node337&#45;&gt;Node344 -->
<g id="edge19" class="edge">
<title>Node337&#45;&gt;Node344</title>
<path fill="none" stroke="#191970" d="M383.2819,-190.456C406.4841,-177.9886 449.2756,-156.199 488,-143 497.1354,-139.8862 506.9994,-137.144 516.6608,-134.7817"/>
<polygon fill="#191970" stroke="#191970" points="517.674,-138.1394 526.6165,-132.4577 516.0827,-131.3226 517.674,-138.1394"/>
</g>
<!-- Node345 -->
<g id="node20" class="node">
<title>Node345</title>
<g id="a_node20"><a xlink:href="classSNN.html#ab0367f8ebd4019bf7d34ebddb1563fe7" target="_top" xlink:title="SNN::getGroupName">
<polygon fill="#ffffff" stroke="#000000" points="518,-76.5 518,-95.5 628,-95.5 628,-76.5 518,-76.5"/>
<text text-anchor="middle" x="573" y="-83.5" font-family="Helvetica,sans-Serif" font-size="10.00" fill="#000000">SNN::getGroupName</text>
</a>
</g>
</g>
<!-- Node337&#45;&gt;Node345 -->
<g id="edge20" class="edge">
<title>Node337&#45;&gt;Node345</title>
<path fill="none" stroke="#191970" d="M375.1215,-190.4899C394.1795,-171.2094 440.4131,-127.4473 488,-105 494.2482,-102.0526 500.9735,-99.5522 507.8066,-97.4329"/>
<polygon fill="#191970" stroke="#191970" points="509.1812,-100.6815 517.8519,-94.593 507.2769,-93.9455 509.1812,-100.6815"/>
</g>
<!-- Node346 -->
<g id="node21" class="node">
<title>Node346</title>
<g id="a_node21"><a xlink:href="classSNN.html#aa1c9457d6e17337cfc20cee263f1159f" target="_top" xlink:title="SNN::getGroupNeuromodulatorInfo">
<polygon fill="#ffffff" stroke="#000000" points="488,-38.5 488,-57.5 658,-57.5 658,-38.5 488,-38.5"/>
<text text-anchor="middle" x="573" y="-45.5" font-family="Helvetica,sans-Serif" font-size="10.00" fill="#000000">SNN::getGroupNeuromodulatorInfo</text>
</a>
</g>
</g>
<!-- Node337&#45;&gt;Node346 -->
<g id="edge21" class="edge">
<title>Node337&#45;&gt;Node346</title>
<path fill="none" stroke="#191970" d="M374.299,-190.3004C399.3915,-161.0675 473.6233,-75.3121 488,-67 491.8597,-64.7685 495.9578,-62.7989 500.1883,-61.0606"/>
<polygon fill="#191970" stroke="#191970" points="501.4295,-64.3335 509.6197,-57.6126 499.0259,-57.759 501.4295,-64.3335"/>
</g>
</g>
</svg>
