<?xml version="1.0" encoding="UTF-8" standalone="no"?>
<!DOCTYPE svg PUBLIC "-//W3C//DTD SVG 1.1//EN"
 "http://www.w3.org/Graphics/SVG/1.1/DTD/svg11.dtd">
<!-- Generated by graphviz version 2.40.1 (20161225.0304)
 -->
<!-- Title: setISTDP Pages: 1 -->
<svg width="490pt" height="218pt"
 viewBox="0.00 0.00 490.00 218.00" xmlns="http://www.w3.org/2000/svg" xmlns:xlink="http://www.w3.org/1999/xlink">
<g id="graph0" class="graph" transform="scale(1 1) rotate(0) translate(4 214)">
<title>setISTDP</title>
<polygon fill="#ffffff" stroke="transparent" points="-4,4 -4,-214 486,-214 486,4 -4,4"/>
<!-- Node987 -->
<g id="node1" class="node">
<title>Node987</title>
<polygon fill="#bfbfbf" stroke="#000000" points="0,-114.5 0,-133.5 60,-133.5 60,-114.5 0,-114.5"/>
<text text-anchor="middle" x="30" y="-121.5" font-family="Helvetica,sans-Serif" font-size="10.00" fill="#000000">setISTDP</text>
</g>
<!-- Node988 -->
<g id="node2" class="node">
<title>Node988</title>
<g id="a_node2"><a xlink:href="classCARLsim_1_1Impl.html#ab0367f8ebd4019bf7d34ebddb1563fe7" target="_top" xlink:title="getGroupName">
<polygon fill="#ffffff" stroke="#000000" points="98.5,-95.5 98.5,-114.5 181.5,-114.5 181.5,-95.5 98.5,-95.5"/>
<text text-anchor="middle" x="140" y="-102.5" font-family="Helvetica,sans-Serif" font-size="10.00" fill="#000000">getGroupName</text>
</a>
</g>
</g>
<!-- Node987&#45;&gt;Node988 -->
<g id="edge1" class="edge">
<title>Node987&#45;&gt;Node988</title>
<path fill="none" stroke="#191970" d="M60.058,-118.8082C68.8393,-117.2914 78.6969,-115.5887 88.4119,-113.9107"/>
<polygon fill="#191970" stroke="#191970" points="89.175,-117.3308 98.4333,-112.1797 87.9835,-110.4329 89.175,-117.3308"/>
</g>
<!-- Node989 -->
<g id="node3" class="node">
<title>Node989</title>
<g id="a_node3"><a xlink:href="classUserErrors.html#a4bbedc6c0817d5e59e74e450bf00472c" target="_top" xlink:title="simple wrapper for assert statement ">
<polygon fill="#ffffff" stroke="#000000" points="220,-152.5 220,-171.5 336,-171.5 336,-152.5 220,-152.5"/>
<text text-anchor="middle" x="278" y="-159.5" font-family="Helvetica,sans-Serif" font-size="10.00" fill="#000000">UserErrors::assertTrue</text>
</a>
</g>
</g>
<!-- Node987&#45;&gt;Node989 -->
<g id="edge6" class="edge">
<title>Node987&#45;&gt;Node989</title>
<path fill="none" stroke="#191970" d="M42.2608,-133.7187C54.8907,-143.0589 75.5626,-156.5369 96,-162 132.6735,-171.8031 175.0093,-172.4051 209.6158,-170.283"/>
<polygon fill="#191970" stroke="#191970" points="209.8945,-173.7721 219.6252,-169.5811 209.4048,-166.7892 209.8945,-173.7721"/>
</g>
<!-- Node993 -->
<g id="node7" class="node">
<title>Node993</title>
<g id="a_node7"><a xlink:href="classCARLsim_1_1Impl.html#ae136e178382096490a2d34f78cd2afa2" target="_top" xlink:title="isPoissonGroup">
<polygon fill="#ffffff" stroke="#000000" points="97,-133.5 97,-152.5 183,-152.5 183,-133.5 97,-133.5"/>
<text text-anchor="middle" x="140" y="-140.5" font-family="Helvetica,sans-Serif" font-size="10.00" fill="#000000">isPoissonGroup</text>
</a>
</g>
</g>
<!-- Node987&#45;&gt;Node993 -->
<g id="edge7" class="edge">
<title>Node987&#45;&gt;Node993</title>
<path fill="none" stroke="#191970" d="M60.058,-129.1918C68.3732,-130.6281 77.6533,-132.231 86.8637,-133.8219"/>
<polygon fill="#191970" stroke="#191970" points="86.3318,-137.2818 96.7816,-135.535 87.5233,-130.3839 86.3318,-137.2818"/>
</g>
<!-- Node995 -->
<g id="node9" class="node">
<title>Node995</title>
<g id="a_node9"><a xlink:href="classSNN.html#a281a359802ac8263a7e323085f3c83fc" target="_top" xlink:title="Set the inhibitory spike&#45;timing&#45;dependent plasticity (STDP) with anti&#45;hebbian curve for a neuron grou...">
<polygon fill="#ffffff" stroke="#000000" points="96,-57.5 96,-76.5 184,-76.5 184,-57.5 96,-57.5"/>
<text text-anchor="middle" x="140" y="-64.5" font-family="Helvetica,sans-Serif" font-size="10.00" fill="#000000">SNN::setISTDP</text>
</a>
</g>
</g>
<!-- Node987&#45;&gt;Node995 -->
<g id="edge11" class="edge">
<title>Node987&#45;&gt;Node995</title>
<path fill="none" stroke="#191970" d="M45.4583,-114.4246C58.6607,-106.4114 78.2732,-94.8938 96,-86 99.5791,-84.2043 103.3675,-82.4123 107.16,-80.6861"/>
<polygon fill="#191970" stroke="#191970" points="108.7483,-83.8107 116.4789,-76.5658 105.9176,-77.4086 108.7483,-83.8107"/>
</g>
<!-- Node988&#45;&gt;Node989 -->
<g id="edge2" class="edge">
<title>Node988&#45;&gt;Node989</title>
<path fill="none" stroke="#191970" d="M162.9894,-114.5261C169.8026,-117.4569 177.246,-120.7655 184,-124 200.317,-131.8143 203.3442,-135.9365 220,-143 225.0604,-145.146 230.4515,-147.2025 235.8316,-149.1176"/>
<polygon fill="#191970" stroke="#191970" points="234.8353,-152.4759 245.4298,-152.4009 237.1009,-145.8526 234.8353,-152.4759"/>
</g>
<!-- Node990 -->
<g id="node4" class="node">
<title>Node990</title>
<g id="a_node4"><a xlink:href="classCARLsim_1_1Impl.html#a292bdee57fec7c77ec4c15ea3f508d60" target="_top" xlink:title="getNumGroups">
<polygon fill="#ffffff" stroke="#000000" points="236.5,-114.5 236.5,-133.5 319.5,-133.5 319.5,-114.5 236.5,-114.5"/>
<text text-anchor="middle" x="278" y="-121.5" font-family="Helvetica,sans-Serif" font-size="10.00" fill="#000000">getNumGroups</text>
</a>
</g>
</g>
<!-- Node988&#45;&gt;Node990 -->
<g id="edge3" class="edge">
<title>Node988&#45;&gt;Node990</title>
<path fill="none" stroke="#191970" d="M181.779,-110.7522C195.8304,-112.6868 211.6753,-114.8683 226.3913,-116.8945"/>
<polygon fill="#191970" stroke="#191970" points="225.979,-120.3706 236.363,-118.2674 226.9338,-113.436 225.979,-120.3706"/>
</g>
<!-- Node992 -->
<g id="node6" class="node">
<title>Node992</title>
<g id="a_node6"><a xlink:href="classSNN.html#ab0367f8ebd4019bf7d34ebddb1563fe7" target="_top" xlink:title="SNN::getGroupName">
<polygon fill="#ffffff" stroke="#000000" points="223,-76.5 223,-95.5 333,-95.5 333,-76.5 223,-76.5"/>
<text text-anchor="middle" x="278" y="-83.5" font-family="Helvetica,sans-Serif" font-size="10.00" fill="#000000">SNN::getGroupName</text>
</a>
</g>
</g>
<!-- Node988&#45;&gt;Node992 -->
<g id="edge5" class="edge">
<title>Node988&#45;&gt;Node992</title>
<path fill="none" stroke="#191970" d="M181.779,-99.2478C191.5782,-97.8987 202.2496,-96.4294 212.8021,-94.9765"/>
<polygon fill="#191970" stroke="#191970" points="213.4215,-98.4244 222.8506,-93.593 212.4667,-91.4898 213.4215,-98.4244"/>
</g>
<!-- Node991 -->
<g id="node5" class="node">
<title>Node991</title>
<g id="a_node5"><a xlink:href="classSNN.html#a292bdee57fec7c77ec4c15ea3f508d60" target="_top" xlink:title="SNN::getNumGroups">
<polygon fill="#ffffff" stroke="#000000" points="372,-114.5 372,-133.5 482,-133.5 482,-114.5 372,-114.5"/>
<text text-anchor="middle" x="427" y="-121.5" font-family="Helvetica,sans-Serif" font-size="10.00" fill="#000000">SNN::getNumGroups</text>
</a>
</g>
</g>
<!-- Node990&#45;&gt;Node991 -->
<g id="edge4" class="edge">
<title>Node990&#45;&gt;Node991</title>
<path fill="none" stroke="#191970" d="M319.5048,-124C332.5315,-124 347.2449,-124 361.5109,-124"/>
<polygon fill="#191970" stroke="#191970" points="361.7892,-127.5001 371.7892,-124 361.7891,-120.5001 361.7892,-127.5001"/>
</g>
<!-- Node993&#45;&gt;Node989 -->
<g id="edge8" class="edge">
<title>Node993&#45;&gt;Node989</title>
<path fill="none" stroke="#191970" d="M183.2854,-148.9596C191.7278,-150.1219 200.7694,-151.3668 209.793,-152.6092"/>
<polygon fill="#191970" stroke="#191970" points="209.5564,-156.1095 219.9403,-154.0063 210.5112,-149.175 209.5564,-156.1095"/>
</g>
<!-- Node993&#45;&gt;Node990 -->
<g id="edge9" class="edge">
<title>Node993&#45;&gt;Node990</title>
<path fill="none" stroke="#191970" d="M183.2854,-137.0404C196.8972,-135.1663 212.0669,-133.0777 226.2068,-131.1309"/>
<polygon fill="#191970" stroke="#191970" points="226.8548,-134.5748 236.2839,-129.7435 225.9,-127.6403 226.8548,-134.5748"/>
</g>
<!-- Node994 -->
<g id="node8" class="node">
<title>Node994</title>
<g id="a_node8"><a xlink:href="classSNN.html#a3764348d44236ad4932627cd4d199c31" target="_top" xlink:title="SNN::isPoissonGroup">
<polygon fill="#ffffff" stroke="#000000" points="221.5,-190.5 221.5,-209.5 334.5,-209.5 334.5,-190.5 221.5,-190.5"/>
<text text-anchor="middle" x="278" y="-197.5" font-family="Helvetica,sans-Serif" font-size="10.00" fill="#000000">SNN::isPoissonGroup</text>
</a>
</g>
</g>
<!-- Node993&#45;&gt;Node994 -->
<g id="edge10" class="edge">
<title>Node993&#45;&gt;Node994</title>
<path fill="none" stroke="#191970" d="M158.453,-152.5876C174.4795,-160.7145 198.4384,-172.3878 220,-181 225.4213,-183.1654 231.1954,-185.2787 236.9194,-187.2621"/>
<polygon fill="#191970" stroke="#191970" points="235.8401,-190.5917 246.4341,-190.4637 238.0725,-183.9572 235.8401,-190.5917"/>
</g>
<!-- Node995&#45;&gt;Node992 -->
<g id="edge13" class="edge">
<title>Node995&#45;&gt;Node992</title>
<path fill="none" stroke="#191970" d="M184.0435,-73.064C193.1763,-74.3214 202.9833,-75.6716 212.6926,-77.0084"/>
<polygon fill="#191970" stroke="#191970" points="212.3589,-80.4954 222.7428,-78.3921 213.3137,-73.5608 212.3589,-80.4954"/>
</g>
<!-- Node996 -->
<g id="node10" class="node">
<title>Node996</title>
<g id="a_node10"><a xlink:href="classSNN.html#a44b05911f213714c351379021852e12a" target="_top" xlink:title="find connection ID based on pre&#45;post group pair, O(N) ">
<polygon fill="#ffffff" stroke="#000000" points="226.5,-38.5 226.5,-57.5 329.5,-57.5 329.5,-38.5 226.5,-38.5"/>
<text text-anchor="middle" x="278" y="-45.5" font-family="Helvetica,sans-Serif" font-size="10.00" fill="#000000">SNN::getConnectId</text>
</a>
</g>
</g>
<!-- Node995&#45;&gt;Node996 -->
<g id="edge12" class="edge">
<title>Node995&#45;&gt;Node996</title>
<path fill="none" stroke="#191970" d="M184.0435,-60.936C194.2055,-59.5369 205.2021,-58.0229 215.97,-56.5404"/>
<polygon fill="#191970" stroke="#191970" points="216.7599,-59.9647 226.189,-55.1334 215.8051,-53.0301 216.7599,-59.9647"/>
</g>
<!-- Node997 -->
<g id="node11" class="node">
<title>Node997</title>
<g id="a_node11"><a xlink:href="classSNN.html#a477f99451786873b73e2623b6f89b766" target="_top" xlink:title="deallocates all dynamical structures and exits ">
<polygon fill="#ffffff" stroke="#000000" points="225,-.5 225,-19.5 331,-19.5 331,-.5 225,-.5"/>
<text text-anchor="middle" x="278" y="-7.5" font-family="Helvetica,sans-Serif" font-size="10.00" fill="#000000">SNN::exitSimulation</text>
</a>
</g>
</g>
<!-- Node995&#45;&gt;Node997 -->
<g id="edge14" class="edge">
<title>Node995&#45;&gt;Node997</title>
<path fill="none" stroke="#191970" d="M158.453,-57.4124C174.4795,-49.2855 198.4384,-37.6122 220,-29 225.4213,-26.8346 231.1954,-24.7213 236.9194,-22.7379"/>
<polygon fill="#191970" stroke="#191970" points="238.0725,-26.0428 246.4341,-19.5363 235.8401,-19.4083 238.0725,-26.0428"/>
</g>
</g>
</svg>
