<?xml version="1.0" encoding="UTF-8" standalone="no"?>
<!DOCTYPE svg PUBLIC "-//W3C//DTD SVG 1.1//EN"
 "http://www.w3.org/Graphics/SVG/1.1/DTD/svg11.dtd">
<!-- Generated by graphviz version 2.40.1 (20161225.0304)
 -->
<!-- Title: getSortedPeakTimeVector Pages: 1 -->
<svg width="509pt" height="116pt"
 viewBox="0.00 0.00 509.00 115.50" xmlns="http://www.w3.org/2000/svg" xmlns:xlink="http://www.w3.org/1999/xlink">
<g id="graph0" class="graph" transform="scale(1 1) rotate(0) translate(4 111.5)">
<title>getSortedPeakTimeVector</title>
<polygon fill="#ffffff" stroke="transparent" points="-4,4 -4,-111.5 505,-111.5 505,4 -4,4"/>
<!-- Node55 -->
<g id="node1" class="node">
<title>Node55</title>
<polygon fill="#bfbfbf" stroke="#000000" points="0,-50 0,-69 131,-69 131,-50 0,-50"/>
<text text-anchor="middle" x="65.5" y="-57" font-family="Helvetica,sans-Serif" font-size="10.00" fill="#000000">getSortedPeakTimeVector</text>
</g>
<!-- Node56 -->
<g id="node2" class="node">
<title>Node56</title>
<g id="a_node2"><a xlink:href="classUserErrors.html#a4bbedc6c0817d5e59e74e450bf00472c" target="_top" xlink:title="simple wrapper for assert statement ">
<polygon fill="#ffffff" stroke="#000000" points="181,-88 181,-107 297,-107 297,-88 181,-88"/>
<text text-anchor="middle" x="239" y="-95" font-family="Helvetica,sans-Serif" font-size="10.00" fill="#000000">UserErrors::assertTrue</text>
</a>
</g>
</g>
<!-- Node55&#45;&gt;Node56 -->
<g id="edge1" class="edge">
<title>Node55&#45;&gt;Node56</title>
<path fill="none" stroke="#191970" d="M109.2814,-69.089C132.486,-74.1713 161.1781,-80.4554 185.6732,-85.8203"/>
<polygon fill="#191970" stroke="#191970" points="185.0162,-89.2593 195.5335,-87.9799 186.5138,-82.4214 185.0162,-89.2593"/>
</g>
<!-- Node57 -->
<g id="node3" class="node">
<title>Node57</title>
<g id="a_node3"><a xlink:href="classGroupMonitor.html#a3a3ffdb35b09328d22e5d72503ed1f55" target="_top" xlink:title="Recording status (true=recording, false=not recording) ">
<polygon fill="#ffffff" stroke="#000000" points="205,-50 205,-69 273,-69 273,-50 205,-50"/>
<text text-anchor="middle" x="239" y="-57" font-family="Helvetica,sans-Serif" font-size="10.00" fill="#000000">isRecording</text>
</a>
</g>
</g>
<!-- Node55&#45;&gt;Node57 -->
<g id="edge2" class="edge">
<title>Node55&#45;&gt;Node57</title>
<path fill="none" stroke="#191970" d="M131.0929,-59.5C152.4046,-59.5 175.5305,-59.5 194.887,-59.5"/>
<polygon fill="#191970" stroke="#191970" points="194.9258,-63.0001 204.9258,-59.5 194.9257,-56.0001 194.9258,-63.0001"/>
</g>
<!-- Node59 -->
<g id="node5" class="node">
<title>Node59</title>
<g id="a_node5"><a xlink:href="classGroupMonitorCore.html#a0b4736eeef71ca99196f3f4376002a57" target="_top" xlink:title="get the sorted timestamps for peak values ">
<polygon fill="#ffffff" stroke="#000000" points="167,-.5 167,-30.5 311,-30.5 311,-.5 167,-.5"/>
<text text-anchor="start" x="175" y="-18.5" font-family="Helvetica,sans-Serif" font-size="10.00" fill="#000000">GroupMonitorCore::getSorted</text>
<text text-anchor="middle" x="239" y="-7.5" font-family="Helvetica,sans-Serif" font-size="10.00" fill="#000000">PeakTimeVector</text>
</a>
</g>
</g>
<!-- Node55&#45;&gt;Node59 -->
<g id="edge4" class="edge">
<title>Node55&#45;&gt;Node59</title>
<path fill="none" stroke="#191970" d="M103.1469,-49.9527C122.5938,-45.0209 146.9494,-38.8442 169.6478,-33.0879"/>
<polygon fill="#191970" stroke="#191970" points="170.7618,-36.4162 179.5945,-30.5654 169.041,-29.631 170.7618,-36.4162"/>
</g>
<!-- Node58 -->
<g id="node4" class="node">
<title>Node58</title>
<g id="a_node4"><a xlink:href="classGroupMonitorCore.html#a3a3ffdb35b09328d22e5d72503ed1f55" target="_top" xlink:title="returns recording status ">
<polygon fill="#ffffff" stroke="#000000" points="347,-50 347,-69 501,-69 501,-50 347,-50"/>
<text text-anchor="middle" x="424" y="-57" font-family="Helvetica,sans-Serif" font-size="10.00" fill="#000000">GroupMonitorCore::isRecording</text>
</a>
</g>
</g>
<!-- Node57&#45;&gt;Node58 -->
<g id="edge3" class="edge">
<title>Node57&#45;&gt;Node58</title>
<path fill="none" stroke="#191970" d="M273.3635,-59.5C291.3054,-59.5 314.1546,-59.5 336.602,-59.5"/>
<polygon fill="#191970" stroke="#191970" points="336.8684,-63.0001 346.8683,-59.5 336.8683,-56.0001 336.8684,-63.0001"/>
</g>
</g>
</svg>
