<?xml version="1.0" encoding="UTF-8" standalone="no"?>
<!DOCTYPE svg PUBLIC "-//W3C//DTD SVG 1.1//EN"
 "http://www.w3.org/Graphics/SVG/1.1/DTD/svg11.dtd">
<!-- Generated by graphviz version 2.40.1 (20161225.0304)
 -->
<!-- Title: getRecordingTotalTime Pages: 1 -->
<svg width="512pt" height="116pt"
 viewBox="0.00 0.00 512.00 115.50" xmlns="http://www.w3.org/2000/svg" xmlns:xlink="http://www.w3.org/1999/xlink">
<g id="graph0" class="graph" transform="scale(1 1) rotate(0) translate(4 111.5)">
<title>getRecordingTotalTime</title>
<polygon fill="#ffffff" stroke="transparent" points="-4,4 -4,-111.5 508,-111.5 508,4 -4,4"/>
<!-- Node49 -->
<g id="node1" class="node">
<title>Node49</title>
<polygon fill="#bfbfbf" stroke="#000000" points="0,-50 0,-69 118,-69 118,-50 0,-50"/>
<text text-anchor="middle" x="59" y="-57" font-family="Helvetica,sans-Serif" font-size="10.00" fill="#000000">getRecordingTotalTime</text>
</g>
<!-- Node50 -->
<g id="node2" class="node">
<title>Node50</title>
<g id="a_node2"><a xlink:href="classUserErrors.html#a4bbedc6c0817d5e59e74e450bf00472c" target="_top" xlink:title="simple wrapper for assert statement ">
<polygon fill="#ffffff" stroke="#000000" points="176,-88 176,-107 292,-107 292,-88 176,-88"/>
<text text-anchor="middle" x="234" y="-95" font-family="Helvetica,sans-Serif" font-size="10.00" fill="#000000">UserErrors::assertTrue</text>
</a>
</g>
</g>
<!-- Node49&#45;&gt;Node50 -->
<g id="edge1" class="edge">
<title>Node49&#45;&gt;Node50</title>
<path fill="none" stroke="#191970" d="M103.1599,-69.089C126.5651,-74.1713 155.5053,-80.4554 180.2121,-85.8203"/>
<polygon fill="#191970" stroke="#191970" points="179.6427,-89.2782 190.1577,-87.9799 181.1281,-82.4376 179.6427,-89.2782"/>
</g>
<!-- Node51 -->
<g id="node3" class="node">
<title>Node51</title>
<g id="a_node3"><a xlink:href="classGroupMonitor.html#a3a3ffdb35b09328d22e5d72503ed1f55" target="_top" xlink:title="Recording status (true=recording, false=not recording) ">
<polygon fill="#ffffff" stroke="#000000" points="200,-50 200,-69 268,-69 268,-50 200,-50"/>
<text text-anchor="middle" x="234" y="-57" font-family="Helvetica,sans-Serif" font-size="10.00" fill="#000000">isRecording</text>
</a>
</g>
</g>
<!-- Node49&#45;&gt;Node51 -->
<g id="edge2" class="edge">
<title>Node49&#45;&gt;Node51</title>
<path fill="none" stroke="#191970" d="M118.247,-59.5C141.5956,-59.5 167.9508,-59.5 189.6088,-59.5"/>
<polygon fill="#191970" stroke="#191970" points="189.8298,-63.0001 199.8298,-59.5 189.8298,-56.0001 189.8298,-63.0001"/>
</g>
<!-- Node53 -->
<g id="node5" class="node">
<title>Node53</title>
<g id="a_node5"><a xlink:href="classGroupMonitorCore.html#a422a2ad820a50c6cb6747cfcf3e5981f" target="_top" xlink:title="returns the total recorded time in ms ">
<polygon fill="#ffffff" stroke="#000000" points="154,-.5 154,-30.5 314,-30.5 314,-.5 154,-.5"/>
<text text-anchor="start" x="162" y="-18.5" font-family="Helvetica,sans-Serif" font-size="10.00" fill="#000000">GroupMonitorCore::getRecording</text>
<text text-anchor="middle" x="234" y="-7.5" font-family="Helvetica,sans-Serif" font-size="10.00" fill="#000000">TotalTime</text>
</a>
</g>
</g>
<!-- Node49&#45;&gt;Node53 -->
<g id="edge4" class="edge">
<title>Node49&#45;&gt;Node53</title>
<path fill="none" stroke="#191970" d="M96.9724,-49.9527C116.6753,-44.9988 141.374,-38.7888 164.3561,-33.0105"/>
<polygon fill="#191970" stroke="#191970" points="165.2362,-36.3982 174.0809,-30.5654 163.5293,-29.6095 165.2362,-36.3982"/>
</g>
<!-- Node52 -->
<g id="node4" class="node">
<title>Node52</title>
<g id="a_node4"><a xlink:href="classGroupMonitorCore.html#a3a3ffdb35b09328d22e5d72503ed1f55" target="_top" xlink:title="returns recording status ">
<polygon fill="#ffffff" stroke="#000000" points="350,-50 350,-69 504,-69 504,-50 350,-50"/>
<text text-anchor="middle" x="427" y="-57" font-family="Helvetica,sans-Serif" font-size="10.00" fill="#000000">GroupMonitorCore::isRecording</text>
</a>
</g>
</g>
<!-- Node51&#45;&gt;Node52 -->
<g id="edge3" class="edge">
<title>Node51&#45;&gt;Node52</title>
<path fill="none" stroke="#191970" d="M268.0603,-59.5C288.0269,-59.5 314.2435,-59.5 339.6126,-59.5"/>
<polygon fill="#191970" stroke="#191970" points="339.6539,-63.0001 349.6539,-59.5 339.6538,-56.0001 339.6539,-63.0001"/>
</g>
</g>
</svg>
