<?xml version="1.0" encoding="UTF-8" standalone="no"?>
<!DOCTYPE svg PUBLIC "-//W3C//DTD SVG 1.1//EN"
 "http://www.w3.org/Graphics/SVG/1.1/DTD/svg11.dtd">
<!-- Generated by graphviz version 2.40.1 (20161225.0304)
 -->
<!-- Title: getNumConnections Pages: 1 -->
<svg width="634pt" height="28pt"
 viewBox="0.00 0.00 634.00 28.00" xmlns="http://www.w3.org/2000/svg" xmlns:xlink="http://www.w3.org/1999/xlink">
<g id="graph0" class="graph" transform="scale(1 1) rotate(0) translate(4 24)">
<title>getNumConnections</title>
<polygon fill="#ffffff" stroke="transparent" points="-4,4 -4,-24 630,-24 630,4 -4,4"/>
<!-- Node324 -->
<g id="node1" class="node">
<title>Node324</title>
<polygon fill="#bfbfbf" stroke="#000000" points="0,-.5 0,-19.5 106,-19.5 106,-.5 0,-.5"/>
<text text-anchor="middle" x="53" y="-7.5" font-family="Helvetica,sans-Serif" font-size="10.00" fill="#000000">getNumConnections</text>
</g>
<!-- Node325 -->
<g id="node2" class="node">
<title>Node325</title>
<g id="a_node2"><a xlink:href="classSNN.html#a14efb66377e70d7f0f4596c223fbc5cc" target="_top" xlink:title="SNN::getNumConnections">
<polygon fill="#ffffff" stroke="#000000" points="142,-.5 142,-19.5 276,-19.5 276,-.5 142,-.5"/>
<text text-anchor="middle" x="209" y="-7.5" font-family="Helvetica,sans-Serif" font-size="10.00" fill="#000000">SNN::getNumConnections</text>
</a>
</g>
</g>
<!-- Node324&#45;&gt;Node325 -->
<g id="edge1" class="edge">
<title>Node324&#45;&gt;Node325</title>
<path fill="none" stroke="#191970" d="M106.25,-10C114.4974,-10 123.1565,-10 131.8025,-10"/>
<polygon fill="#191970" stroke="#191970" points="131.9207,-13.5001 141.9207,-10 131.9207,-6.5001 131.9207,-13.5001"/>
</g>
<!-- Node326 -->
<g id="node3" class="node">
<title>Node326</title>
<g id="a_node3"><a xlink:href="classSNN.html#a52f149e224abff772962dea6680398e2" target="_top" xlink:title="gets number of connections associated with a connection ID ">
<polygon fill="#ffffff" stroke="#000000" points="312,-.5 312,-19.5 484,-19.5 484,-.5 312,-.5"/>
<text text-anchor="middle" x="398" y="-7.5" font-family="Helvetica,sans-Serif" font-size="10.00" fill="#000000">SNN::getNumSynapticConnections</text>
</a>
</g>
</g>
<!-- Node325&#45;&gt;Node326 -->
<g id="edge2" class="edge">
<title>Node325&#45;&gt;Node326</title>
<path fill="none" stroke="#191970" d="M276.1665,-10C284.4789,-10 293.1,-10 301.7407,-10"/>
<polygon fill="#191970" stroke="#191970" points="301.8759,-13.5001 311.8759,-10 301.8759,-6.5001 301.8759,-13.5001"/>
</g>
<!-- Node327 -->
<g id="node4" class="node">
<title>Node327</title>
<g id="a_node4"><a xlink:href="classSNN.html#a477f99451786873b73e2623b6f89b766" target="_top" xlink:title="deallocates all dynamical structures and exits ">
<polygon fill="#ffffff" stroke="#000000" points="520,-.5 520,-19.5 626,-19.5 626,-.5 520,-.5"/>
<text text-anchor="middle" x="573" y="-7.5" font-family="Helvetica,sans-Serif" font-size="10.00" fill="#000000">SNN::exitSimulation</text>
</a>
</g>
</g>
<!-- Node326&#45;&gt;Node327 -->
<g id="edge3" class="edge">
<title>Node326&#45;&gt;Node327</title>
<path fill="none" stroke="#191970" d="M484.2183,-10C492.711,-10 501.2199,-10 509.4247,-10"/>
<polygon fill="#191970" stroke="#191970" points="509.6308,-13.5001 519.6308,-10 509.6308,-6.5001 509.6308,-13.5001"/>
</g>
</g>
</svg>
