<?xml version="1.0" encoding="UTF-8" standalone="no"?>
<!DOCTYPE svg PUBLIC "-//W3C//DTD SVG 1.1//EN"
 "http://www.w3.org/Graphics/SVG/1.1/DTD/svg11.dtd">
<!-- Generated by graphviz version 2.40.1 (20161225.0304)
 -->
<!-- Title: setExternalCurrent Pages: 1 -->
<svg width="812pt" height="203pt"
 viewBox="0.00 0.00 812.00 203.00" xmlns="http://www.w3.org/2000/svg" xmlns:xlink="http://www.w3.org/1999/xlink">
<g id="graph0" class="graph" transform="scale(1 1) rotate(0) translate(4 199)">
<title>setExternalCurrent</title>
<polygon fill="#ffffff" stroke="transparent" points="-4,4 -4,-199 808,-199 808,4 -4,4"/>
<!-- Node726 -->
<g id="node1" class="node">
<title>Node726</title>
<polygon fill="#bfbfbf" stroke="#000000" points="0,-93.5 0,-112.5 98,-112.5 98,-93.5 0,-93.5"/>
<text text-anchor="middle" x="49" y="-100.5" font-family="Helvetica,sans-Serif" font-size="10.00" fill="#000000">setExternalCurrent</text>
</g>
<!-- Node727 -->
<g id="node2" class="node">
<title>Node727</title>
<g id="a_node2"><a xlink:href="classCARLsim_1_1Impl.html#a875708f5a61243433e23e99ce4d6aea1" target="_top" xlink:title="CARLsim::Impl::setExternal\lCurrent">
<polygon fill="#ffffff" stroke="#000000" points="134,-88 134,-118 274,-118 274,-88 134,-88"/>
<text text-anchor="start" x="142" y="-106" font-family="Helvetica,sans-Serif" font-size="10.00" fill="#000000">CARLsim::Impl::setExternal</text>
<text text-anchor="middle" x="204" y="-95" font-family="Helvetica,sans-Serif" font-size="10.00" fill="#000000">Current</text>
</a>
</g>
</g>
<!-- Node726&#45;&gt;Node727 -->
<g id="edge1" class="edge">
<title>Node726&#45;&gt;Node727</title>
<path fill="none" stroke="#191970" d="M98.043,-103C106.2026,-103 114.851,-103 123.549,-103"/>
<polygon fill="#191970" stroke="#191970" points="123.7562,-106.5001 133.7562,-103 123.7561,-99.5001 123.7562,-106.5001"/>
</g>
<!-- Node728 -->
<g id="node3" class="node">
<title>Node728</title>
<g id="a_node3"><a xlink:href="classCARLsim_1_1Impl.html#ab0367f8ebd4019bf7d34ebddb1563fe7" target="_top" xlink:title="CARLsim::Impl::getGroupName">
<polygon fill="#ffffff" stroke="#000000" points="310,-175.5 310,-194.5 466,-194.5 466,-175.5 310,-175.5"/>
<text text-anchor="middle" x="388" y="-182.5" font-family="Helvetica,sans-Serif" font-size="10.00" fill="#000000">CARLsim::Impl::getGroupName</text>
</a>
</g>
</g>
<!-- Node727&#45;&gt;Node728 -->
<g id="edge2" class="edge">
<title>Node727&#45;&gt;Node728</title>
<path fill="none" stroke="#191970" d="M228.1415,-118.0485C249.1836,-130.7121 280.8193,-148.6769 310,-161 320.1929,-165.3045 331.4255,-169.2161 342.115,-172.5741"/>
<polygon fill="#191970" stroke="#191970" points="341.1481,-175.9382 351.7338,-175.4976 343.1838,-169.2408 341.1481,-175.9382"/>
</g>
<!-- Node729 -->
<g id="node4" class="node">
<title>Node729</title>
<g id="a_node4"><a xlink:href="classUserErrors.html#a4bbedc6c0817d5e59e74e450bf00472c" target="_top" xlink:title="simple wrapper for assert statement ">
<polygon fill="#ffffff" stroke="#000000" points="522,-134.5 522,-153.5 638,-153.5 638,-134.5 522,-134.5"/>
<text text-anchor="middle" x="580" y="-141.5" font-family="Helvetica,sans-Serif" font-size="10.00" fill="#000000">UserErrors::assertTrue</text>
</a>
</g>
</g>
<!-- Node727&#45;&gt;Node729 -->
<g id="edge7" class="edge">
<title>Node727&#45;&gt;Node729</title>
<path fill="none" stroke="#191970" d="M259.7647,-118.0539C275.8667,-121.8817 293.5368,-125.5892 310,-128 378.0918,-137.9711 456.7091,-141.7695 511.4847,-143.1947"/>
<polygon fill="#191970" stroke="#191970" points="511.688,-146.7005 521.7692,-143.4417 511.8561,-139.7025 511.688,-146.7005"/>
</g>
<!-- Node733 -->
<g id="node8" class="node">
<title>Node733</title>
<g id="a_node8"><a xlink:href="classCARLsim_1_1Impl.html#ad85b898d98abe24dcae4390f0fe61e84" target="_top" xlink:title="CARLsim::Impl::getGroupNum\lNeurons">
<polygon fill="#ffffff" stroke="#000000" points="312.5,-39 312.5,-69 463.5,-69 463.5,-39 312.5,-39"/>
<text text-anchor="start" x="320.5" y="-57" font-family="Helvetica,sans-Serif" font-size="10.00" fill="#000000">CARLsim::Impl::getGroupNum</text>
<text text-anchor="middle" x="388" y="-46" font-family="Helvetica,sans-Serif" font-size="10.00" fill="#000000">Neurons</text>
</a>
</g>
</g>
<!-- Node727&#45;&gt;Node733 -->
<g id="edge8" class="edge">
<title>Node727&#45;&gt;Node733</title>
<path fill="none" stroke="#191970" d="M260.4565,-87.9654C279.8844,-82.7917 301.8111,-76.9525 321.9349,-71.5934"/>
<polygon fill="#191970" stroke="#191970" points="322.8877,-74.9617 331.6502,-69.0062 321.0863,-68.1975 322.8877,-74.9617"/>
</g>
<!-- Node735 -->
<g id="node10" class="node">
<title>Node735</title>
<g id="a_node10"><a xlink:href="classCARLsim_1_1Impl.html#ae136e178382096490a2d34f78cd2afa2" target="_top" xlink:title="CARLsim::Impl::isPoisson\lGroup">
<polygon fill="#ffffff" stroke="#000000" points="321.5,-88 321.5,-118 454.5,-118 454.5,-88 321.5,-88"/>
<text text-anchor="start" x="329.5" y="-106" font-family="Helvetica,sans-Serif" font-size="10.00" fill="#000000">CARLsim::Impl::isPoisson</text>
<text text-anchor="middle" x="388" y="-95" font-family="Helvetica,sans-Serif" font-size="10.00" fill="#000000">Group</text>
</a>
</g>
</g>
<!-- Node727&#45;&gt;Node735 -->
<g id="edge12" class="edge">
<title>Node727&#45;&gt;Node735</title>
<path fill="none" stroke="#191970" d="M274.0874,-103C286.2269,-103 298.9069,-103 311.2133,-103"/>
<polygon fill="#191970" stroke="#191970" points="311.4428,-106.5001 321.4427,-103 311.4427,-99.5001 311.4428,-106.5001"/>
</g>
<!-- Node737 -->
<g id="node12" class="node">
<title>Node737</title>
<g id="a_node12"><a xlink:href="classSNN.html#a875708f5a61243433e23e99ce4d6aea1" target="_top" xlink:title="injects current (mA) into the soma of every neuron in the group ">
<polygon fill="#ffffff" stroke="#000000" points="325,-.5 325,-19.5 451,-19.5 451,-.5 325,-.5"/>
<text text-anchor="middle" x="388" y="-7.5" font-family="Helvetica,sans-Serif" font-size="10.00" fill="#000000">SNN::setExternalCurrent</text>
</a>
</g>
</g>
<!-- Node727&#45;&gt;Node737 -->
<g id="edge16" class="edge">
<title>Node727&#45;&gt;Node737</title>
<path fill="none" stroke="#191970" d="M221.1411,-87.9805C241.1404,-71.2172 275.8412,-44.4267 310,-29 315.3707,-26.5745 321.095,-24.4319 326.9097,-22.5449"/>
<polygon fill="#191970" stroke="#191970" points="328.1568,-25.8252 336.7341,-19.6058 326.1505,-19.1189 328.1568,-25.8252"/>
</g>
<!-- Node728&#45;&gt;Node729 -->
<g id="edge3" class="edge">
<title>Node728&#45;&gt;Node729</title>
<path fill="none" stroke="#191970" d="M432.5313,-175.4907C460.1788,-169.5868 495.9124,-161.9562 525.2797,-155.6851"/>
<polygon fill="#191970" stroke="#191970" points="526.3295,-159.0399 535.3781,-153.5286 524.8676,-152.1942 526.3295,-159.0399"/>
</g>
<!-- Node730 -->
<g id="node5" class="node">
<title>Node730</title>
<g id="a_node5"><a xlink:href="classCARLsim_1_1Impl.html#a292bdee57fec7c77ec4c15ea3f508d60" target="_top" xlink:title="CARLsim::Impl::getNumGroups">
<polygon fill="#ffffff" stroke="#000000" points="502,-93.5 502,-112.5 658,-112.5 658,-93.5 502,-93.5"/>
<text text-anchor="middle" x="580" y="-100.5" font-family="Helvetica,sans-Serif" font-size="10.00" fill="#000000">CARLsim::Impl::getNumGroups</text>
</a>
</g>
</g>
<!-- Node728&#45;&gt;Node730 -->
<g id="edge4" class="edge">
<title>Node728&#45;&gt;Node730</title>
<path fill="none" stroke="#191970" d="M403.7295,-175.3582C425.2673,-162.4778 465.4402,-139.5895 502,-125 511.0199,-121.4005 520.8462,-118.1427 530.3883,-115.304"/>
<polygon fill="#191970" stroke="#191970" points="531.5326,-118.6172 540.1836,-112.5008 529.6066,-111.8873 531.5326,-118.6172"/>
</g>
<!-- Node732 -->
<g id="node7" class="node">
<title>Node732</title>
<g id="a_node7"><a xlink:href="classSNN.html#ab0367f8ebd4019bf7d34ebddb1563fe7" target="_top" xlink:title="SNN::getGroupName">
<polygon fill="#ffffff" stroke="#000000" points="525,-175.5 525,-194.5 635,-194.5 635,-175.5 525,-175.5"/>
<text text-anchor="middle" x="580" y="-182.5" font-family="Helvetica,sans-Serif" font-size="10.00" fill="#000000">SNN::getGroupName</text>
</a>
</g>
</g>
<!-- Node728&#45;&gt;Node732 -->
<g id="edge6" class="edge">
<title>Node728&#45;&gt;Node732</title>
<path fill="none" stroke="#191970" d="M466.0938,-185C482.2752,-185 499.1603,-185 514.8212,-185"/>
<polygon fill="#191970" stroke="#191970" points="514.9163,-188.5001 524.9162,-185 514.9162,-181.5001 514.9163,-188.5001"/>
</g>
<!-- Node731 -->
<g id="node6" class="node">
<title>Node731</title>
<g id="a_node6"><a xlink:href="classSNN.html#a292bdee57fec7c77ec4c15ea3f508d60" target="_top" xlink:title="SNN::getNumGroups">
<polygon fill="#ffffff" stroke="#000000" points="694,-93.5 694,-112.5 804,-112.5 804,-93.5 694,-93.5"/>
<text text-anchor="middle" x="749" y="-100.5" font-family="Helvetica,sans-Serif" font-size="10.00" fill="#000000">SNN::getNumGroups</text>
</a>
</g>
</g>
<!-- Node730&#45;&gt;Node731 -->
<g id="edge5" class="edge">
<title>Node730&#45;&gt;Node731</title>
<path fill="none" stroke="#191970" d="M658.069,-103C666.6771,-103 675.3747,-103 683.8018,-103"/>
<polygon fill="#191970" stroke="#191970" points="683.9225,-106.5001 693.9225,-103 683.9225,-99.5001 683.9225,-106.5001"/>
</g>
<!-- Node733&#45;&gt;Node729 -->
<g id="edge9" class="edge">
<title>Node733&#45;&gt;Node729</title>
<path fill="none" stroke="#191970" d="M447.5839,-69.1498C454.0534,-71.9319 460.3357,-75.1913 466,-79 486.6835,-92.9079 481.0746,-108.4589 502,-122 507.3488,-125.4613 513.2458,-128.3864 519.3297,-130.8568"/>
<polygon fill="#191970" stroke="#191970" points="518.3979,-134.2423 528.9919,-134.3761 520.7937,-127.665 518.3979,-134.2423"/>
</g>
<!-- Node733&#45;&gt;Node730 -->
<g id="edge10" class="edge">
<title>Node733&#45;&gt;Node730</title>
<path fill="none" stroke="#191970" d="M446.9111,-69.0346C474.4513,-76.0631 506.8036,-84.3197 532.7144,-90.9323"/>
<polygon fill="#191970" stroke="#191970" points="532.111,-94.3905 542.666,-93.472 533.8421,-87.6078 532.111,-94.3905"/>
</g>
<!-- Node734 -->
<g id="node9" class="node">
<title>Node734</title>
<g id="a_node9"><a xlink:href="classSNN.html#a11e19a0ccbeca92ba843a5933b3321e0" target="_top" xlink:title="SNN::getGroupNumNeurons">
<polygon fill="#ffffff" stroke="#000000" points="509,-5.5 509,-24.5 651,-24.5 651,-5.5 509,-5.5"/>
<text text-anchor="middle" x="580" y="-12.5" font-family="Helvetica,sans-Serif" font-size="10.00" fill="#000000">SNN::getGroupNumNeurons</text>
</a>
</g>
</g>
<!-- Node733&#45;&gt;Node734 -->
<g id="edge11" class="edge">
<title>Node733&#45;&gt;Node734</title>
<path fill="none" stroke="#191970" d="M461.9576,-38.9774C482.1949,-34.8667 503.8137,-30.4754 522.947,-26.5889"/>
<polygon fill="#191970" stroke="#191970" points="523.8967,-29.9675 532.9998,-24.5469 522.5032,-23.1076 523.8967,-29.9675"/>
</g>
<!-- Node735&#45;&gt;Node729 -->
<g id="edge13" class="edge">
<title>Node735&#45;&gt;Node729</title>
<path fill="none" stroke="#191970" d="M454.6134,-117.2247C477.8127,-122.1788 503.5459,-127.6739 525.6326,-132.3903"/>
<polygon fill="#191970" stroke="#191970" points="524.9913,-135.8322 535.5018,-134.4978 526.4532,-128.9865 524.9913,-135.8322"/>
</g>
<!-- Node735&#45;&gt;Node730 -->
<g id="edge14" class="edge">
<title>Node735&#45;&gt;Node730</title>
<path fill="none" stroke="#191970" d="M454.6134,-103C466.6637,-103 479.3975,-103 491.9489,-103"/>
<polygon fill="#191970" stroke="#191970" points="491.9593,-106.5001 501.9592,-103 491.9592,-99.5001 491.9593,-106.5001"/>
</g>
<!-- Node736 -->
<g id="node11" class="node">
<title>Node736</title>
<g id="a_node11"><a xlink:href="classSNN.html#a3764348d44236ad4932627cd4d199c31" target="_top" xlink:title="SNN::isPoissonGroup">
<polygon fill="#ffffff" stroke="#000000" points="523.5,-51.5 523.5,-70.5 636.5,-70.5 636.5,-51.5 523.5,-51.5"/>
<text text-anchor="middle" x="580" y="-58.5" font-family="Helvetica,sans-Serif" font-size="10.00" fill="#000000">SNN::isPoissonGroup</text>
</a>
</g>
</g>
<!-- Node735&#45;&gt;Node736 -->
<g id="edge15" class="edge">
<title>Node735&#45;&gt;Node736</title>
<path fill="none" stroke="#191970" d="M454.6134,-88.4283C478.0945,-83.2918 504.1714,-77.5875 526.4358,-72.7172"/>
<polygon fill="#191970" stroke="#191970" points="527.353,-76.0994 536.3741,-70.5432 525.8571,-69.2611 527.353,-76.0994"/>
</g>
<!-- Node737&#45;&gt;Node734 -->
<g id="edge18" class="edge">
<title>Node737&#45;&gt;Node734</title>
<path fill="none" stroke="#191970" d="M451.1339,-11.6441C466.2862,-12.0387 482.6808,-12.4656 498.5341,-12.8785"/>
<polygon fill="#191970" stroke="#191970" points="498.7675,-16.3857 508.8553,-13.1473 498.9498,-9.388 498.7675,-16.3857"/>
</g>
<!-- Node737&#45;&gt;Node736 -->
<g id="edge17" class="edge">
<title>Node737&#45;&gt;Node736</title>
<path fill="none" stroke="#191970" d="M428.5508,-19.595C440.6231,-22.5278 453.8659,-25.8201 466,-29 489.6897,-35.2082 516.0189,-42.5682 537.4007,-48.6636"/>
<polygon fill="#191970" stroke="#191970" points="536.58,-52.0692 547.157,-51.4549 538.5055,-45.3392 536.58,-52.0692"/>
</g>
</g>
</svg>
