<?xml version="1.0" encoding="UTF-8" standalone="no"?>
<!DOCTYPE svg PUBLIC "-//W3C//DTD SVG 1.1//EN"
 "http://www.w3.org/Graphics/SVG/1.1/DTD/svg11.dtd">
<!-- Generated by graphviz version 2.40.1 (20161225.0304)
 -->
<!-- Title: setWeight Pages: 1 -->
<!--zoomable 142 -->
<svg id="main" version="1.1" xmlns="http://www.w3.org/2000/svg" xmlns:xlink="http://www.w3.org/1999/xlink" xml:space="preserve" onload="init(evt)">
<style type="text/css"><![CDATA[
.edge:hover path { stroke: red; }
.edge:hover polygon { stroke: red; fill: red; }
]]></style>
<script type="text/javascript"><![CDATA[
var edges = document.getElementsByTagName('g');
if (edges && edges.length) {
  for (var i=0;i<edges.length;i++) {
    if (edges[i].id.substr(0,4)=='edge') {
      edges[i].setAttribute('class','edge');
    }
  }
}
]]></script>
        <defs>
                <circle id="rim" cx="0" cy="0" r="7"/>
                <circle id="rim2" cx="0" cy="0" r="3.5"/>
                <g id="zoomPlus">
                        <use xlink:href="#rim" fill="#404040">
                                <set attributeName="fill" to="#808080" begin="zoomplus.mouseover" end="zoomplus.mouseout"/>
                        </use>
                        <path d="M-4,0h8M0,-4v8" fill="none" stroke="white" stroke-width="1.5" pointer-events="none"/>
                </g>
                <g id="zoomMin">
                        <use xlink:href="#rim" fill="#404040">
                                <set attributeName="fill" to="#808080" begin="zoomminus.mouseover" end="zoomminus.mouseout"/>
                        </use>
                        <path d="M-4,0h8" fill="none" stroke="white" stroke-width="1.5" pointer-events="none"/>
                </g>
                <g id="dirArrow">
                        <path fill="none" stroke="white" stroke-width="1.5" d="M0,-3.0v7 M-2.5,-0.5L0,-3.0L2.5,-0.5"/>
                </g>
               <g id="resetDef">
                       <use xlink:href="#rim2" fill="#404040">
                               <set attributeName="fill" to="#808080" begin="reset.mouseover" end="reset.mouseout"/>
                       </use>
               </g>
        </defs>

<script type="text/javascript">
var viewWidth = 982;
var viewHeight = 142;
var sectionId = 'dynsection-128';
</script>
<script xlink:href="svgpan.js"/>
<svg id="graph" class="graph">
<g id="viewport">
<title>setWeight</title>
<polygon fill="#ffffff" stroke="transparent" points="-4,4 -4,-138 978,-138 978,4 -4,4"/>
<!-- Node1079 -->
<g id="node1" class="node">
<title>Node1079</title>
<polygon fill="#bfbfbf" stroke="#000000" points="0,-76.5 0,-95.5 61,-95.5 61,-76.5 0,-76.5"/>
<text text-anchor="middle" x="30.5" y="-83.5" font-family="Helvetica,sans-Serif" font-size="10.00" fill="#000000">setWeight</text>
</g>
<!-- Node1080 -->
<g id="node2" class="node">
<title>Node1080</title>
<g id="a_node2"><a xlink:href="classCARLsim_1_1Impl.html#a8e9bda0e94ad99cf8ac306cf0b76b9d5" target="_top" xlink:title="CARLsim::Impl::setWeight">
<polygon fill="#ffffff" stroke="#000000" points="97,-76.5 97,-95.5 231,-95.5 231,-76.5 97,-76.5"/>
<text text-anchor="middle" x="164" y="-83.5" font-family="Helvetica,sans-Serif" font-size="10.00" fill="#000000">CARLsim::Impl::setWeight</text>
</a>
</g>
</g>
<!-- Node1079&#45;&gt;Node1080 -->
<g id="edge1" class="edge">
<title>Node1079&#45;&gt;Node1080</title>
<path fill="none" stroke="#191970" d="M61.1276,-86C68.902,-86 77.6119,-86 86.5858,-86"/>
<polygon fill="#191970" stroke="#191970" points="86.794,-89.5001 96.794,-86 86.7939,-82.5001 86.794,-89.5001"/>
</g>
<!-- Node1081 -->
<g id="node3" class="node">
<title>Node1081</title>
<g id="a_node3"><a xlink:href="classUserErrors.html#a4bbedc6c0817d5e59e74e450bf00472c" target="_top" xlink:title="simple wrapper for assert statement ">
<polygon fill="#ffffff" stroke="#000000" points="298.5,-114.5 298.5,-133.5 414.5,-133.5 414.5,-114.5 298.5,-114.5"/>
<text text-anchor="middle" x="356.5" y="-121.5" font-family="Helvetica,sans-Serif" font-size="10.00" fill="#000000">UserErrors::assertTrue</text>
</a>
</g>
</g>
<!-- Node1080&#45;&gt;Node1081 -->
<g id="edge2" class="edge">
<title>Node1080&#45;&gt;Node1081</title>
<path fill="none" stroke="#191970" d="M212.5759,-95.589C238.6649,-100.739 271.0058,-107.1232 298.4179,-112.5344"/>
<polygon fill="#191970" stroke="#191970" points="297.7849,-115.977 308.2734,-114.4799 299.1406,-109.1095 297.7849,-115.977"/>
</g>
<!-- Node1082 -->
<g id="node4" class="node">
<title>Node1082</title>
<g id="a_node4"><a xlink:href="classCARLsim_1_1Impl.html#a14efb66377e70d7f0f4596c223fbc5cc" target="_top" xlink:title="CARLsim::Impl::getNumConnections">
<polygon fill="#ffffff" stroke="#000000" points="267,-76.5 267,-95.5 446,-95.5 446,-76.5 267,-76.5"/>
<text text-anchor="middle" x="356.5" y="-83.5" font-family="Helvetica,sans-Serif" font-size="10.00" fill="#000000">CARLsim::Impl::getNumConnections</text>
</a>
</g>
</g>
<!-- Node1080&#45;&gt;Node1082 -->
<g id="edge3" class="edge">
<title>Node1080&#45;&gt;Node1082</title>
<path fill="none" stroke="#191970" d="M231.0569,-86C239.4017,-86 248.0699,-86 256.7761,-86"/>
<polygon fill="#191970" stroke="#191970" points="256.9967,-89.5001 266.9967,-86 256.9967,-82.5001 256.9967,-89.5001"/>
</g>
<!-- Node1086 -->
<g id="node8" class="node">
<title>Node1086</title>
<g id="a_node8"><a xlink:href="classSNN.html#af67a432c859556cff7d6b1d59638ad01" target="_top" xlink:title="sets the weight value of a specific synapse ">
<polygon fill="#ffffff" stroke="#000000" points="312,-38.5 312,-57.5 401,-57.5 401,-38.5 312,-38.5"/>
<text text-anchor="middle" x="356.5" y="-45.5" font-family="Helvetica,sans-Serif" font-size="10.00" fill="#000000">SNN::setWeight</text>
</a>
</g>
</g>
<!-- Node1080&#45;&gt;Node1086 -->
<g id="edge7" class="edge">
<title>Node1080&#45;&gt;Node1086</title>
<path fill="none" stroke="#191970" d="M212.5759,-76.411C239.7561,-71.0456 273.7221,-64.3406 301.8308,-58.7918"/>
<polygon fill="#191970" stroke="#191970" points="302.7654,-62.175 311.8982,-56.8045 301.4097,-55.3075 302.7654,-62.175"/>
</g>
<!-- Node1083 -->
<g id="node5" class="node">
<title>Node1083</title>
<g id="a_node5"><a xlink:href="classSNN.html#a14efb66377e70d7f0f4596c223fbc5cc" target="_top" xlink:title="SNN::getNumConnections">
<polygon fill="#ffffff" stroke="#000000" points="486,-76.5 486,-95.5 620,-95.5 620,-76.5 486,-76.5"/>
<text text-anchor="middle" x="553" y="-83.5" font-family="Helvetica,sans-Serif" font-size="10.00" fill="#000000">SNN::getNumConnections</text>
</a>
</g>
</g>
<!-- Node1082&#45;&gt;Node1083 -->
<g id="edge4" class="edge">
<title>Node1082&#45;&gt;Node1083</title>
<path fill="none" stroke="#191970" d="M446.1246,-86C456.0411,-86 466.0756,-86 475.82,-86"/>
<polygon fill="#191970" stroke="#191970" points="475.8525,-89.5001 485.8525,-86 475.8525,-82.5001 475.8525,-89.5001"/>
</g>
<!-- Node1084 -->
<g id="node6" class="node">
<title>Node1084</title>
<g id="a_node6"><a xlink:href="classSNN.html#a52f149e224abff772962dea6680398e2" target="_top" xlink:title="gets number of connections associated with a connection ID ">
<polygon fill="#ffffff" stroke="#000000" points="660,-76.5 660,-95.5 832,-95.5 832,-76.5 660,-76.5"/>
<text text-anchor="middle" x="746" y="-83.5" font-family="Helvetica,sans-Serif" font-size="10.00" fill="#000000">SNN::getNumSynapticConnections</text>
</a>
</g>
</g>
<!-- Node1083&#45;&gt;Node1084 -->
<g id="edge5" class="edge">
<title>Node1083&#45;&gt;Node1084</title>
<path fill="none" stroke="#191970" d="M620.2311,-86C629.8589,-86 639.916,-86 649.9663,-86"/>
<polygon fill="#191970" stroke="#191970" points="649.9983,-89.5001 659.9983,-86 649.9982,-82.5001 649.9983,-89.5001"/>
</g>
<!-- Node1085 -->
<g id="node7" class="node">
<title>Node1085</title>
<g id="a_node7"><a xlink:href="classSNN.html#a477f99451786873b73e2623b6f89b766" target="_top" xlink:title="deallocates all dynamical structures and exits ">
<polygon fill="#ffffff" stroke="#000000" points="868,-76.5 868,-95.5 974,-95.5 974,-76.5 868,-76.5"/>
<text text-anchor="middle" x="921" y="-83.5" font-family="Helvetica,sans-Serif" font-size="10.00" fill="#000000">SNN::exitSimulation</text>
</a>
</g>
</g>
<!-- Node1084&#45;&gt;Node1085 -->
<g id="edge6" class="edge">
<title>Node1084&#45;&gt;Node1085</title>
<path fill="none" stroke="#191970" d="M832.2183,-86C840.711,-86 849.2199,-86 857.4247,-86"/>
<polygon fill="#191970" stroke="#191970" points="857.6308,-89.5001 867.6308,-86 857.6308,-82.5001 857.6308,-89.5001"/>
</g>
<!-- Node1086&#45;&gt;Node1083 -->
<g id="edge8" class="edge">
<title>Node1086&#45;&gt;Node1083</title>
<path fill="none" stroke="#191970" d="M401.0889,-56.6228C428.5569,-61.9347 464.097,-68.8076 493.8944,-74.5699"/>
<polygon fill="#191970" stroke="#191970" points="493.2768,-78.0152 503.7594,-76.4777 494.6059,-71.1426 493.2768,-78.0152"/>
</g>
<!-- Node1087 -->
<g id="node9" class="node">
<title>Node1087</title>
<g id="a_node9"><a xlink:href="classSNN.html#a11e19a0ccbeca92ba843a5933b3321e0" target="_top" xlink:title="SNN::getGroupNumNeurons">
<polygon fill="#ffffff" stroke="#000000" points="482,-38.5 482,-57.5 624,-57.5 624,-38.5 482,-38.5"/>
<text text-anchor="middle" x="553" y="-45.5" font-family="Helvetica,sans-Serif" font-size="10.00" fill="#000000">SNN::getGroupNumNeurons</text>
</a>
</g>
</g>
<!-- Node1086&#45;&gt;Node1087 -->
<g id="edge9" class="edge">
<title>Node1086&#45;&gt;Node1087</title>
<path fill="none" stroke="#191970" d="M401.0889,-48C421.9947,-48 447.5763,-48 471.7432,-48"/>
<polygon fill="#191970" stroke="#191970" points="471.9961,-51.5001 481.9961,-48 471.996,-44.5001 471.9961,-51.5001"/>
</g>
<!-- Node1088 -->
<g id="node10" class="node">
<title>Node1088</title>
<g id="a_node10"><a xlink:href="classSNN.html#a13067d0c1634b4e91f819e06e5fd634f" target="_top" xlink:title="SNN::isExcitatoryGroup">
<polygon fill="#ffffff" stroke="#000000" points="492,-.5 492,-19.5 614,-19.5 614,-.5 492,-.5"/>
<text text-anchor="middle" x="553" y="-7.5" font-family="Helvetica,sans-Serif" font-size="10.00" fill="#000000">SNN::isExcitatoryGroup</text>
</a>
</g>
</g>
<!-- Node1086&#45;&gt;Node1088 -->
<g id="edge10" class="edge">
<title>Node1086&#45;&gt;Node1088</title>
<path fill="none" stroke="#191970" d="M401.0889,-39.3772C428.5569,-34.0653 464.097,-27.1924 493.8944,-21.4301"/>
<polygon fill="#191970" stroke="#191970" points="494.6059,-24.8574 503.7594,-19.5223 493.2768,-17.9848 494.6059,-24.8574"/>
</g>
</g>
</svg>
        <g id="navigator" transform="translate(0 0)" fill="#404254">
                <rect fill="#f2f5e9" fill-opacity="0.5" stroke="#606060" stroke-width=".5" x="0" y="0" width="60" height="60"/>
                <use id="zoomplus" xlink:href="#zoomPlus" x="17" y="9" onmousedown="handleZoom(evt,'in')"/>
                <use id="zoomminus" xlink:href="#zoomMin" x="42" y="9" onmousedown="handleZoom(evt,'out')"/>
                <use id="reset" xlink:href="#resetDef" x="30" y="36" onmousedown="handleReset()"/>
                <g id="arrowUp" xlink:href="#dirArrow" transform="translate(30 24)" onmousedown="handlePan(0,-1)">
                  <use xlink:href="#rim" fill="#404040">
                        <set attributeName="fill" to="#808080" begin="arrowUp.mouseover" end="arrowUp.mouseout"/>
                  </use>
                  <path fill="none" stroke="white" stroke-width="1.5" d="M0,-3.0v7 M-2.5,-0.5L0,-3.0L2.5,-0.5"/>
                </g>
                <g id="arrowRight" xlink:href="#dirArrow" transform="rotate(90) translate(36 -43)" onmousedown="handlePan(1,0)">
                  <use xlink:href="#rim" fill="#404040">
                        <set attributeName="fill" to="#808080" begin="arrowRight.mouseover" end="arrowRight.mouseout"/>
                  </use>
                  <path fill="none" stroke="white" stroke-width="1.5" d="M0,-3.0v7 M-2.5,-0.5L0,-3.0L2.5,-0.5"/>
                </g>
                <g id="arrowDown" xlink:href="#dirArrow" transform="rotate(180) translate(-30 -48)" onmousedown="handlePan(0,1)">
                  <use xlink:href="#rim" fill="#404040">
                        <set attributeName="fill" to="#808080" begin="arrowDown.mouseover" end="arrowDown.mouseout"/>
                  </use>
                  <path fill="none" stroke="white" stroke-width="1.5" d="M0,-3.0v7 M-2.5,-0.5L0,-3.0L2.5,-0.5"/>
                </g>
                <g id="arrowLeft" xlink:href="#dirArrow" transform="rotate(270) translate(-36 17)" onmousedown="handlePan(-1,0)">
                  <use xlink:href="#rim" fill="#404040">
                        <set attributeName="fill" to="#808080" begin="arrowLeft.mouseover" end="arrowLeft.mouseout"/>
                  </use>
                  <path fill="none" stroke="white" stroke-width="1.5" d="M0,-3.0v7 M-2.5,-0.5L0,-3.0L2.5,-0.5"/>
                </g>
        </g>
        <svg viewBox="0 0 15 15" width="100%" height="30px" preserveAspectRatio="xMaxYMin meet">
         <g id="arrow_out" transform="scale(0.3 0.3)">
          <a xlink:href="classCARLsim_af67a432c859556cff7d6b1d59638ad01_cgraph_org.svg" target="_base">
           <rect id="button" ry="5" rx="5" y="6" x="6" height="38" width="38"
                fill="#f2f5e9" fill-opacity="0.5" stroke="#606060" stroke-width="1.0"/>
           <path id="arrow"
             d="M 11.500037,31.436501 C 11.940474,20.09759 22.043105,11.32322 32.158766,21.979434 L 37.068811,17.246167 C 37.068811,17.246167 37.088388,32 37.088388,32 L 22.160133,31.978069 C 22.160133,31.978069 26.997745,27.140456 26.997745,27.140456 C 18.528582,18.264221 13.291696,25.230495 11.500037,31.436501 z"
             style="fill:#404040;"/>
          </a>
         </g>
        </svg>
</svg>
