<?xml version="1.0" encoding="UTF-8" standalone="no"?>
<!DOCTYPE svg PUBLIC "-//W3C//DTD SVG 1.1//EN"
 "http://www.w3.org/Graphics/SVG/1.1/DTD/svg11.dtd">
<!-- Generated by graphviz version 2.40.1 (20161225.0304)
 -->
<!-- Title: setRates Pages: 1 -->
<svg width="681pt" height="72pt"
 viewBox="0.00 0.00 681.00 71.50" xmlns="http://www.w3.org/2000/svg" xmlns:xlink="http://www.w3.org/1999/xlink">
<g id="graph0" class="graph" transform="scale(1 1) rotate(0) translate(4 67.5)">
<title>setRates</title>
<polygon fill="#ffffff" stroke="transparent" points="-4,4 -4,-67.5 677,-67.5 677,4 -4,4"/>
<!-- Node69 -->
<g id="node1" class="node">
<title>Node69</title>
<polygon fill="#bfbfbf" stroke="#000000" points="0,-19.5 0,-38.5 56,-38.5 56,-19.5 0,-19.5"/>
<text text-anchor="middle" x="28" y="-26.5" font-family="Helvetica,sans-Serif" font-size="10.00" fill="#000000">setRates</text>
</g>
<!-- Node70 -->
<g id="node2" class="node">
<title>Node70</title>
<g id="a_node2"><a xlink:href="classPoissonRate_1_1Impl.html#a99ac51f213a6d1c8487b1519106df970" target="_top" xlink:title="setRate">
<polygon fill="#ffffff" stroke="#000000" points="126,-38.5 126,-57.5 177,-57.5 177,-38.5 126,-38.5"/>
<text text-anchor="middle" x="151.5" y="-45.5" font-family="Helvetica,sans-Serif" font-size="10.00" fill="#000000">setRate</text>
</a>
</g>
</g>
<!-- Node69&#45;&gt;Node70 -->
<g id="edge1" class="edge">
<title>Node69&#45;&gt;Node70</title>
<path fill="none" stroke="#191970" d="M66.0508,-34.854C85.407,-37.8319 108.4257,-41.3732 125.6926,-44.0296"/>
<polygon fill="#191970" stroke="#191970" points="66.44,-31.3727 56.0241,-33.3114 65.3756,-38.2914 66.44,-31.3727"/>
</g>
<!-- Node74 -->
<g id="node6" class="node">
<title>Node74</title>
<g id="a_node6"><a xlink:href="classPoissonRate.html#a39ade841ecc17249712f693ef8ffaa19" target="_top" xlink:title="Assigns the same mean firing rate to all neurons. ">
<polygon fill="#ffffff" stroke="#000000" points="92,-.5 92,-19.5 211,-19.5 211,-.5 92,-.5"/>
<text text-anchor="middle" x="151.5" y="-7.5" font-family="Helvetica,sans-Serif" font-size="10.00" fill="#000000">PoissonRate::setRates</text>
</a>
</g>
</g>
<!-- Node69&#45;&gt;Node74 -->
<g id="edge5" class="edge">
<title>Node69&#45;&gt;Node74</title>
<path fill="none" stroke="#191970" d="M65.9908,-23.1553C74.1793,-21.8955 83.0256,-20.5345 91.816,-19.1822"/>
<polygon fill="#191970" stroke="#191970" points="65.3756,-19.7086 56.0241,-24.6886 66.44,-26.6273 65.3756,-19.7086"/>
</g>
<!-- Node71 -->
<g id="node3" class="node">
<title>Node71</title>
<g id="a_node3"><a xlink:href="classPoissonRate.html#a99ac51f213a6d1c8487b1519106df970" target="_top" xlink:title="Sets the mean firing rate of a particular neuron ID. ">
<polygon fill="#ffffff" stroke="#000000" points="247,-38.5 247,-57.5 360,-57.5 360,-38.5 247,-38.5"/>
<text text-anchor="middle" x="303.5" y="-45.5" font-family="Helvetica,sans-Serif" font-size="10.00" fill="#000000">PoissonRate::setRate</text>
</a>
</g>
</g>
<!-- Node70&#45;&gt;Node71 -->
<g id="edge2" class="edge">
<title>Node70&#45;&gt;Node71</title>
<path fill="none" stroke="#191970" d="M187.7342,-48C205.4328,-48 227.1366,-48 246.9498,-48"/>
<polygon fill="#191970" stroke="#191970" points="187.2848,-44.5001 177.2847,-48 187.2847,-51.5001 187.2848,-44.5001"/>
</g>
<!-- Node72 -->
<g id="node4" class="node">
<title>Node72</title>
<g id="a_node4"><a xlink:href="classVisualStimulus_1_1Impl.html#a7c85c4aea5e909cdc928547d8fd62b2e" target="_top" xlink:title="VisualStimulus::Impl\l::readFramePoisson">
<polygon fill="#ffffff" stroke="#000000" points="396,-33 396,-63 503,-63 503,-33 396,-33"/>
<text text-anchor="start" x="404" y="-51" font-family="Helvetica,sans-Serif" font-size="10.00" fill="#000000">VisualStimulus::Impl</text>
<text text-anchor="middle" x="449.5" y="-40" font-family="Helvetica,sans-Serif" font-size="10.00" fill="#000000">::readFramePoisson</text>
</a>
</g>
</g>
<!-- Node71&#45;&gt;Node72 -->
<g id="edge3" class="edge">
<title>Node71&#45;&gt;Node72</title>
<path fill="none" stroke="#191970" d="M370.6174,-48C379.0908,-48 387.6706,-48 395.8961,-48"/>
<polygon fill="#191970" stroke="#191970" points="370.3655,-44.5001 360.3655,-48 370.3654,-51.5001 370.3655,-44.5001"/>
</g>
<!-- Node73 -->
<g id="node5" class="node">
<title>Node73</title>
<g id="a_node5"><a xlink:href="classVisualStimulus.html#aac6cca8793faebe5b1e8c533d12744e2" target="_top" xlink:title="Reads the next image frame and returns a pointer to a PoissonRate object. ">
<polygon fill="#ffffff" stroke="#000000" points="539,-33 539,-63 673,-63 673,-33 539,-33"/>
<text text-anchor="start" x="547" y="-51" font-family="Helvetica,sans-Serif" font-size="10.00" fill="#000000">VisualStimulus::readFrame</text>
<text text-anchor="middle" x="606" y="-40" font-family="Helvetica,sans-Serif" font-size="10.00" fill="#000000">Poisson</text>
</a>
</g>
</g>
<!-- Node72&#45;&gt;Node73 -->
<g id="edge4" class="edge">
<title>Node72&#45;&gt;Node73</title>
<path fill="none" stroke="#191970" d="M513.4152,-48C521.7738,-48 530.3584,-48 538.7696,-48"/>
<polygon fill="#191970" stroke="#191970" points="513.3585,-44.5001 503.3584,-48 513.3584,-51.5001 513.3585,-44.5001"/>
</g>
</g>
</svg>
