<?xml version="1.0" encoding="UTF-8" standalone="no"?>
<!DOCTYPE svg PUBLIC "-//W3C//DTD SVG 1.1//EN"
 "http://www.w3.org/Graphics/SVG/1.1/DTD/svg11.dtd">
<!-- Generated by graphviz version 2.40.1 (20161225.0304)
 -->
<!-- Title: isGroupWithCUBA Pages: 1 -->
<svg width="404pt" height="28pt"
 viewBox="0.00 0.00 404.00 28.00" xmlns="http://www.w3.org/2000/svg" xmlns:xlink="http://www.w3.org/1999/xlink">
<g id="graph0" class="graph" transform="scale(1 1) rotate(0) translate(4 24)">
<title>isGroupWithCUBA</title>
<polygon fill="#ffffff" stroke="transparent" points="-4,4 -4,-24 400,-24 400,4 -4,4"/>
<!-- Node536 -->
<g id="node1" class="node">
<title>Node536</title>
<polygon fill="#bfbfbf" stroke="#000000" points="0,-.5 0,-19.5 99,-19.5 99,-.5 0,-.5"/>
<text text-anchor="middle" x="49.5" y="-7.5" font-family="Helvetica,sans-Serif" font-size="10.00" fill="#000000">isGroupWithCUBA</text>
</g>
<!-- Node537 -->
<g id="node2" class="node">
<title>Node537</title>
<g id="a_node2"><a xlink:href="classSNN.html#a37e12288373deae9fe0811818983b23e" target="_top" xlink:title="SNN::isGroupWithCUBA">
<polygon fill="#ffffff" stroke="#000000" points="135,-.5 135,-19.5 262,-19.5 262,-.5 135,-.5"/>
<text text-anchor="middle" x="198.5" y="-7.5" font-family="Helvetica,sans-Serif" font-size="10.00" fill="#000000">SNN::isGroupWithCUBA</text>
</a>
</g>
</g>
<!-- Node536&#45;&gt;Node537 -->
<g id="edge1" class="edge">
<title>Node536&#45;&gt;Node537</title>
<path fill="none" stroke="#191970" d="M99.1148,-10C107.3292,-10 115.9995,-10 124.658,-10"/>
<polygon fill="#191970" stroke="#191970" points="124.7889,-13.5001 134.7889,-10 124.7888,-6.5001 124.7889,-13.5001"/>
</g>
<!-- Node538 -->
<g id="node3" class="node">
<title>Node538</title>
<g id="a_node3"><a xlink:href="classSNN.html#a9b8aa1975049078149d963fb8eb06215" target="_top" xlink:title="SNN::isGroupWith">
<polygon fill="#ffffff" stroke="#000000" points="298,-.5 298,-19.5 396,-19.5 396,-.5 298,-.5"/>
<text text-anchor="middle" x="347" y="-7.5" font-family="Helvetica,sans-Serif" font-size="10.00" fill="#000000">SNN::isGroupWith</text>
</a>
</g>
</g>
<!-- Node537&#45;&gt;Node538 -->
<g id="edge2" class="edge">
<title>Node537&#45;&gt;Node538</title>
<path fill="none" stroke="#191970" d="M262.3392,-10C270.6301,-10 279.0978,-10 287.3175,-10"/>
<polygon fill="#191970" stroke="#191970" points="287.5646,-13.5001 297.5645,-10 287.5645,-6.5001 287.5646,-13.5001"/>
</g>
</g>
</svg>
