<?xml version="1.0" encoding="UTF-8" standalone="no"?>
<!DOCTYPE svg PUBLIC "-//W3C//DTD SVG 1.1//EN"
 "http://www.w3.org/Graphics/SVG/1.1/DTD/svg11.dtd">
<!-- Generated by graphviz version 2.40.1 (20161225.0304)
 -->
<!-- Title: getNumWeightsWithValue Pages: 1 -->
<!--zoomable 138 -->
<svg id="main" version="1.1" xmlns="http://www.w3.org/2000/svg" xmlns:xlink="http://www.w3.org/1999/xlink" xml:space="preserve" onload="init(evt)">
<style type="text/css"><![CDATA[
.edge:hover path { stroke: red; }
.edge:hover polygon { stroke: red; fill: red; }
]]></style>
<script type="text/javascript"><![CDATA[
var edges = document.getElementsByTagName('g');
if (edges && edges.length) {
  for (var i=0;i<edges.length;i++) {
    if (edges[i].id.substr(0,4)=='edge') {
      edges[i].setAttribute('class','edge');
    }
  }
}
]]></script>
        <defs>
                <circle id="rim" cx="0" cy="0" r="7"/>
                <circle id="rim2" cx="0" cy="0" r="3.5"/>
                <g id="zoomPlus">
                        <use xlink:href="#rim" fill="#404040">
                                <set attributeName="fill" to="#808080" begin="zoomplus.mouseover" end="zoomplus.mouseout"/>
                        </use>
                        <path d="M-4,0h8M0,-4v8" fill="none" stroke="white" stroke-width="1.5" pointer-events="none"/>
                </g>
                <g id="zoomMin">
                        <use xlink:href="#rim" fill="#404040">
                                <set attributeName="fill" to="#808080" begin="zoomminus.mouseover" end="zoomminus.mouseout"/>
                        </use>
                        <path d="M-4,0h8" fill="none" stroke="white" stroke-width="1.5" pointer-events="none"/>
                </g>
                <g id="dirArrow">
                        <path fill="none" stroke="white" stroke-width="1.5" d="M0,-3.0v7 M-2.5,-0.5L0,-3.0L2.5,-0.5"/>
                </g>
               <g id="resetDef">
                       <use xlink:href="#rim2" fill="#404040">
                               <set attributeName="fill" to="#808080" begin="reset.mouseover" end="reset.mouseout"/>
                       </use>
               </g>
        </defs>

<script type="text/javascript">
var viewWidth = 958;
var viewHeight = 138;
var sectionId = 'dynsection-16';
</script>
<script xlink:href="svgpan.js"/>
<svg id="graph" class="graph">
<g id="viewport">
<title>getNumWeightsWithValue</title>
<polygon fill="#ffffff" stroke="transparent" points="-4,4 -4,-134.0825 954,-134.0825 954,4 -4,4"/>
<!-- Node66 -->
<g id="node1" class="node">
<title>Node66</title>
<polygon fill="#bfbfbf" stroke="#000000" points="0,-45.0825 0,-64.0825 132,-64.0825 132,-45.0825 0,-45.0825"/>
<text text-anchor="middle" x="66" y="-52.0825" font-family="Helvetica,sans-Serif" font-size="10.00" fill="#000000">getNumWeightsWithValue</text>
</g>
<!-- Node67 -->
<g id="node2" class="node">
<title>Node67</title>
<g id="a_node2"><a xlink:href="classConnectionMonitorCore.html#af0258258ab62c21e22a4bc98dcaa050e" target="_top" xlink:title="returns number of weights that have a certain value ">
<polygon fill="#ffffff" stroke="#000000" points="168,-39.5825 168,-69.5825 306,-69.5825 306,-39.5825 168,-39.5825"/>
<text text-anchor="start" x="176" y="-57.5825" font-family="Helvetica,sans-Serif" font-size="10.00" fill="#000000">ConnectionMonitorCore</text>
<text text-anchor="middle" x="237" y="-46.5825" font-family="Helvetica,sans-Serif" font-size="10.00" fill="#000000">::getNumWeightsWithValue</text>
</a>
</g>
</g>
<!-- Node66&#45;&gt;Node67 -->
<g id="edge1" class="edge">
<title>Node66&#45;&gt;Node67</title>
<path fill="none" stroke="#191970" d="M132.1131,-54.5825C140.5569,-54.5825 149.267,-54.5825 157.8899,-54.5825"/>
<polygon fill="#191970" stroke="#191970" points="157.9513,-58.0826 167.9512,-54.5825 157.9512,-51.0826 157.9513,-58.0826"/>
</g>
<!-- Node68 -->
<g id="node3" class="node">
<title>Node68</title>
<g id="a_node3"><a xlink:href="classConnectionMonitorCore.html#aa096d9983144b3323d6f370e37b0859c" target="_top" xlink:title="returns min weight in the connection (getCurrent=false: RangeWeight.min, true: current smallest) ...">
<polygon fill="#ffffff" stroke="#000000" points="508,-99.5825 508,-129.5825 627,-129.5825 627,-99.5825 508,-99.5825"/>
<text text-anchor="start" x="516" y="-117.5825" font-family="Helvetica,sans-Serif" font-size="10.00" fill="#000000">ConnectionMonitorCore</text>
<text text-anchor="middle" x="567.5" y="-106.5825" font-family="Helvetica,sans-Serif" font-size="10.00" fill="#000000">::getMinWeight</text>
</a>
</g>
</g>
<!-- Node67&#45;&gt;Node68 -->
<g id="edge2" class="edge">
<title>Node67&#45;&gt;Node68</title>
<path fill="none" stroke="#191970" d="M306.2836,-67.1605C362.6201,-77.388 441.7289,-91.7497 498.0974,-101.983"/>
<polygon fill="#191970" stroke="#191970" points="497.5306,-105.4372 507.9949,-103.7798 498.781,-98.5498 497.5306,-105.4372"/>
</g>
<!-- Node69 -->
<g id="node4" class="node">
<title>Node69</title>
<g id="a_node4"><a xlink:href="classConnectionMonitorCore.html#a30f10c789ec0f272848c2a68cd35fa97" target="_top" xlink:title="returns max weight in the connection (getCurrent=false: RangeWeight.max, true: current largest) ...">
<polygon fill="#ffffff" stroke="#000000" points="508,-50.5825 508,-80.5825 627,-80.5825 627,-50.5825 508,-50.5825"/>
<text text-anchor="start" x="516" y="-68.5825" font-family="Helvetica,sans-Serif" font-size="10.00" fill="#000000">ConnectionMonitorCore</text>
<text text-anchor="middle" x="567.5" y="-57.5825" font-family="Helvetica,sans-Serif" font-size="10.00" fill="#000000">::getMaxWeight</text>
</a>
</g>
</g>
<!-- Node67&#45;&gt;Node69 -->
<g id="edge3" class="edge">
<title>Node67&#45;&gt;Node69</title>
<path fill="none" stroke="#191970" d="M306.2836,-56.8885C362.5034,-58.7597 441.4014,-61.3856 497.747,-63.261"/>
<polygon fill="#191970" stroke="#191970" points="497.884,-66.7674 507.9949,-63.602 498.1169,-59.7712 497.884,-66.7674"/>
</g>
<!-- Node70 -->
<g id="node5" class="node">
<title>Node70</title>
<g id="a_node5"><a xlink:href="classConnectionMonitorCore.html#a6c63078d9c2226cd48f51e4d4ed0d4db" target="_top" xlink:title="returns number of weights with values in range e[minVal,maxVal] (inclusive) ">
<polygon fill="#ffffff" stroke="#000000" points="342,-17.5825 342,-47.5825 472,-47.5825 472,-17.5825 342,-17.5825"/>
<text text-anchor="start" x="350" y="-35.5825" font-family="Helvetica,sans-Serif" font-size="10.00" fill="#000000">ConnectionMonitorCore</text>
<text text-anchor="middle" x="407" y="-24.5825" font-family="Helvetica,sans-Serif" font-size="10.00" fill="#000000">::getNumWeightsInRange</text>
</a>
</g>
</g>
<!-- Node67&#45;&gt;Node70 -->
<g id="edge4" class="edge">
<title>Node67&#45;&gt;Node70</title>
<path fill="none" stroke="#191970" d="M306.1455,-45.6343C314.6026,-44.5398 323.2767,-43.4173 331.8169,-42.3121"/>
<polygon fill="#191970" stroke="#191970" points="332.2917,-45.7799 341.7598,-41.0254 331.3932,-38.8378 332.2917,-45.7799"/>
</g>
<!-- Node70&#45;&gt;Node68 -->
<g id="edge5" class="edge">
<title>Node70&#45;&gt;Node68</title>
<path fill="none" stroke="#191970" d="M430.9818,-47.6085C451.1328,-59.9267 480.9018,-77.4144 508,-90.5825 511.353,-92.2119 514.8463,-93.8254 518.3858,-95.3994"/>
<polygon fill="#191970" stroke="#191970" points="517.2301,-98.7126 527.7987,-99.4573 520.0013,-92.2844 517.2301,-98.7126"/>
</g>
<!-- Node70&#45;&gt;Node69 -->
<g id="edge6" class="edge">
<title>Node70&#45;&gt;Node69</title>
<path fill="none" stroke="#191970" d="M472.2815,-46.0049C480.765,-47.7492 489.4799,-49.541 498.0286,-51.2987"/>
<polygon fill="#191970" stroke="#191970" points="497.4638,-54.7557 507.9638,-53.3414 498.8736,-47.8991 497.4638,-54.7557"/>
</g>
<!-- Node71 -->
<g id="node6" class="node">
<title>Node71</title>
<g id="a_node6"><a xlink:href="classConnectionMonitorCore.html#a7373a8cecde25ccd48b3df967b5b0417" target="_top" xlink:title="returns number of synapses that exist in the connection ">
<polygon fill="#ffffff" stroke="#000000" points="508,-1.5825 508,-31.5825 627,-31.5825 627,-1.5825 508,-1.5825"/>
<text text-anchor="start" x="516" y="-19.5825" font-family="Helvetica,sans-Serif" font-size="10.00" fill="#000000">ConnectionMonitorCore</text>
<text text-anchor="middle" x="567.5" y="-8.5825" font-family="Helvetica,sans-Serif" font-size="10.00" fill="#000000">::getNumSynapses</text>
</a>
</g>
</g>
<!-- Node70&#45;&gt;Node71 -->
<g id="edge7" class="edge">
<title>Node70&#45;&gt;Node71</title>
<path fill="none" stroke="#191970" d="M472.2815,-19.4302C480.6728,-18.4742 489.2904,-17.5971 497.7497,-16.8374"/>
<polygon fill="#191970" stroke="#191970" points="498.2952,-20.3039 507.9638,-15.9716 497.7039,-13.3289 498.2952,-20.3039"/>
</g>
<!-- Node71&#45;&gt;Node67 -->
<g id="edge11" class="edge">
<title>Node71&#45;&gt;Node67</title>
<path fill="none" stroke="#191970" d="M507.94,-6.2175C462.0757,-.1482 397.3668,4.2437 342,-7.5825 317.3827,-12.8407 291.5537,-24.314 271.6733,-34.608"/>
<polygon fill="#191970" stroke="#191970" points="269.8879,-31.5933 262.704,-39.3806 273.1761,-37.7729 269.8879,-31.5933"/>
</g>
<!-- Node71&#45;&gt;Node70 -->
<g id="edge10" class="edge">
<title>Node71&#45;&gt;Node70</title>
<path fill="none" stroke="#191970" d="M507.9638,-29.0636C499.6061,-30.0648 490.9265,-30.9943 482.3228,-31.8124"/>
<polygon fill="#191970" stroke="#191970" points="481.9261,-28.3339 472.2815,-32.7193 482.5558,-35.3055 481.9261,-28.3339"/>
</g>
<!-- Node72 -->
<g id="node7" class="node">
<title>Node72</title>
<g id="a_node7"><a xlink:href="classConnectionMonitorCore.html#ad094dca7a9d2ac2c46e89f1035706eba" target="_top" xlink:title="returns number of weights with &gt;=minAbsChanged weight change since last snapshot ">
<polygon fill="#ffffff" stroke="#000000" points="663,-1.5825 663,-31.5825 795,-31.5825 795,-1.5825 663,-1.5825"/>
<text text-anchor="start" x="671" y="-19.5825" font-family="Helvetica,sans-Serif" font-size="10.00" fill="#000000">ConnectionMonitorCore</text>
<text text-anchor="middle" x="729" y="-8.5825" font-family="Helvetica,sans-Serif" font-size="10.00" fill="#000000">::getNumWeightsChanged</text>
</a>
</g>
</g>
<!-- Node71&#45;&gt;Node72 -->
<g id="edge8" class="edge">
<title>Node71&#45;&gt;Node72</title>
<path fill="none" stroke="#191970" d="M627.1778,-16.5825C635.509,-16.5825 644.1619,-16.5825 652.7468,-16.5825"/>
<polygon fill="#191970" stroke="#191970" points="652.7702,-20.0826 662.7702,-16.5825 652.7702,-13.0826 652.7702,-20.0826"/>
</g>
<!-- Node73 -->
<g id="node8" class="node">
<title>Node73</title>
<g id="a_node8"><a xlink:href="classConnectionMonitorCore.html#a730c0ec47d470c8920ab57288c31ca3b" target="_top" xlink:title="calculates weight changes since last snapshot and reports them in 2D weight change matrix ...">
<polygon fill="#ffffff" stroke="#000000" points="831,-1.5825 831,-31.5825 950,-31.5825 950,-1.5825 831,-1.5825"/>
<text text-anchor="start" x="839" y="-19.5825" font-family="Helvetica,sans-Serif" font-size="10.00" fill="#000000">ConnectionMonitorCore</text>
<text text-anchor="middle" x="890.5" y="-8.5825" font-family="Helvetica,sans-Serif" font-size="10.00" fill="#000000">::calcWeightChanges</text>
</a>
</g>
</g>
<!-- Node72&#45;&gt;Node73 -->
<g id="edge9" class="edge">
<title>Node72&#45;&gt;Node73</title>
<path fill="none" stroke="#191970" d="M795.1542,-16.5825C803.5767,-16.5825 812.2183,-16.5825 820.6959,-16.5825"/>
<polygon fill="#191970" stroke="#191970" points="820.9297,-20.0826 830.9297,-16.5825 820.9296,-13.0826 820.9297,-20.0826"/>
</g>
</g>
</svg>
        <g id="navigator" transform="translate(0 0)" fill="#404254">
                <rect fill="#f2f5e9" fill-opacity="0.5" stroke="#606060" stroke-width=".5" x="0" y="0" width="60" height="60"/>
                <use id="zoomplus" xlink:href="#zoomPlus" x="17" y="9" onmousedown="handleZoom(evt,'in')"/>
                <use id="zoomminus" xlink:href="#zoomMin" x="42" y="9" onmousedown="handleZoom(evt,'out')"/>
                <use id="reset" xlink:href="#resetDef" x="30" y="36" onmousedown="handleReset()"/>
                <g id="arrowUp" xlink:href="#dirArrow" transform="translate(30 24)" onmousedown="handlePan(0,-1)">
                  <use xlink:href="#rim" fill="#404040">
                        <set attributeName="fill" to="#808080" begin="arrowUp.mouseover" end="arrowUp.mouseout"/>
                  </use>
                  <path fill="none" stroke="white" stroke-width="1.5" d="M0,-3.0v7 M-2.5,-0.5L0,-3.0L2.5,-0.5"/>
                </g>
                <g id="arrowRight" xlink:href="#dirArrow" transform="rotate(90) translate(36 -43)" onmousedown="handlePan(1,0)">
                  <use xlink:href="#rim" fill="#404040">
                        <set attributeName="fill" to="#808080" begin="arrowRight.mouseover" end="arrowRight.mouseout"/>
                  </use>
                  <path fill="none" stroke="white" stroke-width="1.5" d="M0,-3.0v7 M-2.5,-0.5L0,-3.0L2.5,-0.5"/>
                </g>
                <g id="arrowDown" xlink:href="#dirArrow" transform="rotate(180) translate(-30 -48)" onmousedown="handlePan(0,1)">
                  <use xlink:href="#rim" fill="#404040">
                        <set attributeName="fill" to="#808080" begin="arrowDown.mouseover" end="arrowDown.mouseout"/>
                  </use>
                  <path fill="none" stroke="white" stroke-width="1.5" d="M0,-3.0v7 M-2.5,-0.5L0,-3.0L2.5,-0.5"/>
                </g>
                <g id="arrowLeft" xlink:href="#dirArrow" transform="rotate(270) translate(-36 17)" onmousedown="handlePan(-1,0)">
                  <use xlink:href="#rim" fill="#404040">
                        <set attributeName="fill" to="#808080" begin="arrowLeft.mouseover" end="arrowLeft.mouseout"/>
                  </use>
                  <path fill="none" stroke="white" stroke-width="1.5" d="M0,-3.0v7 M-2.5,-0.5L0,-3.0L2.5,-0.5"/>
                </g>
        </g>
        <svg viewBox="0 0 15 15" width="100%" height="30px" preserveAspectRatio="xMaxYMin meet">
         <g id="arrow_out" transform="scale(0.3 0.3)">
          <a xlink:href="classConnectionMonitor_af0258258ab62c21e22a4bc98dcaa050e_cgraph_org.svg" target="_base">
           <rect id="button" ry="5" rx="5" y="6" x="6" height="38" width="38"
                fill="#f2f5e9" fill-opacity="0.5" stroke="#606060" stroke-width="1.0"/>
           <path id="arrow"
             d="M 11.500037,31.436501 C 11.940474,20.09759 22.043105,11.32322 32.158766,21.979434 L 37.068811,17.246167 C 37.068811,17.246167 37.088388,32 37.088388,32 L 22.160133,31.978069 C 22.160133,31.978069 26.997745,27.140456 26.997745,27.140456 C 18.528582,18.264221 13.291696,25.230495 11.500037,31.436501 z"
             style="fill:#404040;"/>
          </a>
         </g>
        </svg>
</svg>
