<?xml version="1.0" encoding="UTF-8" standalone="no"?>
<!DOCTYPE svg PUBLIC "-//W3C//DTD SVG 1.1//EN"
 "http://www.w3.org/Graphics/SVG/1.1/DTD/svg11.dtd">
<!-- Generated by graphviz version 2.40.1 (20161225.0304)
 -->
<!-- Title: schedule Pages: 1 -->
<svg width="1284pt" height="154pt"
 viewBox="0.00 0.00 1284.00 153.50" xmlns="http://www.w3.org/2000/svg" xmlns:xlink="http://www.w3.org/1999/xlink">
<g id="graph0" class="graph" transform="scale(1 1) rotate(0) translate(4 149.5)">
<title>schedule</title>
<polygon fill="#ffffff" stroke="transparent" points="-4,4 -4,-149.5 1280,-149.5 1280,4 -4,4"/>
<!-- Node42 -->
<g id="node1" class="node">
<title>Node42</title>
<polygon fill="#bfbfbf" stroke="#000000" points="0,-28 0,-47 56,-47 56,-28 0,-28"/>
<text text-anchor="middle" x="28" y="-35" font-family="Helvetica,sans-Serif" font-size="10.00" fill="#000000">schedule</text>
</g>
<!-- Node43 -->
<g id="node2" class="node">
<title>Node43</title>
<g id="a_node2"><a xlink:href="classSpikeBuffer.html#a5922ba31daa2c306a5c1ecbf8d19220d" target="_top" xlink:title="Schedule a spike. ">
<polygon fill="#ffffff" stroke="#000000" points="92,-28 92,-47 205,-47 205,-28 92,-28"/>
<text text-anchor="middle" x="148.5" y="-35" font-family="Helvetica,sans-Serif" font-size="10.00" fill="#000000">SpikeBuffer::schedule</text>
</a>
</g>
</g>
<!-- Node42&#45;&gt;Node43 -->
<g id="edge1" class="edge">
<title>Node42&#45;&gt;Node43</title>
<path fill="none" stroke="#191970" d="M66.5137,-37.5C74.6316,-37.5 83.3574,-37.5 91.9809,-37.5"/>
<polygon fill="#191970" stroke="#191970" points="66.2519,-34.0001 56.2519,-37.5 66.2519,-41.0001 66.2519,-34.0001"/>
</g>
<!-- Node44 -->
<g id="node3" class="node">
<title>Node44</title>
<g id="a_node3"><a xlink:href="classSNN.html#a14317186d53aeff564b126a41a333d3c" target="_top" xlink:title="access group status (currently the concentration of neuromodulator) ">
<polygon fill="#ffffff" stroke="#000000" points="241,-50 241,-69 373,-69 373,-50 241,-50"/>
<text text-anchor="middle" x="307" y="-57" font-family="Helvetica,sans-Serif" font-size="10.00" fill="#000000">SNN::updateGroupMonitor</text>
</a>
</g>
</g>
<!-- Node43&#45;&gt;Node44 -->
<g id="edge2" class="edge">
<title>Node43&#45;&gt;Node44</title>
<path fill="none" stroke="#191970" d="M215.4359,-46.7908C223.8656,-47.9608 232.4859,-49.1574 240.9026,-50.3256"/>
<polygon fill="#191970" stroke="#191970" points="215.6607,-43.2885 205.2744,-45.3804 214.6983,-50.222 215.6607,-43.2885"/>
</g>
<!-- Node56 -->
<g id="node15" class="node">
<title>Node56</title>
<g id="a_node15"><a xlink:href="classSpikeBuffer_1_1SpikeIterator.html#a62ca91a5c80425f2cd4f6af0ca687e6a" target="_top" xlink:title="SpikeBuffer::SpikeIterator\l::operator++">
<polygon fill="#ffffff" stroke="#000000" points="242.5,-.5 242.5,-30.5 371.5,-30.5 371.5,-.5 242.5,-.5"/>
<text text-anchor="start" x="250.5" y="-18.5" font-family="Helvetica,sans-Serif" font-size="10.00" fill="#000000">SpikeBuffer::SpikeIterator</text>
<text text-anchor="middle" x="307" y="-7.5" font-family="Helvetica,sans-Serif" font-size="10.00" fill="#000000">::operator++</text>
</a>
</g>
</g>
<!-- Node43&#45;&gt;Node56 -->
<g id="edge15" class="edge">
<title>Node43&#45;&gt;Node56</title>
<path fill="none" stroke="#191970" d="M215.2542,-28.2344C224.1976,-26.9931 233.3589,-25.7215 242.2668,-24.4851"/>
<polygon fill="#191970" stroke="#191970" points="214.6983,-24.778 205.2744,-29.6196 215.6607,-31.7115 214.6983,-24.778"/>
</g>
<!-- Node45 -->
<g id="node4" class="node">
<title>Node45</title>
<g id="a_node4"><a xlink:href="classGroupMonitorCore.html#ab91616c118b701c2afd9136393d1f19b" target="_top" xlink:title="starts recording group data ">
<polygon fill="#ffffff" stroke="#000000" points="409,-88 409,-107 575,-107 575,-88 409,-88"/>
<text text-anchor="middle" x="492" y="-95" font-family="Helvetica,sans-Serif" font-size="10.00" fill="#000000">GroupMonitorCore::startRecording</text>
</a>
</g>
</g>
<!-- Node44&#45;&gt;Node45 -->
<g id="edge3" class="edge">
<title>Node44&#45;&gt;Node45</title>
<path fill="none" stroke="#191970" d="M363.52,-71.1095C389.8312,-76.514 420.7435,-82.8635 445.6524,-87.9799"/>
<polygon fill="#191970" stroke="#191970" points="364.183,-67.6727 353.6833,-69.089 362.7746,-74.5296 364.183,-67.6727"/>
</g>
<!-- Node49 -->
<g id="node8" class="node">
<title>Node49</title>
<g id="a_node8"><a xlink:href="classGroupMonitorCore.html#a25e0e98dd4519eaaa6b258f0dcb91ac7" target="_top" xlink:title="stops recording group data ">
<polygon fill="#ffffff" stroke="#000000" points="409.5,-50 409.5,-69 574.5,-69 574.5,-50 409.5,-50"/>
<text text-anchor="middle" x="492" y="-57" font-family="Helvetica,sans-Serif" font-size="10.00" fill="#000000">GroupMonitorCore::stopRecording</text>
</a>
</g>
</g>
<!-- Node44&#45;&gt;Node49 -->
<g id="edge7" class="edge">
<title>Node44&#45;&gt;Node49</title>
<path fill="none" stroke="#191970" d="M383.0278,-59.5C391.6585,-59.5 400.4869,-59.5 409.1992,-59.5"/>
<polygon fill="#191970" stroke="#191970" points="383.0058,-56.0001 373.0057,-59.5 383.0057,-63.0001 383.0058,-56.0001"/>
</g>
<!-- Node51 -->
<g id="node10" class="node">
<title>Node51</title>
<g id="a_node10"><a xlink:href="classSNN.html#a3df37c7539f784fe7a939c5da922f41b" target="_top" xlink:title="run the simulation for n sec ">
<polygon fill="#ffffff" stroke="#000000" points="444.5,-12 444.5,-31 539.5,-31 539.5,-12 444.5,-12"/>
<text text-anchor="middle" x="492" y="-19" font-family="Helvetica,sans-Serif" font-size="10.00" fill="#000000">SNN::runNetwork</text>
</a>
</g>
</g>
<!-- Node44&#45;&gt;Node51 -->
<g id="edge10" class="edge">
<title>Node44&#45;&gt;Node51</title>
<path fill="none" stroke="#191970" d="M363.52,-47.8905C389.8312,-42.486 420.7435,-36.1365 445.6524,-31.0201"/>
<polygon fill="#191970" stroke="#191970" points="362.7746,-44.4704 353.6833,-49.911 364.183,-51.3273 362.7746,-44.4704"/>
</g>
<!-- Node46 -->
<g id="node5" class="node">
<title>Node46</title>
<g id="a_node5"><a xlink:href="classGroupMonitor.html#ab91616c118b701c2afd9136393d1f19b" target="_top" xlink:title="Starts a new recording period. ">
<polygon fill="#ffffff" stroke="#000000" points="629,-126 629,-145 774,-145 774,-126 629,-126"/>
<text text-anchor="middle" x="701.5" y="-133" font-family="Helvetica,sans-Serif" font-size="10.00" fill="#000000">GroupMonitor::startRecording</text>
</a>
</g>
</g>
<!-- Node45&#45;&gt;Node46 -->
<g id="edge4" class="edge">
<title>Node45&#45;&gt;Node46</title>
<path fill="none" stroke="#191970" d="M554.5575,-108.847C584.616,-114.2991 620.2397,-120.7607 648.8831,-125.9561"/>
<polygon fill="#191970" stroke="#191970" points="555.0594,-105.3809 544.5953,-107.04 553.8101,-112.2686 555.0594,-105.3809"/>
</g>
<!-- Node47 -->
<g id="node6" class="node">
<title>Node47</title>
<g id="a_node6"><a xlink:href="classGroupMonitorCore.html#a7ac2c997b5281ea2f2bc00cc9706d37c" target="_top" xlink:title="sets status of PersistentData mode ">
<polygon fill="#ffffff" stroke="#000000" points="611,-88 611,-107 792,-107 792,-88 611,-88"/>
<text text-anchor="middle" x="701.5" y="-95" font-family="Helvetica,sans-Serif" font-size="10.00" fill="#000000">GroupMonitorCore::setPersistentData</text>
</a>
</g>
</g>
<!-- Node45&#45;&gt;Node47 -->
<g id="edge5" class="edge">
<title>Node45&#45;&gt;Node47</title>
<path fill="none" stroke="#191970" d="M585.1055,-97.5C593.6811,-97.5 602.3622,-97.5 610.9149,-97.5"/>
<polygon fill="#191970" stroke="#191970" points="585.1009,-94.0001 575.1008,-97.5 585.1008,-101.0001 585.1009,-94.0001"/>
</g>
<!-- Node48 -->
<g id="node7" class="node">
<title>Node48</title>
<g id="a_node7"><a xlink:href="classGroupMonitor.html#a7ac2c997b5281ea2f2bc00cc9706d37c" target="_top" xlink:title="Sets PersistentMode either on (true) or off (false) ">
<polygon fill="#ffffff" stroke="#000000" points="828,-88 828,-107 988,-107 988,-88 828,-88"/>
<text text-anchor="middle" x="908" y="-95" font-family="Helvetica,sans-Serif" font-size="10.00" fill="#000000">GroupMonitor::setPersistentData</text>
</a>
</g>
</g>
<!-- Node47&#45;&gt;Node48 -->
<g id="edge6" class="edge">
<title>Node47&#45;&gt;Node48</title>
<path fill="none" stroke="#191970" d="M802.1716,-97.5C810.795,-97.5 819.4425,-97.5 827.8731,-97.5"/>
<polygon fill="#191970" stroke="#191970" points="802.0739,-94.0001 792.0739,-97.5 802.0739,-101.0001 802.0739,-94.0001"/>
</g>
<!-- Node49&#45;&gt;Node47 -->
<g id="edge9" class="edge">
<title>Node49&#45;&gt;Node47</title>
<path fill="none" stroke="#191970" d="M554.5575,-70.847C584.616,-76.2991 620.2397,-82.7607 648.8831,-87.9561"/>
<polygon fill="#191970" stroke="#191970" points="555.0594,-67.3809 544.5953,-69.04 553.8101,-74.2686 555.0594,-67.3809"/>
</g>
<!-- Node50 -->
<g id="node9" class="node">
<title>Node50</title>
<g id="a_node9"><a xlink:href="classGroupMonitor.html#a25e0e98dd4519eaaa6b258f0dcb91ac7" target="_top" xlink:title="Ends a recording period. ">
<polygon fill="#ffffff" stroke="#000000" points="629.5,-50 629.5,-69 773.5,-69 773.5,-50 629.5,-50"/>
<text text-anchor="middle" x="701.5" y="-57" font-family="Helvetica,sans-Serif" font-size="10.00" fill="#000000">GroupMonitor::stopRecording</text>
</a>
</g>
</g>
<!-- Node49&#45;&gt;Node50 -->
<g id="edge8" class="edge">
<title>Node49&#45;&gt;Node50</title>
<path fill="none" stroke="#191970" d="M585.046,-59.5C599.9414,-59.5 615.1565,-59.5 629.4661,-59.5"/>
<polygon fill="#191970" stroke="#191970" points="584.8,-56.0001 574.7999,-59.5 584.7999,-63.0001 584.8,-56.0001"/>
</g>
<!-- Node52 -->
<g id="node11" class="node">
<title>Node52</title>
<g id="a_node11"><a xlink:href="classCARLsim_1_1Impl.html#a749f370debe5eec8661cf9ca1b1bb4c0" target="_top" xlink:title="CARLsim::Impl::runNetwork">
<polygon fill="#ffffff" stroke="#000000" points="631.5,-12 631.5,-31 771.5,-31 771.5,-12 631.5,-12"/>
<text text-anchor="middle" x="701.5" y="-19" font-family="Helvetica,sans-Serif" font-size="10.00" fill="#000000">CARLsim::Impl::runNetwork</text>
</a>
</g>
</g>
<!-- Node51&#45;&gt;Node52 -->
<g id="edge11" class="edge">
<title>Node51&#45;&gt;Node52</title>
<path fill="none" stroke="#191970" d="M549.7115,-21.5C575.0099,-21.5 604.9282,-21.5 631.487,-21.5"/>
<polygon fill="#191970" stroke="#191970" points="549.5388,-18.0001 539.5388,-21.5 549.5388,-25.0001 549.5388,-18.0001"/>
</g>
<!-- Node53 -->
<g id="node12" class="node">
<title>Node53</title>
<g id="a_node12"><a xlink:href="classCARLsim.html#aafb2d44405c96aafe089f96ff867018d" target="_top" xlink:title="run the simulation for time=(nSec*seconds + nMsec*milliseconds) ">
<polygon fill="#ffffff" stroke="#000000" points="850,-12 850,-31 966,-31 966,-12 850,-12"/>
<text text-anchor="middle" x="908" y="-19" font-family="Helvetica,sans-Serif" font-size="10.00" fill="#000000">CARLsim::runNetwork</text>
</a>
</g>
</g>
<!-- Node52&#45;&gt;Node53 -->
<g id="edge12" class="edge">
<title>Node52&#45;&gt;Node53</title>
<path fill="none" stroke="#191970" d="M781.9498,-21.5C804.5298,-21.5 828.641,-21.5 849.6658,-21.5"/>
<polygon fill="#191970" stroke="#191970" points="781.6997,-18.0001 771.6996,-21.5 781.6996,-25.0001 781.6997,-18.0001"/>
</g>
<!-- Node54 -->
<g id="node13" class="node">
<title>Node54</title>
<g id="a_node13"><a xlink:href="classSimpleWeightTuner_1_1Impl.html#a312d84bfa66a5036bb52a4c39db6fa6c" target="_top" xlink:title="SimpleWeightTuner::\lImpl::iterate">
<polygon fill="#ffffff" stroke="#000000" points="1024,-6.5 1024,-36.5 1132,-36.5 1132,-6.5 1024,-6.5"/>
<text text-anchor="start" x="1032" y="-24.5" font-family="Helvetica,sans-Serif" font-size="10.00" fill="#000000">SimpleWeightTuner::</text>
<text text-anchor="middle" x="1078" y="-13.5" font-family="Helvetica,sans-Serif" font-size="10.00" fill="#000000">Impl::iterate</text>
</a>
</g>
</g>
<!-- Node53&#45;&gt;Node54 -->
<g id="edge13" class="edge">
<title>Node53&#45;&gt;Node54</title>
<path fill="none" stroke="#191970" d="M976.3047,-21.5C992.1556,-21.5 1008.8128,-21.5 1023.9527,-21.5"/>
<polygon fill="#191970" stroke="#191970" points="976.0289,-18.0001 966.0289,-21.5 976.0288,-25.0001 976.0289,-18.0001"/>
</g>
<!-- Node55 -->
<g id="node14" class="node">
<title>Node55</title>
<g id="a_node14"><a xlink:href="classSimpleWeightTuner.html#a0df985e3ff7a27edc1e2e3fcc8261843" target="_top" xlink:title="Performs an iteration step of the tuning algorithm. ">
<polygon fill="#ffffff" stroke="#000000" points="1168,-6.5 1168,-36.5 1276,-36.5 1276,-6.5 1168,-6.5"/>
<text text-anchor="start" x="1176" y="-24.5" font-family="Helvetica,sans-Serif" font-size="10.00" fill="#000000">SimpleWeightTuner::</text>
<text text-anchor="middle" x="1222" y="-13.5" font-family="Helvetica,sans-Serif" font-size="10.00" fill="#000000">iterate</text>
</a>
</g>
</g>
<!-- Node54&#45;&gt;Node55 -->
<g id="edge14" class="edge">
<title>Node54&#45;&gt;Node55</title>
<path fill="none" stroke="#191970" d="M1142.2702,-21.5C1150.7504,-21.5 1159.3754,-21.5 1167.6672,-21.5"/>
<polygon fill="#191970" stroke="#191970" points="1142.03,-18.0001 1132.03,-21.5 1142.0299,-25.0001 1142.03,-18.0001"/>
</g>
</g>
</svg>
