<?xml version="1.0" encoding="UTF-8" standalone="no"?>
<!DOCTYPE svg PUBLIC "-//W3C//DTD SVG 1.1//EN"
 "http://www.w3.org/Graphics/SVG/1.1/DTD/svg11.dtd">
<!-- Generated by graphviz version 2.40.1 (20161225.0304)
 -->
<!-- Title: rewind Pages: 1 -->
<svg width="384pt" height="72pt"
 viewBox="0.00 0.00 384.00 71.50" xmlns="http://www.w3.org/2000/svg" xmlns:xlink="http://www.w3.org/1999/xlink">
<g id="graph0" class="graph" transform="scale(1 1) rotate(0) translate(4 67.5)">
<title>rewind</title>
<polygon fill="#ffffff" stroke="transparent" points="-4,4 -4,-67.5 380,-67.5 380,4 -4,4"/>
<!-- Node44 -->
<g id="node1" class="node">
<title>Node44</title>
<polygon fill="#bfbfbf" stroke="#000000" points="0,-19.5 0,-38.5 45,-38.5 45,-19.5 0,-19.5"/>
<text text-anchor="middle" x="22.5" y="-26.5" font-family="Helvetica,sans-Serif" font-size="10.00" fill="#000000">rewind</text>
</g>
<!-- Node45 -->
<g id="node2" class="node">
<title>Node45</title>
<g id="a_node2"><a xlink:href="classVisualStimulus_1_1Impl.html#a1983d20a1f84377ff40b27bccaae08a1" target="_top" xlink:title="getCurrentFrameNumber">
<polygon fill="#ffffff" stroke="#000000" points="81,-38.5 81,-57.5 206,-57.5 206,-38.5 81,-38.5"/>
<text text-anchor="middle" x="143.5" y="-45.5" font-family="Helvetica,sans-Serif" font-size="10.00" fill="#000000">getCurrentFrameNumber</text>
</a>
</g>
</g>
<!-- Node44&#45;&gt;Node45 -->
<g id="edge1" class="edge">
<title>Node44&#45;&gt;Node45</title>
<path fill="none" stroke="#191970" d="M55.1793,-34.1315C63.7515,-35.4775 73.2764,-36.9731 82.8075,-38.4698"/>
<polygon fill="#191970" stroke="#191970" points="55.6811,-30.6674 45.2592,-32.5738 54.5952,-37.5827 55.6811,-30.6674"/>
</g>
<!-- Node47 -->
<g id="node4" class="node">
<title>Node47</title>
<g id="a_node4"><a xlink:href="classVisualStimulus.html#ab8734e666421c9fe3b6380a818c6c727" target="_top" xlink:title="Rewinds the file pointer to the top. ">
<polygon fill="#ffffff" stroke="#000000" points="85.5,-.5 85.5,-19.5 201.5,-19.5 201.5,-.5 85.5,-.5"/>
<text text-anchor="middle" x="143.5" y="-7.5" font-family="Helvetica,sans-Serif" font-size="10.00" fill="#000000">VisualStimulus::rewind</text>
</a>
</g>
</g>
<!-- Node44&#45;&gt;Node47 -->
<g id="edge3" class="edge">
<title>Node44&#45;&gt;Node47</title>
<path fill="none" stroke="#191970" d="M55.2442,-23.8584C64.568,-22.3943 75.0147,-20.7539 85.3687,-19.128"/>
<polygon fill="#191970" stroke="#191970" points="54.5952,-20.4173 45.2592,-25.4262 55.6811,-27.3326 54.5952,-20.4173"/>
</g>
<!-- Node46 -->
<g id="node3" class="node">
<title>Node46</title>
<g id="a_node3"><a xlink:href="classVisualStimulus.html#a1983d20a1f84377ff40b27bccaae08a1" target="_top" xlink:title="VisualStimulus::getCurrent\lFrameNumber">
<polygon fill="#ffffff" stroke="#000000" points="242,-33 242,-63 376,-63 376,-33 242,-33"/>
<text text-anchor="start" x="250" y="-51" font-family="Helvetica,sans-Serif" font-size="10.00" fill="#000000">VisualStimulus::getCurrent</text>
<text text-anchor="middle" x="309" y="-40" font-family="Helvetica,sans-Serif" font-size="10.00" fill="#000000">FrameNumber</text>
</a>
</g>
</g>
<!-- Node45&#45;&gt;Node46 -->
<g id="edge2" class="edge">
<title>Node45&#45;&gt;Node46</title>
<path fill="none" stroke="#191970" d="M216.3485,-48C224.854,-48 233.5011,-48 241.9234,-48"/>
<polygon fill="#191970" stroke="#191970" points="216.0685,-44.5001 206.0685,-48 216.0684,-51.5001 216.0685,-44.5001"/>
</g>
</g>
</svg>
