<?xml version="1.0" encoding="UTF-8" standalone="no"?>
<!DOCTYPE svg PUBLIC "-//W3C//DTD SVG 1.1//EN"
 "http://www.w3.org/Graphics/SVG/1.1/DTD/svg11.dtd">
<!-- Generated by graphviz version 2.40.1 (20161225.0304)
 -->
<!-- Title: getFanIn Pages: 1 -->
<svg width="373pt" height="116pt"
 viewBox="0.00 0.00 373.00 115.50" xmlns="http://www.w3.org/2000/svg" xmlns:xlink="http://www.w3.org/1999/xlink">
<g id="graph0" class="graph" transform="scale(1 1) rotate(0) translate(4 111.5)">
<title>getFanIn</title>
<polygon fill="#ffffff" stroke="transparent" points="-4,4 -4,-111.5 369,-111.5 369,4 -4,4"/>
<!-- Node10 -->
<g id="node1" class="node">
<title>Node10</title>
<polygon fill="#bfbfbf" stroke="#000000" points="0,-50 0,-69 55,-69 55,-50 0,-50"/>
<text text-anchor="middle" x="27.5" y="-57" font-family="Helvetica,sans-Serif" font-size="10.00" fill="#000000">getFanIn</text>
</g>
<!-- Node11 -->
<g id="node2" class="node">
<title>Node11</title>
<g id="a_node2"><a xlink:href="classUserErrors.html#a4bbedc6c0817d5e59e74e450bf00472c" target="_top" xlink:title="simple wrapper for assert statement ">
<polygon fill="#ffffff" stroke="#000000" points="92.5,-88 92.5,-107 208.5,-107 208.5,-88 92.5,-88"/>
<text text-anchor="middle" x="150.5" y="-95" font-family="Helvetica,sans-Serif" font-size="10.00" fill="#000000">UserErrors::assertTrue</text>
</a>
</g>
</g>
<!-- Node10&#45;&gt;Node11 -->
<g id="edge1" class="edge">
<title>Node10&#45;&gt;Node11</title>
<path fill="none" stroke="#191970" d="M55.1036,-68.0279C71.2394,-73.013 91.9023,-79.3967 109.8693,-84.9474"/>
<polygon fill="#191970" stroke="#191970" points="108.9401,-88.3235 119.5277,-87.9313 111.0064,-81.6354 108.9401,-88.3235"/>
</g>
<!-- Node12 -->
<g id="node3" class="node">
<title>Node12</title>
<g id="a_node3"><a xlink:href="classConnectionMonitor.html#a7d71d4ec2b08c52054491ec818ad6ed7" target="_top" xlink:title="Returns the number of post&#45;synaptic neurons. ">
<polygon fill="#ffffff" stroke="#000000" points="96.5,-50 96.5,-69 204.5,-69 204.5,-50 96.5,-50"/>
<text text-anchor="middle" x="150.5" y="-57" font-family="Helvetica,sans-Serif" font-size="10.00" fill="#000000">getNumNeuronsPost</text>
</a>
</g>
</g>
<!-- Node10&#45;&gt;Node12 -->
<g id="edge2" class="edge">
<title>Node10&#45;&gt;Node12</title>
<path fill="none" stroke="#191970" d="M55.1036,-59.5C64.4309,-59.5 75.271,-59.5 86.2286,-59.5"/>
<polygon fill="#191970" stroke="#191970" points="86.2847,-63.0001 96.2847,-59.5 86.2847,-56.0001 86.2847,-63.0001"/>
</g>
<!-- Node14 -->
<g id="node5" class="node">
<title>Node14</title>
<g id="a_node5"><a xlink:href="classConnectionMonitorCore.html#a46e73089106a296d8a0b2c4a5066f079" target="_top" xlink:title="returns number of incoming synapses to post&#45;synaptic neuron ">
<polygon fill="#ffffff" stroke="#000000" points="91,-.5 91,-30.5 210,-30.5 210,-.5 91,-.5"/>
<text text-anchor="start" x="99" y="-18.5" font-family="Helvetica,sans-Serif" font-size="10.00" fill="#000000">ConnectionMonitorCore</text>
<text text-anchor="middle" x="150.5" y="-7.5" font-family="Helvetica,sans-Serif" font-size="10.00" fill="#000000">::getFanIn</text>
</a>
</g>
</g>
<!-- Node10&#45;&gt;Node14 -->
<g id="edge4" class="edge">
<title>Node10&#45;&gt;Node14</title>
<path fill="none" stroke="#191970" d="M54.1892,-49.9527C67.2956,-45.2642 83.5473,-39.4506 98.9446,-33.9426"/>
<polygon fill="#191970" stroke="#191970" points="100.1487,-37.2291 108.3855,-30.5654 97.7909,-30.6382 100.1487,-37.2291"/>
</g>
<!-- Node13 -->
<g id="node4" class="node">
<title>Node13</title>
<g id="a_node4"><a xlink:href="classConnectionMonitorCore.html#a7d71d4ec2b08c52054491ec818ad6ed7" target="_top" xlink:title="returns number of neurons in post&#45;synaptic group ">
<polygon fill="#ffffff" stroke="#000000" points="246,-44.5 246,-74.5 365,-74.5 365,-44.5 246,-44.5"/>
<text text-anchor="start" x="254" y="-62.5" font-family="Helvetica,sans-Serif" font-size="10.00" fill="#000000">ConnectionMonitorCore</text>
<text text-anchor="middle" x="305.5" y="-51.5" font-family="Helvetica,sans-Serif" font-size="10.00" fill="#000000">::getNumNeuronsPost</text>
</a>
</g>
</g>
<!-- Node12&#45;&gt;Node13 -->
<g id="edge3" class="edge">
<title>Node12&#45;&gt;Node13</title>
<path fill="none" stroke="#191970" d="M204.7115,-59.5C214.6637,-59.5 225.1807,-59.5 235.5176,-59.5"/>
<polygon fill="#191970" stroke="#191970" points="235.767,-63.0001 245.767,-59.5 235.7669,-56.0001 235.767,-63.0001"/>
</g>
</g>
</svg>
