<?xml version="1.0" encoding="UTF-8" standalone="no"?>
<!DOCTYPE svg PUBLIC "-//W3C//DTD SVG 1.1//EN"
 "http://www.w3.org/Graphics/SVG/1.1/DTD/svg11.dtd">
<!-- Generated by graphviz version 2.40.1 (20161225.0304)
 -->
<!-- Title: setRates Pages: 1 -->
<svg width="188pt" height="66pt"
 viewBox="0.00 0.00 188.00 66.00" xmlns="http://www.w3.org/2000/svg" xmlns:xlink="http://www.w3.org/1999/xlink">
<g id="graph0" class="graph" transform="scale(1 1) rotate(0) translate(4 62)">
<title>setRates</title>
<polygon fill="#ffffff" stroke="transparent" points="-4,4 -4,-62 184,-62 184,4 -4,4"/>
<!-- Node75 -->
<g id="node1" class="node">
<title>Node75</title>
<polygon fill="#bfbfbf" stroke="#000000" points="0,-19.5 0,-38.5 56,-38.5 56,-19.5 0,-19.5"/>
<text text-anchor="middle" x="28" y="-26.5" font-family="Helvetica,sans-Serif" font-size="10.00" fill="#000000">setRates</text>
</g>
<!-- Node76 -->
<g id="node2" class="node">
<title>Node76</title>
<g id="a_node2"><a xlink:href="classPoissonRate_1_1Impl.html#a00ddee44990cd4763a7d4df074e6d405" target="_top" xlink:title="getNumNeurons">
<polygon fill="#ffffff" stroke="#000000" points="92,-38.5 92,-57.5 180,-57.5 180,-38.5 92,-38.5"/>
<text text-anchor="middle" x="136" y="-45.5" font-family="Helvetica,sans-Serif" font-size="10.00" fill="#000000">getNumNeurons</text>
</a>
</g>
</g>
<!-- Node75&#45;&gt;Node76 -->
<g id="edge1" class="edge">
<title>Node75&#45;&gt;Node76</title>
<path fill="none" stroke="#191970" d="M56.0938,-33.9424C63.9951,-35.3325 72.8663,-36.8931 81.7465,-38.4554"/>
<polygon fill="#191970" stroke="#191970" points="81.2701,-41.9253 91.7253,-40.2109 82.483,-35.0311 81.2701,-41.9253"/>
</g>
<!-- Node77 -->
<g id="node3" class="node">
<title>Node77</title>
<g id="a_node3"><a xlink:href="classPoissonRate_1_1Impl.html#a0bc9734220de46306a6db7b2b33f7902" target="_top" xlink:title="isOnGPU">
<polygon fill="#ffffff" stroke="#000000" points="106.5,-.5 106.5,-19.5 165.5,-19.5 165.5,-.5 106.5,-.5"/>
<text text-anchor="middle" x="136" y="-7.5" font-family="Helvetica,sans-Serif" font-size="10.00" fill="#000000">isOnGPU</text>
</a>
</g>
</g>
<!-- Node75&#45;&gt;Node77 -->
<g id="edge2" class="edge">
<title>Node75&#45;&gt;Node77</title>
<path fill="none" stroke="#191970" d="M56.0938,-24.0576C68.3457,-21.9021 82.9294,-19.3365 96.2632,-16.9907"/>
<polygon fill="#191970" stroke="#191970" points="96.9145,-20.43 106.1568,-15.2502 95.7016,-13.5359 96.9145,-20.43"/>
</g>
</g>
</svg>
