<?xml version="1.0" encoding="UTF-8" standalone="no"?>
<!DOCTYPE svg PUBLIC "-//W3C//DTD SVG 1.1//EN"
 "http://www.w3.org/Graphics/SVG/1.1/DTD/svg11.dtd">
<!-- Generated by graphviz version 2.40.1 (20161225.0304)
 -->
<!-- Title: getNeuronFileId Pages: 1 -->
<svg width="1289pt" height="528pt"
 viewBox="0.00 0.00 1289.00 527.50" xmlns="http://www.w3.org/2000/svg" xmlns:xlink="http://www.w3.org/1999/xlink">
<g id="graph0" class="graph" transform="scale(1 1) rotate(0) translate(4 523.5)">
<title>getNeuronFileId</title>
<polygon fill="#ffffff" stroke="transparent" points="-4,4 -4,-523.5 1285,-523.5 1285,4 -4,4"/>
<!-- Node198 -->
<g id="node1" class="node">
<title>Node198</title>
<polygon fill="#bfbfbf" stroke="#000000" points="0,-101 0,-120 86,-120 86,-101 0,-101"/>
<text text-anchor="middle" x="43" y="-108" font-family="Helvetica,sans-Serif" font-size="10.00" fill="#000000">getNeuronFileId</text>
</g>
<!-- Node199 -->
<g id="node2" class="node">
<title>Node199</title>
<g id="a_node2"><a xlink:href="classSNN.html#a8dd319bdd9a54e38f9254cbec099c30a" target="_top" xlink:title="copy required neuron state values from ??? buffer to ??? buffer ">
<polygon fill="#ffffff" stroke="#000000" points="122,-101 122,-120 259,-120 259,-101 122,-101"/>
<text text-anchor="middle" x="190.5" y="-108" font-family="Helvetica,sans-Serif" font-size="10.00" fill="#000000">SNN::updateNeuronMonitor</text>
</a>
</g>
</g>
<!-- Node198&#45;&gt;Node199 -->
<g id="edge1" class="edge">
<title>Node198&#45;&gt;Node199</title>
<path fill="none" stroke="#191970" d="M96.3264,-110.5C104.6173,-110.5 113.282,-110.5 121.8543,-110.5"/>
<polygon fill="#191970" stroke="#191970" points="96.0597,-107.0001 86.0596,-110.5 96.0596,-114.0001 96.0597,-107.0001"/>
</g>
<!-- Node200 -->
<g id="node3" class="node">
<title>Node200</title>
<g id="a_node3"><a xlink:href="classNeuronMonitorCore.html#ab91616c118b701c2afd9136393d1f19b" target="_top" xlink:title="starts recording Neuron state ">
<polygon fill="#ffffff" stroke="#000000" points="302.5,-234 302.5,-253 382.5,-253 382.5,-234 302.5,-234"/>
<text text-anchor="middle" x="342.5" y="-241" font-family="Helvetica,sans-Serif" font-size="10.00" fill="#000000">startRecording</text>
</a>
</g>
</g>
<!-- Node199&#45;&gt;Node200 -->
<g id="edge2" class="edge">
<title>Node199&#45;&gt;Node200</title>
<path fill="none" stroke="#191970" d="M209.1732,-126.839C241.1215,-154.7938 305.3288,-210.9752 331.2575,-233.6628"/>
<polygon fill="#191970" stroke="#191970" points="211.262,-124.0161 201.4315,-120.065 206.6525,-129.2841 211.262,-124.0161"/>
</g>
<!-- Node214 -->
<g id="node17" class="node">
<title>Node214</title>
<g id="a_node17"><a xlink:href="classNeuronMonitorCore.html#a25e0e98dd4519eaaa6b258f0dcb91ac7" target="_top" xlink:title="stops recording Neuron state ">
<polygon fill="#ffffff" stroke="#000000" points="631,-82 631,-101 711,-101 711,-82 631,-82"/>
<text text-anchor="middle" x="671" y="-89" font-family="Helvetica,sans-Serif" font-size="10.00" fill="#000000">stopRecording</text>
</a>
</g>
</g>
<!-- Node199&#45;&gt;Node214 -->
<g id="edge43" class="edge">
<title>Node199&#45;&gt;Node214</title>
<path fill="none" stroke="#191970" d="M269.1897,-107.3884C372.8577,-103.2892 551.3143,-96.2326 630.7904,-93.09"/>
<polygon fill="#191970" stroke="#191970" points="268.9425,-103.8954 259.0886,-107.7879 269.2191,-110.8899 268.9425,-103.8954"/>
</g>
<!-- Node225 -->
<g id="node28" class="node">
<title>Node225</title>
<g id="a_node28"><a xlink:href="classSNN.html#a3df37c7539f784fe7a939c5da922f41b" target="_top" xlink:title="run the simulation for n sec ">
<polygon fill="#ffffff" stroke="#000000" points="295,-6 295,-25 390,-25 390,-6 295,-6"/>
<text text-anchor="middle" x="342.5" y="-13" font-family="Helvetica,sans-Serif" font-size="10.00" fill="#000000">SNN::runNetwork</text>
</a>
</g>
</g>
<!-- Node199&#45;&gt;Node225 -->
<g id="edge44" class="edge">
<title>Node199&#45;&gt;Node225</title>
<path fill="none" stroke="#191970" d="M211.4422,-95.091C232.1765,-80.1204 265.0691,-57.1303 295,-39.5 303.5978,-34.4356 313.3952,-29.3728 321.8498,-25.2116"/>
<polygon fill="#191970" stroke="#191970" points="209.3756,-92.2662 203.3445,-100.9769 213.4913,-97.9284 209.3756,-92.2662"/>
</g>
<!-- Node201 -->
<g id="node4" class="node">
<title>Node201</title>
<g id="a_node4"><a xlink:href="classNeuronMonitor.html#ab91616c118b701c2afd9136393d1f19b" target="_top" xlink:title="NeuronMonitor::startRecording">
<polygon fill="#ffffff" stroke="#000000" points="778.5,-462 778.5,-481 928.5,-481 928.5,-462 778.5,-462"/>
<text text-anchor="middle" x="853.5" y="-469" font-family="Helvetica,sans-Serif" font-size="10.00" fill="#000000">NeuronMonitor::startRecording</text>
</a>
</g>
</g>
<!-- Node200&#45;&gt;Node201 -->
<g id="edge3" class="edge">
<title>Node200&#45;&gt;Node201</title>
<path fill="none" stroke="#191970" d="M354.1326,-261.5125C368.6993,-282.8496 395.4801,-318.2927 426,-340.5 533.0186,-418.3704 687.1141,-450.6236 778.1077,-463.4816"/>
<polygon fill="#191970" stroke="#191970" points="356.9543,-259.4352 348.4957,-253.0553 351.1295,-263.3176 356.9543,-259.4352"/>
</g>
<!-- Node202 -->
<g id="node5" class="node">
<title>Node202</title>
<g id="a_node5"><a xlink:href="classNeuronMonitorCore.html#a3a3ffdb35b09328d22e5d72503ed1f55" target="_top" xlink:title="returns recording status ">
<polygon fill="#ffffff" stroke="#000000" points="462,-234 462,-253 530,-253 530,-234 462,-234"/>
<text text-anchor="middle" x="496" y="-241" font-family="Helvetica,sans-Serif" font-size="10.00" fill="#000000">isRecording</text>
</a>
</g>
</g>
<!-- Node200&#45;&gt;Node202 -->
<g id="edge4" class="edge">
<title>Node200&#45;&gt;Node202</title>
<path fill="none" stroke="#191970" d="M392.9446,-237.1155C415.5615,-236.463 441.6455,-236.6841 461.9125,-237.7788"/>
<polygon fill="#191970" stroke="#191970" points="392.699,-233.6219 382.8303,-237.4767 392.9489,-240.6175 392.699,-233.6219"/>
</g>
<!-- Node202&#45;&gt;Node199 -->
<g id="edge42" class="edge">
<title>Node202&#45;&gt;Node199</title>
<path fill="none" stroke="#191970" d="M464.5272,-229.7983C402.4971,-202.7934 265.8456,-143.3019 212.4708,-120.065"/>
<polygon fill="#191970" stroke="#191970" points="463.2519,-233.0603 473.8178,-233.8429 466.0461,-226.6421 463.2519,-233.0603"/>
</g>
<!-- Node202&#45;&gt;Node200 -->
<g id="edge22" class="edge">
<title>Node202&#45;&gt;Node200</title>
<path fill="none" stroke="#191970" d="M451.6336,-249.6848C429.9215,-250.4889 403.9753,-250.435 382.8303,-249.5233"/>
<polygon fill="#191970" stroke="#191970" points="452.0804,-253.1683 461.9125,-249.2212 451.7649,-246.1754 452.0804,-253.1683"/>
</g>
<!-- Node203 -->
<g id="node6" class="node">
<title>Node203</title>
<g id="a_node6"><a xlink:href="classNeuronMonitor.html#a3a3ffdb35b09328d22e5d72503ed1f55" target="_top" xlink:title="NeuronMonitor::isRecording">
<polygon fill="#ffffff" stroke="#000000" points="602,-272 602,-291 740,-291 740,-272 602,-272"/>
<text text-anchor="middle" x="671" y="-279" font-family="Helvetica,sans-Serif" font-size="10.00" fill="#000000">NeuronMonitor::isRecording</text>
</a>
</g>
</g>
<!-- Node202&#45;&gt;Node203 -->
<g id="edge5" class="edge">
<title>Node202&#45;&gt;Node203</title>
<path fill="none" stroke="#191970" d="M539.9672,-253.0472C566.5614,-258.8219 600.3549,-266.1599 626.9619,-271.9374"/>
<polygon fill="#191970" stroke="#191970" points="540.6722,-249.6188 530.1572,-250.917 539.1867,-256.4593 540.6722,-249.6188"/>
</g>
<!-- Node211 -->
<g id="node14" class="node">
<title>Node211</title>
<g id="a_node14"><a xlink:href="classNeuronMonitorCore.html#ac8bb3912a3ce86b15842e79d0b421204" target="_top" xlink:title="deletes data from the neuron state vector ">
<polygon fill="#ffffff" stroke="#000000" points="652,-386 652,-405 690,-405 690,-386 652,-386"/>
<text text-anchor="middle" x="671" y="-393" font-family="Helvetica,sans-Serif" font-size="10.00" fill="#000000">clear</text>
</a>
</g>
</g>
<!-- Node202&#45;&gt;Node211 -->
<g id="edge14" class="edge">
<title>Node202&#45;&gt;Node211</title>
<path fill="none" stroke="#191970" d="M512.1728,-261.3869C535.8845,-292.3097 579.6819,-352.7724 602,-367.5 617.0373,-377.423 637.1765,-382.2006 651.8138,-386.1135"/>
<polygon fill="#191970" stroke="#191970" points="514.6803,-258.9099 505.778,-253.1654 509.1549,-263.2077 514.6803,-258.9099"/>
</g>
<!-- Node213 -->
<g id="node16" class="node">
<title>Node213</title>
<g id="a_node16"><a xlink:href="classNeuronMonitorCore.html#a743a4ad47ef60bc593cc9882bd4ffb57" target="_top" xlink:title="inserts a (time,neurId) tupel into the D Neuron State vector ">
<polygon fill="#ffffff" stroke="#000000" points="625,-120 625,-139 717,-139 717,-120 625,-120"/>
<text text-anchor="middle" x="671" y="-127" font-family="Helvetica,sans-Serif" font-size="10.00" fill="#000000">pushNeuronState</text>
</a>
</g>
</g>
<!-- Node202&#45;&gt;Node213 -->
<g id="edge19" class="edge">
<title>Node202&#45;&gt;Node213</title>
<path fill="none" stroke="#191970" d="M506.333,-225.5486C523.8949,-201.7859 561.6105,-161.5499 602,-139.5 609.0887,-135.6301 617.026,-132.5004 624.9239,-130.132"/>
<polygon fill="#191970" stroke="#191970" points="503.4491,-223.5654 500.6255,-233.777 509.2009,-227.555 503.4491,-223.5654"/>
</g>
<!-- Node202&#45;&gt;Node214 -->
<g id="edge23" class="edge">
<title>Node202&#45;&gt;Node214</title>
<path fill="none" stroke="#191970" d="M503.2135,-224.3739C517.9449,-193.1998 554.1744,-133.0597 602,-101.5 610.6076,-95.8199 620.8868,-91.8258 630.8489,-89.3282"/>
<polygon fill="#191970" stroke="#191970" points="499.909,-223.1919 499.0561,-233.7524 506.3085,-226.0288 499.909,-223.1919"/>
</g>
<!-- Node215 -->
<g id="node18" class="node">
<title>Node215</title>
<g id="a_node18"><a xlink:href="classNeuronMonitorCore.html#a5113f6b476e3e3544ecbffefa313234d" target="_top" xlink:title="sets pointer to Neuron file ">
<polygon fill="#ffffff" stroke="#000000" points="628,-348 628,-367 714,-367 714,-348 628,-348"/>
<text text-anchor="middle" x="671" y="-355" font-family="Helvetica,sans-Serif" font-size="10.00" fill="#000000">setNeuronFileId</text>
</a>
</g>
</g>
<!-- Node202&#45;&gt;Node215 -->
<g id="edge26" class="edge">
<title>Node202&#45;&gt;Node215</title>
<path fill="none" stroke="#191970" d="M516.2994,-260.1463C536.0976,-279.6879 568.1074,-310.9969 602,-329.5 618.4676,-338.4902 639.5147,-343.4852 654.0097,-347.9171"/>
<polygon fill="#191970" stroke="#191970" points="518.6666,-257.5652 509.0849,-253.0438 513.7557,-262.5535 518.6666,-257.5652"/>
</g>
<!-- Node220 -->
<g id="node23" class="node">
<title>Node220</title>
<g id="a_node23"><a xlink:href="classNeuronMonitorCore.html#a5414db20073ada3806b3c35686c9a6f4" target="_top" xlink:title="returns the Neuron state vector ">
<polygon fill="#ffffff" stroke="#000000" points="638.5,-310 638.5,-329 703.5,-329 703.5,-310 638.5,-310"/>
<text text-anchor="middle" x="671" y="-317" font-family="Helvetica,sans-Serif" font-size="10.00" fill="#000000">getVectorV</text>
</a>
</g>
</g>
<!-- Node202&#45;&gt;Node220 -->
<g id="edge32" class="edge">
<title>Node202&#45;&gt;Node220</title>
<path fill="none" stroke="#191970" d="M519.8497,-258.3372C540.8567,-270.9098 572.6012,-288.7223 602,-300.5 613.5339,-305.1207 626.5855,-309.0307 638.2092,-312.0801"/>
<polygon fill="#191970" stroke="#191970" points="521.6373,-255.328 511.2716,-253.1365 518.0082,-261.3138 521.6373,-255.328"/>
</g>
<!-- Node221 -->
<g id="node24" class="node">
<title>Node221</title>
<g id="a_node24"><a xlink:href="classNeuronMonitorCore.html#aff9eb621d9c78a5e33f1435eff0e9ba9" target="_top" xlink:title="getVectorU">
<polygon fill="#ffffff" stroke="#000000" points="638,-234 638,-253 704,-253 704,-234 638,-234"/>
<text text-anchor="middle" x="671" y="-241" font-family="Helvetica,sans-Serif" font-size="10.00" fill="#000000">getVectorU</text>
</a>
</g>
</g>
<!-- Node202&#45;&gt;Node221 -->
<g id="edge34" class="edge">
<title>Node202&#45;&gt;Node221</title>
<path fill="none" stroke="#191970" d="M540.4598,-243.5C570.7662,-243.5 610.246,-243.5 637.8194,-243.5"/>
<polygon fill="#191970" stroke="#191970" points="540.1572,-240.0001 530.1572,-243.5 540.1572,-247.0001 540.1572,-240.0001"/>
</g>
<!-- Node222 -->
<g id="node25" class="node">
<title>Node222</title>
<g id="a_node25"><a xlink:href="classNeuronMonitorCore.html#aa1e83b424e9145add71076cadfadb200" target="_top" xlink:title="getVectorI">
<polygon fill="#ffffff" stroke="#000000" points="640,-196 640,-215 702,-215 702,-196 640,-196"/>
<text text-anchor="middle" x="671" y="-203" font-family="Helvetica,sans-Serif" font-size="10.00" fill="#000000">getVectorI</text>
</a>
</g>
</g>
<!-- Node202&#45;&gt;Node222 -->
<g id="edge36" class="edge">
<title>Node202&#45;&gt;Node222</title>
<path fill="none" stroke="#191970" d="M540.2937,-233.8819C571.3787,-227.1321 612.1765,-218.2731 639.8648,-212.2608"/>
<polygon fill="#191970" stroke="#191970" points="539.1867,-230.5407 530.1572,-236.083 540.6722,-237.3812 539.1867,-230.5407"/>
</g>
<!-- Node223 -->
<g id="node26" class="node">
<title>Node223</title>
<g id="a_node26"><a xlink:href="classNeuronMonitorCore.html#a388f572c62279f839ee138a9afbdeeb5" target="_top" xlink:title="prints neuron states in human&#45;readable format ">
<polygon fill="#ffffff" stroke="#000000" points="653.5,-158 653.5,-177 688.5,-177 688.5,-158 653.5,-158"/>
<text text-anchor="middle" x="671" y="-165" font-family="Helvetica,sans-Serif" font-size="10.00" fill="#000000">print</text>
</a>
</g>
</g>
<!-- Node202&#45;&gt;Node223 -->
<g id="edge38" class="edge">
<title>Node202&#45;&gt;Node223</title>
<path fill="none" stroke="#191970" d="M519.8497,-228.6628C540.8567,-216.0902 572.6012,-198.2777 602,-186.5 618.9548,-179.7076 639.1892,-174.451 653.3464,-171.2061"/>
<polygon fill="#191970" stroke="#191970" points="518.0082,-225.6862 511.2716,-233.8635 521.6373,-231.672 518.0082,-225.6862"/>
</g>
<!-- Node203&#45;&gt;Node201 -->
<g id="edge7" class="edge">
<title>Node203&#45;&gt;Node201</title>
<path fill="none" stroke="#191970" d="M735.5497,-296.4849C737.1197,-297.7221 738.6091,-299.0579 740,-300.5 788.1953,-350.4696 727.1029,-403.2169 776,-452.5 779.8053,-456.3353 784.2498,-459.4431 789.0505,-461.9559"/>
<polygon fill="#191970" stroke="#191970" points="737.4205,-293.5269 727.1108,-291.0853 733.6477,-299.4232 737.4205,-293.5269"/>
</g>
<!-- Node204 -->
<g id="node7" class="node">
<title>Node204</title>
<g id="a_node7"><a xlink:href="classNeuronMonitor.html#ac8bb3912a3ce86b15842e79d0b421204" target="_top" xlink:title="NeuronMonitor::clear">
<polygon fill="#ffffff" stroke="#000000" points="800,-348 800,-367 907,-367 907,-348 800,-348"/>
<text text-anchor="middle" x="853.5" y="-355" font-family="Helvetica,sans-Serif" font-size="10.00" fill="#000000">NeuronMonitor::clear</text>
</a>
</g>
</g>
<!-- Node203&#45;&gt;Node204 -->
<g id="edge6" class="edge">
<title>Node203&#45;&gt;Node204</title>
<path fill="none" stroke="#191970" d="M728.5884,-294.7168C732.5577,-296.4227 736.4045,-298.342 740,-300.5 759.9474,-312.4723 755.8853,-326.811 776,-338.5 783.3064,-342.7459 791.5312,-346.0471 799.8217,-348.6128"/>
<polygon fill="#191970" stroke="#191970" points="729.7555,-291.416 719.1651,-291.1115 727.2542,-297.9538 729.7555,-291.416"/>
</g>
<!-- Node205 -->
<g id="node8" class="node">
<title>Node205</title>
<g id="a_node8"><a xlink:href="classNeuronMonitor.html#a25e0e98dd4519eaaa6b258f0dcb91ac7" target="_top" xlink:title="NeuronMonitor::stopRecording">
<polygon fill="#ffffff" stroke="#000000" points="779,-112 779,-131 928,-131 928,-112 779,-112"/>
<text text-anchor="middle" x="853.5" y="-119" font-family="Helvetica,sans-Serif" font-size="10.00" fill="#000000">NeuronMonitor::stopRecording</text>
</a>
</g>
</g>
<!-- Node203&#45;&gt;Node205 -->
<g id="edge8" class="edge">
<title>Node203&#45;&gt;Node205</title>
<path fill="none" stroke="#191970" d="M734.7633,-266.8538C736.6103,-265.5239 738.3643,-264.076 740,-262.5 778.2625,-225.6341 738.9849,-186.6181 776,-148.5 783.6429,-140.6293 793.6996,-135.0507 804.0264,-131.0973"/>
<polygon fill="#191970" stroke="#191970" points="732.9649,-263.851 726.1476,-271.9612 736.5345,-269.8725 732.9649,-263.851"/>
</g>
<!-- Node206 -->
<g id="node9" class="node">
<title>Node206</title>
<g id="a_node9"><a xlink:href="classNeuronMonitor.html#a388f572c62279f839ee138a9afbdeeb5" target="_top" xlink:title="NeuronMonitor::print">
<polygon fill="#ffffff" stroke="#000000" points="801,-158 801,-177 906,-177 906,-158 801,-158"/>
<text text-anchor="middle" x="853.5" y="-165" font-family="Helvetica,sans-Serif" font-size="10.00" fill="#000000">NeuronMonitor::print</text>
</a>
</g>
</g>
<!-- Node203&#45;&gt;Node206 -->
<g id="edge9" class="edge">
<title>Node203&#45;&gt;Node206</title>
<path fill="none" stroke="#191970" d="M733.6321,-267.1047C735.8673,-265.7087 738.0019,-264.1781 740,-262.5 768.621,-238.4631 747.0419,-210.1298 776,-186.5 783.1913,-180.6319 791.927,-176.5339 800.9059,-173.6815"/>
<polygon fill="#191970" stroke="#191970" points="731.8169,-264.1046 724.5874,-271.8496 735.0688,-270.3033 731.8169,-264.1046"/>
</g>
<!-- Node207 -->
<g id="node10" class="node">
<title>Node207</title>
<g id="a_node10"><a xlink:href="classNeuronMonitor.html#a22cd4deca28f0e9e8dd2e576b75b02a8" target="_top" xlink:title="Returns the ... ">
<polygon fill="#ffffff" stroke="#000000" points="776,-272 776,-291 931,-291 931,-272 776,-272"/>
<text text-anchor="middle" x="853.5" y="-279" font-family="Helvetica,sans-Serif" font-size="10.00" fill="#000000">NeuronMonitor::getLastUpdated</text>
</a>
</g>
</g>
<!-- Node203&#45;&gt;Node207 -->
<g id="edge10" class="edge">
<title>Node203&#45;&gt;Node207</title>
<path fill="none" stroke="#191970" d="M750.4184,-281.5C758.8214,-281.5 767.3606,-281.5 775.7443,-281.5"/>
<polygon fill="#191970" stroke="#191970" points="750.2557,-278.0001 740.2556,-281.5 750.2556,-285.0001 750.2557,-278.0001"/>
</g>
<!-- Node208 -->
<g id="node11" class="node">
<title>Node208</title>
<g id="a_node11"><a xlink:href="classNeuronMonitor.html#a5414db20073ada3806b3c35686c9a6f4" target="_top" xlink:title="returns the Neuron state vectors ">
<polygon fill="#ffffff" stroke="#000000" points="786,-310 786,-329 921,-329 921,-310 786,-310"/>
<text text-anchor="middle" x="853.5" y="-317" font-family="Helvetica,sans-Serif" font-size="10.00" fill="#000000">NeuronMonitor::getVectorV</text>
</a>
</g>
</g>
<!-- Node203&#45;&gt;Node208 -->
<g id="edge11" class="edge">
<title>Node203&#45;&gt;Node208</title>
<path fill="none" stroke="#191970" d="M727.0995,-293.181C752.9804,-298.5699 783.3146,-304.8861 807.7787,-309.9799"/>
<polygon fill="#191970" stroke="#191970" points="727.556,-289.701 717.0525,-291.089 726.129,-296.5541 727.556,-289.701"/>
</g>
<!-- Node209 -->
<g id="node12" class="node">
<title>Node209</title>
<g id="a_node12"><a xlink:href="classNeuronMonitor.html#aff9eb621d9c78a5e33f1435eff0e9ba9" target="_top" xlink:title="NeuronMonitor::getVectorU">
<polygon fill="#ffffff" stroke="#000000" points="785.5,-234 785.5,-253 921.5,-253 921.5,-234 785.5,-234"/>
<text text-anchor="middle" x="853.5" y="-241" font-family="Helvetica,sans-Serif" font-size="10.00" fill="#000000">NeuronMonitor::getVectorU</text>
</a>
</g>
</g>
<!-- Node203&#45;&gt;Node209 -->
<g id="edge12" class="edge">
<title>Node203&#45;&gt;Node209</title>
<path fill="none" stroke="#191970" d="M727.0995,-269.819C752.9804,-264.4301 783.3146,-258.1139 807.7787,-253.0201"/>
<polygon fill="#191970" stroke="#191970" points="726.129,-266.4459 717.0525,-271.911 727.556,-273.299 726.129,-266.4459"/>
</g>
<!-- Node210 -->
<g id="node13" class="node">
<title>Node210</title>
<g id="a_node13"><a xlink:href="classNeuronMonitor.html#aa1e83b424e9145add71076cadfadb200" target="_top" xlink:title="NeuronMonitor::getVectorI">
<polygon fill="#ffffff" stroke="#000000" points="788,-196 788,-215 919,-215 919,-196 788,-196"/>
<text text-anchor="middle" x="853.5" y="-203" font-family="Helvetica,sans-Serif" font-size="10.00" fill="#000000">NeuronMonitor::getVectorI</text>
</a>
</g>
</g>
<!-- Node203&#45;&gt;Node210 -->
<g id="edge13" class="edge">
<title>Node203&#45;&gt;Node210</title>
<path fill="none" stroke="#191970" d="M728.5884,-268.2832C732.5577,-266.5773 736.4045,-264.658 740,-262.5 759.9474,-250.5277 755.8853,-236.189 776,-224.5 782.7075,-220.6021 790.189,-217.5004 797.7849,-215.033"/>
<polygon fill="#191970" stroke="#191970" points="727.2542,-265.0462 719.1651,-271.8885 729.7555,-271.584 727.2542,-265.0462"/>
</g>
<!-- Node211&#45;&gt;Node200 -->
<g id="edge17" class="edge">
<title>Node211&#45;&gt;Node200</title>
<path fill="none" stroke="#191970" d="M642.0163,-388.9275C629.5154,-385.7339 614.8454,-381.4994 602,-376.5 505.758,-339.0428 398.1167,-276.8267 358.3583,-253.0969"/>
<polygon fill="#191970" stroke="#191970" points="641.373,-392.3735 651.9192,-391.3594 643.0424,-385.5755 641.373,-392.3735"/>
</g>
<!-- Node211&#45;&gt;Node202 -->
<g id="edge18" class="edge">
<title>Node211&#45;&gt;Node202</title>
<path fill="none" stroke="#191970" d="M641.5293,-399.8171C628.6097,-397.8642 613.7479,-393.2523 602,-385.5 575.0143,-367.6924 516.6258,-283.0195 500.3116,-253.2813"/>
<polygon fill="#191970" stroke="#191970" points="641.5159,-403.333 651.8138,-400.8427 642.2105,-396.3676 641.5159,-403.333"/>
</g>
<!-- Node211&#45;&gt;Node204 -->
<g id="edge15" class="edge">
<title>Node211&#45;&gt;Node204</title>
<path fill="none" stroke="#191970" d="M700.0735,-389.4463C728.9994,-383.4234 773.8208,-374.0907 807.5635,-367.0649"/>
<polygon fill="#191970" stroke="#191970" points="699.2623,-386.0401 690.1858,-391.5052 700.6893,-392.8931 699.2623,-386.0401"/>
</g>
<!-- Node212 -->
<g id="node15" class="node">
<title>Node212</title>
<g id="a_node15"><a xlink:href="classNeuronMonitorCore.html#a1fea34ca55f65e7cfeb05d870b2e741b" target="_top" xlink:title="constructor (called by CARLsim::setNeuronMonitor) ">
<polygon fill="#ffffff" stroke="#000000" points="803,-500 803,-519 904,-519 904,-500 803,-500"/>
<text text-anchor="middle" x="853.5" y="-507" font-family="Helvetica,sans-Serif" font-size="10.00" fill="#000000">NeuronMonitorCore</text>
</a>
</g>
</g>
<!-- Node211&#45;&gt;Node212 -->
<g id="edge16" class="edge">
<title>Node211&#45;&gt;Node212</title>
<path fill="none" stroke="#191970" d="M685.3841,-413.0143C704.0317,-434.545 738.6192,-470.6608 776,-490.5 784.321,-494.9162 793.6895,-498.3269 802.9621,-500.9546"/>
<polygon fill="#191970" stroke="#191970" points="687.9673,-410.6488 678.8315,-405.2833 682.6273,-415.1749 687.9673,-410.6488"/>
</g>
<!-- Node213&#45;&gt;Node199 -->
<g id="edge21" class="edge">
<title>Node213&#45;&gt;Node199</title>
<path fill="none" stroke="#191970" d="M614.8681,-127.2804C526.3888,-123.7818 354.7419,-116.9945 259.0886,-113.2121"/>
<polygon fill="#191970" stroke="#191970" points="614.8463,-130.7822 624.9768,-127.6801 615.1229,-123.7877 614.8463,-130.7822"/>
</g>
<!-- Node213&#45;&gt;Node202 -->
<g id="edge20" class="edge">
<title>Node213&#45;&gt;Node202</title>
<path fill="none" stroke="#191970" d="M644.067,-141.9948C630.8392,-145.7999 614.994,-150.4062 602,-157.5 563.6083,-178.4592 527.6326,-215.8498 509.0849,-233.9562"/>
<polygon fill="#191970" stroke="#191970" points="645.3966,-145.2525 654.0097,-139.0829 643.429,-138.5347 645.3966,-145.2525"/>
</g>
<!-- Node214&#45;&gt;Node202 -->
<g id="edge25" class="edge">
<title>Node214&#45;&gt;Node202</title>
<path fill="none" stroke="#191970" d="M641.3768,-103.6647C628.4929,-107.1721 613.7017,-111.7781 602,-119.5 554.6827,-150.7243 518.7163,-209.9247 503.6905,-233.7764"/>
<polygon fill="#191970" stroke="#191970" points="642.4417,-107.0032 651.205,-101.0489 640.6412,-100.2387 642.4417,-107.0032"/>
</g>
<!-- Node214&#45;&gt;Node205 -->
<g id="edge24" class="edge">
<title>Node214&#45;&gt;Node205</title>
<path fill="none" stroke="#191970" d="M720.9713,-99.7145C744.0366,-103.506 771.5602,-108.0304 795.5325,-111.9711"/>
<polygon fill="#191970" stroke="#191970" points="721.4857,-96.2521 711.0504,-98.0836 720.3502,-103.1594 721.4857,-96.2521"/>
</g>
<!-- Node215&#45;&gt;Node202 -->
<g id="edge28" class="edge">
<title>Node215&#45;&gt;Node202</title>
<path fill="none" stroke="#191970" d="M618.2874,-354.6955C612.6395,-352.6854 607.1001,-350.2843 602,-347.5 556.4506,-322.6331 514.3019,-274.6368 500.6255,-253.223"/>
<polygon fill="#191970" stroke="#191970" points="617.2469,-358.0373 627.8367,-357.7079 619.3529,-351.3615 617.2469,-358.0373"/>
</g>
<!-- Node216 -->
<g id="node19" class="node">
<title>Node216</title>
<g id="a_node19"><a xlink:href="classNeuronMonitor.html#a11168f8252e1416f1706b5f7cae0be1e" target="_top" xlink:title="NeuronMonitor::setLogFile">
<polygon fill="#ffffff" stroke="#000000" points="788,-424 788,-443 919,-443 919,-424 788,-424"/>
<text text-anchor="middle" x="853.5" y="-431" font-family="Helvetica,sans-Serif" font-size="10.00" fill="#000000">NeuronMonitor::setLogFile</text>
</a>
</g>
</g>
<!-- Node215&#45;&gt;Node216 -->
<g id="edge27" class="edge">
<title>Node215&#45;&gt;Node216</title>
<path fill="none" stroke="#191970" d="M723.7185,-368.7491C729.4035,-370.9087 734.9496,-373.4688 740,-376.5 759.9474,-388.4723 755.8853,-402.811 776,-414.5 782.7075,-418.3979 790.189,-421.4996 797.7849,-423.967"/>
<polygon fill="#191970" stroke="#191970" points="724.6773,-365.3785 714.083,-365.4805 722.4286,-372.0075 724.6773,-365.3785"/>
</g>
<!-- Node217 -->
<g id="node20" class="node">
<title>Node217</title>
<g id="a_node20"><a xlink:href="classSNN.html#a4c62ae1b8cff6aedfdf98cb8808d14e1" target="_top" xlink:title="sets up a neuron monitor registered with a callback to process the neuron state values, there can only be one NeuronMonitor per group ">
<polygon fill="#ffffff" stroke="#000000" points="792.5,-386 792.5,-405 914.5,-405 914.5,-386 792.5,-386"/>
<text text-anchor="middle" x="853.5" y="-393" font-family="Helvetica,sans-Serif" font-size="10.00" fill="#000000">SNN::setNeuronMonitor</text>
</a>
</g>
</g>
<!-- Node215&#45;&gt;Node217 -->
<g id="edge29" class="edge">
<title>Node215&#45;&gt;Node217</title>
<path fill="none" stroke="#191970" d="M724.1181,-368.5602C750.596,-374.0734 782.2968,-380.6741 807.6923,-385.962"/>
<polygon fill="#191970" stroke="#191970" points="724.7535,-365.1175 714.25,-366.5055 723.3265,-371.9705 724.7535,-365.1175"/>
</g>
<!-- Node218 -->
<g id="node21" class="node">
<title>Node218</title>
<g id="a_node21"><a xlink:href="classCARLsim_1_1Impl.html#ad09ccf4ff95aa4f7b629afad588b0c88" target="_top" xlink:title="CARLsim::Impl::setNeuron\lMonitor">
<polygon fill="#ffffff" stroke="#000000" points="967,-380.5 967,-410.5 1102,-410.5 1102,-380.5 967,-380.5"/>
<text text-anchor="start" x="975" y="-398.5" font-family="Helvetica,sans-Serif" font-size="10.00" fill="#000000">CARLsim::Impl::setNeuron</text>
<text text-anchor="middle" x="1034.5" y="-387.5" font-family="Helvetica,sans-Serif" font-size="10.00" fill="#000000">Monitor</text>
</a>
</g>
</g>
<!-- Node217&#45;&gt;Node218 -->
<g id="edge30" class="edge">
<title>Node217&#45;&gt;Node218</title>
<path fill="none" stroke="#191970" d="M924.5426,-395.5C938.4834,-395.5 953.0707,-395.5 966.8952,-395.5"/>
<polygon fill="#191970" stroke="#191970" points="924.526,-392.0001 914.526,-395.5 924.526,-399.0001 924.526,-392.0001"/>
</g>
<!-- Node219 -->
<g id="node22" class="node">
<title>Node219</title>
<g id="a_node22"><a xlink:href="classCARLsim.html#a9f96445ca9cb3edb1532b6c741ec5736" target="_top" xlink:title="Sets a Neuron Monitor for a groups, print voltage, recovery, and total current values to binary file...">
<polygon fill="#ffffff" stroke="#000000" points="1138,-386 1138,-405 1281,-405 1281,-386 1138,-386"/>
<text text-anchor="middle" x="1209.5" y="-393" font-family="Helvetica,sans-Serif" font-size="10.00" fill="#000000">CARLsim::setNeuronMonitor</text>
</a>
</g>
</g>
<!-- Node218&#45;&gt;Node219 -->
<g id="edge31" class="edge">
<title>Node218&#45;&gt;Node219</title>
<path fill="none" stroke="#191970" d="M1112.4394,-395.5C1120.9344,-395.5 1129.551,-395.5 1137.9638,-395.5"/>
<polygon fill="#191970" stroke="#191970" points="1112.1596,-392.0001 1102.1596,-395.5 1112.1595,-399.0001 1112.1596,-392.0001"/>
</g>
<!-- Node220&#45;&gt;Node208 -->
<g id="edge33" class="edge">
<title>Node220&#45;&gt;Node208</title>
<path fill="none" stroke="#191970" d="M713.698,-319.5C735.1006,-319.5 761.531,-319.5 785.6289,-319.5"/>
<polygon fill="#191970" stroke="#191970" points="713.6274,-316.0001 703.6273,-319.5 713.6273,-323.0001 713.6274,-316.0001"/>
</g>
<!-- Node221&#45;&gt;Node209 -->
<g id="edge35" class="edge">
<title>Node221&#45;&gt;Node209</title>
<path fill="none" stroke="#191970" d="M714.3261,-243.5C735.4789,-243.5 761.4289,-243.5 785.1666,-243.5"/>
<polygon fill="#191970" stroke="#191970" points="714.0494,-240.0001 704.0494,-243.5 714.0493,-247.0001 714.0494,-240.0001"/>
</g>
<!-- Node222&#45;&gt;Node210 -->
<g id="edge37" class="edge">
<title>Node222&#45;&gt;Node210</title>
<path fill="none" stroke="#191970" d="M712.4824,-205.5C734.7323,-205.5 762.6699,-205.5 787.7966,-205.5"/>
<polygon fill="#191970" stroke="#191970" points="712.3729,-202.0001 702.3729,-205.5 712.3728,-209.0001 712.3729,-202.0001"/>
</g>
<!-- Node223&#45;&gt;Node206 -->
<g id="edge39" class="edge">
<title>Node223&#45;&gt;Node206</title>
<path fill="none" stroke="#191970" d="M699.1292,-167.5C726.1893,-167.5 767.7695,-167.5 800.9612,-167.5"/>
<polygon fill="#191970" stroke="#191970" points="698.8312,-164.0001 688.8312,-167.5 698.8311,-171.0001 698.8312,-164.0001"/>
</g>
<!-- Node224 -->
<g id="node27" class="node">
<title>Node224</title>
<g id="a_node27"><a xlink:href="classNeuronMonitorCore.html#a38f87732cc929797d9648e68cd509f1b" target="_top" xlink:title="sets timestamp of last NeuronMonitor update ">
<polygon fill="#ffffff" stroke="#000000" points="810.5,-58 810.5,-77 896.5,-77 896.5,-58 810.5,-58"/>
<text text-anchor="middle" x="853.5" y="-65" font-family="Helvetica,sans-Serif" font-size="10.00" fill="#000000">setLastUpdated</text>
</a>
</g>
</g>
<!-- Node223&#45;&gt;Node224 -->
<g id="edge40" class="edge">
<title>Node223&#45;&gt;Node224</title>
<path fill="none" stroke="#191970" d="M698.7767,-164.0003C712.0903,-161.3297 727.7615,-156.6541 740,-148.5 761.6049,-134.1054 755.5784,-118.5291 776,-102.5 790.1681,-91.3793 808.4334,-82.9091 823.673,-77.0888"/>
<polygon fill="#191970" stroke="#191970" points="697.9727,-160.5873 688.7155,-165.7403 699.1657,-167.4849 697.9727,-160.5873"/>
</g>
<!-- Node224&#45;&gt;Node199 -->
<g id="edge41" class="edge">
<title>Node224&#45;&gt;Node199</title>
<path fill="none" stroke="#191970" d="M800.1833,-67.5122C749.2484,-67.7717 670.3365,-68.8199 602,-72.5 465.2271,-79.8655 431.3365,-86.3301 295,-99.5 283.3788,-100.6226 271.037,-101.8714 259.0612,-103.1131"/>
<polygon fill="#191970" stroke="#191970" points="800.3145,-71.0118 810.2995,-67.4692 800.2847,-64.0118 800.3145,-71.0118"/>
</g>
<!-- Node226 -->
<g id="node29" class="node">
<title>Node226</title>
<g id="a_node29"><a xlink:href="classCARLsim_1_1Impl.html#a749f370debe5eec8661cf9ca1b1bb4c0" target="_top" xlink:title="CARLsim::Impl::runNetwork">
<polygon fill="#ffffff" stroke="#000000" points="426,-6 426,-25 566,-25 566,-6 426,-6"/>
<text text-anchor="middle" x="496" y="-13" font-family="Helvetica,sans-Serif" font-size="10.00" fill="#000000">CARLsim::Impl::runNetwork</text>
</a>
</g>
</g>
<!-- Node225&#45;&gt;Node226 -->
<g id="edge45" class="edge">
<title>Node225&#45;&gt;Node226</title>
<path fill="none" stroke="#191970" d="M400.4873,-15.5C408.7425,-15.5 417.3063,-15.5 425.7638,-15.5"/>
<polygon fill="#191970" stroke="#191970" points="400.227,-12.0001 390.2269,-15.5 400.2269,-19.0001 400.227,-12.0001"/>
</g>
<!-- Node227 -->
<g id="node30" class="node">
<title>Node227</title>
<g id="a_node30"><a xlink:href="classCARLsim.html#aafb2d44405c96aafe089f96ff867018d" target="_top" xlink:title="run the simulation for time=(nSec*seconds + nMsec*milliseconds) ">
<polygon fill="#ffffff" stroke="#000000" points="613,-6 613,-25 729,-25 729,-6 613,-6"/>
<text text-anchor="middle" x="671" y="-13" font-family="Helvetica,sans-Serif" font-size="10.00" fill="#000000">CARLsim::runNetwork</text>
</a>
</g>
</g>
<!-- Node226&#45;&gt;Node227 -->
<g id="edge46" class="edge">
<title>Node226&#45;&gt;Node227</title>
<path fill="none" stroke="#191970" d="M576.4296,-15.5C588.7203,-15.5 601.1984,-15.5 612.8852,-15.5"/>
<polygon fill="#191970" stroke="#191970" points="576.1709,-12.0001 566.1709,-15.5 576.1708,-19.0001 576.1709,-12.0001"/>
</g>
<!-- Node228 -->
<g id="node31" class="node">
<title>Node228</title>
<g id="a_node31"><a xlink:href="classSimpleWeightTuner_1_1Impl.html#a312d84bfa66a5036bb52a4c39db6fa6c" target="_top" xlink:title="SimpleWeightTuner::\lImpl::iterate">
<polygon fill="#ffffff" stroke="#000000" points="799.5,-.5 799.5,-30.5 907.5,-30.5 907.5,-.5 799.5,-.5"/>
<text text-anchor="start" x="807.5" y="-18.5" font-family="Helvetica,sans-Serif" font-size="10.00" fill="#000000">SimpleWeightTuner::</text>
<text text-anchor="middle" x="853.5" y="-7.5" font-family="Helvetica,sans-Serif" font-size="10.00" fill="#000000">Impl::iterate</text>
</a>
</g>
</g>
<!-- Node227&#45;&gt;Node228 -->
<g id="edge47" class="edge">
<title>Node227&#45;&gt;Node228</title>
<path fill="none" stroke="#191970" d="M739.4152,-15.5C759.1686,-15.5 780.4477,-15.5 799.2159,-15.5"/>
<polygon fill="#191970" stroke="#191970" points="739.2459,-12.0001 729.2459,-15.5 739.2459,-19.0001 739.2459,-12.0001"/>
</g>
<!-- Node229 -->
<g id="node32" class="node">
<title>Node229</title>
<g id="a_node32"><a xlink:href="classSimpleWeightTuner.html#a0df985e3ff7a27edc1e2e3fcc8261843" target="_top" xlink:title="Performs an iteration step of the tuning algorithm. ">
<polygon fill="#ffffff" stroke="#000000" points="980.5,-.5 980.5,-30.5 1088.5,-30.5 1088.5,-.5 980.5,-.5"/>
<text text-anchor="start" x="988.5" y="-18.5" font-family="Helvetica,sans-Serif" font-size="10.00" fill="#000000">SimpleWeightTuner::</text>
<text text-anchor="middle" x="1034.5" y="-7.5" font-family="Helvetica,sans-Serif" font-size="10.00" fill="#000000">iterate</text>
</a>
</g>
</g>
<!-- Node228&#45;&gt;Node229 -->
<g id="edge48" class="edge">
<title>Node228&#45;&gt;Node229</title>
<path fill="none" stroke="#191970" d="M917.9488,-15.5C938.33,-15.5 960.6383,-15.5 980.2324,-15.5"/>
<polygon fill="#191970" stroke="#191970" points="917.806,-12.0001 907.806,-15.5 917.8059,-19.0001 917.806,-12.0001"/>
</g>
</g>
</svg>
