<?xml version="1.0" encoding="UTF-8" standalone="no"?>
<!DOCTYPE svg PUBLIC "-//W3C//DTD SVG 1.1//EN"
 "http://www.w3.org/Graphics/SVG/1.1/DTD/svg11.dtd">
<!-- Generated by graphviz version 2.40.1 (20161225.0304)
 -->
<!-- Title: setIntegrationMethod Pages: 1 -->
<svg width="288pt" height="66pt"
 viewBox="0.00 0.00 288.00 66.00" xmlns="http://www.w3.org/2000/svg" xmlns:xlink="http://www.w3.org/1999/xlink">
<g id="graph0" class="graph" transform="scale(1 1) rotate(0) translate(4 62)">
<title>setIntegrationMethod</title>
<polygon fill="#ffffff" stroke="transparent" points="-4,4 -4,-62 284,-62 284,4 -4,4"/>
<!-- Node969 -->
<g id="node1" class="node">
<title>Node969</title>
<polygon fill="#bfbfbf" stroke="#000000" points="0,-19.5 0,-38.5 108,-38.5 108,-19.5 0,-19.5"/>
<text text-anchor="middle" x="54" y="-26.5" font-family="Helvetica,sans-Serif" font-size="10.00" fill="#000000">setIntegrationMethod</text>
</g>
<!-- Node970 -->
<g id="node2" class="node">
<title>Node970</title>
<g id="a_node2"><a xlink:href="classUserErrors.html#a4bbedc6c0817d5e59e74e450bf00472c" target="_top" xlink:title="simple wrapper for assert statement ">
<polygon fill="#ffffff" stroke="#000000" points="154,-38.5 154,-57.5 270,-57.5 270,-38.5 154,-38.5"/>
<text text-anchor="middle" x="212" y="-45.5" font-family="Helvetica,sans-Serif" font-size="10.00" fill="#000000">UserErrors::assertTrue</text>
</a>
</g>
</g>
<!-- Node969&#45;&gt;Node970 -->
<g id="edge1" class="edge">
<title>Node969&#45;&gt;Node970</title>
<path fill="none" stroke="#191970" d="M108.3746,-35.5387C119.6974,-36.9003 131.77,-38.3521 143.526,-39.7658"/>
<polygon fill="#191970" stroke="#191970" points="143.4023,-43.276 153.7487,-40.9951 144.2381,-36.3261 143.4023,-43.276"/>
</g>
<!-- Node971 -->
<g id="node3" class="node">
<title>Node971</title>
<g id="a_node3"><a xlink:href="classSNN.html#a3c23ef1a19946fdd9c096367a45ac48e" target="_top" xlink:title="Sets the integration method and the number of integration steps per 1ms simulation time step...">
<polygon fill="#ffffff" stroke="#000000" points="144,-.5 144,-19.5 280,-19.5 280,-.5 144,-.5"/>
<text text-anchor="middle" x="212" y="-7.5" font-family="Helvetica,sans-Serif" font-size="10.00" fill="#000000">SNN::setIntegrationMethod</text>
</a>
</g>
</g>
<!-- Node969&#45;&gt;Node971 -->
<g id="edge2" class="edge">
<title>Node969&#45;&gt;Node971</title>
<path fill="none" stroke="#191970" d="M108.3746,-22.4613C116.587,-21.4737 125.1939,-20.4387 133.7883,-19.4052"/>
<polygon fill="#191970" stroke="#191970" points="134.3368,-22.8646 143.8474,-18.1956 133.501,-15.9146 134.3368,-22.8646"/>
</g>
</g>
</svg>
