<?xml version="1.0" encoding="UTF-8" standalone="no"?>
<!DOCTYPE svg PUBLIC "-//W3C//DTD SVG 1.1//EN"
 "http://www.w3.org/Graphics/SVG/1.1/DTD/svg11.dtd">
<!-- Generated by graphviz version 2.40.1 (20161225.0304)
 -->
<!-- Title: setSpikeGenerator Pages: 1 -->
<svg width="843pt" height="148pt"
 viewBox="0.00 0.00 843.00 148.00" xmlns="http://www.w3.org/2000/svg" xmlns:xlink="http://www.w3.org/1999/xlink">
<g id="graph0" class="graph" transform="scale(1 1) rotate(0) translate(4 144)">
<title>setSpikeGenerator</title>
<polygon fill="#ffffff" stroke="transparent" points="-4,4 -4,-144 839,-144 839,4 -4,4"/>
<!-- Node964 -->
<g id="node1" class="node">
<title>Node964</title>
<polygon fill="#bfbfbf" stroke="#000000" points="0,-60.5 0,-79.5 98,-79.5 98,-60.5 0,-60.5"/>
<text text-anchor="middle" x="49" y="-67.5" font-family="Helvetica,sans-Serif" font-size="10.00" fill="#000000">setSpikeGenerator</text>
</g>
<!-- Node965 -->
<g id="node2" class="node">
<title>Node965</title>
<g id="a_node2"><a xlink:href="classCARLsim_1_1Impl.html#adc71069e71cd551526ddafb3d873d649" target="_top" xlink:title="CARLsim::Impl::setSpikeGenerator">
<polygon fill="#ffffff" stroke="#000000" points="134,-60.5 134,-79.5 305,-79.5 305,-60.5 134,-60.5"/>
<text text-anchor="middle" x="219.5" y="-67.5" font-family="Helvetica,sans-Serif" font-size="10.00" fill="#000000">CARLsim::Impl::setSpikeGenerator</text>
</a>
</g>
</g>
<!-- Node964&#45;&gt;Node965 -->
<g id="edge1" class="edge">
<title>Node964&#45;&gt;Node965</title>
<path fill="none" stroke="#191970" d="M98.3157,-70C106.4618,-70 115.1438,-70 123.975,-70"/>
<polygon fill="#191970" stroke="#191970" points="123.9886,-73.5001 133.9885,-70 123.9885,-66.5001 123.9886,-73.5001"/>
</g>
<!-- Node966 -->
<g id="node3" class="node">
<title>Node966</title>
<g id="a_node3"><a xlink:href="classCARLsim_1_1Impl.html#ab0367f8ebd4019bf7d34ebddb1563fe7" target="_top" xlink:title="CARLsim::Impl::getGroupName">
<polygon fill="#ffffff" stroke="#000000" points="341,-38.5 341,-57.5 497,-57.5 497,-38.5 341,-38.5"/>
<text text-anchor="middle" x="419" y="-45.5" font-family="Helvetica,sans-Serif" font-size="10.00" fill="#000000">CARLsim::Impl::getGroupName</text>
</a>
</g>
</g>
<!-- Node965&#45;&gt;Node966 -->
<g id="edge2" class="edge">
<title>Node965&#45;&gt;Node966</title>
<path fill="none" stroke="#191970" d="M305.2638,-60.5423C313.6728,-59.615 322.2171,-58.6728 330.6513,-57.7427"/>
<polygon fill="#191970" stroke="#191970" points="331.3119,-61.1912 340.868,-56.6161 330.5445,-54.2334 331.3119,-61.1912"/>
</g>
<!-- Node967 -->
<g id="node4" class="node">
<title>Node967</title>
<g id="a_node4"><a xlink:href="classUserErrors.html#a4bbedc6c0817d5e59e74e450bf00472c" target="_top" xlink:title="simple wrapper for assert statement ">
<polygon fill="#ffffff" stroke="#000000" points="553,-120.5 553,-139.5 669,-139.5 669,-120.5 553,-120.5"/>
<text text-anchor="middle" x="611" y="-127.5" font-family="Helvetica,sans-Serif" font-size="10.00" fill="#000000">UserErrors::assertTrue</text>
</a>
</g>
</g>
<!-- Node965&#45;&gt;Node967 -->
<g id="edge7" class="edge">
<title>Node965&#45;&gt;Node967</title>
<path fill="none" stroke="#191970" d="M238.6876,-79.6528C262.1483,-90.9241 303.3847,-109.0374 341,-117 408.5017,-131.2892 487.5249,-133.4533 542.5712,-132.7064"/>
<polygon fill="#191970" stroke="#191970" points="542.9679,-136.2002 552.906,-132.5282 542.8471,-129.2012 542.9679,-136.2002"/>
</g>
<!-- Node971 -->
<g id="node8" class="node">
<title>Node971</title>
<g id="a_node8"><a xlink:href="classCARLsim_1_1Impl.html#ae136e178382096490a2d34f78cd2afa2" target="_top" xlink:title="CARLsim::Impl::isPoisson\lGroup">
<polygon fill="#ffffff" stroke="#000000" points="352.5,-77 352.5,-107 485.5,-107 485.5,-77 352.5,-77"/>
<text text-anchor="start" x="360.5" y="-95" font-family="Helvetica,sans-Serif" font-size="10.00" fill="#000000">CARLsim::Impl::isPoisson</text>
<text text-anchor="middle" x="419" y="-84" font-family="Helvetica,sans-Serif" font-size="10.00" fill="#000000">Group</text>
</a>
</g>
</g>
<!-- Node965&#45;&gt;Node971 -->
<g id="edge8" class="edge">
<title>Node965&#45;&gt;Node971</title>
<path fill="none" stroke="#191970" d="M305.2638,-79.4577C317.5572,-80.8133 330.1398,-82.2009 342.2445,-83.5357"/>
<polygon fill="#191970" stroke="#191970" points="341.9599,-87.0255 352.2834,-84.6428 342.7273,-80.0677 341.9599,-87.0255"/>
</g>
<!-- Node973 -->
<g id="node10" class="node">
<title>Node973</title>
<g id="a_node10"><a xlink:href="classSNN.html#acc3a5cc762c4b48c9ff681af480ee0de" target="_top" xlink:title="sets up a spike generator ">
<polygon fill="#ffffff" stroke="#000000" points="356.5,-.5 356.5,-19.5 481.5,-19.5 481.5,-.5 356.5,-.5"/>
<text text-anchor="middle" x="419" y="-7.5" font-family="Helvetica,sans-Serif" font-size="10.00" fill="#000000">SNN::setSpikeGenerator</text>
</a>
</g>
</g>
<!-- Node965&#45;&gt;Node973 -->
<g id="edge12" class="edge">
<title>Node965&#45;&gt;Node973</title>
<path fill="none" stroke="#191970" d="M245.8373,-60.3771C270.308,-51.6122 307.8582,-38.6088 341,-29 349.3644,-26.5749 358.2925,-24.2017 367.0107,-21.9996"/>
<polygon fill="#191970" stroke="#191970" points="367.8593,-25.3953 376.7236,-19.5923 366.1752,-18.6008 367.8593,-25.3953"/>
</g>
<!-- Node966&#45;&gt;Node967 -->
<g id="edge3" class="edge">
<title>Node966&#45;&gt;Node967</title>
<path fill="none" stroke="#191970" d="M474.4928,-57.6265C482.3855,-60.2856 490.1406,-63.6766 497,-68 518.0858,-81.29 511.8344,-97.8375 533,-111 536.4305,-113.1334 540.084,-115.0272 543.8662,-116.7084"/>
<polygon fill="#191970" stroke="#191970" points="542.8905,-120.0849 553.4785,-120.4648 545.4384,-113.565 542.8905,-120.0849"/>
</g>
<!-- Node968 -->
<g id="node5" class="node">
<title>Node968</title>
<g id="a_node5"><a xlink:href="classCARLsim_1_1Impl.html#a292bdee57fec7c77ec4c15ea3f508d60" target="_top" xlink:title="CARLsim::Impl::getNumGroups">
<polygon fill="#ffffff" stroke="#000000" points="533,-44.5 533,-63.5 689,-63.5 689,-44.5 533,-44.5"/>
<text text-anchor="middle" x="611" y="-51.5" font-family="Helvetica,sans-Serif" font-size="10.00" fill="#000000">CARLsim::Impl::getNumGroups</text>
</a>
</g>
</g>
<!-- Node966&#45;&gt;Node968 -->
<g id="edge4" class="edge">
<title>Node966&#45;&gt;Node968</title>
<path fill="none" stroke="#191970" d="M497.0938,-50.4404C505.6006,-50.7063 514.3019,-50.9782 522.9175,-51.2474"/>
<polygon fill="#191970" stroke="#191970" points="522.871,-54.7476 532.9755,-51.5617 523.0897,-47.751 522.871,-54.7476"/>
</g>
<!-- Node970 -->
<g id="node7" class="node">
<title>Node970</title>
<g id="a_node7"><a xlink:href="classSNN.html#ab0367f8ebd4019bf7d34ebddb1563fe7" target="_top" xlink:title="SNN::getGroupName">
<polygon fill="#ffffff" stroke="#000000" points="556,-6.5 556,-25.5 666,-25.5 666,-6.5 556,-6.5"/>
<text text-anchor="middle" x="611" y="-13.5" font-family="Helvetica,sans-Serif" font-size="10.00" fill="#000000">SNN::getGroupName</text>
</a>
</g>
</g>
<!-- Node966&#45;&gt;Node970 -->
<g id="edge6" class="edge">
<title>Node966&#45;&gt;Node970</title>
<path fill="none" stroke="#191970" d="M476.0865,-38.4856C498.0407,-34.8265 523.2634,-30.6228 545.9152,-26.8475"/>
<polygon fill="#191970" stroke="#191970" points="546.495,-30.2992 555.7836,-25.2027 545.3442,-23.3944 546.495,-30.2992"/>
</g>
<!-- Node969 -->
<g id="node6" class="node">
<title>Node969</title>
<g id="a_node6"><a xlink:href="classSNN.html#a292bdee57fec7c77ec4c15ea3f508d60" target="_top" xlink:title="SNN::getNumGroups">
<polygon fill="#ffffff" stroke="#000000" points="725,-44.5 725,-63.5 835,-63.5 835,-44.5 725,-44.5"/>
<text text-anchor="middle" x="780" y="-51.5" font-family="Helvetica,sans-Serif" font-size="10.00" fill="#000000">SNN::getNumGroups</text>
</a>
</g>
</g>
<!-- Node968&#45;&gt;Node969 -->
<g id="edge5" class="edge">
<title>Node968&#45;&gt;Node969</title>
<path fill="none" stroke="#191970" d="M689.069,-54C697.6771,-54 706.3747,-54 714.8018,-54"/>
<polygon fill="#191970" stroke="#191970" points="714.9225,-57.5001 724.9225,-54 714.9225,-50.5001 714.9225,-57.5001"/>
</g>
<!-- Node971&#45;&gt;Node967 -->
<g id="edge9" class="edge">
<title>Node971&#45;&gt;Node967</title>
<path fill="none" stroke="#191970" d="M485.6134,-105.1839C507.5862,-109.5327 531.832,-114.3313 553.0999,-118.5406"/>
<polygon fill="#191970" stroke="#191970" points="552.4703,-121.9838 562.9596,-120.492 553.8294,-115.117 552.4703,-121.9838"/>
</g>
<!-- Node971&#45;&gt;Node968 -->
<g id="edge10" class="edge">
<title>Node971&#45;&gt;Node968</title>
<path fill="none" stroke="#191970" d="M485.6134,-78.8161C507.5862,-74.4673 531.832,-69.6687 553.0999,-65.4594"/>
<polygon fill="#191970" stroke="#191970" points="553.8294,-68.883 562.9596,-63.508 552.4703,-62.0162 553.8294,-68.883"/>
</g>
<!-- Node972 -->
<g id="node9" class="node">
<title>Node972</title>
<g id="a_node9"><a xlink:href="classSNN.html#a3764348d44236ad4932627cd4d199c31" target="_top" xlink:title="SNN::isPoissonGroup">
<polygon fill="#ffffff" stroke="#000000" points="554.5,-82.5 554.5,-101.5 667.5,-101.5 667.5,-82.5 554.5,-82.5"/>
<text text-anchor="middle" x="611" y="-89.5" font-family="Helvetica,sans-Serif" font-size="10.00" fill="#000000">SNN::isPoissonGroup</text>
</a>
</g>
</g>
<!-- Node971&#45;&gt;Node972 -->
<g id="edge11" class="edge">
<title>Node971&#45;&gt;Node972</title>
<path fill="none" stroke="#191970" d="M485.6134,-92C504.6179,-92 525.3227,-92 544.3304,-92"/>
<polygon fill="#191970" stroke="#191970" points="544.3947,-95.5001 554.3947,-92 544.3947,-88.5001 544.3947,-95.5001"/>
</g>
</g>
</svg>
