<?xml version="1.0" encoding="UTF-8" standalone="no"?>
<!DOCTYPE svg PUBLIC "-//W3C//DTD SVG 1.1//EN"
 "http://www.w3.org/Graphics/SVG/1.1/DTD/svg11.dtd">
<!-- Generated by graphviz version 2.40.1 (20161225.0304)
 -->
<!-- Title: exitSimulation Pages: 1 -->
<svg width="1107pt" height="774pt"
 viewBox="0.00 0.00 1107.00 774.00" xmlns="http://www.w3.org/2000/svg" xmlns:xlink="http://www.w3.org/1999/xlink">
<g id="graph0" class="graph" transform="scale(1 1) rotate(0) translate(4 770)">
<title>exitSimulation</title>
<polygon fill="#ffffff" stroke="transparent" points="-4,4 -4,-770 1103,-770 1103,4 -4,4"/>
<!-- Node44 -->
<g id="node1" class="node">
<title>Node44</title>
<polygon fill="#bfbfbf" stroke="#000000" points="0,-518.5 0,-537.5 78,-537.5 78,-518.5 0,-518.5"/>
<text text-anchor="middle" x="39" y="-525.5" font-family="Helvetica,sans-Serif" font-size="10.00" fill="#000000">exitSimulation</text>
</g>
<!-- Node45 -->
<g id="node2" class="node">
<title>Node45</title>
<g id="a_node2"><a xlink:href="snn__cpu__module_8cpp.html#ac42c21b5ae4b743f8e00b7dfe04dcfe3" target="_top" xlink:title="dvdtLIF">
<polygon fill="#ffffff" stroke="#000000" points="161,-746.5 161,-765.5 211,-765.5 211,-746.5 161,-746.5"/>
<text text-anchor="middle" x="186" y="-753.5" font-family="Helvetica,sans-Serif" font-size="10.00" fill="#000000">dvdtLIF</text>
</a>
</g>
</g>
<!-- Node44&#45;&gt;Node45 -->
<g id="edge1" class="edge">
<title>Node44&#45;&gt;Node45</title>
<path fill="none" stroke="#191970" d="M40.1719,-547.7316C43.7235,-589.1489 57.9027,-685.5584 114,-737 126.6726,-748.6208 145.6113,-753.2952 160.8847,-755.1044"/>
<polygon fill="#191970" stroke="#191970" points="43.6503,-547.3074 39.426,-537.5912 36.6691,-547.821 43.6503,-547.3074"/>
</g>
<!-- Node46 -->
<g id="node3" class="node">
<title>Node46</title>
<g id="a_node3"><a xlink:href="classSNN.html#a6eec2a657455176862ab71d4ee762e07" target="_top" xlink:title="make from each neuron in grpId1 to &#39;numPostSynapses&#39; neurons in grpId2 ">
<polygon fill="#ffffff" stroke="#000000" points="160.5,-708.5 160.5,-727.5 211.5,-727.5 211.5,-708.5 160.5,-708.5"/>
<text text-anchor="middle" x="186" y="-715.5" font-family="Helvetica,sans-Serif" font-size="10.00" fill="#000000">connect</text>
</a>
</g>
</g>
<!-- Node44&#45;&gt;Node46 -->
<g id="edge2" class="edge">
<title>Node44&#45;&gt;Node46</title>
<path fill="none" stroke="#191970" d="M42.0122,-548.0294C48.4779,-583.8482 67.1022,-658.8742 114,-699 126.8682,-710.0101 145.4203,-714.7273 160.4695,-716.7089"/>
<polygon fill="#191970" stroke="#191970" points="45.4158,-547.1603 40.3198,-537.8716 38.511,-548.3108 45.4158,-547.1603"/>
</g>
<!-- Node49 -->
<g id="node6" class="node">
<title>Node49</title>
<g id="a_node6"><a xlink:href="classSNN.html#a2301fb7a8931b6b91de61c19255a4dcc" target="_top" xlink:title="Creates a group of Izhikevich spiking neurons. ">
<polygon fill="#ffffff" stroke="#000000" points="151,-670.5 151,-689.5 221,-689.5 221,-670.5 151,-670.5"/>
<text text-anchor="middle" x="186" y="-677.5" font-family="Helvetica,sans-Serif" font-size="10.00" fill="#000000">createGroup</text>
</a>
</g>
</g>
<!-- Node44&#45;&gt;Node49 -->
<g id="edge5" class="edge">
<title>Node44&#45;&gt;Node49</title>
<path fill="none" stroke="#191970" d="M44.6407,-547.6292C54.0718,-576.8618 75.8643,-631.5447 114,-661 124.5383,-669.1396 138.252,-673.8051 150.8799,-676.4744"/>
<polygon fill="#191970" stroke="#191970" points="47.8984,-546.3138 41.6232,-537.7773 41.2053,-548.3639 47.8984,-546.3138"/>
</g>
<!-- Node51 -->
<g id="node8" class="node">
<title>Node51</title>
<g id="a_node8"><a xlink:href="classSNN.html#ab47cbdc62b1d4af153d9f8395cf5e5b1" target="_top" xlink:title="Creates a group of LIF spiking neurons. ">
<polygon fill="#ffffff" stroke="#000000" points="144,-632.5 144,-651.5 228,-651.5 228,-632.5 144,-632.5"/>
<text text-anchor="middle" x="186" y="-639.5" font-family="Helvetica,sans-Serif" font-size="10.00" fill="#000000">createGroupLIF</text>
</a>
</g>
</g>
<!-- Node44&#45;&gt;Node51 -->
<g id="edge7" class="edge">
<title>Node44&#45;&gt;Node51</title>
<path fill="none" stroke="#191970" d="M48.7859,-546.6734C61.1,-568.323 84.2822,-603.5189 114,-623 122.8658,-628.8118 133.4391,-632.8498 143.7165,-635.6541"/>
<polygon fill="#191970" stroke="#191970" points="51.7875,-544.8679 43.9085,-537.7847 45.6507,-548.2353 51.7875,-544.8679"/>
</g>
<!-- Node53 -->
<g id="node10" class="node">
<title>Node53</title>
<g id="a_node10"><a xlink:href="classSNN.html#abe7f46d33329d940d390817f64114356" target="_top" xlink:title="Set the spike&#45;timing&#45;dependent plasticity (STDP) for a neuron group. ">
<polygon fill="#ffffff" stroke="#000000" points="154,-594.5 154,-613.5 218,-613.5 218,-594.5 154,-594.5"/>
<text text-anchor="middle" x="186" y="-601.5" font-family="Helvetica,sans-Serif" font-size="10.00" fill="#000000">setESTDP</text>
</a>
</g>
</g>
<!-- Node44&#45;&gt;Node53 -->
<g id="edge9" class="edge">
<title>Node44&#45;&gt;Node53</title>
<path fill="none" stroke="#191970" d="M56.4239,-544.4348C70.8347,-557.1989 92.3752,-574.4488 114,-585 126.432,-591.0658 141.0498,-595.3803 153.8545,-598.3477"/>
<polygon fill="#191970" stroke="#191970" points="58.5711,-541.6567 48.8162,-537.5224 53.8638,-546.8376 58.5711,-541.6567"/>
</g>
<!-- Node59 -->
<g id="node16" class="node">
<title>Node59</title>
<g id="a_node16"><a xlink:href="classSNN.html#a281a359802ac8263a7e323085f3c83fc" target="_top" xlink:title="Set the inhibitory spike&#45;timing&#45;dependent plasticity (STDP) with anti&#45;hebbian curve for a neuron grou...">
<polygon fill="#ffffff" stroke="#000000" points="156,-556.5 156,-575.5 216,-575.5 216,-556.5 156,-556.5"/>
<text text-anchor="middle" x="186" y="-563.5" font-family="Helvetica,sans-Serif" font-size="10.00" fill="#000000">setISTDP</text>
</a>
</g>
</g>
<!-- Node44&#45;&gt;Node59 -->
<g id="edge15" class="edge">
<title>Node44&#45;&gt;Node59</title>
<path fill="none" stroke="#191970" d="M85.9631,-540.1401C108.858,-546.0585 135.7211,-553.0027 155.8421,-558.2041"/>
<polygon fill="#191970" stroke="#191970" points="86.652,-536.7032 76.0943,-537.589 84.9001,-543.4805 86.652,-536.7032"/>
</g>
<!-- Node62 -->
<g id="node19" class="node">
<title>Node62</title>
<g id="a_node19"><a xlink:href="classSNN.html#a61ef9df510c9eecbdbda7ec787f2db4b" target="_top" xlink:title="sets up a group monitor registered with a callback to process the spikes. ">
<polygon fill="#ffffff" stroke="#000000" points="141.5,-518.5 141.5,-537.5 230.5,-537.5 230.5,-518.5 141.5,-518.5"/>
<text text-anchor="middle" x="186" y="-525.5" font-family="Helvetica,sans-Serif" font-size="10.00" fill="#000000">setGroupMonitor</text>
</a>
</g>
</g>
<!-- Node44&#45;&gt;Node62 -->
<g id="edge18" class="edge">
<title>Node44&#45;&gt;Node62</title>
<path fill="none" stroke="#191970" d="M88.3825,-528C105.5159,-528 124.6157,-528 141.3456,-528"/>
<polygon fill="#191970" stroke="#191970" points="88.0074,-524.5001 78.0074,-528 88.0073,-531.5001 88.0074,-524.5001"/>
</g>
<!-- Node65 -->
<g id="node22" class="node">
<title>Node65</title>
<g id="a_node22"><a xlink:href="classSNN.html#a9773c7b8f7fbb53c92ec5623ea99cb69" target="_top" xlink:title="sets up a network monitor registered with a callback to process the spikes. ">
<polygon fill="#ffffff" stroke="#000000" points="525.5,-480.5 525.5,-499.5 637.5,-499.5 637.5,-480.5 525.5,-480.5"/>
<text text-anchor="middle" x="581.5" y="-487.5" font-family="Helvetica,sans-Serif" font-size="10.00" fill="#000000">setConnectionMonitor</text>
</a>
</g>
</g>
<!-- Node44&#45;&gt;Node65 -->
<g id="edge21" class="edge">
<title>Node44&#45;&gt;Node65</title>
<path fill="none" stroke="#191970" d="M80.1676,-515.9388C91.0763,-513.193 102.9071,-510.6127 114,-509 261.3058,-487.585 437.2691,-487.093 525.3833,-488.5428"/>
<polygon fill="#191970" stroke="#191970" points="79.2423,-512.563 70.4563,-518.4839 81.0169,-519.3343 79.2423,-512.563"/>
</g>
<!-- Node68 -->
<g id="node25" class="node">
<title>Node68</title>
<g id="a_node25"><a xlink:href="classSNN.html#a52f149e224abff772962dea6680398e2" target="_top" xlink:title="gets number of connections associated with a connection ID ">
<polygon fill="#ffffff" stroke="#000000" points="114,-386.5 114,-405.5 258,-405.5 258,-386.5 114,-386.5"/>
<text text-anchor="middle" x="186" y="-393.5" font-family="Helvetica,sans-Serif" font-size="10.00" fill="#000000">getNumSynapticConnections</text>
</a>
</g>
</g>
<!-- Node44&#45;&gt;Node68 -->
<g id="edge24" class="edge">
<title>Node44&#45;&gt;Node68</title>
<path fill="none" stroke="#191970" d="M57.6127,-511.2865C88.7322,-483.3425 150.3572,-428.0058 175.2224,-405.6778"/>
<polygon fill="#191970" stroke="#191970" points="55.151,-508.7931 50.0489,-518.0785 59.8279,-514.0014 55.151,-508.7931"/>
</g>
<!-- Node99 -->
<g id="node40" class="node">
<title>Node99</title>
<g id="a_node40"><a xlink:href="classSNN.html#a4afa2f85f5939e81ec45c7760e23d932" target="_top" xlink:title="returns RangeWeight struct of a connection ">
<polygon fill="#ffffff" stroke="#000000" points="141.5,-259.5 141.5,-278.5 230.5,-278.5 230.5,-259.5 141.5,-259.5"/>
<text text-anchor="middle" x="186" y="-266.5" font-family="Helvetica,sans-Serif" font-size="10.00" fill="#000000">getWeightRange</text>
</a>
</g>
</g>
<!-- Node44&#45;&gt;Node99 -->
<g id="edge42" class="edge">
<title>Node44&#45;&gt;Node99</title>
<path fill="none" stroke="#191970" d="M47.558,-508.852C60.7609,-479.7833 87.3678,-423.0326 114,-377 135.7799,-339.3544 165.6428,-297.0869 179.0219,-278.5632"/>
<polygon fill="#191970" stroke="#191970" points="44.2457,-507.6832 43.325,-518.238 50.6267,-510.5611 44.2457,-507.6832"/>
</g>
<!-- Node101 -->
<g id="node42" class="node">
<title>Node101</title>
<g id="a_node42"><a xlink:href="snn__manager_8cpp.html#af7e3c6ada8c131790477ada99ec34bc3" target="_top" xlink:title="compareDelay">
<polygon fill="#ffffff" stroke="#000000" points="541.5,-57.5 541.5,-76.5 621.5,-76.5 621.5,-57.5 541.5,-57.5"/>
<text text-anchor="middle" x="581.5" y="-64.5" font-family="Helvetica,sans-Serif" font-size="10.00" fill="#000000">compareDelay</text>
</a>
</g>
</g>
<!-- Node44&#45;&gt;Node101 -->
<g id="edge45" class="edge">
<title>Node44&#45;&gt;Node101</title>
<path fill="none" stroke="#191970" d="M40.4116,-508.0148C45.6338,-439.7923 66.0891,-217.5855 114,-168 173.357,-106.5684 439.2845,-78.6422 541.3948,-70.0459"/>
<polygon fill="#191970" stroke="#191970" points="36.9022,-508.0151 39.6559,-518.2458 43.8831,-508.5308 36.9022,-508.0151"/>
</g>
<!-- Node102 -->
<g id="node43" class="node">
<title>Node102</title>
<g id="a_node43"><a xlink:href="classSNN.html#aa9a9c5646dd11beb60fcf70d2216024a" target="_top" xlink:title="returns whether group has homeostasis enabled (true) or not (false) ">
<polygon fill="#ffffff" stroke="#000000" points="122,-177.5 122,-196.5 250,-196.5 250,-177.5 122,-177.5"/>
<text text-anchor="middle" x="186" y="-184.5" font-family="Helvetica,sans-Serif" font-size="10.00" fill="#000000">isGroupWithHomeostasis</text>
</a>
</g>
</g>
<!-- Node44&#45;&gt;Node102 -->
<g id="edge46" class="edge">
<title>Node44&#45;&gt;Node102</title>
<path fill="none" stroke="#191970" d="M40.4203,-508.1027C44.635,-460.1878 60.3487,-336.0067 114,-250 128.4171,-226.8883 153.9112,-207.5333 170.373,-196.6067"/>
<polygon fill="#191970" stroke="#191970" points="36.9103,-508.0868 39.5974,-518.3352 43.8878,-508.6479 36.9103,-508.0868"/>
</g>
<!-- Node108 -->
<g id="node48" class="node">
<title>Node108</title>
<g id="a_node48"><a xlink:href="classSNN.html#a845adad4645977755e508610dc3c1464" target="_top" xlink:title="checks whether a point pre lies in the receptive field for point post ">
<polygon fill="#ffffff" stroke="#000000" points="149,-38.5 149,-57.5 223,-57.5 223,-38.5 149,-38.5"/>
<text text-anchor="middle" x="186" y="-45.5" font-family="Helvetica,sans-Serif" font-size="10.00" fill="#000000">getRFDist3D</text>
</a>
</g>
</g>
<!-- Node44&#45;&gt;Node108 -->
<g id="edge51" class="edge">
<title>Node44&#45;&gt;Node108</title>
<path fill="none" stroke="#191970" d="M40.2098,-508.36C45.1935,-432.6831 66.1662,-160.7395 114,-91 124.7059,-75.3913 143.1055,-64.5466 158.6241,-57.6526"/>
<polygon fill="#191970" stroke="#191970" points="36.7126,-508.206 39.5673,-518.409 43.6984,-508.6528 36.7126,-508.206"/>
</g>
<!-- Node47 -->
<g id="node4" class="node">
<title>Node47</title>
<g id="a_node4"><a xlink:href="classCARLsim_1_1Impl.html#afed01f52e943df5e5476428c4fbef8f7" target="_top" xlink:title="CARLsim::Impl::connect">
<polygon fill="#ffffff" stroke="#000000" points="312.5,-708.5 312.5,-727.5 437.5,-727.5 437.5,-708.5 312.5,-708.5"/>
<text text-anchor="middle" x="375" y="-715.5" font-family="Helvetica,sans-Serif" font-size="10.00" fill="#000000">CARLsim::Impl::connect</text>
</a>
</g>
</g>
<!-- Node46&#45;&gt;Node47 -->
<g id="edge3" class="edge">
<title>Node46&#45;&gt;Node47</title>
<path fill="none" stroke="#191970" d="M222.2025,-718C247.7049,-718 282.5034,-718 312.4502,-718"/>
<polygon fill="#191970" stroke="#191970" points="221.8834,-714.5001 211.8834,-718 221.8833,-721.5001 221.8834,-714.5001"/>
</g>
<!-- Node48 -->
<g id="node5" class="node">
<title>Node48</title>
<g id="a_node5"><a xlink:href="classCARLsim.html#a30b16b93d57551dcde0559e8a4e98e27" target="_top" xlink:title="Connects a presynaptic to a postsynaptic group using fixed/plastic weights and a range of delay value...">
<polygon fill="#ffffff" stroke="#000000" points="531.5,-708.5 531.5,-727.5 631.5,-727.5 631.5,-708.5 531.5,-708.5"/>
<text text-anchor="middle" x="581.5" y="-715.5" font-family="Helvetica,sans-Serif" font-size="10.00" fill="#000000">CARLsim::connect</text>
</a>
</g>
</g>
<!-- Node47&#45;&gt;Node48 -->
<g id="edge4" class="edge">
<title>Node47&#45;&gt;Node48</title>
<path fill="none" stroke="#191970" d="M447.5516,-718C475.2308,-718 506.1479,-718 531.299,-718"/>
<polygon fill="#191970" stroke="#191970" points="447.5172,-714.5001 437.5172,-718 447.5172,-721.5001 447.5172,-714.5001"/>
</g>
<!-- Node50 -->
<g id="node7" class="node">
<title>Node50</title>
<g id="a_node7"><a xlink:href="classCARLsim_1_1Impl.html#a2301fb7a8931b6b91de61c19255a4dcc" target="_top" xlink:title="CARLsim::Impl::createGroup">
<polygon fill="#ffffff" stroke="#000000" points="303.5,-670.5 303.5,-689.5 446.5,-689.5 446.5,-670.5 303.5,-670.5"/>
<text text-anchor="middle" x="375" y="-677.5" font-family="Helvetica,sans-Serif" font-size="10.00" fill="#000000">CARLsim::Impl::createGroup</text>
</a>
</g>
</g>
<!-- Node49&#45;&gt;Node50 -->
<g id="edge6" class="edge">
<title>Node49&#45;&gt;Node50</title>
<path fill="none" stroke="#191970" d="M231.275,-680C252.8251,-680 279.1133,-680 303.2861,-680"/>
<polygon fill="#191970" stroke="#191970" points="231.1065,-676.5001 221.1065,-680 231.1065,-683.5001 231.1065,-676.5001"/>
</g>
<!-- Node52 -->
<g id="node9" class="node">
<title>Node52</title>
<g id="a_node9"><a xlink:href="classCARLsim_1_1Impl.html#ab47cbdc62b1d4af153d9f8395cf5e5b1" target="_top" xlink:title="CARLsim::Impl::createGroupLIF">
<polygon fill="#ffffff" stroke="#000000" points="296,-632.5 296,-651.5 454,-651.5 454,-632.5 296,-632.5"/>
<text text-anchor="middle" x="375" y="-639.5" font-family="Helvetica,sans-Serif" font-size="10.00" fill="#000000">CARLsim::Impl::createGroupLIF</text>
</a>
</g>
</g>
<!-- Node51&#45;&gt;Node52 -->
<g id="edge8" class="edge">
<title>Node51&#45;&gt;Node52</title>
<path fill="none" stroke="#191970" d="M238.5552,-642C256.3062,-642 276.5344,-642 295.879,-642"/>
<polygon fill="#191970" stroke="#191970" points="238.4153,-638.5001 228.4153,-642 238.4153,-645.5001 238.4153,-638.5001"/>
</g>
<!-- Node54 -->
<g id="node11" class="node">
<title>Node54</title>
<g id="a_node11"><a xlink:href="classCARLsim_1_1Impl.html#ac79aadf0ac87b2ae34f39ae796ad81a3" target="_top" xlink:title="CARLsim::Impl::setESTDP">
<polygon fill="#ffffff" stroke="#000000" points="306.5,-594.5 306.5,-613.5 443.5,-613.5 443.5,-594.5 306.5,-594.5"/>
<text text-anchor="middle" x="375" y="-601.5" font-family="Helvetica,sans-Serif" font-size="10.00" fill="#000000">CARLsim::Impl::setESTDP</text>
</a>
</g>
</g>
<!-- Node53&#45;&gt;Node54 -->
<g id="edge10" class="edge">
<title>Node53&#45;&gt;Node54</title>
<path fill="none" stroke="#191970" d="M228.1585,-604C251.1271,-604 280.122,-604 306.2675,-604"/>
<polygon fill="#191970" stroke="#191970" points="228.0613,-600.5001 218.0613,-604 228.0612,-607.5001 228.0613,-600.5001"/>
</g>
<!-- Node55 -->
<g id="node12" class="node">
<title>Node55</title>
<g id="a_node12"><a xlink:href="classCARLsim_1_1Impl.html#af69130fee82ddc631a62ed0878c65e9f" target="_top" xlink:title="CARLsim::Impl::setSTDP">
<polygon fill="#ffffff" stroke="#000000" points="516,-594.5 516,-613.5 647,-613.5 647,-594.5 516,-594.5"/>
<text text-anchor="middle" x="581.5" y="-601.5" font-family="Helvetica,sans-Serif" font-size="10.00" fill="#000000">CARLsim::Impl::setSTDP</text>
</a>
</g>
</g>
<!-- Node54&#45;&gt;Node55 -->
<g id="edge11" class="edge">
<title>Node54&#45;&gt;Node55</title>
<path fill="none" stroke="#191970" d="M453.9824,-604C474.4077,-604 496.1762,-604 515.8385,-604"/>
<polygon fill="#191970" stroke="#191970" points="453.7615,-600.5001 443.7615,-604 453.7615,-607.5001 453.7615,-600.5001"/>
</g>
<!-- Node57 -->
<g id="node14" class="node">
<title>Node57</title>
<g id="a_node14"><a xlink:href="classCARLsim.html#ac79aadf0ac87b2ae34f39ae796ad81a3" target="_top" xlink:title="Sets default E&#45;STDP mode and parameters. ">
<polygon fill="#ffffff" stroke="#000000" points="525,-670.5 525,-689.5 638,-689.5 638,-670.5 525,-670.5"/>
<text text-anchor="middle" x="581.5" y="-677.5" font-family="Helvetica,sans-Serif" font-size="10.00" fill="#000000">CARLsim::setESTDP</text>
</a>
</g>
</g>
<!-- Node54&#45;&gt;Node57 -->
<g id="edge13" class="edge">
<title>Node54&#45;&gt;Node57</title>
<path fill="none" stroke="#191970" d="M443.6363,-617.0262C447.9289,-618.7731 452.0899,-620.7539 456,-623 476.173,-634.5881 471.7052,-649.6266 492,-661 501.9769,-666.5912 513.4214,-670.5403 524.7188,-673.3287"/>
<polygon fill="#191970" stroke="#191970" points="444.6694,-613.6779 434.0752,-613.5636 442.2858,-620.2596 444.6694,-613.6779"/>
</g>
<!-- Node58 -->
<g id="node15" class="node">
<title>Node58</title>
<g id="a_node15"><a xlink:href="classCARLsim.html#a675bb0d593722135066c11b0d3d99d50" target="_top" xlink:title="Sets default I&#45;STDP mode and parameters. ">
<polygon fill="#ffffff" stroke="#000000" points="527,-632.5 527,-651.5 636,-651.5 636,-632.5 527,-632.5"/>
<text text-anchor="middle" x="581.5" y="-639.5" font-family="Helvetica,sans-Serif" font-size="10.00" fill="#000000">CARLsim::setISTDP</text>
</a>
</g>
</g>
<!-- Node54&#45;&gt;Node58 -->
<g id="edge14" class="edge">
<title>Node54&#45;&gt;Node58</title>
<path fill="none" stroke="#191970" d="M437.0485,-615.4181C466.5949,-620.8552 501.5261,-627.2832 529.6365,-632.4561"/>
<polygon fill="#191970" stroke="#191970" points="437.3105,-611.9076 426.8421,-613.54 436.0435,-618.792 437.3105,-611.9076"/>
</g>
<!-- Node56 -->
<g id="node13" class="node">
<title>Node56</title>
<g id="a_node13"><a xlink:href="classCARLsim.html#af69130fee82ddc631a62ed0878c65e9f" target="_top" xlink:title="Sets default STDP mode and params. ">
<polygon fill="#ffffff" stroke="#000000" points="735.5,-594.5 735.5,-613.5 841.5,-613.5 841.5,-594.5 735.5,-594.5"/>
<text text-anchor="middle" x="788.5" y="-601.5" font-family="Helvetica,sans-Serif" font-size="10.00" fill="#000000">CARLsim::setSTDP</text>
</a>
</g>
</g>
<!-- Node55&#45;&gt;Node56 -->
<g id="edge12" class="edge">
<title>Node55&#45;&gt;Node56</title>
<path fill="none" stroke="#191970" d="M657.4335,-604C683.2995,-604 711.6431,-604 735.3352,-604"/>
<polygon fill="#191970" stroke="#191970" points="657.2805,-600.5001 647.2805,-604 657.2805,-607.5001 657.2805,-600.5001"/>
</g>
<!-- Node60 -->
<g id="node17" class="node">
<title>Node60</title>
<g id="a_node17"><a xlink:href="classCARLsim_1_1Impl.html#a675bb0d593722135066c11b0d3d99d50" target="_top" xlink:title="CARLsim::Impl::setISTDP">
<polygon fill="#ffffff" stroke="#000000" points="308,-556.5 308,-575.5 442,-575.5 442,-556.5 308,-556.5"/>
<text text-anchor="middle" x="375" y="-563.5" font-family="Helvetica,sans-Serif" font-size="10.00" fill="#000000">CARLsim::Impl::setISTDP</text>
</a>
</g>
</g>
<!-- Node59&#45;&gt;Node60 -->
<g id="edge16" class="edge">
<title>Node59&#45;&gt;Node60</title>
<path fill="none" stroke="#191970" d="M226.405,-566C250.1048,-566 280.6489,-566 307.8751,-566"/>
<polygon fill="#191970" stroke="#191970" points="226.3662,-562.5001 216.3661,-566 226.3661,-569.5001 226.3662,-562.5001"/>
</g>
<!-- Node61 -->
<g id="node18" class="node">
<title>Node61</title>
<g id="a_node18"><a xlink:href="classCARLsim.html#a30b0193a57cdc6ae3a2aa4cb9e3bc214" target="_top" xlink:title="Sets I&#45;STDP with the exponential curve. ">
<polygon fill="#ffffff" stroke="#000000" points="527,-556.5 527,-575.5 636,-575.5 636,-556.5 527,-556.5"/>
<text text-anchor="middle" x="581.5" y="-563.5" font-family="Helvetica,sans-Serif" font-size="10.00" fill="#000000">CARLsim::setISTDP</text>
</a>
</g>
</g>
<!-- Node60&#45;&gt;Node61 -->
<g id="edge17" class="edge">
<title>Node60&#45;&gt;Node61</title>
<path fill="none" stroke="#191970" d="M452.1684,-566C476.9977,-566 503.9804,-566 526.8445,-566"/>
<polygon fill="#191970" stroke="#191970" points="452.0447,-562.5001 442.0446,-566 452.0446,-569.5001 452.0447,-562.5001"/>
</g>
<!-- Node63 -->
<g id="node20" class="node">
<title>Node63</title>
<g id="a_node20"><a xlink:href="classCARLsim_1_1Impl.html#ad423c8d8f74e6369615db0d1af700c99" target="_top" xlink:title="CARLsim::Impl::setGroupMonitor">
<polygon fill="#ffffff" stroke="#000000" points="294,-518.5 294,-537.5 456,-537.5 456,-518.5 294,-518.5"/>
<text text-anchor="middle" x="375" y="-525.5" font-family="Helvetica,sans-Serif" font-size="10.00" fill="#000000">CARLsim::Impl::setGroupMonitor</text>
</a>
</g>
</g>
<!-- Node62&#45;&gt;Node63 -->
<g id="edge19" class="edge">
<title>Node62&#45;&gt;Node63</title>
<path fill="none" stroke="#191970" d="M240.8322,-528C257.4111,-528 275.9801,-528 293.8938,-528"/>
<polygon fill="#191970" stroke="#191970" points="240.7904,-524.5001 230.7904,-528 240.7903,-531.5001 240.7904,-524.5001"/>
</g>
<!-- Node64 -->
<g id="node21" class="node">
<title>Node64</title>
<g id="a_node21"><a xlink:href="classCARLsim.html#a8ea5d069c849b257d8de63aa482f8837" target="_top" xlink:title="Sets a group monitor for a group, custom GroupMonitor class. ">
<polygon fill="#ffffff" stroke="#000000" points="513,-518.5 513,-537.5 650,-537.5 650,-518.5 513,-518.5"/>
<text text-anchor="middle" x="581.5" y="-525.5" font-family="Helvetica,sans-Serif" font-size="10.00" fill="#000000">CARLsim::setGroupMonitor</text>
</a>
</g>
</g>
<!-- Node63&#45;&gt;Node64 -->
<g id="edge20" class="edge">
<title>Node63&#45;&gt;Node64</title>
<path fill="none" stroke="#191970" d="M466.2169,-528C481.8363,-528 497.8281,-528 512.7362,-528"/>
<polygon fill="#191970" stroke="#191970" points="466.0216,-524.5001 456.0216,-528 466.0216,-531.5001 466.0216,-524.5001"/>
</g>
<!-- Node66 -->
<g id="node23" class="node">
<title>Node66</title>
<g id="a_node23"><a xlink:href="classCARLsim_1_1Impl.html#a012dcdbbe9769131d98ddf680743bff3" target="_top" xlink:title="CARLsim::Impl::setConnection\lMonitor">
<polygon fill="#ffffff" stroke="#000000" points="712,-488 712,-518 865,-518 865,-488 712,-488"/>
<text text-anchor="start" x="720" y="-506" font-family="Helvetica,sans-Serif" font-size="10.00" fill="#000000">CARLsim::Impl::setConnection</text>
<text text-anchor="middle" x="788.5" y="-495" font-family="Helvetica,sans-Serif" font-size="10.00" fill="#000000">Monitor</text>
</a>
</g>
</g>
<!-- Node65&#45;&gt;Node66 -->
<g id="edge22" class="edge">
<title>Node65&#45;&gt;Node66</title>
<path fill="none" stroke="#191970" d="M647.6621,-494.1551C668.093,-495.4382 690.7654,-496.8621 711.8425,-498.1858"/>
<polygon fill="#191970" stroke="#191970" points="647.7169,-490.6517 637.5172,-493.518 647.2781,-497.638 647.7169,-490.6517"/>
</g>
<!-- Node67 -->
<g id="node24" class="node">
<title>Node67</title>
<g id="a_node24"><a xlink:href="classCARLsim.html#a0f4f273689484d0ceaa5a40f64fc82fc" target="_top" xlink:title="Sets a connection monitor for a group, custom ConnectionMonitor class. ">
<polygon fill="#ffffff" stroke="#000000" points="922,-493.5 922,-512.5 1083,-512.5 1083,-493.5 922,-493.5"/>
<text text-anchor="middle" x="1002.5" y="-500.5" font-family="Helvetica,sans-Serif" font-size="10.00" fill="#000000">CARLsim::setConnectionMonitor</text>
</a>
</g>
</g>
<!-- Node66&#45;&gt;Node67 -->
<g id="edge23" class="edge">
<title>Node66&#45;&gt;Node67</title>
<path fill="none" stroke="#191970" d="M875.1577,-503C890.5288,-503 906.4814,-503 921.6828,-503"/>
<polygon fill="#191970" stroke="#191970" points="875.1545,-499.5001 865.1545,-503 875.1544,-506.5001 875.1545,-499.5001"/>
</g>
<!-- Node69 -->
<g id="node26" class="node">
<title>Node69</title>
<g id="a_node26"><a xlink:href="classCARLsim_1_1Impl.html#a52f149e224abff772962dea6680398e2" target="_top" xlink:title="CARLsim::Impl::getNumSynaptic\lConnections">
<polygon fill="#ffffff" stroke="#000000" points="707,-341 707,-371 870,-371 870,-341 707,-341"/>
<text text-anchor="start" x="715" y="-359" font-family="Helvetica,sans-Serif" font-size="10.00" fill="#000000">CARLsim::Impl::getNumSynaptic</text>
<text text-anchor="middle" x="788.5" y="-348" font-family="Helvetica,sans-Serif" font-size="10.00" fill="#000000">Connections</text>
</a>
</g>
</g>
<!-- Node68&#45;&gt;Node69 -->
<g id="edge25" class="edge">
<title>Node68&#45;&gt;Node69</title>
<path fill="none" stroke="#191970" d="M268.2519,-390.5393C383.4911,-382.8886 591.7489,-369.0623 706.7287,-361.4288"/>
<polygon fill="#191970" stroke="#191970" points="267.8233,-387.06 258.0771,-391.2148 268.2871,-394.0446 267.8233,-387.06"/>
</g>
<!-- Node71 -->
<g id="node28" class="node">
<title>Node71</title>
<g id="a_node28"><a xlink:href="classConnectionMonitorCore.html#a02fd73d861ef2e4aabb38c0c9ff82947" target="_top" xlink:title="ConnectionMonitorCore\l::init">
<polygon fill="#ffffff" stroke="#000000" points="315.5,-412 315.5,-442 434.5,-442 434.5,-412 315.5,-412"/>
<text text-anchor="start" x="323.5" y="-430" font-family="Helvetica,sans-Serif" font-size="10.00" fill="#000000">ConnectionMonitorCore</text>
<text text-anchor="middle" x="375" y="-419" font-family="Helvetica,sans-Serif" font-size="10.00" fill="#000000">::init</text>
</a>
</g>
</g>
<!-- Node68&#45;&gt;Node71 -->
<g id="edge27" class="edge">
<title>Node68&#45;&gt;Node71</title>
<path fill="none" stroke="#191970" d="M254.0122,-407.1554C274.1169,-410.453 295.9618,-414.0361 315.4865,-417.2385"/>
<polygon fill="#191970" stroke="#191970" points="254.4253,-403.6765 243.9907,-405.5117 253.2923,-410.5842 254.4253,-403.6765"/>
</g>
<!-- Node81 -->
<g id="node33" class="node">
<title>Node81</title>
<g id="a_node33"><a xlink:href="classSNN.html#a14efb66377e70d7f0f4596c223fbc5cc" target="_top" xlink:title="getNumConnections">
<polygon fill="#ffffff" stroke="#000000" points="322,-316.5 322,-335.5 428,-335.5 428,-316.5 322,-316.5"/>
<text text-anchor="middle" x="375" y="-323.5" font-family="Helvetica,sans-Serif" font-size="10.00" fill="#000000">getNumConnections</text>
</a>
</g>
</g>
<!-- Node68&#45;&gt;Node81 -->
<g id="edge34" class="edge">
<title>Node68&#45;&gt;Node81</title>
<path fill="none" stroke="#191970" d="M215.6689,-382.2747C237.1638,-372.5997 267.0599,-359.6923 294,-350 308.7669,-344.6873 325.3401,-339.6229 339.6299,-335.5274"/>
<polygon fill="#191970" stroke="#191970" points="214.0849,-379.1499 206.4248,-386.4693 216.9774,-385.5243 214.0849,-379.1499"/>
</g>
<!-- Node70 -->
<g id="node27" class="node">
<title>Node70</title>
<g id="a_node27"><a xlink:href="classCARLsim.html#a52f149e224abff772962dea6680398e2" target="_top" xlink:title="returns the number of connections associated with a connection ID ">
<polygon fill="#ffffff" stroke="#000000" points="906,-346.5 906,-365.5 1099,-365.5 1099,-346.5 906,-346.5"/>
<text text-anchor="middle" x="1002.5" y="-353.5" font-family="Helvetica,sans-Serif" font-size="10.00" fill="#000000">CARLsim::getNumSynapticConnections</text>
</a>
</g>
</g>
<!-- Node69&#45;&gt;Node70 -->
<g id="edge26" class="edge">
<title>Node69&#45;&gt;Node70</title>
<path fill="none" stroke="#191970" d="M880.2488,-356C888.7036,-356 897.2881,-356 905.7853,-356"/>
<polygon fill="#191970" stroke="#191970" points="880.0147,-352.5001 870.0147,-356 880.0147,-359.5001 880.0147,-352.5001"/>
</g>
<!-- Node71&#45;&gt;Node65 -->
<g id="edge33" class="edge">
<title>Node71&#45;&gt;Node65</title>
<path fill="none" stroke="#191970" d="M427.7152,-445.3156C447.7579,-452.0831 470.8535,-459.6465 492,-466 508.9475,-471.0919 527.8552,-476.2391 543.9096,-480.454"/>
<polygon fill="#191970" stroke="#191970" points="428.7375,-441.9665 418.1431,-442.0661 426.4872,-448.595 428.7375,-441.9665"/>
</g>
<!-- Node72 -->
<g id="node29" class="node">
<title>Node72</title>
<g id="a_node29"><a xlink:href="classConnectionMonitorCore.html#ab64d9ff17fece61e850660bdd4ca00d2" target="_top" xlink:title="ConnectionMonitorCore\l::takeSnapshot">
<polygon fill="#ffffff" stroke="#000000" points="522,-393 522,-423 641,-423 641,-393 522,-393"/>
<text text-anchor="start" x="530" y="-411" font-family="Helvetica,sans-Serif" font-size="10.00" fill="#000000">ConnectionMonitorCore</text>
<text text-anchor="middle" x="581.5" y="-400" font-family="Helvetica,sans-Serif" font-size="10.00" fill="#000000">::takeSnapshot</text>
</a>
</g>
</g>
<!-- Node71&#45;&gt;Node72 -->
<g id="edge28" class="edge">
<title>Node71&#45;&gt;Node72</title>
<path fill="none" stroke="#191970" d="M444.8834,-420.5701C469.8984,-418.2684 497.8412,-415.6974 521.9059,-413.4832"/>
<polygon fill="#191970" stroke="#191970" points="444.3656,-417.1028 434.7284,-421.5044 445.007,-424.0734 444.3656,-417.1028"/>
</g>
<!-- Node74 -->
<g id="node31" class="node">
<title>Node74</title>
<g id="a_node31"><a xlink:href="classConnectionMonitorCore.html#acf625cff31a558c7d6786773d0c2693c" target="_top" xlink:title="ConnectionMonitorCore\l::getUpdateTimeIntervalSec">
<polygon fill="#ffffff" stroke="#000000" points="719,-439 719,-469 858,-469 858,-439 719,-439"/>
<text text-anchor="start" x="727" y="-457" font-family="Helvetica,sans-Serif" font-size="10.00" fill="#000000">ConnectionMonitorCore</text>
<text text-anchor="middle" x="788.5" y="-446" font-family="Helvetica,sans-Serif" font-size="10.00" fill="#000000">::getUpdateTimeIntervalSec</text>
</a>
</g>
</g>
<!-- Node71&#45;&gt;Node74 -->
<g id="edge32" class="edge">
<title>Node71&#45;&gt;Node74</title>
<path fill="none" stroke="#191970" d="M444.6766,-431.5496C520.9531,-436.5302 642.533,-444.4689 718.8134,-449.4497"/>
<polygon fill="#191970" stroke="#191970" points="444.8917,-428.0563 434.6848,-430.8972 444.4355,-435.0414 444.8917,-428.0563"/>
</g>
<!-- Node73 -->
<g id="node30" class="node">
<title>Node73</title>
<g id="a_node30"><a xlink:href="classConnectionMonitor.html#ab64d9ff17fece61e850660bdd4ca00d2" target="_top" xlink:title="Takes a snapshot of the current weight state. ">
<polygon fill="#ffffff" stroke="#000000" points="736.5,-390 736.5,-420 840.5,-420 840.5,-390 736.5,-390"/>
<text text-anchor="start" x="744.5" y="-408" font-family="Helvetica,sans-Serif" font-size="10.00" fill="#000000">ConnectionMonitor::</text>
<text text-anchor="middle" x="788.5" y="-397" font-family="Helvetica,sans-Serif" font-size="10.00" fill="#000000">takeSnapshot</text>
</a>
</g>
</g>
<!-- Node72&#45;&gt;Node73 -->
<g id="edge29" class="edge">
<title>Node72&#45;&gt;Node73</title>
<path fill="none" stroke="#191970" d="M651.1721,-406.9903C679.0215,-406.5866 710.5423,-406.1298 736.355,-405.7557"/>
<polygon fill="#191970" stroke="#191970" points="651.0435,-403.4917 641.0953,-407.1363 651.145,-410.4909 651.0435,-403.4917"/>
</g>
<!-- Node72&#45;&gt;Node74 -->
<g id="edge30" class="edge">
<title>Node72&#45;&gt;Node74</title>
<path fill="none" stroke="#191970" d="M650.941,-423.4313C673.5152,-428.4478 698.5224,-434.005 720.956,-438.9902"/>
<polygon fill="#191970" stroke="#191970" points="651.6164,-419.9961 641.0953,-421.2434 650.0979,-426.8294 651.6164,-419.9961"/>
</g>
<!-- Node75 -->
<g id="node32" class="node">
<title>Node75</title>
<g id="a_node32"><a xlink:href="classSNN.html#a68862cb4e6c749219c20c38aeab06986" target="_top" xlink:title="polls connection weights ">
<polygon fill="#ffffff" stroke="#ff0000" points="938.5,-444.5 938.5,-463.5 1066.5,-463.5 1066.5,-444.5 938.5,-444.5"/>
<text text-anchor="middle" x="1002.5" y="-451.5" font-family="Helvetica,sans-Serif" font-size="10.00" fill="#000000">updateConnectionMonitor</text>
</a>
</g>
</g>
<!-- Node74&#45;&gt;Node75 -->
<g id="edge31" class="edge">
<title>Node74&#45;&gt;Node75</title>
<path fill="none" stroke="#191970" d="M868.3765,-454C891.4297,-454 916.2812,-454 938.2539,-454"/>
<polygon fill="#191970" stroke="#191970" points="868.2755,-450.5001 858.2755,-454 868.2755,-457.5001 868.2755,-450.5001"/>
</g>
<!-- Node82 -->
<g id="node34" class="node">
<title>Node82</title>
<g id="a_node34"><a xlink:href="classCARLsim_1_1Impl.html#a14efb66377e70d7f0f4596c223fbc5cc" target="_top" xlink:title="CARLsim::Impl::getNumConnections">
<polygon fill="#ffffff" stroke="#ff0000" points="492,-278.5 492,-297.5 671,-297.5 671,-278.5 492,-278.5"/>
<text text-anchor="middle" x="581.5" y="-285.5" font-family="Helvetica,sans-Serif" font-size="10.00" fill="#000000">CARLsim::Impl::getNumConnections</text>
</a>
</g>
</g>
<!-- Node81&#45;&gt;Node82 -->
<g id="edge35" class="edge">
<title>Node81&#45;&gt;Node82</title>
<path fill="none" stroke="#191970" d="M437.0485,-314.5819C466.5949,-309.1448 501.5261,-302.7168 529.6365,-297.5439"/>
<polygon fill="#191970" stroke="#191970" points="436.0435,-311.208 426.8421,-316.46 437.3105,-318.0924 436.0435,-311.208"/>
</g>
<!-- Node98 -->
<g id="node39" class="node">
<title>Node98</title>
<g id="a_node39"><a xlink:href="classSNN.html#af67a432c859556cff7d6b1d59638ad01" target="_top" xlink:title="sets the weight value of a specific synapse ">
<polygon fill="#ffffff" stroke="#ff0000" points="551,-316.5 551,-335.5 612,-335.5 612,-316.5 551,-316.5"/>
<text text-anchor="middle" x="581.5" y="-323.5" font-family="Helvetica,sans-Serif" font-size="10.00" fill="#000000">setWeight</text>
</a>
</g>
</g>
<!-- Node81&#45;&gt;Node98 -->
<g id="edge41" class="edge">
<title>Node81&#45;&gt;Node98</title>
<path fill="none" stroke="#191970" d="M438.4804,-326C475.8467,-326 521.416,-326 550.9226,-326"/>
<polygon fill="#191970" stroke="#191970" points="438.1789,-322.5001 428.1789,-326 438.1788,-329.5001 438.1789,-322.5001"/>
</g>
<!-- Node82&#45;&gt;Node69 -->
<g id="edge38" class="edge">
<title>Node82&#45;&gt;Node69</title>
<path fill="none" stroke="#191970" d="M651.8368,-300.2534C658.4185,-302.1964 664.9018,-304.4318 671,-307 688.7222,-314.4634 689.6251,-322.7603 707,-331 714.7561,-334.6782 723.1811,-337.9729 731.5739,-340.8692"/>
<polygon fill="#191970" stroke="#191970" points="652.7256,-296.868 642.1569,-297.6111 650.8823,-303.6209 652.7256,-296.868"/>
</g>
<!-- Node83 -->
<g id="node35" class="node">
<title>Node83</title>
<g id="a_node35"><a xlink:href="classCARLsim_1_1Impl.html#af71e7773ae33e0f23e91ff46d014e1e8" target="_top" xlink:title="CARLsim::Impl::biasWeights">
<polygon fill="#ffffff" stroke="#ff0000" points="716.5,-302.5 716.5,-321.5 860.5,-321.5 860.5,-302.5 716.5,-302.5"/>
<text text-anchor="middle" x="788.5" y="-309.5" font-family="Helvetica,sans-Serif" font-size="10.00" fill="#000000">CARLsim::Impl::biasWeights</text>
</a>
</g>
</g>
<!-- Node82&#45;&gt;Node83 -->
<g id="edge36" class="edge">
<title>Node82&#45;&gt;Node83</title>
<path fill="none" stroke="#191970" d="M673.8754,-298.7102C688.0642,-300.3553 702.535,-302.033 716.2048,-303.6179"/>
<polygon fill="#191970" stroke="#191970" points="673.9458,-295.195 663.6092,-297.5199 673.1395,-302.1484 673.9458,-295.195"/>
</g>
<!-- Node85 -->
<g id="node36" class="node">
<title>Node85</title>
<g id="a_node36"><a xlink:href="classCARLsim_1_1Impl.html#a7cc8c47ac0dac59e837ea3b0d229bec5" target="_top" xlink:title="CARLsim::Impl::scaleWeights">
<polygon fill="#ffffff" stroke="#ff0000" points="714,-264.5 714,-283.5 863,-283.5 863,-264.5 714,-264.5"/>
<text text-anchor="middle" x="788.5" y="-271.5" font-family="Helvetica,sans-Serif" font-size="10.00" fill="#000000">CARLsim::Impl::scaleWeights</text>
</a>
</g>
</g>
<!-- Node82&#45;&gt;Node85 -->
<g id="edge37" class="edge">
<title>Node82&#45;&gt;Node85</title>
<path fill="none" stroke="#191970" d="M681.1988,-281.2571C692.2404,-280.5103 703.3398,-279.7596 713.9933,-279.0391"/>
<polygon fill="#191970" stroke="#191970" points="680.8303,-277.7739 671.0893,-281.9408 681.3027,-284.758 680.8303,-277.7739"/>
</g>
<!-- Node93 -->
<g id="node37" class="node">
<title>Node93</title>
<g id="a_node37"><a xlink:href="classCARLsim_1_1Impl.html#a4afa2f85f5939e81ec45c7760e23d932" target="_top" xlink:title="CARLsim::Impl::getWeight\lRange">
<polygon fill="#ffffff" stroke="#000000" points="721.5,-215 721.5,-245 855.5,-245 855.5,-215 721.5,-215"/>
<text text-anchor="start" x="729.5" y="-233" font-family="Helvetica,sans-Serif" font-size="10.00" fill="#000000">CARLsim::Impl::getWeight</text>
<text text-anchor="middle" x="788.5" y="-222" font-family="Helvetica,sans-Serif" font-size="10.00" fill="#000000">Range</text>
</a>
</g>
</g>
<!-- Node82&#45;&gt;Node93 -->
<g id="edge39" class="edge">
<title>Node82&#45;&gt;Node93</title>
<path fill="none" stroke="#191970" d="M627.5708,-275.8317C641.5367,-272.0929 656.9091,-267.9275 671,-264 692.7861,-257.9276 716.781,-251.0232 737.3766,-245.0301"/>
<polygon fill="#191970" stroke="#191970" points="626.4478,-272.5088 617.6885,-278.4691 628.2529,-279.2721 626.4478,-272.5088"/>
</g>
<!-- Node94 -->
<g id="node38" class="node">
<title>Node94</title>
<g id="a_node38"><a xlink:href="classCARLsim.html#a4afa2f85f5939e81ec45c7760e23d932" target="_top" xlink:title="returns the RangeWeight struct for a specific connection ID ">
<polygon fill="#ffffff" stroke="#ff0000" points="933.5,-220.5 933.5,-239.5 1071.5,-239.5 1071.5,-220.5 933.5,-220.5"/>
<text text-anchor="middle" x="1002.5" y="-227.5" font-family="Helvetica,sans-Serif" font-size="10.00" fill="#000000">CARLsim::getWeightRange</text>
</a>
</g>
</g>
<!-- Node93&#45;&gt;Node94 -->
<g id="edge40" class="edge">
<title>Node93&#45;&gt;Node94</title>
<path fill="none" stroke="#191970" d="M865.65,-230C887.7887,-230 911.7805,-230 933.4012,-230"/>
<polygon fill="#191970" stroke="#191970" points="865.6238,-226.5001 855.6238,-230 865.6237,-233.5001 865.6238,-226.5001"/>
</g>
<!-- Node99&#45;&gt;Node93 -->
<g id="edge43" class="edge">
<title>Node99&#45;&gt;Node93</title>
<path fill="none" stroke="#191970" d="M241.0748,-265.435C351.8863,-258.2621 601.4186,-242.1098 721.4781,-234.3383"/>
<polygon fill="#191970" stroke="#191970" points="240.5462,-261.9618 230.7932,-266.1005 240.9984,-268.9472 240.5462,-261.9618"/>
</g>
<!-- Node100 -->
<g id="node41" class="node">
<title>Node100</title>
<g id="a_node41"><a xlink:href="classSNN.html#a1234b840b62d280e9131486f4fad0d93" target="_top" xlink:title="temporary getter to return pointer to stpx[] ">
<polygon fill="#ffffff" stroke="#000000" points="347.5,-221.5 347.5,-240.5 402.5,-240.5 402.5,-221.5 347.5,-221.5"/>
<text text-anchor="middle" x="375" y="-228.5" font-family="Helvetica,sans-Serif" font-size="10.00" fill="#000000">getSTPx</text>
</a>
</g>
</g>
<!-- Node99&#45;&gt;Node100 -->
<g id="edge44" class="edge">
<title>Node99&#45;&gt;Node100</title>
<path fill="none" stroke="#191970" d="M240.8648,-257.969C275.838,-250.9373 319.6567,-242.1272 347.4988,-236.5293"/>
<polygon fill="#191970" stroke="#191970" points="239.9042,-254.592 230.7904,-259.9945 241.2841,-261.4546 239.9042,-254.592"/>
</g>
<!-- Node103 -->
<g id="node44" class="node">
<title>Node103</title>
<g id="a_node44"><a xlink:href="classCARLsim_1_1Impl.html#aa9a9c5646dd11beb60fcf70d2216024a" target="_top" xlink:title="CARLsim::Impl::isGroupWith\lHomeostasis">
<polygon fill="#ffffff" stroke="#000000" points="303,-172 303,-202 447,-202 447,-172 303,-172"/>
<text text-anchor="start" x="311" y="-190" font-family="Helvetica,sans-Serif" font-size="10.00" fill="#000000">CARLsim::Impl::isGroupWith</text>
<text text-anchor="middle" x="375" y="-179" font-family="Helvetica,sans-Serif" font-size="10.00" fill="#000000">Homeostasis</text>
</a>
</g>
</g>
<!-- Node102&#45;&gt;Node103 -->
<g id="edge47" class="edge">
<title>Node102&#45;&gt;Node103</title>
<path fill="none" stroke="#191970" d="M260.3044,-187C274.2874,-187 288.8894,-187 302.8067,-187"/>
<polygon fill="#191970" stroke="#191970" points="260.2505,-183.5001 250.2505,-187 260.2505,-190.5001 260.2505,-183.5001"/>
</g>
<!-- Node107 -->
<g id="node47" class="node">
<title>Node107</title>
<g id="a_node47"><a xlink:href="classSNN.html#a0ef541007b0004e308c89f2f326fb328" target="_top" xlink:title="isDopaminergicGroup">
<polygon fill="#ffffff" stroke="#000000" points="320,-133.5 320,-152.5 430,-152.5 430,-133.5 320,-133.5"/>
<text text-anchor="middle" x="375" y="-140.5" font-family="Helvetica,sans-Serif" font-size="10.00" fill="#000000">isDopaminergicGroup</text>
</a>
</g>
</g>
<!-- Node102&#45;&gt;Node107 -->
<g id="edge50" class="edge">
<title>Node102&#45;&gt;Node107</title>
<path fill="none" stroke="#191970" d="M237.0147,-175.1236C267.4599,-168.0358 305.606,-159.1552 334.0699,-152.5287"/>
<polygon fill="#191970" stroke="#191970" points="235.9561,-171.7763 227.0102,-177.4527 237.5434,-178.594 235.9561,-171.7763"/>
</g>
<!-- Node104 -->
<g id="node45" class="node">
<title>Node104</title>
<g id="a_node45"><a xlink:href="classCARLsim_1_1Impl.html#aef4d35935c52e55a957aa96e4d6218f6" target="_top" xlink:title="CARLsim::Impl::setHomeoBase\lFiringRate">
<polygon fill="#ffffff" stroke="#ff0000" points="502.5,-140 502.5,-170 660.5,-170 660.5,-140 502.5,-140"/>
<text text-anchor="start" x="510.5" y="-158" font-family="Helvetica,sans-Serif" font-size="10.00" fill="#000000">CARLsim::Impl::setHomeoBase</text>
<text text-anchor="middle" x="581.5" y="-147" font-family="Helvetica,sans-Serif" font-size="10.00" fill="#000000">FiringRate</text>
</a>
</g>
</g>
<!-- Node103&#45;&gt;Node104 -->
<g id="edge48" class="edge">
<title>Node103&#45;&gt;Node104</title>
<path fill="none" stroke="#191970" d="M457.3604,-174.2371C472.1631,-171.9432 487.5637,-169.5567 502.2753,-167.2769"/>
<polygon fill="#191970" stroke="#191970" points="456.5697,-170.8178 447.2237,-175.808 457.6417,-177.7352 456.5697,-170.8178"/>
</g>
<!-- Node106 -->
<g id="node46" class="node">
<title>Node106</title>
<g id="a_node46"><a xlink:href="classCARLsim.html#aa9a9c5646dd11beb60fcf70d2216024a" target="_top" xlink:title="Returns whether a group has homeostasis enabled. ">
<polygon fill="#ffffff" stroke="#000000" points="493,-189.5 493,-208.5 670,-208.5 670,-189.5 493,-189.5"/>
<text text-anchor="middle" x="581.5" y="-196.5" font-family="Helvetica,sans-Serif" font-size="10.00" fill="#000000">CARLsim::isGroupWithHomeostasis</text>
</a>
</g>
</g>
<!-- Node103&#45;&gt;Node106 -->
<g id="edge49" class="edge">
<title>Node103&#45;&gt;Node106</title>
<path fill="none" stroke="#191970" d="M457.3911,-191.7879C469.0883,-192.4676 481.1581,-193.169 492.9659,-193.8552"/>
<polygon fill="#191970" stroke="#191970" points="457.4099,-188.2831 447.2237,-191.197 457.0038,-195.2714 457.4099,-188.2831"/>
</g>
<!-- Node108&#45;&gt;Node101 -->
<g id="edge53" class="edge">
<title>Node108&#45;&gt;Node101</title>
<path fill="none" stroke="#191970" d="M233.3105,-50.2728C311.9026,-54.0484 467.9754,-61.5462 541.4646,-65.0767"/>
<polygon fill="#191970" stroke="#191970" points="233.3641,-46.7715 223.2077,-49.7875 233.0282,-53.7634 233.3641,-46.7715"/>
</g>
<!-- Node109 -->
<g id="node49" class="node">
<title>Node109</title>
<g id="a_node49"><a xlink:href="classSNN.html#a3a42619b35349cd8d68f2ea21c865e36" target="_top" xlink:title="getConductanceConfig">
<polygon fill="#ffffff" stroke="#000000" points="523.5,-.5 523.5,-19.5 639.5,-19.5 639.5,-.5 523.5,-.5"/>
<text text-anchor="middle" x="581.5" y="-7.5" font-family="Helvetica,sans-Serif" font-size="10.00" fill="#000000">getConductanceConfig</text>
</a>
</g>
</g>
<!-- Node108&#45;&gt;Node109 -->
<g id="edge52" class="edge">
<title>Node108&#45;&gt;Node109</title>
<path fill="none" stroke="#191970" d="M215.9957,-34.3557C237.2711,-25.4529 266.768,-14.6511 294,-10 372.5982,3.4241 465.0562,.0943 523.4697,-4.3072"/>
<polygon fill="#191970" stroke="#191970" points="214.3567,-31.2503 206.5477,-38.4107 217.1175,-37.6829 214.3567,-31.2503"/>
</g>
<!-- Node110 -->
<g id="node50" class="node">
<title>Node110</title>
<g id="a_node50"><a xlink:href="classSNN.html#aa1487d5e850f107e5b6890cf6933b7c1" target="_top" xlink:title="isPoint3DinRF">
<polygon fill="#ffffff" stroke="#000000" points="335,-19.5 335,-38.5 415,-38.5 415,-19.5 335,-19.5"/>
<text text-anchor="middle" x="375" y="-26.5" font-family="Helvetica,sans-Serif" font-size="10.00" fill="#000000">isPoint3DinRF</text>
</a>
</g>
</g>
<!-- Node108&#45;&gt;Node110 -->
<g id="edge54" class="edge">
<title>Node108&#45;&gt;Node110</title>
<path fill="none" stroke="#191970" d="M233.5501,-43.2198C264.7772,-40.0806 305.1739,-36.0196 334.7969,-33.0416"/>
<polygon fill="#191970" stroke="#191970" points="232.94,-39.7634 223.3403,-44.2462 233.6403,-46.7283 232.94,-39.7634"/>
</g>
<!-- Node110&#45;&gt;Node101 -->
<g id="edge56" class="edge">
<title>Node110&#45;&gt;Node101</title>
<path fill="none" stroke="#191970" d="M425.4965,-38.2923C461.1234,-44.8484 508.208,-53.5129 541.2962,-59.6017"/>
<polygon fill="#191970" stroke="#191970" points="425.7738,-34.7847 415.3055,-36.417 424.5069,-41.6691 425.7738,-34.7847"/>
</g>
<!-- Node110&#45;&gt;Node109 -->
<g id="edge55" class="edge">
<title>Node110&#45;&gt;Node109</title>
<path fill="none" stroke="#191970" d="M425.4137,-24.3615C454.9924,-21.6399 492.4905,-18.1897 523.3191,-15.3532"/>
<polygon fill="#191970" stroke="#191970" points="424.9427,-20.8899 415.3055,-25.2915 425.5841,-27.8605 424.9427,-20.8899"/>
</g>
</g>
</svg>
