<?xml version="1.0" encoding="UTF-8" standalone="no"?>
<!DOCTYPE svg PUBLIC "-//W3C//DTD SVG 1.1//EN"
 "http://www.w3.org/Graphics/SVG/1.1/DTD/svg11.dtd">
<!-- Generated by graphviz version 2.40.1 (20161225.0304)
 -->
<!-- Title: setExternalCurrent Pages: 1 -->
<svg width="465pt" height="39pt"
 viewBox="0.00 0.00 465.00 39.00" xmlns="http://www.w3.org/2000/svg" xmlns:xlink="http://www.w3.org/1999/xlink">
<g id="graph0" class="graph" transform="scale(1 1) rotate(0) translate(4 35)">
<title>setExternalCurrent</title>
<polygon fill="#ffffff" stroke="transparent" points="-4,4 -4,-35 461,-35 461,4 -4,4"/>
<!-- Node1752 -->
<g id="node1" class="node">
<title>Node1752</title>
<polygon fill="#bfbfbf" stroke="#000000" points="0,-6 0,-25 98,-25 98,-6 0,-6"/>
<text text-anchor="middle" x="49" y="-13" font-family="Helvetica,sans-Serif" font-size="10.00" fill="#000000">setExternalCurrent</text>
</g>
<!-- Node1753 -->
<g id="node2" class="node">
<title>Node1753</title>
<g id="a_node2"><a xlink:href="classCARLsim_1_1Impl.html#a875708f5a61243433e23e99ce4d6aea1" target="_top" xlink:title="CARLsim::Impl::setExternal\lCurrent">
<polygon fill="#ffffff" stroke="#000000" points="134,-.5 134,-30.5 274,-30.5 274,-.5 134,-.5"/>
<text text-anchor="start" x="142" y="-18.5" font-family="Helvetica,sans-Serif" font-size="10.00" fill="#000000">CARLsim::Impl::setExternal</text>
<text text-anchor="middle" x="204" y="-7.5" font-family="Helvetica,sans-Serif" font-size="10.00" fill="#000000">Current</text>
</a>
</g>
</g>
<!-- Node1752&#45;&gt;Node1753 -->
<g id="edge1" class="edge">
<title>Node1752&#45;&gt;Node1753</title>
<path fill="none" stroke="#191970" d="M108.0963,-15.5C116.4859,-15.5 125.1808,-15.5 133.7562,-15.5"/>
<polygon fill="#191970" stroke="#191970" points="108.043,-12.0001 98.043,-15.5 108.0429,-19.0001 108.043,-12.0001"/>
</g>
<!-- Node1754 -->
<g id="node3" class="node">
<title>Node1754</title>
<g id="a_node3"><a xlink:href="classCARLsim.html#a875708f5a61243433e23e99ce4d6aea1" target="_top" xlink:title="Sets the amount of current (mA) to inject into a group. ">
<polygon fill="#ffffff" stroke="#000000" points="310,-6 310,-25 457,-25 457,-6 310,-6"/>
<text text-anchor="middle" x="383.5" y="-13" font-family="Helvetica,sans-Serif" font-size="10.00" fill="#000000">CARLsim::setExternalCurrent</text>
</a>
</g>
</g>
<!-- Node1753&#45;&gt;Node1754 -->
<g id="edge2" class="edge">
<title>Node1753&#45;&gt;Node1754</title>
<path fill="none" stroke="#191970" d="M284.4142,-15.5C292.8744,-15.5 301.4465,-15.5 309.8253,-15.5"/>
<polygon fill="#191970" stroke="#191970" points="284.1706,-12.0001 274.1706,-15.5 284.1706,-19.0001 284.1706,-12.0001"/>
</g>
</g>
</svg>
