<?xml version="1.0" encoding="UTF-8" standalone="no"?>
<!DOCTYPE svg PUBLIC "-//W3C//DTD SVG 1.1//EN"
 "http://www.w3.org/Graphics/SVG/1.1/DTD/svg11.dtd">
<!-- Generated by graphviz version 2.40.1 (20161225.0304)
 -->
<!-- Title: getAllFiringRatesSorted Pages: 1 -->
<!--zoomable 474 -->
<svg id="main" version="1.1" xmlns="http://www.w3.org/2000/svg" xmlns:xlink="http://www.w3.org/1999/xlink" xml:space="preserve" onload="init(evt)">
<style type="text/css"><![CDATA[
.edge:hover path { stroke: red; }
.edge:hover polygon { stroke: red; fill: red; }
]]></style>
<script type="text/javascript"><![CDATA[
var edges = document.getElementsByTagName('g');
if (edges && edges.length) {
  for (var i=0;i<edges.length;i++) {
    if (edges[i].id.substr(0,4)=='edge') {
      edges[i].setAttribute('class','edge');
    }
  }
}
]]></script>
        <defs>
                <circle id="rim" cx="0" cy="0" r="7"/>
                <circle id="rim2" cx="0" cy="0" r="3.5"/>
                <g id="zoomPlus">
                        <use xlink:href="#rim" fill="#404040">
                                <set attributeName="fill" to="#808080" begin="zoomplus.mouseover" end="zoomplus.mouseout"/>
                        </use>
                        <path d="M-4,0h8M0,-4v8" fill="none" stroke="white" stroke-width="1.5" pointer-events="none"/>
                </g>
                <g id="zoomMin">
                        <use xlink:href="#rim" fill="#404040">
                                <set attributeName="fill" to="#808080" begin="zoomminus.mouseover" end="zoomminus.mouseout"/>
                        </use>
                        <path d="M-4,0h8" fill="none" stroke="white" stroke-width="1.5" pointer-events="none"/>
                </g>
                <g id="dirArrow">
                        <path fill="none" stroke="white" stroke-width="1.5" d="M0,-3.0v7 M-2.5,-0.5L0,-3.0L2.5,-0.5"/>
                </g>
               <g id="resetDef">
                       <use xlink:href="#rim2" fill="#404040">
                               <set attributeName="fill" to="#808080" begin="reset.mouseover" end="reset.mouseout"/>
                       </use>
               </g>
        </defs>

<script type="text/javascript">
var viewWidth = 1033;
var viewHeight = 474;
var sectionId = 'dynsection-6';
</script>
<script xlink:href="svgpan.js"/>
<svg id="graph" class="graph">
<g id="viewport">
<title>getAllFiringRatesSorted</title>
<polygon fill="#ffffff" stroke="transparent" points="-4,4 -4,-470 1029,-470 1029,4 -4,4"/>
<!-- Node148 -->
<g id="node1" class="node">
<title>Node148</title>
<polygon fill="#bfbfbf" stroke="#000000" points="0,-133.5 0,-152.5 120,-152.5 120,-133.5 0,-133.5"/>
<text text-anchor="middle" x="60" y="-140.5" font-family="Helvetica,sans-Serif" font-size="10.00" fill="#000000">getAllFiringRatesSorted</text>
</g>
<!-- Node149 -->
<g id="node2" class="node">
<title>Node149</title>
<g id="a_node2"><a xlink:href="classSpikeMonitorCore.html#a3a3ffdb35b09328d22e5d72503ed1f55" target="_top" xlink:title="returns recording status ">
<polygon fill="#ffffff" stroke="#000000" points="156,-133.5 156,-152.5 224,-152.5 224,-133.5 156,-133.5"/>
<text text-anchor="middle" x="190" y="-140.5" font-family="Helvetica,sans-Serif" font-size="10.00" fill="#000000">isRecording</text>
</a>
</g>
</g>
<!-- Node148&#45;&gt;Node149 -->
<g id="edge1" class="edge">
<title>Node148&#45;&gt;Node149</title>
<path fill="none" stroke="#191970" d="M120.0531,-143C128.6601,-143 137.3836,-143 145.6149,-143"/>
<polygon fill="#191970" stroke="#191970" points="145.7325,-146.5001 155.7325,-143 145.7324,-139.5001 145.7325,-146.5001"/>
</g>
<!-- Node150 -->
<g id="node3" class="node">
<title>Node150</title>
<g id="a_node3"><a xlink:href="classSpikeMonitorCore.html#af0ba89c38f6852cdf9d914687ad6a445" target="_top" xlink:title="prints the AER vector in human&#45;readable format ">
<polygon fill="#ffffff" stroke="#000000" points="272,-228.5 272,-247.5 307,-247.5 307,-228.5 272,-228.5"/>
<text text-anchor="middle" x="289.5" y="-235.5" font-family="Helvetica,sans-Serif" font-size="10.00" fill="#000000">print</text>
</a>
</g>
</g>
<!-- Node149&#45;&gt;Node150 -->
<g id="edge2" class="edge">
<title>Node149&#45;&gt;Node150</title>
<path fill="none" stroke="#191970" d="M205.5469,-152.7813C225.0505,-169.0506 258.1469,-200.7571 276.4158,-220.7655"/>
<polygon fill="#191970" stroke="#191970" points="273.8131,-223.1059 283.0482,-228.2986 279.0669,-218.4802 273.8131,-223.1059"/>
</g>
<!-- Node161 -->
<g id="node14" class="node">
<title>Node161</title>
<g id="a_node14"><a xlink:href="classSpikeMonitorCore.html#a6e116c2994e0449c41e56d03370fa54c" target="_top" xlink:title="inserts a (time,neurId) tupel into the 2D spike vector ">
<polygon fill="#ffffff" stroke="#000000" points="260,-.5 260,-19.5 319,-19.5 319,-.5 260,-.5"/>
<text text-anchor="middle" x="289.5" y="-7.5" font-family="Helvetica,sans-Serif" font-size="10.00" fill="#000000">pushAER</text>
</a>
</g>
</g>
<!-- Node149&#45;&gt;Node161 -->
<g id="edge25" class="edge">
<title>Node149&#45;&gt;Node161</title>
<path fill="none" stroke="#191970" d="M192.7971,-133.3991C200.7959,-112.856 225.0687,-66.6556 258.5725,-27.3006"/>
<polygon fill="#191970" stroke="#191970" points="261.4268,-29.3544 265.3942,-19.5305 256.1664,-24.7361 261.4268,-29.3544"/>
</g>
<!-- Node150&#45;&gt;Node149 -->
<g id="edge3" class="edge">
<title>Node150&#45;&gt;Node149</title>
<path fill="none" stroke="#191970" d="M274.2662,-228.4796C254.8499,-212.3273 221.6032,-180.496 203.2101,-160.3722"/>
<polygon fill="#191970" stroke="#191970" points="205.7668,-157.9797 196.5285,-152.7928 200.5158,-162.6087 205.7668,-157.9797"/>
</g>
<!-- Node151 -->
<g id="node4" class="node">
<title>Node151</title>
<g id="a_node4"><a xlink:href="classSNN.html#a5fd2b156623d78138bcb44167eabab78" target="_top" xlink:title="SNN::getSimTime">
<polygon fill="#ffffff" stroke="#000000" points="361.5,-304.5 361.5,-323.5 458.5,-323.5 458.5,-304.5 361.5,-304.5"/>
<text text-anchor="middle" x="410" y="-311.5" font-family="Helvetica,sans-Serif" font-size="10.00" fill="#000000">SNN::getSimTime</text>
</a>
</g>
</g>
<!-- Node150&#45;&gt;Node151 -->
<g id="edge4" class="edge">
<title>Node150&#45;&gt;Node151</title>
<path fill="none" stroke="#191970" d="M298.367,-247.756C310.195,-260.2545 332.2947,-281.8677 355,-295 358.4912,-297.0192 362.231,-298.8707 366.057,-300.5577"/>
<polygon fill="#191970" stroke="#191970" points="365.0688,-303.9326 375.6527,-304.4141 367.6791,-297.4374 365.0688,-303.9326"/>
</g>
<!-- Node152 -->
<g id="node5" class="node">
<title>Node152</title>
<g id="a_node5"><a xlink:href="classSNN.html#ab0367f8ebd4019bf7d34ebddb1563fe7" target="_top" xlink:title="SNN::getGroupName">
<polygon fill="#ffffff" stroke="#000000" points="355,-266.5 355,-285.5 465,-285.5 465,-266.5 355,-266.5"/>
<text text-anchor="middle" x="410" y="-273.5" font-family="Helvetica,sans-Serif" font-size="10.00" fill="#000000">SNN::getGroupName</text>
</a>
</g>
</g>
<!-- Node150&#45;&gt;Node152 -->
<g id="edge5" class="edge">
<title>Node150&#45;&gt;Node152</title>
<path fill="none" stroke="#191970" d="M307.0217,-243.5255C323.4759,-248.7144 348.6898,-256.6657 370.0494,-263.4015"/>
<polygon fill="#191970" stroke="#191970" points="369.2678,-266.8249 379.8575,-266.4945 371.3732,-260.1489 369.2678,-266.8249"/>
</g>
<!-- Node153 -->
<g id="node6" class="node">
<title>Node153</title>
<g id="a_node6"><a xlink:href="classSpikeMonitorCore.html#af6c333e6cefff92d0e354eca70625cdc" target="_top" xlink:title="returns the total number of recorded spikes in the group ">
<polygon fill="#ffffff" stroke="#000000" points="678,-209.5 678,-228.5 776,-228.5 776,-209.5 678,-209.5"/>
<text text-anchor="middle" x="727" y="-216.5" font-family="Helvetica,sans-Serif" font-size="10.00" fill="#000000">getPopNumSpikes</text>
</a>
</g>
</g>
<!-- Node150&#45;&gt;Node153 -->
<g id="edge6" class="edge">
<title>Node150&#45;&gt;Node153</title>
<path fill="none" stroke="#191970" d="M307.1924,-237.2316C367.5457,-234.6106 567.1498,-225.9421 667.8305,-221.5696"/>
<polygon fill="#191970" stroke="#191970" points="668.0052,-225.0655 677.8439,-221.1348 667.7015,-218.072 668.0052,-225.0655"/>
</g>
<!-- Node156 -->
<g id="node9" class="node">
<title>Node156</title>
<g id="a_node9"><a xlink:href="classSpikeMonitorCore.html#a9cf20c30ff0efdbc5e3c5194648a7fb3" target="_top" xlink:title="returns the total recorded time in ms ">
<polygon fill="#ffffff" stroke="#000000" points="668,-342.5 668,-361.5 786,-361.5 786,-342.5 668,-342.5"/>
<text text-anchor="middle" x="727" y="-349.5" font-family="Helvetica,sans-Serif" font-size="10.00" fill="#000000">getRecordingTotalTime</text>
</a>
</g>
</g>
<!-- Node150&#45;&gt;Node156 -->
<g id="edge11" class="edge">
<title>Node150&#45;&gt;Node156</title>
<path fill="none" stroke="#191970" d="M292.8424,-247.747C300.3281,-267.8768 320.5393,-313.7648 355,-333 405.1402,-360.9872 564.7383,-359.2875 657.7979,-355.621"/>
<polygon fill="#191970" stroke="#191970" points="658.1264,-359.1105 667.9738,-355.2018 657.8382,-352.1164 658.1264,-359.1105"/>
</g>
<!-- Node157 -->
<g id="node10" class="node">
<title>Node157</title>
<g id="a_node10"><a xlink:href="classSpikeMonitorCore.html#ae62d623e8edfc6b05309256c1d825bbd" target="_top" xlink:title="returns the recorded mean firing rate of the group ">
<polygon fill="#ffffff" stroke="#000000" points="508.5,-190.5 508.5,-209.5 624.5,-209.5 624.5,-190.5 508.5,-190.5"/>
<text text-anchor="middle" x="566.5" y="-197.5" font-family="Helvetica,sans-Serif" font-size="10.00" fill="#000000">getPopMeanFiringRate</text>
</a>
</g>
</g>
<!-- Node150&#45;&gt;Node157 -->
<g id="edge12" class="edge">
<title>Node150&#45;&gt;Node157</title>
<path fill="none" stroke="#191970" d="M307.2033,-233.7262C320.3328,-230.6763 338.7033,-226.6598 355,-224 402.6766,-216.2188 456.8103,-210.1264 498.3753,-206.0269"/>
<polygon fill="#191970" stroke="#191970" points="498.7752,-209.5047 508.3897,-205.0537 498.0981,-202.5375 498.7752,-209.5047"/>
</g>
<!-- Node158 -->
<g id="node11" class="node">
<title>Node158</title>
<g id="a_node11"><a xlink:href="classSpikeMonitorCore.html#ad0c4b32bb5cc0c7a8d95ed6023a2695f" target="_top" xlink:title="computes the standard deviation of firing rates in the group ">
<polygon fill="#ffffff" stroke="#000000" points="356.5,-114.5 356.5,-133.5 463.5,-133.5 463.5,-114.5 356.5,-114.5"/>
<text text-anchor="middle" x="410" y="-121.5" font-family="Helvetica,sans-Serif" font-size="10.00" fill="#000000">getPopStdFiringRate</text>
</a>
</g>
</g>
<!-- Node150&#45;&gt;Node158 -->
<g id="edge16" class="edge">
<title>Node150&#45;&gt;Node158</title>
<path fill="none" stroke="#191970" d="M299.7738,-228.2804C320.3164,-208.8459 366.6741,-164.9888 392.2409,-140.8011"/>
<polygon fill="#191970" stroke="#191970" points="394.8933,-143.1099 399.7522,-133.695 390.0826,-138.0249 394.8933,-143.1099"/>
</g>
<!-- Node160 -->
<g id="node13" class="node">
<title>Node160</title>
<g id="a_node13"><a xlink:href="classSpikeMonitorCore.html#aed09edf4583ac05d42fccc7e3556e3c5" target="_top" xlink:title="returns the recorded mean firing rate for a specific neuron ">
<polygon fill="#ffffff" stroke="#000000" points="501,-380.5 501,-399.5 632,-399.5 632,-380.5 501,-380.5"/>
<text text-anchor="middle" x="566.5" y="-387.5" font-family="Helvetica,sans-Serif" font-size="10.00" fill="#000000">getNeuronMeanFiringRate</text>
</a>
</g>
</g>
<!-- Node150&#45;&gt;Node160 -->
<g id="edge21" class="edge">
<title>Node150&#45;&gt;Node160</title>
<path fill="none" stroke="#191970" d="M291.2529,-247.7487C296.2324,-272.3164 312.9214,-336.8773 355,-366 394.1025,-393.0629 447.335,-398.9826 490.6116,-398.1771"/>
<polygon fill="#191970" stroke="#191970" points="490.9287,-401.669 500.8156,-397.8611 490.712,-394.6724 490.9287,-401.669"/>
</g>
<!-- Node153&#45;&gt;Node149 -->
<g id="edge7" class="edge">
<title>Node153&#45;&gt;Node149</title>
<path fill="none" stroke="#191970" d="M723.6313,-209.2015C714.1067,-183.2475 684.2277,-112.8773 632,-86 484.7786,-10.2373 418.3928,-57.7729 260,-106 243.3869,-111.0583 226.1229,-120.1351 212.8966,-128.0323"/>
<polygon fill="#191970" stroke="#191970" points="210.7143,-125.2664 204.0463,-133.4998 214.3933,-131.2216 210.7143,-125.2664"/>
</g>
<!-- Node154 -->
<g id="node7" class="node">
<title>Node154</title>
<g id="a_node7"><a xlink:href="classSpikeMonitorCore.html#a005a2f884f6260054483d4fa6ed6ddbb" target="_top" xlink:title="returns the number of recorded spikes of a specific neuron ">
<polygon fill="#ffffff" stroke="#000000" points="822,-285.5 822,-304.5 935,-304.5 935,-285.5 822,-285.5"/>
<text text-anchor="middle" x="878.5" y="-292.5" font-family="Helvetica,sans-Serif" font-size="10.00" fill="#000000">getNeuronNumSpikes</text>
</a>
</g>
</g>
<!-- Node153&#45;&gt;Node154 -->
<g id="edge8" class="edge">
<title>Node153&#45;&gt;Node154</title>
<path fill="none" stroke="#191970" d="M746.1876,-228.6255C772.4834,-241.8168 819.907,-265.6068 850.2612,-280.834"/>
<polygon fill="#191970" stroke="#191970" points="848.9604,-284.0971 859.4682,-285.4527 852.0992,-277.8403 848.9604,-284.0971"/>
</g>
<!-- Node154&#45;&gt;Node149 -->
<g id="edge9" class="edge">
<title>Node154&#45;&gt;Node149</title>
<path fill="none" stroke="#191970" d="M872.313,-304.5997C858.9655,-324.557 825.4608,-370.7623 786,-396 699.7375,-451.1704 668.8962,-466 566.5,-466 410,-466 410,-466 410,-466 262.4998,-466 206.8623,-233.0667 193.4369,-162.8182"/>
<polygon fill="#191970" stroke="#191970" points="196.8221,-161.873 191.5786,-152.6667 189.9365,-163.1336 196.8221,-161.873"/>
</g>
<!-- Node155 -->
<g id="node8" class="node">
<title>Node155</title>
<g id="a_node8"><a xlink:href="classSpikeMonitorCore.html#abe76071e1ac3632d55f2455b239b3d12" target="_top" xlink:title="returns recording mode ">
<polygon fill="#ffffff" stroke="#000000" points="971,-114.5 971,-133.5 1025,-133.5 1025,-114.5 971,-114.5"/>
<text text-anchor="middle" x="998" y="-121.5" font-family="Helvetica,sans-Serif" font-size="10.00" fill="#000000">getMode</text>
</a>
</g>
</g>
<!-- Node154&#45;&gt;Node155 -->
<g id="edge10" class="edge">
<title>Node154&#45;&gt;Node155</title>
<path fill="none" stroke="#191970" d="M885.2672,-285.3163C904.5751,-257.6874 960.1527,-178.1581 985.3325,-142.1268"/>
<polygon fill="#191970" stroke="#191970" points="988.4477,-143.7792 991.307,-133.5774 982.7099,-139.7694 988.4477,-143.7792"/>
</g>
<!-- Node157&#45;&gt;Node149 -->
<g id="edge13" class="edge">
<title>Node157&#45;&gt;Node149</title>
<path fill="none" stroke="#191970" d="M508.452,-191.2119C432.7774,-179.7551 302.0803,-159.9683 234.0427,-149.6678"/>
<polygon fill="#191970" stroke="#191970" points="234.4872,-146.1953 224.0759,-148.1589 233.4393,-153.1164 234.4872,-146.1953"/>
</g>
<!-- Node157&#45;&gt;Node153 -->
<g id="edge14" class="edge">
<title>Node157&#45;&gt;Node153</title>
<path fill="none" stroke="#191970" d="M624.8982,-206.9132C638.8904,-208.5696 653.842,-210.3395 667.8671,-211.9998"/>
<polygon fill="#191970" stroke="#191970" points="667.5468,-215.4863 677.8889,-213.1862 668.3698,-208.5348 667.5468,-215.4863"/>
</g>
<!-- Node157&#45;&gt;Node156 -->
<g id="edge15" class="edge">
<title>Node157&#45;&gt;Node156</title>
<path fill="none" stroke="#191970" d="M576.54,-209.5083C603.2244,-234.7795 676.1543,-303.8471 709.6995,-335.6157"/>
<polygon fill="#191970" stroke="#191970" points="707.2964,-338.1604 716.9638,-342.4953 712.1097,-333.0778 707.2964,-338.1604"/>
</g>
<!-- Node158&#45;&gt;Node149 -->
<g id="edge17" class="edge">
<title>Node158&#45;&gt;Node149</title>
<path fill="none" stroke="#191970" d="M356.1819,-128.6479C318.7695,-131.879 269.5047,-136.1337 234.3486,-139.1699"/>
<polygon fill="#191970" stroke="#191970" points="234.0367,-135.6837 224.375,-140.0313 234.6391,-142.6577 234.0367,-135.6837"/>
</g>
<!-- Node158&#45;&gt;Node157 -->
<g id="edge18" class="edge">
<title>Node158&#45;&gt;Node157</title>
<path fill="none" stroke="#191970" d="M432.8882,-133.6112C442.8213,-137.8791 454.5495,-143.0487 465,-148 490.6413,-160.1484 519.3813,-174.9904 539.7158,-185.7036"/>
<polygon fill="#191970" stroke="#191970" points="538.2229,-188.8734 548.6989,-190.4558 541.4962,-182.6859 538.2229,-188.8734"/>
</g>
<!-- Node159 -->
<g id="node12" class="node">
<title>Node159</title>
<g id="a_node12"><a xlink:href="classSpikeMonitorCore.html#a0fc20fcc5876030d796debd148ae7cee" target="_top" xlink:title="returns a list of firing rates for all neurons in the group (sorted by neuron ID ascending) ...">
<polygon fill="#ffffff" stroke="#000000" points="520.5,-95.5 520.5,-114.5 612.5,-114.5 612.5,-95.5 520.5,-95.5"/>
<text text-anchor="middle" x="566.5" y="-102.5" font-family="Helvetica,sans-Serif" font-size="10.00" fill="#000000">getAllFiringRates</text>
</a>
</g>
</g>
<!-- Node158&#45;&gt;Node159 -->
<g id="edge19" class="edge">
<title>Node158&#45;&gt;Node159</title>
<path fill="none" stroke="#191970" d="M463.8584,-117.4613C478.801,-115.6472 495.0621,-113.673 510.1433,-111.842"/>
<polygon fill="#191970" stroke="#191970" points="510.8596,-115.2808 520.3649,-110.6011 510.0159,-108.3319 510.8596,-115.2808"/>
</g>
<!-- Node159&#45;&gt;Node149 -->
<g id="edge20" class="edge">
<title>Node159&#45;&gt;Node149</title>
<path fill="none" stroke="#191970" d="M520.1205,-101.9985C477.1557,-99.9282 411.5499,-98.5723 355,-105 312.2519,-109.8589 264.4515,-121.5826 231.3485,-130.7336"/>
<polygon fill="#191970" stroke="#191970" points="230.2498,-127.4066 221.5688,-133.4805 232.1427,-134.1458 230.2498,-127.4066"/>
</g>
<!-- Node160&#45;&gt;Node149 -->
<g id="edge22" class="edge">
<title>Node160&#45;&gt;Node149</title>
<path fill="none" stroke="#191970" d="M535.6783,-399.5814C492.5162,-411.1191 412.87,-425.4187 355,-395 259.6796,-344.896 210.9461,-212.3411 195.5282,-162.402"/>
<polygon fill="#191970" stroke="#191970" points="198.8057,-161.1446 192.596,-152.5603 192.0972,-163.1434 198.8057,-161.1446"/>
</g>
<!-- Node160&#45;&gt;Node154 -->
<g id="edge23" class="edge">
<title>Node160&#45;&gt;Node154</title>
<path fill="none" stroke="#191970" d="M632.2591,-394.311C677.1544,-394.8895 737.1198,-390.925 786,-371 817.7119,-358.0733 846.9205,-330.3039 863.7118,-312.1526"/>
<polygon fill="#191970" stroke="#191970" points="866.4378,-314.3554 870.5174,-304.5775 861.2306,-309.6773 866.4378,-314.3554"/>
</g>
<!-- Node160&#45;&gt;Node156 -->
<g id="edge24" class="edge">
<title>Node160&#45;&gt;Node156</title>
<path fill="none" stroke="#191970" d="M607.0009,-380.411C628.1806,-375.3965 654.3022,-369.2119 676.7604,-363.8947"/>
<polygon fill="#191970" stroke="#191970" points="677.8657,-367.2299 686.7903,-361.5201 676.2529,-360.4182 677.8657,-367.2299"/>
</g>
<!-- Node161&#45;&gt;Node149 -->
<g id="edge26" class="edge">
<title>Node161&#45;&gt;Node149</title>
<path fill="none" stroke="#191970" d="M284.5002,-19.5917C278.283,-26.6095 267.5676,-34.5329 260,-43 236.7362,-69.0291 215.948,-103.568 203.1866,-124.7204"/>
<polygon fill="#191970" stroke="#191970" points="200.104,-123.0537 197.908,-133.4184 206.0882,-126.6854 200.104,-123.0537"/>
</g>
<!-- Node161&#45;&gt;Node155 -->
<g id="edge27" class="edge">
<title>Node161&#45;&gt;Node155</title>
<path fill="none" stroke="#191970" d="M319.0166,-10C369.651,-10 476.3307,-10 566.5,-10 566.5,-10 566.5,-10 727,-10 827.5183,-10 933.7561,-77.4622 977.4297,-108.5935"/>
<polygon fill="#191970" stroke="#191970" points="975.3927,-111.4397 985.5431,-114.4765 979.5019,-105.7727 975.3927,-111.4397"/>
</g>
</g>
</svg>
        <g id="navigator" transform="translate(0 0)" fill="#404254">
                <rect fill="#f2f5e9" fill-opacity="0.5" stroke="#606060" stroke-width=".5" x="0" y="0" width="60" height="60"/>
                <use id="zoomplus" xlink:href="#zoomPlus" x="17" y="9" onmousedown="handleZoom(evt,'in')"/>
                <use id="zoomminus" xlink:href="#zoomMin" x="42" y="9" onmousedown="handleZoom(evt,'out')"/>
                <use id="reset" xlink:href="#resetDef" x="30" y="36" onmousedown="handleReset()"/>
                <g id="arrowUp" xlink:href="#dirArrow" transform="translate(30 24)" onmousedown="handlePan(0,-1)">
                  <use xlink:href="#rim" fill="#404040">
                        <set attributeName="fill" to="#808080" begin="arrowUp.mouseover" end="arrowUp.mouseout"/>
                  </use>
                  <path fill="none" stroke="white" stroke-width="1.5" d="M0,-3.0v7 M-2.5,-0.5L0,-3.0L2.5,-0.5"/>
                </g>
                <g id="arrowRight" xlink:href="#dirArrow" transform="rotate(90) translate(36 -43)" onmousedown="handlePan(1,0)">
                  <use xlink:href="#rim" fill="#404040">
                        <set attributeName="fill" to="#808080" begin="arrowRight.mouseover" end="arrowRight.mouseout"/>
                  </use>
                  <path fill="none" stroke="white" stroke-width="1.5" d="M0,-3.0v7 M-2.5,-0.5L0,-3.0L2.5,-0.5"/>
                </g>
                <g id="arrowDown" xlink:href="#dirArrow" transform="rotate(180) translate(-30 -48)" onmousedown="handlePan(0,1)">
                  <use xlink:href="#rim" fill="#404040">
                        <set attributeName="fill" to="#808080" begin="arrowDown.mouseover" end="arrowDown.mouseout"/>
                  </use>
                  <path fill="none" stroke="white" stroke-width="1.5" d="M0,-3.0v7 M-2.5,-0.5L0,-3.0L2.5,-0.5"/>
                </g>
                <g id="arrowLeft" xlink:href="#dirArrow" transform="rotate(270) translate(-36 17)" onmousedown="handlePan(-1,0)">
                  <use xlink:href="#rim" fill="#404040">
                        <set attributeName="fill" to="#808080" begin="arrowLeft.mouseover" end="arrowLeft.mouseout"/>
                  </use>
                  <path fill="none" stroke="white" stroke-width="1.5" d="M0,-3.0v7 M-2.5,-0.5L0,-3.0L2.5,-0.5"/>
                </g>
        </g>
        <svg viewBox="0 0 15 15" width="100%" height="30px" preserveAspectRatio="xMaxYMin meet">
         <g id="arrow_out" transform="scale(0.3 0.3)">
          <a xlink:href="classSpikeMonitorCore_ac0d8bd3f92fa0eae87b37f9245e0e13a_cgraph_org.svg" target="_base">
           <rect id="button" ry="5" rx="5" y="6" x="6" height="38" width="38"
                fill="#f2f5e9" fill-opacity="0.5" stroke="#606060" stroke-width="1.0"/>
           <path id="arrow"
             d="M 11.500037,31.436501 C 11.940474,20.09759 22.043105,11.32322 32.158766,21.979434 L 37.068811,17.246167 C 37.068811,17.246167 37.088388,32 37.088388,32 L 22.160133,31.978069 C 22.160133,31.978069 26.997745,27.140456 26.997745,27.140456 C 18.528582,18.264221 13.291696,25.230495 11.500037,31.436501 z"
             style="fill:#404040;"/>
          </a>
         </g>
        </svg>
</svg>
