<?xml version="1.0" encoding="UTF-8" standalone="no"?>
<!DOCTYPE svg PUBLIC "-//W3C//DTD SVG 1.1//EN"
 "http://www.w3.org/Graphics/SVG/1.1/DTD/svg11.dtd">
<!-- Generated by graphviz version 2.40.1 (20161225.0304)
 -->
<!-- Title: getPeakValueVector Pages: 1 -->
<svg width="478pt" height="116pt"
 viewBox="0.00 0.00 478.00 115.50" xmlns="http://www.w3.org/2000/svg" xmlns:xlink="http://www.w3.org/1999/xlink">
<g id="graph0" class="graph" transform="scale(1 1) rotate(0) translate(4 111.5)">
<title>getPeakValueVector</title>
<polygon fill="#ffffff" stroke="transparent" points="-4,4 -4,-111.5 474,-111.5 474,4 -4,4"/>
<!-- Node22 -->
<g id="node1" class="node">
<title>Node22</title>
<polygon fill="#bfbfbf" stroke="#000000" points="0,-50 0,-69 106,-69 106,-50 0,-50"/>
<text text-anchor="middle" x="53" y="-57" font-family="Helvetica,sans-Serif" font-size="10.00" fill="#000000">getPeakValueVector</text>
</g>
<!-- Node23 -->
<g id="node2" class="node">
<title>Node23</title>
<g id="a_node2"><a xlink:href="classUserErrors.html#a4bbedc6c0817d5e59e74e450bf00472c" target="_top" xlink:title="simple wrapper for assert statement ">
<polygon fill="#ffffff" stroke="#000000" points="153,-88 153,-107 269,-107 269,-88 153,-88"/>
<text text-anchor="middle" x="211" y="-95" font-family="Helvetica,sans-Serif" font-size="10.00" fill="#000000">UserErrors::assertTrue</text>
</a>
</g>
</g>
<!-- Node22&#45;&gt;Node23 -->
<g id="edge1" class="edge">
<title>Node22&#45;&gt;Node23</title>
<path fill="none" stroke="#191970" d="M92.8701,-69.089C113.7199,-74.1035 139.4346,-80.2881 161.5429,-85.6053"/>
<polygon fill="#191970" stroke="#191970" points="160.8754,-89.0445 171.4166,-87.9799 162.5123,-82.2385 160.8754,-89.0445"/>
</g>
<!-- Node24 -->
<g id="node3" class="node">
<title>Node24</title>
<g id="a_node3"><a xlink:href="classGroupMonitor.html#a3a3ffdb35b09328d22e5d72503ed1f55" target="_top" xlink:title="Recording status (true=recording, false=not recording) ">
<polygon fill="#ffffff" stroke="#000000" points="177,-50 177,-69 245,-69 245,-50 177,-50"/>
<text text-anchor="middle" x="211" y="-57" font-family="Helvetica,sans-Serif" font-size="10.00" fill="#000000">isRecording</text>
</a>
</g>
</g>
<!-- Node22&#45;&gt;Node24 -->
<g id="edge2" class="edge">
<title>Node22&#45;&gt;Node24</title>
<path fill="none" stroke="#191970" d="M106.0512,-59.5C125.7182,-59.5 147.7987,-59.5 166.6141,-59.5"/>
<polygon fill="#191970" stroke="#191970" points="166.6951,-63.0001 176.6951,-59.5 166.695,-56.0001 166.6951,-63.0001"/>
</g>
<!-- Node26 -->
<g id="node5" class="node">
<title>Node26</title>
<g id="a_node5"><a xlink:href="classGroupMonitorCore.html#a968c489fb1424c09377ab40f33151dbe" target="_top" xlink:title="get the peak values of group data ">
<polygon fill="#ffffff" stroke="#000000" points="142,-.5 142,-30.5 280,-30.5 280,-.5 142,-.5"/>
<text text-anchor="start" x="150" y="-18.5" font-family="Helvetica,sans-Serif" font-size="10.00" fill="#000000">GroupMonitorCore::getPeak</text>
<text text-anchor="middle" x="211" y="-7.5" font-family="Helvetica,sans-Serif" font-size="10.00" fill="#000000">ValueVector</text>
</a>
</g>
</g>
<!-- Node22&#45;&gt;Node26 -->
<g id="edge4" class="edge">
<title>Node22&#45;&gt;Node26</title>
<path fill="none" stroke="#191970" d="M87.2836,-49.9527C104.7549,-45.0872 126.577,-39.0102 147.0085,-33.3204"/>
<polygon fill="#191970" stroke="#191970" points="148.2072,-36.6199 156.9016,-30.5654 146.3292,-29.8765 148.2072,-36.6199"/>
</g>
<!-- Node25 -->
<g id="node4" class="node">
<title>Node25</title>
<g id="a_node4"><a xlink:href="classGroupMonitorCore.html#a3a3ffdb35b09328d22e5d72503ed1f55" target="_top" xlink:title="returns recording status ">
<polygon fill="#ffffff" stroke="#000000" points="316,-50 316,-69 470,-69 470,-50 316,-50"/>
<text text-anchor="middle" x="393" y="-57" font-family="Helvetica,sans-Serif" font-size="10.00" fill="#000000">GroupMonitorCore::isRecording</text>
</a>
</g>
</g>
<!-- Node24&#45;&gt;Node25 -->
<g id="edge3" class="edge">
<title>Node24&#45;&gt;Node25</title>
<path fill="none" stroke="#191970" d="M245.2328,-59.5C262.478,-59.5 284.2518,-59.5 305.7464,-59.5"/>
<polygon fill="#191970" stroke="#191970" points="305.9187,-63.0001 315.9187,-59.5 305.9186,-56.0001 305.9187,-63.0001"/>
</g>
</g>
</svg>
