<?xml version="1.0" encoding="UTF-8" standalone="no"?>
<!DOCTYPE svg PUBLIC "-//W3C//DTD SVG 1.1//EN"
 "http://www.w3.org/Graphics/SVG/1.1/DTD/svg11.dtd">
<!-- Generated by graphviz version 2.40.1 (20161225.0304)
 -->
<!-- Title: clear Pages: 1 -->
<!--zoomable 486 -->
<svg id="main" version="1.1" xmlns="http://www.w3.org/2000/svg" xmlns:xlink="http://www.w3.org/1999/xlink" xml:space="preserve" onload="init(evt)">
<style type="text/css"><![CDATA[
.edge:hover path { stroke: red; }
.edge:hover polygon { stroke: red; fill: red; }
]]></style>
<script type="text/javascript"><![CDATA[
var edges = document.getElementsByTagName('g');
if (edges && edges.length) {
  for (var i=0;i<edges.length;i++) {
    if (edges[i].id.substr(0,4)=='edge') {
      edges[i].setAttribute('class','edge');
    }
  }
}
]]></script>
        <defs>
                <circle id="rim" cx="0" cy="0" r="7"/>
                <circle id="rim2" cx="0" cy="0" r="3.5"/>
                <g id="zoomPlus">
                        <use xlink:href="#rim" fill="#404040">
                                <set attributeName="fill" to="#808080" begin="zoomplus.mouseover" end="zoomplus.mouseout"/>
                        </use>
                        <path d="M-4,0h8M0,-4v8" fill="none" stroke="white" stroke-width="1.5" pointer-events="none"/>
                </g>
                <g id="zoomMin">
                        <use xlink:href="#rim" fill="#404040">
                                <set attributeName="fill" to="#808080" begin="zoomminus.mouseover" end="zoomminus.mouseout"/>
                        </use>
                        <path d="M-4,0h8" fill="none" stroke="white" stroke-width="1.5" pointer-events="none"/>
                </g>
                <g id="dirArrow">
                        <path fill="none" stroke="white" stroke-width="1.5" d="M0,-3.0v7 M-2.5,-0.5L0,-3.0L2.5,-0.5"/>
                </g>
               <g id="resetDef">
                       <use xlink:href="#rim2" fill="#404040">
                               <set attributeName="fill" to="#808080" begin="reset.mouseover" end="reset.mouseout"/>
                       </use>
               </g>
        </defs>

<script type="text/javascript">
var viewWidth = 1470;
var viewHeight = 486;
var sectionId = 'dynsection-0';
</script>
<script xlink:href="svgpan.js"/>
<svg id="graph" class="graph">
<g id="viewport">
<title>clear</title>
<polygon fill="#ffffff" stroke="transparent" points="-4,4 -4,-482 1466,-482 1466,4 -4,4"/>
<!-- Node4 -->
<g id="node1" class="node">
<title>Node4</title>
<polygon fill="#bfbfbf" stroke="#000000" points="0,-164.5 0,-183.5 38,-183.5 38,-164.5 0,-164.5"/>
<text text-anchor="middle" x="19" y="-171.5" font-family="Helvetica,sans-Serif" font-size="10.00" fill="#000000">clear</text>
</g>
<!-- Node5 -->
<g id="node2" class="node">
<title>Node5</title>
<g id="a_node2"><a xlink:href="classUserErrors.html#a4bbedc6c0817d5e59e74e450bf00472c" target="_top" xlink:title="simple wrapper for assert statement ">
<polygon fill="#ffffff" stroke="#000000" points="77,-202.5 77,-221.5 193,-221.5 193,-202.5 77,-202.5"/>
<text text-anchor="middle" x="135" y="-209.5" font-family="Helvetica,sans-Serif" font-size="10.00" fill="#000000">UserErrors::assertTrue</text>
</a>
</g>
</g>
<!-- Node4&#45;&gt;Node5 -->
<g id="edge1" class="edge">
<title>Node4&#45;&gt;Node5</title>
<path fill="none" stroke="#191970" d="M38.0417,-180.739C48.6082,-184.4379 62.0024,-189.0602 74,-193 80.4433,-195.1158 87.2883,-197.3048 93.9756,-199.4112"/>
<polygon fill="#191970" stroke="#191970" points="93.0065,-202.7753 103.5954,-202.4203 95.0963,-196.0945 93.0065,-202.7753"/>
</g>
<!-- Node6 -->
<g id="node3" class="node">
<title>Node6</title>
<g id="a_node3"><a xlink:href="classSpikeMonitor.html#a3a3ffdb35b09328d22e5d72503ed1f55" target="_top" xlink:title="Recording status (true=recording, false=not recording) ">
<polygon fill="#ffffff" stroke="#000000" points="101,-126.5 101,-145.5 169,-145.5 169,-126.5 101,-126.5"/>
<text text-anchor="middle" x="135" y="-133.5" font-family="Helvetica,sans-Serif" font-size="10.00" fill="#000000">isRecording</text>
</a>
</g>
</g>
<!-- Node4&#45;&gt;Node6 -->
<g id="edge2" class="edge">
<title>Node4&#45;&gt;Node6</title>
<path fill="none" stroke="#191970" d="M38.0417,-167.261C48.6082,-163.5621 62.0024,-158.9398 74,-155 80.4433,-152.8842 87.2883,-150.6952 93.9756,-148.5888"/>
<polygon fill="#191970" stroke="#191970" points="95.0963,-151.9055 103.5954,-145.5797 93.0065,-145.2247 95.0963,-151.9055"/>
</g>
<!-- Node20 -->
<g id="node17" class="node">
<title>Node20</title>
<g id="a_node17"><a xlink:href="classSpikeMonitorCore.html#ac8bb3912a3ce86b15842e79d0b421204" target="_top" xlink:title="deletes data from the 2D spike vector ">
<polygon fill="#ffffff" stroke="#000000" points="74,-164.5 74,-183.5 196,-183.5 196,-164.5 74,-164.5"/>
<text text-anchor="middle" x="135" y="-171.5" font-family="Helvetica,sans-Serif" font-size="10.00" fill="#000000">SpikeMonitorCore::clear</text>
</a>
</g>
</g>
<!-- Node4&#45;&gt;Node20 -->
<g id="edge30" class="edge">
<title>Node4&#45;&gt;Node20</title>
<path fill="none" stroke="#191970" d="M38.155,-174C45.4799,-174 54.3345,-174 63.6767,-174"/>
<polygon fill="#191970" stroke="#191970" points="63.956,-177.5001 73.9559,-174 63.9559,-170.5001 63.956,-177.5001"/>
</g>
<!-- Node7 -->
<g id="node4" class="node">
<title>Node7</title>
<g id="a_node4"><a xlink:href="classSpikeMonitorCore.html#a3a3ffdb35b09328d22e5d72503ed1f55" target="_top" xlink:title="returns recording status ">
<polygon fill="#ffffff" stroke="#000000" points="232,-145.5 232,-164.5 384,-164.5 384,-145.5 232,-145.5"/>
<text text-anchor="middle" x="308" y="-152.5" font-family="Helvetica,sans-Serif" font-size="10.00" fill="#000000">SpikeMonitorCore::isRecording</text>
</a>
</g>
</g>
<!-- Node6&#45;&gt;Node7 -->
<g id="edge3" class="edge">
<title>Node6&#45;&gt;Node7</title>
<path fill="none" stroke="#191970" d="M169.1792,-139.7538C184.3708,-141.4222 203.0111,-143.4694 221.6426,-145.5157"/>
<polygon fill="#191970" stroke="#191970" points="221.3449,-149.0039 231.6673,-146.6166 222.1092,-142.0458 221.3449,-149.0039"/>
</g>
<!-- Node8 -->
<g id="node5" class="node">
<title>Node8</title>
<g id="a_node5"><a xlink:href="classSpikeMonitorCore.html#af0ba89c38f6852cdf9d914687ad6a445" target="_top" xlink:title="prints the AER vector in human&#45;readable format ">
<polygon fill="#ffffff" stroke="#000000" points="432,-240.5 432,-259.5 551,-259.5 551,-240.5 432,-240.5"/>
<text text-anchor="middle" x="491.5" y="-247.5" font-family="Helvetica,sans-Serif" font-size="10.00" fill="#000000">SpikeMonitorCore::print</text>
</a>
</g>
</g>
<!-- Node7&#45;&gt;Node8 -->
<g id="edge4" class="edge">
<title>Node7&#45;&gt;Node8</title>
<path fill="none" stroke="#191970" d="M336.2697,-164.5995C373.4193,-181.371 437.8028,-214.8926 470.7587,-234.7944"/>
<polygon fill="#191970" stroke="#191970" points="469.2034,-237.949 479.543,-240.2608 472.9018,-232.0057 469.2034,-237.949"/>
</g>
<!-- Node19 -->
<g id="node16" class="node">
<title>Node19</title>
<g id="a_node16"><a xlink:href="classSpikeMonitorCore.html#a6e116c2994e0449c41e56d03370fa54c" target="_top" xlink:title="inserts a (time,neurId) tupel into the 2D spike vector ">
<polygon fill="#ffffff" stroke="#000000" points="420,-.5 420,-19.5 563,-19.5 563,-.5 420,-.5"/>
<text text-anchor="middle" x="491.5" y="-7.5" font-family="Helvetica,sans-Serif" font-size="10.00" fill="#000000">SpikeMonitorCore::pushAER</text>
</a>
</g>
</g>
<!-- Node7&#45;&gt;Node19 -->
<g id="edge27" class="edge">
<title>Node7&#45;&gt;Node19</title>
<path fill="none" stroke="#191970" d="M311.9008,-145.2409C324.8559,-120.4667 368.5578,-58.2585 420,-25 420.1856,-24.88 420.3718,-24.7606 420.5586,-24.6417"/>
<polygon fill="#191970" stroke="#191970" points="422.3736,-27.6361 429.3452,-19.6582 418.9202,-21.5473 422.3736,-27.6361"/>
</g>
<!-- Node8&#45;&gt;Node7 -->
<g id="edge5" class="edge">
<title>Node8&#45;&gt;Node7</title>
<path fill="none" stroke="#191970" d="M463.2882,-240.4266C426.0635,-223.6258 361.4219,-189.9655 328.5175,-170.0703"/>
<polygon fill="#191970" stroke="#191970" points="330.0957,-166.9298 319.7579,-164.6104 326.393,-172.8703 330.0957,-166.9298"/>
</g>
<!-- Node9 -->
<g id="node6" class="node">
<title>Node9</title>
<g id="a_node6"><a xlink:href="classSNN.html#a5fd2b156623d78138bcb44167eabab78" target="_top" xlink:title="SNN::getSimTime">
<polygon fill="#ffffff" stroke="#000000" points="616,-316.5 616,-335.5 713,-335.5 713,-316.5 616,-316.5"/>
<text text-anchor="middle" x="664.5" y="-323.5" font-family="Helvetica,sans-Serif" font-size="10.00" fill="#000000">SNN::getSimTime</text>
</a>
</g>
</g>
<!-- Node8&#45;&gt;Node9 -->
<g id="edge6" class="edge">
<title>Node8&#45;&gt;Node9</title>
<path fill="none" stroke="#191970" d="M507.037,-259.5498C527.5136,-271.8255 564.9332,-293.198 599,-307 604.7613,-309.3342 610.9143,-311.51 617.056,-313.4944"/>
<polygon fill="#191970" stroke="#191970" points="616.0527,-316.8476 626.6401,-316.4502 618.1158,-310.1584 616.0527,-316.8476"/>
</g>
<!-- Node10 -->
<g id="node7" class="node">
<title>Node10</title>
<g id="a_node7"><a xlink:href="classSNN.html#ab0367f8ebd4019bf7d34ebddb1563fe7" target="_top" xlink:title="SNN::getGroupName">
<polygon fill="#ffffff" stroke="#000000" points="609.5,-278.5 609.5,-297.5 719.5,-297.5 719.5,-278.5 609.5,-278.5"/>
<text text-anchor="middle" x="664.5" y="-285.5" font-family="Helvetica,sans-Serif" font-size="10.00" fill="#000000">SNN::getGroupName</text>
</a>
</g>
</g>
<!-- Node8&#45;&gt;Node10 -->
<g id="edge7" class="edge">
<title>Node8&#45;&gt;Node10</title>
<path fill="none" stroke="#191970" d="M535.1552,-259.589C558.2929,-264.6713 586.9024,-270.9554 611.3268,-276.3203"/>
<polygon fill="#191970" stroke="#191970" points="610.6406,-279.753 621.1587,-278.4799 612.1425,-272.916 610.6406,-279.753"/>
</g>
<!-- Node11 -->
<g id="node8" class="node">
<title>Node11</title>
<g id="a_node8"><a xlink:href="classSpikeMonitorCore.html#af6c333e6cefff92d0e354eca70625cdc" target="_top" xlink:title="returns the total number of recorded spikes in the group ">
<polygon fill="#ffffff" stroke="#000000" points="961.5,-213 961.5,-243 1092.5,-243 1092.5,-213 961.5,-213"/>
<text text-anchor="start" x="969.5" y="-231" font-family="Helvetica,sans-Serif" font-size="10.00" fill="#000000">SpikeMonitorCore::getPop</text>
<text text-anchor="middle" x="1027" y="-220" font-family="Helvetica,sans-Serif" font-size="10.00" fill="#000000">NumSpikes</text>
</a>
</g>
</g>
<!-- Node8&#45;&gt;Node11 -->
<g id="edge8" class="edge">
<title>Node8&#45;&gt;Node11</title>
<path fill="none" stroke="#191970" d="M551.1117,-247.551C648.9605,-243.531 843.4864,-235.5393 951.0587,-231.1199"/>
<polygon fill="#191970" stroke="#191970" points="951.3434,-234.6113 961.1913,-230.7036 951.056,-227.6172 951.3434,-234.6113"/>
</g>
<!-- Node14 -->
<g id="node11" class="node">
<title>Node14</title>
<g id="a_node11"><a xlink:href="classSpikeMonitorCore.html#a9cf20c30ff0efdbc5e3c5194648a7fb3" target="_top" xlink:title="returns the total recorded time in ms ">
<polygon fill="#ffffff" stroke="#000000" points="948,-349 948,-379 1106,-379 1106,-349 948,-349"/>
<text text-anchor="start" x="956" y="-367" font-family="Helvetica,sans-Serif" font-size="10.00" fill="#000000">SpikeMonitorCore::getRecording</text>
<text text-anchor="middle" x="1027" y="-356" font-family="Helvetica,sans-Serif" font-size="10.00" fill="#000000">TotalTime</text>
</a>
</g>
</g>
<!-- Node8&#45;&gt;Node14 -->
<g id="edge13" class="edge">
<title>Node8&#45;&gt;Node14</title>
<path fill="none" stroke="#191970" d="M498.5129,-259.5742C513.9749,-279.7978 553.2775,-326.5225 599,-345 709.2263,-389.545 848.6606,-385.8715 937.8585,-376.8267"/>
<polygon fill="#191970" stroke="#191970" points="938.3669,-380.2926 947.943,-375.7595 937.6302,-373.3314 938.3669,-380.2926"/>
</g>
<!-- Node15 -->
<g id="node12" class="node">
<title>Node15</title>
<g id="a_node12"><a xlink:href="classSpikeMonitorCore.html#ae62d623e8edfc6b05309256c1d825bbd" target="_top" xlink:title="returns the recorded mean firing rate of the group ">
<polygon fill="#ffffff" stroke="#000000" points="773.5,-191 773.5,-221 904.5,-221 904.5,-191 773.5,-191"/>
<text text-anchor="start" x="781.5" y="-209" font-family="Helvetica,sans-Serif" font-size="10.00" fill="#000000">SpikeMonitorCore::getPop</text>
<text text-anchor="middle" x="839" y="-198" font-family="Helvetica,sans-Serif" font-size="10.00" fill="#000000">MeanFiringRate</text>
</a>
</g>
</g>
<!-- Node8&#45;&gt;Node15 -->
<g id="edge14" class="edge">
<title>Node8&#45;&gt;Node15</title>
<path fill="none" stroke="#191970" d="M551.1974,-242.1699C566.7566,-240.1443 583.5044,-237.9775 599,-236 653.9101,-228.9926 715.9099,-221.2469 763.137,-215.3815"/>
<polygon fill="#191970" stroke="#191970" points="763.793,-218.827 773.2857,-214.1218 762.9307,-211.8803 763.793,-218.827"/>
</g>
<!-- Node16 -->
<g id="node13" class="node">
<title>Node16</title>
<g id="a_node13"><a xlink:href="classSpikeMonitorCore.html#ad0c4b32bb5cc0c7a8d95ed6023a2695f" target="_top" xlink:title="computes the standard deviation of firing rates in the group ">
<polygon fill="#ffffff" stroke="#000000" points="599,-115 599,-145 730,-145 730,-115 599,-115"/>
<text text-anchor="start" x="607" y="-133" font-family="Helvetica,sans-Serif" font-size="10.00" fill="#000000">SpikeMonitorCore::getPop</text>
<text text-anchor="middle" x="664.5" y="-122" font-family="Helvetica,sans-Serif" font-size="10.00" fill="#000000">StdFiringRate</text>
</a>
</g>
</g>
<!-- Node8&#45;&gt;Node16 -->
<g id="edge18" class="edge">
<title>Node8&#45;&gt;Node16</title>
<path fill="none" stroke="#191970" d="M505.3649,-240.3827C533.2009,-221.0745 596.4531,-177.2001 634.2946,-150.9517"/>
<polygon fill="#191970" stroke="#191970" points="636.6525,-153.5758 642.8745,-145.0004 632.6628,-147.824 636.6525,-153.5758"/>
</g>
<!-- Node18 -->
<g id="node15" class="node">
<title>Node18</title>
<g id="a_node15"><a xlink:href="classSpikeMonitorCore.html#aed09edf4583ac05d42fccc7e3556e3c5" target="_top" xlink:title="returns the recorded mean firing rate for a specific neuron ">
<polygon fill="#ffffff" stroke="#000000" points="766,-393 766,-423 912,-423 912,-393 766,-393"/>
<text text-anchor="start" x="774" y="-411" font-family="Helvetica,sans-Serif" font-size="10.00" fill="#000000">SpikeMonitorCore::getNeuron</text>
<text text-anchor="middle" x="839" y="-400" font-family="Helvetica,sans-Serif" font-size="10.00" fill="#000000">MeanFiringRate</text>
</a>
</g>
</g>
<!-- Node8&#45;&gt;Node18 -->
<g id="edge23" class="edge">
<title>Node8&#45;&gt;Node18</title>
<path fill="none" stroke="#191970" d="M496.3776,-259.8309C509.2447,-284.5916 546.7437,-349.568 599,-378 646.607,-403.9023 707.216,-411.3118 755.6149,-412.2915"/>
<polygon fill="#191970" stroke="#191970" points="755.7089,-415.7927 765.7483,-412.4073 755.789,-408.7931 755.7089,-415.7927"/>
</g>
<!-- Node11&#45;&gt;Node7 -->
<g id="edge9" class="edge">
<title>Node11&#45;&gt;Node7</title>
<path fill="none" stroke="#191970" d="M1020.2583,-212.6666C1005.7178,-181.7848 968.1214,-112.767 912,-86 714.4854,8.2041 632.6937,-53.543 420,-105 388.8098,-112.5459 355.5295,-128.5342 333.4283,-140.4106"/>
<polygon fill="#191970" stroke="#191970" points="331.4742,-137.4906 324.3939,-145.3722 334.8439,-143.6262 331.4742,-137.4906"/>
</g>
<!-- Node12 -->
<g id="node9" class="node">
<title>Node12</title>
<g id="a_node9"><a xlink:href="classSpikeMonitorCore.html#a005a2f884f6260054483d4fa6ed6ddbb" target="_top" xlink:title="returns the number of recorded spikes of a specific neuron ">
<polygon fill="#ffffff" stroke="#000000" points="1142,-314 1142,-344 1288,-344 1288,-314 1142,-314"/>
<text text-anchor="start" x="1150" y="-332" font-family="Helvetica,sans-Serif" font-size="10.00" fill="#000000">SpikeMonitorCore::getNeuron</text>
<text text-anchor="middle" x="1215" y="-321" font-family="Helvetica,sans-Serif" font-size="10.00" fill="#000000">NumSpikes</text>
</a>
</g>
</g>
<!-- Node11&#45;&gt;Node12 -->
<g id="edge10" class="edge">
<title>Node11&#45;&gt;Node12</title>
<path fill="none" stroke="#191970" d="M1055.1455,-243.1207C1087.774,-260.6499 1141.6764,-289.6081 1177.7529,-308.9896"/>
<polygon fill="#191970" stroke="#191970" points="1176.5039,-312.2917 1186.9695,-313.9411 1179.8168,-306.1252 1176.5039,-312.2917"/>
</g>
<!-- Node12&#45;&gt;Node7 -->
<g id="edge11" class="edge">
<title>Node12&#45;&gt;Node7</title>
<path fill="none" stroke="#191970" d="M1199.8056,-344.1218C1179.9377,-363.0372 1143.2581,-395.1083 1106,-413 995.9038,-465.8694 961.1325,-478 839,-478 664.5,-478 664.5,-478 664.5,-478 542.6572,-478 507.9996,-438.2719 420,-354 363.9915,-300.364 328.1842,-212.5088 314.407,-174.0434"/>
<polygon fill="#191970" stroke="#191970" points="317.7028,-172.8646 311.1069,-164.5733 311.0926,-175.1681 317.7028,-172.8646"/>
</g>
<!-- Node13 -->
<g id="node10" class="node">
<title>Node13</title>
<g id="a_node10"><a xlink:href="classSpikeMonitorCore.html#abe76071e1ac3632d55f2455b239b3d12" target="_top" xlink:title="returns recording mode ">
<polygon fill="#ffffff" stroke="#000000" points="1324,-98.5 1324,-117.5 1462,-117.5 1462,-98.5 1324,-98.5"/>
<text text-anchor="middle" x="1393" y="-105.5" font-family="Helvetica,sans-Serif" font-size="10.00" fill="#000000">SpikeMonitorCore::getMode</text>
</a>
</g>
</g>
<!-- Node12&#45;&gt;Node13 -->
<g id="edge12" class="edge">
<title>Node12&#45;&gt;Node13</title>
<path fill="none" stroke="#191970" d="M1227.2347,-313.8098C1259.0597,-274.2967 1344.3266,-168.4316 1378.5203,-125.9776"/>
<polygon fill="#191970" stroke="#191970" points="1381.4572,-127.911 1385.0041,-117.9275 1376.0055,-123.5201 1381.4572,-127.911"/>
</g>
<!-- Node15&#45;&gt;Node7 -->
<g id="edge15" class="edge">
<title>Node15&#45;&gt;Node7</title>
<path fill="none" stroke="#191970" d="M773.1062,-199.6712C677.4439,-190.4833 499.9969,-173.4404 394.099,-163.2694"/>
<polygon fill="#191970" stroke="#191970" points="394.3682,-159.7792 384.0794,-162.3071 393.6989,-166.7472 394.3682,-159.7792"/>
</g>
<!-- Node15&#45;&gt;Node11 -->
<g id="edge16" class="edge">
<title>Node15&#45;&gt;Node11</title>
<path fill="none" stroke="#191970" d="M904.7533,-213.6945C919.78,-215.453 935.8685,-217.3357 951.2756,-219.1386"/>
<polygon fill="#191970" stroke="#191970" points="950.9448,-222.6237 961.2838,-220.3098 951.7585,-215.6712 950.9448,-222.6237"/>
</g>
<!-- Node15&#45;&gt;Node14 -->
<g id="edge17" class="edge">
<title>Node15&#45;&gt;Node14</title>
<path fill="none" stroke="#191970" d="M857.0262,-221.1497C890.5744,-249.3445 962.6852,-309.9482 1001.3185,-342.4166"/>
<polygon fill="#191970" stroke="#191970" points="999.121,-345.1417 1009.0283,-348.8962 1003.6247,-339.7829 999.121,-345.1417"/>
</g>
<!-- Node16&#45;&gt;Node7 -->
<g id="edge19" class="edge">
<title>Node16&#45;&gt;Node7</title>
<path fill="none" stroke="#191970" d="M598.7554,-134.6104C541.2333,-138.6442 457.2727,-144.5321 394.3465,-148.9448"/>
<polygon fill="#191970" stroke="#191970" points="393.7716,-145.4765 384.0409,-149.6675 394.2613,-152.4593 393.7716,-145.4765"/>
</g>
<!-- Node16&#45;&gt;Node15 -->
<g id="edge20" class="edge">
<title>Node16&#45;&gt;Node15</title>
<path fill="none" stroke="#191970" d="M698.9756,-145.0152C726.4907,-156.9988 765.2221,-173.8675 794.9779,-186.827"/>
<polygon fill="#191970" stroke="#191970" points="793.7321,-190.1019 804.2978,-190.8862 796.5272,-183.6842 793.7321,-190.1019"/>
</g>
<!-- Node17 -->
<g id="node14" class="node">
<title>Node17</title>
<g id="a_node14"><a xlink:href="classSpikeMonitorCore.html#a0fc20fcc5876030d796debd148ae7cee" target="_top" xlink:title="returns a list of firing rates for all neurons in the group (sorted by neuron ID ascending) ...">
<polygon fill="#ffffff" stroke="#000000" points="776.5,-96 776.5,-126 901.5,-126 901.5,-96 776.5,-96"/>
<text text-anchor="start" x="784.5" y="-114" font-family="Helvetica,sans-Serif" font-size="10.00" fill="#000000">SpikeMonitorCore::getAll</text>
<text text-anchor="middle" x="839" y="-103" font-family="Helvetica,sans-Serif" font-size="10.00" fill="#000000">FiringRates</text>
</a>
</g>
</g>
<!-- Node16&#45;&gt;Node17 -->
<g id="edge21" class="edge">
<title>Node16&#45;&gt;Node17</title>
<path fill="none" stroke="#191970" d="M730.471,-122.8169C742.116,-121.549 754.2997,-120.2224 766.1214,-118.9352"/>
<polygon fill="#191970" stroke="#191970" points="766.832,-122.3786 776.3943,-117.8167 766.0742,-115.4197 766.832,-122.3786"/>
</g>
<!-- Node17&#45;&gt;Node7 -->
<g id="edge22" class="edge">
<title>Node17&#45;&gt;Node7</title>
<path fill="none" stroke="#191970" d="M776.4848,-106.9672C761.2801,-106.1498 745.0614,-105.4142 730,-105 671.7998,-103.3994 657.0346,-100.3293 599,-105 518.6669,-111.4653 499.3901,-120.1283 420,-134 402.8132,-137.003 384.176,-140.4292 367.1275,-143.6306"/>
<polygon fill="#191970" stroke="#191970" points="366.4742,-140.1921 357.2961,-145.4847 367.7715,-147.0708 366.4742,-140.1921"/>
</g>
<!-- Node18&#45;&gt;Node7 -->
<g id="edge24" class="edge">
<title>Node18&#45;&gt;Node7</title>
<path fill="none" stroke="#191970" d="M765.8395,-420.0807C717.2273,-425.2173 652.7051,-426.4034 599,-408 466.6454,-362.6454 356.4504,-222.7268 320.4442,-172.8712"/>
<polygon fill="#191970" stroke="#191970" points="323.2456,-170.7713 314.5957,-164.6533 317.5424,-174.8301 323.2456,-170.7713"/>
</g>
<!-- Node18&#45;&gt;Node12 -->
<g id="edge25" class="edge">
<title>Node18&#45;&gt;Node12</title>
<path fill="none" stroke="#191970" d="M912.1733,-411.1643C966.689,-411.5292 1042.3777,-407.7862 1106,-389 1134.8224,-380.4894 1164.51,-363.5084 1185.6098,-349.7771"/>
<polygon fill="#191970" stroke="#191970" points="1187.7147,-352.5805 1194.0992,-344.1254 1183.8356,-346.7536 1187.7147,-352.5805"/>
</g>
<!-- Node18&#45;&gt;Node14 -->
<g id="edge26" class="edge">
<title>Node18&#45;&gt;Node14</title>
<path fill="none" stroke="#191970" d="M903.1731,-392.9808C919.1172,-389.2492 936.3385,-385.2186 952.7227,-381.384"/>
<polygon fill="#191970" stroke="#191970" points="953.8579,-384.713 962.7971,-379.0262 952.2626,-377.8972 953.8579,-384.713"/>
</g>
<!-- Node19&#45;&gt;Node7 -->
<g id="edge28" class="edge">
<title>Node19&#45;&gt;Node7</title>
<path fill="none" stroke="#191970" d="M476.2992,-19.5979C461.1247,-25.0941 437.5934,-31.6255 420,-43 379.7892,-68.9972 344.3078,-112.6828 324.5438,-137.3298"/>
<polygon fill="#191970" stroke="#191970" points="321.7608,-135.2056 318.2265,-145.1936 327.2179,-139.5896 321.7608,-135.2056"/>
</g>
<!-- Node19&#45;&gt;Node13 -->
<g id="edge29" class="edge">
<title>Node19&#45;&gt;Node13</title>
<path fill="none" stroke="#191970" d="M563.0446,-10C633.3016,-10 743.528,-10 839,-10 839,-10 839,-10 1027,-10 1155.6726,-10 1301.3973,-67.2176 1362.989,-94.2126"/>
<polygon fill="#191970" stroke="#191970" points="1361.9159,-97.5655 1372.4758,-98.4249 1364.7566,-91.1678 1361.9159,-97.5655"/>
</g>
<!-- Node20&#45;&gt;Node7 -->
<g id="edge31" class="edge">
<title>Node20&#45;&gt;Node7</title>
<path fill="none" stroke="#191970" d="M196.4804,-167.2478C204.7174,-166.3432 213.2855,-165.4022 221.8491,-164.4617"/>
<polygon fill="#191970" stroke="#191970" points="222.3216,-167.9309 231.8797,-163.36 221.5574,-160.9727 222.3216,-167.9309"/>
</g>
</g>
</svg>
        <g id="navigator" transform="translate(0 0)" fill="#404254">
                <rect fill="#f2f5e9" fill-opacity="0.5" stroke="#606060" stroke-width=".5" x="0" y="0" width="60" height="60"/>
                <use id="zoomplus" xlink:href="#zoomPlus" x="17" y="9" onmousedown="handleZoom(evt,'in')"/>
                <use id="zoomminus" xlink:href="#zoomMin" x="42" y="9" onmousedown="handleZoom(evt,'out')"/>
                <use id="reset" xlink:href="#resetDef" x="30" y="36" onmousedown="handleReset()"/>
                <g id="arrowUp" xlink:href="#dirArrow" transform="translate(30 24)" onmousedown="handlePan(0,-1)">
                  <use xlink:href="#rim" fill="#404040">
                        <set attributeName="fill" to="#808080" begin="arrowUp.mouseover" end="arrowUp.mouseout"/>
                  </use>
                  <path fill="none" stroke="white" stroke-width="1.5" d="M0,-3.0v7 M-2.5,-0.5L0,-3.0L2.5,-0.5"/>
                </g>
                <g id="arrowRight" xlink:href="#dirArrow" transform="rotate(90) translate(36 -43)" onmousedown="handlePan(1,0)">
                  <use xlink:href="#rim" fill="#404040">
                        <set attributeName="fill" to="#808080" begin="arrowRight.mouseover" end="arrowRight.mouseout"/>
                  </use>
                  <path fill="none" stroke="white" stroke-width="1.5" d="M0,-3.0v7 M-2.5,-0.5L0,-3.0L2.5,-0.5"/>
                </g>
                <g id="arrowDown" xlink:href="#dirArrow" transform="rotate(180) translate(-30 -48)" onmousedown="handlePan(0,1)">
                  <use xlink:href="#rim" fill="#404040">
                        <set attributeName="fill" to="#808080" begin="arrowDown.mouseover" end="arrowDown.mouseout"/>
                  </use>
                  <path fill="none" stroke="white" stroke-width="1.5" d="M0,-3.0v7 M-2.5,-0.5L0,-3.0L2.5,-0.5"/>
                </g>
                <g id="arrowLeft" xlink:href="#dirArrow" transform="rotate(270) translate(-36 17)" onmousedown="handlePan(-1,0)">
                  <use xlink:href="#rim" fill="#404040">
                        <set attributeName="fill" to="#808080" begin="arrowLeft.mouseover" end="arrowLeft.mouseout"/>
                  </use>
                  <path fill="none" stroke="white" stroke-width="1.5" d="M0,-3.0v7 M-2.5,-0.5L0,-3.0L2.5,-0.5"/>
                </g>
        </g>
        <svg viewBox="0 0 15 15" width="100%" height="30px" preserveAspectRatio="xMaxYMin meet">
         <g id="arrow_out" transform="scale(0.3 0.3)">
          <a xlink:href="classSpikeMonitor_ac8bb3912a3ce86b15842e79d0b421204_cgraph_org.svg" target="_base">
           <rect id="button" ry="5" rx="5" y="6" x="6" height="38" width="38"
                fill="#f2f5e9" fill-opacity="0.5" stroke="#606060" stroke-width="1.0"/>
           <path id="arrow"
             d="M 11.500037,31.436501 C 11.940474,20.09759 22.043105,11.32322 32.158766,21.979434 L 37.068811,17.246167 C 37.068811,17.246167 37.088388,32 37.088388,32 L 22.160133,31.978069 C 22.160133,31.978069 26.997745,27.140456 26.997745,27.140456 C 18.528582,18.264221 13.291696,25.230495 11.500037,31.436501 z"
             style="fill:#404040;"/>
          </a>
         </g>
        </svg>
</svg>
