<?xml version="1.0" encoding="UTF-8" standalone="no"?>
<!DOCTYPE svg PUBLIC "-//W3C//DTD SVG 1.1//EN"
 "http://www.w3.org/Graphics/SVG/1.1/DTD/svg11.dtd">
<!-- Generated by graphviz version 2.40.1 (20161225.0304)
 -->
<!-- Title: getNumNeuronsGenExc Pages: 1 -->
<svg width="515pt" height="39pt"
 viewBox="0.00 0.00 515.00 39.00" xmlns="http://www.w3.org/2000/svg" xmlns:xlink="http://www.w3.org/1999/xlink">
<g id="graph0" class="graph" transform="scale(1 1) rotate(0) translate(4 35)">
<title>getNumNeuronsGenExc</title>
<polygon fill="#ffffff" stroke="transparent" points="-4,4 -4,-35 511,-35 511,4 -4,4"/>
<!-- Node296 -->
<g id="node1" class="node">
<title>Node296</title>
<polygon fill="#bfbfbf" stroke="#000000" points="0,-6 0,-25 123,-25 123,-6 0,-6"/>
<text text-anchor="middle" x="61.5" y="-13" font-family="Helvetica,sans-Serif" font-size="10.00" fill="#000000">getNumNeuronsGenExc</text>
</g>
<!-- Node297 -->
<g id="node2" class="node">
<title>Node297</title>
<g id="a_node2"><a xlink:href="classCARLsim_1_1Impl.html#ab63105935d2720c2fcadfd90fd8ea0be" target="_top" xlink:title="CARLsim::Impl::getNumNeurons\lGenExc">
<polygon fill="#ffffff" stroke="#000000" points="159,-.5 159,-30.5 320,-30.5 320,-.5 159,-.5"/>
<text text-anchor="start" x="167" y="-18.5" font-family="Helvetica,sans-Serif" font-size="10.00" fill="#000000">CARLsim::Impl::getNumNeurons</text>
<text text-anchor="middle" x="239.5" y="-7.5" font-family="Helvetica,sans-Serif" font-size="10.00" fill="#000000">GenExc</text>
</a>
</g>
</g>
<!-- Node296&#45;&gt;Node297 -->
<g id="edge1" class="edge">
<title>Node296&#45;&gt;Node297</title>
<path fill="none" stroke="#191970" d="M123.2562,-15.5C131.4837,-15.5 140.0549,-15.5 148.6491,-15.5"/>
<polygon fill="#191970" stroke="#191970" points="148.7294,-19.0001 158.7294,-15.5 148.7294,-12.0001 148.7294,-19.0001"/>
</g>
<!-- Node298 -->
<g id="node3" class="node">
<title>Node298</title>
<g id="a_node3"><a xlink:href="classSNN.html#ab63105935d2720c2fcadfd90fd8ea0be" target="_top" xlink:title="SNN::getNumNeuronsGenExc">
<polygon fill="#ffffff" stroke="#000000" points="356,-6 356,-25 507,-25 507,-6 356,-6"/>
<text text-anchor="middle" x="431.5" y="-13" font-family="Helvetica,sans-Serif" font-size="10.00" fill="#000000">SNN::getNumNeuronsGenExc</text>
</a>
</g>
</g>
<!-- Node297&#45;&gt;Node298 -->
<g id="edge2" class="edge">
<title>Node297&#45;&gt;Node298</title>
<path fill="none" stroke="#191970" d="M320.0908,-15.5C328.481,-15.5 337.0324,-15.5 345.4797,-15.5"/>
<polygon fill="#191970" stroke="#191970" points="345.714,-19.0001 355.714,-15.5 345.7139,-12.0001 345.714,-19.0001"/>
</g>
</g>
</svg>
