<?xml version="1.0" encoding="UTF-8" standalone="no"?>
<!DOCTYPE svg PUBLIC "-//W3C//DTD SVG 1.1//EN"
 "http://www.w3.org/Graphics/SVG/1.1/DTD/svg11.dtd">
<!-- Generated by graphviz version 2.40.1 (20161225.0304)
 -->
<!-- Title: getNumNeuronsWithFiringRate Pages: 1 -->
<!--zoomable 486 -->
<svg id="main" version="1.1" xmlns="http://www.w3.org/2000/svg" xmlns:xlink="http://www.w3.org/1999/xlink" xml:space="preserve" onload="init(evt)">
<style type="text/css"><![CDATA[
.edge:hover path { stroke: red; }
.edge:hover polygon { stroke: red; fill: red; }
]]></style>
<script type="text/javascript"><![CDATA[
var edges = document.getElementsByTagName('g');
if (edges && edges.length) {
  for (var i=0;i<edges.length;i++) {
    if (edges[i].id.substr(0,4)=='edge') {
      edges[i].setAttribute('class','edge');
    }
  }
}
]]></script>
        <defs>
                <circle id="rim" cx="0" cy="0" r="7"/>
                <circle id="rim2" cx="0" cy="0" r="3.5"/>
                <g id="zoomPlus">
                        <use xlink:href="#rim" fill="#404040">
                                <set attributeName="fill" to="#808080" begin="zoomplus.mouseover" end="zoomplus.mouseout"/>
                        </use>
                        <path d="M-4,0h8M0,-4v8" fill="none" stroke="white" stroke-width="1.5" pointer-events="none"/>
                </g>
                <g id="zoomMin">
                        <use xlink:href="#rim" fill="#404040">
                                <set attributeName="fill" to="#808080" begin="zoomminus.mouseover" end="zoomminus.mouseout"/>
                        </use>
                        <path d="M-4,0h8" fill="none" stroke="white" stroke-width="1.5" pointer-events="none"/>
                </g>
                <g id="dirArrow">
                        <path fill="none" stroke="white" stroke-width="1.5" d="M0,-3.0v7 M-2.5,-0.5L0,-3.0L2.5,-0.5"/>
                </g>
               <g id="resetDef">
                       <use xlink:href="#rim2" fill="#404040">
                               <set attributeName="fill" to="#808080" begin="reset.mouseover" end="reset.mouseout"/>
                       </use>
               </g>
        </defs>

<script type="text/javascript">
var viewWidth = 1598;
var viewHeight = 486;
var sectionId = 'dynsection-9';
</script>
<script xlink:href="svgpan.js"/>
<svg id="graph" class="graph">
<g id="viewport">
<title>getNumNeuronsWithFiringRate</title>
<polygon fill="#ffffff" stroke="transparent" points="-4,4 -4,-482 1594,-482 1594,4 -4,4"/>
<!-- Node136 -->
<g id="node1" class="node">
<title>Node136</title>
<polygon fill="#bfbfbf" stroke="#000000" points="0,-167.5 0,-186.5 153,-186.5 153,-167.5 0,-167.5"/>
<text text-anchor="middle" x="76.5" y="-174.5" font-family="Helvetica,sans-Serif" font-size="10.00" fill="#000000">getNumNeuronsWithFiringRate</text>
</g>
<!-- Node137 -->
<g id="node2" class="node">
<title>Node137</title>
<g id="a_node2"><a xlink:href="classUserErrors.html#a4bbedc6c0817d5e59e74e450bf00472c" target="_top" xlink:title="simple wrapper for assert statement ">
<polygon fill="#ffffff" stroke="#000000" points="198.5,-211.5 198.5,-230.5 314.5,-230.5 314.5,-211.5 198.5,-211.5"/>
<text text-anchor="middle" x="256.5" y="-218.5" font-family="Helvetica,sans-Serif" font-size="10.00" fill="#000000">UserErrors::assertTrue</text>
</a>
</g>
</g>
<!-- Node136&#45;&gt;Node137 -->
<g id="edge1" class="edge">
<title>Node136&#45;&gt;Node137</title>
<path fill="none" stroke="#191970" d="M115.5573,-186.5473C142.565,-193.1492 178.6986,-201.9819 207.6176,-209.051"/>
<polygon fill="#191970" stroke="#191970" points="206.9738,-212.4966 217.5189,-211.4713 208.636,-205.6968 206.9738,-212.4966"/>
</g>
<!-- Node138 -->
<g id="node3" class="node">
<title>Node138</title>
<g id="a_node3"><a xlink:href="classSpikeMonitor.html#a3a3ffdb35b09328d22e5d72503ed1f55" target="_top" xlink:title="Recording status (true=recording, false=not recording) ">
<polygon fill="#ffffff" stroke="#000000" points="222.5,-123.5 222.5,-142.5 290.5,-142.5 290.5,-123.5 222.5,-123.5"/>
<text text-anchor="middle" x="256.5" y="-130.5" font-family="Helvetica,sans-Serif" font-size="10.00" fill="#000000">isRecording</text>
</a>
</g>
</g>
<!-- Node136&#45;&gt;Node138 -->
<g id="edge2" class="edge">
<title>Node136&#45;&gt;Node138</title>
<path fill="none" stroke="#191970" d="M115.5573,-167.4527C144.0449,-160.489 182.6859,-151.0434 212.3037,-143.8035"/>
<polygon fill="#191970" stroke="#191970" points="213.4893,-147.1169 222.3722,-141.3424 211.8271,-140.3171 213.4893,-147.1169"/>
</g>
<!-- Node152 -->
<g id="node17" class="node">
<title>Node152</title>
<g id="a_node17"><a xlink:href="classSpikeMonitorCore.html#a81857cacf011acddd1791775c34ae4fb" target="_top" xlink:title="returns number of neurons whose firing rate was in [min,max] during recording ">
<polygon fill="#ffffff" stroke="#000000" points="189,-162 189,-192 324,-192 324,-162 189,-162"/>
<text text-anchor="start" x="197" y="-180" font-family="Helvetica,sans-Serif" font-size="10.00" fill="#000000">SpikeMonitorCore::getNum</text>
<text text-anchor="middle" x="256.5" y="-169" font-family="Helvetica,sans-Serif" font-size="10.00" fill="#000000">NeuronsWithFiringRate</text>
</a>
</g>
</g>
<!-- Node136&#45;&gt;Node152 -->
<g id="edge30" class="edge">
<title>Node136&#45;&gt;Node152</title>
<path fill="none" stroke="#191970" d="M153.0972,-177C161.5326,-177 170.1286,-177 178.5799,-177"/>
<polygon fill="#191970" stroke="#191970" points="178.7964,-180.5001 188.7963,-177 178.7963,-173.5001 178.7964,-180.5001"/>
</g>
<!-- Node139 -->
<g id="node4" class="node">
<title>Node139</title>
<g id="a_node4"><a xlink:href="classSpikeMonitorCore.html#a3a3ffdb35b09328d22e5d72503ed1f55" target="_top" xlink:title="returns recording status ">
<polygon fill="#ffffff" stroke="#000000" points="360,-145.5 360,-164.5 512,-164.5 512,-145.5 360,-145.5"/>
<text text-anchor="middle" x="436" y="-152.5" font-family="Helvetica,sans-Serif" font-size="10.00" fill="#000000">SpikeMonitorCore::isRecording</text>
</a>
</g>
</g>
<!-- Node138&#45;&gt;Node139 -->
<g id="edge3" class="edge">
<title>Node138&#45;&gt;Node139</title>
<path fill="none" stroke="#191970" d="M290.6851,-137.1898C307.6329,-139.267 328.9387,-141.8783 349.9716,-144.4561"/>
<polygon fill="#191970" stroke="#191970" points="349.5741,-147.9335 359.9256,-145.6761 350.4257,-140.9855 349.5741,-147.9335"/>
</g>
<!-- Node140 -->
<g id="node5" class="node">
<title>Node140</title>
<g id="a_node5"><a xlink:href="classSpikeMonitorCore.html#af0ba89c38f6852cdf9d914687ad6a445" target="_top" xlink:title="prints the AER vector in human&#45;readable format ">
<polygon fill="#ffffff" stroke="#000000" points="560,-240.5 560,-259.5 679,-259.5 679,-240.5 560,-240.5"/>
<text text-anchor="middle" x="619.5" y="-247.5" font-family="Helvetica,sans-Serif" font-size="10.00" fill="#000000">SpikeMonitorCore::print</text>
</a>
</g>
</g>
<!-- Node139&#45;&gt;Node140 -->
<g id="edge4" class="edge">
<title>Node139&#45;&gt;Node140</title>
<path fill="none" stroke="#191970" d="M464.2697,-164.5995C501.4193,-181.371 565.8028,-214.8926 598.7587,-234.7944"/>
<polygon fill="#191970" stroke="#191970" points="597.2034,-237.949 607.543,-240.2608 600.9018,-232.0057 597.2034,-237.949"/>
</g>
<!-- Node151 -->
<g id="node16" class="node">
<title>Node151</title>
<g id="a_node16"><a xlink:href="classSpikeMonitorCore.html#a6e116c2994e0449c41e56d03370fa54c" target="_top" xlink:title="inserts a (time,neurId) tupel into the 2D spike vector ">
<polygon fill="#ffffff" stroke="#000000" points="548,-.5 548,-19.5 691,-19.5 691,-.5 548,-.5"/>
<text text-anchor="middle" x="619.5" y="-7.5" font-family="Helvetica,sans-Serif" font-size="10.00" fill="#000000">SpikeMonitorCore::pushAER</text>
</a>
</g>
</g>
<!-- Node139&#45;&gt;Node151 -->
<g id="edge27" class="edge">
<title>Node139&#45;&gt;Node151</title>
<path fill="none" stroke="#191970" d="M439.9008,-145.2409C452.8559,-120.4667 496.5578,-58.2585 548,-25 548.1856,-24.88 548.3718,-24.7606 548.5586,-24.6417"/>
<polygon fill="#191970" stroke="#191970" points="550.3736,-27.6361 557.3452,-19.6582 546.9202,-21.5473 550.3736,-27.6361"/>
</g>
<!-- Node140&#45;&gt;Node139 -->
<g id="edge5" class="edge">
<title>Node140&#45;&gt;Node139</title>
<path fill="none" stroke="#191970" d="M591.2882,-240.4266C554.0635,-223.6258 489.4219,-189.9655 456.5175,-170.0703"/>
<polygon fill="#191970" stroke="#191970" points="458.0957,-166.9298 447.7579,-164.6104 454.393,-172.8703 458.0957,-166.9298"/>
</g>
<!-- Node141 -->
<g id="node6" class="node">
<title>Node141</title>
<g id="a_node6"><a xlink:href="classSNN.html#a5fd2b156623d78138bcb44167eabab78" target="_top" xlink:title="SNN::getSimTime">
<polygon fill="#ffffff" stroke="#000000" points="744,-316.5 744,-335.5 841,-335.5 841,-316.5 744,-316.5"/>
<text text-anchor="middle" x="792.5" y="-323.5" font-family="Helvetica,sans-Serif" font-size="10.00" fill="#000000">SNN::getSimTime</text>
</a>
</g>
</g>
<!-- Node140&#45;&gt;Node141 -->
<g id="edge6" class="edge">
<title>Node140&#45;&gt;Node141</title>
<path fill="none" stroke="#191970" d="M635.037,-259.5498C655.5136,-271.8255 692.9332,-293.198 727,-307 732.7613,-309.3342 738.9143,-311.51 745.056,-313.4944"/>
<polygon fill="#191970" stroke="#191970" points="744.0527,-316.8476 754.6401,-316.4502 746.1158,-310.1584 744.0527,-316.8476"/>
</g>
<!-- Node142 -->
<g id="node7" class="node">
<title>Node142</title>
<g id="a_node7"><a xlink:href="classSNN.html#ab0367f8ebd4019bf7d34ebddb1563fe7" target="_top" xlink:title="SNN::getGroupName">
<polygon fill="#ffffff" stroke="#000000" points="737.5,-278.5 737.5,-297.5 847.5,-297.5 847.5,-278.5 737.5,-278.5"/>
<text text-anchor="middle" x="792.5" y="-285.5" font-family="Helvetica,sans-Serif" font-size="10.00" fill="#000000">SNN::getGroupName</text>
</a>
</g>
</g>
<!-- Node140&#45;&gt;Node142 -->
<g id="edge7" class="edge">
<title>Node140&#45;&gt;Node142</title>
<path fill="none" stroke="#191970" d="M663.1552,-259.589C686.2929,-264.6713 714.9024,-270.9554 739.3268,-276.3203"/>
<polygon fill="#191970" stroke="#191970" points="738.6406,-279.753 749.1587,-278.4799 740.1425,-272.916 738.6406,-279.753"/>
</g>
<!-- Node143 -->
<g id="node8" class="node">
<title>Node143</title>
<g id="a_node8"><a xlink:href="classSpikeMonitorCore.html#af6c333e6cefff92d0e354eca70625cdc" target="_top" xlink:title="returns the total number of recorded spikes in the group ">
<polygon fill="#ffffff" stroke="#000000" points="1089.5,-213 1089.5,-243 1220.5,-243 1220.5,-213 1089.5,-213"/>
<text text-anchor="start" x="1097.5" y="-231" font-family="Helvetica,sans-Serif" font-size="10.00" fill="#000000">SpikeMonitorCore::getPop</text>
<text text-anchor="middle" x="1155" y="-220" font-family="Helvetica,sans-Serif" font-size="10.00" fill="#000000">NumSpikes</text>
</a>
</g>
</g>
<!-- Node140&#45;&gt;Node143 -->
<g id="edge8" class="edge">
<title>Node140&#45;&gt;Node143</title>
<path fill="none" stroke="#191970" d="M679.1117,-247.551C776.9605,-243.531 971.4864,-235.5393 1079.0587,-231.1199"/>
<polygon fill="#191970" stroke="#191970" points="1079.3434,-234.6113 1089.1913,-230.7036 1079.056,-227.6172 1079.3434,-234.6113"/>
</g>
<!-- Node146 -->
<g id="node11" class="node">
<title>Node146</title>
<g id="a_node11"><a xlink:href="classSpikeMonitorCore.html#a9cf20c30ff0efdbc5e3c5194648a7fb3" target="_top" xlink:title="returns the total recorded time in ms ">
<polygon fill="#ffffff" stroke="#000000" points="1076,-349 1076,-379 1234,-379 1234,-349 1076,-349"/>
<text text-anchor="start" x="1084" y="-367" font-family="Helvetica,sans-Serif" font-size="10.00" fill="#000000">SpikeMonitorCore::getRecording</text>
<text text-anchor="middle" x="1155" y="-356" font-family="Helvetica,sans-Serif" font-size="10.00" fill="#000000">TotalTime</text>
</a>
</g>
</g>
<!-- Node140&#45;&gt;Node146 -->
<g id="edge13" class="edge">
<title>Node140&#45;&gt;Node146</title>
<path fill="none" stroke="#191970" d="M626.5129,-259.5742C641.9749,-279.7978 681.2775,-326.5225 727,-345 837.2263,-389.545 976.6606,-385.8715 1065.8585,-376.8267"/>
<polygon fill="#191970" stroke="#191970" points="1066.3669,-380.2926 1075.943,-375.7595 1065.6302,-373.3314 1066.3669,-380.2926"/>
</g>
<!-- Node147 -->
<g id="node12" class="node">
<title>Node147</title>
<g id="a_node12"><a xlink:href="classSpikeMonitorCore.html#ae62d623e8edfc6b05309256c1d825bbd" target="_top" xlink:title="returns the recorded mean firing rate of the group ">
<polygon fill="#ffffff" stroke="#000000" points="901.5,-191 901.5,-221 1032.5,-221 1032.5,-191 901.5,-191"/>
<text text-anchor="start" x="909.5" y="-209" font-family="Helvetica,sans-Serif" font-size="10.00" fill="#000000">SpikeMonitorCore::getPop</text>
<text text-anchor="middle" x="967" y="-198" font-family="Helvetica,sans-Serif" font-size="10.00" fill="#000000">MeanFiringRate</text>
</a>
</g>
</g>
<!-- Node140&#45;&gt;Node147 -->
<g id="edge14" class="edge">
<title>Node140&#45;&gt;Node147</title>
<path fill="none" stroke="#191970" d="M679.1974,-242.1699C694.7566,-240.1443 711.5044,-237.9775 727,-236 781.9101,-228.9926 843.9099,-221.2469 891.137,-215.3815"/>
<polygon fill="#191970" stroke="#191970" points="891.793,-218.827 901.2857,-214.1218 890.9307,-211.8803 891.793,-218.827"/>
</g>
<!-- Node148 -->
<g id="node13" class="node">
<title>Node148</title>
<g id="a_node13"><a xlink:href="classSpikeMonitorCore.html#ad0c4b32bb5cc0c7a8d95ed6023a2695f" target="_top" xlink:title="computes the standard deviation of firing rates in the group ">
<polygon fill="#ffffff" stroke="#000000" points="727,-115 727,-145 858,-145 858,-115 727,-115"/>
<text text-anchor="start" x="735" y="-133" font-family="Helvetica,sans-Serif" font-size="10.00" fill="#000000">SpikeMonitorCore::getPop</text>
<text text-anchor="middle" x="792.5" y="-122" font-family="Helvetica,sans-Serif" font-size="10.00" fill="#000000">StdFiringRate</text>
</a>
</g>
</g>
<!-- Node140&#45;&gt;Node148 -->
<g id="edge18" class="edge">
<title>Node140&#45;&gt;Node148</title>
<path fill="none" stroke="#191970" d="M633.3649,-240.3827C661.2009,-221.0745 724.4531,-177.2001 762.2946,-150.9517"/>
<polygon fill="#191970" stroke="#191970" points="764.6525,-153.5758 770.8745,-145.0004 760.6628,-147.824 764.6525,-153.5758"/>
</g>
<!-- Node150 -->
<g id="node15" class="node">
<title>Node150</title>
<g id="a_node15"><a xlink:href="classSpikeMonitorCore.html#aed09edf4583ac05d42fccc7e3556e3c5" target="_top" xlink:title="returns the recorded mean firing rate for a specific neuron ">
<polygon fill="#ffffff" stroke="#000000" points="894,-393 894,-423 1040,-423 1040,-393 894,-393"/>
<text text-anchor="start" x="902" y="-411" font-family="Helvetica,sans-Serif" font-size="10.00" fill="#000000">SpikeMonitorCore::getNeuron</text>
<text text-anchor="middle" x="967" y="-400" font-family="Helvetica,sans-Serif" font-size="10.00" fill="#000000">MeanFiringRate</text>
</a>
</g>
</g>
<!-- Node140&#45;&gt;Node150 -->
<g id="edge23" class="edge">
<title>Node140&#45;&gt;Node150</title>
<path fill="none" stroke="#191970" d="M624.3776,-259.8309C637.2447,-284.5916 674.7437,-349.568 727,-378 774.607,-403.9023 835.216,-411.3118 883.6149,-412.2915"/>
<polygon fill="#191970" stroke="#191970" points="883.7089,-415.7927 893.7483,-412.4073 883.789,-408.7931 883.7089,-415.7927"/>
</g>
<!-- Node143&#45;&gt;Node139 -->
<g id="edge9" class="edge">
<title>Node143&#45;&gt;Node139</title>
<path fill="none" stroke="#191970" d="M1148.2583,-212.6666C1133.7178,-181.7848 1096.1214,-112.767 1040,-86 842.4854,8.2041 760.6937,-53.543 548,-105 516.8098,-112.5459 483.5295,-128.5342 461.4283,-140.4106"/>
<polygon fill="#191970" stroke="#191970" points="459.4742,-137.4906 452.3939,-145.3722 462.8439,-143.6262 459.4742,-137.4906"/>
</g>
<!-- Node144 -->
<g id="node9" class="node">
<title>Node144</title>
<g id="a_node9"><a xlink:href="classSpikeMonitorCore.html#a005a2f884f6260054483d4fa6ed6ddbb" target="_top" xlink:title="returns the number of recorded spikes of a specific neuron ">
<polygon fill="#ffffff" stroke="#000000" points="1270,-314 1270,-344 1416,-344 1416,-314 1270,-314"/>
<text text-anchor="start" x="1278" y="-332" font-family="Helvetica,sans-Serif" font-size="10.00" fill="#000000">SpikeMonitorCore::getNeuron</text>
<text text-anchor="middle" x="1343" y="-321" font-family="Helvetica,sans-Serif" font-size="10.00" fill="#000000">NumSpikes</text>
</a>
</g>
</g>
<!-- Node143&#45;&gt;Node144 -->
<g id="edge10" class="edge">
<title>Node143&#45;&gt;Node144</title>
<path fill="none" stroke="#191970" d="M1183.1455,-243.1207C1215.774,-260.6499 1269.6764,-289.6081 1305.7529,-308.9896"/>
<polygon fill="#191970" stroke="#191970" points="1304.5039,-312.2917 1314.9695,-313.9411 1307.8168,-306.1252 1304.5039,-312.2917"/>
</g>
<!-- Node144&#45;&gt;Node139 -->
<g id="edge11" class="edge">
<title>Node144&#45;&gt;Node139</title>
<path fill="none" stroke="#191970" d="M1327.8056,-344.1218C1307.9377,-363.0372 1271.2581,-395.1083 1234,-413 1123.9038,-465.8694 1089.1325,-478 967,-478 792.5,-478 792.5,-478 792.5,-478 670.6572,-478 635.9996,-438.2719 548,-354 491.9915,-300.364 456.1842,-212.5088 442.407,-174.0434"/>
<polygon fill="#191970" stroke="#191970" points="445.7028,-172.8646 439.1069,-164.5733 439.0926,-175.1681 445.7028,-172.8646"/>
</g>
<!-- Node145 -->
<g id="node10" class="node">
<title>Node145</title>
<g id="a_node10"><a xlink:href="classSpikeMonitorCore.html#abe76071e1ac3632d55f2455b239b3d12" target="_top" xlink:title="returns recording mode ">
<polygon fill="#ffffff" stroke="#000000" points="1452,-98.5 1452,-117.5 1590,-117.5 1590,-98.5 1452,-98.5"/>
<text text-anchor="middle" x="1521" y="-105.5" font-family="Helvetica,sans-Serif" font-size="10.00" fill="#000000">SpikeMonitorCore::getMode</text>
</a>
</g>
</g>
<!-- Node144&#45;&gt;Node145 -->
<g id="edge12" class="edge">
<title>Node144&#45;&gt;Node145</title>
<path fill="none" stroke="#191970" d="M1355.2347,-313.8098C1387.0597,-274.2967 1472.3266,-168.4316 1506.5203,-125.9776"/>
<polygon fill="#191970" stroke="#191970" points="1509.4572,-127.911 1513.0041,-117.9275 1504.0055,-123.5201 1509.4572,-127.911"/>
</g>
<!-- Node147&#45;&gt;Node139 -->
<g id="edge15" class="edge">
<title>Node147&#45;&gt;Node139</title>
<path fill="none" stroke="#191970" d="M901.1062,-199.6712C805.4439,-190.4833 627.9969,-173.4404 522.099,-163.2694"/>
<polygon fill="#191970" stroke="#191970" points="522.3682,-159.7792 512.0794,-162.3071 521.6989,-166.7472 522.3682,-159.7792"/>
</g>
<!-- Node147&#45;&gt;Node143 -->
<g id="edge16" class="edge">
<title>Node147&#45;&gt;Node143</title>
<path fill="none" stroke="#191970" d="M1032.7533,-213.6945C1047.78,-215.453 1063.8685,-217.3357 1079.2756,-219.1386"/>
<polygon fill="#191970" stroke="#191970" points="1078.9448,-222.6237 1089.2838,-220.3098 1079.7585,-215.6712 1078.9448,-222.6237"/>
</g>
<!-- Node147&#45;&gt;Node146 -->
<g id="edge17" class="edge">
<title>Node147&#45;&gt;Node146</title>
<path fill="none" stroke="#191970" d="M985.0262,-221.1497C1018.5744,-249.3445 1090.6852,-309.9482 1129.3185,-342.4166"/>
<polygon fill="#191970" stroke="#191970" points="1127.121,-345.1417 1137.0283,-348.8962 1131.6247,-339.7829 1127.121,-345.1417"/>
</g>
<!-- Node148&#45;&gt;Node139 -->
<g id="edge19" class="edge">
<title>Node148&#45;&gt;Node139</title>
<path fill="none" stroke="#191970" d="M726.7554,-134.6104C669.2333,-138.6442 585.2727,-144.5321 522.3465,-148.9448"/>
<polygon fill="#191970" stroke="#191970" points="521.7716,-145.4765 512.0409,-149.6675 522.2613,-152.4593 521.7716,-145.4765"/>
</g>
<!-- Node148&#45;&gt;Node147 -->
<g id="edge20" class="edge">
<title>Node148&#45;&gt;Node147</title>
<path fill="none" stroke="#191970" d="M826.9756,-145.0152C854.4907,-156.9988 893.2221,-173.8675 922.9779,-186.827"/>
<polygon fill="#191970" stroke="#191970" points="921.7321,-190.1019 932.2978,-190.8862 924.5272,-183.6842 921.7321,-190.1019"/>
</g>
<!-- Node149 -->
<g id="node14" class="node">
<title>Node149</title>
<g id="a_node14"><a xlink:href="classSpikeMonitorCore.html#a0fc20fcc5876030d796debd148ae7cee" target="_top" xlink:title="returns a list of firing rates for all neurons in the group (sorted by neuron ID ascending) ...">
<polygon fill="#ffffff" stroke="#000000" points="904.5,-96 904.5,-126 1029.5,-126 1029.5,-96 904.5,-96"/>
<text text-anchor="start" x="912.5" y="-114" font-family="Helvetica,sans-Serif" font-size="10.00" fill="#000000">SpikeMonitorCore::getAll</text>
<text text-anchor="middle" x="967" y="-103" font-family="Helvetica,sans-Serif" font-size="10.00" fill="#000000">FiringRates</text>
</a>
</g>
</g>
<!-- Node148&#45;&gt;Node149 -->
<g id="edge21" class="edge">
<title>Node148&#45;&gt;Node149</title>
<path fill="none" stroke="#191970" d="M858.471,-122.8169C870.116,-121.549 882.2997,-120.2224 894.1214,-118.9352"/>
<polygon fill="#191970" stroke="#191970" points="894.832,-122.3786 904.3943,-117.8167 894.0742,-115.4197 894.832,-122.3786"/>
</g>
<!-- Node149&#45;&gt;Node139 -->
<g id="edge22" class="edge">
<title>Node149&#45;&gt;Node139</title>
<path fill="none" stroke="#191970" d="M904.4848,-106.9672C889.2801,-106.1498 873.0614,-105.4142 858,-105 799.7998,-103.3994 785.0346,-100.3293 727,-105 646.6669,-111.4653 627.3901,-120.1283 548,-134 530.8132,-137.003 512.176,-140.4292 495.1275,-143.6306"/>
<polygon fill="#191970" stroke="#191970" points="494.4742,-140.1921 485.2961,-145.4847 495.7715,-147.0708 494.4742,-140.1921"/>
</g>
<!-- Node150&#45;&gt;Node139 -->
<g id="edge24" class="edge">
<title>Node150&#45;&gt;Node139</title>
<path fill="none" stroke="#191970" d="M893.8395,-420.0807C845.2273,-425.2173 780.7051,-426.4034 727,-408 594.6454,-362.6454 484.4504,-222.7268 448.4442,-172.8712"/>
<polygon fill="#191970" stroke="#191970" points="451.2456,-170.7713 442.5957,-164.6533 445.5424,-174.8301 451.2456,-170.7713"/>
</g>
<!-- Node150&#45;&gt;Node144 -->
<g id="edge25" class="edge">
<title>Node150&#45;&gt;Node144</title>
<path fill="none" stroke="#191970" d="M1040.1733,-411.1643C1094.689,-411.5292 1170.3777,-407.7862 1234,-389 1262.8224,-380.4894 1292.51,-363.5084 1313.6098,-349.7771"/>
<polygon fill="#191970" stroke="#191970" points="1315.7147,-352.5805 1322.0992,-344.1254 1311.8356,-346.7536 1315.7147,-352.5805"/>
</g>
<!-- Node150&#45;&gt;Node146 -->
<g id="edge26" class="edge">
<title>Node150&#45;&gt;Node146</title>
<path fill="none" stroke="#191970" d="M1031.1731,-392.9808C1047.1172,-389.2492 1064.3385,-385.2186 1080.7227,-381.384"/>
<polygon fill="#191970" stroke="#191970" points="1081.8579,-384.713 1090.7971,-379.0262 1080.2626,-377.8972 1081.8579,-384.713"/>
</g>
<!-- Node151&#45;&gt;Node139 -->
<g id="edge28" class="edge">
<title>Node151&#45;&gt;Node139</title>
<path fill="none" stroke="#191970" d="M604.2992,-19.5979C589.1247,-25.0941 565.5934,-31.6255 548,-43 507.7892,-68.9972 472.3078,-112.6828 452.5438,-137.3298"/>
<polygon fill="#191970" stroke="#191970" points="449.7608,-135.2056 446.2265,-145.1936 455.2179,-139.5896 449.7608,-135.2056"/>
</g>
<!-- Node151&#45;&gt;Node145 -->
<g id="edge29" class="edge">
<title>Node151&#45;&gt;Node145</title>
<path fill="none" stroke="#191970" d="M691.0446,-10C761.3016,-10 871.528,-10 967,-10 967,-10 967,-10 1155,-10 1283.6726,-10 1429.3973,-67.2176 1490.989,-94.2126"/>
<polygon fill="#191970" stroke="#191970" points="1489.9159,-97.5655 1500.4758,-98.4249 1492.7566,-91.1678 1489.9159,-97.5655"/>
</g>
<!-- Node152&#45;&gt;Node139 -->
<g id="edge31" class="edge">
<title>Node152&#45;&gt;Node139</title>
<path fill="none" stroke="#191970" d="M324.1055,-168.7141C332.4628,-167.6898 341.0933,-166.632 349.6818,-165.5794"/>
<polygon fill="#191970" stroke="#191970" points="350.226,-169.039 359.7259,-164.3484 349.3743,-162.091 350.226,-169.039"/>
</g>
</g>
</svg>
        <g id="navigator" transform="translate(0 0)" fill="#404254">
                <rect fill="#f2f5e9" fill-opacity="0.5" stroke="#606060" stroke-width=".5" x="0" y="0" width="60" height="60"/>
                <use id="zoomplus" xlink:href="#zoomPlus" x="17" y="9" onmousedown="handleZoom(evt,'in')"/>
                <use id="zoomminus" xlink:href="#zoomMin" x="42" y="9" onmousedown="handleZoom(evt,'out')"/>
                <use id="reset" xlink:href="#resetDef" x="30" y="36" onmousedown="handleReset()"/>
                <g id="arrowUp" xlink:href="#dirArrow" transform="translate(30 24)" onmousedown="handlePan(0,-1)">
                  <use xlink:href="#rim" fill="#404040">
                        <set attributeName="fill" to="#808080" begin="arrowUp.mouseover" end="arrowUp.mouseout"/>
                  </use>
                  <path fill="none" stroke="white" stroke-width="1.5" d="M0,-3.0v7 M-2.5,-0.5L0,-3.0L2.5,-0.5"/>
                </g>
                <g id="arrowRight" xlink:href="#dirArrow" transform="rotate(90) translate(36 -43)" onmousedown="handlePan(1,0)">
                  <use xlink:href="#rim" fill="#404040">
                        <set attributeName="fill" to="#808080" begin="arrowRight.mouseover" end="arrowRight.mouseout"/>
                  </use>
                  <path fill="none" stroke="white" stroke-width="1.5" d="M0,-3.0v7 M-2.5,-0.5L0,-3.0L2.5,-0.5"/>
                </g>
                <g id="arrowDown" xlink:href="#dirArrow" transform="rotate(180) translate(-30 -48)" onmousedown="handlePan(0,1)">
                  <use xlink:href="#rim" fill="#404040">
                        <set attributeName="fill" to="#808080" begin="arrowDown.mouseover" end="arrowDown.mouseout"/>
                  </use>
                  <path fill="none" stroke="white" stroke-width="1.5" d="M0,-3.0v7 M-2.5,-0.5L0,-3.0L2.5,-0.5"/>
                </g>
                <g id="arrowLeft" xlink:href="#dirArrow" transform="rotate(270) translate(-36 17)" onmousedown="handlePan(-1,0)">
                  <use xlink:href="#rim" fill="#404040">
                        <set attributeName="fill" to="#808080" begin="arrowLeft.mouseover" end="arrowLeft.mouseout"/>
                  </use>
                  <path fill="none" stroke="white" stroke-width="1.5" d="M0,-3.0v7 M-2.5,-0.5L0,-3.0L2.5,-0.5"/>
                </g>
        </g>
        <svg viewBox="0 0 15 15" width="100%" height="30px" preserveAspectRatio="xMaxYMin meet">
         <g id="arrow_out" transform="scale(0.3 0.3)">
          <a xlink:href="classSpikeMonitor_a81857cacf011acddd1791775c34ae4fb_cgraph_org.svg" target="_base">
           <rect id="button" ry="5" rx="5" y="6" x="6" height="38" width="38"
                fill="#f2f5e9" fill-opacity="0.5" stroke="#606060" stroke-width="1.0"/>
           <path id="arrow"
             d="M 11.500037,31.436501 C 11.940474,20.09759 22.043105,11.32322 32.158766,21.979434 L 37.068811,17.246167 C 37.068811,17.246167 37.088388,32 37.088388,32 L 22.160133,31.978069 C 22.160133,31.978069 26.997745,27.140456 26.997745,27.140456 C 18.528582,18.264221 13.291696,25.230495 11.500037,31.436501 z"
             style="fill:#404040;"/>
          </a>
         </g>
        </svg>
</svg>
