<?xml version="1.0" encoding="UTF-8" standalone="no"?>
<!DOCTYPE svg PUBLIC "-//W3C//DTD SVG 1.1//EN"
 "http://www.w3.org/Graphics/SVG/1.1/DTD/svg11.dtd">
<!-- Generated by graphviz version 2.40.1 (20161225.0304)
 -->
<!-- Title: isSimulationWithCOBA Pages: 1 -->
<svg width="739pt" height="271pt"
 viewBox="0.00 0.00 739.00 271.00" xmlns="http://www.w3.org/2000/svg" xmlns:xlink="http://www.w3.org/1999/xlink">
<g id="graph0" class="graph" transform="scale(1 1) rotate(0) translate(4 267)">
<title>isSimulationWithCOBA</title>
<polygon fill="#ffffff" stroke="transparent" points="-4,4 -4,-267 735,-267 735,4 -4,4"/>
<!-- Node1536 -->
<g id="node1" class="node">
<title>Node1536</title>
<polygon fill="#bfbfbf" stroke="#000000" points="0,-137 0,-156 119,-156 119,-137 0,-137"/>
<text text-anchor="middle" x="59.5" y="-144" font-family="Helvetica,sans-Serif" font-size="10.00" fill="#000000">isSimulationWithCOBA</text>
</g>
<!-- Node1537 -->
<g id="node2" class="node">
<title>Node1537</title>
<g id="a_node2"><a xlink:href="classCARLsim_1_1Impl.html#ad4930e827d0e5cc6a63dc4a07e1879dc" target="_top" xlink:title="CARLsim::Impl::isSimulation\lWithCOBA">
<polygon fill="#ffffff" stroke="#000000" points="155,-232.5 155,-262.5 298,-262.5 298,-232.5 155,-232.5"/>
<text text-anchor="start" x="163" y="-250.5" font-family="Helvetica,sans-Serif" font-size="10.00" fill="#000000">CARLsim::Impl::isSimulation</text>
<text text-anchor="middle" x="226.5" y="-239.5" font-family="Helvetica,sans-Serif" font-size="10.00" fill="#000000">WithCOBA</text>
</a>
</g>
</g>
<!-- Node1536&#45;&gt;Node1537 -->
<g id="edge1" class="edge">
<title>Node1536&#45;&gt;Node1537</title>
<path fill="none" stroke="#191970" d="M76.7532,-163.2272C94.9487,-180.1114 125.0766,-205.9864 155,-222.5 161.6777,-226.1852 168.9997,-229.4838 176.3313,-232.3818"/>
<polygon fill="#191970" stroke="#191970" points="78.9504,-160.4882 69.2763,-156.1682 74.1449,-165.5782 78.9504,-160.4882"/>
</g>
<!-- Node1539 -->
<g id="node4" class="node">
<title>Node1539</title>
<g id="a_node4"><a xlink:href="snn__cpu__module_8cpp.html#ac42c21b5ae4b743f8e00b7dfe04dcfe3" target="_top" xlink:title="dvdtLIF">
<polygon fill="#ffffff" stroke="#000000" points="201.5,-194 201.5,-213 251.5,-213 251.5,-194 201.5,-194"/>
<text text-anchor="middle" x="226.5" y="-201" font-family="Helvetica,sans-Serif" font-size="10.00" fill="#000000">dvdtLIF</text>
</a>
</g>
</g>
<!-- Node1536&#45;&gt;Node1539 -->
<g id="edge3" class="edge">
<title>Node1536&#45;&gt;Node1539</title>
<path fill="none" stroke="#191970" d="M90.6208,-159.9719C109.1234,-167.7068 133.1703,-177.2849 155,-184.5 170.2439,-189.5384 187.6481,-194.1865 201.4685,-197.6241"/>
<polygon fill="#191970" stroke="#191970" points="91.8008,-156.671 81.227,-156.0045 89.0773,-163.1195 91.8008,-156.671"/>
</g>
<!-- Node1540 -->
<g id="node5" class="node">
<title>Node1540</title>
<g id="a_node5"><a xlink:href="classSNN.html#a9f12565a3b01482ccba3b63c5d6c3279" target="_top" xlink:title="getConductanceAMPA">
<polygon fill="#ffffff" stroke="#000000" points="168.5,-156 168.5,-175 284.5,-175 284.5,-156 168.5,-156"/>
<text text-anchor="middle" x="226.5" y="-163" font-family="Helvetica,sans-Serif" font-size="10.00" fill="#000000">getConductanceAMPA</text>
</a>
</g>
</g>
<!-- Node1536&#45;&gt;Node1540 -->
<g id="edge4" class="edge">
<title>Node1536&#45;&gt;Node1540</title>
<path fill="none" stroke="#191970" d="M129.591,-154.4744C142.5481,-155.9486 155.9475,-157.4731 168.4971,-158.9009"/>
<polygon fill="#191970" stroke="#191970" points="129.6507,-150.9587 119.3191,-153.3058 128.8594,-157.9139 129.6507,-150.9587"/>
</g>
<!-- Node1544 -->
<g id="node9" class="node">
<title>Node1544</title>
<g id="a_node9"><a xlink:href="classSNN.html#ab251be3aba6d73b79fdb0d44019b1790" target="_top" xlink:title="getConductanceNMDA">
<polygon fill="#ffffff" stroke="#000000" points="167.5,-118 167.5,-137 285.5,-137 285.5,-118 167.5,-118"/>
<text text-anchor="middle" x="226.5" y="-125" font-family="Helvetica,sans-Serif" font-size="10.00" fill="#000000">getConductanceNMDA</text>
</a>
</g>
</g>
<!-- Node1536&#45;&gt;Node1544 -->
<g id="edge8" class="edge">
<title>Node1536&#45;&gt;Node1544</title>
<path fill="none" stroke="#191970" d="M129.348,-138.5532C141.9965,-137.1142 155.0747,-135.6262 167.3788,-134.2264"/>
<polygon fill="#191970" stroke="#191970" points="128.8594,-135.0861 119.3191,-139.6942 129.6507,-142.0413 128.8594,-135.0861"/>
</g>
<!-- Node1547 -->
<g id="node12" class="node">
<title>Node1547</title>
<g id="a_node12"><a xlink:href="classSNN.html#a42c7f8460a85cfb8566a1959da9a925d" target="_top" xlink:title="getConductanceGABAa">
<polygon fill="#ffffff" stroke="#000000" points="166,-80 166,-99 287,-99 287,-80 166,-80"/>
<text text-anchor="middle" x="226.5" y="-87" font-family="Helvetica,sans-Serif" font-size="10.00" fill="#000000">getConductanceGABAa</text>
</a>
</g>
</g>
<!-- Node1536&#45;&gt;Node1547 -->
<g id="edge12" class="edge">
<title>Node1536&#45;&gt;Node1547</title>
<path fill="none" stroke="#191970" d="M90.6208,-133.0281C109.1234,-125.2932 133.1703,-115.7151 155,-108.5 165.3659,-105.0739 176.7307,-101.8283 187.2882,-99.021"/>
<polygon fill="#191970" stroke="#191970" points="89.0773,-129.8805 81.227,-136.9955 91.8008,-136.329 89.0773,-129.8805"/>
</g>
<!-- Node1550 -->
<g id="node15" class="node">
<title>Node1550</title>
<g id="a_node15"><a xlink:href="classSNN.html#aa50bf7b25bc7c5c164e2a11ee763796e" target="_top" xlink:title="getConductanceGABAb">
<polygon fill="#ffffff" stroke="#000000" points="166,-42 166,-61 287,-61 287,-42 166,-42"/>
<text text-anchor="middle" x="226.5" y="-49" font-family="Helvetica,sans-Serif" font-size="10.00" fill="#000000">getConductanceGABAb</text>
</a>
</g>
</g>
<!-- Node1536&#45;&gt;Node1550 -->
<g id="edge16" class="edge">
<title>Node1536&#45;&gt;Node1550</title>
<path fill="none" stroke="#191970" d="M76.2133,-129.5749C94.1747,-112.3134 124.3018,-85.9378 155,-70.5 162.5733,-66.6915 170.9941,-63.5838 179.3219,-61.0688"/>
<polygon fill="#191970" stroke="#191970" points="73.5443,-127.2903 68.8584,-136.7925 78.4473,-132.2864 73.5443,-127.2903"/>
</g>
<!-- Node1538 -->
<g id="node3" class="node">
<title>Node1538</title>
<g id="a_node3"><a xlink:href="classCARLsim.html#ad4930e827d0e5cc6a63dc4a07e1879dc" target="_top" xlink:title="Returns true is the network is COBA enabled. ">
<polygon fill="#ffffff" stroke="#000000" points="346,-238 346,-257 513,-257 513,-238 346,-238"/>
<text text-anchor="middle" x="429.5" y="-245" font-family="Helvetica,sans-Serif" font-size="10.00" fill="#000000">CARLsim::isSimulationWithCOBA</text>
</a>
</g>
</g>
<!-- Node1537&#45;&gt;Node1538 -->
<g id="edge2" class="edge">
<title>Node1537&#45;&gt;Node1538</title>
<path fill="none" stroke="#191970" d="M308.3115,-247.5C320.6363,-247.5 333.3639,-247.5 345.7292,-247.5"/>
<polygon fill="#191970" stroke="#191970" points="308.0702,-244.0001 298.0702,-247.5 308.0702,-251.0001 308.0702,-244.0001"/>
</g>
<!-- Node1541 -->
<g id="node6" class="node">
<title>Node1541</title>
<g id="a_node6"><a xlink:href="classCARLsim_1_1Impl.html#af614535178ba3d0a11d4a6bda3fa5413" target="_top" xlink:title="CARLsim::Impl::getConductanceAMPA">
<polygon fill="#ffffff" stroke="#000000" points="334.5,-175 334.5,-194 524.5,-194 524.5,-175 334.5,-175"/>
<text text-anchor="middle" x="429.5" y="-182" font-family="Helvetica,sans-Serif" font-size="10.00" fill="#000000">CARLsim::Impl::getConductanceAMPA</text>
</a>
</g>
</g>
<!-- Node1540&#45;&gt;Node1541 -->
<g id="edge5" class="edge">
<title>Node1540&#45;&gt;Node1541</title>
<path fill="none" stroke="#191970" d="M294.6611,-171.8796C307.348,-173.0671 320.8168,-174.3277 334.1437,-175.575"/>
<polygon fill="#191970" stroke="#191970" points="294.9543,-168.3918 284.6717,-170.9446 294.3019,-175.3614 294.9543,-168.3918"/>
</g>
<!-- Node1543 -->
<g id="node8" class="node">
<title>Node1543</title>
<g id="a_node8"><a xlink:href="classSNN.html#a0d88c00011be6536c68f8e6bc70ca1a3" target="_top" xlink:title="temporary getter to return pointer to current[] ">
<polygon fill="#ffffff" stroke="#000000" points="398.5,-99 398.5,-118 460.5,-118 460.5,-99 398.5,-99"/>
<text text-anchor="middle" x="429.5" y="-106" font-family="Helvetica,sans-Serif" font-size="10.00" fill="#000000">getCurrent</text>
</a>
</g>
</g>
<!-- Node1540&#45;&gt;Node1543 -->
<g id="edge7" class="edge">
<title>Node1540&#45;&gt;Node1543</title>
<path fill="none" stroke="#191970" d="M278.5999,-153.1353C285.204,-151.1369 291.8114,-148.9194 298,-146.5 314.8498,-139.9126 316.9501,-133.5505 334,-127.5 354.8702,-120.0938 379.3883,-115.2922 398.3559,-112.3688"/>
<polygon fill="#191970" stroke="#191970" points="277.618,-149.7758 268.9756,-155.9044 279.5535,-156.5029 277.618,-149.7758"/>
</g>
<!-- Node1542 -->
<g id="node7" class="node">
<title>Node1542</title>
<g id="a_node7"><a xlink:href="classCARLsim.html#a9f12565a3b01482ccba3b63c5d6c3279" target="_top" xlink:title="gets AMPA vector of a group ">
<polygon fill="#ffffff" stroke="#000000" points="563.5,-175 563.5,-194 728.5,-194 728.5,-175 563.5,-175"/>
<text text-anchor="middle" x="646" y="-182" font-family="Helvetica,sans-Serif" font-size="10.00" fill="#000000">CARLsim::getConductanceAMPA</text>
</a>
</g>
</g>
<!-- Node1541&#45;&gt;Node1542 -->
<g id="edge6" class="edge">
<title>Node1541&#45;&gt;Node1542</title>
<path fill="none" stroke="#191970" d="M535.029,-184.5C544.5013,-184.5 554.0014,-184.5 563.239,-184.5"/>
<polygon fill="#191970" stroke="#191970" points="534.7751,-181.0001 524.7751,-184.5 534.7751,-188.0001 534.7751,-181.0001"/>
</g>
<!-- Node1544&#45;&gt;Node1543 -->
<g id="edge11" class="edge">
<title>Node1544&#45;&gt;Node1543</title>
<path fill="none" stroke="#191970" d="M295.8985,-121.0046C330.7456,-117.743 371.2202,-113.9548 398.4088,-111.41"/>
<polygon fill="#191970" stroke="#191970" points="295.392,-117.5366 285.7617,-121.9533 296.0444,-124.5061 295.392,-117.5366"/>
</g>
<!-- Node1545 -->
<g id="node10" class="node">
<title>Node1545</title>
<g id="a_node10"><a xlink:href="classCARLsim_1_1Impl.html#a450adf3cd56dd307b86c7d33df5afffd" target="_top" xlink:title="CARLsim::Impl::getConductanceNMDA">
<polygon fill="#ffffff" stroke="#000000" points="334,-137 334,-156 525,-156 525,-137 334,-137"/>
<text text-anchor="middle" x="429.5" y="-144" font-family="Helvetica,sans-Serif" font-size="10.00" fill="#000000">CARLsim::Impl::getConductanceNMDA</text>
</a>
</g>
</g>
<!-- Node1544&#45;&gt;Node1545 -->
<g id="edge9" class="edge">
<title>Node1544&#45;&gt;Node1545</title>
<path fill="none" stroke="#191970" d="M295.8686,-133.9926C308.117,-135.139 321.0615,-136.3506 333.8805,-137.5504"/>
<polygon fill="#191970" stroke="#191970" points="296.0444,-130.4939 285.7617,-133.0467 295.392,-137.4634 296.0444,-130.4939"/>
</g>
<!-- Node1546 -->
<g id="node11" class="node">
<title>Node1546</title>
<g id="a_node11"><a xlink:href="classCARLsim.html#ab251be3aba6d73b79fdb0d44019b1790" target="_top" xlink:title="gets NMDA vector of a group ">
<polygon fill="#ffffff" stroke="#000000" points="562.5,-137 562.5,-156 729.5,-156 729.5,-137 562.5,-137"/>
<text text-anchor="middle" x="646" y="-144" font-family="Helvetica,sans-Serif" font-size="10.00" fill="#000000">CARLsim::getConductanceNMDA</text>
</a>
</g>
</g>
<!-- Node1545&#45;&gt;Node1546 -->
<g id="edge10" class="edge">
<title>Node1545&#45;&gt;Node1546</title>
<path fill="none" stroke="#191970" d="M535.3488,-146.5C544.4556,-146.5 553.5851,-146.5 562.4793,-146.5"/>
<polygon fill="#191970" stroke="#191970" points="535.0903,-143.0001 525.0903,-146.5 535.0902,-150.0001 535.0903,-143.0001"/>
</g>
<!-- Node1547&#45;&gt;Node1543 -->
<g id="edge15" class="edge">
<title>Node1547&#45;&gt;Node1543</title>
<path fill="none" stroke="#191970" d="M297.1762,-96.115C331.6716,-99.3436 371.4147,-103.0634 398.2699,-105.577"/>
<polygon fill="#191970" stroke="#191970" points="297.4144,-92.6221 287.1317,-95.1749 296.762,-99.5916 297.4144,-92.6221"/>
</g>
<!-- Node1548 -->
<g id="node13" class="node">
<title>Node1548</title>
<g id="a_node13"><a xlink:href="classCARLsim_1_1Impl.html#aaf0866addc7106a9d3ca39fe467af659" target="_top" xlink:title="CARLsim::Impl::getConductance\lGABAa">
<polygon fill="#ffffff" stroke="#000000" points="349,-49.5 349,-79.5 510,-79.5 510,-49.5 349,-49.5"/>
<text text-anchor="start" x="357" y="-67.5" font-family="Helvetica,sans-Serif" font-size="10.00" fill="#000000">CARLsim::Impl::getConductance</text>
<text text-anchor="middle" x="429.5" y="-56.5" font-family="Helvetica,sans-Serif" font-size="10.00" fill="#000000">GABAa</text>
</a>
</g>
</g>
<!-- Node1547&#45;&gt;Node1548 -->
<g id="edge13" class="edge">
<title>Node1547&#45;&gt;Node1548</title>
<path fill="none" stroke="#191970" d="M297.3253,-80.7777C313.9783,-78.7268 331.8473,-76.5262 348.8943,-74.4268"/>
<polygon fill="#191970" stroke="#191970" points="296.6289,-77.3369 287.1317,-82.033 297.4846,-84.2844 296.6289,-77.3369"/>
</g>
<!-- Node1549 -->
<g id="node14" class="node">
<title>Node1549</title>
<g id="a_node14"><a xlink:href="classCARLsim.html#a42c7f8460a85cfb8566a1959da9a925d" target="_top" xlink:title="gets GABAa vector of a group ">
<polygon fill="#ffffff" stroke="#000000" points="561,-55 561,-74 731,-74 731,-55 561,-55"/>
<text text-anchor="middle" x="646" y="-62" font-family="Helvetica,sans-Serif" font-size="10.00" fill="#000000">CARLsim::getConductanceGABAa</text>
</a>
</g>
</g>
<!-- Node1548&#45;&gt;Node1549 -->
<g id="edge14" class="edge">
<title>Node1548&#45;&gt;Node1549</title>
<path fill="none" stroke="#191970" d="M520.3272,-64.5C533.7923,-64.5 547.6267,-64.5 560.9675,-64.5"/>
<polygon fill="#191970" stroke="#191970" points="520.1166,-61.0001 510.1166,-64.5 520.1166,-68.0001 520.1166,-61.0001"/>
</g>
<!-- Node1550&#45;&gt;Node1543 -->
<g id="edge19" class="edge">
<title>Node1550&#45;&gt;Node1543</title>
<path fill="none" stroke="#191970" d="M278.5999,-63.8647C285.204,-65.8631 291.8114,-68.0806 298,-70.5 314.8498,-77.0874 316.9501,-83.4495 334,-89.5 354.8702,-96.9062 379.3883,-101.7078 398.3559,-104.6312"/>
<polygon fill="#191970" stroke="#191970" points="279.5535,-60.4971 268.9756,-61.0956 277.618,-67.2242 279.5535,-60.4971"/>
</g>
<!-- Node1551 -->
<g id="node16" class="node">
<title>Node1551</title>
<g id="a_node16"><a xlink:href="classCARLsim_1_1Impl.html#a917e6c84361a393ba5752f365cce008f" target="_top" xlink:title="CARLsim::Impl::getConductance\lGABAb">
<polygon fill="#ffffff" stroke="#000000" points="349,-.5 349,-30.5 510,-30.5 510,-.5 349,-.5"/>
<text text-anchor="start" x="357" y="-18.5" font-family="Helvetica,sans-Serif" font-size="10.00" fill="#000000">CARLsim::Impl::getConductance</text>
<text text-anchor="middle" x="429.5" y="-7.5" font-family="Helvetica,sans-Serif" font-size="10.00" fill="#000000">GABAb</text>
</a>
</g>
</g>
<!-- Node1550&#45;&gt;Node1551 -->
<g id="edge17" class="edge">
<title>Node1550&#45;&gt;Node1551</title>
<path fill="none" stroke="#191970" d="M290.1989,-40.2036C308.7741,-36.9095 329.3199,-33.2659 348.798,-29.8117"/>
<polygon fill="#191970" stroke="#191970" points="289.3366,-36.8019 280.1014,-41.9943 290.5589,-43.6943 289.3366,-36.8019"/>
</g>
<!-- Node1552 -->
<g id="node17" class="node">
<title>Node1552</title>
<g id="a_node17"><a xlink:href="classCARLsim.html#aa50bf7b25bc7c5c164e2a11ee763796e" target="_top" xlink:title="gets GABAb vector of a group ">
<polygon fill="#ffffff" stroke="#000000" points="561,-6 561,-25 731,-25 731,-6 561,-6"/>
<text text-anchor="middle" x="646" y="-13" font-family="Helvetica,sans-Serif" font-size="10.00" fill="#000000">CARLsim::getConductanceGABAb</text>
</a>
</g>
</g>
<!-- Node1551&#45;&gt;Node1552 -->
<g id="edge18" class="edge">
<title>Node1551&#45;&gt;Node1552</title>
<path fill="none" stroke="#191970" d="M520.3272,-15.5C533.7923,-15.5 547.6267,-15.5 560.9675,-15.5"/>
<polygon fill="#191970" stroke="#191970" points="520.1166,-12.0001 510.1166,-15.5 520.1166,-19.0001 520.1166,-12.0001"/>
</g>
</g>
</svg>
