<?xml version="1.0" encoding="UTF-8" standalone="no"?>
<!DOCTYPE svg PUBLIC "-//W3C//DTD SVG 1.1//EN"
 "http://www.w3.org/Graphics/SVG/1.1/DTD/svg11.dtd">
<!-- Generated by graphviz version 2.40.1 (20161225.0304)
 -->
<!-- Title: getNumSilentNeurons Pages: 1 -->
<svg width="296pt" height="78pt"
 viewBox="0.00 0.00 296.00 77.50" xmlns="http://www.w3.org/2000/svg" xmlns:xlink="http://www.w3.org/1999/xlink">
<g id="graph0" class="graph" transform="scale(1 1) rotate(0) translate(4 73.5)">
<title>getNumSilentNeurons</title>
<polygon fill="#ffffff" stroke="transparent" points="-4,4 -4,-73.5 292,-73.5 292,4 -4,4"/>
<!-- Node536 -->
<g id="node1" class="node">
<title>Node536</title>
<polygon fill="#bfbfbf" stroke="#000000" points="0,-22.5 0,-41.5 113,-41.5 113,-22.5 0,-22.5"/>
<text text-anchor="middle" x="56.5" y="-29.5" font-family="Helvetica,sans-Serif" font-size="10.00" fill="#000000">getNumSilentNeurons</text>
</g>
<!-- Node537 -->
<g id="node2" class="node">
<title>Node537</title>
<g id="a_node2"><a xlink:href="classSpikeMonitor.html#a576be2fdd29d7b433d7c3645cb9f3b1f" target="_top" xlink:title="returns the number of neurons that are silent. ">
<polygon fill="#ffffff" stroke="#000000" points="149,-39 149,-69 288,-69 288,-39 149,-39"/>
<text text-anchor="start" x="157" y="-57" font-family="Helvetica,sans-Serif" font-size="10.00" fill="#000000">SpikeMonitor::getNumSilent</text>
<text text-anchor="middle" x="218.5" y="-46" font-family="Helvetica,sans-Serif" font-size="10.00" fill="#000000">Neurons</text>
</a>
</g>
</g>
<!-- Node536&#45;&gt;Node537 -->
<g id="edge1" class="edge">
<title>Node536&#45;&gt;Node537</title>
<path fill="none" stroke="#191970" d="M123.2848,-41.0695C131.6921,-42.2113 140.3103,-43.3816 148.7617,-44.5294"/>
<polygon fill="#191970" stroke="#191970" points="123.5398,-37.5721 113.1597,-39.6945 122.5978,-44.5085 123.5398,-37.5721"/>
</g>
<!-- Node538 -->
<g id="node3" class="node">
<title>Node538</title>
<g id="a_node3"><a xlink:href="classSpikeMonitorCore.html#a3e33677ab9388f1e907302d2a48fdc6b" target="_top" xlink:title="returns the SpikeMonitor ID ">
<polygon fill="#ffffff" stroke="#000000" points="183,-.5 183,-19.5 254,-19.5 254,-.5 183,-.5"/>
<text text-anchor="middle" x="218.5" y="-7.5" font-family="Helvetica,sans-Serif" font-size="10.00" fill="#000000">getMonitorId</text>
</a>
</g>
</g>
<!-- Node536&#45;&gt;Node538 -->
<g id="edge2" class="edge">
<title>Node536&#45;&gt;Node538</title>
<path fill="none" stroke="#191970" d="M123.0869,-22.9573C143.5654,-20.1763 165.3139,-17.2228 182.867,-14.8391"/>
<polygon fill="#191970" stroke="#191970" points="122.5978,-19.4915 113.1597,-24.3055 123.5398,-26.4279 122.5978,-19.4915"/>
</g>
</g>
</svg>
