<?xml version="1.0" encoding="UTF-8" standalone="no"?>
<!DOCTYPE svg PUBLIC "-//W3C//DTD SVG 1.1//EN"
 "http://www.w3.org/Graphics/SVG/1.1/DTD/svg11.dtd">
<!-- Generated by graphviz version 2.40.1 (20161225.0304)
 -->
<!-- Title: getPersistentData Pages: 1 -->
<svg width="865pt" height="360pt"
 viewBox="0.00 0.00 865.00 359.77" xmlns="http://www.w3.org/2000/svg" xmlns:xlink="http://www.w3.org/1999/xlink">
<g id="graph0" class="graph" transform="scale(1 1) rotate(0) translate(4 355.7736)">
<title>getPersistentData</title>
<polygon fill="#ffffff" stroke="transparent" points="-4,4 -4,-355.7736 861,-355.7736 861,4 -4,4"/>
<!-- Node575 -->
<g id="node1" class="node">
<title>Node575</title>
<polygon fill="#bfbfbf" stroke="#000000" points="0,-199.0567 0,-218.0567 95,-218.0567 95,-199.0567 0,-199.0567"/>
<text text-anchor="middle" x="47.5" y="-206.0567" font-family="Helvetica,sans-Serif" font-size="10.00" fill="#000000">getPersistentData</text>
</g>
<!-- Node576 -->
<g id="node2" class="node">
<title>Node576</title>
<g id="a_node2"><a xlink:href="classSpikeMonitorCore.html#ae62d623e8edfc6b05309256c1d825bbd" target="_top" xlink:title="returns the recorded mean firing rate of the group ">
<polygon fill="#ffffff" stroke="#000000" points="131,-199.0567 131,-218.0567 247,-218.0567 247,-199.0567 131,-199.0567"/>
<text text-anchor="middle" x="189" y="-206.0567" font-family="Helvetica,sans-Serif" font-size="10.00" fill="#000000">getPopMeanFiringRate</text>
</a>
</g>
</g>
<!-- Node575&#45;&gt;Node576 -->
<g id="edge1" class="edge">
<title>Node575&#45;&gt;Node576</title>
<path fill="none" stroke="#191970" d="M95.0111,-208.5567C103.2631,-208.5567 111.9897,-208.5567 120.6677,-208.5567"/>
<polygon fill="#191970" stroke="#191970" points="120.8013,-212.0568 130.8012,-208.5567 120.8012,-205.0568 120.8013,-212.0568"/>
</g>
<!-- Node581 -->
<g id="node7" class="node">
<title>Node581</title>
<g id="a_node7"><a xlink:href="classSpikeMonitorCore.html#af6c333e6cefff92d0e354eca70625cdc" target="_top" xlink:title="returns the total number of recorded spikes in the group ">
<polygon fill="#ffffff" stroke="#000000" points="498.5,-313.0567 498.5,-332.0567 596.5,-332.0567 596.5,-313.0567 498.5,-313.0567"/>
<text text-anchor="middle" x="547.5" y="-320.0567" font-family="Helvetica,sans-Serif" font-size="10.00" fill="#000000">getPopNumSpikes</text>
</a>
</g>
</g>
<!-- Node575&#45;&gt;Node581 -->
<g id="edge28" class="edge">
<title>Node575&#45;&gt;Node581</title>
<path fill="none" stroke="#191970" d="M81.5144,-218.0797C142.4313,-234.9309 274.3201,-270.492 387,-294.5567 420.4263,-301.6955 458.0576,-308.3336 488.4763,-313.353"/>
<polygon fill="#191970" stroke="#191970" points="488.0655,-316.8323 498.4992,-314.9916 489.1949,-309.924 488.0655,-316.8323"/>
</g>
<!-- Node585 -->
<g id="node11" class="node">
<title>Node585</title>
<g id="a_node11"><a xlink:href="classSpikeMonitorCore.html#ad0c4b32bb5cc0c7a8d95ed6023a2695f" target="_top" xlink:title="computes the standard deviation of firing rates in the group ">
<polygon fill="#ffffff" stroke="#000000" points="494,-9.0567 494,-28.0567 601,-28.0567 601,-9.0567 494,-9.0567"/>
<text text-anchor="middle" x="547.5" y="-16.0567" font-family="Helvetica,sans-Serif" font-size="10.00" fill="#000000">getPopStdFiringRate</text>
</a>
</g>
</g>
<!-- Node575&#45;&gt;Node585 -->
<g id="edge29" class="edge">
<title>Node575&#45;&gt;Node585</title>
<path fill="none" stroke="#191970" d="M57.864,-198.6979C89.2321,-169.3637 186.903,-81.6934 283,-33.5567 326.1241,-11.9551 339.2731,-9.5185 387,-2.5567 423.6301,2.7864 465.2271,-1.655 496.8941,-7.2006"/>
<polygon fill="#191970" stroke="#191970" points="496.3389,-10.6572 506.8078,-9.0289 497.6085,-3.7733 496.3389,-10.6572"/>
</g>
<!-- Node577 -->
<g id="node3" class="node">
<title>Node577</title>
<g id="a_node3"><a xlink:href="classSpikeMonitorCore.html#a3a3ffdb35b09328d22e5d72503ed1f55" target="_top" xlink:title="returns recording status ">
<polygon fill="#ffffff" stroke="#000000" points="283,-142.0567 283,-161.0567 351,-161.0567 351,-142.0567 283,-142.0567"/>
<text text-anchor="middle" x="317" y="-149.0567" font-family="Helvetica,sans-Serif" font-size="10.00" fill="#000000">isRecording</text>
</a>
</g>
</g>
<!-- Node576&#45;&gt;Node577 -->
<g id="edge2" class="edge">
<title>Node576&#45;&gt;Node577</title>
<path fill="none" stroke="#191970" d="M210.4243,-199.0162C231.1912,-189.7685 262.9035,-175.6466 286.3402,-165.2099"/>
<polygon fill="#191970" stroke="#191970" points="287.7944,-168.3937 295.5058,-161.1284 284.9468,-161.9991 287.7944,-168.3937"/>
</g>
<!-- Node576&#45;&gt;Node581 -->
<g id="edge26" class="edge">
<title>Node576&#45;&gt;Node581</title>
<path fill="none" stroke="#191970" d="M218.9489,-218.0802C283.3997,-238.575 435.2651,-286.8669 507.7069,-309.9028"/>
<polygon fill="#191970" stroke="#191970" points="506.7938,-313.2851 517.3842,-312.9802 508.9151,-306.6143 506.7938,-313.2851"/>
</g>
<!-- Node584 -->
<g id="node10" class="node">
<title>Node584</title>
<g id="a_node10"><a xlink:href="classSpikeMonitorCore.html#a9cf20c30ff0efdbc5e3c5194648a7fb3" target="_top" xlink:title="returns the total recorded time in ms ">
<polygon fill="#ffffff" stroke="#000000" points="649,-275.0567 649,-294.0567 767,-294.0567 767,-275.0567 649,-275.0567"/>
<text text-anchor="middle" x="708" y="-282.0567" font-family="Helvetica,sans-Serif" font-size="10.00" fill="#000000">getRecordingTotalTime</text>
</a>
</g>
</g>
<!-- Node576&#45;&gt;Node584 -->
<g id="edge27" class="edge">
<title>Node576&#45;&gt;Node584</title>
<path fill="none" stroke="#191970" d="M203.4057,-218.142C244.6021,-244.8573 367.3235,-319.6267 482,-341.5567 539.186,-352.4926 556.8904,-357.0982 613,-341.5567 641.6731,-333.6147 670.3808,-314.459 688.6124,-300.5411"/>
<polygon fill="#191970" stroke="#191970" points="690.9773,-303.1339 696.6748,-294.2014 686.6505,-297.6313 690.9773,-303.1339"/>
</g>
<!-- Node578 -->
<g id="node4" class="node">
<title>Node578</title>
<g id="a_node4"><a xlink:href="classSpikeMonitorCore.html#af0ba89c38f6852cdf9d914687ad6a445" target="_top" xlink:title="prints the AER vector in human&#45;readable format ">
<polygon fill="#ffffff" stroke="#000000" points="399,-199.0567 399,-218.0567 434,-218.0567 434,-199.0567 399,-199.0567"/>
<text text-anchor="middle" x="416.5" y="-206.0567" font-family="Helvetica,sans-Serif" font-size="10.00" fill="#000000">print</text>
</a>
</g>
</g>
<!-- Node577&#45;&gt;Node578 -->
<g id="edge3" class="edge">
<title>Node577&#45;&gt;Node578</title>
<path fill="none" stroke="#191970" d="M344.4522,-161.1759C361.601,-169.9417 383.2066,-182.567 398.2646,-192.7477"/>
<polygon fill="#191970" stroke="#191970" points="396.5112,-195.7946 406.6958,-198.7144 400.5549,-190.0807 396.5112,-195.7946"/>
</g>
<!-- Node588 -->
<g id="node14" class="node">
<title>Node588</title>
<g id="a_node14"><a xlink:href="classSpikeMonitorCore.html#a6e116c2994e0449c41e56d03370fa54c" target="_top" xlink:title="inserts a (time,neurId) tupel into the 2D spike vector ">
<polygon fill="#ffffff" stroke="#000000" points="387,-85.0567 387,-104.0567 446,-104.0567 446,-85.0567 387,-85.0567"/>
<text text-anchor="middle" x="416.5" y="-92.0567" font-family="Helvetica,sans-Serif" font-size="10.00" fill="#000000">pushAER</text>
</a>
</g>
</g>
<!-- Node577&#45;&gt;Node588 -->
<g id="edge23" class="edge">
<title>Node577&#45;&gt;Node588</title>
<path fill="none" stroke="#191970" d="M326.5405,-141.9125C338.8857,-132.6139 361.0974,-119.1091 380.3601,-108.7397"/>
<polygon fill="#191970" stroke="#191970" points="382.0122,-111.8254 389.2392,-104.0781 378.7583,-105.6276 382.0122,-111.8254"/>
</g>
<!-- Node578&#45;&gt;Node576 -->
<g id="edge13" class="edge">
<title>Node578&#45;&gt;Node576</title>
<path fill="none" stroke="#191970" d="M398.7879,-208.5567C368.7908,-208.5567 306.4783,-208.5567 257.5196,-208.5567"/>
<polygon fill="#191970" stroke="#191970" points="257.2915,-205.0568 247.2915,-208.5567 257.2914,-212.0568 257.2915,-205.0568"/>
</g>
<!-- Node578&#45;&gt;Node577 -->
<g id="edge4" class="edge">
<title>Node578&#45;&gt;Node577</title>
<path fill="none" stroke="#191970" d="M398.835,-203.7398C380.859,-195.3588 353.1365,-179.4904 335.0299,-167.2267"/>
<polygon fill="#191970" stroke="#191970" points="336.721,-164.1349 326.5405,-161.2009 332.6693,-169.8432 336.721,-164.1349"/>
</g>
<!-- Node579 -->
<g id="node5" class="node">
<title>Node579</title>
<g id="a_node5"><a xlink:href="classSNN.html#a5fd2b156623d78138bcb44167eabab78" target="_top" xlink:title="SNN::getSimTime">
<polygon fill="#ffffff" stroke="#000000" points="499,-237.0567 499,-256.0567 596,-256.0567 596,-237.0567 499,-237.0567"/>
<text text-anchor="middle" x="547.5" y="-244.0567" font-family="Helvetica,sans-Serif" font-size="10.00" fill="#000000">SNN::getSimTime</text>
</a>
</g>
</g>
<!-- Node578&#45;&gt;Node579 -->
<g id="edge5" class="edge">
<title>Node578&#45;&gt;Node579</title>
<path fill="none" stroke="#191970" d="M434.1672,-213.6816C452.2134,-218.9163 480.9109,-227.2408 504.9122,-234.203"/>
<polygon fill="#191970" stroke="#191970" points="503.9459,-237.5669 514.5251,-236.9915 505.8961,-230.8441 503.9459,-237.5669"/>
</g>
<!-- Node580 -->
<g id="node6" class="node">
<title>Node580</title>
<g id="a_node6"><a xlink:href="classSNN.html#ab0367f8ebd4019bf7d34ebddb1563fe7" target="_top" xlink:title="SNN::getGroupName">
<polygon fill="#ffffff" stroke="#000000" points="492.5,-199.0567 492.5,-218.0567 602.5,-218.0567 602.5,-199.0567 492.5,-199.0567"/>
<text text-anchor="middle" x="547.5" y="-206.0567" font-family="Helvetica,sans-Serif" font-size="10.00" fill="#000000">SNN::getGroupName</text>
</a>
</g>
</g>
<!-- Node578&#45;&gt;Node580 -->
<g id="edge6" class="edge">
<title>Node578&#45;&gt;Node580</title>
<path fill="none" stroke="#191970" d="M434.1672,-208.5567C446.7191,-208.5567 464.4238,-208.5567 482.1171,-208.5567"/>
<polygon fill="#191970" stroke="#191970" points="482.4944,-212.0568 492.4943,-208.5567 482.4943,-205.0568 482.4944,-212.0568"/>
</g>
<!-- Node578&#45;&gt;Node581 -->
<g id="edge7" class="edge">
<title>Node578&#45;&gt;Node581</title>
<path fill="none" stroke="#191970" d="M425.4034,-218.0673C431.4665,-224.7201 439.5336,-233.9258 446,-242.5567 463.7409,-266.2362 458.9066,-280.0593 482,-298.5567 487.0866,-302.631 492.9289,-306.0529 498.9845,-308.9166"/>
<polygon fill="#191970" stroke="#191970" points="498.0238,-312.3099 508.598,-312.9709 500.744,-305.86 498.0238,-312.3099"/>
</g>
<!-- Node578&#45;&gt;Node584 -->
<g id="edge12" class="edge">
<title>Node578&#45;&gt;Node584</title>
<path fill="none" stroke="#191970" d="M424.1535,-218.2968C435.2731,-231.6322 457.2856,-255.1077 482,-265.5567 531.5631,-286.5115 592.6159,-290.5079 638.766,-289.6803"/>
<polygon fill="#191970" stroke="#191970" points="639.0643,-293.1738 648.9699,-289.415 638.8823,-286.1762 639.0643,-293.1738"/>
</g>
<!-- Node578&#45;&gt;Node585 -->
<g id="edge14" class="edge">
<title>Node578&#45;&gt;Node585</title>
<path fill="none" stroke="#191970" d="M423.1764,-198.8734C443.9323,-168.7694 507.5689,-76.472 534.8583,-36.892"/>
<polygon fill="#191970" stroke="#191970" points="537.8851,-38.668 540.6799,-28.4484 532.1221,-34.6945 537.8851,-38.668"/>
</g>
<!-- Node587 -->
<g id="node13" class="node">
<title>Node587</title>
<g id="a_node13"><a xlink:href="classSpikeMonitorCore.html#aed09edf4583ac05d42fccc7e3556e3c5" target="_top" xlink:title="returns the recorded mean firing rate for a specific neuron ">
<polygon fill="#ffffff" stroke="#000000" points="482,-161.0567 482,-180.0567 613,-180.0567 613,-161.0567 482,-161.0567"/>
<text text-anchor="middle" x="547.5" y="-168.0567" font-family="Helvetica,sans-Serif" font-size="10.00" fill="#000000">getNeuronMeanFiringRate</text>
</a>
</g>
</g>
<!-- Node578&#45;&gt;Node587 -->
<g id="edge19" class="edge">
<title>Node578&#45;&gt;Node587</title>
<path fill="none" stroke="#191970" d="M434.1672,-203.4319C452.2134,-198.1971 480.9109,-189.8726 504.9122,-182.9104"/>
<polygon fill="#191970" stroke="#191970" points="505.8961,-186.2694 514.5251,-180.122 503.9459,-179.5465 505.8961,-186.2694"/>
</g>
<!-- Node581&#45;&gt;Node577 -->
<g id="edge8" class="edge">
<title>Node581&#45;&gt;Node577</title>
<path fill="none" stroke="#191970" d="M526.1922,-313.0115C513.2022,-306.9811 496.3879,-298.7948 482,-290.5567 438.0341,-265.3831 425.5518,-260.4273 387,-227.5567 365.8081,-209.4878 344.5754,-185.3836 331.1452,-169.2095"/>
<polygon fill="#191970" stroke="#191970" points="333.5765,-166.6537 324.5365,-161.1284 328.1578,-171.0852 333.5765,-166.6537"/>
</g>
<!-- Node582 -->
<g id="node8" class="node">
<title>Node582</title>
<g id="a_node8"><a xlink:href="classSpikeMonitorCore.html#a005a2f884f6260054483d4fa6ed6ddbb" target="_top" xlink:title="returns the number of recorded spikes of a specific neuron ">
<polygon fill="#ffffff" stroke="#000000" points="651.5,-142.0567 651.5,-161.0567 764.5,-161.0567 764.5,-142.0567 651.5,-142.0567"/>
<text text-anchor="middle" x="708" y="-149.0567" font-family="Helvetica,sans-Serif" font-size="10.00" fill="#000000">getNeuronNumSpikes</text>
</a>
</g>
</g>
<!-- Node581&#45;&gt;Node582 -->
<g id="edge9" class="edge">
<title>Node581&#45;&gt;Node582</title>
<path fill="none" stroke="#191970" d="M559.6041,-313.0059C573.1515,-302.0972 595.4958,-283.4392 613,-265.5567 644.3417,-233.5376 676.9436,-192.4098 694.6287,-169.3268"/>
<polygon fill="#191970" stroke="#191970" points="697.5781,-171.2304 700.845,-161.1518 692.0061,-166.9933 697.5781,-171.2304"/>
</g>
<!-- Node582&#45;&gt;Node577 -->
<g id="edge10" class="edge">
<title>Node582&#45;&gt;Node577</title>
<path fill="none" stroke="#191970" d="M651.3509,-151.5567C572.9054,-151.5567 432.8182,-151.5567 361.4455,-151.5567"/>
<polygon fill="#191970" stroke="#191970" points="361.0147,-148.0568 351.0147,-151.5567 361.0147,-155.0568 361.0147,-148.0568"/>
</g>
<!-- Node583 -->
<g id="node9" class="node">
<title>Node583</title>
<g id="a_node9"><a xlink:href="classSpikeMonitorCore.html#abe76071e1ac3632d55f2455b239b3d12" target="_top" xlink:title="returns recording mode ">
<polygon fill="#ffffff" stroke="#000000" points="803,-113.0567 803,-132.0567 857,-132.0567 857,-113.0567 803,-113.0567"/>
<text text-anchor="middle" x="830" y="-120.0567" font-family="Helvetica,sans-Serif" font-size="10.00" fill="#000000">getMode</text>
</a>
</g>
</g>
<!-- Node582&#45;&gt;Node583 -->
<g id="edge11" class="edge">
<title>Node582&#45;&gt;Node583</title>
<path fill="none" stroke="#191970" d="M748.2855,-141.9807C762.6948,-138.5555 778.854,-134.7144 792.9749,-131.3578"/>
<polygon fill="#191970" stroke="#191970" points="793.9231,-134.73 802.8426,-129.0122 792.3042,-127.9197 793.9231,-134.73"/>
</g>
<!-- Node585&#45;&gt;Node576 -->
<g id="edge16" class="edge">
<title>Node585&#45;&gt;Node576</title>
<path fill="none" stroke="#191970" d="M500.0755,-9.035C467.1474,-4.5978 422.9161,-3.057 387,-17.5567 298.4359,-53.3111 227.4197,-149.7487 200.5755,-190.2509"/>
<polygon fill="#191970" stroke="#191970" points="197.4994,-188.5613 194.9847,-198.8533 203.3688,-192.3758 197.4994,-188.5613"/>
</g>
<!-- Node585&#45;&gt;Node577 -->
<g id="edge15" class="edge">
<title>Node585&#45;&gt;Node577</title>
<path fill="none" stroke="#191970" d="M493.7394,-15.7587C460.5549,-16.5212 418.4629,-22.204 387,-42.5567 353.7889,-64.0403 333.1717,-107.4513 323.5192,-132.521"/>
<polygon fill="#191970" stroke="#191970" points="320.1912,-131.431 320.049,-142.0248 326.7666,-133.8319 320.1912,-131.431"/>
</g>
<!-- Node586 -->
<g id="node12" class="node">
<title>Node586</title>
<g id="a_node12"><a xlink:href="classSpikeMonitorCore.html#a0fc20fcc5876030d796debd148ae7cee" target="_top" xlink:title="returns a list of firing rates for all neurons in the group (sorted by neuron ID ascending) ...">
<polygon fill="#ffffff" stroke="#000000" points="662,-28.0567 662,-47.0567 754,-47.0567 754,-28.0567 662,-28.0567"/>
<text text-anchor="middle" x="708" y="-35.0567" font-family="Helvetica,sans-Serif" font-size="10.00" fill="#000000">getAllFiringRates</text>
</a>
</g>
</g>
<!-- Node585&#45;&gt;Node586 -->
<g id="edge17" class="edge">
<title>Node585&#45;&gt;Node586</title>
<path fill="none" stroke="#191970" d="M601.3907,-24.9363C617.6051,-26.8558 635.4346,-28.9664 651.795,-30.9032"/>
<polygon fill="#191970" stroke="#191970" points="651.4222,-34.3834 661.7643,-32.0833 652.2452,-27.4319 651.4222,-34.3834"/>
</g>
<!-- Node586&#45;&gt;Node577 -->
<g id="edge18" class="edge">
<title>Node586&#45;&gt;Node577</title>
<path fill="none" stroke="#191970" d="M661.7229,-39.1104C584.6738,-42.3422 433.9173,-51.5972 387,-75.5567 361.2878,-88.6873 340.2379,-115.347 328.1509,-133.3346"/>
<polygon fill="#191970" stroke="#191970" points="325.1487,-131.5321 322.67,-141.8329 331.0313,-135.3261 325.1487,-131.5321"/>
</g>
<!-- Node587&#45;&gt;Node577 -->
<g id="edge20" class="edge">
<title>Node587&#45;&gt;Node577</title>
<path fill="none" stroke="#191970" d="M481.8431,-165.1447C443.1835,-161.958 395.3243,-158.0129 361.1516,-155.1961"/>
<polygon fill="#191970" stroke="#191970" points="361.2648,-151.6937 351.0111,-154.3602 360.6897,-158.67 361.2648,-151.6937"/>
</g>
<!-- Node587&#45;&gt;Node582 -->
<g id="edge21" class="edge">
<title>Node587&#45;&gt;Node582</title>
<path fill="none" stroke="#191970" d="M613.2446,-162.7739C622.5266,-161.6751 632.0764,-160.5446 641.3748,-159.4438"/>
<polygon fill="#191970" stroke="#191970" points="641.8222,-162.9154 651.3414,-158.264 640.9992,-155.9639 641.8222,-162.9154"/>
</g>
<!-- Node587&#45;&gt;Node584 -->
<g id="edge22" class="edge">
<title>Node587&#45;&gt;Node584</title>
<path fill="none" stroke="#191970" d="M591.7575,-180.0809C599.1213,-182.5851 606.4767,-185.7007 613,-189.5567 647.2598,-209.8083 678.0526,-245.266 694.7808,-266.6636"/>
<polygon fill="#191970" stroke="#191970" points="692.2086,-269.0623 701.0581,-274.8879 697.773,-264.8152 692.2086,-269.0623"/>
</g>
<!-- Node588&#45;&gt;Node577 -->
<g id="edge24" class="edge">
<title>Node588&#45;&gt;Node577</title>
<path fill="none" stroke="#191970" d="M406.6958,-104.3991C394.3819,-113.6291 372.5574,-126.9007 353.5201,-137.1689"/>
<polygon fill="#191970" stroke="#191970" points="351.6739,-134.1852 344.4522,-141.9375 354.9321,-140.3808 351.6739,-134.1852"/>
</g>
<!-- Node588&#45;&gt;Node583 -->
<g id="edge25" class="edge">
<title>Node588&#45;&gt;Node583</title>
<path fill="none" stroke="#191970" d="M446.2379,-96.5704C520.051,-101.5686 711.531,-114.5346 792.7272,-120.0328"/>
<polygon fill="#191970" stroke="#191970" points="792.7627,-123.5431 802.9763,-120.7268 793.2357,-116.5591 792.7627,-123.5431"/>
</g>
</g>
</svg>
