<?xml version="1.0" encoding="UTF-8" standalone="no"?>
<!DOCTYPE svg PUBLIC "-//W3C//DTD SVG 1.1//EN"
 "http://www.w3.org/Graphics/SVG/1.1/DTD/svg11.dtd">
<!-- Generated by graphviz version 2.40.1 (20161225.0304)
 -->
<!-- Title: print Pages: 1 -->
<svg width="922pt" height="436pt"
 viewBox="0.00 0.00 922.00 436.00" xmlns="http://www.w3.org/2000/svg" xmlns:xlink="http://www.w3.org/1999/xlink">
<g id="graph0" class="graph" transform="scale(1 1) rotate(0) translate(4 432)">
<title>print</title>
<polygon fill="#ffffff" stroke="transparent" points="-4,4 -4,-432 918,-432 918,4 -4,4"/>
<!-- Node403 -->
<g id="node1" class="node">
<title>Node403</title>
<polygon fill="#bfbfbf" stroke="#000000" points="0,-161.5 0,-180.5 35,-180.5 35,-161.5 0,-161.5"/>
<text text-anchor="middle" x="17.5" y="-168.5" font-family="Helvetica,sans-Serif" font-size="10.00" fill="#000000">print</text>
</g>
<!-- Node404 -->
<g id="node2" class="node">
<title>Node404</title>
<g id="a_node2"><a xlink:href="classNeuronMonitorCore.html#a3a3ffdb35b09328d22e5d72503ed1f55" target="_top" xlink:title="returns recording status ">
<polygon fill="#ffffff" stroke="#000000" points="71,-266.5 71,-285.5 139,-285.5 139,-266.5 71,-266.5"/>
<text text-anchor="middle" x="105" y="-273.5" font-family="Helvetica,sans-Serif" font-size="10.00" fill="#000000">isRecording</text>
</a>
</g>
</g>
<!-- Node403&#45;&gt;Node404 -->
<g id="edge1" class="edge">
<title>Node403&#45;&gt;Node404</title>
<path fill="none" stroke="#191970" d="M25.575,-180.6899C40.3558,-198.4269 71.9462,-236.3355 90.5238,-258.6286"/>
<polygon fill="#191970" stroke="#191970" points="87.8539,-260.8919 96.9446,-266.3335 93.2315,-256.4106 87.8539,-260.8919"/>
</g>
<!-- Node405 -->
<g id="node3" class="node">
<title>Node405</title>
<g id="a_node3"><a xlink:href="classNeuronMonitorCore.html#a743a4ad47ef60bc593cc9882bd4ffb57" target="_top" xlink:title="inserts a (time,neurId) tupel into the D Neuron State vector ">
<polygon fill="#ffffff" stroke="#000000" points="481,-408.5 481,-427.5 573,-427.5 573,-408.5 481,-408.5"/>
<text text-anchor="middle" x="527" y="-415.5" font-family="Helvetica,sans-Serif" font-size="10.00" fill="#000000">pushNeuronState</text>
</a>
</g>
</g>
<!-- Node404&#45;&gt;Node405 -->
<g id="edge2" class="edge">
<title>Node404&#45;&gt;Node405</title>
<path fill="none" stroke="#191970" d="M116.2921,-285.675C128.8018,-300.3069 150.4743,-326.4648 175,-342 266.8509,-400.1809 397.3579,-410.1481 470.9237,-413.4804"/>
<polygon fill="#191970" stroke="#191970" points="470.7749,-416.9771 480.9163,-413.9109 471.0763,-409.9836 470.7749,-416.9771"/>
</g>
<!-- Node406 -->
<g id="node4" class="node">
<title>Node406</title>
<g id="a_node4"><a xlink:href="classNeuronMonitorCore.html#ab91616c118b701c2afd9136393d1f19b" target="_top" xlink:title="starts recording Neuron state ">
<polygon fill="#ffffff" stroke="#000000" points="178,-285.5 178,-304.5 258,-304.5 258,-285.5 178,-285.5"/>
<text text-anchor="middle" x="218" y="-292.5" font-family="Helvetica,sans-Serif" font-size="10.00" fill="#000000">startRecording</text>
</a>
</g>
</g>
<!-- Node404&#45;&gt;Node406 -->
<g id="edge4" class="edge">
<title>Node404&#45;&gt;Node406</title>
<path fill="none" stroke="#191970" d="M139.2104,-275.4926C153.6373,-277.2504 170.3733,-280.0788 184.7006,-283.1846"/>
<polygon fill="#191970" stroke="#191970" points="184.1083,-286.6399 194.6399,-285.4837 185.686,-279.82 184.1083,-286.6399"/>
</g>
<!-- Node407 -->
<g id="node5" class="node">
<title>Node407</title>
<g id="a_node5"><a xlink:href="classNeuronMonitorCore.html#ac8bb3912a3ce86b15842e79d0b421204" target="_top" xlink:title="deletes data from the neuron state vector ">
<polygon fill="#ffffff" stroke="#000000" points="346.5,-361.5 346.5,-380.5 384.5,-380.5 384.5,-361.5 346.5,-361.5"/>
<text text-anchor="middle" x="365.5" y="-368.5" font-family="Helvetica,sans-Serif" font-size="10.00" fill="#000000">clear</text>
</a>
</g>
</g>
<!-- Node404&#45;&gt;Node407 -->
<g id="edge39" class="edge">
<title>Node404&#45;&gt;Node407</title>
<path fill="none" stroke="#191970" d="M134.6515,-285.518C146.8676,-291.7491 161.3379,-299.3195 175,-305 230.6513,-328.1389 298.9968,-346.2277 336.8393,-358.2474"/>
<polygon fill="#191970" stroke="#191970" points="336.0752,-361.6803 346.668,-361.4757 338.2597,-355.0298 336.0752,-361.6803"/>
</g>
<!-- Node425 -->
<g id="node23" class="node">
<title>Node425</title>
<g id="a_node23"><a xlink:href="classNeuronMonitorCore.html#a25e0e98dd4519eaaa6b258f0dcb91ac7" target="_top" xlink:title="stops recording Neuron state ">
<polygon fill="#ffffff" stroke="#000000" points="178,-247.5 178,-266.5 258,-266.5 258,-247.5 178,-247.5"/>
<text text-anchor="middle" x="218" y="-254.5" font-family="Helvetica,sans-Serif" font-size="10.00" fill="#000000">stopRecording</text>
</a>
</g>
</g>
<!-- Node404&#45;&gt;Node425 -->
<g id="edge34" class="edge">
<title>Node404&#45;&gt;Node425</title>
<path fill="none" stroke="#191970" d="M128.4137,-266.4705C139.7468,-263.6627 153.8222,-260.9214 167.4332,-258.7856"/>
<polygon fill="#191970" stroke="#191970" points="168.3121,-262.1942 177.6979,-257.2793 167.2957,-255.2683 168.3121,-262.1942"/>
</g>
<!-- Node426 -->
<g id="node24" class="node">
<title>Node426</title>
<g id="a_node24"><a xlink:href="classNeuronMonitorCore.html#a5113f6b476e3e3544ecbffefa313234d" target="_top" xlink:title="sets pointer to Neuron file ">
<polygon fill="#ffffff" stroke="#000000" points="175,-171.5 175,-190.5 261,-190.5 261,-171.5 175,-171.5"/>
<text text-anchor="middle" x="218" y="-178.5" font-family="Helvetica,sans-Serif" font-size="10.00" fill="#000000">setNeuronFileId</text>
</a>
</g>
</g>
<!-- Node404&#45;&gt;Node426 -->
<g id="edge40" class="edge">
<title>Node404&#45;&gt;Node426</title>
<path fill="none" stroke="#191970" d="M109.3165,-266.1045C118.8707,-250.4676 142.9884,-222.0848 174.5555,-196.9219"/>
<polygon fill="#191970" stroke="#191970" points="176.9617,-199.4859 182.7372,-190.6037 172.6832,-193.9456 176.9617,-199.4859"/>
</g>
<!-- Node405&#45;&gt;Node404 -->
<g id="edge3" class="edge">
<title>Node405&#45;&gt;Node404</title>
<path fill="none" stroke="#191970" d="M480.9163,-425.3357C409.7201,-428.9791 271.1711,-420.9174 175,-360 148.4842,-343.2042 125.3034,-313.9918 113.4312,-294.4808"/>
<polygon fill="#191970" stroke="#191970" points="116.3591,-292.5457 108.4206,-285.5291 110.2508,-295.9647 116.3591,-292.5457"/>
</g>
<!-- Node406&#45;&gt;Node404 -->
<g id="edge5" class="edge">
<title>Node406&#45;&gt;Node404</title>
<path fill="none" stroke="#191970" d="M177.6979,-294.7207C164.7902,-292.9638 150.6505,-290.4928 138.3004,-287.8156"/>
<polygon fill="#191970" stroke="#191970" points="138.9451,-284.3724 128.4137,-285.5295 137.3681,-291.1925 138.9451,-284.3724"/>
</g>
<!-- Node406&#45;&gt;Node407 -->
<g id="edge6" class="edge">
<title>Node406&#45;&gt;Node407</title>
<path fill="none" stroke="#191970" d="M230.5535,-304.6703C245.6673,-315.9721 272.1297,-334.6914 297,-347 309.529,-353.2007 324.0628,-358.5343 336.5111,-362.5878"/>
<polygon fill="#191970" stroke="#191970" points="335.7983,-366.0322 346.3873,-365.6827 337.8915,-359.3525 335.7983,-366.0322"/>
</g>
<!-- Node408 -->
<g id="node6" class="node">
<title>Node408</title>
<g id="a_node6"><a xlink:href="classSNN.html#a8dd319bdd9a54e38f9254cbec099c30a" target="_top" xlink:title="copy required neuron state values from ??? buffer to ??? buffer ">
<polygon fill="#ffffff" stroke="#000000" points="297,-171.5 297,-190.5 434,-190.5 434,-171.5 297,-171.5"/>
<text text-anchor="middle" x="365.5" y="-178.5" font-family="Helvetica,sans-Serif" font-size="10.00" fill="#000000">SNN::updateNeuronMonitor</text>
</a>
</g>
</g>
<!-- Node406&#45;&gt;Node408 -->
<g id="edge8" class="edge">
<title>Node406&#45;&gt;Node408</title>
<path fill="none" stroke="#191970" d="M243.2672,-285.4568C249.2762,-282.7525 255.5276,-279.5615 261,-276 296.0137,-253.213 330.7102,-218.6762 350.0018,-198.1239"/>
<polygon fill="#191970" stroke="#191970" points="352.6124,-200.456 356.8347,-190.7388 347.4742,-195.702 352.6124,-200.456"/>
</g>
<!-- Node411 -->
<g id="node9" class="node">
<title>Node411</title>
<g id="a_node9"><a xlink:href="classSNN.html#a424b0cf29d7dba87e4ebf244399acad0" target="_top" xlink:title="SNN::getSimTimeMs">
<polygon fill="#ffffff" stroke="#000000" points="472,-304.5 472,-323.5 582,-323.5 582,-304.5 472,-304.5"/>
<text text-anchor="middle" x="527" y="-311.5" font-family="Helvetica,sans-Serif" font-size="10.00" fill="#000000">SNN::getSimTimeMs</text>
</a>
</g>
</g>
<!-- Node406&#45;&gt;Node411 -->
<g id="edge33" class="edge">
<title>Node406&#45;&gt;Node411</title>
<path fill="none" stroke="#191970" d="M258.1881,-297.5624C270.629,-298.3505 284.381,-299.2166 297,-300 352.4947,-303.4451 415.5267,-307.2761 461.5538,-310.0584"/>
<polygon fill="#191970" stroke="#191970" points="461.5016,-313.5616 471.6945,-310.6711 461.9238,-306.5743 461.5016,-313.5616"/>
</g>
<!-- Node417 -->
<g id="node15" class="node">
<title>Node417</title>
<g id="a_node15"><a xlink:href="classSNN.html#a85facd004ae52ee52e72451b5d874fae" target="_top" xlink:title="SNN::getSimTimeSec">
<polygon fill="#ffffff" stroke="#000000" points="470,-266.5 470,-285.5 584,-285.5 584,-266.5 470,-266.5"/>
<text text-anchor="middle" x="527" y="-273.5" font-family="Helvetica,sans-Serif" font-size="10.00" fill="#000000">SNN::getSimTimeSec</text>
</a>
</g>
</g>
<!-- Node406&#45;&gt;Node417 -->
<g id="edge32" class="edge">
<title>Node406&#45;&gt;Node417</title>
<path fill="none" stroke="#191970" d="M258.0796,-292.5356C309.203,-289.392 398.3531,-283.9103 459.9111,-280.1252"/>
<polygon fill="#191970" stroke="#191970" points="460.1577,-283.6167 469.924,-279.5095 459.7281,-276.6299 460.1577,-283.6167"/>
</g>
<!-- Node407&#45;&gt;Node404 -->
<g id="edge7" class="edge">
<title>Node407&#45;&gt;Node404</title>
<path fill="none" stroke="#191970" d="M346.3946,-371.965C311.5621,-367.4834 235.724,-348.2481 175,-323 155.0994,-314.7257 133.484,-302.4412 119.6183,-292.0655"/>
<polygon fill="#191970" stroke="#191970" points="121.672,-289.2231 111.7216,-285.5841 117.2309,-294.6339 121.672,-289.2231"/>
</g>
<!-- Node408&#45;&gt;Node404 -->
<g id="edge30" class="edge">
<title>Node408&#45;&gt;Node404</title>
<path fill="none" stroke="#191970" d="M324.8929,-190.5509C285.741,-200.3613 225.2049,-217.1256 175,-238 159.28,-244.5361 142.49,-253.5745 129.2951,-261.1966"/>
<polygon fill="#191970" stroke="#191970" points="127.2306,-258.3504 120.3892,-266.4403 130.7823,-264.3825 127.2306,-258.3504"/>
</g>
<!-- Node408&#45;&gt;Node405 -->
<g id="edge31" class="edge">
<title>Node408&#45;&gt;Node405</title>
<path fill="none" stroke="#191970" d="M372.031,-190.5842C396.4287,-226.3877 482.4716,-352.655 514.6949,-399.9423"/>
<polygon fill="#191970" stroke="#191970" points="511.8641,-402.0037 520.3877,-408.2965 517.6488,-398.0618 511.8641,-402.0037"/>
</g>
<!-- Node409 -->
<g id="node7" class="node">
<title>Node409</title>
<g id="a_node7"><a xlink:href="classNeuronMonitorCore.html#a102f8a26e80c556ee9a2ac503cd38ec9" target="_top" xlink:title="returns timestamp of last NeuronMonitor update ">
<polygon fill="#ffffff" stroke="#000000" points="484,-152.5 484,-171.5 570,-171.5 570,-152.5 484,-152.5"/>
<text text-anchor="middle" x="527" y="-159.5" font-family="Helvetica,sans-Serif" font-size="10.00" fill="#000000">getLastUpdated</text>
</a>
</g>
</g>
<!-- Node408&#45;&gt;Node409 -->
<g id="edge9" class="edge">
<title>Node408&#45;&gt;Node409</title>
<path fill="none" stroke="#191970" d="M434.459,-172.8872C447.5868,-171.3427 461.1396,-169.7483 473.6889,-168.2719"/>
<polygon fill="#191970" stroke="#191970" points="474.4404,-171.7077 483.9629,-167.0632 473.6224,-164.7557 474.4404,-171.7077"/>
</g>
<!-- Node410 -->
<g id="node8" class="node">
<title>Node410</title>
<g id="a_node8"><a xlink:href="classSNN.html#a5fd2b156623d78138bcb44167eabab78" target="_top" xlink:title="SNN::getSimTime">
<polygon fill="#ffffff" stroke="#000000" points="478.5,-228.5 478.5,-247.5 575.5,-247.5 575.5,-228.5 478.5,-228.5"/>
<text text-anchor="middle" x="527" y="-235.5" font-family="Helvetica,sans-Serif" font-size="10.00" fill="#000000">SNN::getSimTime</text>
</a>
</g>
</g>
<!-- Node408&#45;&gt;Node410 -->
<g id="edge10" class="edge">
<title>Node408&#45;&gt;Node410</title>
<path fill="none" stroke="#191970" d="M393.5722,-190.595C405.9954,-194.9031 420.7615,-200.1083 434,-205 450.1031,-210.9502 453.852,-213.1727 470,-219 475.6571,-221.0415 481.6573,-223.1271 487.5591,-225.1335"/>
<polygon fill="#191970" stroke="#191970" points="486.7265,-228.546 497.3205,-228.4135 488.9562,-221.9106 486.7265,-228.546"/>
</g>
<!-- Node408&#45;&gt;Node411 -->
<g id="edge11" class="edge">
<title>Node408&#45;&gt;Node411</title>
<path fill="none" stroke="#191970" d="M377.661,-190.5558C391.9932,-202.1323 416.1182,-222.6264 434,-243 452.5422,-264.126 447.5127,-278.1345 470,-295 472.5061,-296.8796 475.2086,-298.5796 478.027,-300.1164"/>
<polygon fill="#191970" stroke="#191970" points="476.7855,-303.4002 487.3242,-304.4888 479.7645,-297.0658 476.7855,-303.4002"/>
</g>
<!-- Node408&#45;&gt;Node417 -->
<g id="edge20" class="edge">
<title>Node408&#45;&gt;Node417</title>
<path fill="none" stroke="#191970" d="M406.0273,-190.5107C415.7994,-194.0243 425.7811,-198.7374 434,-205 456.3581,-222.0364 447.5127,-240.1345 470,-257 472.5061,-258.8796 475.2086,-260.5796 478.027,-262.1164"/>
<polygon fill="#191970" stroke="#191970" points="476.7855,-265.4002 487.3242,-266.4888 479.7645,-259.0658 476.7855,-265.4002"/>
</g>
<!-- Node418 -->
<g id="node16" class="node">
<title>Node418</title>
<g id="a_node16"><a xlink:href="classNeuronMonitorCore.html#a38f87732cc929797d9648e68cd509f1b" target="_top" xlink:title="sets timestamp of last NeuronMonitor update ">
<polygon fill="#ffffff" stroke="#000000" points="484,-76.5 484,-95.5 570,-95.5 570,-76.5 484,-76.5"/>
<text text-anchor="middle" x="527" y="-83.5" font-family="Helvetica,sans-Serif" font-size="10.00" fill="#000000">setLastUpdated</text>
</a>
</g>
</g>
<!-- Node408&#45;&gt;Node418 -->
<g id="edge21" class="edge">
<title>Node408&#45;&gt;Node418</title>
<path fill="none" stroke="#191970" d="M381.8742,-171.3681C410.168,-154.7247 468.3841,-120.48 501.8462,-100.7963"/>
<polygon fill="#191970" stroke="#191970" points="503.7377,-103.7444 510.5824,-95.6574 500.1885,-97.7109 503.7377,-103.7444"/>
</g>
<!-- Node424 -->
<g id="node22" class="node">
<title>Node424</title>
<g id="a_node22"><a xlink:href="classNeuronMonitorCore.html#a84e392c48ef98bece7aa0dc7af992360" target="_top" xlink:title="returns a pointer to the neuron state file ">
<polygon fill="#ffffff" stroke="#000000" points="484,-190.5 484,-209.5 570,-209.5 570,-190.5 484,-190.5"/>
<text text-anchor="middle" x="527" y="-197.5" font-family="Helvetica,sans-Serif" font-size="10.00" fill="#000000">getNeuronFileId</text>
</a>
</g>
</g>
<!-- Node408&#45;&gt;Node424 -->
<g id="edge29" class="edge">
<title>Node408&#45;&gt;Node424</title>
<path fill="none" stroke="#191970" d="M434.459,-189.1128C447.5868,-190.6573 461.1396,-192.2517 473.6889,-193.7281"/>
<polygon fill="#191970" stroke="#191970" points="473.6224,-197.2443 483.9629,-194.9368 474.4404,-190.2923 473.6224,-197.2443"/>
</g>
<!-- Node412 -->
<g id="node10" class="node">
<title>Node412</title>
<g id="a_node10"><a xlink:href="classSNN.html#a866a9c6e2b2630816fc66adda1381655" target="_top" xlink:title="Returns pointer to existing SpikeMonitor object, NULL else. ">
<polygon fill="#ffffff" stroke="#000000" points="634,-361.5 634,-380.5 749,-380.5 749,-361.5 634,-361.5"/>
<text text-anchor="middle" x="691.5" y="-368.5" font-family="Helvetica,sans-Serif" font-size="10.00" fill="#000000">SNN::getSpikeMonitor</text>
</a>
</g>
</g>
<!-- Node411&#45;&gt;Node412 -->
<g id="edge12" class="edge">
<title>Node411&#45;&gt;Node412</title>
<path fill="none" stroke="#191970" d="M548.1311,-323.5423C566.7929,-331.7496 594.8665,-343.5645 620,-352 627.1118,-354.3869 634.7003,-356.6737 642.1776,-358.7818"/>
<polygon fill="#191970" stroke="#191970" points="641.3246,-362.177 651.894,-361.4435 643.1741,-355.4257 641.3246,-362.177"/>
</g>
<!-- Node414 -->
<g id="node12" class="node">
<title>Node414</title>
<g id="a_node12"><a xlink:href="classSNN.html#ad25000cd1457c9b9869122534ada6fdd" target="_top" xlink:title="SNN::getSpikeMonitorCore">
<polygon fill="#ffffff" stroke="#000000" points="623.5,-323.5 623.5,-342.5 759.5,-342.5 759.5,-323.5 623.5,-323.5"/>
<text text-anchor="middle" x="691.5" y="-330.5" font-family="Helvetica,sans-Serif" font-size="10.00" fill="#000000">SNN::getSpikeMonitorCore</text>
</a>
</g>
</g>
<!-- Node411&#45;&gt;Node414 -->
<g id="edge14" class="edge">
<title>Node411&#45;&gt;Node414</title>
<path fill="none" stroke="#191970" d="M582.2337,-320.3796C592.207,-321.5315 602.7765,-322.7523 613.2589,-323.963"/>
<polygon fill="#191970" stroke="#191970" points="612.9246,-327.4476 623.2601,-325.1182 613.7278,-320.4938 612.9246,-327.4476"/>
</g>
<!-- Node415 -->
<g id="node13" class="node">
<title>Node415</title>
<g id="a_node13"><a xlink:href="classSNN.html#a0eb87addfa5eebdfee4bd6b927b8945f" target="_top" xlink:title="Returns pointer to existing NeuronMonitor object, NULL else. ">
<polygon fill="#ffffff" stroke="#000000" points="630.5,-285.5 630.5,-304.5 752.5,-304.5 752.5,-285.5 630.5,-285.5"/>
<text text-anchor="middle" x="691.5" y="-292.5" font-family="Helvetica,sans-Serif" font-size="10.00" fill="#000000">SNN::getNeuronMonitor</text>
</a>
</g>
</g>
<!-- Node411&#45;&gt;Node415 -->
<g id="edge16" class="edge">
<title>Node411&#45;&gt;Node415</title>
<path fill="none" stroke="#191970" d="M582.2337,-307.6204C594.4595,-306.2083 607.5812,-304.6927 620.3402,-303.2191"/>
<polygon fill="#191970" stroke="#191970" points="620.9386,-306.6733 630.4709,-302.049 620.1353,-299.7195 620.9386,-306.6733"/>
</g>
<!-- Node416 -->
<g id="node14" class="node">
<title>Node416</title>
<g id="a_node14"><a xlink:href="classSNN.html#a9aa73fa9478383c4af1eed8387d82db9" target="_top" xlink:title="SNN::getNeuronMonitorCore">
<polygon fill="#ffffff" stroke="#000000" points="620,-247.5 620,-266.5 763,-266.5 763,-247.5 620,-247.5"/>
<text text-anchor="middle" x="691.5" y="-254.5" font-family="Helvetica,sans-Serif" font-size="10.00" fill="#000000">SNN::getNeuronMonitorCore</text>
</a>
</g>
</g>
<!-- Node411&#45;&gt;Node416 -->
<g id="edge18" class="edge">
<title>Node411&#45;&gt;Node416</title>
<path fill="none" stroke="#191970" d="M558.7042,-304.4556C567.0353,-301.6707 575.9422,-298.4419 584,-295 600.6375,-287.8934 603.1502,-282.5874 620,-276 626.1886,-273.5806 632.796,-271.3631 639.4001,-269.3647"/>
<polygon fill="#191970" stroke="#191970" points="640.382,-272.7242 649.0244,-266.5956 638.4465,-265.9971 640.382,-272.7242"/>
</g>
<!-- Node413 -->
<g id="node11" class="node">
<title>Node413</title>
<g id="a_node11"><a xlink:href="classSNN.html#a292bdee57fec7c77ec4c15ea3f508d60" target="_top" xlink:title="SNN::getNumGroups">
<polygon fill="#ffffff" stroke="#000000" points="801.5,-304.5 801.5,-323.5 911.5,-323.5 911.5,-304.5 801.5,-304.5"/>
<text text-anchor="middle" x="856.5" y="-311.5" font-family="Helvetica,sans-Serif" font-size="10.00" fill="#000000">SNN::getNumGroups</text>
</a>
</g>
</g>
<!-- Node412&#45;&gt;Node413 -->
<g id="edge13" class="edge">
<title>Node412&#45;&gt;Node413</title>
<path fill="none" stroke="#191970" d="M731.1016,-361.4305C741.5534,-358.6457 752.7686,-355.4233 763,-352 784.3108,-344.8697 807.7356,-335.3465 825.8077,-327.6175"/>
<polygon fill="#191970" stroke="#191970" points="827.4601,-330.7162 835.2496,-323.5348 824.6818,-324.2911 827.4601,-330.7162"/>
</g>
<!-- Node414&#45;&gt;Node413 -->
<g id="edge15" class="edge">
<title>Node414&#45;&gt;Node413</title>
<path fill="none" stroke="#191970" d="M759.5644,-325.1623C770.0173,-323.9586 780.7893,-322.7182 791.1807,-321.5216"/>
<polygon fill="#191970" stroke="#191970" points="791.8855,-324.9637 801.4194,-320.3426 791.0846,-318.0096 791.8855,-324.9637"/>
</g>
<!-- Node415&#45;&gt;Node413 -->
<g id="edge17" class="edge">
<title>Node415&#45;&gt;Node413</title>
<path fill="none" stroke="#191970" d="M752.9399,-302.0749C765.4474,-303.5152 778.647,-305.0351 791.2805,-306.4899"/>
<polygon fill="#191970" stroke="#191970" points="790.9323,-309.9728 801.267,-307.6398 791.7331,-303.0188 790.9323,-309.9728"/>
</g>
<!-- Node416&#45;&gt;Node413 -->
<g id="edge19" class="edge">
<title>Node416&#45;&gt;Node413</title>
<path fill="none" stroke="#191970" d="M731.1016,-266.5695C741.5534,-269.3543 752.7686,-272.5767 763,-276 784.3108,-283.1303 807.7356,-292.6535 825.8077,-300.3825"/>
<polygon fill="#191970" stroke="#191970" points="824.6818,-303.7089 835.2496,-304.4652 827.4601,-297.2838 824.6818,-303.7089"/>
</g>
<!-- Node418&#45;&gt;Node403 -->
<g id="edge28" class="edge">
<title>Node418&#45;&gt;Node403</title>
<path fill="none" stroke="#191970" d="M483.9703,-93.1787C382.2264,-110.1526 129.088,-152.3838 45.0828,-166.3984"/>
<polygon fill="#191970" stroke="#191970" points="44.3258,-162.9762 35.0381,-168.0741 45.4778,-169.8808 44.3258,-162.9762"/>
</g>
<!-- Node419 -->
<g id="node17" class="node">
<title>Node419</title>
<g id="a_node17"><a xlink:href="classNeuronMonitorCore.html#aaeb6a64ac5d9fd3b7a979f0f12ec87dc" target="_top" xlink:title="returns true if state buffers are close to maxAllowedBufferSize ">
<polygon fill="#ffffff" stroke="#000000" points="659,-38.5 659,-57.5 724,-57.5 724,-38.5 659,-38.5"/>
<text text-anchor="middle" x="691.5" y="-45.5" font-family="Helvetica,sans-Serif" font-size="10.00" fill="#000000">isBufferBig</text>
</a>
</g>
</g>
<!-- Node418&#45;&gt;Node419 -->
<g id="edge22" class="edge">
<title>Node418&#45;&gt;Node419</title>
<path fill="none" stroke="#191970" d="M568.5103,-76.411C593.1045,-70.7297 624.2003,-63.5464 648.9709,-57.8243"/>
<polygon fill="#191970" stroke="#191970" points="649.8601,-61.2112 658.8157,-55.5502 648.2845,-54.3908 649.8601,-61.2112"/>
</g>
<!-- Node420 -->
<g id="node18" class="node">
<title>Node420</title>
<g id="a_node18"><a xlink:href="classNeuronMonitorCore.html#a30f19d45f562061cc82c04e7289ba956" target="_top" xlink:title="returns the approximate size of the state vectors in bytes ">
<polygon fill="#ffffff" stroke="#000000" points="818.5,-57.5 818.5,-76.5 894.5,-76.5 894.5,-57.5 818.5,-57.5"/>
<text text-anchor="middle" x="856.5" y="-64.5" font-family="Helvetica,sans-Serif" font-size="10.00" fill="#000000">getBufferSize</text>
</a>
</g>
</g>
<!-- Node418&#45;&gt;Node420 -->
<g id="edge24" class="edge">
<title>Node418&#45;&gt;Node420</title>
<path fill="none" stroke="#191970" d="M570.0764,-83.5161C631.4645,-79.9762 743.7758,-73.5 808.0085,-69.7962"/>
<polygon fill="#191970" stroke="#191970" points="808.49,-73.2743 818.2719,-69.2044 808.087,-66.2859 808.49,-73.2743"/>
</g>
<!-- Node421 -->
<g id="node19" class="node">
<title>Node421</title>
<g id="a_node19"><a xlink:href="classNeuronMonitorCore.html#a3a0e4e77a2b83f5dd0e86aafcf227595" target="_top" xlink:title="returns the total accumulated time ">
<polygon fill="#ffffff" stroke="#000000" points="650,-.5 650,-19.5 733,-19.5 733,-.5 650,-.5"/>
<text text-anchor="middle" x="691.5" y="-7.5" font-family="Helvetica,sans-Serif" font-size="10.00" fill="#000000">getAccumTime</text>
</a>
</g>
</g>
<!-- Node418&#45;&gt;Node421 -->
<g id="edge25" class="edge">
<title>Node418&#45;&gt;Node421</title>
<path fill="none" stroke="#191970" d="M539.8909,-76.4117C557.2645,-63.8953 589.5382,-42.0515 620,-29 626.3457,-26.2812 633.1787,-23.8664 640.0146,-21.748"/>
<polygon fill="#191970" stroke="#191970" points="641.3485,-25.0053 649.9757,-18.8552 639.3963,-18.283 641.3485,-25.0053"/>
</g>
<!-- Node422 -->
<g id="node20" class="node">
<title>Node422</title>
<g id="a_node20"><a xlink:href="classNeuronMonitorCore.html#a4d3c2252230fe74bf03bcc3045ff8972" target="_top" xlink:title="writeNeuronFileHeader">
<polygon fill="#ffffff" stroke="#000000" points="633.5,-114.5 633.5,-133.5 749.5,-133.5 749.5,-114.5 633.5,-114.5"/>
<text text-anchor="middle" x="691.5" y="-121.5" font-family="Helvetica,sans-Serif" font-size="10.00" fill="#000000">writeNeuronFileHeader</text>
</a>
</g>
</g>
<!-- Node418&#45;&gt;Node422 -->
<g id="edge26" class="edge">
<title>Node418&#45;&gt;Node422</title>
<path fill="none" stroke="#191970" d="M568.5103,-95.589C590.3156,-100.6261 617.2318,-106.8438 640.3191,-112.1771"/>
<polygon fill="#191970" stroke="#191970" points="639.757,-115.6393 650.2882,-114.4799 641.3326,-108.8189 639.757,-115.6393"/>
</g>
<!-- Node419&#45;&gt;Node420 -->
<g id="edge23" class="edge">
<title>Node419&#45;&gt;Node420</title>
<path fill="none" stroke="#191970" d="M724.0987,-51.7538C748.1663,-54.5252 781.3097,-58.3417 808.4147,-61.4629"/>
<polygon fill="#191970" stroke="#191970" points="808.141,-64.9544 818.4757,-62.6214 808.9418,-58.0004 808.141,-64.9544"/>
</g>
<!-- Node423 -->
<g id="node21" class="node">
<title>Node423</title>
<g id="a_node21"><a xlink:href="classSNN.html#ac13b30c40669d3cb8264bd6e211b449d" target="_top" xlink:title="SNN::getGroupGrid3D">
<polygon fill="#ffffff" stroke="#000000" points="799,-114.5 799,-133.5 914,-133.5 914,-114.5 799,-114.5"/>
<text text-anchor="middle" x="856.5" y="-121.5" font-family="Helvetica,sans-Serif" font-size="10.00" fill="#000000">SNN::getGroupGrid3D</text>
</a>
</g>
</g>
<!-- Node422&#45;&gt;Node423 -->
<g id="edge27" class="edge">
<title>Node422&#45;&gt;Node423</title>
<path fill="none" stroke="#191970" d="M749.6728,-124C762.2651,-124 775.6878,-124 788.6159,-124"/>
<polygon fill="#191970" stroke="#191970" points="788.8526,-127.5001 798.8526,-124 788.8525,-120.5001 788.8526,-127.5001"/>
</g>
<!-- Node425&#45;&gt;Node404 -->
<g id="edge35" class="edge">
<title>Node425&#45;&gt;Node404</title>
<path fill="none" stroke="#191970" d="M194.6399,-266.5163C181.5098,-269.7719 164.6864,-272.9395 149.1679,-275.1785"/>
<polygon fill="#191970" stroke="#191970" points="148.6595,-271.7153 139.2104,-276.5074 149.5855,-278.6538 148.6595,-271.7153"/>
</g>
<!-- Node425&#45;&gt;Node408 -->
<g id="edge36" class="edge">
<title>Node425&#45;&gt;Node408</title>
<path fill="none" stroke="#191970" d="M236.7798,-247.3231C244.4465,-243.1673 253.3024,-238.0991 261,-233 277.8985,-221.8061 279.2021,-214.7004 297,-205 304.7979,-200.7499 313.4938,-197.021 322.0024,-193.8483"/>
<polygon fill="#191970" stroke="#191970" points="323.2074,-197.1347 331.4714,-190.5046 320.8766,-190.5341 323.2074,-197.1347"/>
</g>
<!-- Node425&#45;&gt;Node411 -->
<g id="edge38" class="edge">
<title>Node425&#45;&gt;Node411</title>
<path fill="none" stroke="#191970" d="M258.2355,-264.1091C301.6364,-271.8139 372.7582,-284.5451 434,-296 445.1274,-298.0813 456.9948,-300.3448 468.3997,-302.542"/>
<polygon fill="#191970" stroke="#191970" points="467.7905,-305.9889 478.2729,-304.4495 469.1184,-299.116 467.7905,-305.9889"/>
</g>
<!-- Node425&#45;&gt;Node417 -->
<g id="edge37" class="edge">
<title>Node425&#45;&gt;Node417</title>
<path fill="none" stroke="#191970" d="M258.17,-248.4725C301.8171,-240.5781 373.4276,-231.6366 434,-243 450.8729,-246.1654 453.852,-251.1727 470,-257 475.6571,-259.0415 481.6573,-261.1271 487.5591,-263.1335"/>
<polygon fill="#191970" stroke="#191970" points="486.7265,-266.546 497.3205,-266.4135 488.9562,-259.9106 486.7265,-266.546"/>
</g>
<!-- Node426&#45;&gt;Node404 -->
<g id="edge41" class="edge">
<title>Node426&#45;&gt;Node404</title>
<path fill="none" stroke="#191970" d="M210.6172,-190.6892C201.7312,-197.5008 186.5633,-205.1952 175,-214 157.0406,-227.6749 139.2141,-245.8415 126.0453,-259.1855"/>
<polygon fill="#191970" stroke="#191970" points="123.4286,-256.8533 118.8641,-266.4146 128.3948,-261.7866 123.4286,-256.8533"/>
</g>
<!-- Node426&#45;&gt;Node422 -->
<g id="edge42" class="edge">
<title>Node426&#45;&gt;Node422</title>
<path fill="none" stroke="#191970" d="M253.5872,-171.4278C267.1024,-168.0603 282.6866,-164.4969 297,-162 410.3611,-142.2249 543.9735,-132.0696 622.9968,-127.4049"/>
<polygon fill="#191970" stroke="#191970" points="623.5225,-130.8804 633.3039,-126.8094 623.1187,-123.8921 623.5225,-130.8804"/>
</g>
</g>
</svg>
