<?xml version="1.0" encoding="UTF-8" standalone="no"?>
<!DOCTYPE svg PUBLIC "-//W3C//DTD SVG 1.1//EN"
 "http://www.w3.org/Graphics/SVG/1.1/DTD/svg11.dtd">
<!-- Generated by graphviz version 2.40.1 (20161225.0304)
 -->
<!-- Title: getVectorI Pages: 1 -->
<!--zoomable 402 -->
<svg id="main" version="1.1" xmlns="http://www.w3.org/2000/svg" xmlns:xlink="http://www.w3.org/1999/xlink" xml:space="preserve" onload="init(evt)">
<style type="text/css"><![CDATA[
.edge:hover path { stroke: red; }
.edge:hover polygon { stroke: red; fill: red; }
]]></style>
<script type="text/javascript"><![CDATA[
var edges = document.getElementsByTagName('g');
if (edges && edges.length) {
  for (var i=0;i<edges.length;i++) {
    if (edges[i].id.substr(0,4)=='edge') {
      edges[i].setAttribute('class','edge');
    }
  }
}
]]></script>
        <defs>
                <circle id="rim" cx="0" cy="0" r="7"/>
                <circle id="rim2" cx="0" cy="0" r="3.5"/>
                <g id="zoomPlus">
                        <use xlink:href="#rim" fill="#404040">
                                <set attributeName="fill" to="#808080" begin="zoomplus.mouseover" end="zoomplus.mouseout"/>
                        </use>
                        <path d="M-4,0h8M0,-4v8" fill="none" stroke="white" stroke-width="1.5" pointer-events="none"/>
                </g>
                <g id="zoomMin">
                        <use xlink:href="#rim" fill="#404040">
                                <set attributeName="fill" to="#808080" begin="zoomminus.mouseover" end="zoomminus.mouseout"/>
                        </use>
                        <path d="M-4,0h8" fill="none" stroke="white" stroke-width="1.5" pointer-events="none"/>
                </g>
                <g id="dirArrow">
                        <path fill="none" stroke="white" stroke-width="1.5" d="M0,-3.0v7 M-2.5,-0.5L0,-3.0L2.5,-0.5"/>
                </g>
               <g id="resetDef">
                       <use xlink:href="#rim2" fill="#404040">
                               <set attributeName="fill" to="#808080" begin="reset.mouseover" end="reset.mouseout"/>
                       </use>
               </g>
        </defs>

<script type="text/javascript">
var viewWidth = 949;
var viewHeight = 402;
var sectionId = 'dynsection-8';
</script>
<script xlink:href="svgpan.js"/>
<svg id="graph" class="graph">
<g id="viewport">
<title>getVectorI</title>
<polygon fill="#ffffff" stroke="transparent" points="-4,4 -4,-398 945,-398 945,4 -4,4"/>
<!-- Node233 -->
<g id="node1" class="node">
<title>Node233</title>
<polygon fill="#bfbfbf" stroke="#000000" points="0,-209.5 0,-228.5 62,-228.5 62,-209.5 0,-209.5"/>
<text text-anchor="middle" x="31" y="-216.5" font-family="Helvetica,sans-Serif" font-size="10.00" fill="#000000">getVectorI</text>
</g>
<!-- Node234 -->
<g id="node2" class="node">
<title>Node234</title>
<g id="a_node2"><a xlink:href="classNeuronMonitorCore.html#a3a3ffdb35b09328d22e5d72503ed1f55" target="_top" xlink:title="returns recording status ">
<polygon fill="#ffffff" stroke="#000000" points="98,-209.5 98,-228.5 166,-228.5 166,-209.5 98,-209.5"/>
<text text-anchor="middle" x="132" y="-216.5" font-family="Helvetica,sans-Serif" font-size="10.00" fill="#000000">isRecording</text>
</a>
</g>
</g>
<!-- Node233&#45;&gt;Node234 -->
<g id="edge1" class="edge">
<title>Node233&#45;&gt;Node234</title>
<path fill="none" stroke="#191970" d="M62.1275,-219C70.2928,-219 79.2545,-219 87.9562,-219"/>
<polygon fill="#191970" stroke="#191970" points="87.9886,-222.5001 97.9886,-219 87.9886,-215.5001 87.9886,-222.5001"/>
</g>
<!-- Node235 -->
<g id="node3" class="node">
<title>Node235</title>
<g id="a_node3"><a xlink:href="classNeuronMonitorCore.html#a743a4ad47ef60bc593cc9882bd4ffb57" target="_top" xlink:title="inserts a (time,neurId) tupel into the D Neuron State vector ">
<polygon fill="#ffffff" stroke="#000000" points="508,-374.5 508,-393.5 600,-393.5 600,-374.5 508,-374.5"/>
<text text-anchor="middle" x="554" y="-381.5" font-family="Helvetica,sans-Serif" font-size="10.00" fill="#000000">pushNeuronState</text>
</a>
</g>
</g>
<!-- Node234&#45;&gt;Node235 -->
<g id="edge2" class="edge">
<title>Node234&#45;&gt;Node235</title>
<path fill="none" stroke="#191970" d="M138.9632,-228.6624C149.4019,-247.154 171.221,-285.4433 202,-305 293.9161,-363.4026 424.3993,-374.6872 497.9434,-378.833"/>
<polygon fill="#191970" stroke="#191970" points="497.7581,-382.328 507.933,-379.3748 498.1372,-375.3383 497.7581,-382.328"/>
</g>
<!-- Node236 -->
<g id="node4" class="node">
<title>Node236</title>
<g id="a_node4"><a xlink:href="classNeuronMonitorCore.html#ab91616c118b701c2afd9136393d1f19b" target="_top" xlink:title="starts recording Neuron state ">
<polygon fill="#ffffff" stroke="#000000" points="205,-152.5 205,-171.5 285,-171.5 285,-152.5 205,-152.5"/>
<text text-anchor="middle" x="245" y="-159.5" font-family="Helvetica,sans-Serif" font-size="10.00" fill="#000000">startRecording</text>
</a>
</g>
</g>
<!-- Node234&#45;&gt;Node236 -->
<g id="edge4" class="edge">
<title>Node234&#45;&gt;Node236</title>
<path fill="none" stroke="#191970" d="M142.8349,-209.3558C157.0455,-199.931 182.7674,-186.185 204.8457,-175.7624"/>
<polygon fill="#191970" stroke="#191970" points="206.4258,-178.888 214.0405,-171.5214 203.494,-172.5316 206.4258,-178.888"/>
</g>
<!-- Node237 -->
<g id="node5" class="node">
<title>Node237</title>
<g id="a_node5"><a xlink:href="classNeuronMonitorCore.html#ac8bb3912a3ce86b15842e79d0b421204" target="_top" xlink:title="deletes data from the neuron state vector ">
<polygon fill="#ffffff" stroke="#000000" points="373.5,-28.5 373.5,-47.5 411.5,-47.5 411.5,-28.5 373.5,-28.5"/>
<text text-anchor="middle" x="392.5" y="-35.5" font-family="Helvetica,sans-Serif" font-size="10.00" fill="#000000">clear</text>
</a>
</g>
</g>
<!-- Node234&#45;&gt;Node237 -->
<g id="edge40" class="edge">
<title>Node234&#45;&gt;Node237</title>
<path fill="none" stroke="#191970" d="M133.8054,-209.2934C139.9643,-184.6981 162.0143,-123.1277 202,-91 250.0573,-52.3869 322.8904,-37.5215 363.1527,-35.0169"/>
<polygon fill="#191970" stroke="#191970" points="363.5008,-38.5064 373.3614,-34.631 363.2363,-31.5114 363.5008,-38.5064"/>
</g>
<!-- Node256 -->
<g id="node24" class="node">
<title>Node256</title>
<g id="a_node24"><a xlink:href="classNeuronMonitorCore.html#a25e0e98dd4519eaaa6b258f0dcb91ac7" target="_top" xlink:title="stops recording Neuron state ">
<polygon fill="#ffffff" stroke="#000000" points="205,-209.5 205,-228.5 285,-228.5 285,-209.5 205,-209.5"/>
<text text-anchor="middle" x="245" y="-216.5" font-family="Helvetica,sans-Serif" font-size="10.00" fill="#000000">stopRecording</text>
</a>
</g>
</g>
<!-- Node234&#45;&gt;Node256 -->
<g id="edge35" class="edge">
<title>Node234&#45;&gt;Node256</title>
<path fill="none" stroke="#191970" d="M166.2104,-212.7404C175.1787,-212.3252 185.0394,-212.1736 194.6591,-212.2858"/>
<polygon fill="#191970" stroke="#191970" points="194.875,-215.7912 204.9492,-212.511 195.0282,-208.7929 194.875,-215.7912"/>
</g>
<!-- Node257 -->
<g id="node25" class="node">
<title>Node257</title>
<g id="a_node25"><a xlink:href="classNeuronMonitorCore.html#a5113f6b476e3e3544ecbffefa313234d" target="_top" xlink:title="sets pointer to Neuron file ">
<polygon fill="#ffffff" stroke="#000000" points="202,-285.5 202,-304.5 288,-304.5 288,-285.5 202,-285.5"/>
<text text-anchor="middle" x="245" y="-292.5" font-family="Helvetica,sans-Serif" font-size="10.00" fill="#000000">setNeuronFileId</text>
</a>
</g>
</g>
<!-- Node234&#45;&gt;Node257 -->
<g id="edge41" class="edge">
<title>Node234&#45;&gt;Node257</title>
<path fill="none" stroke="#191970" d="M153.858,-228.5897C167.4066,-237.8672 185.3462,-251.2314 202,-262 211.0683,-267.8637 221.6562,-273.7838 230.0566,-279.3583"/>
<polygon fill="#191970" stroke="#191970" points="227.9959,-282.1874 238.1378,-285.2525 232.1209,-276.5319 227.9959,-282.1874"/>
</g>
<!-- Node235&#45;&gt;Node234 -->
<g id="edge3" class="edge">
<title>Node235&#45;&gt;Node234</title>
<path fill="none" stroke="#191970" d="M507.933,-390.7996C436.7591,-393.6445 298.2394,-384.1496 202,-323 170.2179,-302.806 147.9893,-262.6385 137.979,-238.2571"/>
<polygon fill="#191970" stroke="#191970" points="141.1392,-236.7166 134.3463,-228.586 134.5863,-239.1781 141.1392,-236.7166"/>
</g>
<!-- Node236&#45;&gt;Node234 -->
<g id="edge5" class="edge">
<title>Node236&#45;&gt;Node234</title>
<path fill="none" stroke="#191970" d="M234.1354,-171.6638C219.961,-181.0601 194.3699,-194.7407 172.3511,-205.1446"/>
<polygon fill="#191970" stroke="#191970" points="170.7885,-202.011 163.1769,-209.3808 173.723,-208.3662 170.7885,-202.011"/>
</g>
<!-- Node236&#45;&gt;Node237 -->
<g id="edge6" class="edge">
<title>Node236&#45;&gt;Node237</title>
<path fill="none" stroke="#191970" d="M250.1667,-152.2453C261.1428,-132.4223 288.6958,-87.1822 324,-62 335.7375,-53.6277 350.666,-47.9452 363.5886,-44.2204"/>
<polygon fill="#191970" stroke="#191970" points="364.6392,-47.5633 373.4229,-41.639 362.862,-40.7927 364.6392,-47.5633"/>
</g>
<!-- Node238 -->
<g id="node6" class="node">
<title>Node238</title>
<g id="a_node6"><a xlink:href="classSNN.html#a8dd319bdd9a54e38f9254cbec099c30a" target="_top" xlink:title="copy required neuron state values from ??? buffer to ??? buffer ">
<polygon fill="#ffffff" stroke="#000000" points="324,-256.5 324,-275.5 461,-275.5 461,-256.5 324,-256.5"/>
<text text-anchor="middle" x="392.5" y="-263.5" font-family="Helvetica,sans-Serif" font-size="10.00" fill="#000000">SNN::updateNeuronMonitor</text>
</a>
</g>
</g>
<!-- Node236&#45;&gt;Node238 -->
<g id="edge8" class="edge">
<title>Node236&#45;&gt;Node238</title>
<path fill="none" stroke="#191970" d="M258.6121,-171.5977C284.1869,-189.6301 339.6157,-228.7121 370.5337,-250.5119"/>
<polygon fill="#191970" stroke="#191970" points="368.7312,-253.5235 378.9208,-256.4255 372.765,-247.8026 368.7312,-253.5235"/>
</g>
<!-- Node241 -->
<g id="node9" class="node">
<title>Node241</title>
<g id="a_node9"><a xlink:href="classSNN.html#a424b0cf29d7dba87e4ebf244399acad0" target="_top" xlink:title="SNN::getSimTimeMs">
<polygon fill="#ffffff" stroke="#000000" points="499,-66.5 499,-85.5 609,-85.5 609,-66.5 499,-66.5"/>
<text text-anchor="middle" x="554" y="-73.5" font-family="Helvetica,sans-Serif" font-size="10.00" fill="#000000">SNN::getSimTimeMs</text>
</a>
</g>
</g>
<!-- Node236&#45;&gt;Node241 -->
<g id="edge34" class="edge">
<title>Node236&#45;&gt;Node241</title>
<path fill="none" stroke="#191970" d="M279.249,-152.4679C335.513,-136.8087 447.4582,-105.6524 509.6854,-88.3335"/>
<polygon fill="#191970" stroke="#191970" points="510.9022,-91.628 519.5976,-85.5748 509.0253,-84.8843 510.9022,-91.628"/>
</g>
<!-- Node247 -->
<g id="node15" class="node">
<title>Node247</title>
<g id="a_node15"><a xlink:href="classSNN.html#a85facd004ae52ee52e72451b5d874fae" target="_top" xlink:title="SNN::getSimTimeSec">
<polygon fill="#ffffff" stroke="#000000" points="497,-142.5 497,-161.5 611,-161.5 611,-142.5 497,-142.5"/>
<text text-anchor="middle" x="554" y="-149.5" font-family="Helvetica,sans-Serif" font-size="10.00" fill="#000000">SNN::getSimTimeSec</text>
</a>
</g>
</g>
<!-- Node236&#45;&gt;Node247 -->
<g id="edge33" class="edge">
<title>Node236&#45;&gt;Node247</title>
<path fill="none" stroke="#191970" d="M285.0796,-160.7029C336.203,-159.0484 425.3531,-156.1633 486.9111,-154.1712"/>
<polygon fill="#191970" stroke="#191970" points="487.0425,-157.6688 496.924,-153.8471 486.816,-150.6725 487.0425,-157.6688"/>
</g>
<!-- Node237&#45;&gt;Node234 -->
<g id="edge7" class="edge">
<title>Node237&#45;&gt;Node234</title>
<path fill="none" stroke="#191970" d="M373.3614,-44.8579C336.454,-52.9953 254.4634,-66.8467 202,-109 171.4268,-133.5649 151.3392,-175.3426 140.8231,-199.9441"/>
<polygon fill="#191970" stroke="#191970" points="137.5249,-198.7594 136.8996,-209.3358 143.9839,-201.4579 137.5249,-198.7594"/>
</g>
<!-- Node238&#45;&gt;Node234 -->
<g id="edge31" class="edge">
<title>Node238&#45;&gt;Node234</title>
<path fill="none" stroke="#191970" d="M323.82,-257.9151C287.4308,-253.126 242.0881,-246.3556 202,-238 192.7659,-236.0753 182.9425,-233.6503 173.6652,-231.1824"/>
<polygon fill="#191970" stroke="#191970" points="174.4352,-227.7646 163.8665,-228.5094 172.5929,-234.5179 174.4352,-227.7646"/>
</g>
<!-- Node238&#45;&gt;Node235 -->
<g id="edge32" class="edge">
<title>Node238&#45;&gt;Node235</title>
<path fill="none" stroke="#191970" d="M405.7162,-275.6564C433.5162,-295.9685 498.2729,-343.283 532.2717,-368.1242"/>
<polygon fill="#191970" stroke="#191970" points="530.4619,-371.1366 540.6012,-374.2101 534.5916,-365.4845 530.4619,-371.1366"/>
</g>
<!-- Node239 -->
<g id="node7" class="node">
<title>Node239</title>
<g id="a_node7"><a xlink:href="classNeuronMonitorCore.html#a102f8a26e80c556ee9a2ac503cd38ec9" target="_top" xlink:title="returns timestamp of last NeuronMonitor update ">
<polygon fill="#ffffff" stroke="#000000" points="511,-218.5 511,-237.5 597,-237.5 597,-218.5 511,-218.5"/>
<text text-anchor="middle" x="554" y="-225.5" font-family="Helvetica,sans-Serif" font-size="10.00" fill="#000000">getLastUpdated</text>
</a>
</g>
</g>
<!-- Node238&#45;&gt;Node239 -->
<g id="edge9" class="edge">
<title>Node238&#45;&gt;Node239</title>
<path fill="none" stroke="#191970" d="M433.2533,-256.411C454.6609,-251.3739 481.0862,-245.1562 503.7525,-239.8229"/>
<polygon fill="#191970" stroke="#191970" points="504.6073,-243.2175 513.5398,-237.5201 503.0039,-236.4036 504.6073,-243.2175"/>
</g>
<!-- Node240 -->
<g id="node8" class="node">
<title>Node240</title>
<g id="a_node8"><a xlink:href="classSNN.html#a5fd2b156623d78138bcb44167eabab78" target="_top" xlink:title="SNN::getSimTime">
<polygon fill="#ffffff" stroke="#000000" points="505.5,-180.5 505.5,-199.5 602.5,-199.5 602.5,-180.5 505.5,-180.5"/>
<text text-anchor="middle" x="554" y="-187.5" font-family="Helvetica,sans-Serif" font-size="10.00" fill="#000000">SNN::getSimTime</text>
</a>
</g>
</g>
<!-- Node238&#45;&gt;Node240 -->
<g id="edge10" class="edge">
<title>Node238&#45;&gt;Node240</title>
<path fill="none" stroke="#191970" d="M428.5719,-256.403C439.4091,-252.7297 451.0534,-247.9552 461,-242 479.6225,-230.8504 478.293,-220.0073 497,-209 500.5905,-206.8873 504.448,-204.9714 508.4017,-203.2423"/>
<polygon fill="#191970" stroke="#191970" points="509.719,-206.4852 517.7216,-199.542 507.1358,-199.9792 509.719,-206.4852"/>
</g>
<!-- Node238&#45;&gt;Node241 -->
<g id="edge11" class="edge">
<title>Node238&#45;&gt;Node241</title>
<path fill="none" stroke="#191970" d="M405.6858,-256.4488C420.545,-245.1867 444.7415,-225.2889 461,-204 482.4739,-175.882 476.2323,-161.6436 497,-133 507.9462,-117.9026 522.9401,-103.0789 534.8024,-92.3343"/>
<polygon fill="#191970" stroke="#191970" points="537.2525,-94.8399 542.4262,-85.5942 532.616,-89.5955 537.2525,-94.8399"/>
</g>
<!-- Node238&#45;&gt;Node247 -->
<g id="edge20" class="edge">
<title>Node238&#45;&gt;Node247</title>
<path fill="none" stroke="#191970" d="M435.7874,-256.4478C444.8313,-252.9881 453.7954,-248.3096 461,-242 487.6161,-218.6904 470.2069,-194.1059 497,-171 498.9699,-169.3012 501.0969,-167.753 503.3317,-166.3423"/>
<polygon fill="#191970" stroke="#191970" points="505.179,-169.3247 512.3815,-161.5545 501.9055,-163.1373 505.179,-169.3247"/>
</g>
<!-- Node248 -->
<g id="node16" class="node">
<title>Node248</title>
<g id="a_node16"><a xlink:href="classNeuronMonitorCore.html#a38f87732cc929797d9648e68cd509f1b" target="_top" xlink:title="sets timestamp of last NeuronMonitor update ">
<polygon fill="#ffffff" stroke="#000000" points="511,-294.5 511,-313.5 597,-313.5 597,-294.5 511,-294.5"/>
<text text-anchor="middle" x="554" y="-301.5" font-family="Helvetica,sans-Serif" font-size="10.00" fill="#000000">setLastUpdated</text>
</a>
</g>
</g>
<!-- Node238&#45;&gt;Node248 -->
<g id="edge21" class="edge">
<title>Node238&#45;&gt;Node248</title>
<path fill="none" stroke="#191970" d="M433.2533,-275.589C454.6609,-280.6261 481.0862,-286.8438 503.7525,-292.1771"/>
<polygon fill="#191970" stroke="#191970" points="503.0039,-295.5964 513.5398,-294.4799 504.6073,-288.7825 503.0039,-295.5964"/>
</g>
<!-- Node255 -->
<g id="node23" class="node">
<title>Node255</title>
<g id="a_node23"><a xlink:href="classNeuronMonitorCore.html#a84e392c48ef98bece7aa0dc7af992360" target="_top" xlink:title="returns a pointer to the neuron state file ">
<polygon fill="#ffffff" stroke="#000000" points="511,-256.5 511,-275.5 597,-275.5 597,-256.5 511,-256.5"/>
<text text-anchor="middle" x="554" y="-263.5" font-family="Helvetica,sans-Serif" font-size="10.00" fill="#000000">getNeuronFileId</text>
</a>
</g>
</g>
<!-- Node238&#45;&gt;Node255 -->
<g id="edge30" class="edge">
<title>Node238&#45;&gt;Node255</title>
<path fill="none" stroke="#191970" d="M461.459,-266C474.5868,-266 488.1396,-266 500.6889,-266"/>
<polygon fill="#191970" stroke="#191970" points="500.963,-269.5001 510.9629,-266 500.9629,-262.5001 500.963,-269.5001"/>
</g>
<!-- Node242 -->
<g id="node10" class="node">
<title>Node242</title>
<g id="a_node10"><a xlink:href="classSNN.html#a866a9c6e2b2630816fc66adda1381655" target="_top" xlink:title="Returns pointer to existing SpikeMonitor object, NULL else. ">
<polygon fill="#ffffff" stroke="#000000" points="661,-.5 661,-19.5 776,-19.5 776,-.5 661,-.5"/>
<text text-anchor="middle" x="718.5" y="-7.5" font-family="Helvetica,sans-Serif" font-size="10.00" fill="#000000">SNN::getSpikeMonitor</text>
</a>
</g>
</g>
<!-- Node241&#45;&gt;Node242 -->
<g id="edge12" class="edge">
<title>Node241&#45;&gt;Node242</title>
<path fill="none" stroke="#191970" d="M570.325,-66.4323C588.534,-56.0765 619.1045,-39.6223 647,-29 653.3711,-26.574 660.1739,-24.3372 666.9556,-22.3154"/>
<polygon fill="#191970" stroke="#191970" points="668.1618,-25.6113 676.8236,-19.5102 666.2477,-18.878 668.1618,-25.6113"/>
</g>
<!-- Node244 -->
<g id="node12" class="node">
<title>Node244</title>
<g id="a_node12"><a xlink:href="classSNN.html#ad25000cd1457c9b9869122534ada6fdd" target="_top" xlink:title="SNN::getSpikeMonitorCore">
<polygon fill="#ffffff" stroke="#000000" points="650.5,-114.5 650.5,-133.5 786.5,-133.5 786.5,-114.5 650.5,-114.5"/>
<text text-anchor="middle" x="718.5" y="-121.5" font-family="Helvetica,sans-Serif" font-size="10.00" fill="#000000">SNN::getSpikeMonitorCore</text>
</a>
</g>
</g>
<!-- Node241&#45;&gt;Node244 -->
<g id="edge14" class="edge">
<title>Node241&#45;&gt;Node244</title>
<path fill="none" stroke="#191970" d="M583.6402,-85.5957C601.8598,-91.406 625.7135,-98.8559 647,-105 654.8958,-107.279 663.3113,-109.6058 671.4933,-111.814"/>
<polygon fill="#191970" stroke="#191970" points="670.7426,-115.2361 681.3073,-114.4375 672.5505,-108.4736 670.7426,-115.2361"/>
</g>
<!-- Node245 -->
<g id="node13" class="node">
<title>Node245</title>
<g id="a_node13"><a xlink:href="classSNN.html#a0eb87addfa5eebdfee4bd6b927b8945f" target="_top" xlink:title="Returns pointer to existing NeuronMonitor object, NULL else. ">
<polygon fill="#ffffff" stroke="#000000" points="657.5,-76.5 657.5,-95.5 779.5,-95.5 779.5,-76.5 657.5,-76.5"/>
<text text-anchor="middle" x="718.5" y="-83.5" font-family="Helvetica,sans-Serif" font-size="10.00" fill="#000000">SNN::getNeuronMonitor</text>
</a>
</g>
</g>
<!-- Node241&#45;&gt;Node245 -->
<g id="edge16" class="edge">
<title>Node241&#45;&gt;Node245</title>
<path fill="none" stroke="#191970" d="M609.2337,-79.3577C621.4595,-80.1009 634.5812,-80.8986 647.3402,-81.6742"/>
<polygon fill="#191970" stroke="#191970" points="647.2769,-85.1767 657.4709,-82.29 647.7017,-78.1896 647.2769,-85.1767"/>
</g>
<!-- Node246 -->
<g id="node14" class="node">
<title>Node246</title>
<g id="a_node14"><a xlink:href="classSNN.html#a9aa73fa9478383c4af1eed8387d82db9" target="_top" xlink:title="SNN::getNeuronMonitorCore">
<polygon fill="#ffffff" stroke="#000000" points="647,-38.5 647,-57.5 790,-57.5 790,-38.5 647,-38.5"/>
<text text-anchor="middle" x="718.5" y="-45.5" font-family="Helvetica,sans-Serif" font-size="10.00" fill="#000000">SNN::getNeuronMonitorCore</text>
</a>
</g>
</g>
<!-- Node241&#45;&gt;Node246 -->
<g id="edge18" class="edge">
<title>Node241&#45;&gt;Node246</title>
<path fill="none" stroke="#191970" d="M609.2337,-66.5985C623.0536,-64.2462 638.0181,-61.699 652.3096,-59.2664"/>
<polygon fill="#191970" stroke="#191970" points="653.3002,-62.6483 662.5711,-57.5198 652.1256,-55.7475 653.3002,-62.6483"/>
</g>
<!-- Node243 -->
<g id="node11" class="node">
<title>Node243</title>
<g id="a_node11"><a xlink:href="classSNN.html#a292bdee57fec7c77ec4c15ea3f508d60" target="_top" xlink:title="SNN::getNumGroups">
<polygon fill="#ffffff" stroke="#000000" points="828.5,-57.5 828.5,-76.5 938.5,-76.5 938.5,-57.5 828.5,-57.5"/>
<text text-anchor="middle" x="883.5" y="-64.5" font-family="Helvetica,sans-Serif" font-size="10.00" fill="#000000">SNN::getNumGroups</text>
</a>
</g>
</g>
<!-- Node242&#45;&gt;Node243 -->
<g id="edge13" class="edge">
<title>Node242&#45;&gt;Node243</title>
<path fill="none" stroke="#191970" d="M758.1016,-19.5695C768.5534,-22.3543 779.7686,-25.5767 790,-29 811.3108,-36.1303 834.7356,-45.6535 852.8077,-53.3825"/>
<polygon fill="#191970" stroke="#191970" points="851.6818,-56.7089 862.2496,-57.4652 854.4601,-50.2838 851.6818,-56.7089"/>
</g>
<!-- Node244&#45;&gt;Node243 -->
<g id="edge15" class="edge">
<title>Node244&#45;&gt;Node243</title>
<path fill="none" stroke="#191970" d="M758.1016,-114.4305C768.5534,-111.6457 779.7686,-108.4233 790,-105 811.3108,-97.8697 834.7356,-88.3465 852.8077,-80.6175"/>
<polygon fill="#191970" stroke="#191970" points="854.4601,-83.7162 862.2496,-76.5348 851.6818,-77.2911 854.4601,-83.7162"/>
</g>
<!-- Node245&#45;&gt;Node243 -->
<g id="edge17" class="edge">
<title>Node245&#45;&gt;Node243</title>
<path fill="none" stroke="#191970" d="M779.9399,-78.9251C792.4474,-77.4848 805.647,-75.9649 818.2805,-74.5101"/>
<polygon fill="#191970" stroke="#191970" points="818.7331,-77.9812 828.267,-73.3602 817.9323,-71.0272 818.7331,-77.9812"/>
</g>
<!-- Node246&#45;&gt;Node243 -->
<g id="edge19" class="edge">
<title>Node246&#45;&gt;Node243</title>
<path fill="none" stroke="#191970" d="M790.3914,-56.2784C799.6037,-57.3392 808.9953,-58.4207 818.0967,-59.4687"/>
<polygon fill="#191970" stroke="#191970" points="817.8892,-62.9679 828.224,-60.6349 818.69,-56.0138 817.8892,-62.9679"/>
</g>
<!-- Node249 -->
<g id="node17" class="node">
<title>Node249</title>
<g id="a_node17"><a xlink:href="classNeuronMonitorCore.html#aaeb6a64ac5d9fd3b7a979f0f12ec87dc" target="_top" xlink:title="returns true if state buffers are close to maxAllowedBufferSize ">
<polygon fill="#ffffff" stroke="#000000" points="686,-256.5 686,-275.5 751,-275.5 751,-256.5 686,-256.5"/>
<text text-anchor="middle" x="718.5" y="-263.5" font-family="Helvetica,sans-Serif" font-size="10.00" fill="#000000">isBufferBig</text>
</a>
</g>
</g>
<!-- Node248&#45;&gt;Node249 -->
<g id="edge22" class="edge">
<title>Node248&#45;&gt;Node249</title>
<path fill="none" stroke="#191970" d="M595.5103,-294.411C620.1045,-288.7297 651.2003,-281.5464 675.9709,-275.8243"/>
<polygon fill="#191970" stroke="#191970" points="676.8601,-279.2112 685.8157,-273.5502 675.2845,-272.3908 676.8601,-279.2112"/>
</g>
<!-- Node250 -->
<g id="node18" class="node">
<title>Node250</title>
<g id="a_node18"><a xlink:href="classNeuronMonitorCore.html#a30f19d45f562061cc82c04e7289ba956" target="_top" xlink:title="returns the approximate size of the state vectors in bytes ">
<polygon fill="#ffffff" stroke="#000000" points="845.5,-275.5 845.5,-294.5 921.5,-294.5 921.5,-275.5 845.5,-275.5"/>
<text text-anchor="middle" x="883.5" y="-282.5" font-family="Helvetica,sans-Serif" font-size="10.00" fill="#000000">getBufferSize</text>
</a>
</g>
</g>
<!-- Node248&#45;&gt;Node250 -->
<g id="edge24" class="edge">
<title>Node248&#45;&gt;Node250</title>
<path fill="none" stroke="#191970" d="M597.0764,-301.5161C658.4645,-297.9762 770.7758,-291.5 835.0085,-287.7962"/>
<polygon fill="#191970" stroke="#191970" points="835.49,-291.2743 845.2719,-287.2044 835.087,-284.2859 835.49,-291.2743"/>
</g>
<!-- Node251 -->
<g id="node19" class="node">
<title>Node251</title>
<g id="a_node19"><a xlink:href="classNeuronMonitorCore.html#a3a0e4e77a2b83f5dd0e86aafcf227595" target="_top" xlink:title="returns the total accumulated time ">
<polygon fill="#ffffff" stroke="#000000" points="677,-218.5 677,-237.5 760,-237.5 760,-218.5 677,-218.5"/>
<text text-anchor="middle" x="718.5" y="-225.5" font-family="Helvetica,sans-Serif" font-size="10.00" fill="#000000">getAccumTime</text>
</a>
</g>
</g>
<!-- Node248&#45;&gt;Node251 -->
<g id="edge25" class="edge">
<title>Node248&#45;&gt;Node251</title>
<path fill="none" stroke="#191970" d="M591.3915,-294.4743C598.1909,-291.9369 605.0171,-288.8103 611,-285 630.6229,-272.5029 626.9991,-258.8827 647,-247 653.2251,-243.3016 660.1758,-240.3108 667.2307,-237.8951"/>
<polygon fill="#191970" stroke="#191970" points="668.3215,-241.2215 676.8572,-234.9452 666.2706,-234.5287 668.3215,-241.2215"/>
</g>
<!-- Node252 -->
<g id="node20" class="node">
<title>Node252</title>
<g id="a_node20"><a xlink:href="classNeuronMonitorCore.html#a4d3c2252230fe74bf03bcc3045ff8972" target="_top" xlink:title="writeNeuronFileHeader">
<polygon fill="#ffffff" stroke="#000000" points="660.5,-332.5 660.5,-351.5 776.5,-351.5 776.5,-332.5 660.5,-332.5"/>
<text text-anchor="middle" x="718.5" y="-339.5" font-family="Helvetica,sans-Serif" font-size="10.00" fill="#000000">writeNeuronFileHeader</text>
</a>
</g>
</g>
<!-- Node248&#45;&gt;Node252 -->
<g id="edge26" class="edge">
<title>Node248&#45;&gt;Node252</title>
<path fill="none" stroke="#191970" d="M595.5103,-313.589C617.3156,-318.6261 644.2318,-324.8438 667.3191,-330.1771"/>
<polygon fill="#191970" stroke="#191970" points="666.757,-333.6393 677.2882,-332.4799 668.3326,-326.8189 666.757,-333.6393"/>
</g>
<!-- Node254 -->
<g id="node22" class="node">
<title>Node254</title>
<g id="a_node22"><a xlink:href="classNeuronMonitorCore.html#aec9349ebca384aed5e233754559075e0" target="_top" xlink:title="prints neuron states in human&#45;readable format ">
<polygon fill="#ffffff" stroke="#000000" points="701,-171.5 701,-190.5 736,-190.5 736,-171.5 701,-171.5"/>
<text text-anchor="middle" x="718.5" y="-178.5" font-family="Helvetica,sans-Serif" font-size="10.00" fill="#000000">print</text>
</a>
</g>
</g>
<!-- Node248&#45;&gt;Node254 -->
<g id="edge28" class="edge">
<title>Node248&#45;&gt;Node254</title>
<path fill="none" stroke="#191970" d="M596.0054,-294.4233C601.4413,-291.9624 606.628,-288.874 611,-285 638.9735,-260.2125 619.674,-234.4996 647,-209 659.1566,-197.6559 676.4399,-190.7193 690.9687,-186.5882"/>
<polygon fill="#191970" stroke="#191970" points="692.1179,-189.9075 700.9483,-184.053 690.3944,-183.1229 692.1179,-189.9075"/>
</g>
<!-- Node249&#45;&gt;Node250 -->
<g id="edge23" class="edge">
<title>Node249&#45;&gt;Node250</title>
<path fill="none" stroke="#191970" d="M751.0987,-269.7538C775.1663,-272.5252 808.3097,-276.3417 835.4147,-279.4629"/>
<polygon fill="#191970" stroke="#191970" points="835.141,-282.9544 845.4757,-280.6214 835.9418,-276.0004 835.141,-282.9544"/>
</g>
<!-- Node253 -->
<g id="node21" class="node">
<title>Node253</title>
<g id="a_node21"><a xlink:href="classSNN.html#ac13b30c40669d3cb8264bd6e211b449d" target="_top" xlink:title="SNN::getGroupGrid3D">
<polygon fill="#ffffff" stroke="#000000" points="826,-332.5 826,-351.5 941,-351.5 941,-332.5 826,-332.5"/>
<text text-anchor="middle" x="883.5" y="-339.5" font-family="Helvetica,sans-Serif" font-size="10.00" fill="#000000">SNN::getGroupGrid3D</text>
</a>
</g>
</g>
<!-- Node252&#45;&gt;Node253 -->
<g id="edge27" class="edge">
<title>Node252&#45;&gt;Node253</title>
<path fill="none" stroke="#191970" d="M776.6728,-342C789.2651,-342 802.6878,-342 815.6159,-342"/>
<polygon fill="#191970" stroke="#191970" points="815.8526,-345.5001 825.8526,-342 815.8525,-338.5001 815.8526,-345.5001"/>
</g>
<!-- Node254&#45;&gt;Node234 -->
<g id="edge29" class="edge">
<title>Node254&#45;&gt;Node234</title>
<path fill="none" stroke="#191970" d="M702.8329,-171.459C682.5181,-159.6998 645.5831,-140.3702 611,-133 433.1616,-95.0998 367.2656,-67.1701 202,-143 175.6207,-155.1038 154.6244,-182.266 142.7441,-200.6174"/>
<polygon fill="#191970" stroke="#191970" points="139.6669,-198.9388 137.3821,-209.2844 145.6198,-202.6217 139.6669,-198.9388"/>
</g>
<!-- Node256&#45;&gt;Node234 -->
<g id="edge36" class="edge">
<title>Node256&#45;&gt;Node234</title>
<path fill="none" stroke="#191970" d="M204.9492,-225.489C195.6522,-225.7919 185.7042,-225.8312 176.2386,-225.6067"/>
<polygon fill="#191970" stroke="#191970" points="176.3255,-222.1077 166.2104,-225.2596 176.0833,-229.1035 176.3255,-222.1077"/>
</g>
<!-- Node256&#45;&gt;Node238 -->
<g id="edge37" class="edge">
<title>Node256&#45;&gt;Node238</title>
<path fill="none" stroke="#191970" d="M274.8488,-228.5112C297.2666,-235.6544 328.1931,-245.509 352.7122,-253.3218"/>
<polygon fill="#191970" stroke="#191970" points="351.8522,-256.7211 362.4428,-256.4224 353.9774,-250.0515 351.8522,-256.7211"/>
</g>
<!-- Node256&#45;&gt;Node241 -->
<g id="edge39" class="edge">
<title>Node256&#45;&gt;Node241</title>
<path fill="none" stroke="#191970" d="M274.7797,-209.4757C317.178,-195.4598 396.9054,-167.4059 461,-135 486.5158,-122.0993 513.9535,-104.1397 532.3624,-91.4326"/>
<polygon fill="#191970" stroke="#191970" points="534.4314,-94.2567 540.6262,-85.6616 530.4236,-88.5176 534.4314,-94.2567"/>
</g>
<!-- Node256&#45;&gt;Node247 -->
<g id="edge38" class="edge">
<title>Node256&#45;&gt;Node247</title>
<path fill="none" stroke="#191970" d="M285.0596,-223.8718C329.8637,-227.6204 403.6638,-228.6235 461,-204 480.9437,-195.435 478.293,-182.0073 497,-171 500.5905,-168.8873 504.448,-166.9714 508.4017,-165.2423"/>
<polygon fill="#191970" stroke="#191970" points="509.719,-168.4852 517.7216,-161.542 507.1358,-161.9792 509.719,-168.4852"/>
</g>
<!-- Node257&#45;&gt;Node234 -->
<g id="edge42" class="edge">
<title>Node257&#45;&gt;Node234</title>
<path fill="none" stroke="#191970" d="M210.496,-285.2376C207.5938,-283.5332 204.7281,-281.764 202,-280 181.1708,-266.5315 158.3303,-249.0029 144.585,-235.7687"/>
<polygon fill="#191970" stroke="#191970" points="147.0822,-233.3161 137.627,-228.5361 142.0376,-238.1692 147.0822,-233.3161"/>
</g>
<!-- Node257&#45;&gt;Node252 -->
<g id="edge43" class="edge">
<title>Node257&#45;&gt;Node252</title>
<path fill="none" stroke="#191970" d="M288.219,-300.1357C338.3839,-306.0194 423.6224,-315.7775 497,-323 548.314,-328.0508 606.3922,-333.0043 650.2005,-336.5866"/>
<polygon fill="#191970" stroke="#191970" points="649.917,-340.075 660.1681,-337.3982 650.4852,-333.0981 649.917,-340.075"/>
</g>
</g>
</svg>
        <g id="navigator" transform="translate(0 0)" fill="#404254">
                <rect fill="#f2f5e9" fill-opacity="0.5" stroke="#606060" stroke-width=".5" x="0" y="0" width="60" height="60"/>
                <use id="zoomplus" xlink:href="#zoomPlus" x="17" y="9" onmousedown="handleZoom(evt,'in')"/>
                <use id="zoomminus" xlink:href="#zoomMin" x="42" y="9" onmousedown="handleZoom(evt,'out')"/>
                <use id="reset" xlink:href="#resetDef" x="30" y="36" onmousedown="handleReset()"/>
                <g id="arrowUp" xlink:href="#dirArrow" transform="translate(30 24)" onmousedown="handlePan(0,-1)">
                  <use xlink:href="#rim" fill="#404040">
                        <set attributeName="fill" to="#808080" begin="arrowUp.mouseover" end="arrowUp.mouseout"/>
                  </use>
                  <path fill="none" stroke="white" stroke-width="1.5" d="M0,-3.0v7 M-2.5,-0.5L0,-3.0L2.5,-0.5"/>
                </g>
                <g id="arrowRight" xlink:href="#dirArrow" transform="rotate(90) translate(36 -43)" onmousedown="handlePan(1,0)">
                  <use xlink:href="#rim" fill="#404040">
                        <set attributeName="fill" to="#808080" begin="arrowRight.mouseover" end="arrowRight.mouseout"/>
                  </use>
                  <path fill="none" stroke="white" stroke-width="1.5" d="M0,-3.0v7 M-2.5,-0.5L0,-3.0L2.5,-0.5"/>
                </g>
                <g id="arrowDown" xlink:href="#dirArrow" transform="rotate(180) translate(-30 -48)" onmousedown="handlePan(0,1)">
                  <use xlink:href="#rim" fill="#404040">
                        <set attributeName="fill" to="#808080" begin="arrowDown.mouseover" end="arrowDown.mouseout"/>
                  </use>
                  <path fill="none" stroke="white" stroke-width="1.5" d="M0,-3.0v7 M-2.5,-0.5L0,-3.0L2.5,-0.5"/>
                </g>
                <g id="arrowLeft" xlink:href="#dirArrow" transform="rotate(270) translate(-36 17)" onmousedown="handlePan(-1,0)">
                  <use xlink:href="#rim" fill="#404040">
                        <set attributeName="fill" to="#808080" begin="arrowLeft.mouseover" end="arrowLeft.mouseout"/>
                  </use>
                  <path fill="none" stroke="white" stroke-width="1.5" d="M0,-3.0v7 M-2.5,-0.5L0,-3.0L2.5,-0.5"/>
                </g>
        </g>
        <svg viewBox="0 0 15 15" width="100%" height="30px" preserveAspectRatio="xMaxYMin meet">
         <g id="arrow_out" transform="scale(0.3 0.3)">
          <a xlink:href="classNeuronMonitorCore_aa1e83b424e9145add71076cadfadb200_cgraph_org.svg" target="_base">
           <rect id="button" ry="5" rx="5" y="6" x="6" height="38" width="38"
                fill="#f2f5e9" fill-opacity="0.5" stroke="#606060" stroke-width="1.0"/>
           <path id="arrow"
             d="M 11.500037,31.436501 C 11.940474,20.09759 22.043105,11.32322 32.158766,21.979434 L 37.068811,17.246167 C 37.068811,17.246167 37.088388,32 37.088388,32 L 22.160133,31.978069 C 22.160133,31.978069 26.997745,27.140456 26.997745,27.140456 C 18.528582,18.264221 13.291696,25.230495 11.500037,31.436501 z"
             style="fill:#404040;"/>
          </a>
         </g>
        </svg>
</svg>
