<?xml version="1.0" encoding="UTF-8" standalone="no"?>
<!DOCTYPE svg PUBLIC "-//W3C//DTD SVG 1.1//EN"
 "http://www.w3.org/Graphics/SVG/1.1/DTD/svg11.dtd">
<!-- Generated by graphviz version 2.40.1 (20161225.0304)
 -->
<!-- Title: getAllFiringRatesSorted Pages: 1 -->
<svg width="1555pt" height="486pt"
 viewBox="0.00 0.00 1555.00 486.00" xmlns="http://www.w3.org/2000/svg" xmlns:xlink="http://www.w3.org/1999/xlink">
<g id="graph0" class="graph" transform="scale(1 1) rotate(0) translate(4 482)">
<title>getAllFiringRatesSorted</title>
<polygon fill="#ffffff" stroke="transparent" points="-4,4 -4,-482 1551,-482 1551,4 -4,4"/>
<!-- Node39 -->
<g id="node1" class="node">
<title>Node39</title>
<polygon fill="#bfbfbf" stroke="#000000" points="0,-167.5 0,-186.5 120,-186.5 120,-167.5 0,-167.5"/>
<text text-anchor="middle" x="60" y="-174.5" font-family="Helvetica,sans-Serif" font-size="10.00" fill="#000000">getAllFiringRatesSorted</text>
</g>
<!-- Node40 -->
<g id="node2" class="node">
<title>Node40</title>
<g id="a_node2"><a xlink:href="classUserErrors.html#a4bbedc6c0817d5e59e74e450bf00472c" target="_top" xlink:title="simple wrapper for assert statement ">
<polygon fill="#ffffff" stroke="#000000" points="160.5,-211.5 160.5,-230.5 276.5,-230.5 276.5,-211.5 160.5,-211.5"/>
<text text-anchor="middle" x="218.5" y="-218.5" font-family="Helvetica,sans-Serif" font-size="10.00" fill="#000000">UserErrors::assertTrue</text>
</a>
</g>
</g>
<!-- Node39&#45;&gt;Node40 -->
<g id="edge1" class="edge">
<title>Node39&#45;&gt;Node40</title>
<path fill="none" stroke="#191970" d="M94.3921,-186.5473C117.8624,-193.0627 149.1593,-201.7508 174.4523,-208.7722"/>
<polygon fill="#191970" stroke="#191970" points="173.6031,-212.1688 184.175,-211.4713 175.4756,-205.4239 173.6031,-212.1688"/>
</g>
<!-- Node41 -->
<g id="node3" class="node">
<title>Node41</title>
<g id="a_node3"><a xlink:href="classSpikeMonitor.html#a3a3ffdb35b09328d22e5d72503ed1f55" target="_top" xlink:title="Recording status (true=recording, false=not recording) ">
<polygon fill="#ffffff" stroke="#000000" points="184.5,-123.5 184.5,-142.5 252.5,-142.5 252.5,-123.5 184.5,-123.5"/>
<text text-anchor="middle" x="218.5" y="-130.5" font-family="Helvetica,sans-Serif" font-size="10.00" fill="#000000">isRecording</text>
</a>
</g>
</g>
<!-- Node39&#45;&gt;Node41 -->
<g id="edge2" class="edge">
<title>Node39&#45;&gt;Node41</title>
<path fill="none" stroke="#191970" d="M94.3921,-167.4527C117.9428,-160.9149 149.3738,-152.1896 174.7119,-145.1557"/>
<polygon fill="#191970" stroke="#191970" points="175.7482,-148.5004 184.4476,-142.453 173.8757,-141.7555 175.7482,-148.5004"/>
</g>
<!-- Node55 -->
<g id="node17" class="node">
<title>Node55</title>
<g id="a_node17"><a xlink:href="classSpikeMonitorCore.html#ac0d8bd3f92fa0eae87b37f9245e0e13a" target="_top" xlink:title="returns a list of firing rates for all neurons in the group (sorted by firing rate ascending) ...">
<polygon fill="#ffffff" stroke="#000000" points="156,-162 156,-192 281,-192 281,-162 156,-162"/>
<text text-anchor="start" x="164" y="-180" font-family="Helvetica,sans-Serif" font-size="10.00" fill="#000000">SpikeMonitorCore::getAll</text>
<text text-anchor="middle" x="218.5" y="-169" font-family="Helvetica,sans-Serif" font-size="10.00" fill="#000000">FiringRatesSorted</text>
</a>
</g>
</g>
<!-- Node39&#45;&gt;Node55 -->
<g id="edge30" class="edge">
<title>Node39&#45;&gt;Node55</title>
<path fill="none" stroke="#191970" d="M120.3742,-177C128.6463,-177 137.2097,-177 145.6746,-177"/>
<polygon fill="#191970" stroke="#191970" points="145.9251,-180.5001 155.9251,-177 145.925,-173.5001 145.9251,-180.5001"/>
</g>
<!-- Node42 -->
<g id="node4" class="node">
<title>Node42</title>
<g id="a_node4"><a xlink:href="classSpikeMonitorCore.html#a3a3ffdb35b09328d22e5d72503ed1f55" target="_top" xlink:title="returns recording status ">
<polygon fill="#ffffff" stroke="#000000" points="317,-145.5 317,-164.5 469,-164.5 469,-145.5 317,-145.5"/>
<text text-anchor="middle" x="393" y="-152.5" font-family="Helvetica,sans-Serif" font-size="10.00" fill="#000000">SpikeMonitorCore::isRecording</text>
</a>
</g>
</g>
<!-- Node41&#45;&gt;Node42 -->
<g id="edge3" class="edge">
<title>Node41&#45;&gt;Node42</title>
<path fill="none" stroke="#191970" d="M252.5596,-137.294C268.354,-139.2853 287.909,-141.7507 307.3574,-144.2026"/>
<polygon fill="#191970" stroke="#191970" points="307.1382,-147.7026 317.4975,-145.4811 308.0138,-140.7576 307.1382,-147.7026"/>
</g>
<!-- Node43 -->
<g id="node5" class="node">
<title>Node43</title>
<g id="a_node5"><a xlink:href="classSpikeMonitorCore.html#af0ba89c38f6852cdf9d914687ad6a445" target="_top" xlink:title="prints the AER vector in human&#45;readable format ">
<polygon fill="#ffffff" stroke="#000000" points="517,-240.5 517,-259.5 636,-259.5 636,-240.5 517,-240.5"/>
<text text-anchor="middle" x="576.5" y="-247.5" font-family="Helvetica,sans-Serif" font-size="10.00" fill="#000000">SpikeMonitorCore::print</text>
</a>
</g>
</g>
<!-- Node42&#45;&gt;Node43 -->
<g id="edge4" class="edge">
<title>Node42&#45;&gt;Node43</title>
<path fill="none" stroke="#191970" d="M421.2697,-164.5995C458.4193,-181.371 522.8028,-214.8926 555.7587,-234.7944"/>
<polygon fill="#191970" stroke="#191970" points="554.2034,-237.949 564.543,-240.2608 557.9018,-232.0057 554.2034,-237.949"/>
</g>
<!-- Node54 -->
<g id="node16" class="node">
<title>Node54</title>
<g id="a_node16"><a xlink:href="classSpikeMonitorCore.html#a6e116c2994e0449c41e56d03370fa54c" target="_top" xlink:title="inserts a (time,neurId) tupel into the 2D spike vector ">
<polygon fill="#ffffff" stroke="#000000" points="505,-.5 505,-19.5 648,-19.5 648,-.5 505,-.5"/>
<text text-anchor="middle" x="576.5" y="-7.5" font-family="Helvetica,sans-Serif" font-size="10.00" fill="#000000">SpikeMonitorCore::pushAER</text>
</a>
</g>
</g>
<!-- Node42&#45;&gt;Node54 -->
<g id="edge27" class="edge">
<title>Node42&#45;&gt;Node54</title>
<path fill="none" stroke="#191970" d="M396.9008,-145.2409C409.8559,-120.4667 453.5578,-58.2585 505,-25 505.1856,-24.88 505.3718,-24.7606 505.5586,-24.6417"/>
<polygon fill="#191970" stroke="#191970" points="507.3736,-27.6361 514.3452,-19.6582 503.9202,-21.5473 507.3736,-27.6361"/>
</g>
<!-- Node43&#45;&gt;Node42 -->
<g id="edge5" class="edge">
<title>Node43&#45;&gt;Node42</title>
<path fill="none" stroke="#191970" d="M548.2882,-240.4266C511.0635,-223.6258 446.4219,-189.9655 413.5175,-170.0703"/>
<polygon fill="#191970" stroke="#191970" points="415.0957,-166.9298 404.7579,-164.6104 411.393,-172.8703 415.0957,-166.9298"/>
</g>
<!-- Node44 -->
<g id="node6" class="node">
<title>Node44</title>
<g id="a_node6"><a xlink:href="classSNN.html#a5fd2b156623d78138bcb44167eabab78" target="_top" xlink:title="SNN::getSimTime">
<polygon fill="#ffffff" stroke="#000000" points="701,-316.5 701,-335.5 798,-335.5 798,-316.5 701,-316.5"/>
<text text-anchor="middle" x="749.5" y="-323.5" font-family="Helvetica,sans-Serif" font-size="10.00" fill="#000000">SNN::getSimTime</text>
</a>
</g>
</g>
<!-- Node43&#45;&gt;Node44 -->
<g id="edge6" class="edge">
<title>Node43&#45;&gt;Node44</title>
<path fill="none" stroke="#191970" d="M592.037,-259.5498C612.5136,-271.8255 649.9332,-293.198 684,-307 689.7613,-309.3342 695.9143,-311.51 702.056,-313.4944"/>
<polygon fill="#191970" stroke="#191970" points="701.0527,-316.8476 711.6401,-316.4502 703.1158,-310.1584 701.0527,-316.8476"/>
</g>
<!-- Node45 -->
<g id="node7" class="node">
<title>Node45</title>
<g id="a_node7"><a xlink:href="classSNN.html#ab0367f8ebd4019bf7d34ebddb1563fe7" target="_top" xlink:title="SNN::getGroupName">
<polygon fill="#ffffff" stroke="#000000" points="694.5,-278.5 694.5,-297.5 804.5,-297.5 804.5,-278.5 694.5,-278.5"/>
<text text-anchor="middle" x="749.5" y="-285.5" font-family="Helvetica,sans-Serif" font-size="10.00" fill="#000000">SNN::getGroupName</text>
</a>
</g>
</g>
<!-- Node43&#45;&gt;Node45 -->
<g id="edge7" class="edge">
<title>Node43&#45;&gt;Node45</title>
<path fill="none" stroke="#191970" d="M620.1552,-259.589C643.2929,-264.6713 671.9024,-270.9554 696.3268,-276.3203"/>
<polygon fill="#191970" stroke="#191970" points="695.6406,-279.753 706.1587,-278.4799 697.1425,-272.916 695.6406,-279.753"/>
</g>
<!-- Node46 -->
<g id="node8" class="node">
<title>Node46</title>
<g id="a_node8"><a xlink:href="classSpikeMonitorCore.html#af6c333e6cefff92d0e354eca70625cdc" target="_top" xlink:title="returns the total number of recorded spikes in the group ">
<polygon fill="#ffffff" stroke="#000000" points="1046.5,-213 1046.5,-243 1177.5,-243 1177.5,-213 1046.5,-213"/>
<text text-anchor="start" x="1054.5" y="-231" font-family="Helvetica,sans-Serif" font-size="10.00" fill="#000000">SpikeMonitorCore::getPop</text>
<text text-anchor="middle" x="1112" y="-220" font-family="Helvetica,sans-Serif" font-size="10.00" fill="#000000">NumSpikes</text>
</a>
</g>
</g>
<!-- Node43&#45;&gt;Node46 -->
<g id="edge8" class="edge">
<title>Node43&#45;&gt;Node46</title>
<path fill="none" stroke="#191970" d="M636.1117,-247.551C733.9605,-243.531 928.4864,-235.5393 1036.0587,-231.1199"/>
<polygon fill="#191970" stroke="#191970" points="1036.3434,-234.6113 1046.1913,-230.7036 1036.056,-227.6172 1036.3434,-234.6113"/>
</g>
<!-- Node49 -->
<g id="node11" class="node">
<title>Node49</title>
<g id="a_node11"><a xlink:href="classSpikeMonitorCore.html#a9cf20c30ff0efdbc5e3c5194648a7fb3" target="_top" xlink:title="returns the total recorded time in ms ">
<polygon fill="#ffffff" stroke="#000000" points="1033,-349 1033,-379 1191,-379 1191,-349 1033,-349"/>
<text text-anchor="start" x="1041" y="-367" font-family="Helvetica,sans-Serif" font-size="10.00" fill="#000000">SpikeMonitorCore::getRecording</text>
<text text-anchor="middle" x="1112" y="-356" font-family="Helvetica,sans-Serif" font-size="10.00" fill="#000000">TotalTime</text>
</a>
</g>
</g>
<!-- Node43&#45;&gt;Node49 -->
<g id="edge13" class="edge">
<title>Node43&#45;&gt;Node49</title>
<path fill="none" stroke="#191970" d="M583.5129,-259.5742C598.9749,-279.7978 638.2775,-326.5225 684,-345 794.2263,-389.545 933.6606,-385.8715 1022.8585,-376.8267"/>
<polygon fill="#191970" stroke="#191970" points="1023.3669,-380.2926 1032.943,-375.7595 1022.6302,-373.3314 1023.3669,-380.2926"/>
</g>
<!-- Node50 -->
<g id="node12" class="node">
<title>Node50</title>
<g id="a_node12"><a xlink:href="classSpikeMonitorCore.html#ae62d623e8edfc6b05309256c1d825bbd" target="_top" xlink:title="returns the recorded mean firing rate of the group ">
<polygon fill="#ffffff" stroke="#000000" points="858.5,-191 858.5,-221 989.5,-221 989.5,-191 858.5,-191"/>
<text text-anchor="start" x="866.5" y="-209" font-family="Helvetica,sans-Serif" font-size="10.00" fill="#000000">SpikeMonitorCore::getPop</text>
<text text-anchor="middle" x="924" y="-198" font-family="Helvetica,sans-Serif" font-size="10.00" fill="#000000">MeanFiringRate</text>
</a>
</g>
</g>
<!-- Node43&#45;&gt;Node50 -->
<g id="edge14" class="edge">
<title>Node43&#45;&gt;Node50</title>
<path fill="none" stroke="#191970" d="M636.1974,-242.1699C651.7566,-240.1443 668.5044,-237.9775 684,-236 738.9101,-228.9926 800.9099,-221.2469 848.137,-215.3815"/>
<polygon fill="#191970" stroke="#191970" points="848.793,-218.827 858.2857,-214.1218 847.9307,-211.8803 848.793,-218.827"/>
</g>
<!-- Node51 -->
<g id="node13" class="node">
<title>Node51</title>
<g id="a_node13"><a xlink:href="classSpikeMonitorCore.html#ad0c4b32bb5cc0c7a8d95ed6023a2695f" target="_top" xlink:title="computes the standard deviation of firing rates in the group ">
<polygon fill="#ffffff" stroke="#000000" points="684,-115 684,-145 815,-145 815,-115 684,-115"/>
<text text-anchor="start" x="692" y="-133" font-family="Helvetica,sans-Serif" font-size="10.00" fill="#000000">SpikeMonitorCore::getPop</text>
<text text-anchor="middle" x="749.5" y="-122" font-family="Helvetica,sans-Serif" font-size="10.00" fill="#000000">StdFiringRate</text>
</a>
</g>
</g>
<!-- Node43&#45;&gt;Node51 -->
<g id="edge18" class="edge">
<title>Node43&#45;&gt;Node51</title>
<path fill="none" stroke="#191970" d="M590.3649,-240.3827C618.2009,-221.0745 681.4531,-177.2001 719.2946,-150.9517"/>
<polygon fill="#191970" stroke="#191970" points="721.6525,-153.5758 727.8745,-145.0004 717.6628,-147.824 721.6525,-153.5758"/>
</g>
<!-- Node53 -->
<g id="node15" class="node">
<title>Node53</title>
<g id="a_node15"><a xlink:href="classSpikeMonitorCore.html#aed09edf4583ac05d42fccc7e3556e3c5" target="_top" xlink:title="returns the recorded mean firing rate for a specific neuron ">
<polygon fill="#ffffff" stroke="#000000" points="851,-393 851,-423 997,-423 997,-393 851,-393"/>
<text text-anchor="start" x="859" y="-411" font-family="Helvetica,sans-Serif" font-size="10.00" fill="#000000">SpikeMonitorCore::getNeuron</text>
<text text-anchor="middle" x="924" y="-400" font-family="Helvetica,sans-Serif" font-size="10.00" fill="#000000">MeanFiringRate</text>
</a>
</g>
</g>
<!-- Node43&#45;&gt;Node53 -->
<g id="edge23" class="edge">
<title>Node43&#45;&gt;Node53</title>
<path fill="none" stroke="#191970" d="M581.3776,-259.8309C594.2447,-284.5916 631.7437,-349.568 684,-378 731.607,-403.9023 792.216,-411.3118 840.6149,-412.2915"/>
<polygon fill="#191970" stroke="#191970" points="840.7089,-415.7927 850.7483,-412.4073 840.789,-408.7931 840.7089,-415.7927"/>
</g>
<!-- Node46&#45;&gt;Node42 -->
<g id="edge9" class="edge">
<title>Node46&#45;&gt;Node42</title>
<path fill="none" stroke="#191970" d="M1105.2583,-212.6666C1090.7178,-181.7848 1053.1214,-112.767 997,-86 799.4854,8.2041 717.6937,-53.543 505,-105 473.8098,-112.5459 440.5295,-128.5342 418.4283,-140.4106"/>
<polygon fill="#191970" stroke="#191970" points="416.4742,-137.4906 409.3939,-145.3722 419.8439,-143.6262 416.4742,-137.4906"/>
</g>
<!-- Node47 -->
<g id="node9" class="node">
<title>Node47</title>
<g id="a_node9"><a xlink:href="classSpikeMonitorCore.html#a005a2f884f6260054483d4fa6ed6ddbb" target="_top" xlink:title="returns the number of recorded spikes of a specific neuron ">
<polygon fill="#ffffff" stroke="#000000" points="1227,-314 1227,-344 1373,-344 1373,-314 1227,-314"/>
<text text-anchor="start" x="1235" y="-332" font-family="Helvetica,sans-Serif" font-size="10.00" fill="#000000">SpikeMonitorCore::getNeuron</text>
<text text-anchor="middle" x="1300" y="-321" font-family="Helvetica,sans-Serif" font-size="10.00" fill="#000000">NumSpikes</text>
</a>
</g>
</g>
<!-- Node46&#45;&gt;Node47 -->
<g id="edge10" class="edge">
<title>Node46&#45;&gt;Node47</title>
<path fill="none" stroke="#191970" d="M1140.1455,-243.1207C1172.774,-260.6499 1226.6764,-289.6081 1262.7529,-308.9896"/>
<polygon fill="#191970" stroke="#191970" points="1261.5039,-312.2917 1271.9695,-313.9411 1264.8168,-306.1252 1261.5039,-312.2917"/>
</g>
<!-- Node47&#45;&gt;Node42 -->
<g id="edge11" class="edge">
<title>Node47&#45;&gt;Node42</title>
<path fill="none" stroke="#191970" d="M1284.8056,-344.1218C1264.9377,-363.0372 1228.2581,-395.1083 1191,-413 1080.9038,-465.8694 1046.1325,-478 924,-478 749.5,-478 749.5,-478 749.5,-478 627.6572,-478 592.9996,-438.2719 505,-354 448.9915,-300.364 413.1842,-212.5088 399.407,-174.0434"/>
<polygon fill="#191970" stroke="#191970" points="402.7028,-172.8646 396.1069,-164.5733 396.0926,-175.1681 402.7028,-172.8646"/>
</g>
<!-- Node48 -->
<g id="node10" class="node">
<title>Node48</title>
<g id="a_node10"><a xlink:href="classSpikeMonitorCore.html#abe76071e1ac3632d55f2455b239b3d12" target="_top" xlink:title="returns recording mode ">
<polygon fill="#ffffff" stroke="#000000" points="1409,-98.5 1409,-117.5 1547,-117.5 1547,-98.5 1409,-98.5"/>
<text text-anchor="middle" x="1478" y="-105.5" font-family="Helvetica,sans-Serif" font-size="10.00" fill="#000000">SpikeMonitorCore::getMode</text>
</a>
</g>
</g>
<!-- Node47&#45;&gt;Node48 -->
<g id="edge12" class="edge">
<title>Node47&#45;&gt;Node48</title>
<path fill="none" stroke="#191970" d="M1312.2347,-313.8098C1344.0597,-274.2967 1429.3266,-168.4316 1463.5203,-125.9776"/>
<polygon fill="#191970" stroke="#191970" points="1466.4572,-127.911 1470.0041,-117.9275 1461.0055,-123.5201 1466.4572,-127.911"/>
</g>
<!-- Node50&#45;&gt;Node42 -->
<g id="edge15" class="edge">
<title>Node50&#45;&gt;Node42</title>
<path fill="none" stroke="#191970" d="M858.1062,-199.6712C762.4439,-190.4833 584.9969,-173.4404 479.099,-163.2694"/>
<polygon fill="#191970" stroke="#191970" points="479.3682,-159.7792 469.0794,-162.3071 478.6989,-166.7472 479.3682,-159.7792"/>
</g>
<!-- Node50&#45;&gt;Node46 -->
<g id="edge16" class="edge">
<title>Node50&#45;&gt;Node46</title>
<path fill="none" stroke="#191970" d="M989.7533,-213.6945C1004.78,-215.453 1020.8685,-217.3357 1036.2756,-219.1386"/>
<polygon fill="#191970" stroke="#191970" points="1035.9448,-222.6237 1046.2838,-220.3098 1036.7585,-215.6712 1035.9448,-222.6237"/>
</g>
<!-- Node50&#45;&gt;Node49 -->
<g id="edge17" class="edge">
<title>Node50&#45;&gt;Node49</title>
<path fill="none" stroke="#191970" d="M942.0262,-221.1497C975.5744,-249.3445 1047.6852,-309.9482 1086.3185,-342.4166"/>
<polygon fill="#191970" stroke="#191970" points="1084.121,-345.1417 1094.0283,-348.8962 1088.6247,-339.7829 1084.121,-345.1417"/>
</g>
<!-- Node51&#45;&gt;Node42 -->
<g id="edge19" class="edge">
<title>Node51&#45;&gt;Node42</title>
<path fill="none" stroke="#191970" d="M683.7554,-134.6104C626.2333,-138.6442 542.2727,-144.5321 479.3465,-148.9448"/>
<polygon fill="#191970" stroke="#191970" points="478.7716,-145.4765 469.0409,-149.6675 479.2613,-152.4593 478.7716,-145.4765"/>
</g>
<!-- Node51&#45;&gt;Node50 -->
<g id="edge20" class="edge">
<title>Node51&#45;&gt;Node50</title>
<path fill="none" stroke="#191970" d="M783.9756,-145.0152C811.4907,-156.9988 850.2221,-173.8675 879.9779,-186.827"/>
<polygon fill="#191970" stroke="#191970" points="878.7321,-190.1019 889.2978,-190.8862 881.5272,-183.6842 878.7321,-190.1019"/>
</g>
<!-- Node52 -->
<g id="node14" class="node">
<title>Node52</title>
<g id="a_node14"><a xlink:href="classSpikeMonitorCore.html#a0fc20fcc5876030d796debd148ae7cee" target="_top" xlink:title="returns a list of firing rates for all neurons in the group (sorted by neuron ID ascending) ...">
<polygon fill="#ffffff" stroke="#000000" points="861.5,-96 861.5,-126 986.5,-126 986.5,-96 861.5,-96"/>
<text text-anchor="start" x="869.5" y="-114" font-family="Helvetica,sans-Serif" font-size="10.00" fill="#000000">SpikeMonitorCore::getAll</text>
<text text-anchor="middle" x="924" y="-103" font-family="Helvetica,sans-Serif" font-size="10.00" fill="#000000">FiringRates</text>
</a>
</g>
</g>
<!-- Node51&#45;&gt;Node52 -->
<g id="edge21" class="edge">
<title>Node51&#45;&gt;Node52</title>
<path fill="none" stroke="#191970" d="M815.471,-122.8169C827.116,-121.549 839.2997,-120.2224 851.1214,-118.9352"/>
<polygon fill="#191970" stroke="#191970" points="851.832,-122.3786 861.3943,-117.8167 851.0742,-115.4197 851.832,-122.3786"/>
</g>
<!-- Node52&#45;&gt;Node42 -->
<g id="edge22" class="edge">
<title>Node52&#45;&gt;Node42</title>
<path fill="none" stroke="#191970" d="M861.4848,-106.9672C846.2801,-106.1498 830.0614,-105.4142 815,-105 756.7998,-103.3994 742.0346,-100.3293 684,-105 603.6669,-111.4653 584.3901,-120.1283 505,-134 487.8132,-137.003 469.176,-140.4292 452.1275,-143.6306"/>
<polygon fill="#191970" stroke="#191970" points="451.4742,-140.1921 442.2961,-145.4847 452.7715,-147.0708 451.4742,-140.1921"/>
</g>
<!-- Node53&#45;&gt;Node42 -->
<g id="edge24" class="edge">
<title>Node53&#45;&gt;Node42</title>
<path fill="none" stroke="#191970" d="M850.8395,-420.0807C802.2273,-425.2173 737.7051,-426.4034 684,-408 551.6454,-362.6454 441.4504,-222.7268 405.4442,-172.8712"/>
<polygon fill="#191970" stroke="#191970" points="408.2456,-170.7713 399.5957,-164.6533 402.5424,-174.8301 408.2456,-170.7713"/>
</g>
<!-- Node53&#45;&gt;Node47 -->
<g id="edge25" class="edge">
<title>Node53&#45;&gt;Node47</title>
<path fill="none" stroke="#191970" d="M997.1733,-411.1643C1051.689,-411.5292 1127.3777,-407.7862 1191,-389 1219.8224,-380.4894 1249.51,-363.5084 1270.6098,-349.7771"/>
<polygon fill="#191970" stroke="#191970" points="1272.7147,-352.5805 1279.0992,-344.1254 1268.8356,-346.7536 1272.7147,-352.5805"/>
</g>
<!-- Node53&#45;&gt;Node49 -->
<g id="edge26" class="edge">
<title>Node53&#45;&gt;Node49</title>
<path fill="none" stroke="#191970" d="M988.1731,-392.9808C1004.1172,-389.2492 1021.3385,-385.2186 1037.7227,-381.384"/>
<polygon fill="#191970" stroke="#191970" points="1038.8579,-384.713 1047.7971,-379.0262 1037.2626,-377.8972 1038.8579,-384.713"/>
</g>
<!-- Node54&#45;&gt;Node42 -->
<g id="edge28" class="edge">
<title>Node54&#45;&gt;Node42</title>
<path fill="none" stroke="#191970" d="M561.2992,-19.5979C546.1247,-25.0941 522.5934,-31.6255 505,-43 464.7892,-68.9972 429.3078,-112.6828 409.5438,-137.3298"/>
<polygon fill="#191970" stroke="#191970" points="406.7608,-135.2056 403.2265,-145.1936 412.2179,-139.5896 406.7608,-135.2056"/>
</g>
<!-- Node54&#45;&gt;Node48 -->
<g id="edge29" class="edge">
<title>Node54&#45;&gt;Node48</title>
<path fill="none" stroke="#191970" d="M648.0446,-10C718.3016,-10 828.528,-10 924,-10 924,-10 924,-10 1112,-10 1240.6726,-10 1386.3973,-67.2176 1447.989,-94.2126"/>
<polygon fill="#191970" stroke="#191970" points="1446.9159,-97.5655 1457.4758,-98.4249 1449.7566,-91.1678 1446.9159,-97.5655"/>
</g>
<!-- Node55&#45;&gt;Node42 -->
<g id="edge31" class="edge">
<title>Node55&#45;&gt;Node42</title>
<path fill="none" stroke="#191970" d="M281.0056,-169.1196C289.6032,-168.0357 298.5501,-166.9077 307.4731,-165.7828"/>
<polygon fill="#191970" stroke="#191970" points="308.0336,-169.2399 317.5173,-164.5164 307.158,-162.2949 308.0336,-169.2399"/>
</g>
</g>
</svg>
