<?xml version="1.0" encoding="UTF-8" standalone="no"?>
<!DOCTYPE svg PUBLIC "-//W3C//DTD SVG 1.1//EN"
 "http://www.w3.org/Graphics/SVG/1.1/DTD/svg11.dtd">
<!-- Generated by graphviz version 2.40.1 (20161225.0304)
 -->
<!-- Title: getGroupFileId Pages: 1 -->
<svg width="1052pt" height="148pt"
 viewBox="0.00 0.00 1052.00 147.50" xmlns="http://www.w3.org/2000/svg" xmlns:xlink="http://www.w3.org/1999/xlink">
<g id="graph0" class="graph" transform="scale(1 1) rotate(0) translate(4 143.5)">
<title>getGroupFileId</title>
<polygon fill="#ffffff" stroke="transparent" points="-4,4 -4,-143.5 1048,-143.5 1048,4 -4,4"/>
<!-- Node40 -->
<g id="node1" class="node">
<title>Node40</title>
<polygon fill="#bfbfbf" stroke="#000000" points="0,-44 0,-63 80,-63 80,-44 0,-44"/>
<text text-anchor="middle" x="40" y="-51" font-family="Helvetica,sans-Serif" font-size="10.00" fill="#000000">getGroupFileId</text>
</g>
<!-- Node41 -->
<g id="node2" class="node">
<title>Node41</title>
<g id="a_node2"><a xlink:href="classSNN.html#a14317186d53aeff564b126a41a333d3c" target="_top" xlink:title="access group status (currently the concentration of neuromodulator) ">
<polygon fill="#ffffff" stroke="#000000" points="116,-44 116,-63 248,-63 248,-44 116,-44"/>
<text text-anchor="middle" x="182" y="-51" font-family="Helvetica,sans-Serif" font-size="10.00" fill="#000000">SNN::updateGroupMonitor</text>
</a>
</g>
</g>
<!-- Node40&#45;&gt;Node41 -->
<g id="edge1" class="edge">
<title>Node40&#45;&gt;Node41</title>
<path fill="none" stroke="#191970" d="M90.459,-53.5C98.6686,-53.5 107.2791,-53.5 115.7972,-53.5"/>
<polygon fill="#191970" stroke="#191970" points="90.3117,-50.0001 80.3117,-53.5 90.3116,-57.0001 90.3117,-50.0001"/>
</g>
<!-- Node42 -->
<g id="node3" class="node">
<title>Node42</title>
<g id="a_node3"><a xlink:href="classGroupMonitorCore.html#ab91616c118b701c2afd9136393d1f19b" target="_top" xlink:title="starts recording group data ">
<polygon fill="#ffffff" stroke="#000000" points="291.5,-82 291.5,-101 371.5,-101 371.5,-82 291.5,-82"/>
<text text-anchor="middle" x="331.5" y="-89" font-family="Helvetica,sans-Serif" font-size="10.00" fill="#000000">startRecording</text>
</a>
</g>
</g>
<!-- Node41&#45;&gt;Node42 -->
<g id="edge2" class="edge">
<title>Node41&#45;&gt;Node42</title>
<path fill="none" stroke="#191970" d="M229.6516,-65.6121C250.4726,-70.9044 274.5377,-77.0213 294.0461,-81.9799"/>
<polygon fill="#191970" stroke="#191970" points="230.2792,-62.1604 219.7252,-63.089 228.5547,-68.9447 230.2792,-62.1604"/>
</g>
<!-- Node46 -->
<g id="node7" class="node">
<title>Node46</title>
<g id="a_node7"><a xlink:href="classGroupMonitorCore.html#a25e0e98dd4519eaaa6b258f0dcb91ac7" target="_top" xlink:title="stops recording group data ">
<polygon fill="#ffffff" stroke="#000000" points="291.5,-44 291.5,-63 371.5,-63 371.5,-44 291.5,-44"/>
<text text-anchor="middle" x="331.5" y="-51" font-family="Helvetica,sans-Serif" font-size="10.00" fill="#000000">stopRecording</text>
</a>
</g>
</g>
<!-- Node41&#45;&gt;Node46 -->
<g id="edge6" class="edge">
<title>Node41&#45;&gt;Node46</title>
<path fill="none" stroke="#191970" d="M258.0467,-53.5C269.4888,-53.5 280.8903,-53.5 291.1786,-53.5"/>
<polygon fill="#191970" stroke="#191970" points="258.0081,-50.0001 248.0081,-53.5 258.008,-57.0001 258.0081,-50.0001"/>
</g>
<!-- Node48 -->
<g id="node9" class="node">
<title>Node48</title>
<g id="a_node9"><a xlink:href="classSNN.html#a3df37c7539f784fe7a939c5da922f41b" target="_top" xlink:title="run the simulation for n sec ">
<polygon fill="#ffffff" stroke="#000000" points="284,-6 284,-25 379,-25 379,-6 284,-6"/>
<text text-anchor="middle" x="331.5" y="-13" font-family="Helvetica,sans-Serif" font-size="10.00" fill="#000000">SNN::runNetwork</text>
</a>
</g>
</g>
<!-- Node41&#45;&gt;Node48 -->
<g id="edge9" class="edge">
<title>Node41&#45;&gt;Node48</title>
<path fill="none" stroke="#191970" d="M229.6516,-41.3879C250.4726,-36.0956 274.5377,-29.9787 294.0461,-25.0201"/>
<polygon fill="#191970" stroke="#191970" points="228.5547,-38.0553 219.7252,-43.911 230.2792,-44.8396 228.5547,-38.0553"/>
</g>
<!-- Node43 -->
<g id="node4" class="node">
<title>Node43</title>
<g id="a_node4"><a xlink:href="classGroupMonitor.html#ab91616c118b701c2afd9136393d1f19b" target="_top" xlink:title="Starts a new recording period. ">
<polygon fill="#ffffff" stroke="#000000" points="415,-120 415,-139 560,-139 560,-120 415,-120"/>
<text text-anchor="middle" x="487.5" y="-127" font-family="Helvetica,sans-Serif" font-size="10.00" fill="#000000">GroupMonitor::startRecording</text>
</a>
</g>
</g>
<!-- Node42&#45;&gt;Node43 -->
<g id="edge3" class="edge">
<title>Node42&#45;&gt;Node43</title>
<path fill="none" stroke="#191970" d="M380.6317,-103.468C402.4927,-108.7931 427.8761,-114.9762 448.4177,-119.9799"/>
<polygon fill="#191970" stroke="#191970" points="381.4097,-100.0552 370.8654,-101.089 379.7529,-106.8563 381.4097,-100.0552"/>
</g>
<!-- Node44 -->
<g id="node5" class="node">
<title>Node44</title>
<g id="a_node5"><a xlink:href="classGroupMonitorCore.html#a7ac2c997b5281ea2f2bc00cc9706d37c" target="_top" xlink:title="sets status of PersistentData mode ">
<polygon fill="#ffffff" stroke="#000000" points="440,-82 440,-101 535,-101 535,-82 440,-82"/>
<text text-anchor="middle" x="487.5" y="-89" font-family="Helvetica,sans-Serif" font-size="10.00" fill="#000000">setPersistentData</text>
</a>
</g>
</g>
<!-- Node42&#45;&gt;Node44 -->
<g id="edge4" class="edge">
<title>Node42&#45;&gt;Node44</title>
<path fill="none" stroke="#191970" d="M381.7652,-91.5C400.4398,-91.5 421.5529,-91.5 439.9749,-91.5"/>
<polygon fill="#191970" stroke="#191970" points="381.6739,-88.0001 371.6739,-91.5 381.6738,-95.0001 381.6739,-88.0001"/>
</g>
<!-- Node45 -->
<g id="node6" class="node">
<title>Node45</title>
<g id="a_node6"><a xlink:href="classGroupMonitor.html#a7ac2c997b5281ea2f2bc00cc9706d37c" target="_top" xlink:title="Sets PersistentMode either on (true) or off (false) ">
<polygon fill="#ffffff" stroke="#000000" points="596,-82 596,-101 756,-101 756,-82 596,-82"/>
<text text-anchor="middle" x="676" y="-89" font-family="Helvetica,sans-Serif" font-size="10.00" fill="#000000">GroupMonitor::setPersistentData</text>
</a>
</g>
</g>
<!-- Node44&#45;&gt;Node45 -->
<g id="edge5" class="edge">
<title>Node44&#45;&gt;Node45</title>
<path fill="none" stroke="#191970" d="M545.2874,-91.5C561.238,-91.5 578.836,-91.5 595.8113,-91.5"/>
<polygon fill="#191970" stroke="#191970" points="545.0665,-88.0001 535.0665,-91.5 545.0665,-95.0001 545.0665,-88.0001"/>
</g>
<!-- Node46&#45;&gt;Node44 -->
<g id="edge8" class="edge">
<title>Node46&#45;&gt;Node44</title>
<path fill="none" stroke="#191970" d="M380.6317,-65.468C402.4927,-70.7931 427.8761,-76.9762 448.4177,-81.9799"/>
<polygon fill="#191970" stroke="#191970" points="381.4097,-62.0552 370.8654,-63.089 379.7529,-68.8563 381.4097,-62.0552"/>
</g>
<!-- Node47 -->
<g id="node8" class="node">
<title>Node47</title>
<g id="a_node8"><a xlink:href="classGroupMonitor.html#a25e0e98dd4519eaaa6b258f0dcb91ac7" target="_top" xlink:title="Ends a recording period. ">
<polygon fill="#ffffff" stroke="#000000" points="415.5,-44 415.5,-63 559.5,-63 559.5,-44 415.5,-44"/>
<text text-anchor="middle" x="487.5" y="-51" font-family="Helvetica,sans-Serif" font-size="10.00" fill="#000000">GroupMonitor::stopRecording</text>
</a>
</g>
</g>
<!-- Node46&#45;&gt;Node47 -->
<g id="edge7" class="edge">
<title>Node46&#45;&gt;Node47</title>
<path fill="none" stroke="#191970" d="M381.6933,-53.5C392.4358,-53.5 403.9879,-53.5 415.3722,-53.5"/>
<polygon fill="#191970" stroke="#191970" points="381.6739,-50.0001 371.6739,-53.5 381.6738,-57.0001 381.6739,-50.0001"/>
</g>
<!-- Node49 -->
<g id="node10" class="node">
<title>Node49</title>
<g id="a_node10"><a xlink:href="classCARLsim_1_1Impl.html#a749f370debe5eec8661cf9ca1b1bb4c0" target="_top" xlink:title="CARLsim::Impl::runNetwork">
<polygon fill="#ffffff" stroke="#000000" points="417.5,-6 417.5,-25 557.5,-25 557.5,-6 417.5,-6"/>
<text text-anchor="middle" x="487.5" y="-13" font-family="Helvetica,sans-Serif" font-size="10.00" fill="#000000">CARLsim::Impl::runNetwork</text>
</a>
</g>
</g>
<!-- Node48&#45;&gt;Node49 -->
<g id="edge10" class="edge">
<title>Node48&#45;&gt;Node49</title>
<path fill="none" stroke="#191970" d="M389.3048,-15.5C398.4732,-15.5 408.0415,-15.5 417.4536,-15.5"/>
<polygon fill="#191970" stroke="#191970" points="389.1528,-12.0001 379.1528,-15.5 389.1528,-19.0001 389.1528,-12.0001"/>
</g>
<!-- Node50 -->
<g id="node11" class="node">
<title>Node50</title>
<g id="a_node11"><a xlink:href="classCARLsim.html#aafb2d44405c96aafe089f96ff867018d" target="_top" xlink:title="run the simulation for time=(nSec*seconds + nMsec*milliseconds) ">
<polygon fill="#ffffff" stroke="#000000" points="618,-6 618,-25 734,-25 734,-6 618,-6"/>
<text text-anchor="middle" x="676" y="-13" font-family="Helvetica,sans-Serif" font-size="10.00" fill="#000000">CARLsim::runNetwork</text>
</a>
</g>
</g>
<!-- Node49&#45;&gt;Node50 -->
<g id="edge11" class="edge">
<title>Node49&#45;&gt;Node50</title>
<path fill="none" stroke="#191970" d="M568.0062,-15.5C584.7275,-15.5 602.0386,-15.5 617.773,-15.5"/>
<polygon fill="#191970" stroke="#191970" points="567.6905,-12.0001 557.6904,-15.5 567.6904,-19.0001 567.6905,-12.0001"/>
</g>
<!-- Node51 -->
<g id="node12" class="node">
<title>Node51</title>
<g id="a_node12"><a xlink:href="classSimpleWeightTuner_1_1Impl.html#a312d84bfa66a5036bb52a4c39db6fa6c" target="_top" xlink:title="SimpleWeightTuner::\lImpl::iterate">
<polygon fill="#ffffff" stroke="#000000" points="792,-.5 792,-30.5 900,-30.5 900,-.5 792,-.5"/>
<text text-anchor="start" x="800" y="-18.5" font-family="Helvetica,sans-Serif" font-size="10.00" fill="#000000">SimpleWeightTuner::</text>
<text text-anchor="middle" x="846" y="-7.5" font-family="Helvetica,sans-Serif" font-size="10.00" fill="#000000">Impl::iterate</text>
</a>
</g>
</g>
<!-- Node50&#45;&gt;Node51 -->
<g id="edge12" class="edge">
<title>Node50&#45;&gt;Node51</title>
<path fill="none" stroke="#191970" d="M744.3047,-15.5C760.1556,-15.5 776.8128,-15.5 791.9527,-15.5"/>
<polygon fill="#191970" stroke="#191970" points="744.0289,-12.0001 734.0289,-15.5 744.0288,-19.0001 744.0289,-12.0001"/>
</g>
<!-- Node52 -->
<g id="node13" class="node">
<title>Node52</title>
<g id="a_node13"><a xlink:href="classSimpleWeightTuner.html#a0df985e3ff7a27edc1e2e3fcc8261843" target="_top" xlink:title="Performs an iteration step of the tuning algorithm. ">
<polygon fill="#ffffff" stroke="#000000" points="936,-.5 936,-30.5 1044,-30.5 1044,-.5 936,-.5"/>
<text text-anchor="start" x="944" y="-18.5" font-family="Helvetica,sans-Serif" font-size="10.00" fill="#000000">SimpleWeightTuner::</text>
<text text-anchor="middle" x="990" y="-7.5" font-family="Helvetica,sans-Serif" font-size="10.00" fill="#000000">iterate</text>
</a>
</g>
</g>
<!-- Node51&#45;&gt;Node52 -->
<g id="edge13" class="edge">
<title>Node51&#45;&gt;Node52</title>
<path fill="none" stroke="#191970" d="M910.2702,-15.5C918.7504,-15.5 927.3754,-15.5 935.6672,-15.5"/>
<polygon fill="#191970" stroke="#191970" points="910.03,-12.0001 900.03,-15.5 910.0299,-19.0001 910.03,-12.0001"/>
</g>
</g>
</svg>
