<?xml version="1.0" encoding="UTF-8" standalone="no"?>
<!DOCTYPE svg PUBLIC "-//W3C//DTD SVG 1.1//EN"
 "http://www.w3.org/Graphics/SVG/1.1/DTD/svg11.dtd">
<!-- Generated by graphviz version 2.40.1 (20161225.0304)
 -->
<!-- Title: getUpdateTimeIntervalSec Pages: 1 -->
<svg width="1079pt" height="39pt"
 viewBox="0.00 0.00 1079.00 39.00" xmlns="http://www.w3.org/2000/svg" xmlns:xlink="http://www.w3.org/1999/xlink">
<g id="graph0" class="graph" transform="scale(1 1) rotate(0) translate(4 35)">
<title>getUpdateTimeIntervalSec</title>
<polygon fill="#ffffff" stroke="transparent" points="-4,4 -4,-35 1075,-35 1075,4 -4,4"/>
<!-- Node234 -->
<g id="node1" class="node">
<title>Node234</title>
<polygon fill="#bfbfbf" stroke="#000000" points="0,-6 0,-25 133,-25 133,-6 0,-6"/>
<text text-anchor="middle" x="66.5" y="-13" font-family="Helvetica,sans-Serif" font-size="10.00" fill="#000000">getUpdateTimeIntervalSec</text>
</g>
<!-- Node235 -->
<g id="node2" class="node">
<title>Node235</title>
<g id="a_node2"><a xlink:href="classSNN.html#a68862cb4e6c749219c20c38aeab06986" target="_top" xlink:title="polls connection weights ">
<polygon fill="#ffffff" stroke="#000000" points="169,-6 169,-25 324,-25 324,-6 169,-6"/>
<text text-anchor="middle" x="246.5" y="-13" font-family="Helvetica,sans-Serif" font-size="10.00" fill="#000000">SNN::updateConnectionMonitor</text>
</a>
</g>
</g>
<!-- Node234&#45;&gt;Node235 -->
<g id="edge1" class="edge">
<title>Node234&#45;&gt;Node235</title>
<path fill="none" stroke="#191970" d="M143.2083,-15.5C151.6475,-15.5 160.2461,-15.5 168.6984,-15.5"/>
<polygon fill="#191970" stroke="#191970" points="143.014,-12.0001 133.0139,-15.5 143.0139,-19.0001 143.014,-12.0001"/>
</g>
<!-- Node236 -->
<g id="node3" class="node">
<title>Node236</title>
<g id="a_node3"><a xlink:href="classSNN.html#a3df37c7539f784fe7a939c5da922f41b" target="_top" xlink:title="run the simulation for n sec ">
<polygon fill="#ffffff" stroke="#000000" points="360,-6 360,-25 455,-25 455,-6 360,-6"/>
<text text-anchor="middle" x="407.5" y="-13" font-family="Helvetica,sans-Serif" font-size="10.00" fill="#000000">SNN::runNetwork</text>
</a>
</g>
</g>
<!-- Node235&#45;&gt;Node236 -->
<g id="edge2" class="edge">
<title>Node235&#45;&gt;Node236</title>
<path fill="none" stroke="#191970" d="M334.1932,-15.5C343.0469,-15.5 351.7837,-15.5 359.9704,-15.5"/>
<polygon fill="#191970" stroke="#191970" points="334.1705,-12.0001 324.1704,-15.5 334.1704,-19.0001 334.1705,-12.0001"/>
</g>
<!-- Node237 -->
<g id="node4" class="node">
<title>Node237</title>
<g id="a_node4"><a xlink:href="classCARLsim_1_1Impl.html#a749f370debe5eec8661cf9ca1b1bb4c0" target="_top" xlink:title="CARLsim::Impl::runNetwork">
<polygon fill="#ffffff" stroke="#000000" points="491,-6 491,-25 631,-25 631,-6 491,-6"/>
<text text-anchor="middle" x="561" y="-13" font-family="Helvetica,sans-Serif" font-size="10.00" fill="#000000">CARLsim::Impl::runNetwork</text>
</a>
</g>
</g>
<!-- Node236&#45;&gt;Node237 -->
<g id="edge3" class="edge">
<title>Node236&#45;&gt;Node237</title>
<path fill="none" stroke="#191970" d="M465.4873,-15.5C473.7425,-15.5 482.3063,-15.5 490.7638,-15.5"/>
<polygon fill="#191970" stroke="#191970" points="465.227,-12.0001 455.2269,-15.5 465.2269,-19.0001 465.227,-12.0001"/>
</g>
<!-- Node238 -->
<g id="node5" class="node">
<title>Node238</title>
<g id="a_node5"><a xlink:href="classCARLsim.html#aafb2d44405c96aafe089f96ff867018d" target="_top" xlink:title="run the simulation for time=(nSec*seconds + nMsec*milliseconds) ">
<polygon fill="#ffffff" stroke="#000000" points="667,-6 667,-25 783,-25 783,-6 667,-6"/>
<text text-anchor="middle" x="725" y="-13" font-family="Helvetica,sans-Serif" font-size="10.00" fill="#000000">CARLsim::runNetwork</text>
</a>
</g>
</g>
<!-- Node237&#45;&gt;Node238 -->
<g id="edge4" class="edge">
<title>Node237&#45;&gt;Node238</title>
<path fill="none" stroke="#191970" d="M641.1489,-15.5C649.8022,-15.5 658.483,-15.5 666.8055,-15.5"/>
<polygon fill="#191970" stroke="#191970" points="641.0265,-12.0001 631.0265,-15.5 641.0264,-19.0001 641.0265,-12.0001"/>
</g>
<!-- Node239 -->
<g id="node6" class="node">
<title>Node239</title>
<g id="a_node6"><a xlink:href="classSimpleWeightTuner_1_1Impl.html#a312d84bfa66a5036bb52a4c39db6fa6c" target="_top" xlink:title="SimpleWeightTuner::\lImpl::iterate">
<polygon fill="#ffffff" stroke="#000000" points="819,-.5 819,-30.5 927,-30.5 927,-.5 819,-.5"/>
<text text-anchor="start" x="827" y="-18.5" font-family="Helvetica,sans-Serif" font-size="10.00" fill="#000000">SimpleWeightTuner::</text>
<text text-anchor="middle" x="873" y="-7.5" font-family="Helvetica,sans-Serif" font-size="10.00" fill="#000000">Impl::iterate</text>
</a>
</g>
</g>
<!-- Node238&#45;&gt;Node239 -->
<g id="edge5" class="edge">
<title>Node238&#45;&gt;Node239</title>
<path fill="none" stroke="#191970" d="M793.1513,-15.5C801.8066,-15.5 810.5692,-15.5 818.9617,-15.5"/>
<polygon fill="#191970" stroke="#191970" points="793.0688,-12.0001 783.0687,-15.5 793.0687,-19.0001 793.0688,-12.0001"/>
</g>
<!-- Node240 -->
<g id="node7" class="node">
<title>Node240</title>
<g id="a_node7"><a xlink:href="classSimpleWeightTuner.html#a0df985e3ff7a27edc1e2e3fcc8261843" target="_top" xlink:title="Performs an iteration step of the tuning algorithm. ">
<polygon fill="#ffffff" stroke="#000000" points="963,-.5 963,-30.5 1071,-30.5 1071,-.5 963,-.5"/>
<text text-anchor="start" x="971" y="-18.5" font-family="Helvetica,sans-Serif" font-size="10.00" fill="#000000">SimpleWeightTuner::</text>
<text text-anchor="middle" x="1017" y="-7.5" font-family="Helvetica,sans-Serif" font-size="10.00" fill="#000000">iterate</text>
</a>
</g>
</g>
<!-- Node239&#45;&gt;Node240 -->
<g id="edge6" class="edge">
<title>Node239&#45;&gt;Node240</title>
<path fill="none" stroke="#191970" d="M937.2702,-15.5C945.7504,-15.5 954.3754,-15.5 962.6672,-15.5"/>
<polygon fill="#191970" stroke="#191970" points="937.03,-12.0001 927.03,-15.5 937.0299,-19.0001 937.03,-12.0001"/>
</g>
</g>
</svg>
