<?xml version="1.0" encoding="UTF-8" standalone="no"?>
<!DOCTYPE svg PUBLIC "-//W3C//DTD SVG 1.1//EN"
 "http://www.w3.org/Graphics/SVG/1.1/DTD/svg11.dtd">
<!-- Generated by graphviz version 2.40.1 (20161225.0304)
 -->
<!-- Title: loadSimulation Pages: 1 -->
<svg width="430pt" height="66pt"
 viewBox="0.00 0.00 430.00 66.00" xmlns="http://www.w3.org/2000/svg" xmlns:xlink="http://www.w3.org/1999/xlink">
<g id="graph0" class="graph" transform="scale(1 1) rotate(0) translate(4 62)">
<title>loadSimulation</title>
<polygon fill="#ffffff" stroke="transparent" points="-4,4 -4,-62 426,-62 426,4 -4,4"/>
<!-- Node425 -->
<g id="node1" class="node">
<title>Node425</title>
<polygon fill="#bfbfbf" stroke="#000000" points="0,-19.5 0,-38.5 80,-38.5 80,-19.5 0,-19.5"/>
<text text-anchor="middle" x="40" y="-26.5" font-family="Helvetica,sans-Serif" font-size="10.00" fill="#000000">loadSimulation</text>
</g>
<!-- Node426 -->
<g id="node2" class="node">
<title>Node426</title>
<g id="a_node2"><a xlink:href="classCARLsim_1_1Impl.html#aeebb0912ac3497ef828e666805371722" target="_top" xlink:title="CARLsim::Impl::loadSimulation">
<polygon fill="#ffffff" stroke="#000000" points="116,-19.5 116,-38.5 270,-38.5 270,-19.5 116,-19.5"/>
<text text-anchor="middle" x="193" y="-26.5" font-family="Helvetica,sans-Serif" font-size="10.00" fill="#000000">CARLsim::Impl::loadSimulation</text>
</a>
</g>
</g>
<!-- Node425&#45;&gt;Node426 -->
<g id="edge1" class="edge">
<title>Node425&#45;&gt;Node426</title>
<path fill="none" stroke="#191970" d="M80.1989,-29C88.1756,-29 96.8378,-29 105.6972,-29"/>
<polygon fill="#191970" stroke="#191970" points="105.7576,-32.5001 115.7576,-29 105.7576,-25.5001 105.7576,-32.5001"/>
</g>
<!-- Node427 -->
<g id="node3" class="node">
<title>Node427</title>
<g id="a_node3"><a xlink:href="classUserErrors.html#a4bbedc6c0817d5e59e74e450bf00472c" target="_top" xlink:title="simple wrapper for assert statement ">
<polygon fill="#ffffff" stroke="#000000" points="306,-38.5 306,-57.5 422,-57.5 422,-38.5 306,-38.5"/>
<text text-anchor="middle" x="364" y="-45.5" font-family="Helvetica,sans-Serif" font-size="10.00" fill="#000000">UserErrors::assertTrue</text>
</a>
</g>
</g>
<!-- Node426&#45;&gt;Node427 -->
<g id="edge2" class="edge">
<title>Node426&#45;&gt;Node427</title>
<path fill="none" stroke="#191970" d="M270.4948,-37.6105C278.9761,-38.5529 287.5633,-39.507 295.9188,-40.4354"/>
<polygon fill="#191970" stroke="#191970" points="295.6476,-43.9267 305.973,-41.5526 296.4207,-36.9696 295.6476,-43.9267"/>
</g>
<!-- Node428 -->
<g id="node4" class="node">
<title>Node428</title>
<g id="a_node4"><a xlink:href="classSNN.html#aeebb0912ac3497ef828e666805371722" target="_top" xlink:title="SNN::loadSimulation">
<polygon fill="#ffffff" stroke="#000000" points="310,-.5 310,-19.5 418,-19.5 418,-.5 310,-.5"/>
<text text-anchor="middle" x="364" y="-7.5" font-family="Helvetica,sans-Serif" font-size="10.00" fill="#000000">SNN::loadSimulation</text>
</a>
</g>
</g>
<!-- Node426&#45;&gt;Node428 -->
<g id="edge3" class="edge">
<title>Node426&#45;&gt;Node428</title>
<path fill="none" stroke="#191970" d="M270.4948,-20.3895C280.2291,-19.3079 290.103,-18.2108 299.6059,-17.1549"/>
<polygon fill="#191970" stroke="#191970" points="300.1954,-20.611 309.7477,-16.028 299.4223,-13.6538 300.1954,-20.611"/>
</g>
</g>
</svg>
