<?xml version="1.0" encoding="UTF-8" standalone="no"?>
<!DOCTYPE svg PUBLIC "-//W3C//DTD SVG 1.1//EN"
 "http://www.w3.org/Graphics/SVG/1.1/DTD/svg11.dtd">
<!-- Generated by graphviz version 2.40.1 (20161225.0304)
 -->
<!-- Title: pushNeuronState Pages: 1 -->
<!--zoomable 392 -->
<svg id="main" version="1.1" xmlns="http://www.w3.org/2000/svg" xmlns:xlink="http://www.w3.org/1999/xlink" xml:space="preserve" onload="init(evt)">
<style type="text/css"><![CDATA[
.edge:hover path { stroke: red; }
.edge:hover polygon { stroke: red; fill: red; }
]]></style>
<script type="text/javascript"><![CDATA[
var edges = document.getElementsByTagName('g');
if (edges && edges.length) {
  for (var i=0;i<edges.length;i++) {
    if (edges[i].id.substr(0,4)=='edge') {
      edges[i].setAttribute('class','edge');
    }
  }
}
]]></script>
        <defs>
                <circle id="rim" cx="0" cy="0" r="7"/>
                <circle id="rim2" cx="0" cy="0" r="3.5"/>
                <g id="zoomPlus">
                        <use xlink:href="#rim" fill="#404040">
                                <set attributeName="fill" to="#808080" begin="zoomplus.mouseover" end="zoomplus.mouseout"/>
                        </use>
                        <path d="M-4,0h8M0,-4v8" fill="none" stroke="white" stroke-width="1.5" pointer-events="none"/>
                </g>
                <g id="zoomMin">
                        <use xlink:href="#rim" fill="#404040">
                                <set attributeName="fill" to="#808080" begin="zoomminus.mouseover" end="zoomminus.mouseout"/>
                        </use>
                        <path d="M-4,0h8" fill="none" stroke="white" stroke-width="1.5" pointer-events="none"/>
                </g>
                <g id="dirArrow">
                        <path fill="none" stroke="white" stroke-width="1.5" d="M0,-3.0v7 M-2.5,-0.5L0,-3.0L2.5,-0.5"/>
                </g>
               <g id="resetDef">
                       <use xlink:href="#rim2" fill="#404040">
                               <set attributeName="fill" to="#808080" begin="reset.mouseover" end="reset.mouseout"/>
                       </use>
               </g>
        </defs>

<script type="text/javascript">
var viewWidth = 979;
var viewHeight = 392;
var sectionId = 'dynsection-20';
</script>
<script xlink:href="svgpan.js"/>
<svg id="graph" class="graph">
<g id="viewport">
<title>pushNeuronState</title>
<polygon fill="#ffffff" stroke="transparent" points="-4,4 -4,-387.7403 975,-387.7403 975,4 -4,4"/>
<!-- Node458 -->
<g id="node1" class="node">
<title>Node458</title>
<polygon fill="#bfbfbf" stroke="#000000" points="0,-174.2403 0,-193.2403 92,-193.2403 92,-174.2403 0,-174.2403"/>
<text text-anchor="middle" x="46" y="-181.2403" font-family="Helvetica,sans-Serif" font-size="10.00" fill="#000000">pushNeuronState</text>
</g>
<!-- Node459 -->
<g id="node2" class="node">
<title>Node459</title>
<g id="a_node2"><a xlink:href="classNeuronMonitorCore.html#a3a3ffdb35b09328d22e5d72503ed1f55" target="_top" xlink:title="returns recording status ">
<polygon fill="#ffffff" stroke="#000000" points="128,-174.2403 128,-193.2403 196,-193.2403 196,-174.2403 128,-174.2403"/>
<text text-anchor="middle" x="162" y="-181.2403" font-family="Helvetica,sans-Serif" font-size="10.00" fill="#000000">isRecording</text>
</a>
</g>
</g>
<!-- Node458&#45;&gt;Node459 -->
<g id="edge1" class="edge">
<title>Node458&#45;&gt;Node459</title>
<path fill="none" stroke="#191970" d="M92.1796,-177.1165C100.5313,-176.9359 109.2245,-176.9492 117.5262,-177.1562"/>
<polygon fill="#191970" stroke="#191970" points="117.6586,-180.6631 127.7771,-177.5221 117.9084,-173.6675 117.6586,-180.6631"/>
</g>
<!-- Node459&#45;&gt;Node458 -->
<g id="edge2" class="edge">
<title>Node459&#45;&gt;Node458</title>
<path fill="none" stroke="#191970" d="M127.7771,-189.9586C119.7625,-190.3375 111.0154,-190.5139 102.3187,-190.4878"/>
<polygon fill="#191970" stroke="#191970" points="102.2216,-186.9865 92.1796,-190.3642 102.1361,-193.9859 102.2216,-186.9865"/>
</g>
<!-- Node460 -->
<g id="node3" class="node">
<title>Node460</title>
<g id="a_node3"><a xlink:href="classNeuronMonitorCore.html#ab91616c118b701c2afd9136393d1f19b" target="_top" xlink:title="starts recording Neuron state ">
<polygon fill="#ffffff" stroke="#000000" points="235,-174.2403 235,-193.2403 315,-193.2403 315,-174.2403 235,-174.2403"/>
<text text-anchor="middle" x="275" y="-181.2403" font-family="Helvetica,sans-Serif" font-size="10.00" fill="#000000">startRecording</text>
</a>
</g>
</g>
<!-- Node459&#45;&gt;Node460 -->
<g id="edge3" class="edge">
<title>Node459&#45;&gt;Node460</title>
<path fill="none" stroke="#191970" d="M196.2104,-177.4807C205.1787,-177.0655 215.0394,-176.914 224.6591,-177.0261"/>
<polygon fill="#191970" stroke="#191970" points="224.875,-180.5316 234.9492,-177.2513 225.0282,-173.5333 224.875,-180.5316"/>
</g>
<!-- Node461 -->
<g id="node4" class="node">
<title>Node461</title>
<g id="a_node4"><a xlink:href="classNeuronMonitorCore.html#ac8bb3912a3ce86b15842e79d0b421204" target="_top" xlink:title="deletes data from the neuron state vector ">
<polygon fill="#ffffff" stroke="#000000" points="403.5,-250.2403 403.5,-269.2403 441.5,-269.2403 441.5,-250.2403 403.5,-250.2403"/>
<text text-anchor="middle" x="422.5" y="-257.2403" font-family="Helvetica,sans-Serif" font-size="10.00" fill="#000000">clear</text>
</a>
</g>
</g>
<!-- Node459&#45;&gt;Node461 -->
<g id="edge39" class="edge">
<title>Node459&#45;&gt;Node461</title>
<path fill="none" stroke="#191970" d="M196.0558,-188.9447C247.8153,-201.255 345.3652,-229.8172 393.7642,-246.9327"/>
<polygon fill="#191970" stroke="#191970" points="392.7177,-250.2763 403.3118,-250.4012 395.1079,-243.697 392.7177,-250.2763"/>
</g>
<!-- Node480 -->
<g id="node23" class="node">
<title>Node480</title>
<g id="a_node23"><a xlink:href="classNeuronMonitorCore.html#a25e0e98dd4519eaaa6b258f0dcb91ac7" target="_top" xlink:title="stops recording Neuron state ">
<polygon fill="#ffffff" stroke="#000000" points="235,-136.2403 235,-155.2403 315,-155.2403 315,-136.2403 235,-136.2403"/>
<text text-anchor="middle" x="275" y="-143.2403" font-family="Helvetica,sans-Serif" font-size="10.00" fill="#000000">stopRecording</text>
</a>
</g>
</g>
<!-- Node459&#45;&gt;Node480 -->
<g id="edge34" class="edge">
<title>Node459&#45;&gt;Node480</title>
<path fill="none" stroke="#191970" d="M176.7728,-174.0412C189.19,-168.3223 207.6827,-161.4451 225.2842,-155.7524"/>
<polygon fill="#191970" stroke="#191970" points="226.4335,-159.0601 234.9268,-152.7265 224.3376,-152.3812 226.4335,-159.0601"/>
</g>
<!-- Node481 -->
<g id="node24" class="node">
<title>Node481</title>
<g id="a_node24"><a xlink:href="classNeuronMonitorCore.html#a5113f6b476e3e3544ecbffefa313234d" target="_top" xlink:title="sets pointer to Neuron file ">
<polygon fill="#ffffff" stroke="#000000" points="232,-268.2403 232,-287.2403 318,-287.2403 318,-268.2403 232,-268.2403"/>
<text text-anchor="middle" x="275" y="-275.2403" font-family="Helvetica,sans-Serif" font-size="10.00" fill="#000000">setNeuronFileId</text>
</a>
</g>
</g>
<!-- Node459&#45;&gt;Node481 -->
<g id="edge40" class="edge">
<title>Node459&#45;&gt;Node481</title>
<path fill="none" stroke="#191970" d="M176.1663,-193.3271C189.5697,-206.4041 210.7484,-228.6773 232,-244.7403 240.4241,-251.1077 250.7292,-256.9177 259.1392,-262.2368"/>
<polygon fill="#191970" stroke="#191970" points="257.3965,-265.2851 267.6277,-268.0372 261.3458,-259.5056 257.3965,-265.2851"/>
</g>
<!-- Node460&#45;&gt;Node459 -->
<g id="edge4" class="edge">
<title>Node460&#45;&gt;Node459</title>
<path fill="none" stroke="#191970" d="M234.9492,-190.2294C225.6522,-190.5323 215.7042,-190.5715 206.2386,-190.347"/>
<polygon fill="#191970" stroke="#191970" points="206.3255,-186.848 196.2104,-190 206.0833,-193.8438 206.3255,-186.848"/>
</g>
<!-- Node460&#45;&gt;Node461 -->
<g id="edge5" class="edge">
<title>Node460&#45;&gt;Node461</title>
<path fill="none" stroke="#191970" d="M293.7798,-193.4172C301.4465,-197.5731 310.3024,-202.6413 318,-207.7403 334.8985,-218.9343 336.2021,-226.0399 354,-235.7403 366.4847,-242.5449 381.2715,-248.0136 393.9056,-252.0021"/>
<polygon fill="#191970" stroke="#191970" points="392.9072,-255.3566 403.4913,-254.8807 394.9205,-248.6524 392.9072,-255.3566"/>
</g>
<!-- Node462 -->
<g id="node5" class="node">
<title>Node462</title>
<g id="a_node5"><a xlink:href="classSNN.html#a8dd319bdd9a54e38f9254cbec099c30a" target="_top" xlink:title="copy required neuron state values from ??? buffer to ??? buffer ">
<polygon fill="#ffffff" stroke="#000000" points="354,-60.2403 354,-79.2403 491,-79.2403 491,-60.2403 354,-60.2403"/>
<text text-anchor="middle" x="422.5" y="-67.2403" font-family="Helvetica,sans-Serif" font-size="10.00" fill="#000000">SNN::updateNeuronMonitor</text>
</a>
</g>
</g>
<!-- Node460&#45;&gt;Node462 -->
<g id="edge7" class="edge">
<title>Node460&#45;&gt;Node462</title>
<path fill="none" stroke="#191970" d="M300.2672,-174.1971C306.2762,-171.4928 312.5276,-168.3018 318,-164.7403 353.0137,-141.9533 387.7102,-107.4166 407.0018,-86.8642"/>
<polygon fill="#191970" stroke="#191970" points="409.6124,-89.1963 413.8347,-79.4791 404.4742,-84.4424 409.6124,-89.1963"/>
</g>
<!-- Node465 -->
<g id="node8" class="node">
<title>Node465</title>
<g id="a_node8"><a xlink:href="classSNN.html#a424b0cf29d7dba87e4ebf244399acad0" target="_top" xlink:title="SNN::getSimTimeMs">
<polygon fill="#ffffff" stroke="#000000" points="529,-307.2403 529,-326.2403 639,-326.2403 639,-307.2403 529,-307.2403"/>
<text text-anchor="middle" x="584" y="-314.2403" font-family="Helvetica,sans-Serif" font-size="10.00" fill="#000000">SNN::getSimTimeMs</text>
</a>
</g>
</g>
<!-- Node460&#45;&gt;Node465 -->
<g id="edge33" class="edge">
<title>Node460&#45;&gt;Node465</title>
<path fill="none" stroke="#191970" d="M315.2781,-192.2198C368.8709,-203.8682 460.4227,-225.1475 491,-240.7403 521.1229,-256.1015 550.4004,-282.4975 567.8163,-299.7844"/>
<polygon fill="#191970" stroke="#191970" points="565.4307,-302.35 574.9439,-307.0136 570.4154,-297.4354 565.4307,-302.35"/>
</g>
<!-- Node471 -->
<g id="node14" class="node">
<title>Node471</title>
<g id="a_node14"><a xlink:href="classSNN.html#a85facd004ae52ee52e72451b5d874fae" target="_top" xlink:title="SNN::getSimTimeSec">
<polygon fill="#ffffff" stroke="#000000" points="527,-174.2403 527,-193.2403 641,-193.2403 641,-174.2403 527,-174.2403"/>
<text text-anchor="middle" x="584" y="-181.2403" font-family="Helvetica,sans-Serif" font-size="10.00" fill="#000000">SNN::getSimTimeSec</text>
</a>
</g>
</g>
<!-- Node460&#45;&gt;Node471 -->
<g id="edge32" class="edge">
<title>Node460&#45;&gt;Node471</title>
<path fill="none" stroke="#191970" d="M315.0796,-183.7403C366.203,-183.7403 455.3531,-183.7403 516.9111,-183.7403"/>
<polygon fill="#191970" stroke="#191970" points="516.9241,-187.2404 526.924,-183.7403 516.924,-180.2404 516.9241,-187.2404"/>
</g>
<!-- Node461&#45;&gt;Node459 -->
<g id="edge6" class="edge">
<title>Node461&#45;&gt;Node459</title>
<path fill="none" stroke="#191970" d="M403.4849,-257.9193C358.5804,-248.58 245.6894,-215.8962 191.6828,-196.8821"/>
<polygon fill="#191970" stroke="#191970" points="192.6027,-193.4931 182.0085,-193.386 190.2236,-200.0764 192.6027,-193.4931"/>
</g>
<!-- Node462&#45;&gt;Node458 -->
<g id="edge31" class="edge">
<title>Node462&#45;&gt;Node458</title>
<path fill="none" stroke="#191970" d="M353.8793,-70.4405C317.1023,-72.3388 271.3825,-77.1675 232,-88.7403 169.3556,-107.1488 102.8119,-146.6635 68.849,-168.4842"/>
<polygon fill="#191970" stroke="#191970" points="66.6357,-165.7487 60.1641,-174.1373 70.4544,-171.6154 66.6357,-165.7487"/>
</g>
<!-- Node462&#45;&gt;Node459 -->
<g id="edge30" class="edge">
<title>Node462&#45;&gt;Node459</title>
<path fill="none" stroke="#191970" d="M371.4722,-79.292C331.857,-88.0328 276.388,-103.2315 232,-126.7403 212.0435,-137.3097 192.3754,-154.0395 178.9936,-166.6461"/>
<polygon fill="#191970" stroke="#191970" points="176.28,-164.4015 171.5275,-173.8707 181.1477,-169.432 176.28,-164.4015"/>
</g>
<!-- Node463 -->
<g id="node6" class="node">
<title>Node463</title>
<g id="a_node6"><a xlink:href="classNeuronMonitorCore.html#a102f8a26e80c556ee9a2ac503cd38ec9" target="_top" xlink:title="returns timestamp of last NeuronMonitor update ">
<polygon fill="#ffffff" stroke="#000000" points="541,-22.2403 541,-41.2403 627,-41.2403 627,-22.2403 541,-22.2403"/>
<text text-anchor="middle" x="584" y="-29.2403" font-family="Helvetica,sans-Serif" font-size="10.00" fill="#000000">getLastUpdated</text>
</a>
</g>
</g>
<!-- Node462&#45;&gt;Node463 -->
<g id="edge8" class="edge">
<title>Node462&#45;&gt;Node463</title>
<path fill="none" stroke="#191970" d="M463.2533,-60.1513C484.6609,-55.1142 511.0862,-48.8965 533.7525,-43.5633"/>
<polygon fill="#191970" stroke="#191970" points="534.6073,-46.9578 543.5398,-41.2604 533.0039,-40.1439 534.6073,-46.9578"/>
</g>
<!-- Node464 -->
<g id="node7" class="node">
<title>Node464</title>
<g id="a_node7"><a xlink:href="classSNN.html#a5fd2b156623d78138bcb44167eabab78" target="_top" xlink:title="SNN::getSimTime">
<polygon fill="#ffffff" stroke="#000000" points="535.5,-136.2403 535.5,-155.2403 632.5,-155.2403 632.5,-136.2403 535.5,-136.2403"/>
<text text-anchor="middle" x="584" y="-143.2403" font-family="Helvetica,sans-Serif" font-size="10.00" fill="#000000">SNN::getSimTime</text>
</a>
</g>
</g>
<!-- Node462&#45;&gt;Node464 -->
<g id="edge9" class="edge">
<title>Node462&#45;&gt;Node464</title>
<path fill="none" stroke="#191970" d="M458.5719,-79.3373C469.4091,-83.0107 481.0534,-87.7852 491,-93.7403 509.6225,-104.8899 508.293,-115.7331 527,-126.7403 530.5905,-128.853 534.448,-130.7689 538.4017,-132.498"/>
<polygon fill="#191970" stroke="#191970" points="537.1358,-135.7611 547.7216,-136.1983 539.719,-129.2552 537.1358,-135.7611"/>
</g>
<!-- Node462&#45;&gt;Node465 -->
<g id="edge10" class="edge">
<title>Node462&#45;&gt;Node465</title>
<path fill="none" stroke="#191970" d="M435.6992,-79.2814C450.5706,-90.5341 474.7784,-110.4234 491,-131.7403 492.3943,-133.5726 551.1696,-251.0571 574.5503,-297.8303"/>
<polygon fill="#191970" stroke="#191970" points="571.4872,-299.5304 579.0887,-306.9106 577.7486,-296.4009 571.4872,-299.5304"/>
</g>
<!-- Node462&#45;&gt;Node471 -->
<g id="edge19" class="edge">
<title>Node462&#45;&gt;Node471</title>
<path fill="none" stroke="#191970" d="M465.7874,-79.2925C474.8313,-82.7523 483.7954,-87.4308 491,-93.7403 517.6161,-117.0499 500.2069,-141.6344 527,-164.7403 528.9699,-166.4392 531.0969,-167.9873 533.3317,-169.398"/>
<polygon fill="#191970" stroke="#191970" points="531.9055,-172.6031 542.3815,-174.1858 535.179,-166.4156 531.9055,-172.6031"/>
</g>
<!-- Node472 -->
<g id="node15" class="node">
<title>Node472</title>
<g id="a_node15"><a xlink:href="classNeuronMonitorCore.html#a38f87732cc929797d9648e68cd509f1b" target="_top" xlink:title="sets timestamp of last NeuronMonitor update ">
<polygon fill="#ffffff" stroke="#000000" points="541,-98.2403 541,-117.2403 627,-117.2403 627,-98.2403 541,-98.2403"/>
<text text-anchor="middle" x="584" y="-105.2403" font-family="Helvetica,sans-Serif" font-size="10.00" fill="#000000">setLastUpdated</text>
</a>
</g>
</g>
<!-- Node462&#45;&gt;Node472 -->
<g id="edge20" class="edge">
<title>Node462&#45;&gt;Node472</title>
<path fill="none" stroke="#191970" d="M463.2533,-79.3293C484.6609,-84.3664 511.0862,-90.5841 533.7525,-95.9174"/>
<polygon fill="#191970" stroke="#191970" points="533.0039,-99.3368 543.5398,-98.2203 534.6073,-92.5229 533.0039,-99.3368"/>
</g>
<!-- Node479 -->
<g id="node22" class="node">
<title>Node479</title>
<g id="a_node22"><a xlink:href="classNeuronMonitorCore.html#a84e392c48ef98bece7aa0dc7af992360" target="_top" xlink:title="returns a pointer to the neuron state file ">
<polygon fill="#ffffff" stroke="#000000" points="541,-60.2403 541,-79.2403 627,-79.2403 627,-60.2403 541,-60.2403"/>
<text text-anchor="middle" x="584" y="-67.2403" font-family="Helvetica,sans-Serif" font-size="10.00" fill="#000000">getNeuronFileId</text>
</a>
</g>
</g>
<!-- Node462&#45;&gt;Node479 -->
<g id="edge29" class="edge">
<title>Node462&#45;&gt;Node479</title>
<path fill="none" stroke="#191970" d="M491.459,-69.7403C504.5868,-69.7403 518.1396,-69.7403 530.6889,-69.7403"/>
<polygon fill="#191970" stroke="#191970" points="530.963,-73.2404 540.9629,-69.7403 530.9629,-66.2404 530.963,-73.2404"/>
</g>
<!-- Node466 -->
<g id="node9" class="node">
<title>Node466</title>
<g id="a_node9"><a xlink:href="classSNN.html#a866a9c6e2b2630816fc66adda1381655" target="_top" xlink:title="Returns pointer to existing SpikeMonitor object, NULL else. ">
<polygon fill="#ffffff" stroke="#000000" points="691,-288.2403 691,-307.2403 806,-307.2403 806,-288.2403 691,-288.2403"/>
<text text-anchor="middle" x="748.5" y="-295.2403" font-family="Helvetica,sans-Serif" font-size="10.00" fill="#000000">SNN::getSpikeMonitor</text>
</a>
</g>
</g>
<!-- Node465&#45;&gt;Node466 -->
<g id="edge11" class="edge">
<title>Node465&#45;&gt;Node466</title>
<path fill="none" stroke="#191970" d="M639.2337,-310.3608C652.6029,-308.8166 667.0434,-307.1487 680.9095,-305.5471"/>
<polygon fill="#191970" stroke="#191970" points="681.3487,-309.0198 690.881,-304.3954 680.5455,-302.066 681.3487,-309.0198"/>
</g>
<!-- Node468 -->
<g id="node11" class="node">
<title>Node468</title>
<g id="a_node11"><a xlink:href="classSNN.html#ad25000cd1457c9b9869122534ada6fdd" target="_top" xlink:title="SNN::getSpikeMonitorCore">
<polygon fill="#ffffff" stroke="#000000" points="680.5,-250.2403 680.5,-269.2403 816.5,-269.2403 816.5,-250.2403 680.5,-250.2403"/>
<text text-anchor="middle" x="748.5" y="-257.2403" font-family="Helvetica,sans-Serif" font-size="10.00" fill="#000000">SNN::getSpikeMonitorCore</text>
</a>
</g>
</g>
<!-- Node465&#45;&gt;Node468 -->
<g id="edge13" class="edge">
<title>Node465&#45;&gt;Node468</title>
<path fill="none" stroke="#191970" d="M606.5676,-307.1298C629.5055,-297.4322 663.5238,-283.2633 677,-278.7403 684.1118,-276.3534 691.7003,-274.0666 699.1776,-271.9586"/>
<polygon fill="#191970" stroke="#191970" points="700.1741,-275.3146 708.894,-269.2968 698.3246,-268.5633 700.1741,-275.3146"/>
</g>
<!-- Node469 -->
<g id="node12" class="node">
<title>Node469</title>
<g id="a_node12"><a xlink:href="classSNN.html#a0eb87addfa5eebdfee4bd6b927b8945f" target="_top" xlink:title="Returns pointer to existing NeuronMonitor object, NULL else. ">
<polygon fill="#ffffff" stroke="#000000" points="687.5,-364.2403 687.5,-383.2403 809.5,-383.2403 809.5,-364.2403 687.5,-364.2403"/>
<text text-anchor="middle" x="748.5" y="-371.2403" font-family="Helvetica,sans-Serif" font-size="10.00" fill="#000000">SNN::getNeuronMonitor</text>
</a>
</g>
</g>
<!-- Node465&#45;&gt;Node469 -->
<g id="edge15" class="edge">
<title>Node465&#45;&gt;Node469</title>
<path fill="none" stroke="#191970" d="M605.1311,-326.2826C623.7929,-334.49 651.8665,-346.3048 677,-354.7403 684.1118,-357.1273 691.7003,-359.414 699.1776,-361.5221"/>
<polygon fill="#191970" stroke="#191970" points="698.3246,-364.9173 708.894,-364.1838 700.1741,-358.1661 698.3246,-364.9173"/>
</g>
<!-- Node470 -->
<g id="node13" class="node">
<title>Node470</title>
<g id="a_node13"><a xlink:href="classSNN.html#a9aa73fa9478383c4af1eed8387d82db9" target="_top" xlink:title="SNN::getNeuronMonitorCore">
<polygon fill="#ffffff" stroke="#000000" points="677,-326.2403 677,-345.2403 820,-345.2403 820,-326.2403 677,-326.2403"/>
<text text-anchor="middle" x="748.5" y="-333.2403" font-family="Helvetica,sans-Serif" font-size="10.00" fill="#000000">SNN::getNeuronMonitorCore</text>
</a>
</g>
</g>
<!-- Node465&#45;&gt;Node470 -->
<g id="edge17" class="edge">
<title>Node465&#45;&gt;Node470</title>
<path fill="none" stroke="#191970" d="M639.2337,-323.1199C648.076,-324.1412 657.387,-325.2166 666.6904,-326.2912"/>
<polygon fill="#191970" stroke="#191970" points="666.4245,-329.7837 676.7601,-327.4543 667.2278,-322.8299 666.4245,-329.7837"/>
</g>
<!-- Node467 -->
<g id="node10" class="node">
<title>Node467</title>
<g id="a_node10"><a xlink:href="classSNN.html#a292bdee57fec7c77ec4c15ea3f508d60" target="_top" xlink:title="SNN::getNumGroups">
<polygon fill="#ffffff" stroke="#000000" points="858.5,-307.2403 858.5,-326.2403 968.5,-326.2403 968.5,-307.2403 858.5,-307.2403"/>
<text text-anchor="middle" x="913.5" y="-314.2403" font-family="Helvetica,sans-Serif" font-size="10.00" fill="#000000">SNN::getNumGroups</text>
</a>
</g>
</g>
<!-- Node466&#45;&gt;Node467 -->
<g id="edge12" class="edge">
<title>Node466&#45;&gt;Node467</title>
<path fill="none" stroke="#191970" d="M806.209,-304.3856C819.8192,-305.9528 834.4217,-307.6344 848.3353,-309.2365"/>
<polygon fill="#191970" stroke="#191970" points="847.986,-312.7193 858.3208,-310.3864 848.7869,-305.7653 847.986,-312.7193"/>
</g>
<!-- Node468&#45;&gt;Node467 -->
<g id="edge14" class="edge">
<title>Node468&#45;&gt;Node467</title>
<path fill="none" stroke="#191970" d="M788.1016,-269.3098C798.5534,-272.0946 809.7686,-275.317 820,-278.7403 841.3108,-285.8707 864.7356,-295.3939 882.8077,-303.1229"/>
<polygon fill="#191970" stroke="#191970" points="881.6818,-306.4492 892.2496,-307.2056 884.4601,-300.0241 881.6818,-306.4492"/>
</g>
<!-- Node469&#45;&gt;Node467 -->
<g id="edge16" class="edge">
<title>Node469&#45;&gt;Node467</title>
<path fill="none" stroke="#191970" d="M788.1016,-364.1709C798.5534,-361.3861 809.7686,-358.1636 820,-354.7403 841.3108,-347.61 864.7356,-338.0868 882.8077,-330.3578"/>
<polygon fill="#191970" stroke="#191970" points="884.4601,-333.4566 892.2496,-326.2751 881.6818,-327.0315 884.4601,-333.4566"/>
</g>
<!-- Node470&#45;&gt;Node467 -->
<g id="edge18" class="edge">
<title>Node470&#45;&gt;Node467</title>
<path fill="none" stroke="#191970" d="M820.3914,-327.4619C829.6037,-326.4011 838.9953,-325.3197 848.0967,-324.2716"/>
<polygon fill="#191970" stroke="#191970" points="848.69,-327.7265 858.224,-323.1055 847.8892,-320.7725 848.69,-327.7265"/>
</g>
<!-- Node473 -->
<g id="node16" class="node">
<title>Node473</title>
<g id="a_node16"><a xlink:href="classNeuronMonitorCore.html#aaeb6a64ac5d9fd3b7a979f0f12ec87dc" target="_top" xlink:title="returns true if state buffers are close to maxAllowedBufferSize ">
<polygon fill="#ffffff" stroke="#000000" points="716,-98.2403 716,-117.2403 781,-117.2403 781,-98.2403 716,-98.2403"/>
<text text-anchor="middle" x="748.5" y="-105.2403" font-family="Helvetica,sans-Serif" font-size="10.00" fill="#000000">isBufferBig</text>
</a>
</g>
</g>
<!-- Node472&#45;&gt;Node473 -->
<g id="edge21" class="edge">
<title>Node472&#45;&gt;Node473</title>
<path fill="none" stroke="#191970" d="M627.2204,-107.7403C651.4335,-107.7403 681.5212,-107.7403 705.6706,-107.7403"/>
<polygon fill="#191970" stroke="#191970" points="705.9633,-111.2404 715.9632,-107.7403 705.9632,-104.2404 705.9633,-111.2404"/>
</g>
<!-- Node474 -->
<g id="node17" class="node">
<title>Node474</title>
<g id="a_node17"><a xlink:href="classNeuronMonitorCore.html#a30f19d45f562061cc82c04e7289ba956" target="_top" xlink:title="returns the approximate size of the state vectors in bytes ">
<polygon fill="#ffffff" stroke="#000000" points="875.5,-79.2403 875.5,-98.2403 951.5,-98.2403 951.5,-79.2403 875.5,-79.2403"/>
<text text-anchor="middle" x="913.5" y="-86.2403" font-family="Helvetica,sans-Serif" font-size="10.00" fill="#000000">getBufferSize</text>
</a>
</g>
</g>
<!-- Node472&#45;&gt;Node474 -->
<g id="edge23" class="edge">
<title>Node472&#45;&gt;Node474</title>
<path fill="none" stroke="#191970" d="M621.7426,-98.2307C638.5406,-94.4658 658.6368,-90.597 677,-88.7403 741.8893,-82.1796 817.3062,-83.7606 865.2035,-85.9055"/>
<polygon fill="#191970" stroke="#191970" points="865.1328,-89.406 875.2874,-86.3838 865.4645,-82.4139 865.1328,-89.406"/>
</g>
<!-- Node475 -->
<g id="node18" class="node">
<title>Node475</title>
<g id="a_node18"><a xlink:href="classNeuronMonitorCore.html#a3a0e4e77a2b83f5dd0e86aafcf227595" target="_top" xlink:title="returns the total accumulated time ">
<polygon fill="#ffffff" stroke="#000000" points="707,-136.2403 707,-155.2403 790,-155.2403 790,-136.2403 707,-136.2403"/>
<text text-anchor="middle" x="748.5" y="-143.2403" font-family="Helvetica,sans-Serif" font-size="10.00" fill="#000000">getAccumTime</text>
</a>
</g>
</g>
<!-- Node472&#45;&gt;Node475 -->
<g id="edge24" class="edge">
<title>Node472&#45;&gt;Node475</title>
<path fill="none" stroke="#191970" d="M625.5103,-117.3293C647.3156,-122.3664 674.2318,-128.5841 697.3191,-133.9174"/>
<polygon fill="#191970" stroke="#191970" points="696.757,-137.3796 707.2882,-136.2203 698.3326,-130.5593 696.757,-137.3796"/>
</g>
<!-- Node476 -->
<g id="node19" class="node">
<title>Node476</title>
<g id="a_node19"><a xlink:href="classNeuronMonitorCore.html#a4d3c2252230fe74bf03bcc3045ff8972" target="_top" xlink:title="writeNeuronFileHeader">
<polygon fill="#ffffff" stroke="#000000" points="690.5,-193.2403 690.5,-212.2403 806.5,-212.2403 806.5,-193.2403 690.5,-193.2403"/>
<text text-anchor="middle" x="748.5" y="-200.2403" font-family="Helvetica,sans-Serif" font-size="10.00" fill="#000000">writeNeuronFileHeader</text>
</a>
</g>
</g>
<!-- Node472&#45;&gt;Node476 -->
<g id="edge25" class="edge">
<title>Node472&#45;&gt;Node476</title>
<path fill="none" stroke="#191970" d="M621.3915,-117.2661C628.1909,-119.8034 635.0171,-122.9301 641,-126.7403 660.6229,-139.2374 658.486,-150.6525 677,-164.7403 689.2427,-174.0562 704.0846,-182.3516 717.0661,-188.7966"/>
<polygon fill="#191970" stroke="#191970" points="715.5969,-191.9736 726.1261,-193.1506 718.629,-185.6644 715.5969,-191.9736"/>
</g>
<!-- Node478 -->
<g id="node21" class="node">
<title>Node478</title>
<g id="a_node21"><a xlink:href="classNeuronMonitorCore.html#a388f572c62279f839ee138a9afbdeeb5" target="_top" xlink:title="prints neuron states in human&#45;readable format ">
<polygon fill="#ffffff" stroke="#000000" points="731,-3.2403 731,-22.2403 766,-22.2403 766,-3.2403 731,-3.2403"/>
<text text-anchor="middle" x="748.5" y="-10.2403" font-family="Helvetica,sans-Serif" font-size="10.00" fill="#000000">print</text>
</a>
</g>
</g>
<!-- Node472&#45;&gt;Node478 -->
<g id="edge27" class="edge">
<title>Node472&#45;&gt;Node478</title>
<path fill="none" stroke="#191970" d="M620.2784,-98.1983C627.39,-95.6302 634.6169,-92.4962 641,-88.7403 659.707,-77.7331 659.6125,-68.732 677,-55.7403 691.142,-45.1736 708.024,-34.9222 721.8318,-27.0807"/>
<polygon fill="#191970" stroke="#191970" points="723.8,-29.9906 730.8285,-22.0628 720.3902,-23.8772 723.8,-29.9906"/>
</g>
<!-- Node473&#45;&gt;Node474 -->
<g id="edge22" class="edge">
<title>Node473&#45;&gt;Node474</title>
<path fill="none" stroke="#191970" d="M781.0987,-103.9865C805.1663,-101.2151 838.3097,-97.3986 865.4147,-94.2774"/>
<polygon fill="#191970" stroke="#191970" points="865.9418,-97.74 875.4757,-93.1189 865.141,-90.7859 865.9418,-97.74"/>
</g>
<!-- Node477 -->
<g id="node20" class="node">
<title>Node477</title>
<g id="a_node20"><a xlink:href="classSNN.html#ac13b30c40669d3cb8264bd6e211b449d" target="_top" xlink:title="SNN::getGroupGrid3D">
<polygon fill="#ffffff" stroke="#000000" points="856,-193.2403 856,-212.2403 971,-212.2403 971,-193.2403 856,-193.2403"/>
<text text-anchor="middle" x="913.5" y="-200.2403" font-family="Helvetica,sans-Serif" font-size="10.00" fill="#000000">SNN::getGroupGrid3D</text>
</a>
</g>
</g>
<!-- Node476&#45;&gt;Node477 -->
<g id="edge26" class="edge">
<title>Node476&#45;&gt;Node477</title>
<path fill="none" stroke="#191970" d="M806.6728,-202.7403C819.2651,-202.7403 832.6878,-202.7403 845.6159,-202.7403"/>
<polygon fill="#191970" stroke="#191970" points="845.8526,-206.2404 855.8526,-202.7403 845.8525,-199.2404 845.8526,-206.2404"/>
</g>
<!-- Node478&#45;&gt;Node459 -->
<g id="edge28" class="edge">
<title>Node478&#45;&gt;Node459</title>
<path fill="none" stroke="#191970" d="M730.8491,-10.0311C660.3322,-.203 394.7872,27.1951 232,-88.7403 203.9085,-108.7468 182.4931,-143.5204 171.1207,-164.9892"/>
<polygon fill="#191970" stroke="#191970" points="167.9115,-163.578 166.4866,-174.0766 174.1475,-166.7581 167.9115,-163.578"/>
</g>
<!-- Node480&#45;&gt;Node459 -->
<g id="edge35" class="edge">
<title>Node480&#45;&gt;Node459</title>
<path fill="none" stroke="#191970" d="M260.6293,-155.2537C246.8337,-161.6475 225.2808,-169.5342 205.8372,-175.5956"/>
<polygon fill="#191970" stroke="#191970" points="204.7758,-172.2599 196.2104,-178.4956 206.7949,-178.9624 204.7758,-172.2599"/>
</g>
<!-- Node480&#45;&gt;Node462 -->
<g id="edge36" class="edge">
<title>Node480&#45;&gt;Node462</title>
<path fill="none" stroke="#191970" d="M287.5535,-136.07C302.6673,-124.7683 329.1297,-106.0489 354,-93.7403 362.3768,-89.5946 371.6497,-85.8365 380.5964,-82.5894"/>
<polygon fill="#191970" stroke="#191970" points="381.8265,-85.8672 390.1186,-79.2723 379.5238,-79.2568 381.8265,-85.8672"/>
</g>
<!-- Node480&#45;&gt;Node465 -->
<g id="edge38" class="edge">
<title>Node480&#45;&gt;Node465</title>
<path fill="none" stroke="#191970" d="M315.1345,-147.2919C361.0016,-150.7641 436.7225,-161.8217 491,-196.7403 530.9006,-222.4098 560.6695,-271.3095 574.8277,-298.0801"/>
<polygon fill="#191970" stroke="#191970" points="571.805,-299.8564 579.4781,-307.1621 578.0357,-296.666 571.805,-299.8564"/>
</g>
<!-- Node480&#45;&gt;Node471 -->
<g id="edge37" class="edge">
<title>Node480&#45;&gt;Node471</title>
<path fill="none" stroke="#191970" d="M304.4962,-136.186C347.2336,-124.0085 428.1348,-107.2868 491,-131.7403 511.2286,-139.6089 508.293,-153.7331 527,-164.7403 530.5905,-166.853 534.448,-168.7689 538.4017,-170.498"/>
<polygon fill="#191970" stroke="#191970" points="537.1358,-173.7611 547.7216,-174.1983 539.719,-167.2552 537.1358,-173.7611"/>
</g>
<!-- Node481&#45;&gt;Node459 -->
<g id="edge41" class="edge">
<title>Node481&#45;&gt;Node459</title>
<path fill="none" stroke="#191970" d="M239.7518,-268.1174C237.0704,-266.4047 234.4553,-264.5962 232,-262.7403 208.4154,-244.914 184.9207,-219.4391 172.0434,-201.9125"/>
<polygon fill="#191970" stroke="#191970" points="174.8642,-199.8368 166.333,-193.5543 169.0843,-203.7857 174.8642,-199.8368"/>
</g>
<!-- Node481&#45;&gt;Node476 -->
<g id="edge42" class="edge">
<title>Node481&#45;&gt;Node476</title>
<path fill="none" stroke="#191970" d="M318.0498,-278.384C329.7154,-278.5315 342.3413,-278.6665 354,-278.7403 414.8877,-279.1257 430.7369,-287.4479 491,-278.7403 573.6493,-266.7982 666.732,-234.3488 715.166,-215.9444"/>
<polygon fill="#191970" stroke="#191970" points="716.4416,-219.2038 724.5226,-212.3518 713.9325,-212.6689 716.4416,-219.2038"/>
</g>
</g>
</svg>
        <g id="navigator" transform="translate(0 0)" fill="#404254">
                <rect fill="#f2f5e9" fill-opacity="0.5" stroke="#606060" stroke-width=".5" x="0" y="0" width="60" height="60"/>
                <use id="zoomplus" xlink:href="#zoomPlus" x="17" y="9" onmousedown="handleZoom(evt,'in')"/>
                <use id="zoomminus" xlink:href="#zoomMin" x="42" y="9" onmousedown="handleZoom(evt,'out')"/>
                <use id="reset" xlink:href="#resetDef" x="30" y="36" onmousedown="handleReset()"/>
                <g id="arrowUp" xlink:href="#dirArrow" transform="translate(30 24)" onmousedown="handlePan(0,-1)">
                  <use xlink:href="#rim" fill="#404040">
                        <set attributeName="fill" to="#808080" begin="arrowUp.mouseover" end="arrowUp.mouseout"/>
                  </use>
                  <path fill="none" stroke="white" stroke-width="1.5" d="M0,-3.0v7 M-2.5,-0.5L0,-3.0L2.5,-0.5"/>
                </g>
                <g id="arrowRight" xlink:href="#dirArrow" transform="rotate(90) translate(36 -43)" onmousedown="handlePan(1,0)">
                  <use xlink:href="#rim" fill="#404040">
                        <set attributeName="fill" to="#808080" begin="arrowRight.mouseover" end="arrowRight.mouseout"/>
                  </use>
                  <path fill="none" stroke="white" stroke-width="1.5" d="M0,-3.0v7 M-2.5,-0.5L0,-3.0L2.5,-0.5"/>
                </g>
                <g id="arrowDown" xlink:href="#dirArrow" transform="rotate(180) translate(-30 -48)" onmousedown="handlePan(0,1)">
                  <use xlink:href="#rim" fill="#404040">
                        <set attributeName="fill" to="#808080" begin="arrowDown.mouseover" end="arrowDown.mouseout"/>
                  </use>
                  <path fill="none" stroke="white" stroke-width="1.5" d="M0,-3.0v7 M-2.5,-0.5L0,-3.0L2.5,-0.5"/>
                </g>
                <g id="arrowLeft" xlink:href="#dirArrow" transform="rotate(270) translate(-36 17)" onmousedown="handlePan(-1,0)">
                  <use xlink:href="#rim" fill="#404040">
                        <set attributeName="fill" to="#808080" begin="arrowLeft.mouseover" end="arrowLeft.mouseout"/>
                  </use>
                  <path fill="none" stroke="white" stroke-width="1.5" d="M0,-3.0v7 M-2.5,-0.5L0,-3.0L2.5,-0.5"/>
                </g>
        </g>
        <svg viewBox="0 0 15 15" width="100%" height="30px" preserveAspectRatio="xMaxYMin meet">
         <g id="arrow_out" transform="scale(0.3 0.3)">
          <a xlink:href="classNeuronMonitorCore_a743a4ad47ef60bc593cc9882bd4ffb57_cgraph_org.svg" target="_base">
           <rect id="button" ry="5" rx="5" y="6" x="6" height="38" width="38"
                fill="#f2f5e9" fill-opacity="0.5" stroke="#606060" stroke-width="1.0"/>
           <path id="arrow"
             d="M 11.500037,31.436501 C 11.940474,20.09759 22.043105,11.32322 32.158766,21.979434 L 37.068811,17.246167 C 37.068811,17.246167 37.088388,32 37.088388,32 L 22.160133,31.978069 C 22.160133,31.978069 26.997745,27.140456 26.997745,27.140456 C 18.528582,18.264221 13.291696,25.230495 11.500037,31.436501 z"
             style="fill:#404040;"/>
          </a>
         </g>
        </svg>
</svg>
