<?xml version="1.0" encoding="UTF-8" standalone="no"?>
<!DOCTYPE svg PUBLIC "-//W3C//DTD SVG 1.1//EN"
 "http://www.w3.org/Graphics/SVG/1.1/DTD/svg11.dtd">
<!-- Generated by graphviz version 2.40.1 (20161225.0304)
 -->
<!-- Title: init Pages: 1 -->
<!--zoomable 484 -->
<svg id="main" version="1.1" xmlns="http://www.w3.org/2000/svg" xmlns:xlink="http://www.w3.org/1999/xlink" xml:space="preserve" onload="init(evt)">
<style type="text/css"><![CDATA[
.edge:hover path { stroke: red; }
.edge:hover polygon { stroke: red; fill: red; }
]]></style>
<script type="text/javascript"><![CDATA[
var edges = document.getElementsByTagName('g');
if (edges && edges.length) {
  for (var i=0;i<edges.length;i++) {
    if (edges[i].id.substr(0,4)=='edge') {
      edges[i].setAttribute('class','edge');
    }
  }
}
]]></script>
        <defs>
                <circle id="rim" cx="0" cy="0" r="7"/>
                <circle id="rim2" cx="0" cy="0" r="3.5"/>
                <g id="zoomPlus">
                        <use xlink:href="#rim" fill="#404040">
                                <set attributeName="fill" to="#808080" begin="zoomplus.mouseover" end="zoomplus.mouseout"/>
                        </use>
                        <path d="M-4,0h8M0,-4v8" fill="none" stroke="white" stroke-width="1.5" pointer-events="none"/>
                </g>
                <g id="zoomMin">
                        <use xlink:href="#rim" fill="#404040">
                                <set attributeName="fill" to="#808080" begin="zoomminus.mouseover" end="zoomminus.mouseout"/>
                        </use>
                        <path d="M-4,0h8" fill="none" stroke="white" stroke-width="1.5" pointer-events="none"/>
                </g>
                <g id="dirArrow">
                        <path fill="none" stroke="white" stroke-width="1.5" d="M0,-3.0v7 M-2.5,-0.5L0,-3.0L2.5,-0.5"/>
                </g>
               <g id="resetDef">
                       <use xlink:href="#rim2" fill="#404040">
                               <set attributeName="fill" to="#808080" begin="reset.mouseover" end="reset.mouseout"/>
                       </use>
               </g>
        </defs>

<script type="text/javascript">
var viewWidth = 451;
var viewHeight = 484;
var sectionId = 'dynsection-28';
</script>
<script xlink:href="svgpan.js"/>
<svg id="graph" class="graph">
<g id="viewport">
<title>init</title>
<polygon fill="#ffffff" stroke="transparent" points="-4,4 -4,-480 447,-480 447,4 -4,4"/>
<!-- Node244 -->
<g id="node1" class="node">
<title>Node244</title>
<polygon fill="#bfbfbf" stroke="#000000" points="0,-323.5 0,-342.5 29,-342.5 29,-323.5 0,-323.5"/>
<text text-anchor="middle" x="14.5" y="-330.5" font-family="Helvetica,sans-Serif" font-size="10.00" fill="#000000">init</text>
</g>
<!-- Node245 -->
<g id="node2" class="node">
<title>Node245</title>
<g id="a_node2"><a xlink:href="classSNN.html#a11e19a0ccbeca92ba843a5933b3321e0" target="_top" xlink:title="SNN::getGroupNumNeurons">
<polygon fill="#ffffff" stroke="#000000" points="80,-456.5 80,-475.5 222,-475.5 222,-456.5 80,-456.5"/>
<text text-anchor="middle" x="151" y="-463.5" font-family="Helvetica,sans-Serif" font-size="10.00" fill="#000000">SNN::getGroupNumNeurons</text>
</a>
</g>
</g>
<!-- Node244&#45;&gt;Node245 -->
<g id="edge1" class="edge">
<title>Node244&#45;&gt;Node245</title>
<path fill="none" stroke="#191970" d="M15.8278,-342.7103C19.3973,-364.8853 31.3222,-419.4518 65,-447 67.0194,-448.6519 69.1517,-450.1679 71.3728,-451.559"/>
<polygon fill="#191970" stroke="#191970" points="69.8575,-454.7173 80.3293,-456.3273 73.1471,-448.5384 69.8575,-454.7173"/>
</g>
<!-- Node246 -->
<g id="node3" class="node">
<title>Node246</title>
<g id="a_node3"><a xlink:href="classSNN.html#a821a04dec998f1fcebcc048d39cc8b21" target="_top" xlink:title="returns whether synapses in connection are fixed (false) or plastic (true) ">
<polygon fill="#ffffff" stroke="#000000" points="85.5,-418.5 85.5,-437.5 216.5,-437.5 216.5,-418.5 85.5,-418.5"/>
<text text-anchor="middle" x="151" y="-425.5" font-family="Helvetica,sans-Serif" font-size="10.00" fill="#000000">SNN::isConnectionPlastic</text>
</a>
</g>
</g>
<!-- Node244&#45;&gt;Node246 -->
<g id="edge2" class="edge">
<title>Node244&#45;&gt;Node246</title>
<path fill="none" stroke="#191970" d="M18.0966,-342.6741C24.7145,-359.0675 40.4342,-392.1621 65,-409 68.4763,-411.3827 72.2009,-413.4726 76.0801,-415.3051"/>
<polygon fill="#191970" stroke="#191970" points="74.7886,-418.5584 85.368,-419.1305 77.4545,-412.0858 74.7886,-418.5584"/>
</g>
<!-- Node247 -->
<g id="node4" class="node">
<title>Node247</title>
<g id="a_node4"><a xlink:href="classSNN.html#a52f149e224abff772962dea6680398e2" target="_top" xlink:title="gets number of connections associated with a connection ID ">
<polygon fill="#ffffff" stroke="#000000" points="65,-380.5 65,-399.5 237,-399.5 237,-380.5 65,-380.5"/>
<text text-anchor="middle" x="151" y="-387.5" font-family="Helvetica,sans-Serif" font-size="10.00" fill="#000000">SNN::getNumSynapticConnections</text>
</a>
</g>
</g>
<!-- Node244&#45;&gt;Node247 -->
<g id="edge3" class="edge">
<title>Node244&#45;&gt;Node247</title>
<path fill="none" stroke="#191970" d="M26.7445,-342.5466C36.6054,-349.8426 51.0723,-359.6886 65,-366 75.0532,-370.5557 86.167,-374.4338 96.9738,-377.6588"/>
<polygon fill="#191970" stroke="#191970" points="96.1972,-381.0766 106.7728,-380.4377 98.1071,-374.3421 96.1972,-381.0766"/>
</g>
<!-- Node249 -->
<g id="node6" class="node">
<title>Node249</title>
<g id="a_node6"><a xlink:href="classSNN.html#acdfe8b1c7c69be228cc51535cfec0215" target="_top" xlink:title="required for homeostasis ">
<polygon fill="#ffffff" stroke="#000000" points="296.5,-342.5 296.5,-361.5 419.5,-361.5 419.5,-342.5 296.5,-342.5"/>
<text text-anchor="middle" x="358" y="-349.5" font-family="Helvetica,sans-Serif" font-size="10.00" fill="#000000">SNN::getConnectConfig</text>
</a>
</g>
</g>
<!-- Node244&#45;&gt;Node249 -->
<g id="edge5" class="edge">
<title>Node244&#45;&gt;Node249</title>
<path fill="none" stroke="#191970" d="M29.2598,-333.8164C72.8983,-336.2302 203.4284,-343.4502 286.2822,-348.0331"/>
<polygon fill="#191970" stroke="#191970" points="286.2128,-351.5345 296.3908,-348.5922 286.5994,-344.5452 286.2128,-351.5345"/>
</g>
<!-- Node250 -->
<g id="node7" class="node">
<title>Node250</title>
<g id="a_node7"><a xlink:href="classSNN.html#aca55cbeeccd57d4b6de64ca8e1d7d2c5" target="_top" xlink:title="function writes population weights from gIDpre to gIDpost to file fname in binary. ">
<polygon fill="#ffffff" stroke="#000000" points="103,-304.5 103,-323.5 199,-323.5 199,-304.5 103,-304.5"/>
<text text-anchor="middle" x="151" y="-311.5" font-family="Helvetica,sans-Serif" font-size="10.00" fill="#000000">SNN::getLogFpInf</text>
</a>
</g>
</g>
<!-- Node244&#45;&gt;Node250 -->
<g id="edge6" class="edge">
<title>Node244&#45;&gt;Node250</title>
<path fill="none" stroke="#191970" d="M29.1079,-330.9667C44.4535,-328.8306 69.5732,-325.3341 93.0336,-322.0686"/>
<polygon fill="#191970" stroke="#191970" points="93.5312,-325.5331 102.9532,-320.6878 92.5661,-318.6 93.5312,-325.5331"/>
</g>
<!-- Node251 -->
<g id="node8" class="node">
<title>Node251</title>
<g id="a_node8"><a xlink:href="classSNN.html#a5de043bd478d97d08d1671967cddc551" target="_top" xlink:title="returns file pointer to error log ">
<polygon fill="#ffffff" stroke="#000000" points="102,-266.5 102,-285.5 200,-285.5 200,-266.5 102,-266.5"/>
<text text-anchor="middle" x="151" y="-273.5" font-family="Helvetica,sans-Serif" font-size="10.00" fill="#000000">SNN::getLogFpErr</text>
</a>
</g>
</g>
<!-- Node244&#45;&gt;Node251 -->
<g id="edge7" class="edge">
<title>Node244&#45;&gt;Node251</title>
<path fill="none" stroke="#191970" d="M24.479,-323.4103C34.0994,-314.7007 49.4505,-302.1551 65,-295 73.3647,-291.151 82.5528,-288.0615 91.7141,-285.5871"/>
<polygon fill="#191970" stroke="#191970" points="92.7395,-288.9389 101.6043,-283.1367 91.056,-282.1444 92.7395,-288.9389"/>
</g>
<!-- Node252 -->
<g id="node9" class="node">
<title>Node252</title>
<g id="a_node9"><a xlink:href="classSNN.html#a618dd0ac460a947283a39c3044e727d6" target="_top" xlink:title="returns file pointer to debug log ">
<polygon fill="#ffffff" stroke="#000000" points="99.5,-228.5 99.5,-247.5 202.5,-247.5 202.5,-228.5 99.5,-228.5"/>
<text text-anchor="middle" x="151" y="-235.5" font-family="Helvetica,sans-Serif" font-size="10.00" fill="#000000">SNN::getLogFpDeb</text>
</a>
</g>
</g>
<!-- Node244&#45;&gt;Node252 -->
<g id="edge8" class="edge">
<title>Node244&#45;&gt;Node252</title>
<path fill="none" stroke="#191970" d="M18.0966,-323.3259C24.7145,-306.9325 40.4342,-273.8379 65,-257 72.3309,-251.9752 80.7663,-248.2527 89.4267,-245.5002"/>
<polygon fill="#191970" stroke="#191970" points="90.5457,-248.8223 99.2534,-242.7869 88.6825,-242.0748 90.5457,-248.8223"/>
</g>
<!-- Node253 -->
<g id="node10" class="node">
<title>Node253</title>
<g id="a_node10"><a xlink:href="classSNN.html#acd2fe569d2092f6e9cf624d18b93b1bf" target="_top" xlink:title="returns file pointer to log file ">
<polygon fill="#ffffff" stroke="#000000" points="100.5,-190.5 100.5,-209.5 201.5,-209.5 201.5,-190.5 100.5,-190.5"/>
<text text-anchor="middle" x="151" y="-197.5" font-family="Helvetica,sans-Serif" font-size="10.00" fill="#000000">SNN::getLogFpLog</text>
</a>
</g>
</g>
<!-- Node244&#45;&gt;Node253 -->
<g id="edge9" class="edge">
<title>Node244&#45;&gt;Node253</title>
<path fill="none" stroke="#191970" d="M15.8278,-323.2897C19.3973,-301.1147 31.3222,-246.5482 65,-219 72.3786,-212.9644 81.2638,-208.7416 90.4842,-205.8067"/>
<polygon fill="#191970" stroke="#191970" points="91.4233,-209.1786 100.165,-203.1924 89.5983,-202.4206 91.4233,-209.1786"/>
</g>
<!-- Node248 -->
<g id="node5" class="node">
<title>Node248</title>
<g id="a_node5"><a xlink:href="classSNN.html#a477f99451786873b73e2623b6f89b766" target="_top" xlink:title="deallocates all dynamical structures and exits ">
<polygon fill="#ffffff" stroke="#000000" points="305,-380.5 305,-399.5 411,-399.5 411,-380.5 305,-380.5"/>
<text text-anchor="middle" x="358" y="-387.5" font-family="Helvetica,sans-Serif" font-size="10.00" fill="#000000">SNN::exitSimulation</text>
</a>
</g>
</g>
<!-- Node247&#45;&gt;Node248 -->
<g id="edge4" class="edge">
<title>Node247&#45;&gt;Node248</title>
<path fill="none" stroke="#191970" d="M237.2877,-390C256.5734,-390 276.6794,-390 294.8253,-390"/>
<polygon fill="#191970" stroke="#191970" points="294.9733,-393.5001 304.9732,-390 294.9732,-386.5001 294.9733,-393.5001"/>
</g>
<!-- Node253&#45;&gt;Node249 -->
<g id="edge12" class="edge">
<title>Node253&#45;&gt;Node249</title>
<path fill="none" stroke="#191970" d="M201.5716,-202.2626C214.4113,-205.0643 227.2996,-210.1217 237,-219 276.1948,-254.8731 233.8496,-297.0784 273,-333 277.1085,-336.7697 281.7971,-339.8476 286.8133,-342.3549"/>
<polygon fill="#191970" stroke="#191970" points="285.5669,-345.6276 296.1418,-346.2777 288.2804,-339.1749 285.5669,-345.6276"/>
</g>
<!-- Node254 -->
<g id="node11" class="node">
<title>Node254</title>
<g id="a_node11"><a xlink:href="classSNN.html#a2f4a65f43d2b15b984464dfb19959fe3" target="_top" xlink:title="Sets the file pointers for all log files file pointer NULL means don&#39;t change it. ...">
<polygon fill="#ffffff" stroke="#000000" points="313,-304.5 313,-323.5 403,-323.5 403,-304.5 313,-304.5"/>
<text text-anchor="middle" x="358" y="-311.5" font-family="Helvetica,sans-Serif" font-size="10.00" fill="#000000">SNN::setLogsFp</text>
</a>
</g>
</g>
<!-- Node253&#45;&gt;Node254 -->
<g id="edge10" class="edge">
<title>Node253&#45;&gt;Node254</title>
<path fill="none" stroke="#191970" d="M201.6964,-203.3641C214.244,-206.197 226.9559,-210.9945 237,-219 266.2277,-242.2955 243.8012,-271.6683 273,-295 281.5921,-301.8656 292.1634,-306.3637 302.8955,-309.2853"/>
<polygon fill="#191970" stroke="#191970" points="302.2149,-312.7201 312.7447,-311.548 303.7822,-305.8978 302.2149,-312.7201"/>
</g>
<!-- Node255 -->
<g id="node12" class="node">
<title>Node255</title>
<g id="a_node12"><a xlink:href="classSNN.html#a44b05911f213714c351379021852e12a" target="_top" xlink:title="find connection ID based on pre&#45;post group pair, O(N) ">
<polygon fill="#ffffff" stroke="#000000" points="306.5,-266.5 306.5,-285.5 409.5,-285.5 409.5,-266.5 306.5,-266.5"/>
<text text-anchor="middle" x="358" y="-273.5" font-family="Helvetica,sans-Serif" font-size="10.00" fill="#000000">SNN::getConnectId</text>
</a>
</g>
</g>
<!-- Node253&#45;&gt;Node255 -->
<g id="edge11" class="edge">
<title>Node253&#45;&gt;Node255</title>
<path fill="none" stroke="#191970" d="M201.5076,-205.9464C213.6529,-208.7588 226.2207,-212.9005 237,-219 257.2477,-230.4571 252.7665,-245.5178 273,-257 280.2783,-261.1303 288.3823,-264.3628 296.6148,-266.8926"/>
<polygon fill="#191970" stroke="#191970" points="295.7264,-270.2781 306.2963,-269.5513 297.5801,-263.528 295.7264,-270.2781"/>
</g>
<!-- Node256 -->
<g id="node13" class="node">
<title>Node256</title>
<g id="a_node13"><a xlink:href="classSNN.html#a37221c7881b5fa8d1d806804fb9521ab" target="_top" xlink:title="SNN::getConnSTDPInfo">
<polygon fill="#ffffff" stroke="#000000" points="295.5,-228.5 295.5,-247.5 420.5,-247.5 420.5,-228.5 295.5,-228.5"/>
<text text-anchor="middle" x="358" y="-235.5" font-family="Helvetica,sans-Serif" font-size="10.00" fill="#000000">SNN::getConnSTDPInfo</text>
</a>
</g>
</g>
<!-- Node253&#45;&gt;Node256 -->
<g id="edge13" class="edge">
<title>Node253&#45;&gt;Node256</title>
<path fill="none" stroke="#191970" d="M201.6379,-209.2958C230.1348,-214.5272 265.94,-221.1001 296.0945,-226.6357"/>
<polygon fill="#191970" stroke="#191970" points="295.6179,-230.1066 306.0855,-228.4698 296.8819,-223.2217 295.6179,-230.1066"/>
</g>
<!-- Node257 -->
<g id="node14" class="node">
<title>Node257</title>
<g id="a_node14"><a xlink:href="classSNN.html#aee3e497537bc8121f6c0c8fb3730ae72" target="_top" xlink:title="returns the RangeDelay struct of a connection ">
<polygon fill="#ffffff" stroke="#000000" points="302,-190.5 302,-209.5 414,-209.5 414,-190.5 302,-190.5"/>
<text text-anchor="middle" x="358" y="-197.5" font-family="Helvetica,sans-Serif" font-size="10.00" fill="#000000">SNN::getDelayRange</text>
</a>
</g>
</g>
<!-- Node253&#45;&gt;Node257 -->
<g id="edge14" class="edge">
<title>Node253&#45;&gt;Node257</title>
<path fill="none" stroke="#191970" d="M201.6379,-200C228.7261,-200 262.4178,-200 291.5827,-200"/>
<polygon fill="#191970" stroke="#191970" points="291.6917,-203.5001 301.6916,-200 291.6916,-196.5001 291.6917,-203.5001"/>
</g>
<!-- Node258 -->
<g id="node15" class="node">
<title>Node258</title>
<g id="a_node15"><a xlink:href="classSNN.html#a317da03ce4b0b13d9621e277f468e058" target="_top" xlink:title="Returns the delay information for all synaptic connections between a pre&#45;synaptic and a post&#45;synaptic...">
<polygon fill="#ffffff" stroke="#000000" points="313.5,-152.5 313.5,-171.5 402.5,-171.5 402.5,-152.5 313.5,-152.5"/>
<text text-anchor="middle" x="358" y="-159.5" font-family="Helvetica,sans-Serif" font-size="10.00" fill="#000000">SNN::getDelays</text>
</a>
</g>
</g>
<!-- Node253&#45;&gt;Node258 -->
<g id="edge15" class="edge">
<title>Node253&#45;&gt;Node258</title>
<path fill="none" stroke="#191970" d="M201.6379,-190.7042C232.4187,-185.0536 271.7263,-177.8377 303.2294,-172.0545"/>
<polygon fill="#191970" stroke="#191970" points="303.9591,-175.4791 313.1628,-170.231 302.6952,-168.5942 303.9591,-175.4791"/>
</g>
<!-- Node259 -->
<g id="node16" class="node">
<title>Node259</title>
<g id="a_node16"><a xlink:href="classSNN.html#ac13b30c40669d3cb8264bd6e211b449d" target="_top" xlink:title="SNN::getGroupGrid3D">
<polygon fill="#ffffff" stroke="#000000" points="300.5,-114.5 300.5,-133.5 415.5,-133.5 415.5,-114.5 300.5,-114.5"/>
<text text-anchor="middle" x="358" y="-121.5" font-family="Helvetica,sans-Serif" font-size="10.00" fill="#000000">SNN::getGroupGrid3D</text>
</a>
</g>
</g>
<!-- Node253&#45;&gt;Node259 -->
<g id="edge16" class="edge">
<title>Node253&#45;&gt;Node259</title>
<path fill="none" stroke="#191970" d="M168.2819,-190.456C191.4841,-177.9886 234.2756,-156.199 273,-143 280.6315,-140.3988 288.7714,-138.057 296.8769,-135.9793"/>
<polygon fill="#191970" stroke="#191970" points="297.827,-139.3502 306.7103,-133.5762 296.1652,-132.5503 297.827,-139.3502"/>
</g>
<!-- Node260 -->
<g id="node17" class="node">
<title>Node260</title>
<g id="a_node17"><a xlink:href="classSNN.html#a757c874860e9e4d5ce0716e76b1a3e78" target="_top" xlink:title="SNN::getGroupId">
<polygon fill="#ffffff" stroke="#000000" points="312,-76.5 312,-95.5 404,-95.5 404,-76.5 312,-76.5"/>
<text text-anchor="middle" x="358" y="-83.5" font-family="Helvetica,sans-Serif" font-size="10.00" fill="#000000">SNN::getGroupId</text>
</a>
</g>
</g>
<!-- Node253&#45;&gt;Node260 -->
<g id="edge17" class="edge">
<title>Node253&#45;&gt;Node260</title>
<path fill="none" stroke="#191970" d="M160.1215,-190.4899C179.1795,-171.2094 225.4131,-127.4473 273,-105 282.0261,-100.7423 292.0479,-97.4171 301.9519,-94.8265"/>
<polygon fill="#191970" stroke="#191970" points="302.8659,-98.2067 311.7755,-92.4736 301.2353,-91.3992 302.8659,-98.2067"/>
</g>
<!-- Node261 -->
<g id="node18" class="node">
<title>Node261</title>
<g id="a_node18"><a xlink:href="classSNN.html#ab0367f8ebd4019bf7d34ebddb1563fe7" target="_top" xlink:title="SNN::getGroupName">
<polygon fill="#ffffff" stroke="#000000" points="303,-38.5 303,-57.5 413,-57.5 413,-38.5 303,-38.5"/>
<text text-anchor="middle" x="358" y="-45.5" font-family="Helvetica,sans-Serif" font-size="10.00" fill="#000000">SNN::getGroupName</text>
</a>
</g>
</g>
<!-- Node253&#45;&gt;Node261 -->
<g id="edge18" class="edge">
<title>Node253&#45;&gt;Node261</title>
<path fill="none" stroke="#191970" d="M156.749,-190.4585C172.1745,-165.7406 217.1208,-99.3076 273,-67 279.2099,-63.4097 286.037,-60.4975 293.0394,-58.1355"/>
<polygon fill="#191970" stroke="#191970" points="294.0869,-61.4754 302.6552,-55.2435 292.0708,-54.772 294.0869,-61.4754"/>
</g>
<!-- Node262 -->
<g id="node19" class="node">
<title>Node262</title>
<g id="a_node19"><a xlink:href="classSNN.html#aa1c9457d6e17337cfc20cee263f1159f" target="_top" xlink:title="SNN::getGroupNeuromodulatorInfo">
<polygon fill="#ffffff" stroke="#000000" points="273,-.5 273,-19.5 443,-19.5 443,-.5 273,-.5"/>
<text text-anchor="middle" x="358" y="-7.5" font-family="Helvetica,sans-Serif" font-size="10.00" fill="#000000">SNN::getGroupNeuromodulatorInfo</text>
</a>
</g>
</g>
<!-- Node253&#45;&gt;Node262 -->
<g id="edge19" class="edge">
<title>Node253&#45;&gt;Node262</title>
<path fill="none" stroke="#191970" d="M154.8627,-190.3684C167.1838,-160.9571 208.5644,-71.7252 273,-29 275.9891,-27.018 279.154,-25.2402 282.4365,-23.6457"/>
<polygon fill="#191970" stroke="#191970" points="284.1043,-26.7405 291.9499,-19.6203 281.3765,-20.2938 284.1043,-26.7405"/>
</g>
</g>
</svg>
        <g id="navigator" transform="translate(0 0)" fill="#404254">
                <rect fill="#f2f5e9" fill-opacity="0.5" stroke="#606060" stroke-width=".5" x="0" y="0" width="60" height="60"/>
                <use id="zoomplus" xlink:href="#zoomPlus" x="17" y="9" onmousedown="handleZoom(evt,'in')"/>
                <use id="zoomminus" xlink:href="#zoomMin" x="42" y="9" onmousedown="handleZoom(evt,'out')"/>
                <use id="reset" xlink:href="#resetDef" x="30" y="36" onmousedown="handleReset()"/>
                <g id="arrowUp" xlink:href="#dirArrow" transform="translate(30 24)" onmousedown="handlePan(0,-1)">
                  <use xlink:href="#rim" fill="#404040">
                        <set attributeName="fill" to="#808080" begin="arrowUp.mouseover" end="arrowUp.mouseout"/>
                  </use>
                  <path fill="none" stroke="white" stroke-width="1.5" d="M0,-3.0v7 M-2.5,-0.5L0,-3.0L2.5,-0.5"/>
                </g>
                <g id="arrowRight" xlink:href="#dirArrow" transform="rotate(90) translate(36 -43)" onmousedown="handlePan(1,0)">
                  <use xlink:href="#rim" fill="#404040">
                        <set attributeName="fill" to="#808080" begin="arrowRight.mouseover" end="arrowRight.mouseout"/>
                  </use>
                  <path fill="none" stroke="white" stroke-width="1.5" d="M0,-3.0v7 M-2.5,-0.5L0,-3.0L2.5,-0.5"/>
                </g>
                <g id="arrowDown" xlink:href="#dirArrow" transform="rotate(180) translate(-30 -48)" onmousedown="handlePan(0,1)">
                  <use xlink:href="#rim" fill="#404040">
                        <set attributeName="fill" to="#808080" begin="arrowDown.mouseover" end="arrowDown.mouseout"/>
                  </use>
                  <path fill="none" stroke="white" stroke-width="1.5" d="M0,-3.0v7 M-2.5,-0.5L0,-3.0L2.5,-0.5"/>
                </g>
                <g id="arrowLeft" xlink:href="#dirArrow" transform="rotate(270) translate(-36 17)" onmousedown="handlePan(-1,0)">
                  <use xlink:href="#rim" fill="#404040">
                        <set attributeName="fill" to="#808080" begin="arrowLeft.mouseover" end="arrowLeft.mouseout"/>
                  </use>
                  <path fill="none" stroke="white" stroke-width="1.5" d="M0,-3.0v7 M-2.5,-0.5L0,-3.0L2.5,-0.5"/>
                </g>
        </g>
        <svg viewBox="0 0 15 15" width="100%" height="30px" preserveAspectRatio="xMaxYMin meet">
         <g id="arrow_out" transform="scale(0.3 0.3)">
          <a xlink:href="classConnectionMonitorCore_a02fd73d861ef2e4aabb38c0c9ff82947_cgraph_org.svg" target="_base">
           <rect id="button" ry="5" rx="5" y="6" x="6" height="38" width="38"
                fill="#f2f5e9" fill-opacity="0.5" stroke="#606060" stroke-width="1.0"/>
           <path id="arrow"
             d="M 11.500037,31.436501 C 11.940474,20.09759 22.043105,11.32322 32.158766,21.979434 L 37.068811,17.246167 C 37.068811,17.246167 37.088388,32 37.088388,32 L 22.160133,31.978069 C 22.160133,31.978069 26.997745,27.140456 26.997745,27.140456 C 18.528582,18.264221 13.291696,25.230495 11.500037,31.436501 z"
             style="fill:#404040;"/>
          </a>
         </g>
        </svg>
</svg>
