<?xml version="1.0" encoding="UTF-8" standalone="no"?>
<!DOCTYPE svg PUBLIC "-//W3C//DTD SVG 1.1//EN"
 "http://www.w3.org/Graphics/SVG/1.1/DTD/svg11.dtd">
<!-- Generated by graphviz version 2.40.1 (20161225.0304)
 -->
<!-- Title: getSimTimeMsec Pages: 1 -->
<svg width="572pt" height="142pt"
 viewBox="0.00 0.00 572.00 142.00" xmlns="http://www.w3.org/2000/svg" xmlns:xlink="http://www.w3.org/1999/xlink">
<g id="graph0" class="graph" transform="scale(1 1) rotate(0) translate(4 138)">
<title>getSimTimeMsec</title>
<polygon fill="#ffffff" stroke="transparent" points="-4,4 -4,-138 568,-138 568,4 -4,4"/>
<!-- Node477 -->
<g id="node1" class="node">
<title>Node477</title>
<polygon fill="#bfbfbf" stroke="#000000" points="0,-57.5 0,-76.5 93,-76.5 93,-57.5 0,-57.5"/>
<text text-anchor="middle" x="46.5" y="-64.5" font-family="Helvetica,sans-Serif" font-size="10.00" fill="#000000">getSimTimeMsec</text>
</g>
<!-- Node478 -->
<g id="node2" class="node">
<title>Node478</title>
<g id="a_node2"><a xlink:href="classSNN.html#a424b0cf29d7dba87e4ebf244399acad0" target="_top" xlink:title="SNN::getSimTimeMs">
<polygon fill="#ffffff" stroke="#000000" points="129,-57.5 129,-76.5 239,-76.5 239,-57.5 129,-57.5"/>
<text text-anchor="middle" x="184" y="-64.5" font-family="Helvetica,sans-Serif" font-size="10.00" fill="#000000">SNN::getSimTimeMs</text>
</a>
</g>
</g>
<!-- Node477&#45;&gt;Node478 -->
<g id="edge1" class="edge">
<title>Node477&#45;&gt;Node478</title>
<path fill="none" stroke="#191970" d="M93.0512,-67C101.3389,-67 110.1087,-67 118.8025,-67"/>
<polygon fill="#191970" stroke="#191970" points="118.94,-70.5001 128.94,-67 118.9399,-63.5001 118.94,-70.5001"/>
</g>
<!-- Node479 -->
<g id="node3" class="node">
<title>Node479</title>
<g id="a_node3"><a xlink:href="classSNN.html#a866a9c6e2b2630816fc66adda1381655" target="_top" xlink:title="Returns pointer to existing SpikeMonitor object, NULL else. ">
<polygon fill="#ffffff" stroke="#000000" points="289,-114.5 289,-133.5 404,-133.5 404,-114.5 289,-114.5"/>
<text text-anchor="middle" x="346.5" y="-121.5" font-family="Helvetica,sans-Serif" font-size="10.00" fill="#000000">SNN::getSpikeMonitor</text>
</a>
</g>
</g>
<!-- Node478&#45;&gt;Node479 -->
<g id="edge2" class="edge">
<title>Node478&#45;&gt;Node479</title>
<path fill="none" stroke="#191970" d="M204.6539,-76.5723C222.8997,-84.7989 250.3609,-96.6251 275,-105 282.1026,-107.4142 289.686,-109.7158 297.1612,-111.8305"/>
<polygon fill="#191970" stroke="#191970" points="296.3064,-115.2252 306.8761,-114.4966 298.1589,-108.4748 296.3064,-115.2252"/>
</g>
<!-- Node481 -->
<g id="node5" class="node">
<title>Node481</title>
<g id="a_node5"><a xlink:href="classSNN.html#ad25000cd1457c9b9869122534ada6fdd" target="_top" xlink:title="SNN::getSpikeMonitorCore">
<polygon fill="#ffffff" stroke="#000000" points="278.5,-76.5 278.5,-95.5 414.5,-95.5 414.5,-76.5 278.5,-76.5"/>
<text text-anchor="middle" x="346.5" y="-83.5" font-family="Helvetica,sans-Serif" font-size="10.00" fill="#000000">SNN::getSpikeMonitorCore</text>
</a>
</g>
</g>
<!-- Node478&#45;&gt;Node481 -->
<g id="edge4" class="edge">
<title>Node478&#45;&gt;Node481</title>
<path fill="none" stroke="#191970" d="M239.0151,-73.4325C248.3773,-74.5272 258.26,-75.6827 268.0874,-76.8318"/>
<polygon fill="#191970" stroke="#191970" points="267.9455,-80.3389 278.2843,-78.024 268.7585,-73.3863 267.9455,-80.3389"/>
</g>
<!-- Node482 -->
<g id="node6" class="node">
<title>Node482</title>
<g id="a_node6"><a xlink:href="classSNN.html#a0eb87addfa5eebdfee4bd6b927b8945f" target="_top" xlink:title="Returns pointer to existing NeuronMonitor object, NULL else. ">
<polygon fill="#ffffff" stroke="#000000" points="285.5,-38.5 285.5,-57.5 407.5,-57.5 407.5,-38.5 285.5,-38.5"/>
<text text-anchor="middle" x="346.5" y="-45.5" font-family="Helvetica,sans-Serif" font-size="10.00" fill="#000000">SNN::getNeuronMonitor</text>
</a>
</g>
</g>
<!-- Node478&#45;&gt;Node482 -->
<g id="edge6" class="edge">
<title>Node478&#45;&gt;Node482</title>
<path fill="none" stroke="#191970" d="M239.0151,-60.5675C250.6684,-59.2049 263.1282,-57.7481 275.2838,-56.3268"/>
<polygon fill="#191970" stroke="#191970" points="275.8727,-59.7819 285.3985,-55.1442 275.0597,-52.8293 275.8727,-59.7819"/>
</g>
<!-- Node483 -->
<g id="node7" class="node">
<title>Node483</title>
<g id="a_node7"><a xlink:href="classSNN.html#a9aa73fa9478383c4af1eed8387d82db9" target="_top" xlink:title="SNN::getNeuronMonitorCore">
<polygon fill="#ffffff" stroke="#000000" points="275,-.5 275,-19.5 418,-19.5 418,-.5 275,-.5"/>
<text text-anchor="middle" x="346.5" y="-7.5" font-family="Helvetica,sans-Serif" font-size="10.00" fill="#000000">SNN::getNeuronMonitorCore</text>
</a>
</g>
</g>
<!-- Node478&#45;&gt;Node483 -->
<g id="edge8" class="edge">
<title>Node478&#45;&gt;Node483</title>
<path fill="none" stroke="#191970" d="M204.6539,-57.4277C222.8997,-49.2011 250.3609,-37.3749 275,-29 282.1026,-26.5858 289.686,-24.2842 297.1612,-22.1695"/>
<polygon fill="#191970" stroke="#191970" points="298.1589,-25.5252 306.8761,-19.5034 296.3064,-18.7748 298.1589,-25.5252"/>
</g>
<!-- Node480 -->
<g id="node4" class="node">
<title>Node480</title>
<g id="a_node4"><a xlink:href="classSNN.html#a292bdee57fec7c77ec4c15ea3f508d60" target="_top" xlink:title="SNN::getNumGroups">
<polygon fill="#ffffff" stroke="#000000" points="454,-57.5 454,-76.5 564,-76.5 564,-57.5 454,-57.5"/>
<text text-anchor="middle" x="509" y="-64.5" font-family="Helvetica,sans-Serif" font-size="10.00" fill="#000000">SNN::getNumGroups</text>
</a>
</g>
</g>
<!-- Node479&#45;&gt;Node480 -->
<g id="edge3" class="edge">
<title>Node479&#45;&gt;Node480</title>
<path fill="none" stroke="#191970" d="M386.1239,-114.4966C396.5755,-111.7113 407.785,-108.4721 418,-105 438.7892,-97.9337 461.5876,-88.4103 479.1644,-80.6653"/>
<polygon fill="#191970" stroke="#191970" points="480.6376,-83.8406 488.3461,-76.5723 477.7875,-77.4471 480.6376,-83.8406"/>
</g>
<!-- Node481&#45;&gt;Node480 -->
<g id="edge5" class="edge">
<title>Node481&#45;&gt;Node480</title>
<path fill="none" stroke="#191970" d="M414.9437,-77.9974C424.4984,-76.8802 434.2956,-75.7347 443.7886,-74.6247"/>
<polygon fill="#191970" stroke="#191970" points="444.4183,-78.075 453.9442,-73.4373 443.6054,-71.1224 444.4183,-78.075"/>
</g>
<!-- Node482&#45;&gt;Node480 -->
<g id="edge7" class="edge">
<title>Node482&#45;&gt;Node480</title>
<path fill="none" stroke="#191970" d="M407.9343,-55.1831C419.6127,-56.5486 431.8728,-57.9821 443.6672,-59.3611"/>
<polygon fill="#191970" stroke="#191970" points="443.5469,-62.8708 453.8857,-60.5559 444.3599,-55.9181 443.5469,-62.8708"/>
</g>
<!-- Node483&#45;&gt;Node480 -->
<g id="edge9" class="edge">
<title>Node483&#45;&gt;Node480</title>
<path fill="none" stroke="#191970" d="M386.1239,-19.5034C396.5755,-22.2887 407.785,-25.5279 418,-29 438.7892,-36.0663 461.5876,-45.5897 479.1644,-53.3347"/>
<polygon fill="#191970" stroke="#191970" points="477.7875,-56.5529 488.3461,-57.4277 480.6376,-50.1594 477.7875,-56.5529"/>
</g>
</g>
</svg>
