<?xml version="1.0" encoding="UTF-8" standalone="no"?>
<!DOCTYPE svg PUBLIC "-//W3C//DTD SVG 1.1//EN"
 "http://www.w3.org/Graphics/SVG/1.1/DTD/svg11.dtd">
<!-- Generated by graphviz version 2.40.1 (20161225.0304)
 -->
<!-- Title: getMinFiringRate Pages: 1 -->
<svg width="1160pt" height="474pt"
 viewBox="0.00 0.00 1160.00 474.00" xmlns="http://www.w3.org/2000/svg" xmlns:xlink="http://www.w3.org/1999/xlink">
<g id="graph0" class="graph" transform="scale(1 1) rotate(0) translate(4 470)">
<title>getMinFiringRate</title>
<polygon fill="#ffffff" stroke="transparent" points="-4,4 -4,-470 1156,-470 1156,4 -4,4"/>
<!-- Node237 -->
<g id="node1" class="node">
<title>Node237</title>
<polygon fill="#bfbfbf" stroke="#000000" points="0,-133.5 0,-152.5 91,-152.5 91,-133.5 0,-133.5"/>
<text text-anchor="middle" x="45.5" y="-140.5" font-family="Helvetica,sans-Serif" font-size="10.00" fill="#000000">getMinFiringRate</text>
</g>
<!-- Node238 -->
<g id="node2" class="node">
<title>Node238</title>
<g id="a_node2"><a xlink:href="classSpikeMonitorCore.html#a3a3ffdb35b09328d22e5d72503ed1f55" target="_top" xlink:title="returns recording status ">
<polygon fill="#ffffff" stroke="#000000" points="283,-133.5 283,-152.5 351,-152.5 351,-133.5 283,-133.5"/>
<text text-anchor="middle" x="317" y="-140.5" font-family="Helvetica,sans-Serif" font-size="10.00" fill="#000000">isRecording</text>
</a>
</g>
</g>
<!-- Node237&#45;&gt;Node238 -->
<g id="edge1" class="edge">
<title>Node237&#45;&gt;Node238</title>
<path fill="none" stroke="#191970" d="M91.2493,-143C141.7589,-143 222.5237,-143 272.5196,-143"/>
<polygon fill="#191970" stroke="#191970" points="272.6993,-146.5001 282.6993,-143 272.6992,-139.5001 272.6993,-146.5001"/>
</g>
<!-- Node251 -->
<g id="node15" class="node">
<title>Node251</title>
<g id="a_node15"><a xlink:href="classSpikeMonitorCore.html#ac0d8bd3f92fa0eae87b37f9245e0e13a" target="_top" xlink:title="returns a list of firing rates for all neurons in the group (sorted by firing rate ascending) ...">
<polygon fill="#ffffff" stroke="#000000" points="127,-114.5 127,-133.5 247,-133.5 247,-114.5 127,-114.5"/>
<text text-anchor="middle" x="187" y="-121.5" font-family="Helvetica,sans-Serif" font-size="10.00" fill="#000000">getAllFiringRatesSorted</text>
</a>
</g>
</g>
<!-- Node237&#45;&gt;Node251 -->
<g id="edge28" class="edge">
<title>Node237&#45;&gt;Node251</title>
<path fill="none" stroke="#191970" d="M91.0504,-136.8837C99.238,-135.7843 107.9436,-134.6153 116.6413,-133.4475"/>
<polygon fill="#191970" stroke="#191970" points="117.3713,-136.8809 126.8165,-132.0812 116.4397,-129.9432 117.3713,-136.8809"/>
</g>
<!-- Node239 -->
<g id="node3" class="node">
<title>Node239</title>
<g id="a_node3"><a xlink:href="classSpikeMonitorCore.html#af0ba89c38f6852cdf9d914687ad6a445" target="_top" xlink:title="prints the AER vector in human&#45;readable format ">
<polygon fill="#ffffff" stroke="#000000" points="399,-228.5 399,-247.5 434,-247.5 434,-228.5 399,-228.5"/>
<text text-anchor="middle" x="416.5" y="-235.5" font-family="Helvetica,sans-Serif" font-size="10.00" fill="#000000">print</text>
</a>
</g>
</g>
<!-- Node238&#45;&gt;Node239 -->
<g id="edge2" class="edge">
<title>Node238&#45;&gt;Node239</title>
<path fill="none" stroke="#191970" d="M332.5469,-152.7813C352.0505,-169.0506 385.1469,-200.7571 403.4158,-220.7655"/>
<polygon fill="#191970" stroke="#191970" points="400.8131,-223.1059 410.0482,-228.2986 406.0669,-218.4802 400.8131,-223.1059"/>
</g>
<!-- Node250 -->
<g id="node14" class="node">
<title>Node250</title>
<g id="a_node14"><a xlink:href="classSpikeMonitorCore.html#a6e116c2994e0449c41e56d03370fa54c" target="_top" xlink:title="inserts a (time,neurId) tupel into the 2D spike vector ">
<polygon fill="#ffffff" stroke="#000000" points="387,-.5 387,-19.5 446,-19.5 446,-.5 387,-.5"/>
<text text-anchor="middle" x="416.5" y="-7.5" font-family="Helvetica,sans-Serif" font-size="10.00" fill="#000000">pushAER</text>
</a>
</g>
</g>
<!-- Node238&#45;&gt;Node250 -->
<g id="edge25" class="edge">
<title>Node238&#45;&gt;Node250</title>
<path fill="none" stroke="#191970" d="M319.7971,-133.3991C327.7959,-112.856 352.0687,-66.6556 385.5725,-27.3006"/>
<polygon fill="#191970" stroke="#191970" points="388.4268,-29.3544 392.3942,-19.5305 383.1664,-24.7361 388.4268,-29.3544"/>
</g>
<!-- Node239&#45;&gt;Node238 -->
<g id="edge3" class="edge">
<title>Node239&#45;&gt;Node238</title>
<path fill="none" stroke="#191970" d="M401.2662,-228.4796C381.8499,-212.3273 348.6032,-180.496 330.2101,-160.3722"/>
<polygon fill="#191970" stroke="#191970" points="332.7668,-157.9797 323.5285,-152.7928 327.5158,-162.6087 332.7668,-157.9797"/>
</g>
<!-- Node240 -->
<g id="node4" class="node">
<title>Node240</title>
<g id="a_node4"><a xlink:href="classSNN.html#a5fd2b156623d78138bcb44167eabab78" target="_top" xlink:title="SNN::getSimTime">
<polygon fill="#ffffff" stroke="#000000" points="488.5,-304.5 488.5,-323.5 585.5,-323.5 585.5,-304.5 488.5,-304.5"/>
<text text-anchor="middle" x="537" y="-311.5" font-family="Helvetica,sans-Serif" font-size="10.00" fill="#000000">SNN::getSimTime</text>
</a>
</g>
</g>
<!-- Node239&#45;&gt;Node240 -->
<g id="edge4" class="edge">
<title>Node239&#45;&gt;Node240</title>
<path fill="none" stroke="#191970" d="M425.367,-247.756C437.195,-260.2545 459.2947,-281.8677 482,-295 485.4912,-297.0192 489.231,-298.8707 493.057,-300.5577"/>
<polygon fill="#191970" stroke="#191970" points="492.0688,-303.9326 502.6527,-304.4141 494.6791,-297.4374 492.0688,-303.9326"/>
</g>
<!-- Node241 -->
<g id="node5" class="node">
<title>Node241</title>
<g id="a_node5"><a xlink:href="classSNN.html#ab0367f8ebd4019bf7d34ebddb1563fe7" target="_top" xlink:title="SNN::getGroupName">
<polygon fill="#ffffff" stroke="#000000" points="482,-266.5 482,-285.5 592,-285.5 592,-266.5 482,-266.5"/>
<text text-anchor="middle" x="537" y="-273.5" font-family="Helvetica,sans-Serif" font-size="10.00" fill="#000000">SNN::getGroupName</text>
</a>
</g>
</g>
<!-- Node239&#45;&gt;Node241 -->
<g id="edge5" class="edge">
<title>Node239&#45;&gt;Node241</title>
<path fill="none" stroke="#191970" d="M434.0217,-243.5255C450.4759,-248.7144 475.6898,-256.6657 497.0494,-263.4015"/>
<polygon fill="#191970" stroke="#191970" points="496.2678,-266.8249 506.8575,-266.4945 498.3732,-260.1489 496.2678,-266.8249"/>
</g>
<!-- Node242 -->
<g id="node6" class="node">
<title>Node242</title>
<g id="a_node6"><a xlink:href="classSpikeMonitorCore.html#af6c333e6cefff92d0e354eca70625cdc" target="_top" xlink:title="returns the total number of recorded spikes in the group ">
<polygon fill="#ffffff" stroke="#000000" points="805,-209.5 805,-228.5 903,-228.5 903,-209.5 805,-209.5"/>
<text text-anchor="middle" x="854" y="-216.5" font-family="Helvetica,sans-Serif" font-size="10.00" fill="#000000">getPopNumSpikes</text>
</a>
</g>
</g>
<!-- Node239&#45;&gt;Node242 -->
<g id="edge6" class="edge">
<title>Node239&#45;&gt;Node242</title>
<path fill="none" stroke="#191970" d="M434.1924,-237.2316C494.5457,-234.6106 694.1498,-225.9421 794.8305,-221.5696"/>
<polygon fill="#191970" stroke="#191970" points="795.0052,-225.0655 804.8439,-221.1348 794.7015,-218.072 795.0052,-225.0655"/>
</g>
<!-- Node245 -->
<g id="node9" class="node">
<title>Node245</title>
<g id="a_node9"><a xlink:href="classSpikeMonitorCore.html#a9cf20c30ff0efdbc5e3c5194648a7fb3" target="_top" xlink:title="returns the total recorded time in ms ">
<polygon fill="#ffffff" stroke="#000000" points="795,-342.5 795,-361.5 913,-361.5 913,-342.5 795,-342.5"/>
<text text-anchor="middle" x="854" y="-349.5" font-family="Helvetica,sans-Serif" font-size="10.00" fill="#000000">getRecordingTotalTime</text>
</a>
</g>
</g>
<!-- Node239&#45;&gt;Node245 -->
<g id="edge11" class="edge">
<title>Node239&#45;&gt;Node245</title>
<path fill="none" stroke="#191970" d="M419.8424,-247.747C427.3281,-267.8768 447.5393,-313.7648 482,-333 532.1402,-360.9872 691.7383,-359.2875 784.7979,-355.621"/>
<polygon fill="#191970" stroke="#191970" points="785.1264,-359.1105 794.9738,-355.2018 784.8382,-352.1164 785.1264,-359.1105"/>
</g>
<!-- Node246 -->
<g id="node10" class="node">
<title>Node246</title>
<g id="a_node10"><a xlink:href="classSpikeMonitorCore.html#ae62d623e8edfc6b05309256c1d825bbd" target="_top" xlink:title="returns the recorded mean firing rate of the group ">
<polygon fill="#ffffff" stroke="#000000" points="635.5,-190.5 635.5,-209.5 751.5,-209.5 751.5,-190.5 635.5,-190.5"/>
<text text-anchor="middle" x="693.5" y="-197.5" font-family="Helvetica,sans-Serif" font-size="10.00" fill="#000000">getPopMeanFiringRate</text>
</a>
</g>
</g>
<!-- Node239&#45;&gt;Node246 -->
<g id="edge12" class="edge">
<title>Node239&#45;&gt;Node246</title>
<path fill="none" stroke="#191970" d="M434.2033,-233.7262C447.3328,-230.6763 465.7033,-226.6598 482,-224 529.6766,-216.2188 583.8103,-210.1264 625.3753,-206.0269"/>
<polygon fill="#191970" stroke="#191970" points="625.7752,-209.5047 635.3897,-205.0537 625.0981,-202.5375 625.7752,-209.5047"/>
</g>
<!-- Node247 -->
<g id="node11" class="node">
<title>Node247</title>
<g id="a_node11"><a xlink:href="classSpikeMonitorCore.html#ad0c4b32bb5cc0c7a8d95ed6023a2695f" target="_top" xlink:title="computes the standard deviation of firing rates in the group ">
<polygon fill="#ffffff" stroke="#000000" points="483.5,-114.5 483.5,-133.5 590.5,-133.5 590.5,-114.5 483.5,-114.5"/>
<text text-anchor="middle" x="537" y="-121.5" font-family="Helvetica,sans-Serif" font-size="10.00" fill="#000000">getPopStdFiringRate</text>
</a>
</g>
</g>
<!-- Node239&#45;&gt;Node247 -->
<g id="edge16" class="edge">
<title>Node239&#45;&gt;Node247</title>
<path fill="none" stroke="#191970" d="M426.7738,-228.2804C447.3164,-208.8459 493.6741,-164.9888 519.2409,-140.8011"/>
<polygon fill="#191970" stroke="#191970" points="521.8933,-143.1099 526.7522,-133.695 517.0826,-138.0249 521.8933,-143.1099"/>
</g>
<!-- Node249 -->
<g id="node13" class="node">
<title>Node249</title>
<g id="a_node13"><a xlink:href="classSpikeMonitorCore.html#aed09edf4583ac05d42fccc7e3556e3c5" target="_top" xlink:title="returns the recorded mean firing rate for a specific neuron ">
<polygon fill="#ffffff" stroke="#000000" points="628,-380.5 628,-399.5 759,-399.5 759,-380.5 628,-380.5"/>
<text text-anchor="middle" x="693.5" y="-387.5" font-family="Helvetica,sans-Serif" font-size="10.00" fill="#000000">getNeuronMeanFiringRate</text>
</a>
</g>
</g>
<!-- Node239&#45;&gt;Node249 -->
<g id="edge21" class="edge">
<title>Node239&#45;&gt;Node249</title>
<path fill="none" stroke="#191970" d="M418.2529,-247.7487C423.2324,-272.3164 439.9214,-336.8773 482,-366 521.1025,-393.0629 574.335,-398.9826 617.6116,-398.1771"/>
<polygon fill="#191970" stroke="#191970" points="617.9287,-401.669 627.8156,-397.8611 617.712,-394.6724 617.9287,-401.669"/>
</g>
<!-- Node242&#45;&gt;Node238 -->
<g id="edge7" class="edge">
<title>Node242&#45;&gt;Node238</title>
<path fill="none" stroke="#191970" d="M850.6313,-209.2015C841.1067,-183.2475 811.2277,-112.8773 759,-86 611.7569,-10.2261 545.6846,-59.6562 387,-107 370.6666,-111.8731 353.6326,-120.5433 340.4577,-128.1538"/>
<polygon fill="#191970" stroke="#191970" points="338.4013,-125.3053 331.6117,-133.4387 341.9914,-131.3146 338.4013,-125.3053"/>
</g>
<!-- Node243 -->
<g id="node7" class="node">
<title>Node243</title>
<g id="a_node7"><a xlink:href="classSpikeMonitorCore.html#a005a2f884f6260054483d4fa6ed6ddbb" target="_top" xlink:title="returns the number of recorded spikes of a specific neuron ">
<polygon fill="#ffffff" stroke="#000000" points="949,-285.5 949,-304.5 1062,-304.5 1062,-285.5 949,-285.5"/>
<text text-anchor="middle" x="1005.5" y="-292.5" font-family="Helvetica,sans-Serif" font-size="10.00" fill="#000000">getNeuronNumSpikes</text>
</a>
</g>
</g>
<!-- Node242&#45;&gt;Node243 -->
<g id="edge8" class="edge">
<title>Node242&#45;&gt;Node243</title>
<path fill="none" stroke="#191970" d="M873.1876,-228.6255C899.4834,-241.8168 946.907,-265.6068 977.2612,-280.834"/>
<polygon fill="#191970" stroke="#191970" points="975.9604,-284.0971 986.4682,-285.4527 979.0992,-277.8403 975.9604,-284.0971"/>
</g>
<!-- Node243&#45;&gt;Node238 -->
<g id="edge9" class="edge">
<title>Node243&#45;&gt;Node238</title>
<path fill="none" stroke="#191970" d="M999.313,-304.5997C985.9655,-324.557 952.4608,-370.7623 913,-396 826.7375,-451.1704 795.8962,-466 693.5,-466 537,-466 537,-466 537,-466 389.4998,-466 333.8623,-233.0667 320.4369,-162.8182"/>
<polygon fill="#191970" stroke="#191970" points="323.8221,-161.873 318.5786,-152.6667 316.9365,-163.1336 323.8221,-161.873"/>
</g>
<!-- Node244 -->
<g id="node8" class="node">
<title>Node244</title>
<g id="a_node8"><a xlink:href="classSpikeMonitorCore.html#abe76071e1ac3632d55f2455b239b3d12" target="_top" xlink:title="returns recording mode ">
<polygon fill="#ffffff" stroke="#000000" points="1098,-114.5 1098,-133.5 1152,-133.5 1152,-114.5 1098,-114.5"/>
<text text-anchor="middle" x="1125" y="-121.5" font-family="Helvetica,sans-Serif" font-size="10.00" fill="#000000">getMode</text>
</a>
</g>
</g>
<!-- Node243&#45;&gt;Node244 -->
<g id="edge10" class="edge">
<title>Node243&#45;&gt;Node244</title>
<path fill="none" stroke="#191970" d="M1012.2672,-285.3163C1031.5751,-257.6874 1087.1527,-178.1581 1112.3325,-142.1268"/>
<polygon fill="#191970" stroke="#191970" points="1115.4477,-143.7792 1118.307,-133.5774 1109.7099,-139.7694 1115.4477,-143.7792"/>
</g>
<!-- Node246&#45;&gt;Node238 -->
<g id="edge13" class="edge">
<title>Node246&#45;&gt;Node238</title>
<path fill="none" stroke="#191970" d="M635.452,-191.2119C559.7774,-179.7551 429.0803,-159.9683 361.0427,-149.6678"/>
<polygon fill="#191970" stroke="#191970" points="361.4872,-146.1953 351.0759,-148.1589 360.4393,-153.1164 361.4872,-146.1953"/>
</g>
<!-- Node246&#45;&gt;Node242 -->
<g id="edge14" class="edge">
<title>Node246&#45;&gt;Node242</title>
<path fill="none" stroke="#191970" d="M751.8982,-206.9132C765.8904,-208.5696 780.842,-210.3395 794.8671,-211.9998"/>
<polygon fill="#191970" stroke="#191970" points="794.5468,-215.4863 804.8889,-213.1862 795.3698,-208.5348 794.5468,-215.4863"/>
</g>
<!-- Node246&#45;&gt;Node245 -->
<g id="edge15" class="edge">
<title>Node246&#45;&gt;Node245</title>
<path fill="none" stroke="#191970" d="M703.54,-209.5083C730.2244,-234.7795 803.1543,-303.8471 836.6995,-335.6157"/>
<polygon fill="#191970" stroke="#191970" points="834.2964,-338.1604 843.9638,-342.4953 839.1097,-333.0778 834.2964,-338.1604"/>
</g>
<!-- Node247&#45;&gt;Node238 -->
<g id="edge17" class="edge">
<title>Node247&#45;&gt;Node238</title>
<path fill="none" stroke="#191970" d="M483.1819,-128.6479C445.7695,-131.879 396.5047,-136.1337 361.3486,-139.1699"/>
<polygon fill="#191970" stroke="#191970" points="361.0367,-135.6837 351.375,-140.0313 361.6391,-142.6577 361.0367,-135.6837"/>
</g>
<!-- Node247&#45;&gt;Node246 -->
<g id="edge18" class="edge">
<title>Node247&#45;&gt;Node246</title>
<path fill="none" stroke="#191970" d="M559.8882,-133.6112C569.8213,-137.8791 581.5495,-143.0487 592,-148 617.6413,-160.1484 646.3813,-174.9904 666.7158,-185.7036"/>
<polygon fill="#191970" stroke="#191970" points="665.2229,-188.8734 675.6989,-190.4558 668.4962,-182.6859 665.2229,-188.8734"/>
</g>
<!-- Node248 -->
<g id="node12" class="node">
<title>Node248</title>
<g id="a_node12"><a xlink:href="classSpikeMonitorCore.html#a0fc20fcc5876030d796debd148ae7cee" target="_top" xlink:title="returns a list of firing rates for all neurons in the group (sorted by neuron ID ascending) ...">
<polygon fill="#ffffff" stroke="#000000" points="647.5,-95.5 647.5,-114.5 739.5,-114.5 739.5,-95.5 647.5,-95.5"/>
<text text-anchor="middle" x="693.5" y="-102.5" font-family="Helvetica,sans-Serif" font-size="10.00" fill="#000000">getAllFiringRates</text>
</a>
</g>
</g>
<!-- Node247&#45;&gt;Node248 -->
<g id="edge19" class="edge">
<title>Node247&#45;&gt;Node248</title>
<path fill="none" stroke="#191970" d="M590.8584,-117.4613C605.801,-115.6472 622.0621,-113.673 637.1433,-111.842"/>
<polygon fill="#191970" stroke="#191970" points="637.8596,-115.2808 647.3649,-110.6011 637.0159,-108.3319 637.8596,-115.2808"/>
</g>
<!-- Node248&#45;&gt;Node238 -->
<g id="edge20" class="edge">
<title>Node248&#45;&gt;Node238</title>
<path fill="none" stroke="#191970" d="M647.1205,-101.9985C604.1557,-99.9282 538.5499,-98.5723 482,-105 439.2519,-109.8589 391.4515,-121.5826 358.3485,-130.7336"/>
<polygon fill="#191970" stroke="#191970" points="357.2498,-127.4066 348.5688,-133.4805 359.1427,-134.1458 357.2498,-127.4066"/>
</g>
<!-- Node249&#45;&gt;Node238 -->
<g id="edge22" class="edge">
<title>Node249&#45;&gt;Node238</title>
<path fill="none" stroke="#191970" d="M662.6783,-399.5814C619.5162,-411.1191 539.87,-425.4187 482,-395 386.6796,-344.896 337.9461,-212.3411 322.5282,-162.402"/>
<polygon fill="#191970" stroke="#191970" points="325.8057,-161.1446 319.596,-152.5603 319.0972,-163.1434 325.8057,-161.1446"/>
</g>
<!-- Node249&#45;&gt;Node243 -->
<g id="edge23" class="edge">
<title>Node249&#45;&gt;Node243</title>
<path fill="none" stroke="#191970" d="M759.2591,-394.311C804.1544,-394.8895 864.1198,-390.925 913,-371 944.7119,-358.0733 973.9205,-330.3039 990.7118,-312.1526"/>
<polygon fill="#191970" stroke="#191970" points="993.4378,-314.3554 997.5174,-304.5775 988.2306,-309.6773 993.4378,-314.3554"/>
</g>
<!-- Node249&#45;&gt;Node245 -->
<g id="edge24" class="edge">
<title>Node249&#45;&gt;Node245</title>
<path fill="none" stroke="#191970" d="M734.0009,-380.411C755.1806,-375.3965 781.3022,-369.2119 803.7604,-363.8947"/>
<polygon fill="#191970" stroke="#191970" points="804.8657,-367.2299 813.7903,-361.5201 803.2529,-360.4182 804.8657,-367.2299"/>
</g>
<!-- Node250&#45;&gt;Node238 -->
<g id="edge26" class="edge">
<title>Node250&#45;&gt;Node238</title>
<path fill="none" stroke="#191970" d="M411.5002,-19.5917C405.283,-26.6095 394.5676,-34.5329 387,-43 363.7362,-69.0291 342.948,-103.568 330.1866,-124.7204"/>
<polygon fill="#191970" stroke="#191970" points="327.104,-123.0537 324.908,-133.4184 333.0882,-126.6854 327.104,-123.0537"/>
</g>
<!-- Node250&#45;&gt;Node244 -->
<g id="edge27" class="edge">
<title>Node250&#45;&gt;Node244</title>
<path fill="none" stroke="#191970" d="M446.0166,-10C496.651,-10 603.3307,-10 693.5,-10 693.5,-10 693.5,-10 854,-10 954.5183,-10 1060.7561,-77.4622 1104.4297,-108.5935"/>
<polygon fill="#191970" stroke="#191970" points="1102.3927,-111.4397 1112.5431,-114.4765 1106.5019,-105.7727 1102.3927,-111.4397"/>
</g>
<!-- Node251&#45;&gt;Node238 -->
<g id="edge29" class="edge">
<title>Node251&#45;&gt;Node238</title>
<path fill="none" stroke="#191970" d="M247.0531,-132.777C255.6601,-134.0349 264.3836,-135.3099 272.6149,-136.513"/>
<polygon fill="#191970" stroke="#191970" points="272.3314,-140.0086 282.7325,-137.9917 273.3438,-133.0822 272.3314,-140.0086"/>
</g>
</g>
</svg>
