<?xml version="1.0" encoding="UTF-8" standalone="no"?>
<!DOCTYPE svg PUBLIC "-//W3C//DTD SVG 1.1//EN"
 "http://www.w3.org/Graphics/SVG/1.1/DTD/svg11.dtd">
<!-- Generated by graphviz version 2.40.1 (20161225.0304)
 -->
<!-- Title: stopRecording Pages: 1 -->
<svg width="464pt" height="66pt"
 viewBox="0.00 0.00 464.00 66.00" xmlns="http://www.w3.org/2000/svg" xmlns:xlink="http://www.w3.org/1999/xlink">
<g id="graph0" class="graph" transform="scale(1 1) rotate(0) translate(4 62)">
<title>stopRecording</title>
<polygon fill="#ffffff" stroke="transparent" points="-4,4 -4,-62 460,-62 460,4 -4,4"/>
<!-- Node283 -->
<g id="node1" class="node">
<title>Node283</title>
<polygon fill="#bfbfbf" stroke="#000000" points="0,-19.5 0,-38.5 80,-38.5 80,-19.5 0,-19.5"/>
<text text-anchor="middle" x="40" y="-26.5" font-family="Helvetica,sans-Serif" font-size="10.00" fill="#000000">stopRecording</text>
</g>
<!-- Node284 -->
<g id="node2" class="node">
<title>Node284</title>
<g id="a_node2"><a xlink:href="classGroupMonitor.html#a25e0e98dd4519eaaa6b258f0dcb91ac7" target="_top" xlink:title="Ends a recording period. ">
<polygon fill="#ffffff" stroke="#000000" points="116,-38.5 116,-57.5 260,-57.5 260,-38.5 116,-38.5"/>
<text text-anchor="middle" x="188" y="-45.5" font-family="Helvetica,sans-Serif" font-size="10.00" fill="#000000">GroupMonitor::stopRecording</text>
</a>
</g>
</g>
<!-- Node283&#45;&gt;Node284 -->
<g id="edge1" class="edge">
<title>Node283&#45;&gt;Node284</title>
<path fill="none" stroke="#191970" d="M89.9963,-35.4184C98.3637,-36.4926 107.1904,-37.6258 115.9798,-38.7542"/>
<polygon fill="#191970" stroke="#191970" points="90.4152,-31.9436 80.0509,-34.1417 89.5238,-38.8866 90.4152,-31.9436"/>
</g>
<!-- Node285 -->
<g id="node3" class="node">
<title>Node285</title>
<g id="a_node3"><a xlink:href="classGroupMonitorCore.html#a7ac2c997b5281ea2f2bc00cc9706d37c" target="_top" xlink:title="sets status of PersistentData mode ">
<polygon fill="#ffffff" stroke="#000000" points="140.5,-.5 140.5,-19.5 235.5,-19.5 235.5,-.5 140.5,-.5"/>
<text text-anchor="middle" x="188" y="-7.5" font-family="Helvetica,sans-Serif" font-size="10.00" fill="#000000">setPersistentData</text>
</a>
</g>
</g>
<!-- Node283&#45;&gt;Node285 -->
<g id="edge2" class="edge">
<title>Node283&#45;&gt;Node285</title>
<path fill="none" stroke="#191970" d="M90.3807,-22.5322C106.5235,-20.4598 124.3416,-18.1724 140.2878,-16.1252"/>
<polygon fill="#191970" stroke="#191970" points="89.5238,-19.1134 80.0509,-23.8583 90.4152,-26.0564 89.5238,-19.1134"/>
</g>
<!-- Node286 -->
<g id="node4" class="node">
<title>Node286</title>
<g id="a_node4"><a xlink:href="classGroupMonitor.html#a7ac2c997b5281ea2f2bc00cc9706d37c" target="_top" xlink:title="Sets PersistentMode either on (true) or off (false) ">
<polygon fill="#ffffff" stroke="#000000" points="296,-.5 296,-19.5 456,-19.5 456,-.5 296,-.5"/>
<text text-anchor="middle" x="376" y="-7.5" font-family="Helvetica,sans-Serif" font-size="10.00" fill="#000000">GroupMonitor::setPersistentData</text>
</a>
</g>
</g>
<!-- Node285&#45;&gt;Node286 -->
<g id="edge3" class="edge">
<title>Node285&#45;&gt;Node286</title>
<path fill="none" stroke="#191970" d="M245.993,-10C261.6916,-10 278.9686,-10 295.6586,-10"/>
<polygon fill="#191970" stroke="#191970" points="245.9268,-6.5001 235.9268,-10 245.9267,-13.5001 245.9268,-6.5001"/>
</g>
</g>
</svg>
