<?xml version="1.0" encoding="UTF-8" standalone="no"?>
<!DOCTYPE svg PUBLIC "-//W3C//DTD SVG 1.1//EN"
 "http://www.w3.org/Graphics/SVG/1.1/DTD/svg11.dtd">
<!-- Generated by graphviz version 2.40.1 (20161225.0304)
 -->
<!-- Title: isConnectionPlastic Pages: 1 -->
<!--zoomable 104 -->
<svg id="main" version="1.1" xmlns="http://www.w3.org/2000/svg" xmlns:xlink="http://www.w3.org/1999/xlink" xml:space="preserve" onload="init(evt)">
<style type="text/css"><![CDATA[
.edge:hover path { stroke: red; }
.edge:hover polygon { stroke: red; fill: red; }
]]></style>
<script type="text/javascript"><![CDATA[
var edges = document.getElementsByTagName('g');
if (edges && edges.length) {
  for (var i=0;i<edges.length;i++) {
    if (edges[i].id.substr(0,4)=='edge') {
      edges[i].setAttribute('class','edge');
    }
  }
}
]]></script>
        <defs>
                <circle id="rim" cx="0" cy="0" r="7"/>
                <circle id="rim2" cx="0" cy="0" r="3.5"/>
                <g id="zoomPlus">
                        <use xlink:href="#rim" fill="#404040">
                                <set attributeName="fill" to="#808080" begin="zoomplus.mouseover" end="zoomplus.mouseout"/>
                        </use>
                        <path d="M-4,0h8M0,-4v8" fill="none" stroke="white" stroke-width="1.5" pointer-events="none"/>
                </g>
                <g id="zoomMin">
                        <use xlink:href="#rim" fill="#404040">
                                <set attributeName="fill" to="#808080" begin="zoomminus.mouseover" end="zoomminus.mouseout"/>
                        </use>
                        <path d="M-4,0h8" fill="none" stroke="white" stroke-width="1.5" pointer-events="none"/>
                </g>
                <g id="dirArrow">
                        <path fill="none" stroke="white" stroke-width="1.5" d="M0,-3.0v7 M-2.5,-0.5L0,-3.0L2.5,-0.5"/>
                </g>
               <g id="resetDef">
                       <use xlink:href="#rim2" fill="#404040">
                               <set attributeName="fill" to="#808080" begin="reset.mouseover" end="reset.mouseout"/>
                       </use>
               </g>
        </defs>

<script type="text/javascript">
var viewWidth = 1030;
var viewHeight = 104;
var sectionId = 'dynsection-59';
</script>
<script xlink:href="svgpan.js"/>
<svg id="graph" class="graph">
<g id="viewport">
<title>isConnectionPlastic</title>
<polygon fill="#ffffff" stroke="transparent" points="-4,4 -4,-100 1026,-100 1026,4 -4,4"/>
<!-- Node365 -->
<g id="node1" class="node">
<title>Node365</title>
<polygon fill="#bfbfbf" stroke="#000000" points="0,-38.5 0,-57.5 104,-57.5 104,-38.5 0,-38.5"/>
<text text-anchor="middle" x="52" y="-45.5" font-family="Helvetica,sans-Serif" font-size="10.00" fill="#000000">isConnectionPlastic</text>
</g>
<!-- Node366 -->
<g id="node2" class="node">
<title>Node366</title>
<g id="a_node2"><a xlink:href="classCARLsim_1_1Impl.html#a821a04dec998f1fcebcc048d39cc8b21" target="_top" xlink:title="CARLsim::Impl::isConnection\lPlastic">
<polygon fill="#ffffff" stroke="#000000" points="140,-33 140,-63 287,-63 287,-33 140,-33"/>
<text text-anchor="start" x="148" y="-51" font-family="Helvetica,sans-Serif" font-size="10.00" fill="#000000">CARLsim::Impl::isConnection</text>
<text text-anchor="middle" x="213.5" y="-40" font-family="Helvetica,sans-Serif" font-size="10.00" fill="#000000">Plastic</text>
</a>
</g>
</g>
<!-- Node365&#45;&gt;Node366 -->
<g id="edge1" class="edge">
<title>Node365&#45;&gt;Node366</title>
<path fill="none" stroke="#191970" d="M104.4344,-48C112.5769,-48 121.1593,-48 129.7868,-48"/>
<polygon fill="#191970" stroke="#191970" points="129.9118,-51.5001 139.9118,-48 129.9118,-44.5001 129.9118,-51.5001"/>
</g>
<!-- Node367 -->
<g id="node3" class="node">
<title>Node367</title>
<g id="a_node3"><a xlink:href="classUserErrors.html#a4bbedc6c0817d5e59e74e450bf00472c" target="_top" xlink:title="simple wrapper for assert statement ">
<polygon fill="#ffffff" stroke="#000000" points="354.5,-76.5 354.5,-95.5 470.5,-95.5 470.5,-76.5 354.5,-76.5"/>
<text text-anchor="middle" x="412.5" y="-83.5" font-family="Helvetica,sans-Serif" font-size="10.00" fill="#000000">UserErrors::assertTrue</text>
</a>
</g>
</g>
<!-- Node366&#45;&gt;Node367 -->
<g id="edge2" class="edge">
<title>Node366&#45;&gt;Node367</title>
<path fill="none" stroke="#191970" d="M287.0349,-62.0418C308.6335,-66.1662 331.9873,-70.6257 352.6232,-74.5662"/>
<polygon fill="#191970" stroke="#191970" points="352.0367,-78.0174 362.5157,-76.4553 353.3497,-71.1416 352.0367,-78.0174"/>
</g>
<!-- Node368 -->
<g id="node4" class="node">
<title>Node368</title>
<g id="a_node4"><a xlink:href="classCARLsim_1_1Impl.html#a14efb66377e70d7f0f4596c223fbc5cc" target="_top" xlink:title="CARLsim::Impl::getNumConnections">
<polygon fill="#ffffff" stroke="#000000" points="323,-38.5 323,-57.5 502,-57.5 502,-38.5 323,-38.5"/>
<text text-anchor="middle" x="412.5" y="-45.5" font-family="Helvetica,sans-Serif" font-size="10.00" fill="#000000">CARLsim::Impl::getNumConnections</text>
</a>
</g>
</g>
<!-- Node366&#45;&gt;Node368 -->
<g id="edge3" class="edge">
<title>Node366&#45;&gt;Node368</title>
<path fill="none" stroke="#191970" d="M287.0349,-48C295.3906,-48 304.0091,-48 312.6312,-48"/>
<polygon fill="#191970" stroke="#191970" points="312.739,-51.5001 322.739,-48 312.7389,-44.5001 312.739,-51.5001"/>
</g>
<!-- Node372 -->
<g id="node8" class="node">
<title>Node372</title>
<g id="a_node8"><a xlink:href="classSNN.html#a821a04dec998f1fcebcc048d39cc8b21" target="_top" xlink:title="returns whether synapses in connection are fixed (false) or plastic (true) ">
<polygon fill="#ffffff" stroke="#000000" points="347,-.5 347,-19.5 478,-19.5 478,-.5 347,-.5"/>
<text text-anchor="middle" x="412.5" y="-7.5" font-family="Helvetica,sans-Serif" font-size="10.00" fill="#000000">SNN::isConnectionPlastic</text>
</a>
</g>
</g>
<!-- Node366&#45;&gt;Node372 -->
<g id="edge7" class="edge">
<title>Node366&#45;&gt;Node372</title>
<path fill="none" stroke="#191970" d="M287.0349,-33.9582C308.6335,-29.8338 331.9873,-25.3743 352.6232,-21.4338"/>
<polygon fill="#191970" stroke="#191970" points="353.3497,-24.8584 362.5157,-19.5447 352.0367,-17.9826 353.3497,-24.8584"/>
</g>
<!-- Node369 -->
<g id="node5" class="node">
<title>Node369</title>
<g id="a_node5"><a xlink:href="classSNN.html#a14efb66377e70d7f0f4596c223fbc5cc" target="_top" xlink:title="SNN::getNumConnections">
<polygon fill="#ffffff" stroke="#000000" points="538,-38.5 538,-57.5 672,-57.5 672,-38.5 538,-38.5"/>
<text text-anchor="middle" x="605" y="-45.5" font-family="Helvetica,sans-Serif" font-size="10.00" fill="#000000">SNN::getNumConnections</text>
</a>
</g>
</g>
<!-- Node368&#45;&gt;Node369 -->
<g id="edge4" class="edge">
<title>Node368&#45;&gt;Node369</title>
<path fill="none" stroke="#191970" d="M502.2688,-48C510.7703,-48 519.3396,-48 527.7097,-48"/>
<polygon fill="#191970" stroke="#191970" points="527.8027,-51.5001 537.8027,-48 527.8027,-44.5001 527.8027,-51.5001"/>
</g>
<!-- Node370 -->
<g id="node6" class="node">
<title>Node370</title>
<g id="a_node6"><a xlink:href="classSNN.html#a52f149e224abff772962dea6680398e2" target="_top" xlink:title="gets number of connections associated with a connection ID ">
<polygon fill="#ffffff" stroke="#000000" points="708,-38.5 708,-57.5 880,-57.5 880,-38.5 708,-38.5"/>
<text text-anchor="middle" x="794" y="-45.5" font-family="Helvetica,sans-Serif" font-size="10.00" fill="#000000">SNN::getNumSynapticConnections</text>
</a>
</g>
</g>
<!-- Node369&#45;&gt;Node370 -->
<g id="edge5" class="edge">
<title>Node369&#45;&gt;Node370</title>
<path fill="none" stroke="#191970" d="M672.1665,-48C680.4789,-48 689.1,-48 697.7407,-48"/>
<polygon fill="#191970" stroke="#191970" points="697.8759,-51.5001 707.8759,-48 697.8759,-44.5001 697.8759,-51.5001"/>
</g>
<!-- Node371 -->
<g id="node7" class="node">
<title>Node371</title>
<g id="a_node7"><a xlink:href="classSNN.html#a477f99451786873b73e2623b6f89b766" target="_top" xlink:title="deallocates all dynamical structures and exits ">
<polygon fill="#ffffff" stroke="#000000" points="916,-38.5 916,-57.5 1022,-57.5 1022,-38.5 916,-38.5"/>
<text text-anchor="middle" x="969" y="-45.5" font-family="Helvetica,sans-Serif" font-size="10.00" fill="#000000">SNN::exitSimulation</text>
</a>
</g>
</g>
<!-- Node370&#45;&gt;Node371 -->
<g id="edge6" class="edge">
<title>Node370&#45;&gt;Node371</title>
<path fill="none" stroke="#191970" d="M880.2183,-48C888.711,-48 897.2199,-48 905.4247,-48"/>
<polygon fill="#191970" stroke="#191970" points="905.6308,-51.5001 915.6308,-48 905.6308,-44.5001 905.6308,-51.5001"/>
</g>
</g>
</svg>
        <g id="navigator" transform="translate(0 0)" fill="#404254">
                <rect fill="#f2f5e9" fill-opacity="0.5" stroke="#606060" stroke-width=".5" x="0" y="0" width="60" height="60"/>
                <use id="zoomplus" xlink:href="#zoomPlus" x="17" y="9" onmousedown="handleZoom(evt,'in')"/>
                <use id="zoomminus" xlink:href="#zoomMin" x="42" y="9" onmousedown="handleZoom(evt,'out')"/>
                <use id="reset" xlink:href="#resetDef" x="30" y="36" onmousedown="handleReset()"/>
                <g id="arrowUp" xlink:href="#dirArrow" transform="translate(30 24)" onmousedown="handlePan(0,-1)">
                  <use xlink:href="#rim" fill="#404040">
                        <set attributeName="fill" to="#808080" begin="arrowUp.mouseover" end="arrowUp.mouseout"/>
                  </use>
                  <path fill="none" stroke="white" stroke-width="1.5" d="M0,-3.0v7 M-2.5,-0.5L0,-3.0L2.5,-0.5"/>
                </g>
                <g id="arrowRight" xlink:href="#dirArrow" transform="rotate(90) translate(36 -43)" onmousedown="handlePan(1,0)">
                  <use xlink:href="#rim" fill="#404040">
                        <set attributeName="fill" to="#808080" begin="arrowRight.mouseover" end="arrowRight.mouseout"/>
                  </use>
                  <path fill="none" stroke="white" stroke-width="1.5" d="M0,-3.0v7 M-2.5,-0.5L0,-3.0L2.5,-0.5"/>
                </g>
                <g id="arrowDown" xlink:href="#dirArrow" transform="rotate(180) translate(-30 -48)" onmousedown="handlePan(0,1)">
                  <use xlink:href="#rim" fill="#404040">
                        <set attributeName="fill" to="#808080" begin="arrowDown.mouseover" end="arrowDown.mouseout"/>
                  </use>
                  <path fill="none" stroke="white" stroke-width="1.5" d="M0,-3.0v7 M-2.5,-0.5L0,-3.0L2.5,-0.5"/>
                </g>
                <g id="arrowLeft" xlink:href="#dirArrow" transform="rotate(270) translate(-36 17)" onmousedown="handlePan(-1,0)">
                  <use xlink:href="#rim" fill="#404040">
                        <set attributeName="fill" to="#808080" begin="arrowLeft.mouseover" end="arrowLeft.mouseout"/>
                  </use>
                  <path fill="none" stroke="white" stroke-width="1.5" d="M0,-3.0v7 M-2.5,-0.5L0,-3.0L2.5,-0.5"/>
                </g>
        </g>
        <svg viewBox="0 0 15 15" width="100%" height="30px" preserveAspectRatio="xMaxYMin meet">
         <g id="arrow_out" transform="scale(0.3 0.3)">
          <a xlink:href="classCARLsim_a821a04dec998f1fcebcc048d39cc8b21_cgraph_org.svg" target="_base">
           <rect id="button" ry="5" rx="5" y="6" x="6" height="38" width="38"
                fill="#f2f5e9" fill-opacity="0.5" stroke="#606060" stroke-width="1.0"/>
           <path id="arrow"
             d="M 11.500037,31.436501 C 11.940474,20.09759 22.043105,11.32322 32.158766,21.979434 L 37.068811,17.246167 C 37.068811,17.246167 37.088388,32 37.088388,32 L 22.160133,31.978069 C 22.160133,31.978069 26.997745,27.140456 26.997745,27.140456 C 18.528582,18.264221 13.291696,25.230495 11.500037,31.436501 z"
             style="fill:#404040;"/>
          </a>
         </g>
        </svg>
</svg>
