<?xml version="1.0" encoding="UTF-8" standalone="no"?>
<!DOCTYPE svg PUBLIC "-//W3C//DTD SVG 1.1//EN"
 "http://www.w3.org/Graphics/SVG/1.1/DTD/svg11.dtd">
<!-- Generated by graphviz version 2.40.1 (20161225.0304)
 -->
<!-- Title: getNumNeurons Pages: 1 -->
<svg width="582pt" height="79pt"
 viewBox="0.00 0.00 582.00 78.67" xmlns="http://www.w3.org/2000/svg" xmlns:xlink="http://www.w3.org/1999/xlink">
<g id="graph0" class="graph" transform="scale(1 1) rotate(0) translate(4 74.6711)">
<title>getNumNeurons</title>
<polygon fill="#ffffff" stroke="transparent" points="-4,4 -4,-74.6711 578,-74.6711 578,4 -4,4"/>
<!-- Node6 -->
<g id="node1" class="node">
<title>Node6</title>
<polygon fill="#bfbfbf" stroke="#000000" points="0,-38.5 0,-57.5 88,-57.5 88,-38.5 0,-38.5"/>
<text text-anchor="middle" x="44" y="-45.5" font-family="Helvetica,sans-Serif" font-size="10.00" fill="#000000">getNumNeurons</text>
</g>
<!-- Node7 -->
<g id="node2" class="node">
<title>Node7</title>
<g id="a_node2"><a xlink:href="classCARLsim_1_1Impl.html#aec206ed9aaaed83f1d3170f012a86b70" target="_top" xlink:title="CARLsim::Impl::setSpikeRate">
<polygon fill="#ffffff" stroke="#000000" points="264,-38.5 264,-57.5 413,-57.5 413,-38.5 264,-38.5"/>
<text text-anchor="middle" x="338.5" y="-45.5" font-family="Helvetica,sans-Serif" font-size="10.00" fill="#000000">CARLsim::Impl::setSpikeRate</text>
</a>
</g>
</g>
<!-- Node6&#45;&gt;Node7 -->
<g id="edge1" class="edge">
<title>Node6&#45;&gt;Node7</title>
<path fill="none" stroke="#191970" d="M86.2268,-59.9699C98.3226,-62.8676 111.594,-65.547 124,-67 169.9084,-72.3768 181.9452,-70.9306 228,-67 249.7224,-65.1461 273.5881,-61.2776 293.5639,-57.5122"/>
<polygon fill="#191970" stroke="#191970" points="86.9383,-56.54 76.3876,-57.5066 85.2382,-63.3305 86.9383,-56.54"/>
</g>
<!-- Node9 -->
<g id="node4" class="node">
<title>Node9</title>
<g id="a_node4"><a xlink:href="snn__cpu__module_8cpp.html#ac42c21b5ae4b743f8e00b7dfe04dcfe3" target="_top" xlink:title="dvdtLIF">
<polygon fill="#ffffff" stroke="#000000" points="151,-38.5 151,-57.5 201,-57.5 201,-38.5 151,-38.5"/>
<text text-anchor="middle" x="176" y="-45.5" font-family="Helvetica,sans-Serif" font-size="10.00" fill="#000000">dvdtLIF</text>
</a>
</g>
</g>
<!-- Node6&#45;&gt;Node9 -->
<g id="edge3" class="edge">
<title>Node6&#45;&gt;Node9</title>
<path fill="none" stroke="#191970" d="M98.5349,-48C116.6848,-48 136.028,-48 150.8453,-48"/>
<polygon fill="#191970" stroke="#191970" points="98.3213,-44.5001 88.3213,-48 98.3213,-51.5001 98.3213,-44.5001"/>
</g>
<!-- Node10 -->
<g id="node5" class="node">
<title>Node10</title>
<g id="a_node5"><a xlink:href="classSNN.html#aec206ed9aaaed83f1d3170f012a86b70" target="_top" xlink:title="Sets the Poisson spike rate for a group. For information on how to set up spikeRate, see Section Poisson spike generators in the Tutorial. ">
<polygon fill="#ffffff" stroke="#000000" points="124,-.5 124,-19.5 228,-19.5 228,-.5 124,-.5"/>
<text text-anchor="middle" x="176" y="-7.5" font-family="Helvetica,sans-Serif" font-size="10.00" fill="#000000">SNN::setSpikeRate</text>
</a>
</g>
</g>
<!-- Node6&#45;&gt;Node10 -->
<g id="edge4" class="edge">
<title>Node6&#45;&gt;Node10</title>
<path fill="none" stroke="#191970" d="M87.0409,-35.6094C105.1177,-30.4055 125.8195,-24.4459 142.7015,-19.5859"/>
<polygon fill="#191970" stroke="#191970" points="85.9506,-32.2811 77.3092,-38.411 87.8872,-39.0079 85.9506,-32.2811"/>
</g>
<!-- Node8 -->
<g id="node3" class="node">
<title>Node8</title>
<g id="a_node3"><a xlink:href="classCARLsim.html#a04f52d2840105c8ccacf8d378d1695cf" target="_top" xlink:title="Sets a spike rate. ">
<polygon fill="#ffffff" stroke="#000000" points="449,-38.5 449,-57.5 574,-57.5 574,-38.5 449,-38.5"/>
<text text-anchor="middle" x="511.5" y="-45.5" font-family="Helvetica,sans-Serif" font-size="10.00" fill="#000000">CARLsim::setSpikeRate</text>
</a>
</g>
</g>
<!-- Node7&#45;&gt;Node8 -->
<g id="edge2" class="edge">
<title>Node7&#45;&gt;Node8</title>
<path fill="none" stroke="#191970" d="M423.2056,-48C431.8214,-48 440.461,-48 448.7822,-48"/>
<polygon fill="#191970" stroke="#191970" points="423.1228,-44.5001 413.1228,-48 423.1228,-51.5001 423.1228,-44.5001"/>
</g>
<!-- Node10&#45;&gt;Node7 -->
<g id="edge5" class="edge">
<title>Node10&#45;&gt;Node7</title>
<path fill="none" stroke="#191970" d="M226.8714,-21.8961C249.7124,-27.2374 276.2953,-33.4537 297.7893,-38.4799"/>
<polygon fill="#191970" stroke="#191970" points="227.5399,-18.4581 217.0056,-19.589 225.9459,-25.2742 227.5399,-18.4581"/>
</g>
</g>
</svg>
