<?xml version="1.0" encoding="UTF-8" standalone="no"?>
<!DOCTYPE svg PUBLIC "-//W3C//DTD SVG 1.1//EN"
 "http://www.w3.org/Graphics/SVG/1.1/DTD/svg11.dtd">
<!-- Generated by graphviz version 2.40.1 (20161225.0304)
 -->
<!-- Title: setConnectionMonitor Pages: 1 -->
<svg width="633pt" height="408pt"
 viewBox="0.00 0.00 633.00 408.00" xmlns="http://www.w3.org/2000/svg" xmlns:xlink="http://www.w3.org/1999/xlink">
<g id="graph0" class="graph" transform="scale(1 1) rotate(0) translate(4 404)">
<title>setConnectionMonitor</title>
<polygon fill="#ffffff" stroke="transparent" points="-4,4 -4,-404 629,-404 629,4 -4,4"/>
<!-- Node1710 -->
<g id="node1" class="node">
<title>Node1710</title>
<polygon fill="#bfbfbf" stroke="#000000" points="0,-190.5 0,-209.5 112,-209.5 112,-190.5 0,-190.5"/>
<text text-anchor="middle" x="56" y="-197.5" font-family="Helvetica,sans-Serif" font-size="10.00" fill="#000000">setConnectionMonitor</text>
</g>
<!-- Node1711 -->
<g id="node2" class="node">
<title>Node1711</title>
<g id="a_node2"><a xlink:href="classSNN.html#a44b05911f213714c351379021852e12a" target="_top" xlink:title="find connection ID based on pre&#45;post group pair, O(N) ">
<polygon fill="#ffffff" stroke="#000000" points="516.5,-380.5 516.5,-399.5 591.5,-399.5 591.5,-380.5 516.5,-380.5"/>
<text text-anchor="middle" x="554" y="-387.5" font-family="Helvetica,sans-Serif" font-size="10.00" fill="#000000">getConnectId</text>
</a>
</g>
</g>
<!-- Node1710&#45;&gt;Node1711 -->
<g id="edge1" class="edge">
<title>Node1710&#45;&gt;Node1711</title>
<path fill="none" stroke="#191970" d="M61.8766,-209.6309C74.8661,-230.1359 108.0574,-278.4013 148,-305 260.1476,-379.6818 425.2335,-390.6031 505.9729,-391.072"/>
<polygon fill="#191970" stroke="#191970" points="506.3239,-394.5721 516.3255,-391.0768 506.3272,-387.5721 506.3239,-394.5721"/>
</g>
<!-- Node1712 -->
<g id="node3" class="node">
<title>Node1712</title>
<g id="a_node3"><a xlink:href="classSNN.html#ab0367f8ebd4019bf7d34ebddb1563fe7" target="_top" xlink:title="getGroupName">
<polygon fill="#ffffff" stroke="#000000" points="512.5,-342.5 512.5,-361.5 595.5,-361.5 595.5,-342.5 512.5,-342.5"/>
<text text-anchor="middle" x="554" y="-349.5" font-family="Helvetica,sans-Serif" font-size="10.00" fill="#000000">getGroupName</text>
</a>
</g>
</g>
<!-- Node1710&#45;&gt;Node1712 -->
<g id="edge2" class="edge">
<title>Node1710&#45;&gt;Node1712</title>
<path fill="none" stroke="#191970" d="M69.049,-209.6399C104.4659,-235.1999 206.2435,-304.6793 303,-333 369.7047,-352.5246 450.4048,-355.1228 501.9648,-354.2902"/>
<polygon fill="#191970" stroke="#191970" points="502.2686,-357.7846 512.1923,-354.0737 502.1204,-350.7862 502.2686,-357.7846"/>
</g>
<!-- Node1713 -->
<g id="node4" class="node">
<title>Node1713</title>
<g id="a_node4"><a xlink:href="classSNN.html#a477f99451786873b73e2623b6f89b766" target="_top" xlink:title="deallocates all dynamical structures and exits ">
<polygon fill="#ffffff" stroke="#000000" points="515,-.5 515,-19.5 593,-19.5 593,-.5 515,-.5"/>
<text text-anchor="middle" x="554" y="-7.5" font-family="Helvetica,sans-Serif" font-size="10.00" fill="#000000">exitSimulation</text>
</a>
</g>
</g>
<!-- Node1710&#45;&gt;Node1713 -->
<g id="edge3" class="edge">
<title>Node1710&#45;&gt;Node1713</title>
<path fill="none" stroke="#191970" d="M65.6387,-190.1021C96.5788,-159.1073 197.5368,-63.9116 303,-29 370.1466,-6.7724 452.7165,-5.056 504.3687,-6.8"/>
<polygon fill="#191970" stroke="#191970" points="504.4582,-10.3062 514.5888,-7.2042 504.7349,-3.3117 504.4582,-10.3062"/>
</g>
<!-- Node1714 -->
<g id="node5" class="node">
<title>Node1714</title>
<g id="a_node5"><a xlink:href="classConnectionMonitorCore.html#a5e62c217cf681fc744ef481c41f36206" target="_top" xlink:title="sets pointer to connection file ">
<polygon fill="#ffffff" stroke="#000000" points="148,-136 148,-166 267,-166 267,-136 148,-136"/>
<text text-anchor="start" x="156" y="-154" font-family="Helvetica,sans-Serif" font-size="10.00" fill="#000000">ConnectionMonitorCore</text>
<text text-anchor="middle" x="207.5" y="-143" font-family="Helvetica,sans-Serif" font-size="10.00" fill="#000000">::setConnectFileId</text>
</a>
</g>
</g>
<!-- Node1710&#45;&gt;Node1714 -->
<g id="edge4" class="edge">
<title>Node1710&#45;&gt;Node1714</title>
<path fill="none" stroke="#191970" d="M85.5704,-190.436C104.2482,-184.395 128.9834,-176.3948 151.2915,-169.1796"/>
<polygon fill="#191970" stroke="#191970" points="152.5705,-172.4446 161.0082,-166.037 150.4163,-165.7842 152.5705,-172.4446"/>
</g>
<!-- Node1715 -->
<g id="node6" class="node">
<title>Node1715</title>
<g id="a_node6"><a xlink:href="classConnectionMonitorCore.html#a02fd73d861ef2e4aabb38c0c9ff82947" target="_top" xlink:title="ConnectionMonitorCore\l::init">
<polygon fill="#ffffff" stroke="#000000" points="148,-185 148,-215 267,-215 267,-185 148,-185"/>
<text text-anchor="start" x="156" y="-203" font-family="Helvetica,sans-Serif" font-size="10.00" fill="#000000">ConnectionMonitorCore</text>
<text text-anchor="middle" x="207.5" y="-192" font-family="Helvetica,sans-Serif" font-size="10.00" fill="#000000">::init</text>
</a>
</g>
</g>
<!-- Node1710&#45;&gt;Node1715 -->
<g id="edge5" class="edge">
<title>Node1710&#45;&gt;Node1715</title>
<path fill="none" stroke="#191970" d="M112.413,-200C120.6668,-200 129.2488,-200 137.7302,-200"/>
<polygon fill="#191970" stroke="#191970" points="137.9969,-203.5001 147.9969,-200 137.9969,-196.5001 137.9969,-203.5001"/>
</g>
<!-- Node1716 -->
<g id="node7" class="node">
<title>Node1716</title>
<g id="a_node7"><a xlink:href="classSNN.html#a11e19a0ccbeca92ba843a5933b3321e0" target="_top" xlink:title="getGroupNumNeurons">
<polygon fill="#ffffff" stroke="#000000" points="318,-266.5 318,-285.5 432,-285.5 432,-266.5 318,-266.5"/>
<text text-anchor="middle" x="375" y="-273.5" font-family="Helvetica,sans-Serif" font-size="10.00" fill="#000000">getGroupNumNeurons</text>
</a>
</g>
</g>
<!-- Node1715&#45;&gt;Node1716 -->
<g id="edge6" class="edge">
<title>Node1715&#45;&gt;Node1716</title>
<path fill="none" stroke="#191970" d="M228.9543,-215.1973C247.727,-227.8979 276.1236,-245.6984 303,-257 308.7873,-259.4336 314.9698,-261.6276 321.1894,-263.5853"/>
<polygon fill="#191970" stroke="#191970" points="320.3601,-266.9898 330.942,-266.4678 322.3442,-260.2769 320.3601,-266.9898"/>
</g>
<!-- Node1717 -->
<g id="node8" class="node">
<title>Node1717</title>
<g id="a_node8"><a xlink:href="classSNN.html#a821a04dec998f1fcebcc048d39cc8b21" target="_top" xlink:title="returns whether synapses in connection are fixed (false) or plastic (true) ">
<polygon fill="#ffffff" stroke="#000000" points="323,-190.5 323,-209.5 427,-209.5 427,-190.5 323,-190.5"/>
<text text-anchor="middle" x="375" y="-197.5" font-family="Helvetica,sans-Serif" font-size="10.00" fill="#000000">isConnectionPlastic</text>
</a>
</g>
</g>
<!-- Node1715&#45;&gt;Node1717 -->
<g id="edge7" class="edge">
<title>Node1715&#45;&gt;Node1717</title>
<path fill="none" stroke="#191970" d="M267.0259,-200C281.8476,-200 297.7769,-200 312.7271,-200"/>
<polygon fill="#191970" stroke="#191970" points="312.8951,-203.5001 322.8951,-200 312.895,-196.5001 312.8951,-203.5001"/>
</g>
<!-- Node1718 -->
<g id="node9" class="node">
<title>Node1718</title>
<g id="a_node9"><a xlink:href="classSNN.html#a52f149e224abff772962dea6680398e2" target="_top" xlink:title="gets number of connections associated with a connection ID ">
<polygon fill="#ffffff" stroke="#000000" points="303,-38.5 303,-57.5 447,-57.5 447,-38.5 303,-38.5"/>
<text text-anchor="middle" x="375" y="-45.5" font-family="Helvetica,sans-Serif" font-size="10.00" fill="#000000">getNumSynapticConnections</text>
</a>
</g>
</g>
<!-- Node1715&#45;&gt;Node1718 -->
<g id="edge8" class="edge">
<title>Node1715&#45;&gt;Node1718</title>
<path fill="none" stroke="#191970" d="M256.013,-184.8805C260.0489,-182.3517 263.8002,-179.4128 267,-176 301.8951,-138.7818 265.8415,-101.9587 303,-67 304.5183,-65.5716 306.131,-64.2477 307.8202,-63.0209"/>
<polygon fill="#191970" stroke="#191970" points="310.0194,-65.7849 316.8204,-57.661 306.4377,-59.7706 310.0194,-65.7849"/>
</g>
<!-- Node1719 -->
<g id="node10" class="node">
<title>Node1719</title>
<g id="a_node10"><a xlink:href="classSNN.html#acdfe8b1c7c69be228cc51535cfec0215" target="_top" xlink:title="required for homeostasis ">
<polygon fill="#ffffff" stroke="#000000" points="506.5,-38.5 506.5,-57.5 601.5,-57.5 601.5,-38.5 506.5,-38.5"/>
<text text-anchor="middle" x="554" y="-45.5" font-family="Helvetica,sans-Serif" font-size="10.00" fill="#000000">getConnectConfig</text>
</a>
</g>
</g>
<!-- Node1715&#45;&gt;Node1719 -->
<g id="edge10" class="edge">
<title>Node1715&#45;&gt;Node1719</title>
<path fill="none" stroke="#191970" d="M267.1308,-187.1577C335.7312,-172.1834 439.9125,-148.7436 447,-143 476.0379,-119.4684 454.2923,-90.9334 483,-67 487.0612,-63.6142 491.6679,-60.8266 496.5371,-58.5324"/>
<polygon fill="#191970" stroke="#191970" points="498.1566,-61.6548 506.15,-54.7009 495.5648,-55.1523 498.1566,-61.6548"/>
</g>
<!-- Node1720 -->
<g id="node11" class="node">
<title>Node1720</title>
<g id="a_node11"><a xlink:href="classSNN.html#aca55cbeeccd57d4b6de64ca8e1d7d2c5" target="_top" xlink:title="function writes population weights from gIDpre to gIDpost to file fname in binary. ">
<polygon fill="#ffffff" stroke="#000000" points="341,-114.5 341,-133.5 409,-133.5 409,-114.5 341,-114.5"/>
<text text-anchor="middle" x="375" y="-121.5" font-family="Helvetica,sans-Serif" font-size="10.00" fill="#000000">getLogFpInf</text>
</a>
</g>
</g>
<!-- Node1715&#45;&gt;Node1720 -->
<g id="edge11" class="edge">
<title>Node1715&#45;&gt;Node1720</title>
<path fill="none" stroke="#191970" d="M249.1729,-184.9207C255.2845,-182.2167 261.4007,-179.2225 267,-176 284.5681,-165.8893 285.1286,-157.5645 303,-148 311.7083,-143.3395 321.4901,-139.3505 330.9701,-136.0394"/>
<polygon fill="#191970" stroke="#191970" points="332.2827,-139.292 340.6823,-132.8346 330.0891,-132.6445 332.2827,-139.292"/>
</g>
<!-- Node1721 -->
<g id="node12" class="node">
<title>Node1721</title>
<g id="a_node12"><a xlink:href="classSNN.html#a5de043bd478d97d08d1671967cddc551" target="_top" xlink:title="returns file pointer to error log ">
<polygon fill="#ffffff" stroke="#000000" points="340,-76.5 340,-95.5 410,-95.5 410,-76.5 340,-76.5"/>
<text text-anchor="middle" x="375" y="-83.5" font-family="Helvetica,sans-Serif" font-size="10.00" fill="#000000">getLogFpErr</text>
</a>
</g>
</g>
<!-- Node1715&#45;&gt;Node1721 -->
<g id="edge12" class="edge">
<title>Node1715&#45;&gt;Node1721</title>
<path fill="none" stroke="#191970" d="M254.6043,-184.8706C259.0736,-182.3279 263.3069,-179.3889 267,-176 293.0682,-152.0793 275.4842,-127.2404 303,-105 310.686,-98.7876 320.202,-94.5911 329.7697,-91.7606"/>
<polygon fill="#191970" stroke="#191970" points="330.8339,-95.1023 339.6844,-89.2782 329.1337,-88.3119 330.8339,-95.1023"/>
</g>
<!-- Node1722 -->
<g id="node13" class="node">
<title>Node1722</title>
<g id="a_node13"><a xlink:href="classSNN.html#a618dd0ac460a947283a39c3044e727d6" target="_top" xlink:title="returns file pointer to debug log ">
<polygon fill="#ffffff" stroke="#000000" points="337.5,-304.5 337.5,-323.5 412.5,-323.5 412.5,-304.5 337.5,-304.5"/>
<text text-anchor="middle" x="375" y="-311.5" font-family="Helvetica,sans-Serif" font-size="10.00" fill="#000000">getLogFpDeb</text>
</a>
</g>
</g>
<!-- Node1715&#45;&gt;Node1722 -->
<g id="edge13" class="edge">
<title>Node1715&#45;&gt;Node1722</title>
<path fill="none" stroke="#191970" d="M218.6358,-215.3191C234.8209,-236.4586 266.883,-274.3021 303,-295 310.4976,-299.2967 318.9886,-302.645 327.4431,-305.2472"/>
<polygon fill="#191970" stroke="#191970" points="326.7182,-308.678 337.2894,-307.9713 328.5848,-301.9315 326.7182,-308.678"/>
</g>
<!-- Node1723 -->
<g id="node14" class="node">
<title>Node1723</title>
<g id="a_node14"><a xlink:href="classSNN.html#acd2fe569d2092f6e9cf624d18b93b1bf" target="_top" xlink:title="returns file pointer to log file ">
<polygon fill="#ffffff" stroke="#000000" points="338.5,-228.5 338.5,-247.5 411.5,-247.5 411.5,-228.5 338.5,-228.5"/>
<text text-anchor="middle" x="375" y="-235.5" font-family="Helvetica,sans-Serif" font-size="10.00" fill="#000000">getLogFpLog</text>
</a>
</g>
</g>
<!-- Node1715&#45;&gt;Node1723 -->
<g id="edge14" class="edge">
<title>Node1715&#45;&gt;Node1723</title>
<path fill="none" stroke="#191970" d="M267.0259,-213.5044C287.1119,-218.0612 309.232,-223.0795 328.1927,-227.381"/>
<polygon fill="#191970" stroke="#191970" points="327.5529,-230.8247 338.0794,-229.624 329.1016,-223.9982 327.5529,-230.8247"/>
</g>
<!-- Node1718&#45;&gt;Node1713 -->
<g id="edge9" class="edge">
<title>Node1718&#45;&gt;Node1713</title>
<path fill="none" stroke="#191970" d="M420.1693,-38.411C446.0671,-32.9131 478.5903,-26.0088 505.0901,-20.3831"/>
<polygon fill="#191970" stroke="#191970" points="505.8699,-23.7956 514.9251,-18.2952 504.4162,-16.9482 505.8699,-23.7956"/>
</g>
<!-- Node1723&#45;&gt;Node1711 -->
<g id="edge16" class="edge">
<title>Node1723&#45;&gt;Node1711</title>
<path fill="none" stroke="#191970" d="M411.8275,-240.5532C424.3481,-243.133 437.5488,-247.9908 447,-257 485.4591,-293.6607 444.6046,-334.2726 483,-371 489.4985,-377.2162 497.8,-381.4498 506.4193,-384.3212"/>
<polygon fill="#191970" stroke="#191970" points="505.6361,-387.7358 516.2065,-387.0175 507.4953,-380.9872 505.6361,-387.7358"/>
</g>
<!-- Node1723&#45;&gt;Node1712 -->
<g id="edge23" class="edge">
<title>Node1723&#45;&gt;Node1712</title>
<path fill="none" stroke="#191970" d="M411.5462,-241.3645C423.8943,-244.0326 437.0559,-248.7389 447,-257 475.7492,-280.8835 454.2923,-309.0666 483,-333 488.7274,-337.7749 495.5396,-341.3599 502.643,-344.0494"/>
<polygon fill="#191970" stroke="#191970" points="501.8442,-347.4687 512.4353,-347.1895 503.9817,-340.8031 501.8442,-347.4687"/>
</g>
<!-- Node1723&#45;&gt;Node1719 -->
<g id="edge17" class="edge">
<title>Node1723&#45;&gt;Node1719</title>
<path fill="none" stroke="#191970" d="M411.8248,-235.896C424.4953,-233.3764 437.7952,-228.4421 447,-219 495.4619,-169.2888 434.6245,-116.7952 483,-67 486.9455,-62.9387 491.6566,-59.7144 496.7491,-57.1591"/>
<polygon fill="#191970" stroke="#191970" points="498.3329,-60.292 506.2449,-53.2456 495.6656,-53.8201 498.3329,-60.292"/>
</g>
<!-- Node1724 -->
<g id="node15" class="node">
<title>Node1724</title>
<g id="a_node15"><a xlink:href="classSNN.html#a2f4a65f43d2b15b984464dfb19959fe3" target="_top" xlink:title="Sets the file pointers for all log files file pointer NULL means don&#39;t change it. ...">
<polygon fill="#ffffff" stroke="#000000" points="523,-152.5 523,-171.5 585,-171.5 585,-152.5 523,-152.5"/>
<text text-anchor="middle" x="554" y="-159.5" font-family="Helvetica,sans-Serif" font-size="10.00" fill="#000000">setLogsFp</text>
</a>
</g>
</g>
<!-- Node1723&#45;&gt;Node1724 -->
<g id="edge15" class="edge">
<title>Node1723&#45;&gt;Node1724</title>
<path fill="none" stroke="#191970" d="M411.7087,-232.4295C423.5309,-229.5841 436.3247,-225.3298 447,-219 467.0111,-207.1346 463.0095,-192.9001 483,-181 492.0457,-175.6152 502.6348,-171.7278 512.8332,-168.932"/>
<polygon fill="#191970" stroke="#191970" points="513.9487,-172.2624 522.8297,-166.485 512.2843,-165.4631 513.9487,-172.2624"/>
</g>
<!-- Node1725 -->
<g id="node16" class="node">
<title>Node1725</title>
<g id="a_node16"><a xlink:href="classSNN.html#a37221c7881b5fa8d1d806804fb9521ab" target="_top" xlink:title="getConnSTDPInfo">
<polygon fill="#ffffff" stroke="#000000" points="505.5,-114.5 505.5,-133.5 602.5,-133.5 602.5,-114.5 505.5,-114.5"/>
<text text-anchor="middle" x="554" y="-121.5" font-family="Helvetica,sans-Serif" font-size="10.00" fill="#000000">getConnSTDPInfo</text>
</a>
</g>
</g>
<!-- Node1723&#45;&gt;Node1725 -->
<g id="edge18" class="edge">
<title>Node1723&#45;&gt;Node1725</title>
<path fill="none" stroke="#191970" d="M411.5462,-234.6355C423.8943,-231.9674 437.0559,-227.2611 447,-219 475.7492,-195.1165 454.2923,-166.9334 483,-143 486.9418,-139.7138 491.3974,-136.9911 496.1082,-134.7361"/>
<polygon fill="#191970" stroke="#191970" points="497.4696,-137.9609 505.4137,-130.9508 494.8319,-131.4769 497.4696,-137.9609"/>
</g>
<!-- Node1726 -->
<g id="node17" class="node">
<title>Node1726</title>
<g id="a_node17"><a xlink:href="classSNN.html#aee3e497537bc8121f6c0c8fb3730ae72" target="_top" xlink:title="returns the RangeDelay struct of a connection ">
<polygon fill="#ffffff" stroke="#000000" points="512,-76.5 512,-95.5 596,-95.5 596,-76.5 512,-76.5"/>
<text text-anchor="middle" x="554" y="-83.5" font-family="Helvetica,sans-Serif" font-size="10.00" fill="#000000">getDelayRange</text>
</a>
</g>
</g>
<!-- Node1723&#45;&gt;Node1726 -->
<g id="edge19" class="edge">
<title>Node1723&#45;&gt;Node1726</title>
<path fill="none" stroke="#191970" d="M411.8275,-235.4468C424.3481,-232.867 437.5488,-228.0092 447,-219 485.4591,-182.3393 444.6046,-141.7274 483,-105 488.3884,-99.8457 495.0165,-96.0545 502.0374,-93.2726"/>
<polygon fill="#191970" stroke="#191970" points="503.3684,-96.5194 511.7754,-90.0717 501.1825,-89.8695 503.3684,-96.5194"/>
</g>
<!-- Node1727 -->
<g id="node18" class="node">
<title>Node1727</title>
<g id="a_node18"><a xlink:href="classSNN.html#a317da03ce4b0b13d9621e277f468e058" target="_top" xlink:title="Returns the delay information for all synaptic connections between a pre&#45;synaptic and a post&#45;synaptic...">
<polygon fill="#ffffff" stroke="#000000" points="523.5,-304.5 523.5,-323.5 584.5,-323.5 584.5,-304.5 523.5,-304.5"/>
<text text-anchor="middle" x="554" y="-311.5" font-family="Helvetica,sans-Serif" font-size="10.00" fill="#000000">getDelays</text>
</a>
</g>
</g>
<!-- Node1723&#45;&gt;Node1727 -->
<g id="edge20" class="edge">
<title>Node1723&#45;&gt;Node1727</title>
<path fill="none" stroke="#191970" d="M411.7087,-243.5705C423.5309,-246.4159 436.3247,-250.6702 447,-257 467.0111,-268.8654 463.0095,-283.0999 483,-295 492.223,-300.4903 503.0506,-304.424 513.4325,-307.2312"/>
<polygon fill="#191970" stroke="#191970" points="512.64,-310.6404 523.1828,-309.5915 514.287,-303.8369 512.64,-310.6404"/>
</g>
<!-- Node1728 -->
<g id="node19" class="node">
<title>Node1728</title>
<g id="a_node19"><a xlink:href="classSNN.html#ac13b30c40669d3cb8264bd6e211b449d" target="_top" xlink:title="getGroupGrid3D">
<polygon fill="#ffffff" stroke="#000000" points="510.5,-266.5 510.5,-285.5 597.5,-285.5 597.5,-266.5 510.5,-266.5"/>
<text text-anchor="middle" x="554" y="-273.5" font-family="Helvetica,sans-Serif" font-size="10.00" fill="#000000">getGroupGrid3D</text>
</a>
</g>
</g>
<!-- Node1723&#45;&gt;Node1728 -->
<g id="edge21" class="edge">
<title>Node1723&#45;&gt;Node1728</title>
<path fill="none" stroke="#191970" d="M411.6553,-245.7816C437.2739,-251.2202 471.8925,-258.5693 500.5746,-264.6583"/>
<polygon fill="#191970" stroke="#191970" points="499.9389,-268.1013 510.4477,-266.7543 501.3926,-261.2539 499.9389,-268.1013"/>
</g>
<!-- Node1729 -->
<g id="node20" class="node">
<title>Node1729</title>
<g id="a_node20"><a xlink:href="classSNN.html#a757c874860e9e4d5ce0716e76b1a3e78" target="_top" xlink:title="getGroupId">
<polygon fill="#ffffff" stroke="#000000" points="521.5,-228.5 521.5,-247.5 586.5,-247.5 586.5,-228.5 521.5,-228.5"/>
<text text-anchor="middle" x="554" y="-235.5" font-family="Helvetica,sans-Serif" font-size="10.00" fill="#000000">getGroupId</text>
</a>
</g>
</g>
<!-- Node1723&#45;&gt;Node1729 -->
<g id="edge22" class="edge">
<title>Node1723&#45;&gt;Node1729</title>
<path fill="none" stroke="#191970" d="M411.6553,-238C440.4762,-238 480.6877,-238 511.0229,-238"/>
<polygon fill="#191970" stroke="#191970" points="511.3061,-241.5001 521.3061,-238 511.3061,-234.5001 511.3061,-241.5001"/>
</g>
<!-- Node1730 -->
<g id="node21" class="node">
<title>Node1730</title>
<g id="a_node21"><a xlink:href="classSNN.html#aa1c9457d6e17337cfc20cee263f1159f" target="_top" xlink:title="getGroupNeuromodulatorInfo">
<polygon fill="#ffffff" stroke="#000000" points="483,-190.5 483,-209.5 625,-209.5 625,-190.5 483,-190.5"/>
<text text-anchor="middle" x="554" y="-197.5" font-family="Helvetica,sans-Serif" font-size="10.00" fill="#000000">getGroupNeuromodulatorInfo</text>
</a>
</g>
</g>
<!-- Node1723&#45;&gt;Node1730 -->
<g id="edge24" class="edge">
<title>Node1723&#45;&gt;Node1730</title>
<path fill="none" stroke="#191970" d="M411.6553,-230.2184C436.9079,-224.8575 470.9052,-217.6402 499.3417,-211.6034"/>
<polygon fill="#191970" stroke="#191970" points="500.0896,-215.0228 509.1447,-209.5223 498.6359,-208.1754 500.0896,-215.0228"/>
</g>
</g>
</svg>
