<?xml version="1.0" encoding="UTF-8" standalone="no"?>
<!DOCTYPE svg PUBLIC "-//W3C//DTD SVG 1.1//EN"
 "http://www.w3.org/Graphics/SVG/1.1/DTD/svg11.dtd">
<!-- Generated by graphviz version 2.40.1 (20161225.0304)
 -->
<!-- Title: getNumWeightsWithValue Pages: 1 -->
<svg width="733pt" height="119pt"
 viewBox="0.00 0.00 733.00 119.20" xmlns="http://www.w3.org/2000/svg" xmlns:xlink="http://www.w3.org/1999/xlink">
<g id="graph0" class="graph" transform="scale(1 1) rotate(0) translate(4 115.1991)">
<title>getNumWeightsWithValue</title>
<polygon fill="#ffffff" stroke="transparent" points="-4,4 -4,-115.1991 729,-115.1991 729,4 -4,4"/>
<!-- Node140 -->
<g id="node1" class="node">
<title>Node140</title>
<polygon fill="#bfbfbf" stroke="#000000" points="0,-34.6991 0,-53.6991 132,-53.6991 132,-34.6991 0,-34.6991"/>
<text text-anchor="middle" x="66" y="-41.6991" font-family="Helvetica,sans-Serif" font-size="10.00" fill="#000000">getNumWeightsWithValue</text>
</g>
<!-- Node141 -->
<g id="node2" class="node">
<title>Node141</title>
<g id="a_node2"><a xlink:href="classConnectionMonitorCore.html#aa096d9983144b3323d6f370e37b0859c" target="_top" xlink:title="returns min weight in the connection (getCurrent=false: RangeWeight.min, true: current smallest) ...">
<polygon fill="#ffffff" stroke="#000000" points="337,-91.6991 337,-110.6991 414,-110.6991 414,-91.6991 337,-91.6991"/>
<text text-anchor="middle" x="375.5" y="-98.6991" font-family="Helvetica,sans-Serif" font-size="10.00" fill="#000000">getMinWeight</text>
</a>
</g>
</g>
<!-- Node140&#45;&gt;Node141 -->
<g id="edge1" class="edge">
<title>Node140&#45;&gt;Node141</title>
<path fill="none" stroke="#191970" d="M103.6399,-53.752C122.8301,-58.4449 146.5809,-63.9819 168,-68.1991 222.0592,-78.8428 284.5625,-88.4146 326.7259,-94.4741"/>
<polygon fill="#191970" stroke="#191970" points="326.3304,-97.953 336.7244,-95.9 327.3187,-91.0231 326.3304,-97.953"/>
</g>
<!-- Node142 -->
<g id="node3" class="node">
<title>Node142</title>
<g id="a_node3"><a xlink:href="classConnectionMonitorCore.html#a30f10c789ec0f272848c2a68cd35fa97" target="_top" xlink:title="returns max weight in the connection (getCurrent=false: RangeWeight.max, true: current largest) ...">
<polygon fill="#ffffff" stroke="#000000" points="335.5,-53.6991 335.5,-72.6991 415.5,-72.6991 415.5,-53.6991 335.5,-53.6991"/>
<text text-anchor="middle" x="375.5" y="-60.6991" font-family="Helvetica,sans-Serif" font-size="10.00" fill="#000000">getMaxWeight</text>
</a>
</g>
</g>
<!-- Node140&#45;&gt;Node142 -->
<g id="edge2" class="edge">
<title>Node140&#45;&gt;Node142</title>
<path fill="none" stroke="#191970" d="M132.0159,-48.2518C189.7695,-51.7972 272.4278,-56.8716 325.0278,-60.1006"/>
<polygon fill="#191970" stroke="#191970" points="324.935,-63.6014 335.1307,-60.7209 325.364,-56.6146 324.935,-63.6014"/>
</g>
<!-- Node143 -->
<g id="node4" class="node">
<title>Node143</title>
<g id="a_node4"><a xlink:href="classConnectionMonitorCore.html#a6c63078d9c2226cd48f51e4d4ed0d4db" target="_top" xlink:title="returns number of weights with values in range e[minVal,maxVal] (inclusive) ">
<polygon fill="#ffffff" stroke="#000000" points="168,-15.6991 168,-34.6991 292,-34.6991 292,-15.6991 168,-15.6991"/>
<text text-anchor="middle" x="230" y="-22.6991" font-family="Helvetica,sans-Serif" font-size="10.00" fill="#000000">getNumWeightsInRange</text>
</a>
</g>
</g>
<!-- Node140&#45;&gt;Node143 -->
<g id="edge3" class="edge">
<title>Node140&#45;&gt;Node143</title>
<path fill="none" stroke="#191970" d="M132.2324,-36.5258C140.5749,-35.5593 149.1438,-34.5666 157.5757,-33.5897"/>
<polygon fill="#191970" stroke="#191970" points="158.2377,-37.0365 167.7684,-32.4089 157.4321,-30.083 158.2377,-37.0365"/>
</g>
<!-- Node143&#45;&gt;Node141 -->
<g id="edge4" class="edge">
<title>Node143&#45;&gt;Node141</title>
<path fill="none" stroke="#191970" d="M244.9008,-34.7904C263.7918,-46.7319 297.5704,-67.3625 328,-82.1991 331.862,-84.0821 335.9605,-85.9319 340.0683,-87.6938"/>
<polygon fill="#191970" stroke="#191970" points="338.9844,-91.033 349.563,-91.6197 341.6592,-84.5641 338.9844,-91.033"/>
</g>
<!-- Node143&#45;&gt;Node142 -->
<g id="edge5" class="edge">
<title>Node143&#45;&gt;Node142</title>
<path fill="none" stroke="#191970" d="M266.7158,-34.7881C285.6566,-39.7349 308.9572,-45.8202 329.1285,-51.0883"/>
<polygon fill="#191970" stroke="#191970" points="328.4883,-54.5385 339.0482,-53.6791 330.2572,-47.7656 328.4883,-54.5385"/>
</g>
<!-- Node144 -->
<g id="node5" class="node">
<title>Node144</title>
<g id="a_node5"><a xlink:href="classConnectionMonitorCore.html#a7373a8cecde25ccd48b3df967b5b0417" target="_top" xlink:title="returns number of synapses that exist in the connection ">
<polygon fill="#ffffff" stroke="#000000" points="328,-15.6991 328,-34.6991 423,-34.6991 423,-15.6991 328,-15.6991"/>
<text text-anchor="middle" x="375.5" y="-22.6991" font-family="Helvetica,sans-Serif" font-size="10.00" fill="#000000">getNumSynapses</text>
</a>
</g>
</g>
<!-- Node143&#45;&gt;Node144 -->
<g id="edge6" class="edge">
<title>Node143&#45;&gt;Node144</title>
<path fill="none" stroke="#191970" d="M292.1271,-18.5135C300.5836,-18.4103 309.2358,-18.4311 317.6133,-18.5759"/>
<polygon fill="#191970" stroke="#191970" points="317.5841,-22.0761 327.6642,-18.814 317.7499,-15.0781 317.5841,-22.0761"/>
</g>
<!-- Node144&#45;&gt;Node140 -->
<g id="edge10" class="edge">
<title>Node144&#45;&gt;Node140</title>
<path fill="none" stroke="#191970" d="M341.6694,-15.6916C326.5979,-11.927 308.5471,-8.0579 292,-6.1991 237.2334,-.0468 222.2373,3.5758 168,-6.1991 142.2683,-10.8366 114.5563,-21.5612 94.5208,-30.4385"/>
<polygon fill="#191970" stroke="#191970" points="92.9972,-27.2865 85.3442,-34.6134 95.8959,-33.6581 92.9972,-27.2865"/>
</g>
<!-- Node144&#45;&gt;Node143 -->
<g id="edge9" class="edge">
<title>Node144&#45;&gt;Node143</title>
<path fill="none" stroke="#191970" d="M327.6642,-31.5842C319.4991,-31.8325 310.8577,-31.9541 302.2262,-31.9489"/>
<polygon fill="#191970" stroke="#191970" points="302.1492,-28.4485 292.1271,-31.8847 302.1046,-35.4483 302.1492,-28.4485"/>
</g>
<!-- Node145 -->
<g id="node6" class="node">
<title>Node145</title>
<g id="a_node6"><a xlink:href="classConnectionMonitorCore.html#ad094dca7a9d2ac2c46e89f1035706eba" target="_top" xlink:title="returns number of weights with &gt;=minAbsChanged weight change since last snapshot ">
<polygon fill="#ffffff" stroke="#000000" points="459,-15.6991 459,-34.6991 585,-34.6991 585,-15.6991 459,-15.6991"/>
<text text-anchor="middle" x="522" y="-22.6991" font-family="Helvetica,sans-Serif" font-size="10.00" fill="#000000">getNumWeightsChanged</text>
</a>
</g>
</g>
<!-- Node144&#45;&gt;Node145 -->
<g id="edge7" class="edge">
<title>Node144&#45;&gt;Node145</title>
<path fill="none" stroke="#191970" d="M423.0644,-25.1991C431.2913,-25.1991 440.0132,-25.1991 448.7354,-25.1991"/>
<polygon fill="#191970" stroke="#191970" points="448.945,-28.6992 458.945,-25.1991 448.945,-21.6992 448.945,-28.6992"/>
</g>
<!-- Node146 -->
<g id="node7" class="node">
<title>Node146</title>
<g id="a_node7"><a xlink:href="classConnectionMonitorCore.html#a730c0ec47d470c8920ab57288c31ca3b" target="_top" xlink:title="calculates weight changes since last snapshot and reports them in 2D weight change matrix ...">
<polygon fill="#ffffff" stroke="#000000" points="621,-15.6991 621,-34.6991 725,-34.6991 725,-15.6991 621,-15.6991"/>
<text text-anchor="middle" x="673" y="-22.6991" font-family="Helvetica,sans-Serif" font-size="10.00" fill="#000000">calcWeightChanges</text>
</a>
</g>
</g>
<!-- Node145&#45;&gt;Node146 -->
<g id="edge8" class="edge">
<title>Node145&#45;&gt;Node146</title>
<path fill="none" stroke="#191970" d="M585.1627,-25.1991C593.5511,-25.1991 602.1485,-25.1991 610.5252,-25.1991"/>
<polygon fill="#191970" stroke="#191970" points="610.6047,-28.6992 620.6047,-25.1991 610.6047,-21.6992 610.6047,-28.6992"/>
</g>
</g>
</svg>
