<?xml version="1.0" encoding="UTF-8" standalone="no"?>
<!DOCTYPE svg PUBLIC "-//W3C//DTD SVG 1.1//EN"
 "http://www.w3.org/Graphics/SVG/1.1/DTD/svg11.dtd">
<!-- Generated by graphviz version 2.40.1 (20161225.0304)
 -->
<!-- Title: getConductanceConfig Pages: 1 -->
<svg width="635pt" height="66pt"
 viewBox="0.00 0.00 635.00 66.00" xmlns="http://www.w3.org/2000/svg" xmlns:xlink="http://www.w3.org/1999/xlink">
<g id="graph0" class="graph" transform="scale(1 1) rotate(0) translate(4 62)">
<title>getConductanceConfig</title>
<polygon fill="#ffffff" stroke="transparent" points="-4,4 -4,-62 631,-62 631,4 -4,4"/>
<!-- Node114 -->
<g id="node1" class="node">
<title>Node114</title>
<polygon fill="#bfbfbf" stroke="#000000" points="0,-19.5 0,-38.5 116,-38.5 116,-19.5 0,-19.5"/>
<text text-anchor="middle" x="58" y="-26.5" font-family="Helvetica,sans-Serif" font-size="10.00" fill="#000000">getConductanceConfig</text>
</g>
<!-- Node115 -->
<g id="node2" class="node">
<title>Node115</title>
<g id="a_node2"><a xlink:href="classCARLsim_1_1Impl.html#a00ecb4d15c32a4c7327f2efae5157e79" target="_top" xlink:title="CARLsim::Impl::getConductance\lConfig">
<polygon fill="#ffffff" stroke="#000000" points="152,-14 152,-44 313,-44 313,-14 152,-14"/>
<text text-anchor="start" x="160" y="-32" font-family="Helvetica,sans-Serif" font-size="10.00" fill="#000000">CARLsim::Impl::getConductance</text>
<text text-anchor="middle" x="232.5" y="-21" font-family="Helvetica,sans-Serif" font-size="10.00" fill="#000000">Config</text>
</a>
</g>
</g>
<!-- Node114&#45;&gt;Node115 -->
<g id="edge1" class="edge">
<title>Node114&#45;&gt;Node115</title>
<path fill="none" stroke="#191970" d="M116.106,-29C124.3722,-29 133.0327,-29 141.7399,-29"/>
<polygon fill="#191970" stroke="#191970" points="141.962,-32.5001 151.962,-29 141.962,-25.5001 141.962,-32.5001"/>
</g>
<!-- Node116 -->
<g id="node3" class="node">
<title>Node116</title>
<g id="a_node3"><a xlink:href="classSNN.html#aaee4444a6b301f4d169f14513a36c496" target="_top" xlink:title="SNN::isGroupWithCOBA">
<polygon fill="#ffffff" stroke="#000000" points="357.5,-38.5 357.5,-57.5 484.5,-57.5 484.5,-38.5 357.5,-38.5"/>
<text text-anchor="middle" x="421" y="-45.5" font-family="Helvetica,sans-Serif" font-size="10.00" fill="#000000">SNN::isGroupWithCOBA</text>
</a>
</g>
</g>
<!-- Node115&#45;&gt;Node116 -->
<g id="edge2" class="edge">
<title>Node115&#45;&gt;Node116</title>
<path fill="none" stroke="#191970" d="M313.2613,-37.1404C324.5841,-38.2817 336.1722,-39.4497 347.3535,-40.5767"/>
<polygon fill="#191970" stroke="#191970" points="347.1878,-44.0777 357.4884,-41.5983 347.8898,-37.113 347.1878,-44.0777"/>
</g>
<!-- Node118 -->
<g id="node5" class="node">
<title>Node118</title>
<g id="a_node5"><a xlink:href="classSNN.html#a7a866f1e1fd2e231a7f5e1db883f32a6" target="_top" xlink:title="SNN::getConductanceConfig">
<polygon fill="#ffffff" stroke="#000000" points="349,-.5 349,-19.5 493,-19.5 493,-.5 349,-.5"/>
<text text-anchor="middle" x="421" y="-7.5" font-family="Helvetica,sans-Serif" font-size="10.00" fill="#000000">SNN::getConductanceConfig</text>
</a>
</g>
</g>
<!-- Node115&#45;&gt;Node118 -->
<g id="edge4" class="edge">
<title>Node115&#45;&gt;Node118</title>
<path fill="none" stroke="#191970" d="M313.2613,-20.8596C321.6441,-20.0147 330.1723,-19.155 338.5732,-18.3083"/>
<polygon fill="#191970" stroke="#191970" points="339.1404,-21.7689 348.739,-17.2836 338.4384,-14.8042 339.1404,-21.7689"/>
</g>
<!-- Node117 -->
<g id="node4" class="node">
<title>Node117</title>
<g id="a_node4"><a xlink:href="classSNN.html#a9b8aa1975049078149d963fb8eb06215" target="_top" xlink:title="SNN::isGroupWith">
<polygon fill="#ffffff" stroke="#000000" points="529,-38.5 529,-57.5 627,-57.5 627,-38.5 529,-38.5"/>
<text text-anchor="middle" x="578" y="-45.5" font-family="Helvetica,sans-Serif" font-size="10.00" fill="#000000">SNN::isGroupWith</text>
</a>
</g>
</g>
<!-- Node116&#45;&gt;Node117 -->
<g id="edge3" class="edge">
<title>Node116&#45;&gt;Node117</title>
<path fill="none" stroke="#191970" d="M484.8579,-48C495.9235,-48 507.3914,-48 518.3398,-48"/>
<polygon fill="#191970" stroke="#191970" points="518.6474,-51.5001 528.6474,-48 518.6473,-44.5001 518.6474,-51.5001"/>
</g>
</g>
</svg>
