<?xml version="1.0" encoding="UTF-8" standalone="no"?>
<!DOCTYPE svg PUBLIC "-//W3C//DTD SVG 1.1//EN"
 "http://www.w3.org/Graphics/SVG/1.1/DTD/svg11.dtd">
<!-- Generated by graphviz version 2.40.1 (20161225.0304)
 -->
<!-- Title: startRecording Pages: 1 -->
<svg width="967pt" height="389pt"
 viewBox="0.00 0.00 967.00 389.00" xmlns="http://www.w3.org/2000/svg" xmlns:xlink="http://www.w3.org/1999/xlink">
<g id="graph0" class="graph" transform="scale(1 1) rotate(0) translate(4 385)">
<title>startRecording</title>
<polygon fill="#ffffff" stroke="transparent" points="-4,4 -4,-385 963,-385 963,4 -4,4"/>
<!-- Node626 -->
<g id="node1" class="node">
<title>Node626</title>
<polygon fill="#bfbfbf" stroke="#000000" points="0,-156.5 0,-175.5 80,-175.5 80,-156.5 0,-156.5"/>
<text text-anchor="middle" x="40" y="-163.5" font-family="Helvetica,sans-Serif" font-size="10.00" fill="#000000">startRecording</text>
</g>
<!-- Node627 -->
<g id="node2" class="node">
<title>Node627</title>
<g id="a_node2"><a xlink:href="classNeuronMonitorCore.html#a3a3ffdb35b09328d22e5d72503ed1f55" target="_top" xlink:title="returns recording status ">
<polygon fill="#ffffff" stroke="#000000" points="116,-156.5 116,-175.5 184,-175.5 184,-156.5 116,-156.5"/>
<text text-anchor="middle" x="150" y="-163.5" font-family="Helvetica,sans-Serif" font-size="10.00" fill="#000000">isRecording</text>
</a>
</g>
</g>
<!-- Node626&#45;&gt;Node627 -->
<g id="edge1" class="edge">
<title>Node626&#45;&gt;Node627</title>
<path fill="none" stroke="#191970" d="M80.0237,-159.4775C88.4088,-159.2168 97.2966,-159.1802 105.823,-159.3675"/>
<polygon fill="#191970" stroke="#191970" points="105.8748,-162.8711 115.9862,-159.7072 106.1087,-155.875 105.8748,-162.8711"/>
</g>
<!-- Node630 -->
<g id="node5" class="node">
<title>Node630</title>
<g id="a_node5"><a xlink:href="classSNN.html#a8dd319bdd9a54e38f9254cbec099c30a" target="_top" xlink:title="copy required neuron state values from ??? buffer to ??? buffer ">
<polygon fill="#ffffff" stroke="#000000" points="342,-252.5 342,-271.5 479,-271.5 479,-252.5 342,-252.5"/>
<text text-anchor="middle" x="410.5" y="-259.5" font-family="Helvetica,sans-Serif" font-size="10.00" fill="#000000">SNN::updateNeuronMonitor</text>
</a>
</g>
</g>
<!-- Node626&#45;&gt;Node630 -->
<g id="edge40" class="edge">
<title>Node626&#45;&gt;Node630</title>
<path fill="none" stroke="#191970" d="M48.9484,-175.6195C73.3656,-201.0679 144.3856,-269.856 220,-294 275.2805,-311.6513 342.8649,-290.8206 380.8637,-275.4654"/>
<polygon fill="#191970" stroke="#191970" points="382.4383,-278.6007 390.312,-271.5115 379.736,-272.1433 382.4383,-278.6007"/>
</g>
<!-- Node633 -->
<g id="node8" class="node">
<title>Node633</title>
<g id="a_node8"><a xlink:href="classSNN.html#a424b0cf29d7dba87e4ebf244399acad0" target="_top" xlink:title="SNN::getSimTimeMs">
<polygon fill="#ffffff" stroke="#000000" points="517,-57.5 517,-76.5 627,-76.5 627,-57.5 517,-57.5"/>
<text text-anchor="middle" x="572" y="-64.5" font-family="Helvetica,sans-Serif" font-size="10.00" fill="#000000">SNN::getSimTimeMs</text>
</a>
</g>
</g>
<!-- Node626&#45;&gt;Node633 -->
<g id="edge42" class="edge">
<title>Node626&#45;&gt;Node633</title>
<path fill="none" stroke="#191970" d="M49.3438,-156.2782C74.1822,-131.3159 145.0845,-65.6852 220,-48 324.9526,-23.2241 452.1896,-41.556 521.3125,-55.3913"/>
<polygon fill="#191970" stroke="#191970" points="520.9878,-58.8976 531.4874,-57.48 522.3955,-52.0406 520.9878,-58.8976"/>
</g>
<!-- Node639 -->
<g id="node14" class="node">
<title>Node639</title>
<g id="a_node14"><a xlink:href="classSNN.html#a85facd004ae52ee52e72451b5d874fae" target="_top" xlink:title="SNN::getSimTimeSec">
<polygon fill="#ffffff" stroke="#000000" points="515,-361.5 515,-380.5 629,-380.5 629,-361.5 515,-361.5"/>
<text text-anchor="middle" x="572" y="-368.5" font-family="Helvetica,sans-Serif" font-size="10.00" fill="#000000">SNN::getSimTimeSec</text>
</a>
</g>
</g>
<!-- Node626&#45;&gt;Node639 -->
<g id="edge41" class="edge">
<title>Node626&#45;&gt;Node639</title>
<path fill="none" stroke="#191970" d="M44.6937,-175.735C54.9229,-196.0014 81.1329,-243.0722 116,-270 231.0141,-358.8252 408.4799,-372.7823 504.5861,-373.1643"/>
<polygon fill="#191970" stroke="#191970" points="504.7639,-376.6642 514.7606,-373.1549 504.7574,-369.6642 504.7639,-376.6642"/>
</g>
<!-- Node648 -->
<g id="node23" class="node">
<title>Node648</title>
<g id="a_node23"><a xlink:href="classNeuronMonitorCore.html#ac8bb3912a3ce86b15842e79d0b421204" target="_top" xlink:title="deletes data from the neuron state vector ">
<polygon fill="#ffffff" stroke="#000000" points="244,-57.5 244,-76.5 282,-76.5 282,-57.5 244,-57.5"/>
<text text-anchor="middle" x="263" y="-64.5" font-family="Helvetica,sans-Serif" font-size="10.00" fill="#000000">clear</text>
</a>
</g>
</g>
<!-- Node626&#45;&gt;Node648 -->
<g id="edge39" class="edge">
<title>Node626&#45;&gt;Node648</title>
<path fill="none" stroke="#191970" d="M61.7882,-156.3272C102.3231,-138.3319 189.2949,-99.7211 234.4601,-79.6702"/>
<polygon fill="#191970" stroke="#191970" points="235.9724,-82.8283 243.692,-75.5717 233.132,-76.4304 235.9724,-82.8283"/>
</g>
<!-- Node627&#45;&gt;Node626 -->
<g id="edge4" class="edge">
<title>Node627&#45;&gt;Node626</title>
<path fill="none" stroke="#191970" d="M115.9862,-172.2928C107.8075,-172.6664 98.9004,-172.811 90.1577,-172.7267"/>
<polygon fill="#191970" stroke="#191970" points="90.0922,-169.2248 80.0237,-172.5225 89.9511,-176.2233 90.0922,-169.2248"/>
</g>
<!-- Node628 -->
<g id="node3" class="node">
<title>Node628</title>
<g id="a_node3"><a xlink:href="classNeuronMonitorCore.html#a743a4ad47ef60bc593cc9882bd4ffb57" target="_top" xlink:title="inserts a (time,neurId) tupel into the D Neuron State vector ">
<polygon fill="#ffffff" stroke="#000000" points="526,-171.5 526,-190.5 618,-190.5 618,-171.5 526,-171.5"/>
<text text-anchor="middle" x="572" y="-178.5" font-family="Helvetica,sans-Serif" font-size="10.00" fill="#000000">pushNeuronState</text>
</a>
</g>
</g>
<!-- Node627&#45;&gt;Node628 -->
<g id="edge2" class="edge">
<title>Node627&#45;&gt;Node628</title>
<path fill="none" stroke="#191970" d="M184.1766,-163.3201C256.749,-162.4104 426.8486,-168.1653 515.7028,-174.2304"/>
<polygon fill="#191970" stroke="#191970" points="515.6411,-177.7348 525.8639,-174.9519 516.1369,-170.7524 515.6411,-177.7348"/>
</g>
<!-- Node629 -->
<g id="node4" class="node">
<title>Node629</title>
<g id="a_node4"><a xlink:href="classNeuronMonitorCore.html#a25e0e98dd4519eaaa6b258f0dcb91ac7" target="_top" xlink:title="stops recording Neuron state ">
<polygon fill="#ffffff" stroke="#000000" points="223,-265.5 223,-284.5 303,-284.5 303,-265.5 223,-265.5"/>
<text text-anchor="middle" x="263" y="-272.5" font-family="Helvetica,sans-Serif" font-size="10.00" fill="#000000">stopRecording</text>
</a>
</g>
</g>
<!-- Node627&#45;&gt;Node629 -->
<g id="edge5" class="edge">
<title>Node627&#45;&gt;Node629</title>
<path fill="none" stroke="#191970" d="M160.6115,-175.7584C173.1687,-191.6047 195.4893,-221.544 220,-242 228.1073,-248.7662 238.4013,-254.5902 246.8846,-259.8169"/>
<polygon fill="#191970" stroke="#191970" points="245.2045,-262.9014 255.4801,-265.4827 249.057,-257.0569 245.2045,-262.9014"/>
</g>
<!-- Node627&#45;&gt;Node648 -->
<g id="edge34" class="edge">
<title>Node627&#45;&gt;Node648</title>
<path fill="none" stroke="#191970" d="M153.9506,-156.3012C163.9289,-138.7279 191.3959,-104.4053 220,-82 224.543,-78.4415 229.6798,-75.091 234.7814,-72.2512"/>
<polygon fill="#191970" stroke="#191970" points="236.4047,-75.3527 243.7903,-67.7564 233.2796,-69.089 236.4047,-75.3527"/>
</g>
<!-- Node649 -->
<g id="node24" class="node">
<title>Node649</title>
<g id="a_node24"><a xlink:href="classNeuronMonitorCore.html#a5113f6b476e3e3544ecbffefa313234d" target="_top" xlink:title="sets pointer to Neuron file ">
<polygon fill="#ffffff" stroke="#000000" points="220,-133.5 220,-152.5 306,-152.5 306,-133.5 220,-133.5"/>
<text text-anchor="middle" x="263" y="-140.5" font-family="Helvetica,sans-Serif" font-size="10.00" fill="#000000">setNeuronFileId</text>
</a>
</g>
</g>
<!-- Node627&#45;&gt;Node649 -->
<g id="edge36" class="edge">
<title>Node627&#45;&gt;Node649</title>
<path fill="none" stroke="#191970" d="M170.4634,-156.4948C181.518,-153.2275 195.7314,-149.8677 209.6849,-147.1113"/>
<polygon fill="#191970" stroke="#191970" points="210.5684,-150.5066 219.7505,-145.2208 209.2762,-143.6269 210.5684,-150.5066"/>
</g>
<!-- Node628&#45;&gt;Node627 -->
<g id="edge3" class="edge">
<title>Node628&#45;&gt;Node627</title>
<path fill="none" stroke="#191970" d="M525.8639,-183.7683C444.1405,-184.0074 274.9879,-177.9732 194.4699,-171.9238"/>
<polygon fill="#191970" stroke="#191970" points="194.4215,-168.4092 184.1766,-171.1095 193.8694,-175.3874 194.4215,-168.4092"/>
</g>
<!-- Node629&#45;&gt;Node627 -->
<g id="edge6" class="edge">
<title>Node629&#45;&gt;Node627</title>
<path fill="none" stroke="#191970" d="M227.1088,-265.3384C224.6291,-263.6536 222.2317,-261.8625 220,-260 193.7722,-238.1109 170.0521,-205.3634 158.1187,-184.5213"/>
<polygon fill="#191970" stroke="#191970" points="161.1611,-182.788 153.3727,-175.6052 154.9819,-186.0772 161.1611,-182.788"/>
</g>
<!-- Node629&#45;&gt;Node630 -->
<g id="edge7" class="edge">
<title>Node629&#45;&gt;Node630</title>
<path fill="none" stroke="#191970" d="M303.305,-271.4477C312.1679,-270.6666 321.8484,-269.8134 331.6495,-268.9495"/>
<polygon fill="#191970" stroke="#191970" points="332.2238,-272.4126 341.8779,-268.0481 331.6091,-265.4396 332.2238,-272.4126"/>
</g>
<!-- Node629&#45;&gt;Node633 -->
<g id="edge33" class="edge">
<title>Node629&#45;&gt;Node633</title>
<path fill="none" stroke="#191970" d="M277.4893,-265.2467C326.858,-232.0147 488.7693,-123.0259 549.0853,-82.4248"/>
<polygon fill="#191970" stroke="#191970" points="551.2009,-85.2198 557.5421,-76.7322 547.292,-79.4129 551.2009,-85.2198"/>
</g>
<!-- Node629&#45;&gt;Node639 -->
<g id="edge32" class="edge">
<title>Node629&#45;&gt;Node639</title>
<path fill="none" stroke="#191970" d="M301.2648,-284.556C344.7671,-295.7482 417.6985,-315.5113 479,-337 495.3575,-342.734 498.7673,-345.922 515,-352 520.5697,-354.0855 526.4859,-356.1845 532.3179,-358.1875"/>
<polygon fill="#191970" stroke="#191970" points="531.383,-361.5659 541.9772,-361.4486 533.6222,-354.9337 531.383,-361.5659"/>
</g>
<!-- Node630&#45;&gt;Node627 -->
<g id="edge30" class="edge">
<title>Node630&#45;&gt;Node627</title>
<path fill="none" stroke="#191970" d="M352.9523,-252.4884C314.2456,-244.8294 262.6895,-232.1422 220,-213 201.812,-204.8444 183.1673,-192.0669 169.6979,-181.892"/>
<polygon fill="#191970" stroke="#191970" points="171.6992,-179.0149 161.6508,-175.6562 167.4115,-184.5481 171.6992,-179.0149"/>
</g>
<!-- Node630&#45;&gt;Node628 -->
<g id="edge31" class="edge">
<title>Node630&#45;&gt;Node628</title>
<path fill="none" stroke="#191970" d="M424.5104,-252.3647C444.0843,-239.2163 481.0391,-215.5183 515,-200 519.683,-197.8601 524.6791,-195.8391 529.6936,-193.9706"/>
<polygon fill="#191970" stroke="#191970" points="531.0242,-197.2125 539.2817,-190.5744 528.6869,-190.6142 531.0242,-197.2125"/>
</g>
<!-- Node631 -->
<g id="node6" class="node">
<title>Node631</title>
<g id="a_node6"><a xlink:href="classNeuronMonitorCore.html#a102f8a26e80c556ee9a2ac503cd38ec9" target="_top" xlink:title="returns timestamp of last NeuronMonitor update ">
<polygon fill="#ffffff" stroke="#000000" points="529,-247.5 529,-266.5 615,-266.5 615,-247.5 529,-247.5"/>
<text text-anchor="middle" x="572" y="-254.5" font-family="Helvetica,sans-Serif" font-size="10.00" fill="#000000">getLastUpdated</text>
</a>
</g>
</g>
<!-- Node630&#45;&gt;Node631 -->
<g id="edge8" class="edge">
<title>Node630&#45;&gt;Node631</title>
<path fill="none" stroke="#191970" d="M479.459,-259.865C492.5868,-259.4586 506.1396,-259.039 518.6889,-258.6505"/>
<polygon fill="#191970" stroke="#191970" points="519.0761,-262.1403 528.9629,-258.3324 518.8594,-255.1436 519.0761,-262.1403"/>
</g>
<!-- Node632 -->
<g id="node7" class="node">
<title>Node632</title>
<g id="a_node7"><a xlink:href="classSNN.html#a5fd2b156623d78138bcb44167eabab78" target="_top" xlink:title="SNN::getSimTime">
<polygon fill="#ffffff" stroke="#000000" points="523.5,-209.5 523.5,-228.5 620.5,-228.5 620.5,-209.5 523.5,-209.5"/>
<text text-anchor="middle" x="572" y="-216.5" font-family="Helvetica,sans-Serif" font-size="10.00" fill="#000000">SNN::getSimTime</text>
</a>
</g>
</g>
<!-- Node630&#45;&gt;Node632 -->
<g id="edge9" class="edge">
<title>Node630&#45;&gt;Node632</title>
<path fill="none" stroke="#191970" d="M446.3421,-252.4569C469.9691,-246.1661 501.117,-237.8729 526.4901,-231.1172"/>
<polygon fill="#191970" stroke="#191970" points="527.4953,-234.4716 536.2581,-228.5164 525.6942,-227.7072 527.4953,-234.4716"/>
</g>
<!-- Node630&#45;&gt;Node633 -->
<g id="edge10" class="edge">
<title>Node630&#45;&gt;Node633</title>
<path fill="none" stroke="#191970" d="M418.5088,-252.3299C444.1248,-221.4004 524.3123,-124.5795 557.4488,-84.5696"/>
<polygon fill="#191970" stroke="#191970" points="560.2599,-86.6626 563.9429,-76.7284 554.8687,-82.1976 560.2599,-86.6626"/>
</g>
<!-- Node630&#45;&gt;Node639 -->
<g id="edge19" class="edge">
<title>Node630&#45;&gt;Node639</title>
<path fill="none" stroke="#191970" d="M438.9589,-271.5306C452.174,-276.9448 467.4727,-284.7211 479,-295 501.3633,-314.9414 491.4145,-333.5202 515,-352 517.3093,-353.8094 519.7992,-355.4506 522.4021,-356.9386"/>
<polygon fill="#191970" stroke="#191970" points="521.068,-360.1823 531.5892,-361.43 524.1425,-353.8935 521.068,-360.1823"/>
</g>
<!-- Node640 -->
<g id="node15" class="node">
<title>Node640</title>
<g id="a_node15"><a xlink:href="classNeuronMonitorCore.html#a38f87732cc929797d9648e68cd509f1b" target="_top" xlink:title="sets timestamp of last NeuronMonitor update ">
<polygon fill="#ffffff" stroke="#000000" points="529,-323.5 529,-342.5 615,-342.5 615,-323.5 529,-323.5"/>
<text text-anchor="middle" x="572" y="-330.5" font-family="Helvetica,sans-Serif" font-size="10.00" fill="#000000">setLastUpdated</text>
</a>
</g>
</g>
<!-- Node630&#45;&gt;Node640 -->
<g id="edge20" class="edge">
<title>Node630&#45;&gt;Node640</title>
<path fill="none" stroke="#191970" d="M430.9779,-271.6244C444.6412,-278.105 462.972,-286.913 479,-295 495.1522,-303.1496 498.3625,-306.8934 515,-314 520.0361,-316.1512 525.4039,-318.2191 530.7555,-320.1475"/>
<polygon fill="#191970" stroke="#191970" points="529.701,-323.4862 540.2958,-323.4556 531.9944,-316.8725 529.701,-323.4862"/>
</g>
<!-- Node647 -->
<g id="node22" class="node">
<title>Node647</title>
<g id="a_node22"><a xlink:href="classNeuronMonitorCore.html#a84e392c48ef98bece7aa0dc7af992360" target="_top" xlink:title="returns a pointer to the neuron state file ">
<polygon fill="#ffffff" stroke="#000000" points="529,-285.5 529,-304.5 615,-304.5 615,-285.5 529,-285.5"/>
<text text-anchor="middle" x="572" y="-292.5" font-family="Helvetica,sans-Serif" font-size="10.00" fill="#000000">getNeuronFileId</text>
</a>
</g>
</g>
<!-- Node630&#45;&gt;Node647 -->
<g id="edge29" class="edge">
<title>Node630&#45;&gt;Node647</title>
<path fill="none" stroke="#191970" d="M457.2125,-271.545C476.5782,-275.502 499.1407,-280.1124 519.1119,-284.1931"/>
<polygon fill="#191970" stroke="#191970" points="518.4862,-287.6375 528.9845,-286.2104 519.8876,-280.7792 518.4862,-287.6375"/>
</g>
<!-- Node634 -->
<g id="node9" class="node">
<title>Node634</title>
<g id="a_node9"><a xlink:href="classSNN.html#a866a9c6e2b2630816fc66adda1381655" target="_top" xlink:title="Returns pointer to existing SpikeMonitor object, NULL else. ">
<polygon fill="#ffffff" stroke="#000000" points="679,-38.5 679,-57.5 794,-57.5 794,-38.5 679,-38.5"/>
<text text-anchor="middle" x="736.5" y="-45.5" font-family="Helvetica,sans-Serif" font-size="10.00" fill="#000000">SNN::getSpikeMonitor</text>
</a>
</g>
</g>
<!-- Node633&#45;&gt;Node634 -->
<g id="edge11" class="edge">
<title>Node633&#45;&gt;Node634</title>
<path fill="none" stroke="#191970" d="M627.2337,-60.6204C640.6029,-59.0763 655.0434,-57.4084 668.9095,-55.8068"/>
<polygon fill="#191970" stroke="#191970" points="669.3487,-59.2794 678.881,-54.6551 668.5455,-52.3257 669.3487,-59.2794"/>
</g>
<!-- Node636 -->
<g id="node11" class="node">
<title>Node636</title>
<g id="a_node11"><a xlink:href="classSNN.html#ad25000cd1457c9b9869122534ada6fdd" target="_top" xlink:title="SNN::getSpikeMonitorCore">
<polygon fill="#ffffff" stroke="#000000" points="668.5,-.5 668.5,-19.5 804.5,-19.5 804.5,-.5 668.5,-.5"/>
<text text-anchor="middle" x="736.5" y="-7.5" font-family="Helvetica,sans-Serif" font-size="10.00" fill="#000000">SNN::getSpikeMonitorCore</text>
</a>
</g>
</g>
<!-- Node633&#45;&gt;Node636 -->
<g id="edge13" class="edge">
<title>Node633&#45;&gt;Node636</title>
<path fill="none" stroke="#191970" d="M593.1311,-57.4577C611.7929,-49.2504 639.8665,-37.4355 665,-29 672.1118,-26.6131 679.7003,-24.3263 687.1776,-22.2182"/>
<polygon fill="#191970" stroke="#191970" points="688.1741,-25.5743 696.894,-19.5565 686.3246,-18.823 688.1741,-25.5743"/>
</g>
<!-- Node637 -->
<g id="node12" class="node">
<title>Node637</title>
<g id="a_node12"><a xlink:href="classSNN.html#a0eb87addfa5eebdfee4bd6b927b8945f" target="_top" xlink:title="Returns pointer to existing NeuronMonitor object, NULL else. ">
<polygon fill="#ffffff" stroke="#000000" points="675.5,-114.5 675.5,-133.5 797.5,-133.5 797.5,-114.5 675.5,-114.5"/>
<text text-anchor="middle" x="736.5" y="-121.5" font-family="Helvetica,sans-Serif" font-size="10.00" fill="#000000">SNN::getNeuronMonitor</text>
</a>
</g>
</g>
<!-- Node633&#45;&gt;Node637 -->
<g id="edge15" class="edge">
<title>Node633&#45;&gt;Node637</title>
<path fill="none" stroke="#191970" d="M594.5676,-76.6105C617.5055,-86.3081 651.5238,-100.477 665,-105 672.1118,-107.3869 679.7003,-109.6737 687.1776,-111.7818"/>
<polygon fill="#191970" stroke="#191970" points="686.3246,-115.177 696.894,-114.4435 688.1741,-108.4257 686.3246,-115.177"/>
</g>
<!-- Node638 -->
<g id="node13" class="node">
<title>Node638</title>
<g id="a_node13"><a xlink:href="classSNN.html#a9aa73fa9478383c4af1eed8387d82db9" target="_top" xlink:title="SNN::getNeuronMonitorCore">
<polygon fill="#ffffff" stroke="#000000" points="665,-76.5 665,-95.5 808,-95.5 808,-76.5 665,-76.5"/>
<text text-anchor="middle" x="736.5" y="-83.5" font-family="Helvetica,sans-Serif" font-size="10.00" fill="#000000">SNN::getNeuronMonitorCore</text>
</a>
</g>
</g>
<!-- Node633&#45;&gt;Node638 -->
<g id="edge17" class="edge">
<title>Node633&#45;&gt;Node638</title>
<path fill="none" stroke="#191970" d="M627.2337,-73.3796C636.076,-74.4009 645.387,-75.4763 654.6904,-76.5509"/>
<polygon fill="#191970" stroke="#191970" points="654.4245,-80.0433 664.7601,-77.7139 655.2278,-73.0896 654.4245,-80.0433"/>
</g>
<!-- Node635 -->
<g id="node10" class="node">
<title>Node635</title>
<g id="a_node10"><a xlink:href="classSNN.html#a292bdee57fec7c77ec4c15ea3f508d60" target="_top" xlink:title="SNN::getNumGroups">
<polygon fill="#ffffff" stroke="#000000" points="846.5,-57.5 846.5,-76.5 956.5,-76.5 956.5,-57.5 846.5,-57.5"/>
<text text-anchor="middle" x="901.5" y="-64.5" font-family="Helvetica,sans-Serif" font-size="10.00" fill="#000000">SNN::getNumGroups</text>
</a>
</g>
</g>
<!-- Node634&#45;&gt;Node635 -->
<g id="edge12" class="edge">
<title>Node634&#45;&gt;Node635</title>
<path fill="none" stroke="#191970" d="M794.209,-54.6453C807.8192,-56.2125 822.4217,-57.894 836.3353,-59.4962"/>
<polygon fill="#191970" stroke="#191970" points="835.986,-62.979 846.3208,-60.646 836.7869,-56.025 835.986,-62.979"/>
</g>
<!-- Node636&#45;&gt;Node635 -->
<g id="edge14" class="edge">
<title>Node636&#45;&gt;Node635</title>
<path fill="none" stroke="#191970" d="M776.1016,-19.5695C786.5534,-22.3543 797.7686,-25.5767 808,-29 829.3108,-36.1303 852.7356,-45.6535 870.8077,-53.3825"/>
<polygon fill="#191970" stroke="#191970" points="869.6818,-56.7089 880.2496,-57.4652 872.4601,-50.2838 869.6818,-56.7089"/>
</g>
<!-- Node637&#45;&gt;Node635 -->
<g id="edge16" class="edge">
<title>Node637&#45;&gt;Node635</title>
<path fill="none" stroke="#191970" d="M776.1016,-114.4305C786.5534,-111.6457 797.7686,-108.4233 808,-105 829.3108,-97.8697 852.7356,-88.3465 870.8077,-80.6175"/>
<polygon fill="#191970" stroke="#191970" points="872.4601,-83.7162 880.2496,-76.5348 869.6818,-77.2911 872.4601,-83.7162"/>
</g>
<!-- Node638&#45;&gt;Node635 -->
<g id="edge18" class="edge">
<title>Node638&#45;&gt;Node635</title>
<path fill="none" stroke="#191970" d="M808.3914,-77.7216C817.6037,-76.6608 826.9953,-75.5793 836.0967,-74.5313"/>
<polygon fill="#191970" stroke="#191970" points="836.69,-77.9862 846.224,-73.3651 835.8892,-71.0321 836.69,-77.9862"/>
</g>
<!-- Node641 -->
<g id="node16" class="node">
<title>Node641</title>
<g id="a_node16"><a xlink:href="classNeuronMonitorCore.html#aaeb6a64ac5d9fd3b7a979f0f12ec87dc" target="_top" xlink:title="returns true if state buffers are close to maxAllowedBufferSize ">
<polygon fill="#ffffff" stroke="#000000" points="704,-361.5 704,-380.5 769,-380.5 769,-361.5 704,-361.5"/>
<text text-anchor="middle" x="736.5" y="-368.5" font-family="Helvetica,sans-Serif" font-size="10.00" fill="#000000">isBufferBig</text>
</a>
</g>
</g>
<!-- Node640&#45;&gt;Node641 -->
<g id="edge21" class="edge">
<title>Node640&#45;&gt;Node641</title>
<path fill="none" stroke="#191970" d="M613.5103,-342.589C638.1045,-348.2703 669.2003,-355.4536 693.9709,-361.1757"/>
<polygon fill="#191970" stroke="#191970" points="693.2845,-364.6092 703.8157,-363.4498 694.8601,-357.7888 693.2845,-364.6092"/>
</g>
<!-- Node642 -->
<g id="node17" class="node">
<title>Node642</title>
<g id="a_node17"><a xlink:href="classNeuronMonitorCore.html#a30f19d45f562061cc82c04e7289ba956" target="_top" xlink:title="returns the approximate size of the state vectors in bytes ">
<polygon fill="#ffffff" stroke="#000000" points="863.5,-342.5 863.5,-361.5 939.5,-361.5 939.5,-342.5 863.5,-342.5"/>
<text text-anchor="middle" x="901.5" y="-349.5" font-family="Helvetica,sans-Serif" font-size="10.00" fill="#000000">getBufferSize</text>
</a>
</g>
</g>
<!-- Node640&#45;&gt;Node642 -->
<g id="edge23" class="edge">
<title>Node640&#45;&gt;Node642</title>
<path fill="none" stroke="#191970" d="M615.0764,-335.4839C676.4645,-339.0238 788.7758,-345.5 853.0085,-349.2038"/>
<polygon fill="#191970" stroke="#191970" points="853.087,-352.7141 863.2719,-349.7956 853.49,-345.7257 853.087,-352.7141"/>
</g>
<!-- Node643 -->
<g id="node18" class="node">
<title>Node643</title>
<g id="a_node18"><a xlink:href="classNeuronMonitorCore.html#a3a0e4e77a2b83f5dd0e86aafcf227595" target="_top" xlink:title="returns the total accumulated time ">
<polygon fill="#ffffff" stroke="#000000" points="695,-285.5 695,-304.5 778,-304.5 778,-285.5 695,-285.5"/>
<text text-anchor="middle" x="736.5" y="-292.5" font-family="Helvetica,sans-Serif" font-size="10.00" fill="#000000">getAccumTime</text>
</a>
</g>
</g>
<!-- Node640&#45;&gt;Node643 -->
<g id="edge24" class="edge">
<title>Node640&#45;&gt;Node643</title>
<path fill="none" stroke="#191970" d="M613.5103,-323.411C635.3156,-318.3739 662.2318,-312.1562 685.3191,-306.8229"/>
<polygon fill="#191970" stroke="#191970" points="686.3326,-310.1811 695.2882,-304.5201 684.757,-303.3607 686.3326,-310.1811"/>
</g>
<!-- Node644 -->
<g id="node19" class="node">
<title>Node644</title>
<g id="a_node19"><a xlink:href="classNeuronMonitorCore.html#a4d3c2252230fe74bf03bcc3045ff8972" target="_top" xlink:title="writeNeuronFileHeader">
<polygon fill="#ffffff" stroke="#000000" points="678.5,-233.5 678.5,-252.5 794.5,-252.5 794.5,-233.5 678.5,-233.5"/>
<text text-anchor="middle" x="736.5" y="-240.5" font-family="Helvetica,sans-Serif" font-size="10.00" fill="#000000">writeNeuronFileHeader</text>
</a>
</g>
</g>
<!-- Node640&#45;&gt;Node644 -->
<g id="edge25" class="edge">
<title>Node640&#45;&gt;Node644</title>
<path fill="none" stroke="#191970" d="M609.3915,-323.4743C616.1909,-320.9369 623.0171,-317.8103 629,-314 648.6229,-301.5029 646.0982,-289.5631 665,-276 675.7806,-268.2643 688.6638,-261.6509 700.5057,-256.4208"/>
<polygon fill="#191970" stroke="#191970" points="701.8701,-259.644 709.7194,-252.5279 699.1457,-253.1959 701.8701,-259.644"/>
</g>
<!-- Node646 -->
<g id="node21" class="node">
<title>Node646</title>
<g id="a_node21"><a xlink:href="classNeuronMonitorCore.html#aec9349ebca384aed5e233754559075e0" target="_top" xlink:title="prints neuron states in human&#45;readable format ">
<polygon fill="#ffffff" stroke="#000000" points="719,-167.5 719,-186.5 754,-186.5 754,-167.5 719,-167.5"/>
<text text-anchor="middle" x="736.5" y="-174.5" font-family="Helvetica,sans-Serif" font-size="10.00" fill="#000000">print</text>
</a>
</g>
</g>
<!-- Node640&#45;&gt;Node646 -->
<g id="edge27" class="edge">
<title>Node640&#45;&gt;Node646</title>
<path fill="none" stroke="#191970" d="M614.8064,-323.3975C619.9962,-320.9437 624.9017,-317.8643 629,-314 660.3448,-284.4449 637.7472,-257.366 665,-224 676.9482,-209.3716 694.6657,-197.6801 709.474,-189.6168"/>
<polygon fill="#191970" stroke="#191970" points="711.4209,-192.5503 718.6953,-184.8475 708.2051,-186.3327 711.4209,-192.5503"/>
</g>
<!-- Node641&#45;&gt;Node642 -->
<g id="edge22" class="edge">
<title>Node641&#45;&gt;Node642</title>
<path fill="none" stroke="#191970" d="M769.0987,-367.2462C793.1663,-364.4748 826.3097,-360.6583 853.4147,-357.5371"/>
<polygon fill="#191970" stroke="#191970" points="853.9418,-360.9996 863.4757,-356.3786 853.141,-354.0456 853.9418,-360.9996"/>
</g>
<!-- Node645 -->
<g id="node20" class="node">
<title>Node645</title>
<g id="a_node20"><a xlink:href="classSNN.html#ac13b30c40669d3cb8264bd6e211b449d" target="_top" xlink:title="SNN::getGroupGrid3D">
<polygon fill="#ffffff" stroke="#000000" points="844,-233.5 844,-252.5 959,-252.5 959,-233.5 844,-233.5"/>
<text text-anchor="middle" x="901.5" y="-240.5" font-family="Helvetica,sans-Serif" font-size="10.00" fill="#000000">SNN::getGroupGrid3D</text>
</a>
</g>
</g>
<!-- Node644&#45;&gt;Node645 -->
<g id="edge26" class="edge">
<title>Node644&#45;&gt;Node645</title>
<path fill="none" stroke="#191970" d="M794.6728,-243C807.2651,-243 820.6878,-243 833.6159,-243"/>
<polygon fill="#191970" stroke="#191970" points="833.8526,-246.5001 843.8526,-243 833.8525,-239.5001 833.8526,-246.5001"/>
</g>
<!-- Node646&#45;&gt;Node627 -->
<g id="edge28" class="edge">
<title>Node646&#45;&gt;Node627</title>
<path fill="none" stroke="#191970" d="M718.8586,-168.682C690.8093,-155.5236 638.254,-131.1664 629,-129 451.9944,-87.562 394.9947,-74.7562 220,-124 201.5996,-129.1779 183.1575,-140.558 169.8252,-150.1677"/>
<polygon fill="#191970" stroke="#191970" points="167.3686,-147.6356 161.4748,-156.4398 171.5726,-153.2326 167.3686,-147.6356"/>
</g>
<!-- Node648&#45;&gt;Node627 -->
<g id="edge35" class="edge">
<title>Node648&#45;&gt;Node627</title>
<path fill="none" stroke="#191970" d="M255.576,-76.6359C246.6495,-83.395 231.4417,-91.0378 220,-100 201.2461,-114.6898 182.981,-134.5023 169.8131,-148.7914"/>
<polygon fill="#191970" stroke="#191970" points="166.913,-146.7716 162.6838,-156.4858 172.0478,-151.5292 166.913,-146.7716"/>
</g>
<!-- Node649&#45;&gt;Node627 -->
<g id="edge37" class="edge">
<title>Node649&#45;&gt;Node627</title>
<path fill="none" stroke="#191970" d="M242.3665,-152.5554C228.9271,-156.5172 210.8718,-160.6095 194.29,-163.5931"/>
<polygon fill="#191970" stroke="#191970" points="193.4874,-160.1791 184.2104,-165.2965 194.6538,-167.0812 193.4874,-160.1791"/>
</g>
<!-- Node649&#45;&gt;Node644 -->
<g id="edge38" class="edge">
<title>Node649&#45;&gt;Node644</title>
<path fill="none" stroke="#191970" d="M306.01,-136.0028C376.6763,-126.4778 520.3433,-115.5025 629,-162 649.2331,-170.6584 647.7385,-182.3476 665,-196 679.8143,-207.7169 697.5508,-219.389 711.6523,-228.1705"/>
<polygon fill="#191970" stroke="#191970" points="709.9733,-231.2466 720.3268,-233.4951 713.6353,-225.2808 709.9733,-231.2466"/>
</g>
</g>
</svg>
