<?xml version="1.0" encoding="UTF-8" standalone="no"?>
<!DOCTYPE svg PUBLIC "-//W3C//DTD SVG 1.1//EN"
 "http://www.w3.org/Graphics/SVG/1.1/DTD/svg11.dtd">
<!-- Generated by graphviz version 2.40.1 (20161225.0304)
 -->
<!-- Title: updateSpikeMonitor Pages: 1 -->
<!--zoomable 142 -->
<svg id="main" version="1.1" xmlns="http://www.w3.org/2000/svg" xmlns:xlink="http://www.w3.org/1999/xlink" xml:space="preserve" onload="init(evt)">
<style type="text/css"><![CDATA[
.edge:hover path { stroke: red; }
.edge:hover polygon { stroke: red; fill: red; }
]]></style>
<script type="text/javascript"><![CDATA[
var edges = document.getElementsByTagName('g');
if (edges && edges.length) {
  for (var i=0;i<edges.length;i++) {
    if (edges[i].id.substr(0,4)=='edge') {
      edges[i].setAttribute('class','edge');
    }
  }
}
]]></script>
        <defs>
                <circle id="rim" cx="0" cy="0" r="7"/>
                <circle id="rim2" cx="0" cy="0" r="3.5"/>
                <g id="zoomPlus">
                        <use xlink:href="#rim" fill="#404040">
                                <set attributeName="fill" to="#808080" begin="zoomplus.mouseover" end="zoomplus.mouseout"/>
                        </use>
                        <path d="M-4,0h8M0,-4v8" fill="none" stroke="white" stroke-width="1.5" pointer-events="none"/>
                </g>
                <g id="zoomMin">
                        <use xlink:href="#rim" fill="#404040">
                                <set attributeName="fill" to="#808080" begin="zoomminus.mouseover" end="zoomminus.mouseout"/>
                        </use>
                        <path d="M-4,0h8" fill="none" stroke="white" stroke-width="1.5" pointer-events="none"/>
                </g>
                <g id="dirArrow">
                        <path fill="none" stroke="white" stroke-width="1.5" d="M0,-3.0v7 M-2.5,-0.5L0,-3.0L2.5,-0.5"/>
                </g>
               <g id="resetDef">
                       <use xlink:href="#rim2" fill="#404040">
                               <set attributeName="fill" to="#808080" begin="reset.mouseover" end="reset.mouseout"/>
                       </use>
               </g>
        </defs>

<script type="text/javascript">
var viewWidth = 1008;
var viewHeight = 142;
var sectionId = 'dynsection-149';
</script>
<script xlink:href="svgpan.js"/>
<svg id="graph" class="graph">
<g id="viewport">
<title>updateSpikeMonitor</title>
<polygon fill="#ffffff" stroke="transparent" points="-4,4 -4,-138 1004,-138 1004,4 -4,4"/>
<!-- Node2093 -->
<g id="node1" class="node">
<title>Node2093</title>
<polygon fill="#bfbfbf" stroke="#000000" points="0,-76.5 0,-95.5 103,-95.5 103,-76.5 0,-76.5"/>
<text text-anchor="middle" x="51.5" y="-83.5" font-family="Helvetica,sans-Serif" font-size="10.00" fill="#000000">updateSpikeMonitor</text>
</g>
<!-- Node2094 -->
<g id="node2" class="node">
<title>Node2094</title>
<g id="a_node2"><a xlink:href="classSNN.html#a3df37c7539f784fe7a939c5da922f41b" target="_top" xlink:title="run the simulation for n sec ">
<polygon fill="#ffffff" stroke="#000000" points="187.5,-114.5 187.5,-133.5 254.5,-133.5 254.5,-114.5 187.5,-114.5"/>
<text text-anchor="middle" x="221" y="-121.5" font-family="Helvetica,sans-Serif" font-size="10.00" fill="#000000">runNetwork</text>
</a>
</g>
</g>
<!-- Node2093&#45;&gt;Node2094 -->
<g id="edge1" class="edge">
<title>Node2093&#45;&gt;Node2094</title>
<path fill="none" stroke="#191970" d="M104.3764,-97.8543C131.4641,-103.9271 163.6369,-111.1398 187.3223,-116.4498"/>
<polygon fill="#191970" stroke="#191970" points="104.7955,-94.3614 94.272,-95.589 103.2641,-101.1919 104.7955,-94.3614"/>
</g>
<!-- Node2099 -->
<g id="node7" class="node">
<title>Node2099</title>
<g id="a_node7"><a xlink:href="classSpikeMonitorCore.html#ab91616c118b701c2afd9136393d1f19b" target="_top" xlink:title="starts recording AER data ">
<polygon fill="#ffffff" stroke="#000000" points="139,-76.5 139,-95.5 303,-95.5 303,-76.5 139,-76.5"/>
<text text-anchor="middle" x="221" y="-83.5" font-family="Helvetica,sans-Serif" font-size="10.00" fill="#000000">SpikeMonitorCore::startRecording</text>
</a>
</g>
</g>
<!-- Node2093&#45;&gt;Node2099 -->
<g id="edge6" class="edge">
<title>Node2093&#45;&gt;Node2099</title>
<path fill="none" stroke="#191970" d="M113.278,-86C121.6279,-86 130.2997,-86 138.9342,-86"/>
<polygon fill="#191970" stroke="#191970" points="113.2766,-82.5001 103.2766,-86 113.2766,-89.5001 113.2766,-82.5001"/>
</g>
<!-- Node2103 -->
<g id="node11" class="node">
<title>Node2103</title>
<g id="a_node11"><a xlink:href="classSpikeMonitorCore.html#a25e0e98dd4519eaaa6b258f0dcb91ac7" target="_top" xlink:title="stops recording AER data ">
<polygon fill="#ffffff" stroke="#000000" points="139,-38.5 139,-57.5 303,-57.5 303,-38.5 139,-38.5"/>
<text text-anchor="middle" x="221" y="-45.5" font-family="Helvetica,sans-Serif" font-size="10.00" fill="#000000">SpikeMonitorCore::stopRecording</text>
</a>
</g>
</g>
<!-- Node2093&#45;&gt;Node2103 -->
<g id="edge12" class="edge">
<title>Node2093&#45;&gt;Node2103</title>
<path fill="none" stroke="#191970" d="M104.2425,-74.1757C128.139,-68.8184 156.0152,-62.5689 178.5356,-57.5201"/>
<polygon fill="#191970" stroke="#191970" points="103.2641,-70.8081 94.272,-76.411 104.7955,-77.6386 103.2641,-70.8081"/>
</g>
<!-- Node2095 -->
<g id="node3" class="node">
<title>Node2095</title>
<g id="a_node3"><a xlink:href="classCARLsim_1_1Impl.html#a749f370debe5eec8661cf9ca1b1bb4c0" target="_top" xlink:title="CARLsim::Impl::runNetwork">
<polygon fill="#ffffff" stroke="#000000" points="358.5,-114.5 358.5,-133.5 498.5,-133.5 498.5,-114.5 358.5,-114.5"/>
<text text-anchor="middle" x="428.5" y="-121.5" font-family="Helvetica,sans-Serif" font-size="10.00" fill="#000000">CARLsim::Impl::runNetwork</text>
</a>
</g>
</g>
<!-- Node2094&#45;&gt;Node2095 -->
<g id="edge2" class="edge">
<title>Node2094&#45;&gt;Node2095</title>
<path fill="none" stroke="#191970" d="M265.1022,-124C292.1311,-124 327.3396,-124 358.1493,-124"/>
<polygon fill="#191970" stroke="#191970" points="264.8003,-120.5001 254.8003,-124 264.8002,-127.5001 264.8003,-120.5001"/>
</g>
<!-- Node2096 -->
<g id="node4" class="node">
<title>Node2096</title>
<g id="a_node4"><a xlink:href="classCARLsim.html#aafb2d44405c96aafe089f96ff867018d" target="_top" xlink:title="run the simulation for time=(nSec*seconds + nMsec*milliseconds) ">
<polygon fill="#ffffff" stroke="#000000" points="575,-114.5 575,-133.5 691,-133.5 691,-114.5 575,-114.5"/>
<text text-anchor="middle" x="633" y="-121.5" font-family="Helvetica,sans-Serif" font-size="10.00" fill="#000000">CARLsim::runNetwork</text>
</a>
</g>
</g>
<!-- Node2095&#45;&gt;Node2096 -->
<g id="edge3" class="edge">
<title>Node2095&#45;&gt;Node2096</title>
<path fill="none" stroke="#191970" d="M508.6295,-124C530.7337,-124 554.2866,-124 574.8831,-124"/>
<polygon fill="#191970" stroke="#191970" points="508.5912,-120.5001 498.5912,-124 508.5912,-127.5001 508.5912,-120.5001"/>
</g>
<!-- Node2097 -->
<g id="node5" class="node">
<title>Node2097</title>
<g id="a_node5"><a xlink:href="classSimpleWeightTuner_1_1Impl.html#a312d84bfa66a5036bb52a4c39db6fa6c" target="_top" xlink:title="SimpleWeightTuner::\lImpl::iterate">
<polygon fill="#ffffff" stroke="#000000" points="748,-52 748,-82 856,-82 856,-52 748,-52"/>
<text text-anchor="start" x="756" y="-70" font-family="Helvetica,sans-Serif" font-size="10.00" fill="#000000">SimpleWeightTuner::</text>
<text text-anchor="middle" x="802" y="-59" font-family="Helvetica,sans-Serif" font-size="10.00" fill="#000000">Impl::iterate</text>
</a>
</g>
</g>
<!-- Node2096&#45;&gt;Node2097 -->
<g id="edge4" class="edge">
<title>Node2096&#45;&gt;Node2097</title>
<path fill="none" stroke="#191970" d="M688.2014,-111.9467C696.2445,-109.8375 704.3787,-107.5068 712,-105 731.6561,-98.5348 753.0175,-89.6015 769.9948,-82.0208"/>
<polygon fill="#191970" stroke="#191970" points="687.3129,-108.5611 678.4765,-114.4065 689.0294,-115.3474 687.3129,-108.5611"/>
</g>
<!-- Node2098 -->
<g id="node6" class="node">
<title>Node2098</title>
<g id="a_node6"><a xlink:href="classSimpleWeightTuner.html#a0df985e3ff7a27edc1e2e3fcc8261843" target="_top" xlink:title="Performs an iteration step of the tuning algorithm. ">
<polygon fill="#ffffff" stroke="#000000" points="892,-52 892,-82 1000,-82 1000,-52 892,-52"/>
<text text-anchor="start" x="900" y="-70" font-family="Helvetica,sans-Serif" font-size="10.00" fill="#000000">SimpleWeightTuner::</text>
<text text-anchor="middle" x="946" y="-59" font-family="Helvetica,sans-Serif" font-size="10.00" fill="#000000">iterate</text>
</a>
</g>
</g>
<!-- Node2097&#45;&gt;Node2098 -->
<g id="edge5" class="edge">
<title>Node2097&#45;&gt;Node2098</title>
<path fill="none" stroke="#191970" d="M866.2702,-67C874.7504,-67 883.3754,-67 891.6672,-67"/>
<polygon fill="#191970" stroke="#191970" points="866.03,-63.5001 856.03,-67 866.0299,-70.5001 866.03,-63.5001"/>
</g>
<!-- Node2100 -->
<g id="node8" class="node">
<title>Node2100</title>
<g id="a_node8"><a xlink:href="classSpikeMonitor.html#ab91616c118b701c2afd9136393d1f19b" target="_top" xlink:title="Starts a new recording period. ">
<polygon fill="#ffffff" stroke="#000000" points="561.5,-76.5 561.5,-95.5 704.5,-95.5 704.5,-76.5 561.5,-76.5"/>
<text text-anchor="middle" x="633" y="-83.5" font-family="Helvetica,sans-Serif" font-size="10.00" fill="#000000">SpikeMonitor::startRecording</text>
</a>
</g>
</g>
<!-- Node2099&#45;&gt;Node2100 -->
<g id="edge7" class="edge">
<title>Node2099&#45;&gt;Node2100</title>
<path fill="none" stroke="#191970" d="M313.7647,-86C388.7444,-86 492.7602,-86 561.418,-86"/>
<polygon fill="#191970" stroke="#191970" points="313.3842,-82.5001 303.3841,-86 313.3841,-89.5001 313.3842,-82.5001"/>
</g>
<!-- Node2101 -->
<g id="node9" class="node">
<title>Node2101</title>
<g id="a_node9"><a xlink:href="classSpikeMonitorCore.html#a7ac2c997b5281ea2f2bc00cc9706d37c" target="_top" xlink:title="sets status of PersistentData mode ">
<polygon fill="#ffffff" stroke="#000000" points="339,-38.5 339,-57.5 518,-57.5 518,-38.5 339,-38.5"/>
<text text-anchor="middle" x="428.5" y="-45.5" font-family="Helvetica,sans-Serif" font-size="10.00" fill="#000000">SpikeMonitorCore::setPersistentData</text>
</a>
</g>
</g>
<!-- Node2099&#45;&gt;Node2101 -->
<g id="edge9" class="edge">
<title>Node2099&#45;&gt;Node2101</title>
<path fill="none" stroke="#191970" d="M282.9603,-74.653C312.7318,-69.2009 348.0154,-62.7393 376.3854,-57.5439"/>
<polygon fill="#191970" stroke="#191970" points="282.2991,-71.2158 273.0932,-76.46 283.5601,-78.1013 282.2991,-71.2158"/>
</g>
<!-- Node2100&#45;&gt;Node2097 -->
<g id="edge8" class="edge">
<title>Node2100&#45;&gt;Node2097</title>
<path fill="none" stroke="#191970" d="M714.9175,-76.7903C726.1178,-75.5311 737.3786,-74.2651 747.9118,-73.0809"/>
<polygon fill="#191970" stroke="#191970" points="714.2176,-73.3469 704.6712,-77.9423 714.9997,-80.3031 714.2176,-73.3469"/>
</g>
<!-- Node2102 -->
<g id="node10" class="node">
<title>Node2102</title>
<g id="a_node10"><a xlink:href="classSpikeMonitor.html#a7ac2c997b5281ea2f2bc00cc9706d37c" target="_top" xlink:title="Sets PersistentMode either on (true) or off (false) ">
<polygon fill="#ffffff" stroke="#000000" points="554,-38.5 554,-57.5 712,-57.5 712,-38.5 554,-38.5"/>
<text text-anchor="middle" x="633" y="-45.5" font-family="Helvetica,sans-Serif" font-size="10.00" fill="#000000">SpikeMonitor::setPersistentData</text>
</a>
</g>
</g>
<!-- Node2101&#45;&gt;Node2102 -->
<g id="edge10" class="edge">
<title>Node2101&#45;&gt;Node2102</title>
<path fill="none" stroke="#191970" d="M528.2877,-48C536.9054,-48 545.5465,-48 553.9658,-48"/>
<polygon fill="#191970" stroke="#191970" points="528.1967,-44.5001 518.1967,-48 528.1966,-51.5001 528.1967,-44.5001"/>
</g>
<!-- Node2102&#45;&gt;Node2097 -->
<g id="edge11" class="edge">
<title>Node2102&#45;&gt;Node2097</title>
<path fill="none" stroke="#191970" d="M722.218,-58.0304C730.8663,-59.0027 739.4485,-59.9676 747.6007,-60.8841"/>
<polygon fill="#191970" stroke="#191970" points="722.3855,-54.5273 712.0571,-56.8881 721.6034,-61.4835 722.3855,-54.5273"/>
</g>
<!-- Node2103&#45;&gt;Node2101 -->
<g id="edge15" class="edge">
<title>Node2103&#45;&gt;Node2101</title>
<path fill="none" stroke="#191970" d="M313.0285,-48C321.6178,-48 330.3158,-48 338.8827,-48"/>
<polygon fill="#191970" stroke="#191970" points="313.0095,-44.5001 303.0095,-48 313.0095,-51.5001 313.0095,-44.5001"/>
</g>
<!-- Node2104 -->
<g id="node12" class="node">
<title>Node2104</title>
<g id="a_node12"><a xlink:href="classSpikeMonitor.html#a25e0e98dd4519eaaa6b258f0dcb91ac7" target="_top" xlink:title="Ends a recording period. ">
<polygon fill="#ffffff" stroke="#000000" points="357,-.5 357,-19.5 500,-19.5 500,-.5 357,-.5"/>
<text text-anchor="middle" x="428.5" y="-7.5" font-family="Helvetica,sans-Serif" font-size="10.00" fill="#000000">SpikeMonitor::stopRecording</text>
</a>
</g>
</g>
<!-- Node2103&#45;&gt;Node2104 -->
<g id="edge13" class="edge">
<title>Node2103&#45;&gt;Node2104</title>
<path fill="none" stroke="#191970" d="M282.9603,-36.653C312.7318,-31.2009 348.0154,-24.7393 376.3854,-19.5439"/>
<polygon fill="#191970" stroke="#191970" points="282.2991,-33.2158 273.0932,-38.46 283.5601,-40.1013 282.2991,-33.2158"/>
</g>
<!-- Node2104&#45;&gt;Node2097 -->
<g id="edge14" class="edge">
<title>Node2104&#45;&gt;Node2097</title>
<path fill="none" stroke="#191970" d="M510.3307,-8.3495C567.5428,-8.9193 645.3321,-13.1637 712,-29 733.2869,-34.0565 755.9736,-43.666 773.2441,-51.956"/>
<polygon fill="#191970" stroke="#191970" points="510.277,-4.8492 500.2547,-8.2849 510.2321,-11.8491 510.277,-4.8492"/>
</g>
</g>
</svg>
        <g id="navigator" transform="translate(0 0)" fill="#404254">
                <rect fill="#f2f5e9" fill-opacity="0.5" stroke="#606060" stroke-width=".5" x="0" y="0" width="60" height="60"/>
                <use id="zoomplus" xlink:href="#zoomPlus" x="17" y="9" onmousedown="handleZoom(evt,'in')"/>
                <use id="zoomminus" xlink:href="#zoomMin" x="42" y="9" onmousedown="handleZoom(evt,'out')"/>
                <use id="reset" xlink:href="#resetDef" x="30" y="36" onmousedown="handleReset()"/>
                <g id="arrowUp" xlink:href="#dirArrow" transform="translate(30 24)" onmousedown="handlePan(0,-1)">
                  <use xlink:href="#rim" fill="#404040">
                        <set attributeName="fill" to="#808080" begin="arrowUp.mouseover" end="arrowUp.mouseout"/>
                  </use>
                  <path fill="none" stroke="white" stroke-width="1.5" d="M0,-3.0v7 M-2.5,-0.5L0,-3.0L2.5,-0.5"/>
                </g>
                <g id="arrowRight" xlink:href="#dirArrow" transform="rotate(90) translate(36 -43)" onmousedown="handlePan(1,0)">
                  <use xlink:href="#rim" fill="#404040">
                        <set attributeName="fill" to="#808080" begin="arrowRight.mouseover" end="arrowRight.mouseout"/>
                  </use>
                  <path fill="none" stroke="white" stroke-width="1.5" d="M0,-3.0v7 M-2.5,-0.5L0,-3.0L2.5,-0.5"/>
                </g>
                <g id="arrowDown" xlink:href="#dirArrow" transform="rotate(180) translate(-30 -48)" onmousedown="handlePan(0,1)">
                  <use xlink:href="#rim" fill="#404040">
                        <set attributeName="fill" to="#808080" begin="arrowDown.mouseover" end="arrowDown.mouseout"/>
                  </use>
                  <path fill="none" stroke="white" stroke-width="1.5" d="M0,-3.0v7 M-2.5,-0.5L0,-3.0L2.5,-0.5"/>
                </g>
                <g id="arrowLeft" xlink:href="#dirArrow" transform="rotate(270) translate(-36 17)" onmousedown="handlePan(-1,0)">
                  <use xlink:href="#rim" fill="#404040">
                        <set attributeName="fill" to="#808080" begin="arrowLeft.mouseover" end="arrowLeft.mouseout"/>
                  </use>
                  <path fill="none" stroke="white" stroke-width="1.5" d="M0,-3.0v7 M-2.5,-0.5L0,-3.0L2.5,-0.5"/>
                </g>
        </g>
        <svg viewBox="0 0 15 15" width="100%" height="30px" preserveAspectRatio="xMaxYMin meet">
         <g id="arrow_out" transform="scale(0.3 0.3)">
          <a xlink:href="classSNN_a876185f4e003c98fb227861e7b84fded_icgraph_org.svg" target="_base">
           <rect id="button" ry="5" rx="5" y="6" x="6" height="38" width="38"
                fill="#f2f5e9" fill-opacity="0.5" stroke="#606060" stroke-width="1.0"/>
           <path id="arrow"
             d="M 11.500037,31.436501 C 11.940474,20.09759 22.043105,11.32322 32.158766,21.979434 L 37.068811,17.246167 C 37.068811,17.246167 37.088388,32 37.088388,32 L 22.160133,31.978069 C 22.160133,31.978069 26.997745,27.140456 26.997745,27.140456 C 18.528582,18.264221 13.291696,25.230495 11.500037,31.436501 z"
             style="fill:#404040;"/>
          </a>
         </g>
        </svg>
</svg>
