<?xml version="1.0" encoding="UTF-8" standalone="no"?>
<!DOCTYPE svg PUBLIC "-//W3C//DTD SVG 1.1//EN"
 "http://www.w3.org/Graphics/SVG/1.1/DTD/svg11.dtd">
<!-- Generated by graphviz version 2.40.1 (20161225.0304)
 -->
<!-- Title: setLastUpdated Pages: 1 -->
<svg width="1058pt" height="148pt"
 viewBox="0.00 0.00 1058.00 147.50" xmlns="http://www.w3.org/2000/svg" xmlns:xlink="http://www.w3.org/1999/xlink">
<g id="graph0" class="graph" transform="scale(1 1) rotate(0) translate(4 143.5)">
<title>setLastUpdated</title>
<polygon fill="#ffffff" stroke="transparent" points="-4,4 -4,-143.5 1054,-143.5 1054,4 -4,4"/>
<!-- Node193 -->
<g id="node1" class="node">
<title>Node193</title>
<polygon fill="#bfbfbf" stroke="#000000" points="0,-44 0,-63 86,-63 86,-44 0,-44"/>
<text text-anchor="middle" x="43" y="-51" font-family="Helvetica,sans-Serif" font-size="10.00" fill="#000000">setLastUpdated</text>
</g>
<!-- Node194 -->
<g id="node2" class="node">
<title>Node194</title>
<g id="a_node2"><a xlink:href="classSNN.html#a14317186d53aeff564b126a41a333d3c" target="_top" xlink:title="access group status (currently the concentration of neuromodulator) ">
<polygon fill="#ffffff" stroke="#000000" points="122,-44 122,-63 254,-63 254,-44 122,-44"/>
<text text-anchor="middle" x="188" y="-51" font-family="Helvetica,sans-Serif" font-size="10.00" fill="#000000">SNN::updateGroupMonitor</text>
</a>
</g>
</g>
<!-- Node193&#45;&gt;Node194 -->
<g id="edge1" class="edge">
<title>Node193&#45;&gt;Node194</title>
<path fill="none" stroke="#191970" d="M96.1377,-53.5C104.5364,-53.5 113.3091,-53.5 121.9582,-53.5"/>
<polygon fill="#191970" stroke="#191970" points="96.1122,-50.0001 86.1122,-53.5 96.1122,-57.0001 96.1122,-50.0001"/>
</g>
<!-- Node195 -->
<g id="node3" class="node">
<title>Node195</title>
<g id="a_node3"><a xlink:href="classGroupMonitorCore.html#ab91616c118b701c2afd9136393d1f19b" target="_top" xlink:title="starts recording group data ">
<polygon fill="#ffffff" stroke="#000000" points="297.5,-82 297.5,-101 377.5,-101 377.5,-82 297.5,-82"/>
<text text-anchor="middle" x="337.5" y="-89" font-family="Helvetica,sans-Serif" font-size="10.00" fill="#000000">startRecording</text>
</a>
</g>
</g>
<!-- Node194&#45;&gt;Node195 -->
<g id="edge2" class="edge">
<title>Node194&#45;&gt;Node195</title>
<path fill="none" stroke="#191970" d="M235.6516,-65.6121C256.4726,-70.9044 280.5377,-77.0213 300.0461,-81.9799"/>
<polygon fill="#191970" stroke="#191970" points="236.2792,-62.1604 225.7252,-63.089 234.5547,-68.9447 236.2792,-62.1604"/>
</g>
<!-- Node199 -->
<g id="node7" class="node">
<title>Node199</title>
<g id="a_node7"><a xlink:href="classGroupMonitorCore.html#a25e0e98dd4519eaaa6b258f0dcb91ac7" target="_top" xlink:title="stops recording group data ">
<polygon fill="#ffffff" stroke="#000000" points="297.5,-44 297.5,-63 377.5,-63 377.5,-44 297.5,-44"/>
<text text-anchor="middle" x="337.5" y="-51" font-family="Helvetica,sans-Serif" font-size="10.00" fill="#000000">stopRecording</text>
</a>
</g>
</g>
<!-- Node194&#45;&gt;Node199 -->
<g id="edge6" class="edge">
<title>Node194&#45;&gt;Node199</title>
<path fill="none" stroke="#191970" d="M264.0467,-53.5C275.4888,-53.5 286.8903,-53.5 297.1786,-53.5"/>
<polygon fill="#191970" stroke="#191970" points="264.0081,-50.0001 254.0081,-53.5 264.008,-57.0001 264.0081,-50.0001"/>
</g>
<!-- Node201 -->
<g id="node9" class="node">
<title>Node201</title>
<g id="a_node9"><a xlink:href="classSNN.html#a3df37c7539f784fe7a939c5da922f41b" target="_top" xlink:title="run the simulation for n sec ">
<polygon fill="#ffffff" stroke="#000000" points="290,-6 290,-25 385,-25 385,-6 290,-6"/>
<text text-anchor="middle" x="337.5" y="-13" font-family="Helvetica,sans-Serif" font-size="10.00" fill="#000000">SNN::runNetwork</text>
</a>
</g>
</g>
<!-- Node194&#45;&gt;Node201 -->
<g id="edge9" class="edge">
<title>Node194&#45;&gt;Node201</title>
<path fill="none" stroke="#191970" d="M235.6516,-41.3879C256.4726,-36.0956 280.5377,-29.9787 300.0461,-25.0201"/>
<polygon fill="#191970" stroke="#191970" points="234.5547,-38.0553 225.7252,-43.911 236.2792,-44.8396 234.5547,-38.0553"/>
</g>
<!-- Node196 -->
<g id="node4" class="node">
<title>Node196</title>
<g id="a_node4"><a xlink:href="classGroupMonitor.html#ab91616c118b701c2afd9136393d1f19b" target="_top" xlink:title="Starts a new recording period. ">
<polygon fill="#ffffff" stroke="#000000" points="421,-120 421,-139 566,-139 566,-120 421,-120"/>
<text text-anchor="middle" x="493.5" y="-127" font-family="Helvetica,sans-Serif" font-size="10.00" fill="#000000">GroupMonitor::startRecording</text>
</a>
</g>
</g>
<!-- Node195&#45;&gt;Node196 -->
<g id="edge3" class="edge">
<title>Node195&#45;&gt;Node196</title>
<path fill="none" stroke="#191970" d="M386.6317,-103.468C408.4927,-108.7931 433.8761,-114.9762 454.4177,-119.9799"/>
<polygon fill="#191970" stroke="#191970" points="387.4097,-100.0552 376.8654,-101.089 385.7529,-106.8563 387.4097,-100.0552"/>
</g>
<!-- Node197 -->
<g id="node5" class="node">
<title>Node197</title>
<g id="a_node5"><a xlink:href="classGroupMonitorCore.html#a7ac2c997b5281ea2f2bc00cc9706d37c" target="_top" xlink:title="sets status of PersistentData mode ">
<polygon fill="#ffffff" stroke="#000000" points="446,-82 446,-101 541,-101 541,-82 446,-82"/>
<text text-anchor="middle" x="493.5" y="-89" font-family="Helvetica,sans-Serif" font-size="10.00" fill="#000000">setPersistentData</text>
</a>
</g>
</g>
<!-- Node195&#45;&gt;Node197 -->
<g id="edge4" class="edge">
<title>Node195&#45;&gt;Node197</title>
<path fill="none" stroke="#191970" d="M387.7652,-91.5C406.4398,-91.5 427.5529,-91.5 445.9749,-91.5"/>
<polygon fill="#191970" stroke="#191970" points="387.6739,-88.0001 377.6739,-91.5 387.6738,-95.0001 387.6739,-88.0001"/>
</g>
<!-- Node198 -->
<g id="node6" class="node">
<title>Node198</title>
<g id="a_node6"><a xlink:href="classGroupMonitor.html#a7ac2c997b5281ea2f2bc00cc9706d37c" target="_top" xlink:title="Sets PersistentMode either on (true) or off (false) ">
<polygon fill="#ffffff" stroke="#000000" points="602,-82 602,-101 762,-101 762,-82 602,-82"/>
<text text-anchor="middle" x="682" y="-89" font-family="Helvetica,sans-Serif" font-size="10.00" fill="#000000">GroupMonitor::setPersistentData</text>
</a>
</g>
</g>
<!-- Node197&#45;&gt;Node198 -->
<g id="edge5" class="edge">
<title>Node197&#45;&gt;Node198</title>
<path fill="none" stroke="#191970" d="M551.2874,-91.5C567.238,-91.5 584.836,-91.5 601.8113,-91.5"/>
<polygon fill="#191970" stroke="#191970" points="551.0665,-88.0001 541.0665,-91.5 551.0665,-95.0001 551.0665,-88.0001"/>
</g>
<!-- Node199&#45;&gt;Node197 -->
<g id="edge8" class="edge">
<title>Node199&#45;&gt;Node197</title>
<path fill="none" stroke="#191970" d="M386.6317,-65.468C408.4927,-70.7931 433.8761,-76.9762 454.4177,-81.9799"/>
<polygon fill="#191970" stroke="#191970" points="387.4097,-62.0552 376.8654,-63.089 385.7529,-68.8563 387.4097,-62.0552"/>
</g>
<!-- Node200 -->
<g id="node8" class="node">
<title>Node200</title>
<g id="a_node8"><a xlink:href="classGroupMonitor.html#a25e0e98dd4519eaaa6b258f0dcb91ac7" target="_top" xlink:title="Ends a recording period. ">
<polygon fill="#ffffff" stroke="#000000" points="421.5,-44 421.5,-63 565.5,-63 565.5,-44 421.5,-44"/>
<text text-anchor="middle" x="493.5" y="-51" font-family="Helvetica,sans-Serif" font-size="10.00" fill="#000000">GroupMonitor::stopRecording</text>
</a>
</g>
</g>
<!-- Node199&#45;&gt;Node200 -->
<g id="edge7" class="edge">
<title>Node199&#45;&gt;Node200</title>
<path fill="none" stroke="#191970" d="M387.6933,-53.5C398.4358,-53.5 409.9879,-53.5 421.3722,-53.5"/>
<polygon fill="#191970" stroke="#191970" points="387.6739,-50.0001 377.6739,-53.5 387.6738,-57.0001 387.6739,-50.0001"/>
</g>
<!-- Node202 -->
<g id="node10" class="node">
<title>Node202</title>
<g id="a_node10"><a xlink:href="classCARLsim_1_1Impl.html#a749f370debe5eec8661cf9ca1b1bb4c0" target="_top" xlink:title="CARLsim::Impl::runNetwork">
<polygon fill="#ffffff" stroke="#000000" points="423.5,-6 423.5,-25 563.5,-25 563.5,-6 423.5,-6"/>
<text text-anchor="middle" x="493.5" y="-13" font-family="Helvetica,sans-Serif" font-size="10.00" fill="#000000">CARLsim::Impl::runNetwork</text>
</a>
</g>
</g>
<!-- Node201&#45;&gt;Node202 -->
<g id="edge10" class="edge">
<title>Node201&#45;&gt;Node202</title>
<path fill="none" stroke="#191970" d="M395.3048,-15.5C404.4732,-15.5 414.0415,-15.5 423.4536,-15.5"/>
<polygon fill="#191970" stroke="#191970" points="395.1528,-12.0001 385.1528,-15.5 395.1528,-19.0001 395.1528,-12.0001"/>
</g>
<!-- Node203 -->
<g id="node11" class="node">
<title>Node203</title>
<g id="a_node11"><a xlink:href="classCARLsim.html#aafb2d44405c96aafe089f96ff867018d" target="_top" xlink:title="run the simulation for time=(nSec*seconds + nMsec*milliseconds) ">
<polygon fill="#ffffff" stroke="#000000" points="624,-6 624,-25 740,-25 740,-6 624,-6"/>
<text text-anchor="middle" x="682" y="-13" font-family="Helvetica,sans-Serif" font-size="10.00" fill="#000000">CARLsim::runNetwork</text>
</a>
</g>
</g>
<!-- Node202&#45;&gt;Node203 -->
<g id="edge11" class="edge">
<title>Node202&#45;&gt;Node203</title>
<path fill="none" stroke="#191970" d="M574.0062,-15.5C590.7275,-15.5 608.0386,-15.5 623.773,-15.5"/>
<polygon fill="#191970" stroke="#191970" points="573.6905,-12.0001 563.6904,-15.5 573.6904,-19.0001 573.6905,-12.0001"/>
</g>
<!-- Node204 -->
<g id="node12" class="node">
<title>Node204</title>
<g id="a_node12"><a xlink:href="classSimpleWeightTuner_1_1Impl.html#a312d84bfa66a5036bb52a4c39db6fa6c" target="_top" xlink:title="SimpleWeightTuner::\lImpl::iterate">
<polygon fill="#ffffff" stroke="#000000" points="798,-.5 798,-30.5 906,-30.5 906,-.5 798,-.5"/>
<text text-anchor="start" x="806" y="-18.5" font-family="Helvetica,sans-Serif" font-size="10.00" fill="#000000">SimpleWeightTuner::</text>
<text text-anchor="middle" x="852" y="-7.5" font-family="Helvetica,sans-Serif" font-size="10.00" fill="#000000">Impl::iterate</text>
</a>
</g>
</g>
<!-- Node203&#45;&gt;Node204 -->
<g id="edge12" class="edge">
<title>Node203&#45;&gt;Node204</title>
<path fill="none" stroke="#191970" d="M750.3047,-15.5C766.1556,-15.5 782.8128,-15.5 797.9527,-15.5"/>
<polygon fill="#191970" stroke="#191970" points="750.0289,-12.0001 740.0289,-15.5 750.0288,-19.0001 750.0289,-12.0001"/>
</g>
<!-- Node205 -->
<g id="node13" class="node">
<title>Node205</title>
<g id="a_node13"><a xlink:href="classSimpleWeightTuner.html#a0df985e3ff7a27edc1e2e3fcc8261843" target="_top" xlink:title="Performs an iteration step of the tuning algorithm. ">
<polygon fill="#ffffff" stroke="#000000" points="942,-.5 942,-30.5 1050,-30.5 1050,-.5 942,-.5"/>
<text text-anchor="start" x="950" y="-18.5" font-family="Helvetica,sans-Serif" font-size="10.00" fill="#000000">SimpleWeightTuner::</text>
<text text-anchor="middle" x="996" y="-7.5" font-family="Helvetica,sans-Serif" font-size="10.00" fill="#000000">iterate</text>
</a>
</g>
</g>
<!-- Node204&#45;&gt;Node205 -->
<g id="edge13" class="edge">
<title>Node204&#45;&gt;Node205</title>
<path fill="none" stroke="#191970" d="M916.2702,-15.5C924.7504,-15.5 933.3754,-15.5 941.6672,-15.5"/>
<polygon fill="#191970" stroke="#191970" points="916.03,-12.0001 906.03,-15.5 916.0299,-19.0001 916.03,-12.0001"/>
</g>
</g>
</svg>
