<?xml version="1.0" encoding="UTF-8" standalone="no"?>
<!DOCTYPE svg PUBLIC "-//W3C//DTD SVG 1.1//EN"
 "http://www.w3.org/Graphics/SVG/1.1/DTD/svg11.dtd">
<!-- Generated by graphviz version 2.40.1 (20161225.0304)
 -->
<!-- Title: getDelayRange Pages: 1 -->
<svg width="1021pt" height="104pt"
 viewBox="0.00 0.00 1021.00 104.00" xmlns="http://www.w3.org/2000/svg" xmlns:xlink="http://www.w3.org/1999/xlink">
<g id="graph0" class="graph" transform="scale(1 1) rotate(0) translate(4 100)">
<title>getDelayRange</title>
<polygon fill="#ffffff" stroke="transparent" points="-4,4 -4,-100 1017,-100 1017,4 -4,4"/>
<!-- Node157 -->
<g id="node1" class="node">
<title>Node157</title>
<polygon fill="#bfbfbf" stroke="#000000" points="0,-38.5 0,-57.5 84,-57.5 84,-38.5 0,-38.5"/>
<text text-anchor="middle" x="42" y="-45.5" font-family="Helvetica,sans-Serif" font-size="10.00" fill="#000000">getDelayRange</text>
</g>
<!-- Node158 -->
<g id="node2" class="node">
<title>Node158</title>
<g id="a_node2"><a xlink:href="classCARLsim_1_1Impl.html#aee3e497537bc8121f6c0c8fb3730ae72" target="_top" xlink:title="CARLsim::Impl::getDelayRange">
<polygon fill="#ffffff" stroke="#000000" points="120,-38.5 120,-57.5 278,-57.5 278,-38.5 120,-38.5"/>
<text text-anchor="middle" x="199" y="-45.5" font-family="Helvetica,sans-Serif" font-size="10.00" fill="#000000">CARLsim::Impl::getDelayRange</text>
</a>
</g>
</g>
<!-- Node157&#45;&gt;Node158 -->
<g id="edge1" class="edge">
<title>Node157&#45;&gt;Node158</title>
<path fill="none" stroke="#191970" d="M84.0731,-48C92.1244,-48 100.8326,-48 109.7289,-48"/>
<polygon fill="#191970" stroke="#191970" points="109.8281,-51.5001 119.828,-48 109.828,-44.5001 109.8281,-51.5001"/>
</g>
<!-- Node159 -->
<g id="node3" class="node">
<title>Node159</title>
<g id="a_node3"><a xlink:href="classUserErrors.html#a4bbedc6c0817d5e59e74e450bf00472c" target="_top" xlink:title="simple wrapper for assert statement ">
<polygon fill="#ffffff" stroke="#000000" points="345.5,-76.5 345.5,-95.5 461.5,-95.5 461.5,-76.5 345.5,-76.5"/>
<text text-anchor="middle" x="403.5" y="-83.5" font-family="Helvetica,sans-Serif" font-size="10.00" fill="#000000">UserErrors::assertTrue</text>
</a>
</g>
</g>
<!-- Node158&#45;&gt;Node159 -->
<g id="edge2" class="edge">
<title>Node158&#45;&gt;Node159</title>
<path fill="none" stroke="#191970" d="M250.34,-57.54C278.1748,-62.7122 312.7673,-69.1401 342.0303,-74.5778"/>
<polygon fill="#191970" stroke="#191970" points="341.6677,-78.0702 352.1389,-76.4561 342.9466,-71.188 341.6677,-78.0702"/>
</g>
<!-- Node160 -->
<g id="node4" class="node">
<title>Node160</title>
<g id="a_node4"><a xlink:href="classCARLsim_1_1Impl.html#a14efb66377e70d7f0f4596c223fbc5cc" target="_top" xlink:title="CARLsim::Impl::getNumConnections">
<polygon fill="#ffffff" stroke="#000000" points="314,-38.5 314,-57.5 493,-57.5 493,-38.5 314,-38.5"/>
<text text-anchor="middle" x="403.5" y="-45.5" font-family="Helvetica,sans-Serif" font-size="10.00" fill="#000000">CARLsim::Impl::getNumConnections</text>
</a>
</g>
</g>
<!-- Node158&#45;&gt;Node160 -->
<g id="edge3" class="edge">
<title>Node158&#45;&gt;Node160</title>
<path fill="none" stroke="#191970" d="M278.065,-48C286.4666,-48 295.0885,-48 303.6875,-48"/>
<polygon fill="#191970" stroke="#191970" points="303.7569,-51.5001 313.7568,-48 303.7568,-44.5001 303.7569,-51.5001"/>
</g>
<!-- Node164 -->
<g id="node8" class="node">
<title>Node164</title>
<g id="a_node8"><a xlink:href="classSNN.html#aee3e497537bc8121f6c0c8fb3730ae72" target="_top" xlink:title="returns the RangeDelay struct of a connection ">
<polygon fill="#ffffff" stroke="#000000" points="347.5,-.5 347.5,-19.5 459.5,-19.5 459.5,-.5 347.5,-.5"/>
<text text-anchor="middle" x="403.5" y="-7.5" font-family="Helvetica,sans-Serif" font-size="10.00" fill="#000000">SNN::getDelayRange</text>
</a>
</g>
</g>
<!-- Node158&#45;&gt;Node164 -->
<g id="edge7" class="edge">
<title>Node158&#45;&gt;Node164</title>
<path fill="none" stroke="#191970" d="M250.34,-38.46C278.1748,-33.2878 312.7673,-26.8599 342.0303,-21.4222"/>
<polygon fill="#191970" stroke="#191970" points="342.9466,-24.812 352.1389,-19.5439 341.6677,-17.9298 342.9466,-24.812"/>
</g>
<!-- Node161 -->
<g id="node5" class="node">
<title>Node161</title>
<g id="a_node5"><a xlink:href="classSNN.html#a14efb66377e70d7f0f4596c223fbc5cc" target="_top" xlink:title="SNN::getNumConnections">
<polygon fill="#ffffff" stroke="#000000" points="529,-38.5 529,-57.5 663,-57.5 663,-38.5 529,-38.5"/>
<text text-anchor="middle" x="596" y="-45.5" font-family="Helvetica,sans-Serif" font-size="10.00" fill="#000000">SNN::getNumConnections</text>
</a>
</g>
</g>
<!-- Node160&#45;&gt;Node161 -->
<g id="edge4" class="edge">
<title>Node160&#45;&gt;Node161</title>
<path fill="none" stroke="#191970" d="M493.2688,-48C501.7703,-48 510.3396,-48 518.7097,-48"/>
<polygon fill="#191970" stroke="#191970" points="518.8027,-51.5001 528.8027,-48 518.8027,-44.5001 518.8027,-51.5001"/>
</g>
<!-- Node162 -->
<g id="node6" class="node">
<title>Node162</title>
<g id="a_node6"><a xlink:href="classSNN.html#a52f149e224abff772962dea6680398e2" target="_top" xlink:title="gets number of connections associated with a connection ID ">
<polygon fill="#ffffff" stroke="#000000" points="699,-38.5 699,-57.5 871,-57.5 871,-38.5 699,-38.5"/>
<text text-anchor="middle" x="785" y="-45.5" font-family="Helvetica,sans-Serif" font-size="10.00" fill="#000000">SNN::getNumSynapticConnections</text>
</a>
</g>
</g>
<!-- Node161&#45;&gt;Node162 -->
<g id="edge5" class="edge">
<title>Node161&#45;&gt;Node162</title>
<path fill="none" stroke="#191970" d="M663.1665,-48C671.4789,-48 680.1,-48 688.7407,-48"/>
<polygon fill="#191970" stroke="#191970" points="688.8759,-51.5001 698.8759,-48 688.8759,-44.5001 688.8759,-51.5001"/>
</g>
<!-- Node163 -->
<g id="node7" class="node">
<title>Node163</title>
<g id="a_node7"><a xlink:href="classSNN.html#a477f99451786873b73e2623b6f89b766" target="_top" xlink:title="deallocates all dynamical structures and exits ">
<polygon fill="#ffffff" stroke="#000000" points="907,-38.5 907,-57.5 1013,-57.5 1013,-38.5 907,-38.5"/>
<text text-anchor="middle" x="960" y="-45.5" font-family="Helvetica,sans-Serif" font-size="10.00" fill="#000000">SNN::exitSimulation</text>
</a>
</g>
</g>
<!-- Node162&#45;&gt;Node163 -->
<g id="edge6" class="edge">
<title>Node162&#45;&gt;Node163</title>
<path fill="none" stroke="#191970" d="M871.2183,-48C879.711,-48 888.2199,-48 896.4247,-48"/>
<polygon fill="#191970" stroke="#191970" points="896.6308,-51.5001 906.6308,-48 896.6308,-44.5001 896.6308,-51.5001"/>
</g>
</g>
</svg>
