<?xml version="1.0" encoding="UTF-8" standalone="no"?>
<!DOCTYPE svg PUBLIC "-//W3C//DTD SVG 1.1//EN"
 "http://www.w3.org/Graphics/SVG/1.1/DTD/svg11.dtd">
<!-- Generated by graphviz version 2.40.1 (20161225.0304)
 -->
<!-- Title: setDefaultConductanceTimeConstants Pages: 1 -->
<svg width="551pt" height="78pt"
 viewBox="0.00 0.00 551.00 77.50" xmlns="http://www.w3.org/2000/svg" xmlns:xlink="http://www.w3.org/1999/xlink">
<g id="graph0" class="graph" transform="scale(1 1) rotate(0) translate(4 73.5)">
<title>setDefaultConductanceTimeConstants</title>
<polygon fill="#ffffff" stroke="transparent" points="-4,4 -4,-73.5 547,-73.5 547,4 -4,4"/>
<!-- Node796 -->
<g id="node1" class="node">
<title>Node796</title>
<polygon fill="#bfbfbf" stroke="#000000" points="0,-22.5 0,-52.5 141,-52.5 141,-22.5 0,-22.5"/>
<text text-anchor="start" x="8" y="-40.5" font-family="Helvetica,sans-Serif" font-size="10.00" fill="#000000">setDefaultConductanceTime</text>
<text text-anchor="middle" x="70.5" y="-29.5" font-family="Helvetica,sans-Serif" font-size="10.00" fill="#000000">Constants</text>
</g>
<!-- Node797 -->
<g id="node2" class="node">
<title>Node797</title>
<g id="a_node2"><a xlink:href="classCARLsim_1_1Impl.html#abb10cfa3d0f3a246442e1187ecb837ae" target="_top" xlink:title="setDefaultSTPparams">
<polygon fill="#ffffff" stroke="#000000" points="204.5,-50 204.5,-69 317.5,-69 317.5,-50 204.5,-50"/>
<text text-anchor="middle" x="261" y="-57" font-family="Helvetica,sans-Serif" font-size="10.00" fill="#000000">setDefaultSTPparams</text>
</a>
</g>
</g>
<!-- Node796&#45;&gt;Node797 -->
<g id="edge1" class="edge">
<title>Node796&#45;&gt;Node797</title>
<path fill="none" stroke="#191970" d="M151.5484,-46.8599C169.3504,-48.9158 187.8294,-51.0499 204.4224,-52.9661"/>
<polygon fill="#191970" stroke="#191970" points="151.5,-43.3311 141.1645,-45.6607 150.6969,-50.2849 151.5,-43.3311"/>
</g>
<!-- Node799 -->
<g id="node4" class="node">
<title>Node799</title>
<g id="a_node4"><a xlink:href="classCARLsim.html#a19dee0cb90e81a639376e253cf142d3f" target="_top" xlink:title="Sets default values for conductance time constants. ">
<polygon fill="#ffffff" stroke="#000000" points="177,-.5 177,-30.5 345,-30.5 345,-.5 177,-.5"/>
<text text-anchor="start" x="185" y="-18.5" font-family="Helvetica,sans-Serif" font-size="10.00" fill="#000000">CARLsim::setDefaultConductance</text>
<text text-anchor="middle" x="261" y="-7.5" font-family="Helvetica,sans-Serif" font-size="10.00" fill="#000000">TimeConstants</text>
</a>
</g>
</g>
<!-- Node796&#45;&gt;Node799 -->
<g id="edge3" class="edge">
<title>Node796&#45;&gt;Node799</title>
<path fill="none" stroke="#191970" d="M151.1001,-28.1919C159.6412,-27.2055 168.3434,-26.2005 176.923,-25.2097"/>
<polygon fill="#191970" stroke="#191970" points="150.6969,-24.7151 141.1645,-29.3393 151.5,-31.6688 150.6969,-24.7151"/>
</g>
<!-- Node798 -->
<g id="node3" class="node">
<title>Node798</title>
<g id="a_node3"><a xlink:href="classCARLsim.html#abb10cfa3d0f3a246442e1187ecb837ae" target="_top" xlink:title="Sets default values for STP params U, tau_u, and tau_x of a neuron group (pre&#45;synaptically) ...">
<polygon fill="#ffffff" stroke="#000000" points="381,-50 381,-69 543,-69 543,-50 381,-50"/>
<text text-anchor="middle" x="462" y="-57" font-family="Helvetica,sans-Serif" font-size="10.00" fill="#000000">CARLsim::setDefaultSTPparams</text>
</a>
</g>
</g>
<!-- Node797&#45;&gt;Node798 -->
<g id="edge2" class="edge">
<title>Node797&#45;&gt;Node798</title>
<path fill="none" stroke="#191970" d="M327.8697,-59.5C344.8162,-59.5 363.2047,-59.5 380.7763,-59.5"/>
<polygon fill="#191970" stroke="#191970" points="327.5246,-56.0001 317.5246,-59.5 327.5246,-63.0001 327.5246,-56.0001"/>
</g>
</g>
</svg>
