<?xml version="1.0" encoding="UTF-8" standalone="no"?>
<!DOCTYPE svg PUBLIC "-//W3C//DTD SVG 1.1//EN"
 "http://www.w3.org/Graphics/SVG/1.1/DTD/svg11.dtd">
<!-- Generated by graphviz version 2.40.1 (20161225.0304)
 -->
<!-- Title: biasWeights Pages: 1 -->
<svg width="522pt" height="39pt"
 viewBox="0.00 0.00 522.00 39.00" xmlns="http://www.w3.org/2000/svg" xmlns:xlink="http://www.w3.org/1999/xlink">
<g id="graph0" class="graph" transform="scale(1 1) rotate(0) translate(4 35)">
<title>biasWeights</title>
<polygon fill="#ffffff" stroke="transparent" points="-4,4 -4,-35 518,-35 518,4 -4,4"/>
<!-- Node14 -->
<g id="node1" class="node">
<title>Node14</title>
<polygon fill="#bfbfbf" stroke="#000000" points="0,-6 0,-25 71,-25 71,-6 0,-6"/>
<text text-anchor="middle" x="35.5" y="-13" font-family="Helvetica,sans-Serif" font-size="10.00" fill="#000000">biasWeights</text>
</g>
<!-- Node15 -->
<g id="node2" class="node">
<title>Node15</title>
<g id="a_node2"><a xlink:href="classCARLsim.html#a075514437469255e73d058ce7a31092b" target="_top" xlink:title="Adds a constant bias to the weight of every synapse in the connection. ">
<polygon fill="#ffffff" stroke="#000000" points="107,-6 107,-25 226,-25 226,-6 107,-6"/>
<text text-anchor="middle" x="166.5" y="-13" font-family="Helvetica,sans-Serif" font-size="10.00" fill="#000000">CARLsim::biasWeights</text>
</a>
</g>
</g>
<!-- Node14&#45;&gt;Node15 -->
<g id="edge1" class="edge">
<title>Node14&#45;&gt;Node15</title>
<path fill="none" stroke="#191970" d="M81.4093,-15.5C89.6189,-15.5 98.2807,-15.5 106.81,-15.5"/>
<polygon fill="#191970" stroke="#191970" points="81.2964,-12.0001 71.2963,-15.5 81.2963,-19.0001 81.2964,-12.0001"/>
</g>
<!-- Node16 -->
<g id="node3" class="node">
<title>Node16</title>
<g id="a_node3"><a xlink:href="classSimpleWeightTuner_1_1Impl.html#a312d84bfa66a5036bb52a4c39db6fa6c" target="_top" xlink:title="SimpleWeightTuner::\lImpl::iterate">
<polygon fill="#ffffff" stroke="#000000" points="262,-.5 262,-30.5 370,-30.5 370,-.5 262,-.5"/>
<text text-anchor="start" x="270" y="-18.5" font-family="Helvetica,sans-Serif" font-size="10.00" fill="#000000">SimpleWeightTuner::</text>
<text text-anchor="middle" x="316" y="-7.5" font-family="Helvetica,sans-Serif" font-size="10.00" fill="#000000">Impl::iterate</text>
</a>
</g>
</g>
<!-- Node15&#45;&gt;Node16 -->
<g id="edge2" class="edge">
<title>Node15&#45;&gt;Node16</title>
<path fill="none" stroke="#191970" d="M236.2856,-15.5C244.7638,-15.5 253.3276,-15.5 261.538,-15.5"/>
<polygon fill="#191970" stroke="#191970" points="236.016,-12.0001 226.0159,-15.5 236.0159,-19.0001 236.016,-12.0001"/>
</g>
<!-- Node17 -->
<g id="node4" class="node">
<title>Node17</title>
<g id="a_node4"><a xlink:href="classSimpleWeightTuner.html#a0df985e3ff7a27edc1e2e3fcc8261843" target="_top" xlink:title="Performs an iteration step of the tuning algorithm. ">
<polygon fill="#ffffff" stroke="#000000" points="406,-.5 406,-30.5 514,-30.5 514,-.5 406,-.5"/>
<text text-anchor="start" x="414" y="-18.5" font-family="Helvetica,sans-Serif" font-size="10.00" fill="#000000">SimpleWeightTuner::</text>
<text text-anchor="middle" x="460" y="-7.5" font-family="Helvetica,sans-Serif" font-size="10.00" fill="#000000">iterate</text>
</a>
</g>
</g>
<!-- Node16&#45;&gt;Node17 -->
<g id="edge3" class="edge">
<title>Node16&#45;&gt;Node17</title>
<path fill="none" stroke="#191970" d="M380.2702,-15.5C388.7504,-15.5 397.3754,-15.5 405.6672,-15.5"/>
<polygon fill="#191970" stroke="#191970" points="380.03,-12.0001 370.03,-15.5 380.0299,-19.0001 380.03,-12.0001"/>
</g>
</g>
</svg>
