<?xml version="1.0" encoding="UTF-8" standalone="no"?>
<!DOCTYPE svg PUBLIC "-//W3C//DTD SVG 1.1//EN"
 "http://www.w3.org/Graphics/SVG/1.1/DTD/svg11.dtd">
<!-- Generated by graphviz version 2.40.1 (20161225.0304)
 -->
<!-- Title: setSpikeGenerator Pages: 1 -->
<svg width="495pt" height="28pt"
 viewBox="0.00 0.00 495.00 28.00" xmlns="http://www.w3.org/2000/svg" xmlns:xlink="http://www.w3.org/1999/xlink">
<g id="graph0" class="graph" transform="scale(1 1) rotate(0) translate(4 24)">
<title>setSpikeGenerator</title>
<polygon fill="#ffffff" stroke="transparent" points="-4,4 -4,-24 491,-24 491,4 -4,4"/>
<!-- Node1871 -->
<g id="node1" class="node">
<title>Node1871</title>
<polygon fill="#bfbfbf" stroke="#000000" points="0,-.5 0,-19.5 98,-19.5 98,-.5 0,-.5"/>
<text text-anchor="middle" x="49" y="-7.5" font-family="Helvetica,sans-Serif" font-size="10.00" fill="#000000">setSpikeGenerator</text>
</g>
<!-- Node1872 -->
<g id="node2" class="node">
<title>Node1872</title>
<g id="a_node2"><a xlink:href="classCARLsim_1_1Impl.html#adc71069e71cd551526ddafb3d873d649" target="_top" xlink:title="CARLsim::Impl::setSpikeGenerator">
<polygon fill="#ffffff" stroke="#000000" points="134,-.5 134,-19.5 305,-19.5 305,-.5 134,-.5"/>
<text text-anchor="middle" x="219.5" y="-7.5" font-family="Helvetica,sans-Serif" font-size="10.00" fill="#000000">CARLsim::Impl::setSpikeGenerator</text>
</a>
</g>
</g>
<!-- Node1871&#45;&gt;Node1872 -->
<g id="edge1" class="edge">
<title>Node1871&#45;&gt;Node1872</title>
<path fill="none" stroke="#191970" d="M108.5433,-10C116.7879,-10 125.3864,-10 133.9885,-10"/>
<polygon fill="#191970" stroke="#191970" points="108.3157,-6.5001 98.3157,-10 108.3156,-13.5001 108.3157,-6.5001"/>
</g>
<!-- Node1873 -->
<g id="node3" class="node">
<title>Node1873</title>
<g id="a_node3"><a xlink:href="classCARLsim.html#adc71069e71cd551526ddafb3d873d649" target="_top" xlink:title="A SpikeCounter keeps track of the number of spikes per neuron in a group. ">
<polygon fill="#ffffff" stroke="#000000" points="341,-.5 341,-19.5 487,-19.5 487,-.5 341,-.5"/>
<text text-anchor="middle" x="414" y="-7.5" font-family="Helvetica,sans-Serif" font-size="10.00" fill="#000000">CARLsim::setSpikeGenerator</text>
</a>
</g>
</g>
<!-- Node1872&#45;&gt;Node1873 -->
<g id="edge2" class="edge">
<title>Node1872&#45;&gt;Node1873</title>
<path fill="none" stroke="#191970" d="M315.1948,-10C323.8198,-10 332.4611,-10 340.8473,-10"/>
<polygon fill="#191970" stroke="#191970" points="315.0936,-6.5001 305.0936,-10 315.0935,-13.5001 315.0936,-6.5001"/>
</g>
</g>
</svg>
