<?xml version="1.0" encoding="UTF-8" standalone="no"?>
<!DOCTYPE svg PUBLIC "-//W3C//DTD SVG 1.1//EN"
 "http://www.w3.org/Graphics/SVG/1.1/DTD/svg11.dtd">
<!-- Generated by graphviz version 2.40.1 (20161225.0304)
 -->
<!-- Title: getPersistentData Pages: 1 -->
<!--zoomable 407 -->
<svg id="main" version="1.1" xmlns="http://www.w3.org/2000/svg" xmlns:xlink="http://www.w3.org/1999/xlink" xml:space="preserve" onload="init(evt)">
<style type="text/css"><![CDATA[
.edge:hover path { stroke: red; }
.edge:hover polygon { stroke: red; fill: red; }
]]></style>
<script type="text/javascript"><![CDATA[
var edges = document.getElementsByTagName('g');
if (edges && edges.length) {
  for (var i=0;i<edges.length;i++) {
    if (edges[i].id.substr(0,4)=='edge') {
      edges[i].setAttribute('class','edge');
    }
  }
}
]]></script>
        <defs>
                <circle id="rim" cx="0" cy="0" r="7"/>
                <circle id="rim2" cx="0" cy="0" r="3.5"/>
                <g id="zoomPlus">
                        <use xlink:href="#rim" fill="#404040">
                                <set attributeName="fill" to="#808080" begin="zoomplus.mouseover" end="zoomplus.mouseout"/>
                        </use>
                        <path d="M-4,0h8M0,-4v8" fill="none" stroke="white" stroke-width="1.5" pointer-events="none"/>
                </g>
                <g id="zoomMin">
                        <use xlink:href="#rim" fill="#404040">
                                <set attributeName="fill" to="#808080" begin="zoomminus.mouseover" end="zoomminus.mouseout"/>
                        </use>
                        <path d="M-4,0h8" fill="none" stroke="white" stroke-width="1.5" pointer-events="none"/>
                </g>
                <g id="dirArrow">
                        <path fill="none" stroke="white" stroke-width="1.5" d="M0,-3.0v7 M-2.5,-0.5L0,-3.0L2.5,-0.5"/>
                </g>
               <g id="resetDef">
                       <use xlink:href="#rim2" fill="#404040">
                               <set attributeName="fill" to="#808080" begin="reset.mouseover" end="reset.mouseout"/>
                       </use>
               </g>
        </defs>

<script type="text/javascript">
var viewWidth = 1402;
var viewHeight = 407;
var sectionId = 'dynsection-13';
</script>
<script xlink:href="svgpan.js"/>
<svg id="graph" class="graph">
<g id="viewport">
<title>getPersistentData</title>
<polygon fill="#ffffff" stroke="transparent" points="-4,4 -4,-403.1644 1398,-403.1644 1398,4 -4,4"/>
<!-- Node211 -->
<g id="node1" class="node">
<title>Node211</title>
<polygon fill="#bfbfbf" stroke="#000000" points="0,-231.5509 0,-250.5509 95,-250.5509 95,-231.5509 0,-231.5509"/>
<text text-anchor="middle" x="47.5" y="-238.5509" font-family="Helvetica,sans-Serif" font-size="10.00" fill="#000000">getPersistentData</text>
</g>
<!-- Node212 -->
<g id="node2" class="node">
<title>Node212</title>
<g id="a_node2"><a xlink:href="classSpikeMonitorCore.html#a9542be607f3f644e04e0bd9181c9f70e" target="_top" xlink:title="returns status of PersistentData mode ">
<polygon fill="#ffffff" stroke="#000000" points="131,-231.5509 131,-250.5509 310,-250.5509 310,-231.5509 131,-231.5509"/>
<text text-anchor="middle" x="220.5" y="-238.5509" font-family="Helvetica,sans-Serif" font-size="10.00" fill="#000000">SpikeMonitorCore::getPersistentData</text>
</a>
</g>
</g>
<!-- Node211&#45;&gt;Node212 -->
<g id="edge1" class="edge">
<title>Node211&#45;&gt;Node212</title>
<path fill="none" stroke="#191970" d="M95.231,-241.0509C103.2969,-241.0509 111.9299,-241.0509 120.7512,-241.0509"/>
<polygon fill="#191970" stroke="#191970" points="120.7706,-244.551 130.7706,-241.0509 120.7705,-237.551 120.7706,-244.551"/>
</g>
<!-- Node213 -->
<g id="node3" class="node">
<title>Node213</title>
<g id="a_node3"><a xlink:href="classSpikeMonitorCore.html#ae62d623e8edfc6b05309256c1d825bbd" target="_top" xlink:title="returns the recorded mean firing rate of the group ">
<polygon fill="#ffffff" stroke="#000000" points="346,-226.0509 346,-256.0509 477,-256.0509 477,-226.0509 346,-226.0509"/>
<text text-anchor="start" x="354" y="-244.0509" font-family="Helvetica,sans-Serif" font-size="10.00" fill="#000000">SpikeMonitorCore::getPop</text>
<text text-anchor="middle" x="411.5" y="-233.0509" font-family="Helvetica,sans-Serif" font-size="10.00" fill="#000000">MeanFiringRate</text>
</a>
</g>
</g>
<!-- Node212&#45;&gt;Node213 -->
<g id="edge2" class="edge">
<title>Node212&#45;&gt;Node213</title>
<path fill="none" stroke="#191970" d="M310.1278,-241.0509C318.6722,-241.0509 327.2796,-241.0509 335.6749,-241.0509"/>
<polygon fill="#191970" stroke="#191970" points="335.7916,-244.551 345.7916,-241.0509 335.7916,-237.551 335.7916,-244.551"/>
</g>
<!-- Node218 -->
<g id="node8" class="node">
<title>Node218</title>
<g id="a_node8"><a xlink:href="classSpikeMonitorCore.html#af6c333e6cefff92d0e354eca70625cdc" target="_top" xlink:title="returns the total number of recorded spikes in the group ">
<polygon fill="#ffffff" stroke="#000000" points="887.5,-349.0509 887.5,-379.0509 1018.5,-379.0509 1018.5,-349.0509 887.5,-349.0509"/>
<text text-anchor="start" x="895.5" y="-367.0509" font-family="Helvetica,sans-Serif" font-size="10.00" fill="#000000">SpikeMonitorCore::getPop</text>
<text text-anchor="middle" x="953" y="-356.0509" font-family="Helvetica,sans-Serif" font-size="10.00" fill="#000000">NumSpikes</text>
</a>
</g>
</g>
<!-- Node212&#45;&gt;Node218 -->
<g id="edge29" class="edge">
<title>Node212&#45;&gt;Node218</title>
<path fill="none" stroke="#191970" d="M268.1711,-250.5697C291.6118,-255.2446 320.285,-260.9543 346,-266.0509 503.7475,-297.3153 542.0547,-311.5941 701,-336.0509 759.9177,-345.1164 827.0183,-352.426 877.1578,-357.3006"/>
<polygon fill="#191970" stroke="#191970" points="876.9818,-360.7997 887.271,-358.2732 877.652,-353.8319 876.9818,-360.7997"/>
</g>
<!-- Node222 -->
<g id="node12" class="node">
<title>Node222</title>
<g id="a_node12"><a xlink:href="classSpikeMonitorCore.html#ad0c4b32bb5cc0c7a8d95ed6023a2695f" target="_top" xlink:title="computes the standard deviation of firing rates in the group ">
<polygon fill="#ffffff" stroke="#000000" points="887.5,-21.0509 887.5,-51.0509 1018.5,-51.0509 1018.5,-21.0509 887.5,-21.0509"/>
<text text-anchor="start" x="895.5" y="-39.0509" font-family="Helvetica,sans-Serif" font-size="10.00" fill="#000000">SpikeMonitorCore::getPop</text>
<text text-anchor="middle" x="953" y="-28.0509" font-family="Helvetica,sans-Serif" font-size="10.00" fill="#000000">StdFiringRate</text>
</a>
</g>
</g>
<!-- Node212&#45;&gt;Node222 -->
<g id="edge30" class="edge">
<title>Node212&#45;&gt;Node222</title>
<path fill="none" stroke="#191970" d="M230.6316,-231.482C266.1083,-198.5963 389.2983,-89.5713 513,-41.0509 650.4419,12.859 697.1609,2.2726 844,-13.0509 856.598,-14.3655 869.884,-16.5128 882.6815,-18.9807"/>
<polygon fill="#191970" stroke="#191970" points="882.3238,-22.4788 892.8176,-21.0189 883.7038,-15.6162 882.3238,-22.4788"/>
</g>
<!-- Node214 -->
<g id="node4" class="node">
<title>Node214</title>
<g id="a_node4"><a xlink:href="classSpikeMonitorCore.html#a3a3ffdb35b09328d22e5d72503ed1f55" target="_top" xlink:title="returns recording status ">
<polygon fill="#ffffff" stroke="#000000" points="513,-168.5509 513,-187.5509 665,-187.5509 665,-168.5509 513,-168.5509"/>
<text text-anchor="middle" x="589" y="-175.5509" font-family="Helvetica,sans-Serif" font-size="10.00" fill="#000000">SpikeMonitorCore::isRecording</text>
</a>
</g>
</g>
<!-- Node213&#45;&gt;Node214 -->
<g id="edge3" class="edge">
<title>Node213&#45;&gt;Node214</title>
<path fill="none" stroke="#191970" d="M454.0157,-225.9608C484.0163,-215.3127 523.796,-201.1937 552.3889,-191.0452"/>
<polygon fill="#191970" stroke="#191970" points="553.7483,-194.2767 562.0016,-187.6334 551.4069,-187.6799 553.7483,-194.2767"/>
</g>
<!-- Node213&#45;&gt;Node218 -->
<g id="edge27" class="edge">
<title>Node213&#45;&gt;Node218</title>
<path fill="none" stroke="#191970" d="M477.0871,-255.9488C577.8782,-278.8431 770.3538,-322.5634 877.0512,-346.7993"/>
<polygon fill="#191970" stroke="#191970" points="876.5761,-350.2805 887.103,-349.0826 878.1267,-343.4544 876.5761,-350.2805"/>
</g>
<!-- Node221 -->
<g id="node11" class="node">
<title>Node221</title>
<g id="a_node11"><a xlink:href="classSpikeMonitorCore.html#a9cf20c30ff0efdbc5e3c5194648a7fb3" target="_top" xlink:title="returns the total recorded time in ms ">
<polygon fill="#ffffff" stroke="#000000" points="1062,-305.0509 1062,-335.0509 1220,-335.0509 1220,-305.0509 1062,-305.0509"/>
<text text-anchor="start" x="1070" y="-323.0509" font-family="Helvetica,sans-Serif" font-size="10.00" fill="#000000">SpikeMonitorCore::getRecording</text>
<text text-anchor="middle" x="1141" y="-312.0509" font-family="Helvetica,sans-Serif" font-size="10.00" fill="#000000">TotalTime</text>
</a>
</g>
</g>
<!-- Node213&#45;&gt;Node221 -->
<g id="edge28" class="edge">
<title>Node213&#45;&gt;Node221</title>
<path fill="none" stroke="#191970" d="M435.7457,-256.0728C455.8358,-267.9929 485.4563,-284.3728 513,-295.0509 669.9918,-355.9128 712.9451,-367.9967 880,-389.0509 944.3796,-397.1647 963.4656,-406.3719 1026,-389.0509 1059.2791,-379.8331 1092.5967,-358.1366 1114.7384,-341.5143"/>
<polygon fill="#191970" stroke="#191970" points="1117.1481,-344.0763 1122.9389,-335.204 1112.8792,-338.5287 1117.1481,-344.0763"/>
</g>
<!-- Node215 -->
<g id="node5" class="node">
<title>Node215</title>
<g id="a_node5"><a xlink:href="classSpikeMonitorCore.html#af0ba89c38f6852cdf9d914687ad6a445" target="_top" xlink:title="prints the AER vector in human&#45;readable format ">
<polygon fill="#ffffff" stroke="#000000" points="713,-231.5509 713,-250.5509 832,-250.5509 832,-231.5509 713,-231.5509"/>
<text text-anchor="middle" x="772.5" y="-238.5509" font-family="Helvetica,sans-Serif" font-size="10.00" fill="#000000">SpikeMonitorCore::print</text>
</a>
</g>
</g>
<!-- Node214&#45;&gt;Node215 -->
<g id="edge4" class="edge">
<title>Node214&#45;&gt;Node215</title>
<path fill="none" stroke="#191970" d="M633.8892,-187.5653C669.3865,-198.3356 717.6763,-215.2629 746.8844,-227.4041"/>
<polygon fill="#191970" stroke="#191970" points="745.7983,-230.7469 756.3676,-231.4811 748.563,-224.316 745.7983,-230.7469"/>
</g>
<!-- Node225 -->
<g id="node15" class="node">
<title>Node225</title>
<g id="a_node15"><a xlink:href="classSpikeMonitorCore.html#a6e116c2994e0449c41e56d03370fa54c" target="_top" xlink:title="inserts a (time,neurId) tupel into the 2D spike vector ">
<polygon fill="#ffffff" stroke="#000000" points="701,-108.5509 701,-127.5509 844,-127.5509 844,-108.5509 701,-108.5509"/>
<text text-anchor="middle" x="772.5" y="-115.5509" font-family="Helvetica,sans-Serif" font-size="10.00" fill="#000000">SpikeMonitorCore::pushAER</text>
</a>
</g>
</g>
<!-- Node214&#45;&gt;Node225 -->
<g id="edge24" class="edge">
<title>Node214&#45;&gt;Node225</title>
<path fill="none" stroke="#191970" d="M605.608,-168.5402C630.0658,-158.047 676.9667,-141.9658 714.8363,-130.5878"/>
<polygon fill="#191970" stroke="#191970" points="716.152,-133.8487 724.7497,-127.6576 714.1678,-127.1358 716.152,-133.8487"/>
</g>
<!-- Node215&#45;&gt;Node213 -->
<g id="edge14" class="edge">
<title>Node215&#45;&gt;Node213</title>
<path fill="none" stroke="#191970" d="M712.8491,-241.0509C651.122,-241.0509 554.5169,-241.0509 487.3894,-241.0509"/>
<polygon fill="#191970" stroke="#191970" points="487.2932,-237.551 477.2932,-241.0509 487.2932,-244.551 487.2932,-237.551"/>
</g>
<!-- Node215&#45;&gt;Node214 -->
<g id="edge5" class="edge">
<title>Node215&#45;&gt;Node214</title>
<path fill="none" stroke="#191970" d="M727.6512,-231.5486C692.2177,-220.7994 644.0187,-203.9078 614.7827,-191.767"/>
<polygon fill="#191970" stroke="#191970" points="615.8541,-188.4181 605.2844,-187.6886 613.0922,-194.8502 615.8541,-188.4181"/>
</g>
<!-- Node216 -->
<g id="node6" class="node">
<title>Node216</title>
<g id="a_node6"><a xlink:href="classSNN.html#a5fd2b156623d78138bcb44167eabab78" target="_top" xlink:title="SNN::getSimTime">
<polygon fill="#ffffff" stroke="#000000" points="904.5,-272.5509 904.5,-291.5509 1001.5,-291.5509 1001.5,-272.5509 904.5,-272.5509"/>
<text text-anchor="middle" x="953" y="-279.5509" font-family="Helvetica,sans-Serif" font-size="10.00" fill="#000000">SNN::getSimTime</text>
</a>
</g>
</g>
<!-- Node215&#45;&gt;Node216 -->
<g id="edge6" class="edge">
<title>Node215&#45;&gt;Node216</title>
<path fill="none" stroke="#191970" d="M814.364,-250.5601C840.2421,-256.4382 873.6556,-264.028 901.1952,-270.2836"/>
<polygon fill="#191970" stroke="#191970" points="900.5239,-273.7202 911.0508,-272.5222 902.0744,-266.894 900.5239,-273.7202"/>
</g>
<!-- Node217 -->
<g id="node7" class="node">
<title>Node217</title>
<g id="a_node7"><a xlink:href="classSNN.html#ab0367f8ebd4019bf7d34ebddb1563fe7" target="_top" xlink:title="SNN::getGroupName">
<polygon fill="#ffffff" stroke="#000000" points="898,-234.5509 898,-253.5509 1008,-253.5509 1008,-234.5509 898,-234.5509"/>
<text text-anchor="middle" x="953" y="-241.5509" font-family="Helvetica,sans-Serif" font-size="10.00" fill="#000000">SNN::getGroupName</text>
</a>
</g>
</g>
<!-- Node215&#45;&gt;Node217 -->
<g id="edge7" class="edge">
<title>Node215&#45;&gt;Node217</title>
<path fill="none" stroke="#191970" d="M832.1027,-242.0415C849.8683,-242.3368 869.4318,-242.6619 887.5497,-242.963"/>
<polygon fill="#191970" stroke="#191970" points="887.6778,-246.4656 897.7346,-243.1323 887.7942,-239.4665 887.6778,-246.4656"/>
</g>
<!-- Node215&#45;&gt;Node218 -->
<g id="edge8" class="edge">
<title>Node215&#45;&gt;Node218</title>
<path fill="none" stroke="#191970" d="M791.0538,-250.6319C806.2572,-259.0114 827.8248,-272.1496 844,-287.0509 863.3522,-304.8788 859.1096,-318.0529 880,-334.0509 885.0687,-337.9325 890.7106,-341.395 896.5491,-344.4623"/>
<polygon fill="#191970" stroke="#191970" points="895.3062,-347.7493 905.8316,-348.9605 898.3589,-341.4499 895.3062,-347.7493"/>
</g>
<!-- Node215&#45;&gt;Node221 -->
<g id="edge13" class="edge">
<title>Node215&#45;&gt;Node221</title>
<path fill="none" stroke="#191970" d="M785.2312,-250.6261C804.5462,-264.5566 842.9392,-289.9563 880,-301.0509 935.4931,-317.6633 1000.4511,-322.4411 1051.681,-323.052"/>
<polygon fill="#191970" stroke="#191970" points="1051.7133,-326.5522 1061.737,-323.1209 1051.7613,-319.5524 1051.7133,-326.5522"/>
</g>
<!-- Node215&#45;&gt;Node222 -->
<g id="edge15" class="edge">
<title>Node215&#45;&gt;Node222</title>
<path fill="none" stroke="#191970" d="M780.9638,-231.4382C808.1282,-200.5867 893.6228,-103.4876 932.9036,-58.875"/>
<polygon fill="#191970" stroke="#191970" points="935.6944,-61.0018 939.6759,-51.1835 930.4406,-56.3759 935.6944,-61.0018"/>
</g>
<!-- Node224 -->
<g id="node14" class="node">
<title>Node224</title>
<g id="a_node14"><a xlink:href="classSpikeMonitorCore.html#aed09edf4583ac05d42fccc7e3556e3c5" target="_top" xlink:title="returns the recorded mean firing rate for a specific neuron ">
<polygon fill="#ffffff" stroke="#000000" points="880,-185.0509 880,-215.0509 1026,-215.0509 1026,-185.0509 880,-185.0509"/>
<text text-anchor="start" x="888" y="-203.0509" font-family="Helvetica,sans-Serif" font-size="10.00" fill="#000000">SpikeMonitorCore::getNeuron</text>
<text text-anchor="middle" x="953" y="-192.0509" font-family="Helvetica,sans-Serif" font-size="10.00" fill="#000000">MeanFiringRate</text>
</a>
</g>
</g>
<!-- Node215&#45;&gt;Node224 -->
<g id="edge20" class="edge">
<title>Node215&#45;&gt;Node224</title>
<path fill="none" stroke="#191970" d="M814.364,-231.5416C832.8845,-227.3347 855.2647,-222.2511 876.589,-217.4074"/>
<polygon fill="#191970" stroke="#191970" points="877.6451,-220.7567 886.6214,-215.1285 876.0946,-213.9306 877.6451,-220.7567"/>
</g>
<!-- Node218&#45;&gt;Node214 -->
<g id="edge9" class="edge">
<title>Node218&#45;&gt;Node214</title>
<path fill="none" stroke="#191970" d="M907.328,-348.9531C855.6414,-331.0238 769.7101,-298.637 701,-260.0509 666.1263,-240.4665 629.3959,-211.8102 607.8741,-194.0764"/>
<polygon fill="#191970" stroke="#191970" points="610.0705,-191.3508 600.1473,-187.6385 605.5896,-196.7287 610.0705,-191.3508"/>
</g>
<!-- Node219 -->
<g id="node9" class="node">
<title>Node219</title>
<g id="a_node9"><a xlink:href="classSpikeMonitorCore.html#a005a2f884f6260054483d4fa6ed6ddbb" target="_top" xlink:title="returns the number of recorded spikes of a specific neuron ">
<polygon fill="#ffffff" stroke="#000000" points="1068,-166.0509 1068,-196.0509 1214,-196.0509 1214,-166.0509 1068,-166.0509"/>
<text text-anchor="start" x="1076" y="-184.0509" font-family="Helvetica,sans-Serif" font-size="10.00" fill="#000000">SpikeMonitorCore::getNeuron</text>
<text text-anchor="middle" x="1141" y="-173.0509" font-family="Helvetica,sans-Serif" font-size="10.00" fill="#000000">NumSpikes</text>
</a>
</g>
</g>
<!-- Node218&#45;&gt;Node219 -->
<g id="edge10" class="edge">
<title>Node218&#45;&gt;Node219</title>
<path fill="none" stroke="#191970" d="M971.4201,-348.9809C986.4391,-336.499 1008.03,-318.1078 1026,-301.0509 1060.3705,-268.4268 1097.9695,-228.2758 1120.5101,-203.6811"/>
<polygon fill="#191970" stroke="#191970" points="1123.1175,-206.0162 1127.2762,-196.2717 1117.9484,-201.2959 1123.1175,-206.0162"/>
</g>
<!-- Node219&#45;&gt;Node214 -->
<g id="edge11" class="edge">
<title>Node219&#45;&gt;Node214</title>
<path fill="none" stroke="#191970" d="M1067.7049,-177.387C1053.8555,-176.83 1039.4861,-176.3439 1026,-176.0509 904.3357,-173.4072 763.5753,-174.8615 675.4109,-176.3164"/>
<polygon fill="#191970" stroke="#191970" points="675.1299,-172.8205 665.1905,-176.489 675.2481,-179.8195 675.1299,-172.8205"/>
</g>
<!-- Node220 -->
<g id="node10" class="node">
<title>Node220</title>
<g id="a_node10"><a xlink:href="classSpikeMonitorCore.html#abe76071e1ac3632d55f2455b239b3d12" target="_top" xlink:title="returns recording mode ">
<polygon fill="#ffffff" stroke="#000000" points="1256,-139.5509 1256,-158.5509 1394,-158.5509 1394,-139.5509 1256,-139.5509"/>
<text text-anchor="middle" x="1325" y="-146.5509" font-family="Helvetica,sans-Serif" font-size="10.00" fill="#000000">SpikeMonitorCore::getMode</text>
</a>
</g>
</g>
<!-- Node219&#45;&gt;Node220 -->
<g id="edge12" class="edge">
<title>Node219&#45;&gt;Node220</title>
<path fill="none" stroke="#191970" d="M1214.2504,-168.3117C1229.3958,-165.6777 1245.2493,-162.9205 1260.0732,-160.3425"/>
<polygon fill="#191970" stroke="#191970" points="1260.8978,-163.7517 1270.1502,-158.59 1259.6983,-156.8552 1260.8978,-163.7517"/>
</g>
<!-- Node222&#45;&gt;Node213 -->
<g id="edge17" class="edge">
<title>Node222&#45;&gt;Node213</title>
<path fill="none" stroke="#191970" d="M887.4709,-23.236C835.6605,-15.7555 762.1308,-11.0945 701,-30.0509 583.9184,-66.3572 475.5164,-171.8317 431.8309,-218.4462"/>
<polygon fill="#191970" stroke="#191970" points="429.1359,-216.2052 424.9097,-225.9206 434.2721,-220.9612 429.1359,-216.2052"/>
</g>
<!-- Node222&#45;&gt;Node214 -->
<g id="edge16" class="edge">
<title>Node222&#45;&gt;Node214</title>
<path fill="none" stroke="#191970" d="M887.3436,-32.3572C834.4668,-32.0154 759.5613,-37.622 701,-66.0509 656.4953,-87.6559 619.2293,-134.2081 601.0074,-159.9737"/>
<polygon fill="#191970" stroke="#191970" points="597.9657,-158.2197 595.1776,-168.4411 603.7313,-162.1894 597.9657,-158.2197"/>
</g>
<!-- Node223 -->
<g id="node13" class="node">
<title>Node223</title>
<g id="a_node13"><a xlink:href="classSpikeMonitorCore.html#a0fc20fcc5876030d796debd148ae7cee" target="_top" xlink:title="returns a list of firing rates for all neurons in the group (sorted by neuron ID ascending) ...">
<polygon fill="#ffffff" stroke="#000000" points="1078.5,-40.0509 1078.5,-70.0509 1203.5,-70.0509 1203.5,-40.0509 1078.5,-40.0509"/>
<text text-anchor="start" x="1086.5" y="-58.0509" font-family="Helvetica,sans-Serif" font-size="10.00" fill="#000000">SpikeMonitorCore::getAll</text>
<text text-anchor="middle" x="1141" y="-47.0509" font-family="Helvetica,sans-Serif" font-size="10.00" fill="#000000">FiringRates</text>
</a>
</g>
</g>
<!-- Node222&#45;&gt;Node223 -->
<g id="edge18" class="edge">
<title>Node222&#45;&gt;Node223</title>
<path fill="none" stroke="#191970" d="M1018.7533,-42.6961C1034.8,-44.3179 1052.0574,-46.062 1068.403,-47.7139"/>
<polygon fill="#191970" stroke="#191970" points="1068.1423,-51.2053 1078.4436,-48.7287 1068.8463,-44.2408 1068.1423,-51.2053"/>
</g>
<!-- Node223&#45;&gt;Node214 -->
<g id="edge19" class="edge">
<title>Node223&#45;&gt;Node214</title>
<path fill="none" stroke="#191970" d="M1078.2818,-59.544C965.1639,-67.9099 735.4813,-86.1903 701,-99.0509 663.4074,-113.0718 626.7469,-142.8956 606.0996,-161.622"/>
<polygon fill="#191970" stroke="#191970" points="603.7111,-159.0635 598.759,-168.4298 608.4712,-164.196 603.7111,-159.0635"/>
</g>
<!-- Node224&#45;&gt;Node214 -->
<g id="edge21" class="edge">
<title>Node224&#45;&gt;Node214</title>
<path fill="none" stroke="#191970" d="M879.8983,-195.6326C820.9163,-192.0678 737.8015,-187.0443 675.5085,-183.2794"/>
<polygon fill="#191970" stroke="#191970" points="675.4993,-179.7725 665.3063,-182.6628 675.0769,-186.7598 675.4993,-179.7725"/>
</g>
<!-- Node224&#45;&gt;Node219 -->
<g id="edge22" class="edge">
<title>Node224&#45;&gt;Node219</title>
<path fill="none" stroke="#191970" d="M1026.224,-192.6506C1036.6154,-191.6004 1047.3633,-190.5141 1057.9248,-189.4468"/>
<polygon fill="#191970" stroke="#191970" points="1058.3785,-192.9188 1067.9758,-188.431 1057.6745,-185.9543 1058.3785,-192.9188"/>
</g>
<!-- Node224&#45;&gt;Node221 -->
<g id="edge23" class="edge">
<title>Node224&#45;&gt;Node221</title>
<path fill="none" stroke="#191970" d="M1004.6751,-215.1248C1012.0215,-218.0141 1019.3366,-221.3219 1026,-225.0509 1061.7808,-245.0744 1097.292,-276.6692 1119.1801,-297.8624"/>
<polygon fill="#191970" stroke="#191970" points="1116.7459,-300.3774 1126.3322,-304.8889 1121.6516,-295.384 1116.7459,-300.3774"/>
</g>
<!-- Node225&#45;&gt;Node214 -->
<g id="edge25" class="edge">
<title>Node225&#45;&gt;Node214</title>
<path fill="none" stroke="#191970" d="M755.5964,-127.6881C731.0462,-138.1887 684.337,-154.1968 646.6101,-165.53"/>
<polygon fill="#191970" stroke="#191970" points="645.3314,-162.2582 636.7334,-168.449 647.3154,-168.9712 645.3314,-162.2582"/>
</g>
<!-- Node225&#45;&gt;Node220 -->
<g id="edge26" class="edge">
<title>Node225&#45;&gt;Node220</title>
<path fill="none" stroke="#191970" d="M844.1633,-122.0718C947.5465,-127.8725 1137.9005,-138.553 1245.491,-144.5897"/>
<polygon fill="#191970" stroke="#191970" points="1245.4585,-148.0933 1255.6389,-145.1591 1245.8507,-141.1043 1245.4585,-148.0933"/>
</g>
</g>
</svg>
        <g id="navigator" transform="translate(0 0)" fill="#404254">
                <rect fill="#f2f5e9" fill-opacity="0.5" stroke="#606060" stroke-width=".5" x="0" y="0" width="60" height="60"/>
                <use id="zoomplus" xlink:href="#zoomPlus" x="17" y="9" onmousedown="handleZoom(evt,'in')"/>
                <use id="zoomminus" xlink:href="#zoomMin" x="42" y="9" onmousedown="handleZoom(evt,'out')"/>
                <use id="reset" xlink:href="#resetDef" x="30" y="36" onmousedown="handleReset()"/>
                <g id="arrowUp" xlink:href="#dirArrow" transform="translate(30 24)" onmousedown="handlePan(0,-1)">
                  <use xlink:href="#rim" fill="#404040">
                        <set attributeName="fill" to="#808080" begin="arrowUp.mouseover" end="arrowUp.mouseout"/>
                  </use>
                  <path fill="none" stroke="white" stroke-width="1.5" d="M0,-3.0v7 M-2.5,-0.5L0,-3.0L2.5,-0.5"/>
                </g>
                <g id="arrowRight" xlink:href="#dirArrow" transform="rotate(90) translate(36 -43)" onmousedown="handlePan(1,0)">
                  <use xlink:href="#rim" fill="#404040">
                        <set attributeName="fill" to="#808080" begin="arrowRight.mouseover" end="arrowRight.mouseout"/>
                  </use>
                  <path fill="none" stroke="white" stroke-width="1.5" d="M0,-3.0v7 M-2.5,-0.5L0,-3.0L2.5,-0.5"/>
                </g>
                <g id="arrowDown" xlink:href="#dirArrow" transform="rotate(180) translate(-30 -48)" onmousedown="handlePan(0,1)">
                  <use xlink:href="#rim" fill="#404040">
                        <set attributeName="fill" to="#808080" begin="arrowDown.mouseover" end="arrowDown.mouseout"/>
                  </use>
                  <path fill="none" stroke="white" stroke-width="1.5" d="M0,-3.0v7 M-2.5,-0.5L0,-3.0L2.5,-0.5"/>
                </g>
                <g id="arrowLeft" xlink:href="#dirArrow" transform="rotate(270) translate(-36 17)" onmousedown="handlePan(-1,0)">
                  <use xlink:href="#rim" fill="#404040">
                        <set attributeName="fill" to="#808080" begin="arrowLeft.mouseover" end="arrowLeft.mouseout"/>
                  </use>
                  <path fill="none" stroke="white" stroke-width="1.5" d="M0,-3.0v7 M-2.5,-0.5L0,-3.0L2.5,-0.5"/>
                </g>
        </g>
        <svg viewBox="0 0 15 15" width="100%" height="30px" preserveAspectRatio="xMaxYMin meet">
         <g id="arrow_out" transform="scale(0.3 0.3)">
          <a xlink:href="classSpikeMonitor_a9542be607f3f644e04e0bd9181c9f70e_cgraph_org.svg" target="_base">
           <rect id="button" ry="5" rx="5" y="6" x="6" height="38" width="38"
                fill="#f2f5e9" fill-opacity="0.5" stroke="#606060" stroke-width="1.0"/>
           <path id="arrow"
             d="M 11.500037,31.436501 C 11.940474,20.09759 22.043105,11.32322 32.158766,21.979434 L 37.068811,17.246167 C 37.068811,17.246167 37.088388,32 37.088388,32 L 22.160133,31.978069 C 22.160133,31.978069 26.997745,27.140456 26.997745,27.140456 C 18.528582,18.264221 13.291696,25.230495 11.500037,31.436501 z"
             style="fill:#404040;"/>
          </a>
         </g>
        </svg>
</svg>
