<?xml version="1.0" encoding="UTF-8" standalone="no"?>
<!DOCTYPE svg PUBLIC "-//W3C//DTD SVG 1.1//EN"
 "http://www.w3.org/Graphics/SVG/1.1/DTD/svg11.dtd">
<!-- Generated by graphviz version 2.40.1 (20161225.0304)
 -->
<!-- Title: getConnSTDPInfo Pages: 1 -->
<!--zoomable 104 -->
<svg id="main" version="1.1" xmlns="http://www.w3.org/2000/svg" xmlns:xlink="http://www.w3.org/1999/xlink" xml:space="preserve" onload="init(evt)">
<style type="text/css"><![CDATA[
.edge:hover path { stroke: red; }
.edge:hover polygon { stroke: red; fill: red; }
]]></style>
<script type="text/javascript"><![CDATA[
var edges = document.getElementsByTagName('g');
if (edges && edges.length) {
  for (var i=0;i<edges.length;i++) {
    if (edges[i].id.substr(0,4)=='edge') {
      edges[i].setAttribute('class','edge');
    }
  }
}
]]></script>
        <defs>
                <circle id="rim" cx="0" cy="0" r="7"/>
                <circle id="rim2" cx="0" cy="0" r="3.5"/>
                <g id="zoomPlus">
                        <use xlink:href="#rim" fill="#404040">
                                <set attributeName="fill" to="#808080" begin="zoomplus.mouseover" end="zoomplus.mouseout"/>
                        </use>
                        <path d="M-4,0h8M0,-4v8" fill="none" stroke="white" stroke-width="1.5" pointer-events="none"/>
                </g>
                <g id="zoomMin">
                        <use xlink:href="#rim" fill="#404040">
                                <set attributeName="fill" to="#808080" begin="zoomminus.mouseover" end="zoomminus.mouseout"/>
                        </use>
                        <path d="M-4,0h8" fill="none" stroke="white" stroke-width="1.5" pointer-events="none"/>
                </g>
                <g id="dirArrow">
                        <path fill="none" stroke="white" stroke-width="1.5" d="M0,-3.0v7 M-2.5,-0.5L0,-3.0L2.5,-0.5"/>
                </g>
               <g id="resetDef">
                       <use xlink:href="#rim2" fill="#404040">
                               <set attributeName="fill" to="#808080" begin="reset.mouseover" end="reset.mouseout"/>
                       </use>
               </g>
        </defs>

<script type="text/javascript">
var viewWidth = 786;
var viewHeight = 104;
var sectionId = 'dynsection-27';
</script>
<script xlink:href="svgpan.js"/>
<svg id="graph" class="graph">
<g id="viewport">
<title>getConnSTDPInfo</title>
<polygon fill="#ffffff" stroke="transparent" points="-4,4 -4,-100 782,-100 782,4 -4,4"/>
<!-- Node143 -->
<g id="node1" class="node">
<title>Node143</title>
<polygon fill="#bfbfbf" stroke="#000000" points="0,-38.5 0,-57.5 97,-57.5 97,-38.5 0,-38.5"/>
<text text-anchor="middle" x="48.5" y="-45.5" font-family="Helvetica,sans-Serif" font-size="10.00" fill="#000000">getConnSTDPInfo</text>
</g>
<!-- Node144 -->
<g id="node2" class="node">
<title>Node144</title>
<g id="a_node2"><a xlink:href="classUserErrors.html#a4bbedc6c0817d5e59e74e450bf00472c" target="_top" xlink:title="simple wrapper for assert statement ">
<polygon fill="#ffffff" stroke="#000000" points="137.5,-76.5 137.5,-95.5 253.5,-95.5 253.5,-76.5 137.5,-76.5"/>
<text text-anchor="middle" x="195.5" y="-83.5" font-family="Helvetica,sans-Serif" font-size="10.00" fill="#000000">UserErrors::assertTrue</text>
</a>
</g>
</g>
<!-- Node143&#45;&gt;Node144 -->
<g id="edge1" class="edge">
<title>Node143&#45;&gt;Node144</title>
<path fill="none" stroke="#191970" d="M85.5943,-57.589C104.8178,-62.5583 128.4863,-68.6767 148.9294,-73.9613"/>
<polygon fill="#191970" stroke="#191970" points="148.1147,-77.3657 158.6724,-76.4799 149.8667,-70.5885 148.1147,-77.3657"/>
</g>
<!-- Node145 -->
<g id="node3" class="node">
<title>Node145</title>
<g id="a_node3"><a xlink:href="classCARLsim_1_1Impl.html#a14efb66377e70d7f0f4596c223fbc5cc" target="_top" xlink:title="getNumConnections">
<polygon fill="#ffffff" stroke="#000000" points="142.5,-38.5 142.5,-57.5 248.5,-57.5 248.5,-38.5 142.5,-38.5"/>
<text text-anchor="middle" x="195.5" y="-45.5" font-family="Helvetica,sans-Serif" font-size="10.00" fill="#000000">getNumConnections</text>
</a>
</g>
</g>
<!-- Node143&#45;&gt;Node145 -->
<g id="edge2" class="edge">
<title>Node143&#45;&gt;Node145</title>
<path fill="none" stroke="#191970" d="M97.0407,-48C108.2953,-48 120.4358,-48 132.219,-48"/>
<polygon fill="#191970" stroke="#191970" points="132.4508,-51.5001 142.4507,-48 132.4507,-44.5001 132.4508,-51.5001"/>
</g>
<!-- Node149 -->
<g id="node7" class="node">
<title>Node149</title>
<g id="a_node7"><a xlink:href="classSNN.html#a37221c7881b5fa8d1d806804fb9521ab" target="_top" xlink:title="SNN::getConnSTDPInfo">
<polygon fill="#ffffff" stroke="#000000" points="133,-.5 133,-19.5 258,-19.5 258,-.5 133,-.5"/>
<text text-anchor="middle" x="195.5" y="-7.5" font-family="Helvetica,sans-Serif" font-size="10.00" fill="#000000">SNN::getConnSTDPInfo</text>
</a>
</g>
</g>
<!-- Node143&#45;&gt;Node149 -->
<g id="edge6" class="edge">
<title>Node143&#45;&gt;Node149</title>
<path fill="none" stroke="#191970" d="M85.5943,-38.411C104.8178,-33.4417 128.4863,-27.3233 148.9294,-22.0387"/>
<polygon fill="#191970" stroke="#191970" points="149.8667,-25.4115 158.6724,-19.5201 148.1147,-18.6343 149.8667,-25.4115"/>
</g>
<!-- Node146 -->
<g id="node4" class="node">
<title>Node146</title>
<g id="a_node4"><a xlink:href="classSNN.html#a14efb66377e70d7f0f4596c223fbc5cc" target="_top" xlink:title="SNN::getNumConnections">
<polygon fill="#ffffff" stroke="#000000" points="294,-38.5 294,-57.5 428,-57.5 428,-38.5 294,-38.5"/>
<text text-anchor="middle" x="361" y="-45.5" font-family="Helvetica,sans-Serif" font-size="10.00" fill="#000000">SNN::getNumConnections</text>
</a>
</g>
</g>
<!-- Node145&#45;&gt;Node146 -->
<g id="edge3" class="edge">
<title>Node145&#45;&gt;Node146</title>
<path fill="none" stroke="#191970" d="M248.7762,-48C259.8852,-48 271.8093,-48 283.5886,-48"/>
<polygon fill="#191970" stroke="#191970" points="283.8787,-51.5001 293.8787,-48 283.8786,-44.5001 283.8787,-51.5001"/>
</g>
<!-- Node147 -->
<g id="node5" class="node">
<title>Node147</title>
<g id="a_node5"><a xlink:href="classSNN.html#a52f149e224abff772962dea6680398e2" target="_top" xlink:title="gets number of connections associated with a connection ID ">
<polygon fill="#ffffff" stroke="#000000" points="464,-38.5 464,-57.5 636,-57.5 636,-38.5 464,-38.5"/>
<text text-anchor="middle" x="550" y="-45.5" font-family="Helvetica,sans-Serif" font-size="10.00" fill="#000000">SNN::getNumSynapticConnections</text>
</a>
</g>
</g>
<!-- Node146&#45;&gt;Node147 -->
<g id="edge4" class="edge">
<title>Node146&#45;&gt;Node147</title>
<path fill="none" stroke="#191970" d="M428.1665,-48C436.4789,-48 445.1,-48 453.7407,-48"/>
<polygon fill="#191970" stroke="#191970" points="453.8759,-51.5001 463.8759,-48 453.8759,-44.5001 453.8759,-51.5001"/>
</g>
<!-- Node148 -->
<g id="node6" class="node">
<title>Node148</title>
<g id="a_node6"><a xlink:href="classSNN.html#a477f99451786873b73e2623b6f89b766" target="_top" xlink:title="deallocates all dynamical structures and exits ">
<polygon fill="#ffffff" stroke="#000000" points="672,-38.5 672,-57.5 778,-57.5 778,-38.5 672,-38.5"/>
<text text-anchor="middle" x="725" y="-45.5" font-family="Helvetica,sans-Serif" font-size="10.00" fill="#000000">SNN::exitSimulation</text>
</a>
</g>
</g>
<!-- Node147&#45;&gt;Node148 -->
<g id="edge5" class="edge">
<title>Node147&#45;&gt;Node148</title>
<path fill="none" stroke="#191970" d="M636.2183,-48C644.711,-48 653.2199,-48 661.4247,-48"/>
<polygon fill="#191970" stroke="#191970" points="661.6308,-51.5001 671.6308,-48 661.6308,-44.5001 661.6308,-51.5001"/>
</g>
</g>
</svg>
        <g id="navigator" transform="translate(0 0)" fill="#404254">
                <rect fill="#f2f5e9" fill-opacity="0.5" stroke="#606060" stroke-width=".5" x="0" y="0" width="60" height="60"/>
                <use id="zoomplus" xlink:href="#zoomPlus" x="17" y="9" onmousedown="handleZoom(evt,'in')"/>
                <use id="zoomminus" xlink:href="#zoomMin" x="42" y="9" onmousedown="handleZoom(evt,'out')"/>
                <use id="reset" xlink:href="#resetDef" x="30" y="36" onmousedown="handleReset()"/>
                <g id="arrowUp" xlink:href="#dirArrow" transform="translate(30 24)" onmousedown="handlePan(0,-1)">
                  <use xlink:href="#rim" fill="#404040">
                        <set attributeName="fill" to="#808080" begin="arrowUp.mouseover" end="arrowUp.mouseout"/>
                  </use>
                  <path fill="none" stroke="white" stroke-width="1.5" d="M0,-3.0v7 M-2.5,-0.5L0,-3.0L2.5,-0.5"/>
                </g>
                <g id="arrowRight" xlink:href="#dirArrow" transform="rotate(90) translate(36 -43)" onmousedown="handlePan(1,0)">
                  <use xlink:href="#rim" fill="#404040">
                        <set attributeName="fill" to="#808080" begin="arrowRight.mouseover" end="arrowRight.mouseout"/>
                  </use>
                  <path fill="none" stroke="white" stroke-width="1.5" d="M0,-3.0v7 M-2.5,-0.5L0,-3.0L2.5,-0.5"/>
                </g>
                <g id="arrowDown" xlink:href="#dirArrow" transform="rotate(180) translate(-30 -48)" onmousedown="handlePan(0,1)">
                  <use xlink:href="#rim" fill="#404040">
                        <set attributeName="fill" to="#808080" begin="arrowDown.mouseover" end="arrowDown.mouseout"/>
                  </use>
                  <path fill="none" stroke="white" stroke-width="1.5" d="M0,-3.0v7 M-2.5,-0.5L0,-3.0L2.5,-0.5"/>
                </g>
                <g id="arrowLeft" xlink:href="#dirArrow" transform="rotate(270) translate(-36 17)" onmousedown="handlePan(-1,0)">
                  <use xlink:href="#rim" fill="#404040">
                        <set attributeName="fill" to="#808080" begin="arrowLeft.mouseover" end="arrowLeft.mouseout"/>
                  </use>
                  <path fill="none" stroke="white" stroke-width="1.5" d="M0,-3.0v7 M-2.5,-0.5L0,-3.0L2.5,-0.5"/>
                </g>
        </g>
        <svg viewBox="0 0 15 15" width="100%" height="30px" preserveAspectRatio="xMaxYMin meet">
         <g id="arrow_out" transform="scale(0.3 0.3)">
          <a xlink:href="classCARLsim_1_1Impl_ac59a4a3c4479879564d6c3ec9bc4ac4f_cgraph_org.svg" target="_base">
           <rect id="button" ry="5" rx="5" y="6" x="6" height="38" width="38"
                fill="#f2f5e9" fill-opacity="0.5" stroke="#606060" stroke-width="1.0"/>
           <path id="arrow"
             d="M 11.500037,31.436501 C 11.940474,20.09759 22.043105,11.32322 32.158766,21.979434 L 37.068811,17.246167 C 37.068811,17.246167 37.088388,32 37.088388,32 L 22.160133,31.978069 C 22.160133,31.978069 26.997745,27.140456 26.997745,27.140456 C 18.528582,18.264221 13.291696,25.230495 11.500037,31.436501 z"
             style="fill:#404040;"/>
          </a>
         </g>
        </svg>
</svg>
