<?xml version="1.0" encoding="UTF-8" standalone="no"?>
<!DOCTYPE svg PUBLIC "-//W3C//DTD SVG 1.1//EN"
 "http://www.w3.org/Graphics/SVG/1.1/DTD/svg11.dtd">
<!-- Generated by graphviz version 2.40.1 (20161225.0304)
 -->
<!-- Title: setDefaultHomeostasisParams Pages: 1 -->
<!--zoomable 78 -->
<svg id="main" version="1.1" xmlns="http://www.w3.org/2000/svg" xmlns:xlink="http://www.w3.org/1999/xlink" xml:space="preserve" onload="init(evt)">
<style type="text/css"><![CDATA[
.edge:hover path { stroke: red; }
.edge:hover polygon { stroke: red; fill: red; }
]]></style>
<script type="text/javascript"><![CDATA[
var edges = document.getElementsByTagName('g');
if (edges && edges.length) {
  for (var i=0;i<edges.length;i++) {
    if (edges[i].id.substr(0,4)=='edge') {
      edges[i].setAttribute('class','edge');
    }
  }
}
]]></script>
        <defs>
                <circle id="rim" cx="0" cy="0" r="7"/>
                <circle id="rim2" cx="0" cy="0" r="3.5"/>
                <g id="zoomPlus">
                        <use xlink:href="#rim" fill="#404040">
                                <set attributeName="fill" to="#808080" begin="zoomplus.mouseover" end="zoomplus.mouseout"/>
                        </use>
                        <path d="M-4,0h8M0,-4v8" fill="none" stroke="white" stroke-width="1.5" pointer-events="none"/>
                </g>
                <g id="zoomMin">
                        <use xlink:href="#rim" fill="#404040">
                                <set attributeName="fill" to="#808080" begin="zoomminus.mouseover" end="zoomminus.mouseout"/>
                        </use>
                        <path d="M-4,0h8" fill="none" stroke="white" stroke-width="1.5" pointer-events="none"/>
                </g>
                <g id="dirArrow">
                        <path fill="none" stroke="white" stroke-width="1.5" d="M0,-3.0v7 M-2.5,-0.5L0,-3.0L2.5,-0.5"/>
                </g>
               <g id="resetDef">
                       <use xlink:href="#rim2" fill="#404040">
                               <set attributeName="fill" to="#808080" begin="reset.mouseover" end="reset.mouseout"/>
                       </use>
               </g>
        </defs>

<script type="text/javascript">
var viewWidth = 563;
var viewHeight = 78;
var sectionId = 'dynsection-142';
</script>
<script xlink:href="svgpan.js"/>
<svg id="graph" class="graph">
<g id="viewport">
<title>setDefaultHomeostasisParams</title>
<polygon fill="#ffffff" stroke="transparent" points="-4,4 -4,-73.5 559,-73.5 559,4 -4,4"/>
<!-- Node802 -->
<g id="node1" class="node">
<title>Node802</title>
<polygon fill="#bfbfbf" stroke="#000000" points="0,-28 0,-47 153,-47 153,-28 0,-28"/>
<text text-anchor="middle" x="76.5" y="-35" font-family="Helvetica,sans-Serif" font-size="10.00" fill="#000000">setDefaultHomeostasisParams</text>
</g>
<!-- Node803 -->
<g id="node2" class="node">
<title>Node803</title>
<g id="a_node2"><a xlink:href="classCARLsim_1_1Impl.html#abb10cfa3d0f3a246442e1187ecb837ae" target="_top" xlink:title="setDefaultSTPparams">
<polygon fill="#ffffff" stroke="#000000" points="216.5,-50 216.5,-69 329.5,-69 329.5,-50 216.5,-50"/>
<text text-anchor="middle" x="273" y="-57" font-family="Helvetica,sans-Serif" font-size="10.00" fill="#000000">setDefaultSTPparams</text>
</a>
</g>
</g>
<!-- Node802&#45;&gt;Node803 -->
<g id="edge1" class="edge">
<title>Node802&#45;&gt;Node803</title>
<path fill="none" stroke="#191970" d="M163.0226,-47.187C181.1293,-49.2142 199.775,-51.3018 216.4524,-53.169"/>
<polygon fill="#191970" stroke="#191970" points="163.3621,-43.7032 153.0347,-46.0688 162.5831,-50.6598 163.3621,-43.7032"/>
</g>
<!-- Node805 -->
<g id="node4" class="node">
<title>Node805</title>
<g id="a_node4"><a xlink:href="classCARLsim.html#a13fbb8775775a31cb974b709430a6d30" target="_top" xlink:title="Sets default homeostasis params. ">
<polygon fill="#ffffff" stroke="#000000" points="189,-.5 189,-30.5 357,-30.5 357,-.5 189,-.5"/>
<text text-anchor="start" x="197" y="-18.5" font-family="Helvetica,sans-Serif" font-size="10.00" fill="#000000">CARLsim::setDefaultHomeostasis</text>
<text text-anchor="middle" x="273" y="-7.5" font-family="Helvetica,sans-Serif" font-size="10.00" fill="#000000">Params</text>
</a>
</g>
</g>
<!-- Node802&#45;&gt;Node805 -->
<g id="edge3" class="edge">
<title>Node802&#45;&gt;Node805</title>
<path fill="none" stroke="#191970" d="M163.0329,-27.8118C171.6107,-26.8515 180.3094,-25.8776 188.8624,-24.92"/>
<polygon fill="#191970" stroke="#191970" points="162.5831,-24.3402 153.0347,-28.9312 163.3621,-31.2968 162.5831,-24.3402"/>
</g>
<!-- Node804 -->
<g id="node3" class="node">
<title>Node804</title>
<g id="a_node3"><a xlink:href="classCARLsim.html#abb10cfa3d0f3a246442e1187ecb837ae" target="_top" xlink:title="Sets default values for STP params U, tau_u, and tau_x of a neuron group (pre&#45;synaptically) ...">
<polygon fill="#ffffff" stroke="#000000" points="393,-50 393,-69 555,-69 555,-50 393,-50"/>
<text text-anchor="middle" x="474" y="-57" font-family="Helvetica,sans-Serif" font-size="10.00" fill="#000000">CARLsim::setDefaultSTPparams</text>
</a>
</g>
</g>
<!-- Node803&#45;&gt;Node804 -->
<g id="edge2" class="edge">
<title>Node803&#45;&gt;Node804</title>
<path fill="none" stroke="#191970" d="M339.8697,-59.5C356.8162,-59.5 375.2047,-59.5 392.7763,-59.5"/>
<polygon fill="#191970" stroke="#191970" points="339.5246,-56.0001 329.5246,-59.5 339.5246,-63.0001 339.5246,-56.0001"/>
</g>
</g>
</svg>
        <g id="navigator" transform="translate(0 0)" fill="#404254">
                <rect fill="#f2f5e9" fill-opacity="0.5" stroke="#606060" stroke-width=".5" x="0" y="0" width="60" height="60"/>
                <use id="zoomplus" xlink:href="#zoomPlus" x="17" y="9" onmousedown="handleZoom(evt,'in')"/>
                <use id="zoomminus" xlink:href="#zoomMin" x="42" y="9" onmousedown="handleZoom(evt,'out')"/>
                <use id="reset" xlink:href="#resetDef" x="30" y="36" onmousedown="handleReset()"/>
                <g id="arrowUp" xlink:href="#dirArrow" transform="translate(30 24)" onmousedown="handlePan(0,-1)">
                  <use xlink:href="#rim" fill="#404040">
                        <set attributeName="fill" to="#808080" begin="arrowUp.mouseover" end="arrowUp.mouseout"/>
                  </use>
                  <path fill="none" stroke="white" stroke-width="1.5" d="M0,-3.0v7 M-2.5,-0.5L0,-3.0L2.5,-0.5"/>
                </g>
                <g id="arrowRight" xlink:href="#dirArrow" transform="rotate(90) translate(36 -43)" onmousedown="handlePan(1,0)">
                  <use xlink:href="#rim" fill="#404040">
                        <set attributeName="fill" to="#808080" begin="arrowRight.mouseover" end="arrowRight.mouseout"/>
                  </use>
                  <path fill="none" stroke="white" stroke-width="1.5" d="M0,-3.0v7 M-2.5,-0.5L0,-3.0L2.5,-0.5"/>
                </g>
                <g id="arrowDown" xlink:href="#dirArrow" transform="rotate(180) translate(-30 -48)" onmousedown="handlePan(0,1)">
                  <use xlink:href="#rim" fill="#404040">
                        <set attributeName="fill" to="#808080" begin="arrowDown.mouseover" end="arrowDown.mouseout"/>
                  </use>
                  <path fill="none" stroke="white" stroke-width="1.5" d="M0,-3.0v7 M-2.5,-0.5L0,-3.0L2.5,-0.5"/>
                </g>
                <g id="arrowLeft" xlink:href="#dirArrow" transform="rotate(270) translate(-36 17)" onmousedown="handlePan(-1,0)">
                  <use xlink:href="#rim" fill="#404040">
                        <set attributeName="fill" to="#808080" begin="arrowLeft.mouseover" end="arrowLeft.mouseout"/>
                  </use>
                  <path fill="none" stroke="white" stroke-width="1.5" d="M0,-3.0v7 M-2.5,-0.5L0,-3.0L2.5,-0.5"/>
                </g>
        </g>
        <svg viewBox="0 0 15 15" width="100%" height="30px" preserveAspectRatio="xMaxYMin meet">
         <g id="arrow_out" transform="scale(0.3 0.3)">
          <a xlink:href="classCARLsim_1_1Impl_a13fbb8775775a31cb974b709430a6d30_icgraph_org.svg" target="_base">
           <rect id="button" ry="5" rx="5" y="6" x="6" height="38" width="38"
                fill="#f2f5e9" fill-opacity="0.5" stroke="#606060" stroke-width="1.0"/>
           <path id="arrow"
             d="M 11.500037,31.436501 C 11.940474,20.09759 22.043105,11.32322 32.158766,21.979434 L 37.068811,17.246167 C 37.068811,17.246167 37.088388,32 37.088388,32 L 22.160133,31.978069 C 22.160133,31.978069 26.997745,27.140456 26.997745,27.140456 C 18.528582,18.264221 13.291696,25.230495 11.500037,31.436501 z"
             style="fill:#404040;"/>
          </a>
         </g>
        </svg>
</svg>
