<?xml version="1.0" encoding="UTF-8" standalone="no"?>
<!DOCTYPE svg PUBLIC "-//W3C//DTD SVG 1.1//EN"
 "http://www.w3.org/Graphics/SVG/1.1/DTD/svg11.dtd">
<!-- Generated by graphviz version 2.40.1 (20161225.0304)
 -->
<!-- Title: getRecordingLastStartTime Pages: 1 -->
<svg width="1604pt" height="486pt"
 viewBox="0.00 0.00 1604.00 486.00" xmlns="http://www.w3.org/2000/svg" xmlns:xlink="http://www.w3.org/1999/xlink">
<g id="graph0" class="graph" transform="scale(1 1) rotate(0) translate(4 482)">
<title>getRecordingLastStartTime</title>
<polygon fill="#ffffff" stroke="transparent" points="-4,4 -4,-482 1600,-482 1600,4 -4,4"/>
<!-- Node281 -->
<g id="node1" class="node">
<title>Node281</title>
<polygon fill="#bfbfbf" stroke="#000000" points="0,-145.5 0,-164.5 136,-164.5 136,-145.5 0,-145.5"/>
<text text-anchor="middle" x="68" y="-152.5" font-family="Helvetica,sans-Serif" font-size="10.00" fill="#000000">getRecordingLastStartTime</text>
</g>
<!-- Node282 -->
<g id="node2" class="node">
<title>Node282</title>
<g id="a_node2"><a xlink:href="classUserErrors.html#a4bbedc6c0817d5e59e74e450bf00472c" target="_top" xlink:title="simple wrapper for assert statement ">
<polygon fill="#ffffff" stroke="#000000" points="193,-183.5 193,-202.5 309,-202.5 309,-183.5 193,-183.5"/>
<text text-anchor="middle" x="251" y="-190.5" font-family="Helvetica,sans-Serif" font-size="10.00" fill="#000000">UserErrors::assertTrue</text>
</a>
</g>
</g>
<!-- Node281&#45;&gt;Node282 -->
<g id="edge1" class="edge">
<title>Node281&#45;&gt;Node282</title>
<path fill="none" stroke="#191970" d="M114.1786,-164.589C138.7626,-169.6939 169.1861,-176.0113 195.0975,-181.3918"/>
<polygon fill="#191970" stroke="#191970" points="194.6507,-184.8736 205.1534,-183.4799 196.0739,-178.0198 194.6507,-184.8736"/>
</g>
<!-- Node283 -->
<g id="node3" class="node">
<title>Node283</title>
<g id="a_node3"><a xlink:href="classSpikeMonitor.html#a3a3ffdb35b09328d22e5d72503ed1f55" target="_top" xlink:title="Recording status (true=recording, false=not recording) ">
<polygon fill="#ffffff" stroke="#000000" points="217,-145.5 217,-164.5 285,-164.5 285,-145.5 217,-145.5"/>
<text text-anchor="middle" x="251" y="-152.5" font-family="Helvetica,sans-Serif" font-size="10.00" fill="#000000">isRecording</text>
</a>
</g>
</g>
<!-- Node281&#45;&gt;Node283 -->
<g id="edge2" class="edge">
<title>Node281&#45;&gt;Node283</title>
<path fill="none" stroke="#191970" d="M136.1424,-155C159.8088,-155 185.7094,-155 206.9151,-155"/>
<polygon fill="#191970" stroke="#191970" points="206.9177,-158.5001 216.9177,-155 206.9176,-151.5001 206.9177,-158.5001"/>
</g>
<!-- Node297 -->
<g id="node17" class="node">
<title>Node297</title>
<g id="a_node17"><a xlink:href="classSpikeMonitorCore.html#a14818da15db1d5686bdbdf82a66f4cd7" target="_top" xlink:title="returns the timestamp of the last startRecording in ms ">
<polygon fill="#ffffff" stroke="#000000" points="172,-96 172,-126 330,-126 330,-96 172,-96"/>
<text text-anchor="start" x="180" y="-114" font-family="Helvetica,sans-Serif" font-size="10.00" fill="#000000">SpikeMonitorCore::getRecording</text>
<text text-anchor="middle" x="251" y="-103" font-family="Helvetica,sans-Serif" font-size="10.00" fill="#000000">LastStartTime</text>
</a>
</g>
</g>
<!-- Node281&#45;&gt;Node297 -->
<g id="edge30" class="edge">
<title>Node281&#45;&gt;Node297</title>
<path fill="none" stroke="#191970" d="M107.7083,-145.4527C128.4039,-140.4767 154.3704,-134.2334 178.4942,-128.4331"/>
<polygon fill="#191970" stroke="#191970" points="179.4371,-131.8062 188.3418,-126.0654 177.8006,-125.0002 179.4371,-131.8062"/>
</g>
<!-- Node284 -->
<g id="node4" class="node">
<title>Node284</title>
<g id="a_node4"><a xlink:href="classSpikeMonitorCore.html#a3a3ffdb35b09328d22e5d72503ed1f55" target="_top" xlink:title="returns recording status ">
<polygon fill="#ffffff" stroke="#000000" points="366,-145.5 366,-164.5 518,-164.5 518,-145.5 366,-145.5"/>
<text text-anchor="middle" x="442" y="-152.5" font-family="Helvetica,sans-Serif" font-size="10.00" fill="#000000">SpikeMonitorCore::isRecording</text>
</a>
</g>
</g>
<!-- Node283&#45;&gt;Node284 -->
<g id="edge3" class="edge">
<title>Node283&#45;&gt;Node284</title>
<path fill="none" stroke="#191970" d="M285.147,-155C304.8573,-155 330.6144,-155 355.5423,-155"/>
<polygon fill="#191970" stroke="#191970" points="355.7806,-158.5001 365.7806,-155 355.7805,-151.5001 355.7806,-158.5001"/>
</g>
<!-- Node285 -->
<g id="node5" class="node">
<title>Node285</title>
<g id="a_node5"><a xlink:href="classSpikeMonitorCore.html#af0ba89c38f6852cdf9d914687ad6a445" target="_top" xlink:title="prints the AER vector in human&#45;readable format ">
<polygon fill="#ffffff" stroke="#000000" points="566,-240.5 566,-259.5 685,-259.5 685,-240.5 566,-240.5"/>
<text text-anchor="middle" x="625.5" y="-247.5" font-family="Helvetica,sans-Serif" font-size="10.00" fill="#000000">SpikeMonitorCore::print</text>
</a>
</g>
</g>
<!-- Node284&#45;&gt;Node285 -->
<g id="edge4" class="edge">
<title>Node284&#45;&gt;Node285</title>
<path fill="none" stroke="#191970" d="M470.2697,-164.5995C507.4193,-181.371 571.8028,-214.8926 604.7587,-234.7944"/>
<polygon fill="#191970" stroke="#191970" points="603.2034,-237.949 613.543,-240.2608 606.9018,-232.0057 603.2034,-237.949"/>
</g>
<!-- Node296 -->
<g id="node16" class="node">
<title>Node296</title>
<g id="a_node16"><a xlink:href="classSpikeMonitorCore.html#a6e116c2994e0449c41e56d03370fa54c" target="_top" xlink:title="inserts a (time,neurId) tupel into the 2D spike vector ">
<polygon fill="#ffffff" stroke="#000000" points="554,-.5 554,-19.5 697,-19.5 697,-.5 554,-.5"/>
<text text-anchor="middle" x="625.5" y="-7.5" font-family="Helvetica,sans-Serif" font-size="10.00" fill="#000000">SpikeMonitorCore::pushAER</text>
</a>
</g>
</g>
<!-- Node284&#45;&gt;Node296 -->
<g id="edge27" class="edge">
<title>Node284&#45;&gt;Node296</title>
<path fill="none" stroke="#191970" d="M445.9008,-145.2409C458.8559,-120.4667 502.5578,-58.2585 554,-25 554.1856,-24.88 554.3718,-24.7606 554.5586,-24.6417"/>
<polygon fill="#191970" stroke="#191970" points="556.3736,-27.6361 563.3452,-19.6582 552.9202,-21.5473 556.3736,-27.6361"/>
</g>
<!-- Node285&#45;&gt;Node284 -->
<g id="edge5" class="edge">
<title>Node285&#45;&gt;Node284</title>
<path fill="none" stroke="#191970" d="M597.2882,-240.4266C560.0635,-223.6258 495.4219,-189.9655 462.5175,-170.0703"/>
<polygon fill="#191970" stroke="#191970" points="464.0957,-166.9298 453.7579,-164.6104 460.393,-172.8703 464.0957,-166.9298"/>
</g>
<!-- Node286 -->
<g id="node6" class="node">
<title>Node286</title>
<g id="a_node6"><a xlink:href="classSNN.html#a5fd2b156623d78138bcb44167eabab78" target="_top" xlink:title="SNN::getSimTime">
<polygon fill="#ffffff" stroke="#000000" points="750,-316.5 750,-335.5 847,-335.5 847,-316.5 750,-316.5"/>
<text text-anchor="middle" x="798.5" y="-323.5" font-family="Helvetica,sans-Serif" font-size="10.00" fill="#000000">SNN::getSimTime</text>
</a>
</g>
</g>
<!-- Node285&#45;&gt;Node286 -->
<g id="edge6" class="edge">
<title>Node285&#45;&gt;Node286</title>
<path fill="none" stroke="#191970" d="M641.037,-259.5498C661.5136,-271.8255 698.9332,-293.198 733,-307 738.7613,-309.3342 744.9143,-311.51 751.056,-313.4944"/>
<polygon fill="#191970" stroke="#191970" points="750.0527,-316.8476 760.6401,-316.4502 752.1158,-310.1584 750.0527,-316.8476"/>
</g>
<!-- Node287 -->
<g id="node7" class="node">
<title>Node287</title>
<g id="a_node7"><a xlink:href="classSNN.html#ab0367f8ebd4019bf7d34ebddb1563fe7" target="_top" xlink:title="SNN::getGroupName">
<polygon fill="#ffffff" stroke="#000000" points="743.5,-278.5 743.5,-297.5 853.5,-297.5 853.5,-278.5 743.5,-278.5"/>
<text text-anchor="middle" x="798.5" y="-285.5" font-family="Helvetica,sans-Serif" font-size="10.00" fill="#000000">SNN::getGroupName</text>
</a>
</g>
</g>
<!-- Node285&#45;&gt;Node287 -->
<g id="edge7" class="edge">
<title>Node285&#45;&gt;Node287</title>
<path fill="none" stroke="#191970" d="M669.1552,-259.589C692.2929,-264.6713 720.9024,-270.9554 745.3268,-276.3203"/>
<polygon fill="#191970" stroke="#191970" points="744.6406,-279.753 755.1587,-278.4799 746.1425,-272.916 744.6406,-279.753"/>
</g>
<!-- Node288 -->
<g id="node8" class="node">
<title>Node288</title>
<g id="a_node8"><a xlink:href="classSpikeMonitorCore.html#af6c333e6cefff92d0e354eca70625cdc" target="_top" xlink:title="returns the total number of recorded spikes in the group ">
<polygon fill="#ffffff" stroke="#000000" points="1095.5,-213 1095.5,-243 1226.5,-243 1226.5,-213 1095.5,-213"/>
<text text-anchor="start" x="1103.5" y="-231" font-family="Helvetica,sans-Serif" font-size="10.00" fill="#000000">SpikeMonitorCore::getPop</text>
<text text-anchor="middle" x="1161" y="-220" font-family="Helvetica,sans-Serif" font-size="10.00" fill="#000000">NumSpikes</text>
</a>
</g>
</g>
<!-- Node285&#45;&gt;Node288 -->
<g id="edge8" class="edge">
<title>Node285&#45;&gt;Node288</title>
<path fill="none" stroke="#191970" d="M685.1117,-247.551C782.9605,-243.531 977.4864,-235.5393 1085.0587,-231.1199"/>
<polygon fill="#191970" stroke="#191970" points="1085.3434,-234.6113 1095.1913,-230.7036 1085.056,-227.6172 1085.3434,-234.6113"/>
</g>
<!-- Node291 -->
<g id="node11" class="node">
<title>Node291</title>
<g id="a_node11"><a xlink:href="classSpikeMonitorCore.html#a9cf20c30ff0efdbc5e3c5194648a7fb3" target="_top" xlink:title="returns the total recorded time in ms ">
<polygon fill="#ffffff" stroke="#000000" points="1082,-349 1082,-379 1240,-379 1240,-349 1082,-349"/>
<text text-anchor="start" x="1090" y="-367" font-family="Helvetica,sans-Serif" font-size="10.00" fill="#000000">SpikeMonitorCore::getRecording</text>
<text text-anchor="middle" x="1161" y="-356" font-family="Helvetica,sans-Serif" font-size="10.00" fill="#000000">TotalTime</text>
</a>
</g>
</g>
<!-- Node285&#45;&gt;Node291 -->
<g id="edge13" class="edge">
<title>Node285&#45;&gt;Node291</title>
<path fill="none" stroke="#191970" d="M632.5129,-259.5742C647.9749,-279.7978 687.2775,-326.5225 733,-345 843.2263,-389.545 982.6606,-385.8715 1071.8585,-376.8267"/>
<polygon fill="#191970" stroke="#191970" points="1072.3669,-380.2926 1081.943,-375.7595 1071.6302,-373.3314 1072.3669,-380.2926"/>
</g>
<!-- Node292 -->
<g id="node12" class="node">
<title>Node292</title>
<g id="a_node12"><a xlink:href="classSpikeMonitorCore.html#ae62d623e8edfc6b05309256c1d825bbd" target="_top" xlink:title="returns the recorded mean firing rate of the group ">
<polygon fill="#ffffff" stroke="#000000" points="907.5,-191 907.5,-221 1038.5,-221 1038.5,-191 907.5,-191"/>
<text text-anchor="start" x="915.5" y="-209" font-family="Helvetica,sans-Serif" font-size="10.00" fill="#000000">SpikeMonitorCore::getPop</text>
<text text-anchor="middle" x="973" y="-198" font-family="Helvetica,sans-Serif" font-size="10.00" fill="#000000">MeanFiringRate</text>
</a>
</g>
</g>
<!-- Node285&#45;&gt;Node292 -->
<g id="edge14" class="edge">
<title>Node285&#45;&gt;Node292</title>
<path fill="none" stroke="#191970" d="M685.1974,-242.1699C700.7566,-240.1443 717.5044,-237.9775 733,-236 787.9101,-228.9926 849.9099,-221.2469 897.137,-215.3815"/>
<polygon fill="#191970" stroke="#191970" points="897.793,-218.827 907.2857,-214.1218 896.9307,-211.8803 897.793,-218.827"/>
</g>
<!-- Node293 -->
<g id="node13" class="node">
<title>Node293</title>
<g id="a_node13"><a xlink:href="classSpikeMonitorCore.html#ad0c4b32bb5cc0c7a8d95ed6023a2695f" target="_top" xlink:title="computes the standard deviation of firing rates in the group ">
<polygon fill="#ffffff" stroke="#000000" points="733,-115 733,-145 864,-145 864,-115 733,-115"/>
<text text-anchor="start" x="741" y="-133" font-family="Helvetica,sans-Serif" font-size="10.00" fill="#000000">SpikeMonitorCore::getPop</text>
<text text-anchor="middle" x="798.5" y="-122" font-family="Helvetica,sans-Serif" font-size="10.00" fill="#000000">StdFiringRate</text>
</a>
</g>
</g>
<!-- Node285&#45;&gt;Node293 -->
<g id="edge18" class="edge">
<title>Node285&#45;&gt;Node293</title>
<path fill="none" stroke="#191970" d="M639.3649,-240.3827C667.2009,-221.0745 730.4531,-177.2001 768.2946,-150.9517"/>
<polygon fill="#191970" stroke="#191970" points="770.6525,-153.5758 776.8745,-145.0004 766.6628,-147.824 770.6525,-153.5758"/>
</g>
<!-- Node295 -->
<g id="node15" class="node">
<title>Node295</title>
<g id="a_node15"><a xlink:href="classSpikeMonitorCore.html#aed09edf4583ac05d42fccc7e3556e3c5" target="_top" xlink:title="returns the recorded mean firing rate for a specific neuron ">
<polygon fill="#ffffff" stroke="#000000" points="900,-393 900,-423 1046,-423 1046,-393 900,-393"/>
<text text-anchor="start" x="908" y="-411" font-family="Helvetica,sans-Serif" font-size="10.00" fill="#000000">SpikeMonitorCore::getNeuron</text>
<text text-anchor="middle" x="973" y="-400" font-family="Helvetica,sans-Serif" font-size="10.00" fill="#000000">MeanFiringRate</text>
</a>
</g>
</g>
<!-- Node285&#45;&gt;Node295 -->
<g id="edge23" class="edge">
<title>Node285&#45;&gt;Node295</title>
<path fill="none" stroke="#191970" d="M630.3776,-259.8309C643.2447,-284.5916 680.7437,-349.568 733,-378 780.607,-403.9023 841.216,-411.3118 889.6149,-412.2915"/>
<polygon fill="#191970" stroke="#191970" points="889.7089,-415.7927 899.7483,-412.4073 889.789,-408.7931 889.7089,-415.7927"/>
</g>
<!-- Node288&#45;&gt;Node284 -->
<g id="edge9" class="edge">
<title>Node288&#45;&gt;Node284</title>
<path fill="none" stroke="#191970" d="M1154.2266,-212.7709C1139.6276,-182.1 1101.929,-113.5566 1046,-87 848.3379,6.8552 766.7514,-53.8535 554,-105 522.7989,-112.5009 489.5206,-128.4973 467.4228,-140.3878"/>
<polygon fill="#191970" stroke="#191970" points="465.4653,-137.4698 458.39,-145.3559 468.8389,-143.6033 465.4653,-137.4698"/>
</g>
<!-- Node289 -->
<g id="node9" class="node">
<title>Node289</title>
<g id="a_node9"><a xlink:href="classSpikeMonitorCore.html#a005a2f884f6260054483d4fa6ed6ddbb" target="_top" xlink:title="returns the number of recorded spikes of a specific neuron ">
<polygon fill="#ffffff" stroke="#000000" points="1276,-314 1276,-344 1422,-344 1422,-314 1276,-314"/>
<text text-anchor="start" x="1284" y="-332" font-family="Helvetica,sans-Serif" font-size="10.00" fill="#000000">SpikeMonitorCore::getNeuron</text>
<text text-anchor="middle" x="1349" y="-321" font-family="Helvetica,sans-Serif" font-size="10.00" fill="#000000">NumSpikes</text>
</a>
</g>
</g>
<!-- Node288&#45;&gt;Node289 -->
<g id="edge10" class="edge">
<title>Node288&#45;&gt;Node289</title>
<path fill="none" stroke="#191970" d="M1189.1455,-243.1207C1221.774,-260.6499 1275.6764,-289.6081 1311.7529,-308.9896"/>
<polygon fill="#191970" stroke="#191970" points="1310.5039,-312.2917 1320.9695,-313.9411 1313.8168,-306.1252 1310.5039,-312.2917"/>
</g>
<!-- Node289&#45;&gt;Node284 -->
<g id="edge11" class="edge">
<title>Node289&#45;&gt;Node284</title>
<path fill="none" stroke="#191970" d="M1333.8056,-344.1218C1313.9377,-363.0372 1277.2581,-395.1083 1240,-413 1129.9038,-465.8694 1095.1325,-478 973,-478 798.5,-478 798.5,-478 798.5,-478 676.6572,-478 641.9996,-438.2719 554,-354 497.9915,-300.364 462.1842,-212.5088 448.407,-174.0434"/>
<polygon fill="#191970" stroke="#191970" points="451.7028,-172.8646 445.1069,-164.5733 445.0926,-175.1681 451.7028,-172.8646"/>
</g>
<!-- Node290 -->
<g id="node10" class="node">
<title>Node290</title>
<g id="a_node10"><a xlink:href="classSpikeMonitorCore.html#abe76071e1ac3632d55f2455b239b3d12" target="_top" xlink:title="returns recording mode ">
<polygon fill="#ffffff" stroke="#000000" points="1458,-98.5 1458,-117.5 1596,-117.5 1596,-98.5 1458,-98.5"/>
<text text-anchor="middle" x="1527" y="-105.5" font-family="Helvetica,sans-Serif" font-size="10.00" fill="#000000">SpikeMonitorCore::getMode</text>
</a>
</g>
</g>
<!-- Node289&#45;&gt;Node290 -->
<g id="edge12" class="edge">
<title>Node289&#45;&gt;Node290</title>
<path fill="none" stroke="#191970" d="M1361.2347,-313.8098C1393.0597,-274.2967 1478.3266,-168.4316 1512.5203,-125.9776"/>
<polygon fill="#191970" stroke="#191970" points="1515.4572,-127.911 1519.0041,-117.9275 1510.0055,-123.5201 1515.4572,-127.911"/>
</g>
<!-- Node292&#45;&gt;Node284 -->
<g id="edge15" class="edge">
<title>Node292&#45;&gt;Node284</title>
<path fill="none" stroke="#191970" d="M907.1062,-199.6712C811.4439,-190.4833 633.9969,-173.4404 528.099,-163.2694"/>
<polygon fill="#191970" stroke="#191970" points="528.3682,-159.7792 518.0794,-162.3071 527.6989,-166.7472 528.3682,-159.7792"/>
</g>
<!-- Node292&#45;&gt;Node288 -->
<g id="edge16" class="edge">
<title>Node292&#45;&gt;Node288</title>
<path fill="none" stroke="#191970" d="M1038.7533,-213.6945C1053.78,-215.453 1069.8685,-217.3357 1085.2756,-219.1386"/>
<polygon fill="#191970" stroke="#191970" points="1084.9448,-222.6237 1095.2838,-220.3098 1085.7585,-215.6712 1084.9448,-222.6237"/>
</g>
<!-- Node292&#45;&gt;Node291 -->
<g id="edge17" class="edge">
<title>Node292&#45;&gt;Node291</title>
<path fill="none" stroke="#191970" d="M991.0262,-221.1497C1024.5744,-249.3445 1096.6852,-309.9482 1135.3185,-342.4166"/>
<polygon fill="#191970" stroke="#191970" points="1133.121,-345.1417 1143.0283,-348.8962 1137.6247,-339.7829 1133.121,-345.1417"/>
</g>
<!-- Node293&#45;&gt;Node284 -->
<g id="edge19" class="edge">
<title>Node293&#45;&gt;Node284</title>
<path fill="none" stroke="#191970" d="M732.7554,-134.6104C675.2333,-138.6442 591.2727,-144.5321 528.3465,-148.9448"/>
<polygon fill="#191970" stroke="#191970" points="527.7716,-145.4765 518.0409,-149.6675 528.2613,-152.4593 527.7716,-145.4765"/>
</g>
<!-- Node293&#45;&gt;Node292 -->
<g id="edge20" class="edge">
<title>Node293&#45;&gt;Node292</title>
<path fill="none" stroke="#191970" d="M832.9756,-145.0152C860.4907,-156.9988 899.2221,-173.8675 928.9779,-186.827"/>
<polygon fill="#191970" stroke="#191970" points="927.7321,-190.1019 938.2978,-190.8862 930.5272,-183.6842 927.7321,-190.1019"/>
</g>
<!-- Node294 -->
<g id="node14" class="node">
<title>Node294</title>
<g id="a_node14"><a xlink:href="classSpikeMonitorCore.html#a0fc20fcc5876030d796debd148ae7cee" target="_top" xlink:title="returns a list of firing rates for all neurons in the group (sorted by neuron ID ascending) ...">
<polygon fill="#ffffff" stroke="#000000" points="910.5,-96 910.5,-126 1035.5,-126 1035.5,-96 910.5,-96"/>
<text text-anchor="start" x="918.5" y="-114" font-family="Helvetica,sans-Serif" font-size="10.00" fill="#000000">SpikeMonitorCore::getAll</text>
<text text-anchor="middle" x="973" y="-103" font-family="Helvetica,sans-Serif" font-size="10.00" fill="#000000">FiringRates</text>
</a>
</g>
</g>
<!-- Node293&#45;&gt;Node294 -->
<g id="edge21" class="edge">
<title>Node293&#45;&gt;Node294</title>
<path fill="none" stroke="#191970" d="M864.471,-122.8169C876.116,-121.549 888.2997,-120.2224 900.1214,-118.9352"/>
<polygon fill="#191970" stroke="#191970" points="900.832,-122.3786 910.3943,-117.8167 900.0742,-115.4197 900.832,-122.3786"/>
</g>
<!-- Node294&#45;&gt;Node284 -->
<g id="edge22" class="edge">
<title>Node294&#45;&gt;Node284</title>
<path fill="none" stroke="#191970" d="M910.4774,-107.6393C895.2729,-106.9581 879.0561,-106.3451 864,-106 805.7931,-104.6657 791.0592,-101.6459 733,-106 652.7698,-112.0168 633.2706,-119.2429 554,-133 535.8021,-136.1582 516.0086,-139.933 498.1938,-143.4567"/>
<polygon fill="#191970" stroke="#191970" points="497.0836,-140.1091 487.9604,-145.4959 498.4516,-146.9741 497.0836,-140.1091"/>
</g>
<!-- Node295&#45;&gt;Node284 -->
<g id="edge24" class="edge">
<title>Node295&#45;&gt;Node284</title>
<path fill="none" stroke="#191970" d="M899.8395,-420.0807C851.2273,-425.2173 786.7051,-426.4034 733,-408 600.6454,-362.6454 490.4504,-222.7268 454.4442,-172.8712"/>
<polygon fill="#191970" stroke="#191970" points="457.2456,-170.7713 448.5957,-164.6533 451.5424,-174.8301 457.2456,-170.7713"/>
</g>
<!-- Node295&#45;&gt;Node289 -->
<g id="edge25" class="edge">
<title>Node295&#45;&gt;Node289</title>
<path fill="none" stroke="#191970" d="M1046.1733,-411.1643C1100.689,-411.5292 1176.3777,-407.7862 1240,-389 1268.8224,-380.4894 1298.51,-363.5084 1319.6098,-349.7771"/>
<polygon fill="#191970" stroke="#191970" points="1321.7147,-352.5805 1328.0992,-344.1254 1317.8356,-346.7536 1321.7147,-352.5805"/>
</g>
<!-- Node295&#45;&gt;Node291 -->
<g id="edge26" class="edge">
<title>Node295&#45;&gt;Node291</title>
<path fill="none" stroke="#191970" d="M1037.1731,-392.9808C1053.1172,-389.2492 1070.3385,-385.2186 1086.7227,-381.384"/>
<polygon fill="#191970" stroke="#191970" points="1087.8579,-384.713 1096.7971,-379.0262 1086.2626,-377.8972 1087.8579,-384.713"/>
</g>
<!-- Node296&#45;&gt;Node284 -->
<g id="edge28" class="edge">
<title>Node296&#45;&gt;Node284</title>
<path fill="none" stroke="#191970" d="M610.2992,-19.5979C595.1247,-25.0941 571.5934,-31.6255 554,-43 513.7892,-68.9972 478.3078,-112.6828 458.5438,-137.3298"/>
<polygon fill="#191970" stroke="#191970" points="455.7608,-135.2056 452.2265,-145.1936 461.2179,-139.5896 455.7608,-135.2056"/>
</g>
<!-- Node296&#45;&gt;Node290 -->
<g id="edge29" class="edge">
<title>Node296&#45;&gt;Node290</title>
<path fill="none" stroke="#191970" d="M697.0446,-10C767.3016,-10 877.528,-10 973,-10 973,-10 973,-10 1161,-10 1289.6726,-10 1435.3973,-67.2176 1496.989,-94.2126"/>
<polygon fill="#191970" stroke="#191970" points="1495.9159,-97.5655 1506.4758,-98.4249 1498.7566,-91.1678 1495.9159,-97.5655"/>
</g>
</g>
</svg>
