<?xml version="1.0" encoding="UTF-8" standalone="no"?>
<!DOCTYPE svg PUBLIC "-//W3C//DTD SVG 1.1//EN"
 "http://www.w3.org/Graphics/SVG/1.1/DTD/svg11.dtd">
<!-- Generated by graphviz version 2.40.1 (20161225.0304)
 -->
<!-- Title: getGroupFileId Pages: 1 -->
<svg width="355pt" height="66pt"
 viewBox="0.00 0.00 355.00 66.00" xmlns="http://www.w3.org/2000/svg" xmlns:xlink="http://www.w3.org/1999/xlink">
<g id="graph0" class="graph" transform="scale(1 1) rotate(0) translate(4 62)">
<title>getGroupFileId</title>
<polygon fill="#ffffff" stroke="transparent" points="-4,4 -4,-62 351,-62 351,4 -4,4"/>
<!-- Node36 -->
<g id="node1" class="node">
<title>Node36</title>
<polygon fill="#bfbfbf" stroke="#000000" points="0,-19.5 0,-38.5 80,-38.5 80,-19.5 0,-19.5"/>
<text text-anchor="middle" x="40" y="-26.5" font-family="Helvetica,sans-Serif" font-size="10.00" fill="#000000">getGroupFileId</text>
</g>
<!-- Node37 -->
<g id="node2" class="node">
<title>Node37</title>
<g id="a_node2"><a xlink:href="classGroupMonitorCore.html#ac455fddf546e804839052af1614b4b15" target="_top" xlink:title="sets pointer to group data file ">
<polygon fill="#ffffff" stroke="#000000" points="116,-19.5 116,-38.5 196,-38.5 196,-19.5 116,-19.5"/>
<text text-anchor="middle" x="156" y="-26.5" font-family="Helvetica,sans-Serif" font-size="10.00" fill="#000000">setGroupFileId</text>
</a>
</g>
</g>
<!-- Node36&#45;&gt;Node37 -->
<g id="edge1" class="edge">
<title>Node36&#45;&gt;Node37</title>
<path fill="none" stroke="#191970" d="M80.2456,-29C88.4334,-29 97.1436,-29 105.6318,-29"/>
<polygon fill="#191970" stroke="#191970" points="105.8256,-32.5001 115.8255,-29 105.8255,-25.5001 105.8256,-32.5001"/>
</g>
<!-- Node38 -->
<g id="node3" class="node">
<title>Node38</title>
<g id="a_node3"><a xlink:href="classGroupMonitorCore.html#a3a3ffdb35b09328d22e5d72503ed1f55" target="_top" xlink:title="returns recording status ">
<polygon fill="#ffffff" stroke="#000000" points="255.5,-38.5 255.5,-57.5 323.5,-57.5 323.5,-38.5 255.5,-38.5"/>
<text text-anchor="middle" x="289.5" y="-45.5" font-family="Helvetica,sans-Serif" font-size="10.00" fill="#000000">isRecording</text>
</a>
</g>
</g>
<!-- Node37&#45;&gt;Node38 -->
<g id="edge2" class="edge">
<title>Node37&#45;&gt;Node38</title>
<path fill="none" stroke="#191970" d="M196.0544,-34.7006C211.5531,-36.9064 229.3506,-39.4394 245.2274,-41.699"/>
<polygon fill="#191970" stroke="#191970" points="244.9464,-45.1942 255.3398,-43.1382 245.9327,-38.2641 244.9464,-45.1942"/>
</g>
<!-- Node39 -->
<g id="node4" class="node">
<title>Node39</title>
<g id="a_node4"><a xlink:href="classSNN.html#ac13b30c40669d3cb8264bd6e211b449d" target="_top" xlink:title="SNN::getGroupGrid3D">
<polygon fill="#ffffff" stroke="#000000" points="232,-.5 232,-19.5 347,-19.5 347,-.5 232,-.5"/>
<text text-anchor="middle" x="289.5" y="-7.5" font-family="Helvetica,sans-Serif" font-size="10.00" fill="#000000">SNN::getGroupGrid3D</text>
</a>
</g>
</g>
<!-- Node37&#45;&gt;Node39 -->
<g id="edge3" class="edge">
<title>Node37&#45;&gt;Node39</title>
<path fill="none" stroke="#191970" d="M196.0544,-23.2994C204.2015,-22.1399 212.9839,-20.8899 221.7886,-19.6368"/>
<polygon fill="#191970" stroke="#191970" points="222.2992,-23.0995 231.7062,-18.2253 221.3128,-16.1694 222.2992,-23.0995"/>
</g>
</g>
</svg>
