<?xml version="1.0" encoding="UTF-8" standalone="no"?>
<!DOCTYPE svg PUBLIC "-//W3C//DTD SVG 1.1//EN"
 "http://www.w3.org/Graphics/SVG/1.1/DTD/svg11.dtd">
<!-- Generated by graphviz version 2.40.1 (20161225.0304)
 -->
<!-- Title: connect Pages: 1 -->
<svg width="527pt" height="39pt"
 viewBox="0.00 0.00 527.00 39.00" xmlns="http://www.w3.org/2000/svg" xmlns:xlink="http://www.w3.org/1999/xlink">
<g id="graph0" class="graph" transform="scale(1 1) rotate(0) translate(4 35)">
<title>connect</title>
<polygon fill="#ffffff" stroke="transparent" points="-4,4 -4,-35 523,-35 523,4 -4,4"/>
<!-- Node20 -->
<g id="node1" class="node">
<title>Node20</title>
<polygon fill="#bfbfbf" stroke="#000000" points="0,-6 0,-25 51,-25 51,-6 0,-6"/>
<text text-anchor="middle" x="25.5" y="-13" font-family="Helvetica,sans-Serif" font-size="10.00" fill="#000000">connect</text>
</g>
<!-- Node21 -->
<g id="node2" class="node">
<title>Node21</title>
<g id="a_node2"><a xlink:href="classCARLsim_1_1Impl.html#afed01f52e943df5e5476428c4fbef8f7" target="_top" xlink:title="CARLsim::Impl::connect">
<polygon fill="#ffffff" stroke="#000000" points="87,-6 87,-25 212,-25 212,-6 87,-6"/>
<text text-anchor="middle" x="149.5" y="-13" font-family="Helvetica,sans-Serif" font-size="10.00" fill="#000000">CARLsim::Impl::connect</text>
</a>
</g>
</g>
<!-- Node20&#45;&gt;Node21 -->
<g id="edge1" class="edge">
<title>Node20&#45;&gt;Node21</title>
<path fill="none" stroke="#191970" d="M61.2552,-15.5C69.2684,-15.5 77.9989,-15.5 86.7493,-15.5"/>
<polygon fill="#191970" stroke="#191970" points="61.1929,-12.0001 51.1929,-15.5 61.1928,-19.0001 61.1929,-12.0001"/>
</g>
<!-- Node22 -->
<g id="node3" class="node">
<title>Node22</title>
<g id="a_node3"><a xlink:href="classCARLsim.html#a30b16b93d57551dcde0559e8a4e98e27" target="_top" xlink:title="Connects a presynaptic to a postsynaptic group using fixed/plastic weights and a range of delay value...">
<polygon fill="#ffffff" stroke="#000000" points="248,-6 248,-25 348,-25 348,-6 248,-6"/>
<text text-anchor="middle" x="298" y="-13" font-family="Helvetica,sans-Serif" font-size="10.00" fill="#000000">CARLsim::connect</text>
</a>
</g>
</g>
<!-- Node21&#45;&gt;Node22 -->
<g id="edge2" class="edge">
<title>Node21&#45;&gt;Node22</title>
<path fill="none" stroke="#191970" d="M222.1484,-15.5C230.7886,-15.5 239.4577,-15.5 247.6875,-15.5"/>
<polygon fill="#191970" stroke="#191970" points="222.047,-12.0001 212.047,-15.5 222.0469,-19.0001 222.047,-12.0001"/>
</g>
<!-- Node23 -->
<g id="node4" class="node">
<title>Node23</title>
<g id="a_node4"><a xlink:href="classCARLsim_1_1Impl.html#abb10cfa3d0f3a246442e1187ecb837ae" target="_top" xlink:title="CARLsim::Impl::setDefault\lSTPparams">
<polygon fill="#ffffff" stroke="#000000" points="384,-.5 384,-30.5 519,-30.5 519,-.5 384,-.5"/>
<text text-anchor="start" x="392" y="-18.5" font-family="Helvetica,sans-Serif" font-size="10.00" fill="#000000">CARLsim::Impl::setDefault</text>
<text text-anchor="middle" x="451.5" y="-7.5" font-family="Helvetica,sans-Serif" font-size="10.00" fill="#000000">STPparams</text>
</a>
</g>
</g>
<!-- Node22&#45;&gt;Node23 -->
<g id="edge3" class="edge">
<title>Node22&#45;&gt;Node23</title>
<path fill="none" stroke="#191970" d="M358.3116,-15.5C366.6855,-15.5 375.3333,-15.5 383.8306,-15.5"/>
<polygon fill="#191970" stroke="#191970" points="358.2617,-12.0001 348.2616,-15.5 358.2616,-19.0001 358.2617,-12.0001"/>
</g>
</g>
</svg>
