<?xml version="1.0" encoding="UTF-8" standalone="no"?>
<!DOCTYPE svg PUBLIC "-//W3C//DTD SVG 1.1//EN"
 "http://www.w3.org/Graphics/SVG/1.1/DTD/svg11.dtd">
<!-- Generated by graphviz version 2.40.1 (20161225.0304)
 -->
<!-- Title: biasWeights Pages: 1 -->
<svg width="702pt" height="39pt"
 viewBox="0.00 0.00 702.00 39.00" xmlns="http://www.w3.org/2000/svg" xmlns:xlink="http://www.w3.org/1999/xlink">
<g id="graph0" class="graph" transform="scale(1 1) rotate(0) translate(4 35)">
<title>biasWeights</title>
<polygon fill="#ffffff" stroke="transparent" points="-4,4 -4,-35 698,-35 698,4 -4,4"/>
<!-- Node5 -->
<g id="node1" class="node">
<title>Node5</title>
<polygon fill="#bfbfbf" stroke="#000000" points="0,-6 0,-25 71,-25 71,-6 0,-6"/>
<text text-anchor="middle" x="35.5" y="-13" font-family="Helvetica,sans-Serif" font-size="10.00" fill="#000000">biasWeights</text>
</g>
<!-- Node6 -->
<g id="node2" class="node">
<title>Node6</title>
<g id="a_node2"><a xlink:href="classCARLsim_1_1Impl.html#af71e7773ae33e0f23e91ff46d014e1e8" target="_top" xlink:title="CARLsim::Impl::biasWeights">
<polygon fill="#ffffff" stroke="#000000" points="107,-6 107,-25 251,-25 251,-6 107,-6"/>
<text text-anchor="middle" x="179" y="-13" font-family="Helvetica,sans-Serif" font-size="10.00" fill="#000000">CARLsim::Impl::biasWeights</text>
</a>
</g>
</g>
<!-- Node5&#45;&gt;Node6 -->
<g id="edge1" class="edge">
<title>Node5&#45;&gt;Node6</title>
<path fill="none" stroke="#191970" d="M81.3801,-15.5C89.5544,-15.5 98.2461,-15.5 106.9437,-15.5"/>
<polygon fill="#191970" stroke="#191970" points="81.341,-12.0001 71.3409,-15.5 81.3409,-19.0001 81.341,-12.0001"/>
</g>
<!-- Node7 -->
<g id="node3" class="node">
<title>Node7</title>
<g id="a_node3"><a xlink:href="classCARLsim.html#a075514437469255e73d058ce7a31092b" target="_top" xlink:title="Adds a constant bias to the weight of every synapse in the connection. ">
<polygon fill="#ffffff" stroke="#000000" points="287,-6 287,-25 406,-25 406,-6 287,-6"/>
<text text-anchor="middle" x="346.5" y="-13" font-family="Helvetica,sans-Serif" font-size="10.00" fill="#000000">CARLsim::biasWeights</text>
</a>
</g>
</g>
<!-- Node6&#45;&gt;Node7 -->
<g id="edge2" class="edge">
<title>Node6&#45;&gt;Node7</title>
<path fill="none" stroke="#191970" d="M261.1622,-15.5C269.8407,-15.5 278.5419,-15.5 286.893,-15.5"/>
<polygon fill="#191970" stroke="#191970" points="261.0072,-12.0001 251.0072,-15.5 261.0071,-19.0001 261.0072,-12.0001"/>
</g>
<!-- Node8 -->
<g id="node4" class="node">
<title>Node8</title>
<g id="a_node4"><a xlink:href="classSimpleWeightTuner_1_1Impl.html#a312d84bfa66a5036bb52a4c39db6fa6c" target="_top" xlink:title="SimpleWeightTuner::\lImpl::iterate">
<polygon fill="#ffffff" stroke="#000000" points="442,-.5 442,-30.5 550,-30.5 550,-.5 442,-.5"/>
<text text-anchor="start" x="450" y="-18.5" font-family="Helvetica,sans-Serif" font-size="10.00" fill="#000000">SimpleWeightTuner::</text>
<text text-anchor="middle" x="496" y="-7.5" font-family="Helvetica,sans-Serif" font-size="10.00" fill="#000000">Impl::iterate</text>
</a>
</g>
</g>
<!-- Node7&#45;&gt;Node8 -->
<g id="edge3" class="edge">
<title>Node7&#45;&gt;Node8</title>
<path fill="none" stroke="#191970" d="M416.2856,-15.5C424.7638,-15.5 433.3276,-15.5 441.538,-15.5"/>
<polygon fill="#191970" stroke="#191970" points="416.016,-12.0001 406.0159,-15.5 416.0159,-19.0001 416.016,-12.0001"/>
</g>
<!-- Node9 -->
<g id="node5" class="node">
<title>Node9</title>
<g id="a_node5"><a xlink:href="classSimpleWeightTuner.html#a0df985e3ff7a27edc1e2e3fcc8261843" target="_top" xlink:title="Performs an iteration step of the tuning algorithm. ">
<polygon fill="#ffffff" stroke="#000000" points="586,-.5 586,-30.5 694,-30.5 694,-.5 586,-.5"/>
<text text-anchor="start" x="594" y="-18.5" font-family="Helvetica,sans-Serif" font-size="10.00" fill="#000000">SimpleWeightTuner::</text>
<text text-anchor="middle" x="640" y="-7.5" font-family="Helvetica,sans-Serif" font-size="10.00" fill="#000000">iterate</text>
</a>
</g>
</g>
<!-- Node8&#45;&gt;Node9 -->
<g id="edge4" class="edge">
<title>Node8&#45;&gt;Node9</title>
<path fill="none" stroke="#191970" d="M560.2702,-15.5C568.7504,-15.5 577.3754,-15.5 585.6672,-15.5"/>
<polygon fill="#191970" stroke="#191970" points="560.03,-12.0001 550.03,-15.5 560.0299,-19.0001 560.03,-12.0001"/>
</g>
</g>
</svg>
