<?xml version="1.0" encoding="UTF-8" standalone="no"?>
<!DOCTYPE svg PUBLIC "-//W3C//DTD SVG 1.1//EN"
 "http://www.w3.org/Graphics/SVG/1.1/DTD/svg11.dtd">
<!-- Generated by graphviz version 2.40.1 (20161225.0304)
 -->
<!-- Title: setNeuronParameters Pages: 1 -->
<svg width="594pt" height="142pt"
 viewBox="0.00 0.00 594.00 142.00" xmlns="http://www.w3.org/2000/svg" xmlns:xlink="http://www.w3.org/1999/xlink">
<g id="graph0" class="graph" transform="scale(1 1) rotate(0) translate(4 138)">
<title>setNeuronParameters</title>
<polygon fill="#ffffff" stroke="transparent" points="-4,4 -4,-138 590,-138 590,4 -4,4"/>
<!-- Node1100 -->
<g id="node1" class="node">
<title>Node1100</title>
<polygon fill="#bfbfbf" stroke="#000000" points="0,-57.5 0,-76.5 112,-76.5 112,-57.5 0,-57.5"/>
<text text-anchor="middle" x="56" y="-64.5" font-family="Helvetica,sans-Serif" font-size="10.00" fill="#000000">setNeuronParameters</text>
</g>
<!-- Node1101 -->
<g id="node2" class="node">
<title>Node1101</title>
<g id="a_node2"><a xlink:href="classCARLsim_1_1Impl.html#ab0367f8ebd4019bf7d34ebddb1563fe7" target="_top" xlink:title="getGroupName">
<polygon fill="#ffffff" stroke="#000000" points="176.5,-38.5 176.5,-57.5 259.5,-57.5 259.5,-38.5 176.5,-38.5"/>
<text text-anchor="middle" x="218" y="-45.5" font-family="Helvetica,sans-Serif" font-size="10.00" fill="#000000">getGroupName</text>
</a>
</g>
</g>
<!-- Node1100&#45;&gt;Node1101 -->
<g id="edge1" class="edge">
<title>Node1100&#45;&gt;Node1101</title>
<path fill="none" stroke="#191970" d="M112.2051,-60.408C129.6869,-58.3577 148.874,-56.1074 166.0517,-54.0927"/>
<polygon fill="#191970" stroke="#191970" points="166.9302,-57.5137 176.4544,-52.8726 166.1147,-50.5614 166.9302,-57.5137"/>
</g>
<!-- Node1102 -->
<g id="node3" class="node">
<title>Node1102</title>
<g id="a_node3"><a xlink:href="classUserErrors.html#a4bbedc6c0817d5e59e74e450bf00472c" target="_top" xlink:title="simple wrapper for assert statement ">
<polygon fill="#ffffff" stroke="#000000" points="324,-114.5 324,-133.5 440,-133.5 440,-114.5 324,-114.5"/>
<text text-anchor="middle" x="382" y="-121.5" font-family="Helvetica,sans-Serif" font-size="10.00" fill="#000000">UserErrors::assertTrue</text>
</a>
</g>
</g>
<!-- Node1100&#45;&gt;Node1102 -->
<g id="edge6" class="edge">
<title>Node1100&#45;&gt;Node1102</title>
<path fill="none" stroke="#191970" d="M74.4541,-76.6317C92.6318,-85.6299 121.4551,-98.6063 148,-105 202.8213,-118.2043 266.7308,-122.6859 313.8944,-124.0162"/>
<polygon fill="#191970" stroke="#191970" points="313.914,-127.5176 323.9957,-124.2604 314.0832,-120.5197 313.914,-127.5176"/>
</g>
<!-- Node1106 -->
<g id="node7" class="node">
<title>Node1106</title>
<g id="a_node7"><a xlink:href="classCARLsim_1_1Impl.html#ae136e178382096490a2d34f78cd2afa2" target="_top" xlink:title="isPoissonGroup">
<polygon fill="#ffffff" stroke="#000000" points="175,-76.5 175,-95.5 261,-95.5 261,-76.5 175,-76.5"/>
<text text-anchor="middle" x="218" y="-83.5" font-family="Helvetica,sans-Serif" font-size="10.00" fill="#000000">isPoissonGroup</text>
</a>
</g>
</g>
<!-- Node1100&#45;&gt;Node1106 -->
<g id="edge7" class="edge">
<title>Node1100&#45;&gt;Node1106</title>
<path fill="none" stroke="#191970" d="M112.2051,-73.592C129.2328,-75.589 147.8784,-77.7759 164.7092,-79.7498"/>
<polygon fill="#191970" stroke="#191970" points="164.5839,-83.2591 174.9235,-80.9478 165.3993,-76.3067 164.5839,-83.2591"/>
</g>
<!-- Node1108 -->
<g id="node9" class="node">
<title>Node1108</title>
<g id="a_node9"><a xlink:href="classSNN.html#aa6e1dc5ae50722ae3d693f2c963d84cd" target="_top" xlink:title="Sets the Izhikevich parameters a, b, c, and d of a neuron group. ">
<polygon fill="#ffffff" stroke="#000000" points="148,-.5 148,-19.5 288,-19.5 288,-.5 148,-.5"/>
<text text-anchor="middle" x="218" y="-7.5" font-family="Helvetica,sans-Serif" font-size="10.00" fill="#000000">SNN::setNeuronParameters</text>
</a>
</g>
</g>
<!-- Node1100&#45;&gt;Node1108 -->
<g id="edge11" class="edge">
<title>Node1100&#45;&gt;Node1108</title>
<path fill="none" stroke="#191970" d="M76.9037,-57.4754C95.3646,-49.2794 123.1363,-37.4712 148,-29 154.8836,-26.6547 162.2237,-24.4007 169.4642,-22.316"/>
<polygon fill="#191970" stroke="#191970" points="170.5362,-25.6506 179.2234,-19.5857 168.6502,-18.9094 170.5362,-25.6506"/>
</g>
<!-- Node1101&#45;&gt;Node1102 -->
<g id="edge2" class="edge">
<title>Node1101&#45;&gt;Node1102</title>
<path fill="none" stroke="#191970" d="M259.5033,-55.2646C269.2743,-58.0379 279.3529,-61.8316 288,-67 307.9693,-78.9358 304.3448,-92.5538 324,-105 327.1864,-107.0177 330.608,-108.8416 334.1377,-110.4867"/>
<polygon fill="#191970" stroke="#191970" points="333.0688,-113.8325 343.6466,-114.4336 335.7524,-107.3673 333.0688,-113.8325"/>
</g>
<!-- Node1103 -->
<g id="node4" class="node">
<title>Node1103</title>
<g id="a_node4"><a xlink:href="classCARLsim_1_1Impl.html#a292bdee57fec7c77ec4c15ea3f508d60" target="_top" xlink:title="getNumGroups">
<polygon fill="#ffffff" stroke="#000000" points="340.5,-38.5 340.5,-57.5 423.5,-57.5 423.5,-38.5 340.5,-38.5"/>
<text text-anchor="middle" x="382" y="-45.5" font-family="Helvetica,sans-Serif" font-size="10.00" fill="#000000">getNumGroups</text>
</a>
</g>
</g>
<!-- Node1101&#45;&gt;Node1103 -->
<g id="edge3" class="edge">
<title>Node1101&#45;&gt;Node1103</title>
<path fill="none" stroke="#191970" d="M259.8085,-48C281.2056,-48 307.4534,-48 330.1303,-48"/>
<polygon fill="#191970" stroke="#191970" points="330.2679,-51.5001 340.2679,-48 330.2678,-44.5001 330.2679,-51.5001"/>
</g>
<!-- Node1105 -->
<g id="node6" class="node">
<title>Node1105</title>
<g id="a_node6"><a xlink:href="classSNN.html#ab0367f8ebd4019bf7d34ebddb1563fe7" target="_top" xlink:title="SNN::getGroupName">
<polygon fill="#ffffff" stroke="#000000" points="327,-.5 327,-19.5 437,-19.5 437,-.5 327,-.5"/>
<text text-anchor="middle" x="382" y="-7.5" font-family="Helvetica,sans-Serif" font-size="10.00" fill="#000000">SNN::getGroupName</text>
</a>
</g>
</g>
<!-- Node1101&#45;&gt;Node1105 -->
<g id="edge5" class="edge">
<title>Node1101&#45;&gt;Node1105</title>
<path fill="none" stroke="#191970" d="M259.3841,-38.411C281.1232,-33.3739 307.9575,-27.1562 330.9747,-21.8229"/>
<polygon fill="#191970" stroke="#191970" points="331.9616,-25.1871 340.9135,-19.5201 330.3815,-18.3677 331.9616,-25.1871"/>
</g>
<!-- Node1104 -->
<g id="node5" class="node">
<title>Node1104</title>
<g id="a_node5"><a xlink:href="classSNN.html#a292bdee57fec7c77ec4c15ea3f508d60" target="_top" xlink:title="SNN::getNumGroups">
<polygon fill="#ffffff" stroke="#000000" points="476,-38.5 476,-57.5 586,-57.5 586,-38.5 476,-38.5"/>
<text text-anchor="middle" x="531" y="-45.5" font-family="Helvetica,sans-Serif" font-size="10.00" fill="#000000">SNN::getNumGroups</text>
</a>
</g>
</g>
<!-- Node1103&#45;&gt;Node1104 -->
<g id="edge4" class="edge">
<title>Node1103&#45;&gt;Node1104</title>
<path fill="none" stroke="#191970" d="M423.5048,-48C436.5315,-48 451.2449,-48 465.5109,-48"/>
<polygon fill="#191970" stroke="#191970" points="465.7892,-51.5001 475.7892,-48 465.7891,-44.5001 465.7892,-51.5001"/>
</g>
<!-- Node1106&#45;&gt;Node1102 -->
<g id="edge8" class="edge">
<title>Node1106&#45;&gt;Node1102</title>
<path fill="none" stroke="#191970" d="M259.3841,-95.589C281.1232,-100.6261 307.9575,-106.8438 330.9747,-112.1771"/>
<polygon fill="#191970" stroke="#191970" points="330.3815,-115.6323 340.9135,-114.4799 331.9616,-108.8129 330.3815,-115.6323"/>
</g>
<!-- Node1106&#45;&gt;Node1103 -->
<g id="edge9" class="edge">
<title>Node1106&#45;&gt;Node1103</title>
<path fill="none" stroke="#191970" d="M259.3841,-76.411C281.1232,-71.3739 307.9575,-65.1562 330.9747,-59.8229"/>
<polygon fill="#191970" stroke="#191970" points="331.9616,-63.1871 340.9135,-57.5201 330.3815,-56.3677 331.9616,-63.1871"/>
</g>
<!-- Node1107 -->
<g id="node8" class="node">
<title>Node1107</title>
<g id="a_node8"><a xlink:href="classSNN.html#a3764348d44236ad4932627cd4d199c31" target="_top" xlink:title="SNN::isPoissonGroup">
<polygon fill="#ffffff" stroke="#000000" points="325.5,-76.5 325.5,-95.5 438.5,-95.5 438.5,-76.5 325.5,-76.5"/>
<text text-anchor="middle" x="382" y="-83.5" font-family="Helvetica,sans-Serif" font-size="10.00" fill="#000000">SNN::isPoissonGroup</text>
</a>
</g>
</g>
<!-- Node1106&#45;&gt;Node1107 -->
<g id="edge10" class="edge">
<title>Node1106&#45;&gt;Node1107</title>
<path fill="none" stroke="#191970" d="M261.0891,-86C277.6645,-86 297.0013,-86 315.2867,-86"/>
<polygon fill="#191970" stroke="#191970" points="315.3129,-89.5001 325.3129,-86 315.3129,-82.5001 315.3129,-89.5001"/>
</g>
</g>
</svg>
