<?xml version="1.0" encoding="UTF-8" standalone="no"?>
<!DOCTYPE svg PUBLIC "-//W3C//DTD SVG 1.1//EN"
 "http://www.w3.org/Graphics/SVG/1.1/DTD/svg11.dtd">
<!-- Generated by graphviz version 2.40.1 (20161225.0304)
 -->
<!-- Title: getLogFpErr Pages: 1 -->
<svg width="1556pt" height="237pt"
 viewBox="0.00 0.00 1556.00 237.00" xmlns="http://www.w3.org/2000/svg" xmlns:xlink="http://www.w3.org/1999/xlink">
<g id="graph0" class="graph" transform="scale(1 1) rotate(0) translate(4 233)">
<title>getLogFpErr</title>
<polygon fill="#ffffff" stroke="transparent" points="-4,4 -4,-233 1552,-233 1552,4 -4,4"/>
<!-- Node614 -->
<g id="node1" class="node">
<title>Node614</title>
<polygon fill="#bfbfbf" stroke="#000000" points="0,-88.5 0,-107.5 70,-107.5 70,-88.5 0,-88.5"/>
<text text-anchor="middle" x="35" y="-95.5" font-family="Helvetica,sans-Serif" font-size="10.00" fill="#000000">getLogFpErr</text>
</g>
<!-- Node615 -->
<g id="node2" class="node">
<title>Node615</title>
<g id="a_node2"><a xlink:href="classCARLsim_1_1Impl.html#a5de043bd478d97d08d1671967cddc551" target="_top" xlink:title="CARLsim::Impl::getLogFpErr">
<polygon fill="#ffffff" stroke="#000000" points="125.5,-198.5 125.5,-217.5 268.5,-217.5 268.5,-198.5 125.5,-198.5"/>
<text text-anchor="middle" x="197" y="-205.5" font-family="Helvetica,sans-Serif" font-size="10.00" fill="#000000">CARLsim::Impl::getLogFpErr</text>
</a>
</g>
</g>
<!-- Node614&#45;&gt;Node615 -->
<g id="edge1" class="edge">
<title>Node614&#45;&gt;Node615</title>
<path fill="none" stroke="#191970" d="M49.5228,-115.1727C62.9852,-130.2935 84.1739,-152.1571 106,-167 125.7736,-180.4471 150.6724,-191.3107 169.4247,-198.4685"/>
<polygon fill="#191970" stroke="#191970" points="52.0919,-112.7935 42.8835,-107.5535 46.8144,-117.3922 52.0919,-112.7935"/>
</g>
<!-- Node617 -->
<g id="node4" class="node">
<title>Node617</title>
<g id="a_node4"><a xlink:href="classConnectionMonitorCore.html#a02fd73d861ef2e4aabb38c0c9ff82947" target="_top" xlink:title="ConnectionMonitorCore\l::init">
<polygon fill="#ffffff" stroke="#000000" points="137.5,-127 137.5,-157 256.5,-157 256.5,-127 137.5,-127"/>
<text text-anchor="start" x="145.5" y="-145" font-family="Helvetica,sans-Serif" font-size="10.00" fill="#000000">ConnectionMonitorCore</text>
<text text-anchor="middle" x="197" y="-134" font-family="Helvetica,sans-Serif" font-size="10.00" fill="#000000">::init</text>
</a>
</g>
</g>
<!-- Node614&#45;&gt;Node617 -->
<g id="edge3" class="edge">
<title>Node614&#45;&gt;Node617</title>
<path fill="none" stroke="#191970" d="M79.803,-110.1687C98.9068,-115.3574 121.3923,-121.4646 141.5321,-126.9346"/>
<polygon fill="#191970" stroke="#191970" points="80.7194,-106.7909 70.1516,-107.5473 78.8846,-113.5461 80.7194,-106.7909"/>
</g>
<!-- Node630 -->
<g id="node17" class="node">
<title>Node630</title>
<g id="a_node17"><a xlink:href="classGroupMonitorCore.html#abbe561f1d7285414b1a9333fc09ac382" target="_top" xlink:title="constructor (called by CARLsim::setGroupMonitor) ">
<polygon fill="#ffffff" stroke="#000000" points="106,-88.5 106,-107.5 288,-107.5 288,-88.5 106,-88.5"/>
<text text-anchor="middle" x="197" y="-95.5" font-family="Helvetica,sans-Serif" font-size="10.00" fill="#000000">GroupMonitorCore::GroupMonitorCore</text>
</a>
</g>
</g>
<!-- Node614&#45;&gt;Node630 -->
<g id="edge17" class="edge">
<title>Node614&#45;&gt;Node630</title>
<path fill="none" stroke="#191970" d="M80.3414,-98C88.376,-98 96.9953,-98 105.7776,-98"/>
<polygon fill="#191970" stroke="#191970" points="80.1516,-94.5001 70.1516,-98 80.1516,-101.5001 80.1516,-94.5001"/>
</g>
<!-- Node631 -->
<g id="node18" class="node">
<title>Node631</title>
<g id="a_node18"><a xlink:href="classNeuronMonitorCore.html#a1fea34ca55f65e7cfeb05d870b2e741b" target="_top" xlink:title="constructor (called by CARLsim::setNeuronMonitor) ">
<polygon fill="#ffffff" stroke="#000000" points="143.5,-39 143.5,-69 250.5,-69 250.5,-39 143.5,-39"/>
<text text-anchor="start" x="151.5" y="-57" font-family="Helvetica,sans-Serif" font-size="10.00" fill="#000000">NeuronMonitorCore::</text>
<text text-anchor="middle" x="197" y="-46" font-family="Helvetica,sans-Serif" font-size="10.00" fill="#000000">NeuronMonitorCore</text>
</a>
</g>
</g>
<!-- Node614&#45;&gt;Node631 -->
<g id="edge18" class="edge">
<title>Node614&#45;&gt;Node631</title>
<path fill="none" stroke="#191970" d="M80.0708,-85.7585C99.7186,-80.4221 122.9035,-74.125 143.4254,-68.5511"/>
<polygon fill="#191970" stroke="#191970" points="78.8846,-82.4539 70.1516,-88.4527 80.7194,-89.2091 78.8846,-82.4539"/>
</g>
<!-- Node632 -->
<g id="node19" class="node">
<title>Node632</title>
<g id="a_node19"><a xlink:href="classSpikeMonitorCore.html#ad925d84fd6af2e2d1565a65987c11e43" target="_top" xlink:title="constructor (called by CARLsim::setSpikeMonitor) ">
<polygon fill="#ffffff" stroke="#000000" points="107.5,-.5 107.5,-19.5 286.5,-19.5 286.5,-.5 107.5,-.5"/>
<text text-anchor="middle" x="197" y="-7.5" font-family="Helvetica,sans-Serif" font-size="10.00" fill="#000000">SpikeMonitorCore::SpikeMonitorCore</text>
</a>
</g>
</g>
<!-- Node614&#45;&gt;Node632 -->
<g id="edge19" class="edge">
<title>Node614&#45;&gt;Node632</title>
<path fill="none" stroke="#191970" d="M48.3856,-80.1694C61.3403,-64.2333 82.4358,-41.5227 106,-29 113.2684,-25.1373 121.2525,-22.0596 129.3785,-19.6074"/>
<polygon fill="#191970" stroke="#191970" points="45.4879,-78.1924 42.0621,-88.2181 50.9923,-82.517 45.4879,-78.1924"/>
</g>
<!-- Node616 -->
<g id="node3" class="node">
<title>Node616</title>
<g id="a_node3"><a xlink:href="classCARLsim.html#af31d11b85238bb8d81d90e81361d9804" target="_top" xlink:title="returns file pointer to error log ">
<polygon fill="#ffffff" stroke="#000000" points="324,-209.5 324,-228.5 443,-228.5 443,-209.5 324,-209.5"/>
<text text-anchor="middle" x="383.5" y="-216.5" font-family="Helvetica,sans-Serif" font-size="10.00" fill="#000000">CARLsim::getLogFpErr</text>
</a>
</g>
</g>
<!-- Node615&#45;&gt;Node616 -->
<g id="edge2" class="edge">
<title>Node615&#45;&gt;Node616</title>
<path fill="none" stroke="#191970" d="M278.9617,-212.8342C294.0901,-213.7265 309.6208,-214.6425 323.9293,-215.4864"/>
<polygon fill="#191970" stroke="#191970" points="278.7612,-209.3164 268.5724,-212.2214 278.3489,-216.3042 278.7612,-209.3164"/>
</g>
<!-- Node618 -->
<g id="node5" class="node">
<title>Node618</title>
<g id="a_node5"><a xlink:href="classConnectionMonitorCore.html#ab64d9ff17fece61e850660bdd4ca00d2" target="_top" xlink:title="ConnectionMonitorCore\l::takeSnapshot">
<polygon fill="#ffffff" stroke="#000000" points="324,-160 324,-190 443,-190 443,-160 324,-160"/>
<text text-anchor="start" x="332" y="-178" font-family="Helvetica,sans-Serif" font-size="10.00" fill="#000000">ConnectionMonitorCore</text>
<text text-anchor="middle" x="383.5" y="-167" font-family="Helvetica,sans-Serif" font-size="10.00" fill="#000000">::takeSnapshot</text>
</a>
</g>
</g>
<!-- Node617&#45;&gt;Node618 -->
<g id="edge4" class="edge">
<title>Node617&#45;&gt;Node618</title>
<path fill="none" stroke="#191970" d="M266.5376,-154.3042C285.3981,-157.6415 305.6447,-161.224 323.9033,-164.4547"/>
<polygon fill="#191970" stroke="#191970" points="266.9794,-150.8281 256.5225,-152.5321 265.7597,-157.7211 266.9794,-150.8281"/>
</g>
<!-- Node620 -->
<g id="node7" class="node">
<title>Node620</title>
<g id="a_node7"><a xlink:href="classConnectionMonitorCore.html#acf625cff31a558c7d6786773d0c2693c" target="_top" xlink:title="ConnectionMonitorCore\l::getUpdateTimeIntervalSec">
<polygon fill="#ffffff" stroke="#000000" points="486,-119 486,-149 625,-149 625,-119 486,-119"/>
<text text-anchor="start" x="494" y="-137" font-family="Helvetica,sans-Serif" font-size="10.00" fill="#000000">ConnectionMonitorCore</text>
<text text-anchor="middle" x="555.5" y="-126" font-family="Helvetica,sans-Serif" font-size="10.00" fill="#000000">::getUpdateTimeIntervalSec</text>
</a>
</g>
</g>
<!-- Node617&#45;&gt;Node620 -->
<g id="edge13" class="edge">
<title>Node617&#45;&gt;Node620</title>
<path fill="none" stroke="#191970" d="M266.8802,-140.4406C330.124,-139.0293 422.7718,-136.9619 485.9218,-135.5527"/>
<polygon fill="#191970" stroke="#191970" points="266.5208,-136.9477 256.6014,-140.67 266.677,-143.9459 266.5208,-136.9477"/>
</g>
<!-- Node627 -->
<g id="node14" class="node">
<title>Node627</title>
<g id="a_node14"><a xlink:href="classSNN.html#a9773c7b8f7fbb53c92ec5623ea99cb69" target="_top" xlink:title="sets up a network monitor registered with a callback to process the spikes. ">
<polygon fill="#ffffff" stroke="#000000" points="327.5,-80.5 327.5,-99.5 439.5,-99.5 439.5,-80.5 327.5,-80.5"/>
<text text-anchor="middle" x="383.5" y="-87.5" font-family="Helvetica,sans-Serif" font-size="10.00" fill="#000000">setConnectionMonitor</text>
</a>
</g>
</g>
<!-- Node617&#45;&gt;Node627 -->
<g id="edge14" class="edge">
<title>Node617&#45;&gt;Node627</title>
<path fill="none" stroke="#191970" d="M261.7577,-124.2729C270.5793,-121.8394 279.5145,-119.3651 288,-117 308.5805,-111.2638 331.6297,-104.7498 349.9276,-99.5574"/>
<polygon fill="#191970" stroke="#191970" points="260.5874,-120.9648 251.876,-126.9949 262.4464,-127.7135 260.5874,-120.9648"/>
</g>
<!-- Node619 -->
<g id="node6" class="node">
<title>Node619</title>
<g id="a_node6"><a xlink:href="classConnectionMonitor.html#ab64d9ff17fece61e850660bdd4ca00d2" target="_top" xlink:title="Takes a snapshot of the current weight state. ">
<polygon fill="#ffffff" stroke="#000000" points="503.5,-168 503.5,-198 607.5,-198 607.5,-168 503.5,-168"/>
<text text-anchor="start" x="511.5" y="-186" font-family="Helvetica,sans-Serif" font-size="10.00" fill="#000000">ConnectionMonitor::</text>
<text text-anchor="middle" x="555.5" y="-175" font-family="Helvetica,sans-Serif" font-size="10.00" fill="#000000">takeSnapshot</text>
</a>
</g>
</g>
<!-- Node618&#45;&gt;Node619 -->
<g id="edge5" class="edge">
<title>Node618&#45;&gt;Node619</title>
<path fill="none" stroke="#191970" d="M453.4358,-178.2528C470.1277,-179.0292 487.6567,-179.8445 503.3856,-180.5761"/>
<polygon fill="#191970" stroke="#191970" points="453.3264,-174.744 443.1745,-177.7756 453.0011,-181.7365 453.3264,-174.744"/>
</g>
<!-- Node618&#45;&gt;Node620 -->
<g id="edge6" class="edge">
<title>Node618&#45;&gt;Node620</title>
<path fill="none" stroke="#191970" d="M453.015,-158.4296C466.0443,-155.3237 479.5981,-152.0929 492.4188,-149.0368"/>
<polygon fill="#191970" stroke="#191970" points="452.0904,-155.0518 443.1745,-160.7753 453.7136,-161.861 452.0904,-155.0518"/>
</g>
<!-- Node621 -->
<g id="node8" class="node">
<title>Node621</title>
<g id="a_node8"><a xlink:href="classSNN.html#a68862cb4e6c749219c20c38aeab06986" target="_top" xlink:title="polls connection weights ">
<polygon fill="#ffffff" stroke="#000000" points="684.5,-124.5 684.5,-143.5 812.5,-143.5 812.5,-124.5 684.5,-124.5"/>
<text text-anchor="middle" x="748.5" y="-131.5" font-family="Helvetica,sans-Serif" font-size="10.00" fill="#000000">updateConnectionMonitor</text>
</a>
</g>
</g>
<!-- Node620&#45;&gt;Node621 -->
<g id="edge7" class="edge">
<title>Node620&#45;&gt;Node621</title>
<path fill="none" stroke="#191970" d="M635.2637,-134C651.6286,-134 668.6558,-134 684.3846,-134"/>
<polygon fill="#191970" stroke="#191970" points="635.1775,-130.5001 625.1774,-134 635.1774,-137.5001 635.1775,-130.5001"/>
</g>
<!-- Node622 -->
<g id="node9" class="node">
<title>Node622</title>
<g id="a_node9"><a xlink:href="classSNN.html#a3df37c7539f784fe7a939c5da922f41b" target="_top" xlink:title="run the simulation for n sec ">
<polygon fill="#ffffff" stroke="#000000" points="865,-124.5 865,-143.5 932,-143.5 932,-124.5 865,-124.5"/>
<text text-anchor="middle" x="898.5" y="-131.5" font-family="Helvetica,sans-Serif" font-size="10.00" fill="#000000">runNetwork</text>
</a>
</g>
</g>
<!-- Node621&#45;&gt;Node622 -->
<g id="edge8" class="edge">
<title>Node621&#45;&gt;Node622</title>
<path fill="none" stroke="#191970" d="M822.7339,-134C837.4957,-134 852.297,-134 864.8502,-134"/>
<polygon fill="#191970" stroke="#191970" points="822.5486,-130.5001 812.5486,-134 822.5486,-137.5001 822.5486,-130.5001"/>
</g>
<!-- Node623 -->
<g id="node10" class="node">
<title>Node623</title>
<g id="a_node10"><a xlink:href="classCARLsim_1_1Impl.html#a749f370debe5eec8661cf9ca1b1bb4c0" target="_top" xlink:title="CARLsim::Impl::runNetwork">
<polygon fill="#ffffff" stroke="#000000" points="968,-124.5 968,-143.5 1108,-143.5 1108,-124.5 968,-124.5"/>
<text text-anchor="middle" x="1038" y="-131.5" font-family="Helvetica,sans-Serif" font-size="10.00" fill="#000000">CARLsim::Impl::runNetwork</text>
</a>
</g>
</g>
<!-- Node622&#45;&gt;Node623 -->
<g id="edge9" class="edge">
<title>Node622&#45;&gt;Node623</title>
<path fill="none" stroke="#191970" d="M942.2708,-134C950.4331,-134 959.1492,-134 967.8732,-134"/>
<polygon fill="#191970" stroke="#191970" points="942.2691,-130.5001 932.2691,-134 942.269,-137.5001 942.2691,-130.5001"/>
</g>
<!-- Node624 -->
<g id="node11" class="node">
<title>Node624</title>
<g id="a_node11"><a xlink:href="classCARLsim.html#aafb2d44405c96aafe089f96ff867018d" target="_top" xlink:title="run the simulation for time=(nSec*seconds + nMsec*milliseconds) ">
<polygon fill="#ffffff" stroke="#000000" points="1144,-124.5 1144,-143.5 1260,-143.5 1260,-124.5 1144,-124.5"/>
<text text-anchor="middle" x="1202" y="-131.5" font-family="Helvetica,sans-Serif" font-size="10.00" fill="#000000">CARLsim::runNetwork</text>
</a>
</g>
</g>
<!-- Node623&#45;&gt;Node624 -->
<g id="edge10" class="edge">
<title>Node623&#45;&gt;Node624</title>
<path fill="none" stroke="#191970" d="M1118.1489,-134C1126.8022,-134 1135.483,-134 1143.8055,-134"/>
<polygon fill="#191970" stroke="#191970" points="1118.0265,-130.5001 1108.0265,-134 1118.0264,-137.5001 1118.0265,-130.5001"/>
</g>
<!-- Node625 -->
<g id="node12" class="node">
<title>Node625</title>
<g id="a_node12"><a xlink:href="classSimpleWeightTuner_1_1Impl.html#a312d84bfa66a5036bb52a4c39db6fa6c" target="_top" xlink:title="SimpleWeightTuner::\lImpl::iterate">
<polygon fill="#ffffff" stroke="#000000" points="1296,-119 1296,-149 1404,-149 1404,-119 1296,-119"/>
<text text-anchor="start" x="1304" y="-137" font-family="Helvetica,sans-Serif" font-size="10.00" fill="#000000">SimpleWeightTuner::</text>
<text text-anchor="middle" x="1350" y="-126" font-family="Helvetica,sans-Serif" font-size="10.00" fill="#000000">Impl::iterate</text>
</a>
</g>
</g>
<!-- Node624&#45;&gt;Node625 -->
<g id="edge11" class="edge">
<title>Node624&#45;&gt;Node625</title>
<path fill="none" stroke="#191970" d="M1270.1513,-134C1278.8066,-134 1287.5692,-134 1295.9617,-134"/>
<polygon fill="#191970" stroke="#191970" points="1270.0688,-130.5001 1260.0687,-134 1270.0687,-137.5001 1270.0688,-130.5001"/>
</g>
<!-- Node626 -->
<g id="node13" class="node">
<title>Node626</title>
<g id="a_node13"><a xlink:href="classSimpleWeightTuner.html#a0df985e3ff7a27edc1e2e3fcc8261843" target="_top" xlink:title="Performs an iteration step of the tuning algorithm. ">
<polygon fill="#ffffff" stroke="#000000" points="1440,-119 1440,-149 1548,-149 1548,-119 1440,-119"/>
<text text-anchor="start" x="1448" y="-137" font-family="Helvetica,sans-Serif" font-size="10.00" fill="#000000">SimpleWeightTuner::</text>
<text text-anchor="middle" x="1494" y="-126" font-family="Helvetica,sans-Serif" font-size="10.00" fill="#000000">iterate</text>
</a>
</g>
</g>
<!-- Node625&#45;&gt;Node626 -->
<g id="edge12" class="edge">
<title>Node625&#45;&gt;Node626</title>
<path fill="none" stroke="#191970" d="M1414.2702,-134C1422.7504,-134 1431.3754,-134 1439.6672,-134"/>
<polygon fill="#191970" stroke="#191970" points="1414.03,-130.5001 1404.03,-134 1414.0299,-137.5001 1414.03,-130.5001"/>
</g>
<!-- Node628 -->
<g id="node15" class="node">
<title>Node628</title>
<g id="a_node15"><a xlink:href="classCARLsim_1_1Impl.html#a012dcdbbe9769131d98ddf680743bff3" target="_top" xlink:title="CARLsim::Impl::setConnection\lMonitor">
<polygon fill="#ffffff" stroke="#000000" points="479,-70 479,-100 632,-100 632,-70 479,-70"/>
<text text-anchor="start" x="487" y="-88" font-family="Helvetica,sans-Serif" font-size="10.00" fill="#000000">CARLsim::Impl::setConnection</text>
<text text-anchor="middle" x="555.5" y="-77" font-family="Helvetica,sans-Serif" font-size="10.00" fill="#000000">Monitor</text>
</a>
</g>
</g>
<!-- Node627&#45;&gt;Node628 -->
<g id="edge15" class="edge">
<title>Node627&#45;&gt;Node628</title>
<path fill="none" stroke="#191970" d="M449.9113,-88.0694C459.3535,-87.795 469.1285,-87.5108 478.7473,-87.2312"/>
<polygon fill="#191970" stroke="#191970" points="449.7133,-84.5736 439.8192,-88.3628 449.9167,-91.5707 449.7133,-84.5736"/>
</g>
<!-- Node629 -->
<g id="node16" class="node">
<title>Node629</title>
<g id="a_node16"><a xlink:href="classCARLsim.html#a0f4f273689484d0ceaa5a40f64fc82fc" target="_top" xlink:title="Sets a connection monitor for a group, custom ConnectionMonitor class. ">
<polygon fill="#ffffff" stroke="#000000" points="668,-75.5 668,-94.5 829,-94.5 829,-75.5 668,-75.5"/>
<text text-anchor="middle" x="748.5" y="-82.5" font-family="Helvetica,sans-Serif" font-size="10.00" fill="#000000">CARLsim::setConnectionMonitor</text>
</a>
</g>
</g>
<!-- Node628&#45;&gt;Node629 -->
<g id="edge16" class="edge">
<title>Node628&#45;&gt;Node629</title>
<path fill="none" stroke="#191970" d="M642.0833,-85C650.6808,-85 659.3844,-85 667.9173,-85"/>
<polygon fill="#191970" stroke="#191970" points="642.0559,-81.5001 632.0559,-85 642.0559,-88.5001 642.0559,-81.5001"/>
</g>
</g>
</svg>
