<?xml version="1.0" encoding="UTF-8" standalone="no"?>
<!DOCTYPE svg PUBLIC "-//W3C//DTD SVG 1.1//EN"
 "http://www.w3.org/Graphics/SVG/1.1/DTD/svg11.dtd">
<!-- Generated by graphviz version 2.40.1 (20161225.0304)
 -->
<!-- Title: getPercentWeightsInRange Pages: 1 -->
<!--zoomable 176 -->
<svg id="main" version="1.1" xmlns="http://www.w3.org/2000/svg" xmlns:xlink="http://www.w3.org/1999/xlink" xml:space="preserve" onload="init(evt)">
<style type="text/css"><![CDATA[
.edge:hover path { stroke: red; }
.edge:hover polygon { stroke: red; fill: red; }
]]></style>
<script type="text/javascript"><![CDATA[
var edges = document.getElementsByTagName('g');
if (edges && edges.length) {
  for (var i=0;i<edges.length;i++) {
    if (edges[i].id.substr(0,4)=='edge') {
      edges[i].setAttribute('class','edge');
    }
  }
}
]]></script>
        <defs>
                <circle id="rim" cx="0" cy="0" r="7"/>
                <circle id="rim2" cx="0" cy="0" r="3.5"/>
                <g id="zoomPlus">
                        <use xlink:href="#rim" fill="#404040">
                                <set attributeName="fill" to="#808080" begin="zoomplus.mouseover" end="zoomplus.mouseout"/>
                        </use>
                        <path d="M-4,0h8M0,-4v8" fill="none" stroke="white" stroke-width="1.5" pointer-events="none"/>
                </g>
                <g id="zoomMin">
                        <use xlink:href="#rim" fill="#404040">
                                <set attributeName="fill" to="#808080" begin="zoomminus.mouseover" end="zoomminus.mouseout"/>
                        </use>
                        <path d="M-4,0h8" fill="none" stroke="white" stroke-width="1.5" pointer-events="none"/>
                </g>
                <g id="dirArrow">
                        <path fill="none" stroke="white" stroke-width="1.5" d="M0,-3.0v7 M-2.5,-0.5L0,-3.0L2.5,-0.5"/>
                </g>
               <g id="resetDef">
                       <use xlink:href="#rim2" fill="#404040">
                               <set attributeName="fill" to="#808080" begin="reset.mouseover" end="reset.mouseout"/>
                       </use>
               </g>
        </defs>

<script type="text/javascript">
var viewWidth = 955;
var viewHeight = 176;
var sectionId = 'dynsection-19';
</script>
<script xlink:href="svgpan.js"/>
<svg id="graph" class="graph">
<g id="viewport">
<title>getPercentWeightsInRange</title>
<polygon fill="#ffffff" stroke="transparent" points="-4,4 -4,-171.5 951,-171.5 951,4 -4,4"/>
<!-- Node88 -->
<g id="node1" class="node">
<title>Node88</title>
<polygon fill="#bfbfbf" stroke="#000000" points="0,-19.5 0,-38.5 137,-38.5 137,-19.5 0,-19.5"/>
<text text-anchor="middle" x="68.5" y="-26.5" font-family="Helvetica,sans-Serif" font-size="10.00" fill="#000000">getPercentWeightsInRange</text>
</g>
<!-- Node89 -->
<g id="node2" class="node">
<title>Node89</title>
<g id="a_node2"><a xlink:href="classConnectionMonitor.html#ad005723dcdb0848e308eb2483c2dab2c" target="_top" xlink:title="Returns the number of weights in the connection whose values are within some range (inclusive) ...">
<polygon fill="#ffffff" stroke="#000000" points="173,-38.5 173,-57.5 297,-57.5 297,-38.5 173,-38.5"/>
<text text-anchor="middle" x="235" y="-45.5" font-family="Helvetica,sans-Serif" font-size="10.00" fill="#000000">getNumWeightsInRange</text>
</a>
</g>
</g>
<!-- Node88&#45;&gt;Node89 -->
<g id="edge1" class="edge">
<title>Node88&#45;&gt;Node89</title>
<path fill="none" stroke="#191970" d="M137.1832,-36.8377C145.682,-37.8076 154.3898,-38.8012 162.9374,-39.7766"/>
<polygon fill="#191970" stroke="#191970" points="162.5434,-43.2543 172.8758,-40.9107 163.3371,-36.2994 162.5434,-43.2543"/>
</g>
<!-- Node98 -->
<g id="node11" class="node">
<title>Node98</title>
<g id="a_node11"><a xlink:href="classConnectionMonitor.html#a7373a8cecde25ccd48b3df967b5b0417" target="_top" xlink:title="Returns the number of allocated synapses. ">
<polygon fill="#ffffff" stroke="#000000" points="187.5,-.5 187.5,-19.5 282.5,-19.5 282.5,-.5 187.5,-.5"/>
<text text-anchor="middle" x="235" y="-7.5" font-family="Helvetica,sans-Serif" font-size="10.00" fill="#000000">getNumSynapses</text>
</a>
</g>
</g>
<!-- Node88&#45;&gt;Node98 -->
<g id="edge14" class="edge">
<title>Node88&#45;&gt;Node98</title>
<path fill="none" stroke="#191970" d="M137.1832,-21.1623C150.4716,-19.6459 164.2712,-18.0712 177.1701,-16.5992"/>
<polygon fill="#191970" stroke="#191970" points="177.7561,-20.0551 187.2947,-15.4438 176.9624,-13.1003 177.7561,-20.0551"/>
</g>
<!-- Node90 -->
<g id="node3" class="node">
<title>Node90</title>
<g id="a_node3"><a xlink:href="classUserErrors.html#a4bbedc6c0817d5e59e74e450bf00472c" target="_top" xlink:title="simple wrapper for assert statement ">
<polygon fill="#ffffff" stroke="#000000" points="340,-38.5 340,-57.5 456,-57.5 456,-38.5 340,-38.5"/>
<text text-anchor="middle" x="398" y="-45.5" font-family="Helvetica,sans-Serif" font-size="10.00" fill="#000000">UserErrors::assertTrue</text>
</a>
</g>
</g>
<!-- Node89&#45;&gt;Node90 -->
<g id="edge2" class="edge">
<title>Node89&#45;&gt;Node90</title>
<path fill="none" stroke="#191970" d="M297.0883,-48C307.7242,-48 318.8285,-48 329.6177,-48"/>
<polygon fill="#191970" stroke="#191970" points="329.84,-51.5001 339.84,-48 329.84,-44.5001 329.84,-51.5001"/>
</g>
<!-- Node91 -->
<g id="node4" class="node">
<title>Node91</title>
<g id="a_node4"><a xlink:href="classConnectionMonitorCore.html#a6c63078d9c2226cd48f51e4d4ed0d4db" target="_top" xlink:title="returns number of weights with values in range e[minVal,maxVal] (inclusive) ">
<polygon fill="#ffffff" stroke="#000000" points="333,-77 333,-107 463,-107 463,-77 333,-77"/>
<text text-anchor="start" x="341" y="-95" font-family="Helvetica,sans-Serif" font-size="10.00" fill="#000000">ConnectionMonitorCore</text>
<text text-anchor="middle" x="398" y="-84" font-family="Helvetica,sans-Serif" font-size="10.00" fill="#000000">::getNumWeightsInRange</text>
</a>
</g>
</g>
<!-- Node89&#45;&gt;Node91 -->
<g id="edge3" class="edge">
<title>Node89&#45;&gt;Node91</title>
<path fill="none" stroke="#191970" d="M270.3686,-57.5473C288.4747,-62.4349 311.1101,-68.5451 332.2708,-74.2571"/>
<polygon fill="#191970" stroke="#191970" points="331.6231,-77.7075 342.1897,-76.9346 333.4474,-70.9494 331.6231,-77.7075"/>
</g>
<!-- Node92 -->
<g id="node5" class="node">
<title>Node92</title>
<g id="a_node5"><a xlink:href="classConnectionMonitorCore.html#aa096d9983144b3323d6f370e37b0859c" target="_top" xlink:title="returns min weight in the connection (getCurrent=false: RangeWeight.min, true: current smallest) ...">
<polygon fill="#ffffff" stroke="#000000" points="828,-80 828,-110 947,-110 947,-80 828,-80"/>
<text text-anchor="start" x="836" y="-98" font-family="Helvetica,sans-Serif" font-size="10.00" fill="#000000">ConnectionMonitorCore</text>
<text text-anchor="middle" x="887.5" y="-87" font-family="Helvetica,sans-Serif" font-size="10.00" fill="#000000">::getMinWeight</text>
</a>
</g>
</g>
<!-- Node91&#45;&gt;Node92 -->
<g id="edge4" class="edge">
<title>Node91&#45;&gt;Node92</title>
<path fill="none" stroke="#191970" d="M463.1873,-91.7985C541.3266,-91.6419 676.2359,-91.641 792,-93 800.343,-93.0979 809.0954,-93.2346 817.7739,-93.3911"/>
<polygon fill="#191970" stroke="#191970" points="817.8345,-96.8927 827.899,-93.5826 817.967,-89.894 817.8345,-96.8927"/>
</g>
<!-- Node93 -->
<g id="node6" class="node">
<title>Node93</title>
<g id="a_node6"><a xlink:href="classConnectionMonitorCore.html#a30f10c789ec0f272848c2a68cd35fa97" target="_top" xlink:title="returns max weight in the connection (getCurrent=false: RangeWeight.max, true: current largest) ...">
<polygon fill="#ffffff" stroke="#000000" points="828,-137 828,-167 947,-167 947,-137 828,-137"/>
<text text-anchor="start" x="836" y="-155" font-family="Helvetica,sans-Serif" font-size="10.00" fill="#000000">ConnectionMonitorCore</text>
<text text-anchor="middle" x="887.5" y="-144" font-family="Helvetica,sans-Serif" font-size="10.00" fill="#000000">::getMaxWeight</text>
</a>
</g>
</g>
<!-- Node91&#45;&gt;Node93 -->
<g id="edge5" class="edge">
<title>Node91&#45;&gt;Node93</title>
<path fill="none" stroke="#191970" d="M452.2854,-107.0199C467.3446,-110.9007 483.7476,-114.8639 499,-118 567.2814,-132.0396 584.6261,-135.1648 654,-142 708.8093,-147.4002 771.1402,-149.8851 817.6083,-151.0281"/>
<polygon fill="#191970" stroke="#191970" points="817.791,-154.5332 827.8692,-151.2651 817.9527,-147.535 817.791,-154.5332"/>
</g>
<!-- Node94 -->
<g id="node7" class="node">
<title>Node94</title>
<g id="a_node7"><a xlink:href="classConnectionMonitorCore.html#a7373a8cecde25ccd48b3df967b5b0417" target="_top" xlink:title="returns number of synapses that exist in the connection ">
<polygon fill="#ffffff" stroke="#000000" points="499,-14 499,-44 618,-44 618,-14 499,-14"/>
<text text-anchor="start" x="507" y="-32" font-family="Helvetica,sans-Serif" font-size="10.00" fill="#000000">ConnectionMonitorCore</text>
<text text-anchor="middle" x="558.5" y="-21" font-family="Helvetica,sans-Serif" font-size="10.00" fill="#000000">::getNumSynapses</text>
</a>
</g>
</g>
<!-- Node91&#45;&gt;Node94 -->
<g id="edge6" class="edge">
<title>Node91&#45;&gt;Node94</title>
<path fill="none" stroke="#191970" d="M417.3631,-76.969C430.2994,-70.6723 447.687,-63.9911 463,-58 471.5425,-54.6578 480.5051,-51.1256 489.3745,-47.6873"/>
<polygon fill="#191970" stroke="#191970" points="490.8625,-50.865 498.938,-44.0067 488.3482,-44.3321 490.8625,-50.865"/>
</g>
<!-- Node94&#45;&gt;Node91 -->
<g id="edge9" class="edge">
<title>Node94&#45;&gt;Node91</title>
<path fill="none" stroke="#191970" d="M538.0349,-44.1857C520.8285,-52.8957 495.3152,-63.2814 469.9448,-73.2713"/>
<polygon fill="#191970" stroke="#191970" points="468.6506,-70.0193 460.6199,-76.9301 471.2074,-76.5356 468.6506,-70.0193"/>
</g>
<!-- Node95 -->
<g id="node8" class="node">
<title>Node95</title>
<g id="a_node8"><a xlink:href="classConnectionMonitorCore.html#ad094dca7a9d2ac2c46e89f1035706eba" target="_top" xlink:title="returns number of weights with &gt;=minAbsChanged weight change since last snapshot ">
<polygon fill="#ffffff" stroke="#000000" points="657,-14 657,-44 789,-44 789,-14 657,-14"/>
<text text-anchor="start" x="665" y="-32" font-family="Helvetica,sans-Serif" font-size="10.00" fill="#000000">ConnectionMonitorCore</text>
<text text-anchor="middle" x="723" y="-21" font-family="Helvetica,sans-Serif" font-size="10.00" fill="#000000">::getNumWeightsChanged</text>
</a>
</g>
</g>
<!-- Node94&#45;&gt;Node95 -->
<g id="edge7" class="edge">
<title>Node94&#45;&gt;Node95</title>
<path fill="none" stroke="#191970" d="M618.3536,-29C627.5286,-29 637.106,-29 646.5798,-29"/>
<polygon fill="#191970" stroke="#191970" points="646.7953,-32.5001 656.7952,-29 646.7952,-25.5001 646.7953,-32.5001"/>
</g>
<!-- Node97 -->
<g id="node10" class="node">
<title>Node97</title>
<g id="a_node10"><a xlink:href="classConnectionMonitorCore.html#af0258258ab62c21e22a4bc98dcaa050e" target="_top" xlink:title="returns number of weights that have a certain value ">
<polygon fill="#ffffff" stroke="#000000" points="654,-102 654,-132 792,-132 792,-102 654,-102"/>
<text text-anchor="start" x="662" y="-120" font-family="Helvetica,sans-Serif" font-size="10.00" fill="#000000">ConnectionMonitorCore</text>
<text text-anchor="middle" x="723" y="-109" font-family="Helvetica,sans-Serif" font-size="10.00" fill="#000000">::getNumWeightsWithValue</text>
</a>
</g>
</g>
<!-- Node94&#45;&gt;Node97 -->
<g id="edge10" class="edge">
<title>Node94&#45;&gt;Node97</title>
<path fill="none" stroke="#191970" d="M586.7786,-44.1277C614.1676,-58.7796 655.8522,-81.079 685.8946,-97.1503"/>
<polygon fill="#191970" stroke="#191970" points="684.3471,-100.2918 694.8157,-101.9227 687.6491,-94.1195 684.3471,-100.2918"/>
</g>
<!-- Node96 -->
<g id="node9" class="node">
<title>Node96</title>
<g id="a_node9"><a xlink:href="classConnectionMonitorCore.html#a730c0ec47d470c8920ab57288c31ca3b" target="_top" xlink:title="calculates weight changes since last snapshot and reports them in 2D weight change matrix ...">
<polygon fill="#ffffff" stroke="#000000" points="828,-14 828,-44 947,-44 947,-14 828,-14"/>
<text text-anchor="start" x="836" y="-32" font-family="Helvetica,sans-Serif" font-size="10.00" fill="#000000">ConnectionMonitorCore</text>
<text text-anchor="middle" x="887.5" y="-21" font-family="Helvetica,sans-Serif" font-size="10.00" fill="#000000">::calcWeightChanges</text>
</a>
</g>
</g>
<!-- Node95&#45;&gt;Node96 -->
<g id="edge8" class="edge">
<title>Node95&#45;&gt;Node96</title>
<path fill="none" stroke="#191970" d="M789.4343,-29C798.7985,-29 808.4469,-29 817.869,-29"/>
<polygon fill="#191970" stroke="#191970" points="817.98,-32.5001 827.98,-29 817.98,-25.5001 817.98,-32.5001"/>
</g>
<!-- Node97&#45;&gt;Node91 -->
<g id="edge13" class="edge">
<title>Node97&#45;&gt;Node91</title>
<path fill="none" stroke="#191970" d="M653.7977,-111.6767C600.9113,-107.6086 528.0854,-102.0066 473.6609,-97.8201"/>
<polygon fill="#191970" stroke="#191970" points="473.6167,-94.3064 463.3776,-97.029 473.0797,-101.2858 473.6167,-94.3064"/>
</g>
<!-- Node97&#45;&gt;Node92 -->
<g id="edge11" class="edge">
<title>Node97&#45;&gt;Node92</title>
<path fill="none" stroke="#191970" d="M792.286,-107.7338C800.7134,-106.6067 809.3269,-105.4548 817.7608,-104.3268"/>
<polygon fill="#191970" stroke="#191970" points="818.4868,-107.761 827.9346,-102.9662 817.5588,-100.8228 818.4868,-107.761"/>
</g>
<!-- Node97&#45;&gt;Node93 -->
<g id="edge12" class="edge">
<title>Node97&#45;&gt;Node93</title>
<path fill="none" stroke="#191970" d="M792.286,-131.7417C800.806,-133.5545 809.5163,-135.4077 818.0388,-137.221"/>
<polygon fill="#191970" stroke="#191970" points="817.4251,-140.6687 827.9346,-139.3265 818.8819,-133.822 817.4251,-140.6687"/>
</g>
<!-- Node98&#45;&gt;Node94 -->
<g id="edge15" class="edge">
<title>Node98&#45;&gt;Node94</title>
<path fill="none" stroke="#191970" d="M282.7335,-12.8035C337.0917,-15.9961 426.4042,-21.2417 488.6064,-24.895"/>
<polygon fill="#191970" stroke="#191970" points="488.544,-28.3972 498.7321,-25.4897 488.9545,-21.4093 488.544,-28.3972"/>
</g>
</g>
</svg>
        <g id="navigator" transform="translate(0 0)" fill="#404254">
                <rect fill="#f2f5e9" fill-opacity="0.5" stroke="#606060" stroke-width=".5" x="0" y="0" width="60" height="60"/>
                <use id="zoomplus" xlink:href="#zoomPlus" x="17" y="9" onmousedown="handleZoom(evt,'in')"/>
                <use id="zoomminus" xlink:href="#zoomMin" x="42" y="9" onmousedown="handleZoom(evt,'out')"/>
                <use id="reset" xlink:href="#resetDef" x="30" y="36" onmousedown="handleReset()"/>
                <g id="arrowUp" xlink:href="#dirArrow" transform="translate(30 24)" onmousedown="handlePan(0,-1)">
                  <use xlink:href="#rim" fill="#404040">
                        <set attributeName="fill" to="#808080" begin="arrowUp.mouseover" end="arrowUp.mouseout"/>
                  </use>
                  <path fill="none" stroke="white" stroke-width="1.5" d="M0,-3.0v7 M-2.5,-0.5L0,-3.0L2.5,-0.5"/>
                </g>
                <g id="arrowRight" xlink:href="#dirArrow" transform="rotate(90) translate(36 -43)" onmousedown="handlePan(1,0)">
                  <use xlink:href="#rim" fill="#404040">
                        <set attributeName="fill" to="#808080" begin="arrowRight.mouseover" end="arrowRight.mouseout"/>
                  </use>
                  <path fill="none" stroke="white" stroke-width="1.5" d="M0,-3.0v7 M-2.5,-0.5L0,-3.0L2.5,-0.5"/>
                </g>
                <g id="arrowDown" xlink:href="#dirArrow" transform="rotate(180) translate(-30 -48)" onmousedown="handlePan(0,1)">
                  <use xlink:href="#rim" fill="#404040">
                        <set attributeName="fill" to="#808080" begin="arrowDown.mouseover" end="arrowDown.mouseout"/>
                  </use>
                  <path fill="none" stroke="white" stroke-width="1.5" d="M0,-3.0v7 M-2.5,-0.5L0,-3.0L2.5,-0.5"/>
                </g>
                <g id="arrowLeft" xlink:href="#dirArrow" transform="rotate(270) translate(-36 17)" onmousedown="handlePan(-1,0)">
                  <use xlink:href="#rim" fill="#404040">
                        <set attributeName="fill" to="#808080" begin="arrowLeft.mouseover" end="arrowLeft.mouseout"/>
                  </use>
                  <path fill="none" stroke="white" stroke-width="1.5" d="M0,-3.0v7 M-2.5,-0.5L0,-3.0L2.5,-0.5"/>
                </g>
        </g>
        <svg viewBox="0 0 15 15" width="100%" height="30px" preserveAspectRatio="xMaxYMin meet">
         <g id="arrow_out" transform="scale(0.3 0.3)">
          <a xlink:href="classConnectionMonitor_a173c90da62c3cb84f7e8c9db9a00d950_cgraph_org.svg" target="_base">
           <rect id="button" ry="5" rx="5" y="6" x="6" height="38" width="38"
                fill="#f2f5e9" fill-opacity="0.5" stroke="#606060" stroke-width="1.0"/>
           <path id="arrow"
             d="M 11.500037,31.436501 C 11.940474,20.09759 22.043105,11.32322 32.158766,21.979434 L 37.068811,17.246167 C 37.068811,17.246167 37.088388,32 37.088388,32 L 22.160133,31.978069 C 22.160133,31.978069 26.997745,27.140456 26.997745,27.140456 C 18.528582,18.264221 13.291696,25.230495 11.500037,31.436501 z"
             style="fill:#404040;"/>
          </a>
         </g>
        </svg>
</svg>
