<?xml version="1.0" encoding="UTF-8" standalone="no"?>
<!DOCTYPE svg PUBLIC "-//W3C//DTD SVG 1.1//EN"
 "http://www.w3.org/Graphics/SVG/1.1/DTD/svg11.dtd">
<!-- Generated by graphviz version 2.40.1 (20161225.0304)
 -->
<!-- Title: getNumInstances Pages: 1 -->
<svg width="213pt" height="66pt"
 viewBox="0.00 0.00 213.00 66.00" xmlns="http://www.w3.org/2000/svg" xmlns:xlink="http://www.w3.org/1999/xlink">
<g id="graph0" class="graph" transform="scale(1 1) rotate(0) translate(4 62)">
<title>getNumInstances</title>
<polygon fill="#ffffff" stroke="transparent" points="-4,4 -4,-62 209,-62 209,4 -4,4"/>
<!-- Node13 -->
<g id="node1" class="node">
<title>Node13</title>
<polygon fill="#bfbfbf" stroke="#000000" points="0,-19.5 0,-38.5 94,-38.5 94,-19.5 0,-19.5"/>
<text text-anchor="middle" x="47" y="-26.5" font-family="Helvetica,sans-Serif" font-size="10.00" fill="#000000">getNumInstances</text>
</g>
<!-- Node14 -->
<g id="node2" class="node">
<title>Node14</title>
<g id="a_node2"><a xlink:href="classParameterInstances.html#a369e22115d5eb25c2cce26d25442dba4" target="_top" xlink:title="getInstance">
<polygon fill="#ffffff" stroke="#000000" points="133.5,-38.5 133.5,-57.5 201.5,-57.5 201.5,-38.5 133.5,-38.5"/>
<text text-anchor="middle" x="167.5" y="-45.5" font-family="Helvetica,sans-Serif" font-size="10.00" fill="#000000">getInstance</text>
</a>
</g>
</g>
<!-- Node13&#45;&gt;Node14 -->
<g id="edge1" class="edge">
<title>Node13&#45;&gt;Node14</title>
<path fill="none" stroke="#191970" d="M104.1894,-38.0174C114.1782,-39.5924 124.2794,-41.1851 133.3912,-42.6218"/>
<polygon fill="#191970" stroke="#191970" points="104.7021,-34.5551 94.2789,-36.4548 103.6117,-41.4697 104.7021,-34.5551"/>
</g>
<!-- Node15 -->
<g id="node3" class="node">
<title>Node15</title>
<g id="a_node3"><a xlink:href="classParameterInstances.html#a4b0f3b5fa03252eabce3894973d30460" target="_top" xlink:title="getParameter">
<polygon fill="#ffffff" stroke="#000000" points="130,-.5 130,-19.5 205,-19.5 205,-.5 130,-.5"/>
<text text-anchor="middle" x="167.5" y="-7.5" font-family="Helvetica,sans-Serif" font-size="10.00" fill="#000000">getParameter</text>
</a>
</g>
</g>
<!-- Node13&#45;&gt;Node15 -->
<g id="edge2" class="edge">
<title>Node13&#45;&gt;Node15</title>
<path fill="none" stroke="#191970" d="M104.3029,-19.9647C112.9093,-18.6077 121.5961,-17.238 129.6585,-15.9667"/>
<polygon fill="#191970" stroke="#191970" points="103.6117,-16.5303 94.2789,-21.5452 104.7021,-23.4449 103.6117,-16.5303"/>
</g>
</g>
</svg>
