<?xml version="1.0" encoding="UTF-8" standalone="no"?>
<!DOCTYPE svg PUBLIC "-//W3C//DTD SVG 1.1//EN"
 "http://www.w3.org/Graphics/SVG/1.1/DTD/svg11.dtd">
<!-- Generated by graphviz version 2.40.1 (20161225.0304)
 -->
<!-- Title: setNeuromodulator Pages: 1 -->
<svg width="846pt" height="104pt"
 viewBox="0.00 0.00 846.00 104.00" xmlns="http://www.w3.org/2000/svg" xmlns:xlink="http://www.w3.org/1999/xlink">
<g id="graph0" class="graph" transform="scale(1 1) rotate(0) translate(4 100)">
<title>setNeuromodulator</title>
<polygon fill="#ffffff" stroke="transparent" points="-4,4 -4,-100 842,-100 842,4 -4,4"/>
<!-- Node860 -->
<g id="node1" class="node">
<title>Node860</title>
<polygon fill="#bfbfbf" stroke="#000000" points="0,-38.5 0,-57.5 99,-57.5 99,-38.5 0,-38.5"/>
<text text-anchor="middle" x="49.5" y="-45.5" font-family="Helvetica,sans-Serif" font-size="10.00" fill="#000000">setNeuromodulator</text>
</g>
<!-- Node861 -->
<g id="node2" class="node">
<title>Node861</title>
<g id="a_node2"><a xlink:href="classCARLsim_1_1Impl.html#ae15083e3e6bfdb506a10b6ad835a2fc1" target="_top" xlink:title="CARLsim::Impl::setNeuromodulator">
<polygon fill="#ffffff" stroke="#000000" points="135,-38.5 135,-57.5 308,-57.5 308,-38.5 135,-38.5"/>
<text text-anchor="middle" x="221.5" y="-45.5" font-family="Helvetica,sans-Serif" font-size="10.00" fill="#000000">CARLsim::Impl::setNeuromodulator</text>
</a>
</g>
</g>
<!-- Node860&#45;&gt;Node861 -->
<g id="edge1" class="edge">
<title>Node860&#45;&gt;Node861</title>
<path fill="none" stroke="#191970" d="M99.2495,-48C107.3952,-48 116.0721,-48 124.9002,-48"/>
<polygon fill="#191970" stroke="#191970" points="124.9115,-51.5001 134.9115,-48 124.9114,-44.5001 124.9115,-51.5001"/>
</g>
<!-- Node862 -->
<g id="node3" class="node">
<title>Node862</title>
<g id="a_node3"><a xlink:href="classCARLsim_1_1Impl.html#ab0367f8ebd4019bf7d34ebddb1563fe7" target="_top" xlink:title="CARLsim::Impl::getGroupName">
<polygon fill="#ffffff" stroke="#000000" points="344,-38.5 344,-57.5 500,-57.5 500,-38.5 344,-38.5"/>
<text text-anchor="middle" x="422" y="-45.5" font-family="Helvetica,sans-Serif" font-size="10.00" fill="#000000">CARLsim::Impl::getGroupName</text>
</a>
</g>
</g>
<!-- Node861&#45;&gt;Node862 -->
<g id="edge2" class="edge">
<title>Node861&#45;&gt;Node862</title>
<path fill="none" stroke="#191970" d="M308.2761,-48C316.7032,-48 325.2597,-48 333.7015,-48"/>
<polygon fill="#191970" stroke="#191970" points="333.9253,-51.5001 343.9253,-48 333.9253,-44.5001 333.9253,-51.5001"/>
</g>
<!-- Node863 -->
<g id="node4" class="node">
<title>Node863</title>
<g id="a_node4"><a xlink:href="classUserErrors.html#a4bbedc6c0817d5e59e74e450bf00472c" target="_top" xlink:title="simple wrapper for assert statement ">
<polygon fill="#ffffff" stroke="#000000" points="556,-76.5 556,-95.5 672,-95.5 672,-76.5 556,-76.5"/>
<text text-anchor="middle" x="614" y="-83.5" font-family="Helvetica,sans-Serif" font-size="10.00" fill="#000000">UserErrors::assertTrue</text>
</a>
</g>
</g>
<!-- Node861&#45;&gt;Node863 -->
<g id="edge7" class="edge">
<title>Node861&#45;&gt;Node863</title>
<path fill="none" stroke="#191970" d="M276.5559,-57.5423C297.6046,-60.9265 321.8648,-64.509 344,-67 412.4354,-74.7015 491.0029,-79.812 545.6731,-82.7741"/>
<polygon fill="#191970" stroke="#191970" points="545.7647,-86.2838 555.9366,-83.3201 546.1367,-79.2937 545.7647,-86.2838"/>
</g>
<!-- Node867 -->
<g id="node8" class="node">
<title>Node867</title>
<g id="a_node8"><a xlink:href="classSNN.html#a88198ca833c0d254d5e7d75d2c8ee4fb" target="_top" xlink:title="Sets baseline concentration and decay time constant of neuromodulators (DP, 5HT, ACh, NE) for a neuron group. ">
<polygon fill="#ffffff" stroke="#000000" points="358.5,-.5 358.5,-19.5 485.5,-19.5 485.5,-.5 358.5,-.5"/>
<text text-anchor="middle" x="422" y="-7.5" font-family="Helvetica,sans-Serif" font-size="10.00" fill="#000000">SNN::setNeuromodulator</text>
</a>
</g>
</g>
<!-- Node861&#45;&gt;Node867 -->
<g id="edge8" class="edge">
<title>Node861&#45;&gt;Node867</title>
<path fill="none" stroke="#191970" d="M271.8358,-38.46C299.1262,-33.2878 333.042,-26.8599 361.7326,-21.4222"/>
<polygon fill="#191970" stroke="#191970" points="362.4701,-24.8449 371.6435,-19.5439 361.1666,-17.9673 362.4701,-24.8449"/>
</g>
<!-- Node862&#45;&gt;Node863 -->
<g id="edge3" class="edge">
<title>Node862&#45;&gt;Node863</title>
<path fill="none" stroke="#191970" d="M470.4497,-57.589C496.471,-62.739 528.7279,-69.1232 556.0688,-74.5344"/>
<polygon fill="#191970" stroke="#191970" points="555.4094,-77.9718 565.8987,-76.4799 556.7685,-71.105 555.4094,-77.9718"/>
</g>
<!-- Node864 -->
<g id="node5" class="node">
<title>Node864</title>
<g id="a_node5"><a xlink:href="classCARLsim_1_1Impl.html#a292bdee57fec7c77ec4c15ea3f508d60" target="_top" xlink:title="CARLsim::Impl::getNumGroups">
<polygon fill="#ffffff" stroke="#000000" points="536,-38.5 536,-57.5 692,-57.5 692,-38.5 536,-38.5"/>
<text text-anchor="middle" x="614" y="-45.5" font-family="Helvetica,sans-Serif" font-size="10.00" fill="#000000">CARLsim::Impl::getNumGroups</text>
</a>
</g>
</g>
<!-- Node862&#45;&gt;Node864 -->
<g id="edge4" class="edge">
<title>Node862&#45;&gt;Node864</title>
<path fill="none" stroke="#191970" d="M500.0938,-48C508.6006,-48 517.3019,-48 525.9175,-48"/>
<polygon fill="#191970" stroke="#191970" points="525.9755,-51.5001 535.9755,-48 525.9754,-44.5001 525.9755,-51.5001"/>
</g>
<!-- Node866 -->
<g id="node7" class="node">
<title>Node866</title>
<g id="a_node7"><a xlink:href="classSNN.html#ab0367f8ebd4019bf7d34ebddb1563fe7" target="_top" xlink:title="SNN::getGroupName">
<polygon fill="#ffffff" stroke="#000000" points="559,-.5 559,-19.5 669,-19.5 669,-.5 559,-.5"/>
<text text-anchor="middle" x="614" y="-7.5" font-family="Helvetica,sans-Serif" font-size="10.00" fill="#000000">SNN::getGroupName</text>
</a>
</g>
</g>
<!-- Node862&#45;&gt;Node866 -->
<g id="edge6" class="edge">
<title>Node862&#45;&gt;Node866</title>
<path fill="none" stroke="#191970" d="M470.4497,-38.411C496.471,-33.261 528.7279,-26.8768 556.0688,-21.4656"/>
<polygon fill="#191970" stroke="#191970" points="556.7685,-24.895 565.8987,-19.5201 555.4094,-18.0282 556.7685,-24.895"/>
</g>
<!-- Node865 -->
<g id="node6" class="node">
<title>Node865</title>
<g id="a_node6"><a xlink:href="classSNN.html#a292bdee57fec7c77ec4c15ea3f508d60" target="_top" xlink:title="SNN::getNumGroups">
<polygon fill="#ffffff" stroke="#000000" points="728,-38.5 728,-57.5 838,-57.5 838,-38.5 728,-38.5"/>
<text text-anchor="middle" x="783" y="-45.5" font-family="Helvetica,sans-Serif" font-size="10.00" fill="#000000">SNN::getNumGroups</text>
</a>
</g>
</g>
<!-- Node864&#45;&gt;Node865 -->
<g id="edge5" class="edge">
<title>Node864&#45;&gt;Node865</title>
<path fill="none" stroke="#191970" d="M692.069,-48C700.6771,-48 709.3747,-48 717.8018,-48"/>
<polygon fill="#191970" stroke="#191970" points="717.9225,-51.5001 727.9225,-48 717.9225,-44.5001 717.9225,-51.5001"/>
</g>
</g>
</svg>
