<?xml version="1.0" encoding="UTF-8" standalone="no"?>
<!DOCTYPE svg PUBLIC "-//W3C//DTD SVG 1.1//EN"
 "http://www.w3.org/Graphics/SVG/1.1/DTD/svg11.dtd">
<!-- Generated by graphviz version 2.40.1 (20161225.0304)
 -->
<!-- Title: getLogFpInf Pages: 1 -->
<svg width="386pt" height="28pt"
 viewBox="0.00 0.00 386.00 28.00" xmlns="http://www.w3.org/2000/svg" xmlns:xlink="http://www.w3.org/1999/xlink">
<g id="graph0" class="graph" transform="scale(1 1) rotate(0) translate(4 24)">
<title>getLogFpInf</title>
<polygon fill="#ffffff" stroke="transparent" points="-4,4 -4,-24 382,-24 382,4 -4,4"/>
<!-- Node231 -->
<g id="node1" class="node">
<title>Node231</title>
<polygon fill="#bfbfbf" stroke="#000000" points="0,-.5 0,-19.5 68,-19.5 68,-.5 0,-.5"/>
<text text-anchor="middle" x="34" y="-7.5" font-family="Helvetica,sans-Serif" font-size="10.00" fill="#000000">getLogFpInf</text>
</g>
<!-- Node232 -->
<g id="node2" class="node">
<title>Node232</title>
<g id="a_node2"><a xlink:href="classCARLsim_1_1Impl.html#aca55cbeeccd57d4b6de64ca8e1d7d2c5" target="_top" xlink:title="CARLsim::Impl::getLogFpInf">
<polygon fill="#ffffff" stroke="#000000" points="104,-.5 104,-19.5 246,-19.5 246,-.5 104,-.5"/>
<text text-anchor="middle" x="175" y="-7.5" font-family="Helvetica,sans-Serif" font-size="10.00" fill="#000000">CARLsim::Impl::getLogFpInf</text>
</a>
</g>
</g>
<!-- Node231&#45;&gt;Node232 -->
<g id="edge1" class="edge">
<title>Node231&#45;&gt;Node232</title>
<path fill="none" stroke="#191970" d="M68.1322,-10C76.008,-10 84.7177,-10 93.6659,-10"/>
<polygon fill="#191970" stroke="#191970" points="93.8385,-13.5001 103.8384,-10 93.8384,-6.5001 93.8385,-13.5001"/>
</g>
<!-- Node233 -->
<g id="node3" class="node">
<title>Node233</title>
<g id="a_node3"><a xlink:href="classSNN.html#aca55cbeeccd57d4b6de64ca8e1d7d2c5" target="_top" xlink:title="function writes population weights from gIDpre to gIDpost to file fname in binary. ">
<polygon fill="#ffffff" stroke="#000000" points="282,-.5 282,-19.5 378,-19.5 378,-.5 282,-.5"/>
<text text-anchor="middle" x="330" y="-7.5" font-family="Helvetica,sans-Serif" font-size="10.00" fill="#000000">SNN::getLogFpInf</text>
</a>
</g>
</g>
<!-- Node232&#45;&gt;Node233 -->
<g id="edge2" class="edge">
<title>Node232&#45;&gt;Node233</title>
<path fill="none" stroke="#191970" d="M246.1489,-10C254.7489,-10 263.454,-10 271.8366,-10"/>
<polygon fill="#191970" stroke="#191970" points="271.8729,-13.5001 281.8729,-10 271.8729,-6.5001 271.8729,-13.5001"/>
</g>
</g>
</svg>
