<?xml version="1.0" encoding="UTF-8" standalone="no"?>
<!DOCTYPE svg PUBLIC "-//W3C//DTD SVG 1.1//EN"
 "http://www.w3.org/Graphics/SVG/1.1/DTD/svg11.dtd">
<!-- Generated by graphviz version 2.40.1 (20161225.0304)
 -->
<!-- Title: isRecording Pages: 1 -->
<svg width="198pt" height="294pt"
 viewBox="0.00 0.00 198.00 294.00" xmlns="http://www.w3.org/2000/svg" xmlns:xlink="http://www.w3.org/1999/xlink">
<g id="graph0" class="graph" transform="scale(1 1) rotate(0) translate(4 290)">
<title>isRecording</title>
<polygon fill="#ffffff" stroke="transparent" points="-4,4 -4,-290 194,-290 194,4 -4,4"/>
<!-- Node175 -->
<g id="node1" class="node">
<title>Node175</title>
<polygon fill="#bfbfbf" stroke="#000000" points="0,-133.5 0,-152.5 68,-152.5 68,-133.5 0,-133.5"/>
<text text-anchor="middle" x="34" y="-140.5" font-family="Helvetica,sans-Serif" font-size="10.00" fill="#000000">isRecording</text>
</g>
<!-- Node176 -->
<g id="node2" class="node">
<title>Node176</title>
<g id="a_node2"><a xlink:href="classNeuronMonitor.html#ac8bb3912a3ce86b15842e79d0b421204" target="_top" xlink:title="clear">
<polygon fill="#ffffff" stroke="#000000" points="128,-266.5 128,-285.5 166,-285.5 166,-266.5 128,-266.5"/>
<text text-anchor="middle" x="147" y="-273.5" font-family="Helvetica,sans-Serif" font-size="10.00" fill="#000000">clear</text>
</a>
</g>
</g>
<!-- Node175&#45;&gt;Node176 -->
<g id="edge1" class="edge">
<title>Node175&#45;&gt;Node176</title>
<path fill="none" stroke="#191970" d="M41.3965,-161.9849C51.9203,-186.8054 73.3928,-230.2585 104,-257 110.7608,-262.9069 119.6507,-267.2455 127.5917,-270.2731"/>
<polygon fill="#191970" stroke="#191970" points="44.5817,-160.5269 37.5619,-152.5914 38.1009,-163.1725 44.5817,-160.5269"/>
</g>
<!-- Node177 -->
<g id="node3" class="node">
<title>Node177</title>
<g id="a_node3"><a xlink:href="classNeuronMonitor.html#ab91616c118b701c2afd9136393d1f19b" target="_top" xlink:title="startRecording">
<polygon fill="#ffffff" stroke="#000000" points="107,-228.5 107,-247.5 187,-247.5 187,-228.5 107,-228.5"/>
<text text-anchor="middle" x="147" y="-235.5" font-family="Helvetica,sans-Serif" font-size="10.00" fill="#000000">startRecording</text>
</a>
</g>
</g>
<!-- Node175&#45;&gt;Node177 -->
<g id="edge2" class="edge">
<title>Node175&#45;&gt;Node177</title>
<path fill="none" stroke="#191970" d="M47.05,-160.9722C59.9767,-177.7563 81.1085,-202.6137 104,-219 109.0437,-222.6104 114.8826,-225.7517 120.5998,-228.3842"/>
<polygon fill="#191970" stroke="#191970" points="49.5558,-158.4802 40.7536,-152.5834 43.9573,-162.6823 49.5558,-158.4802"/>
</g>
<!-- Node178 -->
<g id="node4" class="node">
<title>Node178</title>
<g id="a_node4"><a xlink:href="classNeuronMonitor.html#a25e0e98dd4519eaaa6b258f0dcb91ac7" target="_top" xlink:title="stopRecording">
<polygon fill="#ffffff" stroke="#000000" points="107,-190.5 107,-209.5 187,-209.5 187,-190.5 107,-190.5"/>
<text text-anchor="middle" x="147" y="-197.5" font-family="Helvetica,sans-Serif" font-size="10.00" fill="#000000">stopRecording</text>
</a>
</g>
</g>
<!-- Node175&#45;&gt;Node178 -->
<g id="edge3" class="edge">
<title>Node175&#45;&gt;Node178</title>
<path fill="none" stroke="#191970" d="M59.7008,-157.6018C72.823,-164.8903 89.1197,-173.6886 104,-181 110.5926,-184.2393 117.8644,-187.5493 124.523,-190.4799"/>
<polygon fill="#191970" stroke="#191970" points="61.208,-154.4344 50.7724,-152.6042 57.789,-160.5427 61.208,-154.4344"/>
</g>
<!-- Node179 -->
<g id="node5" class="node">
<title>Node179</title>
<g id="a_node5"><a xlink:href="classNeuronMonitor.html#a0b7a1a6453e1fc0469e96a3ba76c0f8b" target="_top" xlink:title="print">
<polygon fill="#ffffff" stroke="#000000" points="129.5,-152.5 129.5,-171.5 164.5,-171.5 164.5,-152.5 129.5,-152.5"/>
<text text-anchor="middle" x="147" y="-159.5" font-family="Helvetica,sans-Serif" font-size="10.00" fill="#000000">print</text>
</a>
</g>
</g>
<!-- Node175&#45;&gt;Node179 -->
<g id="edge4" class="edge">
<title>Node175&#45;&gt;Node179</title>
<path fill="none" stroke="#191970" d="M78.4283,-150.4702C96.207,-153.4596 115.6586,-156.7302 129.2884,-159.0219"/>
<polygon fill="#191970" stroke="#191970" points="78.6523,-146.9589 68.2104,-148.7522 77.4916,-153.862 78.6523,-146.9589"/>
</g>
<!-- Node180 -->
<g id="node6" class="node">
<title>Node180</title>
<g id="a_node6"><a xlink:href="classNeuronMonitor.html#a22cd4deca28f0e9e8dd2e576b75b02a8" target="_top" xlink:title="Returns the ... ">
<polygon fill="#ffffff" stroke="#000000" points="104,-114.5 104,-133.5 190,-133.5 190,-114.5 104,-114.5"/>
<text text-anchor="middle" x="147" y="-121.5" font-family="Helvetica,sans-Serif" font-size="10.00" fill="#000000">getLastUpdated</text>
</a>
</g>
</g>
<!-- Node175&#45;&gt;Node180 -->
<g id="edge5" class="edge">
<title>Node175&#45;&gt;Node180</title>
<path fill="none" stroke="#191970" d="M78.1936,-135.5692C86.5759,-134.1598 95.338,-132.6865 103.6924,-131.2818"/>
<polygon fill="#191970" stroke="#191970" points="77.4916,-132.138 68.2104,-137.2478 78.6523,-139.0411 77.4916,-132.138"/>
</g>
<!-- Node181 -->
<g id="node7" class="node">
<title>Node181</title>
<g id="a_node7"><a xlink:href="classNeuronMonitor.html#a5414db20073ada3806b3c35686c9a6f4" target="_top" xlink:title="returns the Neuron state vectors ">
<polygon fill="#ffffff" stroke="#000000" points="114.5,-76.5 114.5,-95.5 179.5,-95.5 179.5,-76.5 114.5,-76.5"/>
<text text-anchor="middle" x="147" y="-83.5" font-family="Helvetica,sans-Serif" font-size="10.00" fill="#000000">getVectorV</text>
</a>
</g>
</g>
<!-- Node175&#45;&gt;Node181 -->
<g id="edge6" class="edge">
<title>Node175&#45;&gt;Node181</title>
<path fill="none" stroke="#191970" d="M59.7008,-128.3982C72.823,-121.1097 89.1197,-112.3114 104,-105 110.5926,-101.7607 117.8644,-98.4507 124.523,-95.5201"/>
<polygon fill="#191970" stroke="#191970" points="57.789,-125.4573 50.7724,-133.3958 61.208,-131.5656 57.789,-125.4573"/>
</g>
<!-- Node182 -->
<g id="node8" class="node">
<title>Node182</title>
<g id="a_node8"><a xlink:href="classNeuronMonitor.html#aff9eb621d9c78a5e33f1435eff0e9ba9" target="_top" xlink:title="getVectorU">
<polygon fill="#ffffff" stroke="#000000" points="114,-38.5 114,-57.5 180,-57.5 180,-38.5 114,-38.5"/>
<text text-anchor="middle" x="147" y="-45.5" font-family="Helvetica,sans-Serif" font-size="10.00" fill="#000000">getVectorU</text>
</a>
</g>
</g>
<!-- Node175&#45;&gt;Node182 -->
<g id="edge7" class="edge">
<title>Node175&#45;&gt;Node182</title>
<path fill="none" stroke="#191970" d="M47.05,-125.0278C59.9767,-108.2437 81.1085,-83.3863 104,-67 109.0437,-63.3896 114.8826,-60.2483 120.5998,-57.6158"/>
<polygon fill="#191970" stroke="#191970" points="43.9573,-123.3177 40.7536,-133.4166 49.5558,-127.5198 43.9573,-123.3177"/>
</g>
<!-- Node183 -->
<g id="node9" class="node">
<title>Node183</title>
<g id="a_node9"><a xlink:href="classNeuronMonitor.html#aa1e83b424e9145add71076cadfadb200" target="_top" xlink:title="getVectorI">
<polygon fill="#ffffff" stroke="#000000" points="116,-.5 116,-19.5 178,-19.5 178,-.5 116,-.5"/>
<text text-anchor="middle" x="147" y="-7.5" font-family="Helvetica,sans-Serif" font-size="10.00" fill="#000000">getVectorI</text>
</a>
</g>
</g>
<!-- Node175&#45;&gt;Node183 -->
<g id="edge8" class="edge">
<title>Node175&#45;&gt;Node183</title>
<path fill="none" stroke="#191970" d="M41.3965,-124.0151C51.9203,-99.1946 73.3928,-55.7415 104,-29 108.3023,-25.2411 113.4668,-22.1172 118.7004,-19.5622"/>
<polygon fill="#191970" stroke="#191970" points="38.1009,-122.8275 37.5619,-133.4086 44.5817,-125.4731 38.1009,-122.8275"/>
</g>
</g>
</svg>
