<?xml version="1.0" encoding="UTF-8" standalone="no"?>
<!DOCTYPE svg PUBLIC "-//W3C//DTD SVG 1.1//EN"
 "http://www.w3.org/Graphics/SVG/1.1/DTD/svg11.dtd">
<!-- Generated by graphviz version 2.40.1 (20161225.0304)
 -->
<!-- Title: getNeuronLocation3D Pages: 1 -->
<!--zoomable 142 -->
<svg id="main" version="1.1" xmlns="http://www.w3.org/2000/svg" xmlns:xlink="http://www.w3.org/1999/xlink" xml:space="preserve" onload="init(evt)">
<style type="text/css"><![CDATA[
.edge:hover path { stroke: red; }
.edge:hover polygon { stroke: red; fill: red; }
]]></style>
<script type="text/javascript"><![CDATA[
var edges = document.getElementsByTagName('g');
if (edges && edges.length) {
  for (var i=0;i<edges.length;i++) {
    if (edges[i].id.substr(0,4)=='edge') {
      edges[i].setAttribute('class','edge');
    }
  }
}
]]></script>
        <defs>
                <circle id="rim" cx="0" cy="0" r="7"/>
                <circle id="rim2" cx="0" cy="0" r="3.5"/>
                <g id="zoomPlus">
                        <use xlink:href="#rim" fill="#404040">
                                <set attributeName="fill" to="#808080" begin="zoomplus.mouseover" end="zoomplus.mouseout"/>
                        </use>
                        <path d="M-4,0h8M0,-4v8" fill="none" stroke="white" stroke-width="1.5" pointer-events="none"/>
                </g>
                <g id="zoomMin">
                        <use xlink:href="#rim" fill="#404040">
                                <set attributeName="fill" to="#808080" begin="zoomminus.mouseover" end="zoomminus.mouseout"/>
                        </use>
                        <path d="M-4,0h8" fill="none" stroke="white" stroke-width="1.5" pointer-events="none"/>
                </g>
                <g id="dirArrow">
                        <path fill="none" stroke="white" stroke-width="1.5" d="M0,-3.0v7 M-2.5,-0.5L0,-3.0L2.5,-0.5"/>
                </g>
               <g id="resetDef">
                       <use xlink:href="#rim2" fill="#404040">
                               <set attributeName="fill" to="#808080" begin="reset.mouseover" end="reset.mouseout"/>
                       </use>
               </g>
        </defs>

<script type="text/javascript">
var viewWidth = 618;
var viewHeight = 142;
var sectionId = 'dynsection-62';
</script>
<script xlink:href="svgpan.js"/>
<svg id="graph" class="graph">
<g id="viewport">
<title>getNeuronLocation3D</title>
<polygon fill="#ffffff" stroke="transparent" points="-4,4 -4,-138 614,-138 614,4 -4,4"/>
<!-- Node312 -->
<g id="node1" class="node">
<title>Node312</title>
<polygon fill="#bfbfbf" stroke="#000000" points="0,-57.5 0,-76.5 111,-76.5 111,-57.5 0,-57.5"/>
<text text-anchor="middle" x="55.5" y="-64.5" font-family="Helvetica,sans-Serif" font-size="10.00" fill="#000000">getNeuronLocation3D</text>
</g>
<!-- Node313 -->
<g id="node2" class="node">
<title>Node313</title>
<g id="a_node2"><a xlink:href="classUserErrors.html#a4bbedc6c0817d5e59e74e450bf00472c" target="_top" xlink:title="simple wrapper for assert statement ">
<polygon fill="#ffffff" stroke="#000000" points="335,-114.5 335,-133.5 451,-133.5 451,-114.5 335,-114.5"/>
<text text-anchor="middle" x="393" y="-121.5" font-family="Helvetica,sans-Serif" font-size="10.00" fill="#000000">UserErrors::assertTrue</text>
</a>
</g>
</g>
<!-- Node312&#45;&gt;Node313 -->
<g id="edge1" class="edge">
<title>Node312&#45;&gt;Node313</title>
<path fill="none" stroke="#191970" d="M73.8418,-76.6565C91.9117,-85.6729 120.5719,-98.6626 147,-105 205.8445,-119.1108 274.6551,-123.4339 324.5139,-124.4746"/>
<polygon fill="#191970" stroke="#191970" points="324.4813,-127.9745 334.5394,-124.6451 324.6004,-120.9755 324.4813,-127.9745"/>
</g>
<!-- Node314 -->
<g id="node3" class="node">
<title>Node314</title>
<g id="a_node3"><a xlink:href="classCARLsim_1_1Impl.html#a292bdee57fec7c77ec4c15ea3f508d60" target="_top" xlink:title="getNumGroups">
<polygon fill="#ffffff" stroke="#000000" points="351.5,-38.5 351.5,-57.5 434.5,-57.5 434.5,-38.5 351.5,-38.5"/>
<text text-anchor="middle" x="393" y="-45.5" font-family="Helvetica,sans-Serif" font-size="10.00" fill="#000000">getNumGroups</text>
</a>
</g>
</g>
<!-- Node312&#45;&gt;Node314 -->
<g id="edge2" class="edge">
<title>Node312&#45;&gt;Node314</title>
<path fill="none" stroke="#191970" d="M111.2313,-63.8625C175.0349,-60.2706 278.7323,-54.4328 340.951,-50.9302"/>
<polygon fill="#191970" stroke="#191970" points="341.5297,-54.4032 351.3171,-50.3466 341.1361,-47.4143 341.5297,-54.4032"/>
</g>
<!-- Node316 -->
<g id="node5" class="node">
<title>Node316</title>
<g id="a_node5"><a xlink:href="classCARLsim_1_1Impl.html#ad85b898d98abe24dcae4390f0fe61e84" target="_top" xlink:title="getGroupNumNeurons">
<polygon fill="#ffffff" stroke="#000000" points="159.5,-76.5 159.5,-95.5 273.5,-95.5 273.5,-76.5 159.5,-76.5"/>
<text text-anchor="middle" x="216.5" y="-83.5" font-family="Helvetica,sans-Serif" font-size="10.00" fill="#000000">getGroupNumNeurons</text>
</a>
</g>
</g>
<!-- Node312&#45;&gt;Node316 -->
<g id="edge4" class="edge">
<title>Node312&#45;&gt;Node316</title>
<path fill="none" stroke="#191970" d="M111.3581,-73.592C123.6127,-75.0381 136.7104,-76.5838 149.3557,-78.0761"/>
<polygon fill="#191970" stroke="#191970" points="149.034,-81.5624 159.3754,-79.2586 149.8545,-74.6106 149.034,-81.5624"/>
</g>
<!-- Node318 -->
<g id="node7" class="node">
<title>Node318</title>
<g id="a_node7"><a xlink:href="classSNN.html#aba1eac7ee46971637423204a63e9892b" target="_top" xlink:title="SNN::getNeuronLocation3D">
<polygon fill="#ffffff" stroke="#000000" points="147,-.5 147,-19.5 286,-19.5 286,-.5 147,-.5"/>
<text text-anchor="middle" x="216.5" y="-7.5" font-family="Helvetica,sans-Serif" font-size="10.00" fill="#000000">SNN::getNeuronLocation3D</text>
</a>
</g>
</g>
<!-- Node312&#45;&gt;Node318 -->
<g id="edge8" class="edge">
<title>Node312&#45;&gt;Node318</title>
<path fill="none" stroke="#191970" d="M81.8928,-57.3737C100.1527,-50.7401 125.0247,-41.7566 147,-34 157.3079,-30.3616 168.4962,-26.4719 178.8227,-22.9061"/>
<polygon fill="#191970" stroke="#191970" points="180.0879,-26.1722 188.4023,-19.6054 177.8076,-19.554 180.0879,-26.1722"/>
</g>
<!-- Node315 -->
<g id="node4" class="node">
<title>Node315</title>
<g id="a_node4"><a xlink:href="classSNN.html#a292bdee57fec7c77ec4c15ea3f508d60" target="_top" xlink:title="SNN::getNumGroups">
<polygon fill="#ffffff" stroke="#000000" points="500,-38.5 500,-57.5 610,-57.5 610,-38.5 500,-38.5"/>
<text text-anchor="middle" x="555" y="-45.5" font-family="Helvetica,sans-Serif" font-size="10.00" fill="#000000">SNN::getNumGroups</text>
</a>
</g>
</g>
<!-- Node314&#45;&gt;Node315 -->
<g id="edge3" class="edge">
<title>Node314&#45;&gt;Node315</title>
<path fill="none" stroke="#191970" d="M434.719,-48C451.4884,-48 471.2215,-48 489.8007,-48"/>
<polygon fill="#191970" stroke="#191970" points="489.9776,-51.5001 499.9776,-48 489.9776,-44.5001 489.9776,-51.5001"/>
</g>
<!-- Node316&#45;&gt;Node313 -->
<g id="edge5" class="edge">
<title>Node316&#45;&gt;Node313</title>
<path fill="none" stroke="#191970" d="M261.0384,-95.589C284.6442,-100.6713 313.8325,-106.9554 338.7511,-112.3203"/>
<polygon fill="#191970" stroke="#191970" points="338.2692,-115.7967 348.7819,-114.4799 339.7426,-108.9535 338.2692,-115.7967"/>
</g>
<!-- Node316&#45;&gt;Node314 -->
<g id="edge6" class="edge">
<title>Node316&#45;&gt;Node314</title>
<path fill="none" stroke="#191970" d="M261.0384,-76.411C285.4704,-71.1509 315.8824,-64.6032 341.3513,-59.1198"/>
<polygon fill="#191970" stroke="#191970" points="342.1676,-62.5244 351.2069,-56.9979 340.6942,-55.6812 342.1676,-62.5244"/>
</g>
<!-- Node317 -->
<g id="node6" class="node">
<title>Node317</title>
<g id="a_node6"><a xlink:href="classSNN.html#a11e19a0ccbeca92ba843a5933b3321e0" target="_top" xlink:title="SNN::getGroupNumNeurons">
<polygon fill="#ffffff" stroke="#000000" points="322,-76.5 322,-95.5 464,-95.5 464,-76.5 322,-76.5"/>
<text text-anchor="middle" x="393" y="-83.5" font-family="Helvetica,sans-Serif" font-size="10.00" fill="#000000">SNN::getGroupNumNeurons</text>
</a>
</g>
</g>
<!-- Node316&#45;&gt;Node317 -->
<g id="edge7" class="edge">
<title>Node316&#45;&gt;Node317</title>
<path fill="none" stroke="#191970" d="M273.8045,-86C285.8772,-86 298.8345,-86 311.5995,-86"/>
<polygon fill="#191970" stroke="#191970" points="311.7751,-89.5001 321.7751,-86 311.775,-82.5001 311.7751,-89.5001"/>
</g>
</g>
</svg>
        <g id="navigator" transform="translate(0 0)" fill="#404254">
                <rect fill="#f2f5e9" fill-opacity="0.5" stroke="#606060" stroke-width=".5" x="0" y="0" width="60" height="60"/>
                <use id="zoomplus" xlink:href="#zoomPlus" x="17" y="9" onmousedown="handleZoom(evt,'in')"/>
                <use id="zoomminus" xlink:href="#zoomMin" x="42" y="9" onmousedown="handleZoom(evt,'out')"/>
                <use id="reset" xlink:href="#resetDef" x="30" y="36" onmousedown="handleReset()"/>
                <g id="arrowUp" xlink:href="#dirArrow" transform="translate(30 24)" onmousedown="handlePan(0,-1)">
                  <use xlink:href="#rim" fill="#404040">
                        <set attributeName="fill" to="#808080" begin="arrowUp.mouseover" end="arrowUp.mouseout"/>
                  </use>
                  <path fill="none" stroke="white" stroke-width="1.5" d="M0,-3.0v7 M-2.5,-0.5L0,-3.0L2.5,-0.5"/>
                </g>
                <g id="arrowRight" xlink:href="#dirArrow" transform="rotate(90) translate(36 -43)" onmousedown="handlePan(1,0)">
                  <use xlink:href="#rim" fill="#404040">
                        <set attributeName="fill" to="#808080" begin="arrowRight.mouseover" end="arrowRight.mouseout"/>
                  </use>
                  <path fill="none" stroke="white" stroke-width="1.5" d="M0,-3.0v7 M-2.5,-0.5L0,-3.0L2.5,-0.5"/>
                </g>
                <g id="arrowDown" xlink:href="#dirArrow" transform="rotate(180) translate(-30 -48)" onmousedown="handlePan(0,1)">
                  <use xlink:href="#rim" fill="#404040">
                        <set attributeName="fill" to="#808080" begin="arrowDown.mouseover" end="arrowDown.mouseout"/>
                  </use>
                  <path fill="none" stroke="white" stroke-width="1.5" d="M0,-3.0v7 M-2.5,-0.5L0,-3.0L2.5,-0.5"/>
                </g>
                <g id="arrowLeft" xlink:href="#dirArrow" transform="rotate(270) translate(-36 17)" onmousedown="handlePan(-1,0)">
                  <use xlink:href="#rim" fill="#404040">
                        <set attributeName="fill" to="#808080" begin="arrowLeft.mouseover" end="arrowLeft.mouseout"/>
                  </use>
                  <path fill="none" stroke="white" stroke-width="1.5" d="M0,-3.0v7 M-2.5,-0.5L0,-3.0L2.5,-0.5"/>
                </g>
        </g>
        <svg viewBox="0 0 15 15" width="100%" height="30px" preserveAspectRatio="xMaxYMin meet">
         <g id="arrow_out" transform="scale(0.3 0.3)">
          <a xlink:href="classCARLsim_1_1Impl_af750970a60eaa5f0cb82ae57c279443c_cgraph_org.svg" target="_base">
           <rect id="button" ry="5" rx="5" y="6" x="6" height="38" width="38"
                fill="#f2f5e9" fill-opacity="0.5" stroke="#606060" stroke-width="1.0"/>
           <path id="arrow"
             d="M 11.500037,31.436501 C 11.940474,20.09759 22.043105,11.32322 32.158766,21.979434 L 37.068811,17.246167 C 37.068811,17.246167 37.088388,32 37.088388,32 L 22.160133,31.978069 C 22.160133,31.978069 26.997745,27.140456 26.997745,27.140456 C 18.528582,18.264221 13.291696,25.230495 11.500037,31.436501 z"
             style="fill:#404040;"/>
          </a>
         </g>
        </svg>
</svg>
