<?xml version="1.0" encoding="UTF-8" standalone="no"?>
<!DOCTYPE svg PUBLIC "-//W3C//DTD SVG 1.1//EN"
 "http://www.w3.org/Graphics/SVG/1.1/DTD/svg11.dtd">
<!-- Generated by graphviz version 2.40.1 (20161225.0304)
 -->
<!-- Title: getUpdateTimeIntervalSec Pages: 1 -->
<!--zoomable 39 -->
<svg id="main" version="1.1" xmlns="http://www.w3.org/2000/svg" xmlns:xlink="http://www.w3.org/1999/xlink" xml:space="preserve" onload="init(evt)">
<style type="text/css"><![CDATA[
.edge:hover path { stroke: red; }
.edge:hover polygon { stroke: red; fill: red; }
]]></style>
<script type="text/javascript"><![CDATA[
var edges = document.getElementsByTagName('g');
if (edges && edges.length) {
  for (var i=0;i<edges.length;i++) {
    if (edges[i].id.substr(0,4)=='edge') {
      edges[i].setAttribute('class','edge');
    }
  }
}
]]></script>
        <defs>
                <circle id="rim" cx="0" cy="0" r="7"/>
                <circle id="rim2" cx="0" cy="0" r="3.5"/>
                <g id="zoomPlus">
                        <use xlink:href="#rim" fill="#404040">
                                <set attributeName="fill" to="#808080" begin="zoomplus.mouseover" end="zoomplus.mouseout"/>
                        </use>
                        <path d="M-4,0h8M0,-4v8" fill="none" stroke="white" stroke-width="1.5" pointer-events="none"/>
                </g>
                <g id="zoomMin">
                        <use xlink:href="#rim" fill="#404040">
                                <set attributeName="fill" to="#808080" begin="zoomminus.mouseover" end="zoomminus.mouseout"/>
                        </use>
                        <path d="M-4,0h8" fill="none" stroke="white" stroke-width="1.5" pointer-events="none"/>
                </g>
                <g id="dirArrow">
                        <path fill="none" stroke="white" stroke-width="1.5" d="M0,-3.0v7 M-2.5,-0.5L0,-3.0L2.5,-0.5"/>
                </g>
               <g id="resetDef">
                       <use xlink:href="#rim2" fill="#404040">
                               <set attributeName="fill" to="#808080" begin="reset.mouseover" end="reset.mouseout"/>
                       </use>
               </g>
        </defs>

<script type="text/javascript">
var viewWidth = 1079;
var viewHeight = 39;
var sectionId = 'dynsection-26';
</script>
<script xlink:href="svgpan.js"/>
<svg id="graph" class="graph">
<g id="viewport">
<title>getUpdateTimeIntervalSec</title>
<polygon fill="#ffffff" stroke="transparent" points="-4,4 -4,-35 1075,-35 1075,4 -4,4"/>
<!-- Node234 -->
<g id="node1" class="node">
<title>Node234</title>
<polygon fill="#bfbfbf" stroke="#000000" points="0,-6 0,-25 133,-25 133,-6 0,-6"/>
<text text-anchor="middle" x="66.5" y="-13" font-family="Helvetica,sans-Serif" font-size="10.00" fill="#000000">getUpdateTimeIntervalSec</text>
</g>
<!-- Node235 -->
<g id="node2" class="node">
<title>Node235</title>
<g id="a_node2"><a xlink:href="classSNN.html#a68862cb4e6c749219c20c38aeab06986" target="_top" xlink:title="polls connection weights ">
<polygon fill="#ffffff" stroke="#000000" points="169,-6 169,-25 324,-25 324,-6 169,-6"/>
<text text-anchor="middle" x="246.5" y="-13" font-family="Helvetica,sans-Serif" font-size="10.00" fill="#000000">SNN::updateConnectionMonitor</text>
</a>
</g>
</g>
<!-- Node234&#45;&gt;Node235 -->
<g id="edge1" class="edge">
<title>Node234&#45;&gt;Node235</title>
<path fill="none" stroke="#191970" d="M143.2083,-15.5C151.6475,-15.5 160.2461,-15.5 168.6984,-15.5"/>
<polygon fill="#191970" stroke="#191970" points="143.014,-12.0001 133.0139,-15.5 143.0139,-19.0001 143.014,-12.0001"/>
</g>
<!-- Node236 -->
<g id="node3" class="node">
<title>Node236</title>
<g id="a_node3"><a xlink:href="classSNN.html#a3df37c7539f784fe7a939c5da922f41b" target="_top" xlink:title="run the simulation for n sec ">
<polygon fill="#ffffff" stroke="#000000" points="360,-6 360,-25 455,-25 455,-6 360,-6"/>
<text text-anchor="middle" x="407.5" y="-13" font-family="Helvetica,sans-Serif" font-size="10.00" fill="#000000">SNN::runNetwork</text>
</a>
</g>
</g>
<!-- Node235&#45;&gt;Node236 -->
<g id="edge2" class="edge">
<title>Node235&#45;&gt;Node236</title>
<path fill="none" stroke="#191970" d="M334.1932,-15.5C343.0469,-15.5 351.7837,-15.5 359.9704,-15.5"/>
<polygon fill="#191970" stroke="#191970" points="334.1705,-12.0001 324.1704,-15.5 334.1704,-19.0001 334.1705,-12.0001"/>
</g>
<!-- Node237 -->
<g id="node4" class="node">
<title>Node237</title>
<g id="a_node4"><a xlink:href="classCARLsim_1_1Impl.html#a749f370debe5eec8661cf9ca1b1bb4c0" target="_top" xlink:title="CARLsim::Impl::runNetwork">
<polygon fill="#ffffff" stroke="#000000" points="491,-6 491,-25 631,-25 631,-6 491,-6"/>
<text text-anchor="middle" x="561" y="-13" font-family="Helvetica,sans-Serif" font-size="10.00" fill="#000000">CARLsim::Impl::runNetwork</text>
</a>
</g>
</g>
<!-- Node236&#45;&gt;Node237 -->
<g id="edge3" class="edge">
<title>Node236&#45;&gt;Node237</title>
<path fill="none" stroke="#191970" d="M465.4873,-15.5C473.7425,-15.5 482.3063,-15.5 490.7638,-15.5"/>
<polygon fill="#191970" stroke="#191970" points="465.227,-12.0001 455.2269,-15.5 465.2269,-19.0001 465.227,-12.0001"/>
</g>
<!-- Node238 -->
<g id="node5" class="node">
<title>Node238</title>
<g id="a_node5"><a xlink:href="classCARLsim.html#aafb2d44405c96aafe089f96ff867018d" target="_top" xlink:title="run the simulation for time=(nSec*seconds + nMsec*milliseconds) ">
<polygon fill="#ffffff" stroke="#000000" points="667,-6 667,-25 783,-25 783,-6 667,-6"/>
<text text-anchor="middle" x="725" y="-13" font-family="Helvetica,sans-Serif" font-size="10.00" fill="#000000">CARLsim::runNetwork</text>
</a>
</g>
</g>
<!-- Node237&#45;&gt;Node238 -->
<g id="edge4" class="edge">
<title>Node237&#45;&gt;Node238</title>
<path fill="none" stroke="#191970" d="M641.1489,-15.5C649.8022,-15.5 658.483,-15.5 666.8055,-15.5"/>
<polygon fill="#191970" stroke="#191970" points="641.0265,-12.0001 631.0265,-15.5 641.0264,-19.0001 641.0265,-12.0001"/>
</g>
<!-- Node239 -->
<g id="node6" class="node">
<title>Node239</title>
<g id="a_node6"><a xlink:href="classSimpleWeightTuner_1_1Impl.html#a312d84bfa66a5036bb52a4c39db6fa6c" target="_top" xlink:title="SimpleWeightTuner::\lImpl::iterate">
<polygon fill="#ffffff" stroke="#000000" points="819,-.5 819,-30.5 927,-30.5 927,-.5 819,-.5"/>
<text text-anchor="start" x="827" y="-18.5" font-family="Helvetica,sans-Serif" font-size="10.00" fill="#000000">SimpleWeightTuner::</text>
<text text-anchor="middle" x="873" y="-7.5" font-family="Helvetica,sans-Serif" font-size="10.00" fill="#000000">Impl::iterate</text>
</a>
</g>
</g>
<!-- Node238&#45;&gt;Node239 -->
<g id="edge5" class="edge">
<title>Node238&#45;&gt;Node239</title>
<path fill="none" stroke="#191970" d="M793.1513,-15.5C801.8066,-15.5 810.5692,-15.5 818.9617,-15.5"/>
<polygon fill="#191970" stroke="#191970" points="793.0688,-12.0001 783.0687,-15.5 793.0687,-19.0001 793.0688,-12.0001"/>
</g>
<!-- Node240 -->
<g id="node7" class="node">
<title>Node240</title>
<g id="a_node7"><a xlink:href="classSimpleWeightTuner.html#a0df985e3ff7a27edc1e2e3fcc8261843" target="_top" xlink:title="Performs an iteration step of the tuning algorithm. ">
<polygon fill="#ffffff" stroke="#000000" points="963,-.5 963,-30.5 1071,-30.5 1071,-.5 963,-.5"/>
<text text-anchor="start" x="971" y="-18.5" font-family="Helvetica,sans-Serif" font-size="10.00" fill="#000000">SimpleWeightTuner::</text>
<text text-anchor="middle" x="1017" y="-7.5" font-family="Helvetica,sans-Serif" font-size="10.00" fill="#000000">iterate</text>
</a>
</g>
</g>
<!-- Node239&#45;&gt;Node240 -->
<g id="edge6" class="edge">
<title>Node239&#45;&gt;Node240</title>
<path fill="none" stroke="#191970" d="M937.2702,-15.5C945.7504,-15.5 954.3754,-15.5 962.6672,-15.5"/>
<polygon fill="#191970" stroke="#191970" points="937.03,-12.0001 927.03,-15.5 937.0299,-19.0001 937.03,-12.0001"/>
</g>
</g>
</svg>
        <g id="navigator" transform="translate(0 0)" fill="#404254">
                <rect fill="#f2f5e9" fill-opacity="0.5" stroke="#606060" stroke-width=".5" x="0" y="0" width="60" height="60"/>
                <use id="zoomplus" xlink:href="#zoomPlus" x="17" y="9" onmousedown="handleZoom(evt,'in')"/>
                <use id="zoomminus" xlink:href="#zoomMin" x="42" y="9" onmousedown="handleZoom(evt,'out')"/>
                <use id="reset" xlink:href="#resetDef" x="30" y="36" onmousedown="handleReset()"/>
                <g id="arrowUp" xlink:href="#dirArrow" transform="translate(30 24)" onmousedown="handlePan(0,-1)">
                  <use xlink:href="#rim" fill="#404040">
                        <set attributeName="fill" to="#808080" begin="arrowUp.mouseover" end="arrowUp.mouseout"/>
                  </use>
                  <path fill="none" stroke="white" stroke-width="1.5" d="M0,-3.0v7 M-2.5,-0.5L0,-3.0L2.5,-0.5"/>
                </g>
                <g id="arrowRight" xlink:href="#dirArrow" transform="rotate(90) translate(36 -43)" onmousedown="handlePan(1,0)">
                  <use xlink:href="#rim" fill="#404040">
                        <set attributeName="fill" to="#808080" begin="arrowRight.mouseover" end="arrowRight.mouseout"/>
                  </use>
                  <path fill="none" stroke="white" stroke-width="1.5" d="M0,-3.0v7 M-2.5,-0.5L0,-3.0L2.5,-0.5"/>
                </g>
                <g id="arrowDown" xlink:href="#dirArrow" transform="rotate(180) translate(-30 -48)" onmousedown="handlePan(0,1)">
                  <use xlink:href="#rim" fill="#404040">
                        <set attributeName="fill" to="#808080" begin="arrowDown.mouseover" end="arrowDown.mouseout"/>
                  </use>
                  <path fill="none" stroke="white" stroke-width="1.5" d="M0,-3.0v7 M-2.5,-0.5L0,-3.0L2.5,-0.5"/>
                </g>
                <g id="arrowLeft" xlink:href="#dirArrow" transform="rotate(270) translate(-36 17)" onmousedown="handlePan(-1,0)">
                  <use xlink:href="#rim" fill="#404040">
                        <set attributeName="fill" to="#808080" begin="arrowLeft.mouseover" end="arrowLeft.mouseout"/>
                  </use>
                  <path fill="none" stroke="white" stroke-width="1.5" d="M0,-3.0v7 M-2.5,-0.5L0,-3.0L2.5,-0.5"/>
                </g>
        </g>
        <svg viewBox="0 0 15 15" width="100%" height="30px" preserveAspectRatio="xMaxYMin meet">
         <g id="arrow_out" transform="scale(0.3 0.3)">
          <a xlink:href="classConnectionMonitorCore_acf625cff31a558c7d6786773d0c2693c_icgraph_org.svg" target="_base">
           <rect id="button" ry="5" rx="5" y="6" x="6" height="38" width="38"
                fill="#f2f5e9" fill-opacity="0.5" stroke="#606060" stroke-width="1.0"/>
           <path id="arrow"
             d="M 11.500037,31.436501 C 11.940474,20.09759 22.043105,11.32322 32.158766,21.979434 L 37.068811,17.246167 C 37.068811,17.246167 37.088388,32 37.088388,32 L 22.160133,31.978069 C 22.160133,31.978069 26.997745,27.140456 26.997745,27.140456 C 18.528582,18.264221 13.291696,25.230495 11.500037,31.436501 z"
             style="fill:#404040;"/>
          </a>
         </g>
        </svg>
</svg>
