<?xml version="1.0" encoding="UTF-8" standalone="no"?>
<!DOCTYPE svg PUBLIC "-//W3C//DTD SVG 1.1//EN"
 "http://www.w3.org/Graphics/SVG/1.1/DTD/svg11.dtd">
<!-- Generated by graphviz version 2.40.1 (20161225.0304)
 -->
<!-- Title: getRecordingStartTime Pages: 1 -->
<svg width="1585pt" height="486pt"
 viewBox="0.00 0.00 1585.00 486.00" xmlns="http://www.w3.org/2000/svg" xmlns:xlink="http://www.w3.org/1999/xlink">
<g id="graph0" class="graph" transform="scale(1 1) rotate(0) translate(4 482)">
<title>getRecordingStartTime</title>
<polygon fill="#ffffff" stroke="transparent" points="-4,4 -4,-482 1581,-482 1581,4 -4,4"/>
<!-- Node299 -->
<g id="node1" class="node">
<title>Node299</title>
<polygon fill="#bfbfbf" stroke="#000000" points="0,-145.5 0,-164.5 117,-164.5 117,-145.5 0,-145.5"/>
<text text-anchor="middle" x="58.5" y="-152.5" font-family="Helvetica,sans-Serif" font-size="10.00" fill="#000000">getRecordingStartTime</text>
</g>
<!-- Node300 -->
<g id="node2" class="node">
<title>Node300</title>
<g id="a_node2"><a xlink:href="classUserErrors.html#a4bbedc6c0817d5e59e74e450bf00472c" target="_top" xlink:title="simple wrapper for assert statement ">
<polygon fill="#ffffff" stroke="#000000" points="174,-183.5 174,-202.5 290,-202.5 290,-183.5 174,-183.5"/>
<text text-anchor="middle" x="232" y="-190.5" font-family="Helvetica,sans-Serif" font-size="10.00" fill="#000000">UserErrors::assertTrue</text>
</a>
</g>
</g>
<!-- Node299&#45;&gt;Node300 -->
<g id="edge1" class="edge">
<title>Node299&#45;&gt;Node300</title>
<path fill="none" stroke="#191970" d="M102.2814,-164.589C125.486,-169.6713 154.1781,-175.9554 178.6732,-181.3203"/>
<polygon fill="#191970" stroke="#191970" points="178.0162,-184.7593 188.5335,-183.4799 179.5138,-177.9214 178.0162,-184.7593"/>
</g>
<!-- Node301 -->
<g id="node3" class="node">
<title>Node301</title>
<g id="a_node3"><a xlink:href="classSpikeMonitor.html#a3a3ffdb35b09328d22e5d72503ed1f55" target="_top" xlink:title="Recording status (true=recording, false=not recording) ">
<polygon fill="#ffffff" stroke="#000000" points="198,-145.5 198,-164.5 266,-164.5 266,-145.5 198,-145.5"/>
<text text-anchor="middle" x="232" y="-152.5" font-family="Helvetica,sans-Serif" font-size="10.00" fill="#000000">isRecording</text>
</a>
</g>
</g>
<!-- Node299&#45;&gt;Node301 -->
<g id="edge2" class="edge">
<title>Node299&#45;&gt;Node301</title>
<path fill="none" stroke="#191970" d="M117.2392,-155C140.3032,-155 166.3263,-155 187.754,-155"/>
<polygon fill="#191970" stroke="#191970" points="187.8709,-158.5001 197.8708,-155 187.8708,-151.5001 187.8709,-158.5001"/>
</g>
<!-- Node315 -->
<g id="node17" class="node">
<title>Node315</title>
<g id="a_node17"><a xlink:href="classSpikeMonitorCore.html#ac6adcc8c66fe2f54f06578f4b6d6b331" target="_top" xlink:title="retunrs the timestamp of the first startRecording in ms ">
<polygon fill="#ffffff" stroke="#000000" points="153,-96 153,-126 311,-126 311,-96 153,-96"/>
<text text-anchor="start" x="161" y="-114" font-family="Helvetica,sans-Serif" font-size="10.00" fill="#000000">SpikeMonitorCore::getRecording</text>
<text text-anchor="middle" x="232" y="-103" font-family="Helvetica,sans-Serif" font-size="10.00" fill="#000000">StartTime</text>
</a>
</g>
</g>
<!-- Node299&#45;&gt;Node315 -->
<g id="edge30" class="edge">
<title>Node299&#45;&gt;Node315</title>
<path fill="none" stroke="#191970" d="M96.1469,-145.4527C115.5938,-140.5209 139.9494,-134.3442 162.6478,-128.5879"/>
<polygon fill="#191970" stroke="#191970" points="163.7618,-131.9162 172.5945,-126.0654 162.041,-125.131 163.7618,-131.9162"/>
</g>
<!-- Node302 -->
<g id="node4" class="node">
<title>Node302</title>
<g id="a_node4"><a xlink:href="classSpikeMonitorCore.html#a3a3ffdb35b09328d22e5d72503ed1f55" target="_top" xlink:title="returns recording status ">
<polygon fill="#ffffff" stroke="#000000" points="347,-145.5 347,-164.5 499,-164.5 499,-145.5 347,-145.5"/>
<text text-anchor="middle" x="423" y="-152.5" font-family="Helvetica,sans-Serif" font-size="10.00" fill="#000000">SpikeMonitorCore::isRecording</text>
</a>
</g>
</g>
<!-- Node301&#45;&gt;Node302 -->
<g id="edge3" class="edge">
<title>Node301&#45;&gt;Node302</title>
<path fill="none" stroke="#191970" d="M266.147,-155C285.8573,-155 311.6144,-155 336.5423,-155"/>
<polygon fill="#191970" stroke="#191970" points="336.7806,-158.5001 346.7806,-155 336.7805,-151.5001 336.7806,-158.5001"/>
</g>
<!-- Node303 -->
<g id="node5" class="node">
<title>Node303</title>
<g id="a_node5"><a xlink:href="classSpikeMonitorCore.html#af0ba89c38f6852cdf9d914687ad6a445" target="_top" xlink:title="prints the AER vector in human&#45;readable format ">
<polygon fill="#ffffff" stroke="#000000" points="547,-240.5 547,-259.5 666,-259.5 666,-240.5 547,-240.5"/>
<text text-anchor="middle" x="606.5" y="-247.5" font-family="Helvetica,sans-Serif" font-size="10.00" fill="#000000">SpikeMonitorCore::print</text>
</a>
</g>
</g>
<!-- Node302&#45;&gt;Node303 -->
<g id="edge4" class="edge">
<title>Node302&#45;&gt;Node303</title>
<path fill="none" stroke="#191970" d="M451.2697,-164.5995C488.4193,-181.371 552.8028,-214.8926 585.7587,-234.7944"/>
<polygon fill="#191970" stroke="#191970" points="584.2034,-237.949 594.543,-240.2608 587.9018,-232.0057 584.2034,-237.949"/>
</g>
<!-- Node314 -->
<g id="node16" class="node">
<title>Node314</title>
<g id="a_node16"><a xlink:href="classSpikeMonitorCore.html#a6e116c2994e0449c41e56d03370fa54c" target="_top" xlink:title="inserts a (time,neurId) tupel into the 2D spike vector ">
<polygon fill="#ffffff" stroke="#000000" points="535,-.5 535,-19.5 678,-19.5 678,-.5 535,-.5"/>
<text text-anchor="middle" x="606.5" y="-7.5" font-family="Helvetica,sans-Serif" font-size="10.00" fill="#000000">SpikeMonitorCore::pushAER</text>
</a>
</g>
</g>
<!-- Node302&#45;&gt;Node314 -->
<g id="edge27" class="edge">
<title>Node302&#45;&gt;Node314</title>
<path fill="none" stroke="#191970" d="M426.9008,-145.2409C439.8559,-120.4667 483.5578,-58.2585 535,-25 535.1856,-24.88 535.3718,-24.7606 535.5586,-24.6417"/>
<polygon fill="#191970" stroke="#191970" points="537.3736,-27.6361 544.3452,-19.6582 533.9202,-21.5473 537.3736,-27.6361"/>
</g>
<!-- Node303&#45;&gt;Node302 -->
<g id="edge5" class="edge">
<title>Node303&#45;&gt;Node302</title>
<path fill="none" stroke="#191970" d="M578.2882,-240.4266C541.0635,-223.6258 476.4219,-189.9655 443.5175,-170.0703"/>
<polygon fill="#191970" stroke="#191970" points="445.0957,-166.9298 434.7579,-164.6104 441.393,-172.8703 445.0957,-166.9298"/>
</g>
<!-- Node304 -->
<g id="node6" class="node">
<title>Node304</title>
<g id="a_node6"><a xlink:href="classSNN.html#a5fd2b156623d78138bcb44167eabab78" target="_top" xlink:title="SNN::getSimTime">
<polygon fill="#ffffff" stroke="#000000" points="731,-316.5 731,-335.5 828,-335.5 828,-316.5 731,-316.5"/>
<text text-anchor="middle" x="779.5" y="-323.5" font-family="Helvetica,sans-Serif" font-size="10.00" fill="#000000">SNN::getSimTime</text>
</a>
</g>
</g>
<!-- Node303&#45;&gt;Node304 -->
<g id="edge6" class="edge">
<title>Node303&#45;&gt;Node304</title>
<path fill="none" stroke="#191970" d="M622.037,-259.5498C642.5136,-271.8255 679.9332,-293.198 714,-307 719.7613,-309.3342 725.9143,-311.51 732.056,-313.4944"/>
<polygon fill="#191970" stroke="#191970" points="731.0527,-316.8476 741.6401,-316.4502 733.1158,-310.1584 731.0527,-316.8476"/>
</g>
<!-- Node305 -->
<g id="node7" class="node">
<title>Node305</title>
<g id="a_node7"><a xlink:href="classSNN.html#ab0367f8ebd4019bf7d34ebddb1563fe7" target="_top" xlink:title="SNN::getGroupName">
<polygon fill="#ffffff" stroke="#000000" points="724.5,-278.5 724.5,-297.5 834.5,-297.5 834.5,-278.5 724.5,-278.5"/>
<text text-anchor="middle" x="779.5" y="-285.5" font-family="Helvetica,sans-Serif" font-size="10.00" fill="#000000">SNN::getGroupName</text>
</a>
</g>
</g>
<!-- Node303&#45;&gt;Node305 -->
<g id="edge7" class="edge">
<title>Node303&#45;&gt;Node305</title>
<path fill="none" stroke="#191970" d="M650.1552,-259.589C673.2929,-264.6713 701.9024,-270.9554 726.3268,-276.3203"/>
<polygon fill="#191970" stroke="#191970" points="725.6406,-279.753 736.1587,-278.4799 727.1425,-272.916 725.6406,-279.753"/>
</g>
<!-- Node306 -->
<g id="node8" class="node">
<title>Node306</title>
<g id="a_node8"><a xlink:href="classSpikeMonitorCore.html#af6c333e6cefff92d0e354eca70625cdc" target="_top" xlink:title="returns the total number of recorded spikes in the group ">
<polygon fill="#ffffff" stroke="#000000" points="1076.5,-213 1076.5,-243 1207.5,-243 1207.5,-213 1076.5,-213"/>
<text text-anchor="start" x="1084.5" y="-231" font-family="Helvetica,sans-Serif" font-size="10.00" fill="#000000">SpikeMonitorCore::getPop</text>
<text text-anchor="middle" x="1142" y="-220" font-family="Helvetica,sans-Serif" font-size="10.00" fill="#000000">NumSpikes</text>
</a>
</g>
</g>
<!-- Node303&#45;&gt;Node306 -->
<g id="edge8" class="edge">
<title>Node303&#45;&gt;Node306</title>
<path fill="none" stroke="#191970" d="M666.1117,-247.551C763.9605,-243.531 958.4864,-235.5393 1066.0587,-231.1199"/>
<polygon fill="#191970" stroke="#191970" points="1066.3434,-234.6113 1076.1913,-230.7036 1066.056,-227.6172 1066.3434,-234.6113"/>
</g>
<!-- Node309 -->
<g id="node11" class="node">
<title>Node309</title>
<g id="a_node11"><a xlink:href="classSpikeMonitorCore.html#a9cf20c30ff0efdbc5e3c5194648a7fb3" target="_top" xlink:title="returns the total recorded time in ms ">
<polygon fill="#ffffff" stroke="#000000" points="1063,-349 1063,-379 1221,-379 1221,-349 1063,-349"/>
<text text-anchor="start" x="1071" y="-367" font-family="Helvetica,sans-Serif" font-size="10.00" fill="#000000">SpikeMonitorCore::getRecording</text>
<text text-anchor="middle" x="1142" y="-356" font-family="Helvetica,sans-Serif" font-size="10.00" fill="#000000">TotalTime</text>
</a>
</g>
</g>
<!-- Node303&#45;&gt;Node309 -->
<g id="edge13" class="edge">
<title>Node303&#45;&gt;Node309</title>
<path fill="none" stroke="#191970" d="M613.5129,-259.5742C628.9749,-279.7978 668.2775,-326.5225 714,-345 824.2263,-389.545 963.6606,-385.8715 1052.8585,-376.8267"/>
<polygon fill="#191970" stroke="#191970" points="1053.3669,-380.2926 1062.943,-375.7595 1052.6302,-373.3314 1053.3669,-380.2926"/>
</g>
<!-- Node310 -->
<g id="node12" class="node">
<title>Node310</title>
<g id="a_node12"><a xlink:href="classSpikeMonitorCore.html#ae62d623e8edfc6b05309256c1d825bbd" target="_top" xlink:title="returns the recorded mean firing rate of the group ">
<polygon fill="#ffffff" stroke="#000000" points="888.5,-191 888.5,-221 1019.5,-221 1019.5,-191 888.5,-191"/>
<text text-anchor="start" x="896.5" y="-209" font-family="Helvetica,sans-Serif" font-size="10.00" fill="#000000">SpikeMonitorCore::getPop</text>
<text text-anchor="middle" x="954" y="-198" font-family="Helvetica,sans-Serif" font-size="10.00" fill="#000000">MeanFiringRate</text>
</a>
</g>
</g>
<!-- Node303&#45;&gt;Node310 -->
<g id="edge14" class="edge">
<title>Node303&#45;&gt;Node310</title>
<path fill="none" stroke="#191970" d="M666.1974,-242.1699C681.7566,-240.1443 698.5044,-237.9775 714,-236 768.9101,-228.9926 830.9099,-221.2469 878.137,-215.3815"/>
<polygon fill="#191970" stroke="#191970" points="878.793,-218.827 888.2857,-214.1218 877.9307,-211.8803 878.793,-218.827"/>
</g>
<!-- Node311 -->
<g id="node13" class="node">
<title>Node311</title>
<g id="a_node13"><a xlink:href="classSpikeMonitorCore.html#ad0c4b32bb5cc0c7a8d95ed6023a2695f" target="_top" xlink:title="computes the standard deviation of firing rates in the group ">
<polygon fill="#ffffff" stroke="#000000" points="714,-115 714,-145 845,-145 845,-115 714,-115"/>
<text text-anchor="start" x="722" y="-133" font-family="Helvetica,sans-Serif" font-size="10.00" fill="#000000">SpikeMonitorCore::getPop</text>
<text text-anchor="middle" x="779.5" y="-122" font-family="Helvetica,sans-Serif" font-size="10.00" fill="#000000">StdFiringRate</text>
</a>
</g>
</g>
<!-- Node303&#45;&gt;Node311 -->
<g id="edge18" class="edge">
<title>Node303&#45;&gt;Node311</title>
<path fill="none" stroke="#191970" d="M620.3649,-240.3827C648.2009,-221.0745 711.4531,-177.2001 749.2946,-150.9517"/>
<polygon fill="#191970" stroke="#191970" points="751.6525,-153.5758 757.8745,-145.0004 747.6628,-147.824 751.6525,-153.5758"/>
</g>
<!-- Node313 -->
<g id="node15" class="node">
<title>Node313</title>
<g id="a_node15"><a xlink:href="classSpikeMonitorCore.html#aed09edf4583ac05d42fccc7e3556e3c5" target="_top" xlink:title="returns the recorded mean firing rate for a specific neuron ">
<polygon fill="#ffffff" stroke="#000000" points="881,-393 881,-423 1027,-423 1027,-393 881,-393"/>
<text text-anchor="start" x="889" y="-411" font-family="Helvetica,sans-Serif" font-size="10.00" fill="#000000">SpikeMonitorCore::getNeuron</text>
<text text-anchor="middle" x="954" y="-400" font-family="Helvetica,sans-Serif" font-size="10.00" fill="#000000">MeanFiringRate</text>
</a>
</g>
</g>
<!-- Node303&#45;&gt;Node313 -->
<g id="edge23" class="edge">
<title>Node303&#45;&gt;Node313</title>
<path fill="none" stroke="#191970" d="M611.3776,-259.8309C624.2447,-284.5916 661.7437,-349.568 714,-378 761.607,-403.9023 822.216,-411.3118 870.6149,-412.2915"/>
<polygon fill="#191970" stroke="#191970" points="870.7089,-415.7927 880.7483,-412.4073 870.789,-408.7931 870.7089,-415.7927"/>
</g>
<!-- Node306&#45;&gt;Node302 -->
<g id="edge9" class="edge">
<title>Node306&#45;&gt;Node302</title>
<path fill="none" stroke="#191970" d="M1135.2266,-212.7709C1120.6276,-182.1 1082.929,-113.5566 1027,-87 829.3379,6.8552 747.7514,-53.8535 535,-105 503.7989,-112.5009 470.5206,-128.4973 448.4228,-140.3878"/>
<polygon fill="#191970" stroke="#191970" points="446.4653,-137.4698 439.39,-145.3559 449.8389,-143.6033 446.4653,-137.4698"/>
</g>
<!-- Node307 -->
<g id="node9" class="node">
<title>Node307</title>
<g id="a_node9"><a xlink:href="classSpikeMonitorCore.html#a005a2f884f6260054483d4fa6ed6ddbb" target="_top" xlink:title="returns the number of recorded spikes of a specific neuron ">
<polygon fill="#ffffff" stroke="#000000" points="1257,-314 1257,-344 1403,-344 1403,-314 1257,-314"/>
<text text-anchor="start" x="1265" y="-332" font-family="Helvetica,sans-Serif" font-size="10.00" fill="#000000">SpikeMonitorCore::getNeuron</text>
<text text-anchor="middle" x="1330" y="-321" font-family="Helvetica,sans-Serif" font-size="10.00" fill="#000000">NumSpikes</text>
</a>
</g>
</g>
<!-- Node306&#45;&gt;Node307 -->
<g id="edge10" class="edge">
<title>Node306&#45;&gt;Node307</title>
<path fill="none" stroke="#191970" d="M1170.1455,-243.1207C1202.774,-260.6499 1256.6764,-289.6081 1292.7529,-308.9896"/>
<polygon fill="#191970" stroke="#191970" points="1291.5039,-312.2917 1301.9695,-313.9411 1294.8168,-306.1252 1291.5039,-312.2917"/>
</g>
<!-- Node307&#45;&gt;Node302 -->
<g id="edge11" class="edge">
<title>Node307&#45;&gt;Node302</title>
<path fill="none" stroke="#191970" d="M1314.8056,-344.1218C1294.9377,-363.0372 1258.2581,-395.1083 1221,-413 1110.9038,-465.8694 1076.1325,-478 954,-478 779.5,-478 779.5,-478 779.5,-478 657.6572,-478 622.9996,-438.2719 535,-354 478.9915,-300.364 443.1842,-212.5088 429.407,-174.0434"/>
<polygon fill="#191970" stroke="#191970" points="432.7028,-172.8646 426.1069,-164.5733 426.0926,-175.1681 432.7028,-172.8646"/>
</g>
<!-- Node308 -->
<g id="node10" class="node">
<title>Node308</title>
<g id="a_node10"><a xlink:href="classSpikeMonitorCore.html#abe76071e1ac3632d55f2455b239b3d12" target="_top" xlink:title="returns recording mode ">
<polygon fill="#ffffff" stroke="#000000" points="1439,-98.5 1439,-117.5 1577,-117.5 1577,-98.5 1439,-98.5"/>
<text text-anchor="middle" x="1508" y="-105.5" font-family="Helvetica,sans-Serif" font-size="10.00" fill="#000000">SpikeMonitorCore::getMode</text>
</a>
</g>
</g>
<!-- Node307&#45;&gt;Node308 -->
<g id="edge12" class="edge">
<title>Node307&#45;&gt;Node308</title>
<path fill="none" stroke="#191970" d="M1342.2347,-313.8098C1374.0597,-274.2967 1459.3266,-168.4316 1493.5203,-125.9776"/>
<polygon fill="#191970" stroke="#191970" points="1496.4572,-127.911 1500.0041,-117.9275 1491.0055,-123.5201 1496.4572,-127.911"/>
</g>
<!-- Node310&#45;&gt;Node302 -->
<g id="edge15" class="edge">
<title>Node310&#45;&gt;Node302</title>
<path fill="none" stroke="#191970" d="M888.1062,-199.6712C792.4439,-190.4833 614.9969,-173.4404 509.099,-163.2694"/>
<polygon fill="#191970" stroke="#191970" points="509.3682,-159.7792 499.0794,-162.3071 508.6989,-166.7472 509.3682,-159.7792"/>
</g>
<!-- Node310&#45;&gt;Node306 -->
<g id="edge16" class="edge">
<title>Node310&#45;&gt;Node306</title>
<path fill="none" stroke="#191970" d="M1019.7533,-213.6945C1034.78,-215.453 1050.8685,-217.3357 1066.2756,-219.1386"/>
<polygon fill="#191970" stroke="#191970" points="1065.9448,-222.6237 1076.2838,-220.3098 1066.7585,-215.6712 1065.9448,-222.6237"/>
</g>
<!-- Node310&#45;&gt;Node309 -->
<g id="edge17" class="edge">
<title>Node310&#45;&gt;Node309</title>
<path fill="none" stroke="#191970" d="M972.0262,-221.1497C1005.5744,-249.3445 1077.6852,-309.9482 1116.3185,-342.4166"/>
<polygon fill="#191970" stroke="#191970" points="1114.121,-345.1417 1124.0283,-348.8962 1118.6247,-339.7829 1114.121,-345.1417"/>
</g>
<!-- Node311&#45;&gt;Node302 -->
<g id="edge19" class="edge">
<title>Node311&#45;&gt;Node302</title>
<path fill="none" stroke="#191970" d="M713.7554,-134.6104C656.2333,-138.6442 572.2727,-144.5321 509.3465,-148.9448"/>
<polygon fill="#191970" stroke="#191970" points="508.7716,-145.4765 499.0409,-149.6675 509.2613,-152.4593 508.7716,-145.4765"/>
</g>
<!-- Node311&#45;&gt;Node310 -->
<g id="edge20" class="edge">
<title>Node311&#45;&gt;Node310</title>
<path fill="none" stroke="#191970" d="M813.9756,-145.0152C841.4907,-156.9988 880.2221,-173.8675 909.9779,-186.827"/>
<polygon fill="#191970" stroke="#191970" points="908.7321,-190.1019 919.2978,-190.8862 911.5272,-183.6842 908.7321,-190.1019"/>
</g>
<!-- Node312 -->
<g id="node14" class="node">
<title>Node312</title>
<g id="a_node14"><a xlink:href="classSpikeMonitorCore.html#a0fc20fcc5876030d796debd148ae7cee" target="_top" xlink:title="returns a list of firing rates for all neurons in the group (sorted by neuron ID ascending) ...">
<polygon fill="#ffffff" stroke="#000000" points="891.5,-96 891.5,-126 1016.5,-126 1016.5,-96 891.5,-96"/>
<text text-anchor="start" x="899.5" y="-114" font-family="Helvetica,sans-Serif" font-size="10.00" fill="#000000">SpikeMonitorCore::getAll</text>
<text text-anchor="middle" x="954" y="-103" font-family="Helvetica,sans-Serif" font-size="10.00" fill="#000000">FiringRates</text>
</a>
</g>
</g>
<!-- Node311&#45;&gt;Node312 -->
<g id="edge21" class="edge">
<title>Node311&#45;&gt;Node312</title>
<path fill="none" stroke="#191970" d="M845.471,-122.8169C857.116,-121.549 869.2997,-120.2224 881.1214,-118.9352"/>
<polygon fill="#191970" stroke="#191970" points="881.832,-122.3786 891.3943,-117.8167 881.0742,-115.4197 881.832,-122.3786"/>
</g>
<!-- Node312&#45;&gt;Node302 -->
<g id="edge22" class="edge">
<title>Node312&#45;&gt;Node302</title>
<path fill="none" stroke="#191970" d="M891.4774,-107.6393C876.2729,-106.9581 860.0561,-106.3451 845,-106 786.7931,-104.6657 772.0592,-101.6459 714,-106 633.7698,-112.0168 614.2706,-119.2429 535,-133 516.8021,-136.1582 497.0086,-139.933 479.1938,-143.4567"/>
<polygon fill="#191970" stroke="#191970" points="478.0836,-140.1091 468.9604,-145.4959 479.4516,-146.9741 478.0836,-140.1091"/>
</g>
<!-- Node313&#45;&gt;Node302 -->
<g id="edge24" class="edge">
<title>Node313&#45;&gt;Node302</title>
<path fill="none" stroke="#191970" d="M880.8395,-420.0807C832.2273,-425.2173 767.7051,-426.4034 714,-408 581.6454,-362.6454 471.4504,-222.7268 435.4442,-172.8712"/>
<polygon fill="#191970" stroke="#191970" points="438.2456,-170.7713 429.5957,-164.6533 432.5424,-174.8301 438.2456,-170.7713"/>
</g>
<!-- Node313&#45;&gt;Node307 -->
<g id="edge25" class="edge">
<title>Node313&#45;&gt;Node307</title>
<path fill="none" stroke="#191970" d="M1027.1733,-411.1643C1081.689,-411.5292 1157.3777,-407.7862 1221,-389 1249.8224,-380.4894 1279.51,-363.5084 1300.6098,-349.7771"/>
<polygon fill="#191970" stroke="#191970" points="1302.7147,-352.5805 1309.0992,-344.1254 1298.8356,-346.7536 1302.7147,-352.5805"/>
</g>
<!-- Node313&#45;&gt;Node309 -->
<g id="edge26" class="edge">
<title>Node313&#45;&gt;Node309</title>
<path fill="none" stroke="#191970" d="M1018.1731,-392.9808C1034.1172,-389.2492 1051.3385,-385.2186 1067.7227,-381.384"/>
<polygon fill="#191970" stroke="#191970" points="1068.8579,-384.713 1077.7971,-379.0262 1067.2626,-377.8972 1068.8579,-384.713"/>
</g>
<!-- Node314&#45;&gt;Node302 -->
<g id="edge28" class="edge">
<title>Node314&#45;&gt;Node302</title>
<path fill="none" stroke="#191970" d="M591.2992,-19.5979C576.1247,-25.0941 552.5934,-31.6255 535,-43 494.7892,-68.9972 459.3078,-112.6828 439.5438,-137.3298"/>
<polygon fill="#191970" stroke="#191970" points="436.7608,-135.2056 433.2265,-145.1936 442.2179,-139.5896 436.7608,-135.2056"/>
</g>
<!-- Node314&#45;&gt;Node308 -->
<g id="edge29" class="edge">
<title>Node314&#45;&gt;Node308</title>
<path fill="none" stroke="#191970" d="M678.0446,-10C748.3016,-10 858.528,-10 954,-10 954,-10 954,-10 1142,-10 1270.6726,-10 1416.3973,-67.2176 1477.989,-94.2126"/>
<polygon fill="#191970" stroke="#191970" points="1476.9159,-97.5655 1487.4758,-98.4249 1479.7566,-91.1678 1476.9159,-97.5655"/>
</g>
</g>
</svg>
