<?xml version="1.0" encoding="UTF-8" standalone="no"?>
<!DOCTYPE svg PUBLIC "-//W3C//DTD SVG 1.1//EN"
 "http://www.w3.org/Graphics/SVG/1.1/DTD/svg11.dtd">
<!-- Generated by graphviz version 2.40.1 (20161225.0304)
 -->
<!-- Title: isRecording Pages: 1 -->
<!--zoomable 826 -->
<svg id="main" version="1.1" xmlns="http://www.w3.org/2000/svg" xmlns:xlink="http://www.w3.org/1999/xlink" xml:space="preserve" onload="init(evt)">
<style type="text/css"><![CDATA[
.edge:hover path { stroke: red; }
.edge:hover polygon { stroke: red; fill: red; }
]]></style>
<script type="text/javascript"><![CDATA[
var edges = document.getElementsByTagName('g');
if (edges && edges.length) {
  for (var i=0;i<edges.length;i++) {
    if (edges[i].id.substr(0,4)=='edge') {
      edges[i].setAttribute('class','edge');
    }
  }
}
]]></script>
        <defs>
                <circle id="rim" cx="0" cy="0" r="7"/>
                <circle id="rim2" cx="0" cy="0" r="3.5"/>
                <g id="zoomPlus">
                        <use xlink:href="#rim" fill="#404040">
                                <set attributeName="fill" to="#808080" begin="zoomplus.mouseover" end="zoomplus.mouseout"/>
                        </use>
                        <path d="M-4,0h8M0,-4v8" fill="none" stroke="white" stroke-width="1.5" pointer-events="none"/>
                </g>
                <g id="zoomMin">
                        <use xlink:href="#rim" fill="#404040">
                                <set attributeName="fill" to="#808080" begin="zoomminus.mouseover" end="zoomminus.mouseout"/>
                        </use>
                        <path d="M-4,0h8" fill="none" stroke="white" stroke-width="1.5" pointer-events="none"/>
                </g>
                <g id="dirArrow">
                        <path fill="none" stroke="white" stroke-width="1.5" d="M0,-3.0v7 M-2.5,-0.5L0,-3.0L2.5,-0.5"/>
                </g>
               <g id="resetDef">
                       <use xlink:href="#rim2" fill="#404040">
                               <set attributeName="fill" to="#808080" begin="reset.mouseover" end="reset.mouseout"/>
                       </use>
               </g>
        </defs>

<script type="text/javascript">
var viewWidth = 566;
var viewHeight = 826;
var sectionId = 'dynsection-24';
</script>
<script xlink:href="svgpan.js"/>
<svg id="graph" class="graph">
<g id="viewport">
<title>isRecording</title>
<polygon fill="#ffffff" stroke="transparent" points="-4,4 -4,-822 562,-822 562,4 -4,4"/>
<!-- Node386 -->
<g id="node1" class="node">
<title>Node386</title>
<polygon fill="#bfbfbf" stroke="#000000" points="0,-399.5 0,-418.5 68,-418.5 68,-399.5 0,-399.5"/>
<text text-anchor="middle" x="34" y="-406.5" font-family="Helvetica,sans-Serif" font-size="10.00" fill="#000000">isRecording</text>
</g>
<!-- Node387 -->
<g id="node2" class="node">
<title>Node387</title>
<g id="a_node2"><a xlink:href="classSpikeMonitor.html#ac8bb3912a3ce86b15842e79d0b421204" target="_top" xlink:title="Truncates the 2D spike vector. ">
<polygon fill="#ffffff" stroke="#000000" points="168,-798.5 168,-817.5 206,-817.5 206,-798.5 168,-798.5"/>
<text text-anchor="middle" x="187" y="-805.5" font-family="Helvetica,sans-Serif" font-size="10.00" fill="#000000">clear</text>
</a>
</g>
</g>
<!-- Node386&#45;&gt;Node387 -->
<g id="edge1" class="edge">
<title>Node386&#45;&gt;Node387</title>
<path fill="none" stroke="#191970" d="M34.854,-428.7238C38.3062,-499.0814 53.5565,-736.3463 104,-789 120.4644,-806.1858 149.0481,-809.27 167.9952,-809.1924"/>
<polygon fill="#191970" stroke="#191970" points="38.3434,-428.4126 34.3831,-418.5858 31.351,-428.7374 38.3434,-428.4126"/>
</g>
<!-- Node388 -->
<g id="node3" class="node">
<title>Node388</title>
<g id="a_node3"><a xlink:href="classSpikeMonitor.html#ae62d623e8edfc6b05309256c1d825bbd" target="_top" xlink:title="Returns the mean firing rate of the entire neuronal population. ">
<polygon fill="#ffffff" stroke="#000000" points="129,-760.5 129,-779.5 245,-779.5 245,-760.5 129,-760.5"/>
<text text-anchor="middle" x="187" y="-767.5" font-family="Helvetica,sans-Serif" font-size="10.00" fill="#000000">getPopMeanFiringRate</text>
</a>
</g>
</g>
<!-- Node386&#45;&gt;Node388 -->
<g id="edge2" class="edge">
<title>Node386&#45;&gt;Node388</title>
<path fill="none" stroke="#191970" d="M35.302,-428.8423C40.027,-494.6807 58.4491,-704.3823 104,-751 110.8185,-757.9782 119.638,-762.6212 128.9736,-765.6692"/>
<polygon fill="#191970" stroke="#191970" points="38.7758,-428.341 34.5961,-418.6055 31.7924,-428.8226 38.7758,-428.341"/>
</g>
<!-- Node391 -->
<g id="node6" class="node">
<title>Node391</title>
<g id="a_node6"><a xlink:href="classSpikeMonitor.html#ad0c4b32bb5cc0c7a8d95ed6023a2695f" target="_top" xlink:title="Returns the standard deviation of firing rates in the entire neuronal population. ...">
<polygon fill="#ffffff" stroke="#000000" points="133.5,-722.5 133.5,-741.5 240.5,-741.5 240.5,-722.5 133.5,-722.5"/>
<text text-anchor="middle" x="187" y="-729.5" font-family="Helvetica,sans-Serif" font-size="10.00" fill="#000000">getPopStdFiringRate</text>
</a>
</g>
</g>
<!-- Node386&#45;&gt;Node391 -->
<g id="edge5" class="edge">
<title>Node386&#45;&gt;Node391</title>
<path fill="none" stroke="#191970" d="M35.8655,-428.9854C41.9679,-490.0312 63.3195,-672.3716 104,-713 111.9492,-720.939 122.4937,-725.8388 133.392,-728.8042"/>
<polygon fill="#191970" stroke="#191970" points="39.3233,-428.3798 34.8746,-418.7642 32.356,-429.0553 39.3233,-428.3798"/>
</g>
<!-- Node392 -->
<g id="node7" class="node">
<title>Node392</title>
<g id="a_node7"><a xlink:href="classSpikeMonitor.html#af6c333e6cefff92d0e354eca70625cdc" target="_top" xlink:title="Returns the total number of spikes in the group. ">
<polygon fill="#ffffff" stroke="#000000" points="138,-684.5 138,-703.5 236,-703.5 236,-684.5 138,-684.5"/>
<text text-anchor="middle" x="187" y="-691.5" font-family="Helvetica,sans-Serif" font-size="10.00" fill="#000000">getPopNumSpikes</text>
</a>
</g>
</g>
<!-- Node386&#45;&gt;Node392 -->
<g id="edge6" class="edge">
<title>Node386&#45;&gt;Node392</title>
<path fill="none" stroke="#191970" d="M36.5258,-428.6468C44.0507,-484.1232 68.0527,-640.1949 104,-675 113.1333,-683.8431 125.4971,-688.889 137.8901,-691.6909"/>
<polygon fill="#191970" stroke="#191970" points="39.9893,-428.1397 35.2067,-418.6858 33.0499,-429.0588 39.9893,-428.1397"/>
</g>
<!-- Node393 -->
<g id="node8" class="node">
<title>Node393</title>
<g id="a_node8"><a xlink:href="classSpikeMonitor.html#ab245e956a782d7d5fc8dc4257d94ecfa" target="_top" xlink:title="returns the largest neuronal mean firing rate in the group ">
<polygon fill="#ffffff" stroke="#000000" points="140,-646.5 140,-665.5 234,-665.5 234,-646.5 140,-646.5"/>
<text text-anchor="middle" x="187" y="-653.5" font-family="Helvetica,sans-Serif" font-size="10.00" fill="#000000">getMaxFiringRate</text>
</a>
</g>
</g>
<!-- Node386&#45;&gt;Node393 -->
<g id="edge7" class="edge">
<title>Node386&#45;&gt;Node393</title>
<path fill="none" stroke="#191970" d="M37.4605,-428.7397C46.6015,-478.6603 72.8412,-608.0321 104,-637 113.7438,-646.0587 126.895,-651.0963 139.8534,-653.8206"/>
<polygon fill="#191970" stroke="#191970" points="40.8531,-427.8296 35.6414,-418.6053 33.9632,-429.0664 40.8531,-427.8296"/>
</g>
<!-- Node394 -->
<g id="node9" class="node">
<title>Node394</title>
<g id="a_node9"><a xlink:href="classSpikeMonitor.html#a30bedc8503ea2e68ce042291f25fd0f8" target="_top" xlink:title="returns the smallest neuronal mean firing rate in the group ">
<polygon fill="#ffffff" stroke="#000000" points="141.5,-608.5 141.5,-627.5 232.5,-627.5 232.5,-608.5 141.5,-608.5"/>
<text text-anchor="middle" x="187" y="-615.5" font-family="Helvetica,sans-Serif" font-size="10.00" fill="#000000">getMinFiringRate</text>
</a>
</g>
</g>
<!-- Node386&#45;&gt;Node394 -->
<g id="edge8" class="edge">
<title>Node386&#45;&gt;Node394</title>
<path fill="none" stroke="#191970" d="M35.2745,-428.6457C38.8873,-467.3844 52.5883,-553.7789 104,-599 114.3227,-608.0797 128.0991,-613.0699 141.4575,-615.7437"/>
<polygon fill="#191970" stroke="#191970" points="38.7614,-428.3404 34.473,-418.6523 31.7838,-428.9001 38.7614,-428.3404"/>
</g>
<!-- Node395 -->
<g id="node10" class="node">
<title>Node395</title>
<g id="a_node10"><a xlink:href="classSpikeMonitor.html#a0fc20fcc5876030d796debd148ae7cee" target="_top" xlink:title="Returns the average firing rate of all the neurons in the group as a vector of floats. ">
<polygon fill="#ffffff" stroke="#000000" points="141,-570.5 141,-589.5 233,-589.5 233,-570.5 141,-570.5"/>
<text text-anchor="middle" x="187" y="-577.5" font-family="Helvetica,sans-Serif" font-size="10.00" fill="#000000">getAllFiringRates</text>
</a>
</g>
</g>
<!-- Node386&#45;&gt;Node395 -->
<g id="edge9" class="edge">
<title>Node386&#45;&gt;Node395</title>
<path fill="none" stroke="#191970" d="M37.3282,-428.7323C43.9242,-461.4615 61.8381,-526.7564 104,-561 114.3271,-569.3876 127.6515,-574.226 140.5893,-576.9741"/>
<polygon fill="#191970" stroke="#191970" points="40.7165,-427.8088 35.4459,-418.618 33.8347,-429.0896 40.7165,-427.8088"/>
</g>
<!-- Node396 -->
<g id="node11" class="node">
<title>Node396</title>
<g id="a_node11"><a xlink:href="classSpikeMonitor.html#aed09edf4583ac05d42fccc7e3556e3c5" target="_top" xlink:title="returns the mean firing rate of a specific neuron in the group ">
<polygon fill="#ffffff" stroke="#000000" points="121.5,-532.5 121.5,-551.5 252.5,-551.5 252.5,-532.5 121.5,-532.5"/>
<text text-anchor="middle" x="187" y="-539.5" font-family="Helvetica,sans-Serif" font-size="10.00" fill="#000000">getNeuronMeanFiringRate</text>
</a>
</g>
</g>
<!-- Node386&#45;&gt;Node396 -->
<g id="edge10" class="edge">
<title>Node386&#45;&gt;Node396</title>
<path fill="none" stroke="#191970" d="M40.5274,-428.5121C50.1892,-454.2834 70.8169,-499.1808 104,-523 109.404,-526.8791 115.4728,-529.9815 121.8057,-532.4604"/>
<polygon fill="#191970" stroke="#191970" points="43.705,-427.002 37.0534,-418.7555 37.1106,-429.3501 43.705,-427.002"/>
</g>
<!-- Node397 -->
<g id="node12" class="node">
<title>Node397</title>
<g id="a_node12"><a xlink:href="classSpikeMonitor.html#a005a2f884f6260054483d4fa6ed6ddbb" target="_top" xlink:title="returns the total number of spikes of a specific neuron in the group ">
<polygon fill="#ffffff" stroke="#000000" points="130.5,-494.5 130.5,-513.5 243.5,-513.5 243.5,-494.5 130.5,-494.5"/>
<text text-anchor="middle" x="187" y="-501.5" font-family="Helvetica,sans-Serif" font-size="10.00" fill="#000000">getNeuronNumSpikes</text>
</a>
</g>
</g>
<!-- Node386&#45;&gt;Node397 -->
<g id="edge11" class="edge">
<title>Node386&#45;&gt;Node397</title>
<path fill="none" stroke="#191970" d="M45.6536,-426.9393C58.0127,-444.4788 79.1604,-470.5874 104,-485 112.0552,-489.6738 121.1724,-493.198 130.341,-495.8552"/>
<polygon fill="#191970" stroke="#191970" points="48.5372,-424.9554 40.0188,-418.6557 42.7494,-428.8926 48.5372,-424.9554"/>
</g>
<!-- Node398 -->
<g id="node13" class="node">
<title>Node398</title>
<g id="a_node13"><a xlink:href="classSpikeMonitor.html#a81857cacf011acddd1791775c34ae4fb" target="_top" xlink:title="Returns the number of neurons that fall within this particular min/max range (inclusive). ">
<polygon fill="#ffffff" stroke="#000000" points="110.5,-456.5 110.5,-475.5 263.5,-475.5 263.5,-456.5 110.5,-456.5"/>
<text text-anchor="middle" x="187" y="-463.5" font-family="Helvetica,sans-Serif" font-size="10.00" fill="#000000">getNumNeuronsWithFiringRate</text>
</a>
</g>
</g>
<!-- Node386&#45;&gt;Node398 -->
<g id="edge12" class="edge">
<title>Node386&#45;&gt;Node398</title>
<path fill="none" stroke="#191970" d="M57.6147,-423.9207C70.8367,-431.7289 87.8657,-440.9051 104,-447 113.9566,-450.7612 124.8781,-453.9097 135.4341,-456.4926"/>
<polygon fill="#191970" stroke="#191970" points="59.0944,-420.7251 48.7272,-418.5405 55.4693,-426.7133 59.0944,-420.7251"/>
</g>
<!-- Node399 -->
<g id="node14" class="node">
<title>Node399</title>
<g id="a_node14"><a xlink:href="classSpikeMonitor.html#ad8dc4f8eb304b0bcbeaf80076f892b72" target="_top" xlink:title="returns the percentage of total neurons in that are in the range specified by the user...">
<polygon fill="#ffffff" stroke="#000000" points="104,-418.5 104,-437.5 270,-437.5 270,-418.5 104,-418.5"/>
<text text-anchor="middle" x="187" y="-425.5" font-family="Helvetica,sans-Serif" font-size="10.00" fill="#000000">getPercentNeuronsWithFiringRate</text>
</a>
</g>
</g>
<!-- Node386&#45;&gt;Node399 -->
<g id="edge13" class="edge">
<title>Node386&#45;&gt;Node399</title>
<path fill="none" stroke="#191970" d="M78.4115,-414.5152C88.4269,-415.7589 99.3384,-417.1139 110.2566,-418.4698"/>
<polygon fill="#191970" stroke="#191970" points="78.6913,-411.0231 68.3362,-413.264 77.8286,-417.9697 78.6913,-411.0231"/>
</g>
<!-- Node400 -->
<g id="node15" class="node">
<title>Node400</title>
<g id="a_node15"><a xlink:href="classSpikeMonitor.html#a576be2fdd29d7b433d7c3645cb9f3b1f" target="_top" xlink:title="returns the number of neurons that are silent. ">
<polygon fill="#ffffff" stroke="#000000" points="130.5,-380.5 130.5,-399.5 243.5,-399.5 243.5,-380.5 130.5,-380.5"/>
<text text-anchor="middle" x="187" y="-387.5" font-family="Helvetica,sans-Serif" font-size="10.00" fill="#000000">getNumSilentNeurons</text>
</a>
</g>
</g>
<!-- Node386&#45;&gt;Node400 -->
<g id="edge14" class="edge">
<title>Node386&#45;&gt;Node400</title>
<path fill="none" stroke="#191970" d="M78.5787,-403.4641C94.7313,-401.4582 113.1977,-399.165 130.2569,-397.0465"/>
<polygon fill="#191970" stroke="#191970" points="77.8286,-400.0303 68.3362,-404.736 78.6913,-406.9769 77.8286,-400.0303"/>
</g>
<!-- Node401 -->
<g id="node16" class="node">
<title>Node401</title>
<g id="a_node16"><a xlink:href="classSpikeMonitor.html#abcba6b94670385ff0bb843586d87ecb3" target="_top" xlink:title="returns the percentage of total neurons in group that are silent. ">
<polygon fill="#ffffff" stroke="#000000" points="124.5,-342.5 124.5,-361.5 249.5,-361.5 249.5,-342.5 124.5,-342.5"/>
<text text-anchor="middle" x="187" y="-349.5" font-family="Helvetica,sans-Serif" font-size="10.00" fill="#000000">getPercentSilentNeurons</text>
</a>
</g>
</g>
<!-- Node386&#45;&gt;Node401 -->
<g id="edge15" class="edge">
<title>Node386&#45;&gt;Node401</title>
<path fill="none" stroke="#191970" d="M57.6147,-394.0793C70.8367,-386.2711 87.8657,-377.0949 104,-371 113.9566,-367.2388 124.8781,-364.0903 135.4341,-361.5074"/>
<polygon fill="#191970" stroke="#191970" points="55.4693,-391.2867 48.7272,-399.4595 59.0944,-397.2749 55.4693,-391.2867"/>
</g>
<!-- Node402 -->
<g id="node17" class="node">
<title>Node402</title>
<g id="a_node17"><a xlink:href="classSpikeMonitor.html#a64ccdac1d5dacee8b6e45e8a2a9fc40b" target="_top" xlink:title="returns the 2D spike vector ">
<polygon fill="#ffffff" stroke="#000000" points="139,-304.5 139,-323.5 235,-323.5 235,-304.5 139,-304.5"/>
<text text-anchor="middle" x="187" y="-311.5" font-family="Helvetica,sans-Serif" font-size="10.00" fill="#000000">getSpikeVector2D</text>
</a>
</g>
</g>
<!-- Node386&#45;&gt;Node402 -->
<g id="edge16" class="edge">
<title>Node386&#45;&gt;Node402</title>
<path fill="none" stroke="#191970" d="M45.6536,-391.0607C58.0127,-373.5212 79.1604,-347.4126 104,-333 114.4845,-326.9166 126.7682,-322.7809 138.6228,-319.9695"/>
<polygon fill="#191970" stroke="#191970" points="42.7494,-389.1074 40.0188,-399.3443 48.5372,-393.0446 42.7494,-389.1074"/>
</g>
<!-- Node403 -->
<g id="node18" class="node">
<title>Node403</title>
<g id="a_node18"><a xlink:href="classSpikeMonitor.html#ac0d8bd3f92fa0eae87b37f9245e0e13a" target="_top" xlink:title="Returns all the neuronal mean firing rates in ascending order. ">
<polygon fill="#ffffff" stroke="#000000" points="127,-266.5 127,-285.5 247,-285.5 247,-266.5 127,-266.5"/>
<text text-anchor="middle" x="187" y="-273.5" font-family="Helvetica,sans-Serif" font-size="10.00" fill="#000000">getAllFiringRatesSorted</text>
</a>
</g>
</g>
<!-- Node386&#45;&gt;Node403 -->
<g id="edge17" class="edge">
<title>Node386&#45;&gt;Node403</title>
<path fill="none" stroke="#191970" d="M40.5274,-389.4879C50.1892,-363.7166 70.8169,-318.8192 104,-295 110.8451,-290.0865 118.7568,-286.4191 126.9207,-283.6865"/>
<polygon fill="#191970" stroke="#191970" points="37.1106,-388.6499 37.0534,-399.2445 43.705,-390.998 37.1106,-388.6499"/>
</g>
<!-- Node404 -->
<g id="node19" class="node">
<title>Node404</title>
<g id="a_node19"><a xlink:href="classSpikeMonitor.html#aa1bdcf4ac22267e52bcb8c3cba660c84" target="_top" xlink:title="prints the 2D spike vector. ">
<polygon fill="#ffffff" stroke="#000000" points="169.5,-228.5 169.5,-247.5 204.5,-247.5 204.5,-228.5 169.5,-228.5"/>
<text text-anchor="middle" x="187" y="-235.5" font-family="Helvetica,sans-Serif" font-size="10.00" fill="#000000">print</text>
</a>
</g>
</g>
<!-- Node386&#45;&gt;Node404 -->
<g id="edge18" class="edge">
<title>Node386&#45;&gt;Node404</title>
<path fill="none" stroke="#191970" d="M37.3282,-389.2677C43.9242,-356.5385 61.8381,-291.2436 104,-257 122.5889,-241.9023 150.8887,-238.304 169.1651,-237.6971"/>
<polygon fill="#191970" stroke="#191970" points="33.8347,-388.9104 35.4459,-399.382 40.7165,-390.1912 33.8347,-388.9104"/>
</g>
<!-- Node405 -->
<g id="node20" class="node">
<title>Node405</title>
<g id="a_node20"><a xlink:href="classSpikeMonitor.html#ab91616c118b701c2afd9136393d1f19b" target="_top" xlink:title="Starts a new recording period. ">
<polygon fill="#ffffff" stroke="#000000" points="147,-190.5 147,-209.5 227,-209.5 227,-190.5 147,-190.5"/>
<text text-anchor="middle" x="187" y="-197.5" font-family="Helvetica,sans-Serif" font-size="10.00" fill="#000000">startRecording</text>
</a>
</g>
</g>
<!-- Node386&#45;&gt;Node405 -->
<g id="edge19" class="edge">
<title>Node386&#45;&gt;Node405</title>
<path fill="none" stroke="#191970" d="M35.2745,-389.3543C38.8873,-350.6156 52.5883,-264.2211 104,-219 115.6546,-208.7487 131.7118,-203.7104 146.5993,-201.3333"/>
<polygon fill="#191970" stroke="#191970" points="31.7838,-389.0999 34.473,-399.3477 38.7614,-389.6596 31.7838,-389.0999"/>
</g>
<!-- Node406 -->
<g id="node21" class="node">
<title>Node406</title>
<g id="a_node21"><a xlink:href="classSpikeMonitor.html#a25e0e98dd4519eaaa6b258f0dcb91ac7" target="_top" xlink:title="Ends a recording period. ">
<polygon fill="#ffffff" stroke="#000000" points="147,-152.5 147,-171.5 227,-171.5 227,-152.5 147,-152.5"/>
<text text-anchor="middle" x="187" y="-159.5" font-family="Helvetica,sans-Serif" font-size="10.00" fill="#000000">stopRecording</text>
</a>
</g>
</g>
<!-- Node386&#45;&gt;Node406 -->
<g id="edge21" class="edge">
<title>Node386&#45;&gt;Node406</title>
<path fill="none" stroke="#191970" d="M37.4605,-389.2603C46.6015,-339.3397 72.8412,-209.9679 104,-181 115.4761,-170.3309 131.6787,-165.2396 146.7261,-162.9362"/>
<polygon fill="#191970" stroke="#191970" points="33.9632,-388.9336 35.6414,-399.3947 40.8531,-390.1704 33.9632,-388.9336"/>
</g>
<!-- Node407 -->
<g id="node22" class="node">
<title>Node407</title>
<g id="a_node22"><a xlink:href="classSpikeMonitor.html#a9cf20c30ff0efdbc5e3c5194648a7fb3" target="_top" xlink:title="Returns the total recording time (ms) ">
<polygon fill="#ffffff" stroke="#000000" points="128,-114.5 128,-133.5 246,-133.5 246,-114.5 128,-114.5"/>
<text text-anchor="middle" x="187" y="-121.5" font-family="Helvetica,sans-Serif" font-size="10.00" fill="#000000">getRecordingTotalTime</text>
</a>
</g>
</g>
<!-- Node386&#45;&gt;Node407 -->
<g id="edge23" class="edge">
<title>Node386&#45;&gt;Node407</title>
<path fill="none" stroke="#191970" d="M36.5258,-389.3532C44.0507,-333.8768 68.0527,-177.8051 104,-143 110.5845,-136.6247 118.848,-132.2231 127.5909,-129.2129"/>
<polygon fill="#191970" stroke="#191970" points="33.0499,-388.9412 35.2067,-399.3142 39.9893,-389.8603 33.0499,-388.9412"/>
</g>
<!-- Node408 -->
<g id="node23" class="node">
<title>Node408</title>
<g id="a_node23"><a xlink:href="classSpikeMonitor.html#a14818da15db1d5686bdbdf82a66f4cd7" target="_top" xlink:title="Returns the simulation time (ms) of the last call to startRecording() ">
<polygon fill="#ffffff" stroke="#000000" points="119,-76.5 119,-95.5 255,-95.5 255,-76.5 119,-76.5"/>
<text text-anchor="middle" x="187" y="-83.5" font-family="Helvetica,sans-Serif" font-size="10.00" fill="#000000">getRecordingLastStartTime</text>
</a>
</g>
</g>
<!-- Node386&#45;&gt;Node408 -->
<g id="edge24" class="edge">
<title>Node386&#45;&gt;Node408</title>
<path fill="none" stroke="#191970" d="M35.8655,-389.0146C41.9679,-327.9688 63.3195,-145.6284 104,-105 108.2884,-100.7171 113.3321,-97.3187 118.7792,-94.6314"/>
<polygon fill="#191970" stroke="#191970" points="32.356,-388.9447 34.8746,-399.2358 39.3233,-389.6202 32.356,-388.9447"/>
</g>
<!-- Node409 -->
<g id="node24" class="node">
<title>Node409</title>
<g id="a_node24"><a xlink:href="classSpikeMonitor.html#ac6adcc8c66fe2f54f06578f4b6d6b331" target="_top" xlink:title="Returns the simulation time (ms) of the first call to startRecording() ">
<polygon fill="#ffffff" stroke="#000000" points="128.5,-38.5 128.5,-57.5 245.5,-57.5 245.5,-38.5 128.5,-38.5"/>
<text text-anchor="middle" x="187" y="-45.5" font-family="Helvetica,sans-Serif" font-size="10.00" fill="#000000">getRecordingStartTime</text>
</a>
</g>
</g>
<!-- Node386&#45;&gt;Node409 -->
<g id="edge25" class="edge">
<title>Node386&#45;&gt;Node409</title>
<path fill="none" stroke="#191970" d="M35.302,-389.1577C40.027,-323.3193 58.4491,-113.6177 104,-67 110.6119,-60.2332 119.1053,-55.6624 128.1263,-52.6124"/>
<polygon fill="#191970" stroke="#191970" points="31.7924,-389.1774 34.5961,-399.3945 38.7758,-389.659 31.7924,-389.1774"/>
</g>
<!-- Node410 -->
<g id="node25" class="node">
<title>Node410</title>
<g id="a_node25"><a xlink:href="classSpikeMonitor.html#a4c576b7fb37addf9ed35d3f0cae56836" target="_top" xlink:title="Returns the simulation time (ms) of the last call to stopRecording() ">
<polygon fill="#ffffff" stroke="#000000" points="129,-.5 129,-19.5 245,-19.5 245,-.5 129,-.5"/>
<text text-anchor="middle" x="187" y="-7.5" font-family="Helvetica,sans-Serif" font-size="10.00" fill="#000000">getRecordingStopTime</text>
</a>
</g>
</g>
<!-- Node386&#45;&gt;Node410 -->
<g id="edge26" class="edge">
<title>Node386&#45;&gt;Node410</title>
<path fill="none" stroke="#191970" d="M34.854,-389.2762C38.3062,-318.9186 53.5565,-81.6537 104,-29 110.7494,-21.9549 119.5354,-17.2795 128.8593,-14.2203"/>
<polygon fill="#191970" stroke="#191970" points="31.351,-389.2626 34.3831,-399.4142 38.3434,-389.5874 31.351,-389.2626"/>
</g>
<!-- Node389 -->
<g id="node4" class="node">
<title>Node389</title>
<g id="a_node4"><a xlink:href="classSimpleWeightTuner_1_1Impl.html#a312d84bfa66a5036bb52a4c39db6fa6c" target="_top" xlink:title="SimpleWeightTuner::\lImpl::iterate">
<polygon fill="#ffffff" stroke="#000000" points="306,-185 306,-215 414,-215 414,-185 306,-185"/>
<text text-anchor="start" x="314" y="-203" font-family="Helvetica,sans-Serif" font-size="10.00" fill="#000000">SimpleWeightTuner::</text>
<text text-anchor="middle" x="360" y="-192" font-family="Helvetica,sans-Serif" font-size="10.00" fill="#000000">Impl::iterate</text>
</a>
</g>
</g>
<!-- Node388&#45;&gt;Node389 -->
<g id="edge3" class="edge">
<title>Node388&#45;&gt;Node389</title>
<path fill="none" stroke="#191970" d="M254.6019,-762.1138C260.3425,-759.3003 265.6178,-755.668 270,-751 345.7115,-670.3514 357.9598,-295.4963 359.7256,-215.1766"/>
<polygon fill="#191970" stroke="#191970" points="253.2176,-758.8981 245.2592,-765.8921 255.842,-765.3876 253.2176,-758.8981"/>
</g>
<!-- Node390 -->
<g id="node5" class="node">
<title>Node390</title>
<g id="a_node5"><a xlink:href="classSimpleWeightTuner.html#a0df985e3ff7a27edc1e2e3fcc8261843" target="_top" xlink:title="Performs an iteration step of the tuning algorithm. ">
<polygon fill="#ffffff" stroke="#000000" points="450,-185 450,-215 558,-215 558,-185 450,-185"/>
<text text-anchor="start" x="458" y="-203" font-family="Helvetica,sans-Serif" font-size="10.00" fill="#000000">SimpleWeightTuner::</text>
<text text-anchor="middle" x="504" y="-192" font-family="Helvetica,sans-Serif" font-size="10.00" fill="#000000">iterate</text>
</a>
</g>
</g>
<!-- Node389&#45;&gt;Node390 -->
<g id="edge4" class="edge">
<title>Node389&#45;&gt;Node390</title>
<path fill="none" stroke="#191970" d="M424.2702,-200C432.7504,-200 441.3754,-200 449.6672,-200"/>
<polygon fill="#191970" stroke="#191970" points="424.03,-196.5001 414.03,-200 424.0299,-203.5001 424.03,-196.5001"/>
</g>
<!-- Node405&#45;&gt;Node389 -->
<g id="edge20" class="edge">
<title>Node405&#45;&gt;Node389</title>
<path fill="none" stroke="#191970" d="M237.3284,-200C258.7665,-200 283.8201,-200 305.6771,-200"/>
<polygon fill="#191970" stroke="#191970" points="237.1245,-196.5001 227.1245,-200 237.1245,-203.5001 237.1245,-196.5001"/>
</g>
<!-- Node406&#45;&gt;Node389 -->
<g id="edge22" class="edge">
<title>Node406&#45;&gt;Node389</title>
<path fill="none" stroke="#191970" d="M237.0363,-172.9906C258.5387,-177.7137 283.7207,-183.245 305.6771,-188.0678"/>
<polygon fill="#191970" stroke="#191970" points="237.6426,-169.5404 227.1245,-170.8135 236.1408,-176.3774 237.6426,-169.5404"/>
</g>
</g>
</svg>
        <g id="navigator" transform="translate(0 0)" fill="#404254">
                <rect fill="#f2f5e9" fill-opacity="0.5" stroke="#606060" stroke-width=".5" x="0" y="0" width="60" height="60"/>
                <use id="zoomplus" xlink:href="#zoomPlus" x="17" y="9" onmousedown="handleZoom(evt,'in')"/>
                <use id="zoomminus" xlink:href="#zoomMin" x="42" y="9" onmousedown="handleZoom(evt,'out')"/>
                <use id="reset" xlink:href="#resetDef" x="30" y="36" onmousedown="handleReset()"/>
                <g id="arrowUp" xlink:href="#dirArrow" transform="translate(30 24)" onmousedown="handlePan(0,-1)">
                  <use xlink:href="#rim" fill="#404040">
                        <set attributeName="fill" to="#808080" begin="arrowUp.mouseover" end="arrowUp.mouseout"/>
                  </use>
                  <path fill="none" stroke="white" stroke-width="1.5" d="M0,-3.0v7 M-2.5,-0.5L0,-3.0L2.5,-0.5"/>
                </g>
                <g id="arrowRight" xlink:href="#dirArrow" transform="rotate(90) translate(36 -43)" onmousedown="handlePan(1,0)">
                  <use xlink:href="#rim" fill="#404040">
                        <set attributeName="fill" to="#808080" begin="arrowRight.mouseover" end="arrowRight.mouseout"/>
                  </use>
                  <path fill="none" stroke="white" stroke-width="1.5" d="M0,-3.0v7 M-2.5,-0.5L0,-3.0L2.5,-0.5"/>
                </g>
                <g id="arrowDown" xlink:href="#dirArrow" transform="rotate(180) translate(-30 -48)" onmousedown="handlePan(0,1)">
                  <use xlink:href="#rim" fill="#404040">
                        <set attributeName="fill" to="#808080" begin="arrowDown.mouseover" end="arrowDown.mouseout"/>
                  </use>
                  <path fill="none" stroke="white" stroke-width="1.5" d="M0,-3.0v7 M-2.5,-0.5L0,-3.0L2.5,-0.5"/>
                </g>
                <g id="arrowLeft" xlink:href="#dirArrow" transform="rotate(270) translate(-36 17)" onmousedown="handlePan(-1,0)">
                  <use xlink:href="#rim" fill="#404040">
                        <set attributeName="fill" to="#808080" begin="arrowLeft.mouseover" end="arrowLeft.mouseout"/>
                  </use>
                  <path fill="none" stroke="white" stroke-width="1.5" d="M0,-3.0v7 M-2.5,-0.5L0,-3.0L2.5,-0.5"/>
                </g>
        </g>
        <svg viewBox="0 0 15 15" width="100%" height="30px" preserveAspectRatio="xMaxYMin meet">
         <g id="arrow_out" transform="scale(0.3 0.3)">
          <a xlink:href="classSpikeMonitor_a3a3ffdb35b09328d22e5d72503ed1f55_icgraph_org.svg" target="_base">
           <rect id="button" ry="5" rx="5" y="6" x="6" height="38" width="38"
                fill="#f2f5e9" fill-opacity="0.5" stroke="#606060" stroke-width="1.0"/>
           <path id="arrow"
             d="M 11.500037,31.436501 C 11.940474,20.09759 22.043105,11.32322 32.158766,21.979434 L 37.068811,17.246167 C 37.068811,17.246167 37.088388,32 37.088388,32 L 22.160133,31.978069 C 22.160133,31.978069 26.997745,27.140456 26.997745,27.140456 C 18.528582,18.264221 13.291696,25.230495 11.500037,31.436501 z"
             style="fill:#404040;"/>
          </a>
         </g>
        </svg>
</svg>
