<?xml version="1.0" encoding="UTF-8" standalone="no"?>
<!DOCTYPE svg PUBLIC "-//W3C//DTD SVG 1.1//EN"
 "http://www.w3.org/Graphics/SVG/1.1/DTD/svg11.dtd">
<!-- Generated by graphviz version 2.40.1 (20161225.0304)
 -->
<!-- Title: getMaxFiringRate Pages: 1 -->
<svg width="295pt" height="66pt"
 viewBox="0.00 0.00 295.00 66.00" xmlns="http://www.w3.org/2000/svg" xmlns:xlink="http://www.w3.org/1999/xlink">
<g id="graph0" class="graph" transform="scale(1 1) rotate(0) translate(4 62)">
<title>getMaxFiringRate</title>
<polygon fill="#ffffff" stroke="transparent" points="-4,4 -4,-62 291,-62 291,4 -4,4"/>
<!-- Node234 -->
<g id="node1" class="node">
<title>Node234</title>
<polygon fill="#bfbfbf" stroke="#000000" points="0,-19.5 0,-38.5 94,-38.5 94,-19.5 0,-19.5"/>
<text text-anchor="middle" x="47" y="-26.5" font-family="Helvetica,sans-Serif" font-size="10.00" fill="#000000">getMaxFiringRate</text>
</g>
<!-- Node235 -->
<g id="node2" class="node">
<title>Node235</title>
<g id="a_node2"><a xlink:href="classSpikeMonitor.html#ab245e956a782d7d5fc8dc4257d94ecfa" target="_top" xlink:title="returns the largest neuronal mean firing rate in the group ">
<polygon fill="#ffffff" stroke="#000000" points="130,-38.5 130,-57.5 287,-57.5 287,-38.5 130,-38.5"/>
<text text-anchor="middle" x="208.5" y="-45.5" font-family="Helvetica,sans-Serif" font-size="10.00" fill="#000000">SpikeMonitor::getMaxFiringRate</text>
</a>
</g>
</g>
<!-- Node234&#45;&gt;Node235 -->
<g id="edge1" class="edge">
<title>Node234&#45;&gt;Node235</title>
<path fill="none" stroke="#191970" d="M104.1548,-35.7241C112.5332,-36.7098 121.2831,-37.7392 129.9981,-38.7645"/>
<polygon fill="#191970" stroke="#191970" points="104.4871,-32.2391 94.1466,-34.5467 103.6692,-39.1912 104.4871,-32.2391"/>
</g>
<!-- Node236 -->
<g id="node3" class="node">
<title>Node236</title>
<g id="a_node3"><a xlink:href="classSpikeMonitorCore.html#a1f1e21d6e994001e7b7e6acbb88990be" target="_top" xlink:title="returns number of neurons in the group ">
<polygon fill="#ffffff" stroke="#000000" points="156.5,-.5 156.5,-19.5 260.5,-19.5 260.5,-.5 156.5,-.5"/>
<text text-anchor="middle" x="208.5" y="-7.5" font-family="Helvetica,sans-Serif" font-size="10.00" fill="#000000">getGrpNumNeurons</text>
</a>
</g>
</g>
<!-- Node234&#45;&gt;Node236 -->
<g id="edge2" class="edge">
<title>Node234&#45;&gt;Node236</title>
<path fill="none" stroke="#191970" d="M104.4815,-22.2375C121.4387,-20.2425 139.8927,-18.0714 156.4853,-16.1194"/>
<polygon fill="#191970" stroke="#191970" points="103.6692,-18.8088 94.1466,-23.4533 104.4871,-25.7609 103.6692,-18.8088"/>
</g>
</g>
</svg>
