<?xml version="1.0" encoding="UTF-8" standalone="no"?>
<!DOCTYPE svg PUBLIC "-//W3C//DTD SVG 1.1//EN"
 "http://www.w3.org/Graphics/SVG/1.1/DTD/svg11.dtd">
<!-- Generated by graphviz version 2.40.1 (20161225.0304)
 -->
<!-- Title: getAccumTime Pages: 1 -->
<svg width="1172pt" height="142pt"
 viewBox="0.00 0.00 1172.00 142.00" xmlns="http://www.w3.org/2000/svg" xmlns:xlink="http://www.w3.org/1999/xlink">
<g id="graph0" class="graph" transform="scale(1 1) rotate(0) translate(4 138)">
<title>getAccumTime</title>
<polygon fill="#ffffff" stroke="transparent" points="-4,4 -4,-138 1168,-138 1168,4 -4,4"/>
<!-- Node56 -->
<g id="node1" class="node">
<title>Node56</title>
<polygon fill="#bfbfbf" stroke="#000000" points="0,-76.5 0,-95.5 83,-95.5 83,-76.5 0,-76.5"/>
<text text-anchor="middle" x="41.5" y="-83.5" font-family="Helvetica,sans-Serif" font-size="10.00" fill="#000000">getAccumTime</text>
</g>
<!-- Node57 -->
<g id="node2" class="node">
<title>Node57</title>
<g id="a_node2"><a xlink:href="classSNN.html#a876185f4e003c98fb227861e7b84fded" target="_top" xlink:title="copy required spikes from firing buffer to spike buffer ">
<polygon fill="#ffffff" stroke="#000000" points="241,-76.5 241,-95.5 372,-95.5 372,-76.5 241,-76.5"/>
<text text-anchor="middle" x="306.5" y="-83.5" font-family="Helvetica,sans-Serif" font-size="10.00" fill="#000000">SNN::updateSpikeMonitor</text>
</a>
</g>
</g>
<!-- Node56&#45;&gt;Node57 -->
<g id="edge1" class="edge">
<title>Node56&#45;&gt;Node57</title>
<path fill="none" stroke="#191970" d="M93.2526,-86C135.4289,-86 195.2483,-86 240.8016,-86"/>
<polygon fill="#191970" stroke="#191970" points="93.1978,-82.5001 83.1978,-86 93.1977,-89.5001 93.1978,-82.5001"/>
</g>
<!-- Node69 -->
<g id="node14" class="node">
<title>Node69</title>
<g id="a_node14"><a xlink:href="classSpikeMonitorCore.html#a38f87732cc929797d9648e68cd509f1b" target="_top" xlink:title="sets timestamp of last SpikeMonitor update ">
<polygon fill="#ffffff" stroke="#000000" points="119,-57.5 119,-76.5 205,-76.5 205,-57.5 119,-57.5"/>
<text text-anchor="middle" x="162" y="-64.5" font-family="Helvetica,sans-Serif" font-size="10.00" fill="#000000">setLastUpdated</text>
</a>
</g>
</g>
<!-- Node56&#45;&gt;Node69 -->
<g id="edge17" class="edge">
<title>Node56&#45;&gt;Node69</title>
<path fill="none" stroke="#191970" d="M93.41,-77.815C101.8197,-76.489 110.4505,-75.1281 118.6297,-73.8385"/>
<polygon fill="#191970" stroke="#191970" points="92.6397,-74.3932 83.3069,-79.408 93.73,-81.3077 92.6397,-74.3932"/>
</g>
<!-- Node58 -->
<g id="node3" class="node">
<title>Node58</title>
<g id="a_node3"><a xlink:href="classSNN.html#a3df37c7539f784fe7a939c5da922f41b" target="_top" xlink:title="run the simulation for n sec ">
<polygon fill="#ffffff" stroke="#000000" points="408,-114.5 408,-133.5 503,-133.5 503,-114.5 408,-114.5"/>
<text text-anchor="middle" x="455.5" y="-121.5" font-family="Helvetica,sans-Serif" font-size="10.00" fill="#000000">SNN::runNetwork</text>
</a>
</g>
</g>
<!-- Node57&#45;&gt;Node58 -->
<g id="edge2" class="edge">
<title>Node57&#45;&gt;Node58</title>
<path fill="none" stroke="#191970" d="M353.9922,-98.1121C374.7436,-103.4044 398.7282,-109.5213 418.1714,-114.4799"/>
<polygon fill="#191970" stroke="#191970" points="354.6538,-94.6689 344.099,-95.589 352.9239,-101.4518 354.6538,-94.6689"/>
</g>
<!-- Node63 -->
<g id="node8" class="node">
<title>Node63</title>
<g id="a_node8"><a xlink:href="classSpikeMonitorCore.html#ab91616c118b701c2afd9136393d1f19b" target="_top" xlink:title="starts recording AER data ">
<polygon fill="#ffffff" stroke="#000000" points="415.5,-76.5 415.5,-95.5 495.5,-95.5 495.5,-76.5 415.5,-76.5"/>
<text text-anchor="middle" x="455.5" y="-83.5" font-family="Helvetica,sans-Serif" font-size="10.00" fill="#000000">startRecording</text>
</a>
</g>
</g>
<!-- Node57&#45;&gt;Node63 -->
<g id="edge7" class="edge">
<title>Node57&#45;&gt;Node63</title>
<path fill="none" stroke="#191970" d="M382.2924,-86C393.6962,-86 405.0596,-86 415.3134,-86"/>
<polygon fill="#191970" stroke="#191970" points="382.2873,-82.5001 372.2873,-86 382.2873,-89.5001 382.2873,-82.5001"/>
</g>
<!-- Node67 -->
<g id="node12" class="node">
<title>Node67</title>
<g id="a_node12"><a xlink:href="classSpikeMonitorCore.html#a25e0e98dd4519eaaa6b258f0dcb91ac7" target="_top" xlink:title="stops recording AER data ">
<polygon fill="#ffffff" stroke="#000000" points="415.5,-38.5 415.5,-57.5 495.5,-57.5 495.5,-38.5 415.5,-38.5"/>
<text text-anchor="middle" x="455.5" y="-45.5" font-family="Helvetica,sans-Serif" font-size="10.00" fill="#000000">stopRecording</text>
</a>
</g>
</g>
<!-- Node57&#45;&gt;Node67 -->
<g id="edge13" class="edge">
<title>Node57&#45;&gt;Node67</title>
<path fill="none" stroke="#191970" d="M353.9922,-73.8879C374.7436,-68.5956 398.7282,-62.4787 418.1714,-57.5201"/>
<polygon fill="#191970" stroke="#191970" points="352.9239,-70.5482 344.099,-76.411 354.6538,-77.3311 352.9239,-70.5482"/>
</g>
<!-- Node59 -->
<g id="node4" class="node">
<title>Node59</title>
<g id="a_node4"><a xlink:href="classCARLsim_1_1Impl.html#a749f370debe5eec8661cf9ca1b1bb4c0" target="_top" xlink:title="CARLsim::Impl::runNetwork">
<polygon fill="#ffffff" stroke="#000000" points="540.5,-114.5 540.5,-133.5 680.5,-133.5 680.5,-114.5 540.5,-114.5"/>
<text text-anchor="middle" x="610.5" y="-121.5" font-family="Helvetica,sans-Serif" font-size="10.00" fill="#000000">CARLsim::Impl::runNetwork</text>
</a>
</g>
</g>
<!-- Node58&#45;&gt;Node59 -->
<g id="edge3" class="edge">
<title>Node58&#45;&gt;Node59</title>
<path fill="none" stroke="#191970" d="M513.4017,-124C522.1989,-124 531.3567,-124 540.3798,-124"/>
<polygon fill="#191970" stroke="#191970" points="513.2699,-120.5001 503.2699,-124 513.2698,-127.5001 513.2699,-120.5001"/>
</g>
<!-- Node60 -->
<g id="node5" class="node">
<title>Node60</title>
<g id="a_node5"><a xlink:href="classCARLsim.html#aafb2d44405c96aafe089f96ff867018d" target="_top" xlink:title="run the simulation for time=(nSec*seconds + nMsec*milliseconds) ">
<polygon fill="#ffffff" stroke="#000000" points="739,-114.5 739,-133.5 855,-133.5 855,-114.5 739,-114.5"/>
<text text-anchor="middle" x="797" y="-121.5" font-family="Helvetica,sans-Serif" font-size="10.00" fill="#000000">CARLsim::runNetwork</text>
</a>
</g>
</g>
<!-- Node59&#45;&gt;Node60 -->
<g id="edge4" class="edge">
<title>Node59&#45;&gt;Node60</title>
<path fill="none" stroke="#191970" d="M690.7499,-124C706.9632,-124 723.7113,-124 738.9817,-124"/>
<polygon fill="#191970" stroke="#191970" points="690.7419,-120.5001 680.7419,-124 690.7419,-127.5001 690.7419,-120.5001"/>
</g>
<!-- Node61 -->
<g id="node6" class="node">
<title>Node61</title>
<g id="a_node6"><a xlink:href="classSimpleWeightTuner_1_1Impl.html#a312d84bfa66a5036bb52a4c39db6fa6c" target="_top" xlink:title="SimpleWeightTuner::\lImpl::iterate">
<polygon fill="#ffffff" stroke="#000000" points="912,-52 912,-82 1020,-82 1020,-52 912,-52"/>
<text text-anchor="start" x="920" y="-70" font-family="Helvetica,sans-Serif" font-size="10.00" fill="#000000">SimpleWeightTuner::</text>
<text text-anchor="middle" x="966" y="-59" font-family="Helvetica,sans-Serif" font-size="10.00" fill="#000000">Impl::iterate</text>
</a>
</g>
</g>
<!-- Node60&#45;&gt;Node61 -->
<g id="edge5" class="edge">
<title>Node60&#45;&gt;Node61</title>
<path fill="none" stroke="#191970" d="M852.2014,-111.9467C860.2445,-109.8375 868.3787,-107.5068 876,-105 895.6561,-98.5348 917.0175,-89.6015 933.9948,-82.0208"/>
<polygon fill="#191970" stroke="#191970" points="851.3129,-108.5611 842.4765,-114.4065 853.0294,-115.3474 851.3129,-108.5611"/>
</g>
<!-- Node62 -->
<g id="node7" class="node">
<title>Node62</title>
<g id="a_node7"><a xlink:href="classSimpleWeightTuner.html#a0df985e3ff7a27edc1e2e3fcc8261843" target="_top" xlink:title="Performs an iteration step of the tuning algorithm. ">
<polygon fill="#ffffff" stroke="#000000" points="1056,-52 1056,-82 1164,-82 1164,-52 1056,-52"/>
<text text-anchor="start" x="1064" y="-70" font-family="Helvetica,sans-Serif" font-size="10.00" fill="#000000">SimpleWeightTuner::</text>
<text text-anchor="middle" x="1110" y="-59" font-family="Helvetica,sans-Serif" font-size="10.00" fill="#000000">iterate</text>
</a>
</g>
</g>
<!-- Node61&#45;&gt;Node62 -->
<g id="edge6" class="edge">
<title>Node61&#45;&gt;Node62</title>
<path fill="none" stroke="#191970" d="M1030.2702,-67C1038.7504,-67 1047.3754,-67 1055.6672,-67"/>
<polygon fill="#191970" stroke="#191970" points="1030.03,-63.5001 1020.03,-67 1030.0299,-70.5001 1030.03,-63.5001"/>
</g>
<!-- Node64 -->
<g id="node9" class="node">
<title>Node64</title>
<g id="a_node9"><a xlink:href="classSpikeMonitor.html#ab91616c118b701c2afd9136393d1f19b" target="_top" xlink:title="Starts a new recording period. ">
<polygon fill="#ffffff" stroke="#000000" points="725.5,-76.5 725.5,-95.5 868.5,-95.5 868.5,-76.5 725.5,-76.5"/>
<text text-anchor="middle" x="797" y="-83.5" font-family="Helvetica,sans-Serif" font-size="10.00" fill="#000000">SpikeMonitor::startRecording</text>
</a>
</g>
</g>
<!-- Node63&#45;&gt;Node64 -->
<g id="edge8" class="edge">
<title>Node63&#45;&gt;Node64</title>
<path fill="none" stroke="#191970" d="M505.705,-86C563.7263,-86 659.6492,-86 725.4624,-86"/>
<polygon fill="#191970" stroke="#191970" points="505.6786,-82.5001 495.6786,-86 505.6786,-89.5001 505.6786,-82.5001"/>
</g>
<!-- Node65 -->
<g id="node10" class="node">
<title>Node65</title>
<g id="a_node10"><a xlink:href="classSpikeMonitorCore.html#a7ac2c997b5281ea2f2bc00cc9706d37c" target="_top" xlink:title="sets status of PersistentData mode ">
<polygon fill="#ffffff" stroke="#000000" points="563,-38.5 563,-57.5 658,-57.5 658,-38.5 563,-38.5"/>
<text text-anchor="middle" x="610.5" y="-45.5" font-family="Helvetica,sans-Serif" font-size="10.00" fill="#000000">setPersistentData</text>
</a>
</g>
</g>
<!-- Node63&#45;&gt;Node65 -->
<g id="edge10" class="edge">
<title>Node63&#45;&gt;Node65</title>
<path fill="none" stroke="#191970" d="M504.6105,-73.96C526.2647,-68.6512 551.3502,-62.5012 571.6682,-57.5201"/>
<polygon fill="#191970" stroke="#191970" points="503.492,-70.6305 494.613,-76.411 505.1588,-77.4292 503.492,-70.6305"/>
</g>
<!-- Node64&#45;&gt;Node61 -->
<g id="edge9" class="edge">
<title>Node64&#45;&gt;Node61</title>
<path fill="none" stroke="#191970" d="M878.9175,-76.7903C890.1178,-75.5311 901.3786,-74.2651 911.9118,-73.0809"/>
<polygon fill="#191970" stroke="#191970" points="878.2176,-73.3469 868.6712,-77.9423 878.9997,-80.3031 878.2176,-73.3469"/>
</g>
<!-- Node66 -->
<g id="node11" class="node">
<title>Node66</title>
<g id="a_node11"><a xlink:href="classSpikeMonitor.html#a7ac2c997b5281ea2f2bc00cc9706d37c" target="_top" xlink:title="Sets PersistentMode either on (true) or off (false) ">
<polygon fill="#ffffff" stroke="#000000" points="718,-38.5 718,-57.5 876,-57.5 876,-38.5 718,-38.5"/>
<text text-anchor="middle" x="797" y="-45.5" font-family="Helvetica,sans-Serif" font-size="10.00" fill="#000000">SpikeMonitor::setPersistentData</text>
</a>
</g>
</g>
<!-- Node65&#45;&gt;Node66 -->
<g id="edge11" class="edge">
<title>Node65&#45;&gt;Node66</title>
<path fill="none" stroke="#191970" d="M668.0916,-48C683.7623,-48 701.0148,-48 717.6621,-48"/>
<polygon fill="#191970" stroke="#191970" points="668.0444,-44.5001 658.0444,-48 668.0443,-51.5001 668.0444,-44.5001"/>
</g>
<!-- Node66&#45;&gt;Node61 -->
<g id="edge12" class="edge">
<title>Node66&#45;&gt;Node61</title>
<path fill="none" stroke="#191970" d="M886.218,-58.0304C894.8663,-59.0027 903.4485,-59.9676 911.6007,-60.8841"/>
<polygon fill="#191970" stroke="#191970" points="886.3855,-54.5273 876.0571,-56.8881 885.6034,-61.4835 886.3855,-54.5273"/>
</g>
<!-- Node67&#45;&gt;Node65 -->
<g id="edge16" class="edge">
<title>Node67&#45;&gt;Node65</title>
<path fill="none" stroke="#191970" d="M506.0069,-48C524.3101,-48 544.9088,-48 562.9489,-48"/>
<polygon fill="#191970" stroke="#191970" points="505.8198,-44.5001 495.8198,-48 505.8198,-51.5001 505.8198,-44.5001"/>
</g>
<!-- Node68 -->
<g id="node13" class="node">
<title>Node68</title>
<g id="a_node13"><a xlink:href="classSpikeMonitor.html#a25e0e98dd4519eaaa6b258f0dcb91ac7" target="_top" xlink:title="Ends a recording period. ">
<polygon fill="#ffffff" stroke="#000000" points="539,-.5 539,-19.5 682,-19.5 682,-.5 539,-.5"/>
<text text-anchor="middle" x="610.5" y="-7.5" font-family="Helvetica,sans-Serif" font-size="10.00" fill="#000000">SpikeMonitor::stopRecording</text>
</a>
</g>
</g>
<!-- Node67&#45;&gt;Node68 -->
<g id="edge14" class="edge">
<title>Node67&#45;&gt;Node68</title>
<path fill="none" stroke="#191970" d="M504.6105,-35.96C526.2647,-30.6512 551.3502,-24.5012 571.6682,-19.5201"/>
<polygon fill="#191970" stroke="#191970" points="503.492,-32.6305 494.613,-38.411 505.1588,-39.4292 503.492,-32.6305"/>
</g>
<!-- Node68&#45;&gt;Node61 -->
<g id="edge15" class="edge">
<title>Node68&#45;&gt;Node61</title>
<path fill="none" stroke="#191970" d="M692.2136,-8.9759C745.2624,-9.9854 815.5262,-14.4905 876,-29 897.2754,-34.1046 919.9622,-43.7137 937.2356,-51.9915"/>
<polygon fill="#191970" stroke="#191970" points="692.2308,-5.4759 682.1785,-8.8225 692.1238,-12.475 692.2308,-5.4759"/>
</g>
<!-- Node69&#45;&gt;Node57 -->
<g id="edge18" class="edge">
<title>Node69&#45;&gt;Node57</title>
<path fill="none" stroke="#191970" d="M215.3331,-74.0127C223.6883,-75.1113 232.4066,-76.2576 240.9965,-77.3871"/>
<polygon fill="#191970" stroke="#191970" points="215.7257,-70.5342 205.3548,-72.7006 214.8131,-77.4745 215.7257,-70.5342"/>
</g>
</g>
</svg>
