<?xml version="1.0" encoding="UTF-8" standalone="no"?>
<!DOCTYPE svg PUBLIC "-//W3C//DTD SVG 1.1//EN"
 "http://www.w3.org/Graphics/SVG/1.1/DTD/svg11.dtd">
<!-- Generated by graphviz version 2.40.1 (20161225.0304)
 -->
<!-- Title: setCompartmentParameters Pages: 1 -->
<svg width="649pt" height="104pt"
 viewBox="0.00 0.00 649.00 104.00" xmlns="http://www.w3.org/2000/svg" xmlns:xlink="http://www.w3.org/1999/xlink">
<g id="graph0" class="graph" transform="scale(1 1) rotate(0) translate(4 100)">
<title>setCompartmentParameters</title>
<polygon fill="#ffffff" stroke="transparent" points="-4,4 -4,-100 645,-100 645,4 -4,4"/>
<!-- Node719 -->
<g id="node1" class="node">
<title>Node719</title>
<polygon fill="#bfbfbf" stroke="#000000" points="0,-38.5 0,-57.5 140,-57.5 140,-38.5 0,-38.5"/>
<text text-anchor="middle" x="70" y="-45.5" font-family="Helvetica,sans-Serif" font-size="10.00" fill="#000000">setCompartmentParameters</text>
</g>
<!-- Node720 -->
<g id="node2" class="node">
<title>Node720</title>
<g id="a_node2"><a xlink:href="classCARLsim_1_1Impl.html#ab0367f8ebd4019bf7d34ebddb1563fe7" target="_top" xlink:title="getGroupName">
<polygon fill="#ffffff" stroke="#000000" points="218,-38.5 218,-57.5 301,-57.5 301,-38.5 218,-38.5"/>
<text text-anchor="middle" x="259.5" y="-45.5" font-family="Helvetica,sans-Serif" font-size="10.00" fill="#000000">getGroupName</text>
</a>
</g>
</g>
<!-- Node719&#45;&gt;Node720 -->
<g id="edge1" class="edge">
<title>Node719&#45;&gt;Node720</title>
<path fill="none" stroke="#191970" d="M140.0244,-48C162.3926,-48 186.7375,-48 207.5803,-48"/>
<polygon fill="#191970" stroke="#191970" points="207.8182,-51.5001 217.8182,-48 207.8181,-44.5001 207.8182,-51.5001"/>
</g>
<!-- Node721 -->
<g id="node3" class="node">
<title>Node721</title>
<g id="a_node3"><a xlink:href="classUserErrors.html#a4bbedc6c0817d5e59e74e450bf00472c" target="_top" xlink:title="simple wrapper for assert statement ">
<polygon fill="#ffffff" stroke="#000000" points="379,-76.5 379,-95.5 495,-95.5 495,-76.5 379,-76.5"/>
<text text-anchor="middle" x="437" y="-83.5" font-family="Helvetica,sans-Serif" font-size="10.00" fill="#000000">UserErrors::assertTrue</text>
</a>
</g>
</g>
<!-- Node719&#45;&gt;Node721 -->
<g id="edge6" class="edge">
<title>Node719&#45;&gt;Node721</title>
<path fill="none" stroke="#191970" d="M117.0645,-57.5273C135.3934,-60.9507 156.6151,-64.5639 176,-67 241.0811,-75.1788 315.768,-80.1755 368.5266,-82.9781"/>
<polygon fill="#191970" stroke="#191970" points="368.6087,-86.4869 378.7766,-83.5096 368.9713,-79.4963 368.6087,-86.4869"/>
</g>
<!-- Node725 -->
<g id="node7" class="node">
<title>Node725</title>
<g id="a_node7"><a xlink:href="classSNN.html#adb7dd274136fd2a3307c0f7f0767275a" target="_top" xlink:title="Coupling constants for the compartment are set using this method. ">
<polygon fill="#ffffff" stroke="#000000" points="176,-.5 176,-19.5 343,-19.5 343,-.5 176,-.5"/>
<text text-anchor="middle" x="259.5" y="-7.5" font-family="Helvetica,sans-Serif" font-size="10.00" fill="#000000">SNN::setCompartmentParameters</text>
</a>
</g>
</g>
<!-- Node719&#45;&gt;Node725 -->
<g id="edge7" class="edge">
<title>Node719&#45;&gt;Node725</title>
<path fill="none" stroke="#191970" d="M117.8189,-38.411C143.3886,-33.2835 175.059,-26.9328 201.9678,-21.5368"/>
<polygon fill="#191970" stroke="#191970" points="202.9084,-24.9179 212.025,-19.5201 201.532,-18.0546 202.9084,-24.9179"/>
</g>
<!-- Node720&#45;&gt;Node721 -->
<g id="edge2" class="edge">
<title>Node720&#45;&gt;Node721</title>
<path fill="none" stroke="#191970" d="M301.1159,-56.9093C325.4664,-62.1224 356.486,-68.7632 382.738,-74.3833"/>
<polygon fill="#191970" stroke="#191970" points="382.0309,-77.8112 392.5421,-76.4822 383.4964,-70.9663 382.0309,-77.8112"/>
</g>
<!-- Node722 -->
<g id="node4" class="node">
<title>Node722</title>
<g id="a_node4"><a xlink:href="classCARLsim_1_1Impl.html#a292bdee57fec7c77ec4c15ea3f508d60" target="_top" xlink:title="getNumGroups">
<polygon fill="#ffffff" stroke="#000000" points="395.5,-38.5 395.5,-57.5 478.5,-57.5 478.5,-38.5 395.5,-38.5"/>
<text text-anchor="middle" x="437" y="-45.5" font-family="Helvetica,sans-Serif" font-size="10.00" fill="#000000">getNumGroups</text>
</a>
</g>
</g>
<!-- Node720&#45;&gt;Node722 -->
<g id="edge3" class="edge">
<title>Node720&#45;&gt;Node722</title>
<path fill="none" stroke="#191970" d="M301.1159,-48C326.1733,-48 358.2925,-48 385.0119,-48"/>
<polygon fill="#191970" stroke="#191970" points="385.3377,-51.5001 395.3377,-48 385.3377,-44.5001 385.3377,-51.5001"/>
</g>
<!-- Node724 -->
<g id="node6" class="node">
<title>Node724</title>
<g id="a_node6"><a xlink:href="classSNN.html#ab0367f8ebd4019bf7d34ebddb1563fe7" target="_top" xlink:title="SNN::getGroupName">
<polygon fill="#ffffff" stroke="#000000" points="382,-.5 382,-19.5 492,-19.5 492,-.5 382,-.5"/>
<text text-anchor="middle" x="437" y="-7.5" font-family="Helvetica,sans-Serif" font-size="10.00" fill="#000000">SNN::getGroupName</text>
</a>
</g>
</g>
<!-- Node720&#45;&gt;Node724 -->
<g id="edge5" class="edge">
<title>Node720&#45;&gt;Node724</title>
<path fill="none" stroke="#191970" d="M301.1159,-39.0907C325.4664,-33.8776 356.486,-27.2368 382.738,-21.6167"/>
<polygon fill="#191970" stroke="#191970" points="383.4964,-25.0337 392.5421,-19.5178 382.0309,-18.1888 383.4964,-25.0337"/>
</g>
<!-- Node723 -->
<g id="node5" class="node">
<title>Node723</title>
<g id="a_node5"><a xlink:href="classSNN.html#a292bdee57fec7c77ec4c15ea3f508d60" target="_top" xlink:title="SNN::getNumGroups">
<polygon fill="#ffffff" stroke="#000000" points="531,-38.5 531,-57.5 641,-57.5 641,-38.5 531,-38.5"/>
<text text-anchor="middle" x="586" y="-45.5" font-family="Helvetica,sans-Serif" font-size="10.00" fill="#000000">SNN::getNumGroups</text>
</a>
</g>
</g>
<!-- Node722&#45;&gt;Node723 -->
<g id="edge4" class="edge">
<title>Node722&#45;&gt;Node723</title>
<path fill="none" stroke="#191970" d="M478.5048,-48C491.5315,-48 506.2449,-48 520.5109,-48"/>
<polygon fill="#191970" stroke="#191970" points="520.7892,-51.5001 530.7892,-48 520.7891,-44.5001 520.7892,-51.5001"/>
</g>
</g>
</svg>
