<?xml version="1.0" encoding="UTF-8" standalone="no"?>
<!DOCTYPE svg PUBLIC "-//W3C//DTD SVG 1.1//EN"
 "http://www.w3.org/Graphics/SVG/1.1/DTD/svg11.dtd">
<!-- Generated by graphviz version 2.40.1 (20161225.0304)
 -->
<!-- Title: setDefaultSaveOptions Pages: 1 -->
<!--zoomable 66 -->
<svg id="main" version="1.1" xmlns="http://www.w3.org/2000/svg" xmlns:xlink="http://www.w3.org/1999/xlink" xml:space="preserve" onload="init(evt)">
<style type="text/css"><![CDATA[
.edge:hover path { stroke: red; }
.edge:hover polygon { stroke: red; fill: red; }
]]></style>
<script type="text/javascript"><![CDATA[
var edges = document.getElementsByTagName('g');
if (edges && edges.length) {
  for (var i=0;i<edges.length;i++) {
    if (edges[i].id.substr(0,4)=='edge') {
      edges[i].setAttribute('class','edge');
    }
  }
}
]]></script>
        <defs>
                <circle id="rim" cx="0" cy="0" r="7"/>
                <circle id="rim2" cx="0" cy="0" r="3.5"/>
                <g id="zoomPlus">
                        <use xlink:href="#rim" fill="#404040">
                                <set attributeName="fill" to="#808080" begin="zoomplus.mouseover" end="zoomplus.mouseout"/>
                        </use>
                        <path d="M-4,0h8M0,-4v8" fill="none" stroke="white" stroke-width="1.5" pointer-events="none"/>
                </g>
                <g id="zoomMin">
                        <use xlink:href="#rim" fill="#404040">
                                <set attributeName="fill" to="#808080" begin="zoomminus.mouseover" end="zoomminus.mouseout"/>
                        </use>
                        <path d="M-4,0h8" fill="none" stroke="white" stroke-width="1.5" pointer-events="none"/>
                </g>
                <g id="dirArrow">
                        <path fill="none" stroke="white" stroke-width="1.5" d="M0,-3.0v7 M-2.5,-0.5L0,-3.0L2.5,-0.5"/>
                </g>
               <g id="resetDef">
                       <use xlink:href="#rim2" fill="#404040">
                               <set attributeName="fill" to="#808080" begin="reset.mouseover" end="reset.mouseout"/>
                       </use>
               </g>
        </defs>

<script type="text/javascript">
var viewWidth = 527;
var viewHeight = 66;
var sectionId = 'dynsection-150';
</script>
<script xlink:href="svgpan.js"/>
<svg id="graph" class="graph">
<g id="viewport">
<title>setDefaultSaveOptions</title>
<polygon fill="#ffffff" stroke="transparent" points="-4,4 -4,-62 523,-62 523,4 -4,4"/>
<!-- Node822 -->
<g id="node1" class="node">
<title>Node822</title>
<polygon fill="#bfbfbf" stroke="#000000" points="0,-19.5 0,-38.5 118,-38.5 118,-19.5 0,-19.5"/>
<text text-anchor="middle" x="59" y="-26.5" font-family="Helvetica,sans-Serif" font-size="10.00" fill="#000000">setDefaultSaveOptions</text>
</g>
<!-- Node823 -->
<g id="node2" class="node">
<title>Node823</title>
<g id="a_node2"><a xlink:href="classCARLsim_1_1Impl.html#abb10cfa3d0f3a246442e1187ecb837ae" target="_top" xlink:title="setDefaultSTPparams">
<polygon fill="#ffffff" stroke="#000000" points="181,-38.5 181,-57.5 294,-57.5 294,-38.5 181,-38.5"/>
<text text-anchor="middle" x="237.5" y="-45.5" font-family="Helvetica,sans-Serif" font-size="10.00" fill="#000000">setDefaultSTPparams</text>
</a>
</g>
</g>
<!-- Node822&#45;&gt;Node823 -->
<g id="edge1" class="edge">
<title>Node822&#45;&gt;Node823</title>
<path fill="none" stroke="#191970" d="M128.484,-36.3961C145.787,-38.2378 164.1336,-40.1907 180.7417,-41.9585"/>
<polygon fill="#191970" stroke="#191970" points="128.7522,-32.9049 118.4379,-35.3267 128.0113,-39.8656 128.7522,-32.9049"/>
</g>
<!-- Node825 -->
<g id="node4" class="node">
<title>Node825</title>
<g id="a_node4"><a xlink:href="classCARLsim.html#a47e42a4aff33749f6040039bdff2bf9a" target="_top" xlink:title="Sets default options for save file. ">
<polygon fill="#ffffff" stroke="#000000" points="154,-.5 154,-19.5 321,-19.5 321,-.5 154,-.5"/>
<text text-anchor="middle" x="237.5" y="-7.5" font-family="Helvetica,sans-Serif" font-size="10.00" fill="#000000">CARLsim::setDefaultSaveOptions</text>
</a>
</g>
</g>
<!-- Node822&#45;&gt;Node825 -->
<g id="edge3" class="edge">
<title>Node822&#45;&gt;Node825</title>
<path fill="none" stroke="#191970" d="M128.4497,-21.6076C136.773,-20.7216 145.3383,-19.8099 153.8358,-18.9054"/>
<polygon fill="#191970" stroke="#191970" points="128.0113,-18.1344 118.4379,-22.6733 128.7522,-25.0951 128.0113,-18.1344"/>
</g>
<!-- Node824 -->
<g id="node3" class="node">
<title>Node824</title>
<g id="a_node3"><a xlink:href="classCARLsim.html#abb10cfa3d0f3a246442e1187ecb837ae" target="_top" xlink:title="Sets default values for STP params U, tau_u, and tau_x of a neuron group (pre&#45;synaptically) ...">
<polygon fill="#ffffff" stroke="#000000" points="357,-38.5 357,-57.5 519,-57.5 519,-38.5 357,-38.5"/>
<text text-anchor="middle" x="438" y="-45.5" font-family="Helvetica,sans-Serif" font-size="10.00" fill="#000000">CARLsim::setDefaultSTPparams</text>
</a>
</g>
</g>
<!-- Node823&#45;&gt;Node824 -->
<g id="edge2" class="edge">
<title>Node823&#45;&gt;Node824</title>
<path fill="none" stroke="#191970" d="M304.404,-48C321.1943,-48 339.3931,-48 356.7967,-48"/>
<polygon fill="#191970" stroke="#191970" points="304.1513,-44.5001 294.1513,-48 304.1513,-51.5001 304.1513,-44.5001"/>
</g>
</g>
</svg>
        <g id="navigator" transform="translate(0 0)" fill="#404254">
                <rect fill="#f2f5e9" fill-opacity="0.5" stroke="#606060" stroke-width=".5" x="0" y="0" width="60" height="60"/>
                <use id="zoomplus" xlink:href="#zoomPlus" x="17" y="9" onmousedown="handleZoom(evt,'in')"/>
                <use id="zoomminus" xlink:href="#zoomMin" x="42" y="9" onmousedown="handleZoom(evt,'out')"/>
                <use id="reset" xlink:href="#resetDef" x="30" y="36" onmousedown="handleReset()"/>
                <g id="arrowUp" xlink:href="#dirArrow" transform="translate(30 24)" onmousedown="handlePan(0,-1)">
                  <use xlink:href="#rim" fill="#404040">
                        <set attributeName="fill" to="#808080" begin="arrowUp.mouseover" end="arrowUp.mouseout"/>
                  </use>
                  <path fill="none" stroke="white" stroke-width="1.5" d="M0,-3.0v7 M-2.5,-0.5L0,-3.0L2.5,-0.5"/>
                </g>
                <g id="arrowRight" xlink:href="#dirArrow" transform="rotate(90) translate(36 -43)" onmousedown="handlePan(1,0)">
                  <use xlink:href="#rim" fill="#404040">
                        <set attributeName="fill" to="#808080" begin="arrowRight.mouseover" end="arrowRight.mouseout"/>
                  </use>
                  <path fill="none" stroke="white" stroke-width="1.5" d="M0,-3.0v7 M-2.5,-0.5L0,-3.0L2.5,-0.5"/>
                </g>
                <g id="arrowDown" xlink:href="#dirArrow" transform="rotate(180) translate(-30 -48)" onmousedown="handlePan(0,1)">
                  <use xlink:href="#rim" fill="#404040">
                        <set attributeName="fill" to="#808080" begin="arrowDown.mouseover" end="arrowDown.mouseout"/>
                  </use>
                  <path fill="none" stroke="white" stroke-width="1.5" d="M0,-3.0v7 M-2.5,-0.5L0,-3.0L2.5,-0.5"/>
                </g>
                <g id="arrowLeft" xlink:href="#dirArrow" transform="rotate(270) translate(-36 17)" onmousedown="handlePan(-1,0)">
                  <use xlink:href="#rim" fill="#404040">
                        <set attributeName="fill" to="#808080" begin="arrowLeft.mouseover" end="arrowLeft.mouseout"/>
                  </use>
                  <path fill="none" stroke="white" stroke-width="1.5" d="M0,-3.0v7 M-2.5,-0.5L0,-3.0L2.5,-0.5"/>
                </g>
        </g>
        <svg viewBox="0 0 15 15" width="100%" height="30px" preserveAspectRatio="xMaxYMin meet">
         <g id="arrow_out" transform="scale(0.3 0.3)">
          <a xlink:href="classCARLsim_1_1Impl_a47e42a4aff33749f6040039bdff2bf9a_icgraph_org.svg" target="_base">
           <rect id="button" ry="5" rx="5" y="6" x="6" height="38" width="38"
                fill="#f2f5e9" fill-opacity="0.5" stroke="#606060" stroke-width="1.0"/>
           <path id="arrow"
             d="M 11.500037,31.436501 C 11.940474,20.09759 22.043105,11.32322 32.158766,21.979434 L 37.068811,17.246167 C 37.068811,17.246167 37.088388,32 37.088388,32 L 22.160133,31.978069 C 22.160133,31.978069 26.997745,27.140456 26.997745,27.140456 C 18.528582,18.264221 13.291696,25.230495 11.500037,31.436501 z"
             style="fill:#404040;"/>
          </a>
         </g>
        </svg>
</svg>
