<?xml version="1.0" encoding="UTF-8" standalone="no"?>
<!DOCTYPE svg PUBLIC "-//W3C//DTD SVG 1.1//EN"
 "http://www.w3.org/Graphics/SVG/1.1/DTD/svg11.dtd">
<!-- Generated by graphviz version 2.40.1 (20161225.0304)
 -->
<!-- Title: connect Pages: 1 -->
<svg width="479pt" height="218pt"
 viewBox="0.00 0.00 479.00 218.00" xmlns="http://www.w3.org/2000/svg" xmlns:xlink="http://www.w3.org/1999/xlink">
<g id="graph0" class="graph" transform="scale(1 1) rotate(0) translate(4 214)">
<title>connect</title>
<polygon fill="#ffffff" stroke="transparent" points="-4,4 -4,-214 475,-214 475,4 -4,4"/>
<!-- Node45 -->
<g id="node1" class="node">
<title>Node45</title>
<polygon fill="#bfbfbf" stroke="#000000" points="0,-114.5 0,-133.5 51,-133.5 51,-114.5 0,-114.5"/>
<text text-anchor="middle" x="25.5" y="-121.5" font-family="Helvetica,sans-Serif" font-size="10.00" fill="#000000">connect</text>
</g>
<!-- Node46 -->
<g id="node2" class="node">
<title>Node46</title>
<g id="a_node2"><a xlink:href="classCARLsim_1_1Impl.html#ab0367f8ebd4019bf7d34ebddb1563fe7" target="_top" xlink:title="getGroupName">
<polygon fill="#ffffff" stroke="#000000" points="88.5,-133.5 88.5,-152.5 171.5,-152.5 171.5,-133.5 88.5,-133.5"/>
<text text-anchor="middle" x="130" y="-140.5" font-family="Helvetica,sans-Serif" font-size="10.00" fill="#000000">getGroupName</text>
</a>
</g>
</g>
<!-- Node45&#45;&gt;Node46 -->
<g id="edge1" class="edge">
<title>Node45&#45;&gt;Node46</title>
<path fill="none" stroke="#191970" d="M51.0636,-128.6479C59.4049,-130.1645 68.9866,-131.9067 78.5335,-133.6424"/>
<polygon fill="#191970" stroke="#191970" points="77.9513,-137.0939 88.4162,-135.4393 79.2036,-130.2068 77.9513,-137.0939"/>
</g>
<!-- Node47 -->
<g id="node3" class="node">
<title>Node47</title>
<g id="a_node3"><a xlink:href="classUserErrors.html#a4bbedc6c0817d5e59e74e450bf00472c" target="_top" xlink:title="simple wrapper for assert statement ">
<polygon fill="#ffffff" stroke="#000000" points="209,-152.5 209,-171.5 325,-171.5 325,-152.5 209,-152.5"/>
<text text-anchor="middle" x="267" y="-159.5" font-family="Helvetica,sans-Serif" font-size="10.00" fill="#000000">UserErrors::assertTrue</text>
</a>
</g>
</g>
<!-- Node45&#45;&gt;Node47 -->
<g id="edge6" class="edge">
<title>Node45&#45;&gt;Node47</title>
<path fill="none" stroke="#191970" d="M36.8095,-133.7088C48.4886,-143.0414 67.6827,-156.5135 87,-162 122.8243,-172.1749 164.3019,-172.8766 198.4061,-170.7201"/>
<polygon fill="#191970" stroke="#191970" points="199.0201,-174.1847 208.739,-169.9664 198.5108,-167.2032 199.0201,-174.1847"/>
</g>
<!-- Node51 -->
<g id="node7" class="node">
<title>Node51</title>
<g id="a_node7"><a xlink:href="classCARLsim_1_1Impl.html#ae136e178382096490a2d34f78cd2afa2" target="_top" xlink:title="isPoissonGroup">
<polygon fill="#ffffff" stroke="#000000" points="87,-95.5 87,-114.5 173,-114.5 173,-95.5 87,-95.5"/>
<text text-anchor="middle" x="130" y="-102.5" font-family="Helvetica,sans-Serif" font-size="10.00" fill="#000000">isPoissonGroup</text>
</a>
</g>
</g>
<!-- Node45&#45;&gt;Node51 -->
<g id="edge7" class="edge">
<title>Node45&#45;&gt;Node51</title>
<path fill="none" stroke="#191970" d="M51.0636,-119.3521C58.8781,-117.9313 67.7813,-116.3125 76.7245,-114.6865"/>
<polygon fill="#191970" stroke="#191970" points="77.5702,-118.0901 86.7828,-112.8577 76.318,-111.2031 77.5702,-118.0901"/>
</g>
<!-- Node53 -->
<g id="node9" class="node">
<title>Node53</title>
<g id="a_node9"><a xlink:href="classSNN.html#a6eec2a657455176862ab71d4ee762e07" target="_top" xlink:title="make from each neuron in grpId1 to &#39;numPostSynapses&#39; neurons in grpId2 ">
<polygon fill="#ffffff" stroke="#000000" points="90.5,-57.5 90.5,-76.5 169.5,-76.5 169.5,-57.5 90.5,-57.5"/>
<text text-anchor="middle" x="130" y="-64.5" font-family="Helvetica,sans-Serif" font-size="10.00" fill="#000000">SNN::connect</text>
</a>
</g>
</g>
<!-- Node45&#45;&gt;Node53 -->
<g id="edge11" class="edge">
<title>Node45&#45;&gt;Node53</title>
<path fill="none" stroke="#191970" d="M39.8328,-114.3626C52.0914,-106.3115 70.3428,-94.7731 87,-86 90.2992,-84.2624 93.7904,-82.5398 97.2999,-80.8823"/>
<polygon fill="#191970" stroke="#191970" points="98.867,-84.0144 106.5135,-76.6809 95.9627,-77.6454 98.867,-84.0144"/>
</g>
<!-- Node46&#45;&gt;Node47 -->
<g id="edge2" class="edge">
<title>Node46&#45;&gt;Node47</title>
<path fill="none" stroke="#191970" d="M171.8489,-148.8039C180.4015,-149.99 189.6108,-151.2672 198.8126,-152.5434"/>
<polygon fill="#191970" stroke="#191970" points="198.3771,-156.0164 208.7631,-153.9233 199.3387,-149.0827 198.3771,-156.0164"/>
</g>
<!-- Node48 -->
<g id="node4" class="node">
<title>Node48</title>
<g id="a_node4"><a xlink:href="classCARLsim_1_1Impl.html#a292bdee57fec7c77ec4c15ea3f508d60" target="_top" xlink:title="getNumGroups">
<polygon fill="#ffffff" stroke="#000000" points="225.5,-114.5 225.5,-133.5 308.5,-133.5 308.5,-114.5 225.5,-114.5"/>
<text text-anchor="middle" x="267" y="-121.5" font-family="Helvetica,sans-Serif" font-size="10.00" fill="#000000">getNumGroups</text>
</a>
</g>
</g>
<!-- Node46&#45;&gt;Node48 -->
<g id="edge3" class="edge">
<title>Node46&#45;&gt;Node48</title>
<path fill="none" stroke="#191970" d="M171.8489,-137.1961C185.5262,-135.2993 200.8829,-133.1695 215.2026,-131.1836"/>
<polygon fill="#191970" stroke="#191970" points="215.983,-134.6089 225.4073,-129.7683 215.0213,-127.6753 215.983,-134.6089"/>
</g>
<!-- Node50 -->
<g id="node6" class="node">
<title>Node50</title>
<g id="a_node6"><a xlink:href="classSNN.html#ab0367f8ebd4019bf7d34ebddb1563fe7" target="_top" xlink:title="SNN::getGroupName">
<polygon fill="#ffffff" stroke="#000000" points="212,-190.5 212,-209.5 322,-209.5 322,-190.5 212,-190.5"/>
<text text-anchor="middle" x="267" y="-197.5" font-family="Helvetica,sans-Serif" font-size="10.00" fill="#000000">SNN::getGroupName</text>
</a>
</g>
</g>
<!-- Node46&#45;&gt;Node50 -->
<g id="edge5" class="edge">
<title>Node46&#45;&gt;Node50</title>
<path fill="none" stroke="#191970" d="M148.2077,-152.6055C164.0248,-160.7437 187.679,-172.4233 209,-181 214.4159,-183.1786 220.1871,-185.2995 225.9096,-187.2866"/>
<polygon fill="#191970" stroke="#191970" points="224.829,-190.6158 235.4231,-190.4911 227.0635,-183.982 224.829,-190.6158"/>
</g>
<!-- Node49 -->
<g id="node5" class="node">
<title>Node49</title>
<g id="a_node5"><a xlink:href="classSNN.html#a292bdee57fec7c77ec4c15ea3f508d60" target="_top" xlink:title="SNN::getNumGroups">
<polygon fill="#ffffff" stroke="#000000" points="361,-114.5 361,-133.5 471,-133.5 471,-114.5 361,-114.5"/>
<text text-anchor="middle" x="416" y="-121.5" font-family="Helvetica,sans-Serif" font-size="10.00" fill="#000000">SNN::getNumGroups</text>
</a>
</g>
</g>
<!-- Node48&#45;&gt;Node49 -->
<g id="edge4" class="edge">
<title>Node48&#45;&gt;Node49</title>
<path fill="none" stroke="#191970" d="M308.5048,-124C321.5315,-124 336.2449,-124 350.5109,-124"/>
<polygon fill="#191970" stroke="#191970" points="350.7892,-127.5001 360.7892,-124 350.7891,-120.5001 350.7892,-127.5001"/>
</g>
<!-- Node51&#45;&gt;Node47 -->
<g id="edge8" class="edge">
<title>Node51&#45;&gt;Node47</title>
<path fill="none" stroke="#191970" d="M152.4532,-114.5689C159.1111,-117.5009 166.3885,-120.7994 173,-124 189.284,-131.883 192.3442,-135.9365 209,-143 214.0604,-145.146 219.4515,-147.2025 224.8316,-149.1176"/>
<polygon fill="#191970" stroke="#191970" points="223.8353,-152.4759 234.4298,-152.4009 226.1009,-145.8526 223.8353,-152.4759"/>
</g>
<!-- Node51&#45;&gt;Node48 -->
<g id="edge9" class="edge">
<title>Node51&#45;&gt;Node48</title>
<path fill="none" stroke="#191970" d="M173.3477,-111.0117C186.591,-112.8484 201.2909,-114.8871 215.0444,-116.7945"/>
<polygon fill="#191970" stroke="#191970" points="214.9515,-120.315 225.3375,-118.222 215.9131,-113.3814 214.9515,-120.315"/>
</g>
<!-- Node52 -->
<g id="node8" class="node">
<title>Node52</title>
<g id="a_node8"><a xlink:href="classSNN.html#a3764348d44236ad4932627cd4d199c31" target="_top" xlink:title="SNN::isPoissonGroup">
<polygon fill="#ffffff" stroke="#000000" points="210.5,-76.5 210.5,-95.5 323.5,-95.5 323.5,-76.5 210.5,-76.5"/>
<text text-anchor="middle" x="267" y="-83.5" font-family="Helvetica,sans-Serif" font-size="10.00" fill="#000000">SNN::isPoissonGroup</text>
</a>
</g>
</g>
<!-- Node51&#45;&gt;Node52 -->
<g id="edge10" class="edge">
<title>Node51&#45;&gt;Node52</title>
<path fill="none" stroke="#191970" d="M173.3477,-98.9883C181.983,-97.7907 191.2377,-96.5072 200.4455,-95.2302"/>
<polygon fill="#191970" stroke="#191970" points="200.9626,-98.6921 210.3869,-93.8514 200.0009,-91.7584 200.9626,-98.6921"/>
</g>
<!-- Node53&#45;&gt;Node52 -->
<g id="edge12" class="edge">
<title>Node53&#45;&gt;Node52</title>
<path fill="none" stroke="#191970" d="M169.6261,-72.4956C179.2679,-73.8328 189.8438,-75.2995 200.3613,-76.7581"/>
<polygon fill="#191970" stroke="#191970" points="200.0086,-80.2426 210.3947,-78.1496 200.9703,-73.309 200.0086,-80.2426"/>
</g>
<!-- Node54 -->
<g id="node10" class="node">
<title>Node54</title>
<g id="a_node10"><a xlink:href="classSNN.html#ac13b30c40669d3cb8264bd6e211b449d" target="_top" xlink:title="SNN::getGroupGrid3D">
<polygon fill="#ffffff" stroke="#000000" points="209.5,-38.5 209.5,-57.5 324.5,-57.5 324.5,-38.5 209.5,-38.5"/>
<text text-anchor="middle" x="267" y="-45.5" font-family="Helvetica,sans-Serif" font-size="10.00" fill="#000000">SNN::getGroupGrid3D</text>
</a>
</g>
</g>
<!-- Node53&#45;&gt;Node54 -->
<g id="edge13" class="edge">
<title>Node53&#45;&gt;Node54</title>
<path fill="none" stroke="#191970" d="M169.6261,-61.5044C178.9314,-60.2139 189.1068,-58.8027 199.26,-57.3946"/>
<polygon fill="#191970" stroke="#191970" points="199.9483,-60.8327 209.3727,-55.9921 198.9867,-53.8991 199.9483,-60.8327"/>
</g>
<!-- Node55 -->
<g id="node11" class="node">
<title>Node55</title>
<g id="a_node11"><a xlink:href="classSNN.html#a477f99451786873b73e2623b6f89b766" target="_top" xlink:title="deallocates all dynamical structures and exits ">
<polygon fill="#ffffff" stroke="#000000" points="214,-.5 214,-19.5 320,-19.5 320,-.5 214,-.5"/>
<text text-anchor="middle" x="267" y="-7.5" font-family="Helvetica,sans-Serif" font-size="10.00" fill="#000000">SNN::exitSimulation</text>
</a>
</g>
</g>
<!-- Node53&#45;&gt;Node55 -->
<g id="edge14" class="edge">
<title>Node53&#45;&gt;Node55</title>
<path fill="none" stroke="#191970" d="M148.2077,-57.3945C164.0248,-49.2563 187.679,-37.5767 209,-29 214.4159,-26.8214 220.1871,-24.7005 225.9096,-22.7134"/>
<polygon fill="#191970" stroke="#191970" points="227.0635,-26.018 235.4231,-19.5089 224.829,-19.3842 227.0635,-26.018"/>
</g>
</g>
</svg>
