<?xml version="1.0" encoding="UTF-8" standalone="no"?>
<!DOCTYPE svg PUBLIC "-//W3C//DTD SVG 1.1//EN"
 "http://www.w3.org/Graphics/SVG/1.1/DTD/svg11.dtd">
<!-- Generated by graphviz version 2.40.1 (20161225.0304)
 -->
<!-- Title: getGroupGrid3D Pages: 1 -->
<svg width="393pt" height="104pt"
 viewBox="0.00 0.00 393.00 104.00" xmlns="http://www.w3.org/2000/svg" xmlns:xlink="http://www.w3.org/1999/xlink">
<g id="graph0" class="graph" transform="scale(1 1) rotate(0) translate(4 100)">
<title>getGroupGrid3D</title>
<polygon fill="#ffffff" stroke="transparent" points="-4,4 -4,-100 389,-100 389,4 -4,4"/>
<!-- Node179 -->
<g id="node1" class="node">
<title>Node179</title>
<polygon fill="#bfbfbf" stroke="#000000" points="0,-38.5 0,-57.5 87,-57.5 87,-38.5 0,-38.5"/>
<text text-anchor="middle" x="43.5" y="-45.5" font-family="Helvetica,sans-Serif" font-size="10.00" fill="#000000">getGroupGrid3D</text>
</g>
<!-- Node180 -->
<g id="node2" class="node">
<title>Node180</title>
<g id="a_node2"><a xlink:href="classUserErrors.html#a4bbedc6c0817d5e59e74e450bf00472c" target="_top" xlink:title="simple wrapper for assert statement ">
<polygon fill="#ffffff" stroke="#000000" points="123,-76.5 123,-95.5 239,-95.5 239,-76.5 123,-76.5"/>
<text text-anchor="middle" x="181" y="-83.5" font-family="Helvetica,sans-Serif" font-size="10.00" fill="#000000">UserErrors::assertTrue</text>
</a>
</g>
</g>
<!-- Node179&#45;&gt;Node180 -->
<g id="edge1" class="edge">
<title>Node179&#45;&gt;Node180</title>
<path fill="none" stroke="#191970" d="M78.1971,-57.589C95.8656,-62.4719 117.5485,-68.4643 136.439,-73.685"/>
<polygon fill="#191970" stroke="#191970" points="135.743,-77.1238 146.314,-76.4141 137.6077,-70.3767 135.743,-77.1238"/>
</g>
<!-- Node181 -->
<g id="node3" class="node">
<title>Node181</title>
<g id="a_node3"><a xlink:href="classCARLsim_1_1Impl.html#a292bdee57fec7c77ec4c15ea3f508d60" target="_top" xlink:title="getNumGroups">
<polygon fill="#ffffff" stroke="#000000" points="139.5,-38.5 139.5,-57.5 222.5,-57.5 222.5,-38.5 139.5,-38.5"/>
<text text-anchor="middle" x="181" y="-45.5" font-family="Helvetica,sans-Serif" font-size="10.00" fill="#000000">getNumGroups</text>
</a>
</g>
</g>
<!-- Node179&#45;&gt;Node181 -->
<g id="edge2" class="edge">
<title>Node179&#45;&gt;Node181</title>
<path fill="none" stroke="#191970" d="M87.0059,-48C100.2975,-48 115.0511,-48 128.8548,-48"/>
<polygon fill="#191970" stroke="#191970" points="129.1855,-51.5001 139.1854,-48 129.1854,-44.5001 129.1855,-51.5001"/>
</g>
<!-- Node183 -->
<g id="node5" class="node">
<title>Node183</title>
<g id="a_node5"><a xlink:href="classSNN.html#ac13b30c40669d3cb8264bd6e211b449d" target="_top" xlink:title="SNN::getGroupGrid3D">
<polygon fill="#ffffff" stroke="#000000" points="123.5,-.5 123.5,-19.5 238.5,-19.5 238.5,-.5 123.5,-.5"/>
<text text-anchor="middle" x="181" y="-7.5" font-family="Helvetica,sans-Serif" font-size="10.00" fill="#000000">SNN::getGroupGrid3D</text>
</a>
</g>
</g>
<!-- Node179&#45;&gt;Node183 -->
<g id="edge4" class="edge">
<title>Node179&#45;&gt;Node183</title>
<path fill="none" stroke="#191970" d="M78.1971,-38.411C95.8656,-33.5281 117.5485,-27.5357 136.439,-22.315"/>
<polygon fill="#191970" stroke="#191970" points="137.6077,-25.6233 146.314,-19.5859 135.743,-18.8762 137.6077,-25.6233"/>
</g>
<!-- Node182 -->
<g id="node4" class="node">
<title>Node182</title>
<g id="a_node4"><a xlink:href="classSNN.html#a292bdee57fec7c77ec4c15ea3f508d60" target="_top" xlink:title="SNN::getNumGroups">
<polygon fill="#ffffff" stroke="#000000" points="275,-38.5 275,-57.5 385,-57.5 385,-38.5 275,-38.5"/>
<text text-anchor="middle" x="330" y="-45.5" font-family="Helvetica,sans-Serif" font-size="10.00" fill="#000000">SNN::getNumGroups</text>
</a>
</g>
</g>
<!-- Node181&#45;&gt;Node182 -->
<g id="edge3" class="edge">
<title>Node181&#45;&gt;Node182</title>
<path fill="none" stroke="#191970" d="M222.5048,-48C235.5315,-48 250.2449,-48 264.5109,-48"/>
<polygon fill="#191970" stroke="#191970" points="264.7892,-51.5001 274.7892,-48 264.7891,-44.5001 264.7892,-51.5001"/>
</g>
</g>
</svg>
