<?xml version="1.0" encoding="UTF-8" standalone="no"?>
<!DOCTYPE svg PUBLIC "-//W3C//DTD SVG 1.1//EN"
 "http://www.w3.org/Graphics/SVG/1.1/DTD/svg11.dtd">
<!-- Generated by graphviz version 2.40.1 (20161225.0304)
 -->
<!-- Title: getSpikeMonitor Pages: 1 -->
<svg width="630pt" height="104pt"
 viewBox="0.00 0.00 630.00 104.00" xmlns="http://www.w3.org/2000/svg" xmlns:xlink="http://www.w3.org/1999/xlink">
<g id="graph0" class="graph" transform="scale(1 1) rotate(0) translate(4 100)">
<title>getSpikeMonitor</title>
<polygon fill="#ffffff" stroke="transparent" points="-4,4 -4,-100 626,-100 626,4 -4,4"/>
<!-- Node346 -->
<g id="node1" class="node">
<title>Node346</title>
<polygon fill="#bfbfbf" stroke="#000000" points="0,-38.5 0,-57.5 87,-57.5 87,-38.5 0,-38.5"/>
<text text-anchor="middle" x="43.5" y="-45.5" font-family="Helvetica,sans-Serif" font-size="10.00" fill="#000000">getSpikeMonitor</text>
</g>
<!-- Node347 -->
<g id="node2" class="node">
<title>Node347</title>
<g id="a_node2"><a xlink:href="classCARLsim_1_1Impl.html#aa2f49d6a802e4b3697bb20ef5ee51690" target="_top" xlink:title="CARLsim::Impl::getSpikeMonitor">
<polygon fill="#ffffff" stroke="#000000" points="123,-38.5 123,-57.5 284,-57.5 284,-38.5 123,-38.5"/>
<text text-anchor="middle" x="203.5" y="-45.5" font-family="Helvetica,sans-Serif" font-size="10.00" fill="#000000">CARLsim::Impl::getSpikeMonitor</text>
</a>
</g>
</g>
<!-- Node346&#45;&gt;Node347 -->
<g id="edge1" class="edge">
<title>Node346&#45;&gt;Node347</title>
<path fill="none" stroke="#191970" d="M87.2207,-48C95.2878,-48 103.9793,-48 112.8486,-48"/>
<polygon fill="#191970" stroke="#191970" points="112.9141,-51.5001 122.9141,-48 112.914,-44.5001 112.9141,-51.5001"/>
</g>
<!-- Node348 -->
<g id="node3" class="node">
<title>Node348</title>
<g id="a_node3"><a xlink:href="classUserErrors.html#a4bbedc6c0817d5e59e74e450bf00472c" target="_top" xlink:title="simple wrapper for assert statement ">
<polygon fill="#ffffff" stroke="#000000" points="340,-76.5 340,-95.5 456,-95.5 456,-76.5 340,-76.5"/>
<text text-anchor="middle" x="398" y="-83.5" font-family="Helvetica,sans-Serif" font-size="10.00" fill="#000000">UserErrors::assertTrue</text>
</a>
</g>
</g>
<!-- Node347&#45;&gt;Node348 -->
<g id="edge2" class="edge">
<title>Node347&#45;&gt;Node348</title>
<path fill="none" stroke="#191970" d="M252.3295,-57.54C278.6876,-62.6896 311.4169,-69.084 339.1712,-74.5065"/>
<polygon fill="#191970" stroke="#191970" points="338.6648,-77.9736 349.1504,-76.4561 340.0071,-71.1035 338.6648,-77.9736"/>
</g>
<!-- Node349 -->
<g id="node4" class="node">
<title>Node349</title>
<g id="a_node4"><a xlink:href="classCARLsim_1_1Impl.html#a292bdee57fec7c77ec4c15ea3f508d60" target="_top" xlink:title="CARLsim::Impl::getNumGroups">
<polygon fill="#ffffff" stroke="#000000" points="320,-38.5 320,-57.5 476,-57.5 476,-38.5 320,-38.5"/>
<text text-anchor="middle" x="398" y="-45.5" font-family="Helvetica,sans-Serif" font-size="10.00" fill="#000000">CARLsim::Impl::getNumGroups</text>
</a>
</g>
</g>
<!-- Node347&#45;&gt;Node349 -->
<g id="edge3" class="edge">
<title>Node347&#45;&gt;Node349</title>
<path fill="none" stroke="#191970" d="M284.0146,-48C292.5026,-48 301.166,-48 309.7355,-48"/>
<polygon fill="#191970" stroke="#191970" points="309.7362,-51.5001 319.7362,-48 309.7361,-44.5001 309.7362,-51.5001"/>
</g>
<!-- Node351 -->
<g id="node6" class="node">
<title>Node351</title>
<g id="a_node6"><a xlink:href="classSNN.html#a866a9c6e2b2630816fc66adda1381655" target="_top" xlink:title="Returns pointer to existing SpikeMonitor object, NULL else. ">
<polygon fill="#ffffff" stroke="#000000" points="340.5,-.5 340.5,-19.5 455.5,-19.5 455.5,-.5 340.5,-.5"/>
<text text-anchor="middle" x="398" y="-7.5" font-family="Helvetica,sans-Serif" font-size="10.00" fill="#000000">SNN::getSpikeMonitor</text>
</a>
</g>
</g>
<!-- Node347&#45;&gt;Node351 -->
<g id="edge5" class="edge">
<title>Node347&#45;&gt;Node351</title>
<path fill="none" stroke="#191970" d="M252.3295,-38.46C278.6876,-33.3104 311.4169,-26.916 339.1712,-21.4935"/>
<polygon fill="#191970" stroke="#191970" points="340.0071,-24.8965 349.1504,-19.5439 338.6648,-18.0264 340.0071,-24.8965"/>
</g>
<!-- Node350 -->
<g id="node5" class="node">
<title>Node350</title>
<g id="a_node5"><a xlink:href="classSNN.html#a292bdee57fec7c77ec4c15ea3f508d60" target="_top" xlink:title="SNN::getNumGroups">
<polygon fill="#ffffff" stroke="#000000" points="512,-19.5 512,-38.5 622,-38.5 622,-19.5 512,-19.5"/>
<text text-anchor="middle" x="567" y="-26.5" font-family="Helvetica,sans-Serif" font-size="10.00" fill="#000000">SNN::getNumGroups</text>
</a>
</g>
</g>
<!-- Node349&#45;&gt;Node350 -->
<g id="edge4" class="edge">
<title>Node349&#45;&gt;Node350</title>
<path fill="none" stroke="#191970" d="M476.069,-39.223C484.6771,-38.2552 493.3747,-37.2774 501.8018,-36.33"/>
<polygon fill="#191970" stroke="#191970" points="502.3762,-39.7875 511.9225,-35.1921 501.594,-32.8314 502.3762,-39.7875"/>
</g>
<!-- Node351&#45;&gt;Node350 -->
<g id="edge6" class="edge">
<title>Node351&#45;&gt;Node350</title>
<path fill="none" stroke="#191970" d="M455.6875,-16.4856C470.449,-18.1452 486.4284,-19.9417 501.5493,-21.6416"/>
<polygon fill="#191970" stroke="#191970" points="501.5265,-25.161 511.8549,-22.8003 502.3086,-18.2049 501.5265,-25.161"/>
</g>
</g>
</svg>
