<?xml version="1.0" encoding="UTF-8" standalone="no"?>
<!DOCTYPE svg PUBLIC "-//W3C//DTD SVG 1.1//EN"
 "http://www.w3.org/Graphics/SVG/1.1/DTD/svg11.dtd">
<!-- Generated by graphviz version 2.40.1 (20161225.0304)
 -->
<!-- Title: getNumSynapses Pages: 1 -->
<svg width="486pt" height="28pt"
 viewBox="0.00 0.00 486.00 28.00" xmlns="http://www.w3.org/2000/svg" xmlns:xlink="http://www.w3.org/1999/xlink">
<g id="graph0" class="graph" transform="scale(1 1) rotate(0) translate(4 24)">
<title>getNumSynapses</title>
<polygon fill="#ffffff" stroke="transparent" points="-4,4 -4,-24 482,-24 482,4 -4,4"/>
<!-- Node1000 -->
<g id="node1" class="node">
<title>Node1000</title>
<polygon fill="#bfbfbf" stroke="#000000" points="0,-.5 0,-19.5 95,-19.5 95,-.5 0,-.5"/>
<text text-anchor="middle" x="47.5" y="-7.5" font-family="Helvetica,sans-Serif" font-size="10.00" fill="#000000">getNumSynapses</text>
</g>
<!-- Node1001 -->
<g id="node2" class="node">
<title>Node1001</title>
<g id="a_node2"><a xlink:href="classCARLsim_1_1Impl.html#a7373a8cecde25ccd48b3df967b5b0417" target="_top" xlink:title="CARLsim::Impl::getNumSynapses">
<polygon fill="#ffffff" stroke="#000000" points="131,-.5 131,-19.5 299,-19.5 299,-.5 131,-.5"/>
<text text-anchor="middle" x="215" y="-7.5" font-family="Helvetica,sans-Serif" font-size="10.00" fill="#000000">CARLsim::Impl::getNumSynapses</text>
</a>
</g>
</g>
<!-- Node1000&#45;&gt;Node1001 -->
<g id="edge1" class="edge">
<title>Node1000&#45;&gt;Node1001</title>
<path fill="none" stroke="#191970" d="M105.299,-10C113.57,-10 122.2156,-10 130.8666,-10"/>
<polygon fill="#191970" stroke="#191970" points="105.0508,-6.5001 95.0507,-10 105.0507,-13.5001 105.0508,-6.5001"/>
</g>
<!-- Node1002 -->
<g id="node3" class="node">
<title>Node1002</title>
<g id="a_node3"><a xlink:href="classCARLsim.html#a7373a8cecde25ccd48b3df967b5b0417" target="_top" xlink:title="returns the total number of allocated synaptic connections in the network ">
<polygon fill="#ffffff" stroke="#000000" points="335,-.5 335,-19.5 478,-19.5 478,-.5 335,-.5"/>
<text text-anchor="middle" x="406.5" y="-7.5" font-family="Helvetica,sans-Serif" font-size="10.00" fill="#000000">CARLsim::getNumSynapses</text>
</a>
</g>
</g>
<!-- Node1001&#45;&gt;Node1002 -->
<g id="edge2" class="edge">
<title>Node1001&#45;&gt;Node1002</title>
<path fill="none" stroke="#191970" d="M309.304,-10C317.8687,-10 326.4487,-10 334.7701,-10"/>
<polygon fill="#191970" stroke="#191970" points="309.2734,-6.5001 299.2734,-10 309.2733,-13.5001 309.2734,-6.5001"/>
</g>
</g>
</svg>
