<?xml version="1.0" encoding="UTF-8" standalone="no"?>
<!DOCTYPE svg PUBLIC "-//W3C//DTD SVG 1.1//EN"
 "http://www.w3.org/Graphics/SVG/1.1/DTD/svg11.dtd">
<!-- Generated by graphviz version 2.40.1 (20161225.0304)
 -->
<!-- Title: back Pages: 1 -->
<!--zoomable 106 -->
<svg id="main" version="1.1" xmlns="http://www.w3.org/2000/svg" xmlns:xlink="http://www.w3.org/1999/xlink" xml:space="preserve" onload="init(evt)">
<style type="text/css"><![CDATA[
.edge:hover path { stroke: red; }
.edge:hover polygon { stroke: red; fill: red; }
]]></style>
<script type="text/javascript"><![CDATA[
var edges = document.getElementsByTagName('g');
if (edges && edges.length) {
  for (var i=0;i<edges.length;i++) {
    if (edges[i].id.substr(0,4)=='edge') {
      edges[i].setAttribute('class','edge');
    }
  }
}
]]></script>
        <defs>
                <circle id="rim" cx="0" cy="0" r="7"/>
                <circle id="rim2" cx="0" cy="0" r="3.5"/>
                <g id="zoomPlus">
                        <use xlink:href="#rim" fill="#404040">
                                <set attributeName="fill" to="#808080" begin="zoomplus.mouseover" end="zoomplus.mouseout"/>
                        </use>
                        <path d="M-4,0h8M0,-4v8" fill="none" stroke="white" stroke-width="1.5" pointer-events="none"/>
                </g>
                <g id="zoomMin">
                        <use xlink:href="#rim" fill="#404040">
                                <set attributeName="fill" to="#808080" begin="zoomminus.mouseover" end="zoomminus.mouseout"/>
                        </use>
                        <path d="M-4,0h8" fill="none" stroke="white" stroke-width="1.5" pointer-events="none"/>
                </g>
                <g id="dirArrow">
                        <path fill="none" stroke="white" stroke-width="1.5" d="M0,-3.0v7 M-2.5,-0.5L0,-3.0L2.5,-0.5"/>
                </g>
               <g id="resetDef">
                       <use xlink:href="#rim2" fill="#404040">
                               <set attributeName="fill" to="#808080" begin="reset.mouseover" end="reset.mouseout"/>
                       </use>
               </g>
        </defs>

<script type="text/javascript">
var viewWidth = 666;
var viewHeight = 106;
var sectionId = 'dynsection-1';
</script>
<script xlink:href="svgpan.js"/>
<svg id="graph" class="graph">
<g id="viewport">
<title>back</title>
<polygon fill="#ffffff" stroke="transparent" points="-4,4 -4,-101.5 662,-101.5 662,4 -4,4"/>
<!-- Node6 -->
<g id="node1" class="node">
<title>Node6</title>
<polygon fill="#bfbfbf" stroke="#000000" points="0,-28 0,-47 38,-47 38,-28 0,-28"/>
<text text-anchor="middle" x="19" y="-35" font-family="Helvetica,sans-Serif" font-size="10.00" fill="#000000">back</text>
</g>
<!-- Node7 -->
<g id="node2" class="node">
<title>Node7</title>
<g id="a_node2"><a xlink:href="classSpikeBuffer.html#a91568181a88cf6248893e88275269313" target="_top" xlink:title="pointer to the back of the spike buffer ">
<polygon fill="#ffffff" stroke="#000000" points="74,-28 74,-47 169,-47 169,-28 74,-28"/>
<text text-anchor="middle" x="121.5" y="-35" font-family="Helvetica,sans-Serif" font-size="10.00" fill="#000000">SpikeBuffer::back</text>
</a>
</g>
</g>
<!-- Node6&#45;&gt;Node7 -->
<g id="edge1" class="edge">
<title>Node6&#45;&gt;Node7</title>
<path fill="none" stroke="#191970" d="M48.4532,-37.5C56.3696,-37.5 65.1386,-37.5 73.7736,-37.5"/>
<polygon fill="#191970" stroke="#191970" points="48.2795,-34.0001 38.2795,-37.5 48.2794,-41.0001 48.2795,-34.0001"/>
</g>
<!-- Node8 -->
<g id="node3" class="node">
<title>Node8</title>
<g id="a_node3"><a xlink:href="classSNN.html#a845adad4645977755e508610dc3c1464" target="_top" xlink:title="checks whether a point pre lies in the receptive field for point post ">
<polygon fill="#ffffff" stroke="#000000" points="218.5,-50 218.5,-69 320.5,-69 320.5,-50 218.5,-50"/>
<text text-anchor="middle" x="269.5" y="-57" font-family="Helvetica,sans-Serif" font-size="10.00" fill="#000000">SNN::getRFDist3D</text>
</a>
</g>
</g>
<!-- Node7&#45;&gt;Node8 -->
<g id="edge2" class="edge">
<title>Node7&#45;&gt;Node8</title>
<path fill="none" stroke="#191970" d="M179.3006,-46.092C192.1907,-48.0081 205.7704,-50.0267 218.3693,-51.8995"/>
<polygon fill="#191970" stroke="#191970" points="179.5488,-42.5905 169.1428,-44.582 178.5195,-49.5144 179.5488,-42.5905"/>
</g>
<!-- Node12 -->
<g id="node7" class="node">
<title>Node12</title>
<g id="a_node7"><a xlink:href="classSpikeBuffer_1_1SpikeIterator.html#a62ca91a5c80425f2cd4f6af0ca687e6a" target="_top" xlink:title="SpikeBuffer::SpikeIterator\l::operator++">
<polygon fill="#ffffff" stroke="#000000" points="205,-.5 205,-30.5 334,-30.5 334,-.5 205,-.5"/>
<text text-anchor="start" x="213" y="-18.5" font-family="Helvetica,sans-Serif" font-size="10.00" fill="#000000">SpikeBuffer::SpikeIterator</text>
<text text-anchor="middle" x="269.5" y="-7.5" font-family="Helvetica,sans-Serif" font-size="10.00" fill="#000000">::operator++</text>
</a>
</g>
</g>
<!-- Node7&#45;&gt;Node12 -->
<g id="edge8" class="edge">
<title>Node7&#45;&gt;Node12</title>
<path fill="none" stroke="#191970" d="M179.2451,-28.9163C187.6732,-27.6635 196.3972,-26.3666 204.95,-25.0953"/>
<polygon fill="#191970" stroke="#191970" points="178.5195,-25.4856 169.1428,-30.418 179.5488,-32.4095 178.5195,-25.4856"/>
</g>
<!-- Node9 -->
<g id="node4" class="node">
<title>Node9</title>
<g id="a_node4"><a xlink:href="classSNN.html#a3a42619b35349cd8d68f2ea21c865e36" target="_top" xlink:title="SNN::getConductanceConfig">
<polygon fill="#ffffff" stroke="#000000" points="514,-78 514,-97 658,-97 658,-78 514,-78"/>
<text text-anchor="middle" x="586" y="-85" font-family="Helvetica,sans-Serif" font-size="10.00" fill="#000000">SNN::getConductanceConfig</text>
</a>
</g>
</g>
<!-- Node8&#45;&gt;Node9 -->
<g id="edge3" class="edge">
<title>Node8&#45;&gt;Node9</title>
<path fill="none" stroke="#191970" d="M322.1718,-70.9478C337.5231,-73.879 354.371,-76.7066 370,-78.5 417.7285,-83.9766 471.7285,-86.2266 513.7963,-87.1075"/>
<polygon fill="#191970" stroke="#191970" points="322.8146,-67.5072 312.3278,-69.0164 321.4668,-74.3763 322.8146,-67.5072"/>
</g>
<!-- Node10 -->
<g id="node5" class="node">
<title>Node10</title>
<g id="a_node5"><a xlink:href="snn__manager_8cpp.html#af7e3c6ada8c131790477ada99ec34bc3" target="_top" xlink:title="compareDelay">
<polygon fill="#ffffff" stroke="#000000" points="546,-31 546,-50 626,-50 626,-31 546,-31"/>
<text text-anchor="middle" x="586" y="-38" font-family="Helvetica,sans-Serif" font-size="10.00" fill="#000000">compareDelay</text>
</a>
</g>
</g>
<!-- Node8&#45;&gt;Node10 -->
<g id="edge4" class="edge">
<title>Node8&#45;&gt;Node10</title>
<path fill="none" stroke="#191970" d="M320.429,-47.9617C336.2283,-44.8987 353.7569,-42.0219 370,-40.5 431.0451,-34.7802 502.2214,-36.3666 545.6875,-38.2597"/>
<polygon fill="#191970" stroke="#191970" points="319.443,-44.5897 310.3272,-49.9891 320.8205,-51.4529 319.443,-44.5897"/>
</g>
<!-- Node11 -->
<g id="node6" class="node">
<title>Node11</title>
<g id="a_node6"><a xlink:href="classSNN.html#aa1487d5e850f107e5b6890cf6933b7c1" target="_top" xlink:title="SNN::isPoint3DinRF">
<polygon fill="#ffffff" stroke="#000000" points="370,-50 370,-69 478,-69 478,-50 370,-50"/>
<text text-anchor="middle" x="424" y="-57" font-family="Helvetica,sans-Serif" font-size="10.00" fill="#000000">SNN::isPoint3DinRF</text>
</a>
</g>
</g>
<!-- Node8&#45;&gt;Node11 -->
<g id="edge5" class="edge">
<title>Node8&#45;&gt;Node11</title>
<path fill="none" stroke="#191970" d="M330.7221,-59.5C343.6507,-59.5 357.2059,-59.5 369.8515,-59.5"/>
<polygon fill="#191970" stroke="#191970" points="330.5173,-56.0001 320.5173,-59.5 330.5172,-63.0001 330.5173,-56.0001"/>
</g>
<!-- Node11&#45;&gt;Node9 -->
<g id="edge6" class="edge">
<title>Node11&#45;&gt;Node9</title>
<path fill="none" stroke="#191970" d="M488.478,-70.6443C502.5296,-73.073 517.274,-75.6214 530.9211,-77.9802"/>
<polygon fill="#191970" stroke="#191970" points="488.8443,-67.1558 478.3943,-68.9015 487.6521,-74.0536 488.8443,-67.1558"/>
</g>
<!-- Node11&#45;&gt;Node10 -->
<g id="edge7" class="edge">
<title>Node11&#45;&gt;Node10</title>
<path fill="none" stroke="#191970" d="M488.3891,-51.9482C507.7808,-49.6739 528.4998,-47.2438 545.838,-45.2104"/>
<polygon fill="#191970" stroke="#191970" points="487.9185,-48.4793 478.3943,-53.1204 488.734,-55.4316 487.9185,-48.4793"/>
</g>
</g>
</svg>
        <g id="navigator" transform="translate(0 0)" fill="#404254">
                <rect fill="#f2f5e9" fill-opacity="0.5" stroke="#606060" stroke-width=".5" x="0" y="0" width="60" height="60"/>
                <use id="zoomplus" xlink:href="#zoomPlus" x="17" y="9" onmousedown="handleZoom(evt,'in')"/>
                <use id="zoomminus" xlink:href="#zoomMin" x="42" y="9" onmousedown="handleZoom(evt,'out')"/>
                <use id="reset" xlink:href="#resetDef" x="30" y="36" onmousedown="handleReset()"/>
                <g id="arrowUp" xlink:href="#dirArrow" transform="translate(30 24)" onmousedown="handlePan(0,-1)">
                  <use xlink:href="#rim" fill="#404040">
                        <set attributeName="fill" to="#808080" begin="arrowUp.mouseover" end="arrowUp.mouseout"/>
                  </use>
                  <path fill="none" stroke="white" stroke-width="1.5" d="M0,-3.0v7 M-2.5,-0.5L0,-3.0L2.5,-0.5"/>
                </g>
                <g id="arrowRight" xlink:href="#dirArrow" transform="rotate(90) translate(36 -43)" onmousedown="handlePan(1,0)">
                  <use xlink:href="#rim" fill="#404040">
                        <set attributeName="fill" to="#808080" begin="arrowRight.mouseover" end="arrowRight.mouseout"/>
                  </use>
                  <path fill="none" stroke="white" stroke-width="1.5" d="M0,-3.0v7 M-2.5,-0.5L0,-3.0L2.5,-0.5"/>
                </g>
                <g id="arrowDown" xlink:href="#dirArrow" transform="rotate(180) translate(-30 -48)" onmousedown="handlePan(0,1)">
                  <use xlink:href="#rim" fill="#404040">
                        <set attributeName="fill" to="#808080" begin="arrowDown.mouseover" end="arrowDown.mouseout"/>
                  </use>
                  <path fill="none" stroke="white" stroke-width="1.5" d="M0,-3.0v7 M-2.5,-0.5L0,-3.0L2.5,-0.5"/>
                </g>
                <g id="arrowLeft" xlink:href="#dirArrow" transform="rotate(270) translate(-36 17)" onmousedown="handlePan(-1,0)">
                  <use xlink:href="#rim" fill="#404040">
                        <set attributeName="fill" to="#808080" begin="arrowLeft.mouseover" end="arrowLeft.mouseout"/>
                  </use>
                  <path fill="none" stroke="white" stroke-width="1.5" d="M0,-3.0v7 M-2.5,-0.5L0,-3.0L2.5,-0.5"/>
                </g>
        </g>
        <svg viewBox="0 0 15 15" width="100%" height="30px" preserveAspectRatio="xMaxYMin meet">
         <g id="arrow_out" transform="scale(0.3 0.3)">
          <a xlink:href="classSpikeBuffer_1_1Impl_afc0208313f3c3491b910a943c46c49d1_icgraph_org.svg" target="_base">
           <rect id="button" ry="5" rx="5" y="6" x="6" height="38" width="38"
                fill="#f2f5e9" fill-opacity="0.5" stroke="#606060" stroke-width="1.0"/>
           <path id="arrow"
             d="M 11.500037,31.436501 C 11.940474,20.09759 22.043105,11.32322 32.158766,21.979434 L 37.068811,17.246167 C 37.068811,17.246167 37.088388,32 37.088388,32 L 22.160133,31.978069 C 22.160133,31.978069 26.997745,27.140456 26.997745,27.140456 C 18.528582,18.264221 13.291696,25.230495 11.500037,31.436501 z"
             style="fill:#404040;"/>
          </a>
         </g>
        </svg>
</svg>
