<?xml version="1.0" encoding="UTF-8" standalone="no"?>
<!DOCTYPE svg PUBLIC "-//W3C//DTD SVG 1.1//EN"
 "http://www.w3.org/Graphics/SVG/1.1/DTD/svg11.dtd">
<!-- Generated by graphviz version 2.40.1 (20161225.0304)
 -->
<!-- Title: getNumConnections Pages: 1 -->
<svg width="408pt" height="28pt"
 viewBox="0.00 0.00 408.00 28.00" xmlns="http://www.w3.org/2000/svg" xmlns:xlink="http://www.w3.org/1999/xlink">
<g id="graph0" class="graph" transform="scale(1 1) rotate(0) translate(4 24)">
<title>getNumConnections</title>
<polygon fill="#ffffff" stroke="transparent" points="-4,4 -4,-24 404,-24 404,4 -4,4"/>
<!-- Node809 -->
<g id="node1" class="node">
<title>Node809</title>
<polygon fill="#bfbfbf" stroke="#000000" points="0,-.5 0,-19.5 106,-19.5 106,-.5 0,-.5"/>
<text text-anchor="middle" x="53" y="-7.5" font-family="Helvetica,sans-Serif" font-size="10.00" fill="#000000">getNumConnections</text>
</g>
<!-- Node810 -->
<g id="node2" class="node">
<title>Node810</title>
<g id="a_node2"><a xlink:href="classSNN.html#a52f149e224abff772962dea6680398e2" target="_top" xlink:title="gets number of connections associated with a connection ID ">
<polygon fill="#ffffff" stroke="#000000" points="142,-.5 142,-19.5 286,-19.5 286,-.5 142,-.5"/>
<text text-anchor="middle" x="214" y="-7.5" font-family="Helvetica,sans-Serif" font-size="10.00" fill="#000000">getNumSynapticConnections</text>
</a>
</g>
</g>
<!-- Node809&#45;&gt;Node810 -->
<g id="edge1" class="edge">
<title>Node809&#45;&gt;Node810</title>
<path fill="none" stroke="#191970" d="M106.1636,-10C114.3927,-10 123.0542,-10 131.7431,-10"/>
<polygon fill="#191970" stroke="#191970" points="131.9314,-13.5001 141.9313,-10 131.9313,-6.5001 131.9314,-13.5001"/>
</g>
<!-- Node811 -->
<g id="node3" class="node">
<title>Node811</title>
<g id="a_node3"><a xlink:href="classSNN.html#a477f99451786873b73e2623b6f89b766" target="_top" xlink:title="deallocates all dynamical structures and exits ">
<polygon fill="#ffffff" stroke="#000000" points="322,-.5 322,-19.5 400,-19.5 400,-.5 322,-.5"/>
<text text-anchor="middle" x="361" y="-7.5" font-family="Helvetica,sans-Serif" font-size="10.00" fill="#000000">exitSimulation</text>
</a>
</g>
</g>
<!-- Node810&#45;&gt;Node811 -->
<g id="edge2" class="edge">
<title>Node810&#45;&gt;Node811</title>
<path fill="none" stroke="#191970" d="M286.2081,-10C294.8871,-10 303.5901,-10 311.8329,-10"/>
<polygon fill="#191970" stroke="#191970" points="311.9912,-13.5001 321.9911,-10 311.9911,-6.5001 311.9912,-13.5001"/>
</g>
</g>
</svg>
