<?xml version="1.0" encoding="UTF-8" standalone="no"?>
<!DOCTYPE svg PUBLIC "-//W3C//DTD SVG 1.1//EN"
 "http://www.w3.org/Graphics/SVG/1.1/DTD/svg11.dtd">
<!-- Generated by graphviz version 2.40.1 (20161225.0304)
 -->
<!-- Title: setWeight Pages: 1 -->
<svg width="385pt" height="28pt"
 viewBox="0.00 0.00 385.00 28.00" xmlns="http://www.w3.org/2000/svg" xmlns:xlink="http://www.w3.org/1999/xlink">
<g id="graph0" class="graph" transform="scale(1 1) rotate(0) translate(4 24)">
<title>setWeight</title>
<polygon fill="#ffffff" stroke="transparent" points="-4,4 -4,-24 381,-24 381,4 -4,4"/>
<!-- Node1918 -->
<g id="node1" class="node">
<title>Node1918</title>
<polygon fill="#bfbfbf" stroke="#000000" points="0,-.5 0,-19.5 61,-19.5 61,-.5 0,-.5"/>
<text text-anchor="middle" x="30.5" y="-7.5" font-family="Helvetica,sans-Serif" font-size="10.00" fill="#000000">setWeight</text>
</g>
<!-- Node1919 -->
<g id="node2" class="node">
<title>Node1919</title>
<g id="a_node2"><a xlink:href="classCARLsim_1_1Impl.html#a8e9bda0e94ad99cf8ac306cf0b76b9d5" target="_top" xlink:title="CARLsim::Impl::setWeight">
<polygon fill="#ffffff" stroke="#000000" points="97,-.5 97,-19.5 231,-19.5 231,-.5 97,-.5"/>
<text text-anchor="middle" x="164" y="-7.5" font-family="Helvetica,sans-Serif" font-size="10.00" fill="#000000">CARLsim::Impl::setWeight</text>
</a>
</g>
</g>
<!-- Node1918&#45;&gt;Node1919 -->
<g id="edge1" class="edge">
<title>Node1918&#45;&gt;Node1919</title>
<path fill="none" stroke="#191970" d="M71.3523,-10C79.4302,-10 88.1069,-10 96.794,-10"/>
<polygon fill="#191970" stroke="#191970" points="71.1276,-6.5001 61.1276,-10 71.1276,-13.5001 71.1276,-6.5001"/>
</g>
<!-- Node1920 -->
<g id="node3" class="node">
<title>Node1920</title>
<g id="a_node3"><a xlink:href="classCARLsim.html#af67a432c859556cff7d6b1d59638ad01" target="_top" xlink:title="Sets the weight value of a specific synapse. ">
<polygon fill="#ffffff" stroke="#000000" points="267,-.5 267,-19.5 377,-19.5 377,-.5 267,-.5"/>
<text text-anchor="middle" x="322" y="-7.5" font-family="Helvetica,sans-Serif" font-size="10.00" fill="#000000">CARLsim::setWeight</text>
</a>
</g>
</g>
<!-- Node1919&#45;&gt;Node1920 -->
<g id="edge2" class="edge">
<title>Node1919&#45;&gt;Node1920</title>
<path fill="none" stroke="#191970" d="M241.1471,-10C249.8187,-10 258.52,-10 266.8329,-10"/>
<polygon fill="#191970" stroke="#191970" points="241.0063,-6.5001 231.0062,-10 241.0062,-13.5001 241.0063,-6.5001"/>
</g>
</g>
</svg>
