<?xml version="1.0" encoding="UTF-8" standalone="no"?>
<!DOCTYPE svg PUBLIC "-//W3C//DTD SVG 1.1//EN"
 "http://www.w3.org/Graphics/SVG/1.1/DTD/svg11.dtd">
<!-- Generated by graphviz version 2.40.1 (20161225.0304)
 -->
<!-- Title: setSpikeMonitor Pages: 1 -->
<svg width="403pt" height="39pt"
 viewBox="0.00 0.00 403.00 39.00" xmlns="http://www.w3.org/2000/svg" xmlns:xlink="http://www.w3.org/1999/xlink">
<g id="graph0" class="graph" transform="scale(1 1) rotate(0) translate(4 35)">
<title>setSpikeMonitor</title>
<polygon fill="#ffffff" stroke="transparent" points="-4,4 -4,-35 399,-35 399,4 -4,4"/>
<!-- Node1007 -->
<g id="node1" class="node">
<title>Node1007</title>
<polygon fill="#bfbfbf" stroke="#000000" points="0,-6 0,-25 87,-25 87,-6 0,-6"/>
<text text-anchor="middle" x="43.5" y="-13" font-family="Helvetica,sans-Serif" font-size="10.00" fill="#000000">setSpikeMonitor</text>
</g>
<!-- Node1008 -->
<g id="node2" class="node">
<title>Node1008</title>
<g id="a_node2"><a xlink:href="classSimpleWeightTuner_1_1Impl.html#ac1c93ba1766ad5ada73dea7ba499d541" target="_top" xlink:title="SimpleWeightTuner::\lImpl::setTargetFiringRate">
<polygon fill="#ffffff" stroke="#000000" points="123,-.5 123,-30.5 251,-30.5 251,-.5 123,-.5"/>
<text text-anchor="start" x="131" y="-18.5" font-family="Helvetica,sans-Serif" font-size="10.00" fill="#000000">SimpleWeightTuner::</text>
<text text-anchor="middle" x="187" y="-7.5" font-family="Helvetica,sans-Serif" font-size="10.00" fill="#000000">Impl::setTargetFiringRate</text>
</a>
</g>
</g>
<!-- Node1007&#45;&gt;Node1008 -->
<g id="edge1" class="edge">
<title>Node1007&#45;&gt;Node1008</title>
<path fill="none" stroke="#191970" d="M97.5671,-15.5C105.814,-15.5 114.3932,-15.5 122.8311,-15.5"/>
<polygon fill="#191970" stroke="#191970" points="97.3345,-12.0001 87.3345,-15.5 97.3344,-19.0001 97.3345,-12.0001"/>
</g>
<!-- Node1009 -->
<g id="node3" class="node">
<title>Node1009</title>
<g id="a_node3"><a xlink:href="classSimpleWeightTuner.html#ac1c93ba1766ad5ada73dea7ba499d541" target="_top" xlink:title="Sets up the target firing rate of a specific group. ">
<polygon fill="#ffffff" stroke="#000000" points="287,-.5 287,-30.5 395,-30.5 395,-.5 287,-.5"/>
<text text-anchor="start" x="295" y="-18.5" font-family="Helvetica,sans-Serif" font-size="10.00" fill="#000000">SimpleWeightTuner::</text>
<text text-anchor="middle" x="341" y="-7.5" font-family="Helvetica,sans-Serif" font-size="10.00" fill="#000000">setTargetFiringRate</text>
</a>
</g>
</g>
<!-- Node1008&#45;&gt;Node1009 -->
<g id="edge2" class="edge">
<title>Node1008&#45;&gt;Node1009</title>
<path fill="none" stroke="#191970" d="M261.6399,-15.5C270.0579,-15.5 278.5135,-15.5 286.6038,-15.5"/>
<polygon fill="#191970" stroke="#191970" points="261.4176,-12.0001 251.4176,-15.5 261.4175,-19.0001 261.4176,-12.0001"/>
</g>
</g>
</svg>
