<?xml version="1.0" encoding="UTF-8" standalone="no"?>
<!DOCTYPE svg PUBLIC "-//W3C//DTD SVG 1.1//EN"
 "http://www.w3.org/Graphics/SVG/1.1/DTD/svg11.dtd">
<!-- Generated by graphviz version 2.40.1 (20161225.0304)
 -->
<!-- Title: pushAER Pages: 1 -->
<svg width="948pt" height="457pt"
 viewBox="0.00 0.00 948.00 457.26" xmlns="http://www.w3.org/2000/svg" xmlns:xlink="http://www.w3.org/1999/xlink">
<g id="graph0" class="graph" transform="scale(1 1) rotate(0) translate(4 453.2625)">
<title>pushAER</title>
<polygon fill="#ffffff" stroke="transparent" points="-4,4 -4,-453.2625 944,-453.2625 944,4 -4,4"/>
<!-- Node1134 -->
<g id="node1" class="node">
<title>Node1134</title>
<polygon fill="#bfbfbf" stroke="#000000" points="0,-287.7625 0,-306.7625 59,-306.7625 59,-287.7625 0,-287.7625"/>
<text text-anchor="middle" x="29.5" y="-294.7625" font-family="Helvetica,sans-Serif" font-size="10.00" fill="#000000">pushAER</text>
</g>
<!-- Node1135 -->
<g id="node2" class="node">
<title>Node1135</title>
<g id="a_node2"><a xlink:href="classSpikeMonitorCore.html#a3a3ffdb35b09328d22e5d72503ed1f55" target="_top" xlink:title="returns recording status ">
<polygon fill="#ffffff" stroke="#000000" points="95,-287.7625 95,-306.7625 163,-306.7625 163,-287.7625 95,-287.7625"/>
<text text-anchor="middle" x="129" y="-294.7625" font-family="Helvetica,sans-Serif" font-size="10.00" fill="#000000">isRecording</text>
</a>
</g>
</g>
<!-- Node1134&#45;&gt;Node1135 -->
<g id="edge1" class="edge">
<title>Node1134&#45;&gt;Node1135</title>
<path fill="none" stroke="#191970" d="M59.0839,-291.0317C67.1539,-290.5931 76.0761,-290.4323 84.7705,-290.5496"/>
<polygon fill="#191970" stroke="#191970" points="84.7188,-294.0493 94.8078,-290.8148 84.9038,-287.0518 84.7188,-294.0493"/>
</g>
<!-- Node1141 -->
<g id="node8" class="node">
<title>Node1141</title>
<g id="a_node8"><a xlink:href="classSpikeMonitorCore.html#abe76071e1ac3632d55f2455b239b3d12" target="_top" xlink:title="returns recording mode ">
<polygon fill="#ffffff" stroke="#000000" points="886,-401.7625 886,-420.7625 940,-420.7625 940,-401.7625 886,-401.7625"/>
<text text-anchor="middle" x="913" y="-408.7625" font-family="Helvetica,sans-Serif" font-size="10.00" fill="#000000">getMode</text>
</a>
</g>
</g>
<!-- Node1134&#45;&gt;Node1141 -->
<g id="edge26" class="edge">
<title>Node1134&#45;&gt;Node1141</title>
<path fill="none" stroke="#191970" d="M34.8766,-306.7708C54.4748,-340.0473 125.7129,-449.2625 216.5,-449.2625 216.5,-449.2625 216.5,-449.2625 642,-449.2625 726.2267,-449.2625 823.7641,-431.0381 875.782,-419.831"/>
<polygon fill="#191970" stroke="#191970" points="876.8459,-423.181 885.8657,-417.6228 875.3485,-416.343 876.8459,-423.181"/>
</g>
<!-- Node1135&#45;&gt;Node1134 -->
<g id="edge25" class="edge">
<title>Node1135&#45;&gt;Node1134</title>
<path fill="none" stroke="#191970" d="M94.8078,-303.7101C86.5477,-304.0412 77.6513,-304.1004 69.1638,-303.8876"/>
<polygon fill="#191970" stroke="#191970" points="69.2131,-300.387 59.0839,-303.4933 68.9394,-307.3816 69.2131,-300.387"/>
</g>
<!-- Node1136 -->
<g id="node3" class="node">
<title>Node1136</title>
<g id="a_node3"><a xlink:href="classSpikeMonitorCore.html#af0ba89c38f6852cdf9d914687ad6a445" target="_top" xlink:title="prints the AER vector in human&#45;readable format ">
<polygon fill="#ffffff" stroke="#000000" points="199,-173.7625 199,-192.7625 234,-192.7625 234,-173.7625 199,-173.7625"/>
<text text-anchor="middle" x="216.5" y="-180.7625" font-family="Helvetica,sans-Serif" font-size="10.00" fill="#000000">print</text>
</a>
</g>
</g>
<!-- Node1135&#45;&gt;Node1136 -->
<g id="edge2" class="edge">
<title>Node1135&#45;&gt;Node1136</title>
<path fill="none" stroke="#191970" d="M133.9551,-287.4684C146.2441,-267.8235 178.5994,-224.9384 198.9598,-200.5839"/>
<polygon fill="#191970" stroke="#191970" points="201.7683,-202.685 205.6088,-192.8107 196.4488,-198.1349 201.7683,-202.685"/>
</g>
<!-- Node1136&#45;&gt;Node1135 -->
<g id="edge3" class="edge">
<title>Node1136&#45;&gt;Node1135</title>
<path fill="none" stroke="#191970" d="M211.6622,-192.8689C199.5073,-212.3558 167.2022,-255.1952 146.7638,-279.6734"/>
<polygon fill="#191970" stroke="#191970" points="143.9147,-277.6202 140.0819,-287.4975 149.2377,-282.1661 143.9147,-277.6202"/>
</g>
<!-- Node1137 -->
<g id="node4" class="node">
<title>Node1137</title>
<g id="a_node4"><a xlink:href="classSNN.html#a5fd2b156623d78138bcb44167eabab78" target="_top" xlink:title="SNN::getSimTime">
<polygon fill="#ffffff" stroke="#000000" points="276.5,-135.7625 276.5,-154.7625 373.5,-154.7625 373.5,-135.7625 276.5,-135.7625"/>
<text text-anchor="middle" x="325" y="-142.7625" font-family="Helvetica,sans-Serif" font-size="10.00" fill="#000000">SNN::getSimTime</text>
</a>
</g>
</g>
<!-- Node1136&#45;&gt;Node1137 -->
<g id="edge4" class="edge">
<title>Node1136&#45;&gt;Node1137</title>
<path fill="none" stroke="#191970" d="M234.3198,-176.8907C244.718,-173.1834 258.093,-168.4334 270,-164.2625 275.6804,-162.2727 281.6957,-160.18 287.5824,-158.1401"/>
<polygon fill="#191970" stroke="#191970" points="288.9792,-161.3605 297.286,-154.7843 286.6913,-154.7449 288.9792,-161.3605"/>
</g>
<!-- Node1138 -->
<g id="node5" class="node">
<title>Node1138</title>
<g id="a_node5"><a xlink:href="classSNN.html#ab0367f8ebd4019bf7d34ebddb1563fe7" target="_top" xlink:title="SNN::getGroupName">
<polygon fill="#ffffff" stroke="#000000" points="270,-173.7625 270,-192.7625 380,-192.7625 380,-173.7625 270,-173.7625"/>
<text text-anchor="middle" x="325" y="-180.7625" font-family="Helvetica,sans-Serif" font-size="10.00" fill="#000000">SNN::getGroupName</text>
</a>
</g>
</g>
<!-- Node1136&#45;&gt;Node1138 -->
<g id="edge5" class="edge">
<title>Node1136&#45;&gt;Node1138</title>
<path fill="none" stroke="#191970" d="M234.4166,-183.2625C241.5772,-183.2625 250.3009,-183.2625 259.4747,-183.2625"/>
<polygon fill="#191970" stroke="#191970" points="259.5531,-186.7626 269.5531,-183.2625 259.5531,-179.7626 259.5531,-186.7626"/>
</g>
<!-- Node1139 -->
<g id="node6" class="node">
<title>Node1139</title>
<g id="a_node6"><a xlink:href="classSpikeMonitorCore.html#af6c333e6cefff92d0e354eca70625cdc" target="_top" xlink:title="returns the total number of recorded spikes in the group ">
<polygon fill="#ffffff" stroke="#000000" points="593,-306.7625 593,-325.7625 691,-325.7625 691,-306.7625 593,-306.7625"/>
<text text-anchor="middle" x="642" y="-313.7625" font-family="Helvetica,sans-Serif" font-size="10.00" fill="#000000">getPopNumSpikes</text>
</a>
</g>
</g>
<!-- Node1136&#45;&gt;Node1139 -->
<g id="edge6" class="edge">
<title>Node1136&#45;&gt;Node1139</title>
<path fill="none" stroke="#191970" d="M234.266,-189.7922C244.6463,-193.5521 258.0213,-198.3021 270,-202.2625 388.587,-241.4696 529.9391,-283.513 599.303,-303.841"/>
<polygon fill="#191970" stroke="#191970" points="598.4229,-307.2302 609.0035,-306.6797 600.389,-300.512 598.4229,-307.2302"/>
</g>
<!-- Node1142 -->
<g id="node9" class="node">
<title>Node1142</title>
<g id="a_node9"><a xlink:href="classSpikeMonitorCore.html#a9cf20c30ff0efdbc5e3c5194648a7fb3" target="_top" xlink:title="returns the total recorded time in ms ">
<polygon fill="#ffffff" stroke="#000000" points="583,-59.7625 583,-78.7625 701,-78.7625 701,-59.7625 583,-59.7625"/>
<text text-anchor="middle" x="642" y="-66.7625" font-family="Helvetica,sans-Serif" font-size="10.00" fill="#000000">getRecordingTotalTime</text>
</a>
</g>
</g>
<!-- Node1136&#45;&gt;Node1142 -->
<g id="edge11" class="edge">
<title>Node1136&#45;&gt;Node1142</title>
<path fill="none" stroke="#191970" d="M220.2092,-173.6683C227.1697,-157.1111 243.885,-123.4873 270,-108.2625 363.8221,-53.5652 493.822,-53.6894 572.6891,-60.3506"/>
<polygon fill="#191970" stroke="#191970" points="572.7202,-63.8676 582.9949,-61.283 573.351,-56.8961 572.7202,-63.8676"/>
</g>
<!-- Node1143 -->
<g id="node10" class="node">
<title>Node1143</title>
<g id="a_node10"><a xlink:href="classSpikeMonitorCore.html#ae62d623e8edfc6b05309256c1d825bbd" target="_top" xlink:title="returns the recorded mean firing rate of the group ">
<polygon fill="#ffffff" stroke="#000000" points="423.5,-211.7625 423.5,-230.7625 539.5,-230.7625 539.5,-211.7625 423.5,-211.7625"/>
<text text-anchor="middle" x="481.5" y="-218.7625" font-family="Helvetica,sans-Serif" font-size="10.00" fill="#000000">getPopMeanFiringRate</text>
</a>
</g>
</g>
<!-- Node1136&#45;&gt;Node1143 -->
<g id="edge12" class="edge">
<title>Node1136&#45;&gt;Node1143</title>
<path fill="none" stroke="#191970" d="M221.9183,-173.7403C230.2391,-160.2047 247.5809,-135.9674 270,-126.2625 314.8656,-106.8408 334.5294,-108.3028 380,-126.2625 419.2389,-141.7608 452.2141,-180.3851 469.1855,-203.329"/>
<polygon fill="#191970" stroke="#191970" points="466.4048,-205.4574 475.0752,-211.5463 472.0943,-201.3795 466.4048,-205.4574"/>
</g>
<!-- Node1144 -->
<g id="node11" class="node">
<title>Node1144</title>
<g id="a_node11"><a xlink:href="classSpikeMonitorCore.html#ad0c4b32bb5cc0c7a8d95ed6023a2695f" target="_top" xlink:title="computes the standard deviation of firing rates in the group ">
<polygon fill="#ffffff" stroke="#000000" points="271.5,-287.7625 271.5,-306.7625 378.5,-306.7625 378.5,-287.7625 271.5,-287.7625"/>
<text text-anchor="middle" x="325" y="-294.7625" font-family="Helvetica,sans-Serif" font-size="10.00" fill="#000000">getPopStdFiringRate</text>
</a>
</g>
</g>
<!-- Node1136&#45;&gt;Node1144 -->
<g id="edge16" class="edge">
<title>Node1136&#45;&gt;Node1144</title>
<path fill="none" stroke="#191970" d="M219.9525,-192.9955C226.8213,-211.0923 243.8301,-250.1721 270,-273.2625 274.404,-277.1483 279.5356,-280.4865 284.8607,-283.3299"/>
<polygon fill="#191970" stroke="#191970" points="283.3793,-286.5011 293.9109,-287.6573 286.399,-280.1859 283.3793,-286.5011"/>
</g>
<!-- Node1146 -->
<g id="node13" class="node">
<title>Node1146</title>
<g id="a_node13"><a xlink:href="classSpikeMonitorCore.html#aed09edf4583ac05d42fccc7e3556e3c5" target="_top" xlink:title="returns the recorded mean firing rate for a specific neuron ">
<polygon fill="#ffffff" stroke="#000000" points="416,-21.7625 416,-40.7625 547,-40.7625 547,-21.7625 416,-21.7625"/>
<text text-anchor="middle" x="481.5" y="-28.7625" font-family="Helvetica,sans-Serif" font-size="10.00" fill="#000000">getNeuronMeanFiringRate</text>
</a>
</g>
</g>
<!-- Node1136&#45;&gt;Node1146 -->
<g id="edge21" class="edge">
<title>Node1136&#45;&gt;Node1146</title>
<path fill="none" stroke="#191970" d="M217.3225,-173.5757C219.9601,-149.1532 230.5134,-84.9048 270,-55.2625 308.2481,-26.5499 361.8779,-20.7345 405.562,-22.0033"/>
<polygon fill="#191970" stroke="#191970" points="405.4399,-25.5012 415.5772,-22.4213 405.7319,-18.5073 405.4399,-25.5012"/>
</g>
<!-- Node1139&#45;&gt;Node1135 -->
<g id="edge7" class="edge">
<title>Node1139&#45;&gt;Node1135</title>
<path fill="none" stroke="#191970" d="M603.4345,-325.7725C586.2733,-329.5375 565.7464,-333.4062 547,-335.2625 393.0346,-350.5081 349.3376,-362.819 199,-326.2625 184.5364,-322.7455 169.1826,-316.6716 156.5515,-310.9884"/>
<polygon fill="#191970" stroke="#191970" points="158.0259,-307.8142 147.4829,-306.7674 155.072,-314.1604 158.0259,-307.8142"/>
</g>
<!-- Node1140 -->
<g id="node7" class="node">
<title>Node1140</title>
<g id="a_node7"><a xlink:href="classSpikeMonitorCore.html#a005a2f884f6260054483d4fa6ed6ddbb" target="_top" xlink:title="returns the number of recorded spikes of a specific neuron ">
<polygon fill="#ffffff" stroke="#000000" points="737,-382.7625 737,-401.7625 850,-401.7625 850,-382.7625 737,-382.7625"/>
<text text-anchor="middle" x="793.5" y="-389.7625" font-family="Helvetica,sans-Serif" font-size="10.00" fill="#000000">getNeuronNumSpikes</text>
</a>
</g>
</g>
<!-- Node1139&#45;&gt;Node1140 -->
<g id="edge8" class="edge">
<title>Node1139&#45;&gt;Node1140</title>
<path fill="none" stroke="#191970" d="M661.1876,-325.8879C687.4834,-339.0792 734.907,-362.8693 765.2612,-378.0965"/>
<polygon fill="#191970" stroke="#191970" points="763.9604,-381.3596 774.4682,-382.7152 767.0992,-375.1028 763.9604,-381.3596"/>
</g>
<!-- Node1140&#45;&gt;Node1135 -->
<g id="edge9" class="edge">
<title>Node1140&#45;&gt;Node1135</title>
<path fill="none" stroke="#191970" d="M736.9151,-397.7836C674.4547,-403.3934 570.9049,-411.2625 481.5,-411.2625 325,-411.2625 325,-411.2625 325,-411.2625 248.7919,-411.2625 175.7569,-346.0685 144.6775,-314.2832"/>
<polygon fill="#191970" stroke="#191970" points="147.1417,-311.7958 137.7036,-306.9821 142.0798,-316.6309 147.1417,-311.7958"/>
</g>
<!-- Node1140&#45;&gt;Node1141 -->
<g id="edge10" class="edge">
<title>Node1140&#45;&gt;Node1141</title>
<path fill="none" stroke="#191970" d="M850.1004,-401.2617C858.8383,-402.651 867.6663,-404.0546 875.834,-405.3532"/>
<polygon fill="#191970" stroke="#191970" points="875.3447,-408.8193 885.7703,-406.9331 876.444,-401.9062 875.3447,-408.8193"/>
</g>
<!-- Node1143&#45;&gt;Node1135 -->
<g id="edge13" class="edge">
<title>Node1143&#45;&gt;Node1135</title>
<path fill="none" stroke="#191970" d="M437.2338,-230.8064C369.447,-245.4214 240.688,-273.1822 173.0382,-287.7677"/>
<polygon fill="#191970" stroke="#191970" points="172.1572,-284.3772 163.1195,-289.9062 173.6325,-291.2199 172.1572,-284.3772"/>
</g>
<!-- Node1143&#45;&gt;Node1139 -->
<g id="edge14" class="edge">
<title>Node1143&#45;&gt;Node1139</title>
<path fill="none" stroke="#191970" d="M513.2945,-230.8263C524.274,-234.6677 536.4581,-239.551 547,-245.2625 575.7301,-260.8282 605.3471,-284.3793 623.7109,-300.0339"/>
<polygon fill="#191970" stroke="#191970" points="621.4613,-302.7157 631.3129,-306.6138 626.0424,-297.4229 621.4613,-302.7157"/>
</g>
<!-- Node1143&#45;&gt;Node1142 -->
<g id="edge15" class="edge">
<title>Node1143&#45;&gt;Node1142</title>
<path fill="none" stroke="#191970" d="M491.54,-211.7542C518.2244,-186.483 591.1543,-117.4154 624.6995,-85.6468"/>
<polygon fill="#191970" stroke="#191970" points="627.1097,-88.1847 631.9638,-78.7672 622.2964,-83.1021 627.1097,-88.1847"/>
</g>
<!-- Node1144&#45;&gt;Node1135 -->
<g id="edge17" class="edge">
<title>Node1144&#45;&gt;Node1135</title>
<path fill="none" stroke="#191970" d="M271.3126,-297.2625C240.5655,-297.2625 202.4468,-297.2625 173.4008,-297.2625"/>
<polygon fill="#191970" stroke="#191970" points="173.1406,-293.7626 163.1406,-297.2625 173.1406,-300.7626 173.1406,-293.7626"/>
</g>
<!-- Node1144&#45;&gt;Node1143 -->
<g id="edge18" class="edge">
<title>Node1144&#45;&gt;Node1143</title>
<path fill="none" stroke="#191970" d="M344.8208,-287.637C372.1021,-274.3886 421.3978,-250.4495 452.7354,-235.2312"/>
<polygon fill="#191970" stroke="#191970" points="454.3736,-238.3266 461.8401,-230.8098 451.3157,-232.0298 454.3736,-238.3266"/>
</g>
<!-- Node1145 -->
<g id="node12" class="node">
<title>Node1145</title>
<g id="a_node12"><a xlink:href="classSpikeMonitorCore.html#a0fc20fcc5876030d796debd148ae7cee" target="_top" xlink:title="returns a list of firing rates for all neurons in the group (sorted by neuron ID ascending) ...">
<polygon fill="#ffffff" stroke="#000000" points="435.5,-306.7625 435.5,-325.7625 527.5,-325.7625 527.5,-306.7625 435.5,-306.7625"/>
<text text-anchor="middle" x="481.5" y="-313.7625" font-family="Helvetica,sans-Serif" font-size="10.00" fill="#000000">getAllFiringRates</text>
</a>
</g>
</g>
<!-- Node1144&#45;&gt;Node1145 -->
<g id="edge19" class="edge">
<title>Node1144&#45;&gt;Node1145</title>
<path fill="none" stroke="#191970" d="M378.8584,-303.8012C393.801,-305.6153 410.0621,-307.5895 425.1433,-309.4205"/>
<polygon fill="#191970" stroke="#191970" points="425.0159,-312.9306 435.3649,-310.6614 425.8596,-305.9816 425.0159,-312.9306"/>
</g>
<!-- Node1145&#45;&gt;Node1135 -->
<g id="edge20" class="edge">
<title>Node1145&#45;&gt;Node1135</title>
<path fill="none" stroke="#191970" d="M435.2565,-318.7165C379.1029,-320.9443 281.6439,-322.391 199,-311.2625 190.525,-310.1213 181.5333,-308.5782 172.919,-306.9328"/>
<polygon fill="#191970" stroke="#191970" points="173.5235,-303.4846 163.0336,-304.9721 172.1616,-310.3508 173.5235,-303.4846"/>
</g>
<!-- Node1146&#45;&gt;Node1135 -->
<g id="edge22" class="edge">
<title>Node1146&#45;&gt;Node1135</title>
<path fill="none" stroke="#191970" d="M457.7938,-21.7524C416.285,-6.7638 329.2334,17.1113 270,-19.2625 174.1913,-78.0962 141.0254,-224.5302 131.9275,-277.6328"/>
<polygon fill="#191970" stroke="#191970" points="128.4338,-277.3136 130.2983,-287.7431 135.3447,-278.4273 128.4338,-277.3136"/>
</g>
<!-- Node1146&#45;&gt;Node1140 -->
<g id="edge23" class="edge">
<title>Node1146&#45;&gt;Node1140</title>
<path fill="none" stroke="#191970" d="M524.8758,-21.696C573.5208,-13.6832 651.9998,-9.2827 701,-50.2625 751.8468,-92.7865 782.6424,-306.126 791.1081,-372.5132"/>
<polygon fill="#191970" stroke="#191970" points="787.6426,-373.0077 792.3528,-382.498 794.5888,-372.1418 787.6426,-373.0077"/>
</g>
<!-- Node1146&#45;&gt;Node1142 -->
<g id="edge24" class="edge">
<title>Node1146&#45;&gt;Node1142</title>
<path fill="none" stroke="#191970" d="M522.0009,-40.8515C543.1806,-45.866 569.3022,-52.0506 591.7604,-57.3677"/>
<polygon fill="#191970" stroke="#191970" points="591.2529,-60.8443 601.7903,-59.7424 592.8657,-54.0326 591.2529,-60.8443"/>
</g>
</g>
</svg>
