<?xml version="1.0" encoding="UTF-8" standalone="no"?>
<!DOCTYPE svg PUBLIC "-//W3C//DTD SVG 1.1//EN"
 "http://www.w3.org/Graphics/SVG/1.1/DTD/svg11.dtd">
<!-- Generated by graphviz version 2.40.1 (20161225.0304)
 -->
<!-- Title: runNetwork Pages: 1 -->
<svg width="515pt" height="39pt"
 viewBox="0.00 0.00 515.00 39.00" xmlns="http://www.w3.org/2000/svg" xmlns:xlink="http://www.w3.org/1999/xlink">
<g id="graph0" class="graph" transform="scale(1 1) rotate(0) translate(4 35)">
<title>runNetwork</title>
<polygon fill="#ffffff" stroke="transparent" points="-4,4 -4,-35 511,-35 511,4 -4,4"/>
<!-- Node705 -->
<g id="node1" class="node">
<title>Node705</title>
<polygon fill="#bfbfbf" stroke="#000000" points="0,-6 0,-25 67,-25 67,-6 0,-6"/>
<text text-anchor="middle" x="33.5" y="-13" font-family="Helvetica,sans-Serif" font-size="10.00" fill="#000000">runNetwork</text>
</g>
<!-- Node706 -->
<g id="node2" class="node">
<title>Node706</title>
<g id="a_node2"><a xlink:href="classCARLsim.html#aafb2d44405c96aafe089f96ff867018d" target="_top" xlink:title="run the simulation for time=(nSec*seconds + nMsec*milliseconds) ">
<polygon fill="#ffffff" stroke="#000000" points="103,-6 103,-25 219,-25 219,-6 103,-6"/>
<text text-anchor="middle" x="161" y="-13" font-family="Helvetica,sans-Serif" font-size="10.00" fill="#000000">CARLsim::runNetwork</text>
</a>
</g>
</g>
<!-- Node705&#45;&gt;Node706 -->
<g id="edge1" class="edge">
<title>Node705&#45;&gt;Node706</title>
<path fill="none" stroke="#191970" d="M77.4109,-15.5C85.6094,-15.5 94.2942,-15.5 102.8437,-15.5"/>
<polygon fill="#191970" stroke="#191970" points="77.333,-12.0001 67.3329,-15.5 77.3329,-19.0001 77.333,-12.0001"/>
</g>
<!-- Node707 -->
<g id="node3" class="node">
<title>Node707</title>
<g id="a_node3"><a xlink:href="classSimpleWeightTuner_1_1Impl.html#a312d84bfa66a5036bb52a4c39db6fa6c" target="_top" xlink:title="SimpleWeightTuner::\lImpl::iterate">
<polygon fill="#ffffff" stroke="#000000" points="255,-.5 255,-30.5 363,-30.5 363,-.5 255,-.5"/>
<text text-anchor="start" x="263" y="-18.5" font-family="Helvetica,sans-Serif" font-size="10.00" fill="#000000">SimpleWeightTuner::</text>
<text text-anchor="middle" x="309" y="-7.5" font-family="Helvetica,sans-Serif" font-size="10.00" fill="#000000">Impl::iterate</text>
</a>
</g>
</g>
<!-- Node706&#45;&gt;Node707 -->
<g id="edge2" class="edge">
<title>Node706&#45;&gt;Node707</title>
<path fill="none" stroke="#191970" d="M229.1513,-15.5C237.8066,-15.5 246.5692,-15.5 254.9617,-15.5"/>
<polygon fill="#191970" stroke="#191970" points="229.0688,-12.0001 219.0687,-15.5 229.0687,-19.0001 229.0688,-12.0001"/>
</g>
<!-- Node708 -->
<g id="node4" class="node">
<title>Node708</title>
<g id="a_node4"><a xlink:href="classSimpleWeightTuner.html#a0df985e3ff7a27edc1e2e3fcc8261843" target="_top" xlink:title="Performs an iteration step of the tuning algorithm. ">
<polygon fill="#ffffff" stroke="#000000" points="399,-.5 399,-30.5 507,-30.5 507,-.5 399,-.5"/>
<text text-anchor="start" x="407" y="-18.5" font-family="Helvetica,sans-Serif" font-size="10.00" fill="#000000">SimpleWeightTuner::</text>
<text text-anchor="middle" x="453" y="-7.5" font-family="Helvetica,sans-Serif" font-size="10.00" fill="#000000">iterate</text>
</a>
</g>
</g>
<!-- Node707&#45;&gt;Node708 -->
<g id="edge3" class="edge">
<title>Node707&#45;&gt;Node708</title>
<path fill="none" stroke="#191970" d="M373.2702,-15.5C381.7504,-15.5 390.3754,-15.5 398.6672,-15.5"/>
<polygon fill="#191970" stroke="#191970" points="373.03,-12.0001 363.03,-15.5 373.0299,-19.0001 373.03,-12.0001"/>
</g>
</g>
</svg>
