<?xml version="1.0" encoding="UTF-8" standalone="no"?>
<!DOCTYPE svg PUBLIC "-//W3C//DTD SVG 1.1//EN"
 "http://www.w3.org/Graphics/SVG/1.1/DTD/svg11.dtd">
<!-- Generated by graphviz version 2.40.1 (20161225.0304)
 -->
<!-- Title: connectCompartments Pages: 1 -->
<svg width="635pt" height="218pt"
 viewBox="0.00 0.00 635.00 218.00" xmlns="http://www.w3.org/2000/svg" xmlns:xlink="http://www.w3.org/1999/xlink">
<g id="graph0" class="graph" transform="scale(1 1) rotate(0) translate(4 214)">
<title>connectCompartments</title>
<polygon fill="#ffffff" stroke="transparent" points="-4,4 -4,-214 631,-214 631,4 -4,4"/>
<!-- Node57 -->
<g id="node1" class="node">
<title>Node57</title>
<polygon fill="#bfbfbf" stroke="#000000" points="0,-95.5 0,-114.5 116,-114.5 116,-95.5 0,-95.5"/>
<text text-anchor="middle" x="58" y="-102.5" font-family="Helvetica,sans-Serif" font-size="10.00" fill="#000000">connectCompartments</text>
</g>
<!-- Node58 -->
<g id="node2" class="node">
<title>Node58</title>
<g id="a_node2"><a xlink:href="classUserErrors.html#a4bbedc6c0817d5e59e74e450bf00472c" target="_top" xlink:title="simple wrapper for assert statement ">
<polygon fill="#ffffff" stroke="#000000" points="352,-190.5 352,-209.5 468,-209.5 468,-190.5 352,-190.5"/>
<text text-anchor="middle" x="410" y="-197.5" font-family="Helvetica,sans-Serif" font-size="10.00" fill="#000000">UserErrors::assertTrue</text>
</a>
</g>
</g>
<!-- Node57&#45;&gt;Node58 -->
<g id="edge1" class="edge">
<title>Node57&#45;&gt;Node58</title>
<path fill="none" stroke="#191970" d="M66.1288,-114.625C81.1026,-131.5728 114.9223,-166.332 152,-181 213.0104,-205.1359 288.4042,-207.9128 341.8986,-205.848"/>
<polygon fill="#191970" stroke="#191970" points="342.1274,-209.3414 351.959,-205.3929 341.811,-202.3485 342.1274,-209.3414"/>
</g>
<!-- Node59 -->
<g id="node3" class="node">
<title>Node59</title>
<g id="a_node3"><a xlink:href="classCARLsim_1_1Impl.html#a292bdee57fec7c77ec4c15ea3f508d60" target="_top" xlink:title="getNumGroups">
<polygon fill="#ffffff" stroke="#000000" points="368.5,-114.5 368.5,-133.5 451.5,-133.5 451.5,-114.5 368.5,-114.5"/>
<text text-anchor="middle" x="410" y="-121.5" font-family="Helvetica,sans-Serif" font-size="10.00" fill="#000000">getNumGroups</text>
</a>
</g>
</g>
<!-- Node57&#45;&gt;Node59 -->
<g id="edge2" class="edge">
<title>Node57&#45;&gt;Node59</title>
<path fill="none" stroke="#191970" d="M116.043,-102.1378C165.7656,-100.3698 239.2322,-99.3823 303,-105 321.1459,-106.5986 340.8244,-109.694 358.2982,-112.9297"/>
<polygon fill="#191970" stroke="#191970" points="357.8244,-116.4024 368.3035,-114.8409 359.1378,-109.5267 357.8244,-116.4024"/>
</g>
<!-- Node61 -->
<g id="node5" class="node">
<title>Node61</title>
<g id="a_node5"><a xlink:href="classCARLsim_1_1Impl.html#ae136e178382096490a2d34f78cd2afa2" target="_top" xlink:title="isPoissonGroup">
<polygon fill="#ffffff" stroke="#000000" points="184.5,-114.5 184.5,-133.5 270.5,-133.5 270.5,-114.5 184.5,-114.5"/>
<text text-anchor="middle" x="227.5" y="-121.5" font-family="Helvetica,sans-Serif" font-size="10.00" fill="#000000">isPoissonGroup</text>
</a>
</g>
</g>
<!-- Node57&#45;&gt;Node61 -->
<g id="edge4" class="edge">
<title>Node57&#45;&gt;Node61</title>
<path fill="none" stroke="#191970" d="M116.3323,-111.5387C135.1586,-113.649 155.9173,-115.976 174.3488,-118.042"/>
<polygon fill="#191970" stroke="#191970" points="173.9943,-121.5242 184.322,-119.16 174.7742,-114.5677 173.9943,-121.5242"/>
</g>
<!-- Node63 -->
<g id="node7" class="node">
<title>Node63</title>
<g id="a_node7"><a xlink:href="classCARLsim_1_1Impl.html#ad85b898d98abe24dcae4390f0fe61e84" target="_top" xlink:title="getGroupNumNeurons">
<polygon fill="#ffffff" stroke="#000000" points="170.5,-152.5 170.5,-171.5 284.5,-171.5 284.5,-152.5 170.5,-152.5"/>
<text text-anchor="middle" x="227.5" y="-159.5" font-family="Helvetica,sans-Serif" font-size="10.00" fill="#000000">getGroupNumNeurons</text>
</a>
</g>
</g>
<!-- Node57&#45;&gt;Node63 -->
<g id="edge8" class="edge">
<title>Node57&#45;&gt;Node63</title>
<path fill="none" stroke="#191970" d="M79.3422,-114.6102C98.1943,-122.8611 126.5636,-134.7016 152,-143 159.4991,-145.4465 167.5027,-147.765 175.3911,-149.8866"/>
<polygon fill="#191970" stroke="#191970" points="174.7153,-153.3274 185.2749,-152.4636 176.4814,-146.5538 174.7153,-153.3274"/>
</g>
<!-- Node65 -->
<g id="node9" class="node">
<title>Node65</title>
<g id="a_node9"><a xlink:href="classCARLsim_1_1Impl.html#a5c117765c2b542aa29975fc10830556d" target="_top" xlink:title="getMaxNumCompConnections">
<polygon fill="#ffffff" stroke="#000000" points="152,-.5 152,-19.5 303,-19.5 303,-.5 152,-.5"/>
<text text-anchor="middle" x="227.5" y="-7.5" font-family="Helvetica,sans-Serif" font-size="10.00" fill="#000000">getMaxNumCompConnections</text>
</a>
</g>
</g>
<!-- Node57&#45;&gt;Node65 -->
<g id="edge12" class="edge">
<title>Node57&#45;&gt;Node65</title>
<path fill="none" stroke="#191970" d="M66.9024,-95.4934C82.5541,-79.3529 116.7038,-46.6293 152,-29 156.8368,-26.5842 162.0053,-24.4594 167.2839,-22.5938"/>
<polygon fill="#191970" stroke="#191970" points="168.412,-25.9076 176.8562,-19.5085 166.2646,-19.2451 168.412,-25.9076"/>
</g>
<!-- Node66 -->
<g id="node10" class="node">
<title>Node66</title>
<g id="a_node10"><a xlink:href="classSNN.html#a7ce184c0de7c3d3c80b27a1ea7bb3e59" target="_top" xlink:title="SNN::connectCompartments">
<polygon fill="#ffffff" stroke="#000000" points="156,-38.5 156,-57.5 299,-57.5 299,-38.5 156,-38.5"/>
<text text-anchor="middle" x="227.5" y="-45.5" font-family="Helvetica,sans-Serif" font-size="10.00" fill="#000000">SNN::connectCompartments</text>
</a>
</g>
</g>
<!-- Node57&#45;&gt;Node66 -->
<g id="edge13" class="edge">
<title>Node57&#45;&gt;Node66</title>
<path fill="none" stroke="#191970" d="M84.6689,-95.3993C103.4465,-88.6979 129.1997,-79.6242 152,-72 163.2994,-68.2216 175.5966,-64.2523 186.9225,-60.6538"/>
<polygon fill="#191970" stroke="#191970" points="188.0968,-63.9534 196.5762,-57.6012 185.9862,-57.2791 188.0968,-63.9534"/>
</g>
<!-- Node60 -->
<g id="node4" class="node">
<title>Node60</title>
<g id="a_node4"><a xlink:href="classSNN.html#a292bdee57fec7c77ec4c15ea3f508d60" target="_top" xlink:title="SNN::getNumGroups">
<polygon fill="#ffffff" stroke="#000000" points="517,-114.5 517,-133.5 627,-133.5 627,-114.5 517,-114.5"/>
<text text-anchor="middle" x="572" y="-121.5" font-family="Helvetica,sans-Serif" font-size="10.00" fill="#000000">SNN::getNumGroups</text>
</a>
</g>
</g>
<!-- Node59&#45;&gt;Node60 -->
<g id="edge3" class="edge">
<title>Node59&#45;&gt;Node60</title>
<path fill="none" stroke="#191970" d="M451.719,-124C468.4884,-124 488.2215,-124 506.8007,-124"/>
<polygon fill="#191970" stroke="#191970" points="506.9776,-127.5001 516.9776,-124 506.9776,-120.5001 506.9776,-127.5001"/>
</g>
<!-- Node61&#45;&gt;Node58 -->
<g id="edge5" class="edge">
<title>Node61&#45;&gt;Node58</title>
<path fill="none" stroke="#191970" d="M270.6778,-130.4395C281.7037,-133.2485 293.2009,-137.2654 303,-143 323.0789,-154.7505 319.0095,-169.0999 339,-181 342.6388,-183.1662 346.5274,-185.09 350.5399,-186.7979"/>
<polygon fill="#191970" stroke="#191970" points="349.4763,-190.1376 360.0678,-190.4037 351.954,-183.5908 349.4763,-190.1376"/>
</g>
<!-- Node61&#45;&gt;Node59 -->
<g id="edge6" class="edge">
<title>Node61&#45;&gt;Node59</title>
<path fill="none" stroke="#191970" d="M270.75,-124C296.9202,-124 330.4542,-124 358.0561,-124"/>
<polygon fill="#191970" stroke="#191970" points="358.3167,-127.5001 368.3167,-124 358.3167,-120.5001 358.3167,-127.5001"/>
</g>
<!-- Node62 -->
<g id="node6" class="node">
<title>Node62</title>
<g id="a_node6"><a xlink:href="classSNN.html#a3764348d44236ad4932627cd4d199c31" target="_top" xlink:title="SNN::isPoissonGroup">
<polygon fill="#ffffff" stroke="#000000" points="353.5,-57.5 353.5,-76.5 466.5,-76.5 466.5,-57.5 353.5,-57.5"/>
<text text-anchor="middle" x="410" y="-64.5" font-family="Helvetica,sans-Serif" font-size="10.00" fill="#000000">SNN::isPoissonGroup</text>
</a>
</g>
</g>
<!-- Node61&#45;&gt;Node62 -->
<g id="edge7" class="edge">
<title>Node61&#45;&gt;Node62</title>
<path fill="none" stroke="#191970" d="M258.0464,-114.4595C288.7082,-104.8829 336.1053,-90.0795 369.8042,-79.5543"/>
<polygon fill="#191970" stroke="#191970" points="370.8521,-82.8938 379.3539,-76.5716 368.7652,-76.2121 370.8521,-82.8938"/>
</g>
<!-- Node63&#45;&gt;Node58 -->
<g id="edge9" class="edge">
<title>Node63&#45;&gt;Node58</title>
<path fill="none" stroke="#191970" d="M273.5525,-171.589C298.0692,-176.6939 328.4096,-183.0113 354.2502,-188.3918"/>
<polygon fill="#191970" stroke="#191970" points="353.7752,-191.8679 364.2787,-190.4799 355.2022,-185.0149 353.7752,-191.8679"/>
</g>
<!-- Node63&#45;&gt;Node59 -->
<g id="edge10" class="edge">
<title>Node63&#45;&gt;Node59</title>
<path fill="none" stroke="#191970" d="M273.5525,-152.411C299.3949,-147.0301 331.7078,-140.3019 358.401,-134.7439"/>
<polygon fill="#191970" stroke="#191970" points="359.2545,-138.1413 368.331,-132.6763 357.8275,-131.2883 359.2545,-138.1413"/>
</g>
<!-- Node64 -->
<g id="node8" class="node">
<title>Node64</title>
<g id="a_node8"><a xlink:href="classSNN.html#a11e19a0ccbeca92ba843a5933b3321e0" target="_top" xlink:title="SNN::getGroupNumNeurons">
<polygon fill="#ffffff" stroke="#000000" points="339,-152.5 339,-171.5 481,-171.5 481,-152.5 339,-152.5"/>
<text text-anchor="middle" x="410" y="-159.5" font-family="Helvetica,sans-Serif" font-size="10.00" fill="#000000">SNN::getGroupNumNeurons</text>
</a>
</g>
</g>
<!-- Node63&#45;&gt;Node64 -->
<g id="edge11" class="edge">
<title>Node63&#45;&gt;Node64</title>
<path fill="none" stroke="#191970" d="M284.7434,-162C298.6725,-162 313.8353,-162 328.6462,-162"/>
<polygon fill="#191970" stroke="#191970" points="328.8242,-165.5001 338.8242,-162 328.8242,-158.5001 328.8242,-165.5001"/>
</g>
<!-- Node66&#45;&gt;Node62 -->
<g id="edge14" class="edge">
<title>Node66&#45;&gt;Node62</title>
<path fill="none" stroke="#191970" d="M299.105,-55.4548C313.5692,-56.9606 328.7246,-58.5385 343.0226,-60.027"/>
<polygon fill="#191970" stroke="#191970" points="342.9515,-63.5384 353.2602,-61.0928 343.6764,-56.5761 342.9515,-63.5384"/>
</g>
</g>
</svg>
