<?xml version="1.0" encoding="UTF-8" standalone="no"?>
<!DOCTYPE svg PUBLIC "-//W3C//DTD SVG 1.1//EN"
 "http://www.w3.org/Graphics/SVG/1.1/DTD/svg11.dtd">
<!-- Generated by graphviz version 2.40.1 (20161225.0304)
 -->
<!-- Title: saveSimulation Pages: 1 -->
<svg width="452pt" height="66pt"
 viewBox="0.00 0.00 452.00 66.00" xmlns="http://www.w3.org/2000/svg" xmlns:xlink="http://www.w3.org/1999/xlink">
<g id="graph0" class="graph" transform="scale(1 1) rotate(0) translate(4 62)">
<title>saveSimulation</title>
<polygon fill="#ffffff" stroke="transparent" points="-4,4 -4,-62 448,-62 448,4 -4,4"/>
<!-- Node1693 -->
<g id="node1" class="node">
<title>Node1693</title>
<polygon fill="#bfbfbf" stroke="#000000" points="0,-19.5 0,-38.5 83,-38.5 83,-19.5 0,-19.5"/>
<text text-anchor="middle" x="41.5" y="-26.5" font-family="Helvetica,sans-Serif" font-size="10.00" fill="#000000">saveSimulation</text>
</g>
<!-- Node1694 -->
<g id="node2" class="node">
<title>Node1694</title>
<g id="a_node2"><a xlink:href="classCARLsim_1_1Impl.html#aa665c758ce50f34c0a66dffe3a2a6476" target="_top" xlink:title="CARLsim::Impl::saveSimulation">
<polygon fill="#ffffff" stroke="#000000" points="119,-19.5 119,-38.5 276,-38.5 276,-19.5 119,-19.5"/>
<text text-anchor="middle" x="197.5" y="-26.5" font-family="Helvetica,sans-Serif" font-size="10.00" fill="#000000">CARLsim::Impl::saveSimulation</text>
</a>
</g>
</g>
<!-- Node1693&#45;&gt;Node1694 -->
<g id="edge1" class="edge">
<title>Node1693&#45;&gt;Node1694</title>
<path fill="none" stroke="#191970" d="M93.4067,-29C101.5896,-29 110.2055,-29 118.8323,-29"/>
<polygon fill="#191970" stroke="#191970" points="93.3052,-25.5001 83.3051,-29 93.3051,-32.5001 93.3052,-25.5001"/>
</g>
<!-- Node1695 -->
<g id="node3" class="node">
<title>Node1695</title>
<g id="a_node3"><a xlink:href="classCARLsim_1_1Impl.html#a024997d941d0dff7ef89aa5ecddbc1ac" target="_top" xlink:title="CARLsim::Impl::~Impl">
<polygon fill="#ffffff" stroke="#000000" points="320.5,-38.5 320.5,-57.5 435.5,-57.5 435.5,-38.5 320.5,-38.5"/>
<text text-anchor="middle" x="378" y="-45.5" font-family="Helvetica,sans-Serif" font-size="10.00" fill="#000000">CARLsim::Impl::~Impl</text>
</a>
</g>
</g>
<!-- Node1694&#45;&gt;Node1695 -->
<g id="edge2" class="edge">
<title>Node1694&#45;&gt;Node1695</title>
<path fill="none" stroke="#191970" d="M286.2644,-38.3436C297.8109,-39.559 309.3898,-40.7779 320.2449,-41.9205"/>
<polygon fill="#191970" stroke="#191970" points="286.4563,-34.8446 276.1449,-37.2784 285.7235,-41.8061 286.4563,-34.8446"/>
</g>
<!-- Node1696 -->
<g id="node4" class="node">
<title>Node1696</title>
<g id="a_node4"><a xlink:href="classCARLsim.html#a3b08150d9a98f80df57852450c0d87ed" target="_top" xlink:title="Saves important simulation and network infos to file. ">
<polygon fill="#ffffff" stroke="#000000" points="312,-.5 312,-19.5 444,-19.5 444,-.5 312,-.5"/>
<text text-anchor="middle" x="378" y="-7.5" font-family="Helvetica,sans-Serif" font-size="10.00" fill="#000000">CARLsim::saveSimulation</text>
</a>
</g>
</g>
<!-- Node1694&#45;&gt;Node1696 -->
<g id="edge3" class="edge">
<title>Node1694&#45;&gt;Node1696</title>
<path fill="none" stroke="#191970" d="M286.2106,-19.662C294.8083,-18.757 303.4247,-17.85 311.7474,-16.974"/>
<polygon fill="#191970" stroke="#191970" points="285.7235,-16.1939 276.1449,-20.7216 286.4563,-23.1554 285.7235,-16.1939"/>
</g>
</g>
</svg>
