<?xml version="1.0" encoding="UTF-8" standalone="no"?>
<!DOCTYPE svg PUBLIC "-//W3C//DTD SVG 1.1//EN"
 "http://www.w3.org/Graphics/SVG/1.1/DTD/svg11.dtd">
<!-- Generated by graphviz version 2.40.1 (20161225.0304)
 -->
<!-- Title: getNumNeuronsWithFiringRate Pages: 1 -->
<svg width="538pt" height="214pt"
 viewBox="0.00 0.00 538.00 214.00" xmlns="http://www.w3.org/2000/svg" xmlns:xlink="http://www.w3.org/1999/xlink">
<g id="graph0" class="graph" transform="scale(1 1) rotate(0) translate(4 210)">
<title>getNumNeuronsWithFiringRate</title>
<polygon fill="#ffffff" stroke="transparent" points="-4,4 -4,-210 534,-210 534,4 -4,4"/>
<!-- Node512 -->
<g id="node1" class="node">
<title>Node512</title>
<polygon fill="#bfbfbf" stroke="#000000" points="0,-99 0,-118 153,-118 153,-99 0,-99"/>
<text text-anchor="middle" x="76.5" y="-106" font-family="Helvetica,sans-Serif" font-size="10.00" fill="#000000">getNumNeuronsWithFiringRate</text>
</g>
<!-- Node513 -->
<g id="node2" class="node">
<title>Node513</title>
<g id="a_node2"><a xlink:href="classSpikeMonitor.html#a81857cacf011acddd1791775c34ae4fb" target="_top" xlink:title="Returns the number of neurons that fall within this particular min/max range (inclusive). ">
<polygon fill="#ffffff" stroke="#000000" points="196.5,-175.5 196.5,-205.5 347.5,-205.5 347.5,-175.5 196.5,-175.5"/>
<text text-anchor="start" x="204.5" y="-193.5" font-family="Helvetica,sans-Serif" font-size="10.00" fill="#000000">SpikeMonitor::getNumNeurons</text>
<text text-anchor="middle" x="272" y="-182.5" font-family="Helvetica,sans-Serif" font-size="10.00" fill="#000000">WithFiringRate</text>
</a>
</g>
</g>
<!-- Node512&#45;&gt;Node513 -->
<g id="edge1" class="edge">
<title>Node512&#45;&gt;Node513</title>
<path fill="none" stroke="#191970" d="M102.0945,-123.1079C124.5139,-135.5023 158.23,-153.1828 189,-165.5 197.9417,-169.0793 207.6,-172.4315 217.0578,-175.4464"/>
<polygon fill="#191970" stroke="#191970" points="103.6566,-119.9715 93.2194,-118.1507 100.2431,-126.0828 103.6566,-119.9715"/>
</g>
<!-- Node514 -->
<g id="node3" class="node">
<title>Node514</title>
<g id="a_node3"><a xlink:href="classSpikeMonitorCore.html#a576be2fdd29d7b433d7c3645cb9f3b1f" target="_top" xlink:title="returns number of neurons that didn&#39;t spike while recording ">
<polygon fill="#ffffff" stroke="#000000" points="215.5,-137 215.5,-156 328.5,-156 328.5,-137 215.5,-137"/>
<text text-anchor="middle" x="272" y="-144" font-family="Helvetica,sans-Serif" font-size="10.00" fill="#000000">getNumSilentNeurons</text>
</a>
</g>
</g>
<!-- Node512&#45;&gt;Node514 -->
<g id="edge2" class="edge">
<title>Node512&#45;&gt;Node514</title>
<path fill="none" stroke="#191970" d="M135.61,-119.9894C163.5045,-125.4114 196.4024,-131.8058 222.8992,-136.9561"/>
<polygon fill="#191970" stroke="#191970" points="136.0647,-116.5124 125.5806,-118.04 134.729,-123.3838 136.0647,-116.5124"/>
</g>
<!-- Node516 -->
<g id="node5" class="node">
<title>Node516</title>
<g id="a_node5"><a xlink:href="classSpikeMonitorCore.html#a3e33677ab9388f1e907302d2a48fdc6b" target="_top" xlink:title="returns the SpikeMonitor ID ">
<polygon fill="#ffffff" stroke="#000000" points="425,-99 425,-118 496,-118 496,-99 425,-99"/>
<text text-anchor="middle" x="460.5" y="-106" font-family="Helvetica,sans-Serif" font-size="10.00" fill="#000000">getMonitorId</text>
</a>
</g>
</g>
<!-- Node512&#45;&gt;Node516 -->
<g id="edge11" class="edge">
<title>Node512&#45;&gt;Node516</title>
<path fill="none" stroke="#191970" d="M163.4061,-108.5C245.9082,-108.5 365.8275,-108.5 424.8976,-108.5"/>
<polygon fill="#191970" stroke="#191970" points="163.2852,-105.0001 153.2852,-108.5 163.2852,-112.0001 163.2852,-105.0001"/>
</g>
<!-- Node517 -->
<g id="node6" class="node">
<title>Node517</title>
<g id="a_node6"><a xlink:href="classSpikeMonitorCore.html#ad8dc4f8eb304b0bcbeaf80076f892b72" target="_top" xlink:title="returns percentage of neurons whose firing rate was in [min,max] during recording ...">
<polygon fill="#ffffff" stroke="#000000" points="189,-61 189,-80 355,-80 355,-61 189,-61"/>
<text text-anchor="middle" x="272" y="-68" font-family="Helvetica,sans-Serif" font-size="10.00" fill="#000000">getPercentNeuronsWithFiringRate</text>
</a>
</g>
</g>
<!-- Node512&#45;&gt;Node517 -->
<g id="edge5" class="edge">
<title>Node512&#45;&gt;Node517</title>
<path fill="none" stroke="#191970" d="M135.61,-97.0106C163.5045,-91.5886 196.4024,-85.1942 222.8992,-80.0439"/>
<polygon fill="#191970" stroke="#191970" points="134.729,-93.6162 125.5806,-98.96 136.0647,-100.4876 134.729,-93.6162"/>
</g>
<!-- Node519 -->
<g id="node8" class="node">
<title>Node519</title>
<g id="a_node8"><a xlink:href="classSpikeMonitorCore.html#abcba6b94670385ff0bb843586d87ecb3" target="_top" xlink:title="returns percentage of neurons that didn&#39;t spike during recording ">
<polygon fill="#ffffff" stroke="#000000" points="209.5,-23 209.5,-42 334.5,-42 334.5,-23 209.5,-23"/>
<text text-anchor="middle" x="272" y="-30" font-family="Helvetica,sans-Serif" font-size="10.00" fill="#000000">getPercentSilentNeurons</text>
</a>
</g>
</g>
<!-- Node512&#45;&gt;Node519 -->
<g id="edge8" class="edge">
<title>Node512&#45;&gt;Node519</title>
<path fill="none" stroke="#191970" d="M101.1264,-93.8074C123.4102,-81.0571 157.4714,-62.9019 189,-51.5 199.287,-47.7799 210.5621,-44.6228 221.3944,-42.0142"/>
<polygon fill="#191970" stroke="#191970" points="99.2323,-90.8598 92.3389,-98.9054 102.745,-96.9146 99.2323,-90.8598"/>
</g>
<!-- Node515 -->
<g id="node4" class="node">
<title>Node515</title>
<g id="a_node4"><a xlink:href="classSpikeMonitor.html#a576be2fdd29d7b433d7c3645cb9f3b1f" target="_top" xlink:title="returns the number of neurons that are silent. ">
<polygon fill="#ffffff" stroke="#000000" points="391,-137.5 391,-167.5 530,-167.5 530,-137.5 391,-137.5"/>
<text text-anchor="start" x="399" y="-155.5" font-family="Helvetica,sans-Serif" font-size="10.00" fill="#000000">SpikeMonitor::getNumSilent</text>
<text text-anchor="middle" x="460.5" y="-144.5" font-family="Helvetica,sans-Serif" font-size="10.00" fill="#000000">Neurons</text>
</a>
</g>
</g>
<!-- Node514&#45;&gt;Node515 -->
<g id="edge3" class="edge">
<title>Node514&#45;&gt;Node515</title>
<path fill="none" stroke="#191970" d="M338.8868,-148.629C355.7799,-149.1667 373.9571,-149.7453 390.9768,-150.2871"/>
<polygon fill="#191970" stroke="#191970" points="338.6625,-145.1202 328.5562,-148.3002 338.4398,-152.1167 338.6625,-145.1202"/>
</g>
<!-- Node514&#45;&gt;Node516 -->
<g id="edge4" class="edge">
<title>Node514&#45;&gt;Node516</title>
<path fill="none" stroke="#191970" d="M329.4182,-134.925C360.5145,-128.6562 397.9586,-121.1078 424.8507,-115.6866"/>
<polygon fill="#191970" stroke="#191970" points="328.6776,-131.5038 319.5665,-136.911 330.061,-138.3657 328.6776,-131.5038"/>
</g>
<!-- Node517&#45;&gt;Node516 -->
<g id="edge7" class="edge">
<title>Node517&#45;&gt;Node516</title>
<path fill="none" stroke="#191970" d="M329.4182,-82.075C360.5145,-88.3438 397.9586,-95.8922 424.8507,-101.3134"/>
<polygon fill="#191970" stroke="#191970" points="330.061,-78.6343 319.5665,-80.089 328.6776,-85.4962 330.061,-78.6343"/>
</g>
<!-- Node518 -->
<g id="node7" class="node">
<title>Node518</title>
<g id="a_node7"><a xlink:href="classSpikeMonitor.html#ad8dc4f8eb304b0bcbeaf80076f892b72" target="_top" xlink:title="returns the percentage of total neurons in that are in the range specified by the user...">
<polygon fill="#ffffff" stroke="#000000" points="397,-49.5 397,-79.5 524,-79.5 524,-49.5 397,-49.5"/>
<text text-anchor="start" x="405" y="-67.5" font-family="Helvetica,sans-Serif" font-size="10.00" fill="#000000">SpikeMonitor::getPercent</text>
<text text-anchor="middle" x="460.5" y="-56.5" font-family="Helvetica,sans-Serif" font-size="10.00" fill="#000000">NeuronsWithFiringRate</text>
</a>
</g>
</g>
<!-- Node517&#45;&gt;Node518 -->
<g id="edge6" class="edge">
<title>Node517&#45;&gt;Node518</title>
<path fill="none" stroke="#191970" d="M365.443,-67.5257C376.1209,-67.1858 386.8127,-66.8455 396.9699,-66.5222"/>
<polygon fill="#191970" stroke="#191970" points="365.1111,-64.0344 355.2275,-67.8508 365.3339,-71.0308 365.1111,-64.0344"/>
</g>
<!-- Node519&#45;&gt;Node516 -->
<g id="edge10" class="edge">
<title>Node519&#45;&gt;Node516</title>
<path fill="none" stroke="#191970" d="M342.5726,-45.528C346.8854,-47.2742 351.0664,-49.2544 355,-51.5 375.204,-63.034 371.0416,-77.5461 391,-89.5 401.1946,-95.606 413.3938,-99.7967 424.7059,-102.6527"/>
<polygon fill="#191970" stroke="#191970" points="343.5597,-42.1634 332.9653,-42.0668 341.1871,-48.7491 343.5597,-42.1634"/>
</g>
<!-- Node520 -->
<g id="node9" class="node">
<title>Node520</title>
<g id="a_node9"><a xlink:href="classSpikeMonitor.html#abcba6b94670385ff0bb843586d87ecb3" target="_top" xlink:title="returns the percentage of total neurons in group that are silent. ">
<polygon fill="#ffffff" stroke="#000000" points="397,-.5 397,-30.5 524,-30.5 524,-.5 397,-.5"/>
<text text-anchor="start" x="405" y="-18.5" font-family="Helvetica,sans-Serif" font-size="10.00" fill="#000000">SpikeMonitor::getPercent</text>
<text text-anchor="middle" x="460.5" y="-7.5" font-family="Helvetica,sans-Serif" font-size="10.00" fill="#000000">SilentNeurons</text>
</a>
</g>
</g>
<!-- Node519&#45;&gt;Node520 -->
<g id="edge9" class="edge">
<title>Node519&#45;&gt;Node520</title>
<path fill="none" stroke="#191970" d="M344.526,-25.9592C361.7776,-24.4033 380.0562,-22.7549 396.875,-21.2381"/>
<polygon fill="#191970" stroke="#191970" points="344.1511,-22.4787 334.5059,-26.8629 344.7799,-29.4504 344.1511,-22.4787"/>
</g>
</g>
</svg>
