<?xml version="1.0" encoding="UTF-8" standalone="no"?>
<!DOCTYPE svg PUBLIC "-//W3C//DTD SVG 1.1//EN"
 "http://www.w3.org/Graphics/SVG/1.1/DTD/svg11.dtd">
<!-- Generated by graphviz version 2.40.1 (20161225.0304)
 -->
<!-- Title: printSparse Pages: 1 -->
<svg width="260pt" height="142pt"
 viewBox="0.00 0.00 260.00 142.00" xmlns="http://www.w3.org/2000/svg" xmlns:xlink="http://www.w3.org/1999/xlink">
<g id="graph0" class="graph" transform="scale(1 1) rotate(0) translate(4 138)">
<title>printSparse</title>
<polygon fill="#ffffff" stroke="transparent" points="-4,4 -4,-138 256,-138 256,4 -4,4"/>
<!-- Node288 -->
<g id="node1" class="node">
<title>Node288</title>
<polygon fill="#bfbfbf" stroke="#000000" points="0,-57.5 0,-76.5 66,-76.5 66,-57.5 0,-57.5"/>
<text text-anchor="middle" x="33" y="-64.5" font-family="Helvetica,sans-Serif" font-size="10.00" fill="#000000">printSparse</text>
</g>
<!-- Node289 -->
<g id="node2" class="node">
<title>Node289</title>
<g id="a_node2"><a xlink:href="classConnectionMonitorCore.html#a1025cfe9db2e3f4eddc8a93928ec1a99" target="_top" xlink:title="returns the timestamp of the current snapshot (not necessarily CARLsim::getSimTime) ...">
<polygon fill="#ffffff" stroke="#000000" points="107.5,-114.5 107.5,-133.5 246.5,-133.5 246.5,-114.5 107.5,-114.5"/>
<text text-anchor="middle" x="177" y="-121.5" font-family="Helvetica,sans-Serif" font-size="10.00" fill="#000000">getTimeMsCurrentSnapshot</text>
</a>
</g>
</g>
<!-- Node288&#45;&gt;Node289 -->
<g id="edge1" class="edge">
<title>Node288&#45;&gt;Node289</title>
<path fill="none" stroke="#191970" d="M47.8024,-76.6097C61.4188,-85.0898 82.4089,-97.2713 102,-105 108.2963,-107.4839 115.0198,-109.7261 121.7584,-111.7255"/>
<polygon fill="#191970" stroke="#191970" points="121.0204,-115.1535 131.5939,-114.4811 122.9089,-108.413 121.0204,-115.1535"/>
</g>
<!-- Node290 -->
<g id="node3" class="node">
<title>Node290</title>
<g id="a_node3"><a xlink:href="classSNN.html#ab0367f8ebd4019bf7d34ebddb1563fe7" target="_top" xlink:title="SNN::getGroupName">
<polygon fill="#ffffff" stroke="#000000" points="122,-76.5 122,-95.5 232,-95.5 232,-76.5 122,-76.5"/>
<text text-anchor="middle" x="177" y="-83.5" font-family="Helvetica,sans-Serif" font-size="10.00" fill="#000000">SNN::getGroupName</text>
</a>
</g>
</g>
<!-- Node288&#45;&gt;Node290 -->
<g id="edge2" class="edge">
<title>Node288&#45;&gt;Node290</title>
<path fill="none" stroke="#191970" d="M66.0365,-71.359C79.5913,-73.1475 95.7825,-75.2838 111.5512,-77.3644"/>
<polygon fill="#191970" stroke="#191970" points="111.4485,-80.8811 121.8205,-78.7194 112.3643,-73.9412 111.4485,-80.8811"/>
</g>
<!-- Node291 -->
<g id="node4" class="node">
<title>Node291</title>
<g id="a_node4"><a xlink:href="classConnectionMonitorCore.html#a17077ba6a308bcd6bef84e186594f470" target="_top" xlink:title="returns the time passed between current and last snapshot ">
<polygon fill="#ffffff" stroke="#000000" points="102,-38.5 102,-57.5 252,-57.5 252,-38.5 102,-38.5"/>
<text text-anchor="middle" x="177" y="-45.5" font-family="Helvetica,sans-Serif" font-size="10.00" fill="#000000">getTimeMsSinceLastSnapshot</text>
</a>
</g>
</g>
<!-- Node288&#45;&gt;Node291 -->
<g id="edge3" class="edge">
<title>Node288&#45;&gt;Node291</title>
<path fill="none" stroke="#191970" d="M66.0365,-62.641C74.7551,-61.4906 84.5646,-60.1963 94.6507,-58.8655"/>
<polygon fill="#191970" stroke="#191970" points="95.3427,-62.3046 104.799,-57.5265 94.427,-55.3648 95.3427,-62.3046"/>
</g>
<!-- Node292 -->
<g id="node5" class="node">
<title>Node292</title>
<g id="a_node5"><a xlink:href="classConnectionMonitorCore.html#a730c0ec47d470c8920ab57288c31ca3b" target="_top" xlink:title="calculates weight changes since last snapshot and reports them in 2D weight change matrix ...">
<polygon fill="#ffffff" stroke="#000000" points="125,-.5 125,-19.5 229,-19.5 229,-.5 125,-.5"/>
<text text-anchor="middle" x="177" y="-7.5" font-family="Helvetica,sans-Serif" font-size="10.00" fill="#000000">calcWeightChanges</text>
</a>
</g>
</g>
<!-- Node288&#45;&gt;Node292 -->
<g id="edge4" class="edge">
<title>Node288&#45;&gt;Node292</title>
<path fill="none" stroke="#191970" d="M47.8024,-57.3903C61.4188,-48.9102 82.4089,-36.7287 102,-29 108.2963,-26.5161 115.0198,-24.2739 121.7584,-22.2745"/>
<polygon fill="#191970" stroke="#191970" points="122.9089,-25.587 131.5939,-19.5189 121.0204,-18.8465 122.9089,-25.587"/>
</g>
</g>
</svg>
