<?xml version="1.0" encoding="UTF-8" standalone="no"?>
<!DOCTYPE svg PUBLIC "-//W3C//DTD SVG 1.1//EN"
 "http://www.w3.org/Graphics/SVG/1.1/DTD/svg11.dtd">
<!-- Generated by graphviz version 2.40.1 (20161225.0304)
 -->
<!-- Title: getNumNeurons Pages: 1 -->
<svg width="465pt" height="66pt"
 viewBox="0.00 0.00 465.00 66.00" xmlns="http://www.w3.org/2000/svg" xmlns:xlink="http://www.w3.org/1999/xlink">
<g id="graph0" class="graph" transform="scale(1 1) rotate(0) translate(4 62)">
<title>getNumNeurons</title>
<polygon fill="#ffffff" stroke="transparent" points="-4,4 -4,-62 461,-62 461,4 -4,4"/>
<!-- Node428 -->
<g id="node1" class="node">
<title>Node428</title>
<polygon fill="#bfbfbf" stroke="#000000" points="0,-19.5 0,-38.5 88,-38.5 88,-19.5 0,-19.5"/>
<text text-anchor="middle" x="44" y="-26.5" font-family="Helvetica,sans-Serif" font-size="10.00" fill="#000000">getNumNeurons</text>
</g>
<!-- Node429 -->
<g id="node2" class="node">
<title>Node429</title>
<g id="a_node2"><a xlink:href="classCARLsim_1_1Impl.html#aba1eac7ee46971637423204a63e9892b" target="_top" xlink:title="getNeuronLocation3D">
<polygon fill="#ffffff" stroke="#000000" points="137,-38.5 137,-57.5 248,-57.5 248,-38.5 137,-38.5"/>
<text text-anchor="middle" x="192.5" y="-45.5" font-family="Helvetica,sans-Serif" font-size="10.00" fill="#000000">getNeuronLocation3D</text>
</a>
</g>
</g>
<!-- Node428&#45;&gt;Node429 -->
<g id="edge1" class="edge">
<title>Node428&#45;&gt;Node429</title>
<path fill="none" stroke="#191970" d="M98.0803,-35.9194C110.7233,-37.537 124.2106,-39.2626 136.9178,-40.8885"/>
<polygon fill="#191970" stroke="#191970" points="98.5162,-32.4467 88.1528,-34.6492 97.6278,-39.3901 98.5162,-32.4467"/>
</g>
<!-- Node431 -->
<g id="node4" class="node">
<title>Node431</title>
<g id="a_node4"><a xlink:href="classCARLsim.html#a00ddee44990cd4763a7d4df074e6d405" target="_top" xlink:title="returns the total number of allocated neurons in the network ">
<polygon fill="#ffffff" stroke="#000000" points="124,-.5 124,-19.5 261,-19.5 261,-.5 124,-.5"/>
<text text-anchor="middle" x="192.5" y="-7.5" font-family="Helvetica,sans-Serif" font-size="10.00" fill="#000000">CARLsim::getNumNeurons</text>
</a>
</g>
</g>
<!-- Node428&#45;&gt;Node431 -->
<g id="edge3" class="edge">
<title>Node428&#45;&gt;Node431</title>
<path fill="none" stroke="#191970" d="M98.1096,-22.0769C106.4471,-21.0101 115.1511,-19.8965 123.756,-18.7955"/>
<polygon fill="#191970" stroke="#191970" points="97.6278,-18.6099 88.1528,-23.3508 98.5162,-25.5533 97.6278,-18.6099"/>
</g>
<!-- Node430 -->
<g id="node3" class="node">
<title>Node430</title>
<g id="a_node3"><a xlink:href="classCARLsim.html#aba1eac7ee46971637423204a63e9892b" target="_top" xlink:title="returns the 3D location a neuron codes for ">
<polygon fill="#ffffff" stroke="#000000" points="297,-38.5 297,-57.5 457,-57.5 457,-38.5 297,-38.5"/>
<text text-anchor="middle" x="377" y="-45.5" font-family="Helvetica,sans-Serif" font-size="10.00" fill="#000000">CARLsim::getNeuronLocation3D</text>
</a>
</g>
</g>
<!-- Node429&#45;&gt;Node430 -->
<g id="edge2" class="edge">
<title>Node429&#45;&gt;Node430</title>
<path fill="none" stroke="#191970" d="M258.4132,-48C270.9071,-48 284.1045,-48 296.9785,-48"/>
<polygon fill="#191970" stroke="#191970" points="258.1063,-44.5001 248.1063,-48 258.1063,-51.5001 258.1063,-44.5001"/>
</g>
</g>
</svg>
