<?xml version="1.0" encoding="UTF-8" standalone="no"?>
<!DOCTYPE svg PUBLIC "-//W3C//DTD SVG 1.1//EN"
 "http://www.w3.org/Graphics/SVG/1.1/DTD/svg11.dtd">
<!-- Generated by graphviz version 2.40.1 (20161225.0304)
 -->
<!-- Title: getRates Pages: 1 -->
<svg width="188pt" height="66pt"
 viewBox="0.00 0.00 188.00 66.00" xmlns="http://www.w3.org/2000/svg" xmlns:xlink="http://www.w3.org/1999/xlink">
<g id="graph0" class="graph" transform="scale(1 1) rotate(0) translate(4 62)">
<title>getRates</title>
<polygon fill="#ffffff" stroke="transparent" points="-4,4 -4,-62 184,-62 184,4 -4,4"/>
<!-- Node36 -->
<g id="node1" class="node">
<title>Node36</title>
<polygon fill="#bfbfbf" stroke="#000000" points="0,-19.5 0,-38.5 56,-38.5 56,-19.5 0,-19.5"/>
<text text-anchor="middle" x="28" y="-26.5" font-family="Helvetica,sans-Serif" font-size="10.00" fill="#000000">getRates</text>
</g>
<!-- Node37 -->
<g id="node2" class="node">
<title>Node37</title>
<g id="a_node2"><a xlink:href="classPoissonRate_1_1Impl.html#a0bc9734220de46306a6db7b2b33f7902" target="_top" xlink:title="isOnGPU">
<polygon fill="#ffffff" stroke="#000000" points="106.5,-38.5 106.5,-57.5 165.5,-57.5 165.5,-38.5 106.5,-38.5"/>
<text text-anchor="middle" x="136" y="-45.5" font-family="Helvetica,sans-Serif" font-size="10.00" fill="#000000">isOnGPU</text>
</a>
</g>
</g>
<!-- Node36&#45;&gt;Node37 -->
<g id="edge1" class="edge">
<title>Node36&#45;&gt;Node37</title>
<path fill="none" stroke="#191970" d="M56.0938,-33.9424C68.3457,-36.0979 82.9294,-38.6635 96.2632,-41.0093"/>
<polygon fill="#191970" stroke="#191970" points="95.7016,-44.4641 106.1568,-42.7498 96.9145,-37.57 95.7016,-44.4641"/>
</g>
<!-- Node38 -->
<g id="node3" class="node">
<title>Node38</title>
<g id="a_node3"><a xlink:href="classPoissonRate_1_1Impl.html#a00ddee44990cd4763a7d4df074e6d405" target="_top" xlink:title="getNumNeurons">
<polygon fill="#ffffff" stroke="#000000" points="92,-.5 92,-19.5 180,-19.5 180,-.5 92,-.5"/>
<text text-anchor="middle" x="136" y="-7.5" font-family="Helvetica,sans-Serif" font-size="10.00" fill="#000000">getNumNeurons</text>
</a>
</g>
</g>
<!-- Node36&#45;&gt;Node38 -->
<g id="edge2" class="edge">
<title>Node36&#45;&gt;Node38</title>
<path fill="none" stroke="#191970" d="M56.0938,-24.0576C63.9951,-22.6675 72.8663,-21.1069 81.7465,-19.5446"/>
<polygon fill="#191970" stroke="#191970" points="82.483,-22.9689 91.7253,-17.7891 81.2701,-16.0747 82.483,-22.9689"/>
</g>
</g>
</svg>
