<?xml version="1.0" encoding="UTF-8" standalone="no"?>
<!DOCTYPE svg PUBLIC "-//W3C//DTD SVG 1.1//EN"
 "http://www.w3.org/Graphics/SVG/1.1/DTD/svg11.dtd">
<!-- Generated by graphviz version 2.40.1 (20161225.0304)
 -->
<!-- Title: getNumNeurons Pages: 1 -->
<svg width="445pt" height="28pt"
 viewBox="0.00 0.00 445.00 28.00" xmlns="http://www.w3.org/2000/svg" xmlns:xlink="http://www.w3.org/1999/xlink">
<g id="graph0" class="graph" transform="scale(1 1) rotate(0) translate(4 24)">
<title>getNumNeurons</title>
<polygon fill="#ffffff" stroke="transparent" points="-4,4 -4,-24 441,-24 441,4 -4,4"/>
<!-- Node288 -->
<g id="node1" class="node">
<title>Node288</title>
<polygon fill="#bfbfbf" stroke="#000000" points="0,-.5 0,-19.5 88,-19.5 88,-.5 0,-.5"/>
<text text-anchor="middle" x="44" y="-7.5" font-family="Helvetica,sans-Serif" font-size="10.00" fill="#000000">getNumNeurons</text>
</g>
<!-- Node289 -->
<g id="node2" class="node">
<title>Node289</title>
<g id="a_node2"><a xlink:href="classCARLsim_1_1Impl.html#a00ddee44990cd4763a7d4df074e6d405" target="_top" xlink:title="CARLsim::Impl::getNumNeurons">
<polygon fill="#ffffff" stroke="#000000" points="124,-.5 124,-19.5 285,-19.5 285,-.5 124,-.5"/>
<text text-anchor="middle" x="204.5" y="-7.5" font-family="Helvetica,sans-Serif" font-size="10.00" fill="#000000">CARLsim::Impl::getNumNeurons</text>
</a>
</g>
</g>
<!-- Node288&#45;&gt;Node289 -->
<g id="edge1" class="edge">
<title>Node288&#45;&gt;Node289</title>
<path fill="none" stroke="#191970" d="M88.2822,-10C96.2184,-10 104.7463,-10 113.4468,-10"/>
<polygon fill="#191970" stroke="#191970" points="113.7146,-13.5001 123.7146,-10 113.7145,-6.5001 113.7146,-13.5001"/>
</g>
<!-- Node290 -->
<g id="node3" class="node">
<title>Node290</title>
<g id="a_node3"><a xlink:href="classSNN.html#a00ddee44990cd4763a7d4df074e6d405" target="_top" xlink:title="SNN::getNumNeurons">
<polygon fill="#ffffff" stroke="#000000" points="321,-.5 321,-19.5 437,-19.5 437,-.5 321,-.5"/>
<text text-anchor="middle" x="379" y="-7.5" font-family="Helvetica,sans-Serif" font-size="10.00" fill="#000000">SNN::getNumNeurons</text>
</a>
</g>
</g>
<!-- Node289&#45;&gt;Node290 -->
<g id="edge2" class="edge">
<title>Node289&#45;&gt;Node290</title>
<path fill="none" stroke="#191970" d="M285.1097,-10C293.6805,-10 302.3373,-10 310.7466,-10"/>
<polygon fill="#191970" stroke="#191970" points="310.859,-13.5001 320.859,-10 310.8589,-6.5001 310.859,-13.5001"/>
</g>
</g>
</svg>
