<?xml version="1.0" encoding="UTF-8" standalone="no"?>
<!DOCTYPE svg PUBLIC "-//W3C//DTD SVG 1.1//EN"
 "http://www.w3.org/Graphics/SVG/1.1/DTD/svg11.dtd">
<!-- Generated by graphviz version 2.40.1 (20161225.0304)
 -->
<!-- Title: loadSimulation Pages: 1 -->
<svg width="443pt" height="28pt"
 viewBox="0.00 0.00 443.00 28.00" xmlns="http://www.w3.org/2000/svg" xmlns:xlink="http://www.w3.org/1999/xlink">
<g id="graph0" class="graph" transform="scale(1 1) rotate(0) translate(4 24)">
<title>loadSimulation</title>
<polygon fill="#ffffff" stroke="transparent" points="-4,4 -4,-24 439,-24 439,4 -4,4"/>
<!-- Node1590 -->
<g id="node1" class="node">
<title>Node1590</title>
<polygon fill="#bfbfbf" stroke="#000000" points="0,-.5 0,-19.5 80,-19.5 80,-.5 0,-.5"/>
<text text-anchor="middle" x="40" y="-7.5" font-family="Helvetica,sans-Serif" font-size="10.00" fill="#000000">loadSimulation</text>
</g>
<!-- Node1591 -->
<g id="node2" class="node">
<title>Node1591</title>
<g id="a_node2"><a xlink:href="classCARLsim_1_1Impl.html#aeebb0912ac3497ef828e666805371722" target="_top" xlink:title="CARLsim::Impl::loadSimulation">
<polygon fill="#ffffff" stroke="#000000" points="116,-.5 116,-19.5 270,-19.5 270,-.5 116,-.5"/>
<text text-anchor="middle" x="193" y="-7.5" font-family="Helvetica,sans-Serif" font-size="10.00" fill="#000000">CARLsim::Impl::loadSimulation</text>
</a>
</g>
</g>
<!-- Node1590&#45;&gt;Node1591 -->
<g id="edge1" class="edge">
<title>Node1590&#45;&gt;Node1591</title>
<path fill="none" stroke="#191970" d="M90.2869,-10C98.4695,-10 107.1072,-10 115.7576,-10"/>
<polygon fill="#191970" stroke="#191970" points="90.199,-6.5001 80.1989,-10 90.1989,-13.5001 90.199,-6.5001"/>
</g>
<!-- Node1592 -->
<g id="node3" class="node">
<title>Node1592</title>
<g id="a_node3"><a xlink:href="classCARLsim.html#aeebb0912ac3497ef828e666805371722" target="_top" xlink:title="Loads a simulation (and network state) from file. The file pointer fid must point to a valid CARLsim ...">
<polygon fill="#ffffff" stroke="#000000" points="306,-.5 306,-19.5 435,-19.5 435,-.5 306,-.5"/>
<text text-anchor="middle" x="370.5" y="-7.5" font-family="Helvetica,sans-Serif" font-size="10.00" fill="#000000">CARLsim::loadSimulation</text>
</a>
</g>
</g>
<!-- Node1591&#45;&gt;Node1592 -->
<g id="edge2" class="edge">
<title>Node1591&#45;&gt;Node1592</title>
<path fill="none" stroke="#191970" d="M280.2327,-10C288.906,-10 297.5986,-10 305.9791,-10"/>
<polygon fill="#191970" stroke="#191970" points="280.0797,-6.5001 270.0797,-10 280.0797,-13.5001 280.0797,-6.5001"/>
</g>
</g>
</svg>
