<?xml version="1.0" encoding="UTF-8" standalone="no"?>
<!DOCTYPE svg PUBLIC "-//W3C//DTD SVG 1.1//EN"
 "http://www.w3.org/Graphics/SVG/1.1/DTD/svg11.dtd">
<!-- Generated by graphviz version 2.40.1 (20161225.0304)
 -->
<!-- Title: getNeuronId Pages: 1 -->
<svg width="627pt" height="104pt"
 viewBox="0.00 0.00 627.00 104.00" xmlns="http://www.w3.org/2000/svg" xmlns:xlink="http://www.w3.org/1999/xlink">
<g id="graph0" class="graph" transform="scale(1 1) rotate(0) translate(4 100)">
<title>getNeuronId</title>
<polygon fill="#ffffff" stroke="transparent" points="-4,4 -4,-100 623,-100 623,4 -4,4"/>
<!-- Node256 -->
<g id="node1" class="node">
<title>Node256</title>
<polygon fill="#bfbfbf" stroke="#000000" points="0,-38.5 0,-57.5 70,-57.5 70,-38.5 0,-38.5"/>
<text text-anchor="middle" x="35" y="-45.5" font-family="Helvetica,sans-Serif" font-size="10.00" fill="#000000">getNeuronId</text>
</g>
<!-- Node257 -->
<g id="node2" class="node">
<title>Node257</title>
<g id="a_node2"><a xlink:href="classCARLsim_1_1Impl.html#a8f28281023666c073fff6141def960b5" target="_top" xlink:title="CARLsim::Impl::getNeuronId">
<polygon fill="#ffffff" stroke="#000000" points="106,-38.5 106,-57.5 249,-57.5 249,-38.5 106,-38.5"/>
<text text-anchor="middle" x="177.5" y="-45.5" font-family="Helvetica,sans-Serif" font-size="10.00" fill="#000000">CARLsim::Impl::getNeuronId</text>
</a>
</g>
</g>
<!-- Node256&#45;&gt;Node257 -->
<g id="edge1" class="edge">
<title>Node256&#45;&gt;Node257</title>
<path fill="none" stroke="#191970" d="M70.2247,-48C78.1292,-48 86.8364,-48 95.7683,-48"/>
<polygon fill="#191970" stroke="#191970" points="95.9174,-51.5001 105.9173,-48 95.9173,-44.5001 95.9174,-51.5001"/>
</g>
<!-- Node258 -->
<g id="node3" class="node">
<title>Node258</title>
<g id="a_node3"><a xlink:href="classUserErrors.html#a4bbedc6c0817d5e59e74e450bf00472c" target="_top" xlink:title="simple wrapper for assert statement ">
<polygon fill="#ffffff" stroke="#000000" points="305,-76.5 305,-95.5 421,-95.5 421,-76.5 305,-76.5"/>
<text text-anchor="middle" x="363" y="-83.5" font-family="Helvetica,sans-Serif" font-size="10.00" fill="#000000">UserErrors::assertTrue</text>
</a>
</g>
</g>
<!-- Node257&#45;&gt;Node258 -->
<g id="edge2" class="edge">
<title>Node257&#45;&gt;Node258</title>
<path fill="none" stroke="#191970" d="M224.3095,-57.589C249.3395,-62.7165 280.3414,-69.0672 306.6822,-74.4632"/>
<polygon fill="#191970" stroke="#191970" points="306.0281,-77.9018 316.5271,-76.4799 307.433,-71.0442 306.0281,-77.9018"/>
</g>
<!-- Node259 -->
<g id="node4" class="node">
<title>Node259</title>
<g id="a_node4"><a xlink:href="classCARLsim_1_1Impl.html#a292bdee57fec7c77ec4c15ea3f508d60" target="_top" xlink:title="CARLsim::Impl::getNumGroups">
<polygon fill="#ffffff" stroke="#000000" points="285,-38.5 285,-57.5 441,-57.5 441,-38.5 285,-38.5"/>
<text text-anchor="middle" x="363" y="-45.5" font-family="Helvetica,sans-Serif" font-size="10.00" fill="#000000">CARLsim::Impl::getNumGroups</text>
</a>
</g>
</g>
<!-- Node257&#45;&gt;Node259 -->
<g id="edge3" class="edge">
<title>Node257&#45;&gt;Node259</title>
<path fill="none" stroke="#191970" d="M249.2191,-48C257.4821,-48 265.9801,-48 274.4317,-48"/>
<polygon fill="#191970" stroke="#191970" points="274.6989,-51.5001 284.6989,-48 274.6988,-44.5001 274.6989,-51.5001"/>
</g>
<!-- Node261 -->
<g id="node6" class="node">
<title>Node261</title>
<g id="a_node6"><a xlink:href="classSNN.html#a193ffb3ea51ef7c5af59ebedd68dfa3c" target="_top" xlink:title="the inverse of getNeuronLocation3D ">
<polygon fill="#ffffff" stroke="#000000" points="314,-.5 314,-19.5 412,-19.5 412,-.5 314,-.5"/>
<text text-anchor="middle" x="363" y="-7.5" font-family="Helvetica,sans-Serif" font-size="10.00" fill="#000000">SNN::getNeuronId</text>
</a>
</g>
</g>
<!-- Node257&#45;&gt;Node261 -->
<g id="edge5" class="edge">
<title>Node257&#45;&gt;Node261</title>
<path fill="none" stroke="#191970" d="M224.3095,-38.411C249.3395,-33.2835 280.3414,-26.9328 306.6822,-21.5368"/>
<polygon fill="#191970" stroke="#191970" points="307.433,-24.9558 316.5271,-19.5201 306.0281,-18.0982 307.433,-24.9558"/>
</g>
<!-- Node260 -->
<g id="node5" class="node">
<title>Node260</title>
<g id="a_node5"><a xlink:href="classSNN.html#a292bdee57fec7c77ec4c15ea3f508d60" target="_top" xlink:title="SNN::getNumGroups">
<polygon fill="#ffffff" stroke="#000000" points="493,-38.5 493,-57.5 603,-57.5 603,-38.5 493,-38.5"/>
<text text-anchor="middle" x="548" y="-45.5" font-family="Helvetica,sans-Serif" font-size="10.00" fill="#000000">SNN::getNumGroups</text>
</a>
</g>
</g>
<!-- Node259&#45;&gt;Node260 -->
<g id="edge4" class="edge">
<title>Node259&#45;&gt;Node260</title>
<path fill="none" stroke="#191970" d="M441.1885,-48C455.0192,-48 469.2874,-48 482.7156,-48"/>
<polygon fill="#191970" stroke="#191970" points="482.7993,-51.5001 492.7993,-48 482.7992,-44.5001 482.7993,-51.5001"/>
</g>
<!-- Node262 -->
<g id="node7" class="node">
<title>Node262</title>
<g id="a_node7"><a xlink:href="classSNN.html#a11e19a0ccbeca92ba843a5933b3321e0" target="_top" xlink:title="SNN::getGroupNumNeurons">
<polygon fill="#ffffff" stroke="#000000" points="477,-.5 477,-19.5 619,-19.5 619,-.5 477,-.5"/>
<text text-anchor="middle" x="548" y="-7.5" font-family="Helvetica,sans-Serif" font-size="10.00" fill="#000000">SNN::getGroupNumNeurons</text>
</a>
</g>
</g>
<!-- Node261&#45;&gt;Node262 -->
<g id="edge6" class="edge">
<title>Node261&#45;&gt;Node262</title>
<path fill="none" stroke="#191970" d="M412.0909,-10C428.8,-10 447.9531,-10 466.5069,-10"/>
<polygon fill="#191970" stroke="#191970" points="466.7337,-13.5001 476.7336,-10 466.7336,-6.5001 466.7337,-13.5001"/>
</g>
</g>
</svg>
