<?xml version="1.0" encoding="UTF-8" standalone="no"?>
<!DOCTYPE svg PUBLIC "-//W3C//DTD SVG 1.1//EN"
 "http://www.w3.org/Graphics/SVG/1.1/DTD/svg11.dtd">
<!-- Generated by graphviz version 2.40.1 (20161225.0304)
 -->
<!-- Title: setESTDP Pages: 1 -->
<svg width="363pt" height="104pt"
 viewBox="0.00 0.00 363.00 104.00" xmlns="http://www.w3.org/2000/svg" xmlns:xlink="http://www.w3.org/1999/xlink">
<g id="graph0" class="graph" transform="scale(1 1) rotate(0) translate(4 100)">
<title>setESTDP</title>
<polygon fill="#ffffff" stroke="transparent" points="-4,4 -4,-100 359,-100 359,4 -4,4"/>
<!-- Node851 -->
<g id="node1" class="node">
<title>Node851</title>
<polygon fill="#bfbfbf" stroke="#000000" points="0,-38.5 0,-57.5 64,-57.5 64,-38.5 0,-38.5"/>
<text text-anchor="middle" x="32" y="-45.5" font-family="Helvetica,sans-Serif" font-size="10.00" fill="#000000">setESTDP</text>
</g>
<!-- Node852 -->
<g id="node2" class="node">
<title>Node852</title>
<g id="a_node2"><a xlink:href="classCARLsim_1_1Impl.html#af69130fee82ddc631a62ed0878c65e9f" target="_top" xlink:title="setSTDP">
<polygon fill="#ffffff" stroke="#000000" points="128,-76.5 128,-95.5 185,-95.5 185,-76.5 128,-76.5"/>
<text text-anchor="middle" x="156.5" y="-83.5" font-family="Helvetica,sans-Serif" font-size="10.00" fill="#000000">setSTDP</text>
</a>
</g>
</g>
<!-- Node851&#45;&gt;Node852 -->
<g id="edge1" class="edge">
<title>Node851&#45;&gt;Node852</title>
<path fill="none" stroke="#191970" d="M73.0297,-60.5231C90.9038,-65.9787 111.4293,-72.2435 127.6536,-77.1955"/>
<polygon fill="#191970" stroke="#191970" points="74.0028,-57.1608 63.4166,-57.589 71.9593,-63.8559 74.0028,-57.1608"/>
</g>
<!-- Node854 -->
<g id="node4" class="node">
<title>Node854</title>
<g id="a_node4"><a xlink:href="classCARLsim.html#ac79aadf0ac87b2ae34f39ae796ad81a3" target="_top" xlink:title="Sets default E&#45;STDP mode and parameters. ">
<polygon fill="#ffffff" stroke="#000000" points="100,-38.5 100,-57.5 213,-57.5 213,-38.5 100,-38.5"/>
<text text-anchor="middle" x="156.5" y="-45.5" font-family="Helvetica,sans-Serif" font-size="10.00" fill="#000000">CARLsim::setESTDP</text>
</a>
</g>
</g>
<!-- Node851&#45;&gt;Node854 -->
<g id="edge3" class="edge">
<title>Node851&#45;&gt;Node854</title>
<path fill="none" stroke="#191970" d="M74.1994,-48C82.4658,-48 91.2603,-48 99.908,-48"/>
<polygon fill="#191970" stroke="#191970" points="74.0619,-44.5001 64.0618,-48 74.0618,-51.5001 74.0619,-44.5001"/>
</g>
<!-- Node855 -->
<g id="node5" class="node">
<title>Node855</title>
<g id="a_node5"><a xlink:href="classCARLsim.html#a675bb0d593722135066c11b0d3d99d50" target="_top" xlink:title="Sets default I&#45;STDP mode and parameters. ">
<polygon fill="#ffffff" stroke="#000000" points="102,-.5 102,-19.5 211,-19.5 211,-.5 102,-.5"/>
<text text-anchor="middle" x="156.5" y="-7.5" font-family="Helvetica,sans-Serif" font-size="10.00" fill="#000000">CARLsim::setISTDP</text>
</a>
</g>
</g>
<!-- Node851&#45;&gt;Node855 -->
<g id="edge4" class="edge">
<title>Node851&#45;&gt;Node855</title>
<path fill="none" stroke="#191970" d="M73.0696,-35.4647C90.0064,-30.2952 109.3181,-24.4009 125.0934,-19.5859"/>
<polygon fill="#191970" stroke="#191970" points="71.9593,-32.1441 63.4166,-38.411 74.0028,-38.8392 71.9593,-32.1441"/>
</g>
<!-- Node853 -->
<g id="node3" class="node">
<title>Node853</title>
<g id="a_node3"><a xlink:href="classCARLsim.html#af69130fee82ddc631a62ed0878c65e9f" target="_top" xlink:title="Sets default STDP mode and params. ">
<polygon fill="#ffffff" stroke="#000000" points="249,-76.5 249,-95.5 355,-95.5 355,-76.5 249,-76.5"/>
<text text-anchor="middle" x="302" y="-83.5" font-family="Helvetica,sans-Serif" font-size="10.00" fill="#000000">CARLsim::setSTDP</text>
</a>
</g>
</g>
<!-- Node852&#45;&gt;Node853 -->
<g id="edge2" class="edge">
<title>Node852&#45;&gt;Node853</title>
<path fill="none" stroke="#191970" d="M195.5412,-86C211.9222,-86 231.2306,-86 248.8745,-86"/>
<polygon fill="#191970" stroke="#191970" points="195.2462,-82.5001 185.2461,-86 195.2461,-89.5001 195.2462,-82.5001"/>
</g>
</g>
</svg>
