<?xml version="1.0" encoding="UTF-8" standalone="no"?>
<!DOCTYPE svg PUBLIC "-//W3C//DTD SVG 1.1//EN"
 "http://www.w3.org/Graphics/SVG/1.1/DTD/svg11.dtd">
<!-- Generated by graphviz version 2.40.1 (20161225.0304)
 -->
<!-- Title: isGroupWith Pages: 1 -->
<svg width="393pt" height="28pt"
 viewBox="0.00 0.00 393.00 28.00" xmlns="http://www.w3.org/2000/svg" xmlns:xlink="http://www.w3.org/1999/xlink">
<g id="graph0" class="graph" transform="scale(1 1) rotate(0) translate(4 24)">
<title>isGroupWith</title>
<polygon fill="#ffffff" stroke="transparent" points="-4,4 -4,-24 389,-24 389,4 -4,4"/>
<!-- Node385 -->
<g id="node1" class="node">
<title>Node385</title>
<polygon fill="#bfbfbf" stroke="#000000" points="0,-.5 0,-19.5 71,-19.5 71,-.5 0,-.5"/>
<text text-anchor="middle" x="35.5" y="-7.5" font-family="Helvetica,sans-Serif" font-size="10.00" fill="#000000">isGroupWith</text>
</g>
<!-- Node386 -->
<g id="node2" class="node">
<title>Node386</title>
<g id="a_node2"><a xlink:href="classCARLsim_1_1Impl.html#a9b8aa1975049078149d963fb8eb06215" target="_top" xlink:title="CARLsim::Impl::isGroupWith">
<polygon fill="#ffffff" stroke="#000000" points="107,-.5 107,-19.5 251,-19.5 251,-.5 107,-.5"/>
<text text-anchor="middle" x="179" y="-7.5" font-family="Helvetica,sans-Serif" font-size="10.00" fill="#000000">CARLsim::Impl::isGroupWith</text>
</a>
</g>
</g>
<!-- Node385&#45;&gt;Node386 -->
<g id="edge1" class="edge">
<title>Node385&#45;&gt;Node386</title>
<path fill="none" stroke="#191970" d="M71.3409,-10C79.2423,-10 87.9264,-10 96.8293,-10"/>
<polygon fill="#191970" stroke="#191970" points="96.9438,-13.5001 106.9437,-10 96.9437,-6.5001 96.9438,-13.5001"/>
</g>
<!-- Node387 -->
<g id="node3" class="node">
<title>Node387</title>
<g id="a_node3"><a xlink:href="classSNN.html#a9b8aa1975049078149d963fb8eb06215" target="_top" xlink:title="SNN::isGroupWith">
<polygon fill="#ffffff" stroke="#000000" points="287,-.5 287,-19.5 385,-19.5 385,-.5 287,-.5"/>
<text text-anchor="middle" x="336" y="-7.5" font-family="Helvetica,sans-Serif" font-size="10.00" fill="#000000">SNN::isGroupWith</text>
</a>
</g>
</g>
<!-- Node386&#45;&gt;Node387 -->
<g id="edge2" class="edge">
<title>Node386&#45;&gt;Node387</title>
<path fill="none" stroke="#191970" d="M251.067,-10C259.6633,-10 268.3633,-10 276.7508,-10"/>
<polygon fill="#191970" stroke="#191970" points="276.7987,-13.5001 286.7987,-10 276.7986,-6.5001 276.7987,-13.5001"/>
</g>
</g>
</svg>
