<?xml version="1.0" encoding="UTF-8" standalone="no"?>
<!DOCTYPE svg PUBLIC "-//W3C//DTD SVG 1.1//EN"
 "http://www.w3.org/Graphics/SVG/1.1/DTD/svg11.dtd">
<!-- Generated by graphviz version 2.40.1 (20161225.0304)
 -->
<!-- Title: front Pages: 1 -->
<!--zoomable 106 -->
<svg id="main" version="1.1" xmlns="http://www.w3.org/2000/svg" xmlns:xlink="http://www.w3.org/1999/xlink" xml:space="preserve" onload="init(evt)">
<style type="text/css"><![CDATA[
.edge:hover path { stroke: red; }
.edge:hover polygon { stroke: red; fill: red; }
]]></style>
<script type="text/javascript"><![CDATA[
var edges = document.getElementsByTagName('g');
if (edges && edges.length) {
  for (var i=0;i<edges.length;i++) {
    if (edges[i].id.substr(0,4)=='edge') {
      edges[i].setAttribute('class','edge');
    }
  }
}
]]></script>
        <defs>
                <circle id="rim" cx="0" cy="0" r="7"/>
                <circle id="rim2" cx="0" cy="0" r="3.5"/>
                <g id="zoomPlus">
                        <use xlink:href="#rim" fill="#404040">
                                <set attributeName="fill" to="#808080" begin="zoomplus.mouseover" end="zoomplus.mouseout"/>
                        </use>
                        <path d="M-4,0h8M0,-4v8" fill="none" stroke="white" stroke-width="1.5" pointer-events="none"/>
                </g>
                <g id="zoomMin">
                        <use xlink:href="#rim" fill="#404040">
                                <set attributeName="fill" to="#808080" begin="zoomminus.mouseover" end="zoomminus.mouseout"/>
                        </use>
                        <path d="M-4,0h8" fill="none" stroke="white" stroke-width="1.5" pointer-events="none"/>
                </g>
                <g id="dirArrow">
                        <path fill="none" stroke="white" stroke-width="1.5" d="M0,-3.0v7 M-2.5,-0.5L0,-3.0L2.5,-0.5"/>
                </g>
               <g id="resetDef">
                       <use xlink:href="#rim2" fill="#404040">
                               <set attributeName="fill" to="#808080" begin="reset.mouseover" end="reset.mouseout"/>
                       </use>
               </g>
        </defs>

<script type="text/javascript">
var viewWidth = 533;
var viewHeight = 106;
var sectionId = 'dynsection-3';
</script>
<script xlink:href="svgpan.js"/>
<svg id="graph" class="graph">
<g id="viewport">
<title>front</title>
<polygon fill="#ffffff" stroke="transparent" points="-4,4 -4,-101.5 529,-101.5 529,4 -4,4"/>
<!-- Node15 -->
<g id="node1" class="node">
<title>Node15</title>
<polygon fill="#bfbfbf" stroke="#000000" points="0,-28 0,-47 36,-47 36,-28 0,-28"/>
<text text-anchor="middle" x="18" y="-35" font-family="Helvetica,sans-Serif" font-size="10.00" fill="#000000">front</text>
</g>
<!-- Node16 -->
<g id="node2" class="node">
<title>Node16</title>
<g id="a_node2"><a xlink:href="classSNN.html#a845adad4645977755e508610dc3c1464" target="_top" xlink:title="checks whether a point pre lies in the receptive field for point post ">
<polygon fill="#ffffff" stroke="#000000" points="85.5,-50 85.5,-69 187.5,-69 187.5,-50 85.5,-50"/>
<text text-anchor="middle" x="136.5" y="-57" font-family="Helvetica,sans-Serif" font-size="10.00" fill="#000000">SNN::getRFDist3D</text>
</a>
</g>
</g>
<!-- Node15&#45;&gt;Node16 -->
<g id="edge1" class="edge">
<title>Node15&#45;&gt;Node16</title>
<path fill="none" stroke="#191970" d="M46.3164,-42.757C58.0474,-44.935 72.0268,-47.5303 85.436,-50.0198"/>
<polygon fill="#191970" stroke="#191970" points="46.7268,-39.2735 36.2559,-40.8893 45.449,-46.1559 46.7268,-39.2735"/>
</g>
<!-- Node20 -->
<g id="node6" class="node">
<title>Node20</title>
<g id="a_node6"><a xlink:href="classSpikeBuffer_1_1SpikeIterator.html#a62ca91a5c80425f2cd4f6af0ca687e6a" target="_top" xlink:title="SpikeBuffer::SpikeIterator\l::operator++">
<polygon fill="#ffffff" stroke="#000000" points="72,-.5 72,-30.5 201,-30.5 201,-.5 72,-.5"/>
<text text-anchor="start" x="80" y="-18.5" font-family="Helvetica,sans-Serif" font-size="10.00" fill="#000000">SpikeBuffer::SpikeIterator</text>
<text text-anchor="middle" x="136.5" y="-7.5" font-family="Helvetica,sans-Serif" font-size="10.00" fill="#000000">::operator++</text>
</a>
</g>
</g>
<!-- Node15&#45;&gt;Node20 -->
<g id="edge7" class="edge">
<title>Node15&#45;&gt;Node20</title>
<path fill="none" stroke="#191970" d="M46.228,-32.2594C54.056,-30.8061 62.8904,-29.1659 71.891,-27.4949"/>
<polygon fill="#191970" stroke="#191970" points="45.449,-28.8441 36.2559,-34.1107 46.7268,-35.7265 45.449,-28.8441"/>
</g>
<!-- Node17 -->
<g id="node3" class="node">
<title>Node17</title>
<g id="a_node3"><a xlink:href="classSNN.html#a3a42619b35349cd8d68f2ea21c865e36" target="_top" xlink:title="SNN::getConductanceConfig">
<polygon fill="#ffffff" stroke="#000000" points="381,-78 381,-97 525,-97 525,-78 381,-78"/>
<text text-anchor="middle" x="453" y="-85" font-family="Helvetica,sans-Serif" font-size="10.00" fill="#000000">SNN::getConductanceConfig</text>
</a>
</g>
</g>
<!-- Node16&#45;&gt;Node17 -->
<g id="edge2" class="edge">
<title>Node16&#45;&gt;Node17</title>
<path fill="none" stroke="#191970" d="M189.1718,-70.9478C204.5231,-73.879 221.371,-76.7066 237,-78.5 284.7285,-83.9766 338.7285,-86.2266 380.7963,-87.1075"/>
<polygon fill="#191970" stroke="#191970" points="189.8146,-67.5072 179.3278,-69.0164 188.4668,-74.3763 189.8146,-67.5072"/>
</g>
<!-- Node18 -->
<g id="node4" class="node">
<title>Node18</title>
<g id="a_node4"><a xlink:href="snn__manager_8cpp.html#af7e3c6ada8c131790477ada99ec34bc3" target="_top" xlink:title="compareDelay">
<polygon fill="#ffffff" stroke="#000000" points="413,-31 413,-50 493,-50 493,-31 413,-31"/>
<text text-anchor="middle" x="453" y="-38" font-family="Helvetica,sans-Serif" font-size="10.00" fill="#000000">compareDelay</text>
</a>
</g>
</g>
<!-- Node16&#45;&gt;Node18 -->
<g id="edge3" class="edge">
<title>Node16&#45;&gt;Node18</title>
<path fill="none" stroke="#191970" d="M187.429,-47.9617C203.2283,-44.8987 220.7569,-42.0219 237,-40.5 298.0451,-34.7802 369.2214,-36.3666 412.6875,-38.2597"/>
<polygon fill="#191970" stroke="#191970" points="186.443,-44.5897 177.3272,-49.9891 187.8205,-51.4529 186.443,-44.5897"/>
</g>
<!-- Node19 -->
<g id="node5" class="node">
<title>Node19</title>
<g id="a_node5"><a xlink:href="classSNN.html#aa1487d5e850f107e5b6890cf6933b7c1" target="_top" xlink:title="SNN::isPoint3DinRF">
<polygon fill="#ffffff" stroke="#000000" points="237,-50 237,-69 345,-69 345,-50 237,-50"/>
<text text-anchor="middle" x="291" y="-57" font-family="Helvetica,sans-Serif" font-size="10.00" fill="#000000">SNN::isPoint3DinRF</text>
</a>
</g>
</g>
<!-- Node16&#45;&gt;Node19 -->
<g id="edge4" class="edge">
<title>Node16&#45;&gt;Node19</title>
<path fill="none" stroke="#191970" d="M197.7221,-59.5C210.6507,-59.5 224.2059,-59.5 236.8515,-59.5"/>
<polygon fill="#191970" stroke="#191970" points="197.5173,-56.0001 187.5173,-59.5 197.5172,-63.0001 197.5173,-56.0001"/>
</g>
<!-- Node19&#45;&gt;Node17 -->
<g id="edge5" class="edge">
<title>Node19&#45;&gt;Node17</title>
<path fill="none" stroke="#191970" d="M355.478,-70.6443C369.5296,-73.073 384.274,-75.6214 397.9211,-77.9802"/>
<polygon fill="#191970" stroke="#191970" points="355.8443,-67.1558 345.3943,-68.9015 354.6521,-74.0536 355.8443,-67.1558"/>
</g>
<!-- Node19&#45;&gt;Node18 -->
<g id="edge6" class="edge">
<title>Node19&#45;&gt;Node18</title>
<path fill="none" stroke="#191970" d="M355.3891,-51.9482C374.7808,-49.6739 395.4998,-47.2438 412.838,-45.2104"/>
<polygon fill="#191970" stroke="#191970" points="354.9185,-48.4793 345.3943,-53.1204 355.734,-55.4316 354.9185,-48.4793"/>
</g>
</g>
</svg>
        <g id="navigator" transform="translate(0 0)" fill="#404254">
                <rect fill="#f2f5e9" fill-opacity="0.5" stroke="#606060" stroke-width=".5" x="0" y="0" width="60" height="60"/>
                <use id="zoomplus" xlink:href="#zoomPlus" x="17" y="9" onmousedown="handleZoom(evt,'in')"/>
                <use id="zoomminus" xlink:href="#zoomMin" x="42" y="9" onmousedown="handleZoom(evt,'out')"/>
                <use id="reset" xlink:href="#resetDef" x="30" y="36" onmousedown="handleReset()"/>
                <g id="arrowUp" xlink:href="#dirArrow" transform="translate(30 24)" onmousedown="handlePan(0,-1)">
                  <use xlink:href="#rim" fill="#404040">
                        <set attributeName="fill" to="#808080" begin="arrowUp.mouseover" end="arrowUp.mouseout"/>
                  </use>
                  <path fill="none" stroke="white" stroke-width="1.5" d="M0,-3.0v7 M-2.5,-0.5L0,-3.0L2.5,-0.5"/>
                </g>
                <g id="arrowRight" xlink:href="#dirArrow" transform="rotate(90) translate(36 -43)" onmousedown="handlePan(1,0)">
                  <use xlink:href="#rim" fill="#404040">
                        <set attributeName="fill" to="#808080" begin="arrowRight.mouseover" end="arrowRight.mouseout"/>
                  </use>
                  <path fill="none" stroke="white" stroke-width="1.5" d="M0,-3.0v7 M-2.5,-0.5L0,-3.0L2.5,-0.5"/>
                </g>
                <g id="arrowDown" xlink:href="#dirArrow" transform="rotate(180) translate(-30 -48)" onmousedown="handlePan(0,1)">
                  <use xlink:href="#rim" fill="#404040">
                        <set attributeName="fill" to="#808080" begin="arrowDown.mouseover" end="arrowDown.mouseout"/>
                  </use>
                  <path fill="none" stroke="white" stroke-width="1.5" d="M0,-3.0v7 M-2.5,-0.5L0,-3.0L2.5,-0.5"/>
                </g>
                <g id="arrowLeft" xlink:href="#dirArrow" transform="rotate(270) translate(-36 17)" onmousedown="handlePan(-1,0)">
                  <use xlink:href="#rim" fill="#404040">
                        <set attributeName="fill" to="#808080" begin="arrowLeft.mouseover" end="arrowLeft.mouseout"/>
                  </use>
                  <path fill="none" stroke="white" stroke-width="1.5" d="M0,-3.0v7 M-2.5,-0.5L0,-3.0L2.5,-0.5"/>
                </g>
        </g>
        <svg viewBox="0 0 15 15" width="100%" height="30px" preserveAspectRatio="xMaxYMin meet">
         <g id="arrow_out" transform="scale(0.3 0.3)">
          <a xlink:href="classSpikeBuffer_a4f84af934c8a89f48edf5bdcb9b24e0d_icgraph_org.svg" target="_base">
           <rect id="button" ry="5" rx="5" y="6" x="6" height="38" width="38"
                fill="#f2f5e9" fill-opacity="0.5" stroke="#606060" stroke-width="1.0"/>
           <path id="arrow"
             d="M 11.500037,31.436501 C 11.940474,20.09759 22.043105,11.32322 32.158766,21.979434 L 37.068811,17.246167 C 37.068811,17.246167 37.088388,32 37.088388,32 L 22.160133,31.978069 C 22.160133,31.978069 26.997745,27.140456 26.997745,27.140456 C 18.528582,18.264221 13.291696,25.230495 11.500037,31.436501 z"
             style="fill:#404040;"/>
          </a>
         </g>
        </svg>
</svg>
