<?xml version="1.0" encoding="UTF-8" standalone="no"?>
<!DOCTYPE svg PUBLIC "-//W3C//DTD SVG 1.1//EN"
 "http://www.w3.org/Graphics/SVG/1.1/DTD/svg11.dtd">
<!-- Generated by graphviz version 2.40.1 (20161225.0304)
 -->
<!-- Title: setISTDP Pages: 1 -->
<svg width="768pt" height="218pt"
 viewBox="0.00 0.00 768.00 218.00" xmlns="http://www.w3.org/2000/svg" xmlns:xlink="http://www.w3.org/1999/xlink">
<g id="graph0" class="graph" transform="scale(1 1) rotate(0) translate(4 214)">
<title>setISTDP</title>
<polygon fill="#ffffff" stroke="transparent" points="-4,4 -4,-214 764,-214 764,4 -4,4"/>
<!-- Node798 -->
<g id="node1" class="node">
<title>Node798</title>
<polygon fill="#bfbfbf" stroke="#000000" points="0,-114.5 0,-133.5 60,-133.5 60,-114.5 0,-114.5"/>
<text text-anchor="middle" x="30" y="-121.5" font-family="Helvetica,sans-Serif" font-size="10.00" fill="#000000">setISTDP</text>
</g>
<!-- Node799 -->
<g id="node2" class="node">
<title>Node799</title>
<g id="a_node2"><a xlink:href="classCARLsim_1_1Impl.html#a675bb0d593722135066c11b0d3d99d50" target="_top" xlink:title="CARLsim::Impl::setISTDP">
<polygon fill="#ffffff" stroke="#000000" points="96,-114.5 96,-133.5 230,-133.5 230,-114.5 96,-114.5"/>
<text text-anchor="middle" x="163" y="-121.5" font-family="Helvetica,sans-Serif" font-size="10.00" fill="#000000">CARLsim::Impl::setISTDP</text>
</a>
</g>
</g>
<!-- Node798&#45;&gt;Node799 -->
<g id="edge1" class="edge">
<title>Node798&#45;&gt;Node799</title>
<path fill="none" stroke="#191970" d="M60.1798,-124C67.92,-124 76.6072,-124 85.5666,-124"/>
<polygon fill="#191970" stroke="#191970" points="85.7618,-127.5001 95.7618,-124 85.7618,-120.5001 85.7618,-127.5001"/>
</g>
<!-- Node800 -->
<g id="node3" class="node">
<title>Node800</title>
<g id="a_node3"><a xlink:href="classCARLsim_1_1Impl.html#ab0367f8ebd4019bf7d34ebddb1563fe7" target="_top" xlink:title="CARLsim::Impl::getGroupName">
<polygon fill="#ffffff" stroke="#000000" points="266,-92.5 266,-111.5 422,-111.5 422,-92.5 266,-92.5"/>
<text text-anchor="middle" x="344" y="-99.5" font-family="Helvetica,sans-Serif" font-size="10.00" fill="#000000">CARLsim::Impl::getGroupName</text>
</a>
</g>
</g>
<!-- Node799&#45;&gt;Node800 -->
<g id="edge2" class="edge">
<title>Node799&#45;&gt;Node800</title>
<path fill="none" stroke="#191970" d="M230.1405,-115.8393C238.5286,-114.8197 247.2041,-113.7652 255.851,-112.7142"/>
<polygon fill="#191970" stroke="#191970" points="256.4649,-116.1655 265.9696,-111.4844 255.6203,-109.2166 256.4649,-116.1655"/>
</g>
<!-- Node801 -->
<g id="node4" class="node">
<title>Node801</title>
<g id="a_node4"><a xlink:href="classUserErrors.html#a4bbedc6c0817d5e59e74e450bf00472c" target="_top" xlink:title="simple wrapper for assert statement ">
<polygon fill="#ffffff" stroke="#000000" points="478,-152.5 478,-171.5 594,-171.5 594,-152.5 478,-152.5"/>
<text text-anchor="middle" x="536" y="-159.5" font-family="Helvetica,sans-Serif" font-size="10.00" fill="#000000">UserErrors::assertTrue</text>
</a>
</g>
</g>
<!-- Node799&#45;&gt;Node801 -->
<g id="edge7" class="edge">
<title>Node799&#45;&gt;Node801</title>
<path fill="none" stroke="#191970" d="M178.3206,-133.5406C197.8241,-145.0708 232.9638,-163.8188 266,-171 335.1404,-186.0294 416.5557,-180.2197 471.7682,-172.9126"/>
<polygon fill="#191970" stroke="#191970" points="472.3351,-176.3676 481.7638,-171.5354 471.3797,-169.4331 472.3351,-176.3676"/>
</g>
<!-- Node805 -->
<g id="node8" class="node">
<title>Node805</title>
<g id="a_node8"><a xlink:href="classCARLsim_1_1Impl.html#ae136e178382096490a2d34f78cd2afa2" target="_top" xlink:title="CARLsim::Impl::isPoisson\lGroup">
<polygon fill="#ffffff" stroke="#000000" points="277.5,-131 277.5,-161 410.5,-161 410.5,-131 277.5,-131"/>
<text text-anchor="start" x="285.5" y="-149" font-family="Helvetica,sans-Serif" font-size="10.00" fill="#000000">CARLsim::Impl::isPoisson</text>
<text text-anchor="middle" x="344" y="-138" font-family="Helvetica,sans-Serif" font-size="10.00" fill="#000000">Group</text>
</a>
</g>
</g>
<!-- Node799&#45;&gt;Node805 -->
<g id="edge8" class="edge">
<title>Node799&#45;&gt;Node805</title>
<path fill="none" stroke="#191970" d="M230.1405,-132.1607C242.1662,-133.6224 254.7826,-135.1559 267.0584,-136.648"/>
<polygon fill="#191970" stroke="#191970" points="266.9203,-140.1569 277.2696,-137.8891 267.765,-133.208 266.9203,-140.1569"/>
</g>
<!-- Node807 -->
<g id="node10" class="node">
<title>Node807</title>
<g id="a_node10"><a xlink:href="classSNN.html#a281a359802ac8263a7e323085f3c83fc" target="_top" xlink:title="Set the inhibitory spike&#45;timing&#45;dependent plasticity (STDP) with anti&#45;hebbian curve for a neuron grou...">
<polygon fill="#ffffff" stroke="#000000" points="300,-54.5 300,-73.5 388,-73.5 388,-54.5 300,-54.5"/>
<text text-anchor="middle" x="344" y="-61.5" font-family="Helvetica,sans-Serif" font-size="10.00" fill="#000000">SNN::setISTDP</text>
</a>
</g>
</g>
<!-- Node799&#45;&gt;Node807 -->
<g id="edge12" class="edge">
<title>Node799&#45;&gt;Node807</title>
<path fill="none" stroke="#191970" d="M184.3821,-114.4689C204.9953,-105.5254 237.2129,-92.1859 266,-83 273.7407,-80.53 282.0008,-78.1996 290.1423,-76.0734"/>
<polygon fill="#191970" stroke="#191970" points="291.1361,-79.4323 299.9715,-73.5855 289.4184,-72.6463 291.1361,-79.4323"/>
</g>
<!-- Node800&#45;&gt;Node801 -->
<g id="edge3" class="edge">
<title>Node800&#45;&gt;Node801</title>
<path fill="none" stroke="#191970" d="M390.0589,-111.5553C400.7313,-114.3847 411.9127,-117.859 422,-122 439.1356,-129.0344 440.8223,-136.0691 458,-143 464.2526,-145.5228 470.9273,-147.7706 477.6414,-149.7573"/>
<polygon fill="#191970" stroke="#191970" points="476.8901,-153.181 487.4619,-152.4827 478.7621,-146.4359 476.8901,-153.181"/>
</g>
<!-- Node802 -->
<g id="node5" class="node">
<title>Node802</title>
<g id="a_node5"><a xlink:href="classCARLsim_1_1Impl.html#a292bdee57fec7c77ec4c15ea3f508d60" target="_top" xlink:title="CARLsim::Impl::getNumGroups">
<polygon fill="#ffffff" stroke="#000000" points="458,-114.5 458,-133.5 614,-133.5 614,-114.5 458,-114.5"/>
<text text-anchor="middle" x="536" y="-121.5" font-family="Helvetica,sans-Serif" font-size="10.00" fill="#000000">CARLsim::Impl::getNumGroups</text>
</a>
</g>
</g>
<!-- Node800&#45;&gt;Node802 -->
<g id="edge4" class="edge">
<title>Node800&#45;&gt;Node802</title>
<path fill="none" stroke="#191970" d="M422.0938,-110.9482C430.6006,-111.923 439.3019,-112.92 447.9175,-113.9072"/>
<polygon fill="#191970" stroke="#191970" points="447.642,-117.3985 457.9755,-115.0597 448.4389,-110.444 447.642,-117.3985"/>
</g>
<!-- Node804 -->
<g id="node7" class="node">
<title>Node804</title>
<g id="a_node7"><a xlink:href="classSNN.html#ab0367f8ebd4019bf7d34ebddb1563fe7" target="_top" xlink:title="SNN::getGroupName">
<polygon fill="#ffffff" stroke="#000000" points="481,-76.5 481,-95.5 591,-95.5 591,-76.5 481,-76.5"/>
<text text-anchor="middle" x="536" y="-83.5" font-family="Helvetica,sans-Serif" font-size="10.00" fill="#000000">SNN::getGroupName</text>
</a>
</g>
</g>
<!-- Node800&#45;&gt;Node804 -->
<g id="edge6" class="edge">
<title>Node800&#45;&gt;Node804</title>
<path fill="none" stroke="#191970" d="M422.0938,-95.4922C438.2752,-94.1437 455.1603,-92.7366 470.8212,-91.4316"/>
<polygon fill="#191970" stroke="#191970" points="471.2415,-94.9088 480.9162,-90.5903 470.6601,-87.933 471.2415,-94.9088"/>
</g>
<!-- Node803 -->
<g id="node6" class="node">
<title>Node803</title>
<g id="a_node6"><a xlink:href="classSNN.html#a292bdee57fec7c77ec4c15ea3f508d60" target="_top" xlink:title="SNN::getNumGroups">
<polygon fill="#ffffff" stroke="#000000" points="650,-114.5 650,-133.5 760,-133.5 760,-114.5 650,-114.5"/>
<text text-anchor="middle" x="705" y="-121.5" font-family="Helvetica,sans-Serif" font-size="10.00" fill="#000000">SNN::getNumGroups</text>
</a>
</g>
</g>
<!-- Node802&#45;&gt;Node803 -->
<g id="edge5" class="edge">
<title>Node802&#45;&gt;Node803</title>
<path fill="none" stroke="#191970" d="M614.069,-124C622.6771,-124 631.3747,-124 639.8018,-124"/>
<polygon fill="#191970" stroke="#191970" points="639.9225,-127.5001 649.9225,-124 639.9225,-120.5001 639.9225,-127.5001"/>
</g>
<!-- Node805&#45;&gt;Node801 -->
<g id="edge9" class="edge">
<title>Node805&#45;&gt;Node801</title>
<path fill="none" stroke="#191970" d="M410.6134,-151.5511C429.0733,-153.0894 449.1376,-154.7615 467.6925,-156.3077"/>
<polygon fill="#191970" stroke="#191970" points="467.5696,-159.8095 477.8258,-157.1521 468.151,-152.8337 467.5696,-159.8095"/>
</g>
<!-- Node805&#45;&gt;Node802 -->
<g id="edge10" class="edge">
<title>Node805&#45;&gt;Node802</title>
<path fill="none" stroke="#191970" d="M410.6134,-138.3672C422.6637,-136.9865 435.3975,-135.5274 447.9489,-134.0892"/>
<polygon fill="#191970" stroke="#191970" points="448.4227,-137.5579 457.9592,-132.9422 447.6258,-130.6034 448.4227,-137.5579"/>
</g>
<!-- Node806 -->
<g id="node9" class="node">
<title>Node806</title>
<g id="a_node9"><a xlink:href="classSNN.html#a3764348d44236ad4932627cd4d199c31" target="_top" xlink:title="SNN::isPoissonGroup">
<polygon fill="#ffffff" stroke="#000000" points="479.5,-190.5 479.5,-209.5 592.5,-209.5 592.5,-190.5 479.5,-190.5"/>
<text text-anchor="middle" x="536" y="-197.5" font-family="Helvetica,sans-Serif" font-size="10.00" fill="#000000">SNN::isPoissonGroup</text>
</a>
</g>
</g>
<!-- Node805&#45;&gt;Node806 -->
<g id="edge11" class="edge">
<title>Node805&#45;&gt;Node806</title>
<path fill="none" stroke="#191970" d="M390.686,-161.0136C411.2471,-167.4494 435.7422,-174.8781 458,-181 466.7834,-183.4158 476.1661,-185.8366 485.2695,-188.1023"/>
<polygon fill="#191970" stroke="#191970" points="484.4503,-191.505 494.9966,-190.4923 486.1206,-184.7072 484.4503,-191.505"/>
</g>
<!-- Node807&#45;&gt;Node804 -->
<g id="edge14" class="edge">
<title>Node807&#45;&gt;Node804</title>
<path fill="none" stroke="#191970" d="M388.0487,-69.0472C412.4933,-71.8482 443.3688,-75.386 470.5829,-78.5043"/>
<polygon fill="#191970" stroke="#191970" points="470.4793,-82.0152 480.8127,-79.6765 471.2762,-75.0607 470.4793,-82.0152"/>
</g>
<!-- Node808 -->
<g id="node11" class="node">
<title>Node808</title>
<g id="a_node11"><a xlink:href="classSNN.html#a44b05911f213714c351379021852e12a" target="_top" xlink:title="find connection ID based on pre&#45;post group pair, O(N) ">
<polygon fill="#ffffff" stroke="#000000" points="484.5,-38.5 484.5,-57.5 587.5,-57.5 587.5,-38.5 484.5,-38.5"/>
<text text-anchor="middle" x="536" y="-45.5" font-family="Helvetica,sans-Serif" font-size="10.00" fill="#000000">SNN::getConnectId</text>
</a>
</g>
</g>
<!-- Node807&#45;&gt;Node808 -->
<g id="edge13" class="edge">
<title>Node807&#45;&gt;Node808</title>
<path fill="none" stroke="#191970" d="M388.0487,-60.3293C413.587,-58.2011 446.1446,-55.4879 474.213,-53.1489"/>
<polygon fill="#191970" stroke="#191970" points="474.6547,-56.6243 484.3295,-52.3059 474.0734,-49.6485 474.6547,-56.6243"/>
</g>
<!-- Node809 -->
<g id="node12" class="node">
<title>Node809</title>
<g id="a_node12"><a xlink:href="classSNN.html#a477f99451786873b73e2623b6f89b766" target="_top" xlink:title="deallocates all dynamical structures and exits ">
<polygon fill="#ffffff" stroke="#000000" points="483,-.5 483,-19.5 589,-19.5 589,-.5 483,-.5"/>
<text text-anchor="middle" x="536" y="-7.5" font-family="Helvetica,sans-Serif" font-size="10.00" fill="#000000">SNN::exitSimulation</text>
</a>
</g>
</g>
<!-- Node807&#45;&gt;Node809 -->
<g id="edge15" class="edge">
<title>Node807&#45;&gt;Node809</title>
<path fill="none" stroke="#191970" d="M373.386,-54.4561C396.3261,-47.1325 429.0549,-36.9612 458,-29 466.7834,-26.5842 476.1661,-24.1634 485.2695,-21.8977"/>
<polygon fill="#191970" stroke="#191970" points="486.1206,-25.2928 494.9966,-19.5077 484.4503,-18.495 486.1206,-25.2928"/>
</g>
</g>
</svg>
