<?xml version="1.0" encoding="UTF-8" standalone="no"?>
<!DOCTYPE svg PUBLIC "-//W3C//DTD SVG 1.1//EN"
 "http://www.w3.org/Graphics/SVG/1.1/DTD/svg11.dtd">
<!-- Generated by graphviz version 2.40.1 (20161225.0304)
 -->
<!-- Title: setNM4STP Pages: 1 -->
<svg width="789pt" height="104pt"
 viewBox="0.00 0.00 789.00 104.00" xmlns="http://www.w3.org/2000/svg" xmlns:xlink="http://www.w3.org/1999/xlink">
<g id="graph0" class="graph" transform="scale(1 1) rotate(0) translate(4 100)">
<title>setNM4STP</title>
<polygon fill="#ffffff" stroke="transparent" points="-4,4 -4,-100 785,-100 785,4 -4,4"/>
<!-- Node949 -->
<g id="node1" class="node">
<title>Node949</title>
<polygon fill="#bfbfbf" stroke="#000000" points="0,-38.5 0,-57.5 71,-57.5 71,-38.5 0,-38.5"/>
<text text-anchor="middle" x="35.5" y="-45.5" font-family="Helvetica,sans-Serif" font-size="10.00" fill="#000000">setNM4STP</text>
</g>
<!-- Node950 -->
<g id="node2" class="node">
<title>Node950</title>
<g id="a_node2"><a xlink:href="classCARLsim_1_1Impl.html#aac61df1a82373e89549e608b78557b82" target="_top" xlink:title="CARLsim::Impl::setNM4STP">
<polygon fill="#ffffff" stroke="#000000" points="107,-38.5 107,-57.5 251,-57.5 251,-38.5 107,-38.5"/>
<text text-anchor="middle" x="179" y="-45.5" font-family="Helvetica,sans-Serif" font-size="10.00" fill="#000000">CARLsim::Impl::setNM4STP</text>
</a>
</g>
</g>
<!-- Node949&#45;&gt;Node950 -->
<g id="edge1" class="edge">
<title>Node949&#45;&gt;Node950</title>
<path fill="none" stroke="#191970" d="M71.3409,-48C79.2423,-48 87.9264,-48 96.8293,-48"/>
<polygon fill="#191970" stroke="#191970" points="96.9438,-51.5001 106.9437,-48 96.9437,-44.5001 96.9438,-51.5001"/>
</g>
<!-- Node951 -->
<g id="node3" class="node">
<title>Node951</title>
<g id="a_node3"><a xlink:href="classCARLsim_1_1Impl.html#ab0367f8ebd4019bf7d34ebddb1563fe7" target="_top" xlink:title="CARLsim::Impl::getGroupName">
<polygon fill="#ffffff" stroke="#000000" points="287,-38.5 287,-57.5 443,-57.5 443,-38.5 287,-38.5"/>
<text text-anchor="middle" x="365" y="-45.5" font-family="Helvetica,sans-Serif" font-size="10.00" fill="#000000">CARLsim::Impl::getGroupName</text>
</a>
</g>
</g>
<!-- Node950&#45;&gt;Node951 -->
<g id="edge2" class="edge">
<title>Node950&#45;&gt;Node951</title>
<path fill="none" stroke="#191970" d="M251.1787,-48C259.4548,-48 267.9629,-48 276.4221,-48"/>
<polygon fill="#191970" stroke="#191970" points="276.6973,-51.5001 286.6973,-48 276.6972,-44.5001 276.6973,-51.5001"/>
</g>
<!-- Node952 -->
<g id="node4" class="node">
<title>Node952</title>
<g id="a_node4"><a xlink:href="classUserErrors.html#a4bbedc6c0817d5e59e74e450bf00472c" target="_top" xlink:title="simple wrapper for assert statement ">
<polygon fill="#ffffff" stroke="#000000" points="499,-76.5 499,-95.5 615,-95.5 615,-76.5 499,-76.5"/>
<text text-anchor="middle" x="557" y="-83.5" font-family="Helvetica,sans-Serif" font-size="10.00" fill="#000000">UserErrors::assertTrue</text>
</a>
</g>
</g>
<!-- Node950&#45;&gt;Node952 -->
<g id="edge7" class="edge">
<title>Node950&#45;&gt;Node952</title>
<path fill="none" stroke="#191970" d="M226.9572,-57.5389C245.6324,-60.9637 267.2537,-64.5749 287,-67 355.3538,-75.3946 433.9331,-80.4047 488.6284,-83.1541"/>
<polygon fill="#191970" stroke="#191970" points="488.7373,-86.6636 498.8968,-83.6579 489.0804,-79.672 488.7373,-86.6636"/>
</g>
<!-- Node956 -->
<g id="node8" class="node">
<title>Node956</title>
<g id="a_node8"><a xlink:href="classSNN.html#aac61df1a82373e89549e608b78557b82" target="_top" xlink:title="SNN::setNM4STP">
<polygon fill="#ffffff" stroke="#000000" points="316,-.5 316,-19.5 414,-19.5 414,-.5 316,-.5"/>
<text text-anchor="middle" x="365" y="-7.5" font-family="Helvetica,sans-Serif" font-size="10.00" fill="#000000">SNN::setNM4STP</text>
</a>
</g>
</g>
<!-- Node950&#45;&gt;Node956 -->
<g id="edge8" class="edge">
<title>Node950&#45;&gt;Node956</title>
<path fill="none" stroke="#191970" d="M225.9357,-38.411C251.0332,-33.2835 282.1186,-26.9328 308.5304,-21.5368"/>
<polygon fill="#191970" stroke="#191970" points="309.3048,-24.951 318.4019,-19.5201 307.9036,-18.0926 309.3048,-24.951"/>
</g>
<!-- Node951&#45;&gt;Node952 -->
<g id="edge3" class="edge">
<title>Node951&#45;&gt;Node952</title>
<path fill="none" stroke="#191970" d="M413.4497,-57.589C439.471,-62.739 471.7279,-69.1232 499.0688,-74.5344"/>
<polygon fill="#191970" stroke="#191970" points="498.4094,-77.9718 508.8987,-76.4799 499.7685,-71.105 498.4094,-77.9718"/>
</g>
<!-- Node953 -->
<g id="node5" class="node">
<title>Node953</title>
<g id="a_node5"><a xlink:href="classCARLsim_1_1Impl.html#a292bdee57fec7c77ec4c15ea3f508d60" target="_top" xlink:title="CARLsim::Impl::getNumGroups">
<polygon fill="#ffffff" stroke="#000000" points="479,-38.5 479,-57.5 635,-57.5 635,-38.5 479,-38.5"/>
<text text-anchor="middle" x="557" y="-45.5" font-family="Helvetica,sans-Serif" font-size="10.00" fill="#000000">CARLsim::Impl::getNumGroups</text>
</a>
</g>
</g>
<!-- Node951&#45;&gt;Node953 -->
<g id="edge4" class="edge">
<title>Node951&#45;&gt;Node953</title>
<path fill="none" stroke="#191970" d="M443.0938,-48C451.6006,-48 460.3019,-48 468.9175,-48"/>
<polygon fill="#191970" stroke="#191970" points="468.9755,-51.5001 478.9755,-48 468.9754,-44.5001 468.9755,-51.5001"/>
</g>
<!-- Node955 -->
<g id="node7" class="node">
<title>Node955</title>
<g id="a_node7"><a xlink:href="classSNN.html#ab0367f8ebd4019bf7d34ebddb1563fe7" target="_top" xlink:title="SNN::getGroupName">
<polygon fill="#ffffff" stroke="#000000" points="502,-.5 502,-19.5 612,-19.5 612,-.5 502,-.5"/>
<text text-anchor="middle" x="557" y="-7.5" font-family="Helvetica,sans-Serif" font-size="10.00" fill="#000000">SNN::getGroupName</text>
</a>
</g>
</g>
<!-- Node951&#45;&gt;Node955 -->
<g id="edge6" class="edge">
<title>Node951&#45;&gt;Node955</title>
<path fill="none" stroke="#191970" d="M413.4497,-38.411C439.471,-33.261 471.7279,-26.8768 499.0688,-21.4656"/>
<polygon fill="#191970" stroke="#191970" points="499.7685,-24.895 508.8987,-19.5201 498.4094,-18.0282 499.7685,-24.895"/>
</g>
<!-- Node954 -->
<g id="node6" class="node">
<title>Node954</title>
<g id="a_node6"><a xlink:href="classSNN.html#a292bdee57fec7c77ec4c15ea3f508d60" target="_top" xlink:title="SNN::getNumGroups">
<polygon fill="#ffffff" stroke="#000000" points="671,-38.5 671,-57.5 781,-57.5 781,-38.5 671,-38.5"/>
<text text-anchor="middle" x="726" y="-45.5" font-family="Helvetica,sans-Serif" font-size="10.00" fill="#000000">SNN::getNumGroups</text>
</a>
</g>
</g>
<!-- Node953&#45;&gt;Node954 -->
<g id="edge5" class="edge">
<title>Node953&#45;&gt;Node954</title>
<path fill="none" stroke="#191970" d="M635.069,-48C643.6771,-48 652.3747,-48 660.8018,-48"/>
<polygon fill="#191970" stroke="#191970" points="660.9225,-51.5001 670.9225,-48 660.9225,-44.5001 660.9225,-51.5001"/>
</g>
</g>
</svg>
