<?xml version="1.0" encoding="UTF-8" standalone="no"?>
<!DOCTYPE svg PUBLIC "-//W3C//DTD SVG 1.1//EN"
 "http://www.w3.org/Graphics/SVG/1.1/DTD/svg11.dtd">
<!-- Generated by graphviz version 2.40.1 (20161225.0304)
 -->
<!-- Title: getLogFpDeb Pages: 1 -->
<svg width="407pt" height="28pt"
 viewBox="0.00 0.00 407.00 28.00" xmlns="http://www.w3.org/2000/svg" xmlns:xlink="http://www.w3.org/1999/xlink">
<g id="graph0" class="graph" transform="scale(1 1) rotate(0) translate(4 24)">
<title>getLogFpDeb</title>
<polygon fill="#ffffff" stroke="transparent" points="-4,4 -4,-24 403,-24 403,4 -4,4"/>
<!-- Node223 -->
<g id="node1" class="node">
<title>Node223</title>
<polygon fill="#bfbfbf" stroke="#000000" points="0,-.5 0,-19.5 75,-19.5 75,-.5 0,-.5"/>
<text text-anchor="middle" x="37.5" y="-7.5" font-family="Helvetica,sans-Serif" font-size="10.00" fill="#000000">getLogFpDeb</text>
</g>
<!-- Node224 -->
<g id="node2" class="node">
<title>Node224</title>
<g id="a_node2"><a xlink:href="classCARLsim_1_1Impl.html#a618dd0ac460a947283a39c3044e727d6" target="_top" xlink:title="CARLsim::Impl::getLogFpDeb">
<polygon fill="#ffffff" stroke="#000000" points="111,-.5 111,-19.5 260,-19.5 260,-.5 111,-.5"/>
<text text-anchor="middle" x="185.5" y="-7.5" font-family="Helvetica,sans-Serif" font-size="10.00" fill="#000000">CARLsim::Impl::getLogFpDeb</text>
</a>
</g>
</g>
<!-- Node223&#45;&gt;Node224 -->
<g id="edge1" class="edge">
<title>Node223&#45;&gt;Node224</title>
<path fill="none" stroke="#191970" d="M75.2296,-10C83.1943,-10 91.9038,-10 100.8246,-10"/>
<polygon fill="#191970" stroke="#191970" points="100.958,-13.5001 110.958,-10 100.958,-6.5001 100.958,-13.5001"/>
</g>
<!-- Node225 -->
<g id="node3" class="node">
<title>Node225</title>
<g id="a_node3"><a xlink:href="classSNN.html#a618dd0ac460a947283a39c3044e727d6" target="_top" xlink:title="returns file pointer to debug log ">
<polygon fill="#ffffff" stroke="#000000" points="296,-.5 296,-19.5 399,-19.5 399,-.5 296,-.5"/>
<text text-anchor="middle" x="347.5" y="-7.5" font-family="Helvetica,sans-Serif" font-size="10.00" fill="#000000">SNN::getLogFpDeb</text>
</a>
</g>
</g>
<!-- Node224&#45;&gt;Node225 -->
<g id="edge2" class="edge">
<title>Node224&#45;&gt;Node225</title>
<path fill="none" stroke="#191970" d="M260.3354,-10C268.7294,-10 277.2123,-10 285.4205,-10"/>
<polygon fill="#191970" stroke="#191970" points="285.6435,-13.5001 295.6435,-10 285.6434,-6.5001 285.6435,-13.5001"/>
</g>
</g>
</svg>
