<?xml version="1.0" encoding="UTF-8" standalone="no"?>
<!DOCTYPE svg PUBLIC "-//W3C//DTD SVG 1.1//EN"
 "http://www.w3.org/Graphics/SVG/1.1/DTD/svg11.dtd">
<!-- Generated by graphviz version 2.40.1 (20161225.0304)
 -->
<!-- Title: setGroupFileId Pages: 1 -->
<svg width="1276pt" height="180pt"
 viewBox="0.00 0.00 1276.00 180.00" xmlns="http://www.w3.org/2000/svg" xmlns:xlink="http://www.w3.org/1999/xlink">
<g id="graph0" class="graph" transform="scale(1 1) rotate(0) translate(4 176)">
<title>setGroupFileId</title>
<polygon fill="#ffffff" stroke="transparent" points="-4,4 -4,-176 1272,-176 1272,4 -4,4"/>
<!-- Node175 -->
<g id="node1" class="node">
<title>Node175</title>
<polygon fill="#bfbfbf" stroke="#000000" points="0,-47.5 0,-66.5 80,-66.5 80,-47.5 0,-47.5"/>
<text text-anchor="middle" x="40" y="-54.5" font-family="Helvetica,sans-Serif" font-size="10.00" fill="#000000">setGroupFileId</text>
</g>
<!-- Node176 -->
<g id="node2" class="node">
<title>Node176</title>
<g id="a_node2"><a xlink:href="classGroupMonitorCore.html#ae9a0ff72777f33d1ae3125990e45f89b" target="_top" xlink:title="returns a pointer to the group data file ">
<polygon fill="#ffffff" stroke="#000000" points="134,-71.5 134,-90.5 214,-90.5 214,-71.5 134,-71.5"/>
<text text-anchor="middle" x="174" y="-78.5" font-family="Helvetica,sans-Serif" font-size="10.00" fill="#000000">getGroupFileId</text>
</a>
</g>
</g>
<!-- Node175&#45;&gt;Node176 -->
<g id="edge1" class="edge">
<title>Node175&#45;&gt;Node176</title>
<path fill="none" stroke="#191970" d="M90.4149,-66.0295C104.756,-68.5981 120.1789,-71.3604 133.824,-73.8043"/>
<polygon fill="#191970" stroke="#191970" points="90.6649,-62.5187 80.2044,-64.2008 89.4307,-69.409 90.6649,-62.5187"/>
</g>
<!-- Node189 -->
<g id="node15" class="node">
<title>Node189</title>
<g id="a_node15"><a xlink:href="classSNN.html#a61ef9df510c9eecbdbda7ec787f2db4b" target="_top" xlink:title="sets up a group monitor registered with a callback to process the spikes. ">
<polygon fill="#ffffff" stroke="#000000" points="116,-28.5 116,-47.5 232,-47.5 232,-28.5 116,-28.5"/>
<text text-anchor="middle" x="174" y="-35.5" font-family="Helvetica,sans-Serif" font-size="10.00" fill="#000000">SNN::setGroupMonitor</text>
</a>
</g>
</g>
<!-- Node175&#45;&gt;Node189 -->
<g id="edge15" class="edge">
<title>Node175&#45;&gt;Node189</title>
<path fill="none" stroke="#191970" d="M90.2289,-49.878C98.6318,-48.6865 107.4109,-47.4417 115.9898,-46.2253"/>
<polygon fill="#191970" stroke="#191970" points="89.614,-46.4301 80.2044,-51.2994 90.5968,-53.3608 89.614,-46.4301"/>
</g>
<!-- Node177 -->
<g id="node3" class="node">
<title>Node177</title>
<g id="a_node3"><a xlink:href="classSNN.html#a14317186d53aeff564b126a41a333d3c" target="_top" xlink:title="access group status (currently the concentration of neuromodulator) ">
<polygon fill="#ffffff" stroke="#000000" points="283,-73.5 283,-92.5 415,-92.5 415,-73.5 283,-73.5"/>
<text text-anchor="middle" x="349" y="-80.5" font-family="Helvetica,sans-Serif" font-size="10.00" fill="#000000">SNN::updateGroupMonitor</text>
</a>
</g>
</g>
<!-- Node176&#45;&gt;Node177 -->
<g id="edge2" class="edge">
<title>Node176&#45;&gt;Node177</title>
<path fill="none" stroke="#191970" d="M224.2909,-81.5748C242.5782,-81.7838 263.5303,-82.0232 282.9744,-82.2454"/>
<polygon fill="#191970" stroke="#191970" points="224.1879,-78.0734 214.1485,-81.4588 224.1079,-85.073 224.1879,-78.0734"/>
</g>
<!-- Node178 -->
<g id="node4" class="node">
<title>Node178</title>
<g id="a_node4"><a xlink:href="classGroupMonitorCore.html#ab91616c118b701c2afd9136393d1f19b" target="_top" xlink:title="starts recording group data ">
<polygon fill="#ffffff" stroke="#000000" points="494.5,-114.5 494.5,-133.5 574.5,-133.5 574.5,-114.5 494.5,-114.5"/>
<text text-anchor="middle" x="534.5" y="-121.5" font-family="Helvetica,sans-Serif" font-size="10.00" fill="#000000">startRecording</text>
</a>
</g>
</g>
<!-- Node177&#45;&gt;Node178 -->
<g id="edge3" class="edge">
<title>Node177&#45;&gt;Node178</title>
<path fill="none" stroke="#191970" d="M402.0986,-94.7361C431.4213,-101.2171 467.2577,-109.1378 494.2493,-115.1036"/>
<polygon fill="#191970" stroke="#191970" points="402.5434,-91.25 392.0237,-92.5093 401.0326,-98.085 402.5434,-91.25"/>
</g>
<!-- Node182 -->
<g id="node8" class="node">
<title>Node182</title>
<g id="a_node8"><a xlink:href="classGroupMonitorCore.html#a25e0e98dd4519eaaa6b258f0dcb91ac7" target="_top" xlink:title="stops recording group data ">
<polygon fill="#ffffff" stroke="#000000" points="494.5,-76.5 494.5,-95.5 574.5,-95.5 574.5,-76.5 494.5,-76.5"/>
<text text-anchor="middle" x="534.5" y="-83.5" font-family="Helvetica,sans-Serif" font-size="10.00" fill="#000000">stopRecording</text>
</a>
</g>
</g>
<!-- Node177&#45;&gt;Node182 -->
<g id="edge7" class="edge">
<title>Node177&#45;&gt;Node182</title>
<path fill="none" stroke="#191970" d="M425.2233,-84.2327C448.904,-84.6157 474.0701,-85.0227 494.2752,-85.3495"/>
<polygon fill="#191970" stroke="#191970" points="425.2395,-80.7326 415.1841,-84.0704 425.1262,-87.7317 425.2395,-80.7326"/>
</g>
<!-- Node184 -->
<g id="node10" class="node">
<title>Node184</title>
<g id="a_node10"><a xlink:href="classSNN.html#a3df37c7539f784fe7a939c5da922f41b" target="_top" xlink:title="run the simulation for n sec ">
<polygon fill="#ffffff" stroke="#000000" points="487,-38.5 487,-57.5 582,-57.5 582,-38.5 487,-38.5"/>
<text text-anchor="middle" x="534.5" y="-45.5" font-family="Helvetica,sans-Serif" font-size="10.00" fill="#000000">SNN::runNetwork</text>
</a>
</g>
</g>
<!-- Node177&#45;&gt;Node184 -->
<g id="edge10" class="edge">
<title>Node177&#45;&gt;Node184</title>
<path fill="none" stroke="#191970" d="M409.7937,-71.5295C434.7816,-66.8148 463.2948,-61.4349 486.7442,-57.0105"/>
<polygon fill="#191970" stroke="#191970" points="408.8664,-68.1426 399.6887,-73.4361 410.1643,-75.0213 408.8664,-68.1426"/>
</g>
<!-- Node179 -->
<g id="node5" class="node">
<title>Node179</title>
<g id="a_node5"><a xlink:href="classGroupMonitor.html#ab91616c118b701c2afd9136393d1f19b" target="_top" xlink:title="Starts a new recording period. ">
<polygon fill="#ffffff" stroke="#000000" points="639,-152.5 639,-171.5 784,-171.5 784,-152.5 639,-152.5"/>
<text text-anchor="middle" x="711.5" y="-159.5" font-family="Helvetica,sans-Serif" font-size="10.00" fill="#000000">GroupMonitor::startRecording</text>
</a>
</g>
</g>
<!-- Node178&#45;&gt;Node179 -->
<g id="edge4" class="edge">
<title>Node178&#45;&gt;Node179</title>
<path fill="none" stroke="#191970" d="M584.6893,-134.7751C610.6569,-140.3501 642.0777,-147.0958 667.1459,-152.4777"/>
<polygon fill="#191970" stroke="#191970" points="585.176,-131.2999 574.664,-132.6228 583.7066,-138.144 585.176,-131.2999"/>
</g>
<!-- Node180 -->
<g id="node6" class="node">
<title>Node180</title>
<g id="a_node6"><a xlink:href="classGroupMonitorCore.html#a7ac2c997b5281ea2f2bc00cc9706d37c" target="_top" xlink:title="sets status of PersistentData mode ">
<polygon fill="#ffffff" stroke="#000000" points="664,-114.5 664,-133.5 759,-133.5 759,-114.5 664,-114.5"/>
<text text-anchor="middle" x="711.5" y="-121.5" font-family="Helvetica,sans-Serif" font-size="10.00" fill="#000000">setPersistentData</text>
</a>
</g>
</g>
<!-- Node178&#45;&gt;Node180 -->
<g id="edge5" class="edge">
<title>Node178&#45;&gt;Node180</title>
<path fill="none" stroke="#191970" d="M584.9704,-124C609.7923,-124 639.5431,-124 663.9581,-124"/>
<polygon fill="#191970" stroke="#191970" points="584.6641,-120.5001 574.664,-124 584.664,-127.5001 584.6641,-120.5001"/>
</g>
<!-- Node181 -->
<g id="node7" class="node">
<title>Node181</title>
<g id="a_node7"><a xlink:href="classGroupMonitor.html#a7ac2c997b5281ea2f2bc00cc9706d37c" target="_top" xlink:title="Sets PersistentMode either on (true) or off (false) ">
<polygon fill="#ffffff" stroke="#000000" points="820,-114.5 820,-133.5 980,-133.5 980,-114.5 820,-114.5"/>
<text text-anchor="middle" x="900" y="-121.5" font-family="Helvetica,sans-Serif" font-size="10.00" fill="#000000">GroupMonitor::setPersistentData</text>
</a>
</g>
</g>
<!-- Node180&#45;&gt;Node181 -->
<g id="edge6" class="edge">
<title>Node180&#45;&gt;Node181</title>
<path fill="none" stroke="#191970" d="M769.2874,-124C785.238,-124 802.836,-124 819.8113,-124"/>
<polygon fill="#191970" stroke="#191970" points="769.0665,-120.5001 759.0665,-124 769.0665,-127.5001 769.0665,-120.5001"/>
</g>
<!-- Node182&#45;&gt;Node180 -->
<g id="edge9" class="edge">
<title>Node182&#45;&gt;Node180</title>
<path fill="none" stroke="#191970" d="M584.6893,-96.7751C610.6569,-102.3501 642.0777,-109.0958 667.1459,-114.4777"/>
<polygon fill="#191970" stroke="#191970" points="585.176,-93.2999 574.664,-94.6228 583.7066,-100.144 585.176,-93.2999"/>
</g>
<!-- Node183 -->
<g id="node9" class="node">
<title>Node183</title>
<g id="a_node9"><a xlink:href="classGroupMonitor.html#a25e0e98dd4519eaaa6b258f0dcb91ac7" target="_top" xlink:title="Ends a recording period. ">
<polygon fill="#ffffff" stroke="#000000" points="639.5,-76.5 639.5,-95.5 783.5,-95.5 783.5,-76.5 639.5,-76.5"/>
<text text-anchor="middle" x="711.5" y="-83.5" font-family="Helvetica,sans-Serif" font-size="10.00" fill="#000000">GroupMonitor::stopRecording</text>
</a>
</g>
</g>
<!-- Node182&#45;&gt;Node183 -->
<g id="edge8" class="edge">
<title>Node182&#45;&gt;Node183</title>
<path fill="none" stroke="#191970" d="M584.909,-86C601.8901,-86 621.1835,-86 639.4993,-86"/>
<polygon fill="#191970" stroke="#191970" points="584.6641,-82.5001 574.664,-86 584.664,-89.5001 584.6641,-82.5001"/>
</g>
<!-- Node185 -->
<g id="node11" class="node">
<title>Node185</title>
<g id="a_node11"><a xlink:href="classCARLsim_1_1Impl.html#a749f370debe5eec8661cf9ca1b1bb4c0" target="_top" xlink:title="CARLsim::Impl::runNetwork">
<polygon fill="#ffffff" stroke="#000000" points="641.5,-38.5 641.5,-57.5 781.5,-57.5 781.5,-38.5 641.5,-38.5"/>
<text text-anchor="middle" x="711.5" y="-45.5" font-family="Helvetica,sans-Serif" font-size="10.00" fill="#000000">CARLsim::Impl::runNetwork</text>
</a>
</g>
</g>
<!-- Node184&#45;&gt;Node185 -->
<g id="edge11" class="edge">
<title>Node184&#45;&gt;Node185</title>
<path fill="none" stroke="#191970" d="M592.4241,-48C608.0337,-48 625.0903,-48 641.2917,-48"/>
<polygon fill="#191970" stroke="#191970" points="592.3988,-44.5001 582.3987,-48 592.3987,-51.5001 592.3988,-44.5001"/>
</g>
<!-- Node186 -->
<g id="node12" class="node">
<title>Node186</title>
<g id="a_node12"><a xlink:href="classCARLsim.html#aafb2d44405c96aafe089f96ff867018d" target="_top" xlink:title="run the simulation for time=(nSec*seconds + nMsec*milliseconds) ">
<polygon fill="#ffffff" stroke="#000000" points="842,-38.5 842,-57.5 958,-57.5 958,-38.5 842,-38.5"/>
<text text-anchor="middle" x="900" y="-45.5" font-family="Helvetica,sans-Serif" font-size="10.00" fill="#000000">CARLsim::runNetwork</text>
</a>
</g>
</g>
<!-- Node185&#45;&gt;Node186 -->
<g id="edge12" class="edge">
<title>Node185&#45;&gt;Node186</title>
<path fill="none" stroke="#191970" d="M792.0062,-48C808.7275,-48 826.0386,-48 841.773,-48"/>
<polygon fill="#191970" stroke="#191970" points="791.6905,-44.5001 781.6904,-48 791.6904,-51.5001 791.6905,-44.5001"/>
</g>
<!-- Node187 -->
<g id="node13" class="node">
<title>Node187</title>
<g id="a_node13"><a xlink:href="classSimpleWeightTuner_1_1Impl.html#a312d84bfa66a5036bb52a4c39db6fa6c" target="_top" xlink:title="SimpleWeightTuner::\lImpl::iterate">
<polygon fill="#ffffff" stroke="#000000" points="1016,-33 1016,-63 1124,-63 1124,-33 1016,-33"/>
<text text-anchor="start" x="1024" y="-51" font-family="Helvetica,sans-Serif" font-size="10.00" fill="#000000">SimpleWeightTuner::</text>
<text text-anchor="middle" x="1070" y="-40" font-family="Helvetica,sans-Serif" font-size="10.00" fill="#000000">Impl::iterate</text>
</a>
</g>
</g>
<!-- Node186&#45;&gt;Node187 -->
<g id="edge13" class="edge">
<title>Node186&#45;&gt;Node187</title>
<path fill="none" stroke="#191970" d="M968.3047,-48C984.1556,-48 1000.8128,-48 1015.9527,-48"/>
<polygon fill="#191970" stroke="#191970" points="968.0289,-44.5001 958.0289,-48 968.0288,-51.5001 968.0289,-44.5001"/>
</g>
<!-- Node188 -->
<g id="node14" class="node">
<title>Node188</title>
<g id="a_node14"><a xlink:href="classSimpleWeightTuner.html#a0df985e3ff7a27edc1e2e3fcc8261843" target="_top" xlink:title="Performs an iteration step of the tuning algorithm. ">
<polygon fill="#ffffff" stroke="#000000" points="1160,-33 1160,-63 1268,-63 1268,-33 1160,-33"/>
<text text-anchor="start" x="1168" y="-51" font-family="Helvetica,sans-Serif" font-size="10.00" fill="#000000">SimpleWeightTuner::</text>
<text text-anchor="middle" x="1214" y="-40" font-family="Helvetica,sans-Serif" font-size="10.00" fill="#000000">iterate</text>
</a>
</g>
</g>
<!-- Node187&#45;&gt;Node188 -->
<g id="edge14" class="edge">
<title>Node187&#45;&gt;Node188</title>
<path fill="none" stroke="#191970" d="M1134.2702,-48C1142.7504,-48 1151.3754,-48 1159.6672,-48"/>
<polygon fill="#191970" stroke="#191970" points="1134.03,-44.5001 1124.03,-48 1134.0299,-51.5001 1134.03,-44.5001"/>
</g>
<!-- Node190 -->
<g id="node16" class="node">
<title>Node190</title>
<g id="a_node16"><a xlink:href="classCARLsim_1_1Impl.html#ad423c8d8f74e6369615db0d1af700c99" target="_top" xlink:title="CARLsim::Impl::setGroupMonitor">
<polygon fill="#ffffff" stroke="#000000" points="268,-19.5 268,-38.5 430,-38.5 430,-19.5 268,-19.5"/>
<text text-anchor="middle" x="349" y="-26.5" font-family="Helvetica,sans-Serif" font-size="10.00" fill="#000000">CARLsim::Impl::setGroupMonitor</text>
</a>
</g>
</g>
<!-- Node189&#45;&gt;Node190 -->
<g id="edge16" class="edge">
<title>Node189&#45;&gt;Node190</title>
<path fill="none" stroke="#191970" d="M242.3547,-34.4846C250.7386,-34.0534 259.3692,-33.6096 267.9176,-33.17"/>
<polygon fill="#191970" stroke="#191970" points="242.0795,-30.994 232.2725,-35.0031 242.4391,-37.9848 242.0795,-30.994"/>
</g>
<!-- Node191 -->
<g id="node17" class="node">
<title>Node191</title>
<g id="a_node17"><a xlink:href="classCARLsim.html#a8ea5d069c849b257d8de63aa482f8837" target="_top" xlink:title="Sets a group monitor for a group, custom GroupMonitor class. ">
<polygon fill="#ffffff" stroke="#000000" points="466,-.5 466,-19.5 603,-19.5 603,-.5 466,-.5"/>
<text text-anchor="middle" x="534.5" y="-7.5" font-family="Helvetica,sans-Serif" font-size="10.00" fill="#000000">CARLsim::setGroupMonitor</text>
</a>
</g>
</g>
<!-- Node190&#45;&gt;Node191 -->
<g id="edge17" class="edge">
<title>Node190&#45;&gt;Node191</title>
<path fill="none" stroke="#191970" d="M440.1725,-19.6616C448.7808,-18.7799 457.4073,-17.8963 465.7551,-17.0413"/>
<polygon fill="#191970" stroke="#191970" points="439.6844,-16.1932 430.0931,-20.694 440.3978,-23.1567 439.6844,-16.1932"/>
</g>
</g>
</svg>
