<?xml version="1.0" encoding="UTF-8" standalone="no"?>
<!DOCTYPE svg PUBLIC "-//W3C//DTD SVG 1.1//EN"
 "http://www.w3.org/Graphics/SVG/1.1/DTD/svg11.dtd">
<!-- Generated by graphviz version 2.40.1 (20161225.0304)
 -->
<!-- Title: print Pages: 1 -->
<svg width="1134pt" height="510pt"
 viewBox="0.00 0.00 1134.00 510.00" xmlns="http://www.w3.org/2000/svg" xmlns:xlink="http://www.w3.org/1999/xlink">
<g id="graph0" class="graph" transform="scale(1 1) rotate(0) translate(4 506)">
<title>print</title>
<polygon fill="#ffffff" stroke="transparent" points="-4,4 -4,-506 1130,-506 1130,4 -4,4"/>
<!-- Node184 -->
<g id="node1" class="node">
<title>Node184</title>
<polygon fill="#bfbfbf" stroke="#000000" points="0,-444.5 0,-463.5 35,-463.5 35,-444.5 0,-444.5"/>
<text text-anchor="middle" x="17.5" y="-451.5" font-family="Helvetica,sans-Serif" font-size="10.00" fill="#000000">print</text>
</g>
<!-- Node185 -->
<g id="node2" class="node">
<title>Node185</title>
<g id="a_node2"><a xlink:href="classUserErrors.html#a4bbedc6c0817d5e59e74e450bf00472c" target="_top" xlink:title="simple wrapper for assert statement ">
<polygon fill="#ffffff" stroke="#000000" points="71,-482.5 71,-501.5 187,-501.5 187,-482.5 71,-482.5"/>
<text text-anchor="middle" x="129" y="-489.5" font-family="Helvetica,sans-Serif" font-size="10.00" fill="#000000">UserErrors::assertTrue</text>
</a>
</g>
</g>
<!-- Node184&#45;&gt;Node185 -->
<g id="edge1" class="edge">
<title>Node184&#45;&gt;Node185</title>
<path fill="none" stroke="#191970" d="M35.4144,-460.1054C50.5119,-465.2507 72.6186,-472.7848 91.5556,-479.2387"/>
<polygon fill="#191970" stroke="#191970" points="90.5211,-482.5837 101.1156,-482.4968 92.7792,-475.9579 90.5211,-482.5837"/>
</g>
<!-- Node186 -->
<g id="node3" class="node">
<title>Node186</title>
<g id="a_node3"><a xlink:href="classNeuronMonitor.html#a3a3ffdb35b09328d22e5d72503ed1f55" target="_top" xlink:title="isRecording">
<polygon fill="#ffffff" stroke="#000000" points="95,-319.5 95,-338.5 163,-338.5 163,-319.5 95,-319.5"/>
<text text-anchor="middle" x="129" y="-326.5" font-family="Helvetica,sans-Serif" font-size="10.00" fill="#000000">isRecording</text>
</a>
</g>
</g>
<!-- Node184&#45;&gt;Node186 -->
<g id="edge2" class="edge">
<title>Node184&#45;&gt;Node186</title>
<path fill="none" stroke="#191970" d="M26.2492,-444.1915C45.057,-423.1065 89.5564,-373.2192 113.3519,-346.5427"/>
<polygon fill="#191970" stroke="#191970" points="116.2467,-348.5554 120.2914,-338.763 111.0229,-343.8957 116.2467,-348.5554"/>
</g>
<!-- Node207 -->
<g id="node24" class="node">
<title>Node207</title>
<g id="a_node24"><a xlink:href="classNeuronMonitorCore.html#a388f572c62279f839ee138a9afbdeeb5" target="_top" xlink:title="prints neuron states in human&#45;readable format ">
<polygon fill="#ffffff" stroke="#000000" points="850,-406 850,-436 957,-436 957,-406 850,-406"/>
<text text-anchor="start" x="858" y="-424" font-family="Helvetica,sans-Serif" font-size="10.00" fill="#000000">NeuronMonitorCore::</text>
<text text-anchor="middle" x="903.5" y="-413" font-family="Helvetica,sans-Serif" font-size="10.00" fill="#000000">print</text>
</a>
</g>
</g>
<!-- Node184&#45;&gt;Node207 -->
<g id="edge46" class="edge">
<title>Node184&#45;&gt;Node207</title>
<path fill="none" stroke="#191970" d="M35.0863,-454C76.9227,-454 185.6701,-454 276.5,-454 276.5,-454 276.5,-454 577.5,-454 674.8102,-454 699.3833,-451.5972 796,-440 810.1579,-438.3006 825.2793,-435.9589 839.575,-433.4993"/>
<polygon fill="#191970" stroke="#191970" points="840.5722,-436.8776 849.8129,-431.695 839.3572,-429.9838 840.5722,-436.8776"/>
</g>
<!-- Node187 -->
<g id="node4" class="node">
<title>Node187</title>
<g id="a_node4"><a xlink:href="classNeuronMonitorCore.html#a3a3ffdb35b09328d22e5d72503ed1f55" target="_top" xlink:title="returns recording status ">
<polygon fill="#ffffff" stroke="#000000" points="223,-219 223,-249 330,-249 330,-219 223,-219"/>
<text text-anchor="start" x="231" y="-237" font-family="Helvetica,sans-Serif" font-size="10.00" fill="#000000">NeuronMonitorCore::</text>
<text text-anchor="middle" x="276.5" y="-226" font-family="Helvetica,sans-Serif" font-size="10.00" fill="#000000">isRecording</text>
</a>
</g>
</g>
<!-- Node186&#45;&gt;Node187 -->
<g id="edge3" class="edge">
<title>Node186&#45;&gt;Node187</title>
<path fill="none" stroke="#191970" d="M143.9548,-319.3681C167.3523,-304.2985 213.1543,-274.7989 244.2929,-254.7436"/>
<polygon fill="#191970" stroke="#191970" points="246.5379,-257.4608 253.0499,-249.1035 242.7475,-251.5758 246.5379,-257.4608"/>
</g>
<!-- Node188 -->
<g id="node5" class="node">
<title>Node188</title>
<g id="a_node5"><a xlink:href="classNeuronMonitorCore.html#a743a4ad47ef60bc593cc9882bd4ffb57" target="_top" xlink:title="inserts a (time,neurId) tupel into the D Neuron State vector ">
<polygon fill="#ffffff" stroke="#000000" points="685.5,-319 685.5,-349 792.5,-349 792.5,-319 685.5,-319"/>
<text text-anchor="start" x="693.5" y="-337" font-family="Helvetica,sans-Serif" font-size="10.00" fill="#000000">NeuronMonitorCore::</text>
<text text-anchor="middle" x="739" y="-326" font-family="Helvetica,sans-Serif" font-size="10.00" fill="#000000">pushNeuronState</text>
</a>
</g>
</g>
<!-- Node187&#45;&gt;Node188 -->
<g id="edge4" class="edge">
<title>Node187&#45;&gt;Node188</title>
<path fill="none" stroke="#191970" d="M330.0064,-241.0598C417.0987,-256.9671 588.8888,-294.048 679.6263,-316.4645"/>
<polygon fill="#191970" stroke="#191970" points="678.9307,-319.8982 689.4804,-318.9218 680.6244,-313.1062 678.9307,-319.8982"/>
</g>
<!-- Node189 -->
<g id="node6" class="node">
<title>Node189</title>
<g id="a_node6"><a xlink:href="classNeuronMonitorCore.html#ab91616c118b701c2afd9136393d1f19b" target="_top" xlink:title="starts recording Neuron state ">
<polygon fill="#ffffff" stroke="#000000" points="366,-113 366,-143 473,-143 473,-113 366,-113"/>
<text text-anchor="start" x="374" y="-131" font-family="Helvetica,sans-Serif" font-size="10.00" fill="#000000">NeuronMonitorCore::</text>
<text text-anchor="middle" x="419.5" y="-120" font-family="Helvetica,sans-Serif" font-size="10.00" fill="#000000">startRecording</text>
</a>
</g>
</g>
<!-- Node187&#45;&gt;Node189 -->
<g id="edge6" class="edge">
<title>Node187&#45;&gt;Node189</title>
<path fill="none" stroke="#191970" d="M288.2234,-218.7273C305.1834,-202.1968 337.6415,-176.7164 366,-156 369.1917,-153.6684 372.5106,-151.2828 375.8624,-148.9245"/>
<polygon fill="#191970" stroke="#191970" points="377.9657,-151.7255 384.2079,-143.1648 373.9896,-145.9644 377.9657,-151.7255"/>
</g>
<!-- Node190 -->
<g id="node7" class="node">
<title>Node190</title>
<g id="a_node7"><a xlink:href="classNeuronMonitorCore.html#ac8bb3912a3ce86b15842e79d0b421204" target="_top" xlink:title="deletes data from the neuron state vector ">
<polygon fill="#ffffff" stroke="#000000" points="524,-17 524,-47 631,-47 631,-17 524,-17"/>
<text text-anchor="start" x="532" y="-35" font-family="Helvetica,sans-Serif" font-size="10.00" fill="#000000">NeuronMonitorCore::</text>
<text text-anchor="middle" x="577.5" y="-24" font-family="Helvetica,sans-Serif" font-size="10.00" fill="#000000">clear</text>
</a>
</g>
</g>
<!-- Node187&#45;&gt;Node190 -->
<g id="edge42" class="edge">
<title>Node187&#45;&gt;Node190</title>
<path fill="none" stroke="#191970" d="M280.8438,-218.875C291.5559,-189.7247 321.6276,-127.5681 366,-94 409.5068,-61.0868 469.1619,-42.8983 514.0266,-34.6938"/>
<polygon fill="#191970" stroke="#191970" points="514.6704,-38.1346 523.9388,-33.0015 513.4923,-31.2344 514.6704,-38.1346"/>
</g>
<!-- Node209 -->
<g id="node26" class="node">
<title>Node209</title>
<g id="a_node26"><a xlink:href="classNeuronMonitorCore.html#a25e0e98dd4519eaaa6b258f0dcb91ac7" target="_top" xlink:title="stops recording Neuron state ">
<polygon fill="#ffffff" stroke="#000000" points="366,-175 366,-205 473,-205 473,-175 366,-175"/>
<text text-anchor="start" x="374" y="-193" font-family="Helvetica,sans-Serif" font-size="10.00" fill="#000000">NeuronMonitorCore::</text>
<text text-anchor="middle" x="419.5" y="-182" font-family="Helvetica,sans-Serif" font-size="10.00" fill="#000000">stopRecording</text>
</a>
</g>
</g>
<!-- Node187&#45;&gt;Node209 -->
<g id="edge37" class="edge">
<title>Node187&#45;&gt;Node209</title>
<path fill="none" stroke="#191970" d="M307.1771,-218.9036C321.4464,-213.6508 338.978,-207.9045 355.9105,-202.8529"/>
<polygon fill="#191970" stroke="#191970" points="357.1651,-206.1327 365.7816,-199.9678 355.2013,-199.4138 357.1651,-206.1327"/>
</g>
<!-- Node210 -->
<g id="node27" class="node">
<title>Node210</title>
<g id="a_node27"><a xlink:href="classNeuronMonitorCore.html#a5113f6b476e3e3544ecbffefa313234d" target="_top" xlink:title="sets pointer to Neuron file ">
<polygon fill="#ffffff" stroke="#000000" points="366,-319 366,-349 473,-349 473,-319 366,-319"/>
<text text-anchor="start" x="374" y="-337" font-family="Helvetica,sans-Serif" font-size="10.00" fill="#000000">NeuronMonitorCore::</text>
<text text-anchor="middle" x="419.5" y="-326" font-family="Helvetica,sans-Serif" font-size="10.00" fill="#000000">setNeuronFileId</text>
</a>
</g>
</g>
<!-- Node187&#45;&gt;Node210 -->
<g id="edge43" class="edge">
<title>Node187&#45;&gt;Node210</title>
<path fill="none" stroke="#191970" d="M303.5051,-249.1427C320.8575,-262.1341 344.1616,-280.4601 366,-295 375.5384,-301.3506 386.511,-307.6631 396.0266,-313.5158"/>
<polygon fill="#191970" stroke="#191970" points="394.2925,-316.5608 404.6091,-318.9726 398.0483,-310.6536 394.2925,-316.5608"/>
</g>
<!-- Node188&#45;&gt;Node187 -->
<g id="edge5" class="edge">
<title>Node188&#45;&gt;Node187</title>
<path fill="none" stroke="#191970" d="M685.2458,-326.8949C598.065,-310.9607 426.4821,-273.9215 335.8395,-251.527"/>
<polygon fill="#191970" stroke="#191970" points="336.5454,-248.0959 325.9956,-249.0721 334.8515,-254.8879 336.5454,-248.0959"/>
</g>
<!-- Node189&#45;&gt;Node187 -->
<g id="edge7" class="edge">
<title>Node189&#45;&gt;Node187</title>
<path fill="none" stroke="#191970" d="M407.4765,-143.0957C396.5512,-152.4355 380.0433,-163.7411 366,-174 348.7562,-186.5969 329.9966,-200.9553 314.1273,-212.6085"/>
<polygon fill="#191970" stroke="#191970" points="311.6704,-210.0671 305.6363,-218.7757 315.7842,-215.7308 311.6704,-210.0671"/>
</g>
<!-- Node189&#45;&gt;Node190 -->
<g id="edge8" class="edge">
<title>Node189&#45;&gt;Node190</title>
<path fill="none" stroke="#191970" d="M437.5285,-112.8284C455.0411,-98.5554 482.7578,-77.1685 509,-62 515.4912,-58.2479 522.5397,-54.662 529.5637,-51.3583"/>
<polygon fill="#191970" stroke="#191970" points="531.415,-54.3615 539.072,-47.0389 528.5198,-47.9883 531.415,-54.3615"/>
</g>
<!-- Node191 -->
<g id="node8" class="node">
<title>Node191</title>
<g id="a_node8"><a xlink:href="classSNN.html#a8dd319bdd9a54e38f9254cbec099c30a" target="_top" xlink:title="copy required neuron state values from ??? buffer to ??? buffer ">
<polygon fill="#ffffff" stroke="#000000" points="509,-218.5 509,-237.5 646,-237.5 646,-218.5 509,-218.5"/>
<text text-anchor="middle" x="577.5" y="-225.5" font-family="Helvetica,sans-Serif" font-size="10.00" fill="#000000">SNN::updateNeuronMonitor</text>
</a>
</g>
</g>
<!-- Node189&#45;&gt;Node191 -->
<g id="edge10" class="edge">
<title>Node189&#45;&gt;Node191</title>
<path fill="none" stroke="#191970" d="M443.4968,-143.1878C473.3825,-162.1029 524.1169,-194.2132 553.8434,-213.0275"/>
<polygon fill="#191970" stroke="#191970" points="552.0264,-216.0196 562.3481,-218.4102 555.77,-210.1047 552.0264,-216.0196"/>
</g>
<!-- Node194 -->
<g id="node11" class="node">
<title>Node194</title>
<g id="a_node11"><a xlink:href="classSNN.html#a424b0cf29d7dba87e4ebf244399acad0" target="_top" xlink:title="SNN::getSimTimeMs">
<polygon fill="#ffffff" stroke="#000000" points="684,-57.5 684,-76.5 794,-76.5 794,-57.5 684,-57.5"/>
<text text-anchor="middle" x="739" y="-64.5" font-family="Helvetica,sans-Serif" font-size="10.00" fill="#000000">SNN::getSimTimeMs</text>
</a>
</g>
</g>
<!-- Node189&#45;&gt;Node194 -->
<g id="edge36" class="edge">
<title>Node189&#45;&gt;Node194</title>
<path fill="none" stroke="#191970" d="M473.3731,-115.5637C485.097,-112.9686 497.4486,-110.3191 509,-108 564.3869,-96.8803 627.587,-85.724 673.7038,-77.8625"/>
<polygon fill="#191970" stroke="#191970" points="674.2969,-81.312 683.5695,-76.1865 673.1245,-74.4108 674.2969,-81.312"/>
</g>
<!-- Node200 -->
<g id="node17" class="node">
<title>Node200</title>
<g id="a_node17"><a xlink:href="classSNN.html#a85facd004ae52ee52e72451b5d874fae" target="_top" xlink:title="SNN::getSimTimeSec">
<polygon fill="#ffffff" stroke="#000000" points="682,-95.5 682,-114.5 796,-114.5 796,-95.5 682,-95.5"/>
<text text-anchor="middle" x="739" y="-102.5" font-family="Helvetica,sans-Serif" font-size="10.00" fill="#000000">SNN::getSimTimeSec</text>
</a>
</g>
</g>
<!-- Node189&#45;&gt;Node200 -->
<g id="edge35" class="edge">
<title>Node189&#45;&gt;Node200</title>
<path fill="none" stroke="#191970" d="M473.3375,-124.1244C528.0593,-120.1851 612.9578,-114.0735 671.9982,-109.8233"/>
<polygon fill="#191970" stroke="#191970" points="672.2516,-113.3142 681.9744,-109.1051 671.7489,-106.3323 672.2516,-113.3142"/>
</g>
<!-- Node190&#45;&gt;Node187 -->
<g id="edge9" class="edge">
<title>Node190&#45;&gt;Node187</title>
<path fill="none" stroke="#191970" d="M524.8403,-47.0547C479.143,-57.9896 413.1061,-76.3638 366,-112 331.2199,-138.3114 305.2259,-182.1869 290.4541,-209.7063"/>
<polygon fill="#191970" stroke="#191970" points="287.2779,-208.2257 285.7011,-218.7026 293.4672,-211.4957 287.2779,-208.2257"/>
</g>
<!-- Node191&#45;&gt;Node187 -->
<g id="edge33" class="edge">
<title>Node191&#45;&gt;Node187</title>
<path fill="none" stroke="#191970" d="M508.813,-229.3692C458.2533,-230.377 389.9964,-231.7376 340.5626,-232.723"/>
<polygon fill="#191970" stroke="#191970" points="340.241,-229.2286 330.3128,-232.9273 340.3806,-236.2272 340.241,-229.2286"/>
</g>
<!-- Node191&#45;&gt;Node188 -->
<g id="edge34" class="edge">
<title>Node191&#45;&gt;Node188</title>
<path fill="none" stroke="#191970" d="M608.8196,-237.598C621.2478,-242.4103 635.1367,-249.1348 646,-258 667.4956,-275.5419 660.5091,-291.4523 682,-309 684.014,-310.6445 686.1531,-312.2007 688.3758,-313.6708"/>
<polygon fill="#191970" stroke="#191970" points="686.8843,-316.8544 697.2763,-318.9177 690.4392,-310.8242 686.8843,-316.8544"/>
</g>
<!-- Node192 -->
<g id="node9" class="node">
<title>Node192</title>
<g id="a_node9"><a xlink:href="classNeuronMonitorCore.html#a102f8a26e80c556ee9a2ac503cd38ec9" target="_top" xlink:title="returns timestamp of last NeuronMonitor update ">
<polygon fill="#ffffff" stroke="#000000" points="685.5,-172 685.5,-202 792.5,-202 792.5,-172 685.5,-172"/>
<text text-anchor="start" x="693.5" y="-190" font-family="Helvetica,sans-Serif" font-size="10.00" fill="#000000">NeuronMonitorCore::</text>
<text text-anchor="middle" x="739" y="-179" font-family="Helvetica,sans-Serif" font-size="10.00" fill="#000000">getLastUpdated</text>
</a>
</g>
</g>
<!-- Node191&#45;&gt;Node192 -->
<g id="edge11" class="edge">
<title>Node191&#45;&gt;Node192</title>
<path fill="none" stroke="#191970" d="M614.9573,-218.4907C632.8946,-213.937 654.8784,-208.3559 675.3303,-203.1638"/>
<polygon fill="#191970" stroke="#191970" points="676.3916,-206.5055 685.2228,-200.6524 674.669,-199.7207 676.3916,-206.5055"/>
</g>
<!-- Node193 -->
<g id="node10" class="node">
<title>Node193</title>
<g id="a_node10"><a xlink:href="classSNN.html#a5fd2b156623d78138bcb44167eabab78" target="_top" xlink:title="SNN::getSimTime">
<polygon fill="#ffffff" stroke="#000000" points="690.5,-133.5 690.5,-152.5 787.5,-152.5 787.5,-133.5 690.5,-133.5"/>
<text text-anchor="middle" x="739" y="-140.5" font-family="Helvetica,sans-Serif" font-size="10.00" fill="#000000">SNN::getSimTime</text>
</a>
</g>
</g>
<!-- Node191&#45;&gt;Node193 -->
<g id="edge12" class="edge">
<title>Node191&#45;&gt;Node193</title>
<path fill="none" stroke="#191970" d="M616.1665,-218.3959C626.3872,-214.8304 637.0533,-210.1153 646,-204 666.297,-190.1264 661.5978,-175.7184 682,-162 684.9458,-160.0192 688.1157,-158.2293 691.3981,-156.6145"/>
<polygon fill="#191970" stroke="#191970" points="693.0714,-159.7039 700.8535,-152.5144 690.2865,-153.2817 693.0714,-159.7039"/>
</g>
<!-- Node191&#45;&gt;Node194 -->
<g id="edge13" class="edge">
<title>Node191&#45;&gt;Node194</title>
<path fill="none" stroke="#191970" d="M591.1374,-218.3825C606.1828,-207.208 630.3343,-187.5307 646,-166 668.9394,-134.4725 653.0722,-112.1416 682,-86 683.7292,-84.4373 685.5908,-83.0027 687.5485,-81.6857"/>
<polygon fill="#191970" stroke="#191970" points="689.5967,-84.5514 696.6346,-76.6319 686.1942,-78.434 689.5967,-84.5514"/>
</g>
<!-- Node191&#45;&gt;Node200 -->
<g id="edge22" class="edge">
<title>Node191&#45;&gt;Node200</title>
<path fill="none" stroke="#191970" d="M621.7202,-218.4165C630.5073,-214.9698 639.1294,-210.3046 646,-204 674.7276,-177.6386 653.0722,-150.1416 682,-124 683.7292,-122.4373 685.5908,-121.0027 687.5485,-119.6857"/>
<polygon fill="#191970" stroke="#191970" points="689.5967,-122.5514 696.6346,-114.6319 686.1942,-116.434 689.5967,-122.5514"/>
</g>
<!-- Node201 -->
<g id="node18" class="node">
<title>Node201</title>
<g id="a_node18"><a xlink:href="classNeuronMonitorCore.html#a38f87732cc929797d9648e68cd509f1b" target="_top" xlink:title="sets timestamp of last NeuronMonitor update ">
<polygon fill="#ffffff" stroke="#000000" points="685.5,-270 685.5,-300 792.5,-300 792.5,-270 685.5,-270"/>
<text text-anchor="start" x="693.5" y="-288" font-family="Helvetica,sans-Serif" font-size="10.00" fill="#000000">NeuronMonitorCore::</text>
<text text-anchor="middle" x="739" y="-277" font-family="Helvetica,sans-Serif" font-size="10.00" fill="#000000">setLastUpdated</text>
</a>
</g>
</g>
<!-- Node191&#45;&gt;Node201 -->
<g id="edge23" class="edge">
<title>Node191&#45;&gt;Node201</title>
<path fill="none" stroke="#191970" d="M604.5315,-237.5405C626.942,-245.4501 659.4552,-256.9254 686.8971,-266.6107"/>
<polygon fill="#191970" stroke="#191970" points="685.7725,-269.9254 696.3673,-269.9532 688.1022,-263.3244 685.7725,-269.9254"/>
</g>
<!-- Node208 -->
<g id="node25" class="node">
<title>Node208</title>
<g id="a_node25"><a xlink:href="classNeuronMonitorCore.html#a84e392c48ef98bece7aa0dc7af992360" target="_top" xlink:title="returns a pointer to the neuron state file ">
<polygon fill="#ffffff" stroke="#000000" points="685.5,-221 685.5,-251 792.5,-251 792.5,-221 685.5,-221"/>
<text text-anchor="start" x="693.5" y="-239" font-family="Helvetica,sans-Serif" font-size="10.00" fill="#000000">NeuronMonitorCore::</text>
<text text-anchor="middle" x="739" y="-228" font-family="Helvetica,sans-Serif" font-size="10.00" fill="#000000">getNeuronFileId</text>
</a>
</g>
</g>
<!-- Node191&#45;&gt;Node208 -->
<g id="edge32" class="edge">
<title>Node191&#45;&gt;Node208</title>
<path fill="none" stroke="#191970" d="M646.459,-231.4159C656.0289,-231.89 665.8247,-232.3752 675.2929,-232.8442"/>
<polygon fill="#191970" stroke="#191970" points="675.2512,-236.3464 685.4121,-233.3455 675.5976,-229.3549 675.2512,-236.3464"/>
</g>
<!-- Node195 -->
<g id="node12" class="node">
<title>Node195</title>
<g id="a_node12"><a xlink:href="classSNN.html#a866a9c6e2b2630816fc66adda1381655" target="_top" xlink:title="Returns pointer to existing SpikeMonitor object, NULL else. ">
<polygon fill="#ffffff" stroke="#000000" points="846,-114.5 846,-133.5 961,-133.5 961,-114.5 846,-114.5"/>
<text text-anchor="middle" x="903.5" y="-121.5" font-family="Helvetica,sans-Serif" font-size="10.00" fill="#000000">SNN::getSpikeMonitor</text>
</a>
</g>
</g>
<!-- Node194&#45;&gt;Node195 -->
<g id="edge14" class="edge">
<title>Node194&#45;&gt;Node195</title>
<path fill="none" stroke="#191970" d="M770.7042,-76.5444C779.0353,-79.3293 787.9422,-82.5581 796,-86 812.6375,-93.1066 815.1502,-98.4126 832,-105 838.1886,-107.4194 844.796,-109.6369 851.4001,-111.6353"/>
<polygon fill="#191970" stroke="#191970" points="850.4465,-115.0029 861.0244,-114.4044 852.382,-108.2758 850.4465,-115.0029"/>
</g>
<!-- Node197 -->
<g id="node14" class="node">
<title>Node197</title>
<g id="a_node14"><a xlink:href="classSNN.html#ad25000cd1457c9b9869122534ada6fdd" target="_top" xlink:title="SNN::getSpikeMonitorCore">
<polygon fill="#ffffff" stroke="#000000" points="835.5,-76.5 835.5,-95.5 971.5,-95.5 971.5,-76.5 835.5,-76.5"/>
<text text-anchor="middle" x="903.5" y="-83.5" font-family="Helvetica,sans-Serif" font-size="10.00" fill="#000000">SNN::getSpikeMonitorCore</text>
</a>
</g>
</g>
<!-- Node194&#45;&gt;Node197 -->
<g id="edge16" class="edge">
<title>Node194&#45;&gt;Node197</title>
<path fill="none" stroke="#191970" d="M794.2337,-73.3796C804.207,-74.5315 814.7765,-75.7523 825.2589,-76.963"/>
<polygon fill="#191970" stroke="#191970" points="824.9246,-80.4476 835.2601,-78.1182 825.7278,-73.4938 824.9246,-80.4476"/>
</g>
<!-- Node198 -->
<g id="node15" class="node">
<title>Node198</title>
<g id="a_node15"><a xlink:href="classSNN.html#a0eb87addfa5eebdfee4bd6b927b8945f" target="_top" xlink:title="Returns pointer to existing NeuronMonitor object, NULL else. ">
<polygon fill="#ffffff" stroke="#000000" points="842.5,-38.5 842.5,-57.5 964.5,-57.5 964.5,-38.5 842.5,-38.5"/>
<text text-anchor="middle" x="903.5" y="-45.5" font-family="Helvetica,sans-Serif" font-size="10.00" fill="#000000">SNN::getNeuronMonitor</text>
</a>
</g>
</g>
<!-- Node194&#45;&gt;Node198 -->
<g id="edge18" class="edge">
<title>Node194&#45;&gt;Node198</title>
<path fill="none" stroke="#191970" d="M794.2337,-60.6204C806.4595,-59.2083 819.5812,-57.6927 832.3402,-56.2191"/>
<polygon fill="#191970" stroke="#191970" points="832.9386,-59.6733 842.4709,-55.049 832.1353,-52.7195 832.9386,-59.6733"/>
</g>
<!-- Node199 -->
<g id="node16" class="node">
<title>Node199</title>
<g id="a_node16"><a xlink:href="classSNN.html#a9aa73fa9478383c4af1eed8387d82db9" target="_top" xlink:title="SNN::getNeuronMonitorCore">
<polygon fill="#ffffff" stroke="#000000" points="832,-.5 832,-19.5 975,-19.5 975,-.5 832,-.5"/>
<text text-anchor="middle" x="903.5" y="-7.5" font-family="Helvetica,sans-Serif" font-size="10.00" fill="#000000">SNN::getNeuronMonitorCore</text>
</a>
</g>
</g>
<!-- Node194&#45;&gt;Node199 -->
<g id="edge20" class="edge">
<title>Node194&#45;&gt;Node199</title>
<path fill="none" stroke="#191970" d="M760.1311,-57.4577C778.7929,-49.2504 806.8665,-37.4355 832,-29 839.1118,-26.6131 846.7003,-24.3263 854.1776,-22.2182"/>
<polygon fill="#191970" stroke="#191970" points="855.1741,-25.5743 863.894,-19.5565 853.3246,-18.823 855.1741,-25.5743"/>
</g>
<!-- Node196 -->
<g id="node13" class="node">
<title>Node196</title>
<g id="a_node13"><a xlink:href="classSNN.html#a292bdee57fec7c77ec4c15ea3f508d60" target="_top" xlink:title="SNN::getNumGroups">
<polygon fill="#ffffff" stroke="#000000" points="1013.5,-57.5 1013.5,-76.5 1123.5,-76.5 1123.5,-57.5 1013.5,-57.5"/>
<text text-anchor="middle" x="1068.5" y="-64.5" font-family="Helvetica,sans-Serif" font-size="10.00" fill="#000000">SNN::getNumGroups</text>
</a>
</g>
</g>
<!-- Node195&#45;&gt;Node196 -->
<g id="edge15" class="edge">
<title>Node195&#45;&gt;Node196</title>
<path fill="none" stroke="#191970" d="M943.1016,-114.4305C953.5534,-111.6457 964.7686,-108.4233 975,-105 996.3108,-97.8697 1019.7356,-88.3465 1037.8077,-80.6175"/>
<polygon fill="#191970" stroke="#191970" points="1039.4601,-83.7162 1047.2496,-76.5348 1036.6818,-77.2911 1039.4601,-83.7162"/>
</g>
<!-- Node197&#45;&gt;Node196 -->
<g id="edge17" class="edge">
<title>Node197&#45;&gt;Node196</title>
<path fill="none" stroke="#191970" d="M971.5644,-78.1623C982.0173,-76.9586 992.7893,-75.7182 1003.1807,-74.5216"/>
<polygon fill="#191970" stroke="#191970" points="1003.8855,-77.9637 1013.4194,-73.3426 1003.0846,-71.0096 1003.8855,-77.9637"/>
</g>
<!-- Node198&#45;&gt;Node196 -->
<g id="edge19" class="edge">
<title>Node198&#45;&gt;Node196</title>
<path fill="none" stroke="#191970" d="M964.9399,-55.0749C977.4474,-56.5152 990.647,-58.0351 1003.2805,-59.4899"/>
<polygon fill="#191970" stroke="#191970" points="1002.9323,-62.9728 1013.267,-60.6398 1003.7331,-56.0188 1002.9323,-62.9728"/>
</g>
<!-- Node199&#45;&gt;Node196 -->
<g id="edge21" class="edge">
<title>Node199&#45;&gt;Node196</title>
<path fill="none" stroke="#191970" d="M943.1016,-19.5695C953.5534,-22.3543 964.7686,-25.5767 975,-29 996.3108,-36.1303 1019.7356,-45.6535 1037.8077,-53.3825"/>
<polygon fill="#191970" stroke="#191970" points="1036.6818,-56.7089 1047.2496,-57.4652 1039.4601,-50.2838 1036.6818,-56.7089"/>
</g>
<!-- Node202 -->
<g id="node19" class="node">
<title>Node202</title>
<g id="a_node19"><a xlink:href="classNeuronMonitorCore.html#aaeb6a64ac5d9fd3b7a979f0f12ec87dc" target="_top" xlink:title="returns true if state buffers are close to maxAllowedBufferSize ">
<polygon fill="#ffffff" stroke="#000000" points="850,-308 850,-338 957,-338 957,-308 850,-308"/>
<text text-anchor="start" x="858" y="-326" font-family="Helvetica,sans-Serif" font-size="10.00" fill="#000000">NeuronMonitorCore::</text>
<text text-anchor="middle" x="903.5" y="-315" font-family="Helvetica,sans-Serif" font-size="10.00" fill="#000000">isBufferBig</text>
</a>
</g>
</g>
<!-- Node201&#45;&gt;Node202 -->
<g id="edge24" class="edge">
<title>Node201&#45;&gt;Node202</title>
<path fill="none" stroke="#191970" d="M792.8635,-297.4426C807.852,-300.905 824.2741,-304.6986 839.7709,-308.2784"/>
<polygon fill="#191970" stroke="#191970" points="839.2654,-311.7537 849.7966,-310.5944 840.841,-304.9333 839.2654,-311.7537"/>
</g>
<!-- Node203 -->
<g id="node20" class="node">
<title>Node203</title>
<g id="a_node20"><a xlink:href="classNeuronMonitorCore.html#a30f19d45f562061cc82c04e7289ba956" target="_top" xlink:title="returns the approximate size of the state vectors in bytes ">
<polygon fill="#ffffff" stroke="#000000" points="1015,-261 1015,-291 1122,-291 1122,-261 1015,-261"/>
<text text-anchor="start" x="1023" y="-279" font-family="Helvetica,sans-Serif" font-size="10.00" fill="#000000">NeuronMonitorCore::</text>
<text text-anchor="middle" x="1068.5" y="-268" font-family="Helvetica,sans-Serif" font-size="10.00" fill="#000000">getBufferSize</text>
</a>
</g>
</g>
<!-- Node201&#45;&gt;Node203 -->
<g id="edge26" class="edge">
<title>Node201&#45;&gt;Node203</title>
<path fill="none" stroke="#191970" d="M773.9901,-269.9133C795.278,-261.0398 820.5122,-251.1459 832,-249 894.475,-237.33 912.0713,-240.0959 975,-249 988.4644,-250.9051 1002.7044,-254.2811 1015.9014,-258.0148"/>
<polygon fill="#191970" stroke="#191970" points="1015.1782,-261.4504 1025.7598,-260.9212 1017.1578,-254.7361 1015.1782,-261.4504"/>
</g>
<!-- Node204 -->
<g id="node21" class="node">
<title>Node204</title>
<g id="a_node21"><a xlink:href="classNeuronMonitorCore.html#a3a0e4e77a2b83f5dd0e86aafcf227595" target="_top" xlink:title="returns the total accumulated time ">
<polygon fill="#ffffff" stroke="#000000" points="850,-259 850,-289 957,-289 957,-259 850,-259"/>
<text text-anchor="start" x="858" y="-277" font-family="Helvetica,sans-Serif" font-size="10.00" fill="#000000">NeuronMonitorCore::</text>
<text text-anchor="middle" x="903.5" y="-266" font-family="Helvetica,sans-Serif" font-size="10.00" fill="#000000">getAccumTime</text>
</a>
</g>
</g>
<!-- Node201&#45;&gt;Node204 -->
<g id="edge27" class="edge">
<title>Node201&#45;&gt;Node204</title>
<path fill="none" stroke="#191970" d="M792.8635,-281.3982C807.852,-280.3959 824.2741,-279.2978 839.7709,-278.2615"/>
<polygon fill="#191970" stroke="#191970" points="840.0525,-281.7506 849.7966,-277.5911 839.5853,-274.7662 840.0525,-281.7506"/>
</g>
<!-- Node205 -->
<g id="node22" class="node">
<title>Node205</title>
<g id="a_node22"><a xlink:href="classNeuronMonitorCore.html#a4d3c2252230fe74bf03bcc3045ff8972" target="_top" xlink:title="NeuronMonitorCore::\lwriteNeuronFileHeader">
<polygon fill="#ffffff" stroke="#000000" points="845.5,-357 845.5,-387 961.5,-387 961.5,-357 845.5,-357"/>
<text text-anchor="start" x="853.5" y="-375" font-family="Helvetica,sans-Serif" font-size="10.00" fill="#000000">NeuronMonitorCore::</text>
<text text-anchor="middle" x="903.5" y="-364" font-family="Helvetica,sans-Serif" font-size="10.00" fill="#000000">writeNeuronFileHeader</text>
</a>
</g>
</g>
<!-- Node201&#45;&gt;Node205 -->
<g id="edge28" class="edge">
<title>Node201&#45;&gt;Node205</title>
<path fill="none" stroke="#191970" d="M780.5565,-300.083C785.9402,-302.7243 791.2326,-305.7 796,-309 815.1288,-322.2409 812.469,-334.3599 832,-347 835.1084,-349.0117 838.398,-350.8833 841.7912,-352.6213"/>
<polygon fill="#191970" stroke="#191970" points="840.4217,-355.8447 850.9625,-356.9142 843.3894,-349.5048 840.4217,-355.8447"/>
</g>
<!-- Node201&#45;&gt;Node207 -->
<g id="edge30" class="edge">
<title>Node201&#45;&gt;Node207</title>
<path fill="none" stroke="#191970" d="M784.4081,-300.0375C788.6356,-302.5978 792.6009,-305.566 796,-309 825.7276,-339.0325 801.172,-368.0982 832,-397 834.7403,-399.5691 837.7644,-401.8638 840.9741,-403.9133"/>
<polygon fill="#191970" stroke="#191970" points="839.3877,-407.0352 849.8369,-408.786 842.7602,-400.9012 839.3877,-407.0352"/>
</g>
<!-- Node202&#45;&gt;Node203 -->
<g id="edge25" class="edge">
<title>Node202&#45;&gt;Node203</title>
<path fill="none" stroke="#191970" d="M956.1607,-307.9997C971.9375,-303.5057 989.397,-298.5324 1005.7554,-293.8727"/>
<polygon fill="#191970" stroke="#191970" points="1007.1151,-297.1247 1015.7737,-291.019 1005.1974,-290.3925 1007.1151,-297.1247"/>
</g>
<!-- Node206 -->
<g id="node23" class="node">
<title>Node206</title>
<g id="a_node23"><a xlink:href="classSNN.html#ac13b30c40669d3cb8264bd6e211b449d" target="_top" xlink:title="SNN::getGroupGrid3D">
<polygon fill="#ffffff" stroke="#000000" points="1011,-362.5 1011,-381.5 1126,-381.5 1126,-362.5 1011,-362.5"/>
<text text-anchor="middle" x="1068.5" y="-369.5" font-family="Helvetica,sans-Serif" font-size="10.00" fill="#000000">SNN::getGroupGrid3D</text>
</a>
</g>
</g>
<!-- Node205&#45;&gt;Node206 -->
<g id="edge29" class="edge">
<title>Node205&#45;&gt;Node206</title>
<path fill="none" stroke="#191970" d="M961.6728,-372C974.2651,-372 987.6878,-372 1000.6159,-372"/>
<polygon fill="#191970" stroke="#191970" points="1000.8526,-375.5001 1010.8526,-372 1000.8525,-368.5001 1000.8526,-375.5001"/>
</g>
<!-- Node207&#45;&gt;Node187 -->
<g id="edge31" class="edge">
<title>Node207&#45;&gt;Node187</title>
<path fill="none" stroke="#191970" d="M849.8758,-428.1616C747.8694,-439.0421 522.1479,-449.7293 366,-358 327.0928,-335.1439 300.3979,-287.9803 286.8489,-258.8596"/>
<polygon fill="#191970" stroke="#191970" points="289.8864,-257.0786 282.6062,-249.3812 283.4972,-259.9385 289.8864,-257.0786"/>
</g>
<!-- Node209&#45;&gt;Node187 -->
<g id="edge38" class="edge">
<title>Node209&#45;&gt;Node187</title>
<path fill="none" stroke="#191970" d="M388.8215,-205.0969C374.5371,-210.3552 356.9837,-216.108 340.0349,-221.1634"/>
<polygon fill="#191970" stroke="#191970" points="338.7717,-217.8861 330.1548,-224.0504 340.7351,-224.6051 338.7717,-217.8861"/>
</g>
<!-- Node209&#45;&gt;Node191 -->
<g id="edge39" class="edge">
<title>Node209&#45;&gt;Node191</title>
<path fill="none" stroke="#191970" d="M473.4327,-202.9712C491.0691,-207.2128 510.565,-211.9017 527.869,-216.0634"/>
<polygon fill="#191970" stroke="#191970" points="527.2321,-219.51 537.7734,-218.4455 528.8691,-212.7041 527.2321,-219.51"/>
</g>
<!-- Node209&#45;&gt;Node194 -->
<g id="edge41" class="edge">
<title>Node209&#45;&gt;Node194</title>
<path fill="none" stroke="#191970" d="M473.2015,-175.1573C520.086,-161.2417 589.306,-138.3552 646,-110 663.1985,-101.3983 664.7258,-94.4486 682,-86 686.3397,-83.8775 690.9747,-81.9012 695.6561,-80.0875"/>
<polygon fill="#191970" stroke="#191970" points="697.049,-83.3053 705.2509,-76.5986 694.6568,-76.7268 697.049,-83.3053"/>
</g>
<!-- Node209&#45;&gt;Node200 -->
<g id="edge40" class="edge">
<title>Node209&#45;&gt;Node200</title>
<path fill="none" stroke="#191970" d="M473.0458,-195.098C521.0788,-197.26 592.0945,-194.3294 646,-166 667.7631,-154.5627 661.5978,-137.7184 682,-124 684.9458,-122.0192 688.1157,-120.2293 691.3981,-118.6145"/>
<polygon fill="#191970" stroke="#191970" points="693.0714,-121.7039 700.8535,-114.5144 690.2865,-115.2817 693.0714,-121.7039"/>
</g>
<!-- Node210&#45;&gt;Node187 -->
<g id="edge44" class="edge">
<title>Node210&#45;&gt;Node187</title>
<path fill="none" stroke="#191970" d="M375.3795,-318.9527C372.1706,-317.0093 369.0137,-315.0065 366,-313 340.2273,-295.8406 312.4131,-273.4082 294.7495,-256.545"/>
<polygon fill="#191970" stroke="#191970" points="296.9505,-253.7978 287.3918,-249.228 292.0144,-258.7612 296.9505,-253.7978"/>
</g>
<!-- Node210&#45;&gt;Node205 -->
<g id="edge45" class="edge">
<title>Node210&#45;&gt;Node205</title>
<path fill="none" stroke="#191970" d="M473.0052,-339.3349C526.025,-344.5169 609.5673,-352.4008 682,-358 733.2146,-361.959 791.156,-365.5912 834.9296,-368.1634"/>
<polygon fill="#191970" stroke="#191970" points="834.9866,-371.6726 845.1735,-368.7612 835.3944,-364.6845 834.9866,-371.6726"/>
</g>
</g>
</svg>
