<?xml version="1.0" encoding="UTF-8" standalone="no"?>
<!DOCTYPE svg PUBLIC "-//W3C//DTD SVG 1.1//EN"
 "http://www.w3.org/Graphics/SVG/1.1/DTD/svg11.dtd">
<!-- Generated by graphviz version 2.40.1 (20161225.0304)
 -->
<!-- Title: setPersistentData Pages: 1 -->
<svg width="585pt" height="39pt"
 viewBox="0.00 0.00 585.00 39.00" xmlns="http://www.w3.org/2000/svg" xmlns:xlink="http://www.w3.org/1999/xlink">
<g id="graph0" class="graph" transform="scale(1 1) rotate(0) translate(4 35)">
<title>setPersistentData</title>
<polygon fill="#ffffff" stroke="transparent" points="-4,4 -4,-35 581,-35 581,4 -4,4"/>
<!-- Node1266 -->
<g id="node1" class="node">
<title>Node1266</title>
<polygon fill="#bfbfbf" stroke="#000000" points="0,-6 0,-25 95,-25 95,-6 0,-6"/>
<text text-anchor="middle" x="47.5" y="-13" font-family="Helvetica,sans-Serif" font-size="10.00" fill="#000000">setPersistentData</text>
</g>
<!-- Node1267 -->
<g id="node2" class="node">
<title>Node1267</title>
<g id="a_node2"><a xlink:href="classSpikeMonitor.html#a7ac2c997b5281ea2f2bc00cc9706d37c" target="_top" xlink:title="Sets PersistentMode either on (true) or off (false) ">
<polygon fill="#ffffff" stroke="#000000" points="131,-6 131,-25 289,-25 289,-6 131,-6"/>
<text text-anchor="middle" x="210" y="-13" font-family="Helvetica,sans-Serif" font-size="10.00" fill="#000000">SpikeMonitor::setPersistentData</text>
</a>
</g>
</g>
<!-- Node1266&#45;&gt;Node1267 -->
<g id="edge1" class="edge">
<title>Node1266&#45;&gt;Node1267</title>
<path fill="none" stroke="#191970" d="M105.5386,-15.5C113.7284,-15.5 122.2618,-15.5 130.7657,-15.5"/>
<polygon fill="#191970" stroke="#191970" points="105.3765,-12.0001 95.3765,-15.5 105.3764,-19.0001 105.3765,-12.0001"/>
</g>
<!-- Node1268 -->
<g id="node3" class="node">
<title>Node1268</title>
<g id="a_node3"><a xlink:href="classSimpleWeightTuner_1_1Impl.html#a312d84bfa66a5036bb52a4c39db6fa6c" target="_top" xlink:title="SimpleWeightTuner::\lImpl::iterate">
<polygon fill="#ffffff" stroke="#000000" points="325,-.5 325,-30.5 433,-30.5 433,-.5 325,-.5"/>
<text text-anchor="start" x="333" y="-18.5" font-family="Helvetica,sans-Serif" font-size="10.00" fill="#000000">SimpleWeightTuner::</text>
<text text-anchor="middle" x="379" y="-7.5" font-family="Helvetica,sans-Serif" font-size="10.00" fill="#000000">Impl::iterate</text>
</a>
</g>
</g>
<!-- Node1267&#45;&gt;Node1268 -->
<g id="edge2" class="edge">
<title>Node1267&#45;&gt;Node1268</title>
<path fill="none" stroke="#191970" d="M299.218,-15.5C307.8663,-15.5 316.4485,-15.5 324.6007,-15.5"/>
<polygon fill="#191970" stroke="#191970" points="299.0571,-12.0001 289.0571,-15.5 299.057,-19.0001 299.0571,-12.0001"/>
</g>
<!-- Node1269 -->
<g id="node4" class="node">
<title>Node1269</title>
<g id="a_node4"><a xlink:href="classSimpleWeightTuner.html#a0df985e3ff7a27edc1e2e3fcc8261843" target="_top" xlink:title="Performs an iteration step of the tuning algorithm. ">
<polygon fill="#ffffff" stroke="#000000" points="469,-.5 469,-30.5 577,-30.5 577,-.5 469,-.5"/>
<text text-anchor="start" x="477" y="-18.5" font-family="Helvetica,sans-Serif" font-size="10.00" fill="#000000">SimpleWeightTuner::</text>
<text text-anchor="middle" x="523" y="-7.5" font-family="Helvetica,sans-Serif" font-size="10.00" fill="#000000">iterate</text>
</a>
</g>
</g>
<!-- Node1268&#45;&gt;Node1269 -->
<g id="edge3" class="edge">
<title>Node1268&#45;&gt;Node1269</title>
<path fill="none" stroke="#191970" d="M443.2702,-15.5C451.7504,-15.5 460.3754,-15.5 468.6672,-15.5"/>
<polygon fill="#191970" stroke="#191970" points="443.03,-12.0001 433.03,-15.5 443.0299,-19.0001 443.03,-12.0001"/>
</g>
</g>
</svg>
