<?xml version="1.0" encoding="UTF-8" standalone="no"?>
<!DOCTYPE svg PUBLIC "-//W3C//DTD SVG 1.1//EN"
 "http://www.w3.org/Graphics/SVG/1.1/DTD/svg11.dtd">
<!-- Generated by graphviz version 2.40.1 (20161225.0304)
 -->
<!-- Title: getRates Pages: 1 -->
<svg width="344pt" height="88pt"
 viewBox="0.00 0.00 344.00 88.00" xmlns="http://www.w3.org/2000/svg" xmlns:xlink="http://www.w3.org/1999/xlink">
<g id="graph0" class="graph" transform="scale(1 1) rotate(0) translate(4 84)">
<title>getRates</title>
<polygon fill="#ffffff" stroke="transparent" points="-4,4 -4,-84 340,-84 340,4 -4,4"/>
<!-- Node25 -->
<g id="node1" class="node">
<title>Node25</title>
<polygon fill="#bfbfbf" stroke="#000000" points="0,-30 0,-49 56,-49 56,-30 0,-30"/>
<text text-anchor="middle" x="28" y="-37" font-family="Helvetica,sans-Serif" font-size="10.00" fill="#000000">getRates</text>
</g>
<!-- Node26 -->
<g id="node2" class="node">
<title>Node26</title>
<g id="a_node2"><a xlink:href="classPoissonRate_1_1Impl.html#af4d8939f2440ba0d11ea4807f93ec36e" target="_top" xlink:title="PoissonRate::Impl::\lgetRates">
<polygon fill="#ffffff" stroke="#000000" points="92,-24.5 92,-54.5 196,-54.5 196,-24.5 92,-24.5"/>
<text text-anchor="start" x="100" y="-42.5" font-family="Helvetica,sans-Serif" font-size="10.00" fill="#000000">PoissonRate::Impl::</text>
<text text-anchor="middle" x="144" y="-31.5" font-family="Helvetica,sans-Serif" font-size="10.00" fill="#000000">getRates</text>
</a>
</g>
</g>
<!-- Node25&#45;&gt;Node26 -->
<g id="edge1" class="edge">
<title>Node25&#45;&gt;Node26</title>
<path fill="none" stroke="#191970" d="M56.0804,-39.5C63.8751,-39.5 72.6627,-39.5 81.5905,-39.5"/>
<polygon fill="#191970" stroke="#191970" points="81.6843,-43.0001 91.6843,-39.5 81.6842,-36.0001 81.6843,-43.0001"/>
</g>
<!-- Node27 -->
<g id="node3" class="node">
<title>Node27</title>
<g id="a_node3"><a xlink:href="classPoissonRate_1_1Impl.html#a0bc9734220de46306a6db7b2b33f7902" target="_top" xlink:title="PoissonRate::Impl::\lisOnGPU">
<polygon fill="#ffffff" stroke="#000000" points="232,-49.5 232,-79.5 336,-79.5 336,-49.5 232,-49.5"/>
<text text-anchor="start" x="240" y="-67.5" font-family="Helvetica,sans-Serif" font-size="10.00" fill="#000000">PoissonRate::Impl::</text>
<text text-anchor="middle" x="284" y="-56.5" font-family="Helvetica,sans-Serif" font-size="10.00" fill="#000000">isOnGPU</text>
</a>
</g>
</g>
<!-- Node26&#45;&gt;Node27 -->
<g id="edge2" class="edge">
<title>Node26&#45;&gt;Node27</title>
<path fill="none" stroke="#191970" d="M196.1308,-48.8091C204.5124,-50.3058 213.2603,-51.8679 221.8486,-53.4015"/>
<polygon fill="#191970" stroke="#191970" points="221.3661,-56.8707 231.8256,-55.1831 222.5966,-49.9797 221.3661,-56.8707"/>
</g>
<!-- Node28 -->
<g id="node4" class="node">
<title>Node28</title>
<g id="a_node4"><a xlink:href="classPoissonRate_1_1Impl.html#a00ddee44990cd4763a7d4df074e6d405" target="_top" xlink:title="PoissonRate::Impl::\lgetNumNeurons">
<polygon fill="#ffffff" stroke="#000000" points="232,-.5 232,-30.5 336,-30.5 336,-.5 232,-.5"/>
<text text-anchor="start" x="240" y="-18.5" font-family="Helvetica,sans-Serif" font-size="10.00" fill="#000000">PoissonRate::Impl::</text>
<text text-anchor="middle" x="284" y="-7.5" font-family="Helvetica,sans-Serif" font-size="10.00" fill="#000000">getNumNeurons</text>
</a>
</g>
</g>
<!-- Node26&#45;&gt;Node28 -->
<g id="edge3" class="edge">
<title>Node26&#45;&gt;Node28</title>
<path fill="none" stroke="#191970" d="M196.1308,-30.5633C204.5124,-29.1264 213.2603,-27.6268 221.8486,-26.1545"/>
<polygon fill="#191970" stroke="#191970" points="222.5608,-29.5836 231.8256,-24.4442 221.378,-22.6842 222.5608,-29.5836"/>
</g>
</g>
</svg>
