<?xml version="1.0" encoding="UTF-8" standalone="no"?>
<!DOCTYPE svg PUBLIC "-//W3C//DTD SVG 1.1//EN"
 "http://www.w3.org/Graphics/SVG/1.1/DTD/svg11.dtd">
<!-- Generated by graphviz version 2.40.1 (20161225.0304)
 -->
<!-- Title: isConnectionPlastic Pages: 1 -->
<!--zoomable 104 -->
<svg id="main" version="1.1" xmlns="http://www.w3.org/2000/svg" xmlns:xlink="http://www.w3.org/1999/xlink" xml:space="preserve" onload="init(evt)">
<style type="text/css"><![CDATA[
.edge:hover path { stroke: red; }
.edge:hover polygon { stroke: red; fill: red; }
]]></style>
<script type="text/javascript"><![CDATA[
var edges = document.getElementsByTagName('g');
if (edges && edges.length) {
  for (var i=0;i<edges.length;i++) {
    if (edges[i].id.substr(0,4)=='edge') {
      edges[i].setAttribute('class','edge');
    }
  }
}
]]></script>
        <defs>
                <circle id="rim" cx="0" cy="0" r="7"/>
                <circle id="rim2" cx="0" cy="0" r="3.5"/>
                <g id="zoomPlus">
                        <use xlink:href="#rim" fill="#404040">
                                <set attributeName="fill" to="#808080" begin="zoomplus.mouseover" end="zoomplus.mouseout"/>
                        </use>
                        <path d="M-4,0h8M0,-4v8" fill="none" stroke="white" stroke-width="1.5" pointer-events="none"/>
                </g>
                <g id="zoomMin">
                        <use xlink:href="#rim" fill="#404040">
                                <set attributeName="fill" to="#808080" begin="zoomminus.mouseover" end="zoomminus.mouseout"/>
                        </use>
                        <path d="M-4,0h8" fill="none" stroke="white" stroke-width="1.5" pointer-events="none"/>
                </g>
                <g id="dirArrow">
                        <path fill="none" stroke="white" stroke-width="1.5" d="M0,-3.0v7 M-2.5,-0.5L0,-3.0L2.5,-0.5"/>
                </g>
               <g id="resetDef">
                       <use xlink:href="#rim2" fill="#404040">
                               <set attributeName="fill" to="#808080" begin="reset.mouseover" end="reset.mouseout"/>
                       </use>
               </g>
        </defs>

<script type="text/javascript">
var viewWidth = 799;
var viewHeight = 104;
var sectionId = 'dynsection-97';
</script>
<script xlink:href="svgpan.js"/>
<svg id="graph" class="graph">
<g id="viewport">
<title>isConnectionPlastic</title>
<polygon fill="#ffffff" stroke="transparent" points="-4,4 -4,-100 795,-100 795,4 -4,4"/>
<!-- Node513 -->
<g id="node1" class="node">
<title>Node513</title>
<polygon fill="#bfbfbf" stroke="#000000" points="0,-38.5 0,-57.5 104,-57.5 104,-38.5 0,-38.5"/>
<text text-anchor="middle" x="52" y="-45.5" font-family="Helvetica,sans-Serif" font-size="10.00" fill="#000000">isConnectionPlastic</text>
</g>
<!-- Node514 -->
<g id="node2" class="node">
<title>Node514</title>
<g id="a_node2"><a xlink:href="classUserErrors.html#a4bbedc6c0817d5e59e74e450bf00472c" target="_top" xlink:title="simple wrapper for assert statement ">
<polygon fill="#ffffff" stroke="#000000" points="147.5,-76.5 147.5,-95.5 263.5,-95.5 263.5,-76.5 147.5,-76.5"/>
<text text-anchor="middle" x="205.5" y="-83.5" font-family="Helvetica,sans-Serif" font-size="10.00" fill="#000000">UserErrors::assertTrue</text>
</a>
</g>
</g>
<!-- Node513&#45;&gt;Node514 -->
<g id="edge1" class="edge">
<title>Node513&#45;&gt;Node514</title>
<path fill="none" stroke="#191970" d="M90.7345,-57.589C110.8993,-62.5809 135.7479,-68.7324 157.1611,-74.0334"/>
<polygon fill="#191970" stroke="#191970" points="156.4959,-77.4743 167.044,-76.4799 158.1781,-70.6794 156.4959,-77.4743"/>
</g>
<!-- Node515 -->
<g id="node3" class="node">
<title>Node515</title>
<g id="a_node3"><a xlink:href="classCARLsim_1_1Impl.html#a14efb66377e70d7f0f4596c223fbc5cc" target="_top" xlink:title="getNumConnections">
<polygon fill="#ffffff" stroke="#000000" points="152.5,-38.5 152.5,-57.5 258.5,-57.5 258.5,-38.5 152.5,-38.5"/>
<text text-anchor="middle" x="205.5" y="-45.5" font-family="Helvetica,sans-Serif" font-size="10.00" fill="#000000">getNumConnections</text>
</a>
</g>
</g>
<!-- Node513&#45;&gt;Node515 -->
<g id="edge2" class="edge">
<title>Node513&#45;&gt;Node515</title>
<path fill="none" stroke="#191970" d="M104.3967,-48C116.4744,-48 129.4498,-48 141.9441,-48"/>
<polygon fill="#191970" stroke="#191970" points="142.2961,-51.5001 152.2961,-48 142.296,-44.5001 142.2961,-51.5001"/>
</g>
<!-- Node519 -->
<g id="node7" class="node">
<title>Node519</title>
<g id="a_node7"><a xlink:href="classSNN.html#a821a04dec998f1fcebcc048d39cc8b21" target="_top" xlink:title="returns whether synapses in connection are fixed (false) or plastic (true) ">
<polygon fill="#ffffff" stroke="#000000" points="140,-.5 140,-19.5 271,-19.5 271,-.5 140,-.5"/>
<text text-anchor="middle" x="205.5" y="-7.5" font-family="Helvetica,sans-Serif" font-size="10.00" fill="#000000">SNN::isConnectionPlastic</text>
</a>
</g>
</g>
<!-- Node513&#45;&gt;Node519 -->
<g id="edge6" class="edge">
<title>Node513&#45;&gt;Node519</title>
<path fill="none" stroke="#191970" d="M90.7345,-38.411C110.8993,-33.4191 135.7479,-27.2676 157.1611,-21.9666"/>
<polygon fill="#191970" stroke="#191970" points="158.1781,-25.3206 167.044,-19.5201 156.4959,-18.5257 158.1781,-25.3206"/>
</g>
<!-- Node516 -->
<g id="node4" class="node">
<title>Node516</title>
<g id="a_node4"><a xlink:href="classSNN.html#a14efb66377e70d7f0f4596c223fbc5cc" target="_top" xlink:title="SNN::getNumConnections">
<polygon fill="#ffffff" stroke="#000000" points="307,-38.5 307,-57.5 441,-57.5 441,-38.5 307,-38.5"/>
<text text-anchor="middle" x="374" y="-45.5" font-family="Helvetica,sans-Serif" font-size="10.00" fill="#000000">SNN::getNumConnections</text>
</a>
</g>
</g>
<!-- Node515&#45;&gt;Node516 -->
<g id="edge3" class="edge">
<title>Node515&#45;&gt;Node516</title>
<path fill="none" stroke="#191970" d="M258.8145,-48C270.8349,-48 283.831,-48 296.6148,-48"/>
<polygon fill="#191970" stroke="#191970" points="296.7991,-51.5001 306.7991,-48 296.799,-44.5001 296.7991,-51.5001"/>
</g>
<!-- Node517 -->
<g id="node5" class="node">
<title>Node517</title>
<g id="a_node5"><a xlink:href="classSNN.html#a52f149e224abff772962dea6680398e2" target="_top" xlink:title="gets number of connections associated with a connection ID ">
<polygon fill="#ffffff" stroke="#000000" points="477,-38.5 477,-57.5 649,-57.5 649,-38.5 477,-38.5"/>
<text text-anchor="middle" x="563" y="-45.5" font-family="Helvetica,sans-Serif" font-size="10.00" fill="#000000">SNN::getNumSynapticConnections</text>
</a>
</g>
</g>
<!-- Node516&#45;&gt;Node517 -->
<g id="edge4" class="edge">
<title>Node516&#45;&gt;Node517</title>
<path fill="none" stroke="#191970" d="M441.1665,-48C449.4789,-48 458.1,-48 466.7407,-48"/>
<polygon fill="#191970" stroke="#191970" points="466.8759,-51.5001 476.8759,-48 466.8759,-44.5001 466.8759,-51.5001"/>
</g>
<!-- Node518 -->
<g id="node6" class="node">
<title>Node518</title>
<g id="a_node6"><a xlink:href="classSNN.html#a477f99451786873b73e2623b6f89b766" target="_top" xlink:title="deallocates all dynamical structures and exits ">
<polygon fill="#ffffff" stroke="#000000" points="685,-38.5 685,-57.5 791,-57.5 791,-38.5 685,-38.5"/>
<text text-anchor="middle" x="738" y="-45.5" font-family="Helvetica,sans-Serif" font-size="10.00" fill="#000000">SNN::exitSimulation</text>
</a>
</g>
</g>
<!-- Node517&#45;&gt;Node518 -->
<g id="edge5" class="edge">
<title>Node517&#45;&gt;Node518</title>
<path fill="none" stroke="#191970" d="M649.2183,-48C657.711,-48 666.2199,-48 674.4247,-48"/>
<polygon fill="#191970" stroke="#191970" points="674.6308,-51.5001 684.6308,-48 674.6308,-44.5001 674.6308,-51.5001"/>
</g>
</g>
</svg>
        <g id="navigator" transform="translate(0 0)" fill="#404254">
                <rect fill="#f2f5e9" fill-opacity="0.5" stroke="#606060" stroke-width=".5" x="0" y="0" width="60" height="60"/>
                <use id="zoomplus" xlink:href="#zoomPlus" x="17" y="9" onmousedown="handleZoom(evt,'in')"/>
                <use id="zoomminus" xlink:href="#zoomMin" x="42" y="9" onmousedown="handleZoom(evt,'out')"/>
                <use id="reset" xlink:href="#resetDef" x="30" y="36" onmousedown="handleReset()"/>
                <g id="arrowUp" xlink:href="#dirArrow" transform="translate(30 24)" onmousedown="handlePan(0,-1)">
                  <use xlink:href="#rim" fill="#404040">
                        <set attributeName="fill" to="#808080" begin="arrowUp.mouseover" end="arrowUp.mouseout"/>
                  </use>
                  <path fill="none" stroke="white" stroke-width="1.5" d="M0,-3.0v7 M-2.5,-0.5L0,-3.0L2.5,-0.5"/>
                </g>
                <g id="arrowRight" xlink:href="#dirArrow" transform="rotate(90) translate(36 -43)" onmousedown="handlePan(1,0)">
                  <use xlink:href="#rim" fill="#404040">
                        <set attributeName="fill" to="#808080" begin="arrowRight.mouseover" end="arrowRight.mouseout"/>
                  </use>
                  <path fill="none" stroke="white" stroke-width="1.5" d="M0,-3.0v7 M-2.5,-0.5L0,-3.0L2.5,-0.5"/>
                </g>
                <g id="arrowDown" xlink:href="#dirArrow" transform="rotate(180) translate(-30 -48)" onmousedown="handlePan(0,1)">
                  <use xlink:href="#rim" fill="#404040">
                        <set attributeName="fill" to="#808080" begin="arrowDown.mouseover" end="arrowDown.mouseout"/>
                  </use>
                  <path fill="none" stroke="white" stroke-width="1.5" d="M0,-3.0v7 M-2.5,-0.5L0,-3.0L2.5,-0.5"/>
                </g>
                <g id="arrowLeft" xlink:href="#dirArrow" transform="rotate(270) translate(-36 17)" onmousedown="handlePan(-1,0)">
                  <use xlink:href="#rim" fill="#404040">
                        <set attributeName="fill" to="#808080" begin="arrowLeft.mouseover" end="arrowLeft.mouseout"/>
                  </use>
                  <path fill="none" stroke="white" stroke-width="1.5" d="M0,-3.0v7 M-2.5,-0.5L0,-3.0L2.5,-0.5"/>
                </g>
        </g>
        <svg viewBox="0 0 15 15" width="100%" height="30px" preserveAspectRatio="xMaxYMin meet">
         <g id="arrow_out" transform="scale(0.3 0.3)">
          <a xlink:href="classCARLsim_1_1Impl_a821a04dec998f1fcebcc048d39cc8b21_cgraph_org.svg" target="_base">
           <rect id="button" ry="5" rx="5" y="6" x="6" height="38" width="38"
                fill="#f2f5e9" fill-opacity="0.5" stroke="#606060" stroke-width="1.0"/>
           <path id="arrow"
             d="M 11.500037,31.436501 C 11.940474,20.09759 22.043105,11.32322 32.158766,21.979434 L 37.068811,17.246167 C 37.068811,17.246167 37.088388,32 37.088388,32 L 22.160133,31.978069 C 22.160133,31.978069 26.997745,27.140456 26.997745,27.140456 C 18.528582,18.264221 13.291696,25.230495 11.500037,31.436501 z"
             style="fill:#404040;"/>
          </a>
         </g>
        </svg>
</svg>
