<?xml version="1.0" encoding="UTF-8" standalone="no"?>
<!DOCTYPE svg PUBLIC "-//W3C//DTD SVG 1.1//EN"
 "http://www.w3.org/Graphics/SVG/1.1/DTD/svg11.dtd">
<!-- Generated by graphviz version 2.40.1 (20161225.0304)
 -->
<!-- Title: isOnGPU Pages: 1 -->
<!--zoomable 300 -->
<svg id="main" version="1.1" xmlns="http://www.w3.org/2000/svg" xmlns:xlink="http://www.w3.org/1999/xlink" xml:space="preserve" onload="init(evt)">
<style type="text/css"><![CDATA[
.edge:hover path { stroke: red; }
.edge:hover polygon { stroke: red; fill: red; }
]]></style>
<script type="text/javascript"><![CDATA[
var edges = document.getElementsByTagName('g');
if (edges && edges.length) {
  for (var i=0;i<edges.length;i++) {
    if (edges[i].id.substr(0,4)=='edge') {
      edges[i].setAttribute('class','edge');
    }
  }
}
]]></script>
        <defs>
                <circle id="rim" cx="0" cy="0" r="7"/>
                <circle id="rim2" cx="0" cy="0" r="3.5"/>
                <g id="zoomPlus">
                        <use xlink:href="#rim" fill="#404040">
                                <set attributeName="fill" to="#808080" begin="zoomplus.mouseover" end="zoomplus.mouseout"/>
                        </use>
                        <path d="M-4,0h8M0,-4v8" fill="none" stroke="white" stroke-width="1.5" pointer-events="none"/>
                </g>
                <g id="zoomMin">
                        <use xlink:href="#rim" fill="#404040">
                                <set attributeName="fill" to="#808080" begin="zoomminus.mouseover" end="zoomminus.mouseout"/>
                        </use>
                        <path d="M-4,0h8" fill="none" stroke="white" stroke-width="1.5" pointer-events="none"/>
                </g>
                <g id="dirArrow">
                        <path fill="none" stroke="white" stroke-width="1.5" d="M0,-3.0v7 M-2.5,-0.5L0,-3.0L2.5,-0.5"/>
                </g>
               <g id="resetDef">
                       <use xlink:href="#rim2" fill="#404040">
                               <set attributeName="fill" to="#808080" begin="reset.mouseover" end="reset.mouseout"/>
                       </use>
               </g>
        </defs>

<script type="text/javascript">
var viewWidth = 686;
var viewHeight = 300;
var sectionId = 'dynsection-10';
</script>
<script xlink:href="svgpan.js"/>
<svg id="graph" class="graph">
<g id="viewport">
<title>isOnGPU</title>
<polygon fill="#ffffff" stroke="transparent" points="-4,4 -4,-295.5 682,-295.5 682,4 -4,4"/>
<!-- Node42 -->
<g id="node1" class="node">
<title>Node42</title>
<polygon fill="#bfbfbf" stroke="#000000" points="0,-139 0,-158 59,-158 59,-139 0,-139"/>
<text text-anchor="middle" x="29.5" y="-146" font-family="Helvetica,sans-Serif" font-size="10.00" fill="#000000">isOnGPU</text>
</g>
<!-- Node43 -->
<g id="node2" class="node">
<title>Node43</title>
<g id="a_node2"><a xlink:href="classPoissonRate_1_1Impl.html#a024997d941d0dff7ef89aa5ecddbc1ac" target="_top" xlink:title="~Impl">
<polygon fill="#ffffff" stroke="#000000" points="117.5,-272 117.5,-291 158.5,-291 158.5,-272 117.5,-272"/>
<text text-anchor="middle" x="138" y="-279" font-family="Helvetica,sans-Serif" font-size="10.00" fill="#000000">~Impl</text>
</a>
</g>
</g>
<!-- Node42&#45;&gt;Node43 -->
<g id="edge1" class="edge">
<title>Node42&#45;&gt;Node43</title>
<path fill="none" stroke="#191970" d="M36.1041,-167.492C45.6006,-192.3203 65.3052,-235.7821 95,-262.5 101.3099,-268.1773 109.5897,-272.3776 117.1974,-275.3639"/>
<polygon fill="#191970" stroke="#191970" points="39.3876,-166.2798 32.6598,-158.0952 32.8152,-168.6889 39.3876,-166.2798"/>
</g>
<!-- Node44 -->
<g id="node3" class="node">
<title>Node44</title>
<g id="a_node3"><a xlink:href="classPoissonRate_1_1Impl.html#a62fd49ae5772f076bdf6cdec1aeee691" target="_top" xlink:title="getRate">
<polygon fill="#ffffff" stroke="#000000" points="112.5,-234 112.5,-253 163.5,-253 163.5,-234 112.5,-234"/>
<text text-anchor="middle" x="138" y="-241" font-family="Helvetica,sans-Serif" font-size="10.00" fill="#000000">getRate</text>
</a>
</g>
</g>
<!-- Node42&#45;&gt;Node44 -->
<g id="edge2" class="edge">
<title>Node42&#45;&gt;Node44</title>
<path fill="none" stroke="#191970" d="M41.4672,-166.5218C53.3867,-183.3417 73.0373,-208.224 95,-224.5 100.2458,-228.3875 106.4122,-231.7008 112.4115,-234.4191"/>
<polygon fill="#191970" stroke="#191970" points="44.2301,-164.3628 35.6751,-158.1127 38.4653,-168.3336 44.2301,-164.3628"/>
</g>
<!-- Node46 -->
<g id="node5" class="node">
<title>Node46</title>
<g id="a_node5"><a xlink:href="classPoissonRate_1_1Impl.html#af4d8939f2440ba0d11ea4807f93ec36e" target="_top" xlink:title="getRates">
<polygon fill="#ffffff" stroke="#000000" points="110,-196 110,-215 166,-215 166,-196 110,-196"/>
<text text-anchor="middle" x="138" y="-203" font-family="Helvetica,sans-Serif" font-size="10.00" fill="#000000">getRates</text>
</a>
</g>
</g>
<!-- Node42&#45;&gt;Node46 -->
<g id="edge4" class="edge">
<title>Node42&#45;&gt;Node46</title>
<path fill="none" stroke="#191970" d="M53.5566,-163.3051C65.7894,-170.6146 80.9958,-179.3708 95,-186.5 101.4005,-189.7584 108.4818,-193.0217 115.0194,-195.9016"/>
<polygon fill="#191970" stroke="#191970" points="55.2204,-160.2212 44.8508,-158.0483 51.6021,-166.2135 55.2204,-160.2212"/>
</g>
<!-- Node48 -->
<g id="node7" class="node">
<title>Node48</title>
<g id="a_node7"><a xlink:href="classPoissonRate_1_1Impl.html#a0c556a18de003bbbc945fd08f867b0c4" target="_top" xlink:title="getRatePtrCPU">
<polygon fill="#ffffff" stroke="#000000" points="95,-158 95,-177 181,-177 181,-158 95,-158"/>
<text text-anchor="middle" x="138" y="-165" font-family="Helvetica,sans-Serif" font-size="10.00" fill="#000000">getRatePtrCPU</text>
</a>
</g>
</g>
<!-- Node42&#45;&gt;Node48 -->
<g id="edge6" class="edge">
<title>Node42&#45;&gt;Node48</title>
<path fill="none" stroke="#191970" d="M69.0967,-155.434C77.5088,-156.9071 86.4289,-158.4691 94.9621,-159.9634"/>
<polygon fill="#191970" stroke="#191970" points="69.602,-151.9693 59.1481,-153.6918 68.3945,-158.8644 69.602,-151.9693"/>
</g>
<!-- Node51 -->
<g id="node10" class="node">
<title>Node51</title>
<g id="a_node10"><a xlink:href="classPoissonRate_1_1Impl.html#ae29243d4f13523ed70b2d5cc907923d7" target="_top" xlink:title="getRatePtrGPU">
<polygon fill="#ffffff" stroke="#000000" points="95,-120 95,-139 181,-139 181,-120 95,-120"/>
<text text-anchor="middle" x="138" y="-127" font-family="Helvetica,sans-Serif" font-size="10.00" fill="#000000">getRatePtrGPU</text>
</a>
</g>
</g>
<!-- Node42&#45;&gt;Node51 -->
<g id="edge9" class="edge">
<title>Node42&#45;&gt;Node51</title>
<path fill="none" stroke="#191970" d="M69.0967,-141.566C77.5088,-140.0929 86.4289,-138.5309 94.9621,-137.0366"/>
<polygon fill="#191970" stroke="#191970" points="68.3945,-138.1356 59.1481,-143.3082 69.602,-145.0307 68.3945,-138.1356"/>
</g>
<!-- Node53 -->
<g id="node12" class="node">
<title>Node53</title>
<g id="a_node12"><a xlink:href="classPoissonRate_1_1Impl.html#a99ac51f213a6d1c8487b1519106df970" target="_top" xlink:title="setRate">
<polygon fill="#ffffff" stroke="#000000" points="112.5,-6 112.5,-25 163.5,-25 163.5,-6 112.5,-6"/>
<text text-anchor="middle" x="138" y="-13" font-family="Helvetica,sans-Serif" font-size="10.00" fill="#000000">setRate</text>
</a>
</g>
</g>
<!-- Node42&#45;&gt;Node53 -->
<g id="edge11" class="edge">
<title>Node42&#45;&gt;Node53</title>
<path fill="none" stroke="#191970" d="M36.1041,-129.508C45.6006,-104.6797 65.3052,-61.2179 95,-34.5 99.9751,-30.0236 106.1748,-26.4656 112.3042,-23.6967"/>
<polygon fill="#191970" stroke="#191970" points="32.8152,-128.3111 32.6598,-138.9048 39.3876,-130.7202 32.8152,-128.3111"/>
</g>
<!-- Node57 -->
<g id="node16" class="node">
<title>Node57</title>
<g id="a_node16"><a xlink:href="classPoissonRate_1_1Impl.html#a849f575c3608aa51a432c232ba233dac" target="_top" xlink:title="setRates">
<polygon fill="#ffffff" stroke="#000000" points="110,-44 110,-63 166,-63 166,-44 110,-44"/>
<text text-anchor="middle" x="138" y="-51" font-family="Helvetica,sans-Serif" font-size="10.00" fill="#000000">setRates</text>
</a>
</g>
</g>
<!-- Node42&#45;&gt;Node57 -->
<g id="edge15" class="edge">
<title>Node42&#45;&gt;Node57</title>
<path fill="none" stroke="#191970" d="M43.1993,-130.7214C55.6049,-115.39 74.9593,-93.2917 95,-77.5 101.9837,-71.997 110.3898,-67.0042 117.9101,-63.0153"/>
<polygon fill="#191970" stroke="#191970" points="40.212,-128.8559 36.7453,-138.8675 45.6987,-133.2029 40.212,-128.8559"/>
</g>
<!-- Node58 -->
<g id="node17" class="node">
<title>Node58</title>
<g id="a_node17"><a xlink:href="classPoissonRate.html#a0bc9734220de46306a6db7b2b33f7902" target="_top" xlink:title="Checks whether the firing rates are allocated on CPU or GPU. ">
<polygon fill="#ffffff" stroke="#000000" points="230.5,-82 230.5,-101 351.5,-101 351.5,-82 230.5,-82"/>
<text text-anchor="middle" x="291" y="-89" font-family="Helvetica,sans-Serif" font-size="10.00" fill="#000000">PoissonRate::isOnGPU</text>
</a>
</g>
</g>
<!-- Node42&#45;&gt;Node58 -->
<g id="edge16" class="edge">
<title>Node42&#45;&gt;Node58</title>
<path fill="none" stroke="#191970" d="M50.8455,-132.9601C63.141,-124.8425 79.2424,-115.5679 95,-110.5 138.9364,-96.3694 191.0396,-91.8584 230.4778,-90.751"/>
<polygon fill="#191970" stroke="#191970" points="48.5205,-130.3106 42.2537,-138.8533 52.48,-136.0832 48.5205,-130.3106"/>
</g>
<!-- Node45 -->
<g id="node4" class="node">
<title>Node45</title>
<g id="a_node4"><a xlink:href="classPoissonRate.html#a62fd49ae5772f076bdf6cdec1aeee691" target="_top" xlink:title="Returns the mean firing rate of a specific neuron ID. ">
<polygon fill="#ffffff" stroke="#000000" points="234.5,-234 234.5,-253 347.5,-253 347.5,-234 234.5,-234"/>
<text text-anchor="middle" x="291" y="-241" font-family="Helvetica,sans-Serif" font-size="10.00" fill="#000000">PoissonRate::getRate</text>
</a>
</g>
</g>
<!-- Node44&#45;&gt;Node45 -->
<g id="edge3" class="edge">
<title>Node44&#45;&gt;Node45</title>
<path fill="none" stroke="#191970" d="M173.7048,-243.5C191.7758,-243.5 214.1395,-243.5 234.4776,-243.5"/>
<polygon fill="#191970" stroke="#191970" points="173.6088,-240.0001 163.6088,-243.5 173.6087,-247.0001 173.6088,-240.0001"/>
</g>
<!-- Node47 -->
<g id="node6" class="node">
<title>Node47</title>
<g id="a_node6"><a xlink:href="classPoissonRate.html#aec035517f446c72905211ccbe1cec98a" target="_top" xlink:title="Returns a vector of firing rates, one element per neuron. ">
<polygon fill="#ffffff" stroke="#000000" points="231.5,-196 231.5,-215 350.5,-215 350.5,-196 231.5,-196"/>
<text text-anchor="middle" x="291" y="-203" font-family="Helvetica,sans-Serif" font-size="10.00" fill="#000000">PoissonRate::getRates</text>
</a>
</g>
</g>
<!-- Node46&#45;&gt;Node47 -->
<g id="edge5" class="edge">
<title>Node46&#45;&gt;Node47</title>
<path fill="none" stroke="#191970" d="M176.4809,-205.5C193.1128,-205.5 212.9594,-205.5 231.4218,-205.5"/>
<polygon fill="#191970" stroke="#191970" points="176.0626,-202.0001 166.0626,-205.5 176.0625,-209.0001 176.0626,-202.0001"/>
</g>
<!-- Node49 -->
<g id="node8" class="node">
<title>Node49</title>
<g id="a_node8"><a xlink:href="classPoissonRate.html#a855d40a5432bc45e3f614bf7fce96d80" target="_top" xlink:title="Returns pointer to CPU&#45;allocated firing rate array (deprecated) ">
<polygon fill="#ffffff" stroke="#000000" points="217,-158 217,-177 365,-177 365,-158 217,-158"/>
<text text-anchor="middle" x="291" y="-165" font-family="Helvetica,sans-Serif" font-size="10.00" fill="#000000">PoissonRate::getRatePtrCPU</text>
</a>
</g>
</g>
<!-- Node48&#45;&gt;Node49 -->
<g id="edge7" class="edge">
<title>Node48&#45;&gt;Node49</title>
<path fill="none" stroke="#191970" d="M191.2236,-167.5C199.4685,-167.5 208.1121,-167.5 216.7182,-167.5"/>
<polygon fill="#191970" stroke="#191970" points="191.0262,-164.0001 181.0262,-167.5 191.0262,-171.0001 191.0262,-164.0001"/>
</g>
<!-- Node50 -->
<g id="node9" class="node">
<title>Node50</title>
<g id="a_node9"><a xlink:href="snn__cpu__module_8cpp.html#ac42c21b5ae4b743f8e00b7dfe04dcfe3" target="_top" xlink:title="dvdtLIF">
<polygon fill="#ffffff" stroke="#000000" points="429.5,-120 429.5,-139 479.5,-139 479.5,-120 429.5,-120"/>
<text text-anchor="middle" x="454.5" y="-127" font-family="Helvetica,sans-Serif" font-size="10.00" fill="#000000">dvdtLIF</text>
</a>
</g>
</g>
<!-- Node49&#45;&gt;Node50 -->
<g id="edge8" class="edge">
<title>Node49&#45;&gt;Node50</title>
<path fill="none" stroke="#191970" d="M342.2021,-155.5998C371.0987,-148.8838 405.9431,-140.7854 429.0765,-135.4088"/>
<polygon fill="#191970" stroke="#191970" points="341.206,-152.238 332.258,-157.911 342.7907,-159.0562 341.206,-152.238"/>
</g>
<!-- Node52 -->
<g id="node11" class="node">
<title>Node52</title>
<g id="a_node11"><a xlink:href="classPoissonRate.html#a79e44c1903cadb57ad47dc106160568b" target="_top" xlink:title="Returns pointer to GPU&#45;allocated firing rate array (deprecated) ">
<polygon fill="#ffffff" stroke="#000000" points="217,-120 217,-139 365,-139 365,-120 217,-120"/>
<text text-anchor="middle" x="291" y="-127" font-family="Helvetica,sans-Serif" font-size="10.00" fill="#000000">PoissonRate::getRatePtrGPU</text>
</a>
</g>
</g>
<!-- Node51&#45;&gt;Node52 -->
<g id="edge10" class="edge">
<title>Node51&#45;&gt;Node52</title>
<path fill="none" stroke="#191970" d="M191.2236,-129.5C199.4685,-129.5 208.1121,-129.5 216.7182,-129.5"/>
<polygon fill="#191970" stroke="#191970" points="191.0262,-126.0001 181.0262,-129.5 191.0262,-133.0001 191.0262,-126.0001"/>
</g>
<!-- Node54 -->
<g id="node13" class="node">
<title>Node54</title>
<g id="a_node13"><a xlink:href="classPoissonRate.html#a99ac51f213a6d1c8487b1519106df970" target="_top" xlink:title="Sets the mean firing rate of a particular neuron ID. ">
<polygon fill="#ffffff" stroke="#000000" points="234.5,-6 234.5,-25 347.5,-25 347.5,-6 234.5,-6"/>
<text text-anchor="middle" x="291" y="-13" font-family="Helvetica,sans-Serif" font-size="10.00" fill="#000000">PoissonRate::setRate</text>
</a>
</g>
</g>
<!-- Node53&#45;&gt;Node54 -->
<g id="edge12" class="edge">
<title>Node53&#45;&gt;Node54</title>
<path fill="none" stroke="#191970" d="M173.7048,-15.5C191.7758,-15.5 214.1395,-15.5 234.4776,-15.5"/>
<polygon fill="#191970" stroke="#191970" points="173.6088,-12.0001 163.6088,-15.5 173.6087,-19.0001 173.6088,-12.0001"/>
</g>
<!-- Node55 -->
<g id="node14" class="node">
<title>Node55</title>
<g id="a_node14"><a xlink:href="classVisualStimulus_1_1Impl.html#a7c85c4aea5e909cdc928547d8fd62b2e" target="_top" xlink:title="VisualStimulus::Impl\l::readFramePoisson">
<polygon fill="#ffffff" stroke="#000000" points="401,-.5 401,-30.5 508,-30.5 508,-.5 401,-.5"/>
<text text-anchor="start" x="409" y="-18.5" font-family="Helvetica,sans-Serif" font-size="10.00" fill="#000000">VisualStimulus::Impl</text>
<text text-anchor="middle" x="454.5" y="-7.5" font-family="Helvetica,sans-Serif" font-size="10.00" fill="#000000">::readFramePoisson</text>
</a>
</g>
</g>
<!-- Node54&#45;&gt;Node55 -->
<g id="edge13" class="edge">
<title>Node54&#45;&gt;Node55</title>
<path fill="none" stroke="#191970" d="M357.9935,-15.5C372.2817,-15.5 387.1919,-15.5 400.8994,-15.5"/>
<polygon fill="#191970" stroke="#191970" points="357.7255,-12.0001 347.7255,-15.5 357.7255,-19.0001 357.7255,-12.0001"/>
</g>
<!-- Node56 -->
<g id="node15" class="node">
<title>Node56</title>
<g id="a_node15"><a xlink:href="classVisualStimulus.html#aac6cca8793faebe5b1e8c533d12744e2" target="_top" xlink:title="Reads the next image frame and returns a pointer to a PoissonRate object. ">
<polygon fill="#ffffff" stroke="#000000" points="544,-.5 544,-30.5 678,-30.5 678,-.5 544,-.5"/>
<text text-anchor="start" x="552" y="-18.5" font-family="Helvetica,sans-Serif" font-size="10.00" fill="#000000">VisualStimulus::readFrame</text>
<text text-anchor="middle" x="611" y="-7.5" font-family="Helvetica,sans-Serif" font-size="10.00" fill="#000000">Poisson</text>
</a>
</g>
</g>
<!-- Node55&#45;&gt;Node56 -->
<g id="edge14" class="edge">
<title>Node55&#45;&gt;Node56</title>
<path fill="none" stroke="#191970" d="M518.4152,-15.5C526.7738,-15.5 535.3584,-15.5 543.7696,-15.5"/>
<polygon fill="#191970" stroke="#191970" points="518.3585,-12.0001 508.3584,-15.5 518.3584,-19.0001 518.3585,-12.0001"/>
</g>
<!-- Node58&#45;&gt;Node50 -->
<g id="edge17" class="edge">
<title>Node58&#45;&gt;Node50</title>
<path fill="none" stroke="#191970" d="M342.2021,-103.4002C371.0987,-110.1162 405.9431,-118.2146 429.0765,-123.5912"/>
<polygon fill="#191970" stroke="#191970" points="342.7907,-99.9438 332.258,-101.089 341.206,-106.762 342.7907,-99.9438"/>
</g>
</g>
</svg>
        <g id="navigator" transform="translate(0 0)" fill="#404254">
                <rect fill="#f2f5e9" fill-opacity="0.5" stroke="#606060" stroke-width=".5" x="0" y="0" width="60" height="60"/>
                <use id="zoomplus" xlink:href="#zoomPlus" x="17" y="9" onmousedown="handleZoom(evt,'in')"/>
                <use id="zoomminus" xlink:href="#zoomMin" x="42" y="9" onmousedown="handleZoom(evt,'out')"/>
                <use id="reset" xlink:href="#resetDef" x="30" y="36" onmousedown="handleReset()"/>
                <g id="arrowUp" xlink:href="#dirArrow" transform="translate(30 24)" onmousedown="handlePan(0,-1)">
                  <use xlink:href="#rim" fill="#404040">
                        <set attributeName="fill" to="#808080" begin="arrowUp.mouseover" end="arrowUp.mouseout"/>
                  </use>
                  <path fill="none" stroke="white" stroke-width="1.5" d="M0,-3.0v7 M-2.5,-0.5L0,-3.0L2.5,-0.5"/>
                </g>
                <g id="arrowRight" xlink:href="#dirArrow" transform="rotate(90) translate(36 -43)" onmousedown="handlePan(1,0)">
                  <use xlink:href="#rim" fill="#404040">
                        <set attributeName="fill" to="#808080" begin="arrowRight.mouseover" end="arrowRight.mouseout"/>
                  </use>
                  <path fill="none" stroke="white" stroke-width="1.5" d="M0,-3.0v7 M-2.5,-0.5L0,-3.0L2.5,-0.5"/>
                </g>
                <g id="arrowDown" xlink:href="#dirArrow" transform="rotate(180) translate(-30 -48)" onmousedown="handlePan(0,1)">
                  <use xlink:href="#rim" fill="#404040">
                        <set attributeName="fill" to="#808080" begin="arrowDown.mouseover" end="arrowDown.mouseout"/>
                  </use>
                  <path fill="none" stroke="white" stroke-width="1.5" d="M0,-3.0v7 M-2.5,-0.5L0,-3.0L2.5,-0.5"/>
                </g>
                <g id="arrowLeft" xlink:href="#dirArrow" transform="rotate(270) translate(-36 17)" onmousedown="handlePan(-1,0)">
                  <use xlink:href="#rim" fill="#404040">
                        <set attributeName="fill" to="#808080" begin="arrowLeft.mouseover" end="arrowLeft.mouseout"/>
                  </use>
                  <path fill="none" stroke="white" stroke-width="1.5" d="M0,-3.0v7 M-2.5,-0.5L0,-3.0L2.5,-0.5"/>
                </g>
        </g>
        <svg viewBox="0 0 15 15" width="100%" height="30px" preserveAspectRatio="xMaxYMin meet">
         <g id="arrow_out" transform="scale(0.3 0.3)">
          <a xlink:href="classPoissonRate_1_1Impl_a0bc9734220de46306a6db7b2b33f7902_icgraph_org.svg" target="_base">
           <rect id="button" ry="5" rx="5" y="6" x="6" height="38" width="38"
                fill="#f2f5e9" fill-opacity="0.5" stroke="#606060" stroke-width="1.0"/>
           <path id="arrow"
             d="M 11.500037,31.436501 C 11.940474,20.09759 22.043105,11.32322 32.158766,21.979434 L 37.068811,17.246167 C 37.068811,17.246167 37.088388,32 37.088388,32 L 22.160133,31.978069 C 22.160133,31.978069 26.997745,27.140456 26.997745,27.140456 C 18.528582,18.264221 13.291696,25.230495 11.500037,31.436501 z"
             style="fill:#404040;"/>
          </a>
         </g>
        </svg>
</svg>
