<?xml version="1.0" encoding="UTF-8" standalone="no"?>
<!DOCTYPE svg PUBLIC "-//W3C//DTD SVG 1.1//EN"
 "http://www.w3.org/Graphics/SVG/1.1/DTD/svg11.dtd">
<!-- Generated by graphviz version 2.40.1 (20161225.0304)
 -->
<!-- Title: setPersistentData Pages: 1 -->
<!--zoomable 601 -->
<svg id="main" version="1.1" xmlns="http://www.w3.org/2000/svg" xmlns:xlink="http://www.w3.org/1999/xlink" xml:space="preserve" onload="init(evt)">
<style type="text/css"><![CDATA[
.edge:hover path { stroke: red; }
.edge:hover polygon { stroke: red; fill: red; }
]]></style>
<script type="text/javascript"><![CDATA[
var edges = document.getElementsByTagName('g');
if (edges && edges.length) {
  for (var i=0;i<edges.length;i++) {
    if (edges[i].id.substr(0,4)=='edge') {
      edges[i].setAttribute('class','edge');
    }
  }
}
]]></script>
        <defs>
                <circle id="rim" cx="0" cy="0" r="7"/>
                <circle id="rim2" cx="0" cy="0" r="3.5"/>
                <g id="zoomPlus">
                        <use xlink:href="#rim" fill="#404040">
                                <set attributeName="fill" to="#808080" begin="zoomplus.mouseover" end="zoomplus.mouseout"/>
                        </use>
                        <path d="M-4,0h8M0,-4v8" fill="none" stroke="white" stroke-width="1.5" pointer-events="none"/>
                </g>
                <g id="zoomMin">
                        <use xlink:href="#rim" fill="#404040">
                                <set attributeName="fill" to="#808080" begin="zoomminus.mouseover" end="zoomminus.mouseout"/>
                        </use>
                        <path d="M-4,0h8" fill="none" stroke="white" stroke-width="1.5" pointer-events="none"/>
                </g>
                <g id="dirArrow">
                        <path fill="none" stroke="white" stroke-width="1.5" d="M0,-3.0v7 M-2.5,-0.5L0,-3.0L2.5,-0.5"/>
                </g>
               <g id="resetDef">
                       <use xlink:href="#rim2" fill="#404040">
                               <set attributeName="fill" to="#808080" begin="reset.mouseover" end="reset.mouseout"/>
                       </use>
               </g>
        </defs>

<script type="text/javascript">
var viewWidth = 879;
var viewHeight = 601;
var sectionId = 'dynsection-26';
</script>
<script xlink:href="svgpan.js"/>
<svg id="graph" class="graph">
<g id="viewport">
<title>setPersistentData</title>
<polygon fill="#ffffff" stroke="transparent" points="-4,4 -4,-597.2552 875,-597.2552 875,4 -4,4"/>
<!-- Node206 -->
<g id="node1" class="node">
<title>Node206</title>
<polygon fill="#bfbfbf" stroke="#000000" points="0,-335.5 0,-354.5 95,-354.5 95,-335.5 0,-335.5"/>
<text text-anchor="middle" x="47.5" y="-342.5" font-family="Helvetica,sans-Serif" font-size="10.00" fill="#000000">setPersistentData</text>
</g>
<!-- Node207 -->
<g id="node2" class="node">
<title>Node207</title>
<g id="a_node2"><a xlink:href="classGroupMonitorCore.html#ab91616c118b701c2afd9136393d1f19b" target="_top" xlink:title="starts recording group data ">
<polygon fill="#ffffff" stroke="#000000" points="131,-335.5 131,-354.5 211,-354.5 211,-335.5 131,-335.5"/>
<text text-anchor="middle" x="171" y="-342.5" font-family="Helvetica,sans-Serif" font-size="10.00" fill="#000000">startRecording</text>
</a>
</g>
</g>
<!-- Node206&#45;&gt;Node207 -->
<g id="edge1" class="edge">
<title>Node206&#45;&gt;Node207</title>
<path fill="none" stroke="#191970" d="M95.2483,-345C103.6449,-345 112.4061,-345 120.8655,-345"/>
<polygon fill="#191970" stroke="#191970" points="120.9898,-348.5001 130.9897,-345 120.9897,-341.5001 120.9898,-348.5001"/>
</g>
<!-- Node230 -->
<g id="node25" class="node">
<title>Node230</title>
<g id="a_node25"><a xlink:href="classGroupMonitorCore.html#a25e0e98dd4519eaaa6b258f0dcb91ac7" target="_top" xlink:title="stops recording group data ">
<polygon fill="#ffffff" stroke="#000000" points="131,-373.5 131,-392.5 211,-392.5 211,-373.5 131,-373.5"/>
<text text-anchor="middle" x="171" y="-380.5" font-family="Helvetica,sans-Serif" font-size="10.00" fill="#000000">stopRecording</text>
</a>
</g>
</g>
<!-- Node206&#45;&gt;Node230 -->
<g id="edge33" class="edge">
<title>Node206&#45;&gt;Node230</title>
<path fill="none" stroke="#191970" d="M78.6643,-354.589C94.3144,-359.4044 113.4712,-365.2988 130.271,-370.468"/>
<polygon fill="#191970" stroke="#191970" points="129.2586,-373.8184 139.8457,-373.4141 131.3172,-367.1279 129.2586,-373.8184"/>
</g>
<!-- Node231 -->
<g id="node26" class="node">
<title>Node231</title>
<g id="a_node26"><a xlink:href="classGroupMonitorCore.html#a6329f81702cbc0600a85d228e16ad81a" target="_top" xlink:title="get the group data ">
<polygon fill="#ffffff" stroke="#000000" points="131,-297.5 131,-316.5 211,-316.5 211,-297.5 131,-297.5"/>
<text text-anchor="middle" x="171" y="-304.5" font-family="Helvetica,sans-Serif" font-size="10.00" fill="#000000">getDataVector</text>
</a>
</g>
</g>
<!-- Node206&#45;&gt;Node231 -->
<g id="edge38" class="edge">
<title>Node206&#45;&gt;Node231</title>
<path fill="none" stroke="#191970" d="M78.6643,-335.411C94.3144,-330.5956 113.4712,-324.7012 130.271,-319.532"/>
<polygon fill="#191970" stroke="#191970" points="131.3172,-322.8721 139.8457,-316.5859 129.2586,-316.1816 131.3172,-322.8721"/>
</g>
<!-- Node208 -->
<g id="node3" class="node">
<title>Node208</title>
<g id="a_node3"><a xlink:href="classGroupMonitorCore.html#ac8bb3912a3ce86b15842e79d0b421204" target="_top" xlink:title="deletes the data vector ">
<polygon fill="#ffffff" stroke="#000000" points="294,-231.5 294,-250.5 332,-250.5 332,-231.5 294,-231.5"/>
<text text-anchor="middle" x="313" y="-238.5" font-family="Helvetica,sans-Serif" font-size="10.00" fill="#000000">clear</text>
</a>
</g>
</g>
<!-- Node207&#45;&gt;Node208 -->
<g id="edge2" class="edge">
<title>Node207&#45;&gt;Node208</title>
<path fill="none" stroke="#191970" d="M193.957,-335.3075C199.6769,-332.5674 205.6894,-329.3971 211,-326 211.1395,-325.9108 263.687,-282.1094 293.2948,-257.4274"/>
<polygon fill="#191970" stroke="#191970" points="295.8798,-259.8291 301.3198,-250.7375 291.3975,-254.4524 295.8798,-259.8291"/>
</g>
<!-- Node210 -->
<g id="node5" class="node">
<title>Node210</title>
<g id="a_node5"><a xlink:href="classSNN.html#a14317186d53aeff564b126a41a333d3c" target="_top" xlink:title="access group status (currently the concentration of neuromodulator) ">
<polygon fill="#ffffff" stroke="#000000" points="247,-354.5 247,-373.5 379,-373.5 379,-354.5 247,-354.5"/>
<text text-anchor="middle" x="313" y="-361.5" font-family="Helvetica,sans-Serif" font-size="10.00" fill="#000000">SNN::updateGroupMonitor</text>
</a>
</g>
</g>
<!-- Node207&#45;&gt;Node210 -->
<g id="edge4" class="edge">
<title>Node207&#45;&gt;Node210</title>
<path fill="none" stroke="#191970" d="M211.3117,-350.3938C219.3542,-351.4699 228.0473,-352.6331 236.8465,-353.8104"/>
<polygon fill="#191970" stroke="#191970" points="236.4213,-357.2847 246.7972,-355.1419 237.3497,-350.3465 236.4213,-357.2847"/>
</g>
<!-- Node213 -->
<g id="node8" class="node">
<title>Node213</title>
<g id="a_node8"><a xlink:href="classSNN.html#a424b0cf29d7dba87e4ebf244399acad0" target="_top" xlink:title="SNN::getSimTimeMs">
<polygon fill="#ffffff" stroke="#000000" points="417,-114.5 417,-133.5 527,-133.5 527,-114.5 417,-114.5"/>
<text text-anchor="middle" x="472" y="-121.5" font-family="Helvetica,sans-Serif" font-size="10.00" fill="#000000">SNN::getSimTimeMs</text>
</a>
</g>
</g>
<!-- Node207&#45;&gt;Node213 -->
<g id="edge32" class="edge">
<title>Node207&#45;&gt;Node213</title>
<path fill="none" stroke="#191970" d="M198.8012,-335.3842C203.3169,-332.874 207.6151,-329.7801 211,-326 243.6295,-289.5609 213.8538,-257.9698 247,-222 290.7152,-174.5609 361.4241,-148.9562 411.9059,-135.9526"/>
<polygon fill="#191970" stroke="#191970" points="412.8561,-139.323 421.7185,-133.5172 411.1699,-132.5292 412.8561,-139.323"/>
</g>
<!-- Node219 -->
<g id="node14" class="node">
<title>Node219</title>
<g id="a_node14"><a xlink:href="classSNN.html#a85facd004ae52ee52e72451b5d874fae" target="_top" xlink:title="SNN::getSimTimeSec">
<polygon fill="#ffffff" stroke="#000000" points="415,-544.5 415,-563.5 529,-563.5 529,-544.5 415,-544.5"/>
<text text-anchor="middle" x="472" y="-551.5" font-family="Helvetica,sans-Serif" font-size="10.00" fill="#000000">SNN::getSimTimeSec</text>
</a>
</g>
</g>
<!-- Node207&#45;&gt;Node219 -->
<g id="edge31" class="edge">
<title>Node207&#45;&gt;Node219</title>
<path fill="none" stroke="#191970" d="M191.4296,-354.5008C197.732,-357.4862 204.6765,-360.8312 211,-364 227.1745,-372.1052 230.808,-374.9299 247,-383 305.0101,-411.9123 334.5308,-397.8452 379,-445 408.5575,-476.3426 383.6552,-505.4449 415,-535 416.6649,-536.5699 418.4631,-538.0102 420.3594,-539.3317"/>
<polygon fill="#191970" stroke="#191970" points="418.7776,-542.4592 429.1936,-544.3975 422.2597,-536.3867 418.7776,-542.4592"/>
</g>
<!-- Node209 -->
<g id="node4" class="node">
<title>Node209</title>
<g id="a_node4"><a xlink:href="classGroupMonitorCore.html#a3a3ffdb35b09328d22e5d72503ed1f55" target="_top" xlink:title="returns recording status ">
<polygon fill="#ffffff" stroke="#000000" points="779.5,-405.5 779.5,-424.5 847.5,-424.5 847.5,-405.5 779.5,-405.5"/>
<text text-anchor="middle" x="813.5" y="-412.5" font-family="Helvetica,sans-Serif" font-size="10.00" fill="#000000">isRecording</text>
</a>
</g>
</g>
<!-- Node208&#45;&gt;Node209 -->
<g id="edge3" class="edge">
<title>Node208&#45;&gt;Node209</title>
<path fill="none" stroke="#191970" d="M328.3782,-231.3459C354.5012,-215.0386 405.6336,-183.5505 415,-181 460.2719,-168.6721 704.0373,-175.926 720,-187 790.9682,-236.2336 808.1522,-349.6161 812.246,-395.3467"/>
<polygon fill="#191970" stroke="#191970" points="808.7656,-395.7364 813.0295,-405.4353 815.7446,-395.1943 808.7656,-395.7364"/>
</g>
<!-- Node210&#45;&gt;Node209 -->
<g id="edge22" class="edge">
<title>Node210&#45;&gt;Node209</title>
<path fill="none" stroke="#191970" d="M328.645,-354.468C342.6699,-345.511 363.3812,-331.2356 379,-316 397.8354,-297.6268 391.4061,-280.6479 415,-269 460.4319,-246.5711 479.7504,-257.1007 529,-269 635.4942,-294.7302 746.8644,-367.551 792.3092,-399.5704"/>
<polygon fill="#191970" stroke="#191970" points="790.3227,-402.4526 800.4981,-405.4042 794.3843,-396.7514 790.3227,-402.4526"/>
</g>
<!-- Node211 -->
<g id="node6" class="node">
<title>Node211</title>
<g id="a_node6"><a xlink:href="classGroupMonitorCore.html#a22cd4deca28f0e9e8dd2e576b75b02a8" target="_top" xlink:title="returns timestamp of last GroupMonitor update ">
<polygon fill="#ffffff" stroke="#000000" points="429,-354.5 429,-373.5 515,-373.5 515,-354.5 429,-354.5"/>
<text text-anchor="middle" x="472" y="-361.5" font-family="Helvetica,sans-Serif" font-size="10.00" fill="#000000">getLastUpdated</text>
</a>
</g>
</g>
<!-- Node210&#45;&gt;Node211 -->
<g id="edge5" class="edge">
<title>Node210&#45;&gt;Node211</title>
<path fill="none" stroke="#191970" d="M379.049,-364C392.114,-364 405.6781,-364 418.2743,-364"/>
<polygon fill="#191970" stroke="#191970" points="418.5953,-367.5001 428.5952,-364 418.5952,-360.5001 418.5953,-367.5001"/>
</g>
<!-- Node212 -->
<g id="node7" class="node">
<title>Node212</title>
<g id="a_node7"><a xlink:href="classSNN.html#a5fd2b156623d78138bcb44167eabab78" target="_top" xlink:title="SNN::getSimTime">
<polygon fill="#ffffff" stroke="#000000" points="423.5,-316.5 423.5,-335.5 520.5,-335.5 520.5,-316.5 423.5,-316.5"/>
<text text-anchor="middle" x="472" y="-323.5" font-family="Helvetica,sans-Serif" font-size="10.00" fill="#000000">SNN::getSimTime</text>
</a>
</g>
</g>
<!-- Node210&#45;&gt;Node212 -->
<g id="edge6" class="edge">
<title>Node210&#45;&gt;Node212</title>
<path fill="none" stroke="#191970" d="M353.1224,-354.411C374.1042,-349.3965 399.9817,-343.2119 422.2299,-337.8947"/>
<polygon fill="#191970" stroke="#191970" points="423.2536,-341.2487 432.1661,-335.5201 421.6264,-334.4405 423.2536,-341.2487"/>
</g>
<!-- Node210&#45;&gt;Node213 -->
<g id="edge7" class="edge">
<title>Node210&#45;&gt;Node213</title>
<path fill="none" stroke="#191970" d="M338.0305,-354.4984C352.0512,-347.95 368.7297,-337.9018 379,-324 417.9434,-271.2864 382.6623,-238.0051 415,-181 423.9768,-165.1756 438.5353,-150.7241 450.6918,-140.3318"/>
<polygon fill="#191970" stroke="#191970" points="453.1174,-142.8689 458.6259,-133.8186 448.6759,-137.4584 453.1174,-142.8689"/>
</g>
<!-- Node210&#45;&gt;Node219 -->
<g id="edge16" class="edge">
<title>Node210&#45;&gt;Node219</title>
<path fill="none" stroke="#191970" d="M330.0408,-373.6118C345.0053,-382.8872 366.312,-398.2601 379,-417 409.7405,-462.4031 376.7289,-495.735 415,-535 416.4198,-536.4566 417.9539,-537.8016 419.5769,-539.0434"/>
<polygon fill="#191970" stroke="#191970" points="417.9641,-542.1609 428.3124,-544.4331 421.6397,-536.2035 417.9641,-542.1609"/>
</g>
<!-- Node220 -->
<g id="node15" class="node">
<title>Node220</title>
<g id="a_node15"><a xlink:href="classGroupMonitorCore.html#a964e44e2f5503d2e5aa92c2a1e08b487" target="_top" xlink:title="sets timestamp of last GroupMonitor update ">
<polygon fill="#ffffff" stroke="#000000" points="429,-278.5 429,-297.5 515,-297.5 515,-278.5 429,-278.5"/>
<text text-anchor="middle" x="472" y="-285.5" font-family="Helvetica,sans-Serif" font-size="10.00" fill="#000000">setLastUpdated</text>
</a>
</g>
</g>
<!-- Node210&#45;&gt;Node220 -->
<g id="edge17" class="edge">
<title>Node210&#45;&gt;Node220</title>
<path fill="none" stroke="#191970" d="M328.0888,-354.3791C347.5999,-342.22 382.8941,-321.1713 415,-307 419.8266,-304.8696 424.971,-302.8393 430.1191,-300.9528"/>
<polygon fill="#191970" stroke="#191970" points="431.6599,-304.1217 439.9414,-297.5136 429.3466,-297.515 431.6599,-304.1217"/>
</g>
<!-- Node221 -->
<g id="node16" class="node">
<title>Node221</title>
<g id="a_node16"><a xlink:href="classGroupMonitorCore.html#ae9a0ff72777f33d1ae3125990e45f89b" target="_top" xlink:title="returns a pointer to the group data file ">
<polygon fill="#ffffff" stroke="#000000" points="432,-506.5 432,-525.5 512,-525.5 512,-506.5 432,-506.5"/>
<text text-anchor="middle" x="472" y="-513.5" font-family="Helvetica,sans-Serif" font-size="10.00" fill="#000000">getGroupFileId</text>
</a>
</g>
</g>
<!-- Node210&#45;&gt;Node221 -->
<g id="edge18" class="edge">
<title>Node210&#45;&gt;Node221</title>
<path fill="none" stroke="#191970" d="M328.9226,-373.6436C343.5314,-383.1541 364.9709,-398.8688 379,-417 402.86,-447.8366 386.0722,-470.8584 415,-497 417.4378,-499.203 420.1388,-501.1516 423.0011,-502.8749"/>
<polygon fill="#191970" stroke="#191970" points="421.4659,-506.0206 431.9707,-507.3986 424.6181,-499.7704 421.4659,-506.0206"/>
</g>
<!-- Node224 -->
<g id="node19" class="node">
<title>Node224</title>
<g id="a_node19"><a xlink:href="classGroupMonitorCore.html#a614d294d5208a18dd7fcbcaaf30e8842" target="_top" xlink:title="isInAllMode">
<polygon fill="#ffffff" stroke="#000000" points="438,-392.5 438,-411.5 506,-411.5 506,-392.5 438,-392.5"/>
<text text-anchor="middle" x="472" y="-399.5" font-family="Helvetica,sans-Serif" font-size="10.00" fill="#000000">isInAllMode</text>
</a>
</g>
</g>
<!-- Node210&#45;&gt;Node224 -->
<g id="edge23" class="edge">
<title>Node210&#45;&gt;Node224</title>
<path fill="none" stroke="#191970" d="M353.1224,-373.589C375.8816,-379.0283 404.4011,-385.8443 427.8007,-391.4366"/>
<polygon fill="#191970" stroke="#191970" points="427.2776,-394.9101 437.8173,-393.8305 428.9048,-388.1019 427.2776,-394.9101"/>
</g>
<!-- Node225 -->
<g id="node20" class="node">
<title>Node225</title>
<g id="a_node20"><a xlink:href="classGroupMonitorCore.html#affd44eca3bd6d1a7fc62759157df43ac" target="_top" xlink:title="inserts group data (time, value) into the vectors , if monitor is in DA_MODE ">
<polygon fill="#ffffff" stroke="#000000" points="613,-405.5 613,-424.5 672,-424.5 672,-405.5 613,-405.5"/>
<text text-anchor="middle" x="642.5" y="-412.5" font-family="Helvetica,sans-Serif" font-size="10.00" fill="#000000">pushData</text>
</a>
</g>
</g>
<!-- Node210&#45;&gt;Node225 -->
<g id="edge26" class="edge">
<title>Node210&#45;&gt;Node225</title>
<path fill="none" stroke="#191970" d="M325.2887,-373.6548C343.5923,-387.3556 379.6645,-411.7966 415,-421 479.161,-437.7112 556.9596,-429.9358 602.9479,-422.5954"/>
<polygon fill="#191970" stroke="#191970" points="603.5294,-426.0468 612.8167,-420.9482 602.3769,-419.1424 603.5294,-426.0468"/>
</g>
<!-- Node226 -->
<g id="node21" class="node">
<title>Node226</title>
<g id="a_node21"><a xlink:href="classSpikeGeneratorCore.html#ad75a73e6aa374ced00cb16b1a5a2eb25" target="_top" xlink:title="controls spike generation using a callback mechanism ">
<polygon fill="#ffffff" stroke="#000000" points="419.5,-191 419.5,-221 524.5,-221 524.5,-191 419.5,-191"/>
<text text-anchor="start" x="427.5" y="-209" font-family="Helvetica,sans-Serif" font-size="10.00" fill="#000000">SpikeGeneratorCore</text>
<text text-anchor="middle" x="472" y="-198" font-family="Helvetica,sans-Serif" font-size="10.00" fill="#000000">::nextSpikeTime</text>
</a>
</g>
</g>
<!-- Node210&#45;&gt;Node226 -->
<g id="edge27" class="edge">
<title>Node210&#45;&gt;Node226</title>
<path fill="none" stroke="#191970" d="M336.3665,-354.4009C350.322,-347.66 367.5103,-337.4454 379,-324 406.4525,-291.8746 386.5902,-267.282 415,-236 418.086,-232.602 421.6478,-229.5224 425.4534,-226.7465"/>
<polygon fill="#191970" stroke="#191970" points="427.5988,-229.5268 434.0842,-221.1488 423.7898,-223.6538 427.5988,-229.5268"/>
</g>
<!-- Node228 -->
<g id="node23" class="node">
<title>Node228</title>
<g id="a_node23"><a xlink:href="classSpikeBuffer.html#a5922ba31daa2c306a5c1ecbf8d19220d" target="_top" xlink:title="Schedule a spike. ">
<polygon fill="#ffffff" stroke="#000000" points="415.5,-468.5 415.5,-487.5 528.5,-487.5 528.5,-468.5 415.5,-468.5"/>
<text text-anchor="middle" x="472" y="-475.5" font-family="Helvetica,sans-Serif" font-size="10.00" fill="#000000">SpikeBuffer::schedule</text>
</a>
</g>
</g>
<!-- Node210&#45;&gt;Node228 -->
<g id="edge29" class="edge">
<title>Node210&#45;&gt;Node228</title>
<path fill="none" stroke="#191970" d="M326.0358,-373.7121C339.634,-384.0153 361.3848,-400.9854 379,-417 395.9767,-432.4341 396.0482,-441.0675 415,-454 420.7205,-457.9036 427.1768,-461.3637 433.635,-464.356"/>
<polygon fill="#191970" stroke="#191970" points="432.4445,-467.6542 443.0128,-468.4024 435.2178,-461.2269 432.4445,-467.6542"/>
</g>
<!-- Node214 -->
<g id="node9" class="node">
<title>Node214</title>
<g id="a_node9"><a xlink:href="classSNN.html#a866a9c6e2b2630816fc66adda1381655" target="_top" xlink:title="Returns pointer to existing SpikeMonitor object, NULL else. ">
<polygon fill="#ffffff" stroke="#000000" points="585,-114.5 585,-133.5 700,-133.5 700,-114.5 585,-114.5"/>
<text text-anchor="middle" x="642.5" y="-121.5" font-family="Helvetica,sans-Serif" font-size="10.00" fill="#000000">SNN::getSpikeMonitor</text>
</a>
</g>
</g>
<!-- Node213&#45;&gt;Node214 -->
<g id="edge8" class="edge">
<title>Node213&#45;&gt;Node214</title>
<path fill="none" stroke="#191970" d="M527.3565,-124C542.4319,-124 558.9353,-124 574.6196,-124"/>
<polygon fill="#191970" stroke="#191970" points="574.7849,-127.5001 584.7848,-124 574.7848,-120.5001 574.7849,-127.5001"/>
</g>
<!-- Node216 -->
<g id="node11" class="node">
<title>Node216</title>
<g id="a_node11"><a xlink:href="classSNN.html#ad25000cd1457c9b9869122534ada6fdd" target="_top" xlink:title="SNN::getSpikeMonitorCore">
<polygon fill="#ffffff" stroke="#000000" points="574.5,-76.5 574.5,-95.5 710.5,-95.5 710.5,-76.5 574.5,-76.5"/>
<text text-anchor="middle" x="642.5" y="-83.5" font-family="Helvetica,sans-Serif" font-size="10.00" fill="#000000">SNN::getSpikeMonitorCore</text>
</a>
</g>
</g>
<!-- Node213&#45;&gt;Node216 -->
<g id="edge10" class="edge">
<title>Node213&#45;&gt;Node216</title>
<path fill="none" stroke="#191970" d="M515.0243,-114.411C537.7264,-109.3513 565.7732,-103.1004 589.774,-97.7512"/>
<polygon fill="#191970" stroke="#191970" points="590.7859,-101.1117 599.785,-95.5201 589.2631,-94.2793 590.7859,-101.1117"/>
</g>
<!-- Node217 -->
<g id="node12" class="node">
<title>Node217</title>
<g id="a_node12"><a xlink:href="classSNN.html#a0eb87addfa5eebdfee4bd6b927b8945f" target="_top" xlink:title="Returns pointer to existing NeuronMonitor object, NULL else. ">
<polygon fill="#ffffff" stroke="#000000" points="581.5,-38.5 581.5,-57.5 703.5,-57.5 703.5,-38.5 581.5,-38.5"/>
<text text-anchor="middle" x="642.5" y="-45.5" font-family="Helvetica,sans-Serif" font-size="10.00" fill="#000000">SNN::getNeuronMonitor</text>
</a>
</g>
</g>
<!-- Node213&#45;&gt;Node217 -->
<g id="edge12" class="edge">
<title>Node213&#45;&gt;Node217</title>
<path fill="none" stroke="#191970" d="M484.8534,-114.3231C502.1856,-101.7087 534.4136,-79.7567 565,-67 570.8735,-64.5503 577.1346,-62.368 583.455,-60.436"/>
<polygon fill="#191970" stroke="#191970" points="584.7318,-63.7115 593.3887,-57.6035 582.8123,-56.9798 584.7318,-63.7115"/>
</g>
<!-- Node218 -->
<g id="node13" class="node">
<title>Node218</title>
<g id="a_node13"><a xlink:href="classSNN.html#a9aa73fa9478383c4af1eed8387d82db9" target="_top" xlink:title="SNN::getNeuronMonitorCore">
<polygon fill="#ffffff" stroke="#000000" points="571,-.5 571,-19.5 714,-19.5 714,-.5 571,-.5"/>
<text text-anchor="middle" x="642.5" y="-7.5" font-family="Helvetica,sans-Serif" font-size="10.00" fill="#000000">SNN::getNeuronMonitorCore</text>
</a>
</g>
</g>
<!-- Node213&#45;&gt;Node218 -->
<g id="edge14" class="edge">
<title>Node213&#45;&gt;Node218</title>
<path fill="none" stroke="#191970" d="M478.4551,-114.4834C492.0642,-95.1911 525.702,-51.4081 565,-29 568.9657,-26.7387 573.1946,-24.7448 577.5532,-22.9868"/>
<polygon fill="#191970" stroke="#191970" points="579.0226,-26.178 587.2504,-19.5031 576.6559,-19.5902 579.0226,-26.178"/>
</g>
<!-- Node215 -->
<g id="node10" class="node">
<title>Node215</title>
<g id="a_node10"><a xlink:href="classSNN.html#a292bdee57fec7c77ec4c15ea3f508d60" target="_top" xlink:title="SNN::getNumGroups">
<polygon fill="#ffffff" stroke="#000000" points="758.5,-57.5 758.5,-76.5 868.5,-76.5 868.5,-57.5 758.5,-57.5"/>
<text text-anchor="middle" x="813.5" y="-64.5" font-family="Helvetica,sans-Serif" font-size="10.00" fill="#000000">SNN::getNumGroups</text>
</a>
</g>
</g>
<!-- Node214&#45;&gt;Node215 -->
<g id="edge9" class="edge">
<title>Node214&#45;&gt;Node215</title>
<path fill="none" stroke="#191970" d="M686.2617,-114.4504C697.3577,-111.7075 709.193,-108.5002 720,-105 741.3787,-98.0758 764.8033,-88.5522 782.8584,-80.7714"/>
<polygon fill="#191970" stroke="#191970" points="784.5241,-83.8633 792.2895,-76.6557 781.7243,-77.4476 784.5241,-83.8633"/>
</g>
<!-- Node216&#45;&gt;Node215 -->
<g id="edge11" class="edge">
<title>Node216&#45;&gt;Node215</title>
<path fill="none" stroke="#191970" d="M710.5751,-78.4361C722.9449,-77.0617 735.8229,-75.6308 748.1131,-74.2652"/>
<polygon fill="#191970" stroke="#191970" points="748.7222,-77.7192 758.2745,-73.1362 747.9491,-70.762 748.7222,-77.7192"/>
</g>
<!-- Node217&#45;&gt;Node215 -->
<g id="edge13" class="edge">
<title>Node217&#45;&gt;Node215</title>
<path fill="none" stroke="#191970" d="M703.7519,-54.8058C718.2347,-56.415 733.7295,-58.1366 748.3769,-59.7641"/>
<polygon fill="#191970" stroke="#191970" points="748.0339,-63.2474 758.3593,-60.8733 748.807,-56.2903 748.0339,-63.2474"/>
</g>
<!-- Node218&#45;&gt;Node215 -->
<g id="edge15" class="edge">
<title>Node218&#45;&gt;Node215</title>
<path fill="none" stroke="#191970" d="M686.2617,-19.5496C697.3577,-22.2925 709.193,-25.4998 720,-29 741.3787,-35.9242 764.8033,-45.4478 782.8584,-53.2286"/>
<polygon fill="#191970" stroke="#191970" points="781.7243,-56.5524 792.2895,-57.3443 784.5241,-50.1367 781.7243,-56.5524"/>
</g>
<!-- Node222 -->
<g id="node17" class="node">
<title>Node222</title>
<g id="a_node17"><a xlink:href="classGroupMonitorCore.html#ac455fddf546e804839052af1614b4b15" target="_top" xlink:title="sets pointer to group data file ">
<polygon fill="#ffffff" stroke="#000000" points="602.5,-506.5 602.5,-525.5 682.5,-525.5 682.5,-506.5 602.5,-506.5"/>
<text text-anchor="middle" x="642.5" y="-513.5" font-family="Helvetica,sans-Serif" font-size="10.00" fill="#000000">setGroupFileId</text>
</a>
</g>
</g>
<!-- Node221&#45;&gt;Node222 -->
<g id="edge19" class="edge">
<title>Node221&#45;&gt;Node222</title>
<path fill="none" stroke="#191970" d="M512.4061,-516C536.294,-516 566.7489,-516 592.186,-516"/>
<polygon fill="#191970" stroke="#191970" points="592.384,-519.5001 602.3839,-516 592.3839,-512.5001 592.384,-519.5001"/>
</g>
<!-- Node222&#45;&gt;Node209 -->
<g id="edge20" class="edge">
<title>Node222&#45;&gt;Node209</title>
<path fill="none" stroke="#191970" d="M682.8501,-509.9391C695.2211,-507.0864 708.5735,-502.9516 720,-497 751.6932,-480.4924 781.4874,-451.0552 798.5909,-432.3065"/>
<polygon fill="#191970" stroke="#191970" points="801.2745,-434.5559 805.3153,-424.7619 796.0488,-429.8984 801.2745,-434.5559"/>
</g>
<!-- Node223 -->
<g id="node18" class="node">
<title>Node223</title>
<g id="a_node18"><a xlink:href="classSNN.html#ac13b30c40669d3cb8264bd6e211b449d" target="_top" xlink:title="SNN::getGroupGrid3D">
<polygon fill="#ffffff" stroke="#000000" points="756,-506.5 756,-525.5 871,-525.5 871,-506.5 756,-506.5"/>
<text text-anchor="middle" x="813.5" y="-513.5" font-family="Helvetica,sans-Serif" font-size="10.00" fill="#000000">SNN::getGroupGrid3D</text>
</a>
</g>
</g>
<!-- Node222&#45;&gt;Node223 -->
<g id="edge21" class="edge">
<title>Node222&#45;&gt;Node223</title>
<path fill="none" stroke="#191970" d="M682.5919,-516C701.4254,-516 724.3999,-516 745.8142,-516"/>
<polygon fill="#191970" stroke="#191970" points="745.8484,-519.5001 755.8484,-516 745.8484,-512.5001 745.8484,-519.5001"/>
</g>
<!-- Node224&#45;&gt;Node225 -->
<g id="edge24" class="edge">
<title>Node224&#45;&gt;Node225</title>
<path fill="none" stroke="#191970" d="M506.0934,-404.5995C533.8763,-406.7178 573.1624,-409.7133 602.4429,-411.9458"/>
<polygon fill="#191970" stroke="#191970" points="602.5008,-415.4603 612.738,-412.7308 603.033,-408.4805 602.5008,-415.4603"/>
</g>
<!-- Node225&#45;&gt;Node209 -->
<g id="edge25" class="edge">
<title>Node225&#45;&gt;Node209</title>
<path fill="none" stroke="#191970" d="M672.2859,-415C698.9921,-415 738.5432,-415 769.0001,-415"/>
<polygon fill="#191970" stroke="#191970" points="769.3579,-418.5001 779.3578,-415 769.3578,-411.5001 769.3579,-418.5001"/>
</g>
<!-- Node227 -->
<g id="node22" class="node">
<title>Node227</title>
<g id="a_node22"><a xlink:href="classSpikeGenerator.html#a356c7b25be9b3ced55d390d2baea3140" target="_top" xlink:title="controls spike generation using a callback mechanism ">
<polygon fill="#ffffff" stroke="#000000" points="565,-196.5 565,-215.5 720,-215.5 720,-196.5 565,-196.5"/>
<text text-anchor="middle" x="642.5" y="-203.5" font-family="Helvetica,sans-Serif" font-size="10.00" fill="#000000">SpikeGenerator::nextSpikeTime</text>
</a>
</g>
</g>
<!-- Node226&#45;&gt;Node227 -->
<g id="edge28" class="edge">
<title>Node226&#45;&gt;Node227</title>
<path fill="none" stroke="#191970" d="M524.5468,-206C534.0868,-206 544.2708,-206 554.5075,-206"/>
<polygon fill="#191970" stroke="#191970" points="554.74,-209.5001 564.7399,-206 554.7399,-202.5001 554.74,-209.5001"/>
</g>
<!-- Node229 -->
<g id="node24" class="node">
<title>Node229</title>
<g id="a_node24"><a xlink:href="classSpikeBuffer_1_1Impl.html#a5922ba31daa2c306a5c1ecbf8d19220d" target="_top" xlink:title="SpikeBuffer::Impl::\lschedule">
<polygon fill="#ffffff" stroke="#000000" points="593.5,-457 593.5,-487 691.5,-487 691.5,-457 593.5,-457"/>
<text text-anchor="start" x="601.5" y="-475" font-family="Helvetica,sans-Serif" font-size="10.00" fill="#000000">SpikeBuffer::Impl::</text>
<text text-anchor="middle" x="642.5" y="-464" font-family="Helvetica,sans-Serif" font-size="10.00" fill="#000000">schedule</text>
</a>
</g>
</g>
<!-- Node228&#45;&gt;Node229 -->
<g id="edge30" class="edge">
<title>Node228&#45;&gt;Node229</title>
<path fill="none" stroke="#191970" d="M528.774,-476.0021C546.2655,-475.3866 565.5639,-474.7074 583.2194,-474.0861"/>
<polygon fill="#191970" stroke="#191970" points="583.5281,-477.5775 593.3988,-473.7279 583.2819,-470.5819 583.5281,-477.5775"/>
</g>
<!-- Node230&#45;&gt;Node209 -->
<g id="edge34" class="edge">
<title>Node230&#45;&gt;Node209</title>
<path fill="none" stroke="#191970" d="M175.3269,-392.6799C185.2115,-413.8338 211.3744,-464.7097 247,-495 309.7168,-548.3244 334.6147,-555.2491 415,-573 548.3901,-602.4556 603.7309,-606.708 720,-535 730.7413,-528.3754 777.5632,-464.7512 800.6017,-432.9334"/>
<polygon fill="#191970" stroke="#191970" points="803.6555,-434.6827 806.6714,-424.5261 797.9801,-430.5852 803.6555,-434.6827"/>
</g>
<!-- Node230&#45;&gt;Node210 -->
<g id="edge35" class="edge">
<title>Node230&#45;&gt;Node210</title>
<path fill="none" stroke="#191970" d="M211.3117,-377.6062C219.3542,-376.5301 228.0473,-375.3669 236.8465,-374.1896"/>
<polygon fill="#191970" stroke="#191970" points="237.3497,-377.6535 246.7972,-372.8581 236.4213,-370.7153 237.3497,-377.6535"/>
</g>
<!-- Node230&#45;&gt;Node213 -->
<g id="edge37" class="edge">
<title>Node230&#45;&gt;Node213</title>
<path fill="none" stroke="#191970" d="M192.3942,-373.3739C198.476,-370.4935 205.0591,-367.2369 211,-364 249.5564,-342.9927 349.9807,-292.9512 379,-260 404.5012,-231.0435 393.0072,-212.7034 415,-181 425.4995,-165.8646 440.2707,-151.2247 452.1453,-140.5719"/>
<polygon fill="#191970" stroke="#191970" points="454.5833,-143.0897 459.8153,-133.8769 449.98,-137.8162 454.5833,-143.0897"/>
</g>
<!-- Node230&#45;&gt;Node219 -->
<g id="edge36" class="edge">
<title>Node230&#45;&gt;Node219</title>
<path fill="none" stroke="#191970" d="M181.3217,-392.5092C195.4936,-405.3045 222.0648,-428.3747 247,-445 317.4774,-491.9899 337.206,-501.4857 415,-535 420.0295,-537.1667 425.3933,-539.2439 430.7429,-541.177"/>
<polygon fill="#191970" stroke="#191970" points="429.6865,-544.5151 440.2813,-544.4894 431.9829,-537.9025 429.6865,-544.5151"/>
</g>
</g>
</svg>
        <g id="navigator" transform="translate(0 0)" fill="#404254">
                <rect fill="#f2f5e9" fill-opacity="0.5" stroke="#606060" stroke-width=".5" x="0" y="0" width="60" height="60"/>
                <use id="zoomplus" xlink:href="#zoomPlus" x="17" y="9" onmousedown="handleZoom(evt,'in')"/>
                <use id="zoomminus" xlink:href="#zoomMin" x="42" y="9" onmousedown="handleZoom(evt,'out')"/>
                <use id="reset" xlink:href="#resetDef" x="30" y="36" onmousedown="handleReset()"/>
                <g id="arrowUp" xlink:href="#dirArrow" transform="translate(30 24)" onmousedown="handlePan(0,-1)">
                  <use xlink:href="#rim" fill="#404040">
                        <set attributeName="fill" to="#808080" begin="arrowUp.mouseover" end="arrowUp.mouseout"/>
                  </use>
                  <path fill="none" stroke="white" stroke-width="1.5" d="M0,-3.0v7 M-2.5,-0.5L0,-3.0L2.5,-0.5"/>
                </g>
                <g id="arrowRight" xlink:href="#dirArrow" transform="rotate(90) translate(36 -43)" onmousedown="handlePan(1,0)">
                  <use xlink:href="#rim" fill="#404040">
                        <set attributeName="fill" to="#808080" begin="arrowRight.mouseover" end="arrowRight.mouseout"/>
                  </use>
                  <path fill="none" stroke="white" stroke-width="1.5" d="M0,-3.0v7 M-2.5,-0.5L0,-3.0L2.5,-0.5"/>
                </g>
                <g id="arrowDown" xlink:href="#dirArrow" transform="rotate(180) translate(-30 -48)" onmousedown="handlePan(0,1)">
                  <use xlink:href="#rim" fill="#404040">
                        <set attributeName="fill" to="#808080" begin="arrowDown.mouseover" end="arrowDown.mouseout"/>
                  </use>
                  <path fill="none" stroke="white" stroke-width="1.5" d="M0,-3.0v7 M-2.5,-0.5L0,-3.0L2.5,-0.5"/>
                </g>
                <g id="arrowLeft" xlink:href="#dirArrow" transform="rotate(270) translate(-36 17)" onmousedown="handlePan(-1,0)">
                  <use xlink:href="#rim" fill="#404040">
                        <set attributeName="fill" to="#808080" begin="arrowLeft.mouseover" end="arrowLeft.mouseout"/>
                  </use>
                  <path fill="none" stroke="white" stroke-width="1.5" d="M0,-3.0v7 M-2.5,-0.5L0,-3.0L2.5,-0.5"/>
                </g>
        </g>
        <svg viewBox="0 0 15 15" width="100%" height="30px" preserveAspectRatio="xMaxYMin meet">
         <g id="arrow_out" transform="scale(0.3 0.3)">
          <a xlink:href="classGroupMonitorCore_a7ac2c997b5281ea2f2bc00cc9706d37c_cgraph_org.svg" target="_base">
           <rect id="button" ry="5" rx="5" y="6" x="6" height="38" width="38"
                fill="#f2f5e9" fill-opacity="0.5" stroke="#606060" stroke-width="1.0"/>
           <path id="arrow"
             d="M 11.500037,31.436501 C 11.940474,20.09759 22.043105,11.32322 32.158766,21.979434 L 37.068811,17.246167 C 37.068811,17.246167 37.088388,32 37.088388,32 L 22.160133,31.978069 C 22.160133,31.978069 26.997745,27.140456 26.997745,27.140456 C 18.528582,18.264221 13.291696,25.230495 11.500037,31.436501 z"
             style="fill:#404040;"/>
          </a>
         </g>
        </svg>
</svg>
