<?xml version="1.0" encoding="UTF-8" standalone="no"?>
<!DOCTYPE svg PUBLIC "-//W3C//DTD SVG 1.1//EN"
 "http://www.w3.org/Graphics/SVG/1.1/DTD/svg11.dtd">
<!-- Generated by graphviz version 2.40.1 (20161225.0304)
 -->
<!-- Title: isGroupWithCOBA Pages: 1 -->
<svg width="517pt" height="78pt"
 viewBox="0.00 0.00 517.00 77.50" xmlns="http://www.w3.org/2000/svg" xmlns:xlink="http://www.w3.org/1999/xlink">
<g id="graph0" class="graph" transform="scale(1 1) rotate(0) translate(4 73.5)">
<title>isGroupWithCOBA</title>
<polygon fill="#ffffff" stroke="transparent" points="-4,4 -4,-73.5 513,-73.5 513,4 -4,4"/>
<!-- Node1465 -->
<g id="node1" class="node">
<title>Node1465</title>
<polygon fill="#bfbfbf" stroke="#000000" points="0,-22.5 0,-41.5 99,-41.5 99,-22.5 0,-22.5"/>
<text text-anchor="middle" x="49.5" y="-29.5" font-family="Helvetica,sans-Serif" font-size="10.00" fill="#000000">isGroupWithCOBA</text>
</g>
<!-- Node1466 -->
<g id="node2" class="node">
<title>Node1466</title>
<g id="a_node2"><a xlink:href="classCARLsim_1_1Impl.html#a00ecb4d15c32a4c7327f2efae5157e79" target="_top" xlink:title="CARLsim::Impl::getConductance\lConfig">
<polygon fill="#ffffff" stroke="#000000" points="141,-39 141,-69 302,-69 302,-39 141,-39"/>
<text text-anchor="start" x="149" y="-57" font-family="Helvetica,sans-Serif" font-size="10.00" fill="#000000">CARLsim::Impl::getConductance</text>
<text text-anchor="middle" x="221.5" y="-46" font-family="Helvetica,sans-Serif" font-size="10.00" fill="#000000">Config</text>
</a>
</g>
</g>
<!-- Node1465&#45;&gt;Node1466 -->
<g id="edge1" class="edge">
<title>Node1465&#45;&gt;Node1466</title>
<path fill="none" stroke="#191970" d="M109.2268,-39.6395C119.4094,-40.9419 130.1357,-42.3139 140.7546,-43.6721"/>
<polygon fill="#191970" stroke="#191970" points="109.6128,-36.1604 99.2495,-38.3633 108.7246,-43.1038 109.6128,-36.1604"/>
</g>
<!-- Node1468 -->
<g id="node4" class="node">
<title>Node1468</title>
<g id="a_node4"><a xlink:href="classCARLsim_1_1Impl.html#aaee4444a6b301f4d169f14513a36c496" target="_top" xlink:title="CARLsim::Impl::isGroupWithCOBA">
<polygon fill="#ffffff" stroke="#000000" points="135,-.5 135,-19.5 308,-19.5 308,-.5 135,-.5"/>
<text text-anchor="middle" x="221.5" y="-7.5" font-family="Helvetica,sans-Serif" font-size="10.00" fill="#000000">CARLsim::Impl::isGroupWithCOBA</text>
</a>
</g>
</g>
<!-- Node1465&#45;&gt;Node1468 -->
<g id="edge3" class="edge">
<title>Node1465&#45;&gt;Node1468</title>
<path fill="none" stroke="#191970" d="M109.3143,-24.3493C121.5443,-22.785 134.5553,-21.1208 147.2207,-19.5008"/>
<polygon fill="#191970" stroke="#191970" points="108.7246,-20.8962 99.2495,-25.6367 109.6128,-27.8396 108.7246,-20.8962"/>
</g>
<!-- Node1467 -->
<g id="node3" class="node">
<title>Node1467</title>
<g id="a_node3"><a xlink:href="classCARLsim.html#a00ecb4d15c32a4c7327f2efae5157e79" target="_top" xlink:title="CARLsim::getConductanceConfig">
<polygon fill="#ffffff" stroke="#000000" points="344,-44.5 344,-63.5 509,-63.5 509,-44.5 344,-44.5"/>
<text text-anchor="middle" x="426.5" y="-51.5" font-family="Helvetica,sans-Serif" font-size="10.00" fill="#000000">CARLsim::getConductanceConfig</text>
</a>
</g>
</g>
<!-- Node1466&#45;&gt;Node1467 -->
<g id="edge2" class="edge">
<title>Node1466&#45;&gt;Node1467</title>
<path fill="none" stroke="#191970" d="M312.2395,-54C322.7512,-54 333.4301,-54 343.8261,-54"/>
<polygon fill="#191970" stroke="#191970" points="312.2272,-50.5001 302.2272,-54 312.2271,-57.5001 312.2272,-50.5001"/>
</g>
<!-- Node1469 -->
<g id="node5" class="node">
<title>Node1469</title>
<g id="a_node5"><a xlink:href="classCARLsim.html#aaee4444a6b301f4d169f14513a36c496" target="_top" xlink:title="CARLsim::isGroupWithCOBA">
<polygon fill="#ffffff" stroke="#000000" points="352.5,-.5 352.5,-19.5 500.5,-19.5 500.5,-.5 352.5,-.5"/>
<text text-anchor="middle" x="426.5" y="-7.5" font-family="Helvetica,sans-Serif" font-size="10.00" fill="#000000">CARLsim::isGroupWithCOBA</text>
</a>
</g>
</g>
<!-- Node1468&#45;&gt;Node1469 -->
<g id="edge4" class="edge">
<title>Node1468&#45;&gt;Node1469</title>
<path fill="none" stroke="#191970" d="M318.2227,-10C329.7399,-10 341.3547,-10 352.4829,-10"/>
<polygon fill="#191970" stroke="#191970" points="318.1414,-6.5001 308.1413,-10 318.1413,-13.5001 318.1414,-6.5001"/>
</g>
</g>
</svg>
