<?xml version="1.0" encoding="UTF-8" standalone="no"?>
<!DOCTYPE svg PUBLIC "-//W3C//DTD SVG 1.1//EN"
 "http://www.w3.org/Graphics/SVG/1.1/DTD/svg11.dtd">
<!-- Generated by graphviz version 2.40.1 (20161225.0304)
 -->
<!-- Title: getDelayRange Pages: 1 -->
<!--zoomable 104 -->
<svg id="main" version="1.1" xmlns="http://www.w3.org/2000/svg" xmlns:xlink="http://www.w3.org/1999/xlink" xml:space="preserve" onload="init(evt)">
<style type="text/css"><![CDATA[
.edge:hover path { stroke: red; }
.edge:hover polygon { stroke: red; fill: red; }
]]></style>
<script type="text/javascript"><![CDATA[
var edges = document.getElementsByTagName('g');
if (edges && edges.length) {
  for (var i=0;i<edges.length;i++) {
    if (edges[i].id.substr(0,4)=='edge') {
      edges[i].setAttribute('class','edge');
    }
  }
}
]]></script>
        <defs>
                <circle id="rim" cx="0" cy="0" r="7"/>
                <circle id="rim2" cx="0" cy="0" r="3.5"/>
                <g id="zoomPlus">
                        <use xlink:href="#rim" fill="#404040">
                                <set attributeName="fill" to="#808080" begin="zoomplus.mouseover" end="zoomplus.mouseout"/>
                        </use>
                        <path d="M-4,0h8M0,-4v8" fill="none" stroke="white" stroke-width="1.5" pointer-events="none"/>
                </g>
                <g id="zoomMin">
                        <use xlink:href="#rim" fill="#404040">
                                <set attributeName="fill" to="#808080" begin="zoomminus.mouseover" end="zoomminus.mouseout"/>
                        </use>
                        <path d="M-4,0h8" fill="none" stroke="white" stroke-width="1.5" pointer-events="none"/>
                </g>
                <g id="dirArrow">
                        <path fill="none" stroke="white" stroke-width="1.5" d="M0,-3.0v7 M-2.5,-0.5L0,-3.0L2.5,-0.5"/>
                </g>
               <g id="resetDef">
                       <use xlink:href="#rim2" fill="#404040">
                               <set attributeName="fill" to="#808080" begin="reset.mouseover" end="reset.mouseout"/>
                       </use>
               </g>
        </defs>

<script type="text/javascript">
var viewWidth = 1021;
var viewHeight = 104;
var sectionId = 'dynsection-24';
</script>
<script xlink:href="svgpan.js"/>
<svg id="graph" class="graph">
<g id="viewport">
<title>getDelayRange</title>
<polygon fill="#ffffff" stroke="transparent" points="-4,4 -4,-100 1017,-100 1017,4 -4,4"/>
<!-- Node161 -->
<g id="node1" class="node">
<title>Node161</title>
<polygon fill="#bfbfbf" stroke="#000000" points="0,-38.5 0,-57.5 84,-57.5 84,-38.5 0,-38.5"/>
<text text-anchor="middle" x="42" y="-45.5" font-family="Helvetica,sans-Serif" font-size="10.00" fill="#000000">getDelayRange</text>
</g>
<!-- Node162 -->
<g id="node2" class="node">
<title>Node162</title>
<g id="a_node2"><a xlink:href="classCARLsim_1_1Impl.html#aee3e497537bc8121f6c0c8fb3730ae72" target="_top" xlink:title="CARLsim::Impl::getDelayRange">
<polygon fill="#ffffff" stroke="#000000" points="120,-38.5 120,-57.5 278,-57.5 278,-38.5 120,-38.5"/>
<text text-anchor="middle" x="199" y="-45.5" font-family="Helvetica,sans-Serif" font-size="10.00" fill="#000000">CARLsim::Impl::getDelayRange</text>
</a>
</g>
</g>
<!-- Node161&#45;&gt;Node162 -->
<g id="edge1" class="edge">
<title>Node161&#45;&gt;Node162</title>
<path fill="none" stroke="#191970" d="M84.0731,-48C92.1244,-48 100.8326,-48 109.7289,-48"/>
<polygon fill="#191970" stroke="#191970" points="109.8281,-51.5001 119.828,-48 109.828,-44.5001 109.8281,-51.5001"/>
</g>
<!-- Node163 -->
<g id="node3" class="node">
<title>Node163</title>
<g id="a_node3"><a xlink:href="classUserErrors.html#a4bbedc6c0817d5e59e74e450bf00472c" target="_top" xlink:title="simple wrapper for assert statement ">
<polygon fill="#ffffff" stroke="#000000" points="345.5,-76.5 345.5,-95.5 461.5,-95.5 461.5,-76.5 345.5,-76.5"/>
<text text-anchor="middle" x="403.5" y="-83.5" font-family="Helvetica,sans-Serif" font-size="10.00" fill="#000000">UserErrors::assertTrue</text>
</a>
</g>
</g>
<!-- Node162&#45;&gt;Node163 -->
<g id="edge2" class="edge">
<title>Node162&#45;&gt;Node163</title>
<path fill="none" stroke="#191970" d="M250.34,-57.54C278.1748,-62.7122 312.7673,-69.1401 342.0303,-74.5778"/>
<polygon fill="#191970" stroke="#191970" points="341.6677,-78.0702 352.1389,-76.4561 342.9466,-71.188 341.6677,-78.0702"/>
</g>
<!-- Node164 -->
<g id="node4" class="node">
<title>Node164</title>
<g id="a_node4"><a xlink:href="classCARLsim_1_1Impl.html#a14efb66377e70d7f0f4596c223fbc5cc" target="_top" xlink:title="CARLsim::Impl::getNumConnections">
<polygon fill="#ffffff" stroke="#000000" points="314,-38.5 314,-57.5 493,-57.5 493,-38.5 314,-38.5"/>
<text text-anchor="middle" x="403.5" y="-45.5" font-family="Helvetica,sans-Serif" font-size="10.00" fill="#000000">CARLsim::Impl::getNumConnections</text>
</a>
</g>
</g>
<!-- Node162&#45;&gt;Node164 -->
<g id="edge3" class="edge">
<title>Node162&#45;&gt;Node164</title>
<path fill="none" stroke="#191970" d="M278.065,-48C286.4666,-48 295.0885,-48 303.6875,-48"/>
<polygon fill="#191970" stroke="#191970" points="303.7569,-51.5001 313.7568,-48 303.7568,-44.5001 303.7569,-51.5001"/>
</g>
<!-- Node168 -->
<g id="node8" class="node">
<title>Node168</title>
<g id="a_node8"><a xlink:href="classSNN.html#aee3e497537bc8121f6c0c8fb3730ae72" target="_top" xlink:title="returns the RangeDelay struct of a connection ">
<polygon fill="#ffffff" stroke="#000000" points="347.5,-.5 347.5,-19.5 459.5,-19.5 459.5,-.5 347.5,-.5"/>
<text text-anchor="middle" x="403.5" y="-7.5" font-family="Helvetica,sans-Serif" font-size="10.00" fill="#000000">SNN::getDelayRange</text>
</a>
</g>
</g>
<!-- Node162&#45;&gt;Node168 -->
<g id="edge7" class="edge">
<title>Node162&#45;&gt;Node168</title>
<path fill="none" stroke="#191970" d="M250.34,-38.46C278.1748,-33.2878 312.7673,-26.8599 342.0303,-21.4222"/>
<polygon fill="#191970" stroke="#191970" points="342.9466,-24.812 352.1389,-19.5439 341.6677,-17.9298 342.9466,-24.812"/>
</g>
<!-- Node165 -->
<g id="node5" class="node">
<title>Node165</title>
<g id="a_node5"><a xlink:href="classSNN.html#a14efb66377e70d7f0f4596c223fbc5cc" target="_top" xlink:title="SNN::getNumConnections">
<polygon fill="#ffffff" stroke="#000000" points="529,-38.5 529,-57.5 663,-57.5 663,-38.5 529,-38.5"/>
<text text-anchor="middle" x="596" y="-45.5" font-family="Helvetica,sans-Serif" font-size="10.00" fill="#000000">SNN::getNumConnections</text>
</a>
</g>
</g>
<!-- Node164&#45;&gt;Node165 -->
<g id="edge4" class="edge">
<title>Node164&#45;&gt;Node165</title>
<path fill="none" stroke="#191970" d="M493.2688,-48C501.7703,-48 510.3396,-48 518.7097,-48"/>
<polygon fill="#191970" stroke="#191970" points="518.8027,-51.5001 528.8027,-48 518.8027,-44.5001 518.8027,-51.5001"/>
</g>
<!-- Node166 -->
<g id="node6" class="node">
<title>Node166</title>
<g id="a_node6"><a xlink:href="classSNN.html#a52f149e224abff772962dea6680398e2" target="_top" xlink:title="gets number of connections associated with a connection ID ">
<polygon fill="#ffffff" stroke="#000000" points="699,-38.5 699,-57.5 871,-57.5 871,-38.5 699,-38.5"/>
<text text-anchor="middle" x="785" y="-45.5" font-family="Helvetica,sans-Serif" font-size="10.00" fill="#000000">SNN::getNumSynapticConnections</text>
</a>
</g>
</g>
<!-- Node165&#45;&gt;Node166 -->
<g id="edge5" class="edge">
<title>Node165&#45;&gt;Node166</title>
<path fill="none" stroke="#191970" d="M663.1665,-48C671.4789,-48 680.1,-48 688.7407,-48"/>
<polygon fill="#191970" stroke="#191970" points="688.8759,-51.5001 698.8759,-48 688.8759,-44.5001 688.8759,-51.5001"/>
</g>
<!-- Node167 -->
<g id="node7" class="node">
<title>Node167</title>
<g id="a_node7"><a xlink:href="classSNN.html#a477f99451786873b73e2623b6f89b766" target="_top" xlink:title="deallocates all dynamical structures and exits ">
<polygon fill="#ffffff" stroke="#000000" points="907,-38.5 907,-57.5 1013,-57.5 1013,-38.5 907,-38.5"/>
<text text-anchor="middle" x="960" y="-45.5" font-family="Helvetica,sans-Serif" font-size="10.00" fill="#000000">SNN::exitSimulation</text>
</a>
</g>
</g>
<!-- Node166&#45;&gt;Node167 -->
<g id="edge6" class="edge">
<title>Node166&#45;&gt;Node167</title>
<path fill="none" stroke="#191970" d="M871.2183,-48C879.711,-48 888.2199,-48 896.4247,-48"/>
<polygon fill="#191970" stroke="#191970" points="896.6308,-51.5001 906.6308,-48 896.6308,-44.5001 896.6308,-51.5001"/>
</g>
</g>
</svg>
        <g id="navigator" transform="translate(0 0)" fill="#404254">
                <rect fill="#f2f5e9" fill-opacity="0.5" stroke="#606060" stroke-width=".5" x="0" y="0" width="60" height="60"/>
                <use id="zoomplus" xlink:href="#zoomPlus" x="17" y="9" onmousedown="handleZoom(evt,'in')"/>
                <use id="zoomminus" xlink:href="#zoomMin" x="42" y="9" onmousedown="handleZoom(evt,'out')"/>
                <use id="reset" xlink:href="#resetDef" x="30" y="36" onmousedown="handleReset()"/>
                <g id="arrowUp" xlink:href="#dirArrow" transform="translate(30 24)" onmousedown="handlePan(0,-1)">
                  <use xlink:href="#rim" fill="#404040">
                        <set attributeName="fill" to="#808080" begin="arrowUp.mouseover" end="arrowUp.mouseout"/>
                  </use>
                  <path fill="none" stroke="white" stroke-width="1.5" d="M0,-3.0v7 M-2.5,-0.5L0,-3.0L2.5,-0.5"/>
                </g>
                <g id="arrowRight" xlink:href="#dirArrow" transform="rotate(90) translate(36 -43)" onmousedown="handlePan(1,0)">
                  <use xlink:href="#rim" fill="#404040">
                        <set attributeName="fill" to="#808080" begin="arrowRight.mouseover" end="arrowRight.mouseout"/>
                  </use>
                  <path fill="none" stroke="white" stroke-width="1.5" d="M0,-3.0v7 M-2.5,-0.5L0,-3.0L2.5,-0.5"/>
                </g>
                <g id="arrowDown" xlink:href="#dirArrow" transform="rotate(180) translate(-30 -48)" onmousedown="handlePan(0,1)">
                  <use xlink:href="#rim" fill="#404040">
                        <set attributeName="fill" to="#808080" begin="arrowDown.mouseover" end="arrowDown.mouseout"/>
                  </use>
                  <path fill="none" stroke="white" stroke-width="1.5" d="M0,-3.0v7 M-2.5,-0.5L0,-3.0L2.5,-0.5"/>
                </g>
                <g id="arrowLeft" xlink:href="#dirArrow" transform="rotate(270) translate(-36 17)" onmousedown="handlePan(-1,0)">
                  <use xlink:href="#rim" fill="#404040">
                        <set attributeName="fill" to="#808080" begin="arrowLeft.mouseover" end="arrowLeft.mouseout"/>
                  </use>
                  <path fill="none" stroke="white" stroke-width="1.5" d="M0,-3.0v7 M-2.5,-0.5L0,-3.0L2.5,-0.5"/>
                </g>
        </g>
        <svg viewBox="0 0 15 15" width="100%" height="30px" preserveAspectRatio="xMaxYMin meet">
         <g id="arrow_out" transform="scale(0.3 0.3)">
          <a xlink:href="classCARLsim_aee3e497537bc8121f6c0c8fb3730ae72_cgraph_org.svg" target="_base">
           <rect id="button" ry="5" rx="5" y="6" x="6" height="38" width="38"
                fill="#f2f5e9" fill-opacity="0.5" stroke="#606060" stroke-width="1.0"/>
           <path id="arrow"
             d="M 11.500037,31.436501 C 11.940474,20.09759 22.043105,11.32322 32.158766,21.979434 L 37.068811,17.246167 C 37.068811,17.246167 37.088388,32 37.088388,32 L 22.160133,31.978069 C 22.160133,31.978069 26.997745,27.140456 26.997745,27.140456 C 18.528582,18.264221 13.291696,25.230495 11.500037,31.436501 z"
             style="fill:#404040;"/>
          </a>
         </g>
        </svg>
</svg>
