<?xml version="1.0" encoding="UTF-8" standalone="no"?>
<!DOCTYPE svg PUBLIC "-//W3C//DTD SVG 1.1//EN"
 "http://www.w3.org/Graphics/SVG/1.1/DTD/svg11.dtd">
<!-- Generated by graphviz version 2.40.1 (20161225.0304)
 -->
<!-- Title: setDefaultSTPparams Pages: 1 -->
<svg width="632pt" height="293pt"
 viewBox="0.00 0.00 632.00 292.88" xmlns="http://www.w3.org/2000/svg" xmlns:xlink="http://www.w3.org/1999/xlink">
<g id="graph0" class="graph" transform="scale(1 1) rotate(0) translate(4 288.8766)">
<title>setDefaultSTPparams</title>
<polygon fill="#ffffff" stroke="transparent" points="-4,4 -4,-288.8766 628,-288.8766 628,4 -4,4"/>
<!-- Node648 -->
<g id="node1" class="node">
<title>Node648</title>
<polygon fill="#bfbfbf" stroke="#000000" points="0,-76.5 0,-95.5 113,-95.5 113,-76.5 0,-76.5"/>
<text text-anchor="middle" x="56.5" y="-83.5" font-family="Helvetica,sans-Serif" font-size="10.00" fill="#000000">setDefaultSTPparams</text>
</g>
<!-- Node649 -->
<g id="node2" class="node">
<title>Node649</title>
<g id="a_node2"><a xlink:href="classCARLsim_1_1Impl.html#abb10cfa3d0f3a246442e1187ecb837ae" target="_top" xlink:title="CARLsim::Impl::setDefault\lSTPparams">
<polygon fill="#ffffff" stroke="#000000" points="154.5,-153 154.5,-183 289.5,-183 289.5,-153 154.5,-153"/>
<text text-anchor="start" x="162.5" y="-171" font-family="Helvetica,sans-Serif" font-size="10.00" fill="#000000">CARLsim::Impl::setDefault</text>
<text text-anchor="middle" x="222" y="-160" font-family="Helvetica,sans-Serif" font-size="10.00" fill="#000000">STPparams</text>
</a>
</g>
</g>
<!-- Node648&#45;&gt;Node649 -->
<g id="edge1" class="edge">
<title>Node648&#45;&gt;Node649</title>
<path fill="none" stroke="#191970" d="M70.0592,-95.6963C87.6219,-107.935 119.4903,-129.0676 149,-143 153.6506,-145.1957 158.5481,-147.2951 163.5138,-149.2776"/>
<polygon fill="#191970" stroke="#191970" points="162.5097,-152.6407 173.1003,-152.9408 165.0084,-146.1018 162.5097,-152.6407"/>
</g>
<!-- Node656 -->
<g id="node9" class="node">
<title>Node656</title>
<g id="a_node9"><a xlink:href="classCARLsim.html#a8e1efea50fcff581761bd7730d0afc59" target="_top" xlink:title="LN extension 20201017. ">
<polygon fill="#ffffff" stroke="#000000" points="174.5,-114.5 174.5,-133.5 269.5,-133.5 269.5,-114.5 174.5,-114.5"/>
<text text-anchor="middle" x="222" y="-121.5" font-family="Helvetica,sans-Serif" font-size="10.00" fill="#000000">cudaDeviceCount</text>
</a>
</g>
</g>
<!-- Node648&#45;&gt;Node656 -->
<g id="edge13" class="edge">
<title>Node648&#45;&gt;Node656</title>
<path fill="none" stroke="#191970" d="M98.2626,-95.589C120.2005,-100.6261 147.2803,-106.8438 170.508,-112.1771"/>
<polygon fill="#191970" stroke="#191970" points="170.008,-115.6533 180.5377,-114.4799 171.5746,-108.8308 170.008,-115.6533"/>
</g>
<!-- Node657 -->
<g id="node10" class="node">
<title>Node657</title>
<g id="a_node10"><a xlink:href="classSNN.html#a8e1efea50fcff581761bd7730d0afc59" target="_top" xlink:title="Get Info of suitable Harware for integration of CARLsim in NeuroInf&#45;IDEs NIIDEs (LN20201017) ...">
<polygon fill="#ffffff" stroke="#000000" points="161,-76.5 161,-95.5 283,-95.5 283,-76.5 161,-76.5"/>
<text text-anchor="middle" x="222" y="-83.5" font-family="Helvetica,sans-Serif" font-size="10.00" fill="#000000">SNN::cudaDeviceCount</text>
</a>
</g>
</g>
<!-- Node648&#45;&gt;Node657 -->
<g id="edge14" class="edge">
<title>Node648&#45;&gt;Node657</title>
<path fill="none" stroke="#191970" d="M113.4557,-86C125.4357,-86 138.2171,-86 150.6487,-86"/>
<polygon fill="#191970" stroke="#191970" points="150.9836,-89.5001 160.9836,-86 150.9836,-82.5001 150.9836,-89.5001"/>
</g>
<!-- Node658 -->
<g id="node11" class="node">
<title>Node658</title>
<g id="a_node11"><a xlink:href="classCARLsim.html#ad9125d9ca019b694240d64c9af9b11d7" target="_top" xlink:title="LN extension 20201017. ">
<polygon fill="#ffffff" stroke="#000000" points="163,-38.5 163,-57.5 281,-57.5 281,-38.5 163,-38.5"/>
<text text-anchor="middle" x="222" y="-45.5" font-family="Helvetica,sans-Serif" font-size="10.00" fill="#000000">cudaDeviceDescription</text>
</a>
</g>
</g>
<!-- Node648&#45;&gt;Node658 -->
<g id="edge15" class="edge">
<title>Node648&#45;&gt;Node658</title>
<path fill="none" stroke="#191970" d="M98.2626,-76.411C120.2005,-71.3739 147.2803,-65.1562 170.508,-59.8229"/>
<polygon fill="#191970" stroke="#191970" points="171.5746,-63.1692 180.5377,-57.5201 170.008,-56.3467 171.5746,-63.1692"/>
</g>
<!-- Node659 -->
<g id="node12" class="node">
<title>Node659</title>
<g id="a_node12"><a xlink:href="classSNN.html#ad9125d9ca019b694240d64c9af9b11d7" target="_top" xlink:title="SNN::cudaDeviceDescription">
<polygon fill="#ffffff" stroke="#000000" points="149,-.5 149,-19.5 295,-19.5 295,-.5 149,-.5"/>
<text text-anchor="middle" x="222" y="-7.5" font-family="Helvetica,sans-Serif" font-size="10.00" fill="#000000">SNN::cudaDeviceDescription</text>
</a>
</g>
</g>
<!-- Node648&#45;&gt;Node659 -->
<g id="edge16" class="edge">
<title>Node648&#45;&gt;Node659</title>
<path fill="none" stroke="#191970" d="M69.3028,-76.384C86.5623,-63.837 118.6397,-41.9595 149,-29 154.691,-26.5708 160.7681,-24.391 166.8948,-22.4514"/>
<polygon fill="#191970" stroke="#191970" points="167.9221,-25.7975 176.5151,-19.5997 165.9327,-19.0861 167.9221,-25.7975"/>
</g>
<!-- Node650 -->
<g id="node3" class="node">
<title>Node650</title>
<g id="a_node3"><a xlink:href="classUserErrors.html#a4bbedc6c0817d5e59e74e450bf00472c" target="_top" xlink:title="simple wrapper for assert statement ">
<polygon fill="#ffffff" stroke="#000000" points="508,-158.5 508,-177.5 624,-177.5 624,-158.5 508,-158.5"/>
<text text-anchor="middle" x="566" y="-165.5" font-family="Helvetica,sans-Serif" font-size="10.00" fill="#000000">UserErrors::assertTrue</text>
</a>
</g>
</g>
<!-- Node649&#45;&gt;Node650 -->
<g id="edge2" class="edge">
<title>Node649&#45;&gt;Node650</title>
<path fill="none" stroke="#191970" d="M232.6041,-183.0655C250.0097,-206.3212 287.1231,-250.0484 331,-267 389.4557,-289.584 414.419,-291.7292 472,-267 510.0894,-250.6418 540.0097,-210.4247 555.1441,-186.5858"/>
<polygon fill="#191970" stroke="#191970" points="558.3046,-188.1266 560.5403,-177.7703 552.3343,-184.472 558.3046,-188.1266"/>
</g>
<!-- Node651 -->
<g id="node4" class="node">
<title>Node651</title>
<g id="a_node4"><a xlink:href="classCARLsim_1_1Impl.html#a19dee0cb90e81a639376e253cf142d3f" target="_top" xlink:title="CARLsim::Impl::setDefault\lConductanceTimeConstants">
<polygon fill="#ffffff" stroke="#000000" points="331,-227 331,-257 472,-257 472,-227 331,-227"/>
<text text-anchor="start" x="339" y="-245" font-family="Helvetica,sans-Serif" font-size="10.00" fill="#000000">CARLsim::Impl::setDefault</text>
<text text-anchor="middle" x="401.5" y="-234" font-family="Helvetica,sans-Serif" font-size="10.00" fill="#000000">ConductanceTimeConstants</text>
</a>
</g>
</g>
<!-- Node649&#45;&gt;Node651 -->
<g id="edge3" class="edge">
<title>Node649&#45;&gt;Node651</title>
<path fill="none" stroke="#191970" d="M252.6452,-183.0741C274.2911,-193.4697 304.1155,-207.2901 331,-218 335.6844,-219.8661 340.5778,-221.7207 345.5077,-223.5239"/>
<polygon fill="#191970" stroke="#191970" points="344.3933,-226.8424 354.9879,-226.9177 346.7527,-220.252 344.3933,-226.8424"/>
</g>
<!-- Node652 -->
<g id="node5" class="node">
<title>Node652</title>
<g id="a_node5"><a xlink:href="classCARLsim_1_1Impl.html#a800d13fcd2488793532832fb094c252f" target="_top" xlink:title="CARLsim::Impl::setDefault\lESTDPparams">
<polygon fill="#ffffff" stroke="#000000" points="334,-178 334,-208 469,-208 469,-178 334,-178"/>
<text text-anchor="start" x="342" y="-196" font-family="Helvetica,sans-Serif" font-size="10.00" fill="#000000">CARLsim::Impl::setDefault</text>
<text text-anchor="middle" x="401.5" y="-185" font-family="Helvetica,sans-Serif" font-size="10.00" fill="#000000">ESTDPparams</text>
</a>
</g>
</g>
<!-- Node649&#45;&gt;Node652 -->
<g id="edge5" class="edge">
<title>Node649&#45;&gt;Node652</title>
<path fill="none" stroke="#191970" d="M289.6055,-177.4158C300.8277,-178.9788 312.5426,-180.6104 323.9871,-182.2043"/>
<polygon fill="#191970" stroke="#191970" points="323.5682,-185.6797 333.9554,-183.5927 324.5339,-178.7466 323.5682,-185.6797"/>
</g>
<!-- Node653 -->
<g id="node6" class="node">
<title>Node653</title>
<g id="a_node6"><a xlink:href="classCARLsim_1_1Impl.html#a5640d10d796eb10b044cfc8c2e021619" target="_top" xlink:title="CARLsim::Impl::setDefault\lISTDPparams">
<polygon fill="#ffffff" stroke="#000000" points="334,-129 334,-159 469,-159 469,-129 334,-129"/>
<text text-anchor="start" x="342" y="-147" font-family="Helvetica,sans-Serif" font-size="10.00" fill="#000000">CARLsim::Impl::setDefault</text>
<text text-anchor="middle" x="401.5" y="-136" font-family="Helvetica,sans-Serif" font-size="10.00" fill="#000000">ISTDPparams</text>
</a>
</g>
</g>
<!-- Node649&#45;&gt;Node653 -->
<g id="edge7" class="edge">
<title>Node649&#45;&gt;Node653</title>
<path fill="none" stroke="#191970" d="M289.6055,-158.9608C300.8277,-157.4604 312.5426,-155.894 323.9871,-154.3638"/>
<polygon fill="#191970" stroke="#191970" points="324.5075,-157.8255 333.9554,-153.031 323.5798,-150.8872 324.5075,-157.8255"/>
</g>
<!-- Node654 -->
<g id="node7" class="node">
<title>Node654</title>
<g id="a_node7"><a xlink:href="classCARLsim_1_1Impl.html#a13fbb8775775a31cb974b709430a6d30" target="_top" xlink:title="CARLsim::Impl::setDefault\lHomeostasisParams">
<polygon fill="#ffffff" stroke="#000000" points="334,-80 334,-110 469,-110 469,-80 334,-80"/>
<text text-anchor="start" x="342" y="-98" font-family="Helvetica,sans-Serif" font-size="10.00" fill="#000000">CARLsim::Impl::setDefault</text>
<text text-anchor="middle" x="401.5" y="-87" font-family="Helvetica,sans-Serif" font-size="10.00" fill="#000000">HomeostasisParams</text>
</a>
</g>
</g>
<!-- Node649&#45;&gt;Node654 -->
<g id="edge9" class="edge">
<title>Node649&#45;&gt;Node654</title>
<path fill="none" stroke="#191970" d="M271.3391,-152.903C279.379,-149.9332 287.5184,-146.607 295,-143 312.1028,-134.7545 313.9421,-128.338 331,-120 335.3642,-117.8667 339.9583,-115.8231 344.6218,-113.8885"/>
<polygon fill="#191970" stroke="#191970" points="346.2334,-117.0148 354.2406,-110.0768 343.6545,-110.5071 346.2334,-117.0148"/>
</g>
<!-- Node655 -->
<g id="node8" class="node">
<title>Node655</title>
<g id="a_node8"><a xlink:href="classCARLsim_1_1Impl.html#a47e42a4aff33749f6040039bdff2bf9a" target="_top" xlink:title="CARLsim::Impl::setDefault\lSaveOptions">
<polygon fill="#ffffff" stroke="#000000" points="334,-31 334,-61 469,-61 469,-31 334,-31"/>
<text text-anchor="start" x="342" y="-49" font-family="Helvetica,sans-Serif" font-size="10.00" fill="#000000">CARLsim::Impl::setDefault</text>
<text text-anchor="middle" x="401.5" y="-38" font-family="Helvetica,sans-Serif" font-size="10.00" fill="#000000">SaveOptions</text>
</a>
</g>
</g>
<!-- Node649&#45;&gt;Node655 -->
<g id="edge11" class="edge">
<title>Node649&#45;&gt;Node655</title>
<path fill="none" stroke="#191970" d="M280.1651,-152.9698C285.5124,-150.1853 290.5736,-146.8924 295,-143 322.1658,-119.1115 303.8124,-93.8637 331,-70 332.3361,-68.8272 333.7321,-67.7112 335.1776,-66.6492"/>
<polygon fill="#191970" stroke="#191970" points="337.3305,-69.4297 343.927,-61.1389 333.6001,-63.5065 337.3305,-69.4297"/>
</g>
<!-- Node651&#45;&gt;Node650 -->
<g id="edge4" class="edge">
<title>Node651&#45;&gt;Node650</title>
<path fill="none" stroke="#191970" d="M449.3003,-226.8918C456.9705,-224.1354 464.762,-221.1328 472,-218 496.0897,-207.5732 522.3784,-193.3287 541.0137,-182.7104"/>
<polygon fill="#191970" stroke="#191970" points="542.8376,-185.699 549.7561,-177.6749 539.3438,-179.6332 542.8376,-185.699"/>
</g>
<!-- Node652&#45;&gt;Node650 -->
<g id="edge6" class="edge">
<title>Node652&#45;&gt;Node650</title>
<path fill="none" stroke="#191970" d="M469.3582,-182.6872C478.7173,-181.2648 488.3331,-179.8035 497.7002,-178.3799"/>
<polygon fill="#191970" stroke="#191970" points="498.3824,-181.8165 507.743,-176.8536 497.3306,-174.896 498.3824,-181.8165"/>
</g>
<!-- Node653&#45;&gt;Node650 -->
<g id="edge8" class="edge">
<title>Node653&#45;&gt;Node650</title>
<path fill="none" stroke="#191970" d="M469.3582,-153.9003C478.7173,-155.2658 488.3331,-156.6687 497.7002,-158.0353"/>
<polygon fill="#191970" stroke="#191970" points="497.3424,-161.5201 507.743,-159.5005 498.3531,-154.5934 497.3424,-161.5201"/>
</g>
<!-- Node654&#45;&gt;Node650 -->
<g id="edge10" class="edge">
<title>Node654&#45;&gt;Node650</title>
<path fill="none" stroke="#191970" d="M446.9723,-110.1343C455.3703,-113.2084 464.008,-116.5601 472,-120 495.5057,-130.1172 521.3401,-143.481 539.967,-153.5381"/>
<polygon fill="#191970" stroke="#191970" points="538.5446,-156.7489 549.0002,-158.4613 541.8945,-150.6025 538.5446,-156.7489"/>
</g>
<!-- Node655&#45;&gt;Node650 -->
<g id="edge12" class="edge">
<title>Node655&#45;&gt;Node650</title>
<path fill="none" stroke="#191970" d="M454.7592,-61.0225C460.7758,-63.6163 466.6566,-66.5963 472,-70 506.2533,-91.8189 536.9719,-128.6489 553.4026,-150.4078"/>
<polygon fill="#191970" stroke="#191970" points="550.5962,-152.4994 559.3522,-158.4646 556.2273,-148.3411 550.5962,-152.4994"/>
</g>
</g>
</svg>
