<?xml version="1.0" encoding="UTF-8" standalone="no"?>
<!DOCTYPE svg PUBLIC "-//W3C//DTD SVG 1.1//EN"
 "http://www.w3.org/Graphics/SVG/1.1/DTD/svg11.dtd">
<!-- Generated by graphviz version 2.40.1 (20161225.0304)
 -->
<!-- Title: setNM4STP Pages: 1 -->
<svg width="511pt" height="104pt"
 viewBox="0.00 0.00 511.00 104.00" xmlns="http://www.w3.org/2000/svg" xmlns:xlink="http://www.w3.org/1999/xlink">
<g id="graph0" class="graph" transform="scale(1 1) rotate(0) translate(4 100)">
<title>setNM4STP</title>
<polygon fill="#ffffff" stroke="transparent" points="-4,4 -4,-100 507,-100 507,4 -4,4"/>
<!-- Node1123 -->
<g id="node1" class="node">
<title>Node1123</title>
<polygon fill="#bfbfbf" stroke="#000000" points="0,-38.5 0,-57.5 71,-57.5 71,-38.5 0,-38.5"/>
<text text-anchor="middle" x="35.5" y="-45.5" font-family="Helvetica,sans-Serif" font-size="10.00" fill="#000000">setNM4STP</text>
</g>
<!-- Node1124 -->
<g id="node2" class="node">
<title>Node1124</title>
<g id="a_node2"><a xlink:href="classCARLsim_1_1Impl.html#ab0367f8ebd4019bf7d34ebddb1563fe7" target="_top" xlink:title="getGroupName">
<polygon fill="#ffffff" stroke="#000000" points="114.5,-38.5 114.5,-57.5 197.5,-57.5 197.5,-38.5 114.5,-38.5"/>
<text text-anchor="middle" x="156" y="-45.5" font-family="Helvetica,sans-Serif" font-size="10.00" fill="#000000">getGroupName</text>
</a>
</g>
</g>
<!-- Node1123&#45;&gt;Node1124 -->
<g id="edge1" class="edge">
<title>Node1123&#45;&gt;Node1124</title>
<path fill="none" stroke="#191970" d="M71.0022,-48C81.42,-48 93.0326,-48 104.2446,-48"/>
<polygon fill="#191970" stroke="#191970" points="104.3831,-51.5001 114.3831,-48 104.3831,-44.5001 104.3831,-51.5001"/>
</g>
<!-- Node1125 -->
<g id="node3" class="node">
<title>Node1125</title>
<g id="a_node3"><a xlink:href="classUserErrors.html#a4bbedc6c0817d5e59e74e450bf00472c" target="_top" xlink:title="simple wrapper for assert statement ">
<polygon fill="#ffffff" stroke="#000000" points="241,-76.5 241,-95.5 357,-95.5 357,-76.5 241,-76.5"/>
<text text-anchor="middle" x="299" y="-83.5" font-family="Helvetica,sans-Serif" font-size="10.00" fill="#000000">UserErrors::assertTrue</text>
</a>
</g>
</g>
<!-- Node1123&#45;&gt;Node1125 -->
<g id="edge6" class="edge">
<title>Node1123&#45;&gt;Node1125</title>
<path fill="none" stroke="#191970" d="M66.9312,-57.5242C79.3169,-60.9682 93.7297,-64.5964 107,-67 147.6719,-74.3668 193.745,-79.0462 230.5621,-81.9174"/>
<polygon fill="#191970" stroke="#191970" points="230.4541,-85.4191 240.6888,-82.68 230.9799,-78.4389 230.4541,-85.4191"/>
</g>
<!-- Node1129 -->
<g id="node7" class="node">
<title>Node1129</title>
<g id="a_node7"><a xlink:href="classSNN.html#aac61df1a82373e89549e608b78557b82" target="_top" xlink:title="SNN::setNM4STP">
<polygon fill="#ffffff" stroke="#000000" points="107,-.5 107,-19.5 205,-19.5 205,-.5 107,-.5"/>
<text text-anchor="middle" x="156" y="-7.5" font-family="Helvetica,sans-Serif" font-size="10.00" fill="#000000">SNN::setNM4STP</text>
</a>
</g>
</g>
<!-- Node1123&#45;&gt;Node1129 -->
<g id="edge7" class="edge">
<title>Node1123&#45;&gt;Node1129</title>
<path fill="none" stroke="#191970" d="M65.9072,-38.411C81.0345,-33.6406 99.5196,-27.8112 115.8002,-22.6771"/>
<polygon fill="#191970" stroke="#191970" points="117.1181,-25.9315 125.6025,-19.5859 115.0128,-19.2556 117.1181,-25.9315"/>
</g>
<!-- Node1124&#45;&gt;Node1125 -->
<g id="edge2" class="edge">
<title>Node1124&#45;&gt;Node1125</title>
<path fill="none" stroke="#191970" d="M192.0849,-57.589C210.6296,-62.5169 233.4265,-68.5749 253.199,-73.8291"/>
<polygon fill="#191970" stroke="#191970" points="252.3631,-77.2284 262.9266,-76.4141 254.1609,-70.4632 252.3631,-77.2284"/>
</g>
<!-- Node1126 -->
<g id="node4" class="node">
<title>Node1126</title>
<g id="a_node4"><a xlink:href="classCARLsim_1_1Impl.html#a292bdee57fec7c77ec4c15ea3f508d60" target="_top" xlink:title="getNumGroups">
<polygon fill="#ffffff" stroke="#000000" points="257.5,-38.5 257.5,-57.5 340.5,-57.5 340.5,-38.5 257.5,-38.5"/>
<text text-anchor="middle" x="299" y="-45.5" font-family="Helvetica,sans-Serif" font-size="10.00" fill="#000000">getNumGroups</text>
</a>
</g>
</g>
<!-- Node1124&#45;&gt;Node1126 -->
<g id="edge3" class="edge">
<title>Node1124&#45;&gt;Node1126</title>
<path fill="none" stroke="#191970" d="M197.7459,-48C213.1645,-48 230.8298,-48 247.0429,-48"/>
<polygon fill="#191970" stroke="#191970" points="247.4494,-51.5001 257.4494,-48 247.4494,-44.5001 247.4494,-51.5001"/>
</g>
<!-- Node1128 -->
<g id="node6" class="node">
<title>Node1128</title>
<g id="a_node6"><a xlink:href="classSNN.html#ab0367f8ebd4019bf7d34ebddb1563fe7" target="_top" xlink:title="SNN::getGroupName">
<polygon fill="#ffffff" stroke="#000000" points="244,-.5 244,-19.5 354,-19.5 354,-.5 244,-.5"/>
<text text-anchor="middle" x="299" y="-7.5" font-family="Helvetica,sans-Serif" font-size="10.00" fill="#000000">SNN::getGroupName</text>
</a>
</g>
</g>
<!-- Node1124&#45;&gt;Node1128 -->
<g id="edge5" class="edge">
<title>Node1124&#45;&gt;Node1128</title>
<path fill="none" stroke="#191970" d="M192.0849,-38.411C210.6296,-33.4831 233.4265,-27.4251 253.199,-22.1709"/>
<polygon fill="#191970" stroke="#191970" points="254.1609,-25.5368 262.9266,-19.5859 252.3631,-18.7716 254.1609,-25.5368"/>
</g>
<!-- Node1127 -->
<g id="node5" class="node">
<title>Node1127</title>
<g id="a_node5"><a xlink:href="classSNN.html#a292bdee57fec7c77ec4c15ea3f508d60" target="_top" xlink:title="SNN::getNumGroups">
<polygon fill="#ffffff" stroke="#000000" points="393,-38.5 393,-57.5 503,-57.5 503,-38.5 393,-38.5"/>
<text text-anchor="middle" x="448" y="-45.5" font-family="Helvetica,sans-Serif" font-size="10.00" fill="#000000">SNN::getNumGroups</text>
</a>
</g>
</g>
<!-- Node1126&#45;&gt;Node1127 -->
<g id="edge4" class="edge">
<title>Node1126&#45;&gt;Node1127</title>
<path fill="none" stroke="#191970" d="M340.5048,-48C353.5315,-48 368.2449,-48 382.5109,-48"/>
<polygon fill="#191970" stroke="#191970" points="382.7892,-51.5001 392.7892,-48 382.7891,-44.5001 382.7892,-51.5001"/>
</g>
</g>
</svg>
