<?xml version="1.0" encoding="UTF-8" standalone="no"?>
<!DOCTYPE svg PUBLIC "-//W3C//DTD SVG 1.1//EN"
 "http://www.w3.org/Graphics/SVG/1.1/DTD/svg11.dtd">
<!-- Generated by graphviz version 2.40.1 (20161225.0304)
 -->
<!-- Title: setNeuronParametersLIF Pages: 1 -->
<!--zoomable 148 -->
<svg id="main" version="1.1" xmlns="http://www.w3.org/2000/svg" xmlns:xlink="http://www.w3.org/1999/xlink" xml:space="preserve" onload="init(evt)">
<style type="text/css"><![CDATA[
.edge:hover path { stroke: red; }
.edge:hover polygon { stroke: red; fill: red; }
]]></style>
<script type="text/javascript"><![CDATA[
var edges = document.getElementsByTagName('g');
if (edges && edges.length) {
  for (var i=0;i<edges.length;i++) {
    if (edges[i].id.substr(0,4)=='edge') {
      edges[i].setAttribute('class','edge');
    }
  }
}
]]></script>
        <defs>
                <circle id="rim" cx="0" cy="0" r="7"/>
                <circle id="rim2" cx="0" cy="0" r="3.5"/>
                <g id="zoomPlus">
                        <use xlink:href="#rim" fill="#404040">
                                <set attributeName="fill" to="#808080" begin="zoomplus.mouseover" end="zoomplus.mouseout"/>
                        </use>
                        <path d="M-4,0h8M0,-4v8" fill="none" stroke="white" stroke-width="1.5" pointer-events="none"/>
                </g>
                <g id="zoomMin">
                        <use xlink:href="#rim" fill="#404040">
                                <set attributeName="fill" to="#808080" begin="zoomminus.mouseover" end="zoomminus.mouseout"/>
                        </use>
                        <path d="M-4,0h8" fill="none" stroke="white" stroke-width="1.5" pointer-events="none"/>
                </g>
                <g id="dirArrow">
                        <path fill="none" stroke="white" stroke-width="1.5" d="M0,-3.0v7 M-2.5,-0.5L0,-3.0L2.5,-0.5"/>
                </g>
               <g id="resetDef">
                       <use xlink:href="#rim2" fill="#404040">
                               <set attributeName="fill" to="#808080" begin="reset.mouseover" end="reset.mouseout"/>
                       </use>
               </g>
        </defs>

<script type="text/javascript">
var viewWidth = 835;
var viewHeight = 148;
var sectionId = 'dynsection-117';
</script>
<script xlink:href="svgpan.js"/>
<svg id="graph" class="graph">
<g id="viewport">
<title>setNeuronParametersLIF</title>
<polygon fill="#ffffff" stroke="transparent" points="-4,4 -4,-144 831,-144 831,4 -4,4"/>
<!-- Node946 -->
<g id="node1" class="node">
<title>Node946</title>
<polygon fill="#bfbfbf" stroke="#000000" points="0,-60.5 0,-79.5 126,-79.5 126,-60.5 0,-60.5"/>
<text text-anchor="middle" x="63" y="-67.5" font-family="Helvetica,sans-Serif" font-size="10.00" fill="#000000">setNeuronParametersLIF</text>
</g>
<!-- Node947 -->
<g id="node2" class="node">
<title>Node947</title>
<g id="a_node2"><a xlink:href="classCARLsim_1_1Impl.html#ae3d3c73126e9aa3fe8e81ea180860952" target="_top" xlink:title="CARLsim::Impl::setNeuron\lParametersLIF">
<polygon fill="#ffffff" stroke="#000000" points="162,-55 162,-85 297,-85 297,-55 162,-55"/>
<text text-anchor="start" x="170" y="-73" font-family="Helvetica,sans-Serif" font-size="10.00" fill="#000000">CARLsim::Impl::setNeuron</text>
<text text-anchor="middle" x="229.5" y="-62" font-family="Helvetica,sans-Serif" font-size="10.00" fill="#000000">ParametersLIF</text>
</a>
</g>
</g>
<!-- Node946&#45;&gt;Node947 -->
<g id="edge1" class="edge">
<title>Node946&#45;&gt;Node947</title>
<path fill="none" stroke="#191970" d="M126.4215,-70C134.6537,-70 143.1606,-70 151.5941,-70"/>
<polygon fill="#191970" stroke="#191970" points="151.8212,-73.5001 161.8212,-70 151.8212,-66.5001 151.8212,-73.5001"/>
</g>
<!-- Node948 -->
<g id="node3" class="node">
<title>Node948</title>
<g id="a_node3"><a xlink:href="classCARLsim_1_1Impl.html#ab0367f8ebd4019bf7d34ebddb1563fe7" target="_top" xlink:title="CARLsim::Impl::getGroupName">
<polygon fill="#ffffff" stroke="#000000" points="333,-38.5 333,-57.5 489,-57.5 489,-38.5 333,-38.5"/>
<text text-anchor="middle" x="411" y="-45.5" font-family="Helvetica,sans-Serif" font-size="10.00" fill="#000000">CARLsim::Impl::getGroupName</text>
</a>
</g>
</g>
<!-- Node947&#45;&gt;Node948 -->
<g id="edge2" class="edge">
<title>Node947&#45;&gt;Node948</title>
<path fill="none" stroke="#191970" d="M297.0839,-61.808C305.487,-60.7895 314.1742,-59.7365 322.83,-58.6873"/>
<polygon fill="#191970" stroke="#191970" points="323.4517,-62.1376 332.9579,-57.4597 322.6093,-55.1885 323.4517,-62.1376"/>
</g>
<!-- Node949 -->
<g id="node4" class="node">
<title>Node949</title>
<g id="a_node4"><a xlink:href="classUserErrors.html#a4bbedc6c0817d5e59e74e450bf00472c" target="_top" xlink:title="simple wrapper for assert statement ">
<polygon fill="#ffffff" stroke="#000000" points="545,-120.5 545,-139.5 661,-139.5 661,-120.5 545,-120.5"/>
<text text-anchor="middle" x="603" y="-127.5" font-family="Helvetica,sans-Serif" font-size="10.00" fill="#000000">UserErrors::assertTrue</text>
</a>
</g>
</g>
<!-- Node947&#45;&gt;Node949 -->
<g id="edge7" class="edge">
<title>Node947&#45;&gt;Node949</title>
<path fill="none" stroke="#191970" d="M255.3136,-85.0536C275.6755,-96.0909 305.1859,-110.2763 333,-117 400.3126,-133.272 479.736,-135.1042 534.9424,-133.737"/>
<polygon fill="#191970" stroke="#191970" points="535.0659,-137.235 544.9605,-133.4472 534.8634,-130.2379 535.0659,-137.235"/>
</g>
<!-- Node953 -->
<g id="node8" class="node">
<title>Node953</title>
<g id="a_node8"><a xlink:href="classCARLsim_1_1Impl.html#ae136e178382096490a2d34f78cd2afa2" target="_top" xlink:title="CARLsim::Impl::isPoisson\lGroup">
<polygon fill="#ffffff" stroke="#000000" points="344.5,-77 344.5,-107 477.5,-107 477.5,-77 344.5,-77"/>
<text text-anchor="start" x="352.5" y="-95" font-family="Helvetica,sans-Serif" font-size="10.00" fill="#000000">CARLsim::Impl::isPoisson</text>
<text text-anchor="middle" x="411" y="-84" font-family="Helvetica,sans-Serif" font-size="10.00" fill="#000000">Group</text>
</a>
</g>
</g>
<!-- Node947&#45;&gt;Node953 -->
<g id="edge8" class="edge">
<title>Node947&#45;&gt;Node953</title>
<path fill="none" stroke="#191970" d="M297.0839,-78.192C309.1311,-79.6523 321.7621,-81.1833 334.0476,-82.6724"/>
<polygon fill="#191970" stroke="#191970" points="333.9172,-86.1822 344.2658,-83.911 334.7596,-79.233 333.9172,-86.1822"/>
</g>
<!-- Node955 -->
<g id="node10" class="node">
<title>Node955</title>
<g id="a_node10"><a xlink:href="classSNN.html#a9d89d9bf7ced3aa5b19d356bfb4c3687" target="_top" xlink:title="Sets neuron parameters for a group of LIF spiking neurons. ">
<polygon fill="#ffffff" stroke="#000000" points="334,-.5 334,-19.5 488,-19.5 488,-.5 334,-.5"/>
<text text-anchor="middle" x="411" y="-7.5" font-family="Helvetica,sans-Serif" font-size="10.00" fill="#000000">SNN::setNeuronParametersLIF</text>
</a>
</g>
</g>
<!-- Node947&#45;&gt;Node955 -->
<g id="edge12" class="edge">
<title>Node947&#45;&gt;Node955</title>
<path fill="none" stroke="#191970" d="M264.0387,-54.9291C283.9548,-46.5909 309.6099,-36.4423 333,-29 340.7427,-26.5364 349.0039,-24.2095 357.146,-22.0849"/>
<polygon fill="#191970" stroke="#191970" points="358.1395,-25.4439 366.9755,-19.598 356.4225,-18.6577 358.1395,-25.4439"/>
</g>
<!-- Node948&#45;&gt;Node949 -->
<g id="edge3" class="edge">
<title>Node948&#45;&gt;Node949</title>
<path fill="none" stroke="#191970" d="M466.4928,-57.6265C474.3855,-60.2856 482.1406,-63.6766 489,-68 510.0858,-81.29 503.8344,-97.8375 525,-111 528.4305,-113.1334 532.084,-115.0272 535.8662,-116.7084"/>
<polygon fill="#191970" stroke="#191970" points="534.8905,-120.0849 545.4785,-120.4648 537.4384,-113.565 534.8905,-120.0849"/>
</g>
<!-- Node950 -->
<g id="node5" class="node">
<title>Node950</title>
<g id="a_node5"><a xlink:href="classCARLsim_1_1Impl.html#a292bdee57fec7c77ec4c15ea3f508d60" target="_top" xlink:title="CARLsim::Impl::getNumGroups">
<polygon fill="#ffffff" stroke="#000000" points="525,-44.5 525,-63.5 681,-63.5 681,-44.5 525,-44.5"/>
<text text-anchor="middle" x="603" y="-51.5" font-family="Helvetica,sans-Serif" font-size="10.00" fill="#000000">CARLsim::Impl::getNumGroups</text>
</a>
</g>
</g>
<!-- Node948&#45;&gt;Node950 -->
<g id="edge4" class="edge">
<title>Node948&#45;&gt;Node950</title>
<path fill="none" stroke="#191970" d="M489.0938,-50.4404C497.6006,-50.7063 506.3019,-50.9782 514.9175,-51.2474"/>
<polygon fill="#191970" stroke="#191970" points="514.871,-54.7476 524.9755,-51.5617 515.0897,-47.751 514.871,-54.7476"/>
</g>
<!-- Node952 -->
<g id="node7" class="node">
<title>Node952</title>
<g id="a_node7"><a xlink:href="classSNN.html#ab0367f8ebd4019bf7d34ebddb1563fe7" target="_top" xlink:title="SNN::getGroupName">
<polygon fill="#ffffff" stroke="#000000" points="548,-6.5 548,-25.5 658,-25.5 658,-6.5 548,-6.5"/>
<text text-anchor="middle" x="603" y="-13.5" font-family="Helvetica,sans-Serif" font-size="10.00" fill="#000000">SNN::getGroupName</text>
</a>
</g>
</g>
<!-- Node948&#45;&gt;Node952 -->
<g id="edge6" class="edge">
<title>Node948&#45;&gt;Node952</title>
<path fill="none" stroke="#191970" d="M468.0865,-38.4856C490.0407,-34.8265 515.2634,-30.6228 537.9152,-26.8475"/>
<polygon fill="#191970" stroke="#191970" points="538.495,-30.2992 547.7836,-25.2027 537.3442,-23.3944 538.495,-30.2992"/>
</g>
<!-- Node951 -->
<g id="node6" class="node">
<title>Node951</title>
<g id="a_node6"><a xlink:href="classSNN.html#a292bdee57fec7c77ec4c15ea3f508d60" target="_top" xlink:title="SNN::getNumGroups">
<polygon fill="#ffffff" stroke="#000000" points="717,-44.5 717,-63.5 827,-63.5 827,-44.5 717,-44.5"/>
<text text-anchor="middle" x="772" y="-51.5" font-family="Helvetica,sans-Serif" font-size="10.00" fill="#000000">SNN::getNumGroups</text>
</a>
</g>
</g>
<!-- Node950&#45;&gt;Node951 -->
<g id="edge5" class="edge">
<title>Node950&#45;&gt;Node951</title>
<path fill="none" stroke="#191970" d="M681.069,-54C689.6771,-54 698.3747,-54 706.8018,-54"/>
<polygon fill="#191970" stroke="#191970" points="706.9225,-57.5001 716.9225,-54 706.9225,-50.5001 706.9225,-57.5001"/>
</g>
<!-- Node953&#45;&gt;Node949 -->
<g id="edge9" class="edge">
<title>Node953&#45;&gt;Node949</title>
<path fill="none" stroke="#191970" d="M477.6134,-105.1839C499.5862,-109.5327 523.832,-114.3313 545.0999,-118.5406"/>
<polygon fill="#191970" stroke="#191970" points="544.4703,-121.9838 554.9596,-120.492 545.8294,-115.117 544.4703,-121.9838"/>
</g>
<!-- Node953&#45;&gt;Node950 -->
<g id="edge10" class="edge">
<title>Node953&#45;&gt;Node950</title>
<path fill="none" stroke="#191970" d="M477.6134,-78.8161C499.5862,-74.4673 523.832,-69.6687 545.0999,-65.4594"/>
<polygon fill="#191970" stroke="#191970" points="545.8294,-68.883 554.9596,-63.508 544.4703,-62.0162 545.8294,-68.883"/>
</g>
<!-- Node954 -->
<g id="node9" class="node">
<title>Node954</title>
<g id="a_node9"><a xlink:href="classSNN.html#a3764348d44236ad4932627cd4d199c31" target="_top" xlink:title="SNN::isPoissonGroup">
<polygon fill="#ffffff" stroke="#000000" points="546.5,-82.5 546.5,-101.5 659.5,-101.5 659.5,-82.5 546.5,-82.5"/>
<text text-anchor="middle" x="603" y="-89.5" font-family="Helvetica,sans-Serif" font-size="10.00" fill="#000000">SNN::isPoissonGroup</text>
</a>
</g>
</g>
<!-- Node953&#45;&gt;Node954 -->
<g id="edge11" class="edge">
<title>Node953&#45;&gt;Node954</title>
<path fill="none" stroke="#191970" d="M477.6134,-92C496.6179,-92 517.3227,-92 536.3304,-92"/>
<polygon fill="#191970" stroke="#191970" points="536.3947,-95.5001 546.3947,-92 536.3947,-88.5001 536.3947,-95.5001"/>
</g>
</g>
</svg>
        <g id="navigator" transform="translate(0 0)" fill="#404254">
                <rect fill="#f2f5e9" fill-opacity="0.5" stroke="#606060" stroke-width=".5" x="0" y="0" width="60" height="60"/>
                <use id="zoomplus" xlink:href="#zoomPlus" x="17" y="9" onmousedown="handleZoom(evt,'in')"/>
                <use id="zoomminus" xlink:href="#zoomMin" x="42" y="9" onmousedown="handleZoom(evt,'out')"/>
                <use id="reset" xlink:href="#resetDef" x="30" y="36" onmousedown="handleReset()"/>
                <g id="arrowUp" xlink:href="#dirArrow" transform="translate(30 24)" onmousedown="handlePan(0,-1)">
                  <use xlink:href="#rim" fill="#404040">
                        <set attributeName="fill" to="#808080" begin="arrowUp.mouseover" end="arrowUp.mouseout"/>
                  </use>
                  <path fill="none" stroke="white" stroke-width="1.5" d="M0,-3.0v7 M-2.5,-0.5L0,-3.0L2.5,-0.5"/>
                </g>
                <g id="arrowRight" xlink:href="#dirArrow" transform="rotate(90) translate(36 -43)" onmousedown="handlePan(1,0)">
                  <use xlink:href="#rim" fill="#404040">
                        <set attributeName="fill" to="#808080" begin="arrowRight.mouseover" end="arrowRight.mouseout"/>
                  </use>
                  <path fill="none" stroke="white" stroke-width="1.5" d="M0,-3.0v7 M-2.5,-0.5L0,-3.0L2.5,-0.5"/>
                </g>
                <g id="arrowDown" xlink:href="#dirArrow" transform="rotate(180) translate(-30 -48)" onmousedown="handlePan(0,1)">
                  <use xlink:href="#rim" fill="#404040">
                        <set attributeName="fill" to="#808080" begin="arrowDown.mouseover" end="arrowDown.mouseout"/>
                  </use>
                  <path fill="none" stroke="white" stroke-width="1.5" d="M0,-3.0v7 M-2.5,-0.5L0,-3.0L2.5,-0.5"/>
                </g>
                <g id="arrowLeft" xlink:href="#dirArrow" transform="rotate(270) translate(-36 17)" onmousedown="handlePan(-1,0)">
                  <use xlink:href="#rim" fill="#404040">
                        <set attributeName="fill" to="#808080" begin="arrowLeft.mouseover" end="arrowLeft.mouseout"/>
                  </use>
                  <path fill="none" stroke="white" stroke-width="1.5" d="M0,-3.0v7 M-2.5,-0.5L0,-3.0L2.5,-0.5"/>
                </g>
        </g>
        <svg viewBox="0 0 15 15" width="100%" height="30px" preserveAspectRatio="xMaxYMin meet">
         <g id="arrow_out" transform="scale(0.3 0.3)">
          <a xlink:href="classCARLsim_ae8becfdd05912ef1406493f7f28074b8_cgraph_org.svg" target="_base">
           <rect id="button" ry="5" rx="5" y="6" x="6" height="38" width="38"
                fill="#f2f5e9" fill-opacity="0.5" stroke="#606060" stroke-width="1.0"/>
           <path id="arrow"
             d="M 11.500037,31.436501 C 11.940474,20.09759 22.043105,11.32322 32.158766,21.979434 L 37.068811,17.246167 C 37.068811,17.246167 37.088388,32 37.088388,32 L 22.160133,31.978069 C 22.160133,31.978069 26.997745,27.140456 26.997745,27.140456 C 18.528582,18.264221 13.291696,25.230495 11.500037,31.436501 z"
             style="fill:#404040;"/>
          </a>
         </g>
        </svg>
</svg>
