<?xml version="1.0" encoding="UTF-8" standalone="no"?>
<!DOCTYPE svg PUBLIC "-//W3C//DTD SVG 1.1//EN"
 "http://www.w3.org/Graphics/SVG/1.1/DTD/svg11.dtd">
<!-- Generated by graphviz version 2.40.1 (20161225.0304)
 -->
<!-- Title: setNeuronMonitor Pages: 1 -->
<!--zoomable 483 -->
<svg id="main" version="1.1" xmlns="http://www.w3.org/2000/svg" xmlns:xlink="http://www.w3.org/1999/xlink" xml:space="preserve" onload="init(evt)">
<style type="text/css"><![CDATA[
.edge:hover path { stroke: red; }
.edge:hover polygon { stroke: red; fill: red; }
]]></style>
<script type="text/javascript"><![CDATA[
var edges = document.getElementsByTagName('g');
if (edges && edges.length) {
  for (var i=0;i<edges.length;i++) {
    if (edges[i].id.substr(0,4)=='edge') {
      edges[i].setAttribute('class','edge');
    }
  }
}
]]></script>
        <defs>
                <circle id="rim" cx="0" cy="0" r="7"/>
                <circle id="rim2" cx="0" cy="0" r="3.5"/>
                <g id="zoomPlus">
                        <use xlink:href="#rim" fill="#404040">
                                <set attributeName="fill" to="#808080" begin="zoomplus.mouseover" end="zoomplus.mouseout"/>
                        </use>
                        <path d="M-4,0h8M0,-4v8" fill="none" stroke="white" stroke-width="1.5" pointer-events="none"/>
                </g>
                <g id="zoomMin">
                        <use xlink:href="#rim" fill="#404040">
                                <set attributeName="fill" to="#808080" begin="zoomminus.mouseover" end="zoomminus.mouseout"/>
                        </use>
                        <path d="M-4,0h8" fill="none" stroke="white" stroke-width="1.5" pointer-events="none"/>
                </g>
                <g id="dirArrow">
                        <path fill="none" stroke="white" stroke-width="1.5" d="M0,-3.0v7 M-2.5,-0.5L0,-3.0L2.5,-0.5"/>
                </g>
               <g id="resetDef">
                       <use xlink:href="#rim2" fill="#404040">
                               <set attributeName="fill" to="#808080" begin="reset.mouseover" end="reset.mouseout"/>
                       </use>
               </g>
        </defs>

<script type="text/javascript">
var viewWidth = 1122;
var viewHeight = 483;
var sectionId = 'dynsection-123';
</script>
<script xlink:href="svgpan.js"/>
<svg id="graph" class="graph">
<g id="viewport">
<title>setNeuronMonitor</title>
<polygon fill="#ffffff" stroke="transparent" points="-4,4 -4,-479 1118,-479 1118,4 -4,4"/>
<!-- Node1821 -->
<g id="node1" class="node">
<title>Node1821</title>
<polygon fill="#bfbfbf" stroke="#000000" points="0,-398.5 0,-417.5 94,-417.5 94,-398.5 0,-398.5"/>
<text text-anchor="middle" x="47" y="-405.5" font-family="Helvetica,sans-Serif" font-size="10.00" fill="#000000">setNeuronMonitor</text>
</g>
<!-- Node1822 -->
<g id="node2" class="node">
<title>Node1822</title>
<g id="a_node2"><a xlink:href="classSNN.html#a11e19a0ccbeca92ba843a5933b3321e0" target="_top" xlink:title="getGroupNumNeurons">
<polygon fill="#ffffff" stroke="#000000" points="130,-455.5 130,-474.5 244,-474.5 244,-455.5 130,-455.5"/>
<text text-anchor="middle" x="187" y="-462.5" font-family="Helvetica,sans-Serif" font-size="10.00" fill="#000000">getGroupNumNeurons</text>
</a>
</g>
</g>
<!-- Node1821&#45;&gt;Node1822 -->
<g id="edge1" class="edge">
<title>Node1821&#45;&gt;Node1822</title>
<path fill="none" stroke="#191970" d="M70.4329,-417.5405C93.3485,-426.8705 128.4496,-441.1616 154.1472,-451.6242"/>
<polygon fill="#191970" stroke="#191970" points="152.9091,-454.8991 163.4907,-455.4284 155.5487,-448.4158 152.9091,-454.8991"/>
</g>
<!-- Node1823 -->
<g id="node3" class="node">
<title>Node1823</title>
<g id="a_node3"><a xlink:href="classSNN.html#a0eb87addfa5eebdfee4bd6b927b8945f" target="_top" xlink:title="Returns pointer to existing NeuronMonitor object, NULL else. ">
<polygon fill="#ffffff" stroke="#000000" points="866,-417.5 866,-436.5 960,-436.5 960,-417.5 866,-417.5"/>
<text text-anchor="middle" x="913" y="-424.5" font-family="Helvetica,sans-Serif" font-size="10.00" fill="#000000">getNeuronMonitor</text>
</a>
</g>
</g>
<!-- Node1821&#45;&gt;Node1823 -->
<g id="edge2" class="edge">
<title>Node1821&#45;&gt;Node1823</title>
<path fill="none" stroke="#191970" d="M94.0846,-413.0418C150.8023,-418.6706 249.0062,-427 333.5,-427 333.5,-427 333.5,-427 621,-427 702.5384,-427 796.8842,-427 855.7565,-427"/>
<polygon fill="#191970" stroke="#191970" points="855.9667,-430.5001 865.9667,-427 855.9667,-423.5001 855.9667,-430.5001"/>
</g>
<!-- Node1825 -->
<g id="node5" class="node">
<title>Node1825</title>
<g id="a_node5"><a xlink:href="classSNN.html#a9aa73fa9478383c4af1eed8387d82db9" target="_top" xlink:title="getNeuronMonitorCore">
<polygon fill="#ffffff" stroke="#000000" points="855.5,-379.5 855.5,-398.5 970.5,-398.5 970.5,-379.5 855.5,-379.5"/>
<text text-anchor="middle" x="913" y="-386.5" font-family="Helvetica,sans-Serif" font-size="10.00" fill="#000000">getNeuronMonitorCore</text>
</a>
</g>
</g>
<!-- Node1821&#45;&gt;Node1825 -->
<g id="edge4" class="edge">
<title>Node1821&#45;&gt;Node1825</title>
<path fill="none" stroke="#191970" d="M94.0846,-402.9582C150.8023,-397.3294 249.0062,-389 333.5,-389 333.5,-389 333.5,-389 621,-389 697.756,-389 785.8613,-389 845.0414,-389"/>
<polygon fill="#191970" stroke="#191970" points="845.3796,-392.5001 855.3796,-389 845.3796,-385.5001 845.3796,-392.5001"/>
</g>
<!-- Node1826 -->
<g id="node6" class="node">
<title>Node1826</title>
<g id="a_node6"><a xlink:href="classNeuronMonitorCore.html#a5113f6b476e3e3544ecbffefa313234d" target="_top" xlink:title="sets pointer to Neuron file ">
<polygon fill="#ffffff" stroke="#000000" points="133.5,-152 133.5,-182 240.5,-182 240.5,-152 133.5,-152"/>
<text text-anchor="start" x="141.5" y="-170" font-family="Helvetica,sans-Serif" font-size="10.00" fill="#000000">NeuronMonitorCore::</text>
<text text-anchor="middle" x="187" y="-159" font-family="Helvetica,sans-Serif" font-size="10.00" fill="#000000">setNeuronFileId</text>
</a>
</g>
</g>
<!-- Node1821&#45;&gt;Node1826 -->
<g id="edge6" class="edge">
<title>Node1821&#45;&gt;Node1826</title>
<path fill="none" stroke="#191970" d="M52.6616,-398.254C73.0326,-363.1868 142.9794,-242.7784 173.0628,-190.992"/>
<polygon fill="#191970" stroke="#191970" points="176.1984,-192.5619 178.1951,-182.1569 170.1456,-189.0457 176.1984,-192.5619"/>
</g>
<!-- Node1824 -->
<g id="node4" class="node">
<title>Node1824</title>
<g id="a_node4"><a xlink:href="classSNN.html#a292bdee57fec7c77ec4c15ea3f508d60" target="_top" xlink:title="getNumGroups">
<polygon fill="#ffffff" stroke="#000000" points="1019,-360.5 1019,-379.5 1102,-379.5 1102,-360.5 1019,-360.5"/>
<text text-anchor="middle" x="1060.5" y="-367.5" font-family="Helvetica,sans-Serif" font-size="10.00" fill="#000000">getNumGroups</text>
</a>
</g>
</g>
<!-- Node1823&#45;&gt;Node1824 -->
<g id="edge3" class="edge">
<title>Node1823&#45;&gt;Node1824</title>
<path fill="none" stroke="#191970" d="M943.8723,-417.4249C952.6885,-414.5454 962.2701,-411.2764 971,-408 990.8171,-400.5624 1012.6931,-391.2942 1029.8568,-383.773"/>
<polygon fill="#191970" stroke="#191970" points="1031.6328,-386.8149 1039.3668,-379.5735 1028.8051,-380.4114 1031.6328,-386.8149"/>
</g>
<!-- Node1825&#45;&gt;Node1824 -->
<g id="edge5" class="edge">
<title>Node1825&#45;&gt;Node1824</title>
<path fill="none" stroke="#191970" d="M970.8726,-381.5452C983.3572,-379.937 996.4791,-378.2468 1008.7137,-376.6708"/>
<polygon fill="#191970" stroke="#191970" points="1009.2776,-380.1271 1018.7485,-375.3782 1008.3833,-373.1845 1009.2776,-380.1271"/>
</g>
<!-- Node1827 -->
<g id="node7" class="node">
<title>Node1827</title>
<g id="a_node7"><a xlink:href="classNeuronMonitorCore.html#a3a3ffdb35b09328d22e5d72503ed1f55" target="_top" xlink:title="returns recording status ">
<polygon fill="#ffffff" stroke="#000000" points="280,-152 280,-182 387,-182 387,-152 280,-152"/>
<text text-anchor="start" x="288" y="-170" font-family="Helvetica,sans-Serif" font-size="10.00" fill="#000000">NeuronMonitorCore::</text>
<text text-anchor="middle" x="333.5" y="-159" font-family="Helvetica,sans-Serif" font-size="10.00" fill="#000000">isRecording</text>
</a>
</g>
</g>
<!-- Node1826&#45;&gt;Node1827 -->
<g id="edge7" class="edge">
<title>Node1826&#45;&gt;Node1827</title>
<path fill="none" stroke="#191970" d="M240.7193,-160.4679C250.0747,-160.2545 259.8887,-160.1978 269.4876,-160.2979"/>
<polygon fill="#191970" stroke="#191970" points="269.7307,-163.8023 279.7872,-160.4681 269.8464,-156.8033 269.7307,-163.8023"/>
</g>
<!-- Node1842 -->
<g id="node22" class="node">
<title>Node1842</title>
<g id="a_node22"><a xlink:href="classNeuronMonitorCore.html#a4d3c2252230fe74bf03bcc3045ff8972" target="_top" xlink:title="NeuronMonitorCore::\lwriteNeuronFileHeader">
<polygon fill="#ffffff" stroke="#000000" points="855,-7 855,-37 971,-37 971,-7 855,-7"/>
<text text-anchor="start" x="863" y="-25" font-family="Helvetica,sans-Serif" font-size="10.00" fill="#000000">NeuronMonitorCore::</text>
<text text-anchor="middle" x="913" y="-14" font-family="Helvetica,sans-Serif" font-size="10.00" fill="#000000">writeNeuronFileHeader</text>
</a>
</g>
</g>
<!-- Node1826&#45;&gt;Node1842 -->
<g id="edge46" class="edge">
<title>Node1826&#45;&gt;Node1842</title>
<path fill="none" stroke="#191970" d="M200.7068,-151.8853C239.5704,-110.7768 355.5214,0 476.5,0 476.5,0 476.5,0 621,0 697.8927,0 785.8539,-7.6795 844.9638,-13.9641"/>
<polygon fill="#191970" stroke="#191970" points="844.6073,-17.4459 854.9251,-15.0391 845.3584,-10.4863 844.6073,-17.4459"/>
</g>
<!-- Node1827&#45;&gt;Node1826 -->
<g id="edge45" class="edge">
<title>Node1827&#45;&gt;Node1826</title>
<path fill="none" stroke="#191970" d="M279.7872,-173.5319C270.432,-173.7454 260.6181,-173.8022 251.019,-173.7021"/>
<polygon fill="#191970" stroke="#191970" points="250.7758,-170.1977 240.7193,-173.5321 250.6601,-177.1968 250.7758,-170.1977"/>
</g>
<!-- Node1828 -->
<g id="node8" class="node">
<title>Node1828</title>
<g id="a_node8"><a xlink:href="classNeuronMonitorCore.html#a743a4ad47ef60bc593cc9882bd4ffb57" target="_top" xlink:title="inserts a (time,neurId) tupel into the D Neuron State vector ">
<polygon fill="#ffffff" stroke="#000000" points="712,-68 712,-98 819,-98 819,-68 712,-68"/>
<text text-anchor="start" x="720" y="-86" font-family="Helvetica,sans-Serif" font-size="10.00" fill="#000000">NeuronMonitorCore::</text>
<text text-anchor="middle" x="765.5" y="-75" font-family="Helvetica,sans-Serif" font-size="10.00" fill="#000000">pushNeuronState</text>
</a>
</g>
</g>
<!-- Node1827&#45;&gt;Node1828 -->
<g id="edge8" class="edge">
<title>Node1827&#45;&gt;Node1828</title>
<path fill="none" stroke="#191970" d="M361.6361,-151.9528C379.2245,-146.2583 402.3752,-140.5514 423,-136 519.5388,-114.6962 632.5678,-95.3003 701.5829,-86.4233"/>
<polygon fill="#191970" stroke="#191970" points="702.3661,-89.8528 711.8553,-85.1406 701.4987,-82.9067 702.3661,-89.8528"/>
</g>
<!-- Node1829 -->
<g id="node9" class="node">
<title>Node1829</title>
<g id="a_node9"><a xlink:href="classNeuronMonitorCore.html#ab91616c118b701c2afd9136393d1f19b" target="_top" xlink:title="starts recording Neuron state ">
<polygon fill="#ffffff" stroke="#000000" points="423,-179 423,-209 530,-209 530,-179 423,-179"/>
<text text-anchor="start" x="431" y="-197" font-family="Helvetica,sans-Serif" font-size="10.00" fill="#000000">NeuronMonitorCore::</text>
<text text-anchor="middle" x="476.5" y="-186" font-family="Helvetica,sans-Serif" font-size="10.00" fill="#000000">startRecording</text>
</a>
</g>
</g>
<!-- Node1827&#45;&gt;Node1829 -->
<g id="edge10" class="edge">
<title>Node1827&#45;&gt;Node1829</title>
<path fill="none" stroke="#191970" d="M387.1548,-170.5711C398.0766,-172.3956 409.592,-174.5546 420.59,-176.8383"/>
<polygon fill="#191970" stroke="#191970" points="420.0016,-180.2915 430.513,-178.9646 421.4683,-173.4469 420.0016,-180.2915"/>
</g>
<!-- Node1830 -->
<g id="node10" class="node">
<title>Node1830</title>
<g id="a_node10"><a xlink:href="classNeuronMonitorCore.html#ac8bb3912a3ce86b15842e79d0b421204" target="_top" xlink:title="deletes data from the neuron state vector ">
<polygon fill="#ffffff" stroke="#000000" points="567.5,-126 567.5,-156 674.5,-156 674.5,-126 567.5,-126"/>
<text text-anchor="start" x="575.5" y="-144" font-family="Helvetica,sans-Serif" font-size="10.00" fill="#000000">NeuronMonitorCore::</text>
<text text-anchor="middle" x="621" y="-133" font-family="Helvetica,sans-Serif" font-size="10.00" fill="#000000">clear</text>
</a>
</g>
</g>
<!-- Node1827&#45;&gt;Node1830 -->
<g id="edge44" class="edge">
<title>Node1827&#45;&gt;Node1830</title>
<path fill="none" stroke="#191970" d="M387.2393,-156.7404C435.2871,-150.7133 505.7843,-144.2272 556.7869,-141.0754"/>
<polygon fill="#191970" stroke="#191970" points="557.2596,-144.5537 567.0368,-140.4726 556.8486,-137.5658 557.2596,-144.5537"/>
</g>
<!-- Node1846 -->
<g id="node26" class="node">
<title>Node1846</title>
<g id="a_node26"><a xlink:href="classNeuronMonitorCore.html#a25e0e98dd4519eaaa6b258f0dcb91ac7" target="_top" xlink:title="stops recording Neuron state ">
<polygon fill="#ffffff" stroke="#000000" points="423,-228 423,-258 530,-258 530,-228 423,-228"/>
<text text-anchor="start" x="431" y="-246" font-family="Helvetica,sans-Serif" font-size="10.00" fill="#000000">NeuronMonitorCore::</text>
<text text-anchor="middle" x="476.5" y="-235" font-family="Helvetica,sans-Serif" font-size="10.00" fill="#000000">stopRecording</text>
</a>
</g>
</g>
<!-- Node1827&#45;&gt;Node1846 -->
<g id="edge39" class="edge">
<title>Node1827&#45;&gt;Node1846</title>
<path fill="none" stroke="#191970" d="M371.777,-182.0783C387.4494,-190.6988 405.8917,-201.223 423,-210 431.6471,-214.4362 441.2852,-218.9014 449.9726,-223.2238"/>
<polygon fill="#191970" stroke="#191970" points="448.4428,-226.3729 458.9342,-227.8499 451.6538,-220.1528 448.4428,-226.3729"/>
</g>
<!-- Node1828&#45;&gt;Node1827 -->
<g id="edge9" class="edge">
<title>Node1828&#45;&gt;Node1827</title>
<path fill="none" stroke="#191970" d="M711.8553,-97.6813C644.2158,-111.3139 524.4946,-131.6026 423,-154 414.6896,-155.8339 405.969,-157.8554 397.3674,-159.8267"/>
<polygon fill="#191970" stroke="#191970" points="396.3312,-156.4729 387.3564,-162.1035 397.8836,-163.2986 396.3312,-156.4729"/>
</g>
<!-- Node1829&#45;&gt;Node1827 -->
<g id="edge11" class="edge">
<title>Node1829&#45;&gt;Node1827</title>
<path fill="none" stroke="#191970" d="M422.8309,-190.4265C411.9244,-188.6044 400.4265,-186.4488 389.4434,-184.1687"/>
<polygon fill="#191970" stroke="#191970" points="390.0446,-180.7181 379.5332,-182.0457 388.5782,-187.5628 390.0446,-180.7181"/>
</g>
<!-- Node1829&#45;&gt;Node1830 -->
<g id="edge12" class="edge">
<title>Node1829&#45;&gt;Node1830</title>
<path fill="none" stroke="#191970" d="M517.5214,-178.9541C533.9953,-172.9118 553.1514,-165.8856 570.4714,-159.533"/>
<polygon fill="#191970" stroke="#191970" points="571.6929,-162.813 579.876,-156.0835 569.2824,-156.2411 571.6929,-162.813"/>
</g>
<!-- Node1831 -->
<g id="node11" class="node">
<title>Node1831</title>
<g id="a_node11"><a xlink:href="classSNN.html#a8dd319bdd9a54e38f9254cbec099c30a" target="_top" xlink:title="copy required neuron state values from ??? buffer to ??? buffer ">
<polygon fill="#ffffff" stroke="#000000" points="566,-251.5 566,-270.5 676,-270.5 676,-251.5 566,-251.5"/>
<text text-anchor="middle" x="621" y="-258.5" font-family="Helvetica,sans-Serif" font-size="10.00" fill="#000000">updateNeuronMonitor</text>
</a>
</g>
</g>
<!-- Node1829&#45;&gt;Node1831 -->
<g id="edge14" class="edge">
<title>Node1829&#45;&gt;Node1831</title>
<path fill="none" stroke="#191970" d="M508.9286,-209.0361C533.5015,-220.4298 567.0116,-235.9673 590.9745,-247.0781"/>
<polygon fill="#191970" stroke="#191970" points="589.7425,-250.3648 600.2871,-251.3961 592.6871,-244.0142 589.7425,-250.3648"/>
</g>
<!-- Node1834 -->
<g id="node14" class="node">
<title>Node1834</title>
<g id="a_node14"><a xlink:href="classSNN.html#a424b0cf29d7dba87e4ebf244399acad0" target="_top" xlink:title="getSimTimeMs">
<polygon fill="#ffffff" stroke="#000000" points="724,-341.5 724,-360.5 807,-360.5 807,-341.5 724,-341.5"/>
<text text-anchor="middle" x="765.5" y="-348.5" font-family="Helvetica,sans-Serif" font-size="10.00" fill="#000000">getSimTimeMs</text>
</a>
</g>
</g>
<!-- Node1829&#45;&gt;Node1834 -->
<g id="edge38" class="edge">
<title>Node1829&#45;&gt;Node1834</title>
<path fill="none" stroke="#191970" d="M515.9334,-209.0224C520.9762,-211.8926 525.8261,-215.2088 530,-219 553.3026,-240.1661 541.5427,-260.1795 566,-280 606.0732,-312.4758 627.7194,-298.8472 676,-317 692.2245,-323.1001 695.8273,-325.764 712,-332 717.1731,-333.9947 722.6558,-336.0301 728.0623,-337.992"/>
<polygon fill="#191970" stroke="#191970" points="727.0339,-341.3414 737.6285,-341.4196 729.3951,-334.7516 727.0339,-341.3414"/>
</g>
<!-- Node1837 -->
<g id="node17" class="node">
<title>Node1837</title>
<g id="a_node17"><a xlink:href="classSNN.html#a85facd004ae52ee52e72451b5d874fae" target="_top" xlink:title="getSimTimeSec">
<polygon fill="#ffffff" stroke="#000000" points="722.5,-117.5 722.5,-136.5 808.5,-136.5 808.5,-117.5 722.5,-117.5"/>
<text text-anchor="middle" x="765.5" y="-124.5" font-family="Helvetica,sans-Serif" font-size="10.00" fill="#000000">getSimTimeSec</text>
</a>
</g>
</g>
<!-- Node1829&#45;&gt;Node1837 -->
<g id="edge37" class="edge">
<title>Node1829&#45;&gt;Node1837</title>
<path fill="none" stroke="#191970" d="M530.1254,-191.5033C570.9433,-188.409 628.0759,-181.4853 676,-166 693.2153,-160.4374 695.4931,-154.4049 712,-147 717.2022,-144.6663 722.7666,-142.372 728.2679,-140.217"/>
<polygon fill="#191970" stroke="#191970" points="729.9086,-143.3376 738.0104,-136.5103 727.4194,-136.7952 729.9086,-143.3376"/>
</g>
<!-- Node1830&#45;&gt;Node1827 -->
<g id="edge13" class="edge">
<title>Node1830&#45;&gt;Node1827</title>
<path fill="none" stroke="#191970" d="M567.0368,-151.2877C518.9194,-157.3162 448.4177,-163.7978 397.4758,-166.9393"/>
<polygon fill="#191970" stroke="#191970" points="397.0171,-163.4601 387.2393,-167.5398 397.4271,-170.4481 397.0171,-163.4601"/>
</g>
<!-- Node1831&#45;&gt;Node1827 -->
<g id="edge35" class="edge">
<title>Node1831&#45;&gt;Node1827</title>
<path fill="none" stroke="#191970" d="M588.8164,-270.5194C548.1978,-280.705 477.1081,-292.3481 423,-268 388.1414,-252.3139 361.3617,-215.5972 346.5223,-191.0282"/>
<polygon fill="#191970" stroke="#191970" points="349.4832,-189.1576 341.4276,-182.2759 343.4335,-192.6791 349.4832,-189.1576"/>
</g>
<!-- Node1831&#45;&gt;Node1828 -->
<g id="edge36" class="edge">
<title>Node1831&#45;&gt;Node1828</title>
<path fill="none" stroke="#191970" d="M626.5177,-251.3714C645.2826,-218.6728 705.8136,-113.6 712,-108 713.6983,-106.4627 715.5077,-105.0033 717.3958,-103.6199"/>
<polygon fill="#191970" stroke="#191970" points="719.5612,-106.3887 726.0785,-98.0356 715.7746,-100.5013 719.5612,-106.3887"/>
</g>
<!-- Node1832 -->
<g id="node12" class="node">
<title>Node1832</title>
<g id="a_node12"><a xlink:href="classNeuronMonitorCore.html#a102f8a26e80c556ee9a2ac503cd38ec9" target="_top" xlink:title="returns timestamp of last NeuronMonitor update ">
<polygon fill="#ffffff" stroke="#000000" points="712,-156 712,-186 819,-186 819,-156 712,-156"/>
<text text-anchor="start" x="720" y="-174" font-family="Helvetica,sans-Serif" font-size="10.00" fill="#000000">NeuronMonitorCore::</text>
<text text-anchor="middle" x="765.5" y="-163" font-family="Helvetica,sans-Serif" font-size="10.00" fill="#000000">getLastUpdated</text>
</a>
</g>
</g>
<!-- Node1831&#45;&gt;Node1832 -->
<g id="edge15" class="edge">
<title>Node1831&#45;&gt;Node1832</title>
<path fill="none" stroke="#191970" d="M649.4158,-251.389C658.3732,-247.6478 668.0077,-242.8377 676,-237 695.5823,-222.6968 692.603,-210.5535 712,-196 714.3064,-194.2695 716.7518,-192.6175 719.2778,-191.0476"/>
<polygon fill="#191970" stroke="#191970" points="721.1316,-194.0198 728.0917,-186.0318 717.6693,-187.9359 721.1316,-194.0198"/>
</g>
<!-- Node1833 -->
<g id="node13" class="node">
<title>Node1833</title>
<g id="a_node13"><a xlink:href="classSNN.html#a5fd2b156623d78138bcb44167eabab78" target="_top" xlink:title="getSimTime">
<polygon fill="#ffffff" stroke="#000000" points="731,-303.5 731,-322.5 800,-322.5 800,-303.5 731,-303.5"/>
<text text-anchor="middle" x="765.5" y="-310.5" font-family="Helvetica,sans-Serif" font-size="10.00" fill="#000000">getSimTime</text>
</a>
</g>
</g>
<!-- Node1831&#45;&gt;Node1833 -->
<g id="edge16" class="edge">
<title>Node1831&#45;&gt;Node1833</title>
<path fill="none" stroke="#191970" d="M647.2657,-270.5772C665.4336,-277.1888 690.1718,-286.1662 712,-294 717.5272,-295.9836 723.3794,-298.073 729.1059,-300.1116"/>
<polygon fill="#191970" stroke="#191970" points="727.9504,-303.4153 738.5452,-303.4665 730.2948,-296.8195 727.9504,-303.4153"/>
</g>
<!-- Node1831&#45;&gt;Node1834 -->
<g id="edge17" class="edge">
<title>Node1831&#45;&gt;Node1834</title>
<path fill="none" stroke="#191970" d="M644.7173,-270.5168C654.9102,-275.2323 666.6111,-281.5259 676,-289 695.5002,-304.5234 691.5351,-317.7724 712,-332 714.8376,-333.9727 717.9015,-335.7615 721.0765,-337.3797"/>
<polygon fill="#191970" stroke="#191970" points="719.6675,-340.5837 730.2227,-341.4996 722.5425,-334.2013 719.6675,-340.5837"/>
</g>
<!-- Node1831&#45;&gt;Node1837 -->
<g id="edge24" class="edge">
<title>Node1831&#45;&gt;Node1837</title>
<path fill="none" stroke="#191970" d="M654.1582,-251.4382C662.0834,-247.9137 669.981,-243.2083 676,-237 705.988,-206.0692 681.1922,-177.1145 712,-147 714.0941,-144.9531 716.4169,-143.1122 718.8879,-141.4572"/>
<polygon fill="#191970" stroke="#191970" points="720.7156,-144.4455 727.7429,-136.5165 717.3048,-138.3326 720.7156,-144.4455"/>
</g>
<!-- Node1838 -->
<g id="node18" class="node">
<title>Node1838</title>
<g id="a_node18"><a xlink:href="classNeuronMonitorCore.html#a38f87732cc929797d9648e68cd509f1b" target="_top" xlink:title="sets timestamp of last NeuronMonitor update ">
<polygon fill="#ffffff" stroke="#000000" points="712,-254 712,-284 819,-284 819,-254 712,-254"/>
<text text-anchor="start" x="720" y="-272" font-family="Helvetica,sans-Serif" font-size="10.00" fill="#000000">NeuronMonitorCore::</text>
<text text-anchor="middle" x="765.5" y="-261" font-family="Helvetica,sans-Serif" font-size="10.00" fill="#000000">setLastUpdated</text>
</a>
</g>
</g>
<!-- Node1831&#45;&gt;Node1838 -->
<g id="edge25" class="edge">
<title>Node1831&#45;&gt;Node1838</title>
<path fill="none" stroke="#191970" d="M676.0415,-264.0473C684.32,-264.5056 692.9186,-264.9817 701.3672,-265.4494"/>
<polygon fill="#191970" stroke="#191970" points="701.3885,-268.9558 711.5667,-266.0141 701.7755,-261.9665 701.3885,-268.9558"/>
</g>
<!-- Node1845 -->
<g id="node25" class="node">
<title>Node1845</title>
<g id="a_node25"><a xlink:href="classNeuronMonitorCore.html#a84e392c48ef98bece7aa0dc7af992360" target="_top" xlink:title="returns a pointer to the neuron state file ">
<polygon fill="#ffffff" stroke="#000000" points="712,-205 712,-235 819,-235 819,-205 712,-205"/>
<text text-anchor="start" x="720" y="-223" font-family="Helvetica,sans-Serif" font-size="10.00" fill="#000000">NeuronMonitorCore::</text>
<text text-anchor="middle" x="765.5" y="-212" font-family="Helvetica,sans-Serif" font-size="10.00" fill="#000000">getNeuronFileId</text>
</a>
</g>
</g>
<!-- Node1831&#45;&gt;Node1845 -->
<g id="edge34" class="edge">
<title>Node1831&#45;&gt;Node1845</title>
<path fill="none" stroke="#191970" d="M654.5144,-251.4907C668.8714,-247.4171 686.1257,-242.5214 702.7043,-237.8175"/>
<polygon fill="#191970" stroke="#191970" points="703.6955,-241.1745 712.3604,-235.0777 701.7847,-234.4403 703.6955,-241.1745"/>
</g>
<!-- Node1834&#45;&gt;Node1823 -->
<g id="edge22" class="edge">
<title>Node1834&#45;&gt;Node1823</title>
<path fill="none" stroke="#191970" d="M778.2467,-360.5794C795.0906,-372.887 826.0242,-394.2939 855,-408 859.6111,-410.1811 864.539,-412.2139 869.5015,-414.0768"/>
<polygon fill="#191970" stroke="#191970" points="868.4183,-417.4061 879.0131,-417.4446 870.7547,-410.8076 868.4183,-417.4061"/>
</g>
<!-- Node1834&#45;&gt;Node1825 -->
<g id="edge23" class="edge">
<title>Node1834&#45;&gt;Node1825</title>
<path fill="none" stroke="#191970" d="M802.7205,-360.589C822.0093,-365.5583 845.7584,-371.6767 866.271,-376.9613"/>
<polygon fill="#191970" stroke="#191970" points="865.4902,-380.3744 876.0472,-379.4799 867.2366,-373.5957 865.4902,-380.3744"/>
</g>
<!-- Node1835 -->
<g id="node15" class="node">
<title>Node1835</title>
<g id="a_node15"><a xlink:href="classSNN.html#a866a9c6e2b2630816fc66adda1381655" target="_top" xlink:title="Returns pointer to existing SpikeMonitor object, NULL else. ">
<polygon fill="#ffffff" stroke="#000000" points="869.5,-341.5 869.5,-360.5 956.5,-360.5 956.5,-341.5 869.5,-341.5"/>
<text text-anchor="middle" x="913" y="-348.5" font-family="Helvetica,sans-Serif" font-size="10.00" fill="#000000">getSpikeMonitor</text>
</a>
</g>
</g>
<!-- Node1834&#45;&gt;Node1835 -->
<g id="edge18" class="edge">
<title>Node1834&#45;&gt;Node1835</title>
<path fill="none" stroke="#191970" d="M807.373,-351C823.4544,-351 842.0396,-351 859.0951,-351"/>
<polygon fill="#191970" stroke="#191970" points="859.4808,-354.5001 869.4807,-351 859.4807,-347.5001 859.4808,-354.5001"/>
</g>
<!-- Node1836 -->
<g id="node16" class="node">
<title>Node1836</title>
<g id="a_node16"><a xlink:href="classSNN.html#ad25000cd1457c9b9869122534ada6fdd" target="_top" xlink:title="getSpikeMonitorCore">
<polygon fill="#ffffff" stroke="#000000" points="859,-303.5 859,-322.5 967,-322.5 967,-303.5 859,-303.5"/>
<text text-anchor="middle" x="913" y="-310.5" font-family="Helvetica,sans-Serif" font-size="10.00" fill="#000000">getSpikeMonitorCore</text>
</a>
</g>
</g>
<!-- Node1834&#45;&gt;Node1836 -->
<g id="edge20" class="edge">
<title>Node1834&#45;&gt;Node1836</title>
<path fill="none" stroke="#191970" d="M802.7205,-341.411C822.0093,-336.4417 845.7584,-330.3233 866.271,-325.0387"/>
<polygon fill="#191970" stroke="#191970" points="867.2366,-328.4043 876.0472,-322.5201 865.4902,-321.6256 867.2366,-328.4043"/>
</g>
<!-- Node1835&#45;&gt;Node1824 -->
<g id="edge19" class="edge">
<title>Node1835&#45;&gt;Node1824</title>
<path fill="none" stroke="#191970" d="M956.8555,-356.6492C973.1004,-358.7417 991.6747,-361.1344 1008.57,-363.3107"/>
<polygon fill="#191970" stroke="#191970" points="1008.4717,-366.8269 1018.8369,-364.6332 1009.3661,-359.8842 1008.4717,-366.8269"/>
</g>
<!-- Node1836&#45;&gt;Node1824 -->
<g id="edge21" class="edge">
<title>Node1836&#45;&gt;Node1824</title>
<path fill="none" stroke="#191970" d="M943.8723,-322.5751C952.6885,-325.4546 962.2701,-328.7236 971,-332 990.8171,-339.4376 1012.6931,-348.7058 1029.8568,-356.227"/>
<polygon fill="#191970" stroke="#191970" points="1028.8051,-359.5886 1039.3668,-360.4265 1031.6328,-353.1851 1028.8051,-359.5886"/>
</g>
<!-- Node1839 -->
<g id="node19" class="node">
<title>Node1839</title>
<g id="a_node19"><a xlink:href="classNeuronMonitorCore.html#aaeb6a64ac5d9fd3b7a979f0f12ec87dc" target="_top" xlink:title="returns true if state buffers are close to maxAllowedBufferSize ">
<polygon fill="#ffffff" stroke="#000000" points="859.5,-216 859.5,-246 966.5,-246 966.5,-216 859.5,-216"/>
<text text-anchor="start" x="867.5" y="-234" font-family="Helvetica,sans-Serif" font-size="10.00" fill="#000000">NeuronMonitorCore::</text>
<text text-anchor="middle" x="913" y="-223" font-family="Helvetica,sans-Serif" font-size="10.00" fill="#000000">isBufferBig</text>
</a>
</g>
</g>
<!-- Node1838&#45;&gt;Node1839 -->
<g id="edge26" class="edge">
<title>Node1838&#45;&gt;Node1839</title>
<path fill="none" stroke="#191970" d="M819.1681,-255.1736C828.9291,-252.6589 839.1981,-250.0134 849.2171,-247.4322"/>
<polygon fill="#191970" stroke="#191970" points="850.314,-250.764 859.1246,-244.8798 848.5676,-243.9853 850.314,-250.764"/>
</g>
<!-- Node1840 -->
<g id="node20" class="node">
<title>Node1840</title>
<g id="a_node20"><a xlink:href="classNeuronMonitorCore.html#a30f19d45f562061cc82c04e7289ba956" target="_top" xlink:title="returns the approximate size of the state vectors in bytes ">
<polygon fill="#ffffff" stroke="#000000" points="1007,-238 1007,-268 1114,-268 1114,-238 1007,-238"/>
<text text-anchor="start" x="1015" y="-256" font-family="Helvetica,sans-Serif" font-size="10.00" fill="#000000">NeuronMonitorCore::</text>
<text text-anchor="middle" x="1060.5" y="-245" font-family="Helvetica,sans-Serif" font-size="10.00" fill="#000000">getBufferSize</text>
</a>
</g>
</g>
<!-- Node1838&#45;&gt;Node1840 -->
<g id="edge28" class="edge">
<title>Node1838&#45;&gt;Node1840</title>
<path fill="none" stroke="#191970" d="M819.2645,-266.084C869.1208,-263.3799 943.3734,-259.3526 996.3161,-256.4812"/>
<polygon fill="#191970" stroke="#191970" points="996.8112,-259.9595 1006.6069,-255.923 996.432,-252.9698 996.8112,-259.9595"/>
</g>
<!-- Node1841 -->
<g id="node21" class="node">
<title>Node1841</title>
<g id="a_node21"><a xlink:href="classNeuronMonitorCore.html#a3a0e4e77a2b83f5dd0e86aafcf227595" target="_top" xlink:title="returns the total accumulated time ">
<polygon fill="#ffffff" stroke="#000000" points="859.5,-167 859.5,-197 966.5,-197 966.5,-167 859.5,-167"/>
<text text-anchor="start" x="867.5" y="-185" font-family="Helvetica,sans-Serif" font-size="10.00" fill="#000000">NeuronMonitorCore::</text>
<text text-anchor="middle" x="913" y="-174" font-family="Helvetica,sans-Serif" font-size="10.00" fill="#000000">getAccumTime</text>
</a>
</g>
</g>
<!-- Node1838&#45;&gt;Node1841 -->
<g id="edge29" class="edge">
<title>Node1838&#45;&gt;Node1841</title>
<path fill="none" stroke="#191970" d="M803.9264,-253.9829C809.1751,-251.3026 814.3505,-248.2987 819,-245 837.9742,-231.5384 835.9273,-220.3216 855,-207 857.6519,-205.1478 860.4627,-203.3904 863.3608,-201.7307"/>
<polygon fill="#191970" stroke="#191970" points="865.0307,-204.807 872.2444,-197.0473 861.7662,-198.6148 865.0307,-204.807"/>
</g>
<!-- Node1838&#45;&gt;Node1842 -->
<g id="edge30" class="edge">
<title>Node1838&#45;&gt;Node1842</title>
<path fill="none" stroke="#191970" d="M809.2113,-253.8312C812.8693,-251.3078 816.2229,-248.3837 819,-245 864.4172,-189.6627 822.3752,-151.7225 855,-88 863.3257,-71.7383 876.5557,-56.2468 888.279,-44.364"/>
<polygon fill="#191970" stroke="#191970" points="890.9985,-46.5999 895.6986,-37.1046 886.103,-41.5964 890.9985,-46.5999"/>
</g>
<!-- Node1844 -->
<g id="node24" class="node">
<title>Node1844</title>
<g id="a_node24"><a xlink:href="classNeuronMonitorCore.html#a388f572c62279f839ee138a9afbdeeb5" target="_top" xlink:title="prints neuron states in human&#45;readable format ">
<polygon fill="#ffffff" stroke="#000000" points="859.5,-97 859.5,-127 966.5,-127 966.5,-97 859.5,-97"/>
<text text-anchor="start" x="867.5" y="-115" font-family="Helvetica,sans-Serif" font-size="10.00" fill="#000000">NeuronMonitorCore::</text>
<text text-anchor="middle" x="913" y="-104" font-family="Helvetica,sans-Serif" font-size="10.00" fill="#000000">print</text>
</a>
</g>
</g>
<!-- Node1838&#45;&gt;Node1844 -->
<g id="edge32" class="edge">
<title>Node1838&#45;&gt;Node1844</title>
<path fill="none" stroke="#191970" d="M807.5873,-253.9933C811.7542,-251.4136 815.6668,-248.4325 819,-245 848.1524,-214.9792 829.7984,-191.4064 855,-158 861.9926,-148.7309 871.2732,-140.275 880.356,-133.2129"/>
<polygon fill="#191970" stroke="#191970" points="882.6129,-135.8969 888.5705,-127.1357 878.4497,-130.2695 882.6129,-135.8969"/>
</g>
<!-- Node1839&#45;&gt;Node1840 -->
<g id="edge27" class="edge">
<title>Node1839&#45;&gt;Node1840</title>
<path fill="none" stroke="#191970" d="M966.6681,-239.0047C976.4291,-240.4606 986.6981,-241.9923 996.7171,-243.4866"/>
<polygon fill="#191970" stroke="#191970" points="996.2177,-246.9508 1006.6246,-244.9644 997.2504,-240.0274 996.2177,-246.9508"/>
</g>
<!-- Node1843 -->
<g id="node23" class="node">
<title>Node1843</title>
<g id="a_node23"><a xlink:href="classSNN.html#ac13b30c40669d3cb8264bd6e211b449d" target="_top" xlink:title="getGroupGrid3D">
<polygon fill="#ffffff" stroke="#000000" points="1017,-12.5 1017,-31.5 1104,-31.5 1104,-12.5 1017,-12.5"/>
<text text-anchor="middle" x="1060.5" y="-19.5" font-family="Helvetica,sans-Serif" font-size="10.00" fill="#000000">getGroupGrid3D</text>
</a>
</g>
</g>
<!-- Node1842&#45;&gt;Node1843 -->
<g id="edge31" class="edge">
<title>Node1842&#45;&gt;Node1843</title>
<path fill="none" stroke="#191970" d="M971.2959,-22C982.8865,-22 995.0102,-22 1006.4514,-22"/>
<polygon fill="#191970" stroke="#191970" points="1006.7318,-25.5001 1016.7317,-22 1006.7317,-18.5001 1006.7318,-25.5001"/>
</g>
<!-- Node1844&#45;&gt;Node1827 -->
<g id="edge33" class="edge">
<title>Node1844&#45;&gt;Node1827</title>
<path fill="none" stroke="#191970" d="M893.4138,-96.9518C875.2542,-84.0167 846.9061,-66.3251 819,-59 773.0027,-46.9261 759.2986,-54.0627 712,-59 581.4349,-72.6292 546.5042,-75.5061 423,-120 403.4957,-127.0267 382.9352,-137.5757 366.4459,-146.9004"/>
<polygon fill="#191970" stroke="#191970" points="364.6497,-143.896 357.7367,-151.9247 368.1476,-149.9594 364.6497,-143.896"/>
</g>
<!-- Node1846&#45;&gt;Node1827 -->
<g id="edge40" class="edge">
<title>Node1846&#45;&gt;Node1827</title>
<path fill="none" stroke="#191970" d="M422.6794,-227.8354C399.4652,-215.908 373.8466,-200.7965 356.047,-188.322"/>
<polygon fill="#191970" stroke="#191970" points="357.6423,-185.1523 347.5058,-182.0698 353.5076,-190.8007 357.6423,-185.1523"/>
</g>
<!-- Node1846&#45;&gt;Node1831 -->
<g id="edge41" class="edge">
<title>Node1846&#45;&gt;Node1831</title>
<path fill="none" stroke="#191970" d="M530.3065,-249.7025C538.5211,-250.7258 547.0767,-251.7916 555.5084,-252.8419"/>
<polygon fill="#191970" stroke="#191970" points="555.3446,-256.3484 565.7006,-254.1115 556.21,-249.4021 555.3446,-256.3484"/>
</g>
<!-- Node1846&#45;&gt;Node1834 -->
<g id="edge43" class="edge">
<title>Node1846&#45;&gt;Node1834</title>
<path fill="none" stroke="#191970" d="M490.0414,-258.2171C506.2874,-275.4267 535.2099,-302.8849 566,-317 613.1095,-338.5964 672.1615,-346.5934 713.755,-349.4928"/>
<polygon fill="#191970" stroke="#191970" points="713.7377,-352.9984 723.9355,-350.1253 714.1718,-346.0119 713.7377,-352.9984"/>
</g>
<!-- Node1846&#45;&gt;Node1837 -->
<g id="edge42" class="edge">
<title>Node1846&#45;&gt;Node1837</title>
<path fill="none" stroke="#191970" d="M530.0312,-237.7389C572.3722,-231.5597 631.5556,-218.2823 676,-190 697.028,-176.6188 691.6532,-161.3959 712,-147 715.2759,-144.6822 718.8529,-142.5975 722.5542,-140.73"/>
<polygon fill="#191970" stroke="#191970" points="724.2224,-143.8176 731.9093,-136.5264 721.3533,-137.4325 724.2224,-143.8176"/>
</g>
</g>
</svg>
        <g id="navigator" transform="translate(0 0)" fill="#404254">
                <rect fill="#f2f5e9" fill-opacity="0.5" stroke="#606060" stroke-width=".5" x="0" y="0" width="60" height="60"/>
                <use id="zoomplus" xlink:href="#zoomPlus" x="17" y="9" onmousedown="handleZoom(evt,'in')"/>
                <use id="zoomminus" xlink:href="#zoomMin" x="42" y="9" onmousedown="handleZoom(evt,'out')"/>
                <use id="reset" xlink:href="#resetDef" x="30" y="36" onmousedown="handleReset()"/>
                <g id="arrowUp" xlink:href="#dirArrow" transform="translate(30 24)" onmousedown="handlePan(0,-1)">
                  <use xlink:href="#rim" fill="#404040">
                        <set attributeName="fill" to="#808080" begin="arrowUp.mouseover" end="arrowUp.mouseout"/>
                  </use>
                  <path fill="none" stroke="white" stroke-width="1.5" d="M0,-3.0v7 M-2.5,-0.5L0,-3.0L2.5,-0.5"/>
                </g>
                <g id="arrowRight" xlink:href="#dirArrow" transform="rotate(90) translate(36 -43)" onmousedown="handlePan(1,0)">
                  <use xlink:href="#rim" fill="#404040">
                        <set attributeName="fill" to="#808080" begin="arrowRight.mouseover" end="arrowRight.mouseout"/>
                  </use>
                  <path fill="none" stroke="white" stroke-width="1.5" d="M0,-3.0v7 M-2.5,-0.5L0,-3.0L2.5,-0.5"/>
                </g>
                <g id="arrowDown" xlink:href="#dirArrow" transform="rotate(180) translate(-30 -48)" onmousedown="handlePan(0,1)">
                  <use xlink:href="#rim" fill="#404040">
                        <set attributeName="fill" to="#808080" begin="arrowDown.mouseover" end="arrowDown.mouseout"/>
                  </use>
                  <path fill="none" stroke="white" stroke-width="1.5" d="M0,-3.0v7 M-2.5,-0.5L0,-3.0L2.5,-0.5"/>
                </g>
                <g id="arrowLeft" xlink:href="#dirArrow" transform="rotate(270) translate(-36 17)" onmousedown="handlePan(-1,0)">
                  <use xlink:href="#rim" fill="#404040">
                        <set attributeName="fill" to="#808080" begin="arrowLeft.mouseover" end="arrowLeft.mouseout"/>
                  </use>
                  <path fill="none" stroke="white" stroke-width="1.5" d="M0,-3.0v7 M-2.5,-0.5L0,-3.0L2.5,-0.5"/>
                </g>
        </g>
        <svg viewBox="0 0 15 15" width="100%" height="30px" preserveAspectRatio="xMaxYMin meet">
         <g id="arrow_out" transform="scale(0.3 0.3)">
          <a xlink:href="classSNN_a4c62ae1b8cff6aedfdf98cb8808d14e1_cgraph_org.svg" target="_base">
           <rect id="button" ry="5" rx="5" y="6" x="6" height="38" width="38"
                fill="#f2f5e9" fill-opacity="0.5" stroke="#606060" stroke-width="1.0"/>
           <path id="arrow"
             d="M 11.500037,31.436501 C 11.940474,20.09759 22.043105,11.32322 32.158766,21.979434 L 37.068811,17.246167 C 37.068811,17.246167 37.088388,32 37.088388,32 L 22.160133,31.978069 C 22.160133,31.978069 26.997745,27.140456 26.997745,27.140456 C 18.528582,18.264221 13.291696,25.230495 11.500037,31.436501 z"
             style="fill:#404040;"/>
          </a>
         </g>
        </svg>
</svg>
