<?xml version="1.0" encoding="UTF-8" standalone="no"?>
<!DOCTYPE svg PUBLIC "-//W3C//DTD SVG 1.1//EN"
 "http://www.w3.org/Graphics/SVG/1.1/DTD/svg11.dtd">
<!-- Generated by graphviz version 2.40.1 (20161225.0304)
 -->
<!-- Title: getTimeMsCurrentSnapshot Pages: 1 -->
<!--zoomable 146 -->
<svg id="main" version="1.1" xmlns="http://www.w3.org/2000/svg" xmlns:xlink="http://www.w3.org/1999/xlink" xml:space="preserve" onload="init(evt)">
<style type="text/css"><![CDATA[
.edge:hover path { stroke: red; }
.edge:hover polygon { stroke: red; fill: red; }
]]></style>
<script type="text/javascript"><![CDATA[
var edges = document.getElementsByTagName('g');
if (edges && edges.length) {
  for (var i=0;i<edges.length;i++) {
    if (edges[i].id.substr(0,4)=='edge') {
      edges[i].setAttribute('class','edge');
    }
  }
}
]]></script>
        <defs>
                <circle id="rim" cx="0" cy="0" r="7"/>
                <circle id="rim2" cx="0" cy="0" r="3.5"/>
                <g id="zoomPlus">
                        <use xlink:href="#rim" fill="#404040">
                                <set attributeName="fill" to="#808080" begin="zoomplus.mouseover" end="zoomplus.mouseout"/>
                        </use>
                        <path d="M-4,0h8M0,-4v8" fill="none" stroke="white" stroke-width="1.5" pointer-events="none"/>
                </g>
                <g id="zoomMin">
                        <use xlink:href="#rim" fill="#404040">
                                <set attributeName="fill" to="#808080" begin="zoomminus.mouseover" end="zoomminus.mouseout"/>
                        </use>
                        <path d="M-4,0h8" fill="none" stroke="white" stroke-width="1.5" pointer-events="none"/>
                </g>
                <g id="dirArrow">
                        <path fill="none" stroke="white" stroke-width="1.5" d="M0,-3.0v7 M-2.5,-0.5L0,-3.0L2.5,-0.5"/>
                </g>
               <g id="resetDef">
                       <use xlink:href="#rim2" fill="#404040">
                               <set attributeName="fill" to="#808080" begin="reset.mouseover" end="reset.mouseout"/>
                       </use>
               </g>
        </defs>

<script type="text/javascript">
var viewWidth = 1429;
var viewHeight = 146;
var sectionId = 'dynsection-20';
</script>
<script xlink:href="svgpan.js"/>
<svg id="graph" class="graph">
<g id="viewport">
<title>getTimeMsCurrentSnapshot</title>
<polygon fill="#ffffff" stroke="transparent" points="-4,4 -4,-142 1425,-142 1425,4 -4,4"/>
<!-- Node160 -->
<g id="node1" class="node">
<title>Node160</title>
<polygon fill="#bfbfbf" stroke="#000000" points="0,-69 0,-88 139,-88 139,-69 0,-69"/>
<text text-anchor="middle" x="69.5" y="-76" font-family="Helvetica,sans-Serif" font-size="10.00" fill="#000000">getTimeMsCurrentSnapshot</text>
</g>
<!-- Node161 -->
<g id="node2" class="node">
<title>Node161</title>
<g id="a_node2"><a xlink:href="classConnectionMonitor.html#a1025cfe9db2e3f4eddc8a93928ec1a99" target="_top" xlink:title="Returns the timestamp of the current snapshot (ms since beginning of simulation) ">
<polygon fill="#ffffff" stroke="#000000" points="175,-107.5 175,-137.5 314,-137.5 314,-107.5 175,-107.5"/>
<text text-anchor="start" x="183" y="-125.5" font-family="Helvetica,sans-Serif" font-size="10.00" fill="#000000">ConnectionMonitor::</text>
<text text-anchor="middle" x="244.5" y="-114.5" font-family="Helvetica,sans-Serif" font-size="10.00" fill="#000000">getTimeMsCurrentSnapshot</text>
</a>
</g>
</g>
<!-- Node160&#45;&gt;Node161 -->
<g id="edge1" class="edge">
<title>Node160&#45;&gt;Node161</title>
<path fill="none" stroke="#191970" d="M117.3313,-90.5261C138.0892,-95.7453 162.6254,-101.9144 184.5809,-107.4346"/>
<polygon fill="#191970" stroke="#191970" points="118.024,-87.0915 107.4724,-88.0473 116.3171,-93.8802 118.024,-87.0915"/>
</g>
<!-- Node162 -->
<g id="node3" class="node">
<title>Node162</title>
<g id="a_node3"><a xlink:href="classConnectionMonitorCore.html#a388f572c62279f839ee138a9afbdeeb5" target="_top" xlink:title="prints current weight state as 2D matrix (non&#45;existent synapses: NAN, existent but zero weigth: 0...">
<polygon fill="#ffffff" stroke="#000000" points="227,-69 227,-88 262,-88 262,-69 227,-69"/>
<text text-anchor="middle" x="244.5" y="-76" font-family="Helvetica,sans-Serif" font-size="10.00" fill="#000000">print</text>
</a>
</g>
</g>
<!-- Node160&#45;&gt;Node162 -->
<g id="edge2" class="edge">
<title>Node160&#45;&gt;Node162</title>
<path fill="none" stroke="#191970" d="M149.3293,-78.5C178.2503,-78.5 208.2977,-78.5 226.7024,-78.5"/>
<polygon fill="#191970" stroke="#191970" points="149.1675,-75.0001 139.1675,-78.5 149.1674,-82.0001 149.1675,-75.0001"/>
</g>
<!-- Node171 -->
<g id="node12" class="node">
<title>Node171</title>
<g id="a_node12"><a xlink:href="classConnectionMonitorCore.html#ab4eedda550b6dfb0be0456a30830f067" target="_top" xlink:title="printSparse">
<polygon fill="#ffffff" stroke="#000000" points="211.5,-31 211.5,-50 277.5,-50 277.5,-31 211.5,-31"/>
<text text-anchor="middle" x="244.5" y="-38" font-family="Helvetica,sans-Serif" font-size="10.00" fill="#000000">printSparse</text>
</a>
</g>
</g>
<!-- Node160&#45;&gt;Node171 -->
<g id="edge11" class="edge">
<title>Node160&#45;&gt;Node171</title>
<path fill="none" stroke="#191970" d="M123.5572,-66.7619C152.2765,-60.5257 186.6538,-53.0609 211.4038,-47.6866"/>
<polygon fill="#191970" stroke="#191970" points="122.6894,-63.3686 113.6599,-68.911 124.1749,-70.2092 122.6894,-63.3686"/>
</g>
<!-- Node163 -->
<g id="node4" class="node">
<title>Node163</title>
<g id="a_node4"><a xlink:href="classConnectionMonitor.html#a388f572c62279f839ee138a9afbdeeb5" target="_top" xlink:title="Prints the current weight state as a 2D matrix (pre x post) ">
<polygon fill="#ffffff" stroke="#000000" points="364.5,-88.5 364.5,-118.5 468.5,-118.5 468.5,-88.5 364.5,-88.5"/>
<text text-anchor="start" x="372.5" y="-106.5" font-family="Helvetica,sans-Serif" font-size="10.00" fill="#000000">ConnectionMonitor::</text>
<text text-anchor="middle" x="416.5" y="-95.5" font-family="Helvetica,sans-Serif" font-size="10.00" fill="#000000">print</text>
</a>
</g>
</g>
<!-- Node162&#45;&gt;Node163 -->
<g id="edge3" class="edge">
<title>Node162&#45;&gt;Node163</title>
<path fill="none" stroke="#191970" d="M272.4013,-82.5554C297.1702,-86.1556 334.0161,-91.5111 364.2486,-95.9053"/>
<polygon fill="#191970" stroke="#191970" points="272.6587,-79.0561 262.2592,-81.0813 271.6517,-85.9833 272.6587,-79.0561"/>
</g>
<!-- Node164 -->
<g id="node5" class="node">
<title>Node164</title>
<g id="a_node5"><a xlink:href="classConnectionMonitorCore.html#acf625cff31a558c7d6786773d0c2693c" target="_top" xlink:title="getUpdateTimeIntervalSec">
<polygon fill="#ffffff" stroke="#000000" points="350,-50 350,-69 483,-69 483,-50 350,-50"/>
<text text-anchor="middle" x="416.5" y="-57" font-family="Helvetica,sans-Serif" font-size="10.00" fill="#000000">getUpdateTimeIntervalSec</text>
</a>
</g>
</g>
<!-- Node162&#45;&gt;Node164 -->
<g id="edge4" class="edge">
<title>Node162&#45;&gt;Node164</title>
<path fill="none" stroke="#191970" d="M272.3821,-75.42C293.3677,-73.1018 323.0306,-69.8251 349.9945,-66.8465"/>
<polygon fill="#191970" stroke="#191970" points="271.8144,-71.9613 262.2592,-76.5382 272.5831,-78.919 271.8144,-71.9613"/>
</g>
<!-- Node165 -->
<g id="node6" class="node">
<title>Node165</title>
<g id="a_node6"><a xlink:href="classSNN.html#a68862cb4e6c749219c20c38aeab06986" target="_top" xlink:title="polls connection weights ">
<polygon fill="#ffffff" stroke="#000000" points="519,-50 519,-69 674,-69 674,-50 519,-50"/>
<text text-anchor="middle" x="596.5" y="-57" font-family="Helvetica,sans-Serif" font-size="10.00" fill="#000000">SNN::updateConnectionMonitor</text>
</a>
</g>
</g>
<!-- Node164&#45;&gt;Node165 -->
<g id="edge5" class="edge">
<title>Node164&#45;&gt;Node165</title>
<path fill="none" stroke="#191970" d="M493.2083,-59.5C501.6475,-59.5 510.2461,-59.5 518.6984,-59.5"/>
<polygon fill="#191970" stroke="#191970" points="493.014,-56.0001 483.0139,-59.5 493.0139,-63.0001 493.014,-56.0001"/>
</g>
<!-- Node166 -->
<g id="node7" class="node">
<title>Node166</title>
<g id="a_node7"><a xlink:href="classSNN.html#a3df37c7539f784fe7a939c5da922f41b" target="_top" xlink:title="run the simulation for n sec ">
<polygon fill="#ffffff" stroke="#000000" points="710,-50 710,-69 805,-69 805,-50 710,-50"/>
<text text-anchor="middle" x="757.5" y="-57" font-family="Helvetica,sans-Serif" font-size="10.00" fill="#000000">SNN::runNetwork</text>
</a>
</g>
</g>
<!-- Node165&#45;&gt;Node166 -->
<g id="edge6" class="edge">
<title>Node165&#45;&gt;Node166</title>
<path fill="none" stroke="#191970" d="M684.1932,-59.5C693.0469,-59.5 701.7837,-59.5 709.9704,-59.5"/>
<polygon fill="#191970" stroke="#191970" points="684.1705,-56.0001 674.1704,-59.5 684.1704,-63.0001 684.1705,-56.0001"/>
</g>
<!-- Node167 -->
<g id="node8" class="node">
<title>Node167</title>
<g id="a_node8"><a xlink:href="classCARLsim_1_1Impl.html#a749f370debe5eec8661cf9ca1b1bb4c0" target="_top" xlink:title="CARLsim::Impl::runNetwork">
<polygon fill="#ffffff" stroke="#000000" points="841,-50 841,-69 981,-69 981,-50 841,-50"/>
<text text-anchor="middle" x="911" y="-57" font-family="Helvetica,sans-Serif" font-size="10.00" fill="#000000">CARLsim::Impl::runNetwork</text>
</a>
</g>
</g>
<!-- Node166&#45;&gt;Node167 -->
<g id="edge7" class="edge">
<title>Node166&#45;&gt;Node167</title>
<path fill="none" stroke="#191970" d="M815.4873,-59.5C823.7425,-59.5 832.3063,-59.5 840.7638,-59.5"/>
<polygon fill="#191970" stroke="#191970" points="815.227,-56.0001 805.2269,-59.5 815.2269,-63.0001 815.227,-56.0001"/>
</g>
<!-- Node168 -->
<g id="node9" class="node">
<title>Node168</title>
<g id="a_node9"><a xlink:href="classCARLsim.html#aafb2d44405c96aafe089f96ff867018d" target="_top" xlink:title="run the simulation for time=(nSec*seconds + nMsec*milliseconds) ">
<polygon fill="#ffffff" stroke="#000000" points="1017,-50 1017,-69 1133,-69 1133,-50 1017,-50"/>
<text text-anchor="middle" x="1075" y="-57" font-family="Helvetica,sans-Serif" font-size="10.00" fill="#000000">CARLsim::runNetwork</text>
</a>
</g>
</g>
<!-- Node167&#45;&gt;Node168 -->
<g id="edge8" class="edge">
<title>Node167&#45;&gt;Node168</title>
<path fill="none" stroke="#191970" d="M991.1489,-59.5C999.8022,-59.5 1008.483,-59.5 1016.8055,-59.5"/>
<polygon fill="#191970" stroke="#191970" points="991.0265,-56.0001 981.0265,-59.5 991.0264,-63.0001 991.0265,-56.0001"/>
</g>
<!-- Node169 -->
<g id="node10" class="node">
<title>Node169</title>
<g id="a_node10"><a xlink:href="classSimpleWeightTuner_1_1Impl.html#a312d84bfa66a5036bb52a4c39db6fa6c" target="_top" xlink:title="SimpleWeightTuner::\lImpl::iterate">
<polygon fill="#ffffff" stroke="#000000" points="1169,-44.5 1169,-74.5 1277,-74.5 1277,-44.5 1169,-44.5"/>
<text text-anchor="start" x="1177" y="-62.5" font-family="Helvetica,sans-Serif" font-size="10.00" fill="#000000">SimpleWeightTuner::</text>
<text text-anchor="middle" x="1223" y="-51.5" font-family="Helvetica,sans-Serif" font-size="10.00" fill="#000000">Impl::iterate</text>
</a>
</g>
</g>
<!-- Node168&#45;&gt;Node169 -->
<g id="edge9" class="edge">
<title>Node168&#45;&gt;Node169</title>
<path fill="none" stroke="#191970" d="M1143.1513,-59.5C1151.8066,-59.5 1160.5692,-59.5 1168.9617,-59.5"/>
<polygon fill="#191970" stroke="#191970" points="1143.0688,-56.0001 1133.0687,-59.5 1143.0687,-63.0001 1143.0688,-56.0001"/>
</g>
<!-- Node170 -->
<g id="node11" class="node">
<title>Node170</title>
<g id="a_node11"><a xlink:href="classSimpleWeightTuner.html#a0df985e3ff7a27edc1e2e3fcc8261843" target="_top" xlink:title="Performs an iteration step of the tuning algorithm. ">
<polygon fill="#ffffff" stroke="#000000" points="1313,-44.5 1313,-74.5 1421,-74.5 1421,-44.5 1313,-44.5"/>
<text text-anchor="start" x="1321" y="-62.5" font-family="Helvetica,sans-Serif" font-size="10.00" fill="#000000">SimpleWeightTuner::</text>
<text text-anchor="middle" x="1367" y="-51.5" font-family="Helvetica,sans-Serif" font-size="10.00" fill="#000000">iterate</text>
</a>
</g>
</g>
<!-- Node169&#45;&gt;Node170 -->
<g id="edge10" class="edge">
<title>Node169&#45;&gt;Node170</title>
<path fill="none" stroke="#191970" d="M1287.2702,-59.5C1295.7504,-59.5 1304.3754,-59.5 1312.6672,-59.5"/>
<polygon fill="#191970" stroke="#191970" points="1287.03,-56.0001 1277.03,-59.5 1287.0299,-63.0001 1287.03,-56.0001"/>
</g>
<!-- Node171&#45;&gt;Node164 -->
<g id="edge13" class="edge">
<title>Node171&#45;&gt;Node164</title>
<path fill="none" stroke="#191970" d="M287.7181,-45.2741C306.5579,-47.3552 329.073,-49.8424 349.9695,-52.1507"/>
<polygon fill="#191970" stroke="#191970" points="287.9872,-41.7826 277.6633,-44.1634 287.2185,-48.7403 287.9872,-41.7826"/>
</g>
<!-- Node172 -->
<g id="node13" class="node">
<title>Node172</title>
<g id="a_node13"><a xlink:href="classConnectionMonitor.html#a71dc2d0a7970622052e156ca863f4216" target="_top" xlink:title="Prints the current weight state as a sparse list of weights. ">
<polygon fill="#ffffff" stroke="#000000" points="364.5,-.5 364.5,-30.5 468.5,-30.5 468.5,-.5 364.5,-.5"/>
<text text-anchor="start" x="372.5" y="-18.5" font-family="Helvetica,sans-Serif" font-size="10.00" fill="#000000">ConnectionMonitor::</text>
<text text-anchor="middle" x="416.5" y="-7.5" font-family="Helvetica,sans-Serif" font-size="10.00" fill="#000000">printSparse</text>
</a>
</g>
</g>
<!-- Node171&#45;&gt;Node172 -->
<g id="edge12" class="edge">
<title>Node171&#45;&gt;Node172</title>
<path fill="none" stroke="#191970" d="M287.6135,-34.2335C310.937,-30.8435 339.9166,-26.6313 364.486,-23.0602"/>
<polygon fill="#191970" stroke="#191970" points="287.0559,-30.7777 277.6633,-35.6797 288.0628,-37.7049 287.0559,-30.7777"/>
</g>
</g>
</svg>
        <g id="navigator" transform="translate(0 0)" fill="#404254">
                <rect fill="#f2f5e9" fill-opacity="0.5" stroke="#606060" stroke-width=".5" x="0" y="0" width="60" height="60"/>
                <use id="zoomplus" xlink:href="#zoomPlus" x="17" y="9" onmousedown="handleZoom(evt,'in')"/>
                <use id="zoomminus" xlink:href="#zoomMin" x="42" y="9" onmousedown="handleZoom(evt,'out')"/>
                <use id="reset" xlink:href="#resetDef" x="30" y="36" onmousedown="handleReset()"/>
                <g id="arrowUp" xlink:href="#dirArrow" transform="translate(30 24)" onmousedown="handlePan(0,-1)">
                  <use xlink:href="#rim" fill="#404040">
                        <set attributeName="fill" to="#808080" begin="arrowUp.mouseover" end="arrowUp.mouseout"/>
                  </use>
                  <path fill="none" stroke="white" stroke-width="1.5" d="M0,-3.0v7 M-2.5,-0.5L0,-3.0L2.5,-0.5"/>
                </g>
                <g id="arrowRight" xlink:href="#dirArrow" transform="rotate(90) translate(36 -43)" onmousedown="handlePan(1,0)">
                  <use xlink:href="#rim" fill="#404040">
                        <set attributeName="fill" to="#808080" begin="arrowRight.mouseover" end="arrowRight.mouseout"/>
                  </use>
                  <path fill="none" stroke="white" stroke-width="1.5" d="M0,-3.0v7 M-2.5,-0.5L0,-3.0L2.5,-0.5"/>
                </g>
                <g id="arrowDown" xlink:href="#dirArrow" transform="rotate(180) translate(-30 -48)" onmousedown="handlePan(0,1)">
                  <use xlink:href="#rim" fill="#404040">
                        <set attributeName="fill" to="#808080" begin="arrowDown.mouseover" end="arrowDown.mouseout"/>
                  </use>
                  <path fill="none" stroke="white" stroke-width="1.5" d="M0,-3.0v7 M-2.5,-0.5L0,-3.0L2.5,-0.5"/>
                </g>
                <g id="arrowLeft" xlink:href="#dirArrow" transform="rotate(270) translate(-36 17)" onmousedown="handlePan(-1,0)">
                  <use xlink:href="#rim" fill="#404040">
                        <set attributeName="fill" to="#808080" begin="arrowLeft.mouseover" end="arrowLeft.mouseout"/>
                  </use>
                  <path fill="none" stroke="white" stroke-width="1.5" d="M0,-3.0v7 M-2.5,-0.5L0,-3.0L2.5,-0.5"/>
                </g>
        </g>
        <svg viewBox="0 0 15 15" width="100%" height="30px" preserveAspectRatio="xMaxYMin meet">
         <g id="arrow_out" transform="scale(0.3 0.3)">
          <a xlink:href="classConnectionMonitorCore_a1025cfe9db2e3f4eddc8a93928ec1a99_icgraph_org.svg" target="_base">
           <rect id="button" ry="5" rx="5" y="6" x="6" height="38" width="38"
                fill="#f2f5e9" fill-opacity="0.5" stroke="#606060" stroke-width="1.0"/>
           <path id="arrow"
             d="M 11.500037,31.436501 C 11.940474,20.09759 22.043105,11.32322 32.158766,21.979434 L 37.068811,17.246167 C 37.068811,17.246167 37.088388,32 37.088388,32 L 22.160133,31.978069 C 22.160133,31.978069 26.997745,27.140456 26.997745,27.140456 C 18.528582,18.264221 13.291696,25.230495 11.500037,31.436501 z"
             style="fill:#404040;"/>
          </a>
         </g>
        </svg>
</svg>
