<?xml version="1.0" encoding="UTF-8" standalone="no"?>
<!DOCTYPE svg PUBLIC "-//W3C//DTD SVG 1.1//EN"
 "http://www.w3.org/Graphics/SVG/1.1/DTD/svg11.dtd">
<!-- Generated by graphviz version 2.40.1 (20161225.0304)
 -->
<!-- Title: print Pages: 1 -->
<svg width="1360pt" height="461pt"
 viewBox="0.00 0.00 1360.00 460.50" xmlns="http://www.w3.org/2000/svg" xmlns:xlink="http://www.w3.org/1999/xlink">
<g id="graph0" class="graph" transform="scale(1 1) rotate(0) translate(4 456.5)">
<title>print</title>
<polygon fill="#ffffff" stroke="transparent" points="-4,4 -4,-456.5 1356,-456.5 1356,4 -4,4"/>
<!-- Node427 -->
<g id="node1" class="node">
<title>Node427</title>
<polygon fill="#bfbfbf" stroke="#000000" points="0,-222 0,-241 35,-241 35,-222 0,-222"/>
<text text-anchor="middle" x="17.5" y="-229" font-family="Helvetica,sans-Serif" font-size="10.00" fill="#000000">print</text>
</g>
<!-- Node428 -->
<g id="node2" class="node">
<title>Node428</title>
<g id="a_node2"><a xlink:href="classNeuronMonitor.html#a388f572c62279f839ee138a9afbdeeb5" target="_top" xlink:title="NeuronMonitor::print">
<polygon fill="#ffffff" stroke="#000000" points="872,-395 872,-414 977,-414 977,-395 872,-395"/>
<text text-anchor="middle" x="924.5" y="-402" font-family="Helvetica,sans-Serif" font-size="10.00" fill="#000000">NeuronMonitor::print</text>
</a>
</g>
</g>
<!-- Node427&#45;&gt;Node428 -->
<g id="edge1" class="edge">
<title>Node427&#45;&gt;Node428</title>
<path fill="none" stroke="#191970" d="M30.0549,-249.4117C62.6887,-293.6461 155.0865,-404.5 261.5,-404.5 261.5,-404.5 261.5,-404.5 567,-404.5 675.3051,-404.5 802.0665,-404.5 871.8009,-404.5"/>
<polygon fill="#191970" stroke="#191970" points="32.7068,-247.1057 24.0148,-241.0477 27.0318,-251.2038 32.7068,-247.1057"/>
</g>
<!-- Node429 -->
<g id="node3" class="node">
<title>Node429</title>
<g id="a_node3"><a xlink:href="classNeuronMonitorCore.html#a38f87732cc929797d9648e68cd509f1b" target="_top" xlink:title="sets timestamp of last NeuronMonitor update ">
<polygon fill="#ffffff" stroke="#000000" points="71,-222 71,-241 157,-241 157,-222 71,-222"/>
<text text-anchor="middle" x="114" y="-229" font-family="Helvetica,sans-Serif" font-size="10.00" fill="#000000">setLastUpdated</text>
</a>
</g>
</g>
<!-- Node427&#45;&gt;Node429 -->
<g id="edge2" class="edge">
<title>Node427&#45;&gt;Node429</title>
<path fill="none" stroke="#191970" d="M45.3541,-231.5C53.2875,-231.5 62.1225,-231.5 70.7426,-231.5"/>
<polygon fill="#191970" stroke="#191970" points="45.1996,-228.0001 35.1996,-231.5 45.1996,-235.0001 45.1996,-228.0001"/>
</g>
<!-- Node430 -->
<g id="node4" class="node">
<title>Node430</title>
<g id="a_node4"><a xlink:href="classSNN.html#a8dd319bdd9a54e38f9254cbec099c30a" target="_top" xlink:title="copy required neuron state values from ??? buffer to ??? buffer ">
<polygon fill="#ffffff" stroke="#000000" points="193,-222 193,-241 330,-241 330,-222 193,-222"/>
<text text-anchor="middle" x="261.5" y="-229" font-family="Helvetica,sans-Serif" font-size="10.00" fill="#000000">SNN::updateNeuronMonitor</text>
</a>
</g>
</g>
<!-- Node429&#45;&gt;Node430 -->
<g id="edge3" class="edge">
<title>Node429&#45;&gt;Node430</title>
<path fill="none" stroke="#191970" d="M167.3264,-231.5C175.6173,-231.5 184.282,-231.5 192.8543,-231.5"/>
<polygon fill="#191970" stroke="#191970" points="167.0597,-228.0001 157.0596,-231.5 167.0596,-235.0001 167.0597,-228.0001"/>
</g>
<!-- Node431 -->
<g id="node5" class="node">
<title>Node431</title>
<g id="a_node5"><a xlink:href="classNeuronMonitorCore.html#ab91616c118b701c2afd9136393d1f19b" target="_top" xlink:title="starts recording Neuron state ">
<polygon fill="#ffffff" stroke="#000000" points="373.5,-260 373.5,-279 453.5,-279 453.5,-260 373.5,-260"/>
<text text-anchor="middle" x="413.5" y="-267" font-family="Helvetica,sans-Serif" font-size="10.00" fill="#000000">startRecording</text>
</a>
</g>
</g>
<!-- Node430&#45;&gt;Node431 -->
<g id="edge4" class="edge">
<title>Node430&#45;&gt;Node431</title>
<path fill="none" stroke="#191970" d="M309.66,-243.54C330.8951,-248.8488 355.495,-254.9988 375.4198,-259.9799"/>
<polygon fill="#191970" stroke="#191970" points="310.4063,-240.1189 299.856,-241.089 308.7085,-246.9099 310.4063,-240.1189"/>
</g>
<!-- Node444 -->
<g id="node18" class="node">
<title>Node444</title>
<g id="a_node18"><a xlink:href="classNeuronMonitorCore.html#a25e0e98dd4519eaaa6b258f0dcb91ac7" target="_top" xlink:title="stops recording Neuron state ">
<polygon fill="#ffffff" stroke="#000000" points="702,-281 702,-300 782,-300 782,-281 702,-281"/>
<text text-anchor="middle" x="742" y="-288" font-family="Helvetica,sans-Serif" font-size="10.00" fill="#000000">stopRecording</text>
</a>
</g>
</g>
<!-- Node430&#45;&gt;Node444 -->
<g id="edge42" class="edge">
<title>Node430&#45;&gt;Node444</title>
<path fill="none" stroke="#191970" d="M282.5522,-247.088C302.768,-261.0223 334.7636,-280.4464 366,-288.5 484.9956,-319.1805 632.303,-305.8206 701.938,-296.6004"/>
<polygon fill="#191970" stroke="#191970" points="284.3223,-244.0529 274.1378,-241.1327 280.2783,-249.7667 284.3223,-244.0529"/>
</g>
<!-- Node453 -->
<g id="node27" class="node">
<title>Node453</title>
<g id="a_node27"><a xlink:href="classSNN.html#a3df37c7539f784fe7a939c5da922f41b" target="_top" xlink:title="run the simulation for n sec ">
<polygon fill="#ffffff" stroke="#000000" points="366,-80 366,-99 461,-99 461,-80 366,-80"/>
<text text-anchor="middle" x="413.5" y="-87" font-family="Helvetica,sans-Serif" font-size="10.00" fill="#000000">SNN::runNetwork</text>
</a>
</g>
</g>
<!-- Node430&#45;&gt;Node453 -->
<g id="edge43" class="edge">
<title>Node430&#45;&gt;Node453</title>
<path fill="none" stroke="#191970" d="M279.2827,-214.8872C311.2085,-185.0618 377.3038,-123.3149 402.9793,-99.3285"/>
<polygon fill="#191970" stroke="#191970" points="276.8656,-212.3555 271.9476,-221.7398 281.6443,-217.4707 276.8656,-212.3555"/>
</g>
<!-- Node432 -->
<g id="node6" class="node">
<title>Node432</title>
<g id="a_node6"><a xlink:href="classNeuronMonitor.html#ab91616c118b701c2afd9136393d1f19b" target="_top" xlink:title="NeuronMonitor::startRecording">
<polygon fill="#ffffff" stroke="#000000" points="849.5,-357 849.5,-376 999.5,-376 999.5,-357 849.5,-357"/>
<text text-anchor="middle" x="924.5" y="-364" font-family="Helvetica,sans-Serif" font-size="10.00" fill="#000000">NeuronMonitor::startRecording</text>
</a>
</g>
</g>
<!-- Node431&#45;&gt;Node432 -->
<g id="edge5" class="edge">
<title>Node431&#45;&gt;Node432</title>
<path fill="none" stroke="#191970" d="M438.7724,-283.9705C454.9761,-292.7236 476.7056,-303.5073 497,-310.5 615.716,-351.4051 762.4105,-362.7476 849.4416,-365.7067"/>
<polygon fill="#191970" stroke="#191970" points="440.3707,-280.8551 429.923,-279.0954 436.993,-286.9863 440.3707,-280.8551"/>
</g>
<!-- Node433 -->
<g id="node7" class="node">
<title>Node433</title>
<g id="a_node7"><a xlink:href="classNeuronMonitorCore.html#a3a3ffdb35b09328d22e5d72503ed1f55" target="_top" xlink:title="returns recording status ">
<polygon fill="#ffffff" stroke="#000000" points="533,-222 533,-241 601,-241 601,-222 533,-222"/>
<text text-anchor="middle" x="567" y="-229" font-family="Helvetica,sans-Serif" font-size="10.00" fill="#000000">isRecording</text>
</a>
</g>
</g>
<!-- Node431&#45;&gt;Node433 -->
<g id="edge6" class="edge">
<title>Node431&#45;&gt;Node433</title>
<path fill="none" stroke="#191970" d="M442.8274,-256.7989C468.5505,-248.783 505.9606,-239.4298 532.9892,-234.2026"/>
<polygon fill="#191970" stroke="#191970" points="441.6835,-253.4904 433.2532,-259.9076 443.8453,-260.1482 441.6835,-253.4904"/>
</g>
<!-- Node433&#45;&gt;Node427 -->
<g id="edge40" class="edge">
<title>Node433&#45;&gt;Node427</title>
<path fill="none" stroke="#191970" d="M522.6272,-223.6731C435.3741,-209.6273 235.6394,-184.1329 71,-212.5 58.7611,-214.6087 45.6096,-219.2444 35.4086,-223.4087"/>
<polygon fill="#191970" stroke="#191970" points="522.2657,-227.1605 532.7003,-225.3248 523.3984,-220.2527 522.2657,-227.1605"/>
</g>
<!-- Node433&#45;&gt;Node430 -->
<g id="edge41" class="edge">
<title>Node433&#45;&gt;Node430</title>
<path fill="none" stroke="#191970" d="M522.4071,-231.5C471.8579,-231.5 388.8576,-231.5 330.0602,-231.5"/>
<polygon fill="#191970" stroke="#191970" points="522.6808,-235.0001 532.6808,-231.5 522.6808,-228.0001 522.6808,-235.0001"/>
</g>
<!-- Node433&#45;&gt;Node431 -->
<g id="edge24" class="edge">
<title>Node433&#45;&gt;Node431</title>
<path fill="none" stroke="#191970" d="M537.9685,-244.1087C514.1813,-251.5379 480.2563,-260.1367 453.8303,-265.5392"/>
<polygon fill="#191970" stroke="#191970" points="539.0654,-247.4325 547.491,-241.0092 536.8987,-240.7763 539.0654,-247.4325"/>
</g>
<!-- Node434 -->
<g id="node8" class="node">
<title>Node434</title>
<g id="a_node8"><a xlink:href="classNeuronMonitor.html#a3a3ffdb35b09328d22e5d72503ed1f55" target="_top" xlink:title="NeuronMonitor::isRecording">
<polygon fill="#ffffff" stroke="#000000" points="673,-243 673,-262 811,-262 811,-243 673,-243"/>
<text text-anchor="middle" x="742" y="-250" font-family="Helvetica,sans-Serif" font-size="10.00" fill="#000000">NeuronMonitor::isRecording</text>
</a>
</g>
</g>
<!-- Node433&#45;&gt;Node434 -->
<g id="edge7" class="edge">
<title>Node433&#45;&gt;Node434</title>
<path fill="none" stroke="#191970" d="M611.1418,-236.797C629.8243,-239.0389 652.036,-241.7043 672.8069,-244.1968"/>
<polygon fill="#191970" stroke="#191970" points="611.503,-233.3153 601.1572,-235.5989 610.6689,-240.2655 611.503,-233.3153"/>
</g>
<!-- Node441 -->
<g id="node15" class="node">
<title>Node441</title>
<g id="a_node15"><a xlink:href="classNeuronMonitorCore.html#ac8bb3912a3ce86b15842e79d0b421204" target="_top" xlink:title="deletes data from the neuron state vector ">
<polygon fill="#ffffff" stroke="#000000" points="723,-319 723,-338 761,-338 761,-319 723,-319"/>
<text text-anchor="middle" x="742" y="-326" font-family="Helvetica,sans-Serif" font-size="10.00" fill="#000000">clear</text>
</a>
</g>
</g>
<!-- Node433&#45;&gt;Node441 -->
<g id="edge16" class="edge">
<title>Node433&#45;&gt;Node441</title>
<path fill="none" stroke="#191970" d="M610.7651,-238.0609C619.9268,-242.1242 629.1723,-247.3362 637,-253.5 657.6727,-269.7783 651.1789,-285.7967 673,-300.5 687.941,-310.5674 708.093,-315.3258 722.7595,-319.195"/>
<polygon fill="#191970" stroke="#191970" points="611.8943,-234.7425 601.3108,-234.2507 609.2776,-241.2351 611.8943,-234.7425"/>
</g>
<!-- Node443 -->
<g id="node17" class="node">
<title>Node443</title>
<g id="a_node17"><a xlink:href="classNeuronMonitorCore.html#a743a4ad47ef60bc593cc9882bd4ffb57" target="_top" xlink:title="inserts a (time,neurId) tupel into the D Neuron State vector ">
<polygon fill="#ffffff" stroke="#000000" points="696,-53 696,-72 788,-72 788,-53 696,-53"/>
<text text-anchor="middle" x="742" y="-60" font-family="Helvetica,sans-Serif" font-size="10.00" fill="#000000">pushNeuronState</text>
</a>
</g>
</g>
<!-- Node433&#45;&gt;Node443 -->
<g id="edge21" class="edge">
<title>Node433&#45;&gt;Node443</title>
<path fill="none" stroke="#191970" d="M598.4286,-219.1332C611.9448,-215.0381 626.9207,-209.1175 637,-198.5 677.098,-156.2608 631.6203,-113.4844 673,-72.5 679.2678,-66.2921 687.3664,-62.0661 695.7981,-59.3923"/>
<polygon fill="#191970" stroke="#191970" points="597.1467,-215.8587 588.4825,-221.9565 599.0582,-222.5927 597.1467,-215.8587"/>
</g>
<!-- Node433&#45;&gt;Node444 -->
<g id="edge25" class="edge">
<title>Node433&#45;&gt;Node444</title>
<path fill="none" stroke="#191970" d="M610.6686,-240.7422C629.6753,-247.3677 652.2951,-255.7586 673,-262.5 692.6122,-268.8856 715.8023,-274.9788 729.6839,-280.9277"/>
<polygon fill="#191970" stroke="#191970" points="611.6825,-237.3899 601.0878,-237.4566 609.4116,-244.0113 611.6825,-237.3899"/>
</g>
<!-- Node445 -->
<g id="node19" class="node">
<title>Node445</title>
<g id="a_node19"><a xlink:href="classNeuronMonitorCore.html#a5113f6b476e3e3544ecbffefa313234d" target="_top" xlink:title="sets pointer to Neuron file ">
<polygon fill="#ffffff" stroke="#000000" points="699,-91 699,-110 785,-110 785,-91 699,-91"/>
<text text-anchor="middle" x="742" y="-98" font-family="Helvetica,sans-Serif" font-size="10.00" fill="#000000">setNeuronFileId</text>
</a>
</g>
</g>
<!-- Node433&#45;&gt;Node445 -->
<g id="edge28" class="edge">
<title>Node433&#45;&gt;Node445</title>
<path fill="none" stroke="#191970" d="M596.0991,-219.1652C609.9481,-214.9252 625.8718,-209.0005 637,-198.5 667.7346,-169.4989 641.387,-138.541 673,-110.5 680.2503,-104.0689 689.488,-99.7929 698.829,-97.2104"/>
<polygon fill="#191970" stroke="#191970" points="595.0848,-215.8152 586.4797,-221.9961 597.0611,-222.5304 595.0848,-215.8152"/>
</g>
<!-- Node450 -->
<g id="node24" class="node">
<title>Node450</title>
<g id="a_node24"><a xlink:href="classNeuronMonitorCore.html#a5414db20073ada3806b3c35686c9a6f4" target="_top" xlink:title="returns the Neuron state vector ">
<polygon fill="#ffffff" stroke="#000000" points="709.5,-167 709.5,-186 774.5,-186 774.5,-167 709.5,-167"/>
<text text-anchor="middle" x="742" y="-174" font-family="Helvetica,sans-Serif" font-size="10.00" fill="#000000">getVectorV</text>
</a>
</g>
</g>
<!-- Node433&#45;&gt;Node450 -->
<g id="edge34" class="edge">
<title>Node433&#45;&gt;Node450</title>
<path fill="none" stroke="#191970" d="M604.2355,-218.7344C631.9585,-209.2504 666.1447,-197.606 673,-195.5 684.7584,-191.8878 697.7415,-188.2279 709.2435,-185.0975"/>
<polygon fill="#191970" stroke="#191970" points="603.0821,-215.4298 594.7545,-221.9797 605.3491,-222.0525 603.0821,-215.4298"/>
</g>
<!-- Node451 -->
<g id="node25" class="node">
<title>Node451</title>
<g id="a_node25"><a xlink:href="classNeuronMonitorCore.html#aff9eb621d9c78a5e33f1435eff0e9ba9" target="_top" xlink:title="getVectorU">
<polygon fill="#ffffff" stroke="#000000" points="709,-129 709,-148 775,-148 775,-129 709,-129"/>
<text text-anchor="middle" x="742" y="-136" font-family="Helvetica,sans-Serif" font-size="10.00" fill="#000000">getVectorU</text>
</a>
</g>
</g>
<!-- Node433&#45;&gt;Node451 -->
<g id="edge36" class="edge">
<title>Node433&#45;&gt;Node451</title>
<path fill="none" stroke="#191970" d="M610.6355,-221.1808C619.8785,-217.7639 629.1905,-213.2967 637,-207.5 658.9877,-191.1792 650.5202,-173.136 673,-157.5 683.5062,-150.1923 696.728,-145.6893 708.7794,-142.9171"/>
<polygon fill="#191970" stroke="#191970" points="609.4668,-217.881 601.0941,-224.3732 611.6879,-224.5193 609.4668,-217.881"/>
</g>
<!-- Node452 -->
<g id="node26" class="node">
<title>Node452</title>
<g id="a_node26"><a xlink:href="classNeuronMonitorCore.html#aa1e83b424e9145add71076cadfadb200" target="_top" xlink:title="getVectorI">
<polygon fill="#ffffff" stroke="#000000" points="711,-205 711,-224 773,-224 773,-205 711,-205"/>
<text text-anchor="middle" x="742" y="-212" font-family="Helvetica,sans-Serif" font-size="10.00" fill="#000000">getVectorI</text>
</a>
</g>
</g>
<!-- Node433&#45;&gt;Node452 -->
<g id="edge38" class="edge">
<title>Node433&#45;&gt;Node452</title>
<path fill="none" stroke="#191970" d="M611.2937,-227.1972C642.3787,-224.1775 683.1765,-220.2143 710.8648,-217.5246"/>
<polygon fill="#191970" stroke="#191970" points="610.7719,-223.7313 601.1572,-228.1819 611.4488,-230.6985 610.7719,-223.7313"/>
</g>
<!-- Node434&#45;&gt;Node428 -->
<g id="edge11" class="edge">
<title>Node434&#45;&gt;Node428</title>
<path fill="none" stroke="#191970" d="M805.7633,-267.1462C807.6103,-268.4761 809.3643,-269.924 811,-271.5 849.2625,-308.3659 808.22,-349.1789 847,-385.5 853.8755,-391.9396 862.5666,-396.2987 871.6235,-399.2283"/>
<polygon fill="#191970" stroke="#191970" points="807.5345,-264.1275 797.1476,-262.0388 803.9649,-270.149 807.5345,-264.1275"/>
</g>
<!-- Node434&#45;&gt;Node432 -->
<g id="edge9" class="edge">
<title>Node434&#45;&gt;Node432</title>
<path fill="none" stroke="#191970" d="M804.6321,-266.8953C806.8673,-268.2913 809.0019,-269.8219 811,-271.5 839.621,-295.5369 818.0419,-323.8702 847,-347.5 851.7227,-351.3537 857.1114,-354.444 862.7976,-356.9194"/>
<polygon fill="#191970" stroke="#191970" points="806.0688,-263.6967 795.5874,-262.1504 802.8169,-269.8954 806.0688,-263.6967"/>
</g>
<!-- Node435 -->
<g id="node9" class="node">
<title>Node435</title>
<g id="a_node9"><a xlink:href="classNeuronMonitor.html#ac8bb3912a3ce86b15842e79d0b421204" target="_top" xlink:title="NeuronMonitor::clear">
<polygon fill="#ffffff" stroke="#000000" points="871,-319 871,-338 978,-338 978,-319 871,-319"/>
<text text-anchor="middle" x="924.5" y="-326" font-family="Helvetica,sans-Serif" font-size="10.00" fill="#000000">NeuronMonitor::clear</text>
</a>
</g>
</g>
<!-- Node434&#45;&gt;Node435 -->
<g id="edge8" class="edge">
<title>Node434&#45;&gt;Node435</title>
<path fill="none" stroke="#191970" d="M799.5884,-265.7168C803.5577,-267.4227 807.4045,-269.342 811,-271.5 830.9474,-283.4723 826.8853,-297.811 847,-309.5 854.3064,-313.7459 862.5312,-317.0471 870.8217,-319.6128"/>
<polygon fill="#191970" stroke="#191970" points="800.7555,-262.416 790.1651,-262.1115 798.2542,-268.9538 800.7555,-262.416"/>
</g>
<!-- Node436 -->
<g id="node10" class="node">
<title>Node436</title>
<g id="a_node10"><a xlink:href="classNeuronMonitor.html#a25e0e98dd4519eaaa6b258f0dcb91ac7" target="_top" xlink:title="NeuronMonitor::stopRecording">
<polygon fill="#ffffff" stroke="#000000" points="850,-281 850,-300 999,-300 999,-281 850,-281"/>
<text text-anchor="middle" x="924.5" y="-288" font-family="Helvetica,sans-Serif" font-size="10.00" fill="#000000">NeuronMonitor::stopRecording</text>
</a>
</g>
</g>
<!-- Node434&#45;&gt;Node436 -->
<g id="edge10" class="edge">
<title>Node434&#45;&gt;Node436</title>
<path fill="none" stroke="#191970" d="M798.0995,-264.181C823.9804,-269.5699 854.3146,-275.8861 878.7787,-280.9799"/>
<polygon fill="#191970" stroke="#191970" points="798.556,-260.701 788.0525,-262.089 797.129,-267.5541 798.556,-260.701"/>
</g>
<!-- Node437 -->
<g id="node11" class="node">
<title>Node437</title>
<g id="a_node11"><a xlink:href="classNeuronMonitor.html#a22cd4deca28f0e9e8dd2e576b75b02a8" target="_top" xlink:title="Returns the ... ">
<polygon fill="#ffffff" stroke="#000000" points="847,-243 847,-262 1002,-262 1002,-243 847,-243"/>
<text text-anchor="middle" x="924.5" y="-250" font-family="Helvetica,sans-Serif" font-size="10.00" fill="#000000">NeuronMonitor::getLastUpdated</text>
</a>
</g>
</g>
<!-- Node434&#45;&gt;Node437 -->
<g id="edge12" class="edge">
<title>Node434&#45;&gt;Node437</title>
<path fill="none" stroke="#191970" d="M821.4184,-252.5C829.8214,-252.5 838.3606,-252.5 846.7443,-252.5"/>
<polygon fill="#191970" stroke="#191970" points="821.2557,-249.0001 811.2556,-252.5 821.2556,-256.0001 821.2557,-249.0001"/>
</g>
<!-- Node438 -->
<g id="node12" class="node">
<title>Node438</title>
<g id="a_node12"><a xlink:href="classNeuronMonitor.html#a5414db20073ada3806b3c35686c9a6f4" target="_top" xlink:title="returns the Neuron state vectors ">
<polygon fill="#ffffff" stroke="#000000" points="857,-167 857,-186 992,-186 992,-167 857,-167"/>
<text text-anchor="middle" x="924.5" y="-174" font-family="Helvetica,sans-Serif" font-size="10.00" fill="#000000">NeuronMonitor::getVectorV</text>
</a>
</g>
</g>
<!-- Node434&#45;&gt;Node438 -->
<g id="edge13" class="edge">
<title>Node434&#45;&gt;Node438</title>
<path fill="none" stroke="#191970" d="M799.5884,-239.2832C803.5577,-237.5773 807.4045,-235.658 811,-233.5 830.9474,-221.5277 826.8853,-207.189 847,-195.5 853.7075,-191.6021 861.189,-188.5004 868.7849,-186.033"/>
<polygon fill="#191970" stroke="#191970" points="798.2542,-236.0462 790.1651,-242.8885 800.7555,-242.584 798.2542,-236.0462"/>
</g>
<!-- Node439 -->
<g id="node13" class="node">
<title>Node439</title>
<g id="a_node13"><a xlink:href="classNeuronMonitor.html#aff9eb621d9c78a5e33f1435eff0e9ba9" target="_top" xlink:title="NeuronMonitor::getVectorU">
<polygon fill="#ffffff" stroke="#000000" points="856.5,-129 856.5,-148 992.5,-148 992.5,-129 856.5,-129"/>
<text text-anchor="middle" x="924.5" y="-136" font-family="Helvetica,sans-Serif" font-size="10.00" fill="#000000">NeuronMonitor::getVectorU</text>
</a>
</g>
</g>
<!-- Node434&#45;&gt;Node439 -->
<g id="edge14" class="edge">
<title>Node434&#45;&gt;Node439</title>
<path fill="none" stroke="#191970" d="M804.6321,-238.1047C806.8673,-236.7087 809.0019,-235.1781 811,-233.5 839.621,-209.4631 818.0419,-181.1298 847,-157.5 851.7227,-153.6463 857.1114,-150.556 862.7976,-148.0806"/>
<polygon fill="#191970" stroke="#191970" points="802.8169,-235.1046 795.5874,-242.8496 806.0688,-241.3033 802.8169,-235.1046"/>
</g>
<!-- Node440 -->
<g id="node14" class="node">
<title>Node440</title>
<g id="a_node14"><a xlink:href="classNeuronMonitor.html#aa1e83b424e9145add71076cadfadb200" target="_top" xlink:title="NeuronMonitor::getVectorI">
<polygon fill="#ffffff" stroke="#000000" points="859,-205 859,-224 990,-224 990,-205 859,-205"/>
<text text-anchor="middle" x="924.5" y="-212" font-family="Helvetica,sans-Serif" font-size="10.00" fill="#000000">NeuronMonitor::getVectorI</text>
</a>
</g>
</g>
<!-- Node434&#45;&gt;Node440 -->
<g id="edge15" class="edge">
<title>Node434&#45;&gt;Node440</title>
<path fill="none" stroke="#191970" d="M798.0995,-240.819C823.9804,-235.4301 854.3146,-229.1139 878.7787,-224.0201"/>
<polygon fill="#191970" stroke="#191970" points="797.129,-237.4459 788.0525,-242.911 798.556,-244.299 797.129,-237.4459"/>
</g>
<!-- Node441&#45;&gt;Node431 -->
<g id="edge19" class="edge">
<title>Node441&#45;&gt;Node431</title>
<path fill="none" stroke="#191970" d="M712.823,-323.2597C653.9557,-312.6869 520.8761,-288.7852 453.7805,-276.7346"/>
<polygon fill="#191970" stroke="#191970" points="712.4573,-326.7499 722.9186,-325.0729 713.6948,-319.8602 712.4573,-326.7499"/>
</g>
<!-- Node441&#45;&gt;Node433 -->
<g id="edge20" class="edge">
<title>Node441&#45;&gt;Node433</title>
<path fill="none" stroke="#191970" d="M712.4591,-332.9223C699.5258,-330.99 684.6727,-326.3652 673,-318.5 651.1789,-303.7967 657.6727,-287.7783 637,-271.5 619.0391,-257.357 593.614,-248.2248 578.8626,-241.0248"/>
<polygon fill="#191970" stroke="#191970" points="712.4676,-336.4395 722.7595,-333.9242 713.1454,-329.4724 712.4676,-336.4395"/>
</g>
<!-- Node441&#45;&gt;Node435 -->
<g id="edge17" class="edge">
<title>Node441&#45;&gt;Node435</title>
<path fill="none" stroke="#191970" d="M771.4348,-328.5C798.2109,-328.5 838.3894,-328.5 870.8637,-328.5"/>
<polygon fill="#191970" stroke="#191970" points="771.1858,-325.0001 761.1858,-328.5 771.1857,-332.0001 771.1858,-325.0001"/>
</g>
<!-- Node442 -->
<g id="node16" class="node">
<title>Node442</title>
<g id="a_node16"><a xlink:href="classNeuronMonitorCore.html#a1fea34ca55f65e7cfeb05d870b2e741b" target="_top" xlink:title="constructor (called by CARLsim::setNeuronMonitor) ">
<polygon fill="#ffffff" stroke="#000000" points="874,-433 874,-452 975,-452 975,-433 874,-433"/>
<text text-anchor="middle" x="924.5" y="-440" font-family="Helvetica,sans-Serif" font-size="10.00" fill="#000000">NeuronMonitorCore</text>
</a>
</g>
</g>
<!-- Node441&#45;&gt;Node442 -->
<g id="edge18" class="edge">
<title>Node441&#45;&gt;Node442</title>
<path fill="none" stroke="#191970" d="M756.3841,-346.0143C775.0317,-367.545 809.6192,-403.6608 847,-423.5 855.321,-427.9162 864.6895,-431.3269 873.9621,-433.9546"/>
<polygon fill="#191970" stroke="#191970" points="758.9673,-343.6488 749.8315,-338.2833 753.6273,-348.1749 758.9673,-343.6488"/>
</g>
<!-- Node443&#45;&gt;Node430 -->
<g id="edge23" class="edge">
<title>Node443&#45;&gt;Node430</title>
<path fill="none" stroke="#191970" d="M695.523,-74.7444C687.9642,-76.8944 680.2422,-79.1871 673,-81.5 524.146,-129.0388 349.1091,-196.9129 285.844,-221.8415"/>
<polygon fill="#191970" stroke="#191970" points="696.6217,-78.0715 705.3116,-72.0104 694.7387,-71.3295 696.6217,-78.0715"/>
</g>
<!-- Node443&#45;&gt;Node433 -->
<g id="edge22" class="edge">
<title>Node443&#45;&gt;Node433</title>
<path fill="none" stroke="#191970" d="M703.5585,-74.5148C692.4733,-77.6741 681.1782,-82.3999 673,-90.5 631.6203,-131.4844 677.098,-174.2608 637,-216.5 627.6242,-226.3765 614.0113,-232.1888 601.2778,-234.9703"/>
<polygon fill="#191970" stroke="#191970" points="704.7353,-77.8282 713.5842,-72.0018 703.0333,-71.0382 704.7353,-77.8282"/>
</g>
<!-- Node444&#45;&gt;Node433 -->
<g id="edge27" class="edge">
<title>Node444&#45;&gt;Node433</title>
<path fill="none" stroke="#191970" d="M691.7855,-286.1842C685.4354,-284.4103 679.0476,-282.4691 673,-280.5 637.4642,-268.9297 596.2876,-252.5004 577.4178,-241.1186"/>
<polygon fill="#191970" stroke="#191970" points="691.1155,-289.6276 701.6791,-288.814 692.9138,-282.8625 691.1155,-289.6276"/>
</g>
<!-- Node444&#45;&gt;Node436 -->
<g id="edge26" class="edge">
<title>Node444&#45;&gt;Node436</title>
<path fill="none" stroke="#191970" d="M792.2239,-290.5C810.069,-290.5 830.5579,-290.5 849.9968,-290.5"/>
<polygon fill="#191970" stroke="#191970" points="792.0504,-287.0001 782.0504,-290.5 792.0504,-294.0001 792.0504,-287.0001"/>
</g>
<!-- Node445&#45;&gt;Node433 -->
<g id="edge30" class="edge">
<title>Node445&#45;&gt;Node433</title>
<path fill="none" stroke="#191970" d="M706.0838,-112.518C694.4126,-115.7202 682.1304,-120.4013 673,-128.5 641.387,-156.541 667.7346,-187.4989 637,-216.5 627.1888,-225.7579 613.6498,-231.4589 601.0916,-234.3423"/>
<polygon fill="#191970" stroke="#191970" points="707.2254,-115.841 716.0883,-110.036 705.5398,-109.047 707.2254,-115.841"/>
</g>
<!-- Node446 -->
<g id="node20" class="node">
<title>Node446</title>
<g id="a_node20"><a xlink:href="classNeuronMonitor.html#a11168f8252e1416f1706b5f7cae0be1e" target="_top" xlink:title="NeuronMonitor::setLogFile">
<polygon fill="#ffffff" stroke="#000000" points="859,-91 859,-110 990,-110 990,-91 859,-91"/>
<text text-anchor="middle" x="924.5" y="-98" font-family="Helvetica,sans-Serif" font-size="10.00" fill="#000000">NeuronMonitor::setLogFile</text>
</a>
</g>
</g>
<!-- Node445&#45;&gt;Node446 -->
<g id="edge29" class="edge">
<title>Node445&#45;&gt;Node446</title>
<path fill="none" stroke="#191970" d="M795.3292,-100.5C815.1591,-100.5 837.8951,-100.5 858.71,-100.5"/>
<polygon fill="#191970" stroke="#191970" points="795.25,-97.0001 785.25,-100.5 795.2499,-104.0001 795.25,-97.0001"/>
</g>
<!-- Node447 -->
<g id="node21" class="node">
<title>Node447</title>
<g id="a_node21"><a xlink:href="classSNN.html#a4c62ae1b8cff6aedfdf98cb8808d14e1" target="_top" xlink:title="sets up a neuron monitor registered with a callback to process the neuron state values, there can only be one NeuronMonitor per group ">
<polygon fill="#ffffff" stroke="#000000" points="863.5,-53 863.5,-72 985.5,-72 985.5,-53 863.5,-53"/>
<text text-anchor="middle" x="924.5" y="-60" font-family="Helvetica,sans-Serif" font-size="10.00" fill="#000000">SNN::setNeuronMonitor</text>
</a>
</g>
</g>
<!-- Node445&#45;&gt;Node447 -->
<g id="edge31" class="edge">
<title>Node445&#45;&gt;Node447</title>
<path fill="none" stroke="#191970" d="M795.1181,-89.4398C821.596,-83.9266 853.2968,-77.3259 878.6923,-72.038"/>
<polygon fill="#191970" stroke="#191970" points="794.3265,-86.0295 785.25,-91.4945 795.7535,-92.8825 794.3265,-86.0295"/>
</g>
<!-- Node448 -->
<g id="node22" class="node">
<title>Node448</title>
<g id="a_node22"><a xlink:href="classCARLsim_1_1Impl.html#ad09ccf4ff95aa4f7b629afad588b0c88" target="_top" xlink:title="CARLsim::Impl::setNeuron\lMonitor">
<polygon fill="#ffffff" stroke="#000000" points="1038,-49.5 1038,-79.5 1173,-79.5 1173,-49.5 1038,-49.5"/>
<text text-anchor="start" x="1046" y="-67.5" font-family="Helvetica,sans-Serif" font-size="10.00" fill="#000000">CARLsim::Impl::setNeuron</text>
<text text-anchor="middle" x="1105.5" y="-56.5" font-family="Helvetica,sans-Serif" font-size="10.00" fill="#000000">Monitor</text>
</a>
</g>
</g>
<!-- Node447&#45;&gt;Node448 -->
<g id="edge32" class="edge">
<title>Node447&#45;&gt;Node448</title>
<path fill="none" stroke="#191970" d="M995.5426,-63.285C1009.4834,-63.439 1024.0707,-63.6002 1037.8952,-63.753"/>
<polygon fill="#191970" stroke="#191970" points="995.5641,-59.7851 985.526,-63.1743 995.4867,-66.7847 995.5641,-59.7851"/>
</g>
<!-- Node449 -->
<g id="node23" class="node">
<title>Node449</title>
<g id="a_node23"><a xlink:href="classCARLsim.html#a9f96445ca9cb3edb1532b6c741ec5736" target="_top" xlink:title="Sets a Neuron Monitor for a groups, print voltage, recovery, and total current values to binary file...">
<polygon fill="#ffffff" stroke="#000000" points="1209,-55 1209,-74 1352,-74 1352,-55 1209,-55"/>
<text text-anchor="middle" x="1280.5" y="-62" font-family="Helvetica,sans-Serif" font-size="10.00" fill="#000000">CARLsim::setNeuronMonitor</text>
</a>
</g>
</g>
<!-- Node448&#45;&gt;Node449 -->
<g id="edge33" class="edge">
<title>Node448&#45;&gt;Node449</title>
<path fill="none" stroke="#191970" d="M1183.4394,-64.5C1191.9344,-64.5 1200.551,-64.5 1208.9638,-64.5"/>
<polygon fill="#191970" stroke="#191970" points="1183.1596,-61.0001 1173.1596,-64.5 1183.1595,-68.0001 1183.1596,-61.0001"/>
</g>
<!-- Node450&#45;&gt;Node438 -->
<g id="edge35" class="edge">
<title>Node450&#45;&gt;Node438</title>
<path fill="none" stroke="#191970" d="M784.698,-176.5C806.1006,-176.5 832.531,-176.5 856.6289,-176.5"/>
<polygon fill="#191970" stroke="#191970" points="784.6274,-173.0001 774.6273,-176.5 784.6273,-180.0001 784.6274,-173.0001"/>
</g>
<!-- Node451&#45;&gt;Node439 -->
<g id="edge37" class="edge">
<title>Node451&#45;&gt;Node439</title>
<path fill="none" stroke="#191970" d="M785.3261,-138.5C806.4789,-138.5 832.4289,-138.5 856.1666,-138.5"/>
<polygon fill="#191970" stroke="#191970" points="785.0494,-135.0001 775.0494,-138.5 785.0493,-142.0001 785.0494,-135.0001"/>
</g>
<!-- Node452&#45;&gt;Node440 -->
<g id="edge39" class="edge">
<title>Node452&#45;&gt;Node440</title>
<path fill="none" stroke="#191970" d="M783.4824,-214.5C805.7323,-214.5 833.6699,-214.5 858.7966,-214.5"/>
<polygon fill="#191970" stroke="#191970" points="783.3729,-211.0001 773.3729,-214.5 783.3728,-218.0001 783.3729,-211.0001"/>
</g>
<!-- Node454 -->
<g id="node28" class="node">
<title>Node454</title>
<g id="a_node28"><a xlink:href="classCARLsim_1_1Impl.html#a749f370debe5eec8661cf9ca1b1bb4c0" target="_top" xlink:title="CARLsim::Impl::runNetwork">
<polygon fill="#ffffff" stroke="#000000" points="497,-23 497,-42 637,-42 637,-23 497,-23"/>
<text text-anchor="middle" x="567" y="-30" font-family="Helvetica,sans-Serif" font-size="10.00" fill="#000000">CARLsim::Impl::runNetwork</text>
</a>
</g>
</g>
<!-- Node453&#45;&gt;Node454 -->
<g id="edge44" class="edge">
<title>Node453&#45;&gt;Node454</title>
<path fill="none" stroke="#191970" d="M448.6851,-76.4345C476.9003,-65.9572 515.8471,-51.4949 541.2237,-42.0716"/>
<polygon fill="#191970" stroke="#191970" points="447.3486,-73.1972 439.1924,-79.9595 449.7854,-79.7594 447.3486,-73.1972"/>
</g>
<!-- Node455 -->
<g id="node29" class="node">
<title>Node455</title>
<g id="a_node29"><a xlink:href="classCARLsim.html#aafb2d44405c96aafe089f96ff867018d" target="_top" xlink:title="run the simulation for time=(nSec*seconds + nMsec*milliseconds) ">
<polygon fill="#ffffff" stroke="#000000" points="684,-12 684,-31 800,-31 800,-12 684,-12"/>
<text text-anchor="middle" x="742" y="-19" font-family="Helvetica,sans-Serif" font-size="10.00" fill="#000000">CARLsim::runNetwork</text>
</a>
</g>
</g>
<!-- Node454&#45;&gt;Node455 -->
<g id="edge45" class="edge">
<title>Node454&#45;&gt;Node455</title>
<path fill="none" stroke="#191970" d="M647.4296,-27.4444C659.7203,-26.6719 672.1984,-25.8875 683.8852,-25.1529"/>
<polygon fill="#191970" stroke="#191970" points="646.9316,-23.9687 637.1709,-28.0893 647.3708,-30.9549 646.9316,-23.9687"/>
</g>
<!-- Node456 -->
<g id="node30" class="node">
<title>Node456</title>
<g id="a_node30"><a xlink:href="classSimpleWeightTuner_1_1Impl.html#a312d84bfa66a5036bb52a4c39db6fa6c" target="_top" xlink:title="SimpleWeightTuner::\lImpl::iterate">
<polygon fill="#ffffff" stroke="#000000" points="870.5,-2.5 870.5,-32.5 978.5,-32.5 978.5,-2.5 870.5,-2.5"/>
<text text-anchor="start" x="878.5" y="-20.5" font-family="Helvetica,sans-Serif" font-size="10.00" fill="#000000">SimpleWeightTuner::</text>
<text text-anchor="middle" x="924.5" y="-9.5" font-family="Helvetica,sans-Serif" font-size="10.00" fill="#000000">Impl::iterate</text>
</a>
</g>
</g>
<!-- Node455&#45;&gt;Node456 -->
<g id="edge46" class="edge">
<title>Node455&#45;&gt;Node456</title>
<path fill="none" stroke="#191970" d="M810.4152,-20.0005C830.1686,-19.5675 851.4477,-19.1011 870.2159,-18.6898"/>
<polygon fill="#191970" stroke="#191970" points="810.1668,-16.505 800.2459,-20.2234 810.3202,-23.5033 810.1668,-16.505"/>
</g>
<!-- Node457 -->
<g id="node31" class="node">
<title>Node457</title>
<g id="a_node31"><a xlink:href="classSimpleWeightTuner.html#a0df985e3ff7a27edc1e2e3fcc8261843" target="_top" xlink:title="Performs an iteration step of the tuning algorithm. ">
<polygon fill="#ffffff" stroke="#000000" points="1051.5,-.5 1051.5,-30.5 1159.5,-30.5 1159.5,-.5 1051.5,-.5"/>
<text text-anchor="start" x="1059.5" y="-18.5" font-family="Helvetica,sans-Serif" font-size="10.00" fill="#000000">SimpleWeightTuner::</text>
<text text-anchor="middle" x="1105.5" y="-7.5" font-family="Helvetica,sans-Serif" font-size="10.00" fill="#000000">iterate</text>
</a>
</g>
</g>
<!-- Node456&#45;&gt;Node457 -->
<g id="edge47" class="edge">
<title>Node456&#45;&gt;Node457</title>
<path fill="none" stroke="#191970" d="M988.9488,-16.7879C1009.33,-16.5627 1031.6383,-16.3162 1051.2324,-16.0996"/>
<polygon fill="#191970" stroke="#191970" points="988.7667,-13.2896 978.806,-16.8999 988.8441,-20.2891 988.7667,-13.2896"/>
</g>
</g>
</svg>
