<?xml version="1.0" encoding="UTF-8" standalone="no"?>
<!DOCTYPE svg PUBLIC "-//W3C//DTD SVG 1.1//EN"
 "http://www.w3.org/Graphics/SVG/1.1/DTD/svg11.dtd">
<!-- Generated by graphviz version 2.40.1 (20161225.0304)
 -->
<!-- Title: schedule Pages: 1 -->
<!--zoomable 154 -->
<svg id="main" version="1.1" xmlns="http://www.w3.org/2000/svg" xmlns:xlink="http://www.w3.org/1999/xlink" xml:space="preserve" onload="init(evt)">
<style type="text/css"><![CDATA[
.edge:hover path { stroke: red; }
.edge:hover polygon { stroke: red; fill: red; }
]]></style>
<script type="text/javascript"><![CDATA[
var edges = document.getElementsByTagName('g');
if (edges && edges.length) {
  for (var i=0;i<edges.length;i++) {
    if (edges[i].id.substr(0,4)=='edge') {
      edges[i].setAttribute('class','edge');
    }
  }
}
]]></script>
        <defs>
                <circle id="rim" cx="0" cy="0" r="7"/>
                <circle id="rim2" cx="0" cy="0" r="3.5"/>
                <g id="zoomPlus">
                        <use xlink:href="#rim" fill="#404040">
                                <set attributeName="fill" to="#808080" begin="zoomplus.mouseover" end="zoomplus.mouseout"/>
                        </use>
                        <path d="M-4,0h8M0,-4v8" fill="none" stroke="white" stroke-width="1.5" pointer-events="none"/>
                </g>
                <g id="zoomMin">
                        <use xlink:href="#rim" fill="#404040">
                                <set attributeName="fill" to="#808080" begin="zoomminus.mouseover" end="zoomminus.mouseout"/>
                        </use>
                        <path d="M-4,0h8" fill="none" stroke="white" stroke-width="1.5" pointer-events="none"/>
                </g>
                <g id="dirArrow">
                        <path fill="none" stroke="white" stroke-width="1.5" d="M0,-3.0v7 M-2.5,-0.5L0,-3.0L2.5,-0.5"/>
                </g>
               <g id="resetDef">
                       <use xlink:href="#rim2" fill="#404040">
                               <set attributeName="fill" to="#808080" begin="reset.mouseover" end="reset.mouseout"/>
                       </use>
               </g>
        </defs>

<script type="text/javascript">
var viewWidth = 1135;
var viewHeight = 154;
var sectionId = 'dynsection-9';
</script>
<script xlink:href="svgpan.js"/>
<svg id="graph" class="graph">
<g id="viewport">
<title>schedule</title>
<polygon fill="#ffffff" stroke="transparent" points="-4,4 -4,-149.5 1131,-149.5 1131,4 -4,4"/>
<!-- Node35 -->
<g id="node1" class="node">
<title>Node35</title>
<polygon fill="#bfbfbf" stroke="#000000" points="0,-28 0,-47 56,-47 56,-28 0,-28"/>
<text text-anchor="middle" x="28" y="-35" font-family="Helvetica,sans-Serif" font-size="10.00" fill="#000000">schedule</text>
</g>
<!-- Node36 -->
<g id="node2" class="node">
<title>Node36</title>
<g id="a_node2"><a xlink:href="classSNN.html#a14317186d53aeff564b126a41a333d3c" target="_top" xlink:title="access group status (currently the concentration of neuromodulator) ">
<polygon fill="#ffffff" stroke="#000000" points="92,-50 92,-69 224,-69 224,-50 92,-50"/>
<text text-anchor="middle" x="158" y="-57" font-family="Helvetica,sans-Serif" font-size="10.00" fill="#000000">SNN::updateGroupMonitor</text>
</a>
</g>
</g>
<!-- Node35&#45;&gt;Node36 -->
<g id="edge1" class="edge">
<title>Node35&#45;&gt;Node36</title>
<path fill="none" stroke="#191970" d="M66.0679,-43.9423C77.2531,-45.8351 89.7309,-47.9468 101.7967,-49.9887"/>
<polygon fill="#191970" stroke="#191970" points="66.6519,-40.4914 56.2081,-42.2737 65.4838,-47.3933 66.6519,-40.4914"/>
</g>
<!-- Node48 -->
<g id="node14" class="node">
<title>Node48</title>
<g id="a_node14"><a xlink:href="classSpikeBuffer_1_1SpikeIterator.html#a62ca91a5c80425f2cd4f6af0ca687e6a" target="_top" xlink:title="SpikeBuffer::SpikeIterator\l::operator++">
<polygon fill="#ffffff" stroke="#000000" points="93.5,-.5 93.5,-30.5 222.5,-30.5 222.5,-.5 93.5,-.5"/>
<text text-anchor="start" x="101.5" y="-18.5" font-family="Helvetica,sans-Serif" font-size="10.00" fill="#000000">SpikeBuffer::SpikeIterator</text>
<text text-anchor="middle" x="158" y="-7.5" font-family="Helvetica,sans-Serif" font-size="10.00" fill="#000000">::operator++</text>
</a>
</g>
</g>
<!-- Node35&#45;&gt;Node48 -->
<g id="edge14" class="edge">
<title>Node35&#45;&gt;Node48</title>
<path fill="none" stroke="#191970" d="M66.2,-31.0354C74.7372,-29.5906 84.0222,-28.0193 93.299,-26.4494"/>
<polygon fill="#191970" stroke="#191970" points="65.4838,-27.6067 56.2081,-32.7263 66.6519,-34.5086 65.4838,-27.6067"/>
</g>
<!-- Node37 -->
<g id="node3" class="node">
<title>Node37</title>
<g id="a_node3"><a xlink:href="classGroupMonitorCore.html#ab91616c118b701c2afd9136393d1f19b" target="_top" xlink:title="starts recording group data ">
<polygon fill="#ffffff" stroke="#000000" points="260,-88 260,-107 426,-107 426,-88 260,-88"/>
<text text-anchor="middle" x="343" y="-95" font-family="Helvetica,sans-Serif" font-size="10.00" fill="#000000">GroupMonitorCore::startRecording</text>
</a>
</g>
</g>
<!-- Node36&#45;&gt;Node37 -->
<g id="edge2" class="edge">
<title>Node36&#45;&gt;Node37</title>
<path fill="none" stroke="#191970" d="M214.52,-71.1095C240.8312,-76.514 271.7435,-82.8635 296.6524,-87.9799"/>
<polygon fill="#191970" stroke="#191970" points="215.183,-67.6727 204.6833,-69.089 213.7746,-74.5296 215.183,-67.6727"/>
</g>
<!-- Node41 -->
<g id="node7" class="node">
<title>Node41</title>
<g id="a_node7"><a xlink:href="classGroupMonitorCore.html#a25e0e98dd4519eaaa6b258f0dcb91ac7" target="_top" xlink:title="stops recording group data ">
<polygon fill="#ffffff" stroke="#000000" points="260.5,-50 260.5,-69 425.5,-69 425.5,-50 260.5,-50"/>
<text text-anchor="middle" x="343" y="-57" font-family="Helvetica,sans-Serif" font-size="10.00" fill="#000000">GroupMonitorCore::stopRecording</text>
</a>
</g>
</g>
<!-- Node36&#45;&gt;Node41 -->
<g id="edge6" class="edge">
<title>Node36&#45;&gt;Node41</title>
<path fill="none" stroke="#191970" d="M234.0278,-59.5C242.6585,-59.5 251.4869,-59.5 260.1992,-59.5"/>
<polygon fill="#191970" stroke="#191970" points="234.0058,-56.0001 224.0057,-59.5 234.0057,-63.0001 234.0058,-56.0001"/>
</g>
<!-- Node43 -->
<g id="node9" class="node">
<title>Node43</title>
<g id="a_node9"><a xlink:href="classSNN.html#a3df37c7539f784fe7a939c5da922f41b" target="_top" xlink:title="run the simulation for n sec ">
<polygon fill="#ffffff" stroke="#000000" points="295.5,-12 295.5,-31 390.5,-31 390.5,-12 295.5,-12"/>
<text text-anchor="middle" x="343" y="-19" font-family="Helvetica,sans-Serif" font-size="10.00" fill="#000000">SNN::runNetwork</text>
</a>
</g>
</g>
<!-- Node36&#45;&gt;Node43 -->
<g id="edge9" class="edge">
<title>Node36&#45;&gt;Node43</title>
<path fill="none" stroke="#191970" d="M214.52,-47.8905C240.8312,-42.486 271.7435,-36.1365 296.6524,-31.0201"/>
<polygon fill="#191970" stroke="#191970" points="213.7746,-44.4704 204.6833,-49.911 215.183,-51.3273 213.7746,-44.4704"/>
</g>
<!-- Node38 -->
<g id="node4" class="node">
<title>Node38</title>
<g id="a_node4"><a xlink:href="classGroupMonitor.html#ab91616c118b701c2afd9136393d1f19b" target="_top" xlink:title="Starts a new recording period. ">
<polygon fill="#ffffff" stroke="#000000" points="480,-126 480,-145 625,-145 625,-126 480,-126"/>
<text text-anchor="middle" x="552.5" y="-133" font-family="Helvetica,sans-Serif" font-size="10.00" fill="#000000">GroupMonitor::startRecording</text>
</a>
</g>
</g>
<!-- Node37&#45;&gt;Node38 -->
<g id="edge3" class="edge">
<title>Node37&#45;&gt;Node38</title>
<path fill="none" stroke="#191970" d="M405.5575,-108.847C435.616,-114.2991 471.2397,-120.7607 499.8831,-125.9561"/>
<polygon fill="#191970" stroke="#191970" points="406.0594,-105.3809 395.5953,-107.04 404.8101,-112.2686 406.0594,-105.3809"/>
</g>
<!-- Node39 -->
<g id="node5" class="node">
<title>Node39</title>
<g id="a_node5"><a xlink:href="classGroupMonitorCore.html#a7ac2c997b5281ea2f2bc00cc9706d37c" target="_top" xlink:title="sets status of PersistentData mode ">
<polygon fill="#ffffff" stroke="#000000" points="462,-88 462,-107 643,-107 643,-88 462,-88"/>
<text text-anchor="middle" x="552.5" y="-95" font-family="Helvetica,sans-Serif" font-size="10.00" fill="#000000">GroupMonitorCore::setPersistentData</text>
</a>
</g>
</g>
<!-- Node37&#45;&gt;Node39 -->
<g id="edge4" class="edge">
<title>Node37&#45;&gt;Node39</title>
<path fill="none" stroke="#191970" d="M436.1055,-97.5C444.6811,-97.5 453.3622,-97.5 461.9149,-97.5"/>
<polygon fill="#191970" stroke="#191970" points="436.1009,-94.0001 426.1008,-97.5 436.1008,-101.0001 436.1009,-94.0001"/>
</g>
<!-- Node40 -->
<g id="node6" class="node">
<title>Node40</title>
<g id="a_node6"><a xlink:href="classGroupMonitor.html#a7ac2c997b5281ea2f2bc00cc9706d37c" target="_top" xlink:title="Sets PersistentMode either on (true) or off (false) ">
<polygon fill="#ffffff" stroke="#000000" points="679,-88 679,-107 839,-107 839,-88 679,-88"/>
<text text-anchor="middle" x="759" y="-95" font-family="Helvetica,sans-Serif" font-size="10.00" fill="#000000">GroupMonitor::setPersistentData</text>
</a>
</g>
</g>
<!-- Node39&#45;&gt;Node40 -->
<g id="edge5" class="edge">
<title>Node39&#45;&gt;Node40</title>
<path fill="none" stroke="#191970" d="M653.1716,-97.5C661.795,-97.5 670.4425,-97.5 678.8731,-97.5"/>
<polygon fill="#191970" stroke="#191970" points="653.0739,-94.0001 643.0739,-97.5 653.0739,-101.0001 653.0739,-94.0001"/>
</g>
<!-- Node41&#45;&gt;Node39 -->
<g id="edge8" class="edge">
<title>Node41&#45;&gt;Node39</title>
<path fill="none" stroke="#191970" d="M405.5575,-70.847C435.616,-76.2991 471.2397,-82.7607 499.8831,-87.9561"/>
<polygon fill="#191970" stroke="#191970" points="406.0594,-67.3809 395.5953,-69.04 404.8101,-74.2686 406.0594,-67.3809"/>
</g>
<!-- Node42 -->
<g id="node8" class="node">
<title>Node42</title>
<g id="a_node8"><a xlink:href="classGroupMonitor.html#a25e0e98dd4519eaaa6b258f0dcb91ac7" target="_top" xlink:title="Ends a recording period. ">
<polygon fill="#ffffff" stroke="#000000" points="480.5,-50 480.5,-69 624.5,-69 624.5,-50 480.5,-50"/>
<text text-anchor="middle" x="552.5" y="-57" font-family="Helvetica,sans-Serif" font-size="10.00" fill="#000000">GroupMonitor::stopRecording</text>
</a>
</g>
</g>
<!-- Node41&#45;&gt;Node42 -->
<g id="edge7" class="edge">
<title>Node41&#45;&gt;Node42</title>
<path fill="none" stroke="#191970" d="M436.046,-59.5C450.9414,-59.5 466.1565,-59.5 480.4661,-59.5"/>
<polygon fill="#191970" stroke="#191970" points="435.8,-56.0001 425.7999,-59.5 435.7999,-63.0001 435.8,-56.0001"/>
</g>
<!-- Node44 -->
<g id="node10" class="node">
<title>Node44</title>
<g id="a_node10"><a xlink:href="classCARLsim_1_1Impl.html#a749f370debe5eec8661cf9ca1b1bb4c0" target="_top" xlink:title="CARLsim::Impl::runNetwork">
<polygon fill="#ffffff" stroke="#000000" points="482.5,-12 482.5,-31 622.5,-31 622.5,-12 482.5,-12"/>
<text text-anchor="middle" x="552.5" y="-19" font-family="Helvetica,sans-Serif" font-size="10.00" fill="#000000">CARLsim::Impl::runNetwork</text>
</a>
</g>
</g>
<!-- Node43&#45;&gt;Node44 -->
<g id="edge10" class="edge">
<title>Node43&#45;&gt;Node44</title>
<path fill="none" stroke="#191970" d="M400.7115,-21.5C426.0099,-21.5 455.9282,-21.5 482.487,-21.5"/>
<polygon fill="#191970" stroke="#191970" points="400.5388,-18.0001 390.5388,-21.5 400.5388,-25.0001 400.5388,-18.0001"/>
</g>
<!-- Node45 -->
<g id="node11" class="node">
<title>Node45</title>
<g id="a_node11"><a xlink:href="classCARLsim.html#aafb2d44405c96aafe089f96ff867018d" target="_top" xlink:title="run the simulation for time=(nSec*seconds + nMsec*milliseconds) ">
<polygon fill="#ffffff" stroke="#000000" points="701,-12 701,-31 817,-31 817,-12 701,-12"/>
<text text-anchor="middle" x="759" y="-19" font-family="Helvetica,sans-Serif" font-size="10.00" fill="#000000">CARLsim::runNetwork</text>
</a>
</g>
</g>
<!-- Node44&#45;&gt;Node45 -->
<g id="edge11" class="edge">
<title>Node44&#45;&gt;Node45</title>
<path fill="none" stroke="#191970" d="M632.9498,-21.5C655.5298,-21.5 679.641,-21.5 700.6658,-21.5"/>
<polygon fill="#191970" stroke="#191970" points="632.6997,-18.0001 622.6996,-21.5 632.6996,-25.0001 632.6997,-18.0001"/>
</g>
<!-- Node46 -->
<g id="node12" class="node">
<title>Node46</title>
<g id="a_node12"><a xlink:href="classSimpleWeightTuner_1_1Impl.html#a312d84bfa66a5036bb52a4c39db6fa6c" target="_top" xlink:title="SimpleWeightTuner::\lImpl::iterate">
<polygon fill="#ffffff" stroke="#000000" points="875,-6.5 875,-36.5 983,-36.5 983,-6.5 875,-6.5"/>
<text text-anchor="start" x="883" y="-24.5" font-family="Helvetica,sans-Serif" font-size="10.00" fill="#000000">SimpleWeightTuner::</text>
<text text-anchor="middle" x="929" y="-13.5" font-family="Helvetica,sans-Serif" font-size="10.00" fill="#000000">Impl::iterate</text>
</a>
</g>
</g>
<!-- Node45&#45;&gt;Node46 -->
<g id="edge12" class="edge">
<title>Node45&#45;&gt;Node46</title>
<path fill="none" stroke="#191970" d="M827.3047,-21.5C843.1556,-21.5 859.8128,-21.5 874.9527,-21.5"/>
<polygon fill="#191970" stroke="#191970" points="827.0289,-18.0001 817.0289,-21.5 827.0288,-25.0001 827.0289,-18.0001"/>
</g>
<!-- Node47 -->
<g id="node13" class="node">
<title>Node47</title>
<g id="a_node13"><a xlink:href="classSimpleWeightTuner.html#a0df985e3ff7a27edc1e2e3fcc8261843" target="_top" xlink:title="Performs an iteration step of the tuning algorithm. ">
<polygon fill="#ffffff" stroke="#000000" points="1019,-6.5 1019,-36.5 1127,-36.5 1127,-6.5 1019,-6.5"/>
<text text-anchor="start" x="1027" y="-24.5" font-family="Helvetica,sans-Serif" font-size="10.00" fill="#000000">SimpleWeightTuner::</text>
<text text-anchor="middle" x="1073" y="-13.5" font-family="Helvetica,sans-Serif" font-size="10.00" fill="#000000">iterate</text>
</a>
</g>
</g>
<!-- Node46&#45;&gt;Node47 -->
<g id="edge13" class="edge">
<title>Node46&#45;&gt;Node47</title>
<path fill="none" stroke="#191970" d="M993.2702,-21.5C1001.7504,-21.5 1010.3754,-21.5 1018.6672,-21.5"/>
<polygon fill="#191970" stroke="#191970" points="993.03,-18.0001 983.03,-21.5 993.0299,-25.0001 993.03,-18.0001"/>
</g>
</g>
</svg>
        <g id="navigator" transform="translate(0 0)" fill="#404254">
                <rect fill="#f2f5e9" fill-opacity="0.5" stroke="#606060" stroke-width=".5" x="0" y="0" width="60" height="60"/>
                <use id="zoomplus" xlink:href="#zoomPlus" x="17" y="9" onmousedown="handleZoom(evt,'in')"/>
                <use id="zoomminus" xlink:href="#zoomMin" x="42" y="9" onmousedown="handleZoom(evt,'out')"/>
                <use id="reset" xlink:href="#resetDef" x="30" y="36" onmousedown="handleReset()"/>
                <g id="arrowUp" xlink:href="#dirArrow" transform="translate(30 24)" onmousedown="handlePan(0,-1)">
                  <use xlink:href="#rim" fill="#404040">
                        <set attributeName="fill" to="#808080" begin="arrowUp.mouseover" end="arrowUp.mouseout"/>
                  </use>
                  <path fill="none" stroke="white" stroke-width="1.5" d="M0,-3.0v7 M-2.5,-0.5L0,-3.0L2.5,-0.5"/>
                </g>
                <g id="arrowRight" xlink:href="#dirArrow" transform="rotate(90) translate(36 -43)" onmousedown="handlePan(1,0)">
                  <use xlink:href="#rim" fill="#404040">
                        <set attributeName="fill" to="#808080" begin="arrowRight.mouseover" end="arrowRight.mouseout"/>
                  </use>
                  <path fill="none" stroke="white" stroke-width="1.5" d="M0,-3.0v7 M-2.5,-0.5L0,-3.0L2.5,-0.5"/>
                </g>
                <g id="arrowDown" xlink:href="#dirArrow" transform="rotate(180) translate(-30 -48)" onmousedown="handlePan(0,1)">
                  <use xlink:href="#rim" fill="#404040">
                        <set attributeName="fill" to="#808080" begin="arrowDown.mouseover" end="arrowDown.mouseout"/>
                  </use>
                  <path fill="none" stroke="white" stroke-width="1.5" d="M0,-3.0v7 M-2.5,-0.5L0,-3.0L2.5,-0.5"/>
                </g>
                <g id="arrowLeft" xlink:href="#dirArrow" transform="rotate(270) translate(-36 17)" onmousedown="handlePan(-1,0)">
                  <use xlink:href="#rim" fill="#404040">
                        <set attributeName="fill" to="#808080" begin="arrowLeft.mouseover" end="arrowLeft.mouseout"/>
                  </use>
                  <path fill="none" stroke="white" stroke-width="1.5" d="M0,-3.0v7 M-2.5,-0.5L0,-3.0L2.5,-0.5"/>
                </g>
        </g>
        <svg viewBox="0 0 15 15" width="100%" height="30px" preserveAspectRatio="xMaxYMin meet">
         <g id="arrow_out" transform="scale(0.3 0.3)">
          <a xlink:href="classSpikeBuffer_a5922ba31daa2c306a5c1ecbf8d19220d_icgraph_org.svg" target="_base">
           <rect id="button" ry="5" rx="5" y="6" x="6" height="38" width="38"
                fill="#f2f5e9" fill-opacity="0.5" stroke="#606060" stroke-width="1.0"/>
           <path id="arrow"
             d="M 11.500037,31.436501 C 11.940474,20.09759 22.043105,11.32322 32.158766,21.979434 L 37.068811,17.246167 C 37.068811,17.246167 37.088388,32 37.088388,32 L 22.160133,31.978069 C 22.160133,31.978069 26.997745,27.140456 26.997745,27.140456 C 18.528582,18.264221 13.291696,25.230495 11.500037,31.436501 z"
             style="fill:#404040;"/>
          </a>
         </g>
        </svg>
</svg>
