<?xml version="1.0" encoding="UTF-8" standalone="no"?>
<!DOCTYPE svg PUBLIC "-//W3C//DTD SVG 1.1//EN"
 "http://www.w3.org/Graphics/SVG/1.1/DTD/svg11.dtd">
<!-- Generated by graphviz version 2.40.1 (20161225.0304)
 -->
<!-- Title: getRatePtrCPU Pages: 1 -->
<svg width="364pt" height="28pt"
 viewBox="0.00 0.00 364.00 28.00" xmlns="http://www.w3.org/2000/svg" xmlns:xlink="http://www.w3.org/1999/xlink">
<g id="graph0" class="graph" transform="scale(1 1) rotate(0) translate(4 24)">
<title>getRatePtrCPU</title>
<polygon fill="#ffffff" stroke="transparent" points="-4,4 -4,-24 360,-24 360,4 -4,4"/>
<!-- Node29 -->
<g id="node1" class="node">
<title>Node29</title>
<polygon fill="#bfbfbf" stroke="#000000" points="0,-.5 0,-19.5 86,-19.5 86,-.5 0,-.5"/>
<text text-anchor="middle" x="43" y="-7.5" font-family="Helvetica,sans-Serif" font-size="10.00" fill="#000000">getRatePtrCPU</text>
</g>
<!-- Node30 -->
<g id="node2" class="node">
<title>Node30</title>
<g id="a_node2"><a xlink:href="classPoissonRate.html#a855d40a5432bc45e3f614bf7fce96d80" target="_top" xlink:title="Returns pointer to CPU&#45;allocated firing rate array (deprecated) ">
<polygon fill="#ffffff" stroke="#000000" points="122,-.5 122,-19.5 270,-19.5 270,-.5 122,-.5"/>
<text text-anchor="middle" x="196" y="-7.5" font-family="Helvetica,sans-Serif" font-size="10.00" fill="#000000">PoissonRate::getRatePtrCPU</text>
</a>
</g>
</g>
<!-- Node29&#45;&gt;Node30 -->
<g id="edge1" class="edge">
<title>Node29&#45;&gt;Node30</title>
<path fill="none" stroke="#191970" d="M96.2236,-10C104.4685,-10 113.1121,-10 121.7182,-10"/>
<polygon fill="#191970" stroke="#191970" points="96.0262,-6.5001 86.0262,-10 96.0262,-13.5001 96.0262,-6.5001"/>
</g>
<!-- Node31 -->
<g id="node3" class="node">
<title>Node31</title>
<g id="a_node3"><a xlink:href="snn__cpu__module_8cpp.html#ac42c21b5ae4b743f8e00b7dfe04dcfe3" target="_top" xlink:title="dvdtLIF">
<polygon fill="#ffffff" stroke="#000000" points="306,-.5 306,-19.5 356,-19.5 356,-.5 306,-.5"/>
<text text-anchor="middle" x="331" y="-7.5" font-family="Helvetica,sans-Serif" font-size="10.00" fill="#000000">dvdtLIF</text>
</a>
</g>
</g>
<!-- Node30&#45;&gt;Node31 -->
<g id="edge2" class="edge">
<title>Node30&#45;&gt;Node31</title>
<path fill="none" stroke="#191970" d="M280.3617,-10C289.5842,-10 298.358,-10 305.9326,-10"/>
<polygon fill="#191970" stroke="#191970" points="280.2138,-6.5001 270.2137,-10 280.2137,-13.5001 280.2138,-6.5001"/>
</g>
</g>
</svg>
