<?xml version="1.0" encoding="UTF-8" standalone="no"?>
<!DOCTYPE svg PUBLIC "-//W3C//DTD SVG 1.1//EN"
 "http://www.w3.org/Graphics/SVG/1.1/DTD/svg11.dtd">
<!-- Generated by graphviz version 2.40.1 (20161225.0304)
 -->
<!-- Title: setHomeoBaseFiringRate Pages: 1 -->
<svg width="668pt" height="180pt"
 viewBox="0.00 0.00 668.00 180.00" xmlns="http://www.w3.org/2000/svg" xmlns:xlink="http://www.w3.org/1999/xlink">
<g id="graph0" class="graph" transform="scale(1 1) rotate(0) translate(4 176)">
<title>setHomeoBaseFiringRate</title>
<polygon fill="#ffffff" stroke="transparent" points="-4,4 -4,-176 664,-176 664,4 -4,4"/>
<!-- Node934 -->
<g id="node1" class="node">
<title>Node934</title>
<polygon fill="#bfbfbf" stroke="#000000" points="0,-76.5 0,-95.5 129,-95.5 129,-76.5 0,-76.5"/>
<text text-anchor="middle" x="64.5" y="-83.5" font-family="Helvetica,sans-Serif" font-size="10.00" fill="#000000">setHomeoBaseFiringRate</text>
</g>
<!-- Node935 -->
<g id="node2" class="node">
<title>Node935</title>
<g id="a_node2"><a xlink:href="classCARLsim_1_1Impl.html#ab0367f8ebd4019bf7d34ebddb1563fe7" target="_top" xlink:title="getGroupName">
<polygon fill="#ffffff" stroke="#000000" points="202,-76.5 202,-95.5 285,-95.5 285,-76.5 202,-76.5"/>
<text text-anchor="middle" x="243.5" y="-83.5" font-family="Helvetica,sans-Serif" font-size="10.00" fill="#000000">getGroupName</text>
</a>
</g>
</g>
<!-- Node934&#45;&gt;Node935 -->
<g id="edge1" class="edge">
<title>Node934&#45;&gt;Node935</title>
<path fill="none" stroke="#191970" d="M129.1231,-86C149.6654,-86 172.107,-86 191.6285,-86"/>
<polygon fill="#191970" stroke="#191970" points="191.843,-89.5001 201.843,-86 191.8429,-82.5001 191.843,-89.5001"/>
</g>
<!-- Node936 -->
<g id="node3" class="node">
<title>Node936</title>
<g id="a_node3"><a xlink:href="classUserErrors.html#a4bbedc6c0817d5e59e74e450bf00472c" target="_top" xlink:title="simple wrapper for assert statement ">
<polygon fill="#ffffff" stroke="#000000" points="378,-114.5 378,-133.5 494,-133.5 494,-114.5 378,-114.5"/>
<text text-anchor="middle" x="436" y="-121.5" font-family="Helvetica,sans-Serif" font-size="10.00" fill="#000000">UserErrors::assertTrue</text>
</a>
</g>
</g>
<!-- Node934&#45;&gt;Node936 -->
<g id="edge6" class="edge">
<title>Node934&#45;&gt;Node936</title>
<path fill="none" stroke="#191970" d="M108.8479,-95.5407C126.2791,-98.9868 146.5087,-102.6122 165,-105 233.6619,-113.8665 312.6832,-118.8119 367.6088,-121.4177"/>
<polygon fill="#191970" stroke="#191970" points="367.7686,-124.9286 377.9191,-121.8927 368.0908,-117.9361 367.7686,-124.9286"/>
</g>
<!-- Node940 -->
<g id="node7" class="node">
<title>Node940</title>
<g id="a_node7"><a xlink:href="classCARLsim_1_1Impl.html#ae136e178382096490a2d34f78cd2afa2" target="_top" xlink:title="isPoissonGroup">
<polygon fill="#ffffff" stroke="#000000" points="200.5,-38.5 200.5,-57.5 286.5,-57.5 286.5,-38.5 200.5,-38.5"/>
<text text-anchor="middle" x="243.5" y="-45.5" font-family="Helvetica,sans-Serif" font-size="10.00" fill="#000000">isPoissonGroup</text>
</a>
</g>
</g>
<!-- Node934&#45;&gt;Node940 -->
<g id="edge7" class="edge">
<title>Node934&#45;&gt;Node940</title>
<path fill="none" stroke="#191970" d="M109.6693,-76.411C134.173,-71.2091 164.6079,-64.748 190.2601,-59.3023"/>
<polygon fill="#191970" stroke="#191970" points="191.1425,-62.6931 200.1976,-57.1927 189.6888,-55.8457 191.1425,-62.6931"/>
</g>
<!-- Node942 -->
<g id="node9" class="node">
<title>Node942</title>
<g id="a_node9"><a xlink:href="classCARLsim_1_1Impl.html#aa9a9c5646dd11beb60fcf70d2216024a" target="_top" xlink:title="isGroupWithHomeostasis">
<polygon fill="#ffffff" stroke="#000000" points="179.5,-152.5 179.5,-171.5 307.5,-171.5 307.5,-152.5 179.5,-152.5"/>
<text text-anchor="middle" x="243.5" y="-159.5" font-family="Helvetica,sans-Serif" font-size="10.00" fill="#000000">isGroupWithHomeostasis</text>
</a>
</g>
</g>
<!-- Node934&#45;&gt;Node942 -->
<g id="edge11" class="edge">
<title>Node934&#45;&gt;Node942</title>
<path fill="none" stroke="#191970" d="M80.78,-95.5926C100.3053,-106.8195 134.2562,-125.4669 165,-138 175.4069,-142.2425 186.8512,-146.1486 197.7062,-149.523"/>
<polygon fill="#191970" stroke="#191970" points="196.878,-152.929 207.4628,-152.4669 198.9002,-146.2274 196.878,-152.929"/>
</g>
<!-- Node945 -->
<g id="node12" class="node">
<title>Node945</title>
<g id="a_node12"><a xlink:href="classSNN.html#a9a258903678511cb83bf31f275a283d2" target="_top" xlink:title="Sets homeostatic target firing rate (enforced through homeostatic synaptic scaling) ...">
<polygon fill="#ffffff" stroke="#000000" points="165,-.5 165,-19.5 322,-19.5 322,-.5 165,-.5"/>
<text text-anchor="middle" x="243.5" y="-7.5" font-family="Helvetica,sans-Serif" font-size="10.00" fill="#000000">SNN::setHomeoBaseFiringRate</text>
</a>
</g>
</g>
<!-- Node934&#45;&gt;Node945 -->
<g id="edge17" class="edge">
<title>Node934&#45;&gt;Node945</title>
<path fill="none" stroke="#191970" d="M78.5135,-76.37C97.3802,-63.8075 132.3583,-41.9127 165,-29 171.3075,-26.5048 178.0343,-24.2742 184.7967,-22.2972"/>
<polygon fill="#191970" stroke="#191970" points="185.9694,-25.6048 194.6851,-19.581 184.1152,-18.8548 185.9694,-25.6048"/>
</g>
<!-- Node935&#45;&gt;Node936 -->
<g id="edge2" class="edge">
<title>Node935&#45;&gt;Node936</title>
<path fill="none" stroke="#191970" d="M285.2696,-94.2454C312.3914,-99.5993 348.1187,-106.652 377.9825,-112.5472"/>
<polygon fill="#191970" stroke="#191970" points="377.376,-115.9949 387.8645,-114.4979 378.7317,-109.1275 377.376,-115.9949"/>
</g>
<!-- Node937 -->
<g id="node4" class="node">
<title>Node937</title>
<g id="a_node4"><a xlink:href="classCARLsim_1_1Impl.html#a292bdee57fec7c77ec4c15ea3f508d60" target="_top" xlink:title="getNumGroups">
<polygon fill="#ffffff" stroke="#000000" points="394.5,-38.5 394.5,-57.5 477.5,-57.5 477.5,-38.5 394.5,-38.5"/>
<text text-anchor="middle" x="436" y="-45.5" font-family="Helvetica,sans-Serif" font-size="10.00" fill="#000000">getNumGroups</text>
</a>
</g>
</g>
<!-- Node935&#45;&gt;Node937 -->
<g id="edge3" class="edge">
<title>Node935&#45;&gt;Node937</title>
<path fill="none" stroke="#191970" d="M285.2696,-77.7546C314.279,-72.028 353.1334,-64.3581 384.1277,-58.2397"/>
<polygon fill="#191970" stroke="#191970" points="385.1791,-61.5998 394.3119,-56.2293 383.8234,-54.7323 385.1791,-61.5998"/>
</g>
<!-- Node939 -->
<g id="node6" class="node">
<title>Node939</title>
<g id="a_node6"><a xlink:href="classSNN.html#ab0367f8ebd4019bf7d34ebddb1563fe7" target="_top" xlink:title="SNN::getGroupName">
<polygon fill="#ffffff" stroke="#000000" points="381,-76.5 381,-95.5 491,-95.5 491,-76.5 381,-76.5"/>
<text text-anchor="middle" x="436" y="-83.5" font-family="Helvetica,sans-Serif" font-size="10.00" fill="#000000">SNN::getGroupName</text>
</a>
</g>
</g>
<!-- Node935&#45;&gt;Node939 -->
<g id="edge5" class="edge">
<title>Node935&#45;&gt;Node939</title>
<path fill="none" stroke="#191970" d="M285.2696,-86C310.1859,-86 342.365,-86 370.5885,-86"/>
<polygon fill="#191970" stroke="#191970" points="370.7869,-89.5001 380.7869,-86 370.7868,-82.5001 370.7869,-89.5001"/>
</g>
<!-- Node938 -->
<g id="node5" class="node">
<title>Node938</title>
<g id="a_node5"><a xlink:href="classSNN.html#a292bdee57fec7c77ec4c15ea3f508d60" target="_top" xlink:title="SNN::getNumGroups">
<polygon fill="#ffffff" stroke="#000000" points="550,-76.5 550,-95.5 660,-95.5 660,-76.5 550,-76.5"/>
<text text-anchor="middle" x="605" y="-83.5" font-family="Helvetica,sans-Serif" font-size="10.00" fill="#000000">SNN::getNumGroups</text>
</a>
</g>
</g>
<!-- Node937&#45;&gt;Node938 -->
<g id="edge4" class="edge">
<title>Node937&#45;&gt;Node938</title>
<path fill="none" stroke="#191970" d="M477.7753,-57.3933C500.3545,-62.4702 528.4569,-68.7891 552.5025,-74.1958"/>
<polygon fill="#191970" stroke="#191970" points="552.0072,-77.6718 562.5314,-76.4509 553.5429,-70.8423 552.0072,-77.6718"/>
</g>
<!-- Node940&#45;&gt;Node936 -->
<g id="edge8" class="edge">
<title>Node940&#45;&gt;Node936</title>
<path fill="none" stroke="#191970" d="M286.7538,-53.8184C298.7094,-56.6383 311.3221,-60.8159 322,-67 342.1319,-78.6593 337.8766,-93.3259 358,-105 361.7298,-107.1637 365.6972,-109.082 369.7904,-110.7825"/>
<polygon fill="#191970" stroke="#191970" points="368.9234,-114.1931 379.5168,-114.3682 371.3448,-107.6252 368.9234,-114.1931"/>
</g>
<!-- Node940&#45;&gt;Node937 -->
<g id="edge9" class="edge">
<title>Node940&#45;&gt;Node937</title>
<path fill="none" stroke="#191970" d="M286.7008,-48C315.5825,-48 353.732,-48 384.2376,-48"/>
<polygon fill="#191970" stroke="#191970" points="384.2656,-51.5001 394.2656,-48 384.2655,-44.5001 384.2656,-51.5001"/>
</g>
<!-- Node941 -->
<g id="node8" class="node">
<title>Node941</title>
<g id="a_node8"><a xlink:href="classSNN.html#a3764348d44236ad4932627cd4d199c31" target="_top" xlink:title="SNN::isPoissonGroup">
<polygon fill="#ffffff" stroke="#000000" points="379.5,-.5 379.5,-19.5 492.5,-19.5 492.5,-.5 379.5,-.5"/>
<text text-anchor="middle" x="436" y="-7.5" font-family="Helvetica,sans-Serif" font-size="10.00" fill="#000000">SNN::isPoissonGroup</text>
</a>
</g>
</g>
<!-- Node940&#45;&gt;Node941 -->
<g id="edge10" class="edge">
<title>Node940&#45;&gt;Node941</title>
<path fill="none" stroke="#191970" d="M286.7008,-39.4721C313.5729,-34.1674 348.4679,-27.2791 377.7645,-21.4958"/>
<polygon fill="#191970" stroke="#191970" points="378.7385,-24.8712 387.8713,-19.5007 377.3828,-18.0037 378.7385,-24.8712"/>
</g>
<!-- Node942&#45;&gt;Node936 -->
<g id="edge12" class="edge">
<title>Node942&#45;&gt;Node936</title>
<path fill="none" stroke="#191970" d="M292.0759,-152.411C318.1649,-147.261 350.5058,-140.8768 377.9179,-135.4656"/>
<polygon fill="#191970" stroke="#191970" points="378.6406,-138.8905 387.7734,-133.5201 377.2849,-132.023 378.6406,-138.8905"/>
</g>
<!-- Node942&#45;&gt;Node937 -->
<g id="edge13" class="edge">
<title>Node942&#45;&gt;Node937</title>
<path fill="none" stroke="#191970" d="M258.2872,-152.4613C274.5392,-141.7097 301.1117,-123.3289 322,-105 339.4868,-89.6558 337.8766,-78.6741 358,-67 366.0567,-62.3261 375.2224,-58.7977 384.3691,-56.1351"/>
<polygon fill="#191970" stroke="#191970" points="385.4346,-59.4746 394.2333,-53.5727 383.6745,-52.6995 385.4346,-59.4746"/>
</g>
<!-- Node943 -->
<g id="node10" class="node">
<title>Node943</title>
<g id="a_node10"><a xlink:href="classSNN.html#aa9a9c5646dd11beb60fcf70d2216024a" target="_top" xlink:title="returns whether group has homeostasis enabled (true) or not (false) ">
<polygon fill="#ffffff" stroke="#000000" points="358,-152.5 358,-171.5 514,-171.5 514,-152.5 358,-152.5"/>
<text text-anchor="middle" x="436" y="-159.5" font-family="Helvetica,sans-Serif" font-size="10.00" fill="#000000">SNN::isGroupWithHomeostasis</text>
</a>
</g>
</g>
<!-- Node942&#45;&gt;Node943 -->
<g id="edge14" class="edge">
<title>Node942&#45;&gt;Node943</title>
<path fill="none" stroke="#191970" d="M307.5997,-162C320.4116,-162 334.0821,-162 347.5478,-162"/>
<polygon fill="#191970" stroke="#191970" points="347.7875,-165.5001 357.7874,-162 347.7874,-158.5001 347.7875,-165.5001"/>
</g>
<!-- Node943&#45;&gt;Node938 -->
<g id="edge15" class="edge">
<title>Node943&#45;&gt;Node938</title>
<path fill="none" stroke="#191970" d="M485.4579,-152.4913C495.106,-149.9318 505.011,-146.7927 514,-143 539.5959,-132.2005 566.2288,-114.6589 584.0177,-101.8842"/>
<polygon fill="#191970" stroke="#191970" points="586.4625,-104.432 592.4617,-95.6993 582.3261,-98.7848 586.4625,-104.432"/>
</g>
<!-- Node944 -->
<g id="node11" class="node">
<title>Node944</title>
<g id="a_node11"><a xlink:href="classSNN.html#a477f99451786873b73e2623b6f89b766" target="_top" xlink:title="deallocates all dynamical structures and exits ">
<polygon fill="#ffffff" stroke="#000000" points="552,-152.5 552,-171.5 658,-171.5 658,-152.5 552,-152.5"/>
<text text-anchor="middle" x="605" y="-159.5" font-family="Helvetica,sans-Serif" font-size="10.00" fill="#000000">SNN::exitSimulation</text>
</a>
</g>
</g>
<!-- Node943&#45;&gt;Node944 -->
<g id="edge16" class="edge">
<title>Node943&#45;&gt;Node944</title>
<path fill="none" stroke="#191970" d="M514.069,-162C523.369,-162 532.7735,-162 541.8283,-162"/>
<polygon fill="#191970" stroke="#191970" points="541.8789,-165.5001 551.8788,-162 541.8788,-158.5001 541.8789,-165.5001"/>
</g>
</g>
</svg>
