<?xml version="1.0" encoding="UTF-8" standalone="no"?>
<!DOCTYPE svg PUBLIC "-//W3C//DTD SVG 1.1//EN"
 "http://www.w3.org/Graphics/SVG/1.1/DTD/svg11.dtd">
<!-- Generated by graphviz version 2.40.1 (20161225.0304)
 -->
<!-- Title: getAllFiringRates Pages: 1 -->
<svg width="1518pt" height="524pt"
 viewBox="0.00 0.00 1518.00 524.00" xmlns="http://www.w3.org/2000/svg" xmlns:xlink="http://www.w3.org/1999/xlink">
<g id="graph0" class="graph" transform="scale(1 1) rotate(0) translate(4 520)">
<title>getAllFiringRates</title>
<polygon fill="#ffffff" stroke="transparent" points="-4,4 -4,-520 1514,-520 1514,4 -4,4"/>
<!-- Node22 -->
<g id="node1" class="node">
<title>Node22</title>
<polygon fill="#bfbfbf" stroke="#000000" points="0,-129.5 0,-148.5 92,-148.5 92,-129.5 0,-129.5"/>
<text text-anchor="middle" x="46" y="-136.5" font-family="Helvetica,sans-Serif" font-size="10.00" fill="#000000">getAllFiringRates</text>
</g>
<!-- Node23 -->
<g id="node2" class="node">
<title>Node23</title>
<g id="a_node2"><a xlink:href="classUserErrors.html#a4bbedc6c0817d5e59e74e450bf00472c" target="_top" xlink:title="simple wrapper for assert statement ">
<polygon fill="#ffffff" stroke="#000000" points="128,-167.5 128,-186.5 244,-186.5 244,-167.5 128,-167.5"/>
<text text-anchor="middle" x="186" y="-174.5" font-family="Helvetica,sans-Serif" font-size="10.00" fill="#000000">UserErrors::assertTrue</text>
</a>
</g>
</g>
<!-- Node22&#45;&gt;Node23 -->
<g id="edge1" class="edge">
<title>Node22&#45;&gt;Node23</title>
<path fill="none" stroke="#191970" d="M81.3279,-148.589C99.4006,-153.4944 121.5984,-159.5196 140.8945,-164.7571"/>
<polygon fill="#191970" stroke="#191970" points="140.1157,-168.1723 150.6834,-167.4141 141.9494,-161.4167 140.1157,-168.1723"/>
</g>
<!-- Node24 -->
<g id="node3" class="node">
<title>Node24</title>
<g id="a_node3"><a xlink:href="classSpikeMonitor.html#a3a3ffdb35b09328d22e5d72503ed1f55" target="_top" xlink:title="Recording status (true=recording, false=not recording) ">
<polygon fill="#ffffff" stroke="#000000" points="152,-129.5 152,-148.5 220,-148.5 220,-129.5 152,-129.5"/>
<text text-anchor="middle" x="186" y="-136.5" font-family="Helvetica,sans-Serif" font-size="10.00" fill="#000000">isRecording</text>
</a>
</g>
</g>
<!-- Node22&#45;&gt;Node24 -->
<g id="edge2" class="edge">
<title>Node22&#45;&gt;Node24</title>
<path fill="none" stroke="#191970" d="M92.2292,-139C108.1709,-139 125.9791,-139 141.7581,-139"/>
<polygon fill="#191970" stroke="#191970" points="141.7942,-142.5001 151.7941,-139 141.7941,-135.5001 141.7942,-142.5001"/>
</g>
<!-- Node35 -->
<g id="node14" class="node">
<title>Node35</title>
<g id="a_node14"><a xlink:href="classSpikeMonitorCore.html#a0fc20fcc5876030d796debd148ae7cee" target="_top" xlink:title="returns a list of firing rates for all neurons in the group (sorted by neuron ID ascending) ...">
<polygon fill="#ffffff" stroke="#000000" points="824.5,-17 824.5,-47 949.5,-47 949.5,-17 824.5,-17"/>
<text text-anchor="start" x="832.5" y="-35" font-family="Helvetica,sans-Serif" font-size="10.00" fill="#000000">SpikeMonitorCore::getAll</text>
<text text-anchor="middle" x="887" y="-24" font-family="Helvetica,sans-Serif" font-size="10.00" fill="#000000">FiringRates</text>
</a>
</g>
</g>
<!-- Node22&#45;&gt;Node35 -->
<g id="edge30" class="edge">
<title>Node22&#45;&gt;Node35</title>
<path fill="none" stroke="#191970" d="M57.5494,-129.446C96.7261,-98.0419 229.1886,0 356,0 356,0 356,0 539.5,0 634.7796,0 744.1373,-12.0764 814.3189,-21.3917"/>
<polygon fill="#191970" stroke="#191970" points="814.0058,-24.881 824.3829,-22.7443 814.9382,-17.9434 814.0058,-24.881"/>
</g>
<!-- Node25 -->
<g id="node4" class="node">
<title>Node25</title>
<g id="a_node4"><a xlink:href="classSpikeMonitorCore.html#a3a3ffdb35b09328d22e5d72503ed1f55" target="_top" xlink:title="returns recording status ">
<polygon fill="#ffffff" stroke="#000000" points="280,-249.5 280,-268.5 432,-268.5 432,-249.5 280,-249.5"/>
<text text-anchor="middle" x="356" y="-256.5" font-family="Helvetica,sans-Serif" font-size="10.00" fill="#000000">SpikeMonitorCore::isRecording</text>
</a>
</g>
</g>
<!-- Node24&#45;&gt;Node25 -->
<g id="edge3" class="edge">
<title>Node24&#45;&gt;Node25</title>
<path fill="none" stroke="#191970" d="M220.1479,-147.5669C228.2512,-150.3007 236.6656,-153.75 244,-158 283.5735,-180.9316 321.289,-219.5949 341.2562,-241.8434"/>
<polygon fill="#191970" stroke="#191970" points="338.7679,-244.3135 348.0067,-249.4996 344.0185,-239.684 338.7679,-244.3135"/>
</g>
<!-- Node26 -->
<g id="node5" class="node">
<title>Node26</title>
<g id="a_node5"><a xlink:href="classSpikeMonitorCore.html#af0ba89c38f6852cdf9d914687ad6a445" target="_top" xlink:title="prints the AER vector in human&#45;readable format ">
<polygon fill="#ffffff" stroke="#000000" points="480,-249.5 480,-268.5 599,-268.5 599,-249.5 480,-249.5"/>
<text text-anchor="middle" x="539.5" y="-256.5" font-family="Helvetica,sans-Serif" font-size="10.00" fill="#000000">SpikeMonitorCore::print</text>
</a>
</g>
</g>
<!-- Node25&#45;&gt;Node26 -->
<g id="edge4" class="edge">
<title>Node25&#45;&gt;Node26</title>
<path fill="none" stroke="#191970" d="M432.2264,-252.3366C444.612,-252.1972 457.3863,-252.2261 469.6109,-252.4233"/>
<polygon fill="#191970" stroke="#191970" points="469.6607,-255.9249 479.7296,-252.6285 469.8027,-248.9263 469.6607,-255.9249"/>
</g>
<!-- Node37 -->
<g id="node16" class="node">
<title>Node37</title>
<g id="a_node16"><a xlink:href="classSpikeMonitorCore.html#a6e116c2994e0449c41e56d03370fa54c" target="_top" xlink:title="inserts a (time,neurId) tupel into the 2D spike vector ">
<polygon fill="#ffffff" stroke="#000000" points="468,-496.5 468,-515.5 611,-515.5 611,-496.5 468,-496.5"/>
<text text-anchor="middle" x="539.5" y="-503.5" font-family="Helvetica,sans-Serif" font-size="10.00" fill="#000000">SpikeMonitorCore::pushAER</text>
</a>
</g>
</g>
<!-- Node25&#45;&gt;Node37 -->
<g id="edge27" class="edge">
<title>Node25&#45;&gt;Node37</title>
<path fill="none" stroke="#191970" d="M359.0232,-268.687C368.2361,-302.5785 399.605,-413.6631 468,-473 479.9381,-483.3571 496.5138,-489.2829 510.6998,-493.597"/>
<polygon fill="#191970" stroke="#191970" points="509.9248,-497.0175 520.5067,-496.4938 511.9079,-490.3043 509.9248,-497.0175"/>
</g>
<!-- Node26&#45;&gt;Node25 -->
<g id="edge5" class="edge">
<title>Node26&#45;&gt;Node25</title>
<path fill="none" stroke="#191970" d="M479.7296,-265.3715C467.7681,-265.6659 454.9776,-265.7885 442.3252,-265.7395"/>
<polygon fill="#191970" stroke="#191970" points="442.2525,-262.239 432.2264,-265.6634 442.1997,-269.2388 442.2525,-262.239"/>
</g>
<!-- Node27 -->
<g id="node6" class="node">
<title>Node27</title>
<g id="a_node6"><a xlink:href="classSNN.html#a5fd2b156623d78138bcb44167eabab78" target="_top" xlink:title="SNN::getSimTime">
<polygon fill="#ffffff" stroke="#000000" points="664,-268.5 664,-287.5 761,-287.5 761,-268.5 664,-268.5"/>
<text text-anchor="middle" x="712.5" y="-275.5" font-family="Helvetica,sans-Serif" font-size="10.00" fill="#000000">SNN::getSimTime</text>
</a>
</g>
</g>
<!-- Node26&#45;&gt;Node27 -->
<g id="edge6" class="edge">
<title>Node26&#45;&gt;Node27</title>
<path fill="none" stroke="#191970" d="M599.0368,-265.5387C616.6849,-267.477 635.9968,-269.5979 653.6041,-271.5317"/>
<polygon fill="#191970" stroke="#191970" points="653.4262,-275.0331 663.7486,-272.6458 654.1905,-268.0749 653.4262,-275.0331"/>
</g>
<!-- Node28 -->
<g id="node7" class="node">
<title>Node28</title>
<g id="a_node7"><a xlink:href="classSNN.html#ab0367f8ebd4019bf7d34ebddb1563fe7" target="_top" xlink:title="SNN::getGroupName">
<polygon fill="#ffffff" stroke="#000000" points="657.5,-230.5 657.5,-249.5 767.5,-249.5 767.5,-230.5 657.5,-230.5"/>
<text text-anchor="middle" x="712.5" y="-237.5" font-family="Helvetica,sans-Serif" font-size="10.00" fill="#000000">SNN::getGroupName</text>
</a>
</g>
</g>
<!-- Node26&#45;&gt;Node28 -->
<g id="edge7" class="edge">
<title>Node26&#45;&gt;Node28</title>
<path fill="none" stroke="#191970" d="M599.0368,-252.4613C614.511,-250.7618 631.2643,-248.9218 647.0261,-247.1908"/>
<polygon fill="#191970" stroke="#191970" points="647.6591,-250.6424 657.2172,-246.0715 646.8949,-243.6842 647.6591,-250.6424"/>
</g>
<!-- Node29 -->
<g id="node8" class="node">
<title>Node29</title>
<g id="a_node8"><a xlink:href="classSpikeMonitorCore.html#af6c333e6cefff92d0e354eca70625cdc" target="_top" xlink:title="returns the total number of recorded spikes in the group ">
<polygon fill="#ffffff" stroke="#000000" points="1009.5,-383 1009.5,-413 1140.5,-413 1140.5,-383 1009.5,-383"/>
<text text-anchor="start" x="1017.5" y="-401" font-family="Helvetica,sans-Serif" font-size="10.00" fill="#000000">SpikeMonitorCore::getPop</text>
<text text-anchor="middle" x="1075" y="-390" font-family="Helvetica,sans-Serif" font-size="10.00" fill="#000000">NumSpikes</text>
</a>
</g>
</g>
<!-- Node26&#45;&gt;Node29 -->
<g id="edge8" class="edge">
<title>Node26&#45;&gt;Node29</title>
<path fill="none" stroke="#191970" d="M546.5858,-268.5822C562.1894,-288.8897 601.751,-336.1783 647,-358 760.4327,-412.7039 910.2895,-412.6699 999.2647,-406.2919"/>
<polygon fill="#191970" stroke="#191970" points="999.57,-409.7788 1009.2751,-405.5289 999.038,-402.7991 999.57,-409.7788"/>
</g>
<!-- Node32 -->
<g id="node11" class="node">
<title>Node32</title>
<g id="a_node11"><a xlink:href="classSpikeMonitorCore.html#a9cf20c30ff0efdbc5e3c5194648a7fb3" target="_top" xlink:title="returns the total recorded time in ms ">
<polygon fill="#ffffff" stroke="#000000" points="996,-301 996,-331 1154,-331 1154,-301 996,-301"/>
<text text-anchor="start" x="1004" y="-319" font-family="Helvetica,sans-Serif" font-size="10.00" fill="#000000">SpikeMonitorCore::getRecording</text>
<text text-anchor="middle" x="1075" y="-308" font-family="Helvetica,sans-Serif" font-size="10.00" fill="#000000">TotalTime</text>
</a>
</g>
</g>
<!-- Node26&#45;&gt;Node32 -->
<g id="edge13" class="edge">
<title>Node26&#45;&gt;Node32</title>
<path fill="none" stroke="#191970" d="M560.7986,-268.6448C582.1184,-277.7882 616.1049,-290.9919 647,-297 762.3533,-319.4326 898.3447,-321.4129 985.5628,-319.6414"/>
<polygon fill="#191970" stroke="#191970" points="985.77,-323.1377 995.689,-319.4144 985.613,-316.1395 985.77,-323.1377"/>
</g>
<!-- Node33 -->
<g id="node12" class="node">
<title>Node33</title>
<g id="a_node12"><a xlink:href="classSpikeMonitorCore.html#ae62d623e8edfc6b05309256c1d825bbd" target="_top" xlink:title="returns the recorded mean firing rate of the group ">
<polygon fill="#ffffff" stroke="#000000" points="821.5,-345 821.5,-375 952.5,-375 952.5,-345 821.5,-345"/>
<text text-anchor="start" x="829.5" y="-363" font-family="Helvetica,sans-Serif" font-size="10.00" fill="#000000">SpikeMonitorCore::getPop</text>
<text text-anchor="middle" x="887" y="-352" font-family="Helvetica,sans-Serif" font-size="10.00" fill="#000000">MeanFiringRate</text>
</a>
</g>
</g>
<!-- Node26&#45;&gt;Node33 -->
<g id="edge14" class="edge">
<title>Node26&#45;&gt;Node33</title>
<path fill="none" stroke="#191970" d="M550.1687,-268.5333C568.4915,-284.2992 607.7687,-315.5002 647,-330 699.7668,-349.5025 763.0335,-356.8088 811.3594,-359.3429"/>
<polygon fill="#191970" stroke="#191970" points="811.2831,-362.8431 821.4357,-359.8139 811.61,-355.8507 811.2831,-362.8431"/>
</g>
<!-- Node34 -->
<g id="node13" class="node">
<title>Node34</title>
<g id="a_node13"><a xlink:href="classSpikeMonitorCore.html#ad0c4b32bb5cc0c7a8d95ed6023a2695f" target="_top" xlink:title="computes the standard deviation of firing rates in the group ">
<polygon fill="#ffffff" stroke="#000000" points="647,-143 647,-173 778,-173 778,-143 647,-143"/>
<text text-anchor="start" x="655" y="-161" font-family="Helvetica,sans-Serif" font-size="10.00" fill="#000000">SpikeMonitorCore::getPop</text>
<text text-anchor="middle" x="712.5" y="-150" font-family="Helvetica,sans-Serif" font-size="10.00" fill="#000000">StdFiringRate</text>
</a>
</g>
</g>
<!-- Node26&#45;&gt;Node34 -->
<g id="edge18" class="edge">
<title>Node26&#45;&gt;Node34</title>
<path fill="none" stroke="#191970" d="M552.6592,-249.3466C572.5202,-235.0018 611.6015,-207.6426 647,-188 653.5414,-184.3701 660.6017,-180.7988 667.5813,-177.4568"/>
<polygon fill="#191970" stroke="#191970" points="669.4156,-180.463 676.9927,-173.0577 666.4514,-174.1215 669.4156,-180.463"/>
</g>
<!-- Node36 -->
<g id="node15" class="node">
<title>Node36</title>
<g id="a_node15"><a xlink:href="classSpikeMonitorCore.html#aed09edf4583ac05d42fccc7e3556e3c5" target="_top" xlink:title="returns the recorded mean firing rate for a specific neuron ">
<polygon fill="#ffffff" stroke="#000000" points="814,-222 814,-252 960,-252 960,-222 814,-222"/>
<text text-anchor="start" x="822" y="-240" font-family="Helvetica,sans-Serif" font-size="10.00" fill="#000000">SpikeMonitorCore::getNeuron</text>
<text text-anchor="middle" x="887" y="-229" font-family="Helvetica,sans-Serif" font-size="10.00" fill="#000000">MeanFiringRate</text>
</a>
</g>
</g>
<!-- Node26&#45;&gt;Node36 -->
<g id="edge23" class="edge">
<title>Node26&#45;&gt;Node36</title>
<path fill="none" stroke="#191970" d="M559.9475,-249.411C581.1684,-240.029 615.589,-226.3883 647,-221 698.6691,-212.1365 757.3773,-215.8137 803.7956,-221.8635"/>
<polygon fill="#191970" stroke="#191970" points="803.4259,-225.3454 813.8073,-223.2296 804.3723,-218.4097 803.4259,-225.3454"/>
</g>
<!-- Node29&#45;&gt;Node25 -->
<g id="edge9" class="edge">
<title>Node29&#45;&gt;Node25</title>
<path fill="none" stroke="#191970" d="M1011.4671,-413.0332C994.8179,-416.3316 976.8171,-419.3348 960,-421 895.4269,-427.394 878.6493,-426.5716 814,-421 656.9453,-407.4648 609.5749,-412.3249 468,-343 431.1926,-324.9765 394.2829,-294.2537 373.3741,-275.3798"/>
<polygon fill="#191970" stroke="#191970" points="375.6647,-272.7315 365.931,-268.5475 370.931,-277.8883 375.6647,-272.7315"/>
</g>
<!-- Node30 -->
<g id="node9" class="node">
<title>Node30</title>
<g id="a_node9"><a xlink:href="classSpikeMonitorCore.html#a005a2f884f6260054483d4fa6ed6ddbb" target="_top" xlink:title="returns the number of recorded spikes of a specific neuron ">
<polygon fill="#ffffff" stroke="#000000" points="1190,-312 1190,-342 1336,-342 1336,-312 1190,-312"/>
<text text-anchor="start" x="1198" y="-330" font-family="Helvetica,sans-Serif" font-size="10.00" fill="#000000">SpikeMonitorCore::getNeuron</text>
<text text-anchor="middle" x="1263" y="-319" font-family="Helvetica,sans-Serif" font-size="10.00" fill="#000000">NumSpikes</text>
</a>
</g>
</g>
<!-- Node29&#45;&gt;Node30 -->
<g id="edge10" class="edge">
<title>Node29&#45;&gt;Node30</title>
<path fill="none" stroke="#191970" d="M1114.87,-382.9427C1143.6585,-372.0704 1182.7227,-357.3175 1213.507,-345.6915"/>
<polygon fill="#191970" stroke="#191970" points="1215.069,-348.843 1223.1875,-342.0356 1212.5958,-342.2944 1215.069,-348.843"/>
</g>
<!-- Node30&#45;&gt;Node25 -->
<g id="edge11" class="edge">
<title>Node30&#45;&gt;Node25</title>
<path fill="none" stroke="#191970" d="M1251.6284,-311.6767C1209.756,-257.1809 1057.7076,-76 887,-76 712.5,-76 712.5,-76 712.5,-76 600.7143,-76 564.0806,-77.8636 468,-135 422.5001,-162.0575 384.9574,-213.5478 367.1474,-240.8895"/>
<polygon fill="#191970" stroke="#191970" points="364.1014,-239.1571 361.69,-249.4739 370.0087,-242.9126 364.1014,-239.1571"/>
</g>
<!-- Node31 -->
<g id="node10" class="node">
<title>Node31</title>
<g id="a_node10"><a xlink:href="classSpikeMonitorCore.html#abe76071e1ac3632d55f2455b239b3d12" target="_top" xlink:title="returns recording mode ">
<polygon fill="#ffffff" stroke="#000000" points="1372,-355.5 1372,-374.5 1510,-374.5 1510,-355.5 1372,-355.5"/>
<text text-anchor="middle" x="1441" y="-362.5" font-family="Helvetica,sans-Serif" font-size="10.00" fill="#000000">SpikeMonitorCore::getMode</text>
</a>
</g>
</g>
<!-- Node30&#45;&gt;Node31 -->
<g id="edge12" class="edge">
<title>Node30&#45;&gt;Node31</title>
<path fill="none" stroke="#191970" d="M1333.3503,-342.0186C1350.9741,-345.781 1369.6194,-349.7614 1386.3512,-353.3334"/>
<polygon fill="#191970" stroke="#191970" points="1385.9853,-356.8341 1396.4957,-355.4991 1387.4468,-349.9883 1385.9853,-356.8341"/>
</g>
<!-- Node33&#45;&gt;Node25 -->
<g id="edge15" class="edge">
<title>Node33&#45;&gt;Node25</title>
<path fill="none" stroke="#191970" d="M821.3127,-365.0537C772.7969,-367.4336 705.3344,-367.9011 647,-358 548.147,-341.2216 437.6442,-295.7429 385.8423,-272.7311"/>
<polygon fill="#191970" stroke="#191970" points="387.1336,-269.4744 376.5769,-268.5755 384.2689,-275.8614 387.1336,-269.4744"/>
</g>
<!-- Node33&#45;&gt;Node29 -->
<g id="edge16" class="edge">
<title>Node33&#45;&gt;Node29</title>
<path fill="none" stroke="#191970" d="M952.7533,-373.2906C967.78,-376.3279 983.8685,-379.5798 999.2756,-382.694"/>
<polygon fill="#191970" stroke="#191970" points="998.7886,-386.1663 1009.2838,-384.7169 1000.1755,-379.305 998.7886,-386.1663"/>
</g>
<!-- Node33&#45;&gt;Node32 -->
<g id="edge17" class="edge">
<title>Node33&#45;&gt;Node32</title>
<path fill="none" stroke="#191970" d="M951.1731,-344.9808C967.1172,-341.2492 984.3385,-337.2186 1000.7227,-333.384"/>
<polygon fill="#191970" stroke="#191970" points="1001.8579,-336.713 1010.7971,-331.0262 1000.2626,-329.8972 1001.8579,-336.713"/>
</g>
<!-- Node34&#45;&gt;Node25 -->
<g id="edge19" class="edge">
<title>Node34&#45;&gt;Node25</title>
<path fill="none" stroke="#191970" d="M659.2638,-173.0823C588.5484,-193.1167 464.9655,-228.129 399.5252,-246.6689"/>
<polygon fill="#191970" stroke="#191970" points="398.2059,-243.4048 389.5387,-249.4982 400.114,-250.1397 398.2059,-243.4048"/>
</g>
<!-- Node34&#45;&gt;Node33 -->
<g id="edge20" class="edge">
<title>Node34&#45;&gt;Node33</title>
<path fill="none" stroke="#191970" d="M729.5533,-173.1797C743.1593,-185.5747 762.4479,-203.7934 778,-221 812.8836,-259.5949 849.3991,-308.0765 870.0657,-336.3941"/>
<polygon fill="#191970" stroke="#191970" points="867.4902,-338.8042 876.1966,-344.8416 873.1554,-334.6926 867.4902,-338.8042"/>
</g>
<!-- Node34&#45;&gt;Node35 -->
<g id="edge21" class="edge">
<title>Node34&#45;&gt;Node35</title>
<path fill="none" stroke="#191970" d="M733.5488,-142.8015C764.5517,-120.4154 822.6083,-78.4949 857.7406,-53.1271"/>
<polygon fill="#191970" stroke="#191970" points="860.0897,-55.748 866.1482,-47.0563 855.9918,-50.0728 860.0897,-55.748"/>
</g>
<!-- Node35&#45;&gt;Node25 -->
<g id="edge22" class="edge">
<title>Node35&#45;&gt;Node25</title>
<path fill="none" stroke="#191970" d="M824.2518,-29.4237C722.1369,-26.3824 525.5998,-25.6742 468,-62 402.1577,-103.5241 371.189,-198.5404 360.5184,-239.5572"/>
<polygon fill="#191970" stroke="#191970" points="357.0888,-238.8465 358.0841,-249.3944 363.8838,-240.528 357.0888,-238.8465"/>
</g>
<!-- Node36&#45;&gt;Node25 -->
<g id="edge24" class="edge">
<title>Node36&#45;&gt;Node25</title>
<path fill="none" stroke="#191970" d="M877.1376,-221.9821C860.2379,-197.793 823.1613,-151.0885 778,-133 723.9519,-111.3521 704.6624,-124.9458 647,-133 565.0737,-144.4434 543.0591,-149.2295 468,-184 433.2877,-200.0802 397.2367,-226.2072 375.7119,-242.9925"/>
<polygon fill="#191970" stroke="#191970" points="373.352,-240.3966 367.6837,-249.3476 377.6967,-245.8851 373.352,-240.3966"/>
</g>
<!-- Node36&#45;&gt;Node30 -->
<g id="edge25" class="edge">
<title>Node36&#45;&gt;Node30</title>
<path fill="none" stroke="#191970" d="M960.0688,-249.3452C1014.0385,-259.0511 1089.089,-273.7826 1154,-291 1173.1041,-296.0673 1193.7652,-302.6114 1211.9097,-308.7275"/>
<polygon fill="#191970" stroke="#191970" points="1210.8307,-312.0574 1221.4252,-311.9726 1213.0902,-305.4321 1210.8307,-312.0574"/>
</g>
<!-- Node36&#45;&gt;Node32 -->
<g id="edge26" class="edge">
<title>Node36&#45;&gt;Node32</title>
<path fill="none" stroke="#191970" d="M922.8039,-252.0452C953.1538,-264.7987 996.8478,-283.1594 1029.6406,-296.9394"/>
<polygon fill="#191970" stroke="#191970" points="1028.4347,-300.2291 1039.0097,-300.8764 1031.1465,-293.7757 1028.4347,-300.2291"/>
</g>
<!-- Node37&#45;&gt;Node25 -->
<g id="edge28" class="edge">
<title>Node37&#45;&gt;Node25</title>
<path fill="none" stroke="#191970" d="M475.281,-496.4444C472.718,-494.7862 470.2748,-492.9735 468,-491 400.4231,-432.3729 368.9918,-323.2286 359.3633,-278.4887"/>
<polygon fill="#191970" stroke="#191970" points="362.7728,-277.6892 357.3764,-268.5717 355.9092,-279.0644 362.7728,-277.6892"/>
</g>
<!-- Node37&#45;&gt;Node31 -->
<g id="edge29" class="edge">
<title>Node37&#45;&gt;Node31</title>
<path fill="none" stroke="#191970" d="M611.0446,-506C681.3016,-506 791.528,-506 887,-506 887,-506 887,-506 1075,-506 1213.6814,-506 1363.3497,-416.76 1418.751,-380.2706"/>
<polygon fill="#191970" stroke="#191970" points="1420.7349,-383.1545 1427.109,-374.6915 1416.8485,-377.3325 1420.7349,-383.1545"/>
</g>
</g>
</svg>
