<?xml version="1.0" encoding="UTF-8" standalone="no"?>
<!DOCTYPE svg PUBLIC "-//W3C//DTD SVG 1.1//EN"
 "http://www.w3.org/Graphics/SVG/1.1/DTD/svg11.dtd">
<!-- Generated by graphviz version 2.40.1 (20161225.0304)
 -->
<!-- Title: print Pages: 1 -->
<!--zoomable 83 -->
<svg id="main" version="1.1" xmlns="http://www.w3.org/2000/svg" xmlns:xlink="http://www.w3.org/1999/xlink" xml:space="preserve" onload="init(evt)">
<style type="text/css"><![CDATA[
.edge:hover path { stroke: red; }
.edge:hover polygon { stroke: red; fill: red; }
]]></style>
<script type="text/javascript"><![CDATA[
var edges = document.getElementsByTagName('g');
if (edges && edges.length) {
  for (var i=0;i<edges.length;i++) {
    if (edges[i].id.substr(0,4)=='edge') {
      edges[i].setAttribute('class','edge');
    }
  }
}
]]></script>
        <defs>
                <circle id="rim" cx="0" cy="0" r="7"/>
                <circle id="rim2" cx="0" cy="0" r="3.5"/>
                <g id="zoomPlus">
                        <use xlink:href="#rim" fill="#404040">
                                <set attributeName="fill" to="#808080" begin="zoomplus.mouseover" end="zoomplus.mouseout"/>
                        </use>
                        <path d="M-4,0h8M0,-4v8" fill="none" stroke="white" stroke-width="1.5" pointer-events="none"/>
                </g>
                <g id="zoomMin">
                        <use xlink:href="#rim" fill="#404040">
                                <set attributeName="fill" to="#808080" begin="zoomminus.mouseover" end="zoomminus.mouseout"/>
                        </use>
                        <path d="M-4,0h8" fill="none" stroke="white" stroke-width="1.5" pointer-events="none"/>
                </g>
                <g id="dirArrow">
                        <path fill="none" stroke="white" stroke-width="1.5" d="M0,-3.0v7 M-2.5,-0.5L0,-3.0L2.5,-0.5"/>
                </g>
               <g id="resetDef">
                       <use xlink:href="#rim2" fill="#404040">
                               <set attributeName="fill" to="#808080" begin="reset.mouseover" end="reset.mouseout"/>
                       </use>
               </g>
        </defs>

<script type="text/javascript">
var viewWidth = 1150;
var viewHeight = 83;
var sectionId = 'dynsection-31';
</script>
<script xlink:href="svgpan.js"/>
<svg id="graph" class="graph">
<g id="viewport">
<title>print</title>
<polygon fill="#ffffff" stroke="transparent" points="-4,4 -4,-79 1146,-79 1146,4 -4,4"/>
<!-- Node279 -->
<g id="node1" class="node">
<title>Node279</title>
<polygon fill="#bfbfbf" stroke="#000000" points="0,-28 0,-47 35,-47 35,-28 0,-28"/>
<text text-anchor="middle" x="17.5" y="-35" font-family="Helvetica,sans-Serif" font-size="10.00" fill="#000000">print</text>
</g>
<!-- Node280 -->
<g id="node2" class="node">
<title>Node280</title>
<g id="a_node2"><a xlink:href="classConnectionMonitor.html#a388f572c62279f839ee138a9afbdeeb5" target="_top" xlink:title="Prints the current weight state as a 2D matrix (pre x post) ">
<polygon fill="#ffffff" stroke="#000000" points="85.5,-44.5 85.5,-74.5 189.5,-74.5 189.5,-44.5 85.5,-44.5"/>
<text text-anchor="start" x="93.5" y="-62.5" font-family="Helvetica,sans-Serif" font-size="10.00" fill="#000000">ConnectionMonitor::</text>
<text text-anchor="middle" x="137.5" y="-51.5" font-family="Helvetica,sans-Serif" font-size="10.00" fill="#000000">print</text>
</a>
</g>
</g>
<!-- Node279&#45;&gt;Node280 -->
<g id="edge1" class="edge">
<title>Node279&#45;&gt;Node280</title>
<path fill="none" stroke="#191970" d="M45.4024,-42.6154C57.3318,-44.8025 71.6601,-47.4294 85.4225,-49.9525"/>
<polygon fill="#191970" stroke="#191970" points="45.6737,-39.1069 35.2064,-40.7462 44.4113,-45.9922 45.6737,-39.1069"/>
</g>
<!-- Node281 -->
<g id="node3" class="node">
<title>Node281</title>
<g id="a_node3"><a xlink:href="classConnectionMonitorCore.html#acf625cff31a558c7d6786773d0c2693c" target="_top" xlink:title="getUpdateTimeIntervalSec">
<polygon fill="#ffffff" stroke="#000000" points="71,-6 71,-25 204,-25 204,-6 71,-6"/>
<text text-anchor="middle" x="137.5" y="-13" font-family="Helvetica,sans-Serif" font-size="10.00" fill="#000000">getUpdateTimeIntervalSec</text>
</a>
</g>
</g>
<!-- Node279&#45;&gt;Node281 -->
<g id="edge2" class="edge">
<title>Node279&#45;&gt;Node281</title>
<path fill="none" stroke="#191970" d="M45.4024,-32.3846C57.3318,-30.1975 71.6601,-27.5706 85.4225,-25.0475"/>
<polygon fill="#191970" stroke="#191970" points="44.4113,-29.0078 35.2064,-34.2538 45.6737,-35.8931 44.4113,-29.0078"/>
</g>
<!-- Node282 -->
<g id="node4" class="node">
<title>Node282</title>
<g id="a_node4"><a xlink:href="classSNN.html#a68862cb4e6c749219c20c38aeab06986" target="_top" xlink:title="polls connection weights ">
<polygon fill="#ffffff" stroke="#000000" points="240,-6 240,-25 395,-25 395,-6 240,-6"/>
<text text-anchor="middle" x="317.5" y="-13" font-family="Helvetica,sans-Serif" font-size="10.00" fill="#000000">SNN::updateConnectionMonitor</text>
</a>
</g>
</g>
<!-- Node281&#45;&gt;Node282 -->
<g id="edge3" class="edge">
<title>Node281&#45;&gt;Node282</title>
<path fill="none" stroke="#191970" d="M214.2083,-15.5C222.6475,-15.5 231.2461,-15.5 239.6984,-15.5"/>
<polygon fill="#191970" stroke="#191970" points="214.014,-12.0001 204.0139,-15.5 214.0139,-19.0001 214.014,-12.0001"/>
</g>
<!-- Node283 -->
<g id="node5" class="node">
<title>Node283</title>
<g id="a_node5"><a xlink:href="classSNN.html#a3df37c7539f784fe7a939c5da922f41b" target="_top" xlink:title="run the simulation for n sec ">
<polygon fill="#ffffff" stroke="#000000" points="431,-6 431,-25 526,-25 526,-6 431,-6"/>
<text text-anchor="middle" x="478.5" y="-13" font-family="Helvetica,sans-Serif" font-size="10.00" fill="#000000">SNN::runNetwork</text>
</a>
</g>
</g>
<!-- Node282&#45;&gt;Node283 -->
<g id="edge4" class="edge">
<title>Node282&#45;&gt;Node283</title>
<path fill="none" stroke="#191970" d="M405.1932,-15.5C414.0469,-15.5 422.7837,-15.5 430.9704,-15.5"/>
<polygon fill="#191970" stroke="#191970" points="405.1705,-12.0001 395.1704,-15.5 405.1704,-19.0001 405.1705,-12.0001"/>
</g>
<!-- Node284 -->
<g id="node6" class="node">
<title>Node284</title>
<g id="a_node6"><a xlink:href="classCARLsim_1_1Impl.html#a749f370debe5eec8661cf9ca1b1bb4c0" target="_top" xlink:title="CARLsim::Impl::runNetwork">
<polygon fill="#ffffff" stroke="#000000" points="562,-6 562,-25 702,-25 702,-6 562,-6"/>
<text text-anchor="middle" x="632" y="-13" font-family="Helvetica,sans-Serif" font-size="10.00" fill="#000000">CARLsim::Impl::runNetwork</text>
</a>
</g>
</g>
<!-- Node283&#45;&gt;Node284 -->
<g id="edge5" class="edge">
<title>Node283&#45;&gt;Node284</title>
<path fill="none" stroke="#191970" d="M536.4873,-15.5C544.7425,-15.5 553.3063,-15.5 561.7638,-15.5"/>
<polygon fill="#191970" stroke="#191970" points="536.227,-12.0001 526.2269,-15.5 536.2269,-19.0001 536.227,-12.0001"/>
</g>
<!-- Node285 -->
<g id="node7" class="node">
<title>Node285</title>
<g id="a_node7"><a xlink:href="classCARLsim.html#aafb2d44405c96aafe089f96ff867018d" target="_top" xlink:title="run the simulation for time=(nSec*seconds + nMsec*milliseconds) ">
<polygon fill="#ffffff" stroke="#000000" points="738,-6 738,-25 854,-25 854,-6 738,-6"/>
<text text-anchor="middle" x="796" y="-13" font-family="Helvetica,sans-Serif" font-size="10.00" fill="#000000">CARLsim::runNetwork</text>
</a>
</g>
</g>
<!-- Node284&#45;&gt;Node285 -->
<g id="edge6" class="edge">
<title>Node284&#45;&gt;Node285</title>
<path fill="none" stroke="#191970" d="M712.1489,-15.5C720.8022,-15.5 729.483,-15.5 737.8055,-15.5"/>
<polygon fill="#191970" stroke="#191970" points="712.0265,-12.0001 702.0265,-15.5 712.0264,-19.0001 712.0265,-12.0001"/>
</g>
<!-- Node286 -->
<g id="node8" class="node">
<title>Node286</title>
<g id="a_node8"><a xlink:href="classSimpleWeightTuner_1_1Impl.html#a312d84bfa66a5036bb52a4c39db6fa6c" target="_top" xlink:title="SimpleWeightTuner::\lImpl::iterate">
<polygon fill="#ffffff" stroke="#000000" points="890,-.5 890,-30.5 998,-30.5 998,-.5 890,-.5"/>
<text text-anchor="start" x="898" y="-18.5" font-family="Helvetica,sans-Serif" font-size="10.00" fill="#000000">SimpleWeightTuner::</text>
<text text-anchor="middle" x="944" y="-7.5" font-family="Helvetica,sans-Serif" font-size="10.00" fill="#000000">Impl::iterate</text>
</a>
</g>
</g>
<!-- Node285&#45;&gt;Node286 -->
<g id="edge7" class="edge">
<title>Node285&#45;&gt;Node286</title>
<path fill="none" stroke="#191970" d="M864.1513,-15.5C872.8066,-15.5 881.5692,-15.5 889.9617,-15.5"/>
<polygon fill="#191970" stroke="#191970" points="864.0688,-12.0001 854.0687,-15.5 864.0687,-19.0001 864.0688,-12.0001"/>
</g>
<!-- Node287 -->
<g id="node9" class="node">
<title>Node287</title>
<g id="a_node9"><a xlink:href="classSimpleWeightTuner.html#a0df985e3ff7a27edc1e2e3fcc8261843" target="_top" xlink:title="Performs an iteration step of the tuning algorithm. ">
<polygon fill="#ffffff" stroke="#000000" points="1034,-.5 1034,-30.5 1142,-30.5 1142,-.5 1034,-.5"/>
<text text-anchor="start" x="1042" y="-18.5" font-family="Helvetica,sans-Serif" font-size="10.00" fill="#000000">SimpleWeightTuner::</text>
<text text-anchor="middle" x="1088" y="-7.5" font-family="Helvetica,sans-Serif" font-size="10.00" fill="#000000">iterate</text>
</a>
</g>
</g>
<!-- Node286&#45;&gt;Node287 -->
<g id="edge8" class="edge">
<title>Node286&#45;&gt;Node287</title>
<path fill="none" stroke="#191970" d="M1008.2702,-15.5C1016.7504,-15.5 1025.3754,-15.5 1033.6672,-15.5"/>
<polygon fill="#191970" stroke="#191970" points="1008.03,-12.0001 998.03,-15.5 1008.0299,-19.0001 1008.03,-12.0001"/>
</g>
</g>
</svg>
        <g id="navigator" transform="translate(0 0)" fill="#404254">
                <rect fill="#f2f5e9" fill-opacity="0.5" stroke="#606060" stroke-width=".5" x="0" y="0" width="60" height="60"/>
                <use id="zoomplus" xlink:href="#zoomPlus" x="17" y="9" onmousedown="handleZoom(evt,'in')"/>
                <use id="zoomminus" xlink:href="#zoomMin" x="42" y="9" onmousedown="handleZoom(evt,'out')"/>
                <use id="reset" xlink:href="#resetDef" x="30" y="36" onmousedown="handleReset()"/>
                <g id="arrowUp" xlink:href="#dirArrow" transform="translate(30 24)" onmousedown="handlePan(0,-1)">
                  <use xlink:href="#rim" fill="#404040">
                        <set attributeName="fill" to="#808080" begin="arrowUp.mouseover" end="arrowUp.mouseout"/>
                  </use>
                  <path fill="none" stroke="white" stroke-width="1.5" d="M0,-3.0v7 M-2.5,-0.5L0,-3.0L2.5,-0.5"/>
                </g>
                <g id="arrowRight" xlink:href="#dirArrow" transform="rotate(90) translate(36 -43)" onmousedown="handlePan(1,0)">
                  <use xlink:href="#rim" fill="#404040">
                        <set attributeName="fill" to="#808080" begin="arrowRight.mouseover" end="arrowRight.mouseout"/>
                  </use>
                  <path fill="none" stroke="white" stroke-width="1.5" d="M0,-3.0v7 M-2.5,-0.5L0,-3.0L2.5,-0.5"/>
                </g>
                <g id="arrowDown" xlink:href="#dirArrow" transform="rotate(180) translate(-30 -48)" onmousedown="handlePan(0,1)">
                  <use xlink:href="#rim" fill="#404040">
                        <set attributeName="fill" to="#808080" begin="arrowDown.mouseover" end="arrowDown.mouseout"/>
                  </use>
                  <path fill="none" stroke="white" stroke-width="1.5" d="M0,-3.0v7 M-2.5,-0.5L0,-3.0L2.5,-0.5"/>
                </g>
                <g id="arrowLeft" xlink:href="#dirArrow" transform="rotate(270) translate(-36 17)" onmousedown="handlePan(-1,0)">
                  <use xlink:href="#rim" fill="#404040">
                        <set attributeName="fill" to="#808080" begin="arrowLeft.mouseover" end="arrowLeft.mouseout"/>
                  </use>
                  <path fill="none" stroke="white" stroke-width="1.5" d="M0,-3.0v7 M-2.5,-0.5L0,-3.0L2.5,-0.5"/>
                </g>
        </g>
        <svg viewBox="0 0 15 15" width="100%" height="30px" preserveAspectRatio="xMaxYMin meet">
         <g id="arrow_out" transform="scale(0.3 0.3)">
          <a xlink:href="classConnectionMonitorCore_a388f572c62279f839ee138a9afbdeeb5_icgraph_org.svg" target="_base">
           <rect id="button" ry="5" rx="5" y="6" x="6" height="38" width="38"
                fill="#f2f5e9" fill-opacity="0.5" stroke="#606060" stroke-width="1.0"/>
           <path id="arrow"
             d="M 11.500037,31.436501 C 11.940474,20.09759 22.043105,11.32322 32.158766,21.979434 L 37.068811,17.246167 C 37.068811,17.246167 37.088388,32 37.088388,32 L 22.160133,31.978069 C 22.160133,31.978069 26.997745,27.140456 26.997745,27.140456 C 18.528582,18.264221 13.291696,25.230495 11.500037,31.436501 z"
             style="fill:#404040;"/>
          </a>
         </g>
        </svg>
</svg>
