<?xml version="1.0" encoding="UTF-8" standalone="no"?>
<!DOCTYPE svg PUBLIC "-//W3C//DTD SVG 1.1//EN"
 "http://www.w3.org/Graphics/SVG/1.1/DTD/svg11.dtd">
<!-- Generated by graphviz version 2.40.1 (20161225.0304)
 -->
<!-- Title: getPopMeanFiringRate Pages: 1 -->
<svg width="734pt" height="368pt"
 viewBox="0.00 0.00 734.00 367.60" xmlns="http://www.w3.org/2000/svg" xmlns:xlink="http://www.w3.org/1999/xlink">
<g id="graph0" class="graph" transform="scale(1 1) rotate(0) translate(4 363.6038)">
<title>getPopMeanFiringRate</title>
<polygon fill="#ffffff" stroke="transparent" points="-4,4 -4,-363.6038 730,-363.6038 730,4 -4,4"/>
<!-- Node591 -->
<g id="node1" class="node">
<title>Node591</title>
<polygon fill="#bfbfbf" stroke="#000000" points="0,-133.5605 0,-152.5605 116,-152.5605 116,-133.5605 0,-133.5605"/>
<text text-anchor="middle" x="58" y="-140.5605" font-family="Helvetica,sans-Serif" font-size="10.00" fill="#000000">getPopMeanFiringRate</text>
</g>
<!-- Node592 -->
<g id="node2" class="node">
<title>Node592</title>
<g id="a_node2"><a xlink:href="classSpikeMonitorCore.html#a3a3ffdb35b09328d22e5d72503ed1f55" target="_top" xlink:title="returns recording status ">
<polygon fill="#ffffff" stroke="#000000" points="152,-190.5605 152,-209.5605 220,-209.5605 220,-190.5605 152,-190.5605"/>
<text text-anchor="middle" x="186" y="-197.5605" font-family="Helvetica,sans-Serif" font-size="10.00" fill="#000000">isRecording</text>
</a>
</g>
</g>
<!-- Node591&#45;&gt;Node592 -->
<g id="edge1" class="edge">
<title>Node591&#45;&gt;Node592</title>
<path fill="none" stroke="#191970" d="M79.4243,-152.601C100.1912,-161.8488 131.9035,-175.9707 155.3402,-186.4073"/>
<polygon fill="#191970" stroke="#191970" points="153.9468,-189.6181 164.5058,-190.4889 156.7944,-183.2235 153.9468,-189.6181"/>
</g>
<!-- Node596 -->
<g id="node6" class="node">
<title>Node596</title>
<g id="a_node6"><a xlink:href="classSpikeMonitorCore.html#af6c333e6cefff92d0e354eca70625cdc" target="_top" xlink:title="returns the total number of recorded spikes in the group ">
<polygon fill="#ffffff" stroke="#000000" points="367.5,-19.5605 367.5,-38.5605 465.5,-38.5605 465.5,-19.5605 367.5,-19.5605"/>
<text text-anchor="middle" x="416.5" y="-26.5605" font-family="Helvetica,sans-Serif" font-size="10.00" fill="#000000">getPopNumSpikes</text>
</a>
</g>
</g>
<!-- Node591&#45;&gt;Node596 -->
<g id="edge25" class="edge">
<title>Node591&#45;&gt;Node596</title>
<path fill="none" stroke="#191970" d="M85.1065,-133.4909C123.1381,-120.1552 194.5699,-95.4393 256,-76.0605 295.1024,-63.7252 339.904,-50.6971 372.2184,-41.4941"/>
<polygon fill="#191970" stroke="#191970" points="373.5846,-44.7446 382.2483,-38.6463 371.6726,-38.0108 373.5846,-44.7446"/>
</g>
<!-- Node599 -->
<g id="node9" class="node">
<title>Node599</title>
<g id="a_node9"><a xlink:href="classSpikeMonitorCore.html#a9cf20c30ff0efdbc5e3c5194648a7fb3" target="_top" xlink:title="returns the total recorded time in ms ">
<polygon fill="#ffffff" stroke="#000000" points="518,-57.5605 518,-76.5605 636,-76.5605 636,-57.5605 518,-57.5605"/>
<text text-anchor="middle" x="577" y="-64.5605" font-family="Helvetica,sans-Serif" font-size="10.00" fill="#000000">getRecordingTotalTime</text>
</a>
</g>
</g>
<!-- Node591&#45;&gt;Node599 -->
<g id="edge26" class="edge">
<title>Node591&#45;&gt;Node599</title>
<path fill="none" stroke="#191970" d="M71.5369,-133.5487C89.3892,-121.28 122.0524,-99.7726 152,-85.0605 236.8334,-43.3852 258.0133,-27.0015 351,-10.0605 408.2794,.3751 425.8904,5.481 482,-10.0605 510.6731,-18.0025 539.3808,-37.1582 557.6124,-51.0762"/>
<polygon fill="#191970" stroke="#191970" points="555.6505,-53.9859 565.6748,-57.4158 559.9773,-48.4833 555.6505,-53.9859"/>
</g>
<!-- Node593 -->
<g id="node3" class="node">
<title>Node593</title>
<g id="a_node3"><a xlink:href="classSpikeMonitorCore.html#af0ba89c38f6852cdf9d914687ad6a445" target="_top" xlink:title="prints the AER vector in human&#45;readable format ">
<polygon fill="#ffffff" stroke="#000000" points="268,-133.5605 268,-152.5605 303,-152.5605 303,-133.5605 268,-133.5605"/>
<text text-anchor="middle" x="285.5" y="-140.5605" font-family="Helvetica,sans-Serif" font-size="10.00" fill="#000000">print</text>
</a>
</g>
</g>
<!-- Node592&#45;&gt;Node593 -->
<g id="edge2" class="edge">
<title>Node592&#45;&gt;Node593</title>
<path fill="none" stroke="#191970" d="M195.5405,-190.4163C209.9663,-179.5506 237.8642,-162.9416 258.7864,-152.3031"/>
<polygon fill="#191970" stroke="#191970" points="260.3897,-155.4152 267.835,-147.8774 257.3141,-149.1271 260.3897,-155.4152"/>
</g>
<!-- Node603 -->
<g id="node13" class="node">
<title>Node603</title>
<g id="a_node13"><a xlink:href="classSpikeMonitorCore.html#a6e116c2994e0449c41e56d03370fa54c" target="_top" xlink:title="inserts a (time,neurId) tupel into the 2D spike vector ">
<polygon fill="#ffffff" stroke="#000000" points="256,-323.5605 256,-342.5605 315,-342.5605 315,-323.5605 256,-323.5605"/>
<text text-anchor="middle" x="285.5" y="-330.5605" font-family="Helvetica,sans-Serif" font-size="10.00" fill="#000000">pushAER</text>
</a>
</g>
</g>
<!-- Node592&#45;&gt;Node603 -->
<g id="edge22" class="edge">
<title>Node592&#45;&gt;Node603</title>
<path fill="none" stroke="#191970" d="M193.908,-209.6421C205.6385,-228.7134 229.1732,-270.0449 256,-300.0605 261.0845,-305.7493 267.5899,-311.1928 273.1973,-316.281"/>
<polygon fill="#191970" stroke="#191970" points="270.9181,-318.9485 280.5002,-323.4688 275.8284,-313.9596 270.9181,-318.9485"/>
</g>
<!-- Node593&#45;&gt;Node591 -->
<g id="edge12" class="edge">
<title>Node593&#45;&gt;Node591</title>
<path fill="none" stroke="#191970" d="M267.7879,-143.0605C237.7908,-143.0605 175.4783,-143.0605 126.5196,-143.0605"/>
<polygon fill="#191970" stroke="#191970" points="126.2915,-139.5606 116.2915,-143.0605 126.2914,-146.5606 126.2915,-139.5606"/>
</g>
<!-- Node593&#45;&gt;Node592 -->
<g id="edge3" class="edge">
<title>Node593&#45;&gt;Node592</title>
<path fill="none" stroke="#191970" d="M275.6958,-152.9028C263.3819,-162.1329 241.5574,-175.4045 222.5201,-185.6727"/>
<polygon fill="#191970" stroke="#191970" points="220.6739,-182.689 213.4522,-190.4413 223.9321,-188.8846 220.6739,-182.689"/>
</g>
<!-- Node594 -->
<g id="node4" class="node">
<title>Node594</title>
<g id="a_node4"><a xlink:href="classSNN.html#a5fd2b156623d78138bcb44167eabab78" target="_top" xlink:title="SNN::getSimTime">
<polygon fill="#ffffff" stroke="#000000" points="368,-133.5605 368,-152.5605 465,-152.5605 465,-133.5605 368,-133.5605"/>
<text text-anchor="middle" x="416.5" y="-140.5605" font-family="Helvetica,sans-Serif" font-size="10.00" fill="#000000">SNN::getSimTime</text>
</a>
</g>
</g>
<!-- Node593&#45;&gt;Node594 -->
<g id="edge4" class="edge">
<title>Node593&#45;&gt;Node594</title>
<path fill="none" stroke="#191970" d="M303.1672,-143.0605C317.2621,-143.0605 337.8546,-143.0605 357.6321,-143.0605"/>
<polygon fill="#191970" stroke="#191970" points="357.8616,-146.5606 367.8615,-143.0605 357.8615,-139.5606 357.8616,-146.5606"/>
</g>
<!-- Node595 -->
<g id="node5" class="node">
<title>Node595</title>
<g id="a_node5"><a xlink:href="classSNN.html#ab0367f8ebd4019bf7d34ebddb1563fe7" target="_top" xlink:title="SNN::getGroupName">
<polygon fill="#ffffff" stroke="#000000" points="361.5,-95.5605 361.5,-114.5605 471.5,-114.5605 471.5,-95.5605 361.5,-95.5605"/>
<text text-anchor="middle" x="416.5" y="-102.5605" font-family="Helvetica,sans-Serif" font-size="10.00" fill="#000000">SNN::getGroupName</text>
</a>
</g>
</g>
<!-- Node593&#45;&gt;Node595 -->
<g id="edge5" class="edge">
<title>Node593&#45;&gt;Node595</title>
<path fill="none" stroke="#191970" d="M303.1672,-137.9357C321.2134,-132.7009 349.9109,-124.3764 373.9122,-117.4142"/>
<polygon fill="#191970" stroke="#191970" points="374.8961,-120.7732 383.5251,-114.6257 372.9459,-114.0503 374.8961,-120.7732"/>
</g>
<!-- Node593&#45;&gt;Node596 -->
<g id="edge6" class="edge">
<title>Node593&#45;&gt;Node596</title>
<path fill="none" stroke="#191970" d="M294.9879,-133.3204C301.0059,-126.9368 308.7978,-118.2806 315,-110.0605 333.0469,-86.1421 327.6894,-71.8859 351,-53.0605 356.0702,-48.9659 361.9031,-45.5322 367.9539,-42.6625"/>
<polygon fill="#191970" stroke="#191970" points="369.7135,-45.7187 377.5635,-38.6034 366.9896,-39.2704 369.7135,-45.7187"/>
</g>
<!-- Node593&#45;&gt;Node599 -->
<g id="edge11" class="edge">
<title>Node593&#45;&gt;Node599</title>
<path fill="none" stroke="#191970" d="M293.1535,-133.3204C304.2731,-119.9851 326.2856,-96.5095 351,-86.0605 400.5631,-65.1057 461.6159,-61.1093 507.766,-61.9369"/>
<polygon fill="#191970" stroke="#191970" points="507.8823,-65.441 517.9699,-62.2022 508.0643,-58.4434 507.8823,-65.441"/>
</g>
<!-- Node600 -->
<g id="node10" class="node">
<title>Node600</title>
<g id="a_node10"><a xlink:href="classSpikeMonitorCore.html#ad0c4b32bb5cc0c7a8d95ed6023a2695f" target="_top" xlink:title="computes the standard deviation of firing rates in the group ">
<polygon fill="#ffffff" stroke="#000000" points="363,-247.5605 363,-266.5605 470,-266.5605 470,-247.5605 363,-247.5605"/>
<text text-anchor="middle" x="416.5" y="-254.5605" font-family="Helvetica,sans-Serif" font-size="10.00" fill="#000000">getPopStdFiringRate</text>
</a>
</g>
</g>
<!-- Node593&#45;&gt;Node600 -->
<g id="edge13" class="edge">
<title>Node593&#45;&gt;Node600</title>
<path fill="none" stroke="#191970" d="M296.669,-152.7801C319.0983,-172.2987 369.8357,-216.4518 397.5532,-240.5724"/>
<polygon fill="#191970" stroke="#191970" points="395.518,-243.4411 405.3593,-247.3655 400.1133,-238.1606 395.518,-243.4411"/>
</g>
<!-- Node602 -->
<g id="node12" class="node">
<title>Node602</title>
<g id="a_node12"><a xlink:href="classSpikeMonitorCore.html#aed09edf4583ac05d42fccc7e3556e3c5" target="_top" xlink:title="returns the recorded mean firing rate for a specific neuron ">
<polygon fill="#ffffff" stroke="#000000" points="351,-171.5605 351,-190.5605 482,-190.5605 482,-171.5605 351,-171.5605"/>
<text text-anchor="middle" x="416.5" y="-178.5605" font-family="Helvetica,sans-Serif" font-size="10.00" fill="#000000">getNeuronMeanFiringRate</text>
</a>
</g>
</g>
<!-- Node593&#45;&gt;Node602 -->
<g id="edge18" class="edge">
<title>Node593&#45;&gt;Node602</title>
<path fill="none" stroke="#191970" d="M303.1672,-148.1854C321.2134,-153.4201 349.9109,-161.7446 373.9122,-168.7068"/>
<polygon fill="#191970" stroke="#191970" points="372.9459,-172.0707 383.5251,-171.4953 374.8961,-165.3478 372.9459,-172.0707"/>
</g>
<!-- Node596&#45;&gt;Node592 -->
<g id="edge7" class="edge">
<title>Node596&#45;&gt;Node592</title>
<path fill="none" stroke="#191970" d="M392.9826,-38.673C380.2888,-44.1475 364.4994,-51.4247 351,-59.0605 306.4707,-84.2483 294.6884,-90.5868 256,-124.0605 234.9395,-142.2824 213.6788,-166.3541 200.2062,-182.4788"/>
<polygon fill="#191970" stroke="#191970" points="197.2294,-180.5878 193.5734,-190.5318 202.6327,-185.0381 197.2294,-180.5878"/>
</g>
<!-- Node597 -->
<g id="node7" class="node">
<title>Node597</title>
<g id="a_node7"><a xlink:href="classSpikeMonitorCore.html#a005a2f884f6260054483d4fa6ed6ddbb" target="_top" xlink:title="returns the number of recorded spikes of a specific neuron ">
<polygon fill="#ffffff" stroke="#000000" points="520.5,-190.5605 520.5,-209.5605 633.5,-209.5605 633.5,-190.5605 520.5,-190.5605"/>
<text text-anchor="middle" x="577" y="-197.5605" font-family="Helvetica,sans-Serif" font-size="10.00" fill="#000000">getNeuronNumSpikes</text>
</a>
</g>
</g>
<!-- Node596&#45;&gt;Node597 -->
<g id="edge8" class="edge">
<title>Node596&#45;&gt;Node597</title>
<path fill="none" stroke="#191970" d="M428.6041,-38.6113C442.1515,-49.52 464.4958,-68.178 482,-86.0605 513.3417,-118.0797 545.9436,-159.2074 563.6287,-182.2905"/>
<polygon fill="#191970" stroke="#191970" points="561.0061,-184.6239 569.845,-190.4654 566.5781,-180.3868 561.0061,-184.6239"/>
</g>
<!-- Node597&#45;&gt;Node592 -->
<g id="edge9" class="edge">
<title>Node597&#45;&gt;Node592</title>
<path fill="none" stroke="#191970" d="M520.4467,-202.6912C456.3081,-205.2678 348.6021,-208.3635 256,-205.0605 247.6899,-204.7641 238.8354,-204.2704 230.3175,-203.7056"/>
<polygon fill="#191970" stroke="#191970" points="230.3747,-200.201 220.1536,-202.9899 229.883,-207.1837 230.3747,-200.201"/>
</g>
<!-- Node598 -->
<g id="node8" class="node">
<title>Node598</title>
<g id="a_node8"><a xlink:href="classSpikeMonitorCore.html#abe76071e1ac3632d55f2455b239b3d12" target="_top" xlink:title="returns recording mode ">
<polygon fill="#ffffff" stroke="#000000" points="672,-256.5605 672,-275.5605 726,-275.5605 726,-256.5605 672,-256.5605"/>
<text text-anchor="middle" x="699" y="-263.5605" font-family="Helvetica,sans-Serif" font-size="10.00" fill="#000000">getMode</text>
</a>
</g>
</g>
<!-- Node597&#45;&gt;Node598 -->
<g id="edge10" class="edge">
<title>Node597&#45;&gt;Node598</title>
<path fill="none" stroke="#191970" d="M594.7398,-209.6575C615.0693,-220.6554 648.6059,-238.7981 672.1411,-251.5303"/>
<polygon fill="#191970" stroke="#191970" points="670.7779,-254.7721 681.2387,-256.452 674.1087,-248.6153 670.7779,-254.7721"/>
</g>
<!-- Node600&#45;&gt;Node591 -->
<g id="edge15" class="edge">
<title>Node600&#45;&gt;Node591</title>
<path fill="none" stroke="#191970" d="M410.0752,-266.7767C395.8582,-287.2761 359.4476,-334.5049 315,-352.0605 290.6112,-361.6934 280.0884,-362.4217 256,-352.0605 163.1389,-312.118 93.4235,-204.8418 68.2406,-161.552"/>
<polygon fill="#191970" stroke="#191970" points="71.1676,-159.6191 63.1765,-152.6626 65.0854,-163.0841 71.1676,-159.6191"/>
</g>
<!-- Node600&#45;&gt;Node592 -->
<g id="edge14" class="edge">
<title>Node600&#45;&gt;Node592</title>
<path fill="none" stroke="#191970" d="M362.8697,-252.9897C331.2631,-249.6211 290.7804,-243.6094 256,-233.0605 240.8366,-228.4614 224.7879,-221.096 211.8878,-214.4892"/>
<polygon fill="#191970" stroke="#191970" points="213.1813,-211.2144 202.7036,-209.6433 209.9146,-217.4055 213.1813,-211.2144"/>
</g>
<!-- Node601 -->
<g id="node11" class="node">
<title>Node601</title>
<g id="a_node11"><a xlink:href="classSpikeMonitorCore.html#a0fc20fcc5876030d796debd148ae7cee" target="_top" xlink:title="returns a list of firing rates for all neurons in the group (sorted by neuron ID ascending) ...">
<polygon fill="#ffffff" stroke="#000000" points="531,-266.5605 531,-285.5605 623,-285.5605 623,-266.5605 531,-266.5605"/>
<text text-anchor="middle" x="577" y="-273.5605" font-family="Helvetica,sans-Serif" font-size="10.00" fill="#000000">getAllFiringRates</text>
</a>
</g>
</g>
<!-- Node600&#45;&gt;Node601 -->
<g id="edge16" class="edge">
<title>Node600&#45;&gt;Node601</title>
<path fill="none" stroke="#191970" d="M470.3907,-263.4401C486.6051,-265.3596 504.4346,-267.4702 520.795,-269.407"/>
<polygon fill="#191970" stroke="#191970" points="520.4222,-272.8872 530.7643,-270.5871 521.2452,-265.9357 520.4222,-272.8872"/>
</g>
<!-- Node601&#45;&gt;Node592 -->
<g id="edge17" class="edge">
<title>Node601&#45;&gt;Node592</title>
<path fill="none" stroke="#191970" d="M530.7862,-282.8237C465.9494,-290.1468 345.8608,-295.6725 256,-253.0605 236.3819,-243.7576 216.9243,-228.3993 203.5219,-216.604"/>
<polygon fill="#191970" stroke="#191970" points="205.7748,-213.9224 196.0122,-209.8062 201.0771,-219.112 205.7748,-213.9224"/>
</g>
<!-- Node602&#45;&gt;Node592 -->
<g id="edge19" class="edge">
<title>Node602&#45;&gt;Node592</title>
<path fill="none" stroke="#191970" d="M350.8431,-186.4726C312.1835,-189.6593 264.3243,-193.6043 230.1516,-196.4211"/>
<polygon fill="#191970" stroke="#191970" points="229.6897,-192.9472 220.0111,-197.257 230.2648,-199.9236 229.6897,-192.9472"/>
</g>
<!-- Node602&#45;&gt;Node597 -->
<g id="edge20" class="edge">
<title>Node602&#45;&gt;Node597</title>
<path fill="none" stroke="#191970" d="M482.2446,-188.8434C491.5266,-189.9422 501.0764,-191.0727 510.3748,-192.1734"/>
<polygon fill="#191970" stroke="#191970" points="509.9992,-195.6533 520.3414,-193.3533 510.8222,-188.7018 509.9992,-195.6533"/>
</g>
<!-- Node602&#45;&gt;Node599 -->
<g id="edge21" class="edge">
<title>Node602&#45;&gt;Node599</title>
<path fill="none" stroke="#191970" d="M460.7575,-171.5363C468.1213,-169.0321 475.4767,-165.9166 482,-162.0605 516.2598,-141.8089 547.0526,-106.3512 563.7808,-84.9536"/>
<polygon fill="#191970" stroke="#191970" points="566.773,-86.8021 570.0581,-76.7294 561.2086,-82.555 566.773,-86.8021"/>
</g>
<!-- Node603&#45;&gt;Node592 -->
<g id="edge23" class="edge">
<title>Node603&#45;&gt;Node592</title>
<path fill="none" stroke="#191970" d="M261.3942,-323.53C259.4975,-321.7753 257.6719,-319.9311 256,-318.0605 228.3302,-287.1017 204.1626,-244.1046 192.8373,-219.1593"/>
<polygon fill="#191970" stroke="#191970" points="195.9322,-217.4934 188.7971,-209.6614 189.4908,-220.2335 195.9322,-217.4934"/>
</g>
<!-- Node603&#45;&gt;Node598 -->
<g id="edge24" class="edge">
<title>Node603&#45;&gt;Node598</title>
<path fill="none" stroke="#191970" d="M315.1803,-333.0442C376.3419,-332.3185 520.3703,-327.0243 636,-295.0605 648.6562,-291.5619 661.9622,-285.7814 673.0676,-280.2981"/>
<polygon fill="#191970" stroke="#191970" points="674.8876,-283.2982 682.1887,-275.6207 671.6934,-277.0694 674.8876,-283.2982"/>
</g>
</g>
</svg>
