<?xml version="1.0" encoding="UTF-8" standalone="no"?>
<!DOCTYPE svg PUBLIC "-//W3C//DTD SVG 1.1//EN"
 "http://www.w3.org/Graphics/SVG/1.1/DTD/svg11.dtd">
<!-- Generated by graphviz version 2.40.1 (20161225.0304)
 -->
<!-- Title: readFramePoisson Pages: 1 -->
<svg width="675pt" height="127pt"
 viewBox="0.00 0.00 675.00 127.00" xmlns="http://www.w3.org/2000/svg" xmlns:xlink="http://www.w3.org/1999/xlink">
<g id="graph0" class="graph" transform="scale(1 1) rotate(0) translate(4 123)">
<title>readFramePoisson</title>
<polygon fill="#ffffff" stroke="transparent" points="-4,4 -4,-123 671,-123 671,4 -4,4"/>
<!-- Node35 -->
<g id="node1" class="node">
<title>Node35</title>
<polygon fill="#bfbfbf" stroke="#000000" points="0,-50 0,-69 98,-69 98,-50 0,-50"/>
<text text-anchor="middle" x="49" y="-57" font-family="Helvetica,sans-Serif" font-size="10.00" fill="#000000">readFramePoisson</text>
</g>
<!-- Node36 -->
<g id="node2" class="node">
<title>Node36</title>
<g id="a_node2"><a xlink:href="classPoissonRate.html#a99ac51f213a6d1c8487b1519106df970" target="_top" xlink:title="Sets the mean firing rate of a particular neuron ID. ">
<polygon fill="#ffffff" stroke="#000000" points="134,-50 134,-69 247,-69 247,-50 134,-50"/>
<text text-anchor="middle" x="190.5" y="-57" font-family="Helvetica,sans-Serif" font-size="10.00" fill="#000000">PoissonRate::setRate</text>
</a>
</g>
</g>
<!-- Node35&#45;&gt;Node36 -->
<g id="edge1" class="edge">
<title>Node35&#45;&gt;Node36</title>
<path fill="none" stroke="#191970" d="M98.0927,-59.5C106.3542,-59.5 115.0518,-59.5 123.6715,-59.5"/>
<polygon fill="#191970" stroke="#191970" points="123.7237,-63.0001 133.7237,-59.5 123.7236,-56.0001 123.7237,-63.0001"/>
</g>
<!-- Node37 -->
<g id="node3" class="node">
<title>Node37</title>
<g id="a_node3"><a xlink:href="classPoissonRate_1_1Impl.html#a99ac51f213a6d1c8487b1519106df970" target="_top" xlink:title="PoissonRate::Impl::\lsetRate">
<polygon fill="#ffffff" stroke="#000000" points="283,-44.5 283,-74.5 387,-74.5 387,-44.5 283,-44.5"/>
<text text-anchor="start" x="291" y="-62.5" font-family="Helvetica,sans-Serif" font-size="10.00" fill="#000000">PoissonRate::Impl::</text>
<text text-anchor="middle" x="335" y="-51.5" font-family="Helvetica,sans-Serif" font-size="10.00" fill="#000000">setRate</text>
</a>
</g>
</g>
<!-- Node36&#45;&gt;Node37 -->
<g id="edge2" class="edge">
<title>Node36&#45;&gt;Node37</title>
<path fill="none" stroke="#191970" d="M247.1955,-59.5C255.5149,-59.5 264.1231,-59.5 272.5501,-59.5"/>
<polygon fill="#191970" stroke="#191970" points="272.7077,-63.0001 282.7077,-59.5 272.7077,-56.0001 272.7077,-63.0001"/>
</g>
<!-- Node38 -->
<g id="node4" class="node">
<title>Node38</title>
<g id="a_node4"><a xlink:href="classPoissonRate_1_1Impl.html#a39ade841ecc17249712f693ef8ffaa19" target="_top" xlink:title="PoissonRate::Impl::\lsetRates">
<polygon fill="#ffffff" stroke="#000000" points="423,-88.5 423,-118.5 527,-118.5 527,-88.5 423,-88.5"/>
<text text-anchor="start" x="431" y="-106.5" font-family="Helvetica,sans-Serif" font-size="10.00" fill="#000000">PoissonRate::Impl::</text>
<text text-anchor="middle" x="475" y="-95.5" font-family="Helvetica,sans-Serif" font-size="10.00" fill="#000000">setRates</text>
</a>
</g>
</g>
<!-- Node37&#45;&gt;Node38 -->
<g id="edge3" class="edge">
<title>Node37&#45;&gt;Node38</title>
<path fill="none" stroke="#191970" d="M382.7885,-74.5192C393.8164,-77.9852 405.6648,-81.7089 417.0722,-85.2941"/>
<polygon fill="#191970" stroke="#191970" points="416.3622,-88.7397 426.9516,-88.3991 418.461,-82.0617 416.3622,-88.7397"/>
</g>
<!-- Node39 -->
<g id="node5" class="node">
<title>Node39</title>
<g id="a_node5"><a xlink:href="classPoissonRate_1_1Impl.html#a00ddee44990cd4763a7d4df074e6d405" target="_top" xlink:title="PoissonRate::Impl::\lgetNumNeurons">
<polygon fill="#ffffff" stroke="#000000" points="563,-66.5 563,-96.5 667,-96.5 667,-66.5 563,-66.5"/>
<text text-anchor="start" x="571" y="-84.5" font-family="Helvetica,sans-Serif" font-size="10.00" fill="#000000">PoissonRate::Impl::</text>
<text text-anchor="middle" x="615" y="-73.5" font-family="Helvetica,sans-Serif" font-size="10.00" fill="#000000">getNumNeurons</text>
</a>
</g>
</g>
<!-- Node37&#45;&gt;Node39 -->
<g id="edge5" class="edge">
<title>Node37&#45;&gt;Node39</title>
<path fill="none" stroke="#191970" d="M387.0096,-63.5865C433.9126,-67.2717 502.9736,-72.6979 552.7868,-76.6118"/>
<polygon fill="#191970" stroke="#191970" points="552.5511,-80.104 562.7946,-77.3981 553.0995,-73.1255 552.5511,-80.104"/>
</g>
<!-- Node40 -->
<g id="node6" class="node">
<title>Node40</title>
<g id="a_node6"><a xlink:href="classPoissonRate_1_1Impl.html#a0bc9734220de46306a6db7b2b33f7902" target="_top" xlink:title="PoissonRate::Impl::\lisOnGPU">
<polygon fill="#ffffff" stroke="#000000" points="423,-.5 423,-30.5 527,-30.5 527,-.5 423,-.5"/>
<text text-anchor="start" x="431" y="-18.5" font-family="Helvetica,sans-Serif" font-size="10.00" fill="#000000">PoissonRate::Impl::</text>
<text text-anchor="middle" x="475" y="-7.5" font-family="Helvetica,sans-Serif" font-size="10.00" fill="#000000">isOnGPU</text>
</a>
</g>
</g>
<!-- Node37&#45;&gt;Node40 -->
<g id="edge6" class="edge">
<title>Node37&#45;&gt;Node40</title>
<path fill="none" stroke="#191970" d="M382.7885,-44.4808C393.8164,-41.0148 405.6648,-37.2911 417.0722,-33.7059"/>
<polygon fill="#191970" stroke="#191970" points="418.461,-36.9383 426.9516,-30.6009 416.3622,-30.2603 418.461,-36.9383"/>
</g>
<!-- Node38&#45;&gt;Node39 -->
<g id="edge4" class="edge">
<title>Node38&#45;&gt;Node39</title>
<path fill="none" stroke="#191970" d="M527.1308,-95.308C535.5124,-93.9909 544.2603,-92.6162 552.8486,-91.2667"/>
<polygon fill="#191970" stroke="#191970" points="553.4902,-94.7089 562.8256,-89.6988 552.4035,-87.7937 553.4902,-94.7089"/>
</g>
</g>
</svg>
