<?xml version="1.0" encoding="UTF-8" standalone="no"?>
<!DOCTYPE svg PUBLIC "-//W3C//DTD SVG 1.1//EN"
 "http://www.w3.org/Graphics/SVG/1.1/DTD/svg11.dtd">
<!-- Generated by graphviz version 2.40.1 (20161225.0304)
 -->
<!-- Title: getNumWeightsInRange Pages: 1 -->
<!--zoomable 137 -->
<svg id="main" version="1.1" xmlns="http://www.w3.org/2000/svg" xmlns:xlink="http://www.w3.org/1999/xlink" xml:space="preserve" onload="init(evt)">
<style type="text/css"><![CDATA[
.edge:hover path { stroke: red; }
.edge:hover polygon { stroke: red; fill: red; }
]]></style>
<script type="text/javascript"><![CDATA[
var edges = document.getElementsByTagName('g');
if (edges && edges.length) {
  for (var i=0;i<edges.length;i++) {
    if (edges[i].id.substr(0,4)=='edge') {
      edges[i].setAttribute('class','edge');
    }
  }
}
]]></script>
        <defs>
                <circle id="rim" cx="0" cy="0" r="7"/>
                <circle id="rim2" cx="0" cy="0" r="3.5"/>
                <g id="zoomPlus">
                        <use xlink:href="#rim" fill="#404040">
                                <set attributeName="fill" to="#808080" begin="zoomplus.mouseover" end="zoomplus.mouseout"/>
                        </use>
                        <path d="M-4,0h8M0,-4v8" fill="none" stroke="white" stroke-width="1.5" pointer-events="none"/>
                </g>
                <g id="zoomMin">
                        <use xlink:href="#rim" fill="#404040">
                                <set attributeName="fill" to="#808080" begin="zoomminus.mouseover" end="zoomminus.mouseout"/>
                        </use>
                        <path d="M-4,0h8" fill="none" stroke="white" stroke-width="1.5" pointer-events="none"/>
                </g>
                <g id="dirArrow">
                        <path fill="none" stroke="white" stroke-width="1.5" d="M0,-3.0v7 M-2.5,-0.5L0,-3.0L2.5,-0.5"/>
                </g>
               <g id="resetDef">
                       <use xlink:href="#rim2" fill="#404040">
                               <set attributeName="fill" to="#808080" begin="reset.mouseover" end="reset.mouseout"/>
                       </use>
               </g>
        </defs>

<script type="text/javascript">
var viewWidth = 809;
var viewHeight = 137;
var sectionId = 'dynsection-16';
</script>
<script xlink:href="svgpan.js"/>
<svg id="graph" class="graph">
<g id="viewport">
<title>getNumWeightsInRange</title>
<polygon fill="#ffffff" stroke="transparent" points="-4,4 -4,-133 805,-133 805,4 -4,4"/>
<!-- Node131 -->
<g id="node1" class="node">
<title>Node131</title>
<polygon fill="#bfbfbf" stroke="#000000" points="0,-55 0,-74 124,-74 124,-55 0,-55"/>
<text text-anchor="middle" x="62" y="-62" font-family="Helvetica,sans-Serif" font-size="10.00" fill="#000000">getNumWeightsInRange</text>
</g>
<!-- Node132 -->
<g id="node2" class="node">
<title>Node132</title>
<g id="a_node2"><a xlink:href="classConnectionMonitor.html#ad005723dcdb0848e308eb2483c2dab2c" target="_top" xlink:title="Returns the number of weights in the connection whose values are within some range (inclusive) ...">
<polygon fill="#ffffff" stroke="#000000" points="496,-98.5 496,-128.5 620,-128.5 620,-98.5 496,-98.5"/>
<text text-anchor="start" x="504" y="-116.5" font-family="Helvetica,sans-Serif" font-size="10.00" fill="#000000">ConnectionMonitor::</text>
<text text-anchor="middle" x="558" y="-105.5" font-family="Helvetica,sans-Serif" font-size="10.00" fill="#000000">getNumWeightsInRange</text>
</a>
</g>
</g>
<!-- Node131&#45;&gt;Node132 -->
<g id="edge1" class="edge">
<title>Node131&#45;&gt;Node132</title>
<path fill="none" stroke="#191970" d="M106.6523,-76.6213C123.2825,-80.7003 142.3932,-84.8772 160,-87.5 277.9719,-105.0737 417.3749,-110.7694 495.9597,-112.6152"/>
<polygon fill="#191970" stroke="#191970" points="107.2052,-73.1515 96.6537,-74.1089 105.4993,-79.9404 107.2052,-73.1515"/>
</g>
<!-- Node134 -->
<g id="node4" class="node">
<title>Node134</title>
<g id="a_node4"><a xlink:href="classConnectionMonitorCore.html#af0258258ab62c21e22a4bc98dcaa050e" target="_top" xlink:title="returns number of weights that have a certain value ">
<polygon fill="#ffffff" stroke="#000000" points="160,-8 160,-27 292,-27 292,-8 160,-8"/>
<text text-anchor="middle" x="226" y="-15" font-family="Helvetica,sans-Serif" font-size="10.00" fill="#000000">getNumWeightsWithValue</text>
</a>
</g>
</g>
<!-- Node131&#45;&gt;Node134 -->
<g id="edge3" class="edge">
<title>Node131&#45;&gt;Node134</title>
<path fill="none" stroke="#191970" d="M104.9009,-52.2052C132.2845,-44.3575 167.2635,-34.333 192.5805,-27.0776"/>
<polygon fill="#191970" stroke="#191970" points="103.8366,-48.8693 95.1878,-54.9888 105.7651,-55.5984 103.8366,-48.8693"/>
</g>
<!-- Node137 -->
<g id="node7" class="node">
<title>Node137</title>
<g id="a_node7"><a xlink:href="classConnectionMonitorCore.html#a7373a8cecde25ccd48b3df967b5b0417" target="_top" xlink:title="returns number of synapses that exist in the connection ">
<polygon fill="#ffffff" stroke="#000000" points="346.5,-55 346.5,-74 441.5,-74 441.5,-55 346.5,-55"/>
<text text-anchor="middle" x="394" y="-62" font-family="Helvetica,sans-Serif" font-size="10.00" fill="#000000">getNumSynapses</text>
</a>
</g>
</g>
<!-- Node131&#45;&gt;Node137 -->
<g id="edge12" class="edge">
<title>Node131&#45;&gt;Node137</title>
<path fill="none" stroke="#191970" d="M134.1394,-58.819C198.5222,-57.1685 290.9632,-57.4292 346.4804,-59.6013"/>
<polygon fill="#191970" stroke="#191970" points="133.9557,-55.3227 124.0572,-59.1003 134.151,-62.3199 133.9557,-55.3227"/>
</g>
<!-- Node133 -->
<g id="node3" class="node">
<title>Node133</title>
<g id="a_node3"><a xlink:href="classConnectionMonitor.html#a173c90da62c3cb84f7e8c9db9a00d950" target="_top" xlink:title="Returns the percentage of weights whose values are within some range (inclusive) ">
<polygon fill="#ffffff" stroke="#000000" points="660,-98.5 660,-128.5 797,-128.5 797,-98.5 660,-98.5"/>
<text text-anchor="start" x="668" y="-116.5" font-family="Helvetica,sans-Serif" font-size="10.00" fill="#000000">ConnectionMonitor::</text>
<text text-anchor="middle" x="728.5" y="-105.5" font-family="Helvetica,sans-Serif" font-size="10.00" fill="#000000">getPercentWeightsInRange</text>
</a>
</g>
</g>
<!-- Node132&#45;&gt;Node133 -->
<g id="edge2" class="edge">
<title>Node132&#45;&gt;Node133</title>
<path fill="none" stroke="#191970" d="M630.1837,-113.5C640.0252,-113.5 650.1046,-113.5 659.8805,-113.5"/>
<polygon fill="#191970" stroke="#191970" points="630.0368,-110.0001 620.0367,-113.5 630.0367,-117.0001 630.0368,-110.0001"/>
</g>
<!-- Node135 -->
<g id="node5" class="node">
<title>Node135</title>
<g id="a_node5"><a xlink:href="classConnectionMonitor.html#af0258258ab62c21e22a4bc98dcaa050e" target="_top" xlink:title="Returns the number of weights in the connection with a particular value. ">
<polygon fill="#ffffff" stroke="#000000" points="328,-1.5 328,-31.5 460,-31.5 460,-1.5 328,-1.5"/>
<text text-anchor="start" x="336" y="-19.5" font-family="Helvetica,sans-Serif" font-size="10.00" fill="#000000">ConnectionMonitor::</text>
<text text-anchor="middle" x="394" y="-8.5" font-family="Helvetica,sans-Serif" font-size="10.00" fill="#000000">getNumWeightsWithValue</text>
</a>
</g>
</g>
<!-- Node134&#45;&gt;Node135 -->
<g id="edge4" class="edge">
<title>Node134&#45;&gt;Node135</title>
<path fill="none" stroke="#191970" d="M302.5946,-17.0441C311.0134,-16.994 319.5322,-16.9433 327.8092,-16.894"/>
<polygon fill="#191970" stroke="#191970" points="302.377,-13.5452 292.398,-17.1048 302.4187,-20.5451 302.377,-13.5452"/>
</g>
<!-- Node134&#45;&gt;Node137 -->
<g id="edge6" class="edge">
<title>Node134&#45;&gt;Node137</title>
<path fill="none" stroke="#191970" d="M269.9473,-29.7948C297.9988,-37.6425 333.8309,-47.667 359.7654,-54.9224"/>
<polygon fill="#191970" stroke="#191970" points="270.5705,-26.3348 259.9973,-27.0112 268.6846,-33.076 270.5705,-26.3348"/>
</g>
<!-- Node136 -->
<g id="node6" class="node">
<title>Node136</title>
<g id="a_node6"><a xlink:href="classConnectionMonitor.html#aaae3bcd84ecd00b25b7c8e03ac37e5c0" target="_top" xlink:title="Returns the percentage of weights in the connection with a particular value. ">
<polygon fill="#ffffff" stroke="#000000" points="656,-.5 656,-30.5 801,-30.5 801,-.5 656,-.5"/>
<text text-anchor="start" x="664" y="-18.5" font-family="Helvetica,sans-Serif" font-size="10.00" fill="#000000">ConnectionMonitor::</text>
<text text-anchor="middle" x="728.5" y="-7.5" font-family="Helvetica,sans-Serif" font-size="10.00" fill="#000000">getPercentWeightsWithValue</text>
</a>
</g>
</g>
<!-- Node135&#45;&gt;Node136 -->
<g id="edge5" class="edge">
<title>Node135&#45;&gt;Node136</title>
<path fill="none" stroke="#191970" d="M470.2539,-16.272C525.9629,-16.1055 601.0365,-15.8811 655.8782,-15.7171"/>
<polygon fill="#191970" stroke="#191970" points="470.0759,-12.7725 460.0864,-16.3024 470.0969,-19.7724 470.0759,-12.7725"/>
</g>
<!-- Node137&#45;&gt;Node131 -->
<g id="edge11" class="edge">
<title>Node137&#45;&gt;Node131</title>
<path fill="none" stroke="#191970" d="M336.1615,-69.7671C276.8376,-71.6991 184.8742,-71.7433 124.0572,-69.8997"/>
<polygon fill="#191970" stroke="#191970" points="336.6117,-73.2534 346.4804,-69.3987 336.3619,-66.2578 336.6117,-73.2534"/>
</g>
<!-- Node138 -->
<g id="node8" class="node">
<title>Node138</title>
<g id="a_node8"><a xlink:href="classConnectionMonitor.html#a7373a8cecde25ccd48b3df967b5b0417" target="_top" xlink:title="Returns the number of allocated synapses. ">
<polygon fill="#ffffff" stroke="#000000" points="506,-49.5 506,-79.5 610,-79.5 610,-49.5 506,-49.5"/>
<text text-anchor="start" x="514" y="-67.5" font-family="Helvetica,sans-Serif" font-size="10.00" fill="#000000">ConnectionMonitor::</text>
<text text-anchor="middle" x="558" y="-56.5" font-family="Helvetica,sans-Serif" font-size="10.00" fill="#000000">getNumSynapses</text>
</a>
</g>
</g>
<!-- Node137&#45;&gt;Node138 -->
<g id="edge7" class="edge">
<title>Node137&#45;&gt;Node138</title>
<path fill="none" stroke="#191970" d="M451.9816,-64.5C469.5058,-64.5 488.6351,-64.5 505.7607,-64.5"/>
<polygon fill="#191970" stroke="#191970" points="451.8765,-61.0001 441.8765,-64.5 451.8764,-68.0001 451.8765,-61.0001"/>
</g>
<!-- Node138&#45;&gt;Node133 -->
<g id="edge9" class="edge">
<title>Node138&#45;&gt;Node133</title>
<path fill="none" stroke="#191970" d="M619.8585,-82.2775C638.3173,-87.5824 658.3619,-93.343 676.1494,-98.4549"/>
<polygon fill="#191970" stroke="#191970" points="620.6598,-78.8662 610.0821,-79.4679 618.7263,-85.5939 620.6598,-78.8662"/>
</g>
<!-- Node138&#45;&gt;Node136 -->
<g id="edge10" class="edge">
<title>Node138&#45;&gt;Node136</title>
<path fill="none" stroke="#191970" d="M619.8585,-46.7225C638.3173,-41.4176 658.3619,-35.657 676.1494,-30.5451"/>
<polygon fill="#191970" stroke="#191970" points="618.7263,-43.4061 610.0821,-49.5321 620.6598,-50.1338 618.7263,-43.4061"/>
</g>
<!-- Node139 -->
<g id="node9" class="node">
<title>Node139</title>
<g id="a_node9"><a xlink:href="classConnectionMonitor.html#ab8aa0b542059991a270030b6528d92bd" target="_top" xlink:title="Returns the percentage of weights that have changed since the last snapshot. ">
<polygon fill="#ffffff" stroke="#000000" points="659,-49.5 659,-79.5 798,-79.5 798,-49.5 659,-49.5"/>
<text text-anchor="start" x="667" y="-67.5" font-family="Helvetica,sans-Serif" font-size="10.00" fill="#000000">ConnectionMonitor::</text>
<text text-anchor="middle" x="728.5" y="-56.5" font-family="Helvetica,sans-Serif" font-size="10.00" fill="#000000">getPercentWeightsChanged</text>
</a>
</g>
</g>
<!-- Node138&#45;&gt;Node139 -->
<g id="edge8" class="edge">
<title>Node138&#45;&gt;Node139</title>
<path fill="none" stroke="#191970" d="M620.3908,-64.5C632.8924,-64.5 646.1022,-64.5 658.8322,-64.5"/>
<polygon fill="#191970" stroke="#191970" points="620.0821,-61.0001 610.0821,-64.5 620.082,-68.0001 620.0821,-61.0001"/>
</g>
</g>
</svg>
        <g id="navigator" transform="translate(0 0)" fill="#404254">
                <rect fill="#f2f5e9" fill-opacity="0.5" stroke="#606060" stroke-width=".5" x="0" y="0" width="60" height="60"/>
                <use id="zoomplus" xlink:href="#zoomPlus" x="17" y="9" onmousedown="handleZoom(evt,'in')"/>
                <use id="zoomminus" xlink:href="#zoomMin" x="42" y="9" onmousedown="handleZoom(evt,'out')"/>
                <use id="reset" xlink:href="#resetDef" x="30" y="36" onmousedown="handleReset()"/>
                <g id="arrowUp" xlink:href="#dirArrow" transform="translate(30 24)" onmousedown="handlePan(0,-1)">
                  <use xlink:href="#rim" fill="#404040">
                        <set attributeName="fill" to="#808080" begin="arrowUp.mouseover" end="arrowUp.mouseout"/>
                  </use>
                  <path fill="none" stroke="white" stroke-width="1.5" d="M0,-3.0v7 M-2.5,-0.5L0,-3.0L2.5,-0.5"/>
                </g>
                <g id="arrowRight" xlink:href="#dirArrow" transform="rotate(90) translate(36 -43)" onmousedown="handlePan(1,0)">
                  <use xlink:href="#rim" fill="#404040">
                        <set attributeName="fill" to="#808080" begin="arrowRight.mouseover" end="arrowRight.mouseout"/>
                  </use>
                  <path fill="none" stroke="white" stroke-width="1.5" d="M0,-3.0v7 M-2.5,-0.5L0,-3.0L2.5,-0.5"/>
                </g>
                <g id="arrowDown" xlink:href="#dirArrow" transform="rotate(180) translate(-30 -48)" onmousedown="handlePan(0,1)">
                  <use xlink:href="#rim" fill="#404040">
                        <set attributeName="fill" to="#808080" begin="arrowDown.mouseover" end="arrowDown.mouseout"/>
                  </use>
                  <path fill="none" stroke="white" stroke-width="1.5" d="M0,-3.0v7 M-2.5,-0.5L0,-3.0L2.5,-0.5"/>
                </g>
                <g id="arrowLeft" xlink:href="#dirArrow" transform="rotate(270) translate(-36 17)" onmousedown="handlePan(-1,0)">
                  <use xlink:href="#rim" fill="#404040">
                        <set attributeName="fill" to="#808080" begin="arrowLeft.mouseover" end="arrowLeft.mouseout"/>
                  </use>
                  <path fill="none" stroke="white" stroke-width="1.5" d="M0,-3.0v7 M-2.5,-0.5L0,-3.0L2.5,-0.5"/>
                </g>
        </g>
        <svg viewBox="0 0 15 15" width="100%" height="30px" preserveAspectRatio="xMaxYMin meet">
         <g id="arrow_out" transform="scale(0.3 0.3)">
          <a xlink:href="classConnectionMonitorCore_a6c63078d9c2226cd48f51e4d4ed0d4db_icgraph_org.svg" target="_base">
           <rect id="button" ry="5" rx="5" y="6" x="6" height="38" width="38"
                fill="#f2f5e9" fill-opacity="0.5" stroke="#606060" stroke-width="1.0"/>
           <path id="arrow"
             d="M 11.500037,31.436501 C 11.940474,20.09759 22.043105,11.32322 32.158766,21.979434 L 37.068811,17.246167 C 37.068811,17.246167 37.088388,32 37.088388,32 L 22.160133,31.978069 C 22.160133,31.978069 26.997745,27.140456 26.997745,27.140456 C 18.528582,18.264221 13.291696,25.230495 11.500037,31.436501 z"
             style="fill:#404040;"/>
          </a>
         </g>
        </svg>
</svg>
