<?xml version="1.0" encoding="UTF-8" standalone="no"?>
<!DOCTYPE svg PUBLIC "-//W3C//DTD SVG 1.1//EN"
 "http://www.w3.org/Graphics/SVG/1.1/DTD/svg11.dtd">
<!-- Generated by graphviz version 2.40.1 (20161225.0304)
 -->
<!-- Title: setSTP Pages: 1 -->
<svg width="493pt" height="180pt"
 viewBox="0.00 0.00 493.00 180.00" xmlns="http://www.w3.org/2000/svg" xmlns:xlink="http://www.w3.org/1999/xlink">
<g id="graph0" class="graph" transform="scale(1 1) rotate(0) translate(4 176)">
<title>setSTP</title>
<polygon fill="#ffffff" stroke="transparent" points="-4,4 -4,-176 489,-176 489,4 -4,4"/>
<!-- Node1224 -->
<g id="node1" class="node">
<title>Node1224</title>
<polygon fill="#bfbfbf" stroke="#000000" points="0,-76.5 0,-95.5 50,-95.5 50,-76.5 0,-76.5"/>
<text text-anchor="middle" x="25" y="-83.5" font-family="Helvetica,sans-Serif" font-size="10.00" fill="#000000">setSTP</text>
</g>
<!-- Node1225 -->
<g id="node2" class="node">
<title>Node1225</title>
<g id="a_node2"><a xlink:href="classCARLsim_1_1Impl.html#ab0367f8ebd4019bf7d34ebddb1563fe7" target="_top" xlink:title="getGroupName">
<polygon fill="#ffffff" stroke="#000000" points="92,-76.5 92,-95.5 175,-95.5 175,-76.5 92,-76.5"/>
<text text-anchor="middle" x="133.5" y="-83.5" font-family="Helvetica,sans-Serif" font-size="10.00" fill="#000000">getGroupName</text>
</a>
</g>
</g>
<!-- Node1224&#45;&gt;Node1225 -->
<g id="edge1" class="edge">
<title>Node1224&#45;&gt;Node1225</title>
<path fill="none" stroke="#191970" d="M50.1648,-86C59.6548,-86 70.8307,-86 81.8622,-86"/>
<polygon fill="#191970" stroke="#191970" points="81.9002,-89.5001 91.9001,-86 81.9001,-82.5001 81.9002,-89.5001"/>
</g>
<!-- Node1226 -->
<g id="node3" class="node">
<title>Node1226</title>
<g id="a_node3"><a xlink:href="classUserErrors.html#a4bbedc6c0817d5e59e74e450bf00472c" target="_top" xlink:title="simple wrapper for assert statement ">
<polygon fill="#ffffff" stroke="#000000" points="220,-114.5 220,-133.5 336,-133.5 336,-114.5 220,-114.5"/>
<text text-anchor="middle" x="278" y="-121.5" font-family="Helvetica,sans-Serif" font-size="10.00" fill="#000000">UserErrors::assertTrue</text>
</a>
</g>
</g>
<!-- Node1224&#45;&gt;Node1226 -->
<g id="edge6" class="edge">
<title>Node1224&#45;&gt;Node1226</title>
<path fill="none" stroke="#191970" d="M50.2235,-95.122C61.0986,-98.7231 74.0426,-102.5725 86,-105 126.6574,-113.2541 172.9158,-117.9688 209.8387,-120.6367"/>
<polygon fill="#191970" stroke="#191970" points="209.776,-124.1406 219.9929,-121.3362 210.2571,-117.1572 209.776,-124.1406"/>
</g>
<!-- Node1230 -->
<g id="node7" class="node">
<title>Node1230</title>
<g id="a_node7"><a xlink:href="classCARLsim_1_1Impl.html#a31ec8880e31fbcb9d002d713ce0d8f1d" target="_top" xlink:title="isExcitatoryGroup">
<polygon fill="#ffffff" stroke="#000000" points="86,-38.5 86,-57.5 181,-57.5 181,-38.5 86,-38.5"/>
<text text-anchor="middle" x="133.5" y="-45.5" font-family="Helvetica,sans-Serif" font-size="10.00" fill="#000000">isExcitatoryGroup</text>
</a>
</g>
</g>
<!-- Node1224&#45;&gt;Node1230 -->
<g id="edge7" class="edge">
<title>Node1224&#45;&gt;Node1230</title>
<path fill="none" stroke="#191970" d="M50.1648,-77.1865C63.9274,-72.3665 81.2356,-66.3046 96.5071,-60.956"/>
<polygon fill="#191970" stroke="#191970" points="97.9099,-64.1732 106.1909,-57.5645 95.5961,-57.5667 97.9099,-64.1732"/>
</g>
<!-- Node1232 -->
<g id="node9" class="node">
<title>Node1232</title>
<g id="a_node9"><a xlink:href="classCARLsim_1_1Impl.html#a3f0193605d59ef263b682a468bbcbf87" target="_top" xlink:title="isInhibitoryGroup">
<polygon fill="#ffffff" stroke="#000000" points="88.5,-152.5 88.5,-171.5 178.5,-171.5 178.5,-152.5 88.5,-152.5"/>
<text text-anchor="middle" x="133.5" y="-159.5" font-family="Helvetica,sans-Serif" font-size="10.00" fill="#000000">isInhibitoryGroup</text>
</a>
</g>
</g>
<!-- Node1224&#45;&gt;Node1232 -->
<g id="edge11" class="edge">
<title>Node1224&#45;&gt;Node1232</title>
<path fill="none" stroke="#191970" d="M34.7677,-95.6198C46.346,-106.7047 66.5331,-125.0535 86,-138 91.1257,-141.4089 96.8007,-144.669 102.3919,-147.6268"/>
<polygon fill="#191970" stroke="#191970" points="101.1078,-150.8996 111.6107,-152.2923 104.2687,-144.6539 101.1078,-150.8996"/>
</g>
<!-- Node1234 -->
<g id="node11" class="node">
<title>Node1234</title>
<g id="a_node11"><a xlink:href="classSNN.html#a54170c96807d6cdf699fa3664f81505e" target="_top" xlink:title="Sets STP params U, tau_u, and tau_x of a neuron group (pre&#45;synaptically) CARLsim implements the short...">
<polygon fill="#ffffff" stroke="#000000" points="95,-.5 95,-19.5 172,-19.5 172,-.5 95,-.5"/>
<text text-anchor="middle" x="133.5" y="-7.5" font-family="Helvetica,sans-Serif" font-size="10.00" fill="#000000">SNN::setSTP</text>
</a>
</g>
</g>
<!-- Node1224&#45;&gt;Node1234 -->
<g id="edge15" class="edge">
<title>Node1224&#45;&gt;Node1234</title>
<path fill="none" stroke="#191970" d="M33.2143,-76.3648C44.1827,-63.9968 64.7132,-42.5246 86,-29 88.9377,-27.1335 92.0891,-25.3932 95.3199,-23.7842"/>
<polygon fill="#191970" stroke="#191970" points="96.8677,-26.9254 104.5237,-19.6017 93.9716,-20.5525 96.8677,-26.9254"/>
</g>
<!-- Node1225&#45;&gt;Node1226 -->
<g id="edge2" class="edge">
<title>Node1225&#45;&gt;Node1226</title>
<path fill="none" stroke="#191970" d="M169.9635,-95.589C188.7741,-100.5358 211.9146,-106.6211 231.9472,-111.8892"/>
<polygon fill="#191970" stroke="#191970" points="231.2374,-115.3215 241.7988,-114.4799 233.0177,-108.5517 231.2374,-115.3215"/>
</g>
<!-- Node1227 -->
<g id="node4" class="node">
<title>Node1227</title>
<g id="a_node4"><a xlink:href="classCARLsim_1_1Impl.html#a292bdee57fec7c77ec4c15ea3f508d60" target="_top" xlink:title="getNumGroups">
<polygon fill="#ffffff" stroke="#000000" points="236.5,-38.5 236.5,-57.5 319.5,-57.5 319.5,-38.5 236.5,-38.5"/>
<text text-anchor="middle" x="278" y="-45.5" font-family="Helvetica,sans-Serif" font-size="10.00" fill="#000000">getNumGroups</text>
</a>
</g>
</g>
<!-- Node1225&#45;&gt;Node1227 -->
<g id="edge3" class="edge">
<title>Node1225&#45;&gt;Node1227</title>
<path fill="none" stroke="#191970" d="M169.9635,-76.411C188.7741,-71.4642 211.9146,-65.3789 231.9472,-60.1108"/>
<polygon fill="#191970" stroke="#191970" points="233.0177,-63.4483 241.7988,-57.5201 231.2374,-56.6785 233.0177,-63.4483"/>
</g>
<!-- Node1229 -->
<g id="node6" class="node">
<title>Node1229</title>
<g id="a_node6"><a xlink:href="classSNN.html#ab0367f8ebd4019bf7d34ebddb1563fe7" target="_top" xlink:title="SNN::getGroupName">
<polygon fill="#ffffff" stroke="#000000" points="223,-76.5 223,-95.5 333,-95.5 333,-76.5 223,-76.5"/>
<text text-anchor="middle" x="278" y="-83.5" font-family="Helvetica,sans-Serif" font-size="10.00" fill="#000000">SNN::getGroupName</text>
</a>
</g>
</g>
<!-- Node1225&#45;&gt;Node1229 -->
<g id="edge5" class="edge">
<title>Node1225&#45;&gt;Node1229</title>
<path fill="none" stroke="#191970" d="M175.2954,-86C187.0025,-86 200.0153,-86 212.7366,-86"/>
<polygon fill="#191970" stroke="#191970" points="212.8458,-89.5001 222.8457,-86 212.8457,-82.5001 212.8458,-89.5001"/>
</g>
<!-- Node1228 -->
<g id="node5" class="node">
<title>Node1228</title>
<g id="a_node5"><a xlink:href="classSNN.html#a292bdee57fec7c77ec4c15ea3f508d60" target="_top" xlink:title="SNN::getNumGroups">
<polygon fill="#ffffff" stroke="#000000" points="375,-38.5 375,-57.5 485,-57.5 485,-38.5 375,-38.5"/>
<text text-anchor="middle" x="430" y="-45.5" font-family="Helvetica,sans-Serif" font-size="10.00" fill="#000000">SNN::getNumGroups</text>
</a>
</g>
</g>
<!-- Node1227&#45;&gt;Node1228 -->
<g id="edge4" class="edge">
<title>Node1227&#45;&gt;Node1228</title>
<path fill="none" stroke="#191970" d="M319.5347,-48C333.3898,-48 349.1837,-48 364.4096,-48"/>
<polygon fill="#191970" stroke="#191970" points="364.829,-51.5001 374.829,-48 364.8289,-44.5001 364.829,-51.5001"/>
</g>
<!-- Node1230&#45;&gt;Node1226 -->
<g id="edge8" class="edge">
<title>Node1230&#45;&gt;Node1226</title>
<path fill="none" stroke="#191970" d="M163.1426,-57.557C169.2994,-60.163 175.5624,-63.3081 181,-67 200.2473,-80.0681 197.2544,-92.6978 217,-105 220.3465,-107.085 223.9398,-108.9573 227.6468,-110.6358"/>
<polygon fill="#191970" stroke="#191970" points="226.4367,-113.9217 237.0198,-114.4195 229.0571,-107.4306 226.4367,-113.9217"/>
</g>
<!-- Node1230&#45;&gt;Node1227 -->
<g id="edge9" class="edge">
<title>Node1230&#45;&gt;Node1227</title>
<path fill="none" stroke="#191970" d="M181.2152,-48C195.5037,-48 211.2449,-48 225.8058,-48"/>
<polygon fill="#191970" stroke="#191970" points="226.1622,-51.5001 236.1622,-48 226.1621,-44.5001 226.1622,-51.5001"/>
</g>
<!-- Node1231 -->
<g id="node8" class="node">
<title>Node1231</title>
<g id="a_node8"><a xlink:href="classSNN.html#a13067d0c1634b4e91f819e06e5fd634f" target="_top" xlink:title="SNN::isExcitatoryGroup">
<polygon fill="#ffffff" stroke="#000000" points="217,-.5 217,-19.5 339,-19.5 339,-.5 217,-.5"/>
<text text-anchor="middle" x="278" y="-7.5" font-family="Helvetica,sans-Serif" font-size="10.00" fill="#000000">SNN::isExcitatoryGroup</text>
</a>
</g>
</g>
<!-- Node1230&#45;&gt;Node1231 -->
<g id="edge10" class="edge">
<title>Node1230&#45;&gt;Node1231</title>
<path fill="none" stroke="#191970" d="M169.9635,-38.411C188.7741,-33.4642 211.9146,-27.3789 231.9472,-22.1108"/>
<polygon fill="#191970" stroke="#191970" points="233.0177,-25.4483 241.7988,-19.5201 231.2374,-18.6785 233.0177,-25.4483"/>
</g>
<!-- Node1232&#45;&gt;Node1226 -->
<g id="edge12" class="edge">
<title>Node1232&#45;&gt;Node1226</title>
<path fill="none" stroke="#191970" d="M169.9635,-152.411C188.7741,-147.4642 211.9146,-141.3789 231.9472,-136.1108"/>
<polygon fill="#191970" stroke="#191970" points="233.0177,-139.4483 241.7988,-133.5201 231.2374,-132.6785 233.0177,-139.4483"/>
</g>
<!-- Node1232&#45;&gt;Node1227 -->
<g id="edge13" class="edge">
<title>Node1232&#45;&gt;Node1227</title>
<path fill="none" stroke="#191970" d="M141.5531,-152.2507C160.6251,-129.2486 207.6533,-73.0683 217,-67 220.1631,-64.9464 223.562,-63.1031 227.0783,-61.4505"/>
<polygon fill="#191970" stroke="#191970" points="228.6841,-64.5736 236.5788,-57.5079 226.001,-58.1082 228.6841,-64.5736"/>
</g>
<!-- Node1233 -->
<g id="node10" class="node">
<title>Node1233</title>
<g id="a_node10"><a xlink:href="classSNN.html#ad15afc87a2971b16d723c8511a027aa8" target="_top" xlink:title="SNN::isInhibitoryGroup">
<polygon fill="#ffffff" stroke="#000000" points="219,-152.5 219,-171.5 337,-171.5 337,-152.5 219,-152.5"/>
<text text-anchor="middle" x="278" y="-159.5" font-family="Helvetica,sans-Serif" font-size="10.00" fill="#000000">SNN::isInhibitoryGroup</text>
</a>
</g>
</g>
<!-- Node1232&#45;&gt;Node1233 -->
<g id="edge14" class="edge">
<title>Node1232&#45;&gt;Node1233</title>
<path fill="none" stroke="#191970" d="M178.8242,-162C188.3218,-162 198.5438,-162 208.6885,-162"/>
<polygon fill="#191970" stroke="#191970" points="208.7776,-165.5001 218.7776,-162 208.7776,-158.5001 208.7776,-165.5001"/>
</g>
</g>
</svg>
