<?xml version="1.0" encoding="UTF-8" standalone="no"?>
<!DOCTYPE svg PUBLIC "-//W3C//DTD SVG 1.1//EN"
 "http://www.w3.org/Graphics/SVG/1.1/DTD/svg11.dtd">
<!-- Generated by graphviz version 2.40.1 (20161225.0304)
 -->
<!-- Title: getNumNeurons Pages: 1 -->
<!--zoomable 256 -->
<svg id="main" version="1.1" xmlns="http://www.w3.org/2000/svg" xmlns:xlink="http://www.w3.org/1999/xlink" xml:space="preserve" onload="init(evt)">
<style type="text/css"><![CDATA[
.edge:hover path { stroke: red; }
.edge:hover polygon { stroke: red; fill: red; }
]]></style>
<script type="text/javascript"><![CDATA[
var edges = document.getElementsByTagName('g');
if (edges && edges.length) {
  for (var i=0;i<edges.length;i++) {
    if (edges[i].id.substr(0,4)=='edge') {
      edges[i].setAttribute('class','edge');
    }
  }
}
]]></script>
        <defs>
                <circle id="rim" cx="0" cy="0" r="7"/>
                <circle id="rim2" cx="0" cy="0" r="3.5"/>
                <g id="zoomPlus">
                        <use xlink:href="#rim" fill="#404040">
                                <set attributeName="fill" to="#808080" begin="zoomplus.mouseover" end="zoomplus.mouseout"/>
                        </use>
                        <path d="M-4,0h8M0,-4v8" fill="none" stroke="white" stroke-width="1.5" pointer-events="none"/>
                </g>
                <g id="zoomMin">
                        <use xlink:href="#rim" fill="#404040">
                                <set attributeName="fill" to="#808080" begin="zoomminus.mouseover" end="zoomminus.mouseout"/>
                        </use>
                        <path d="M-4,0h8" fill="none" stroke="white" stroke-width="1.5" pointer-events="none"/>
                </g>
                <g id="dirArrow">
                        <path fill="none" stroke="white" stroke-width="1.5" d="M0,-3.0v7 M-2.5,-0.5L0,-3.0L2.5,-0.5"/>
                </g>
               <g id="resetDef">
                       <use xlink:href="#rim2" fill="#404040">
                               <set attributeName="fill" to="#808080" begin="reset.mouseover" end="reset.mouseout"/>
                       </use>
               </g>
        </defs>

<script type="text/javascript">
var viewWidth = 953;
var viewHeight = 256;
var sectionId = 'dynsection-1';
</script>
<script xlink:href="svgpan.js"/>
<svg id="graph" class="graph">
<g id="viewport">
<title>getNumNeurons</title>
<polygon fill="#ffffff" stroke="transparent" points="-4,4 -4,-252 949,-252 949,4 -4,4"/>
<!-- Node6 -->
<g id="node1" class="node">
<title>Node6</title>
<polygon fill="#bfbfbf" stroke="#000000" points="0,-152.5 0,-171.5 88,-171.5 88,-152.5 0,-152.5"/>
<text text-anchor="middle" x="44" y="-159.5" font-family="Helvetica,sans-Serif" font-size="10.00" fill="#000000">getNumNeurons</text>
</g>
<!-- Node7 -->
<g id="node2" class="node">
<title>Node7</title>
<g id="a_node2"><a xlink:href="classPoissonRate_1_1Impl.html#a62fd49ae5772f076bdf6cdec1aeee691" target="_top" xlink:title="getRate">
<polygon fill="#ffffff" stroke="#000000" points="173.5,-228.5 173.5,-247.5 224.5,-247.5 224.5,-228.5 173.5,-228.5"/>
<text text-anchor="middle" x="199" y="-235.5" font-family="Helvetica,sans-Serif" font-size="10.00" fill="#000000">getRate</text>
</a>
</g>
</g>
<!-- Node6&#45;&gt;Node7 -->
<g id="edge1" class="edge">
<title>Node6&#45;&gt;Node7</title>
<path fill="none" stroke="#191970" d="M62.3156,-178.0834C77.7801,-190.8843 101.0187,-208.3603 124,-219 139.6022,-226.2234 158.3522,-230.9734 173.2016,-233.9175"/>
<polygon fill="#191970" stroke="#191970" points="64.4675,-175.3193 54.5751,-171.5259 59.9427,-180.6604 64.4675,-175.3193"/>
</g>
<!-- Node9 -->
<g id="node4" class="node">
<title>Node9</title>
<g id="a_node4"><a xlink:href="classPoissonRate_1_1Impl.html#af4d8939f2440ba0d11ea4807f93ec36e" target="_top" xlink:title="getRates">
<polygon fill="#ffffff" stroke="#000000" points="171,-190.5 171,-209.5 227,-209.5 227,-190.5 171,-190.5"/>
<text text-anchor="middle" x="199" y="-197.5" font-family="Helvetica,sans-Serif" font-size="10.00" fill="#000000">getRates</text>
</a>
</g>
</g>
<!-- Node6&#45;&gt;Node9 -->
<g id="edge3" class="edge">
<title>Node6&#45;&gt;Node9</title>
<path fill="none" stroke="#191970" d="M93.0155,-174.0167C118.5999,-180.289 148.9953,-187.7408 170.6608,-193.0523"/>
<polygon fill="#191970" stroke="#191970" points="93.6588,-170.5708 83.113,-171.589 91.992,-177.3695 93.6588,-170.5708"/>
</g>
<!-- Node11 -->
<g id="node6" class="node">
<title>Node11</title>
<g id="a_node6"><a xlink:href="classPoissonRate_1_1Impl.html#a99ac51f213a6d1c8487b1519106df970" target="_top" xlink:title="setRate">
<polygon fill="#ffffff" stroke="#000000" points="344,-152.5 344,-171.5 395,-171.5 395,-152.5 344,-152.5"/>
<text text-anchor="middle" x="369.5" y="-159.5" font-family="Helvetica,sans-Serif" font-size="10.00" fill="#000000">setRate</text>
</a>
</g>
</g>
<!-- Node6&#45;&gt;Node11 -->
<g id="edge5" class="edge">
<title>Node6&#45;&gt;Node11</title>
<path fill="none" stroke="#191970" d="M98.3365,-162C169.369,-162 290.938,-162 343.7498,-162"/>
<polygon fill="#191970" stroke="#191970" points="98.2372,-158.5001 88.2371,-162 98.2371,-165.5001 98.2372,-158.5001"/>
</g>
<!-- Node15 -->
<g id="node10" class="node">
<title>Node15</title>
<g id="a_node10"><a xlink:href="classPoissonRate_1_1Impl.html#a39ade841ecc17249712f693ef8ffaa19" target="_top" xlink:title="setRates">
<polygon fill="#ffffff" stroke="#000000" points="171,-114.5 171,-133.5 227,-133.5 227,-114.5 171,-114.5"/>
<text text-anchor="middle" x="199" y="-121.5" font-family="Helvetica,sans-Serif" font-size="10.00" fill="#000000">setRates</text>
</a>
</g>
</g>
<!-- Node6&#45;&gt;Node15 -->
<g id="edge9" class="edge">
<title>Node6&#45;&gt;Node15</title>
<path fill="none" stroke="#191970" d="M93.0155,-149.9833C118.5999,-143.711 148.9953,-136.2592 170.6608,-130.9477"/>
<polygon fill="#191970" stroke="#191970" points="91.992,-146.6305 83.113,-152.411 93.6588,-153.4292 91.992,-146.6305"/>
</g>
<!-- Node17 -->
<g id="node12" class="node">
<title>Node17</title>
<g id="a_node12"><a xlink:href="classPoissonRate.html#a00ddee44990cd4763a7d4df074e6d405" target="_top" xlink:title="Returns the number of neurons for which to generate Poisson spike trains. ">
<polygon fill="#ffffff" stroke="#000000" points="124,-57.5 124,-76.5 274,-76.5 274,-57.5 124,-57.5"/>
<text text-anchor="middle" x="199" y="-64.5" font-family="Helvetica,sans-Serif" font-size="10.00" fill="#000000">PoissonRate::getNumNeurons</text>
</a>
</g>
</g>
<!-- Node6&#45;&gt;Node17 -->
<g id="edge12" class="edge">
<title>Node6&#45;&gt;Node17</title>
<path fill="none" stroke="#191970" d="M64.3808,-146.1844C80.2132,-134.2209 102.9468,-117.7351 124,-105 141.7351,-94.272 162.8712,-83.7536 178.1786,-76.513"/>
<polygon fill="#191970" stroke="#191970" points="62.1761,-143.4642 56.3495,-152.313 66.4226,-149.029 62.1761,-143.4642"/>
</g>
<!-- Node8 -->
<g id="node3" class="node">
<title>Node8</title>
<g id="a_node3"><a xlink:href="classPoissonRate.html#a62fd49ae5772f076bdf6cdec1aeee691" target="_top" xlink:title="Returns the mean firing rate of a specific neuron ID. ">
<polygon fill="#ffffff" stroke="#000000" points="313,-228.5 313,-247.5 426,-247.5 426,-228.5 313,-228.5"/>
<text text-anchor="middle" x="369.5" y="-235.5" font-family="Helvetica,sans-Serif" font-size="10.00" fill="#000000">PoissonRate::getRate</text>
</a>
</g>
</g>
<!-- Node7&#45;&gt;Node8 -->
<g id="edge2" class="edge">
<title>Node7&#45;&gt;Node8</title>
<path fill="none" stroke="#191970" d="M234.6739,-238C257.2519,-238 286.9401,-238 312.7093,-238"/>
<polygon fill="#191970" stroke="#191970" points="234.5256,-234.5001 224.5256,-238 234.5255,-241.5001 234.5256,-234.5001"/>
</g>
<!-- Node10 -->
<g id="node5" class="node">
<title>Node10</title>
<g id="a_node5"><a xlink:href="classPoissonRate.html#aec035517f446c72905211ccbe1cec98a" target="_top" xlink:title="Returns a vector of firing rates, one element per neuron. ">
<polygon fill="#ffffff" stroke="#000000" points="310,-190.5 310,-209.5 429,-209.5 429,-190.5 310,-190.5"/>
<text text-anchor="middle" x="369.5" y="-197.5" font-family="Helvetica,sans-Serif" font-size="10.00" fill="#000000">PoissonRate::getRates</text>
</a>
</g>
</g>
<!-- Node9&#45;&gt;Node10 -->
<g id="edge4" class="edge">
<title>Node9&#45;&gt;Node10</title>
<path fill="none" stroke="#191970" d="M237.4433,-200C258.783,-200 285.7937,-200 309.8187,-200"/>
<polygon fill="#191970" stroke="#191970" points="237.1546,-196.5001 227.1546,-200 237.1546,-203.5001 237.1546,-196.5001"/>
</g>
<!-- Node12 -->
<g id="node7" class="node">
<title>Node12</title>
<g id="a_node7"><a xlink:href="classPoissonRate.html#a99ac51f213a6d1c8487b1519106df970" target="_top" xlink:title="Sets the mean firing rate of a particular neuron ID. ">
<polygon fill="#ffffff" stroke="#000000" points="483,-152.5 483,-171.5 596,-171.5 596,-152.5 483,-152.5"/>
<text text-anchor="middle" x="539.5" y="-159.5" font-family="Helvetica,sans-Serif" font-size="10.00" fill="#000000">PoissonRate::setRate</text>
</a>
</g>
</g>
<!-- Node11&#45;&gt;Node12 -->
<g id="edge6" class="edge">
<title>Node11&#45;&gt;Node12</title>
<path fill="none" stroke="#191970" d="M405.4135,-162C427.8487,-162 457.2251,-162 482.7614,-162"/>
<polygon fill="#191970" stroke="#191970" points="405.3194,-158.5001 395.3193,-162 405.3193,-165.5001 405.3194,-158.5001"/>
</g>
<!-- Node13 -->
<g id="node8" class="node">
<title>Node13</title>
<g id="a_node8"><a xlink:href="classVisualStimulus_1_1Impl.html#a7c85c4aea5e909cdc928547d8fd62b2e" target="_top" xlink:title="VisualStimulus::Impl\l::readFramePoisson">
<polygon fill="#ffffff" stroke="#000000" points="659,-147 659,-177 766,-177 766,-147 659,-147"/>
<text text-anchor="start" x="667" y="-165" font-family="Helvetica,sans-Serif" font-size="10.00" fill="#000000">VisualStimulus::Impl</text>
<text text-anchor="middle" x="712.5" y="-154" font-family="Helvetica,sans-Serif" font-size="10.00" fill="#000000">::readFramePoisson</text>
</a>
</g>
</g>
<!-- Node12&#45;&gt;Node13 -->
<g id="edge7" class="edge">
<title>Node12&#45;&gt;Node13</title>
<path fill="none" stroke="#191970" d="M606.2664,-162C623.7151,-162 642.2955,-162 658.9576,-162"/>
<polygon fill="#191970" stroke="#191970" points="606.1467,-158.5001 596.1467,-162 606.1466,-165.5001 606.1467,-158.5001"/>
</g>
<!-- Node14 -->
<g id="node9" class="node">
<title>Node14</title>
<g id="a_node9"><a xlink:href="classVisualStimulus.html#aac6cca8793faebe5b1e8c533d12744e2" target="_top" xlink:title="Reads the next image frame and returns a pointer to a PoissonRate object. ">
<polygon fill="#ffffff" stroke="#000000" points="811,-147 811,-177 945,-177 945,-147 811,-147"/>
<text text-anchor="start" x="819" y="-165" font-family="Helvetica,sans-Serif" font-size="10.00" fill="#000000">VisualStimulus::readFrame</text>
<text text-anchor="middle" x="878" y="-154" font-family="Helvetica,sans-Serif" font-size="10.00" fill="#000000">Poisson</text>
</a>
</g>
</g>
<!-- Node13&#45;&gt;Node14 -->
<g id="edge8" class="edge">
<title>Node13&#45;&gt;Node14</title>
<path fill="none" stroke="#191970" d="M776.4448,-162C787.7437,-162 799.5365,-162 810.9187,-162"/>
<polygon fill="#191970" stroke="#191970" points="776.2331,-158.5001 766.2331,-162 776.2331,-165.5001 776.2331,-158.5001"/>
</g>
<!-- Node15&#45;&gt;Node11 -->
<g id="edge10" class="edge">
<title>Node15&#45;&gt;Node11</title>
<path fill="none" stroke="#191970" d="M237.2042,-132.5147C269.7157,-139.7607 315.518,-149.9688 343.8158,-156.2757"/>
<polygon fill="#191970" stroke="#191970" points="237.6765,-129.0342 227.1546,-130.2749 236.1537,-135.8666 237.6765,-129.0342"/>
</g>
<!-- Node16 -->
<g id="node11" class="node">
<title>Node16</title>
<g id="a_node11"><a xlink:href="classPoissonRate.html#a39ade841ecc17249712f693ef8ffaa19" target="_top" xlink:title="Assigns the same mean firing rate to all neurons. ">
<polygon fill="#ffffff" stroke="#000000" points="310,-114.5 310,-133.5 429,-133.5 429,-114.5 310,-114.5"/>
<text text-anchor="middle" x="369.5" y="-121.5" font-family="Helvetica,sans-Serif" font-size="10.00" fill="#000000">PoissonRate::setRates</text>
</a>
</g>
</g>
<!-- Node15&#45;&gt;Node16 -->
<g id="edge11" class="edge">
<title>Node15&#45;&gt;Node16</title>
<path fill="none" stroke="#191970" d="M237.4433,-124C258.783,-124 285.7937,-124 309.8187,-124"/>
<polygon fill="#191970" stroke="#191970" points="237.1546,-120.5001 227.1546,-124 237.1546,-127.5001 237.1546,-120.5001"/>
</g>
<!-- Node18 -->
<g id="node13" class="node">
<title>Node18</title>
<g id="a_node13"><a xlink:href="classCARLsim_1_1Impl.html#aec206ed9aaaed83f1d3170f012a86b70" target="_top" xlink:title="CARLsim::Impl::setSpikeRate">
<polygon fill="#ffffff" stroke="#000000" points="465,-38.5 465,-57.5 614,-57.5 614,-38.5 465,-38.5"/>
<text text-anchor="middle" x="539.5" y="-45.5" font-family="Helvetica,sans-Serif" font-size="10.00" fill="#000000">CARLsim::Impl::setSpikeRate</text>
</a>
</g>
</g>
<!-- Node17&#45;&gt;Node18 -->
<g id="edge13" class="edge">
<title>Node17&#45;&gt;Node18</title>
<path fill="none" stroke="#191970" d="M284.4649,-70.4524C327.8351,-71.3289 381.3012,-71.0709 429,-67 450.7224,-65.1461 474.5881,-61.2776 494.5639,-57.5122"/>
<polygon fill="#191970" stroke="#191970" points="284.3135,-66.9482 274.2369,-70.2211 284.1552,-73.9464 284.3135,-66.9482"/>
</g>
<!-- Node20 -->
<g id="node15" class="node">
<title>Node20</title>
<g id="a_node15"><a xlink:href="snn__cpu__module_8cpp.html#ac42c21b5ae4b743f8e00b7dfe04dcfe3" target="_top" xlink:title="dvdtLIF">
<polygon fill="#ffffff" stroke="#000000" points="344.5,-38.5 344.5,-57.5 394.5,-57.5 394.5,-38.5 344.5,-38.5"/>
<text text-anchor="middle" x="369.5" y="-45.5" font-family="Helvetica,sans-Serif" font-size="10.00" fill="#000000">dvdtLIF</text>
</a>
</g>
</g>
<!-- Node17&#45;&gt;Node20 -->
<g id="edge15" class="edge">
<title>Node17&#45;&gt;Node20</title>
<path fill="none" stroke="#191970" d="M284.3447,-57.4894C306.2942,-55.0435 328.2354,-52.5984 344.3479,-50.8029"/>
<polygon fill="#191970" stroke="#191970" points="283.8309,-54.0249 274.2801,-58.611 284.6062,-60.9819 283.8309,-54.0249"/>
</g>
<!-- Node21 -->
<g id="node16" class="node">
<title>Node21</title>
<g id="a_node16"><a xlink:href="classSNN.html#aec206ed9aaaed83f1d3170f012a86b70" target="_top" xlink:title="Sets the Poisson spike rate for a group. For information on how to set up spikeRate, see Section Poisson spike generators in the Tutorial. ">
<polygon fill="#ffffff" stroke="#000000" points="317.5,-.5 317.5,-19.5 421.5,-19.5 421.5,-.5 317.5,-.5"/>
<text text-anchor="middle" x="369.5" y="-7.5" font-family="Helvetica,sans-Serif" font-size="10.00" fill="#000000">SNN::setSpikeRate</text>
</a>
</g>
</g>
<!-- Node17&#45;&gt;Node21 -->
<g id="edge16" class="edge">
<title>Node17&#45;&gt;Node21</title>
<path fill="none" stroke="#191970" d="M236.0538,-54.1002C257.5987,-46.6534 285.2924,-37.1732 310,-29 319.4715,-25.8669 329.8198,-22.5318 339.1915,-19.5446"/>
<polygon fill="#191970" stroke="#191970" points="234.6207,-50.8924 226.3165,-57.472 236.9113,-57.5071 234.6207,-50.8924"/>
</g>
<!-- Node19 -->
<g id="node14" class="node">
<title>Node19</title>
<g id="a_node14"><a xlink:href="classCARLsim.html#a04f52d2840105c8ccacf8d378d1695cf" target="_top" xlink:title="Sets a spike rate. ">
<polygon fill="#ffffff" stroke="#000000" points="650,-38.5 650,-57.5 775,-57.5 775,-38.5 650,-38.5"/>
<text text-anchor="middle" x="712.5" y="-45.5" font-family="Helvetica,sans-Serif" font-size="10.00" fill="#000000">CARLsim::setSpikeRate</text>
</a>
</g>
</g>
<!-- Node18&#45;&gt;Node19 -->
<g id="edge14" class="edge">
<title>Node18&#45;&gt;Node19</title>
<path fill="none" stroke="#191970" d="M624.2056,-48C632.8214,-48 641.461,-48 649.7822,-48"/>
<polygon fill="#191970" stroke="#191970" points="624.1228,-44.5001 614.1228,-48 624.1228,-51.5001 624.1228,-44.5001"/>
</g>
<!-- Node21&#45;&gt;Node18 -->
<g id="edge17" class="edge">
<title>Node21&#45;&gt;Node18</title>
<path fill="none" stroke="#191970" d="M422.3981,-21.8243C446.365,-27.1816 474.3235,-33.4311 496.9103,-38.4799"/>
<polygon fill="#191970" stroke="#191970" points="422.9209,-18.3548 412.3982,-19.589 421.3938,-25.1862 422.9209,-18.3548"/>
</g>
</g>
</svg>
        <g id="navigator" transform="translate(0 0)" fill="#404254">
                <rect fill="#f2f5e9" fill-opacity="0.5" stroke="#606060" stroke-width=".5" x="0" y="0" width="60" height="60"/>
                <use id="zoomplus" xlink:href="#zoomPlus" x="17" y="9" onmousedown="handleZoom(evt,'in')"/>
                <use id="zoomminus" xlink:href="#zoomMin" x="42" y="9" onmousedown="handleZoom(evt,'out')"/>
                <use id="reset" xlink:href="#resetDef" x="30" y="36" onmousedown="handleReset()"/>
                <g id="arrowUp" xlink:href="#dirArrow" transform="translate(30 24)" onmousedown="handlePan(0,-1)">
                  <use xlink:href="#rim" fill="#404040">
                        <set attributeName="fill" to="#808080" begin="arrowUp.mouseover" end="arrowUp.mouseout"/>
                  </use>
                  <path fill="none" stroke="white" stroke-width="1.5" d="M0,-3.0v7 M-2.5,-0.5L0,-3.0L2.5,-0.5"/>
                </g>
                <g id="arrowRight" xlink:href="#dirArrow" transform="rotate(90) translate(36 -43)" onmousedown="handlePan(1,0)">
                  <use xlink:href="#rim" fill="#404040">
                        <set attributeName="fill" to="#808080" begin="arrowRight.mouseover" end="arrowRight.mouseout"/>
                  </use>
                  <path fill="none" stroke="white" stroke-width="1.5" d="M0,-3.0v7 M-2.5,-0.5L0,-3.0L2.5,-0.5"/>
                </g>
                <g id="arrowDown" xlink:href="#dirArrow" transform="rotate(180) translate(-30 -48)" onmousedown="handlePan(0,1)">
                  <use xlink:href="#rim" fill="#404040">
                        <set attributeName="fill" to="#808080" begin="arrowDown.mouseover" end="arrowDown.mouseout"/>
                  </use>
                  <path fill="none" stroke="white" stroke-width="1.5" d="M0,-3.0v7 M-2.5,-0.5L0,-3.0L2.5,-0.5"/>
                </g>
                <g id="arrowLeft" xlink:href="#dirArrow" transform="rotate(270) translate(-36 17)" onmousedown="handlePan(-1,0)">
                  <use xlink:href="#rim" fill="#404040">
                        <set attributeName="fill" to="#808080" begin="arrowLeft.mouseover" end="arrowLeft.mouseout"/>
                  </use>
                  <path fill="none" stroke="white" stroke-width="1.5" d="M0,-3.0v7 M-2.5,-0.5L0,-3.0L2.5,-0.5"/>
                </g>
        </g>
        <svg viewBox="0 0 15 15" width="100%" height="30px" preserveAspectRatio="xMaxYMin meet">
         <g id="arrow_out" transform="scale(0.3 0.3)">
          <a xlink:href="classPoissonRate_1_1Impl_a00ddee44990cd4763a7d4df074e6d405_icgraph_org.svg" target="_base">
           <rect id="button" ry="5" rx="5" y="6" x="6" height="38" width="38"
                fill="#f2f5e9" fill-opacity="0.5" stroke="#606060" stroke-width="1.0"/>
           <path id="arrow"
             d="M 11.500037,31.436501 C 11.940474,20.09759 22.043105,11.32322 32.158766,21.979434 L 37.068811,17.246167 C 37.068811,17.246167 37.088388,32 37.088388,32 L 22.160133,31.978069 C 22.160133,31.978069 26.997745,27.140456 26.997745,27.140456 C 18.528582,18.264221 13.291696,25.230495 11.500037,31.436501 z"
             style="fill:#404040;"/>
          </a>
         </g>
        </svg>
</svg>
