<?xml version="1.0" encoding="UTF-8" standalone="no"?>
<!DOCTYPE svg PUBLIC "-//W3C//DTD SVG 1.1//EN"
 "http://www.w3.org/Graphics/SVG/1.1/DTD/svg11.dtd">
<!-- Generated by graphviz version 2.40.1 (20161225.0304)
 -->
<!-- Title: connect Pages: 1 -->
<!--zoomable 256 -->
<svg id="main" version="1.1" xmlns="http://www.w3.org/2000/svg" xmlns:xlink="http://www.w3.org/1999/xlink" xml:space="preserve" onload="init(evt)">
<style type="text/css"><![CDATA[
.edge:hover path { stroke: red; }
.edge:hover polygon { stroke: red; fill: red; }
]]></style>
<script type="text/javascript"><![CDATA[
var edges = document.getElementsByTagName('g');
if (edges && edges.length) {
  for (var i=0;i<edges.length;i++) {
    if (edges[i].id.substr(0,4)=='edge') {
      edges[i].setAttribute('class','edge');
    }
  }
}
]]></script>
        <defs>
                <circle id="rim" cx="0" cy="0" r="7"/>
                <circle id="rim2" cx="0" cy="0" r="3.5"/>
                <g id="zoomPlus">
                        <use xlink:href="#rim" fill="#404040">
                                <set attributeName="fill" to="#808080" begin="zoomplus.mouseover" end="zoomplus.mouseout"/>
                        </use>
                        <path d="M-4,0h8M0,-4v8" fill="none" stroke="white" stroke-width="1.5" pointer-events="none"/>
                </g>
                <g id="zoomMin">
                        <use xlink:href="#rim" fill="#404040">
                                <set attributeName="fill" to="#808080" begin="zoomminus.mouseover" end="zoomminus.mouseout"/>
                        </use>
                        <path d="M-4,0h8" fill="none" stroke="white" stroke-width="1.5" pointer-events="none"/>
                </g>
                <g id="dirArrow">
                        <path fill="none" stroke="white" stroke-width="1.5" d="M0,-3.0v7 M-2.5,-0.5L0,-3.0L2.5,-0.5"/>
                </g>
               <g id="resetDef">
                       <use xlink:href="#rim2" fill="#404040">
                               <set attributeName="fill" to="#808080" begin="reset.mouseover" end="reset.mouseout"/>
                       </use>
               </g>
        </defs>

<script type="text/javascript">
var viewWidth = 533;
var viewHeight = 256;
var sectionId = 'dynsection-3';
</script>
<script xlink:href="svgpan.js"/>
<svg id="graph" class="graph">
<g id="viewport">
<title>connect</title>
<polygon fill="#ffffff" stroke="transparent" points="-4,4 -4,-252 529,-252 529,4 -4,4"/>
<!-- Node18 -->
<g id="node1" class="node">
<title>Node18</title>
<polygon fill="#bfbfbf" stroke="#000000" points="0,-152.5 0,-171.5 51,-171.5 51,-152.5 0,-152.5"/>
<text text-anchor="middle" x="25.5" y="-159.5" font-family="Helvetica,sans-Serif" font-size="10.00" fill="#000000">connect</text>
</g>
<!-- Node19 -->
<g id="node2" class="node">
<title>Node19</title>
<g id="a_node2"><a xlink:href="classCARLsim_1_1Impl.html#ab0367f8ebd4019bf7d34ebddb1563fe7" target="_top" xlink:title="getGroupName">
<polygon fill="#ffffff" stroke="#000000" points="102.5,-152.5 102.5,-171.5 185.5,-171.5 185.5,-152.5 102.5,-152.5"/>
<text text-anchor="middle" x="144" y="-159.5" font-family="Helvetica,sans-Serif" font-size="10.00" fill="#000000">getGroupName</text>
</a>
</g>
</g>
<!-- Node18&#45;&gt;Node19 -->
<g id="edge1" class="edge">
<title>Node18&#45;&gt;Node19</title>
<path fill="none" stroke="#191970" d="M51.2127,-162C63.2632,-162 78.0735,-162 92.2943,-162"/>
<polygon fill="#191970" stroke="#191970" points="92.4973,-165.5001 102.4972,-162 92.4972,-158.5001 92.4973,-165.5001"/>
</g>
<!-- Node20 -->
<g id="node3" class="node">
<title>Node20</title>
<g id="a_node3"><a xlink:href="classUserErrors.html#a4bbedc6c0817d5e59e74e450bf00472c" target="_top" xlink:title="simple wrapper for assert statement ">
<polygon fill="#ffffff" stroke="#000000" points="250,-190.5 250,-209.5 366,-209.5 366,-190.5 250,-190.5"/>
<text text-anchor="middle" x="308" y="-197.5" font-family="Helvetica,sans-Serif" font-size="10.00" fill="#000000">UserErrors::assertTrue</text>
</a>
</g>
</g>
<!-- Node18&#45;&gt;Node20 -->
<g id="edge6" class="edge">
<title>Node18&#45;&gt;Node20</title>
<path fill="none" stroke="#191970" d="M51.2204,-171.2922C62.1208,-174.8765 75.0447,-178.6672 87,-181 137.6695,-190.8868 195.8747,-195.6291 239.8286,-197.9037"/>
<polygon fill="#191970" stroke="#191970" points="239.6715,-201.4001 249.8302,-198.3916 240.0127,-194.4084 239.6715,-201.4001"/>
</g>
<!-- Node24 -->
<g id="node7" class="node">
<title>Node24</title>
<g id="a_node7"><a xlink:href="classCARLsim_1_1Impl.html#ae136e178382096490a2d34f78cd2afa2" target="_top" xlink:title="isPoissonGroup">
<polygon fill="#ffffff" stroke="#000000" points="101,-114.5 101,-133.5 187,-133.5 187,-114.5 101,-114.5"/>
<text text-anchor="middle" x="144" y="-121.5" font-family="Helvetica,sans-Serif" font-size="10.00" fill="#000000">isPoissonGroup</text>
</a>
</g>
</g>
<!-- Node18&#45;&gt;Node24 -->
<g id="edge7" class="edge">
<title>Node18&#45;&gt;Node24</title>
<path fill="none" stroke="#191970" d="M51.2127,-153.7546C66.6901,-148.7913 86.72,-142.3683 104.2066,-136.7608"/>
<polygon fill="#191970" stroke="#191970" points="105.7012,-139.9571 114.1548,-133.5706 103.5637,-133.2914 105.7012,-139.9571"/>
</g>
<!-- Node26 -->
<g id="node9" class="node">
<title>Node26</title>
<g id="a_node9"><a xlink:href="classCARLsim_1_1Impl.html#ad85b898d98abe24dcae4390f0fe61e84" target="_top" xlink:title="getGroupNumNeurons">
<polygon fill="#ffffff" stroke="#000000" points="87,-228.5 87,-247.5 201,-247.5 201,-228.5 87,-228.5"/>
<text text-anchor="middle" x="144" y="-235.5" font-family="Helvetica,sans-Serif" font-size="10.00" fill="#000000">getGroupNumNeurons</text>
</a>
</g>
</g>
<!-- Node18&#45;&gt;Node26 -->
<g id="edge11" class="edge">
<title>Node18&#45;&gt;Node26</title>
<path fill="none" stroke="#191970" d="M35.207,-171.8553C46.7482,-183.1615 66.9767,-201.7179 87,-214 93.3553,-217.8983 100.4566,-221.4476 107.4316,-224.5503"/>
<polygon fill="#191970" stroke="#191970" points="106.2085,-227.833 116.7827,-228.4955 108.9296,-221.3835 106.2085,-227.833"/>
</g>
<!-- Node28 -->
<g id="node11" class="node">
<title>Node28</title>
<g id="a_node11"><a xlink:href="classSNN.html#a6eec2a657455176862ab71d4ee762e07" target="_top" xlink:title="make from each neuron in grpId1 to &#39;numPostSynapses&#39; neurons in grpId2 ">
<polygon fill="#ffffff" stroke="#000000" points="104.5,-57.5 104.5,-76.5 183.5,-76.5 183.5,-57.5 104.5,-57.5"/>
<text text-anchor="middle" x="144" y="-64.5" font-family="Helvetica,sans-Serif" font-size="10.00" fill="#000000">SNN::connect</text>
</a>
</g>
</g>
<!-- Node18&#45;&gt;Node28 -->
<g id="edge15" class="edge">
<title>Node18&#45;&gt;Node28</title>
<path fill="none" stroke="#191970" d="M35.0791,-152.2121C46.8232,-140.4316 67.5669,-120.324 87,-105 97.2569,-96.9119 109.2042,-88.7696 119.5036,-82.1082"/>
<polygon fill="#191970" stroke="#191970" points="121.4874,-84.9944 128.0465,-76.6741 117.7303,-79.0881 121.4874,-84.9944"/>
</g>
<!-- Node19&#45;&gt;Node20 -->
<g id="edge2" class="edge">
<title>Node19&#45;&gt;Node20</title>
<path fill="none" stroke="#191970" d="M185.3841,-171.589C207.1232,-176.6261 233.9575,-182.8438 256.9747,-188.1771"/>
<polygon fill="#191970" stroke="#191970" points="256.3815,-191.6323 266.9135,-190.4799 257.9616,-184.8129 256.3815,-191.6323"/>
</g>
<!-- Node21 -->
<g id="node4" class="node">
<title>Node21</title>
<g id="a_node4"><a xlink:href="classCARLsim_1_1Impl.html#a292bdee57fec7c77ec4c15ea3f508d60" target="_top" xlink:title="getNumGroups">
<polygon fill="#ffffff" stroke="#000000" points="266.5,-114.5 266.5,-133.5 349.5,-133.5 349.5,-114.5 266.5,-114.5"/>
<text text-anchor="middle" x="308" y="-121.5" font-family="Helvetica,sans-Serif" font-size="10.00" fill="#000000">getNumGroups</text>
</a>
</g>
</g>
<!-- Node19&#45;&gt;Node21 -->
<g id="edge3" class="edge">
<title>Node19&#45;&gt;Node21</title>
<path fill="none" stroke="#191970" d="M185.3841,-152.411C207.1232,-147.3739 233.9575,-141.1562 256.9747,-135.8229"/>
<polygon fill="#191970" stroke="#191970" points="257.9616,-139.1871 266.9135,-133.5201 256.3815,-132.3677 257.9616,-139.1871"/>
</g>
<!-- Node23 -->
<g id="node6" class="node">
<title>Node23</title>
<g id="a_node6"><a xlink:href="classSNN.html#ab0367f8ebd4019bf7d34ebddb1563fe7" target="_top" xlink:title="SNN::getGroupName">
<polygon fill="#ffffff" stroke="#000000" points="253,-152.5 253,-171.5 363,-171.5 363,-152.5 253,-152.5"/>
<text text-anchor="middle" x="308" y="-159.5" font-family="Helvetica,sans-Serif" font-size="10.00" fill="#000000">SNN::getGroupName</text>
</a>
</g>
</g>
<!-- Node19&#45;&gt;Node23 -->
<g id="edge5" class="edge">
<title>Node19&#45;&gt;Node23</title>
<path fill="none" stroke="#191970" d="M185.8085,-162C203.1037,-162 223.5682,-162 242.7544,-162"/>
<polygon fill="#191970" stroke="#191970" points="242.9493,-165.5001 252.9493,-162 242.9493,-158.5001 242.9493,-165.5001"/>
</g>
<!-- Node22 -->
<g id="node5" class="node">
<title>Node22</title>
<g id="a_node5"><a xlink:href="classSNN.html#a292bdee57fec7c77ec4c15ea3f508d60" target="_top" xlink:title="SNN::getNumGroups">
<polygon fill="#ffffff" stroke="#000000" points="415,-114.5 415,-133.5 525,-133.5 525,-114.5 415,-114.5"/>
<text text-anchor="middle" x="470" y="-121.5" font-family="Helvetica,sans-Serif" font-size="10.00" fill="#000000">SNN::getNumGroups</text>
</a>
</g>
</g>
<!-- Node21&#45;&gt;Node22 -->
<g id="edge4" class="edge">
<title>Node21&#45;&gt;Node22</title>
<path fill="none" stroke="#191970" d="M349.719,-124C366.4884,-124 386.2215,-124 404.8007,-124"/>
<polygon fill="#191970" stroke="#191970" points="404.9776,-127.5001 414.9776,-124 404.9776,-120.5001 404.9776,-127.5001"/>
</g>
<!-- Node24&#45;&gt;Node20 -->
<g id="edge8" class="edge">
<title>Node24&#45;&gt;Node20</title>
<path fill="none" stroke="#191970" d="M181.3915,-133.5257C188.1909,-136.0631 195.0171,-139.1897 201,-143 220.6229,-155.4971 217.0095,-169.0999 237,-181 240.6388,-183.1662 244.5274,-185.09 248.5399,-186.7979"/>
<polygon fill="#191970" stroke="#191970" points="247.4763,-190.1376 258.0678,-190.4037 249.954,-183.5908 247.4763,-190.1376"/>
</g>
<!-- Node24&#45;&gt;Node21 -->
<g id="edge9" class="edge">
<title>Node24&#45;&gt;Node21</title>
<path fill="none" stroke="#191970" d="M187.0891,-124C208.2265,-124 233.8545,-124 256.0663,-124"/>
<polygon fill="#191970" stroke="#191970" points="256.3309,-127.5001 266.3309,-124 256.3309,-120.5001 256.3309,-127.5001"/>
</g>
<!-- Node25 -->
<g id="node8" class="node">
<title>Node25</title>
<g id="a_node8"><a xlink:href="classSNN.html#a3764348d44236ad4932627cd4d199c31" target="_top" xlink:title="SNN::isPoissonGroup">
<polygon fill="#ffffff" stroke="#000000" points="251.5,-76.5 251.5,-95.5 364.5,-95.5 364.5,-76.5 251.5,-76.5"/>
<text text-anchor="middle" x="308" y="-83.5" font-family="Helvetica,sans-Serif" font-size="10.00" fill="#000000">SNN::isPoissonGroup</text>
</a>
</g>
</g>
<!-- Node24&#45;&gt;Node25 -->
<g id="edge10" class="edge">
<title>Node24&#45;&gt;Node25</title>
<path fill="none" stroke="#191970" d="M185.3841,-114.411C207.1232,-109.3739 233.9575,-103.1562 256.9747,-97.8229"/>
<polygon fill="#191970" stroke="#191970" points="257.9616,-101.1871 266.9135,-95.5201 256.3815,-94.3677 257.9616,-101.1871"/>
</g>
<!-- Node26&#45;&gt;Node20 -->
<g id="edge12" class="edge">
<title>Node26&#45;&gt;Node20</title>
<path fill="none" stroke="#191970" d="M185.3841,-228.411C207.1232,-223.3739 233.9575,-217.1562 256.9747,-211.8229"/>
<polygon fill="#191970" stroke="#191970" points="257.9616,-215.1871 266.9135,-209.5201 256.3815,-208.3677 257.9616,-215.1871"/>
</g>
<!-- Node26&#45;&gt;Node21 -->
<g id="edge13" class="edge">
<title>Node26&#45;&gt;Node21</title>
<path fill="none" stroke="#191970" d="M153.7622,-228.397C165.1779,-217.1309 184.6011,-197.8481 201,-181 217.2267,-164.3288 217.0095,-154.9001 237,-143 242.9671,-139.4479 249.6058,-136.5474 256.3609,-134.1819"/>
<polygon fill="#191970" stroke="#191970" points="257.7744,-137.4073 266.2766,-131.0856 255.6878,-130.7255 257.7744,-137.4073"/>
</g>
<!-- Node27 -->
<g id="node10" class="node">
<title>Node27</title>
<g id="a_node10"><a xlink:href="classSNN.html#a11e19a0ccbeca92ba843a5933b3321e0" target="_top" xlink:title="SNN::getGroupNumNeurons">
<polygon fill="#ffffff" stroke="#000000" points="237,-228.5 237,-247.5 379,-247.5 379,-228.5 237,-228.5"/>
<text text-anchor="middle" x="308" y="-235.5" font-family="Helvetica,sans-Serif" font-size="10.00" fill="#000000">SNN::getGroupNumNeurons</text>
</a>
</g>
</g>
<!-- Node26&#45;&gt;Node27 -->
<g id="edge14" class="edge">
<title>Node26&#45;&gt;Node27</title>
<path fill="none" stroke="#191970" d="M201.3592,-238C209.5916,-238 218.1893,-238 226.7756,-238"/>
<polygon fill="#191970" stroke="#191970" points="226.8274,-241.5001 236.8274,-238 226.8274,-234.5001 226.8274,-241.5001"/>
</g>
<!-- Node28&#45;&gt;Node25 -->
<g id="edge16" class="edge">
<title>Node28&#45;&gt;Node25</title>
<path fill="none" stroke="#191970" d="M183.6998,-71.5994C200.9752,-73.6008 221.6998,-76.0018 241.2299,-78.2644"/>
<polygon fill="#191970" stroke="#191970" points="240.9729,-81.758 251.3093,-79.4322 241.7786,-74.8045 240.9729,-81.758"/>
</g>
<!-- Node29 -->
<g id="node12" class="node">
<title>Node29</title>
<g id="a_node12"><a xlink:href="classSNN.html#ac13b30c40669d3cb8264bd6e211b449d" target="_top" xlink:title="SNN::getGroupGrid3D">
<polygon fill="#ffffff" stroke="#000000" points="250.5,-.5 250.5,-19.5 365.5,-19.5 365.5,-.5 250.5,-.5"/>
<text text-anchor="middle" x="308" y="-7.5" font-family="Helvetica,sans-Serif" font-size="10.00" fill="#000000">SNN::getGroupGrid3D</text>
</a>
</g>
</g>
<!-- Node28&#45;&gt;Node29 -->
<g id="edge17" class="edge">
<title>Node28&#45;&gt;Node29</title>
<path fill="none" stroke="#191970" d="M165.1348,-57.4686C183.7989,-49.2682 211.8739,-37.4575 237,-29 244.0633,-26.6225 251.5993,-24.3408 259.0247,-22.2351"/>
<polygon fill="#191970" stroke="#191970" points="259.9634,-25.6069 268.6734,-19.5748 258.1028,-18.8587 259.9634,-25.6069"/>
</g>
<!-- Node30 -->
<g id="node13" class="node">
<title>Node30</title>
<g id="a_node13"><a xlink:href="classSNN.html#a477f99451786873b73e2623b6f89b766" target="_top" xlink:title="deallocates all dynamical structures and exits ">
<polygon fill="#ffffff" stroke="#000000" points="255,-38.5 255,-57.5 361,-57.5 361,-38.5 255,-38.5"/>
<text text-anchor="middle" x="308" y="-45.5" font-family="Helvetica,sans-Serif" font-size="10.00" fill="#000000">SNN::exitSimulation</text>
</a>
</g>
</g>
<!-- Node28&#45;&gt;Node30 -->
<g id="edge18" class="edge">
<title>Node28&#45;&gt;Node30</title>
<path fill="none" stroke="#191970" d="M183.6998,-62.4006C201.9465,-60.2867 224.0412,-57.7269 244.5119,-55.3553"/>
<polygon fill="#191970" stroke="#191970" points="245.1913,-58.8001 254.722,-54.1724 244.3857,-51.8466 245.1913,-58.8001"/>
</g>
</g>
</svg>
        <g id="navigator" transform="translate(0 0)" fill="#404254">
                <rect fill="#f2f5e9" fill-opacity="0.5" stroke="#606060" stroke-width=".5" x="0" y="0" width="60" height="60"/>
                <use id="zoomplus" xlink:href="#zoomPlus" x="17" y="9" onmousedown="handleZoom(evt,'in')"/>
                <use id="zoomminus" xlink:href="#zoomMin" x="42" y="9" onmousedown="handleZoom(evt,'out')"/>
                <use id="reset" xlink:href="#resetDef" x="30" y="36" onmousedown="handleReset()"/>
                <g id="arrowUp" xlink:href="#dirArrow" transform="translate(30 24)" onmousedown="handlePan(0,-1)">
                  <use xlink:href="#rim" fill="#404040">
                        <set attributeName="fill" to="#808080" begin="arrowUp.mouseover" end="arrowUp.mouseout"/>
                  </use>
                  <path fill="none" stroke="white" stroke-width="1.5" d="M0,-3.0v7 M-2.5,-0.5L0,-3.0L2.5,-0.5"/>
                </g>
                <g id="arrowRight" xlink:href="#dirArrow" transform="rotate(90) translate(36 -43)" onmousedown="handlePan(1,0)">
                  <use xlink:href="#rim" fill="#404040">
                        <set attributeName="fill" to="#808080" begin="arrowRight.mouseover" end="arrowRight.mouseout"/>
                  </use>
                  <path fill="none" stroke="white" stroke-width="1.5" d="M0,-3.0v7 M-2.5,-0.5L0,-3.0L2.5,-0.5"/>
                </g>
                <g id="arrowDown" xlink:href="#dirArrow" transform="rotate(180) translate(-30 -48)" onmousedown="handlePan(0,1)">
                  <use xlink:href="#rim" fill="#404040">
                        <set attributeName="fill" to="#808080" begin="arrowDown.mouseover" end="arrowDown.mouseout"/>
                  </use>
                  <path fill="none" stroke="white" stroke-width="1.5" d="M0,-3.0v7 M-2.5,-0.5L0,-3.0L2.5,-0.5"/>
                </g>
                <g id="arrowLeft" xlink:href="#dirArrow" transform="rotate(270) translate(-36 17)" onmousedown="handlePan(-1,0)">
                  <use xlink:href="#rim" fill="#404040">
                        <set attributeName="fill" to="#808080" begin="arrowLeft.mouseover" end="arrowLeft.mouseout"/>
                  </use>
                  <path fill="none" stroke="white" stroke-width="1.5" d="M0,-3.0v7 M-2.5,-0.5L0,-3.0L2.5,-0.5"/>
                </g>
        </g>
        <svg viewBox="0 0 15 15" width="100%" height="30px" preserveAspectRatio="xMaxYMin meet">
         <g id="arrow_out" transform="scale(0.3 0.3)">
          <a xlink:href="classCARLsim_1_1Impl_afed01f52e943df5e5476428c4fbef8f7_cgraph_org.svg" target="_base">
           <rect id="button" ry="5" rx="5" y="6" x="6" height="38" width="38"
                fill="#f2f5e9" fill-opacity="0.5" stroke="#606060" stroke-width="1.0"/>
           <path id="arrow"
             d="M 11.500037,31.436501 C 11.940474,20.09759 22.043105,11.32322 32.158766,21.979434 L 37.068811,17.246167 C 37.068811,17.246167 37.088388,32 37.088388,32 L 22.160133,31.978069 C 22.160133,31.978069 26.997745,27.140456 26.997745,27.140456 C 18.528582,18.264221 13.291696,25.230495 11.500037,31.436501 z"
             style="fill:#404040;"/>
          </a>
         </g>
        </svg>
</svg>
