<?xml version="1.0" encoding="UTF-8" standalone="no"?>
<!DOCTYPE svg PUBLIC "-//W3C//DTD SVG 1.1//EN"
 "http://www.w3.org/Graphics/SVG/1.1/DTD/svg11.dtd">
<!-- Generated by graphviz version 2.40.1 (20161225.0304)
 -->
<!-- Title: getVectorV Pages: 1 -->
<!--zoomable 447 -->
<svg id="main" version="1.1" xmlns="http://www.w3.org/2000/svg" xmlns:xlink="http://www.w3.org/1999/xlink" xml:space="preserve" onload="init(evt)">
<style type="text/css"><![CDATA[
.edge:hover path { stroke: red; }
.edge:hover polygon { stroke: red; fill: red; }
]]></style>
<script type="text/javascript"><![CDATA[
var edges = document.getElementsByTagName('g');
if (edges && edges.length) {
  for (var i=0;i<edges.length;i++) {
    if (edges[i].id.substr(0,4)=='edge') {
      edges[i].setAttribute('class','edge');
    }
  }
}
]]></script>
        <defs>
                <circle id="rim" cx="0" cy="0" r="7"/>
                <circle id="rim2" cx="0" cy="0" r="3.5"/>
                <g id="zoomPlus">
                        <use xlink:href="#rim" fill="#404040">
                                <set attributeName="fill" to="#808080" begin="zoomplus.mouseover" end="zoomplus.mouseout"/>
                        </use>
                        <path d="M-4,0h8M0,-4v8" fill="none" stroke="white" stroke-width="1.5" pointer-events="none"/>
                </g>
                <g id="zoomMin">
                        <use xlink:href="#rim" fill="#404040">
                                <set attributeName="fill" to="#808080" begin="zoomminus.mouseover" end="zoomminus.mouseout"/>
                        </use>
                        <path d="M-4,0h8" fill="none" stroke="white" stroke-width="1.5" pointer-events="none"/>
                </g>
                <g id="dirArrow">
                        <path fill="none" stroke="white" stroke-width="1.5" d="M0,-3.0v7 M-2.5,-0.5L0,-3.0L2.5,-0.5"/>
                </g>
               <g id="resetDef">
                       <use xlink:href="#rim2" fill="#404040">
                               <set attributeName="fill" to="#808080" begin="reset.mouseover" end="reset.mouseout"/>
                       </use>
               </g>
        </defs>

<script type="text/javascript">
var viewWidth = 1164;
var viewHeight = 447;
var sectionId = 'dynsection-5';
</script>
<script xlink:href="svgpan.js"/>
<svg id="graph" class="graph">
<g id="viewport">
<title>getVectorV</title>
<polygon fill="#ffffff" stroke="transparent" points="-4,4 -4,-442.5 1160,-442.5 1160,4 -4,4"/>
<!-- Node121 -->
<g id="node1" class="node">
<title>Node121</title>
<polygon fill="#bfbfbf" stroke="#000000" points="0,-229.5 0,-248.5 65,-248.5 65,-229.5 0,-229.5"/>
<text text-anchor="middle" x="32.5" y="-236.5" font-family="Helvetica,sans-Serif" font-size="10.00" fill="#000000">getVectorV</text>
</g>
<!-- Node122 -->
<g id="node2" class="node">
<title>Node122</title>
<g id="a_node2"><a xlink:href="classUserErrors.html#a4bbedc6c0817d5e59e74e450bf00472c" target="_top" xlink:title="simple wrapper for assert statement ">
<polygon fill="#ffffff" stroke="#000000" points="101,-267.5 101,-286.5 217,-286.5 217,-267.5 101,-267.5"/>
<text text-anchor="middle" x="159" y="-274.5" font-family="Helvetica,sans-Serif" font-size="10.00" fill="#000000">UserErrors::assertTrue</text>
</a>
</g>
</g>
<!-- Node121&#45;&gt;Node122 -->
<g id="edge1" class="edge">
<title>Node121&#45;&gt;Node122</title>
<path fill="none" stroke="#191970" d="M64.4213,-248.589C80.4516,-253.4044 100.0738,-259.2988 117.2816,-264.468"/>
<polygon fill="#191970" stroke="#191970" points="116.5047,-267.8891 127.0889,-267.4141 118.5187,-261.185 116.5047,-267.8891"/>
</g>
<!-- Node123 -->
<g id="node3" class="node">
<title>Node123</title>
<g id="a_node3"><a xlink:href="classNeuronMonitor.html#a3a3ffdb35b09328d22e5d72503ed1f55" target="_top" xlink:title="isRecording">
<polygon fill="#ffffff" stroke="#000000" points="125,-229.5 125,-248.5 193,-248.5 193,-229.5 125,-229.5"/>
<text text-anchor="middle" x="159" y="-236.5" font-family="Helvetica,sans-Serif" font-size="10.00" fill="#000000">isRecording</text>
</a>
</g>
</g>
<!-- Node121&#45;&gt;Node123 -->
<g id="edge2" class="edge">
<title>Node121&#45;&gt;Node123</title>
<path fill="none" stroke="#191970" d="M65.0769,-239C80.0897,-239 98.1445,-239 114.3958,-239"/>
<polygon fill="#191970" stroke="#191970" points="114.7647,-242.5001 124.7647,-239 114.7646,-235.5001 114.7647,-242.5001"/>
</g>
<!-- Node148 -->
<g id="node28" class="node">
<title>Node148</title>
<g id="a_node28"><a xlink:href="classNeuronMonitorCore.html#a5414db20073ada3806b3c35686c9a6f4" target="_top" xlink:title="returns the Neuron state vector ">
<polygon fill="#ffffff" stroke="#000000" points="105.5,-180 105.5,-210 212.5,-210 212.5,-180 105.5,-180"/>
<text text-anchor="start" x="113.5" y="-198" font-family="Helvetica,sans-Serif" font-size="10.00" fill="#000000">NeuronMonitorCore::</text>
<text text-anchor="middle" x="159" y="-187" font-family="Helvetica,sans-Serif" font-size="10.00" fill="#000000">getVectorV</text>
</a>
</g>
</g>
<!-- Node121&#45;&gt;Node148 -->
<g id="edge46" class="edge">
<title>Node121&#45;&gt;Node148</title>
<path fill="none" stroke="#191970" d="M59.9486,-229.4527C73.428,-224.7642 90.1421,-218.9506 105.9776,-213.4426"/>
<polygon fill="#191970" stroke="#191970" points="107.392,-216.6564 115.6871,-210.0654 105.0923,-210.0449 107.392,-216.6564"/>
</g>
<!-- Node124 -->
<g id="node4" class="node">
<title>Node124</title>
<g id="a_node4"><a xlink:href="classNeuronMonitorCore.html#a3a3ffdb35b09328d22e5d72503ed1f55" target="_top" xlink:title="returns recording status ">
<polygon fill="#ffffff" stroke="#000000" points="253,-202 253,-232 360,-232 360,-202 253,-202"/>
<text text-anchor="start" x="261" y="-220" font-family="Helvetica,sans-Serif" font-size="10.00" fill="#000000">NeuronMonitorCore::</text>
<text text-anchor="middle" x="306.5" y="-209" font-family="Helvetica,sans-Serif" font-size="10.00" fill="#000000">isRecording</text>
</a>
</g>
</g>
<!-- Node123&#45;&gt;Node124 -->
<g id="edge3" class="edge">
<title>Node123&#45;&gt;Node124</title>
<path fill="none" stroke="#191970" d="M193.2102,-233.8975C208.0076,-231.6904 225.8201,-229.0336 242.8932,-226.4871"/>
<polygon fill="#191970" stroke="#191970" points="243.4576,-229.9417 252.8319,-225.0047 242.4249,-223.0183 243.4576,-229.9417"/>
</g>
<!-- Node125 -->
<g id="node5" class="node">
<title>Node125</title>
<g id="a_node5"><a xlink:href="classNeuronMonitorCore.html#a743a4ad47ef60bc593cc9882bd4ffb57" target="_top" xlink:title="inserts a (time,neurId) tupel into the D Neuron State vector ">
<polygon fill="#ffffff" stroke="#000000" points="715.5,-408 715.5,-438 822.5,-438 822.5,-408 715.5,-408"/>
<text text-anchor="start" x="723.5" y="-426" font-family="Helvetica,sans-Serif" font-size="10.00" fill="#000000">NeuronMonitorCore::</text>
<text text-anchor="middle" x="769" y="-415" font-family="Helvetica,sans-Serif" font-size="10.00" fill="#000000">pushNeuronState</text>
</a>
</g>
</g>
<!-- Node124&#45;&gt;Node125 -->
<g id="edge4" class="edge">
<title>Node124&#45;&gt;Node125</title>
<path fill="none" stroke="#191970" d="M317.9677,-232.3107C332.6244,-255.2275 360.416,-297.1046 396,-320 492.2085,-381.9024 626.6837,-403.0505 705.1298,-412.965"/>
<polygon fill="#191970" stroke="#191970" points="704.9933,-416.4749 715.3487,-414.2352 705.8568,-409.5284 704.9933,-416.4749"/>
</g>
<!-- Node126 -->
<g id="node6" class="node">
<title>Node126</title>
<g id="a_node6"><a xlink:href="classNeuronMonitorCore.html#ab91616c118b701c2afd9136393d1f19b" target="_top" xlink:title="starts recording Neuron state ">
<polygon fill="#ffffff" stroke="#000000" points="396,-149 396,-179 503,-179 503,-149 396,-149"/>
<text text-anchor="start" x="404" y="-167" font-family="Helvetica,sans-Serif" font-size="10.00" fill="#000000">NeuronMonitorCore::</text>
<text text-anchor="middle" x="449.5" y="-156" font-family="Helvetica,sans-Serif" font-size="10.00" fill="#000000">startRecording</text>
</a>
</g>
</g>
<!-- Node124&#45;&gt;Node126 -->
<g id="edge6" class="edge">
<title>Node124&#45;&gt;Node126</title>
<path fill="none" stroke="#191970" d="M332.7284,-201.9149C347.8344,-195.232 367.5202,-187.4878 386.4117,-180.6741"/>
<polygon fill="#191970" stroke="#191970" points="387.6391,-183.9524 395.8929,-177.3098 385.2982,-177.3554 387.6391,-183.9524"/>
</g>
<!-- Node127 -->
<g id="node7" class="node">
<title>Node127</title>
<g id="a_node7"><a xlink:href="classNeuronMonitorCore.html#ac8bb3912a3ce86b15842e79d0b421204" target="_top" xlink:title="deletes data from the neuron state vector ">
<polygon fill="#ffffff" stroke="#000000" points="554,-19 554,-49 661,-49 661,-19 554,-19"/>
<text text-anchor="start" x="562" y="-37" font-family="Helvetica,sans-Serif" font-size="10.00" fill="#000000">NeuronMonitorCore::</text>
<text text-anchor="middle" x="607.5" y="-26" font-family="Helvetica,sans-Serif" font-size="10.00" fill="#000000">clear</text>
</a>
</g>
</g>
<!-- Node124&#45;&gt;Node127 -->
<g id="edge42" class="edge">
<title>Node124&#45;&gt;Node127</title>
<path fill="none" stroke="#191970" d="M311.6991,-201.9537C323.5458,-175.3385 354.7421,-121.8521 396,-93 440.1323,-62.1378 499.039,-44.7127 543.4761,-36.7079"/>
<polygon fill="#191970" stroke="#191970" points="544.3027,-40.1181 553.5831,-35.0069 543.1409,-33.2152 544.3027,-40.1181"/>
</g>
<!-- Node146 -->
<g id="node26" class="node">
<title>Node146</title>
<g id="a_node26"><a xlink:href="classNeuronMonitorCore.html#a25e0e98dd4519eaaa6b258f0dcb91ac7" target="_top" xlink:title="stops recording Neuron state ">
<polygon fill="#ffffff" stroke="#000000" points="396,-202 396,-232 503,-232 503,-202 396,-202"/>
<text text-anchor="start" x="404" y="-220" font-family="Helvetica,sans-Serif" font-size="10.00" fill="#000000">NeuronMonitorCore::</text>
<text text-anchor="middle" x="449.5" y="-209" font-family="Helvetica,sans-Serif" font-size="10.00" fill="#000000">stopRecording</text>
</a>
</g>
</g>
<!-- Node124&#45;&gt;Node146 -->
<g id="edge37" class="edge">
<title>Node124&#45;&gt;Node146</title>
<path fill="none" stroke="#191970" d="M360.1548,-210.4404C368.3808,-210.2615 376.9436,-210.2086 385.3684,-210.282"/>
<polygon fill="#191970" stroke="#191970" points="385.4933,-213.7841 395.5445,-210.434 385.5979,-206.7849 385.4933,-213.7841"/>
</g>
<!-- Node147 -->
<g id="node27" class="node">
<title>Node147</title>
<g id="a_node27"><a xlink:href="classNeuronMonitorCore.html#a5113f6b476e3e3544ecbffefa313234d" target="_top" xlink:title="sets pointer to Neuron file ">
<polygon fill="#ffffff" stroke="#000000" points="396,-290 396,-320 503,-320 503,-290 396,-290"/>
<text text-anchor="start" x="404" y="-308" font-family="Helvetica,sans-Serif" font-size="10.00" fill="#000000">NeuronMonitorCore::</text>
<text text-anchor="middle" x="449.5" y="-297" font-family="Helvetica,sans-Serif" font-size="10.00" fill="#000000">setNeuronFileId</text>
</a>
</g>
</g>
<!-- Node124&#45;&gt;Node147 -->
<g id="edge43" class="edge">
<title>Node124&#45;&gt;Node147</title>
<path fill="none" stroke="#191970" d="M341.4532,-232.2053C357.8577,-242.1755 377.7701,-254.9972 396,-266 405.9489,-272.0047 417.1372,-278.3413 426.7005,-284.3329"/>
<polygon fill="#191970" stroke="#191970" points="424.9947,-287.3995 435.2781,-289.9496 428.8295,-281.5433 424.9947,-287.3995"/>
</g>
<!-- Node125&#45;&gt;Node124 -->
<g id="edge5" class="edge">
<title>Node125&#45;&gt;Node124</title>
<path fill="none" stroke="#191970" d="M715.3487,-426.0819C638.8361,-422.8673 496.528,-402.6817 396,-338 358.9263,-314.1461 330.311,-269.6878 316.1963,-241.5737"/>
<polygon fill="#191970" stroke="#191970" points="319.2751,-239.8981 311.8184,-232.3716 312.954,-242.9054 319.2751,-239.8981"/>
</g>
<!-- Node126&#45;&gt;Node124 -->
<g id="edge7" class="edge">
<title>Node126&#45;&gt;Node124</title>
<path fill="none" stroke="#191970" d="M423.2196,-179.1081C408.1291,-185.782 388.4805,-193.5112 369.6206,-200.3143"/>
<polygon fill="#191970" stroke="#191970" points="368.4083,-197.0305 360.1548,-203.6735 370.7495,-203.6275 368.4083,-197.0305"/>
</g>
<!-- Node126&#45;&gt;Node127 -->
<g id="edge8" class="edge">
<title>Node126&#45;&gt;Node127</title>
<path fill="none" stroke="#191970" d="M459.7525,-148.9405C474.9232,-127.6058 505.2219,-88.4615 539,-64 544.2444,-60.2021 550.0454,-56.7453 555.987,-53.6409"/>
<polygon fill="#191970" stroke="#191970" points="557.9297,-56.5874 565.3797,-49.0543 554.8581,-50.2972 557.9297,-56.5874"/>
</g>
<!-- Node128 -->
<g id="node8" class="node">
<title>Node128</title>
<g id="a_node8"><a xlink:href="classSNN.html#a8dd319bdd9a54e38f9254cbec099c30a" target="_top" xlink:title="copy required neuron state values from ??? buffer to ??? buffer ">
<polygon fill="#ffffff" stroke="#000000" points="539,-258.5 539,-277.5 676,-277.5 676,-258.5 539,-258.5"/>
<text text-anchor="middle" x="607.5" y="-265.5" font-family="Helvetica,sans-Serif" font-size="10.00" fill="#000000">SNN::updateNeuronMonitor</text>
</a>
</g>
</g>
<!-- Node126&#45;&gt;Node128 -->
<g id="edge10" class="edge">
<title>Node126&#45;&gt;Node128</title>
<path fill="none" stroke="#191970" d="M480.2068,-179.0867C487.78,-183.0745 495.7852,-187.522 503,-192 533.52,-210.9429 566.7443,-235.9226 587.3494,-251.976"/>
<polygon fill="#191970" stroke="#191970" points="585.3356,-254.8448 595.3629,-258.266 589.6577,-249.3384 585.3356,-254.8448"/>
</g>
<!-- Node131 -->
<g id="node11" class="node">
<title>Node131</title>
<g id="a_node11"><a xlink:href="classSNN.html#a424b0cf29d7dba87e4ebf244399acad0" target="_top" xlink:title="SNN::getSimTimeMs">
<polygon fill="#ffffff" stroke="#000000" points="714,-68.5 714,-87.5 824,-87.5 824,-68.5 714,-68.5"/>
<text text-anchor="middle" x="769" y="-75.5" font-family="Helvetica,sans-Serif" font-size="10.00" fill="#000000">SNN::getSimTimeMs</text>
</a>
</g>
</g>
<!-- Node126&#45;&gt;Node131 -->
<g id="edge36" class="edge">
<title>Node126&#45;&gt;Node131</title>
<path fill="none" stroke="#191970" d="M503.3375,-149.5085C565.0765,-132.8902 665.2275,-105.9325 723.3172,-90.2965"/>
<polygon fill="#191970" stroke="#191970" points="724.5616,-93.5862 733.3082,-87.6072 722.7422,-86.8267 724.5616,-93.5862"/>
</g>
<!-- Node137 -->
<g id="node17" class="node">
<title>Node137</title>
<g id="a_node17"><a xlink:href="classSNN.html#a85facd004ae52ee52e72451b5d874fae" target="_top" xlink:title="SNN::getSimTimeSec">
<polygon fill="#ffffff" stroke="#000000" points="712,-144.5 712,-163.5 826,-163.5 826,-144.5 712,-144.5"/>
<text text-anchor="middle" x="769" y="-151.5" font-family="Helvetica,sans-Serif" font-size="10.00" fill="#000000">SNN::getSimTimeSec</text>
</a>
</g>
</g>
<!-- Node126&#45;&gt;Node137 -->
<g id="edge35" class="edge">
<title>Node126&#45;&gt;Node137</title>
<path fill="none" stroke="#191970" d="M503.3375,-162.3149C557.9463,-160.6058 642.6072,-157.956 701.6319,-156.1085"/>
<polygon fill="#191970" stroke="#191970" points="702.0889,-159.5961 711.9744,-155.7848 701.8698,-152.5995 702.0889,-159.5961"/>
</g>
<!-- Node127&#45;&gt;Node124 -->
<g id="edge9" class="edge">
<title>Node127&#45;&gt;Node124</title>
<path fill="none" stroke="#191970" d="M554.9311,-49.0309C509.5978,-59.7292 444.044,-77.4023 396,-111 364.5634,-132.984 338.9683,-169.27 323.3233,-193.3333"/>
<polygon fill="#191970" stroke="#191970" points="320.2796,-191.5959 317.823,-201.902 326.1704,-195.3773 320.2796,-191.5959"/>
</g>
<!-- Node128&#45;&gt;Node124 -->
<g id="edge33" class="edge">
<title>Node128&#45;&gt;Node124</title>
<path fill="none" stroke="#191970" d="M538.5413,-261.5751C497.0171,-257.1172 443.2146,-250.3 396,-241 386.7455,-239.1771 377.0353,-236.9303 367.5636,-234.5493"/>
<polygon fill="#191970" stroke="#191970" points="368.3659,-231.1418 357.8085,-232.0317 366.6166,-237.9197 368.3659,-231.1418"/>
</g>
<!-- Node128&#45;&gt;Node125 -->
<g id="edge34" class="edge">
<title>Node128&#45;&gt;Node125</title>
<path fill="none" stroke="#191970" d="M617.6025,-277.6959C642.9615,-302.0342 709.8273,-366.2089 745.6138,-400.5551"/>
<polygon fill="#191970" stroke="#191970" points="743.5304,-403.4067 753.1687,-407.8059 748.3775,-398.3563 743.5304,-403.4067"/>
</g>
<!-- Node129 -->
<g id="node9" class="node">
<title>Node129</title>
<g id="a_node9"><a xlink:href="classNeuronMonitorCore.html#a102f8a26e80c556ee9a2ac503cd38ec9" target="_top" xlink:title="returns timestamp of last NeuronMonitor update ">
<polygon fill="#ffffff" stroke="#000000" points="715.5,-221 715.5,-251 822.5,-251 822.5,-221 715.5,-221"/>
<text text-anchor="start" x="723.5" y="-239" font-family="Helvetica,sans-Serif" font-size="10.00" fill="#000000">NeuronMonitorCore::</text>
<text text-anchor="middle" x="769" y="-228" font-family="Helvetica,sans-Serif" font-size="10.00" fill="#000000">getLastUpdated</text>
</a>
</g>
</g>
<!-- Node128&#45;&gt;Node129 -->
<g id="edge11" class="edge">
<title>Node128&#45;&gt;Node129</title>
<path fill="none" stroke="#191970" d="M655.5181,-258.4856C671.0719,-255.4037 688.576,-251.9354 705.0957,-248.6622"/>
<polygon fill="#191970" stroke="#191970" points="706.0991,-252.0315 715.2281,-246.6545 704.7385,-245.165 706.0991,-252.0315"/>
</g>
<!-- Node130 -->
<g id="node10" class="node">
<title>Node130</title>
<g id="a_node10"><a xlink:href="classSNN.html#a5fd2b156623d78138bcb44167eabab78" target="_top" xlink:title="SNN::getSimTime">
<polygon fill="#ffffff" stroke="#000000" points="720.5,-182.5 720.5,-201.5 817.5,-201.5 817.5,-182.5 720.5,-182.5"/>
<text text-anchor="middle" x="769" y="-189.5" font-family="Helvetica,sans-Serif" font-size="10.00" fill="#000000">SNN::getSimTime</text>
</a>
</g>
</g>
<!-- Node128&#45;&gt;Node130 -->
<g id="edge12" class="edge">
<title>Node128&#45;&gt;Node130</title>
<path fill="none" stroke="#191970" d="M643.5719,-258.403C654.4091,-254.7297 666.0534,-249.9552 676,-244 694.6225,-232.8504 693.293,-222.0073 712,-211 715.5905,-208.8873 719.448,-206.9714 723.4017,-205.2423"/>
<polygon fill="#191970" stroke="#191970" points="724.719,-208.4852 732.7216,-201.542 722.1358,-201.9792 724.719,-208.4852"/>
</g>
<!-- Node128&#45;&gt;Node131 -->
<g id="edge13" class="edge">
<title>Node128&#45;&gt;Node131</title>
<path fill="none" stroke="#191970" d="M620.6858,-258.4488C635.545,-247.1867 659.7415,-227.2889 676,-206 697.4739,-177.882 691.2323,-163.6436 712,-135 722.9462,-119.9026 737.9401,-105.0789 749.8024,-94.3343"/>
<polygon fill="#191970" stroke="#191970" points="752.2525,-96.8399 757.4262,-87.5942 747.616,-91.5955 752.2525,-96.8399"/>
</g>
<!-- Node128&#45;&gt;Node137 -->
<g id="edge22" class="edge">
<title>Node128&#45;&gt;Node137</title>
<path fill="none" stroke="#191970" d="M650.7874,-258.4478C659.8313,-254.9881 668.7954,-250.3096 676,-244 702.6161,-220.6904 685.2069,-196.1059 712,-173 713.9699,-171.3012 716.0969,-169.753 718.3317,-168.3423"/>
<polygon fill="#191970" stroke="#191970" points="720.179,-171.3247 727.3815,-163.5545 716.9055,-165.1373 720.179,-171.3247"/>
</g>
<!-- Node138 -->
<g id="node18" class="node">
<title>Node138</title>
<g id="a_node18"><a xlink:href="classNeuronMonitorCore.html#a38f87732cc929797d9648e68cd509f1b" target="_top" xlink:title="sets timestamp of last NeuronMonitor update ">
<polygon fill="#ffffff" stroke="#000000" points="715.5,-319 715.5,-349 822.5,-349 822.5,-319 715.5,-319"/>
<text text-anchor="start" x="723.5" y="-337" font-family="Helvetica,sans-Serif" font-size="10.00" fill="#000000">NeuronMonitorCore::</text>
<text text-anchor="middle" x="769" y="-326" font-family="Helvetica,sans-Serif" font-size="10.00" fill="#000000">setLastUpdated</text>
</a>
</g>
</g>
<!-- Node128&#45;&gt;Node138 -->
<g id="edge23" class="edge">
<title>Node128&#45;&gt;Node138</title>
<path fill="none" stroke="#191970" d="M630.9835,-277.597C654.9024,-287.3719 692.6326,-302.791 722.6027,-315.0389"/>
<polygon fill="#191970" stroke="#191970" points="721.4524,-318.3497 732.0333,-318.8929 724.1005,-311.8699 721.4524,-318.3497"/>
</g>
<!-- Node145 -->
<g id="node25" class="node">
<title>Node145</title>
<g id="a_node25"><a xlink:href="classNeuronMonitorCore.html#a84e392c48ef98bece7aa0dc7af992360" target="_top" xlink:title="returns a pointer to the neuron state file ">
<polygon fill="#ffffff" stroke="#000000" points="715.5,-270 715.5,-300 822.5,-300 822.5,-270 715.5,-270"/>
<text text-anchor="start" x="723.5" y="-288" font-family="Helvetica,sans-Serif" font-size="10.00" fill="#000000">NeuronMonitorCore::</text>
<text text-anchor="middle" x="769" y="-277" font-family="Helvetica,sans-Serif" font-size="10.00" fill="#000000">getNeuronFileId</text>
</a>
</g>
</g>
<!-- Node128&#45;&gt;Node145 -->
<g id="edge32" class="edge">
<title>Node128&#45;&gt;Node145</title>
<path fill="none" stroke="#191970" d="M676.459,-275.2588C686.0289,-276.2662 695.8247,-277.2973 705.2929,-278.294"/>
<polygon fill="#191970" stroke="#191970" points="705.1006,-281.793 715.4121,-279.3592 705.8335,-274.8315 705.1006,-281.793"/>
</g>
<!-- Node132 -->
<g id="node12" class="node">
<title>Node132</title>
<g id="a_node12"><a xlink:href="classSNN.html#a866a9c6e2b2630816fc66adda1381655" target="_top" xlink:title="Returns pointer to existing SpikeMonitor object, NULL else. ">
<polygon fill="#ffffff" stroke="#000000" points="876,-.5 876,-19.5 991,-19.5 991,-.5 876,-.5"/>
<text text-anchor="middle" x="933.5" y="-7.5" font-family="Helvetica,sans-Serif" font-size="10.00" fill="#000000">SNN::getSpikeMonitor</text>
</a>
</g>
</g>
<!-- Node131&#45;&gt;Node132 -->
<g id="edge14" class="edge">
<title>Node131&#45;&gt;Node132</title>
<path fill="none" stroke="#191970" d="M784.612,-68.3709C802.6844,-57.5611 833.611,-40.0871 862,-29 868.1895,-26.5827 874.7973,-24.3665 881.4017,-22.3688"/>
<polygon fill="#191970" stroke="#191970" points="882.3835,-25.7284 891.0262,-19.6004 880.4484,-19.0012 882.3835,-25.7284"/>
</g>
<!-- Node134 -->
<g id="node14" class="node">
<title>Node134</title>
<g id="a_node14"><a xlink:href="classSNN.html#ad25000cd1457c9b9869122534ada6fdd" target="_top" xlink:title="SNN::getSpikeMonitorCore">
<polygon fill="#ffffff" stroke="#000000" points="865.5,-114.5 865.5,-133.5 1001.5,-133.5 1001.5,-114.5 865.5,-114.5"/>
<text text-anchor="middle" x="933.5" y="-121.5" font-family="Helvetica,sans-Serif" font-size="10.00" fill="#000000">SNN::getSpikeMonitorCore</text>
</a>
</g>
</g>
<!-- Node131&#45;&gt;Node134 -->
<g id="edge16" class="edge">
<title>Node131&#45;&gt;Node134</title>
<path fill="none" stroke="#191970" d="M801.2284,-87.5528C819.1047,-92.8021 841.7522,-99.3713 862,-105 870.1828,-107.2747 878.9088,-109.642 887.3514,-111.9022"/>
<polygon fill="#191970" stroke="#191970" points="886.5186,-115.3024 897.0826,-114.4944 888.3205,-108.5382 886.5186,-115.3024"/>
</g>
<!-- Node135 -->
<g id="node15" class="node">
<title>Node135</title>
<g id="a_node15"><a xlink:href="classSNN.html#a0eb87addfa5eebdfee4bd6b927b8945f" target="_top" xlink:title="Returns pointer to existing NeuronMonitor object, NULL else. ">
<polygon fill="#ffffff" stroke="#000000" points="872.5,-76.5 872.5,-95.5 994.5,-95.5 994.5,-76.5 872.5,-76.5"/>
<text text-anchor="middle" x="933.5" y="-83.5" font-family="Helvetica,sans-Serif" font-size="10.00" fill="#000000">SNN::getNeuronMonitor</text>
</a>
</g>
</g>
<!-- Node131&#45;&gt;Node135 -->
<g id="edge18" class="edge">
<title>Node131&#45;&gt;Node135</title>
<path fill="none" stroke="#191970" d="M824.2337,-80.6861C836.4595,-81.2807 849.5812,-81.9188 862.3402,-82.5393"/>
<polygon fill="#191970" stroke="#191970" points="862.3127,-86.042 872.4709,-83.032 862.6528,-79.0503 862.3127,-86.042"/>
</g>
<!-- Node136 -->
<g id="node16" class="node">
<title>Node136</title>
<g id="a_node16"><a xlink:href="classSNN.html#a9aa73fa9478383c4af1eed8387d82db9" target="_top" xlink:title="SNN::getNeuronMonitorCore">
<polygon fill="#ffffff" stroke="#000000" points="862,-38.5 862,-57.5 1005,-57.5 1005,-38.5 862,-38.5"/>
<text text-anchor="middle" x="933.5" y="-45.5" font-family="Helvetica,sans-Serif" font-size="10.00" fill="#000000">SNN::getNeuronMonitorCore</text>
</a>
</g>
</g>
<!-- Node131&#45;&gt;Node136 -->
<g id="edge20" class="edge">
<title>Node131&#45;&gt;Node136</title>
<path fill="none" stroke="#191970" d="M821.5011,-68.4253C837.308,-65.5426 854.8091,-62.3509 871.1877,-59.364"/>
<polygon fill="#191970" stroke="#191970" points="872.0057,-62.7726 881.2154,-57.5352 870.7497,-55.8862 872.0057,-62.7726"/>
</g>
<!-- Node133 -->
<g id="node13" class="node">
<title>Node133</title>
<g id="a_node13"><a xlink:href="classSNN.html#a292bdee57fec7c77ec4c15ea3f508d60" target="_top" xlink:title="SNN::getNumGroups">
<polygon fill="#ffffff" stroke="#000000" points="1043.5,-57.5 1043.5,-76.5 1153.5,-76.5 1153.5,-57.5 1043.5,-57.5"/>
<text text-anchor="middle" x="1098.5" y="-64.5" font-family="Helvetica,sans-Serif" font-size="10.00" fill="#000000">SNN::getNumGroups</text>
</a>
</g>
</g>
<!-- Node132&#45;&gt;Node133 -->
<g id="edge15" class="edge">
<title>Node132&#45;&gt;Node133</title>
<path fill="none" stroke="#191970" d="M973.1016,-19.5695C983.5534,-22.3543 994.7686,-25.5767 1005,-29 1026.3108,-36.1303 1049.7356,-45.6535 1067.8077,-53.3825"/>
<polygon fill="#191970" stroke="#191970" points="1066.6818,-56.7089 1077.2496,-57.4652 1069.4601,-50.2838 1066.6818,-56.7089"/>
</g>
<!-- Node134&#45;&gt;Node133 -->
<g id="edge17" class="edge">
<title>Node134&#45;&gt;Node133</title>
<path fill="none" stroke="#191970" d="M973.1016,-114.4305C983.5534,-111.6457 994.7686,-108.4233 1005,-105 1026.3108,-97.8697 1049.7356,-88.3465 1067.8077,-80.6175"/>
<polygon fill="#191970" stroke="#191970" points="1069.4601,-83.7162 1077.2496,-76.5348 1066.6818,-77.2911 1069.4601,-83.7162"/>
</g>
<!-- Node135&#45;&gt;Node133 -->
<g id="edge19" class="edge">
<title>Node135&#45;&gt;Node133</title>
<path fill="none" stroke="#191970" d="M994.9399,-78.9251C1007.4474,-77.4848 1020.647,-75.9649 1033.2805,-74.5101"/>
<polygon fill="#191970" stroke="#191970" points="1033.7331,-77.9812 1043.267,-73.3602 1032.9323,-71.0272 1033.7331,-77.9812"/>
</g>
<!-- Node136&#45;&gt;Node133 -->
<g id="edge21" class="edge">
<title>Node136&#45;&gt;Node133</title>
<path fill="none" stroke="#191970" d="M1005.3914,-56.2784C1014.6037,-57.3392 1023.9953,-58.4207 1033.0967,-59.4687"/>
<polygon fill="#191970" stroke="#191970" points="1032.8892,-62.9679 1043.224,-60.6349 1033.69,-56.0138 1032.8892,-62.9679"/>
</g>
<!-- Node139 -->
<g id="node19" class="node">
<title>Node139</title>
<g id="a_node19"><a xlink:href="classNeuronMonitorCore.html#aaeb6a64ac5d9fd3b7a979f0f12ec87dc" target="_top" xlink:title="returns true if state buffers are close to maxAllowedBufferSize ">
<polygon fill="#ffffff" stroke="#000000" points="880,-275 880,-305 987,-305 987,-275 880,-275"/>
<text text-anchor="start" x="888" y="-293" font-family="Helvetica,sans-Serif" font-size="10.00" fill="#000000">NeuronMonitorCore::</text>
<text text-anchor="middle" x="933.5" y="-282" font-family="Helvetica,sans-Serif" font-size="10.00" fill="#000000">isBufferBig</text>
</a>
</g>
</g>
<!-- Node138&#45;&gt;Node139 -->
<g id="edge24" class="edge">
<title>Node138&#45;&gt;Node139</title>
<path fill="none" stroke="#191970" d="M822.8635,-319.5928C837.852,-315.5837 854.2741,-311.1911 869.7709,-307.0461"/>
<polygon fill="#191970" stroke="#191970" points="871.0406,-310.3296 879.7966,-304.3644 869.2318,-303.5673 871.0406,-310.3296"/>
</g>
<!-- Node140 -->
<g id="node20" class="node">
<title>Node140</title>
<g id="a_node20"><a xlink:href="classNeuronMonitorCore.html#a30f19d45f562061cc82c04e7289ba956" target="_top" xlink:title="returns the approximate size of the state vectors in bytes ">
<polygon fill="#ffffff" stroke="#000000" points="1045,-297 1045,-327 1152,-327 1152,-297 1045,-297"/>
<text text-anchor="start" x="1053" y="-315" font-family="Helvetica,sans-Serif" font-size="10.00" fill="#000000">NeuronMonitorCore::</text>
<text text-anchor="middle" x="1098.5" y="-304" font-family="Helvetica,sans-Serif" font-size="10.00" fill="#000000">getBufferSize</text>
</a>
</g>
</g>
<!-- Node138&#45;&gt;Node140 -->
<g id="edge26" class="edge">
<title>Node138&#45;&gt;Node140</title>
<path fill="none" stroke="#191970" d="M822.6732,-330.4164C880.7146,-326.5411 973.1845,-320.367 1034.8488,-316.2498"/>
<polygon fill="#191970" stroke="#191970" points="1035.1052,-319.7406 1044.8498,-315.5821 1034.6388,-312.7562 1035.1052,-319.7406"/>
</g>
<!-- Node141 -->
<g id="node21" class="node">
<title>Node141</title>
<g id="a_node21"><a xlink:href="classNeuronMonitorCore.html#a3a0e4e77a2b83f5dd0e86aafcf227595" target="_top" xlink:title="returns the total accumulated time ">
<polygon fill="#ffffff" stroke="#000000" points="880,-226 880,-256 987,-256 987,-226 880,-226"/>
<text text-anchor="start" x="888" y="-244" font-family="Helvetica,sans-Serif" font-size="10.00" fill="#000000">NeuronMonitorCore::</text>
<text text-anchor="middle" x="933.5" y="-233" font-family="Helvetica,sans-Serif" font-size="10.00" fill="#000000">getAccumTime</text>
</a>
</g>
</g>
<!-- Node138&#45;&gt;Node141 -->
<g id="edge27" class="edge">
<title>Node138&#45;&gt;Node141</title>
<path fill="none" stroke="#191970" d="M809.8868,-318.9164C815.5464,-316.0284 821.0937,-312.7236 826,-309 846.1269,-293.7249 841.2101,-279.3596 862,-265 864.7473,-263.1024 867.6567,-261.3448 870.6687,-259.718"/>
<polygon fill="#191970" stroke="#191970" points="872.4786,-262.7303 879.9527,-255.2211 869.4271,-256.4304 872.4786,-262.7303"/>
</g>
<!-- Node142 -->
<g id="node22" class="node">
<title>Node142</title>
<g id="a_node22"><a xlink:href="classNeuronMonitorCore.html#a4d3c2252230fe74bf03bcc3045ff8972" target="_top" xlink:title="NeuronMonitorCore::\lwriteNeuronFileHeader">
<polygon fill="#ffffff" stroke="#000000" points="875.5,-363 875.5,-393 991.5,-393 991.5,-363 875.5,-363"/>
<text text-anchor="start" x="883.5" y="-381" font-family="Helvetica,sans-Serif" font-size="10.00" fill="#000000">NeuronMonitorCore::</text>
<text text-anchor="middle" x="933.5" y="-370" font-family="Helvetica,sans-Serif" font-size="10.00" fill="#000000">writeNeuronFileHeader</text>
</a>
</g>
</g>
<!-- Node138&#45;&gt;Node142 -->
<g id="edge28" class="edge">
<title>Node138&#45;&gt;Node142</title>
<path fill="none" stroke="#191970" d="M822.8635,-348.4072C837.0241,-352.1949 852.4642,-356.3248 867.1948,-360.2649"/>
<polygon fill="#191970" stroke="#191970" points="866.6903,-363.7529 877.2551,-362.9558 868.4991,-356.9906 866.6903,-363.7529"/>
</g>
<!-- Node144 -->
<g id="node24" class="node">
<title>Node144</title>
<g id="a_node24"><a xlink:href="classNeuronMonitorCore.html#aec9349ebca384aed5e233754559075e0" target="_top" xlink:title="prints neuron states in human&#45;readable format ">
<polygon fill="#ffffff" stroke="#000000" points="880,-169 880,-199 987,-199 987,-169 880,-169"/>
<text text-anchor="start" x="888" y="-187" font-family="Helvetica,sans-Serif" font-size="10.00" fill="#000000">NeuronMonitorCore::</text>
<text text-anchor="middle" x="933.5" y="-176" font-family="Helvetica,sans-Serif" font-size="10.00" fill="#000000">print</text>
</a>
</g>
</g>
<!-- Node138&#45;&gt;Node144 -->
<g id="edge30" class="edge">
<title>Node138&#45;&gt;Node144</title>
<path fill="none" stroke="#191970" d="M813.3541,-318.9007C817.9916,-316.1024 822.3392,-312.8255 826,-309 856.6435,-276.9778 831.4766,-248.1367 862,-216 866.3638,-211.4055 871.5077,-207.4234 877.0032,-203.983"/>
<polygon fill="#191970" stroke="#191970" points="878.8565,-206.9565 885.8666,-199.0124 875.4325,-200.8511 878.8565,-206.9565"/>
</g>
<!-- Node139&#45;&gt;Node140 -->
<g id="edge25" class="edge">
<title>Node139&#45;&gt;Node140</title>
<path fill="none" stroke="#191970" d="M987.0708,-297.1428C1002.2774,-299.1703 1018.9854,-301.3981 1034.7322,-303.4976"/>
<polygon fill="#191970" stroke="#191970" points="1034.541,-307.003 1044.9159,-304.8554 1035.4662,-300.0644 1034.541,-307.003"/>
</g>
<!-- Node143 -->
<g id="node23" class="node">
<title>Node143</title>
<g id="a_node23"><a xlink:href="classSNN.html#ac13b30c40669d3cb8264bd6e211b449d" target="_top" xlink:title="SNN::getGroupGrid3D">
<polygon fill="#ffffff" stroke="#000000" points="1041,-368.5 1041,-387.5 1156,-387.5 1156,-368.5 1041,-368.5"/>
<text text-anchor="middle" x="1098.5" y="-375.5" font-family="Helvetica,sans-Serif" font-size="10.00" fill="#000000">SNN::getGroupGrid3D</text>
</a>
</g>
</g>
<!-- Node142&#45;&gt;Node143 -->
<g id="edge29" class="edge">
<title>Node142&#45;&gt;Node143</title>
<path fill="none" stroke="#191970" d="M991.6728,-378C1004.2651,-378 1017.6878,-378 1030.6159,-378"/>
<polygon fill="#191970" stroke="#191970" points="1030.8526,-381.5001 1040.8526,-378 1030.8525,-374.5001 1030.8526,-381.5001"/>
</g>
<!-- Node144&#45;&gt;Node124 -->
<g id="edge31" class="edge">
<title>Node144&#45;&gt;Node124</title>
<path fill="none" stroke="#191970" d="M908.5107,-168.8742C887.3817,-157.0206 855.8647,-141.4854 826,-135 639.2337,-94.442 574.546,-70.8241 396,-139 366.9828,-150.0799 341.1142,-175.1444 324.7425,-193.8894"/>
<polygon fill="#191970" stroke="#191970" points="321.8984,-191.8325 318.1188,-201.7302 327.2458,-196.3498 321.8984,-191.8325"/>
</g>
<!-- Node146&#45;&gt;Node124 -->
<g id="edge38" class="edge">
<title>Node146&#45;&gt;Node124</title>
<path fill="none" stroke="#191970" d="M395.5445,-223.566C387.3103,-223.7419 378.7452,-223.7917 370.3238,-223.7153"/>
<polygon fill="#191970" stroke="#191970" points="370.2072,-220.2132 360.1548,-223.5596 370.1,-227.2124 370.2072,-220.2132"/>
</g>
<!-- Node146&#45;&gt;Node128 -->
<g id="edge39" class="edge">
<title>Node146&#45;&gt;Node128</title>
<path fill="none" stroke="#191970" d="M496.0506,-232.0258C518.9426,-239.415 546.2345,-248.2244 568.0811,-255.2762"/>
<polygon fill="#191970" stroke="#191970" points="567.1085,-258.64 577.7002,-258.3811 569.2588,-251.9784 567.1085,-258.64"/>
</g>
<!-- Node146&#45;&gt;Node131 -->
<g id="edge41" class="edge">
<title>Node146&#45;&gt;Node131</title>
<path fill="none" stroke="#191970" d="M500.174,-201.9084C546.8793,-187.244 617.592,-163.1137 676,-135 701.2532,-122.8448 728.3897,-105.6937 746.7922,-93.3854"/>
<polygon fill="#191970" stroke="#191970" points="749.0036,-96.1149 755.3204,-87.6091 745.078,-90.3192 749.0036,-96.1149"/>
</g>
<!-- Node146&#45;&gt;Node137 -->
<g id="edge40" class="edge">
<title>Node146&#45;&gt;Node137</title>
<path fill="none" stroke="#191970" d="M503.4609,-224.3953C550.8199,-228.5952 620.5905,-229.1163 676,-206 696.0317,-197.643 693.293,-184.0073 712,-173 715.5905,-170.8873 719.448,-168.9714 723.4017,-167.2423"/>
<polygon fill="#191970" stroke="#191970" points="724.719,-170.4852 732.7216,-163.542 722.1358,-163.9792 724.719,-170.4852"/>
</g>
<!-- Node147&#45;&gt;Node124 -->
<g id="edge44" class="edge">
<title>Node147&#45;&gt;Node124</title>
<path fill="none" stroke="#191970" d="M406.1481,-289.9768C402.6991,-287.998 399.2821,-285.9809 396,-284 372.2961,-269.6934 345.7478,-252.3115 327.7652,-238.5345"/>
<polygon fill="#191970" stroke="#191970" points="329.6779,-235.5833 319.6755,-232.09 325.3163,-241.0585 329.6779,-235.5833"/>
</g>
<!-- Node147&#45;&gt;Node142 -->
<g id="edge45" class="edge">
<title>Node147&#45;&gt;Node142</title>
<path fill="none" stroke="#191970" d="M503.4946,-317.6994C556.3542,-329.7049 639.3088,-347.4122 712,-358 763.2209,-365.4606 821.5372,-370.592 865.4717,-373.7877"/>
<polygon fill="#191970" stroke="#191970" points="865.2432,-377.2802 875.4666,-374.4995 865.7405,-370.2979 865.2432,-377.2802"/>
</g>
<!-- Node148&#45;&gt;Node124 -->
<g id="edge47" class="edge">
<title>Node148&#45;&gt;Node124</title>
<path fill="none" stroke="#191970" d="M212.6681,-203.0047C222.4291,-204.4606 232.6981,-205.9923 242.7171,-207.4866"/>
<polygon fill="#191970" stroke="#191970" points="242.2177,-210.9508 252.6246,-208.9644 243.2504,-204.0274 242.2177,-210.9508"/>
</g>
</g>
</svg>
        <g id="navigator" transform="translate(0 0)" fill="#404254">
                <rect fill="#f2f5e9" fill-opacity="0.5" stroke="#606060" stroke-width=".5" x="0" y="0" width="60" height="60"/>
                <use id="zoomplus" xlink:href="#zoomPlus" x="17" y="9" onmousedown="handleZoom(evt,'in')"/>
                <use id="zoomminus" xlink:href="#zoomMin" x="42" y="9" onmousedown="handleZoom(evt,'out')"/>
                <use id="reset" xlink:href="#resetDef" x="30" y="36" onmousedown="handleReset()"/>
                <g id="arrowUp" xlink:href="#dirArrow" transform="translate(30 24)" onmousedown="handlePan(0,-1)">
                  <use xlink:href="#rim" fill="#404040">
                        <set attributeName="fill" to="#808080" begin="arrowUp.mouseover" end="arrowUp.mouseout"/>
                  </use>
                  <path fill="none" stroke="white" stroke-width="1.5" d="M0,-3.0v7 M-2.5,-0.5L0,-3.0L2.5,-0.5"/>
                </g>
                <g id="arrowRight" xlink:href="#dirArrow" transform="rotate(90) translate(36 -43)" onmousedown="handlePan(1,0)">
                  <use xlink:href="#rim" fill="#404040">
                        <set attributeName="fill" to="#808080" begin="arrowRight.mouseover" end="arrowRight.mouseout"/>
                  </use>
                  <path fill="none" stroke="white" stroke-width="1.5" d="M0,-3.0v7 M-2.5,-0.5L0,-3.0L2.5,-0.5"/>
                </g>
                <g id="arrowDown" xlink:href="#dirArrow" transform="rotate(180) translate(-30 -48)" onmousedown="handlePan(0,1)">
                  <use xlink:href="#rim" fill="#404040">
                        <set attributeName="fill" to="#808080" begin="arrowDown.mouseover" end="arrowDown.mouseout"/>
                  </use>
                  <path fill="none" stroke="white" stroke-width="1.5" d="M0,-3.0v7 M-2.5,-0.5L0,-3.0L2.5,-0.5"/>
                </g>
                <g id="arrowLeft" xlink:href="#dirArrow" transform="rotate(270) translate(-36 17)" onmousedown="handlePan(-1,0)">
                  <use xlink:href="#rim" fill="#404040">
                        <set attributeName="fill" to="#808080" begin="arrowLeft.mouseover" end="arrowLeft.mouseout"/>
                  </use>
                  <path fill="none" stroke="white" stroke-width="1.5" d="M0,-3.0v7 M-2.5,-0.5L0,-3.0L2.5,-0.5"/>
                </g>
        </g>
        <svg viewBox="0 0 15 15" width="100%" height="30px" preserveAspectRatio="xMaxYMin meet">
         <g id="arrow_out" transform="scale(0.3 0.3)">
          <a xlink:href="classNeuronMonitor_a5414db20073ada3806b3c35686c9a6f4_cgraph_org.svg" target="_base">
           <rect id="button" ry="5" rx="5" y="6" x="6" height="38" width="38"
                fill="#f2f5e9" fill-opacity="0.5" stroke="#606060" stroke-width="1.0"/>
           <path id="arrow"
             d="M 11.500037,31.436501 C 11.940474,20.09759 22.043105,11.32322 32.158766,21.979434 L 37.068811,17.246167 C 37.068811,17.246167 37.088388,32 37.088388,32 L 22.160133,31.978069 C 22.160133,31.978069 26.997745,27.140456 26.997745,27.140456 C 18.528582,18.264221 13.291696,25.230495 11.500037,31.436501 z"
             style="fill:#404040;"/>
          </a>
         </g>
        </svg>
</svg>
