<?xml version="1.0" encoding="UTF-8" standalone="no"?>
<!DOCTYPE svg PUBLIC "-//W3C//DTD SVG 1.1//EN"
 "http://www.w3.org/Graphics/SVG/1.1/DTD/svg11.dtd">
<!-- Generated by graphviz version 2.40.1 (20161225.0304)
 -->
<!-- Title: getMonitorId Pages: 1 -->
<!--zoomable 518 -->
<svg id="main" version="1.1" xmlns="http://www.w3.org/2000/svg" xmlns:xlink="http://www.w3.org/1999/xlink" xml:space="preserve" onload="init(evt)">
<style type="text/css"><![CDATA[
.edge:hover path { stroke: red; }
.edge:hover polygon { stroke: red; fill: red; }
]]></style>
<script type="text/javascript"><![CDATA[
var edges = document.getElementsByTagName('g');
if (edges && edges.length) {
  for (var i=0;i<edges.length;i++) {
    if (edges[i].id.substr(0,4)=='edge') {
      edges[i].setAttribute('class','edge');
    }
  }
}
]]></script>
        <defs>
                <circle id="rim" cx="0" cy="0" r="7"/>
                <circle id="rim2" cx="0" cy="0" r="3.5"/>
                <g id="zoomPlus">
                        <use xlink:href="#rim" fill="#404040">
                                <set attributeName="fill" to="#808080" begin="zoomplus.mouseover" end="zoomplus.mouseout"/>
                        </use>
                        <path d="M-4,0h8M0,-4v8" fill="none" stroke="white" stroke-width="1.5" pointer-events="none"/>
                </g>
                <g id="zoomMin">
                        <use xlink:href="#rim" fill="#404040">
                                <set attributeName="fill" to="#808080" begin="zoomminus.mouseover" end="zoomminus.mouseout"/>
                        </use>
                        <path d="M-4,0h8" fill="none" stroke="white" stroke-width="1.5" pointer-events="none"/>
                </g>
                <g id="dirArrow">
                        <path fill="none" stroke="white" stroke-width="1.5" d="M0,-3.0v7 M-2.5,-0.5L0,-3.0L2.5,-0.5"/>
                </g>
               <g id="resetDef">
                       <use xlink:href="#rim2" fill="#404040">
                               <set attributeName="fill" to="#808080" begin="reset.mouseover" end="reset.mouseout"/>
                       </use>
               </g>
        </defs>

<script type="text/javascript">
var viewWidth = 1360;
var viewHeight = 518;
var sectionId = 'dynsection-16';
</script>
<script xlink:href="svgpan.js"/>
<svg id="graph" class="graph">
<g id="viewport">
<title>getMonitorId</title>
<polygon fill="#ffffff" stroke="transparent" points="-4,4 -4,-513.8161 1356,-513.8161 1356,4 -4,4"/>
<!-- Node323 -->
<g id="node1" class="node">
<title>Node323</title>
<polygon fill="#bfbfbf" stroke="#000000" points="0,-281.3161 0,-300.3161 71,-300.3161 71,-281.3161 0,-281.3161"/>
<text text-anchor="middle" x="35.5" y="-288.3161" font-family="Helvetica,sans-Serif" font-size="10.00" fill="#000000">getMonitorId</text>
</g>
<!-- Node324 -->
<g id="node2" class="node">
<title>Node324</title>
<g id="a_node2"><a xlink:href="classSpikeMonitorCore.html#aed09edf4583ac05d42fccc7e3556e3c5" target="_top" xlink:title="returns the recorded mean firing rate for a specific neuron ">
<polygon fill="#ffffff" stroke="#000000" points="320,-224.3161 320,-243.3161 451,-243.3161 451,-224.3161 320,-224.3161"/>
<text text-anchor="middle" x="385.5" y="-231.3161" font-family="Helvetica,sans-Serif" font-size="10.00" fill="#000000">getNeuronMeanFiringRate</text>
</a>
</g>
</g>
<!-- Node323&#45;&gt;Node324 -->
<g id="edge1" class="edge">
<title>Node323&#45;&gt;Node324</title>
<path fill="none" stroke="#191970" d="M49.2601,-281.2283C63.132,-272.1283 85.5088,-258.9567 107,-252.8161 173.5695,-233.7954 252.5696,-230.0866 309.3963,-230.5236"/>
<polygon fill="#191970" stroke="#191970" points="309.6988,-234.0274 319.741,-230.6506 309.7848,-227.028 309.6988,-234.0274"/>
</g>
<!-- Node330 -->
<g id="node8" class="node">
<title>Node330</title>
<g id="a_node8"><a xlink:href="classSpikeMonitorCore.html#a005a2f884f6260054483d4fa6ed6ddbb" target="_top" xlink:title="returns the number of recorded spikes of a specific neuron ">
<polygon fill="#ffffff" stroke="#000000" points="1149,-300.3161 1149,-319.3161 1262,-319.3161 1262,-300.3161 1149,-300.3161"/>
<text text-anchor="middle" x="1205.5" y="-307.3161" font-family="Helvetica,sans-Serif" font-size="10.00" fill="#000000">getNeuronNumSpikes</text>
</a>
</g>
</g>
<!-- Node323&#45;&gt;Node330 -->
<g id="edge28" class="edge">
<title>Node323&#45;&gt;Node330</title>
<path fill="none" stroke="#191970" d="M40.9193,-281.0057C69.3986,-230.8913 207.2288,-5.8161 385.5,-5.8161 385.5,-5.8161 385.5,-5.8161 901,-5.8161 996.5711,-5.8161 1040.1085,19.9954 1113,-41.8161 1152.4234,-75.2469 1189.4208,-234.215 1201.4368,-290.2285"/>
<polygon fill="#191970" stroke="#191970" points="1198.0656,-291.2043 1203.5572,-300.2648 1204.9144,-289.7572 1198.0656,-291.2043"/>
</g>
<!-- Node337 -->
<g id="node15" class="node">
<title>Node337</title>
<g id="a_node15"><a xlink:href="classSpikeMonitorCore.html#a81857cacf011acddd1791775c34ae4fb" target="_top" xlink:title="returns number of neurons whose firing rate was in [min,max] during recording ">
<polygon fill="#ffffff" stroke="#000000" points="309,-338.3161 309,-357.3161 462,-357.3161 462,-338.3161 309,-338.3161"/>
<text text-anchor="middle" x="385.5" y="-345.3161" font-family="Helvetica,sans-Serif" font-size="10.00" fill="#000000">getNumNeuronsWithFiringRate</text>
</a>
</g>
</g>
<!-- Node323&#45;&gt;Node337 -->
<g id="edge29" class="edge">
<title>Node323&#45;&gt;Node337</title>
<path fill="none" stroke="#191970" d="M49.2601,-300.4039C63.132,-309.5039 85.5088,-322.6755 107,-328.8161 169.5118,-346.6773 242.9848,-351.0366 298.7652,-351.1398"/>
<polygon fill="#191970" stroke="#191970" points="298.9778,-354.6393 308.9682,-351.1118 298.9586,-347.6394 298.9778,-354.6393"/>
</g>
<!-- Node338 -->
<g id="node16" class="node">
<title>Node338</title>
<g id="a_node16"><a xlink:href="classSpikeMonitorCore.html#a576be2fdd29d7b433d7c3645cb9f3b1f" target="_top" xlink:title="returns number of neurons that didn&#39;t spike while recording ">
<polygon fill="#ffffff" stroke="#000000" points="133.5,-376.3161 133.5,-395.3161 246.5,-395.3161 246.5,-376.3161 133.5,-376.3161"/>
<text text-anchor="middle" x="190" y="-383.3161" font-family="Helvetica,sans-Serif" font-size="10.00" fill="#000000">getNumSilentNeurons</text>
</a>
</g>
</g>
<!-- Node323&#45;&gt;Node338 -->
<g id="edge31" class="edge">
<title>Node323&#45;&gt;Node338</title>
<path fill="none" stroke="#191970" d="M42.7019,-300.633C54.4565,-315.9579 79.2552,-345.4971 107,-361.8161 114.7031,-366.3469 123.3161,-370.0687 131.9985,-373.1127"/>
<polygon fill="#191970" stroke="#191970" points="131.1941,-376.5307 141.7857,-376.2684 133.3422,-369.8684 131.1941,-376.5307"/>
</g>
<!-- Node339 -->
<g id="node17" class="node">
<title>Node339</title>
<g id="a_node17"><a xlink:href="classSpikeMonitorCore.html#ad8dc4f8eb304b0bcbeaf80076f892b72" target="_top" xlink:title="returns percentage of neurons whose firing rate was in [min,max] during recording ...">
<polygon fill="#ffffff" stroke="#000000" points="107,-300.3161 107,-319.3161 273,-319.3161 273,-300.3161 107,-300.3161"/>
<text text-anchor="middle" x="190" y="-307.3161" font-family="Helvetica,sans-Serif" font-size="10.00" fill="#000000">getPercentNeuronsWithFiringRate</text>
</a>
</g>
</g>
<!-- Node323&#45;&gt;Node339 -->
<g id="edge34" class="edge">
<title>Node323&#45;&gt;Node339</title>
<path fill="none" stroke="#191970" d="M71.3337,-295.2228C80.8204,-296.3895 91.4902,-297.7016 102.4415,-299.0484"/>
<polygon fill="#191970" stroke="#191970" points="102.1995,-302.5449 112.552,-300.2917 103.054,-295.5972 102.1995,-302.5449"/>
</g>
<!-- Node340 -->
<g id="node18" class="node">
<title>Node340</title>
<g id="a_node18"><a xlink:href="classSpikeMonitorCore.html#abcba6b94670385ff0bb843586d87ecb3" target="_top" xlink:title="returns percentage of neurons that didn&#39;t spike during recording ">
<polygon fill="#ffffff" stroke="#000000" points="127.5,-262.3161 127.5,-281.3161 252.5,-281.3161 252.5,-262.3161 127.5,-262.3161"/>
<text text-anchor="middle" x="190" y="-269.3161" font-family="Helvetica,sans-Serif" font-size="10.00" fill="#000000">getPercentSilentNeurons</text>
</a>
</g>
</g>
<!-- Node323&#45;&gt;Node340 -->
<g id="edge37" class="edge">
<title>Node323&#45;&gt;Node340</title>
<path fill="none" stroke="#191970" d="M71.3337,-286.4094C85.008,-284.7277 101.1405,-282.7438 117.0306,-280.7897"/>
<polygon fill="#191970" stroke="#191970" points="117.9115,-284.2078 127.4095,-279.5133 117.057,-277.2601 117.9115,-284.2078"/>
</g>
<!-- Node325 -->
<g id="node3" class="node">
<title>Node325</title>
<g id="a_node3"><a xlink:href="classSpikeMonitorCore.html#a3a3ffdb35b09328d22e5d72503ed1f55" target="_top" xlink:title="returns recording status ">
<polygon fill="#ffffff" stroke="#000000" points="498,-338.3161 498,-357.3161 566,-357.3161 566,-338.3161 498,-338.3161"/>
<text text-anchor="middle" x="532" y="-345.3161" font-family="Helvetica,sans-Serif" font-size="10.00" fill="#000000">isRecording</text>
</a>
</g>
</g>
<!-- Node324&#45;&gt;Node325 -->
<g id="edge2" class="edge">
<title>Node324&#45;&gt;Node325</title>
<path fill="none" stroke="#191970" d="M431.6868,-243.3763C442.2242,-246.8585 452.9672,-251.5448 462,-257.8161 488.9688,-276.54 510.3752,-308.7802 522.1064,-329.1631"/>
<polygon fill="#191970" stroke="#191970" points="519.1567,-331.0609 527.0702,-338.1056 525.2771,-327.6636 519.1567,-331.0609"/>
</g>
<!-- Node324&#45;&gt;Node330 -->
<g id="edge26" class="edge">
<title>Node324&#45;&gt;Node330</title>
<path fill="none" stroke="#191970" d="M390.6764,-224.0076C404.5992,-198.5309 445.3802,-129.6189 498,-91.8161 549.2074,-55.028 568.448,-43.8161 631.5,-43.8161 631.5,-43.8161 631.5,-43.8161 901,-43.8161 998.5685,-43.8161 1038.9056,-37.3368 1113,-100.8161 1172.6211,-151.8957 1195.3368,-248.8651 1202.5795,-290.2762"/>
<polygon fill="#191970" stroke="#191970" points="1199.132,-290.882 1204.198,-300.1872 1206.0405,-289.7538 1199.132,-290.882"/>
</g>
<!-- Node332 -->
<g id="node10" class="node">
<title>Node332</title>
<g id="a_node10"><a xlink:href="classSpikeMonitorCore.html#a9cf20c30ff0efdbc5e3c5194648a7fb3" target="_top" xlink:title="returns the total recorded time in ms ">
<polygon fill="#ffffff" stroke="#000000" points="995,-110.3161 995,-129.3161 1113,-129.3161 1113,-110.3161 995,-110.3161"/>
<text text-anchor="middle" x="1054" y="-117.3161" font-family="Helvetica,sans-Serif" font-size="10.00" fill="#000000">getRecordingTotalTime</text>
</a>
</g>
</g>
<!-- Node324&#45;&gt;Node332 -->
<g id="edge27" class="edge">
<title>Node324&#45;&gt;Node332</title>
<path fill="none" stroke="#191970" d="M393.3033,-224.3078C421.5508,-191.0313 522.5588,-81.8161 631.5,-81.8161 631.5,-81.8161 631.5,-81.8161 752,-81.8161 838.0459,-81.8161 936.8109,-97.1896 997.3036,-108.3798"/>
<polygon fill="#191970" stroke="#191970" points="996.9342,-111.8715 1007.4082,-110.2761 998.2254,-104.9916 996.9342,-111.8715"/>
</g>
<!-- Node326 -->
<g id="node4" class="node">
<title>Node326</title>
<g id="a_node4"><a xlink:href="classSpikeMonitorCore.html#af0ba89c38f6852cdf9d914687ad6a445" target="_top" xlink:title="prints the AER vector in human&#45;readable format ">
<polygon fill="#ffffff" stroke="#000000" points="614,-224.3161 614,-243.3161 649,-243.3161 649,-224.3161 614,-224.3161"/>
<text text-anchor="middle" x="631.5" y="-231.3161" font-family="Helvetica,sans-Serif" font-size="10.00" fill="#000000">print</text>
</a>
</g>
</g>
<!-- Node325&#45;&gt;Node326 -->
<g id="edge3" class="edge">
<title>Node325&#45;&gt;Node326</title>
<path fill="none" stroke="#191970" d="M537.6346,-338.022C551.67,-318.2913 588.7233,-275.117 611.8568,-250.8195"/>
<polygon fill="#191970" stroke="#191970" points="614.6471,-252.9709 619.1151,-243.3643 609.6315,-248.0879 614.6471,-252.9709"/>
</g>
<!-- Node336 -->
<g id="node14" class="node">
<title>Node336</title>
<g id="a_node14"><a xlink:href="classSpikeMonitorCore.html#a6e116c2994e0449c41e56d03370fa54c" target="_top" xlink:title="inserts a (time,neurId) tupel into the 2D spike vector ">
<polygon fill="#ffffff" stroke="#000000" points="602,-490.3161 602,-509.3161 661,-509.3161 661,-490.3161 602,-490.3161"/>
<text text-anchor="middle" x="631.5" y="-497.3161" font-family="Helvetica,sans-Serif" font-size="10.00" fill="#000000">pushAER</text>
</a>
</g>
</g>
<!-- Node325&#45;&gt;Node336 -->
<g id="edge23" class="edge">
<title>Node325&#45;&gt;Node336</title>
<path fill="none" stroke="#191970" d="M538.0791,-357.6233C548.5659,-379.4439 571.8622,-430.6069 602,-466.8161 606.881,-472.6804 613.3667,-478.1409 619.0137,-483.195"/>
<polygon fill="#191970" stroke="#191970" points="616.771,-485.8943 626.4024,-490.3088 621.6261,-480.8516 616.771,-485.8943"/>
</g>
<!-- Node326&#45;&gt;Node324 -->
<g id="edge22" class="edge">
<title>Node326&#45;&gt;Node324</title>
<path fill="none" stroke="#191970" d="M613.8226,-233.8161C582.3195,-233.8161 514.7566,-233.8161 461.2559,-233.8161"/>
<polygon fill="#191970" stroke="#191970" points="461.1004,-230.3162 451.1003,-233.8161 461.1003,-237.3162 461.1004,-230.3162"/>
</g>
<!-- Node326&#45;&gt;Node325 -->
<g id="edge4" class="edge">
<title>Node326&#45;&gt;Node325</title>
<path fill="none" stroke="#191970" d="M625.9987,-243.4225C612.0562,-263.0796 574.7979,-306.4989 551.5942,-330.8641"/>
<polygon fill="#191970" stroke="#191970" points="549.0666,-328.443 544.6017,-338.0511 554.0838,-333.3244 549.0666,-328.443"/>
</g>
<!-- Node327 -->
<g id="node5" class="node">
<title>Node327</title>
<g id="a_node5"><a xlink:href="classSNN.html#a5fd2b156623d78138bcb44167eabab78" target="_top" xlink:title="SNN::getSimTime">
<polygon fill="#ffffff" stroke="#000000" points="703.5,-224.3161 703.5,-243.3161 800.5,-243.3161 800.5,-224.3161 703.5,-224.3161"/>
<text text-anchor="middle" x="752" y="-231.3161" font-family="Helvetica,sans-Serif" font-size="10.00" fill="#000000">SNN::getSimTime</text>
</a>
</g>
</g>
<!-- Node326&#45;&gt;Node327 -->
<g id="edge5" class="edge">
<title>Node326&#45;&gt;Node327</title>
<path fill="none" stroke="#191970" d="M649.0217,-233.8161C660.8598,-233.8161 677.2321,-233.8161 693.441,-233.8161"/>
<polygon fill="#191970" stroke="#191970" points="693.4703,-237.3162 703.4703,-233.8161 693.4702,-230.3162 693.4703,-237.3162"/>
</g>
<!-- Node328 -->
<g id="node6" class="node">
<title>Node328</title>
<g id="a_node6"><a xlink:href="classSNN.html#ab0367f8ebd4019bf7d34ebddb1563fe7" target="_top" xlink:title="SNN::getGroupName">
<polygon fill="#ffffff" stroke="#000000" points="697,-186.3161 697,-205.3161 807,-205.3161 807,-186.3161 697,-186.3161"/>
<text text-anchor="middle" x="752" y="-193.3161" font-family="Helvetica,sans-Serif" font-size="10.00" fill="#000000">SNN::getGroupName</text>
</a>
</g>
</g>
<!-- Node326&#45;&gt;Node328 -->
<g id="edge6" class="edge">
<title>Node326&#45;&gt;Node328</title>
<path fill="none" stroke="#191970" d="M649.0217,-228.2906C665.4759,-223.1017 690.6898,-215.1504 712.0494,-208.4146"/>
<polygon fill="#191970" stroke="#191970" points="713.3732,-211.6672 721.8575,-205.3216 711.2678,-204.9912 713.3732,-211.6672"/>
</g>
<!-- Node329 -->
<g id="node7" class="node">
<title>Node329</title>
<g id="a_node7"><a xlink:href="classSpikeMonitorCore.html#af6c333e6cefff92d0e354eca70625cdc" target="_top" xlink:title="returns the total number of recorded spikes in the group ">
<polygon fill="#ffffff" stroke="#000000" points="1005,-300.3161 1005,-319.3161 1103,-319.3161 1103,-300.3161 1005,-300.3161"/>
<text text-anchor="middle" x="1054" y="-307.3161" font-family="Helvetica,sans-Serif" font-size="10.00" fill="#000000">getPopNumSpikes</text>
</a>
</g>
</g>
<!-- Node326&#45;&gt;Node329 -->
<g id="edge7" class="edge">
<title>Node326&#45;&gt;Node329</title>
<path fill="none" stroke="#191970" d="M649.1225,-239.6475C662.2118,-243.8021 680.5674,-249.2589 697,-252.8161 811.9993,-277.71 843.0476,-270.8267 959,-290.8161 971.8173,-293.0257 985.5593,-295.634 998.4979,-298.1986"/>
<polygon fill="#191970" stroke="#191970" points="998.1763,-301.7037 1008.6692,-300.2375 999.5522,-294.8402 998.1763,-301.7037"/>
</g>
<!-- Node326&#45;&gt;Node332 -->
<g id="edge12" class="edge">
<title>Node326&#45;&gt;Node332</title>
<path fill="none" stroke="#191970" d="M636.6586,-224.1989C646.1357,-207.6061 668.0321,-173.9288 697,-158.8161 787.9381,-111.3731 909.4274,-108.8005 984.6474,-113.021"/>
<polygon fill="#191970" stroke="#191970" points="984.7493,-116.5339 994.9462,-113.6577 985.1813,-109.5473 984.7493,-116.5339"/>
</g>
<!-- Node333 -->
<g id="node11" class="node">
<title>Node333</title>
<g id="a_node11"><a xlink:href="classSpikeMonitorCore.html#ae62d623e8edfc6b05309256c1d825bbd" target="_top" xlink:title="returns the recorded mean firing rate of the group ">
<polygon fill="#ffffff" stroke="#000000" points="843,-300.3161 843,-319.3161 959,-319.3161 959,-300.3161 843,-300.3161"/>
<text text-anchor="middle" x="901" y="-307.3161" font-family="Helvetica,sans-Serif" font-size="10.00" fill="#000000">getPopMeanFiringRate</text>
</a>
</g>
</g>
<!-- Node326&#45;&gt;Node333 -->
<g id="edge13" class="edge">
<title>Node326&#45;&gt;Node333</title>
<path fill="none" stroke="#191970" d="M638.6715,-224.2422C649.5288,-210.6422 671.5869,-186.3254 697,-176.8161 742.7883,-159.6826 763.5856,-154.3369 807,-176.8161 853.4938,-200.8897 881.9075,-259.7209 894.0716,-290.4336"/>
<polygon fill="#191970" stroke="#191970" points="890.8869,-291.9072 897.6995,-300.0214 897.4339,-289.4299 890.8869,-291.9072"/>
</g>
<!-- Node334 -->
<g id="node12" class="node">
<title>Node334</title>
<g id="a_node12"><a xlink:href="classSpikeMonitorCore.html#ad0c4b32bb5cc0c7a8d95ed6023a2695f" target="_top" xlink:title="computes the standard deviation of firing rates in the group ">
<polygon fill="#ffffff" stroke="#000000" points="698.5,-338.3161 698.5,-357.3161 805.5,-357.3161 805.5,-338.3161 698.5,-338.3161"/>
<text text-anchor="middle" x="752" y="-345.3161" font-family="Helvetica,sans-Serif" font-size="10.00" fill="#000000">getPopStdFiringRate</text>
</a>
</g>
</g>
<!-- Node326&#45;&gt;Node334 -->
<g id="edge17" class="edge">
<title>Node326&#45;&gt;Node334</title>
<path fill="none" stroke="#191970" d="M641.7738,-243.5357C662.3164,-262.9702 708.6741,-306.8272 734.2409,-331.015"/>
<polygon fill="#191970" stroke="#191970" points="732.0826,-333.7912 741.7522,-338.1211 736.8933,-328.7062 732.0826,-333.7912"/>
</g>
<!-- Node329&#45;&gt;Node325 -->
<g id="edge8" class="edge">
<title>Node329&#45;&gt;Node325</title>
<path fill="none" stroke="#191970" d="M1046.0991,-319.4442C1031.2136,-336.7292 997.0678,-372.4626 959,-385.8161 809.2401,-438.349 756.3819,-414.6128 602,-377.8161 587.1389,-374.274 571.4326,-367.8177 558.6715,-361.7996"/>
<polygon fill="#191970" stroke="#191970" points="560.0709,-358.5878 549.55,-357.3383 556.9954,-364.876 560.0709,-358.5878"/>
</g>
<!-- Node329&#45;&gt;Node330 -->
<g id="edge9" class="edge">
<title>Node329&#45;&gt;Node330</title>
<path fill="none" stroke="#191970" d="M1103.1877,-309.8161C1114.4812,-309.8161 1126.6766,-309.8161 1138.5773,-309.8161"/>
<polygon fill="#191970" stroke="#191970" points="1138.9297,-313.3162 1148.9296,-309.8161 1138.9296,-306.3162 1138.9297,-313.3162"/>
</g>
<!-- Node330&#45;&gt;Node325 -->
<g id="edge10" class="edge">
<title>Node330&#45;&gt;Node325</title>
<path fill="none" stroke="#191970" d="M1195.3792,-319.3244C1158.855,-352.6009 1029.2145,-461.8161 901,-461.8161 752,-461.8161 752,-461.8161 752,-461.8161 668.3675,-461.8161 584.8796,-396.0684 549.5504,-364.4346"/>
<polygon fill="#191970" stroke="#191970" points="551.7482,-361.7016 542.0068,-357.5357 547.0241,-366.8672 551.7482,-361.7016"/>
</g>
<!-- Node331 -->
<g id="node9" class="node">
<title>Node331</title>
<g id="a_node9"><a xlink:href="classSpikeMonitorCore.html#abe76071e1ac3632d55f2455b239b3d12" target="_top" xlink:title="returns recording mode ">
<polygon fill="#ffffff" stroke="#000000" points="1298,-395.3161 1298,-414.3161 1352,-414.3161 1352,-395.3161 1298,-395.3161"/>
<text text-anchor="middle" x="1325" y="-402.3161" font-family="Helvetica,sans-Serif" font-size="10.00" fill="#000000">getMode</text>
</a>
</g>
</g>
<!-- Node330&#45;&gt;Node331 -->
<g id="edge11" class="edge">
<title>Node330&#45;&gt;Node331</title>
<path fill="none" stroke="#191970" d="M1217.8385,-319.6249C1238.4291,-335.994 1279.985,-369.0301 1304.8639,-388.8083"/>
<polygon fill="#191970" stroke="#191970" points="1302.9007,-391.7188 1312.9066,-395.2021 1307.2568,-386.2393 1302.9007,-391.7188"/>
</g>
<!-- Node333&#45;&gt;Node325 -->
<g id="edge14" class="edge">
<title>Node333&#45;&gt;Node325</title>
<path fill="none" stroke="#191970" d="M842.9316,-314.8856C802.0925,-318.5339 746.1763,-323.6953 697,-328.8161 656.1108,-333.074 609.5897,-338.4822 576.3917,-342.4389"/>
<polygon fill="#191970" stroke="#191970" points="575.6188,-339.0063 566.1053,-343.6693 576.4502,-345.9568 575.6188,-339.0063"/>
</g>
<!-- Node333&#45;&gt;Node329 -->
<g id="edge15" class="edge">
<title>Node333&#45;&gt;Node329</title>
<path fill="none" stroke="#191970" d="M959.2792,-309.8161C970.9054,-309.8161 983.1278,-309.8161 994.7851,-309.8161"/>
<polygon fill="#191970" stroke="#191970" points="994.8548,-313.3162 1004.8548,-309.8161 994.8547,-306.3162 994.8548,-313.3162"/>
</g>
<!-- Node333&#45;&gt;Node332 -->
<g id="edge16" class="edge">
<title>Node333&#45;&gt;Node332</title>
<path fill="none" stroke="#191970" d="M908.7976,-300.1328C933.1415,-269.9018 1007.991,-176.9514 1039.6365,-137.6532"/>
<polygon fill="#191970" stroke="#191970" points="1042.4887,-139.6916 1046.0346,-129.7078 1037.0366,-135.3013 1042.4887,-139.6916"/>
</g>
<!-- Node334&#45;&gt;Node325 -->
<g id="edge18" class="edge">
<title>Node334&#45;&gt;Node325</title>
<path fill="none" stroke="#191970" d="M698.1819,-347.8161C660.9301,-347.8161 611.9273,-347.8161 576.802,-347.8161"/>
<polygon fill="#191970" stroke="#191970" points="576.375,-344.3162 566.375,-347.8161 576.375,-351.3162 576.375,-344.3162"/>
</g>
<!-- Node334&#45;&gt;Node333 -->
<g id="edge19" class="edge">
<title>Node334&#45;&gt;Node333</title>
<path fill="none" stroke="#191970" d="M789.599,-338.2271C809.084,-333.2578 833.0745,-327.1394 853.7958,-321.8547"/>
<polygon fill="#191970" stroke="#191970" points="854.8465,-325.1989 863.6714,-319.3361 853.1166,-318.416 854.8465,-325.1989"/>
</g>
<!-- Node335 -->
<g id="node13" class="node">
<title>Node335</title>
<g id="a_node13"><a xlink:href="classSpikeMonitorCore.html#a0fc20fcc5876030d796debd148ae7cee" target="_top" xlink:title="returns a list of firing rates for all neurons in the group (sorted by neuron ID ascending) ...">
<polygon fill="#ffffff" stroke="#000000" points="855,-357.3161 855,-376.3161 947,-376.3161 947,-357.3161 855,-357.3161"/>
<text text-anchor="middle" x="901" y="-364.3161" font-family="Helvetica,sans-Serif" font-size="10.00" fill="#000000">getAllFiringRates</text>
</a>
</g>
</g>
<!-- Node334&#45;&gt;Node335 -->
<g id="edge20" class="edge">
<title>Node334&#45;&gt;Node335</title>
<path fill="none" stroke="#191970" d="M805.7924,-354.6755C818.4211,-356.2859 831.9122,-358.0062 844.6496,-359.6305"/>
<polygon fill="#191970" stroke="#191970" points="844.3098,-363.1154 854.6722,-360.9085 845.1953,-356.1716 844.3098,-363.1154"/>
</g>
<!-- Node335&#45;&gt;Node325 -->
<g id="edge21" class="edge">
<title>Node335&#45;&gt;Node325</title>
<path fill="none" stroke="#191970" d="M854.9374,-369.1209C796.0293,-371.3647 690.9869,-372.9968 602,-361.8161 593.5152,-360.75 584.519,-359.2416 575.9034,-357.6067"/>
<polygon fill="#191970" stroke="#191970" points="576.5072,-354.1584 566.0177,-355.6483 575.1469,-361.0249 576.5072,-354.1584"/>
</g>
<!-- Node336&#45;&gt;Node325 -->
<g id="edge24" class="edge">
<title>Node336&#45;&gt;Node325</title>
<path fill="none" stroke="#191970" d="M606.9549,-490.1289C605.1968,-488.4306 603.5205,-486.6429 602,-484.8161 571.2534,-447.8753 547.6274,-395.3704 537.4592,-367.0063"/>
<polygon fill="#191970" stroke="#191970" points="540.735,-365.7663 534.2343,-357.4002 534.0989,-367.9942 540.735,-365.7663"/>
</g>
<!-- Node336&#45;&gt;Node331 -->
<g id="edge25" class="edge">
<title>Node336&#45;&gt;Node331</title>
<path fill="none" stroke="#191970" d="M661.0102,-499.8161C710.5875,-499.8161 813.74,-499.8161 901,-499.8161 901,-499.8161 901,-499.8161 1054,-499.8161 1149.8501,-499.8161 1254.5767,-446.2366 1300.7884,-419.5536"/>
<polygon fill="#191970" stroke="#191970" points="1302.6328,-422.5294 1309.4843,-414.448 1299.0886,-416.4929 1302.6328,-422.5294"/>
</g>
<!-- Node337&#45;&gt;Node325 -->
<g id="edge30" class="edge">
<title>Node337&#45;&gt;Node325</title>
<path fill="none" stroke="#191970" d="M462.1825,-347.8161C470.8471,-347.8161 479.4475,-347.8161 487.4973,-347.8161"/>
<polygon fill="#191970" stroke="#191970" points="487.7217,-351.3162 497.7216,-347.8161 487.7216,-344.3162 487.7217,-351.3162"/>
</g>
<!-- Node338&#45;&gt;Node325 -->
<g id="edge32" class="edge">
<title>Node338&#45;&gt;Node325</title>
<path fill="none" stroke="#191970" d="M246.6409,-385.0732C301.9267,-383.5943 388.2525,-379.2774 462,-366.8161 471.8604,-365.15 482.3394,-362.6891 492.1043,-360.087"/>
<polygon fill="#191970" stroke="#191970" points="493.2653,-363.3972 501.9659,-357.3516 491.3942,-356.6519 493.2653,-363.3972"/>
</g>
<!-- Node338&#45;&gt;Node337 -->
<g id="edge33" class="edge">
<title>Node338&#45;&gt;Node337</title>
<path fill="none" stroke="#191970" d="M239.0806,-376.2761C265.5741,-371.1265 298.4717,-364.7321 326.3688,-359.3096"/>
<polygon fill="#191970" stroke="#191970" points="327.2508,-362.7038 336.3992,-357.36 325.9151,-355.8324 327.2508,-362.7038"/>
</g>
<!-- Node339&#45;&gt;Node325 -->
<g id="edge35" class="edge">
<title>Node339&#45;&gt;Node325</title>
<path fill="none" stroke="#191970" d="M273.226,-311.4247C327.3276,-313.5022 399.2213,-318.2082 462,-328.8161 471.8604,-330.4822 482.3394,-332.9431 492.1043,-335.5452"/>
<polygon fill="#191970" stroke="#191970" points="491.3942,-338.9803 501.9659,-338.2806 493.2653,-332.235 491.3942,-338.9803"/>
</g>
<!-- Node339&#45;&gt;Node337 -->
<g id="edge36" class="edge">
<title>Node339&#45;&gt;Node337</title>
<path fill="none" stroke="#191970" d="M239.0806,-319.356C265.5741,-324.5057 298.4717,-330.9001 326.3688,-336.3226"/>
<polygon fill="#191970" stroke="#191970" points="325.9151,-339.7998 336.3992,-338.2722 327.2508,-332.9284 325.9151,-339.7998"/>
</g>
<!-- Node340&#45;&gt;Node325 -->
<g id="edge38" class="edge">
<title>Node340&#45;&gt;Node325</title>
<path fill="none" stroke="#191970" d="M252.5201,-273.7351C308.6336,-276.9885 392.6004,-285.6826 462,-308.8161 479.0498,-314.4995 496.7179,-324.3785 510.0383,-332.7712"/>
<polygon fill="#191970" stroke="#191970" points="508.2125,-335.7589 518.5044,-338.2743 512.0275,-329.8898 508.2125,-335.7589"/>
</g>
<!-- Node340&#45;&gt;Node337 -->
<g id="edge39" class="edge">
<title>Node340&#45;&gt;Node337</title>
<path fill="none" stroke="#191970" d="M240.6056,-281.3303C251.4379,-283.9389 262.713,-287.0959 273,-290.8161 304.5286,-302.218 338.5898,-320.3732 360.8736,-333.1235"/>
<polygon fill="#191970" stroke="#191970" points="359.255,-336.2307 369.6611,-338.2215 362.7677,-330.1759 359.255,-336.2307"/>
</g>
</g>
</svg>
        <g id="navigator" transform="translate(0 0)" fill="#404254">
                <rect fill="#f2f5e9" fill-opacity="0.5" stroke="#606060" stroke-width=".5" x="0" y="0" width="60" height="60"/>
                <use id="zoomplus" xlink:href="#zoomPlus" x="17" y="9" onmousedown="handleZoom(evt,'in')"/>
                <use id="zoomminus" xlink:href="#zoomMin" x="42" y="9" onmousedown="handleZoom(evt,'out')"/>
                <use id="reset" xlink:href="#resetDef" x="30" y="36" onmousedown="handleReset()"/>
                <g id="arrowUp" xlink:href="#dirArrow" transform="translate(30 24)" onmousedown="handlePan(0,-1)">
                  <use xlink:href="#rim" fill="#404040">
                        <set attributeName="fill" to="#808080" begin="arrowUp.mouseover" end="arrowUp.mouseout"/>
                  </use>
                  <path fill="none" stroke="white" stroke-width="1.5" d="M0,-3.0v7 M-2.5,-0.5L0,-3.0L2.5,-0.5"/>
                </g>
                <g id="arrowRight" xlink:href="#dirArrow" transform="rotate(90) translate(36 -43)" onmousedown="handlePan(1,0)">
                  <use xlink:href="#rim" fill="#404040">
                        <set attributeName="fill" to="#808080" begin="arrowRight.mouseover" end="arrowRight.mouseout"/>
                  </use>
                  <path fill="none" stroke="white" stroke-width="1.5" d="M0,-3.0v7 M-2.5,-0.5L0,-3.0L2.5,-0.5"/>
                </g>
                <g id="arrowDown" xlink:href="#dirArrow" transform="rotate(180) translate(-30 -48)" onmousedown="handlePan(0,1)">
                  <use xlink:href="#rim" fill="#404040">
                        <set attributeName="fill" to="#808080" begin="arrowDown.mouseover" end="arrowDown.mouseout"/>
                  </use>
                  <path fill="none" stroke="white" stroke-width="1.5" d="M0,-3.0v7 M-2.5,-0.5L0,-3.0L2.5,-0.5"/>
                </g>
                <g id="arrowLeft" xlink:href="#dirArrow" transform="rotate(270) translate(-36 17)" onmousedown="handlePan(-1,0)">
                  <use xlink:href="#rim" fill="#404040">
                        <set attributeName="fill" to="#808080" begin="arrowLeft.mouseover" end="arrowLeft.mouseout"/>
                  </use>
                  <path fill="none" stroke="white" stroke-width="1.5" d="M0,-3.0v7 M-2.5,-0.5L0,-3.0L2.5,-0.5"/>
                </g>
        </g>
        <svg viewBox="0 0 15 15" width="100%" height="30px" preserveAspectRatio="xMaxYMin meet">
         <g id="arrow_out" transform="scale(0.3 0.3)">
          <a xlink:href="classSpikeMonitorCore_a3e33677ab9388f1e907302d2a48fdc6b_cgraph_org.svg" target="_base">
           <rect id="button" ry="5" rx="5" y="6" x="6" height="38" width="38"
                fill="#f2f5e9" fill-opacity="0.5" stroke="#606060" stroke-width="1.0"/>
           <path id="arrow"
             d="M 11.500037,31.436501 C 11.940474,20.09759 22.043105,11.32322 32.158766,21.979434 L 37.068811,17.246167 C 37.068811,17.246167 37.088388,32 37.088388,32 L 22.160133,31.978069 C 22.160133,31.978069 26.997745,27.140456 26.997745,27.140456 C 18.528582,18.264221 13.291696,25.230495 11.500037,31.436501 z"
             style="fill:#404040;"/>
          </a>
         </g>
        </svg>
</svg>
