<?xml version="1.0" encoding="UTF-8" standalone="no"?>
<!DOCTYPE svg PUBLIC "-//W3C//DTD SVG 1.1//EN"
 "http://www.w3.org/Graphics/SVG/1.1/DTD/svg11.dtd">
<!-- Generated by graphviz version 2.40.1 (20161225.0304)
 -->
<!-- Title: getCARLsimState Pages: 1 -->
<svg width="573pt" height="88pt"
 viewBox="0.00 0.00 573.00 88.00" xmlns="http://www.w3.org/2000/svg" xmlns:xlink="http://www.w3.org/1999/xlink">
<g id="graph0" class="graph" transform="scale(1 1) rotate(0) translate(4 84)">
<title>getCARLsimState</title>
<polygon fill="#ffffff" stroke="transparent" points="-4,4 -4,-84 569,-84 569,4 -4,4"/>
<!-- Node93 -->
<g id="node1" class="node">
<title>Node93</title>
<polygon fill="#bfbfbf" stroke="#000000" points="0,-30 0,-49 96,-49 96,-30 0,-30"/>
<text text-anchor="middle" x="48" y="-37" font-family="Helvetica,sans-Serif" font-size="10.00" fill="#000000">getCARLsimState</text>
</g>
<!-- Node94 -->
<g id="node2" class="node">
<title>Node94</title>
<g id="a_node2"><a xlink:href="classCARLsim.html#adca40e384322cbaa6bfda0fe6a6f3159" target="_top" xlink:title="Writes population weights from gIDpre to gIDpost to file fname in binary. ">
<polygon fill="#ffffff" stroke="#000000" points="132,-30 132,-49 277,-49 277,-30 132,-30"/>
<text text-anchor="middle" x="204.5" y="-37" font-family="Helvetica,sans-Serif" font-size="10.00" fill="#000000">CARLsim::getCARLsimState</text>
</a>
</g>
</g>
<!-- Node93&#45;&gt;Node94 -->
<g id="edge1" class="edge">
<title>Node93&#45;&gt;Node94</title>
<path fill="none" stroke="#191970" d="M106.2646,-39.5C114.6459,-39.5 123.3551,-39.5 131.9713,-39.5"/>
<polygon fill="#191970" stroke="#191970" points="106.2322,-36.0001 96.2322,-39.5 106.2321,-43.0001 106.2322,-36.0001"/>
</g>
<!-- Node95 -->
<g id="node3" class="node">
<title>Node95</title>
<g id="a_node3"><a xlink:href="classSimpleWeightTuner_1_1Impl.html#aa9401ee576fb4970074c045275b152e6" target="_top" xlink:title="SimpleWeightTuner::\lImpl::Impl">
<polygon fill="#ffffff" stroke="#000000" points="313,-49.5 313,-79.5 421,-79.5 421,-49.5 313,-49.5"/>
<text text-anchor="start" x="321" y="-67.5" font-family="Helvetica,sans-Serif" font-size="10.00" fill="#000000">SimpleWeightTuner::</text>
<text text-anchor="middle" x="367" y="-56.5" font-family="Helvetica,sans-Serif" font-size="10.00" fill="#000000">Impl::Impl</text>
</a>
</g>
</g>
<!-- Node94&#45;&gt;Node95 -->
<g id="edge2" class="edge">
<title>Node94&#45;&gt;Node95</title>
<path fill="none" stroke="#191970" d="M276.5785,-50.589C288.8063,-52.4702 301.3149,-54.3946 312.9772,-56.1888"/>
<polygon fill="#191970" stroke="#191970" points="276.8138,-47.0841 266.3978,-49.0227 275.7493,-54.0027 276.8138,-47.0841"/>
</g>
<!-- Node96 -->
<g id="node4" class="node">
<title>Node96</title>
<g id="a_node4"><a xlink:href="classSimpleWeightTuner_1_1Impl.html#a312d84bfa66a5036bb52a4c39db6fa6c" target="_top" xlink:title="SimpleWeightTuner::\lImpl::iterate">
<polygon fill="#ffffff" stroke="#000000" points="313,-.5 313,-30.5 421,-30.5 421,-.5 313,-.5"/>
<text text-anchor="start" x="321" y="-18.5" font-family="Helvetica,sans-Serif" font-size="10.00" fill="#000000">SimpleWeightTuner::</text>
<text text-anchor="middle" x="367" y="-7.5" font-family="Helvetica,sans-Serif" font-size="10.00" fill="#000000">Impl::iterate</text>
</a>
</g>
</g>
<!-- Node94&#45;&gt;Node96 -->
<g id="edge3" class="edge">
<title>Node94&#45;&gt;Node96</title>
<path fill="none" stroke="#191970" d="M279.1477,-28.4751C290.5545,-26.7904 302.1361,-25.0799 312.9851,-23.4776"/>
<polygon fill="#191970" stroke="#191970" points="278.5725,-25.022 269.1912,-29.9456 279.5953,-31.9469 278.5725,-25.022"/>
</g>
<!-- Node97 -->
<g id="node5" class="node">
<title>Node97</title>
<g id="a_node5"><a xlink:href="classSimpleWeightTuner.html#a0df985e3ff7a27edc1e2e3fcc8261843" target="_top" xlink:title="Performs an iteration step of the tuning algorithm. ">
<polygon fill="#ffffff" stroke="#000000" points="457,-.5 457,-30.5 565,-30.5 565,-.5 457,-.5"/>
<text text-anchor="start" x="465" y="-18.5" font-family="Helvetica,sans-Serif" font-size="10.00" fill="#000000">SimpleWeightTuner::</text>
<text text-anchor="middle" x="511" y="-7.5" font-family="Helvetica,sans-Serif" font-size="10.00" fill="#000000">iterate</text>
</a>
</g>
</g>
<!-- Node96&#45;&gt;Node97 -->
<g id="edge4" class="edge">
<title>Node96&#45;&gt;Node97</title>
<path fill="none" stroke="#191970" d="M431.2702,-15.5C439.7504,-15.5 448.3754,-15.5 456.6672,-15.5"/>
<polygon fill="#191970" stroke="#191970" points="431.03,-12.0001 421.03,-15.5 431.0299,-19.0001 431.03,-12.0001"/>
</g>
</g>
</svg>
