<?xml version="1.0" encoding="UTF-8" standalone="no"?>
<!DOCTYPE svg PUBLIC "-//W3C//DTD SVG 1.1//EN"
 "http://www.w3.org/Graphics/SVG/1.1/DTD/svg11.dtd">
<!-- Generated by graphviz version 2.40.1 (20161225.0304)
 -->
<!-- Title: getRecordingStopTime Pages: 1 -->
<!--zoomable 474 -->
<svg id="main" version="1.1" xmlns="http://www.w3.org/2000/svg" xmlns:xlink="http://www.w3.org/1999/xlink" xml:space="preserve" onload="init(evt)">
<style type="text/css"><![CDATA[
.edge:hover path { stroke: red; }
.edge:hover polygon { stroke: red; fill: red; }
]]></style>
<script type="text/javascript"><![CDATA[
var edges = document.getElementsByTagName('g');
if (edges && edges.length) {
  for (var i=0;i<edges.length;i++) {
    if (edges[i].id.substr(0,4)=='edge') {
      edges[i].setAttribute('class','edge');
    }
  }
}
]]></script>
        <defs>
                <circle id="rim" cx="0" cy="0" r="7"/>
                <circle id="rim2" cx="0" cy="0" r="3.5"/>
                <g id="zoomPlus">
                        <use xlink:href="#rim" fill="#404040">
                                <set attributeName="fill" to="#808080" begin="zoomplus.mouseover" end="zoomplus.mouseout"/>
                        </use>
                        <path d="M-4,0h8M0,-4v8" fill="none" stroke="white" stroke-width="1.5" pointer-events="none"/>
                </g>
                <g id="zoomMin">
                        <use xlink:href="#rim" fill="#404040">
                                <set attributeName="fill" to="#808080" begin="zoomminus.mouseover" end="zoomminus.mouseout"/>
                        </use>
                        <path d="M-4,0h8" fill="none" stroke="white" stroke-width="1.5" pointer-events="none"/>
                </g>
                <g id="dirArrow">
                        <path fill="none" stroke="white" stroke-width="1.5" d="M0,-3.0v7 M-2.5,-0.5L0,-3.0L2.5,-0.5"/>
                </g>
               <g id="resetDef">
                       <use xlink:href="#rim2" fill="#404040">
                               <set attributeName="fill" to="#808080" begin="reset.mouseover" end="reset.mouseout"/>
                       </use>
               </g>
        </defs>

<script type="text/javascript">
var viewWidth = 1161;
var viewHeight = 474;
var sectionId = 'dynsection-39';
</script>
<script xlink:href="svgpan.js"/>
<svg id="graph" class="graph">
<g id="viewport">
<title>getRecordingStopTime</title>
<polygon fill="#ffffff" stroke="transparent" points="-4,4 -4,-470 1157,-470 1157,4 -4,4"/>
<!-- Node831 -->
<g id="node1" class="node">
<title>Node831</title>
<polygon fill="#bfbfbf" stroke="#000000" points="0,-133.5 0,-152.5 116,-152.5 116,-133.5 0,-133.5"/>
<text text-anchor="middle" x="58" y="-140.5" font-family="Helvetica,sans-Serif" font-size="10.00" fill="#000000">getRecordingStopTime</text>
</g>
<!-- Node832 -->
<g id="node2" class="node">
<title>Node832</title>
<g id="a_node2"><a xlink:href="classSpikeMonitorCore.html#a64ccdac1d5dacee8b6e45e8a2a9fc40b" target="_top" xlink:title="returns the 2D AER vector ">
<polygon fill="#ffffff" stroke="#000000" points="152,-133.5 152,-152.5 248,-152.5 248,-133.5 152,-133.5"/>
<text text-anchor="middle" x="200" y="-140.5" font-family="Helvetica,sans-Serif" font-size="10.00" fill="#000000">getSpikeVector2D</text>
</a>
</g>
</g>
<!-- Node831&#45;&gt;Node832 -->
<g id="edge1" class="edge">
<title>Node831&#45;&gt;Node832</title>
<path fill="none" stroke="#191970" d="M116.1666,-143C124.5522,-143 133.1849,-143 141.5756,-143"/>
<polygon fill="#191970" stroke="#191970" points="141.6575,-146.5001 151.6574,-143 141.6574,-139.5001 141.6575,-146.5001"/>
</g>
<!-- Node833 -->
<g id="node3" class="node">
<title>Node833</title>
<g id="a_node3"><a xlink:href="classSpikeMonitorCore.html#a3a3ffdb35b09328d22e5d72503ed1f55" target="_top" xlink:title="returns recording status ">
<polygon fill="#ffffff" stroke="#000000" points="284,-133.5 284,-152.5 352,-152.5 352,-133.5 284,-133.5"/>
<text text-anchor="middle" x="318" y="-140.5" font-family="Helvetica,sans-Serif" font-size="10.00" fill="#000000">isRecording</text>
</a>
</g>
</g>
<!-- Node832&#45;&gt;Node833 -->
<g id="edge2" class="edge">
<title>Node832&#45;&gt;Node833</title>
<path fill="none" stroke="#191970" d="M248.3356,-143C256.7489,-143 265.4616,-143 273.7581,-143"/>
<polygon fill="#191970" stroke="#191970" points="273.9908,-146.5001 283.9907,-143 273.9907,-139.5001 273.9908,-146.5001"/>
</g>
<!-- Node834 -->
<g id="node4" class="node">
<title>Node834</title>
<g id="a_node4"><a xlink:href="classSpikeMonitorCore.html#af0ba89c38f6852cdf9d914687ad6a445" target="_top" xlink:title="prints the AER vector in human&#45;readable format ">
<polygon fill="#ffffff" stroke="#000000" points="400,-228.5 400,-247.5 435,-247.5 435,-228.5 400,-228.5"/>
<text text-anchor="middle" x="417.5" y="-235.5" font-family="Helvetica,sans-Serif" font-size="10.00" fill="#000000">print</text>
</a>
</g>
</g>
<!-- Node833&#45;&gt;Node834 -->
<g id="edge3" class="edge">
<title>Node833&#45;&gt;Node834</title>
<path fill="none" stroke="#191970" d="M333.5469,-152.7813C353.0505,-169.0506 386.1469,-200.7571 404.4158,-220.7655"/>
<polygon fill="#191970" stroke="#191970" points="401.8131,-223.1059 411.0482,-228.2986 407.0669,-218.4802 401.8131,-223.1059"/>
</g>
<!-- Node845 -->
<g id="node15" class="node">
<title>Node845</title>
<g id="a_node15"><a xlink:href="classSpikeMonitorCore.html#a6e116c2994e0449c41e56d03370fa54c" target="_top" xlink:title="inserts a (time,neurId) tupel into the 2D spike vector ">
<polygon fill="#ffffff" stroke="#000000" points="388,-.5 388,-19.5 447,-19.5 447,-.5 388,-.5"/>
<text text-anchor="middle" x="417.5" y="-7.5" font-family="Helvetica,sans-Serif" font-size="10.00" fill="#000000">pushAER</text>
</a>
</g>
</g>
<!-- Node833&#45;&gt;Node845 -->
<g id="edge26" class="edge">
<title>Node833&#45;&gt;Node845</title>
<path fill="none" stroke="#191970" d="M320.7971,-133.3991C328.7959,-112.856 353.0687,-66.6556 386.5725,-27.3006"/>
<polygon fill="#191970" stroke="#191970" points="389.4268,-29.3544 393.3942,-19.5305 384.1664,-24.7361 389.4268,-29.3544"/>
</g>
<!-- Node834&#45;&gt;Node833 -->
<g id="edge4" class="edge">
<title>Node834&#45;&gt;Node833</title>
<path fill="none" stroke="#191970" d="M402.2662,-228.4796C382.8499,-212.3273 349.6032,-180.496 331.2101,-160.3722"/>
<polygon fill="#191970" stroke="#191970" points="333.7668,-157.9797 324.5285,-152.7928 328.5158,-162.6087 333.7668,-157.9797"/>
</g>
<!-- Node835 -->
<g id="node5" class="node">
<title>Node835</title>
<g id="a_node5"><a xlink:href="classSNN.html#a5fd2b156623d78138bcb44167eabab78" target="_top" xlink:title="SNN::getSimTime">
<polygon fill="#ffffff" stroke="#000000" points="489.5,-304.5 489.5,-323.5 586.5,-323.5 586.5,-304.5 489.5,-304.5"/>
<text text-anchor="middle" x="538" y="-311.5" font-family="Helvetica,sans-Serif" font-size="10.00" fill="#000000">SNN::getSimTime</text>
</a>
</g>
</g>
<!-- Node834&#45;&gt;Node835 -->
<g id="edge5" class="edge">
<title>Node834&#45;&gt;Node835</title>
<path fill="none" stroke="#191970" d="M426.367,-247.756C438.195,-260.2545 460.2947,-281.8677 483,-295 486.4912,-297.0192 490.231,-298.8707 494.057,-300.5577"/>
<polygon fill="#191970" stroke="#191970" points="493.0688,-303.9326 503.6527,-304.4141 495.6791,-297.4374 493.0688,-303.9326"/>
</g>
<!-- Node836 -->
<g id="node6" class="node">
<title>Node836</title>
<g id="a_node6"><a xlink:href="classSNN.html#ab0367f8ebd4019bf7d34ebddb1563fe7" target="_top" xlink:title="SNN::getGroupName">
<polygon fill="#ffffff" stroke="#000000" points="483,-266.5 483,-285.5 593,-285.5 593,-266.5 483,-266.5"/>
<text text-anchor="middle" x="538" y="-273.5" font-family="Helvetica,sans-Serif" font-size="10.00" fill="#000000">SNN::getGroupName</text>
</a>
</g>
</g>
<!-- Node834&#45;&gt;Node836 -->
<g id="edge6" class="edge">
<title>Node834&#45;&gt;Node836</title>
<path fill="none" stroke="#191970" d="M435.0217,-243.5255C451.4759,-248.7144 476.6898,-256.6657 498.0494,-263.4015"/>
<polygon fill="#191970" stroke="#191970" points="497.2678,-266.8249 507.8575,-266.4945 499.3732,-260.1489 497.2678,-266.8249"/>
</g>
<!-- Node837 -->
<g id="node7" class="node">
<title>Node837</title>
<g id="a_node7"><a xlink:href="classSpikeMonitorCore.html#af6c333e6cefff92d0e354eca70625cdc" target="_top" xlink:title="returns the total number of recorded spikes in the group ">
<polygon fill="#ffffff" stroke="#000000" points="806,-209.5 806,-228.5 904,-228.5 904,-209.5 806,-209.5"/>
<text text-anchor="middle" x="855" y="-216.5" font-family="Helvetica,sans-Serif" font-size="10.00" fill="#000000">getPopNumSpikes</text>
</a>
</g>
</g>
<!-- Node834&#45;&gt;Node837 -->
<g id="edge7" class="edge">
<title>Node834&#45;&gt;Node837</title>
<path fill="none" stroke="#191970" d="M435.1924,-237.2316C495.5457,-234.6106 695.1498,-225.9421 795.8305,-221.5696"/>
<polygon fill="#191970" stroke="#191970" points="796.0052,-225.0655 805.8439,-221.1348 795.7015,-218.072 796.0052,-225.0655"/>
</g>
<!-- Node840 -->
<g id="node10" class="node">
<title>Node840</title>
<g id="a_node10"><a xlink:href="classSpikeMonitorCore.html#a9cf20c30ff0efdbc5e3c5194648a7fb3" target="_top" xlink:title="returns the total recorded time in ms ">
<polygon fill="#ffffff" stroke="#000000" points="796,-342.5 796,-361.5 914,-361.5 914,-342.5 796,-342.5"/>
<text text-anchor="middle" x="855" y="-349.5" font-family="Helvetica,sans-Serif" font-size="10.00" fill="#000000">getRecordingTotalTime</text>
</a>
</g>
</g>
<!-- Node834&#45;&gt;Node840 -->
<g id="edge12" class="edge">
<title>Node834&#45;&gt;Node840</title>
<path fill="none" stroke="#191970" d="M420.8424,-247.747C428.3281,-267.8768 448.5393,-313.7648 483,-333 533.1402,-360.9872 692.7383,-359.2875 785.7979,-355.621"/>
<polygon fill="#191970" stroke="#191970" points="786.1264,-359.1105 795.9738,-355.2018 785.8382,-352.1164 786.1264,-359.1105"/>
</g>
<!-- Node841 -->
<g id="node11" class="node">
<title>Node841</title>
<g id="a_node11"><a xlink:href="classSpikeMonitorCore.html#ae62d623e8edfc6b05309256c1d825bbd" target="_top" xlink:title="returns the recorded mean firing rate of the group ">
<polygon fill="#ffffff" stroke="#000000" points="636.5,-190.5 636.5,-209.5 752.5,-209.5 752.5,-190.5 636.5,-190.5"/>
<text text-anchor="middle" x="694.5" y="-197.5" font-family="Helvetica,sans-Serif" font-size="10.00" fill="#000000">getPopMeanFiringRate</text>
</a>
</g>
</g>
<!-- Node834&#45;&gt;Node841 -->
<g id="edge13" class="edge">
<title>Node834&#45;&gt;Node841</title>
<path fill="none" stroke="#191970" d="M435.2033,-233.7262C448.3328,-230.6763 466.7033,-226.6598 483,-224 530.6766,-216.2188 584.8103,-210.1264 626.3753,-206.0269"/>
<polygon fill="#191970" stroke="#191970" points="626.7752,-209.5047 636.3897,-205.0537 626.0981,-202.5375 626.7752,-209.5047"/>
</g>
<!-- Node842 -->
<g id="node12" class="node">
<title>Node842</title>
<g id="a_node12"><a xlink:href="classSpikeMonitorCore.html#ad0c4b32bb5cc0c7a8d95ed6023a2695f" target="_top" xlink:title="computes the standard deviation of firing rates in the group ">
<polygon fill="#ffffff" stroke="#000000" points="484.5,-114.5 484.5,-133.5 591.5,-133.5 591.5,-114.5 484.5,-114.5"/>
<text text-anchor="middle" x="538" y="-121.5" font-family="Helvetica,sans-Serif" font-size="10.00" fill="#000000">getPopStdFiringRate</text>
</a>
</g>
</g>
<!-- Node834&#45;&gt;Node842 -->
<g id="edge17" class="edge">
<title>Node834&#45;&gt;Node842</title>
<path fill="none" stroke="#191970" d="M427.7738,-228.2804C448.3164,-208.8459 494.6741,-164.9888 520.2409,-140.8011"/>
<polygon fill="#191970" stroke="#191970" points="522.8933,-143.1099 527.7522,-133.695 518.0826,-138.0249 522.8933,-143.1099"/>
</g>
<!-- Node844 -->
<g id="node14" class="node">
<title>Node844</title>
<g id="a_node14"><a xlink:href="classSpikeMonitorCore.html#aed09edf4583ac05d42fccc7e3556e3c5" target="_top" xlink:title="returns the recorded mean firing rate for a specific neuron ">
<polygon fill="#ffffff" stroke="#000000" points="629,-380.5 629,-399.5 760,-399.5 760,-380.5 629,-380.5"/>
<text text-anchor="middle" x="694.5" y="-387.5" font-family="Helvetica,sans-Serif" font-size="10.00" fill="#000000">getNeuronMeanFiringRate</text>
</a>
</g>
</g>
<!-- Node834&#45;&gt;Node844 -->
<g id="edge22" class="edge">
<title>Node834&#45;&gt;Node844</title>
<path fill="none" stroke="#191970" d="M419.2529,-247.7487C424.2324,-272.3164 440.9214,-336.8773 483,-366 522.1025,-393.0629 575.335,-398.9826 618.6116,-398.1771"/>
<polygon fill="#191970" stroke="#191970" points="618.9287,-401.669 628.8156,-397.8611 618.712,-394.6724 618.9287,-401.669"/>
</g>
<!-- Node837&#45;&gt;Node833 -->
<g id="edge8" class="edge">
<title>Node837&#45;&gt;Node833</title>
<path fill="none" stroke="#191970" d="M851.6313,-209.2015C842.1067,-183.2475 812.2277,-112.8773 760,-86 612.7786,-10.2373 546.3928,-57.7729 388,-106 371.3869,-111.0583 354.1229,-120.1351 340.8966,-128.0323"/>
<polygon fill="#191970" stroke="#191970" points="338.7143,-125.2664 332.0463,-133.4998 342.3933,-131.2216 338.7143,-125.2664"/>
</g>
<!-- Node838 -->
<g id="node8" class="node">
<title>Node838</title>
<g id="a_node8"><a xlink:href="classSpikeMonitorCore.html#a005a2f884f6260054483d4fa6ed6ddbb" target="_top" xlink:title="returns the number of recorded spikes of a specific neuron ">
<polygon fill="#ffffff" stroke="#000000" points="950,-285.5 950,-304.5 1063,-304.5 1063,-285.5 950,-285.5"/>
<text text-anchor="middle" x="1006.5" y="-292.5" font-family="Helvetica,sans-Serif" font-size="10.00" fill="#000000">getNeuronNumSpikes</text>
</a>
</g>
</g>
<!-- Node837&#45;&gt;Node838 -->
<g id="edge9" class="edge">
<title>Node837&#45;&gt;Node838</title>
<path fill="none" stroke="#191970" d="M874.1876,-228.6255C900.4834,-241.8168 947.907,-265.6068 978.2612,-280.834"/>
<polygon fill="#191970" stroke="#191970" points="976.9604,-284.0971 987.4682,-285.4527 980.0992,-277.8403 976.9604,-284.0971"/>
</g>
<!-- Node838&#45;&gt;Node833 -->
<g id="edge10" class="edge">
<title>Node838&#45;&gt;Node833</title>
<path fill="none" stroke="#191970" d="M1000.313,-304.5997C986.9655,-324.557 953.4608,-370.7623 914,-396 827.7375,-451.1704 796.8962,-466 694.5,-466 538,-466 538,-466 538,-466 390.4998,-466 334.8623,-233.0667 321.4369,-162.8182"/>
<polygon fill="#191970" stroke="#191970" points="324.8221,-161.873 319.5786,-152.6667 317.9365,-163.1336 324.8221,-161.873"/>
</g>
<!-- Node839 -->
<g id="node9" class="node">
<title>Node839</title>
<g id="a_node9"><a xlink:href="classSpikeMonitorCore.html#abe76071e1ac3632d55f2455b239b3d12" target="_top" xlink:title="returns recording mode ">
<polygon fill="#ffffff" stroke="#000000" points="1099,-114.5 1099,-133.5 1153,-133.5 1153,-114.5 1099,-114.5"/>
<text text-anchor="middle" x="1126" y="-121.5" font-family="Helvetica,sans-Serif" font-size="10.00" fill="#000000">getMode</text>
</a>
</g>
</g>
<!-- Node838&#45;&gt;Node839 -->
<g id="edge11" class="edge">
<title>Node838&#45;&gt;Node839</title>
<path fill="none" stroke="#191970" d="M1013.2672,-285.3163C1032.5751,-257.6874 1088.1527,-178.1581 1113.3325,-142.1268"/>
<polygon fill="#191970" stroke="#191970" points="1116.4477,-143.7792 1119.307,-133.5774 1110.7099,-139.7694 1116.4477,-143.7792"/>
</g>
<!-- Node841&#45;&gt;Node833 -->
<g id="edge14" class="edge">
<title>Node841&#45;&gt;Node833</title>
<path fill="none" stroke="#191970" d="M636.452,-191.2119C560.7774,-179.7551 430.0803,-159.9683 362.0427,-149.6678"/>
<polygon fill="#191970" stroke="#191970" points="362.4872,-146.1953 352.0759,-148.1589 361.4393,-153.1164 362.4872,-146.1953"/>
</g>
<!-- Node841&#45;&gt;Node837 -->
<g id="edge15" class="edge">
<title>Node841&#45;&gt;Node837</title>
<path fill="none" stroke="#191970" d="M752.8982,-206.9132C766.8904,-208.5696 781.842,-210.3395 795.8671,-211.9998"/>
<polygon fill="#191970" stroke="#191970" points="795.5468,-215.4863 805.8889,-213.1862 796.3698,-208.5348 795.5468,-215.4863"/>
</g>
<!-- Node841&#45;&gt;Node840 -->
<g id="edge16" class="edge">
<title>Node841&#45;&gt;Node840</title>
<path fill="none" stroke="#191970" d="M704.54,-209.5083C731.2244,-234.7795 804.1543,-303.8471 837.6995,-335.6157"/>
<polygon fill="#191970" stroke="#191970" points="835.2964,-338.1604 844.9638,-342.4953 840.1097,-333.0778 835.2964,-338.1604"/>
</g>
<!-- Node842&#45;&gt;Node833 -->
<g id="edge18" class="edge">
<title>Node842&#45;&gt;Node833</title>
<path fill="none" stroke="#191970" d="M484.1819,-128.6479C446.7695,-131.879 397.5047,-136.1337 362.3486,-139.1699"/>
<polygon fill="#191970" stroke="#191970" points="362.0367,-135.6837 352.375,-140.0313 362.6391,-142.6577 362.0367,-135.6837"/>
</g>
<!-- Node842&#45;&gt;Node841 -->
<g id="edge19" class="edge">
<title>Node842&#45;&gt;Node841</title>
<path fill="none" stroke="#191970" d="M560.8882,-133.6112C570.8213,-137.8791 582.5495,-143.0487 593,-148 618.6413,-160.1484 647.3813,-174.9904 667.7158,-185.7036"/>
<polygon fill="#191970" stroke="#191970" points="666.2229,-188.8734 676.6989,-190.4558 669.4962,-182.6859 666.2229,-188.8734"/>
</g>
<!-- Node843 -->
<g id="node13" class="node">
<title>Node843</title>
<g id="a_node13"><a xlink:href="classSpikeMonitorCore.html#a0fc20fcc5876030d796debd148ae7cee" target="_top" xlink:title="returns a list of firing rates for all neurons in the group (sorted by neuron ID ascending) ...">
<polygon fill="#ffffff" stroke="#000000" points="648.5,-95.5 648.5,-114.5 740.5,-114.5 740.5,-95.5 648.5,-95.5"/>
<text text-anchor="middle" x="694.5" y="-102.5" font-family="Helvetica,sans-Serif" font-size="10.00" fill="#000000">getAllFiringRates</text>
</a>
</g>
</g>
<!-- Node842&#45;&gt;Node843 -->
<g id="edge20" class="edge">
<title>Node842&#45;&gt;Node843</title>
<path fill="none" stroke="#191970" d="M591.8584,-117.4613C606.801,-115.6472 623.0621,-113.673 638.1433,-111.842"/>
<polygon fill="#191970" stroke="#191970" points="638.8596,-115.2808 648.3649,-110.6011 638.0159,-108.3319 638.8596,-115.2808"/>
</g>
<!-- Node843&#45;&gt;Node833 -->
<g id="edge21" class="edge">
<title>Node843&#45;&gt;Node833</title>
<path fill="none" stroke="#191970" d="M648.1205,-101.9985C605.1557,-99.9282 539.5499,-98.5723 483,-105 440.2519,-109.8589 392.4515,-121.5826 359.3485,-130.7336"/>
<polygon fill="#191970" stroke="#191970" points="358.2498,-127.4066 349.5688,-133.4805 360.1427,-134.1458 358.2498,-127.4066"/>
</g>
<!-- Node844&#45;&gt;Node833 -->
<g id="edge23" class="edge">
<title>Node844&#45;&gt;Node833</title>
<path fill="none" stroke="#191970" d="M663.6783,-399.5814C620.5162,-411.1191 540.87,-425.4187 483,-395 387.6796,-344.896 338.9461,-212.3411 323.5282,-162.402"/>
<polygon fill="#191970" stroke="#191970" points="326.8057,-161.1446 320.596,-152.5603 320.0972,-163.1434 326.8057,-161.1446"/>
</g>
<!-- Node844&#45;&gt;Node838 -->
<g id="edge24" class="edge">
<title>Node844&#45;&gt;Node838</title>
<path fill="none" stroke="#191970" d="M760.2591,-394.311C805.1544,-394.8895 865.1198,-390.925 914,-371 945.7119,-358.0733 974.9205,-330.3039 991.7118,-312.1526"/>
<polygon fill="#191970" stroke="#191970" points="994.4378,-314.3554 998.5174,-304.5775 989.2306,-309.6773 994.4378,-314.3554"/>
</g>
<!-- Node844&#45;&gt;Node840 -->
<g id="edge25" class="edge">
<title>Node844&#45;&gt;Node840</title>
<path fill="none" stroke="#191970" d="M735.0009,-380.411C756.1806,-375.3965 782.3022,-369.2119 804.7604,-363.8947"/>
<polygon fill="#191970" stroke="#191970" points="805.8657,-367.2299 814.7903,-361.5201 804.2529,-360.4182 805.8657,-367.2299"/>
</g>
<!-- Node845&#45;&gt;Node833 -->
<g id="edge27" class="edge">
<title>Node845&#45;&gt;Node833</title>
<path fill="none" stroke="#191970" d="M412.5002,-19.5917C406.283,-26.6095 395.5676,-34.5329 388,-43 364.7362,-69.0291 343.948,-103.568 331.1866,-124.7204"/>
<polygon fill="#191970" stroke="#191970" points="328.104,-123.0537 325.908,-133.4184 334.0882,-126.6854 328.104,-123.0537"/>
</g>
<!-- Node845&#45;&gt;Node839 -->
<g id="edge28" class="edge">
<title>Node845&#45;&gt;Node839</title>
<path fill="none" stroke="#191970" d="M447.0166,-10C497.651,-10 604.3307,-10 694.5,-10 694.5,-10 694.5,-10 855,-10 955.5183,-10 1061.7561,-77.4622 1105.4297,-108.5935"/>
<polygon fill="#191970" stroke="#191970" points="1103.3927,-111.4397 1113.5431,-114.4765 1107.5019,-105.7727 1103.3927,-111.4397"/>
</g>
</g>
</svg>
        <g id="navigator" transform="translate(0 0)" fill="#404254">
                <rect fill="#f2f5e9" fill-opacity="0.5" stroke="#606060" stroke-width=".5" x="0" y="0" width="60" height="60"/>
                <use id="zoomplus" xlink:href="#zoomPlus" x="17" y="9" onmousedown="handleZoom(evt,'in')"/>
                <use id="zoomminus" xlink:href="#zoomMin" x="42" y="9" onmousedown="handleZoom(evt,'out')"/>
                <use id="reset" xlink:href="#resetDef" x="30" y="36" onmousedown="handleReset()"/>
                <g id="arrowUp" xlink:href="#dirArrow" transform="translate(30 24)" onmousedown="handlePan(0,-1)">
                  <use xlink:href="#rim" fill="#404040">
                        <set attributeName="fill" to="#808080" begin="arrowUp.mouseover" end="arrowUp.mouseout"/>
                  </use>
                  <path fill="none" stroke="white" stroke-width="1.5" d="M0,-3.0v7 M-2.5,-0.5L0,-3.0L2.5,-0.5"/>
                </g>
                <g id="arrowRight" xlink:href="#dirArrow" transform="rotate(90) translate(36 -43)" onmousedown="handlePan(1,0)">
                  <use xlink:href="#rim" fill="#404040">
                        <set attributeName="fill" to="#808080" begin="arrowRight.mouseover" end="arrowRight.mouseout"/>
                  </use>
                  <path fill="none" stroke="white" stroke-width="1.5" d="M0,-3.0v7 M-2.5,-0.5L0,-3.0L2.5,-0.5"/>
                </g>
                <g id="arrowDown" xlink:href="#dirArrow" transform="rotate(180) translate(-30 -48)" onmousedown="handlePan(0,1)">
                  <use xlink:href="#rim" fill="#404040">
                        <set attributeName="fill" to="#808080" begin="arrowDown.mouseover" end="arrowDown.mouseout"/>
                  </use>
                  <path fill="none" stroke="white" stroke-width="1.5" d="M0,-3.0v7 M-2.5,-0.5L0,-3.0L2.5,-0.5"/>
                </g>
                <g id="arrowLeft" xlink:href="#dirArrow" transform="rotate(270) translate(-36 17)" onmousedown="handlePan(-1,0)">
                  <use xlink:href="#rim" fill="#404040">
                        <set attributeName="fill" to="#808080" begin="arrowLeft.mouseover" end="arrowLeft.mouseout"/>
                  </use>
                  <path fill="none" stroke="white" stroke-width="1.5" d="M0,-3.0v7 M-2.5,-0.5L0,-3.0L2.5,-0.5"/>
                </g>
        </g>
        <svg viewBox="0 0 15 15" width="100%" height="30px" preserveAspectRatio="xMaxYMin meet">
         <g id="arrow_out" transform="scale(0.3 0.3)">
          <a xlink:href="classSpikeMonitorCore_a4c576b7fb37addf9ed35d3f0cae56836_cgraph_org.svg" target="_base">
           <rect id="button" ry="5" rx="5" y="6" x="6" height="38" width="38"
                fill="#f2f5e9" fill-opacity="0.5" stroke="#606060" stroke-width="1.0"/>
           <path id="arrow"
             d="M 11.500037,31.436501 C 11.940474,20.09759 22.043105,11.32322 32.158766,21.979434 L 37.068811,17.246167 C 37.068811,17.246167 37.088388,32 37.088388,32 L 22.160133,31.978069 C 22.160133,31.978069 26.997745,27.140456 26.997745,27.140456 C 18.528582,18.264221 13.291696,25.230495 11.500037,31.436501 z"
             style="fill:#404040;"/>
          </a>
         </g>
        </svg>
</svg>
