<?xml version="1.0" encoding="UTF-8" standalone="no"?>
<!DOCTYPE svg PUBLIC "-//W3C//DTD SVG 1.1//EN"
 "http://www.w3.org/Graphics/SVG/1.1/DTD/svg11.dtd">
<!-- Generated by graphviz version 2.40.1 (20161225.0304)
 -->
<!-- Title: setSpikeRate Pages: 1 -->
<!--zoomable 211 -->
<svg id="main" version="1.1" xmlns="http://www.w3.org/2000/svg" xmlns:xlink="http://www.w3.org/1999/xlink" xml:space="preserve" onload="init(evt)">
<style type="text/css"><![CDATA[
.edge:hover path { stroke: red; }
.edge:hover polygon { stroke: red; fill: red; }
]]></style>
<script type="text/javascript"><![CDATA[
var edges = document.getElementsByTagName('g');
if (edges && edges.length) {
  for (var i=0;i<edges.length;i++) {
    if (edges[i].id.substr(0,4)=='edge') {
      edges[i].setAttribute('class','edge');
    }
  }
}
]]></script>
        <defs>
                <circle id="rim" cx="0" cy="0" r="7"/>
                <circle id="rim2" cx="0" cy="0" r="3.5"/>
                <g id="zoomPlus">
                        <use xlink:href="#rim" fill="#404040">
                                <set attributeName="fill" to="#808080" begin="zoomplus.mouseover" end="zoomplus.mouseout"/>
                        </use>
                        <path d="M-4,0h8M0,-4v8" fill="none" stroke="white" stroke-width="1.5" pointer-events="none"/>
                </g>
                <g id="zoomMin">
                        <use xlink:href="#rim" fill="#404040">
                                <set attributeName="fill" to="#808080" begin="zoomminus.mouseover" end="zoomminus.mouseout"/>
                        </use>
                        <path d="M-4,0h8" fill="none" stroke="white" stroke-width="1.5" pointer-events="none"/>
                </g>
                <g id="dirArrow">
                        <path fill="none" stroke="white" stroke-width="1.5" d="M0,-3.0v7 M-2.5,-0.5L0,-3.0L2.5,-0.5"/>
                </g>
               <g id="resetDef">
                       <use xlink:href="#rim2" fill="#404040">
                               <set attributeName="fill" to="#808080" begin="reset.mouseover" end="reset.mouseout"/>
                       </use>
               </g>
        </defs>

<script type="text/javascript">
var viewWidth = 794;
var viewHeight = 211;
var sectionId = 'dynsection-121';
</script>
<script xlink:href="svgpan.js"/>
<svg id="graph" class="graph">
<g id="viewport">
<title>setSpikeRate</title>
<polygon fill="#ffffff" stroke="transparent" points="-4,4 -4,-206.5 790,-206.5 790,4 -4,4"/>
<!-- Node1002 -->
<g id="node1" class="node">
<title>Node1002</title>
<polygon fill="#bfbfbf" stroke="#000000" points="0,-63 0,-82 76,-82 76,-63 0,-63"/>
<text text-anchor="middle" x="38" y="-70" font-family="Helvetica,sans-Serif" font-size="10.00" fill="#000000">setSpikeRate</text>
</g>
<!-- Node1003 -->
<g id="node2" class="node">
<title>Node1003</title>
<g id="a_node2"><a xlink:href="classCARLsim_1_1Impl.html#aec206ed9aaaed83f1d3170f012a86b70" target="_top" xlink:title="CARLsim::Impl::setSpikeRate">
<polygon fill="#ffffff" stroke="#000000" points="112,-63 112,-82 261,-82 261,-63 112,-63"/>
<text text-anchor="middle" x="186.5" y="-70" font-family="Helvetica,sans-Serif" font-size="10.00" fill="#000000">CARLsim::Impl::setSpikeRate</text>
</a>
</g>
</g>
<!-- Node1002&#45;&gt;Node1003 -->
<g id="edge1" class="edge">
<title>Node1002&#45;&gt;Node1003</title>
<path fill="none" stroke="#191970" d="M76.2424,-72.5C84.1721,-72.5 92.8247,-72.5 101.6821,-72.5"/>
<polygon fill="#191970" stroke="#191970" points="101.7419,-76.0001 111.7419,-72.5 101.7418,-69.0001 101.7419,-76.0001"/>
</g>
<!-- Node1004 -->
<g id="node3" class="node">
<title>Node1004</title>
<g id="a_node3"><a xlink:href="classUserErrors.html#a4bbedc6c0817d5e59e74e450bf00472c" target="_top" xlink:title="simple wrapper for assert statement ">
<polygon fill="#ffffff" stroke="#000000" points="504,-69 504,-88 620,-88 620,-69 504,-69"/>
<text text-anchor="middle" x="562" y="-76" font-family="Helvetica,sans-Serif" font-size="10.00" fill="#000000">UserErrors::assertTrue</text>
</a>
</g>
</g>
<!-- Node1003&#45;&gt;Node1004 -->
<g id="edge2" class="edge">
<title>Node1003&#45;&gt;Node1004</title>
<path fill="none" stroke="#191970" d="M261.1357,-73.6926C328.8428,-74.7745 427.8398,-76.3563 493.551,-77.4063"/>
<polygon fill="#191970" stroke="#191970" points="493.7469,-80.9098 503.8016,-77.5701 493.8588,-73.9106 493.7469,-80.9098"/>
</g>
<!-- Node1005 -->
<g id="node4" class="node">
<title>Node1005</title>
<g id="a_node4"><a xlink:href="classCARLsim_1_1Impl.html#ae136e178382096490a2d34f78cd2afa2" target="_top" xlink:title="CARLsim::Impl::isPoisson\lGroup">
<polygon fill="#ffffff" stroke="#000000" points="306,-101.5 306,-131.5 439,-131.5 439,-101.5 306,-101.5"/>
<text text-anchor="start" x="314" y="-119.5" font-family="Helvetica,sans-Serif" font-size="10.00" fill="#000000">CARLsim::Impl::isPoisson</text>
<text text-anchor="middle" x="372.5" y="-108.5" font-family="Helvetica,sans-Serif" font-size="10.00" fill="#000000">Group</text>
</a>
</g>
</g>
<!-- Node1003&#45;&gt;Node1005 -->
<g id="edge3" class="edge">
<title>Node1003&#45;&gt;Node1005</title>
<path fill="none" stroke="#191970" d="M226.8592,-82.0473C247.8941,-87.0233 274.2863,-93.2666 298.8055,-99.0669"/>
<polygon fill="#191970" stroke="#191970" points="298.2774,-102.5385 308.8146,-101.4346 299.8889,-95.7265 298.2774,-102.5385"/>
</g>
<!-- Node1009 -->
<g id="node8" class="node">
<title>Node1009</title>
<g id="a_node8"><a xlink:href="classPoissonRate.html#a00ddee44990cd4763a7d4df074e6d405" target="_top" xlink:title="Returns the number of neurons for which to generate Poisson spike trains. ">
<polygon fill="#ffffff" stroke="#000000" points="487,-6 487,-25 637,-25 637,-6 487,-6"/>
<text text-anchor="middle" x="562" y="-13" font-family="Helvetica,sans-Serif" font-size="10.00" fill="#000000">PoissonRate::getNumNeurons</text>
</a>
</g>
</g>
<!-- Node1003&#45;&gt;Node1009 -->
<g id="edge8" class="edge">
<title>Node1003&#45;&gt;Node1009</title>
<path fill="none" stroke="#191970" d="M199.9507,-62.835C219.9514,-49.1216 259.2416,-24.6648 297,-15.5 355.7851,-1.2315 424.0908,-1.6199 476.6301,-5.3733"/>
<polygon fill="#191970" stroke="#191970" points="476.6811,-8.8875 486.9203,-6.1655 477.2184,-1.9082 476.6811,-8.8875"/>
</g>
<!-- Node1011 -->
<g id="node10" class="node">
<title>Node1011</title>
<g id="a_node10"><a xlink:href="classCARLsim_1_1Impl.html#ad85b898d98abe24dcae4390f0fe61e84" target="_top" xlink:title="CARLsim::Impl::getGroupNum\lNeurons">
<polygon fill="#ffffff" stroke="#000000" points="297,-150.5 297,-180.5 448,-180.5 448,-150.5 297,-150.5"/>
<text text-anchor="start" x="305" y="-168.5" font-family="Helvetica,sans-Serif" font-size="10.00" fill="#000000">CARLsim::Impl::getGroupNum</text>
<text text-anchor="middle" x="372.5" y="-157.5" font-family="Helvetica,sans-Serif" font-size="10.00" fill="#000000">Neurons</text>
</a>
</g>
</g>
<!-- Node1003&#45;&gt;Node1011 -->
<g id="edge10" class="edge">
<title>Node1003&#45;&gt;Node1011</title>
<path fill="none" stroke="#191970" d="M199.8783,-82.1588C220.1044,-96.4247 260.0381,-123.2924 297,-140.5 301.7293,-142.7017 306.7071,-144.7981 311.757,-146.7722"/>
<polygon fill="#191970" stroke="#191970" points="310.9184,-150.195 321.511,-150.4136 313.3667,-143.6371 310.9184,-150.195"/>
</g>
<!-- Node1013 -->
<g id="node12" class="node">
<title>Node1013</title>
<g id="a_node12"><a xlink:href="classSNN.html#aec206ed9aaaed83f1d3170f012a86b70" target="_top" xlink:title="Sets the Poisson spike rate for a group. For information on how to set up spikeRate, see Section Poisson spike generators in the Tutorial. ">
<polygon fill="#ffffff" stroke="#000000" points="320.5,-25 320.5,-44 424.5,-44 424.5,-25 320.5,-25"/>
<text text-anchor="middle" x="372.5" y="-32" font-family="Helvetica,sans-Serif" font-size="10.00" fill="#000000">SNN::setSpikeRate</text>
</a>
</g>
</g>
<!-- Node1003&#45;&gt;Node1013 -->
<g id="edge14" class="edge">
<title>Node1003&#45;&gt;Node1013</title>
<path fill="none" stroke="#191970" d="M233.4357,-62.911C258.5332,-57.7835 289.6186,-51.4328 316.0304,-46.0368"/>
<polygon fill="#191970" stroke="#191970" points="316.8048,-49.451 325.9019,-44.0201 315.4036,-42.5926 316.8048,-49.451"/>
</g>
<!-- Node1005&#45;&gt;Node1004 -->
<g id="edge4" class="edge">
<title>Node1005&#45;&gt;Node1004</title>
<path fill="none" stroke="#191970" d="M439.0441,-103.1561C460.3983,-98.874 483.8555,-94.1701 504.5048,-90.0294"/>
<polygon fill="#191970" stroke="#191970" points="505.2781,-93.4441 514.3947,-88.0462 503.9017,-86.5807 505.2781,-93.4441"/>
</g>
<!-- Node1006 -->
<g id="node5" class="node">
<title>Node1006</title>
<g id="a_node5"><a xlink:href="classCARLsim_1_1Impl.html#a292bdee57fec7c77ec4c15ea3f508d60" target="_top" xlink:title="CARLsim::Impl::getNumGroups">
<polygon fill="#ffffff" stroke="#000000" points="484,-145 484,-164 640,-164 640,-145 484,-145"/>
<text text-anchor="middle" x="562" y="-152" font-family="Helvetica,sans-Serif" font-size="10.00" fill="#000000">CARLsim::Impl::getNumGroups</text>
</a>
</g>
</g>
<!-- Node1005&#45;&gt;Node1006 -->
<g id="edge5" class="edge">
<title>Node1005&#45;&gt;Node1006</title>
<path fill="none" stroke="#191970" d="M439.0441,-129.8439C460.3983,-134.126 483.8555,-138.8299 504.5048,-142.9706"/>
<polygon fill="#191970" stroke="#191970" points="503.9017,-146.4193 514.3947,-144.9538 505.2781,-139.5559 503.9017,-146.4193"/>
</g>
<!-- Node1008 -->
<g id="node7" class="node">
<title>Node1008</title>
<g id="a_node7"><a xlink:href="classSNN.html#a3764348d44236ad4932627cd4d199c31" target="_top" xlink:title="SNN::isPoissonGroup">
<polygon fill="#ffffff" stroke="#000000" points="505.5,-107 505.5,-126 618.5,-126 618.5,-107 505.5,-107"/>
<text text-anchor="middle" x="562" y="-114" font-family="Helvetica,sans-Serif" font-size="10.00" fill="#000000">SNN::isPoissonGroup</text>
</a>
</g>
</g>
<!-- Node1005&#45;&gt;Node1008 -->
<g id="edge7" class="edge">
<title>Node1005&#45;&gt;Node1008</title>
<path fill="none" stroke="#191970" d="M439.0441,-116.5C457.226,-116.5 476.9325,-116.5 495.1323,-116.5"/>
<polygon fill="#191970" stroke="#191970" points="495.3589,-120.0001 505.3588,-116.5 495.3588,-113.0001 495.3589,-120.0001"/>
</g>
<!-- Node1007 -->
<g id="node6" class="node">
<title>Node1007</title>
<g id="a_node6"><a xlink:href="classSNN.html#a292bdee57fec7c77ec4c15ea3f508d60" target="_top" xlink:title="SNN::getNumGroups">
<polygon fill="#ffffff" stroke="#000000" points="676,-145 676,-164 786,-164 786,-145 676,-145"/>
<text text-anchor="middle" x="731" y="-152" font-family="Helvetica,sans-Serif" font-size="10.00" fill="#000000">SNN::getNumGroups</text>
</a>
</g>
</g>
<!-- Node1006&#45;&gt;Node1007 -->
<g id="edge6" class="edge">
<title>Node1006&#45;&gt;Node1007</title>
<path fill="none" stroke="#191970" d="M640.069,-154.5C648.6771,-154.5 657.3747,-154.5 665.8018,-154.5"/>
<polygon fill="#191970" stroke="#191970" points="665.9225,-158.0001 675.9225,-154.5 665.9225,-151.0001 665.9225,-158.0001"/>
</g>
<!-- Node1010 -->
<g id="node9" class="node">
<title>Node1010</title>
<g id="a_node9"><a xlink:href="classPoissonRate_1_1Impl.html#a00ddee44990cd4763a7d4df074e6d405" target="_top" xlink:title="PoissonRate::Impl::\lgetNumNeurons">
<polygon fill="#ffffff" stroke="#000000" points="679,-.5 679,-30.5 783,-30.5 783,-.5 679,-.5"/>
<text text-anchor="start" x="687" y="-18.5" font-family="Helvetica,sans-Serif" font-size="10.00" fill="#000000">PoissonRate::Impl::</text>
<text text-anchor="middle" x="731" y="-7.5" font-family="Helvetica,sans-Serif" font-size="10.00" fill="#000000">getNumNeurons</text>
</a>
</g>
</g>
<!-- Node1009&#45;&gt;Node1010 -->
<g id="edge9" class="edge">
<title>Node1009&#45;&gt;Node1010</title>
<path fill="none" stroke="#191970" d="M637.11,-15.5C647.6887,-15.5 658.4662,-15.5 668.7681,-15.5"/>
<polygon fill="#191970" stroke="#191970" points="668.8866,-19.0001 678.8866,-15.5 668.8866,-12.0001 668.8866,-19.0001"/>
</g>
<!-- Node1011&#45;&gt;Node1004 -->
<g id="edge11" class="edge">
<title>Node1011&#45;&gt;Node1004</title>
<path fill="none" stroke="#191970" d="M429.7838,-150.3549C436.1837,-147.5647 442.4037,-144.3021 448,-140.5 468.6165,-126.4931 462.8344,-110.6625 484,-97.5 487.4305,-95.3666 491.084,-93.4728 494.8662,-91.7916"/>
<polygon fill="#191970" stroke="#191970" points="496.4384,-94.935 504.4785,-88.0352 493.8905,-88.4151 496.4384,-94.935"/>
</g>
<!-- Node1011&#45;&gt;Node1006 -->
<g id="edge12" class="edge">
<title>Node1011&#45;&gt;Node1006</title>
<path fill="none" stroke="#191970" d="M448.2124,-161.1051C456.6595,-160.6148 465.3172,-160.1122 473.9017,-159.6139"/>
<polygon fill="#191970" stroke="#191970" points="474.1481,-163.1056 483.9285,-159.0319 473.7424,-156.1173 474.1481,-163.1056"/>
</g>
<!-- Node1012 -->
<g id="node11" class="node">
<title>Node1012</title>
<g id="a_node11"><a xlink:href="classSNN.html#a11e19a0ccbeca92ba843a5933b3321e0" target="_top" xlink:title="SNN::getGroupNumNeurons">
<polygon fill="#ffffff" stroke="#000000" points="491,-183 491,-202 633,-202 633,-183 491,-183"/>
<text text-anchor="middle" x="562" y="-190" font-family="Helvetica,sans-Serif" font-size="10.00" fill="#000000">SNN::getGroupNumNeurons</text>
</a>
</g>
</g>
<!-- Node1011&#45;&gt;Node1012 -->
<g id="edge13" class="edge">
<title>Node1011&#45;&gt;Node1012</title>
<path fill="none" stroke="#191970" d="M448.2124,-176.2875C460.374,-178.0203 472.9721,-179.8153 485.1599,-181.5518"/>
<polygon fill="#191970" stroke="#191970" points="484.8888,-185.0485 495.2826,-182.9941 485.8763,-178.1184 484.8888,-185.0485"/>
</g>
<!-- Node1013&#45;&gt;Node1009 -->
<g id="edge15" class="edge">
<title>Node1013&#45;&gt;Node1009</title>
<path fill="none" stroke="#191970" d="M424.5324,-29.283C440.5612,-27.6759 458.6528,-25.862 476.3199,-24.0906"/>
<polygon fill="#191970" stroke="#191970" points="477.0533,-27.5347 486.6542,-23.0545 476.3549,-20.5696 477.0533,-27.5347"/>
</g>
</g>
</svg>
        <g id="navigator" transform="translate(0 0)" fill="#404254">
                <rect fill="#f2f5e9" fill-opacity="0.5" stroke="#606060" stroke-width=".5" x="0" y="0" width="60" height="60"/>
                <use id="zoomplus" xlink:href="#zoomPlus" x="17" y="9" onmousedown="handleZoom(evt,'in')"/>
                <use id="zoomminus" xlink:href="#zoomMin" x="42" y="9" onmousedown="handleZoom(evt,'out')"/>
                <use id="reset" xlink:href="#resetDef" x="30" y="36" onmousedown="handleReset()"/>
                <g id="arrowUp" xlink:href="#dirArrow" transform="translate(30 24)" onmousedown="handlePan(0,-1)">
                  <use xlink:href="#rim" fill="#404040">
                        <set attributeName="fill" to="#808080" begin="arrowUp.mouseover" end="arrowUp.mouseout"/>
                  </use>
                  <path fill="none" stroke="white" stroke-width="1.5" d="M0,-3.0v7 M-2.5,-0.5L0,-3.0L2.5,-0.5"/>
                </g>
                <g id="arrowRight" xlink:href="#dirArrow" transform="rotate(90) translate(36 -43)" onmousedown="handlePan(1,0)">
                  <use xlink:href="#rim" fill="#404040">
                        <set attributeName="fill" to="#808080" begin="arrowRight.mouseover" end="arrowRight.mouseout"/>
                  </use>
                  <path fill="none" stroke="white" stroke-width="1.5" d="M0,-3.0v7 M-2.5,-0.5L0,-3.0L2.5,-0.5"/>
                </g>
                <g id="arrowDown" xlink:href="#dirArrow" transform="rotate(180) translate(-30 -48)" onmousedown="handlePan(0,1)">
                  <use xlink:href="#rim" fill="#404040">
                        <set attributeName="fill" to="#808080" begin="arrowDown.mouseover" end="arrowDown.mouseout"/>
                  </use>
                  <path fill="none" stroke="white" stroke-width="1.5" d="M0,-3.0v7 M-2.5,-0.5L0,-3.0L2.5,-0.5"/>
                </g>
                <g id="arrowLeft" xlink:href="#dirArrow" transform="rotate(270) translate(-36 17)" onmousedown="handlePan(-1,0)">
                  <use xlink:href="#rim" fill="#404040">
                        <set attributeName="fill" to="#808080" begin="arrowLeft.mouseover" end="arrowLeft.mouseout"/>
                  </use>
                  <path fill="none" stroke="white" stroke-width="1.5" d="M0,-3.0v7 M-2.5,-0.5L0,-3.0L2.5,-0.5"/>
                </g>
        </g>
        <svg viewBox="0 0 15 15" width="100%" height="30px" preserveAspectRatio="xMaxYMin meet">
         <g id="arrow_out" transform="scale(0.3 0.3)">
          <a xlink:href="classCARLsim_a04f52d2840105c8ccacf8d378d1695cf_cgraph_org.svg" target="_base">
           <rect id="button" ry="5" rx="5" y="6" x="6" height="38" width="38"
                fill="#f2f5e9" fill-opacity="0.5" stroke="#606060" stroke-width="1.0"/>
           <path id="arrow"
             d="M 11.500037,31.436501 C 11.940474,20.09759 22.043105,11.32322 32.158766,21.979434 L 37.068811,17.246167 C 37.068811,17.246167 37.088388,32 37.088388,32 L 22.160133,31.978069 C 22.160133,31.978069 26.997745,27.140456 26.997745,27.140456 C 18.528582,18.264221 13.291696,25.230495 11.500037,31.436501 z"
             style="fill:#404040;"/>
          </a>
         </g>
        </svg>
</svg>
