<?xml version="1.0" encoding="UTF-8" standalone="no"?>
<!DOCTYPE svg PUBLIC "-//W3C//DTD SVG 1.1//EN"
 "http://www.w3.org/Graphics/SVG/1.1/DTD/svg11.dtd">
<!-- Generated by graphviz version 2.40.1 (20161225.0304)
 -->
<!-- Title: getSpikeVector2D Pages: 1 -->
<!--zoomable 474 -->
<svg id="main" version="1.1" xmlns="http://www.w3.org/2000/svg" xmlns:xlink="http://www.w3.org/1999/xlink" xml:space="preserve" onload="init(evt)">
<style type="text/css"><![CDATA[
.edge:hover path { stroke: red; }
.edge:hover polygon { stroke: red; fill: red; }
]]></style>
<script type="text/javascript"><![CDATA[
var edges = document.getElementsByTagName('g');
if (edges && edges.length) {
  for (var i=0;i<edges.length;i++) {
    if (edges[i].id.substr(0,4)=='edge') {
      edges[i].setAttribute('class','edge');
    }
  }
}
]]></script>
        <defs>
                <circle id="rim" cx="0" cy="0" r="7"/>
                <circle id="rim2" cx="0" cy="0" r="3.5"/>
                <g id="zoomPlus">
                        <use xlink:href="#rim" fill="#404040">
                                <set attributeName="fill" to="#808080" begin="zoomplus.mouseover" end="zoomplus.mouseout"/>
                        </use>
                        <path d="M-4,0h8M0,-4v8" fill="none" stroke="white" stroke-width="1.5" pointer-events="none"/>
                </g>
                <g id="zoomMin">
                        <use xlink:href="#rim" fill="#404040">
                                <set attributeName="fill" to="#808080" begin="zoomminus.mouseover" end="zoomminus.mouseout"/>
                        </use>
                        <path d="M-4,0h8" fill="none" stroke="white" stroke-width="1.5" pointer-events="none"/>
                </g>
                <g id="dirArrow">
                        <path fill="none" stroke="white" stroke-width="1.5" d="M0,-3.0v7 M-2.5,-0.5L0,-3.0L2.5,-0.5"/>
                </g>
               <g id="resetDef">
                       <use xlink:href="#rim2" fill="#404040">
                               <set attributeName="fill" to="#808080" begin="reset.mouseover" end="reset.mouseout"/>
                       </use>
               </g>
        </defs>

<script type="text/javascript">
var viewWidth = 1009;
var viewHeight = 474;
var sectionId = 'dynsection-44';
</script>
<script xlink:href="svgpan.js"/>
<svg id="graph" class="graph">
<g id="viewport">
<title>getSpikeVector2D</title>
<polygon fill="#ffffff" stroke="transparent" points="-4,4 -4,-470 1005,-470 1005,4 -4,4"/>
<!-- Node944 -->
<g id="node1" class="node">
<title>Node944</title>
<polygon fill="#bfbfbf" stroke="#000000" points="0,-133.5 0,-152.5 96,-152.5 96,-133.5 0,-133.5"/>
<text text-anchor="middle" x="48" y="-140.5" font-family="Helvetica,sans-Serif" font-size="10.00" fill="#000000">getSpikeVector2D</text>
</g>
<!-- Node945 -->
<g id="node2" class="node">
<title>Node945</title>
<g id="a_node2"><a xlink:href="classSpikeMonitorCore.html#a3a3ffdb35b09328d22e5d72503ed1f55" target="_top" xlink:title="returns recording status ">
<polygon fill="#ffffff" stroke="#000000" points="132,-133.5 132,-152.5 200,-152.5 200,-133.5 132,-133.5"/>
<text text-anchor="middle" x="166" y="-140.5" font-family="Helvetica,sans-Serif" font-size="10.00" fill="#000000">isRecording</text>
</a>
</g>
</g>
<!-- Node944&#45;&gt;Node945 -->
<g id="edge1" class="edge">
<title>Node944&#45;&gt;Node945</title>
<path fill="none" stroke="#191970" d="M96.3356,-143C104.7489,-143 113.4616,-143 121.7581,-143"/>
<polygon fill="#191970" stroke="#191970" points="121.9908,-146.5001 131.9907,-143 121.9907,-139.5001 121.9908,-146.5001"/>
</g>
<!-- Node946 -->
<g id="node3" class="node">
<title>Node946</title>
<g id="a_node3"><a xlink:href="classSpikeMonitorCore.html#af0ba89c38f6852cdf9d914687ad6a445" target="_top" xlink:title="prints the AER vector in human&#45;readable format ">
<polygon fill="#ffffff" stroke="#000000" points="248,-228.5 248,-247.5 283,-247.5 283,-228.5 248,-228.5"/>
<text text-anchor="middle" x="265.5" y="-235.5" font-family="Helvetica,sans-Serif" font-size="10.00" fill="#000000">print</text>
</a>
</g>
</g>
<!-- Node945&#45;&gt;Node946 -->
<g id="edge2" class="edge">
<title>Node945&#45;&gt;Node946</title>
<path fill="none" stroke="#191970" d="M181.5469,-152.7813C201.0505,-169.0506 234.1469,-200.7571 252.4158,-220.7655"/>
<polygon fill="#191970" stroke="#191970" points="249.8131,-223.1059 259.0482,-228.2986 255.0669,-218.4802 249.8131,-223.1059"/>
</g>
<!-- Node957 -->
<g id="node14" class="node">
<title>Node957</title>
<g id="a_node14"><a xlink:href="classSpikeMonitorCore.html#a6e116c2994e0449c41e56d03370fa54c" target="_top" xlink:title="inserts a (time,neurId) tupel into the 2D spike vector ">
<polygon fill="#ffffff" stroke="#000000" points="236,-.5 236,-19.5 295,-19.5 295,-.5 236,-.5"/>
<text text-anchor="middle" x="265.5" y="-7.5" font-family="Helvetica,sans-Serif" font-size="10.00" fill="#000000">pushAER</text>
</a>
</g>
</g>
<!-- Node945&#45;&gt;Node957 -->
<g id="edge25" class="edge">
<title>Node945&#45;&gt;Node957</title>
<path fill="none" stroke="#191970" d="M168.7971,-133.3991C176.7959,-112.856 201.0687,-66.6556 234.5725,-27.3006"/>
<polygon fill="#191970" stroke="#191970" points="237.4268,-29.3544 241.3942,-19.5305 232.1664,-24.7361 237.4268,-29.3544"/>
</g>
<!-- Node946&#45;&gt;Node945 -->
<g id="edge3" class="edge">
<title>Node946&#45;&gt;Node945</title>
<path fill="none" stroke="#191970" d="M250.2662,-228.4796C230.8499,-212.3273 197.6032,-180.496 179.2101,-160.3722"/>
<polygon fill="#191970" stroke="#191970" points="181.7668,-157.9797 172.5285,-152.7928 176.5158,-162.6087 181.7668,-157.9797"/>
</g>
<!-- Node947 -->
<g id="node4" class="node">
<title>Node947</title>
<g id="a_node4"><a xlink:href="classSNN.html#a5fd2b156623d78138bcb44167eabab78" target="_top" xlink:title="SNN::getSimTime">
<polygon fill="#ffffff" stroke="#000000" points="337.5,-304.5 337.5,-323.5 434.5,-323.5 434.5,-304.5 337.5,-304.5"/>
<text text-anchor="middle" x="386" y="-311.5" font-family="Helvetica,sans-Serif" font-size="10.00" fill="#000000">SNN::getSimTime</text>
</a>
</g>
</g>
<!-- Node946&#45;&gt;Node947 -->
<g id="edge4" class="edge">
<title>Node946&#45;&gt;Node947</title>
<path fill="none" stroke="#191970" d="M274.367,-247.756C286.195,-260.2545 308.2947,-281.8677 331,-295 334.4912,-297.0192 338.231,-298.8707 342.057,-300.5577"/>
<polygon fill="#191970" stroke="#191970" points="341.0688,-303.9326 351.6527,-304.4141 343.6791,-297.4374 341.0688,-303.9326"/>
</g>
<!-- Node948 -->
<g id="node5" class="node">
<title>Node948</title>
<g id="a_node5"><a xlink:href="classSNN.html#ab0367f8ebd4019bf7d34ebddb1563fe7" target="_top" xlink:title="SNN::getGroupName">
<polygon fill="#ffffff" stroke="#000000" points="331,-266.5 331,-285.5 441,-285.5 441,-266.5 331,-266.5"/>
<text text-anchor="middle" x="386" y="-273.5" font-family="Helvetica,sans-Serif" font-size="10.00" fill="#000000">SNN::getGroupName</text>
</a>
</g>
</g>
<!-- Node946&#45;&gt;Node948 -->
<g id="edge5" class="edge">
<title>Node946&#45;&gt;Node948</title>
<path fill="none" stroke="#191970" d="M283.0217,-243.5255C299.4759,-248.7144 324.6898,-256.6657 346.0494,-263.4015"/>
<polygon fill="#191970" stroke="#191970" points="345.2678,-266.8249 355.8575,-266.4945 347.3732,-260.1489 345.2678,-266.8249"/>
</g>
<!-- Node949 -->
<g id="node6" class="node">
<title>Node949</title>
<g id="a_node6"><a xlink:href="classSpikeMonitorCore.html#af6c333e6cefff92d0e354eca70625cdc" target="_top" xlink:title="returns the total number of recorded spikes in the group ">
<polygon fill="#ffffff" stroke="#000000" points="654,-209.5 654,-228.5 752,-228.5 752,-209.5 654,-209.5"/>
<text text-anchor="middle" x="703" y="-216.5" font-family="Helvetica,sans-Serif" font-size="10.00" fill="#000000">getPopNumSpikes</text>
</a>
</g>
</g>
<!-- Node946&#45;&gt;Node949 -->
<g id="edge6" class="edge">
<title>Node946&#45;&gt;Node949</title>
<path fill="none" stroke="#191970" d="M283.1924,-237.2316C343.5457,-234.6106 543.1498,-225.9421 643.8305,-221.5696"/>
<polygon fill="#191970" stroke="#191970" points="644.0052,-225.0655 653.8439,-221.1348 643.7015,-218.072 644.0052,-225.0655"/>
</g>
<!-- Node952 -->
<g id="node9" class="node">
<title>Node952</title>
<g id="a_node9"><a xlink:href="classSpikeMonitorCore.html#a9cf20c30ff0efdbc5e3c5194648a7fb3" target="_top" xlink:title="returns the total recorded time in ms ">
<polygon fill="#ffffff" stroke="#000000" points="644,-342.5 644,-361.5 762,-361.5 762,-342.5 644,-342.5"/>
<text text-anchor="middle" x="703" y="-349.5" font-family="Helvetica,sans-Serif" font-size="10.00" fill="#000000">getRecordingTotalTime</text>
</a>
</g>
</g>
<!-- Node946&#45;&gt;Node952 -->
<g id="edge11" class="edge">
<title>Node946&#45;&gt;Node952</title>
<path fill="none" stroke="#191970" d="M268.8424,-247.747C276.3281,-267.8768 296.5393,-313.7648 331,-333 381.1402,-360.9872 540.7383,-359.2875 633.7979,-355.621"/>
<polygon fill="#191970" stroke="#191970" points="634.1264,-359.1105 643.9738,-355.2018 633.8382,-352.1164 634.1264,-359.1105"/>
</g>
<!-- Node953 -->
<g id="node10" class="node">
<title>Node953</title>
<g id="a_node10"><a xlink:href="classSpikeMonitorCore.html#ae62d623e8edfc6b05309256c1d825bbd" target="_top" xlink:title="returns the recorded mean firing rate of the group ">
<polygon fill="#ffffff" stroke="#000000" points="484.5,-190.5 484.5,-209.5 600.5,-209.5 600.5,-190.5 484.5,-190.5"/>
<text text-anchor="middle" x="542.5" y="-197.5" font-family="Helvetica,sans-Serif" font-size="10.00" fill="#000000">getPopMeanFiringRate</text>
</a>
</g>
</g>
<!-- Node946&#45;&gt;Node953 -->
<g id="edge12" class="edge">
<title>Node946&#45;&gt;Node953</title>
<path fill="none" stroke="#191970" d="M283.2033,-233.7262C296.3328,-230.6763 314.7033,-226.6598 331,-224 378.6766,-216.2188 432.8103,-210.1264 474.3753,-206.0269"/>
<polygon fill="#191970" stroke="#191970" points="474.7752,-209.5047 484.3897,-205.0537 474.0981,-202.5375 474.7752,-209.5047"/>
</g>
<!-- Node954 -->
<g id="node11" class="node">
<title>Node954</title>
<g id="a_node11"><a xlink:href="classSpikeMonitorCore.html#ad0c4b32bb5cc0c7a8d95ed6023a2695f" target="_top" xlink:title="computes the standard deviation of firing rates in the group ">
<polygon fill="#ffffff" stroke="#000000" points="332.5,-114.5 332.5,-133.5 439.5,-133.5 439.5,-114.5 332.5,-114.5"/>
<text text-anchor="middle" x="386" y="-121.5" font-family="Helvetica,sans-Serif" font-size="10.00" fill="#000000">getPopStdFiringRate</text>
</a>
</g>
</g>
<!-- Node946&#45;&gt;Node954 -->
<g id="edge16" class="edge">
<title>Node946&#45;&gt;Node954</title>
<path fill="none" stroke="#191970" d="M275.7738,-228.2804C296.3164,-208.8459 342.6741,-164.9888 368.2409,-140.8011"/>
<polygon fill="#191970" stroke="#191970" points="370.8933,-143.1099 375.7522,-133.695 366.0826,-138.0249 370.8933,-143.1099"/>
</g>
<!-- Node956 -->
<g id="node13" class="node">
<title>Node956</title>
<g id="a_node13"><a xlink:href="classSpikeMonitorCore.html#aed09edf4583ac05d42fccc7e3556e3c5" target="_top" xlink:title="returns the recorded mean firing rate for a specific neuron ">
<polygon fill="#ffffff" stroke="#000000" points="477,-380.5 477,-399.5 608,-399.5 608,-380.5 477,-380.5"/>
<text text-anchor="middle" x="542.5" y="-387.5" font-family="Helvetica,sans-Serif" font-size="10.00" fill="#000000">getNeuronMeanFiringRate</text>
</a>
</g>
</g>
<!-- Node946&#45;&gt;Node956 -->
<g id="edge21" class="edge">
<title>Node946&#45;&gt;Node956</title>
<path fill="none" stroke="#191970" d="M267.2529,-247.7487C272.2324,-272.3164 288.9214,-336.8773 331,-366 370.1025,-393.0629 423.335,-398.9826 466.6116,-398.1771"/>
<polygon fill="#191970" stroke="#191970" points="466.9287,-401.669 476.8156,-397.8611 466.712,-394.6724 466.9287,-401.669"/>
</g>
<!-- Node949&#45;&gt;Node945 -->
<g id="edge7" class="edge">
<title>Node949&#45;&gt;Node945</title>
<path fill="none" stroke="#191970" d="M699.6313,-209.2015C690.1067,-183.2475 660.2277,-112.8773 608,-86 460.7786,-10.2373 394.3928,-57.7729 236,-106 219.3869,-111.0583 202.1229,-120.1351 188.8966,-128.0323"/>
<polygon fill="#191970" stroke="#191970" points="186.7143,-125.2664 180.0463,-133.4998 190.3933,-131.2216 186.7143,-125.2664"/>
</g>
<!-- Node950 -->
<g id="node7" class="node">
<title>Node950</title>
<g id="a_node7"><a xlink:href="classSpikeMonitorCore.html#a005a2f884f6260054483d4fa6ed6ddbb" target="_top" xlink:title="returns the number of recorded spikes of a specific neuron ">
<polygon fill="#ffffff" stroke="#000000" points="798,-285.5 798,-304.5 911,-304.5 911,-285.5 798,-285.5"/>
<text text-anchor="middle" x="854.5" y="-292.5" font-family="Helvetica,sans-Serif" font-size="10.00" fill="#000000">getNeuronNumSpikes</text>
</a>
</g>
</g>
<!-- Node949&#45;&gt;Node950 -->
<g id="edge8" class="edge">
<title>Node949&#45;&gt;Node950</title>
<path fill="none" stroke="#191970" d="M722.1876,-228.6255C748.4834,-241.8168 795.907,-265.6068 826.2612,-280.834"/>
<polygon fill="#191970" stroke="#191970" points="824.9604,-284.0971 835.4682,-285.4527 828.0992,-277.8403 824.9604,-284.0971"/>
</g>
<!-- Node950&#45;&gt;Node945 -->
<g id="edge9" class="edge">
<title>Node950&#45;&gt;Node945</title>
<path fill="none" stroke="#191970" d="M848.313,-304.5997C834.9655,-324.557 801.4608,-370.7623 762,-396 675.7375,-451.1704 644.8962,-466 542.5,-466 386,-466 386,-466 386,-466 238.4998,-466 182.8623,-233.0667 169.4369,-162.8182"/>
<polygon fill="#191970" stroke="#191970" points="172.8221,-161.873 167.5786,-152.6667 165.9365,-163.1336 172.8221,-161.873"/>
</g>
<!-- Node951 -->
<g id="node8" class="node">
<title>Node951</title>
<g id="a_node8"><a xlink:href="classSpikeMonitorCore.html#abe76071e1ac3632d55f2455b239b3d12" target="_top" xlink:title="returns recording mode ">
<polygon fill="#ffffff" stroke="#000000" points="947,-114.5 947,-133.5 1001,-133.5 1001,-114.5 947,-114.5"/>
<text text-anchor="middle" x="974" y="-121.5" font-family="Helvetica,sans-Serif" font-size="10.00" fill="#000000">getMode</text>
</a>
</g>
</g>
<!-- Node950&#45;&gt;Node951 -->
<g id="edge10" class="edge">
<title>Node950&#45;&gt;Node951</title>
<path fill="none" stroke="#191970" d="M861.2672,-285.3163C880.5751,-257.6874 936.1527,-178.1581 961.3325,-142.1268"/>
<polygon fill="#191970" stroke="#191970" points="964.4477,-143.7792 967.307,-133.5774 958.7099,-139.7694 964.4477,-143.7792"/>
</g>
<!-- Node953&#45;&gt;Node945 -->
<g id="edge13" class="edge">
<title>Node953&#45;&gt;Node945</title>
<path fill="none" stroke="#191970" d="M484.452,-191.2119C408.7774,-179.7551 278.0803,-159.9683 210.0427,-149.6678"/>
<polygon fill="#191970" stroke="#191970" points="210.4872,-146.1953 200.0759,-148.1589 209.4393,-153.1164 210.4872,-146.1953"/>
</g>
<!-- Node953&#45;&gt;Node949 -->
<g id="edge14" class="edge">
<title>Node953&#45;&gt;Node949</title>
<path fill="none" stroke="#191970" d="M600.8982,-206.9132C614.8904,-208.5696 629.842,-210.3395 643.8671,-211.9998"/>
<polygon fill="#191970" stroke="#191970" points="643.5468,-215.4863 653.8889,-213.1862 644.3698,-208.5348 643.5468,-215.4863"/>
</g>
<!-- Node953&#45;&gt;Node952 -->
<g id="edge15" class="edge">
<title>Node953&#45;&gt;Node952</title>
<path fill="none" stroke="#191970" d="M552.54,-209.5083C579.2244,-234.7795 652.1543,-303.8471 685.6995,-335.6157"/>
<polygon fill="#191970" stroke="#191970" points="683.2964,-338.1604 692.9638,-342.4953 688.1097,-333.0778 683.2964,-338.1604"/>
</g>
<!-- Node954&#45;&gt;Node945 -->
<g id="edge17" class="edge">
<title>Node954&#45;&gt;Node945</title>
<path fill="none" stroke="#191970" d="M332.1819,-128.6479C294.7695,-131.879 245.5047,-136.1337 210.3486,-139.1699"/>
<polygon fill="#191970" stroke="#191970" points="210.0367,-135.6837 200.375,-140.0313 210.6391,-142.6577 210.0367,-135.6837"/>
</g>
<!-- Node954&#45;&gt;Node953 -->
<g id="edge18" class="edge">
<title>Node954&#45;&gt;Node953</title>
<path fill="none" stroke="#191970" d="M408.8882,-133.6112C418.8213,-137.8791 430.5495,-143.0487 441,-148 466.6413,-160.1484 495.3813,-174.9904 515.7158,-185.7036"/>
<polygon fill="#191970" stroke="#191970" points="514.2229,-188.8734 524.6989,-190.4558 517.4962,-182.6859 514.2229,-188.8734"/>
</g>
<!-- Node955 -->
<g id="node12" class="node">
<title>Node955</title>
<g id="a_node12"><a xlink:href="classSpikeMonitorCore.html#a0fc20fcc5876030d796debd148ae7cee" target="_top" xlink:title="returns a list of firing rates for all neurons in the group (sorted by neuron ID ascending) ...">
<polygon fill="#ffffff" stroke="#000000" points="496.5,-95.5 496.5,-114.5 588.5,-114.5 588.5,-95.5 496.5,-95.5"/>
<text text-anchor="middle" x="542.5" y="-102.5" font-family="Helvetica,sans-Serif" font-size="10.00" fill="#000000">getAllFiringRates</text>
</a>
</g>
</g>
<!-- Node954&#45;&gt;Node955 -->
<g id="edge19" class="edge">
<title>Node954&#45;&gt;Node955</title>
<path fill="none" stroke="#191970" d="M439.8584,-117.4613C454.801,-115.6472 471.0621,-113.673 486.1433,-111.842"/>
<polygon fill="#191970" stroke="#191970" points="486.8596,-115.2808 496.3649,-110.6011 486.0159,-108.3319 486.8596,-115.2808"/>
</g>
<!-- Node955&#45;&gt;Node945 -->
<g id="edge20" class="edge">
<title>Node955&#45;&gt;Node945</title>
<path fill="none" stroke="#191970" d="M496.1205,-101.9985C453.1557,-99.9282 387.5499,-98.5723 331,-105 288.2519,-109.8589 240.4515,-121.5826 207.3485,-130.7336"/>
<polygon fill="#191970" stroke="#191970" points="206.2498,-127.4066 197.5688,-133.4805 208.1427,-134.1458 206.2498,-127.4066"/>
</g>
<!-- Node956&#45;&gt;Node945 -->
<g id="edge22" class="edge">
<title>Node956&#45;&gt;Node945</title>
<path fill="none" stroke="#191970" d="M511.6783,-399.5814C468.5162,-411.1191 388.87,-425.4187 331,-395 235.6796,-344.896 186.9461,-212.3411 171.5282,-162.402"/>
<polygon fill="#191970" stroke="#191970" points="174.8057,-161.1446 168.596,-152.5603 168.0972,-163.1434 174.8057,-161.1446"/>
</g>
<!-- Node956&#45;&gt;Node950 -->
<g id="edge23" class="edge">
<title>Node956&#45;&gt;Node950</title>
<path fill="none" stroke="#191970" d="M608.2591,-394.311C653.1544,-394.8895 713.1198,-390.925 762,-371 793.7119,-358.0733 822.9205,-330.3039 839.7118,-312.1526"/>
<polygon fill="#191970" stroke="#191970" points="842.4378,-314.3554 846.5174,-304.5775 837.2306,-309.6773 842.4378,-314.3554"/>
</g>
<!-- Node956&#45;&gt;Node952 -->
<g id="edge24" class="edge">
<title>Node956&#45;&gt;Node952</title>
<path fill="none" stroke="#191970" d="M583.0009,-380.411C604.1806,-375.3965 630.3022,-369.2119 652.7604,-363.8947"/>
<polygon fill="#191970" stroke="#191970" points="653.8657,-367.2299 662.7903,-361.5201 652.2529,-360.4182 653.8657,-367.2299"/>
</g>
<!-- Node957&#45;&gt;Node945 -->
<g id="edge26" class="edge">
<title>Node957&#45;&gt;Node945</title>
<path fill="none" stroke="#191970" d="M260.5002,-19.5917C254.283,-26.6095 243.5676,-34.5329 236,-43 212.7362,-69.0291 191.948,-103.568 179.1866,-124.7204"/>
<polygon fill="#191970" stroke="#191970" points="176.104,-123.0537 173.908,-133.4184 182.0882,-126.6854 176.104,-123.0537"/>
</g>
<!-- Node957&#45;&gt;Node951 -->
<g id="edge27" class="edge">
<title>Node957&#45;&gt;Node951</title>
<path fill="none" stroke="#191970" d="M295.0166,-10C345.651,-10 452.3307,-10 542.5,-10 542.5,-10 542.5,-10 703,-10 803.5183,-10 909.7561,-77.4622 953.4297,-108.5935"/>
<polygon fill="#191970" stroke="#191970" points="951.3927,-111.4397 961.5431,-114.4765 955.5019,-105.7727 951.3927,-111.4397"/>
</g>
</g>
</svg>
        <g id="navigator" transform="translate(0 0)" fill="#404254">
                <rect fill="#f2f5e9" fill-opacity="0.5" stroke="#606060" stroke-width=".5" x="0" y="0" width="60" height="60"/>
                <use id="zoomplus" xlink:href="#zoomPlus" x="17" y="9" onmousedown="handleZoom(evt,'in')"/>
                <use id="zoomminus" xlink:href="#zoomMin" x="42" y="9" onmousedown="handleZoom(evt,'out')"/>
                <use id="reset" xlink:href="#resetDef" x="30" y="36" onmousedown="handleReset()"/>
                <g id="arrowUp" xlink:href="#dirArrow" transform="translate(30 24)" onmousedown="handlePan(0,-1)">
                  <use xlink:href="#rim" fill="#404040">
                        <set attributeName="fill" to="#808080" begin="arrowUp.mouseover" end="arrowUp.mouseout"/>
                  </use>
                  <path fill="none" stroke="white" stroke-width="1.5" d="M0,-3.0v7 M-2.5,-0.5L0,-3.0L2.5,-0.5"/>
                </g>
                <g id="arrowRight" xlink:href="#dirArrow" transform="rotate(90) translate(36 -43)" onmousedown="handlePan(1,0)">
                  <use xlink:href="#rim" fill="#404040">
                        <set attributeName="fill" to="#808080" begin="arrowRight.mouseover" end="arrowRight.mouseout"/>
                  </use>
                  <path fill="none" stroke="white" stroke-width="1.5" d="M0,-3.0v7 M-2.5,-0.5L0,-3.0L2.5,-0.5"/>
                </g>
                <g id="arrowDown" xlink:href="#dirArrow" transform="rotate(180) translate(-30 -48)" onmousedown="handlePan(0,1)">
                  <use xlink:href="#rim" fill="#404040">
                        <set attributeName="fill" to="#808080" begin="arrowDown.mouseover" end="arrowDown.mouseout"/>
                  </use>
                  <path fill="none" stroke="white" stroke-width="1.5" d="M0,-3.0v7 M-2.5,-0.5L0,-3.0L2.5,-0.5"/>
                </g>
                <g id="arrowLeft" xlink:href="#dirArrow" transform="rotate(270) translate(-36 17)" onmousedown="handlePan(-1,0)">
                  <use xlink:href="#rim" fill="#404040">
                        <set attributeName="fill" to="#808080" begin="arrowLeft.mouseover" end="arrowLeft.mouseout"/>
                  </use>
                  <path fill="none" stroke="white" stroke-width="1.5" d="M0,-3.0v7 M-2.5,-0.5L0,-3.0L2.5,-0.5"/>
                </g>
        </g>
        <svg viewBox="0 0 15 15" width="100%" height="30px" preserveAspectRatio="xMaxYMin meet">
         <g id="arrow_out" transform="scale(0.3 0.3)">
          <a xlink:href="classSpikeMonitorCore_a64ccdac1d5dacee8b6e45e8a2a9fc40b_cgraph_org.svg" target="_base">
           <rect id="button" ry="5" rx="5" y="6" x="6" height="38" width="38"
                fill="#f2f5e9" fill-opacity="0.5" stroke="#606060" stroke-width="1.0"/>
           <path id="arrow"
             d="M 11.500037,31.436501 C 11.940474,20.09759 22.043105,11.32322 32.158766,21.979434 L 37.068811,17.246167 C 37.068811,17.246167 37.088388,32 37.088388,32 L 22.160133,31.978069 C 22.160133,31.978069 26.997745,27.140456 26.997745,27.140456 C 18.528582,18.264221 13.291696,25.230495 11.500037,31.436501 z"
             style="fill:#404040;"/>
          </a>
         </g>
        </svg>
</svg>
