<?xml version="1.0" encoding="UTF-8" standalone="no"?>
<!DOCTYPE svg PUBLIC "-//W3C//DTD SVG 1.1//EN"
 "http://www.w3.org/Graphics/SVG/1.1/DTD/svg11.dtd">
<!-- Generated by graphviz version 2.40.1 (20161225.0304)
 -->
<!-- Title: init Pages: 1 -->
<!--zoomable 127 -->
<svg id="main" version="1.1" xmlns="http://www.w3.org/2000/svg" xmlns:xlink="http://www.w3.org/1999/xlink" xml:space="preserve" onload="init(evt)">
<style type="text/css"><![CDATA[
.edge:hover path { stroke: red; }
.edge:hover polygon { stroke: red; fill: red; }
]]></style>
<script type="text/javascript"><![CDATA[
var edges = document.getElementsByTagName('g');
if (edges && edges.length) {
  for (var i=0;i<edges.length;i++) {
    if (edges[i].id.substr(0,4)=='edge') {
      edges[i].setAttribute('class','edge');
    }
  }
}
]]></script>
        <defs>
                <circle id="rim" cx="0" cy="0" r="7"/>
                <circle id="rim2" cx="0" cy="0" r="3.5"/>
                <g id="zoomPlus">
                        <use xlink:href="#rim" fill="#404040">
                                <set attributeName="fill" to="#808080" begin="zoomplus.mouseover" end="zoomplus.mouseout"/>
                        </use>
                        <path d="M-4,0h8M0,-4v8" fill="none" stroke="white" stroke-width="1.5" pointer-events="none"/>
                </g>
                <g id="zoomMin">
                        <use xlink:href="#rim" fill="#404040">
                                <set attributeName="fill" to="#808080" begin="zoomminus.mouseover" end="zoomminus.mouseout"/>
                        </use>
                        <path d="M-4,0h8" fill="none" stroke="white" stroke-width="1.5" pointer-events="none"/>
                </g>
                <g id="dirArrow">
                        <path fill="none" stroke="white" stroke-width="1.5" d="M0,-3.0v7 M-2.5,-0.5L0,-3.0L2.5,-0.5"/>
                </g>
               <g id="resetDef">
                       <use xlink:href="#rim2" fill="#404040">
                               <set attributeName="fill" to="#808080" begin="reset.mouseover" end="reset.mouseout"/>
                       </use>
               </g>
        </defs>

<script type="text/javascript">
var viewWidth = 1346;
var viewHeight = 127;
var sectionId = 'dynsection-29';
</script>
<script xlink:href="svgpan.js"/>
<svg id="graph" class="graph">
<g id="viewport">
<title>init</title>
<polygon fill="#ffffff" stroke="transparent" points="-4,4 -4,-123 1342,-123 1342,4 -4,4"/>
<!-- Node263 -->
<g id="node1" class="node">
<title>Node263</title>
<polygon fill="#bfbfbf" stroke="#000000" points="0,-48 0,-67 29,-67 29,-48 0,-48"/>
<text text-anchor="middle" x="14.5" y="-55" font-family="Helvetica,sans-Serif" font-size="10.00" fill="#000000">init</text>
</g>
<!-- Node264 -->
<g id="node2" class="node">
<title>Node264</title>
<g id="a_node2"><a xlink:href="classConnectionMonitorCore.html#ab64d9ff17fece61e850660bdd4ca00d2" target="_top" xlink:title="takeSnapshot">
<polygon fill="#ffffff" stroke="#000000" points="96.5,-86 96.5,-105 173.5,-105 173.5,-86 96.5,-86"/>
<text text-anchor="middle" x="135" y="-93" font-family="Helvetica,sans-Serif" font-size="10.00" fill="#000000">takeSnapshot</text>
</a>
</g>
</g>
<!-- Node263&#45;&gt;Node264 -->
<g id="edge1" class="edge">
<title>Node263&#45;&gt;Node264</title>
<path fill="none" stroke="#191970" d="M38.9944,-65.2244C58.0247,-71.2256 84.5118,-79.5784 104.8454,-85.9907"/>
<polygon fill="#191970" stroke="#191970" points="39.8653,-61.8292 29.2757,-62.1595 37.76,-68.5051 39.8653,-61.8292"/>
</g>
<!-- Node266 -->
<g id="node4" class="node">
<title>Node266</title>
<g id="a_node4"><a xlink:href="classConnectionMonitorCore.html#acf625cff31a558c7d6786773d0c2693c" target="_top" xlink:title="getUpdateTimeIntervalSec">
<polygon fill="#ffffff" stroke="#000000" points="251,-50 251,-69 384,-69 384,-50 251,-50"/>
<text text-anchor="middle" x="317.5" y="-57" font-family="Helvetica,sans-Serif" font-size="10.00" fill="#000000">getUpdateTimeIntervalSec</text>
</a>
</g>
</g>
<!-- Node263&#45;&gt;Node266 -->
<g id="edge10" class="edge">
<title>Node263&#45;&gt;Node266</title>
<path fill="none" stroke="#191970" d="M39.2939,-57.6637C85.0399,-57.9656 184.1287,-58.6197 250.8355,-59.06"/>
<polygon fill="#191970" stroke="#191970" points="39.1372,-54.1626 29.1143,-57.5965 39.091,-61.1625 39.1372,-54.1626"/>
</g>
<!-- Node273 -->
<g id="node11" class="node">
<title>Node273</title>
<g id="a_node11"><a xlink:href="classSNN.html#a9773c7b8f7fbb53c92ec5623ea99cb69" target="_top" xlink:title="sets up a network monitor registered with a callback to process the spikes. ">
<polygon fill="#ffffff" stroke="#000000" points="65,-9 65,-28 205,-28 205,-9 65,-9"/>
<text text-anchor="middle" x="135" y="-16" font-family="Helvetica,sans-Serif" font-size="10.00" fill="#000000">SNN::setConnectionMonitor</text>
</a>
</g>
</g>
<!-- Node263&#45;&gt;Node273 -->
<g id="edge11" class="edge">
<title>Node263&#45;&gt;Node273</title>
<path fill="none" stroke="#191970" d="M38.7996,-49.6354C57.9946,-43.4229 84.8645,-34.7264 105.3294,-28.1029"/>
<polygon fill="#191970" stroke="#191970" points="37.712,-46.3086 29.2757,-52.7178 39.8675,-52.9684 37.712,-46.3086"/>
</g>
<!-- Node265 -->
<g id="node3" class="node">
<title>Node265</title>
<g id="a_node3"><a xlink:href="classConnectionMonitor.html#ab64d9ff17fece61e850660bdd4ca00d2" target="_top" xlink:title="Takes a snapshot of the current weight state. ">
<polygon fill="#ffffff" stroke="#000000" points="265.5,-88.5 265.5,-118.5 369.5,-118.5 369.5,-88.5 265.5,-88.5"/>
<text text-anchor="start" x="273.5" y="-106.5" font-family="Helvetica,sans-Serif" font-size="10.00" fill="#000000">ConnectionMonitor::</text>
<text text-anchor="middle" x="317.5" y="-95.5" font-family="Helvetica,sans-Serif" font-size="10.00" fill="#000000">takeSnapshot</text>
</a>
</g>
</g>
<!-- Node264&#45;&gt;Node265 -->
<g id="edge2" class="edge">
<title>Node264&#45;&gt;Node265</title>
<path fill="none" stroke="#191970" d="M183.7684,-97.6378C208.9518,-98.7417 239.6923,-100.0893 265.3479,-101.2139"/>
<polygon fill="#191970" stroke="#191970" points="183.8473,-94.138 173.7036,-97.1966 183.5407,-101.1313 183.8473,-94.138"/>
</g>
<!-- Node264&#45;&gt;Node266 -->
<g id="edge3" class="edge">
<title>Node264&#45;&gt;Node266</title>
<path fill="none" stroke="#191970" d="M183.5171,-85.9295C209.9813,-80.7092 242.6396,-74.267 269.0874,-69.0499"/>
<polygon fill="#191970" stroke="#191970" points="182.8371,-82.4961 173.7036,-87.8653 184.1919,-89.3638 182.8371,-82.4961"/>
</g>
<!-- Node267 -->
<g id="node5" class="node">
<title>Node267</title>
<g id="a_node5"><a xlink:href="classSNN.html#a68862cb4e6c749219c20c38aeab06986" target="_top" xlink:title="polls connection weights ">
<polygon fill="#ffffff" stroke="#000000" points="433,-50 433,-69 588,-69 588,-50 433,-50"/>
<text text-anchor="middle" x="510.5" y="-57" font-family="Helvetica,sans-Serif" font-size="10.00" fill="#000000">SNN::updateConnectionMonitor</text>
</a>
</g>
</g>
<!-- Node266&#45;&gt;Node267 -->
<g id="edge4" class="edge">
<title>Node266&#45;&gt;Node267</title>
<path fill="none" stroke="#191970" d="M394.2564,-59.5C406.9581,-59.5 420.1365,-59.5 432.8598,-59.5"/>
<polygon fill="#191970" stroke="#191970" points="394.1899,-56.0001 384.1899,-59.5 394.1899,-63.0001 394.1899,-56.0001"/>
</g>
<!-- Node268 -->
<g id="node6" class="node">
<title>Node268</title>
<g id="a_node6"><a xlink:href="classSNN.html#a3df37c7539f784fe7a939c5da922f41b" target="_top" xlink:title="run the simulation for n sec ">
<polygon fill="#ffffff" stroke="#000000" points="627,-50 627,-69 722,-69 722,-50 627,-50"/>
<text text-anchor="middle" x="674.5" y="-57" font-family="Helvetica,sans-Serif" font-size="10.00" fill="#000000">SNN::runNetwork</text>
</a>
</g>
</g>
<!-- Node267&#45;&gt;Node268 -->
<g id="edge5" class="edge">
<title>Node267&#45;&gt;Node268</title>
<path fill="none" stroke="#191970" d="M598.4292,-59.5C608.2499,-59.5 617.9566,-59.5 626.9818,-59.5"/>
<polygon fill="#191970" stroke="#191970" points="598.1776,-56.0001 588.1776,-59.5 598.1775,-63.0001 598.1776,-56.0001"/>
</g>
<!-- Node269 -->
<g id="node7" class="node">
<title>Node269</title>
<g id="a_node7"><a xlink:href="classCARLsim_1_1Impl.html#a749f370debe5eec8661cf9ca1b1bb4c0" target="_top" xlink:title="CARLsim::Impl::runNetwork">
<polygon fill="#ffffff" stroke="#000000" points="758,-50 758,-69 898,-69 898,-50 758,-50"/>
<text text-anchor="middle" x="828" y="-57" font-family="Helvetica,sans-Serif" font-size="10.00" fill="#000000">CARLsim::Impl::runNetwork</text>
</a>
</g>
</g>
<!-- Node268&#45;&gt;Node269 -->
<g id="edge6" class="edge">
<title>Node268&#45;&gt;Node269</title>
<path fill="none" stroke="#191970" d="M732.4873,-59.5C740.7425,-59.5 749.3063,-59.5 757.7638,-59.5"/>
<polygon fill="#191970" stroke="#191970" points="732.227,-56.0001 722.2269,-59.5 732.2269,-63.0001 732.227,-56.0001"/>
</g>
<!-- Node270 -->
<g id="node8" class="node">
<title>Node270</title>
<g id="a_node8"><a xlink:href="classCARLsim.html#aafb2d44405c96aafe089f96ff867018d" target="_top" xlink:title="run the simulation for time=(nSec*seconds + nMsec*milliseconds) ">
<polygon fill="#ffffff" stroke="#000000" points="934,-50 934,-69 1050,-69 1050,-50 934,-50"/>
<text text-anchor="middle" x="992" y="-57" font-family="Helvetica,sans-Serif" font-size="10.00" fill="#000000">CARLsim::runNetwork</text>
</a>
</g>
</g>
<!-- Node269&#45;&gt;Node270 -->
<g id="edge7" class="edge">
<title>Node269&#45;&gt;Node270</title>
<path fill="none" stroke="#191970" d="M908.1489,-59.5C916.8022,-59.5 925.483,-59.5 933.8055,-59.5"/>
<polygon fill="#191970" stroke="#191970" points="908.0265,-56.0001 898.0265,-59.5 908.0264,-63.0001 908.0265,-56.0001"/>
</g>
<!-- Node271 -->
<g id="node9" class="node">
<title>Node271</title>
<g id="a_node9"><a xlink:href="classSimpleWeightTuner_1_1Impl.html#a312d84bfa66a5036bb52a4c39db6fa6c" target="_top" xlink:title="SimpleWeightTuner::\lImpl::iterate">
<polygon fill="#ffffff" stroke="#000000" points="1086,-44.5 1086,-74.5 1194,-74.5 1194,-44.5 1086,-44.5"/>
<text text-anchor="start" x="1094" y="-62.5" font-family="Helvetica,sans-Serif" font-size="10.00" fill="#000000">SimpleWeightTuner::</text>
<text text-anchor="middle" x="1140" y="-51.5" font-family="Helvetica,sans-Serif" font-size="10.00" fill="#000000">Impl::iterate</text>
</a>
</g>
</g>
<!-- Node270&#45;&gt;Node271 -->
<g id="edge8" class="edge">
<title>Node270&#45;&gt;Node271</title>
<path fill="none" stroke="#191970" d="M1060.1513,-59.5C1068.8066,-59.5 1077.5692,-59.5 1085.9617,-59.5"/>
<polygon fill="#191970" stroke="#191970" points="1060.0688,-56.0001 1050.0687,-59.5 1060.0687,-63.0001 1060.0688,-56.0001"/>
</g>
<!-- Node272 -->
<g id="node10" class="node">
<title>Node272</title>
<g id="a_node10"><a xlink:href="classSimpleWeightTuner.html#a0df985e3ff7a27edc1e2e3fcc8261843" target="_top" xlink:title="Performs an iteration step of the tuning algorithm. ">
<polygon fill="#ffffff" stroke="#000000" points="1230,-44.5 1230,-74.5 1338,-74.5 1338,-44.5 1230,-44.5"/>
<text text-anchor="start" x="1238" y="-62.5" font-family="Helvetica,sans-Serif" font-size="10.00" fill="#000000">SimpleWeightTuner::</text>
<text text-anchor="middle" x="1284" y="-51.5" font-family="Helvetica,sans-Serif" font-size="10.00" fill="#000000">iterate</text>
</a>
</g>
</g>
<!-- Node271&#45;&gt;Node272 -->
<g id="edge9" class="edge">
<title>Node271&#45;&gt;Node272</title>
<path fill="none" stroke="#191970" d="M1204.2702,-59.5C1212.7504,-59.5 1221.3754,-59.5 1229.6672,-59.5"/>
<polygon fill="#191970" stroke="#191970" points="1204.03,-56.0001 1194.03,-59.5 1204.0299,-63.0001 1204.03,-56.0001"/>
</g>
<!-- Node274 -->
<g id="node12" class="node">
<title>Node274</title>
<g id="a_node12"><a xlink:href="classCARLsim_1_1Impl.html#a012dcdbbe9769131d98ddf680743bff3" target="_top" xlink:title="CARLsim::Impl::setConnection\lMonitor">
<polygon fill="#ffffff" stroke="#000000" points="241,-.5 241,-30.5 394,-30.5 394,-.5 241,-.5"/>
<text text-anchor="start" x="249" y="-18.5" font-family="Helvetica,sans-Serif" font-size="10.00" fill="#000000">CARLsim::Impl::setConnection</text>
<text text-anchor="middle" x="317.5" y="-7.5" font-family="Helvetica,sans-Serif" font-size="10.00" fill="#000000">Monitor</text>
</a>
</g>
</g>
<!-- Node273&#45;&gt;Node274 -->
<g id="edge12" class="edge">
<title>Node273&#45;&gt;Node274</title>
<path fill="none" stroke="#191970" d="M215.0599,-17.1839C223.6663,-17.0425 232.4075,-16.8988 240.9711,-16.758"/>
<polygon fill="#191970" stroke="#191970" points="214.9784,-13.6847 205.0373,-17.3487 215.0935,-20.6838 214.9784,-13.6847"/>
</g>
<!-- Node275 -->
<g id="node13" class="node">
<title>Node275</title>
<g id="a_node13"><a xlink:href="classCARLsim.html#a0f4f273689484d0ceaa5a40f64fc82fc" target="_top" xlink:title="Sets a connection monitor for a group, custom ConnectionMonitor class. ">
<polygon fill="#ffffff" stroke="#000000" points="430,-6 430,-25 591,-25 591,-6 430,-6"/>
<text text-anchor="middle" x="510.5" y="-13" font-family="Helvetica,sans-Serif" font-size="10.00" fill="#000000">CARLsim::setConnectionMonitor</text>
</a>
</g>
</g>
<!-- Node274&#45;&gt;Node275 -->
<g id="edge13" class="edge">
<title>Node274&#45;&gt;Node275</title>
<path fill="none" stroke="#191970" d="M404.0833,-15.5C412.6808,-15.5 421.3844,-15.5 429.9173,-15.5"/>
<polygon fill="#191970" stroke="#191970" points="404.0559,-12.0001 394.0559,-15.5 404.0559,-19.0001 404.0559,-12.0001"/>
</g>
</g>
</svg>
        <g id="navigator" transform="translate(0 0)" fill="#404254">
                <rect fill="#f2f5e9" fill-opacity="0.5" stroke="#606060" stroke-width=".5" x="0" y="0" width="60" height="60"/>
                <use id="zoomplus" xlink:href="#zoomPlus" x="17" y="9" onmousedown="handleZoom(evt,'in')"/>
                <use id="zoomminus" xlink:href="#zoomMin" x="42" y="9" onmousedown="handleZoom(evt,'out')"/>
                <use id="reset" xlink:href="#resetDef" x="30" y="36" onmousedown="handleReset()"/>
                <g id="arrowUp" xlink:href="#dirArrow" transform="translate(30 24)" onmousedown="handlePan(0,-1)">
                  <use xlink:href="#rim" fill="#404040">
                        <set attributeName="fill" to="#808080" begin="arrowUp.mouseover" end="arrowUp.mouseout"/>
                  </use>
                  <path fill="none" stroke="white" stroke-width="1.5" d="M0,-3.0v7 M-2.5,-0.5L0,-3.0L2.5,-0.5"/>
                </g>
                <g id="arrowRight" xlink:href="#dirArrow" transform="rotate(90) translate(36 -43)" onmousedown="handlePan(1,0)">
                  <use xlink:href="#rim" fill="#404040">
                        <set attributeName="fill" to="#808080" begin="arrowRight.mouseover" end="arrowRight.mouseout"/>
                  </use>
                  <path fill="none" stroke="white" stroke-width="1.5" d="M0,-3.0v7 M-2.5,-0.5L0,-3.0L2.5,-0.5"/>
                </g>
                <g id="arrowDown" xlink:href="#dirArrow" transform="rotate(180) translate(-30 -48)" onmousedown="handlePan(0,1)">
                  <use xlink:href="#rim" fill="#404040">
                        <set attributeName="fill" to="#808080" begin="arrowDown.mouseover" end="arrowDown.mouseout"/>
                  </use>
                  <path fill="none" stroke="white" stroke-width="1.5" d="M0,-3.0v7 M-2.5,-0.5L0,-3.0L2.5,-0.5"/>
                </g>
                <g id="arrowLeft" xlink:href="#dirArrow" transform="rotate(270) translate(-36 17)" onmousedown="handlePan(-1,0)">
                  <use xlink:href="#rim" fill="#404040">
                        <set attributeName="fill" to="#808080" begin="arrowLeft.mouseover" end="arrowLeft.mouseout"/>
                  </use>
                  <path fill="none" stroke="white" stroke-width="1.5" d="M0,-3.0v7 M-2.5,-0.5L0,-3.0L2.5,-0.5"/>
                </g>
        </g>
        <svg viewBox="0 0 15 15" width="100%" height="30px" preserveAspectRatio="xMaxYMin meet">
         <g id="arrow_out" transform="scale(0.3 0.3)">
          <a xlink:href="classConnectionMonitorCore_a02fd73d861ef2e4aabb38c0c9ff82947_icgraph_org.svg" target="_base">
           <rect id="button" ry="5" rx="5" y="6" x="6" height="38" width="38"
                fill="#f2f5e9" fill-opacity="0.5" stroke="#606060" stroke-width="1.0"/>
           <path id="arrow"
             d="M 11.500037,31.436501 C 11.940474,20.09759 22.043105,11.32322 32.158766,21.979434 L 37.068811,17.246167 C 37.068811,17.246167 37.088388,32 37.088388,32 L 22.160133,31.978069 C 22.160133,31.978069 26.997745,27.140456 26.997745,27.140456 C 18.528582,18.264221 13.291696,25.230495 11.500037,31.436501 z"
             style="fill:#404040;"/>
          </a>
         </g>
        </svg>
</svg>
