<?xml version="1.0" encoding="UTF-8" standalone="no"?>
<!DOCTYPE svg PUBLIC "-//W3C//DTD SVG 1.1//EN"
 "http://www.w3.org/Graphics/SVG/1.1/DTD/svg11.dtd">
<!-- Generated by graphviz version 2.40.1 (20161225.0304)
 -->
<!-- Title: isGroupWithHomeostasis Pages: 1 -->
<!--zoomable 66 -->
<svg id="main" version="1.1" xmlns="http://www.w3.org/2000/svg" xmlns:xlink="http://www.w3.org/1999/xlink" xml:space="preserve" onload="init(evt)">
<style type="text/css"><![CDATA[
.edge:hover path { stroke: red; }
.edge:hover polygon { stroke: red; fill: red; }
]]></style>
<script type="text/javascript"><![CDATA[
var edges = document.getElementsByTagName('g');
if (edges && edges.length) {
  for (var i=0;i<edges.length;i++) {
    if (edges[i].id.substr(0,4)=='edge') {
      edges[i].setAttribute('class','edge');
    }
  }
}
]]></script>
        <defs>
                <circle id="rim" cx="0" cy="0" r="7"/>
                <circle id="rim2" cx="0" cy="0" r="3.5"/>
                <g id="zoomPlus">
                        <use xlink:href="#rim" fill="#404040">
                                <set attributeName="fill" to="#808080" begin="zoomplus.mouseover" end="zoomplus.mouseout"/>
                        </use>
                        <path d="M-4,0h8M0,-4v8" fill="none" stroke="white" stroke-width="1.5" pointer-events="none"/>
                </g>
                <g id="zoomMin">
                        <use xlink:href="#rim" fill="#404040">
                                <set attributeName="fill" to="#808080" begin="zoomminus.mouseover" end="zoomminus.mouseout"/>
                        </use>
                        <path d="M-4,0h8" fill="none" stroke="white" stroke-width="1.5" pointer-events="none"/>
                </g>
                <g id="dirArrow">
                        <path fill="none" stroke="white" stroke-width="1.5" d="M0,-3.0v7 M-2.5,-0.5L0,-3.0L2.5,-0.5"/>
                </g>
               <g id="resetDef">
                       <use xlink:href="#rim2" fill="#404040">
                               <set attributeName="fill" to="#808080" begin="reset.mouseover" end="reset.mouseout"/>
                       </use>
               </g>
        </defs>

<script type="text/javascript">
var viewWidth = 563;
var viewHeight = 66;
var sectionId = 'dynsection-108';
</script>
<script xlink:href="svgpan.js"/>
<svg id="graph" class="graph">
<g id="viewport">
<title>isGroupWithHomeostasis</title>
<polygon fill="#ffffff" stroke="transparent" points="-4,4 -4,-62 559,-62 559,4 -4,4"/>
<!-- Node551 -->
<g id="node1" class="node">
<title>Node551</title>
<polygon fill="#bfbfbf" stroke="#000000" points="0,-19.5 0,-38.5 128,-38.5 128,-19.5 0,-19.5"/>
<text text-anchor="middle" x="64" y="-26.5" font-family="Helvetica,sans-Serif" font-size="10.00" fill="#000000">isGroupWithHomeostasis</text>
</g>
<!-- Node552 -->
<g id="node2" class="node">
<title>Node552</title>
<g id="a_node2"><a xlink:href="classCARLsim_1_1Impl.html#aef4d35935c52e55a957aa96e4d6218f6" target="_top" xlink:title="setHomeoBaseFiringRate">
<polygon fill="#ffffff" stroke="#000000" points="188,-38.5 188,-57.5 317,-57.5 317,-38.5 188,-38.5"/>
<text text-anchor="middle" x="252.5" y="-45.5" font-family="Helvetica,sans-Serif" font-size="10.00" fill="#000000">setHomeoBaseFiringRate</text>
</a>
</g>
</g>
<!-- Node551&#45;&gt;Node552 -->
<g id="edge1" class="edge">
<title>Node551&#45;&gt;Node552</title>
<path fill="none" stroke="#191970" d="M138.1901,-36.478C154.6345,-38.1356 171.9332,-39.8792 187.956,-41.4942"/>
<polygon fill="#191970" stroke="#191970" points="138.3812,-32.9797 128.0805,-35.459 137.6791,-39.9444 138.3812,-32.9797"/>
</g>
<!-- Node554 -->
<g id="node4" class="node">
<title>Node554</title>
<g id="a_node4"><a xlink:href="classCARLsim.html#aa9a9c5646dd11beb60fcf70d2216024a" target="_top" xlink:title="Returns whether a group has homeostasis enabled. ">
<polygon fill="#ffffff" stroke="#000000" points="164,-.5 164,-19.5 341,-19.5 341,-.5 164,-.5"/>
<text text-anchor="middle" x="252.5" y="-7.5" font-family="Helvetica,sans-Serif" font-size="10.00" fill="#000000">CARLsim::isGroupWithHomeostasis</text>
</a>
</g>
</g>
<!-- Node551&#45;&gt;Node554 -->
<g id="edge3" class="edge">
<title>Node551&#45;&gt;Node554</title>
<path fill="none" stroke="#191970" d="M138.2261,-21.5183C146.6503,-20.6692 155.2983,-19.7975 163.8838,-18.9321"/>
<polygon fill="#191970" stroke="#191970" points="137.6791,-18.0556 128.0805,-22.541 138.3812,-25.0203 137.6791,-18.0556"/>
</g>
<!-- Node553 -->
<g id="node3" class="node">
<title>Node553</title>
<g id="a_node3"><a xlink:href="classCARLsim.html#a4f0d341bb17f0d6e0b3aa8db28ef4513" target="_top" xlink:title="Sets the homeostatic target firing rate (enforced through homeostatic synaptic scaling) ...">
<polygon fill="#ffffff" stroke="#000000" points="377,-38.5 377,-57.5 555,-57.5 555,-38.5 377,-38.5"/>
<text text-anchor="middle" x="466" y="-45.5" font-family="Helvetica,sans-Serif" font-size="10.00" fill="#000000">CARLsim::setHomeoBaseFiringRate</text>
</a>
</g>
</g>
<!-- Node552&#45;&gt;Node553 -->
<g id="edge2" class="edge">
<title>Node552&#45;&gt;Node553</title>
<path fill="none" stroke="#191970" d="M327.4426,-48C343.3795,-48 360.3574,-48 376.7675,-48"/>
<polygon fill="#191970" stroke="#191970" points="327.1365,-44.5001 317.1364,-48 327.1364,-51.5001 327.1365,-44.5001"/>
</g>
</g>
</svg>
        <g id="navigator" transform="translate(0 0)" fill="#404254">
                <rect fill="#f2f5e9" fill-opacity="0.5" stroke="#606060" stroke-width=".5" x="0" y="0" width="60" height="60"/>
                <use id="zoomplus" xlink:href="#zoomPlus" x="17" y="9" onmousedown="handleZoom(evt,'in')"/>
                <use id="zoomminus" xlink:href="#zoomMin" x="42" y="9" onmousedown="handleZoom(evt,'out')"/>
                <use id="reset" xlink:href="#resetDef" x="30" y="36" onmousedown="handleReset()"/>
                <g id="arrowUp" xlink:href="#dirArrow" transform="translate(30 24)" onmousedown="handlePan(0,-1)">
                  <use xlink:href="#rim" fill="#404040">
                        <set attributeName="fill" to="#808080" begin="arrowUp.mouseover" end="arrowUp.mouseout"/>
                  </use>
                  <path fill="none" stroke="white" stroke-width="1.5" d="M0,-3.0v7 M-2.5,-0.5L0,-3.0L2.5,-0.5"/>
                </g>
                <g id="arrowRight" xlink:href="#dirArrow" transform="rotate(90) translate(36 -43)" onmousedown="handlePan(1,0)">
                  <use xlink:href="#rim" fill="#404040">
                        <set attributeName="fill" to="#808080" begin="arrowRight.mouseover" end="arrowRight.mouseout"/>
                  </use>
                  <path fill="none" stroke="white" stroke-width="1.5" d="M0,-3.0v7 M-2.5,-0.5L0,-3.0L2.5,-0.5"/>
                </g>
                <g id="arrowDown" xlink:href="#dirArrow" transform="rotate(180) translate(-30 -48)" onmousedown="handlePan(0,1)">
                  <use xlink:href="#rim" fill="#404040">
                        <set attributeName="fill" to="#808080" begin="arrowDown.mouseover" end="arrowDown.mouseout"/>
                  </use>
                  <path fill="none" stroke="white" stroke-width="1.5" d="M0,-3.0v7 M-2.5,-0.5L0,-3.0L2.5,-0.5"/>
                </g>
                <g id="arrowLeft" xlink:href="#dirArrow" transform="rotate(270) translate(-36 17)" onmousedown="handlePan(-1,0)">
                  <use xlink:href="#rim" fill="#404040">
                        <set attributeName="fill" to="#808080" begin="arrowLeft.mouseover" end="arrowLeft.mouseout"/>
                  </use>
                  <path fill="none" stroke="white" stroke-width="1.5" d="M0,-3.0v7 M-2.5,-0.5L0,-3.0L2.5,-0.5"/>
                </g>
        </g>
        <svg viewBox="0 0 15 15" width="100%" height="30px" preserveAspectRatio="xMaxYMin meet">
         <g id="arrow_out" transform="scale(0.3 0.3)">
          <a xlink:href="classCARLsim_1_1Impl_aa9a9c5646dd11beb60fcf70d2216024a_icgraph_org.svg" target="_base">
           <rect id="button" ry="5" rx="5" y="6" x="6" height="38" width="38"
                fill="#f2f5e9" fill-opacity="0.5" stroke="#606060" stroke-width="1.0"/>
           <path id="arrow"
             d="M 11.500037,31.436501 C 11.940474,20.09759 22.043105,11.32322 32.158766,21.979434 L 37.068811,17.246167 C 37.068811,17.246167 37.088388,32 37.088388,32 L 22.160133,31.978069 C 22.160133,31.978069 26.997745,27.140456 26.997745,27.140456 C 18.528582,18.264221 13.291696,25.230495 11.500037,31.436501 z"
             style="fill:#404040;"/>
          </a>
         </g>
        </svg>
</svg>
