<?xml version="1.0" encoding="UTF-8" standalone="no"?>
<!DOCTYPE svg PUBLIC "-//W3C//DTD SVG 1.1//EN"
 "http://www.w3.org/Graphics/SVG/1.1/DTD/svg11.dtd">
<!-- Generated by graphviz version 2.40.1 (20161225.0304)
 -->
<!-- Title: cudaDeviceCount Pages: 1 -->
<svg width="301pt" height="66pt"
 viewBox="0.00 0.00 301.00 66.00" xmlns="http://www.w3.org/2000/svg" xmlns:xlink="http://www.w3.org/1999/xlink">
<g id="graph0" class="graph" transform="scale(1 1) rotate(0) translate(4 62)">
<title>cudaDeviceCount</title>
<polygon fill="#ffffff" stroke="transparent" points="-4,4 -4,-62 297,-62 297,4 -4,4"/>
<!-- Node36 -->
<g id="node1" class="node">
<title>Node36</title>
<polygon fill="#bfbfbf" stroke="#000000" points="0,-19.5 0,-38.5 95,-38.5 95,-19.5 0,-19.5"/>
<text text-anchor="middle" x="47.5" y="-26.5" font-family="Helvetica,sans-Serif" font-size="10.00" fill="#000000">cudaDeviceCount</text>
</g>
<!-- Node37 -->
<g id="node2" class="node">
<title>Node37</title>
<g id="a_node2"><a xlink:href="classCARLsim.html#abb10cfa3d0f3a246442e1187ecb837ae" target="_top" xlink:title="Sets default values for STP params U, tau_u, and tau_x of a neuron group (pre&#45;synaptically) ...">
<polygon fill="#ffffff" stroke="#000000" points="131,-38.5 131,-57.5 293,-57.5 293,-38.5 131,-38.5"/>
<text text-anchor="middle" x="212" y="-45.5" font-family="Helvetica,sans-Serif" font-size="10.00" fill="#000000">CARLsim::setDefaultSTPparams</text>
</a>
</g>
</g>
<!-- Node36&#45;&gt;Node37 -->
<g id="edge1" class="edge">
<title>Node36&#45;&gt;Node37</title>
<path fill="none" stroke="#191970" d="M105.027,-35.6445C113.3545,-36.6063 122.0547,-37.6112 130.7402,-38.6144"/>
<polygon fill="#191970" stroke="#191970" points="105.4158,-32.1662 95.0802,-34.4956 104.6126,-39.1199 105.4158,-32.1662"/>
</g>
<!-- Node38 -->
<g id="node3" class="node">
<title>Node38</title>
<g id="a_node3"><a xlink:href="classSNN.html#a24dba53ca8fc9891488d0b1e16f9fe08" target="_top" xlink:title="isSimulationWithSTP">
<polygon fill="#ffffff" stroke="#000000" points="157,-.5 157,-19.5 267,-19.5 267,-.5 157,-.5"/>
<text text-anchor="middle" x="212" y="-7.5" font-family="Helvetica,sans-Serif" font-size="10.00" fill="#000000">isSimulationWithSTP</text>
</a>
</g>
</g>
<!-- Node36&#45;&gt;Node38 -->
<g id="edge2" class="edge">
<title>Node36&#45;&gt;Node38</title>
<path fill="none" stroke="#191970" d="M105.311,-22.3227C122.0976,-20.3839 140.3781,-18.2724 156.988,-16.354"/>
<polygon fill="#191970" stroke="#191970" points="104.6126,-18.8801 95.0802,-23.5044 105.4158,-25.8338 104.6126,-18.8801"/>
</g>
</g>
</svg>
