<?xml version="1.0" encoding="UTF-8" standalone="no"?>
<!DOCTYPE svg PUBLIC "-//W3C//DTD SVG 1.1//EN"
 "http://www.w3.org/Graphics/SVG/1.1/DTD/svg11.dtd">
<!-- Generated by graphviz version 2.40.1 (20161225.0304)
 -->
<!-- Title: getMinFiringRate Pages: 1 -->
<svg width="289pt" height="66pt"
 viewBox="0.00 0.00 289.00 66.00" xmlns="http://www.w3.org/2000/svg" xmlns:xlink="http://www.w3.org/1999/xlink">
<g id="graph0" class="graph" transform="scale(1 1) rotate(0) translate(4 62)">
<title>getMinFiringRate</title>
<polygon fill="#ffffff" stroke="transparent" points="-4,4 -4,-62 285,-62 285,4 -4,4"/>
<!-- Node252 -->
<g id="node1" class="node">
<title>Node252</title>
<polygon fill="#bfbfbf" stroke="#000000" points="0,-19.5 0,-38.5 91,-38.5 91,-19.5 0,-19.5"/>
<text text-anchor="middle" x="45.5" y="-26.5" font-family="Helvetica,sans-Serif" font-size="10.00" fill="#000000">getMinFiringRate</text>
</g>
<!-- Node253 -->
<g id="node2" class="node">
<title>Node253</title>
<g id="a_node2"><a xlink:href="classSpikeMonitor.html#a30bedc8503ea2e68ce042291f25fd0f8" target="_top" xlink:title="returns the smallest neuronal mean firing rate in the group ">
<polygon fill="#ffffff" stroke="#000000" points="127,-38.5 127,-57.5 281,-57.5 281,-38.5 127,-38.5"/>
<text text-anchor="middle" x="204" y="-45.5" font-family="Helvetica,sans-Serif" font-size="10.00" fill="#000000">SpikeMonitor::getMinFiringRate</text>
</a>
</g>
</g>
<!-- Node252&#45;&gt;Node253 -->
<g id="edge1" class="edge">
<title>Node252&#45;&gt;Node253</title>
<path fill="none" stroke="#191970" d="M101.5347,-35.7171C109.7575,-36.7028 118.346,-37.7323 126.901,-38.7579"/>
<polygon fill="#191970" stroke="#191970" points="101.6903,-32.2108 91.3448,-34.4956 100.8571,-39.161 101.6903,-32.2108"/>
</g>
<!-- Node254 -->
<g id="node3" class="node">
<title>Node254</title>
<g id="a_node3"><a xlink:href="classSpikeMonitorCore.html#a1f1e21d6e994001e7b7e6acbb88990be" target="_top" xlink:title="returns number of neurons in the group ">
<polygon fill="#ffffff" stroke="#000000" points="152,-.5 152,-19.5 256,-19.5 256,-.5 152,-.5"/>
<text text-anchor="middle" x="204" y="-7.5" font-family="Helvetica,sans-Serif" font-size="10.00" fill="#000000">getGrpNumNeurons</text>
</a>
</g>
</g>
<!-- Node252&#45;&gt;Node254 -->
<g id="edge2" class="edge">
<title>Node252&#45;&gt;Node254</title>
<path fill="none" stroke="#191970" d="M101.3505,-22.305C117.7716,-20.3365 135.6652,-18.1916 151.8456,-16.2519"/>
<polygon fill="#191970" stroke="#191970" points="100.8571,-18.839 91.3448,-23.5044 101.6903,-25.7892 100.8571,-18.839"/>
</g>
</g>
</svg>
