<?xml version="1.0" encoding="UTF-8" standalone="no"?>
<!DOCTYPE svg PUBLIC "-//W3C//DTD SVG 1.1//EN"
 "http://www.w3.org/Graphics/SVG/1.1/DTD/svg11.dtd">
<!-- Generated by graphviz version 2.40.1 (20161225.0304)
 -->
<!-- Title: setNeuronFileId Pages: 1 -->
<svg width="967pt" height="385pt"
 viewBox="0.00 0.00 967.00 385.18" xmlns="http://www.w3.org/2000/svg" xmlns:xlink="http://www.w3.org/1999/xlink">
<g id="graph0" class="graph" transform="scale(1 1) rotate(0) translate(4 381.1814)">
<title>setNeuronFileId</title>
<polygon fill="#ffffff" stroke="transparent" points="-4,4 -4,-381.1814 963,-381.1814 963,4 -4,4"/>
<!-- Node568 -->
<g id="node1" class="node">
<title>Node568</title>
<polygon fill="#bfbfbf" stroke="#000000" points="0,-228.5 0,-247.5 86,-247.5 86,-228.5 0,-228.5"/>
<text text-anchor="middle" x="43" y="-235.5" font-family="Helvetica,sans-Serif" font-size="10.00" fill="#000000">setNeuronFileId</text>
</g>
<!-- Node569 -->
<g id="node2" class="node">
<title>Node569</title>
<g id="a_node2"><a xlink:href="classNeuronMonitorCore.html#a3a3ffdb35b09328d22e5d72503ed1f55" target="_top" xlink:title="returns recording status ">
<polygon fill="#ffffff" stroke="#000000" points="122,-228.5 122,-247.5 190,-247.5 190,-228.5 122,-228.5"/>
<text text-anchor="middle" x="156" y="-235.5" font-family="Helvetica,sans-Serif" font-size="10.00" fill="#000000">isRecording</text>
</a>
</g>
</g>
<!-- Node568&#45;&gt;Node569 -->
<g id="edge1" class="edge">
<title>Node568&#45;&gt;Node569</title>
<path fill="none" stroke="#191970" d="M86.0428,-231.4231C94.4677,-231.2025 103.3165,-231.1927 111.7791,-231.3937"/>
<polygon fill="#191970" stroke="#191970" points="111.7402,-234.8944 121.8556,-231.7434 111.983,-227.8986 111.7402,-234.8944"/>
</g>
<!-- Node587 -->
<g id="node20" class="node">
<title>Node587</title>
<g id="a_node20"><a xlink:href="classNeuronMonitorCore.html#a4d3c2252230fe74bf03bcc3045ff8972" target="_top" xlink:title="writeNeuronFileHeader">
<polygon fill="#ffffff" stroke="#000000" points="678.5,-152.5 678.5,-171.5 794.5,-171.5 794.5,-152.5 678.5,-152.5"/>
<text text-anchor="middle" x="736.5" y="-159.5" font-family="Helvetica,sans-Serif" font-size="10.00" fill="#000000">writeNeuronFileHeader</text>
</a>
</g>
</g>
<!-- Node568&#45;&gt;Node587 -->
<g id="edge42" class="edge">
<title>Node568&#45;&gt;Node587</title>
<path fill="none" stroke="#191970" d="M53.1683,-228.2804C83.126,-200.712 174.6903,-124 266,-124 266,-124 266,-124 410.5,-124 507.9776,-124 532.3556,-130.2826 629,-143 644.8765,-145.0892 661.9831,-147.869 677.7784,-150.656"/>
<polygon fill="#191970" stroke="#191970" points="677.4815,-154.1586 687.9427,-152.4813 678.7188,-147.2688 677.4815,-154.1586"/>
</g>
<!-- Node569&#45;&gt;Node568 -->
<g id="edge41" class="edge">
<title>Node569&#45;&gt;Node568</title>
<path fill="none" stroke="#191970" d="M121.8556,-244.2566C113.7529,-244.6331 104.9188,-244.7941 96.1905,-244.7397"/>
<polygon fill="#191970" stroke="#191970" points="96.0977,-241.2379 86.0428,-244.5769 95.9853,-248.237 96.0977,-241.2379"/>
</g>
<!-- Node570 -->
<g id="node3" class="node">
<title>Node570</title>
<g id="a_node3"><a xlink:href="classNeuronMonitorCore.html#a743a4ad47ef60bc593cc9882bd4ffb57" target="_top" xlink:title="inserts a (time,neurId) tupel into the D Neuron State vector ">
<polygon fill="#ffffff" stroke="#000000" points="526,-342.5 526,-361.5 618,-361.5 618,-342.5 526,-342.5"/>
<text text-anchor="middle" x="572" y="-349.5" font-family="Helvetica,sans-Serif" font-size="10.00" fill="#000000">pushNeuronState</text>
</a>
</g>
</g>
<!-- Node569&#45;&gt;Node570 -->
<g id="edge2" class="edge">
<title>Node569&#45;&gt;Node570</title>
<path fill="none" stroke="#191970" d="M179.8402,-247.5329C192.8899,-255.3694 209.6866,-265.548 226,-272 325.7995,-311.4712 450.857,-330.1573 519.9923,-340.9055"/>
<polygon fill="#191970" stroke="#191970" points="519.7656,-344.4125 530.1864,-342.4998 520.8473,-337.4966 519.7656,-344.4125"/>
</g>
<!-- Node571 -->
<g id="node4" class="node">
<title>Node571</title>
<g id="a_node4"><a xlink:href="classNeuronMonitorCore.html#ab91616c118b701c2afd9136393d1f19b" target="_top" xlink:title="starts recording Neuron state ">
<polygon fill="#ffffff" stroke="#000000" points="226,-190.5 226,-209.5 306,-209.5 306,-190.5 226,-190.5"/>
<text text-anchor="middle" x="266" y="-197.5" font-family="Helvetica,sans-Serif" font-size="10.00" fill="#000000">startRecording</text>
</a>
</g>
</g>
<!-- Node569&#45;&gt;Node571 -->
<g id="edge4" class="edge">
<title>Node569&#45;&gt;Node571</title>
<path fill="none" stroke="#191970" d="M170.3806,-228.3009C182.0642,-222.7731 199.2731,-216.1632 215.8833,-210.5867"/>
<polygon fill="#191970" stroke="#191970" points="217.1234,-213.8639 225.5477,-207.4388 214.9554,-207.2081 217.1234,-213.8639"/>
</g>
<!-- Node572 -->
<g id="node5" class="node">
<title>Node572</title>
<g id="a_node5"><a xlink:href="classNeuronMonitorCore.html#ac8bb3912a3ce86b15842e79d0b421204" target="_top" xlink:title="deletes data from the neuron state vector ">
<polygon fill="#ffffff" stroke="#000000" points="391.5,-275.5 391.5,-294.5 429.5,-294.5 429.5,-275.5 391.5,-275.5"/>
<text text-anchor="middle" x="410.5" y="-282.5" font-family="Helvetica,sans-Serif" font-size="10.00" fill="#000000">clear</text>
</a>
</g>
</g>
<!-- Node569&#45;&gt;Node572 -->
<g id="edge40" class="edge">
<title>Node569&#45;&gt;Node572</title>
<path fill="none" stroke="#191970" d="M190.1525,-236.4502C201.5439,-238.2635 214.3101,-240.7858 226,-243 280.8511,-253.3894 345.0477,-264.6748 381.4281,-273.698"/>
<polygon fill="#191970" stroke="#191970" points="380.792,-277.1494 391.3528,-276.3009 382.5679,-270.3784 380.792,-277.1494"/>
</g>
<!-- Node591 -->
<g id="node24" class="node">
<title>Node591</title>
<g id="a_node24"><a xlink:href="classNeuronMonitorCore.html#a25e0e98dd4519eaaa6b258f0dcb91ac7" target="_top" xlink:title="stops recording Neuron state ">
<polygon fill="#ffffff" stroke="#000000" points="226,-152.5 226,-171.5 306,-171.5 306,-152.5 226,-152.5"/>
<text text-anchor="middle" x="266" y="-159.5" font-family="Helvetica,sans-Serif" font-size="10.00" fill="#000000">stopRecording</text>
</a>
</g>
</g>
<!-- Node569&#45;&gt;Node591 -->
<g id="edge35" class="edge">
<title>Node569&#45;&gt;Node591</title>
<path fill="none" stroke="#191970" d="M161.1114,-228.2644C171.0645,-215.1532 194.1413,-193.7383 218.2386,-177.1525"/>
<polygon fill="#191970" stroke="#191970" points="220.3688,-179.9401 226.7848,-171.5088 216.5114,-174.0988 220.3688,-179.9401"/>
</g>
<!-- Node570&#45;&gt;Node569 -->
<g id="edge3" class="edge">
<title>Node570&#45;&gt;Node569</title>
<path fill="none" stroke="#191970" d="M525.7612,-353.5478C458.0007,-349.2048 328.6417,-330.5953 226,-290 204.6923,-281.5727 182.56,-266.7878 169.0297,-254.7194"/>
<polygon fill="#191970" stroke="#191970" points="171.3937,-252.1356 161.8012,-247.6374 166.4949,-257.1358 171.3937,-252.1356"/>
</g>
<!-- Node571&#45;&gt;Node569 -->
<g id="edge5" class="edge">
<title>Node571&#45;&gt;Node569</title>
<path fill="none" stroke="#191970" d="M251.9654,-209.5349C238.8444,-215.7774 218.5432,-223.4377 199.9863,-229.433"/>
<polygon fill="#191970" stroke="#191970" points="198.7051,-226.1662 190.2017,-232.4862 200.7904,-232.8485 198.7051,-226.1662"/>
</g>
<!-- Node571&#45;&gt;Node572 -->
<g id="edge6" class="edge">
<title>Node571&#45;&gt;Node572</title>
<path fill="none" stroke="#191970" d="M277.2071,-209.8644C291.4976,-222.0876 317.3222,-243.0088 342,-257 354.5226,-264.0998 369.2057,-270.3485 381.7591,-275.1311"/>
<polygon fill="#191970" stroke="#191970" points="380.6947,-278.4689 391.2881,-278.6406 383.1139,-271.9002 380.6947,-278.4689"/>
</g>
<!-- Node573 -->
<g id="node6" class="node">
<title>Node573</title>
<g id="a_node6"><a xlink:href="classSNN.html#a8dd319bdd9a54e38f9254cbec099c30a" target="_top" xlink:title="copy required neuron state values from ??? buffer to ??? buffer ">
<polygon fill="#ffffff" stroke="#000000" points="342,-228.5 342,-247.5 479,-247.5 479,-228.5 342,-228.5"/>
<text text-anchor="middle" x="410.5" y="-235.5" font-family="Helvetica,sans-Serif" font-size="10.00" fill="#000000">SNN::updateNeuronMonitor</text>
</a>
</g>
</g>
<!-- Node571&#45;&gt;Node573 -->
<g id="edge8" class="edge">
<title>Node571&#45;&gt;Node573</title>
<path fill="none" stroke="#191970" d="M302.4635,-209.589C321.2741,-214.5358 344.4146,-220.6211 364.4472,-225.8892"/>
<polygon fill="#191970" stroke="#191970" points="363.7374,-229.3215 374.2988,-228.4799 365.5177,-222.5517 363.7374,-229.3215"/>
</g>
<!-- Node576 -->
<g id="node9" class="node">
<title>Node576</title>
<g id="a_node9"><a xlink:href="classSNN.html#a424b0cf29d7dba87e4ebf244399acad0" target="_top" xlink:title="SNN::getSimTimeMs">
<polygon fill="#ffffff" stroke="#000000" points="517,-76.5 517,-95.5 627,-95.5 627,-76.5 517,-76.5"/>
<text text-anchor="middle" x="572" y="-83.5" font-family="Helvetica,sans-Serif" font-size="10.00" fill="#000000">SNN::getSimTimeMs</text>
</a>
</g>
</g>
<!-- Node571&#45;&gt;Node576 -->
<g id="edge34" class="edge">
<title>Node571&#45;&gt;Node576</title>
<path fill="none" stroke="#191970" d="M291.5631,-190.4765C346.2379,-170.1074 474.6134,-122.2813 536.8887,-99.0807"/>
<polygon fill="#191970" stroke="#191970" points="538.1456,-102.3475 546.2945,-95.5766 535.7018,-95.7879 538.1456,-102.3475"/>
</g>
<!-- Node582 -->
<g id="node15" class="node">
<title>Node582</title>
<g id="a_node15"><a xlink:href="classSNN.html#a85facd004ae52ee52e72451b5d874fae" target="_top" xlink:title="SNN::getSimTimeSec">
<polygon fill="#ffffff" stroke="#000000" points="515,-152.5 515,-171.5 629,-171.5 629,-152.5 515,-152.5"/>
<text text-anchor="middle" x="572" y="-159.5" font-family="Helvetica,sans-Serif" font-size="10.00" fill="#000000">SNN::getSimTimeSec</text>
</a>
</g>
</g>
<!-- Node571&#45;&gt;Node582 -->
<g id="edge33" class="edge">
<title>Node571&#45;&gt;Node582</title>
<path fill="none" stroke="#191970" d="M306.0967,-195.9317C348.9526,-191.4784 418.8608,-183.9119 479,-176 487.3774,-174.8979 496.1682,-173.6692 504.863,-172.4103"/>
<polygon fill="#191970" stroke="#191970" points="505.6089,-175.8384 514.9952,-170.9242 504.5931,-168.9125 505.6089,-175.8384"/>
</g>
<!-- Node572&#45;&gt;Node569 -->
<g id="edge7" class="edge">
<title>Node572&#45;&gt;Node569</title>
<path fill="none" stroke="#191970" d="M391.3528,-287.1149C357.8127,-284.9115 286.2656,-272.4149 226,-261 210.3774,-258.0409 192.8323,-254.5315 179.2155,-250.6338"/>
<polygon fill="#191970" stroke="#191970" points="180.2562,-247.292 169.6653,-247.5801 178.1243,-253.9595 180.2562,-247.292"/>
</g>
<!-- Node573&#45;&gt;Node569 -->
<g id="edge31" class="edge">
<title>Node573&#45;&gt;Node569</title>
<path fill="none" stroke="#191970" d="M341.9505,-238C296.8468,-238 239.1428,-238 200.0662,-238"/>
<polygon fill="#191970" stroke="#191970" points="200.059,-234.5001 190.0589,-238 200.0589,-241.5001 200.059,-234.5001"/>
</g>
<!-- Node573&#45;&gt;Node570 -->
<g id="edge32" class="edge">
<title>Node573&#45;&gt;Node570</title>
<path fill="none" stroke="#191970" d="M446.9378,-247.6052C458.1567,-251.8735 469.9286,-257.8345 479,-266 504.1247,-288.6156 489.1397,-311.2293 515,-333 517.0249,-334.7047 519.2084,-336.2581 521.4991,-337.6735"/>
<polygon fill="#191970" stroke="#191970" points="520.2694,-340.9784 530.7578,-342.4764 523.4928,-334.7647 520.2694,-340.9784"/>
</g>
<!-- Node574 -->
<g id="node7" class="node">
<title>Node574</title>
<g id="a_node7"><a xlink:href="classNeuronMonitorCore.html#a102f8a26e80c556ee9a2ac503cd38ec9" target="_top" xlink:title="returns timestamp of last NeuronMonitor update ">
<polygon fill="#ffffff" stroke="#000000" points="529,-304.5 529,-323.5 615,-323.5 615,-304.5 529,-304.5"/>
<text text-anchor="middle" x="572" y="-311.5" font-family="Helvetica,sans-Serif" font-size="10.00" fill="#000000">getLastUpdated</text>
</a>
</g>
</g>
<!-- Node573&#45;&gt;Node574 -->
<g id="edge9" class="edge">
<title>Node573&#45;&gt;Node574</title>
<path fill="none" stroke="#191970" d="M439.0388,-247.5436C451.6849,-252.3022 466.4967,-258.6223 479,-266 496.6949,-276.441 496.9689,-285.1511 515,-295 518.9164,-297.1392 523.1157,-299.0941 527.3939,-300.8664"/>
<polygon fill="#191970" stroke="#191970" points="526.2159,-304.163 536.8067,-304.4556 528.71,-297.6223 526.2159,-304.163"/>
</g>
<!-- Node575 -->
<g id="node8" class="node">
<title>Node575</title>
<g id="a_node8"><a xlink:href="classSNN.html#a5fd2b156623d78138bcb44167eabab78" target="_top" xlink:title="SNN::getSimTime">
<polygon fill="#ffffff" stroke="#000000" points="523.5,-266.5 523.5,-285.5 620.5,-285.5 620.5,-266.5 523.5,-266.5"/>
<text text-anchor="middle" x="572" y="-273.5" font-family="Helvetica,sans-Serif" font-size="10.00" fill="#000000">SNN::getSimTime</text>
</a>
</g>
</g>
<!-- Node573&#45;&gt;Node575 -->
<g id="edge10" class="edge">
<title>Node573&#45;&gt;Node575</title>
<path fill="none" stroke="#191970" d="M451.2533,-247.589C472.6609,-252.6261 499.0862,-258.8438 521.7525,-264.1771"/>
<polygon fill="#191970" stroke="#191970" points="521.0039,-267.5964 531.5398,-266.4799 522.6073,-260.7825 521.0039,-267.5964"/>
</g>
<!-- Node573&#45;&gt;Node576 -->
<g id="edge11" class="edge">
<title>Node573&#45;&gt;Node576</title>
<path fill="none" stroke="#191970" d="M420.6025,-228.4917C447.4532,-203.2205 520.8375,-134.1529 554.5917,-102.3843"/>
<polygon fill="#191970" stroke="#191970" points="557.018,-104.9071 561.9013,-95.5047 552.2205,-99.8097 557.018,-104.9071"/>
</g>
<!-- Node573&#45;&gt;Node582 -->
<g id="edge20" class="edge">
<title>Node573&#45;&gt;Node582</title>
<path fill="none" stroke="#191970" d="M446.5719,-228.403C457.4091,-224.7297 469.0534,-219.9552 479,-214 497.6225,-202.8504 496.293,-192.0073 515,-181 518.5905,-178.8873 522.448,-176.9714 526.4017,-175.2423"/>
<polygon fill="#191970" stroke="#191970" points="527.719,-178.4852 535.7216,-171.542 525.1358,-171.9792 527.719,-178.4852"/>
</g>
<!-- Node583 -->
<g id="node16" class="node">
<title>Node583</title>
<g id="a_node16"><a xlink:href="classNeuronMonitorCore.html#a38f87732cc929797d9648e68cd509f1b" target="_top" xlink:title="sets timestamp of last NeuronMonitor update ">
<polygon fill="#ffffff" stroke="#000000" points="529,-228.5 529,-247.5 615,-247.5 615,-228.5 529,-228.5"/>
<text text-anchor="middle" x="572" y="-235.5" font-family="Helvetica,sans-Serif" font-size="10.00" fill="#000000">setLastUpdated</text>
</a>
</g>
</g>
<!-- Node573&#45;&gt;Node583 -->
<g id="edge21" class="edge">
<title>Node573&#45;&gt;Node583</title>
<path fill="none" stroke="#191970" d="M479.459,-238C492.5868,-238 506.1396,-238 518.6889,-238"/>
<polygon fill="#191970" stroke="#191970" points="518.963,-241.5001 528.9629,-238 518.9629,-234.5001 518.963,-241.5001"/>
</g>
<!-- Node590 -->
<g id="node23" class="node">
<title>Node590</title>
<g id="a_node23"><a xlink:href="classNeuronMonitorCore.html#a84e392c48ef98bece7aa0dc7af992360" target="_top" xlink:title="returns a pointer to the neuron state file ">
<polygon fill="#ffffff" stroke="#000000" points="529,-190.5 529,-209.5 615,-209.5 615,-190.5 529,-190.5"/>
<text text-anchor="middle" x="572" y="-197.5" font-family="Helvetica,sans-Serif" font-size="10.00" fill="#000000">getNeuronFileId</text>
</a>
</g>
</g>
<!-- Node573&#45;&gt;Node590 -->
<g id="edge30" class="edge">
<title>Node573&#45;&gt;Node590</title>
<path fill="none" stroke="#191970" d="M451.2533,-228.411C472.6609,-223.3739 499.0862,-217.1562 521.7525,-211.8229"/>
<polygon fill="#191970" stroke="#191970" points="522.6073,-215.2175 531.5398,-209.5201 521.0039,-208.4036 522.6073,-215.2175"/>
</g>
<!-- Node577 -->
<g id="node10" class="node">
<title>Node577</title>
<g id="a_node10"><a xlink:href="classSNN.html#a866a9c6e2b2630816fc66adda1381655" target="_top" xlink:title="Returns pointer to existing SpikeMonitor object, NULL else. ">
<polygon fill="#ffffff" stroke="#000000" points="679,-76.5 679,-95.5 794,-95.5 794,-76.5 679,-76.5"/>
<text text-anchor="middle" x="736.5" y="-83.5" font-family="Helvetica,sans-Serif" font-size="10.00" fill="#000000">SNN::getSpikeMonitor</text>
</a>
</g>
</g>
<!-- Node576&#45;&gt;Node577 -->
<g id="edge12" class="edge">
<title>Node576&#45;&gt;Node577</title>
<path fill="none" stroke="#191970" d="M627.2337,-86C640.4731,-86 654.7631,-86 668.5054,-86"/>
<polygon fill="#191970" stroke="#191970" points="668.8811,-89.5001 678.881,-86 668.881,-82.5001 668.8811,-89.5001"/>
</g>
<!-- Node579 -->
<g id="node12" class="node">
<title>Node579</title>
<g id="a_node12"><a xlink:href="classSNN.html#ad25000cd1457c9b9869122534ada6fdd" target="_top" xlink:title="SNN::getSpikeMonitorCore">
<polygon fill="#ffffff" stroke="#000000" points="668.5,-38.5 668.5,-57.5 804.5,-57.5 804.5,-38.5 668.5,-38.5"/>
<text text-anchor="middle" x="736.5" y="-45.5" font-family="Helvetica,sans-Serif" font-size="10.00" fill="#000000">SNN::getSpikeMonitorCore</text>
</a>
</g>
</g>
<!-- Node576&#45;&gt;Node579 -->
<g id="edge14" class="edge">
<title>Node576&#45;&gt;Node579</title>
<path fill="none" stroke="#191970" d="M613.5103,-76.411C635.3156,-71.3739 662.2318,-65.1562 685.3191,-59.8229"/>
<polygon fill="#191970" stroke="#191970" points="686.3326,-63.1811 695.2882,-57.5201 684.757,-56.3607 686.3326,-63.1811"/>
</g>
<!-- Node580 -->
<g id="node13" class="node">
<title>Node580</title>
<g id="a_node13"><a xlink:href="classSNN.html#a0eb87addfa5eebdfee4bd6b927b8945f" target="_top" xlink:title="Returns pointer to existing NeuronMonitor object, NULL else. ">
<polygon fill="#ffffff" stroke="#000000" points="675.5,-.5 675.5,-19.5 797.5,-19.5 797.5,-.5 675.5,-.5"/>
<text text-anchor="middle" x="736.5" y="-7.5" font-family="Helvetica,sans-Serif" font-size="10.00" fill="#000000">SNN::getNeuronMonitor</text>
</a>
</g>
</g>
<!-- Node576&#45;&gt;Node580 -->
<g id="edge16" class="edge">
<title>Node576&#45;&gt;Node580</title>
<path fill="none" stroke="#191970" d="M584.8909,-76.4117C602.2645,-63.8953 634.5382,-42.0515 665,-29 670.5211,-26.6344 676.4112,-24.4991 682.351,-22.5888"/>
<polygon fill="#191970" stroke="#191970" points="683.7697,-25.8171 692.3381,-19.5855 681.7538,-19.1136 683.7697,-25.8171"/>
</g>
<!-- Node581 -->
<g id="node14" class="node">
<title>Node581</title>
<g id="a_node14"><a xlink:href="classSNN.html#a9aa73fa9478383c4af1eed8387d82db9" target="_top" xlink:title="SNN::getNeuronMonitorCore">
<polygon fill="#ffffff" stroke="#000000" points="665,-114.5 665,-133.5 808,-133.5 808,-114.5 665,-114.5"/>
<text text-anchor="middle" x="736.5" y="-121.5" font-family="Helvetica,sans-Serif" font-size="10.00" fill="#000000">SNN::getNeuronMonitorCore</text>
</a>
</g>
</g>
<!-- Node576&#45;&gt;Node581 -->
<g id="edge18" class="edge">
<title>Node576&#45;&gt;Node581</title>
<path fill="none" stroke="#191970" d="M613.5103,-95.589C635.3156,-100.6261 662.2318,-106.8438 685.3191,-112.1771"/>
<polygon fill="#191970" stroke="#191970" points="684.757,-115.6393 695.2882,-114.4799 686.3326,-108.8189 684.757,-115.6393"/>
</g>
<!-- Node578 -->
<g id="node11" class="node">
<title>Node578</title>
<g id="a_node11"><a xlink:href="classSNN.html#a292bdee57fec7c77ec4c15ea3f508d60" target="_top" xlink:title="SNN::getNumGroups">
<polygon fill="#ffffff" stroke="#000000" points="846.5,-57.5 846.5,-76.5 956.5,-76.5 956.5,-57.5 846.5,-57.5"/>
<text text-anchor="middle" x="901.5" y="-64.5" font-family="Helvetica,sans-Serif" font-size="10.00" fill="#000000">SNN::getNumGroups</text>
</a>
</g>
</g>
<!-- Node577&#45;&gt;Node578 -->
<g id="edge13" class="edge">
<title>Node577&#45;&gt;Node578</title>
<path fill="none" stroke="#191970" d="M794.209,-79.3547C807.8192,-77.7875 822.4217,-76.106 836.3353,-74.5038"/>
<polygon fill="#191970" stroke="#191970" points="836.7869,-77.975 846.3208,-73.354 835.986,-71.021 836.7869,-77.975"/>
</g>
<!-- Node579&#45;&gt;Node578 -->
<g id="edge15" class="edge">
<title>Node579&#45;&gt;Node578</title>
<path fill="none" stroke="#191970" d="M804.5644,-55.8377C815.0173,-57.0414 825.7893,-58.2818 836.1807,-59.4784"/>
<polygon fill="#191970" stroke="#191970" points="836.0846,-62.9904 846.4194,-60.6574 836.8855,-56.0363 836.0846,-62.9904"/>
</g>
<!-- Node580&#45;&gt;Node578 -->
<g id="edge17" class="edge">
<title>Node580&#45;&gt;Node578</title>
<path fill="none" stroke="#191970" d="M776.1016,-19.5695C786.5534,-22.3543 797.7686,-25.5767 808,-29 829.3108,-36.1303 852.7356,-45.6535 870.8077,-53.3825"/>
<polygon fill="#191970" stroke="#191970" points="869.6818,-56.7089 880.2496,-57.4652 872.4601,-50.2838 869.6818,-56.7089"/>
</g>
<!-- Node581&#45;&gt;Node578 -->
<g id="edge19" class="edge">
<title>Node581&#45;&gt;Node578</title>
<path fill="none" stroke="#191970" d="M776.1016,-114.4305C786.5534,-111.6457 797.7686,-108.4233 808,-105 829.3108,-97.8697 852.7356,-88.3465 870.8077,-80.6175"/>
<polygon fill="#191970" stroke="#191970" points="872.4601,-83.7162 880.2496,-76.5348 869.6818,-77.2911 872.4601,-83.7162"/>
</g>
<!-- Node584 -->
<g id="node17" class="node">
<title>Node584</title>
<g id="a_node17"><a xlink:href="classNeuronMonitorCore.html#aaeb6a64ac5d9fd3b7a979f0f12ec87dc" target="_top" xlink:title="returns true if state buffers are close to maxAllowedBufferSize ">
<polygon fill="#ffffff" stroke="#000000" points="704,-228.5 704,-247.5 769,-247.5 769,-228.5 704,-228.5"/>
<text text-anchor="middle" x="736.5" y="-235.5" font-family="Helvetica,sans-Serif" font-size="10.00" fill="#000000">isBufferBig</text>
</a>
</g>
</g>
<!-- Node583&#45;&gt;Node584 -->
<g id="edge22" class="edge">
<title>Node583&#45;&gt;Node584</title>
<path fill="none" stroke="#191970" d="M615.2204,-238C639.4335,-238 669.5212,-238 693.6706,-238"/>
<polygon fill="#191970" stroke="#191970" points="693.9633,-241.5001 703.9632,-238 693.9632,-234.5001 693.9633,-241.5001"/>
</g>
<!-- Node585 -->
<g id="node18" class="node">
<title>Node585</title>
<g id="a_node18"><a xlink:href="classNeuronMonitorCore.html#a30f19d45f562061cc82c04e7289ba956" target="_top" xlink:title="returns the approximate size of the state vectors in bytes ">
<polygon fill="#ffffff" stroke="#000000" points="863.5,-209.5 863.5,-228.5 939.5,-228.5 939.5,-209.5 863.5,-209.5"/>
<text text-anchor="middle" x="901.5" y="-216.5" font-family="Helvetica,sans-Serif" font-size="10.00" fill="#000000">getBufferSize</text>
</a>
</g>
</g>
<!-- Node583&#45;&gt;Node585 -->
<g id="edge24" class="edge">
<title>Node583&#45;&gt;Node585</title>
<path fill="none" stroke="#191970" d="M609.7426,-228.4904C626.5406,-224.7254 646.6368,-220.8566 665,-219 729.8893,-212.4393 805.3062,-214.0202 853.2035,-216.1652"/>
<polygon fill="#191970" stroke="#191970" points="853.1328,-219.6657 863.2874,-216.6435 853.4645,-212.6735 853.1328,-219.6657"/>
</g>
<!-- Node586 -->
<g id="node19" class="node">
<title>Node586</title>
<g id="a_node19"><a xlink:href="classNeuronMonitorCore.html#a3a0e4e77a2b83f5dd0e86aafcf227595" target="_top" xlink:title="returns the total accumulated time ">
<polygon fill="#ffffff" stroke="#000000" points="695,-266.5 695,-285.5 778,-285.5 778,-266.5 695,-266.5"/>
<text text-anchor="middle" x="736.5" y="-273.5" font-family="Helvetica,sans-Serif" font-size="10.00" fill="#000000">getAccumTime</text>
</a>
</g>
</g>
<!-- Node583&#45;&gt;Node586 -->
<g id="edge25" class="edge">
<title>Node583&#45;&gt;Node586</title>
<path fill="none" stroke="#191970" d="M613.5103,-247.589C635.3156,-252.6261 662.2318,-258.8438 685.3191,-264.1771"/>
<polygon fill="#191970" stroke="#191970" points="684.757,-267.6393 695.2882,-266.4799 686.3326,-260.8189 684.757,-267.6393"/>
</g>
<!-- Node583&#45;&gt;Node587 -->
<g id="edge26" class="edge">
<title>Node583&#45;&gt;Node587</title>
<path fill="none" stroke="#191970" d="M608.2784,-228.458C615.39,-225.8898 622.6169,-222.7558 629,-219 647.707,-207.9927 646.3046,-197.0269 665,-186 672.3767,-181.6491 680.6512,-177.9549 688.8834,-174.8657"/>
<polygon fill="#191970" stroke="#191970" points="690.1864,-178.1179 698.4714,-171.5141 687.8765,-171.51 690.1864,-178.1179"/>
</g>
<!-- Node589 -->
<g id="node22" class="node">
<title>Node589</title>
<g id="a_node22"><a xlink:href="classNeuronMonitorCore.html#aec9349ebca384aed5e233754559075e0" target="_top" xlink:title="prints neuron states in human&#45;readable format ">
<polygon fill="#ffffff" stroke="#000000" points="719,-342.5 719,-361.5 754,-361.5 754,-342.5 719,-342.5"/>
<text text-anchor="middle" x="736.5" y="-349.5" font-family="Helvetica,sans-Serif" font-size="10.00" fill="#000000">print</text>
</a>
</g>
</g>
<!-- Node583&#45;&gt;Node589 -->
<g id="edge28" class="edge">
<title>Node583&#45;&gt;Node589</title>
<path fill="none" stroke="#191970" d="M609.3915,-247.5257C616.1909,-250.0631 623.0171,-253.1897 629,-257 648.6229,-269.4971 647.8628,-279.2663 665,-295 681.0755,-309.7589 700.5038,-325.1034 715.0485,-336.1487"/>
<polygon fill="#191970" stroke="#191970" points="713.3035,-339.2156 723.4,-342.4268 717.5097,-333.6202 713.3035,-339.2156"/>
</g>
<!-- Node584&#45;&gt;Node585 -->
<g id="edge23" class="edge">
<title>Node584&#45;&gt;Node585</title>
<path fill="none" stroke="#191970" d="M769.0987,-234.2462C793.1663,-231.4748 826.3097,-227.6583 853.4147,-224.5371"/>
<polygon fill="#191970" stroke="#191970" points="853.9418,-227.9996 863.4757,-223.3786 853.141,-221.0456 853.9418,-227.9996"/>
</g>
<!-- Node588 -->
<g id="node21" class="node">
<title>Node588</title>
<g id="a_node21"><a xlink:href="classSNN.html#ac13b30c40669d3cb8264bd6e211b449d" target="_top" xlink:title="SNN::getGroupGrid3D">
<polygon fill="#ffffff" stroke="#000000" points="844,-152.5 844,-171.5 959,-171.5 959,-152.5 844,-152.5"/>
<text text-anchor="middle" x="901.5" y="-159.5" font-family="Helvetica,sans-Serif" font-size="10.00" fill="#000000">SNN::getGroupGrid3D</text>
</a>
</g>
</g>
<!-- Node587&#45;&gt;Node588 -->
<g id="edge27" class="edge">
<title>Node587&#45;&gt;Node588</title>
<path fill="none" stroke="#191970" d="M794.6728,-162C807.2651,-162 820.6878,-162 833.6159,-162"/>
<polygon fill="#191970" stroke="#191970" points="833.8526,-165.5001 843.8526,-162 833.8525,-158.5001 833.8526,-165.5001"/>
</g>
<!-- Node589&#45;&gt;Node569 -->
<g id="edge29" class="edge">
<title>Node589&#45;&gt;Node569</title>
<path fill="none" stroke="#191970" d="M718.7472,-356.1222C697.5361,-360.8179 660.9072,-368.202 629,-371 501.6539,-382.1673 467.154,-378.0423 342,-352 289.1508,-341.003 271.4422,-345.1373 226,-316 201.4784,-300.2769 180.251,-273.7147 167.7875,-256.0193"/>
<polygon fill="#191970" stroke="#191970" points="170.6244,-253.967 162.0978,-247.6783 164.8417,-257.9117 170.6244,-253.967"/>
</g>
<!-- Node591&#45;&gt;Node569 -->
<g id="edge36" class="edge">
<title>Node591&#45;&gt;Node569</title>
<path fill="none" stroke="#191970" d="M258.3451,-171.6226C250.0776,-177.3624 236.6596,-183.2661 226,-190 210.8207,-199.5891 195.2086,-212.0109 182.591,-222.0031"/>
<polygon fill="#191970" stroke="#191970" points="180.0701,-219.5331 174.3762,-228.4679 184.3991,-225.034 180.0701,-219.5331"/>
</g>
<!-- Node591&#45;&gt;Node573 -->
<g id="edge37" class="edge">
<title>Node591&#45;&gt;Node573</title>
<path fill="none" stroke="#191970" d="M286.8685,-171.6425C293.0614,-174.5766 299.8354,-177.8577 306,-181 333.1431,-194.8355 363.6791,-211.6387 384.6991,-223.4034"/>
<polygon fill="#191970" stroke="#191970" points="383.208,-226.5801 393.6409,-228.4255 386.6359,-220.4769 383.208,-226.5801"/>
</g>
<!-- Node591&#45;&gt;Node576 -->
<g id="edge39" class="edge">
<title>Node591&#45;&gt;Node576</title>
<path fill="none" stroke="#191970" d="M270.5764,-152.2681C280.409,-132.6703 305.6456,-88.8832 342,-72 404.8726,-42.8016 488.0119,-59.5464 535.1736,-73.4152"/>
<polygon fill="#191970" stroke="#191970" points="534.3655,-76.8279 544.9518,-76.4023 536.4107,-70.1333 534.3655,-76.8279"/>
</g>
<!-- Node591&#45;&gt;Node582 -->
<g id="edge38" class="edge">
<title>Node591&#45;&gt;Node582</title>
<path fill="none" stroke="#191970" d="M306.0042,-162C356.388,-162 443.7089,-162 504.5024,-162"/>
<polygon fill="#191970" stroke="#191970" points="504.7747,-165.5001 514.7747,-162 504.7747,-158.5001 504.7747,-165.5001"/>
</g>
</g>
</svg>
