<?xml version="1.0" encoding="UTF-8" standalone="no"?>
<!DOCTYPE svg PUBLIC "-//W3C//DTD SVG 1.1//EN"
 "http://www.w3.org/Graphics/SVG/1.1/DTD/svg11.dtd">
<!-- Generated by graphviz version 2.40.1 (20161225.0304)
 -->
<!-- Title: getConductanceGABAb Pages: 1 -->
<svg width="532pt" height="78pt"
 viewBox="0.00 0.00 532.00 77.50" xmlns="http://www.w3.org/2000/svg" xmlns:xlink="http://www.w3.org/1999/xlink">
<g id="graph0" class="graph" transform="scale(1 1) rotate(0) translate(4 73.5)">
<title>getConductanceGABAb</title>
<polygon fill="#ffffff" stroke="transparent" points="-4,4 -4,-73.5 528,-73.5 528,4 -4,4"/>
<!-- Node142 -->
<g id="node1" class="node">
<title>Node142</title>
<polygon fill="#bfbfbf" stroke="#000000" points="0,-22.5 0,-41.5 121,-41.5 121,-22.5 0,-22.5"/>
<text text-anchor="middle" x="60.5" y="-29.5" font-family="Helvetica,sans-Serif" font-size="10.00" fill="#000000">getConductanceGABAb</text>
</g>
<!-- Node143 -->
<g id="node2" class="node">
<title>Node143</title>
<g id="a_node2"><a xlink:href="classCARLsim_1_1Impl.html#a917e6c84361a393ba5752f365cce008f" target="_top" xlink:title="CARLsim::Impl::getConductance\lGABAb">
<polygon fill="#ffffff" stroke="#000000" points="157,-39 157,-69 318,-69 318,-39 157,-39"/>
<text text-anchor="start" x="165" y="-57" font-family="Helvetica,sans-Serif" font-size="10.00" fill="#000000">CARLsim::Impl::getConductance</text>
<text text-anchor="middle" x="237.5" y="-46" font-family="Helvetica,sans-Serif" font-size="10.00" fill="#000000">GABAb</text>
</a>
</g>
</g>
<!-- Node142&#45;&gt;Node143 -->
<g id="edge1" class="edge">
<title>Node142&#45;&gt;Node143</title>
<path fill="none" stroke="#191970" d="M131.4484,-40.8184C139.7804,-41.8541 148.3287,-42.9166 156.7815,-43.9672"/>
<polygon fill="#191970" stroke="#191970" points="131.7687,-37.3314 121.4134,-39.5712 130.9053,-44.278 131.7687,-37.3314"/>
</g>
<!-- Node145 -->
<g id="node4" class="node">
<title>Node145</title>
<g id="a_node4"><a xlink:href="classSNN.html#a0d88c00011be6536c68f8e6bc70ca1a3" target="_top" xlink:title="temporary getter to return pointer to current[] ">
<polygon fill="#ffffff" stroke="#000000" points="206.5,-.5 206.5,-19.5 268.5,-19.5 268.5,-.5 206.5,-.5"/>
<text text-anchor="middle" x="237.5" y="-7.5" font-family="Helvetica,sans-Serif" font-size="10.00" fill="#000000">getCurrent</text>
</a>
</g>
</g>
<!-- Node142&#45;&gt;Node145 -->
<g id="edge3" class="edge">
<title>Node142&#45;&gt;Node145</title>
<path fill="none" stroke="#191970" d="M131.6219,-23.16C157.5879,-19.9326 185.6315,-16.4469 206.3301,-13.8742"/>
<polygon fill="#191970" stroke="#191970" points="130.9053,-19.722 121.4134,-24.4288 131.7687,-26.6686 130.9053,-19.722"/>
</g>
<!-- Node144 -->
<g id="node3" class="node">
<title>Node144</title>
<g id="a_node3"><a xlink:href="classCARLsim.html#aa50bf7b25bc7c5c164e2a11ee763796e" target="_top" xlink:title="gets GABAb vector of a group ">
<polygon fill="#ffffff" stroke="#000000" points="354,-44.5 354,-63.5 524,-63.5 524,-44.5 354,-44.5"/>
<text text-anchor="middle" x="439" y="-51.5" font-family="Helvetica,sans-Serif" font-size="10.00" fill="#000000">CARLsim::getConductanceGABAb</text>
</a>
</g>
</g>
<!-- Node143&#45;&gt;Node144 -->
<g id="edge2" class="edge">
<title>Node143&#45;&gt;Node144</title>
<path fill="none" stroke="#191970" d="M328.0729,-54C336.7002,-54 345.428,-54 353.9999,-54"/>
<polygon fill="#191970" stroke="#191970" points="328.0069,-50.5001 318.0068,-54 328.0068,-57.5001 328.0069,-50.5001"/>
</g>
</g>
</svg>
