<?xml version="1.0" encoding="UTF-8" standalone="no"?>
<!DOCTYPE svg PUBLIC "-//W3C//DTD SVG 1.1//EN"
 "http://www.w3.org/Graphics/SVG/1.1/DTD/svg11.dtd">
<!-- Generated by graphviz version 2.40.1 (20161225.0304)
 -->
<!-- Title: isPoissonGroup Pages: 1 -->
<svg width="620pt" height="484pt"
 viewBox="0.00 0.00 620.00 484.00" xmlns="http://www.w3.org/2000/svg" xmlns:xlink="http://www.w3.org/1999/xlink">
<g id="graph0" class="graph" transform="scale(1 1) rotate(0) translate(4 480)">
<title>isPoissonGroup</title>
<polygon fill="#ffffff" stroke="transparent" points="-4,4 -4,-480 616,-480 616,4 -4,4"/>
<!-- Node565 -->
<g id="node1" class="node">
<title>Node565</title>
<polygon fill="#bfbfbf" stroke="#000000" points="0,-247.5 0,-266.5 86,-266.5 86,-247.5 0,-247.5"/>
<text text-anchor="middle" x="43" y="-254.5" font-family="Helvetica,sans-Serif" font-size="10.00" fill="#000000">isPoissonGroup</text>
</g>
<!-- Node566 -->
<g id="node2" class="node">
<title>Node566</title>
<g id="a_node2"><a xlink:href="classCARLsim_1_1Impl.html#afed01f52e943df5e5476428c4fbef8f7" target="_top" xlink:title="connect">
<polygon fill="#ffffff" stroke="#000000" points="163.5,-456.5 163.5,-475.5 214.5,-475.5 214.5,-456.5 163.5,-456.5"/>
<text text-anchor="middle" x="189" y="-463.5" font-family="Helvetica,sans-Serif" font-size="10.00" fill="#000000">connect</text>
</a>
</g>
</g>
<!-- Node565&#45;&gt;Node566 -->
<g id="edge1" class="edge">
<title>Node565&#45;&gt;Node566</title>
<path fill="none" stroke="#191970" d="M45.47,-276.474C51.3914,-314.9058 69.9901,-400.7785 122,-447 133.2968,-457.0396 149.5356,-461.8048 163.1969,-464.0528"/>
<polygon fill="#191970" stroke="#191970" points="48.9343,-275.9742 44.0671,-266.5635 42.0034,-276.9554 48.9343,-275.9742"/>
</g>
<!-- Node568 -->
<g id="node4" class="node">
<title>Node568</title>
<g id="a_node4"><a xlink:href="classCARLsim_1_1Impl.html#a7ce184c0de7c3d3c80b27a1ea7bb3e59" target="_top" xlink:title="connectCompartments">
<polygon fill="#ffffff" stroke="#000000" points="131,-418.5 131,-437.5 247,-437.5 247,-418.5 131,-418.5"/>
<text text-anchor="middle" x="189" y="-425.5" font-family="Helvetica,sans-Serif" font-size="10.00" fill="#000000">connectCompartments</text>
</a>
</g>
</g>
<!-- Node565&#45;&gt;Node568 -->
<g id="edge3" class="edge">
<title>Node565&#45;&gt;Node568</title>
<path fill="none" stroke="#191970" d="M47.7349,-276.5388C56.6196,-308.9831 78.9027,-373.8696 122,-409 126.7795,-412.896 132.3138,-415.9937 138.1124,-418.4566"/>
<polygon fill="#191970" stroke="#191970" points="51.0349,-275.3205 45.1389,-266.5178 44.2586,-277.076 51.0349,-275.3205"/>
</g>
<!-- Node570 -->
<g id="node6" class="node">
<title>Node570</title>
<g id="a_node6"><a xlink:href="classCARLsim_1_1Impl.html#af9e05685af30a329664ab73a6a420d7f" target="_top" xlink:title="setHomeostasis">
<polygon fill="#ffffff" stroke="#000000" points="145,-380.5 145,-399.5 233,-399.5 233,-380.5 145,-380.5"/>
<text text-anchor="middle" x="189" y="-387.5" font-family="Helvetica,sans-Serif" font-size="10.00" fill="#000000">setHomeostasis</text>
</a>
</g>
</g>
<!-- Node565&#45;&gt;Node570 -->
<g id="edge5" class="edge">
<title>Node565&#45;&gt;Node570</title>
<path fill="none" stroke="#191970" d="M51.0885,-275.9346C62.9283,-301.3798 87.3925,-346.2641 122,-371 128.7871,-375.8511 136.7829,-379.4675 144.8427,-382.1623"/>
<polygon fill="#191970" stroke="#191970" points="54.202,-274.3235 46.9201,-266.6278 47.8135,-277.1849 54.202,-274.3235"/>
</g>
<!-- Node572 -->
<g id="node8" class="node">
<title>Node572</title>
<g id="a_node8"><a xlink:href="classCARLsim_1_1Impl.html#aef4d35935c52e55a957aa96e4d6218f6" target="_top" xlink:title="setHomeoBaseFiringRate">
<polygon fill="#ffffff" stroke="#000000" points="124.5,-342.5 124.5,-361.5 253.5,-361.5 253.5,-342.5 124.5,-342.5"/>
<text text-anchor="middle" x="189" y="-349.5" font-family="Helvetica,sans-Serif" font-size="10.00" fill="#000000">setHomeoBaseFiringRate</text>
</a>
</g>
</g>
<!-- Node565&#45;&gt;Node572 -->
<g id="edge7" class="edge">
<title>Node565&#45;&gt;Node572</title>
<path fill="none" stroke="#191970" d="M57.0618,-274.8968C71.5647,-292.1864 95.7175,-317.9102 122,-333 128.7106,-336.8528 136.2534,-339.9667 143.7929,-342.4704"/>
<polygon fill="#191970" stroke="#191970" points="59.4298,-272.2626 50.3971,-266.7253 54.0052,-276.6869 59.4298,-272.2626"/>
</g>
<!-- Node574 -->
<g id="node10" class="node">
<title>Node574</title>
<g id="a_node10"><a xlink:href="classCARLsim_1_1Impl.html#aa6e1dc5ae50722ae3d693f2c963d84cd" target="_top" xlink:title="setNeuronParameters">
<polygon fill="#ffffff" stroke="#000000" points="133,-304.5 133,-323.5 245,-323.5 245,-304.5 133,-304.5"/>
<text text-anchor="middle" x="189" y="-311.5" font-family="Helvetica,sans-Serif" font-size="10.00" fill="#000000">setNeuronParameters</text>
</a>
</g>
</g>
<!-- Node565&#45;&gt;Node574 -->
<g id="edge9" class="edge">
<title>Node565&#45;&gt;Node574</title>
<path fill="none" stroke="#191970" d="M70.0268,-271.428C85.0551,-279.0848 104.2554,-288.2735 122,-295 131.2706,-298.5142 141.4764,-301.7265 151.0672,-304.4698"/>
<polygon fill="#191970" stroke="#191970" points="71.3006,-268.1464 60.8107,-266.659 68.0834,-274.3633 71.3006,-268.1464"/>
</g>
<!-- Node576 -->
<g id="node12" class="node">
<title>Node576</title>
<g id="a_node12"><a xlink:href="classCARLsim_1_1Impl.html#ae3d3c73126e9aa3fe8e81ea180860952" target="_top" xlink:title="setNeuronParametersLIF">
<polygon fill="#ffffff" stroke="#000000" points="126,-266.5 126,-285.5 252,-285.5 252,-266.5 126,-266.5"/>
<text text-anchor="middle" x="189" y="-273.5" font-family="Helvetica,sans-Serif" font-size="10.00" fill="#000000">setNeuronParametersLIF</text>
</a>
</g>
</g>
<!-- Node565&#45;&gt;Node576 -->
<g id="edge11" class="edge">
<title>Node565&#45;&gt;Node576</title>
<path fill="none" stroke="#191970" d="M96.1987,-263.9231C105.7941,-265.1718 115.8833,-266.4848 125.7319,-267.7665"/>
<polygon fill="#191970" stroke="#191970" points="96.3832,-260.4177 86.0152,-262.5979 95.4798,-267.3592 96.3832,-260.4177"/>
</g>
<!-- Node578 -->
<g id="node14" class="node">
<title>Node578</title>
<g id="a_node14"><a xlink:href="classCARLsim_1_1Impl.html#ac79aadf0ac87b2ae34f39ae796ad81a3" target="_top" xlink:title="setESTDP">
<polygon fill="#ffffff" stroke="#000000" points="157,-228.5 157,-247.5 221,-247.5 221,-228.5 157,-228.5"/>
<text text-anchor="middle" x="189" y="-235.5" font-family="Helvetica,sans-Serif" font-size="10.00" fill="#000000">setESTDP</text>
</a>
</g>
</g>
<!-- Node565&#45;&gt;Node578 -->
<g id="edge13" class="edge">
<title>Node565&#45;&gt;Node578</title>
<path fill="none" stroke="#191970" d="M96.1221,-250.0868C116.5082,-247.4339 139.133,-244.4895 156.9484,-242.1711"/>
<polygon fill="#191970" stroke="#191970" points="95.4798,-246.6408 86.0152,-251.4021 96.3832,-253.5823 95.4798,-246.6408"/>
</g>
<!-- Node583 -->
<g id="node19" class="node">
<title>Node583</title>
<g id="a_node19"><a xlink:href="classCARLsim_1_1Impl.html#a675bb0d593722135066c11b0d3d99d50" target="_top" xlink:title="setISTDP">
<polygon fill="#ffffff" stroke="#000000" points="159,-190.5 159,-209.5 219,-209.5 219,-190.5 159,-190.5"/>
<text text-anchor="middle" x="189" y="-197.5" font-family="Helvetica,sans-Serif" font-size="10.00" fill="#000000">setISTDP</text>
</a>
</g>
</g>
<!-- Node565&#45;&gt;Node583 -->
<g id="edge18" class="edge">
<title>Node565&#45;&gt;Node583</title>
<path fill="none" stroke="#191970" d="M70.0268,-242.572C85.0551,-234.9152 104.2554,-225.7265 122,-219 133.8709,-214.5001 147.2752,-210.4952 158.9581,-207.3362"/>
<polygon fill="#191970" stroke="#191970" points="68.0834,-239.6367 60.8107,-247.341 71.3006,-245.8536 68.0834,-239.6367"/>
</g>
<!-- Node585 -->
<g id="node21" class="node">
<title>Node585</title>
<g id="a_node21"><a xlink:href="classCARLsim_1_1Impl.html#a875708f5a61243433e23e99ce4d6aea1" target="_top" xlink:title="setExternalCurrent">
<polygon fill="#ffffff" stroke="#000000" points="140,-152.5 140,-171.5 238,-171.5 238,-152.5 140,-152.5"/>
<text text-anchor="middle" x="189" y="-159.5" font-family="Helvetica,sans-Serif" font-size="10.00" fill="#000000">setExternalCurrent</text>
</a>
</g>
</g>
<!-- Node565&#45;&gt;Node585 -->
<g id="edge20" class="edge">
<title>Node565&#45;&gt;Node585</title>
<path fill="none" stroke="#191970" d="M57.0618,-239.1032C71.5647,-221.8136 95.7175,-196.0898 122,-181 128.7106,-177.1472 136.2534,-174.0333 143.7929,-171.5296"/>
<polygon fill="#191970" stroke="#191970" points="54.0052,-237.3131 50.3971,-247.2747 59.4298,-241.7374 54.0052,-237.3131"/>
</g>
<!-- Node587 -->
<g id="node23" class="node">
<title>Node587</title>
<g id="a_node23"><a xlink:href="classCARLsim_1_1Impl.html#adc71069e71cd551526ddafb3d873d649" target="_top" xlink:title="setSpikeGenerator">
<polygon fill="#ffffff" stroke="#000000" points="140,-114.5 140,-133.5 238,-133.5 238,-114.5 140,-114.5"/>
<text text-anchor="middle" x="189" y="-121.5" font-family="Helvetica,sans-Serif" font-size="10.00" fill="#000000">setSpikeGenerator</text>
</a>
</g>
</g>
<!-- Node565&#45;&gt;Node587 -->
<g id="edge22" class="edge">
<title>Node565&#45;&gt;Node587</title>
<path fill="none" stroke="#191970" d="M51.0885,-238.0654C62.9283,-212.6202 87.3925,-167.7359 122,-143 127.41,-139.1332 133.5879,-136.0509 139.9542,-133.5945"/>
<polygon fill="#191970" stroke="#191970" points="47.8135,-236.8151 46.9201,-247.3722 54.202,-239.6765 47.8135,-236.8151"/>
</g>
<!-- Node589 -->
<g id="node25" class="node">
<title>Node589</title>
<g id="a_node25"><a xlink:href="classCARLsim_1_1Impl.html#aec206ed9aaaed83f1d3170f012a86b70" target="_top" xlink:title="setSpikeRate">
<polygon fill="#ffffff" stroke="#000000" points="151,-76.5 151,-95.5 227,-95.5 227,-76.5 151,-76.5"/>
<text text-anchor="middle" x="189" y="-83.5" font-family="Helvetica,sans-Serif" font-size="10.00" fill="#000000">setSpikeRate</text>
</a>
</g>
</g>
<!-- Node565&#45;&gt;Node589 -->
<g id="edge24" class="edge">
<title>Node565&#45;&gt;Node589</title>
<path fill="none" stroke="#191970" d="M47.7349,-237.4612C56.6196,-205.0169 78.9027,-140.1304 122,-105 130.247,-98.2775 140.7412,-93.9317 150.9631,-91.1228"/>
<polygon fill="#191970" stroke="#191970" points="44.2586,-236.924 45.1389,-247.4822 51.0349,-238.6795 44.2586,-236.924"/>
</g>
<!-- Node591 -->
<g id="node27" class="node">
<title>Node591</title>
<g id="a_node27"><a xlink:href="classCARLsim.html#ae136e178382096490a2d34f78cd2afa2" target="_top" xlink:title="returns ">
<polygon fill="#ffffff" stroke="#000000" points="122,-38.5 122,-57.5 256,-57.5 256,-38.5 122,-38.5"/>
<text text-anchor="middle" x="189" y="-45.5" font-family="Helvetica,sans-Serif" font-size="10.00" fill="#000000">CARLsim::isPoissonGroup</text>
</a>
</g>
</g>
<!-- Node565&#45;&gt;Node591 -->
<g id="edge26" class="edge">
<title>Node565&#45;&gt;Node591</title>
<path fill="none" stroke="#191970" d="M45.47,-237.526C51.3914,-199.0942 69.9901,-113.2215 122,-67 126.338,-63.1448 131.4047,-60.0673 136.7743,-57.6115"/>
<polygon fill="#191970" stroke="#191970" points="42.0034,-237.0446 44.0671,-247.4365 48.9343,-238.0258 42.0034,-237.0446"/>
</g>
<!-- Node567 -->
<g id="node3" class="node">
<title>Node567</title>
<g id="a_node3"><a xlink:href="classCARLsim.html#a30b16b93d57551dcde0559e8a4e98e27" target="_top" xlink:title="Connects a presynaptic to a postsynaptic group using fixed/plastic weights and a range of delay value...">
<polygon fill="#ffffff" stroke="#000000" points="331,-456.5 331,-475.5 431,-475.5 431,-456.5 331,-456.5"/>
<text text-anchor="middle" x="381" y="-463.5" font-family="Helvetica,sans-Serif" font-size="10.00" fill="#000000">CARLsim::connect</text>
</a>
</g>
</g>
<!-- Node566&#45;&gt;Node567 -->
<g id="edge2" class="edge">
<title>Node566&#45;&gt;Node567</title>
<path fill="none" stroke="#191970" d="M225.2601,-466C255.0755,-466 297.6502,-466 330.7522,-466"/>
<polygon fill="#191970" stroke="#191970" points="224.894,-462.5001 214.894,-466 224.8939,-469.5001 224.894,-462.5001"/>
</g>
<!-- Node569 -->
<g id="node5" class="node">
<title>Node569</title>
<g id="a_node5"><a xlink:href="classCARLsim.html#a7ce184c0de7c3d3c80b27a1ea7bb3e59" target="_top" xlink:title="make a compartmental connection between two compartmentally enabled groups Note: all compartmentally ...">
<polygon fill="#ffffff" stroke="#000000" points="299,-418.5 299,-437.5 463,-437.5 463,-418.5 299,-418.5"/>
<text text-anchor="middle" x="381" y="-425.5" font-family="Helvetica,sans-Serif" font-size="10.00" fill="#000000">CARLsim::connectCompartments</text>
</a>
</g>
</g>
<!-- Node568&#45;&gt;Node569 -->
<g id="edge4" class="edge">
<title>Node568&#45;&gt;Node569</title>
<path fill="none" stroke="#191970" d="M257.2773,-428C270.7804,-428 285.0839,-428 298.9873,-428"/>
<polygon fill="#191970" stroke="#191970" points="257.1274,-424.5001 247.1274,-428 257.1273,-431.5001 257.1274,-424.5001"/>
</g>
<!-- Node571 -->
<g id="node7" class="node">
<title>Node571</title>
<g id="a_node7"><a xlink:href="classCARLsim.html#ae51c28f77c75f2a5adab1b511465090f" target="_top" xlink:title="Sets custom values for implementation of homeostatic synaptic scaling. ">
<polygon fill="#ffffff" stroke="#000000" points="312.5,-380.5 312.5,-399.5 449.5,-399.5 449.5,-380.5 312.5,-380.5"/>
<text text-anchor="middle" x="381" y="-387.5" font-family="Helvetica,sans-Serif" font-size="10.00" fill="#000000">CARLsim::setHomeostasis</text>
</a>
</g>
</g>
<!-- Node570&#45;&gt;Node571 -->
<g id="edge6" class="edge">
<title>Node570&#45;&gt;Node571</title>
<path fill="none" stroke="#191970" d="M243.2775,-390C264.7291,-390 289.6316,-390 312.3148,-390"/>
<polygon fill="#191970" stroke="#191970" points="243.0487,-386.5001 233.0487,-390 243.0486,-393.5001 243.0487,-386.5001"/>
</g>
<!-- Node573 -->
<g id="node9" class="node">
<title>Node573</title>
<g id="a_node9"><a xlink:href="classCARLsim.html#a4f0d341bb17f0d6e0b3aa8db28ef4513" target="_top" xlink:title="Sets the homeostatic target firing rate (enforced through homeostatic synaptic scaling) ...">
<polygon fill="#ffffff" stroke="#000000" points="292,-342.5 292,-361.5 470,-361.5 470,-342.5 292,-342.5"/>
<text text-anchor="middle" x="381" y="-349.5" font-family="Helvetica,sans-Serif" font-size="10.00" fill="#000000">CARLsim::setHomeoBaseFiringRate</text>
</a>
</g>
</g>
<!-- Node572&#45;&gt;Node573 -->
<g id="edge8" class="edge">
<title>Node572&#45;&gt;Node573</title>
<path fill="none" stroke="#191970" d="M263.8876,-352C272.9971,-352 282.3735,-352 291.6661,-352"/>
<polygon fill="#191970" stroke="#191970" points="263.7348,-348.5001 253.7348,-352 263.7347,-355.5001 263.7348,-348.5001"/>
</g>
<!-- Node575 -->
<g id="node11" class="node">
<title>Node575</title>
<g id="a_node11"><a xlink:href="classCARLsim.html#aa6e1dc5ae50722ae3d693f2c963d84cd" target="_top" xlink:title="Sets Izhikevich params a, b, c, and d with as mean +&#45; standard deviation. ">
<polygon fill="#ffffff" stroke="#000000" points="300.5,-304.5 300.5,-323.5 461.5,-323.5 461.5,-304.5 300.5,-304.5"/>
<text text-anchor="middle" x="381" y="-311.5" font-family="Helvetica,sans-Serif" font-size="10.00" fill="#000000">CARLsim::setNeuronParameters</text>
</a>
</g>
</g>
<!-- Node574&#45;&gt;Node575 -->
<g id="edge10" class="edge">
<title>Node574&#45;&gt;Node575</title>
<path fill="none" stroke="#191970" d="M255.3866,-314C269.8524,-314 285.3127,-314 300.2659,-314"/>
<polygon fill="#191970" stroke="#191970" points="255.0505,-310.5001 245.0505,-314 255.0505,-317.5001 255.0505,-310.5001"/>
</g>
<!-- Node577 -->
<g id="node13" class="node">
<title>Node577</title>
<g id="a_node13"><a xlink:href="classCARLsim.html#ae8becfdd05912ef1406493f7f28074b8" target="_top" xlink:title="Sets neuron parameters for a group of LIF spiking neurons. ">
<polygon fill="#ffffff" stroke="#000000" points="293.5,-266.5 293.5,-285.5 468.5,-285.5 468.5,-266.5 293.5,-266.5"/>
<text text-anchor="middle" x="381" y="-273.5" font-family="Helvetica,sans-Serif" font-size="10.00" fill="#000000">CARLsim::setNeuronParametersLIF</text>
</a>
</g>
</g>
<!-- Node576&#45;&gt;Node577 -->
<g id="edge12" class="edge">
<title>Node576&#45;&gt;Node577</title>
<path fill="none" stroke="#191970" d="M262.2116,-276C272.4297,-276 283.0134,-276 293.4623,-276"/>
<polygon fill="#191970" stroke="#191970" points="262.1339,-272.5001 252.1339,-276 262.1339,-279.5001 262.1339,-272.5001"/>
</g>
<!-- Node579 -->
<g id="node15" class="node">
<title>Node579</title>
<g id="a_node15"><a xlink:href="classCARLsim_1_1Impl.html#af69130fee82ddc631a62ed0878c65e9f" target="_top" xlink:title="setSTDP">
<polygon fill="#ffffff" stroke="#000000" points="352.5,-228.5 352.5,-247.5 409.5,-247.5 409.5,-228.5 352.5,-228.5"/>
<text text-anchor="middle" x="381" y="-235.5" font-family="Helvetica,sans-Serif" font-size="10.00" fill="#000000">setSTDP</text>
</a>
</g>
</g>
<!-- Node578&#45;&gt;Node579 -->
<g id="edge14" class="edge">
<title>Node578&#45;&gt;Node579</title>
<path fill="none" stroke="#191970" d="M231.5211,-238C268.2139,-238 320.2139,-238 352.2143,-238"/>
<polygon fill="#191970" stroke="#191970" points="231.1365,-234.5001 221.1365,-238 231.1364,-241.5001 231.1365,-234.5001"/>
</g>
<!-- Node581 -->
<g id="node17" class="node">
<title>Node581</title>
<g id="a_node17"><a xlink:href="classCARLsim.html#ac79aadf0ac87b2ae34f39ae796ad81a3" target="_top" xlink:title="Sets default E&#45;STDP mode and parameters. ">
<polygon fill="#ffffff" stroke="#000000" points="324.5,-190.5 324.5,-209.5 437.5,-209.5 437.5,-190.5 324.5,-190.5"/>
<text text-anchor="middle" x="381" y="-197.5" font-family="Helvetica,sans-Serif" font-size="10.00" fill="#000000">CARLsim::setESTDP</text>
</a>
</g>
</g>
<!-- Node578&#45;&gt;Node581 -->
<g id="edge16" class="edge">
<title>Node578&#45;&gt;Node581</title>
<path fill="none" stroke="#191970" d="M231.2913,-229.6298C261.3086,-223.6889 301.6557,-215.7036 332.9006,-209.5197"/>
<polygon fill="#191970" stroke="#191970" points="230.2666,-226.2647 221.1365,-231.6397 231.6258,-233.1315 230.2666,-226.2647"/>
</g>
<!-- Node582 -->
<g id="node18" class="node">
<title>Node582</title>
<g id="a_node18"><a xlink:href="classCARLsim.html#a675bb0d593722135066c11b0d3d99d50" target="_top" xlink:title="Sets default I&#45;STDP mode and parameters. ">
<polygon fill="#ffffff" stroke="#000000" points="326.5,-152.5 326.5,-171.5 435.5,-171.5 435.5,-152.5 326.5,-152.5"/>
<text text-anchor="middle" x="381" y="-159.5" font-family="Helvetica,sans-Serif" font-size="10.00" fill="#000000">CARLsim::setISTDP</text>
</a>
</g>
</g>
<!-- Node578&#45;&gt;Node582 -->
<g id="edge17" class="edge">
<title>Node578&#45;&gt;Node582</title>
<path fill="none" stroke="#191970" d="M230.7977,-229.8827C239.4929,-227.1863 248.3349,-223.6404 256,-219 275.9016,-206.9518 271.7117,-192.385 292,-181 302.4716,-175.1238 314.5696,-171.062 326.4056,-168.2552"/>
<polygon fill="#191970" stroke="#191970" points="229.8082,-226.5249 221.1134,-232.5789 231.6858,-233.2684 229.8082,-226.5249"/>
</g>
<!-- Node580 -->
<g id="node16" class="node">
<title>Node580</title>
<g id="a_node16"><a xlink:href="classCARLsim.html#af69130fee82ddc631a62ed0878c65e9f" target="_top" xlink:title="Sets default STDP mode and params. ">
<polygon fill="#ffffff" stroke="#000000" points="506,-228.5 506,-247.5 612,-247.5 612,-228.5 506,-228.5"/>
<text text-anchor="middle" x="559" y="-235.5" font-family="Helvetica,sans-Serif" font-size="10.00" fill="#000000">CARLsim::setSTDP</text>
</a>
</g>
</g>
<!-- Node579&#45;&gt;Node580 -->
<g id="edge15" class="edge">
<title>Node579&#45;&gt;Node580</title>
<path fill="none" stroke="#191970" d="M419.8551,-238C445.0114,-238 478.1018,-238 505.7015,-238"/>
<polygon fill="#191970" stroke="#191970" points="419.5988,-234.5001 409.5988,-238 419.5987,-241.5001 419.5988,-234.5001"/>
</g>
<!-- Node584 -->
<g id="node20" class="node">
<title>Node584</title>
<g id="a_node20"><a xlink:href="classCARLsim.html#a30b0193a57cdc6ae3a2aa4cb9e3bc214" target="_top" xlink:title="Sets I&#45;STDP with the exponential curve. ">
<polygon fill="#ffffff" stroke="#000000" points="326.5,-114.5 326.5,-133.5 435.5,-133.5 435.5,-114.5 326.5,-114.5"/>
<text text-anchor="middle" x="381" y="-121.5" font-family="Helvetica,sans-Serif" font-size="10.00" fill="#000000">CARLsim::setISTDP</text>
</a>
</g>
</g>
<!-- Node583&#45;&gt;Node584 -->
<g id="edge19" class="edge">
<title>Node583&#45;&gt;Node584</title>
<path fill="none" stroke="#191970" d="M228.9688,-192.4381C238.2455,-189.6789 247.7968,-185.9662 256,-181 275.9016,-168.9518 271.7117,-154.385 292,-143 302.4716,-137.1238 314.5696,-133.062 326.4056,-130.2552"/>
<polygon fill="#191970" stroke="#191970" points="227.8484,-189.1145 219.0873,-195.0721 229.6514,-195.8783 227.8484,-189.1145"/>
</g>
<!-- Node586 -->
<g id="node22" class="node">
<title>Node586</title>
<g id="a_node22"><a xlink:href="classCARLsim.html#a875708f5a61243433e23e99ce4d6aea1" target="_top" xlink:title="Sets the amount of current (mA) to inject into a group. ">
<polygon fill="#ffffff" stroke="#000000" points="307.5,-76.5 307.5,-95.5 454.5,-95.5 454.5,-76.5 307.5,-76.5"/>
<text text-anchor="middle" x="381" y="-83.5" font-family="Helvetica,sans-Serif" font-size="10.00" fill="#000000">CARLsim::setExternalCurrent</text>
</a>
</g>
</g>
<!-- Node585&#45;&gt;Node586 -->
<g id="edge21" class="edge">
<title>Node585&#45;&gt;Node586</title>
<path fill="none" stroke="#191970" d="M244.5347,-148.8495C248.5252,-147.125 252.3929,-145.1837 256,-143 275.9016,-130.9518 271.7117,-116.385 292,-105 298.8892,-101.134 306.4824,-98.0534 314.2418,-95.5989"/>
<polygon fill="#191970" stroke="#191970" points="243.1427,-145.6349 235.066,-152.4918 245.6559,-152.1682 243.1427,-145.6349"/>
</g>
<!-- Node588 -->
<g id="node24" class="node">
<title>Node588</title>
<g id="a_node24"><a xlink:href="classCARLsim.html#adc71069e71cd551526ddafb3d873d649" target="_top" xlink:title="A SpikeCounter keeps track of the number of spikes per neuron in a group. ">
<polygon fill="#ffffff" stroke="#000000" points="308,-38.5 308,-57.5 454,-57.5 454,-38.5 308,-38.5"/>
<text text-anchor="middle" x="381" y="-45.5" font-family="Helvetica,sans-Serif" font-size="10.00" fill="#000000">CARLsim::setSpikeGenerator</text>
</a>
</g>
</g>
<!-- Node587&#45;&gt;Node588 -->
<g id="edge23" class="edge">
<title>Node587&#45;&gt;Node588</title>
<path fill="none" stroke="#191970" d="M244.5347,-110.8495C248.5252,-109.125 252.3929,-107.1837 256,-105 275.9016,-92.9518 271.7117,-78.385 292,-67 298.8892,-63.134 306.4824,-60.0534 314.2418,-57.5989"/>
<polygon fill="#191970" stroke="#191970" points="243.1427,-107.6349 235.066,-114.4918 245.6559,-114.1682 243.1427,-107.6349"/>
</g>
<!-- Node590 -->
<g id="node26" class="node">
<title>Node590</title>
<g id="a_node26"><a xlink:href="classCARLsim.html#a04f52d2840105c8ccacf8d378d1695cf" target="_top" xlink:title="Sets a spike rate. ">
<polygon fill="#ffffff" stroke="#000000" points="318.5,-.5 318.5,-19.5 443.5,-19.5 443.5,-.5 318.5,-.5"/>
<text text-anchor="middle" x="381" y="-7.5" font-family="Helvetica,sans-Serif" font-size="10.00" fill="#000000">CARLsim::setSpikeRate</text>
</a>
</g>
</g>
<!-- Node589&#45;&gt;Node590 -->
<g id="edge25" class="edge">
<title>Node589&#45;&gt;Node590</title>
<path fill="none" stroke="#191970" d="M237.025,-75.8055C243.6428,-73.433 250.1627,-70.5338 256,-67 275.9016,-54.9518 271.7117,-40.385 292,-29 300.1292,-24.4382 309.2387,-20.9699 318.4448,-18.3333"/>
<polygon fill="#191970" stroke="#191970" points="235.7797,-72.5293 227.3273,-78.9174 237.9185,-79.1946 235.7797,-72.5293"/>
</g>
</g>
</svg>
