<?xml version="1.0" encoding="UTF-8" standalone="no"?>
<!DOCTYPE svg PUBLIC "-//W3C//DTD SVG 1.1//EN"
 "http://www.w3.org/Graphics/SVG/1.1/DTD/svg11.dtd">
<!-- Generated by graphviz version 2.40.1 (20161225.0304)
 -->
<!-- Title: getNumWeightsInRange Pages: 1 -->
<!--zoomable 162 -->
<svg id="main" version="1.1" xmlns="http://www.w3.org/2000/svg" xmlns:xlink="http://www.w3.org/1999/xlink" xml:space="preserve" onload="init(evt)">
<style type="text/css"><![CDATA[
.edge:hover path { stroke: red; }
.edge:hover polygon { stroke: red; fill: red; }
]]></style>
<script type="text/javascript"><![CDATA[
var edges = document.getElementsByTagName('g');
if (edges && edges.length) {
  for (var i=0;i<edges.length;i++) {
    if (edges[i].id.substr(0,4)=='edge') {
      edges[i].setAttribute('class','edge');
    }
  }
}
]]></script>
        <defs>
                <circle id="rim" cx="0" cy="0" r="7"/>
                <circle id="rim2" cx="0" cy="0" r="3.5"/>
                <g id="zoomPlus">
                        <use xlink:href="#rim" fill="#404040">
                                <set attributeName="fill" to="#808080" begin="zoomplus.mouseover" end="zoomplus.mouseout"/>
                        </use>
                        <path d="M-4,0h8M0,-4v8" fill="none" stroke="white" stroke-width="1.5" pointer-events="none"/>
                </g>
                <g id="zoomMin">
                        <use xlink:href="#rim" fill="#404040">
                                <set attributeName="fill" to="#808080" begin="zoomminus.mouseover" end="zoomminus.mouseout"/>
                        </use>
                        <path d="M-4,0h8" fill="none" stroke="white" stroke-width="1.5" pointer-events="none"/>
                </g>
                <g id="dirArrow">
                        <path fill="none" stroke="white" stroke-width="1.5" d="M0,-3.0v7 M-2.5,-0.5L0,-3.0L2.5,-0.5"/>
                </g>
               <g id="resetDef">
                       <use xlink:href="#rim2" fill="#404040">
                               <set attributeName="fill" to="#808080" begin="reset.mouseover" end="reset.mouseout"/>
                       </use>
               </g>
        </defs>

<script type="text/javascript">
var viewWidth = 782;
var viewHeight = 162;
var sectionId = 'dynsection-14';
</script>
<script xlink:href="svgpan.js"/>
<svg id="graph" class="graph">
<g id="viewport">
<title>getNumWeightsInRange</title>
<polygon fill="#ffffff" stroke="transparent" points="-4,4 -4,-158 778,-158 778,4 -4,4"/>
<!-- Node55 -->
<g id="node1" class="node">
<title>Node55</title>
<polygon fill="#bfbfbf" stroke="#000000" points="0,-72 0,-91 124,-91 124,-72 0,-72"/>
<text text-anchor="middle" x="62" y="-79" font-family="Helvetica,sans-Serif" font-size="10.00" fill="#000000">getNumWeightsInRange</text>
</g>
<!-- Node56 -->
<g id="node2" class="node">
<title>Node56</title>
<g id="a_node2"><a xlink:href="classUserErrors.html#a4bbedc6c0817d5e59e74e450bf00472c" target="_top" xlink:title="simple wrapper for assert statement ">
<polygon fill="#ffffff" stroke="#000000" points="167,-94 167,-113 283,-113 283,-94 167,-94"/>
<text text-anchor="middle" x="225" y="-101" font-family="Helvetica,sans-Serif" font-size="10.00" fill="#000000">UserErrors::assertTrue</text>
</a>
</g>
</g>
<!-- Node55&#45;&gt;Node56 -->
<g id="edge1" class="edge">
<title>Node55&#45;&gt;Node56</title>
<path fill="none" stroke="#191970" d="M124.0883,-89.88C134.7242,-91.3155 145.8285,-92.8143 156.6177,-94.2705"/>
<polygon fill="#191970" stroke="#191970" points="156.4617,-97.7811 166.84,-95.6502 157.398,-90.844 156.4617,-97.7811"/>
</g>
<!-- Node57 -->
<g id="node3" class="node">
<title>Node57</title>
<g id="a_node3"><a xlink:href="classConnectionMonitorCore.html#a6c63078d9c2226cd48f51e4d4ed0d4db" target="_top" xlink:title="returns number of weights with values in range e[minVal,maxVal] (inclusive) ">
<polygon fill="#ffffff" stroke="#000000" points="160,-44.5 160,-74.5 290,-74.5 290,-44.5 160,-44.5"/>
<text text-anchor="start" x="168" y="-62.5" font-family="Helvetica,sans-Serif" font-size="10.00" fill="#000000">ConnectionMonitorCore</text>
<text text-anchor="middle" x="225" y="-51.5" font-family="Helvetica,sans-Serif" font-size="10.00" fill="#000000">::getNumWeightsInRange</text>
</a>
</g>
</g>
<!-- Node55&#45;&gt;Node57 -->
<g id="edge2" class="edge">
<title>Node55&#45;&gt;Node57</title>
<path fill="none" stroke="#191970" d="M124.0883,-73.12C132.4947,-71.9854 141.1937,-70.8113 149.7984,-69.6499"/>
<polygon fill="#191970" stroke="#191970" points="150.3913,-73.1017 159.8332,-68.2955 149.4549,-66.1646 150.3913,-73.1017"/>
</g>
<!-- Node58 -->
<g id="node4" class="node">
<title>Node58</title>
<g id="a_node4"><a xlink:href="classConnectionMonitorCore.html#aa096d9983144b3323d6f370e37b0859c" target="_top" xlink:title="returns min weight in the connection (getCurrent=false: RangeWeight.min, true: current smallest) ...">
<polygon fill="#ffffff" stroke="#000000" points="655,-123.5 655,-153.5 774,-153.5 774,-123.5 655,-123.5"/>
<text text-anchor="start" x="663" y="-141.5" font-family="Helvetica,sans-Serif" font-size="10.00" fill="#000000">ConnectionMonitorCore</text>
<text text-anchor="middle" x="714.5" y="-130.5" font-family="Helvetica,sans-Serif" font-size="10.00" fill="#000000">::getMinWeight</text>
</a>
</g>
</g>
<!-- Node57&#45;&gt;Node58 -->
<g id="edge3" class="edge">
<title>Node57&#45;&gt;Node58</title>
<path fill="none" stroke="#191970" d="M264.957,-74.5615C283.382,-81.1917 305.6377,-88.7601 326,-94.5 393.8813,-113.635 411.0626,-119.4015 481,-128.5 535.6145,-135.605 597.9571,-137.987 644.4793,-138.6569"/>
<polygon fill="#191970" stroke="#191970" points="644.7116,-142.1598 654.7531,-138.7808 644.7961,-135.1604 644.7116,-142.1598"/>
</g>
<!-- Node59 -->
<g id="node5" class="node">
<title>Node59</title>
<g id="a_node5"><a xlink:href="classConnectionMonitorCore.html#a30f10c789ec0f272848c2a68cd35fa97" target="_top" xlink:title="returns max weight in the connection (getCurrent=false: RangeWeight.max, true: current largest) ...">
<polygon fill="#ffffff" stroke="#000000" points="655,-66.5 655,-96.5 774,-96.5 774,-66.5 655,-66.5"/>
<text text-anchor="start" x="663" y="-84.5" font-family="Helvetica,sans-Serif" font-size="10.00" fill="#000000">ConnectionMonitorCore</text>
<text text-anchor="middle" x="714.5" y="-73.5" font-family="Helvetica,sans-Serif" font-size="10.00" fill="#000000">::getMaxWeight</text>
</a>
</g>
</g>
<!-- Node57&#45;&gt;Node59 -->
<g id="edge4" class="edge">
<title>Node57&#45;&gt;Node59</title>
<path fill="none" stroke="#191970" d="M290.0018,-62.4214C382.2159,-66.5659 550.3001,-74.1202 644.9414,-78.3738"/>
<polygon fill="#191970" stroke="#191970" points="644.84,-81.8727 654.9871,-78.8253 645.1544,-74.8797 644.84,-81.8727"/>
</g>
<!-- Node60 -->
<g id="node6" class="node">
<title>Node60</title>
<g id="a_node6"><a xlink:href="classConnectionMonitorCore.html#a7373a8cecde25ccd48b3df967b5b0417" target="_top" xlink:title="returns number of synapses that exist in the connection ">
<polygon fill="#ffffff" stroke="#000000" points="326,-.5 326,-30.5 445,-30.5 445,-.5 326,-.5"/>
<text text-anchor="start" x="334" y="-18.5" font-family="Helvetica,sans-Serif" font-size="10.00" fill="#000000">ConnectionMonitorCore</text>
<text text-anchor="middle" x="385.5" y="-7.5" font-family="Helvetica,sans-Serif" font-size="10.00" fill="#000000">::getNumSynapses</text>
</a>
</g>
</g>
<!-- Node57&#45;&gt;Node60 -->
<g id="edge5" class="edge">
<title>Node57&#45;&gt;Node60</title>
<path fill="none" stroke="#191970" d="M259.4313,-44.4036C275.9786,-38.9764 296.4347,-33.0224 316.0193,-27.852"/>
<polygon fill="#191970" stroke="#191970" points="317.0458,-31.2017 325.848,-25.3048 315.2897,-24.4255 317.0458,-31.2017"/>
</g>
<!-- Node60&#45;&gt;Node57 -->
<g id="edge8" class="edge">
<title>Node60&#45;&gt;Node57</title>
<path fill="none" stroke="#191970" d="M351.0687,-30.5964C336.1054,-35.5041 317.9459,-40.8426 300.1248,-45.6428"/>
<polygon fill="#191970" stroke="#191970" points="299.0531,-42.3058 290.2815,-48.248 300.8442,-49.0728 299.0531,-42.3058"/>
</g>
<!-- Node61 -->
<g id="node7" class="node">
<title>Node61</title>
<g id="a_node7"><a xlink:href="classConnectionMonitorCore.html#ad094dca7a9d2ac2c46e89f1035706eba" target="_top" xlink:title="returns number of weights with &gt;=minAbsChanged weight change since last snapshot ">
<polygon fill="#ffffff" stroke="#000000" points="484,-.5 484,-30.5 616,-30.5 616,-.5 484,-.5"/>
<text text-anchor="start" x="492" y="-18.5" font-family="Helvetica,sans-Serif" font-size="10.00" fill="#000000">ConnectionMonitorCore</text>
<text text-anchor="middle" x="550" y="-7.5" font-family="Helvetica,sans-Serif" font-size="10.00" fill="#000000">::getNumWeightsChanged</text>
</a>
</g>
</g>
<!-- Node60&#45;&gt;Node61 -->
<g id="edge6" class="edge">
<title>Node60&#45;&gt;Node61</title>
<path fill="none" stroke="#191970" d="M445.3536,-15.5C454.5286,-15.5 464.106,-15.5 473.5798,-15.5"/>
<polygon fill="#191970" stroke="#191970" points="473.7953,-19.0001 483.7952,-15.5 473.7952,-12.0001 473.7953,-19.0001"/>
</g>
<!-- Node63 -->
<g id="node9" class="node">
<title>Node63</title>
<g id="a_node9"><a xlink:href="classConnectionMonitorCore.html#af0258258ab62c21e22a4bc98dcaa050e" target="_top" xlink:title="returns number of weights that have a certain value ">
<polygon fill="#ffffff" stroke="#000000" points="481,-88.5 481,-118.5 619,-118.5 619,-88.5 481,-88.5"/>
<text text-anchor="start" x="489" y="-106.5" font-family="Helvetica,sans-Serif" font-size="10.00" fill="#000000">ConnectionMonitorCore</text>
<text text-anchor="middle" x="550" y="-95.5" font-family="Helvetica,sans-Serif" font-size="10.00" fill="#000000">::getNumWeightsWithValue</text>
</a>
</g>
</g>
<!-- Node60&#45;&gt;Node63 -->
<g id="edge9" class="edge">
<title>Node60&#45;&gt;Node63</title>
<path fill="none" stroke="#191970" d="M413.7786,-30.6277C441.1676,-45.2796 482.8522,-67.579 512.8946,-83.6503"/>
<polygon fill="#191970" stroke="#191970" points="511.3471,-86.7918 521.8157,-88.4227 514.6491,-80.6195 511.3471,-86.7918"/>
</g>
<!-- Node62 -->
<g id="node8" class="node">
<title>Node62</title>
<g id="a_node8"><a xlink:href="classConnectionMonitorCore.html#a730c0ec47d470c8920ab57288c31ca3b" target="_top" xlink:title="calculates weight changes since last snapshot and reports them in 2D weight change matrix ...">
<polygon fill="#ffffff" stroke="#000000" points="655,-.5 655,-30.5 774,-30.5 774,-.5 655,-.5"/>
<text text-anchor="start" x="663" y="-18.5" font-family="Helvetica,sans-Serif" font-size="10.00" fill="#000000">ConnectionMonitorCore</text>
<text text-anchor="middle" x="714.5" y="-7.5" font-family="Helvetica,sans-Serif" font-size="10.00" fill="#000000">::calcWeightChanges</text>
</a>
</g>
</g>
<!-- Node61&#45;&gt;Node62 -->
<g id="edge7" class="edge">
<title>Node61&#45;&gt;Node62</title>
<path fill="none" stroke="#191970" d="M616.4343,-15.5C625.7985,-15.5 635.4469,-15.5 644.869,-15.5"/>
<polygon fill="#191970" stroke="#191970" points="644.98,-19.0001 654.98,-15.5 644.98,-12.0001 644.98,-19.0001"/>
</g>
<!-- Node63&#45;&gt;Node57 -->
<g id="edge12" class="edge">
<title>Node63&#45;&gt;Node57</title>
<path fill="none" stroke="#191970" d="M480.8664,-94.3245C436.5863,-88.427 377.9005,-80.5725 326,-73.5 317.6793,-72.3661 308.9743,-71.1718 300.3131,-69.9783"/>
<polygon fill="#191970" stroke="#191970" points="300.576,-66.4814 290.1913,-68.5812 299.6188,-73.4157 300.576,-66.4814"/>
</g>
<!-- Node63&#45;&gt;Node58 -->
<g id="edge10" class="edge">
<title>Node63&#45;&gt;Node58</title>
<path fill="none" stroke="#191970" d="M619.286,-118.2417C627.806,-120.0545 636.5163,-121.9077 645.0388,-123.721"/>
<polygon fill="#191970" stroke="#191970" points="644.4251,-127.1687 654.9346,-125.8265 645.8819,-120.322 644.4251,-127.1687"/>
</g>
<!-- Node63&#45;&gt;Node59 -->
<g id="edge11" class="edge">
<title>Node63&#45;&gt;Node59</title>
<path fill="none" stroke="#191970" d="M619.286,-94.2338C627.7134,-93.1067 636.3269,-91.9548 644.7608,-90.8268"/>
<polygon fill="#191970" stroke="#191970" points="645.4868,-94.261 654.9346,-89.4662 644.5588,-87.3228 645.4868,-94.261"/>
</g>
</g>
</svg>
        <g id="navigator" transform="translate(0 0)" fill="#404254">
                <rect fill="#f2f5e9" fill-opacity="0.5" stroke="#606060" stroke-width=".5" x="0" y="0" width="60" height="60"/>
                <use id="zoomplus" xlink:href="#zoomPlus" x="17" y="9" onmousedown="handleZoom(evt,'in')"/>
                <use id="zoomminus" xlink:href="#zoomMin" x="42" y="9" onmousedown="handleZoom(evt,'out')"/>
                <use id="reset" xlink:href="#resetDef" x="30" y="36" onmousedown="handleReset()"/>
                <g id="arrowUp" xlink:href="#dirArrow" transform="translate(30 24)" onmousedown="handlePan(0,-1)">
                  <use xlink:href="#rim" fill="#404040">
                        <set attributeName="fill" to="#808080" begin="arrowUp.mouseover" end="arrowUp.mouseout"/>
                  </use>
                  <path fill="none" stroke="white" stroke-width="1.5" d="M0,-3.0v7 M-2.5,-0.5L0,-3.0L2.5,-0.5"/>
                </g>
                <g id="arrowRight" xlink:href="#dirArrow" transform="rotate(90) translate(36 -43)" onmousedown="handlePan(1,0)">
                  <use xlink:href="#rim" fill="#404040">
                        <set attributeName="fill" to="#808080" begin="arrowRight.mouseover" end="arrowRight.mouseout"/>
                  </use>
                  <path fill="none" stroke="white" stroke-width="1.5" d="M0,-3.0v7 M-2.5,-0.5L0,-3.0L2.5,-0.5"/>
                </g>
                <g id="arrowDown" xlink:href="#dirArrow" transform="rotate(180) translate(-30 -48)" onmousedown="handlePan(0,1)">
                  <use xlink:href="#rim" fill="#404040">
                        <set attributeName="fill" to="#808080" begin="arrowDown.mouseover" end="arrowDown.mouseout"/>
                  </use>
                  <path fill="none" stroke="white" stroke-width="1.5" d="M0,-3.0v7 M-2.5,-0.5L0,-3.0L2.5,-0.5"/>
                </g>
                <g id="arrowLeft" xlink:href="#dirArrow" transform="rotate(270) translate(-36 17)" onmousedown="handlePan(-1,0)">
                  <use xlink:href="#rim" fill="#404040">
                        <set attributeName="fill" to="#808080" begin="arrowLeft.mouseover" end="arrowLeft.mouseout"/>
                  </use>
                  <path fill="none" stroke="white" stroke-width="1.5" d="M0,-3.0v7 M-2.5,-0.5L0,-3.0L2.5,-0.5"/>
                </g>
        </g>
        <svg viewBox="0 0 15 15" width="100%" height="30px" preserveAspectRatio="xMaxYMin meet">
         <g id="arrow_out" transform="scale(0.3 0.3)">
          <a xlink:href="classConnectionMonitor_ad005723dcdb0848e308eb2483c2dab2c_cgraph_org.svg" target="_base">
           <rect id="button" ry="5" rx="5" y="6" x="6" height="38" width="38"
                fill="#f2f5e9" fill-opacity="0.5" stroke="#606060" stroke-width="1.0"/>
           <path id="arrow"
             d="M 11.500037,31.436501 C 11.940474,20.09759 22.043105,11.32322 32.158766,21.979434 L 37.068811,17.246167 C 37.068811,17.246167 37.088388,32 37.088388,32 L 22.160133,31.978069 C 22.160133,31.978069 26.997745,27.140456 26.997745,27.140456 C 18.528582,18.264221 13.291696,25.230495 11.500037,31.436501 z"
             style="fill:#404040;"/>
          </a>
         </g>
        </svg>
</svg>
