<?xml version="1.0" encoding="UTF-8" standalone="no"?>
<!DOCTYPE svg PUBLIC "-//W3C//DTD SVG 1.1//EN"
 "http://www.w3.org/Graphics/SVG/1.1/DTD/svg11.dtd">
<!-- Generated by graphviz version 2.40.1 (20161225.0304)
 -->
<!-- Title: saveSimulation Pages: 1 -->
<svg width="436pt" height="66pt"
 viewBox="0.00 0.00 436.00 66.00" xmlns="http://www.w3.org/2000/svg" xmlns:xlink="http://www.w3.org/1999/xlink">
<g id="graph0" class="graph" transform="scale(1 1) rotate(0) translate(4 62)">
<title>saveSimulation</title>
<polygon fill="#ffffff" stroke="transparent" points="-4,4 -4,-62 432,-62 432,4 -4,4"/>
<!-- Node526 -->
<g id="node1" class="node">
<title>Node526</title>
<polygon fill="#bfbfbf" stroke="#000000" points="0,-19.5 0,-38.5 83,-38.5 83,-19.5 0,-19.5"/>
<text text-anchor="middle" x="41.5" y="-26.5" font-family="Helvetica,sans-Serif" font-size="10.00" fill="#000000">saveSimulation</text>
</g>
<!-- Node527 -->
<g id="node2" class="node">
<title>Node527</title>
<g id="a_node2"><a xlink:href="classCARLsim_1_1Impl.html#aa665c758ce50f34c0a66dffe3a2a6476" target="_top" xlink:title="CARLsim::Impl::saveSimulation">
<polygon fill="#ffffff" stroke="#000000" points="119,-19.5 119,-38.5 276,-38.5 276,-19.5 119,-19.5"/>
<text text-anchor="middle" x="197.5" y="-26.5" font-family="Helvetica,sans-Serif" font-size="10.00" fill="#000000">CARLsim::Impl::saveSimulation</text>
</a>
</g>
</g>
<!-- Node526&#45;&gt;Node527 -->
<g id="edge1" class="edge">
<title>Node526&#45;&gt;Node527</title>
<path fill="none" stroke="#191970" d="M83.3051,-29C91.3051,-29 99.9579,-29 108.7975,-29"/>
<polygon fill="#191970" stroke="#191970" points="108.8323,-32.5001 118.8323,-29 108.8323,-25.5001 108.8323,-32.5001"/>
</g>
<!-- Node528 -->
<g id="node3" class="node">
<title>Node528</title>
<g id="a_node3"><a xlink:href="classUserErrors.html#a4bbedc6c0817d5e59e74e450bf00472c" target="_top" xlink:title="simple wrapper for assert statement ">
<polygon fill="#ffffff" stroke="#000000" points="312,-38.5 312,-57.5 428,-57.5 428,-38.5 312,-38.5"/>
<text text-anchor="middle" x="370" y="-45.5" font-family="Helvetica,sans-Serif" font-size="10.00" fill="#000000">UserErrors::assertTrue</text>
</a>
</g>
</g>
<!-- Node527&#45;&gt;Node528 -->
<g id="edge2" class="edge">
<title>Node527&#45;&gt;Node528</title>
<path fill="none" stroke="#191970" d="M276.1781,-37.666C284.7064,-38.6053 293.3341,-39.5556 301.7244,-40.4798"/>
<polygon fill="#191970" stroke="#191970" points="301.4951,-43.9756 311.8183,-41.5916 302.2616,-37.0177 301.4951,-43.9756"/>
</g>
<!-- Node529 -->
<g id="node4" class="node">
<title>Node529</title>
<g id="a_node4"><a xlink:href="classSNN.html#a82ffd1eff0b99248989136ba006ed87d" target="_top" xlink:title="stores the pre and post synaptic neuron ids with the weight and delay ">
<polygon fill="#ffffff" stroke="#000000" points="314.5,-.5 314.5,-19.5 425.5,-19.5 425.5,-.5 314.5,-.5"/>
<text text-anchor="middle" x="370" y="-7.5" font-family="Helvetica,sans-Serif" font-size="10.00" fill="#000000">SNN::saveSimulation</text>
</a>
</g>
</g>
<!-- Node527&#45;&gt;Node529 -->
<g id="edge3" class="edge">
<title>Node527&#45;&gt;Node529</title>
<path fill="none" stroke="#191970" d="M276.1781,-20.334C285.5394,-19.3029 295.0206,-18.2586 304.176,-17.2502"/>
<polygon fill="#191970" stroke="#191970" points="304.7938,-20.7034 314.3505,-16.1295 304.0274,-13.7455 304.7938,-20.7034"/>
</g>
</g>
</svg>
