<?xml version="1.0" encoding="UTF-8" standalone="no"?>
<!DOCTYPE svg PUBLIC "-//W3C//DTD SVG 1.1//EN"
 "http://www.w3.org/Graphics/SVG/1.1/DTD/svg11.dtd">
<!-- Generated by graphviz version 2.40.1 (20161225.0304)
 -->
<!-- Title: stopRecording Pages: 1 -->
<!--zoomable 737 -->
<svg id="main" version="1.1" xmlns="http://www.w3.org/2000/svg" xmlns:xlink="http://www.w3.org/1999/xlink" xml:space="preserve" onload="init(evt)">
<style type="text/css"><![CDATA[
.edge:hover path { stroke: red; }
.edge:hover polygon { stroke: red; fill: red; }
]]></style>
<script type="text/javascript"><![CDATA[
var edges = document.getElementsByTagName('g');
if (edges && edges.length) {
  for (var i=0;i<edges.length;i++) {
    if (edges[i].id.substr(0,4)=='edge') {
      edges[i].setAttribute('class','edge');
    }
  }
}
]]></script>
        <defs>
                <circle id="rim" cx="0" cy="0" r="7"/>
                <circle id="rim2" cx="0" cy="0" r="3.5"/>
                <g id="zoomPlus">
                        <use xlink:href="#rim" fill="#404040">
                                <set attributeName="fill" to="#808080" begin="zoomplus.mouseover" end="zoomplus.mouseout"/>
                        </use>
                        <path d="M-4,0h8M0,-4v8" fill="none" stroke="white" stroke-width="1.5" pointer-events="none"/>
                </g>
                <g id="zoomMin">
                        <use xlink:href="#rim" fill="#404040">
                                <set attributeName="fill" to="#808080" begin="zoomminus.mouseover" end="zoomminus.mouseout"/>
                        </use>
                        <path d="M-4,0h8" fill="none" stroke="white" stroke-width="1.5" pointer-events="none"/>
                </g>
                <g id="dirArrow">
                        <path fill="none" stroke="white" stroke-width="1.5" d="M0,-3.0v7 M-2.5,-0.5L0,-3.0L2.5,-0.5"/>
                </g>
               <g id="resetDef">
                       <use xlink:href="#rim2" fill="#404040">
                               <set attributeName="fill" to="#808080" begin="reset.mouseover" end="reset.mouseout"/>
                       </use>
               </g>
        </defs>

<script type="text/javascript">
var viewWidth = 2110;
var viewHeight = 737;
var sectionId = 'dynsection-32';
</script>
<script xlink:href="svgpan.js"/>
<svg id="graph" class="graph">
<g id="viewport">
<title>stopRecording</title>
<polygon fill="#ffffff" stroke="transparent" points="-4,4 -4,-733 2106,-733 2106,4 -4,4"/>
<!-- Node526 -->
<g id="node1" class="node">
<title>Node526</title>
<polygon fill="#bfbfbf" stroke="#000000" points="0,-624.5 0,-643.5 80,-643.5 80,-624.5 0,-624.5"/>
<text text-anchor="middle" x="40" y="-631.5" font-family="Helvetica,sans-Serif" font-size="10.00" fill="#000000">stopRecording</text>
</g>
<!-- Node527 -->
<g id="node2" class="node">
<title>Node527</title>
<g id="a_node2"><a xlink:href="classUserErrors.html#a4bbedc6c0817d5e59e74e450bf00472c" target="_top" xlink:title="simple wrapper for assert statement ">
<polygon fill="#ffffff" stroke="#000000" points="140,-662.5 140,-681.5 256,-681.5 256,-662.5 140,-662.5"/>
<text text-anchor="middle" x="198" y="-669.5" font-family="Helvetica,sans-Serif" font-size="10.00" fill="#000000">UserErrors::assertTrue</text>
</a>
</g>
</g>
<!-- Node526&#45;&gt;Node527 -->
<g id="edge1" class="edge">
<title>Node526&#45;&gt;Node527</title>
<path fill="none" stroke="#191970" d="M79.8701,-643.589C100.7199,-648.6035 126.4346,-654.7881 148.5429,-660.1053"/>
<polygon fill="#191970" stroke="#191970" points="147.8754,-663.5445 158.4166,-662.4799 149.5123,-656.7385 147.8754,-663.5445"/>
</g>
<!-- Node528 -->
<g id="node3" class="node">
<title>Node528</title>
<g id="a_node3"><a xlink:href="classSpikeMonitor.html#a3a3ffdb35b09328d22e5d72503ed1f55" target="_top" xlink:title="Recording status (true=recording, false=not recording) ">
<polygon fill="#ffffff" stroke="#000000" points="347.5,-643.5 347.5,-662.5 415.5,-662.5 415.5,-643.5 347.5,-643.5"/>
<text text-anchor="middle" x="381.5" y="-650.5" font-family="Helvetica,sans-Serif" font-size="10.00" fill="#000000">isRecording</text>
</a>
</g>
</g>
<!-- Node526&#45;&gt;Node528 -->
<g id="edge2" class="edge">
<title>Node526&#45;&gt;Node528</title>
<path fill="none" stroke="#191970" d="M80.1786,-636.2354C144.445,-639.811 269.9233,-646.7922 336.8867,-650.5179"/>
<polygon fill="#191970" stroke="#191970" points="336.9341,-654.0258 347.1131,-651.0868 337.323,-647.0366 336.9341,-654.0258"/>
</g>
<!-- Node542 -->
<g id="node17" class="node">
<title>Node542</title>
<g id="a_node17"><a xlink:href="classSpikeMonitorCore.html#a25e0e98dd4519eaaa6b258f0dcb91ac7" target="_top" xlink:title="stops recording AER data ">
<polygon fill="#ffffff" stroke="#000000" points="116,-567.5 116,-586.5 280,-586.5 280,-567.5 116,-567.5"/>
<text text-anchor="middle" x="198" y="-574.5" font-family="Helvetica,sans-Serif" font-size="10.00" fill="#000000">SpikeMonitorCore::stopRecording</text>
</a>
</g>
</g>
<!-- Node526&#45;&gt;Node542 -->
<g id="edge30" class="edge">
<title>Node526&#45;&gt;Node542</title>
<path fill="none" stroke="#191970" d="M66.4456,-624.4595C92.5355,-615.0473 132.6208,-600.5862 161.6874,-590.1001"/>
<polygon fill="#191970" stroke="#191970" points="163.2492,-593.2575 171.4681,-586.5716 160.8737,-586.6729 163.2492,-593.2575"/>
</g>
<!-- Node529 -->
<g id="node4" class="node">
<title>Node529</title>
<g id="a_node4"><a xlink:href="classSpikeMonitorCore.html#a3a3ffdb35b09328d22e5d72503ed1f55" target="_top" xlink:title="returns recording status ">
<polygon fill="#ffffff" stroke="#000000" points="868,-542.5 868,-561.5 1020,-561.5 1020,-542.5 868,-542.5"/>
<text text-anchor="middle" x="944" y="-549.5" font-family="Helvetica,sans-Serif" font-size="10.00" fill="#000000">SpikeMonitorCore::isRecording</text>
</a>
</g>
</g>
<!-- Node528&#45;&gt;Node529 -->
<g id="edge3" class="edge">
<title>Node528&#45;&gt;Node529</title>
<path fill="none" stroke="#191970" d="M415.6634,-657.1248C491.9454,-665.0699 680.9845,-677.6957 828,-629 866.6907,-616.1845 904.7381,-586.8459 926.2042,-568.3103"/>
<polygon fill="#191970" stroke="#191970" points="928.663,-570.8083 933.8389,-561.5638 924.0277,-565.5628 928.663,-570.8083"/>
</g>
<!-- Node530 -->
<g id="node5" class="node">
<title>Node530</title>
<g id="a_node5"><a xlink:href="classSpikeMonitorCore.html#af0ba89c38f6852cdf9d914687ad6a445" target="_top" xlink:title="prints the AER vector in human&#45;readable format ">
<polygon fill="#ffffff" stroke="#000000" points="1072,-479.5 1072,-498.5 1191,-498.5 1191,-479.5 1072,-479.5"/>
<text text-anchor="middle" x="1131.5" y="-486.5" font-family="Helvetica,sans-Serif" font-size="10.00" fill="#000000">SpikeMonitorCore::print</text>
</a>
</g>
</g>
<!-- Node529&#45;&gt;Node530 -->
<g id="edge4" class="edge">
<title>Node529&#45;&gt;Node530</title>
<path fill="none" stroke="#191970" d="M960.6394,-542.3622C986.2527,-531.1608 1036.5046,-513.5498 1075.9104,-501.4519"/>
<polygon fill="#191970" stroke="#191970" points="1077.1132,-504.7448 1085.6736,-498.5022 1075.0887,-498.044 1077.1132,-504.7448"/>
</g>
<!-- Node541 -->
<g id="node16" class="node">
<title>Node541</title>
<g id="a_node16"><a xlink:href="classSpikeMonitorCore.html#a6e116c2994e0449c41e56d03370fa54c" target="_top" xlink:title="inserts a (time,neurId) tupel into the 2D spike vector ">
<polygon fill="#ffffff" stroke="#000000" points="1060,-251.5 1060,-270.5 1203,-270.5 1203,-251.5 1060,-251.5"/>
<text text-anchor="middle" x="1131.5" y="-258.5" font-family="Helvetica,sans-Serif" font-size="10.00" fill="#000000">SpikeMonitorCore::pushAER</text>
</a>
</g>
</g>
<!-- Node529&#45;&gt;Node541 -->
<g id="edge27" class="edge">
<title>Node529&#45;&gt;Node541</title>
<path fill="none" stroke="#191970" d="M950.1779,-542.2828C965.3766,-524.3923 1004.7443,-487.5479 1024,-448 1056.7873,-380.6603 1012.079,-337.9794 1059.1237,-278.3454"/>
<polygon fill="#191970" stroke="#191970" points="1061.8913,-280.493 1065.6767,-270.5975 1056.5466,-275.9725 1061.8913,-280.493"/>
</g>
<!-- Node530&#45;&gt;Node529 -->
<g id="edge5" class="edge">
<title>Node530&#45;&gt;Node529</title>
<path fill="none" stroke="#191970" d="M1115.016,-498.5698C1089.4637,-509.7622 1039.1253,-527.4082 999.6484,-539.53"/>
<polygon fill="#191970" stroke="#191970" points="998.4277,-536.2425 989.8677,-542.4855 1000.4526,-542.9433 998.4277,-536.2425"/>
</g>
<!-- Node531 -->
<g id="node6" class="node">
<title>Node531</title>
<g id="a_node6"><a xlink:href="classSNN.html#a5fd2b156623d78138bcb44167eabab78" target="_top" xlink:title="SNN::getSimTime">
<polygon fill="#ffffff" stroke="#000000" points="1256,-327.5 1256,-346.5 1353,-346.5 1353,-327.5 1256,-327.5"/>
<text text-anchor="middle" x="1304.5" y="-334.5" font-family="Helvetica,sans-Serif" font-size="10.00" fill="#000000">SNN::getSimTime</text>
</a>
</g>
</g>
<!-- Node530&#45;&gt;Node531 -->
<g id="edge6" class="edge">
<title>Node530&#45;&gt;Node531</title>
<path fill="none" stroke="#191970" d="M1137.2138,-479.1629C1151.435,-455.4944 1190.7728,-394.8308 1239,-361 1244.9984,-356.7922 1251.8198,-353.2328 1258.7403,-350.2504"/>
<polygon fill="#191970" stroke="#191970" points="1260.1501,-353.4569 1268.1707,-346.5344 1257.5838,-346.9443 1260.1501,-353.4569"/>
</g>
<!-- Node532 -->
<g id="node7" class="node">
<title>Node532</title>
<g id="a_node7"><a xlink:href="classSNN.html#ab0367f8ebd4019bf7d34ebddb1563fe7" target="_top" xlink:title="SNN::getGroupName">
<polygon fill="#ffffff" stroke="#000000" points="1249.5,-403.5 1249.5,-422.5 1359.5,-422.5 1359.5,-403.5 1249.5,-403.5"/>
<text text-anchor="middle" x="1304.5" y="-410.5" font-family="Helvetica,sans-Serif" font-size="10.00" fill="#000000">SNN::getGroupName</text>
</a>
</g>
</g>
<!-- Node530&#45;&gt;Node532 -->
<g id="edge7" class="edge">
<title>Node530&#45;&gt;Node532</title>
<path fill="none" stroke="#191970" d="M1149.8861,-479.414C1171.0883,-468.5229 1207.1225,-450.5107 1239,-437 1247.9258,-433.217 1257.6736,-429.4532 1266.8568,-426.0666"/>
<polygon fill="#191970" stroke="#191970" points="1268.3269,-429.2566 1276.5343,-422.5566 1265.9401,-422.676 1268.3269,-429.2566"/>
</g>
<!-- Node533 -->
<g id="node8" class="node">
<title>Node533</title>
<g id="a_node8"><a xlink:href="classSpikeMonitorCore.html#af6c333e6cefff92d0e354eca70625cdc" target="_top" xlink:title="returns the total number of recorded spikes in the group ">
<polygon fill="#ffffff" stroke="#000000" points="1601.5,-502 1601.5,-532 1732.5,-532 1732.5,-502 1601.5,-502"/>
<text text-anchor="start" x="1609.5" y="-520" font-family="Helvetica,sans-Serif" font-size="10.00" fill="#000000">SpikeMonitorCore::getPop</text>
<text text-anchor="middle" x="1667" y="-509" font-family="Helvetica,sans-Serif" font-size="10.00" fill="#000000">NumSpikes</text>
</a>
</g>
</g>
<!-- Node530&#45;&gt;Node533 -->
<g id="edge8" class="edge">
<title>Node530&#45;&gt;Node533</title>
<path fill="none" stroke="#191970" d="M1191.0715,-491.0733C1272.587,-494.0516 1423.4446,-500.0674 1552,-508 1564.6176,-508.7786 1578.005,-509.7204 1591.0153,-510.6977"/>
<polygon fill="#191970" stroke="#191970" points="1591.1091,-514.2149 1601.3466,-511.4865 1591.6421,-507.2352 1591.1091,-514.2149"/>
</g>
<!-- Node536 -->
<g id="node11" class="node">
<title>Node536</title>
<g id="a_node11"><a xlink:href="classSpikeMonitorCore.html#a9cf20c30ff0efdbc5e3c5194648a7fb3" target="_top" xlink:title="returns the total recorded time in ms ">
<polygon fill="#ffffff" stroke="#000000" points="1588,-436 1588,-466 1746,-466 1746,-436 1588,-436"/>
<text text-anchor="start" x="1596" y="-454" font-family="Helvetica,sans-Serif" font-size="10.00" fill="#000000">SpikeMonitorCore::getRecording</text>
<text text-anchor="middle" x="1667" y="-443" font-family="Helvetica,sans-Serif" font-size="10.00" fill="#000000">TotalTime</text>
</a>
</g>
</g>
<!-- Node530&#45;&gt;Node536 -->
<g id="edge13" class="edge">
<title>Node530&#45;&gt;Node536</title>
<path fill="none" stroke="#191970" d="M1191.1117,-484.7699C1285.0937,-478.1007 1468.2626,-465.1027 1577.9093,-457.322"/>
<polygon fill="#191970" stroke="#191970" points="1578.2313,-460.8081 1587.9584,-456.6089 1577.7357,-453.8256 1578.2313,-460.8081"/>
</g>
<!-- Node537 -->
<g id="node12" class="node">
<title>Node537</title>
<g id="a_node12"><a xlink:href="classSpikeMonitorCore.html#ae62d623e8edfc6b05309256c1d825bbd" target="_top" xlink:title="returns the recorded mean firing rate of the group ">
<polygon fill="#ffffff" stroke="#000000" points="1413.5,-518 1413.5,-548 1544.5,-548 1544.5,-518 1413.5,-518"/>
<text text-anchor="start" x="1421.5" y="-536" font-family="Helvetica,sans-Serif" font-size="10.00" fill="#000000">SpikeMonitorCore::getPop</text>
<text text-anchor="middle" x="1479" y="-525" font-family="Helvetica,sans-Serif" font-size="10.00" fill="#000000">MeanFiringRate</text>
</a>
</g>
</g>
<!-- Node530&#45;&gt;Node537 -->
<g id="edge14" class="edge">
<title>Node530&#45;&gt;Node537</title>
<path fill="none" stroke="#191970" d="M1191.1974,-496.8301C1206.7566,-498.8557 1223.5044,-501.0225 1239,-503 1293.9101,-510.0074 1355.9099,-517.7531 1403.137,-523.6185"/>
<polygon fill="#191970" stroke="#191970" points="1402.9307,-527.1197 1413.2857,-524.8782 1403.793,-520.173 1402.9307,-527.1197"/>
</g>
<!-- Node538 -->
<g id="node13" class="node">
<title>Node538</title>
<g id="a_node13"><a xlink:href="classSpikeMonitorCore.html#ad0c4b32bb5cc0c7a8d95ed6023a2695f" target="_top" xlink:title="computes the standard deviation of firing rates in the group ">
<polygon fill="#ffffff" stroke="#000000" points="1239,-594 1239,-624 1370,-624 1370,-594 1239,-594"/>
<text text-anchor="start" x="1247" y="-612" font-family="Helvetica,sans-Serif" font-size="10.00" fill="#000000">SpikeMonitorCore::getPop</text>
<text text-anchor="middle" x="1304.5" y="-601" font-family="Helvetica,sans-Serif" font-size="10.00" fill="#000000">StdFiringRate</text>
</a>
</g>
</g>
<!-- Node530&#45;&gt;Node538 -->
<g id="edge18" class="edge">
<title>Node530&#45;&gt;Node538</title>
<path fill="none" stroke="#191970" d="M1145.3649,-498.6173C1173.2009,-517.9255 1236.4531,-561.7999 1274.2946,-588.0483"/>
<polygon fill="#191970" stroke="#191970" points="1272.6628,-591.176 1282.8745,-593.9996 1276.6525,-585.4242 1272.6628,-591.176"/>
</g>
<!-- Node540 -->
<g id="node15" class="node">
<title>Node540</title>
<g id="a_node15"><a xlink:href="classSpikeMonitorCore.html#aed09edf4583ac05d42fccc7e3556e3c5" target="_top" xlink:title="returns the recorded mean firing rate for a specific neuron ">
<polygon fill="#ffffff" stroke="#000000" points="1406,-368 1406,-398 1552,-398 1552,-368 1406,-368"/>
<text text-anchor="start" x="1414" y="-386" font-family="Helvetica,sans-Serif" font-size="10.00" fill="#000000">SpikeMonitorCore::getNeuron</text>
<text text-anchor="middle" x="1479" y="-375" font-family="Helvetica,sans-Serif" font-size="10.00" fill="#000000">MeanFiringRate</text>
</a>
</g>
</g>
<!-- Node530&#45;&gt;Node540 -->
<g id="edge23" class="edge">
<title>Node530&#45;&gt;Node540</title>
<path fill="none" stroke="#191970" d="M1138.5149,-479.4309C1153.9809,-459.217 1193.2908,-412.5104 1239,-394 1288.3445,-374.0175 1348.1433,-371.2261 1395.7062,-373.451"/>
<polygon fill="#191970" stroke="#191970" points="1395.7919,-376.961 1405.9695,-374.017 1396.1774,-369.9716 1395.7919,-376.961"/>
</g>
<!-- Node533&#45;&gt;Node529 -->
<g id="edge9" class="edge">
<title>Node533&#45;&gt;Node529</title>
<path fill="none" stroke="#191970" d="M1659.8076,-532.0548C1644.7005,-561.6756 1606.5064,-626.8296 1552,-652 1353.3305,-743.7433 1265.6107,-707.9043 1060,-633 1020.8811,-618.7489 982.7111,-587.8599 961.3827,-568.6127"/>
<polygon fill="#191970" stroke="#191970" points="963.5389,-565.8399 953.8166,-561.6295 958.7912,-570.9838 963.5389,-565.8399"/>
</g>
<!-- Node534 -->
<g id="node9" class="node">
<title>Node534</title>
<g id="a_node9"><a xlink:href="classSpikeMonitorCore.html#a005a2f884f6260054483d4fa6ed6ddbb" target="_top" xlink:title="returns the number of recorded spikes of a specific neuron ">
<polygon fill="#ffffff" stroke="#000000" points="1782,-463 1782,-493 1928,-493 1928,-463 1782,-463"/>
<text text-anchor="start" x="1790" y="-481" font-family="Helvetica,sans-Serif" font-size="10.00" fill="#000000">SpikeMonitorCore::getNeuron</text>
<text text-anchor="middle" x="1855" y="-470" font-family="Helvetica,sans-Serif" font-size="10.00" fill="#000000">NumSpikes</text>
</a>
</g>
</g>
<!-- Node533&#45;&gt;Node534 -->
<g id="edge10" class="edge">
<title>Node533&#45;&gt;Node534</title>
<path fill="none" stroke="#191970" d="M1732.7533,-503.3597C1745.5787,-500.6991 1759.1776,-497.878 1772.4662,-495.1214"/>
<polygon fill="#191970" stroke="#191970" points="1773.469,-498.4879 1782.5496,-493.0296 1772.0471,-491.6339 1773.469,-498.4879"/>
</g>
<!-- Node534&#45;&gt;Node529 -->
<g id="edge11" class="edge">
<title>Node534&#45;&gt;Node529</title>
<path fill="none" stroke="#191970" d="M1843.6284,-493.3233C1801.756,-547.8191 1649.7076,-729 1479,-729 1304.5,-729 1304.5,-729 1304.5,-729 1192.9194,-729 1157.0303,-727.0939 1060,-672 1014.2441,-646.0198 975.0346,-596.5181 956.1067,-569.9363"/>
<polygon fill="#191970" stroke="#191970" points="958.8658,-567.7737 950.28,-561.566 953.1207,-571.773 958.8658,-567.7737"/>
</g>
<!-- Node535 -->
<g id="node10" class="node">
<title>Node535</title>
<g id="a_node10"><a xlink:href="classSpikeMonitorCore.html#abe76071e1ac3632d55f2455b239b3d12" target="_top" xlink:title="returns recording mode ">
<polygon fill="#ffffff" stroke="#000000" points="1964,-232.5 1964,-251.5 2102,-251.5 2102,-232.5 1964,-232.5"/>
<text text-anchor="middle" x="2033" y="-239.5" font-family="Helvetica,sans-Serif" font-size="10.00" fill="#000000">SpikeMonitorCore::getMode</text>
</a>
</g>
</g>
<!-- Node534&#45;&gt;Node535 -->
<g id="edge12" class="edge">
<title>Node534&#45;&gt;Node535</title>
<path fill="none" stroke="#191970" d="M1866.4055,-462.8781C1897.8477,-421.1907 1985.6703,-304.7517 2019.4877,-259.9152"/>
<polygon fill="#191970" stroke="#191970" points="2022.4446,-261.8071 2025.672,-251.7158 2016.856,-257.592 2022.4446,-261.8071"/>
</g>
<!-- Node537&#45;&gt;Node529 -->
<g id="edge15" class="edge">
<title>Node537&#45;&gt;Node529</title>
<path fill="none" stroke="#191970" d="M1413.2739,-535.3342C1316.884,-538.7574 1137.0689,-545.1433 1030.1941,-548.9389"/>
<polygon fill="#191970" stroke="#191970" points="1029.9537,-545.4451 1020.0843,-549.2979 1030.2022,-552.4407 1029.9537,-545.4451"/>
</g>
<!-- Node537&#45;&gt;Node533 -->
<g id="edge16" class="edge">
<title>Node537&#45;&gt;Node533</title>
<path fill="none" stroke="#191970" d="M1544.7533,-527.404C1559.78,-526.1251 1575.8685,-524.7559 1591.2756,-523.4446"/>
<polygon fill="#191970" stroke="#191970" points="1591.6167,-526.9283 1601.2838,-522.5929 1591.023,-519.9536 1591.6167,-526.9283"/>
</g>
<!-- Node537&#45;&gt;Node536 -->
<g id="edge17" class="edge">
<title>Node537&#45;&gt;Node536</title>
<path fill="none" stroke="#191970" d="M1513.4821,-517.9599C1544.2593,-504.5359 1589.4973,-484.8044 1622.8986,-470.2357"/>
<polygon fill="#191970" stroke="#191970" points="1624.6519,-473.2895 1632.4187,-466.0833 1621.8533,-466.8732 1624.6519,-473.2895"/>
</g>
<!-- Node538&#45;&gt;Node529 -->
<g id="edge19" class="edge">
<title>Node538&#45;&gt;Node529</title>
<path fill="none" stroke="#191970" d="M1238.8392,-602.8621C1189.4514,-597.7814 1120.2175,-589.6711 1060,-579 1036.7991,-574.8886 1011.2688,-569.0876 990.0798,-563.9159"/>
<polygon fill="#191970" stroke="#191970" points="990.9135,-560.5167 980.3658,-561.5153 989.234,-567.3122 990.9135,-560.5167"/>
</g>
<!-- Node538&#45;&gt;Node537 -->
<g id="edge20" class="edge">
<title>Node538&#45;&gt;Node537</title>
<path fill="none" stroke="#191970" d="M1338.9756,-593.9848C1366.4907,-582.0012 1405.2221,-565.1325 1434.9779,-552.173"/>
<polygon fill="#191970" stroke="#191970" points="1436.5272,-555.3158 1444.2978,-548.1138 1433.7321,-548.8981 1436.5272,-555.3158"/>
</g>
<!-- Node539 -->
<g id="node14" class="node">
<title>Node539</title>
<g id="a_node14"><a xlink:href="classSpikeMonitorCore.html#a0fc20fcc5876030d796debd148ae7cee" target="_top" xlink:title="returns a list of firing rates for all neurons in the group (sorted by neuron ID ascending) ...">
<polygon fill="#ffffff" stroke="#000000" points="1416.5,-613 1416.5,-643 1541.5,-643 1541.5,-613 1416.5,-613"/>
<text text-anchor="start" x="1424.5" y="-631" font-family="Helvetica,sans-Serif" font-size="10.00" fill="#000000">SpikeMonitorCore::getAll</text>
<text text-anchor="middle" x="1479" y="-620" font-family="Helvetica,sans-Serif" font-size="10.00" fill="#000000">FiringRates</text>
</a>
</g>
</g>
<!-- Node538&#45;&gt;Node539 -->
<g id="edge21" class="edge">
<title>Node538&#45;&gt;Node539</title>
<path fill="none" stroke="#191970" d="M1370.471,-616.1831C1382.116,-617.451 1394.2997,-618.7776 1406.1214,-620.0648"/>
<polygon fill="#191970" stroke="#191970" points="1406.0742,-623.5803 1416.3943,-621.1833 1406.832,-616.6214 1406.0742,-623.5803"/>
</g>
<!-- Node539&#45;&gt;Node529 -->
<g id="edge22" class="edge">
<title>Node539&#45;&gt;Node529</title>
<path fill="none" stroke="#191970" d="M1416.4774,-631.3607C1401.2729,-632.0419 1385.0561,-632.6549 1370,-633 1231.6149,-636.1723 1192.6361,-642.6 1060,-603 1028.4592,-593.5832 994.1613,-577.7521 971.1038,-566.2215"/>
<polygon fill="#191970" stroke="#191970" points="972.4521,-562.9808 961.951,-561.5744 969.2831,-569.2224 972.4521,-562.9808"/>
</g>
<!-- Node540&#45;&gt;Node529 -->
<g id="edge24" class="edge">
<title>Node540&#45;&gt;Node529</title>
<path fill="none" stroke="#191970" d="M1460.7586,-367.86C1440.1979,-351.8677 1405.0482,-327.6568 1370,-318 1313.8694,-302.5344 1293.98,-298.842 1239,-318 1111.1249,-362.5586 997.0405,-488.2213 958.1571,-534.5573"/>
<polygon fill="#191970" stroke="#191970" points="955.2747,-532.5504 951.5926,-542.4848 960.6663,-537.0149 955.2747,-532.5504"/>
</g>
<!-- Node540&#45;&gt;Node534 -->
<g id="edge25" class="edge">
<title>Node540&#45;&gt;Node534</title>
<path fill="none" stroke="#191970" d="M1552.2482,-389.1121C1606.6358,-395.0081 1682.1302,-406.0744 1746,-426 1771.8041,-434.0502 1799.2622,-447.1801 1820.1641,-458.2319"/>
<polygon fill="#191970" stroke="#191970" points="1818.5215,-461.3225 1828.9861,-462.9785 1821.8382,-455.1581 1818.5215,-461.3225"/>
</g>
<!-- Node540&#45;&gt;Node536 -->
<g id="edge26" class="edge">
<title>Node540&#45;&gt;Node536</title>
<path fill="none" stroke="#191970" d="M1520.7233,-398.0914C1548.8356,-408.2597 1586.0947,-421.7364 1615.9729,-432.5434"/>
<polygon fill="#191970" stroke="#191970" points="1614.7991,-435.8407 1625.3933,-435.9508 1617.1801,-429.258 1614.7991,-435.8407"/>
</g>
<!-- Node541&#45;&gt;Node529 -->
<g id="edge28" class="edge">
<title>Node541&#45;&gt;Node529</title>
<path fill="none" stroke="#191970" d="M1107.5826,-270.5786C1091.8438,-274.5756 1072.0046,-280.4946 1060,-294 1008.1129,-352.3736 1058.1896,-395.7802 1024,-466 1010.7396,-493.2346 987.9413,-519.1871 970.0666,-535.5758"/>
<polygon fill="#191970" stroke="#191970" points="967.4802,-533.1878 962.2523,-542.403 972.0858,-538.4593 967.4802,-533.1878"/>
</g>
<!-- Node541&#45;&gt;Node535 -->
<g id="edge29" class="edge">
<title>Node541&#45;&gt;Node535</title>
<path fill="none" stroke="#191970" d="M1203.0446,-261C1273.3016,-261 1383.528,-261 1479,-261 1479,-261 1479,-261 1667,-261 1765.9015,-261 1879.6342,-253.9952 1953.7253,-248.4921"/>
<polygon fill="#191970" stroke="#191970" points="1954.2016,-251.9662 1963.9111,-247.7264 1953.6769,-244.9859 1954.2016,-251.9662"/>
</g>
<!-- Node542&#45;&gt;Node529 -->
<g id="edge31" class="edge">
<title>Node542&#45;&gt;Node529</title>
<path fill="none" stroke="#191970" d="M269.6635,-586.5269C284.9331,-588.2695 300.9815,-589.8864 316,-591 452.9753,-601.1563 487.9711,-605.4057 625,-596 714.6055,-589.8494 817.3776,-574.09 881.5011,-563.2042"/>
<polygon fill="#191970" stroke="#191970" points="882.1865,-566.6379 891.4528,-561.5012 881.0057,-559.7382 882.1865,-566.6379"/>
</g>
<!-- Node543 -->
<g id="node18" class="node">
<title>Node543</title>
<g id="a_node18"><a xlink:href="classSNN.html#a876185f4e003c98fb227861e7b84fded" target="_top" xlink:title="copy required spikes from firing buffer to spike buffer ">
<polygon fill="#ffffff" stroke="#000000" points="316,-365.5 316,-384.5 447,-384.5 447,-365.5 316,-365.5"/>
<text text-anchor="middle" x="381.5" y="-372.5" font-family="Helvetica,sans-Serif" font-size="10.00" fill="#000000">SNN::updateSpikeMonitor</text>
</a>
</g>
</g>
<!-- Node542&#45;&gt;Node543 -->
<g id="edge32" class="edge">
<title>Node542&#45;&gt;Node543</title>
<path fill="none" stroke="#191970" d="M206.8506,-567.2571C235.9187,-535.2585 328.7177,-433.1036 365.8872,-392.1869"/>
<polygon fill="#191970" stroke="#191970" points="368.6049,-394.4004 372.7382,-384.6451 363.4235,-389.6936 368.6049,-394.4004"/>
</g>
<!-- Node549 -->
<g id="node24" class="node">
<title>Node549</title>
<g id="a_node24"><a xlink:href="classSNN.html#a424b0cf29d7dba87e4ebf244399acad0" target="_top" xlink:title="SNN::getSimTimeMs">
<polygon fill="#ffffff" stroke="#000000" points="499,-95.5 499,-114.5 609,-114.5 609,-95.5 499,-95.5"/>
<text text-anchor="middle" x="554" y="-102.5" font-family="Helvetica,sans-Serif" font-size="10.00" fill="#000000">SNN::getSimTimeMs</text>
</a>
</g>
</g>
<!-- Node542&#45;&gt;Node549 -->
<g id="edge62" class="edge">
<title>Node542&#45;&gt;Node549</title>
<path fill="none" stroke="#191970" d="M202.1211,-567.2169C223.8558,-516.6437 329.9885,-282.046 483,-148 495.6823,-136.8897 511.6025,-126.9531 525.1519,-119.4382"/>
<polygon fill="#191970" stroke="#191970" points="526.9328,-122.4546 534.0845,-114.6377 523.6191,-116.2885 526.9328,-122.4546"/>
</g>
<!-- Node555 -->
<g id="node30" class="node">
<title>Node555</title>
<g id="a_node30"><a xlink:href="classSNN.html#a85facd004ae52ee52e72451b5d874fae" target="_top" xlink:title="SNN::getSimTimeSec">
<polygon fill="#ffffff" stroke="#000000" points="497,-567.5 497,-586.5 611,-586.5 611,-567.5 497,-567.5"/>
<text text-anchor="middle" x="554" y="-574.5" font-family="Helvetica,sans-Serif" font-size="10.00" fill="#000000">SNN::getSimTimeSec</text>
</a>
</g>
</g>
<!-- Node542&#45;&gt;Node555 -->
<g id="edge61" class="edge">
<title>Node542&#45;&gt;Node555</title>
<path fill="none" stroke="#191970" d="M280.1206,-577C342.7864,-577 428.0506,-577 486.7103,-577"/>
<polygon fill="#191970" stroke="#191970" points="486.978,-580.5001 496.9779,-577 486.9779,-573.5001 486.978,-580.5001"/>
</g>
<!-- Node543&#45;&gt;Node529 -->
<g id="edge59" class="edge">
<title>Node543&#45;&gt;Node529</title>
<path fill="none" stroke="#191970" d="M384.8546,-384.671C394.8218,-411.7464 427.098,-488.3859 483,-520 544.8563,-554.9815 741.8624,-556.8721 857.3484,-554.7183"/>
<polygon fill="#191970" stroke="#191970" points="857.6485,-558.2131 867.5762,-554.5131 857.5079,-551.2145 857.6485,-558.2131"/>
</g>
<!-- Node543&#45;&gt;Node531 -->
<g id="edge34" class="edge">
<title>Node543&#45;&gt;Node531</title>
<path fill="none" stroke="#191970" d="M437.5871,-365.46C508.745,-354.2037 635.3534,-337 744.5,-337 744.5,-337 744.5,-337 944,-337 1050.3316,-337 1174.3049,-337 1245.6722,-337"/>
<polygon fill="#191970" stroke="#191970" points="1245.8118,-340.5001 1255.8117,-337 1245.8117,-333.5001 1245.8118,-340.5001"/>
</g>
<!-- Node543&#45;&gt;Node535 -->
<g id="edge58" class="edge">
<title>Node543&#45;&gt;Node535</title>
<path fill="none" stroke="#191970" d="M388.861,-365.4892C401.746,-348.5587 428.7502,-311.7918 447,-278 466.6901,-241.5413 449.8708,-216.8877 483,-192 576.5323,-121.7355 627.5155,-162 744.5,-162 744.5,-162 744.5,-162 1667,-162 1790.7866,-162 1932.8041,-206.2152 1997.53,-228.9037"/>
<polygon fill="#191970" stroke="#191970" points="1996.6451,-232.3035 2007.2399,-232.3501 1998.9867,-225.7067 1996.6451,-232.3035"/>
</g>
<!-- Node543&#45;&gt;Node541 -->
<g id="edge60" class="edge">
<title>Node543&#45;&gt;Node541</title>
<path fill="none" stroke="#191970" d="M388.1558,-365.4601C400.1622,-348.1821 426.1367,-310.4856 447,-278 463.5996,-252.1532 456.2129,-234.0352 483,-219 583.3018,-162.7021 935.2179,-222.7275 1074.311,-249.4929"/>
<polygon fill="#191970" stroke="#191970" points="1073.863,-252.9711 1084.3463,-251.4375 1075.1947,-246.099 1073.863,-252.9711"/>
</g>
<!-- Node544 -->
<g id="node19" class="node">
<title>Node544</title>
<g id="a_node19"><a xlink:href="classSpikeMonitorCore.html#a102f8a26e80c556ee9a2ac503cd38ec9" target="_top" xlink:title="returns timestamp of last SpikeMonitor update ">
<polygon fill="#ffffff" stroke="#000000" points="487.5,-229 487.5,-259 620.5,-259 620.5,-229 487.5,-229"/>
<text text-anchor="start" x="495.5" y="-247" font-family="Helvetica,sans-Serif" font-size="10.00" fill="#000000">SpikeMonitorCore::getLast</text>
<text text-anchor="middle" x="554" y="-236" font-family="Helvetica,sans-Serif" font-size="10.00" fill="#000000">Updated</text>
</a>
</g>
</g>
<!-- Node543&#45;&gt;Node544 -->
<g id="edge33" class="edge">
<title>Node543&#45;&gt;Node544</title>
<path fill="none" stroke="#191970" d="M388.1919,-365.2171C402.9278,-344.3827 440.287,-295.3097 483,-268 485.4665,-266.423 488.048,-264.9377 490.705,-263.5404"/>
<polygon fill="#191970" stroke="#191970" points="492.4526,-266.5847 499.9734,-259.1221 489.4404,-260.2659 492.4526,-266.5847"/>
</g>
<!-- Node545 -->
<g id="node20" class="node">
<title>Node545</title>
<g id="a_node20"><a xlink:href="classSpikeMonitorCore.html#a3a0e4e77a2b83f5dd0e86aafcf227595" target="_top" xlink:title="returns the total accumulated time ">
<polygon fill="#ffffff" stroke="#000000" points="661,-368.5 661,-387.5 828,-387.5 828,-368.5 661,-368.5"/>
<text text-anchor="middle" x="744.5" y="-375.5" font-family="Helvetica,sans-Serif" font-size="10.00" fill="#000000">SpikeMonitorCore::getAccumTime</text>
</a>
</g>
</g>
<!-- Node543&#45;&gt;Node545 -->
<g id="edge35" class="edge">
<title>Node543&#45;&gt;Node545</title>
<path fill="none" stroke="#191970" d="M447.2366,-375.5433C504.0594,-376.0129 586.8634,-376.6972 650.6556,-377.2244"/>
<polygon fill="#191970" stroke="#191970" points="650.6951,-380.7248 660.7237,-377.3076 650.753,-373.725 650.6951,-380.7248"/>
</g>
<!-- Node546 -->
<g id="node21" class="node">
<title>Node546</title>
<g id="a_node21"><a xlink:href="classSNN.html#a11e19a0ccbeca92ba843a5933b3321e0" target="_top" xlink:title="SNN::getGroupNumNeurons">
<polygon fill="#ffffff" stroke="#000000" points="483,-491.5 483,-510.5 625,-510.5 625,-491.5 483,-491.5"/>
<text text-anchor="middle" x="554" y="-498.5" font-family="Helvetica,sans-Serif" font-size="10.00" fill="#000000">SNN::getGroupNumNeurons</text>
</a>
</g>
</g>
<!-- Node543&#45;&gt;Node546 -->
<g id="edge36" class="edge">
<title>Node543&#45;&gt;Node546</title>
<path fill="none" stroke="#191970" d="M388.5315,-384.611C403.6369,-404.6073 441.2221,-450.9867 483,-477 489.9888,-481.3516 497.8602,-485.0183 505.751,-488.0727"/>
<polygon fill="#191970" stroke="#191970" points="504.7329,-491.4257 515.3275,-491.4997 507.0915,-484.835 504.7329,-491.4257"/>
</g>
<!-- Node547 -->
<g id="node22" class="node">
<title>Node547</title>
<g id="a_node22"><a xlink:href="classSpikeMonitorCore.html#aaeb6a64ac5d9fd3b7a979f0f12ec87dc" target="_top" xlink:title="returns true if spike buffer is close to maxAllowedBufferSize ">
<polygon fill="#ffffff" stroke="#000000" points="670,-447.5 670,-466.5 819,-466.5 819,-447.5 670,-447.5"/>
<text text-anchor="middle" x="744.5" y="-454.5" font-family="Helvetica,sans-Serif" font-size="10.00" fill="#000000">SpikeMonitorCore::isBufferBig</text>
</a>
</g>
</g>
<!-- Node543&#45;&gt;Node547 -->
<g id="edge37" class="edge">
<title>Node543&#45;&gt;Node547</title>
<path fill="none" stroke="#191970" d="M391.722,-384.6728C408.9517,-400.278 445.5744,-430.5194 483,-443 539.8095,-461.9446 607.3878,-465.1006 659.6137,-463.6998"/>
<polygon fill="#191970" stroke="#191970" points="659.9673,-467.1902 669.8465,-463.3623 659.7365,-460.194 659.9673,-467.1902"/>
</g>
<!-- Node543&#45;&gt;Node549 -->
<g id="edge39" class="edge">
<title>Node543&#45;&gt;Node549</title>
<path fill="none" stroke="#191970" d="M386.2598,-365.2253C397.2775,-342.5148 425.2547,-284.3589 447,-235 463.8709,-196.7053 455.7456,-179.7539 483,-148 493.4474,-135.8277 508.233,-126.1111 521.6089,-119.0159"/>
<polygon fill="#191970" stroke="#191970" points="523.2004,-122.1333 530.5733,-114.5247 520.0648,-115.8749 523.2004,-122.1333"/>
</g>
<!-- Node543&#45;&gt;Node555 -->
<g id="edge48" class="edge">
<title>Node543&#45;&gt;Node555</title>
<path fill="none" stroke="#191970" d="M384.3067,-384.7168C393.3859,-414.442 424.7999,-505.0374 483,-553 488.0081,-557.1271 493.7596,-560.5571 499.775,-563.4049"/>
<polygon fill="#191970" stroke="#191970" points="498.7994,-566.7905 509.3757,-567.4173 501.4987,-560.3319 498.7994,-566.7905"/>
</g>
<!-- Node556 -->
<g id="node31" class="node">
<title>Node556</title>
<g id="a_node31"><a xlink:href="classSpikeMonitorCore.html#a38f87732cc929797d9648e68cd509f1b" target="_top" xlink:title="sets timestamp of last SpikeMonitor update ">
<polygon fill="#ffffff" stroke="#000000" points="487.5,-404 487.5,-434 620.5,-434 620.5,-404 487.5,-404"/>
<text text-anchor="start" x="495.5" y="-422" font-family="Helvetica,sans-Serif" font-size="10.00" fill="#000000">SpikeMonitorCore::setLast</text>
<text text-anchor="middle" x="554" y="-411" font-family="Helvetica,sans-Serif" font-size="10.00" fill="#000000">Updated</text>
</a>
</g>
</g>
<!-- Node543&#45;&gt;Node556 -->
<g id="edge49" class="edge">
<title>Node543&#45;&gt;Node556</title>
<path fill="none" stroke="#191970" d="M418.9299,-384.5473C438.2647,-389.4791 462.4799,-395.6558 485.0475,-401.4121"/>
<polygon fill="#191970" stroke="#191970" points="484.3821,-404.8544 494.9369,-403.9346 486.1123,-398.0716 484.3821,-404.8544"/>
</g>
<!-- Node557 -->
<g id="node32" class="node">
<title>Node557</title>
<g id="a_node32"><a xlink:href="classSpikeMonitorCore.html#a46187d03667c0fa3cc4dc3a654ee52e8" target="_top" xlink:title="returns a pointer to the spike file ">
<polygon fill="#ffffff" stroke="#000000" points="484.5,-278 484.5,-308 623.5,-308 623.5,-278 484.5,-278"/>
<text text-anchor="start" x="492.5" y="-296" font-family="Helvetica,sans-Serif" font-size="10.00" fill="#000000">SpikeMonitorCore::getSpike</text>
<text text-anchor="middle" x="554" y="-285" font-family="Helvetica,sans-Serif" font-size="10.00" fill="#000000">FileId</text>
</a>
</g>
</g>
<!-- Node543&#45;&gt;Node557 -->
<g id="edge53" class="edge">
<title>Node543&#45;&gt;Node557</title>
<path fill="none" stroke="#191970" d="M399.2708,-365.3915C419.3805,-354.637 453.2162,-336.8987 483,-323 490.9294,-319.2997 499.4404,-315.5324 507.7185,-311.9737"/>
<polygon fill="#191970" stroke="#191970" points="509.09,-315.1939 516.9224,-308.0592 506.3502,-308.7523 509.09,-315.1939"/>
</g>
<!-- Node548 -->
<g id="node23" class="node">
<title>Node548</title>
<g id="a_node23"><a xlink:href="classSpikeMonitorCore.html#a30f19d45f562061cc82c04e7289ba956" target="_top" xlink:title="returns the approximate size of the spike vector in bytes ">
<polygon fill="#ffffff" stroke="#000000" points="864,-428.5 864,-447.5 1024,-447.5 1024,-428.5 864,-428.5"/>
<text text-anchor="middle" x="944" y="-435.5" font-family="Helvetica,sans-Serif" font-size="10.00" fill="#000000">SpikeMonitorCore::getBufferSize</text>
</a>
</g>
</g>
<!-- Node547&#45;&gt;Node548 -->
<g id="edge38" class="edge">
<title>Node547&#45;&gt;Node548</title>
<path fill="none" stroke="#191970" d="M819.0701,-449.8981C830.3693,-448.822 842.1296,-447.7019 853.718,-446.5983"/>
<polygon fill="#191970" stroke="#191970" points="854.2184,-450.0666 863.8415,-445.6341 853.5547,-443.0981 854.2184,-450.0666"/>
</g>
<!-- Node550 -->
<g id="node25" class="node">
<title>Node550</title>
<g id="a_node25"><a xlink:href="classSNN.html#a866a9c6e2b2630816fc66adda1381655" target="_top" xlink:title="Returns pointer to existing SpikeMonitor object, NULL else. ">
<polygon fill="#ffffff" stroke="#000000" points="687,-114.5 687,-133.5 802,-133.5 802,-114.5 687,-114.5"/>
<text text-anchor="middle" x="744.5" y="-121.5" font-family="Helvetica,sans-Serif" font-size="10.00" fill="#000000">SNN::getSpikeMonitor</text>
</a>
</g>
</g>
<!-- Node549&#45;&gt;Node550 -->
<g id="edge40" class="edge">
<title>Node549&#45;&gt;Node550</title>
<path fill="none" stroke="#191970" d="M609.1005,-110.4956C630.2554,-112.6055 654.6444,-115.038 676.8446,-117.2522"/>
<polygon fill="#191970" stroke="#191970" points="676.5732,-120.7424 686.8712,-118.2522 677.268,-113.777 676.5732,-120.7424"/>
</g>
<!-- Node552 -->
<g id="node27" class="node">
<title>Node552</title>
<g id="a_node27"><a xlink:href="classSNN.html#ad25000cd1457c9b9869122534ada6fdd" target="_top" xlink:title="SNN::getSpikeMonitorCore">
<polygon fill="#ffffff" stroke="#000000" points="676.5,-76.5 676.5,-95.5 812.5,-95.5 812.5,-76.5 676.5,-76.5"/>
<text text-anchor="middle" x="744.5" y="-83.5" font-family="Helvetica,sans-Serif" font-size="10.00" fill="#000000">SNN::getSpikeMonitorCore</text>
</a>
</g>
</g>
<!-- Node549&#45;&gt;Node552 -->
<g id="edge42" class="edge">
<title>Node549&#45;&gt;Node552</title>
<path fill="none" stroke="#191970" d="M609.1005,-99.5044C626.8914,-97.73 646.9697,-95.7274 666.1098,-93.8184"/>
<polygon fill="#191970" stroke="#191970" points="666.7167,-97.2754 676.3199,-92.8001 666.0219,-90.3099 666.7167,-97.2754"/>
</g>
<!-- Node553 -->
<g id="node28" class="node">
<title>Node553</title>
<g id="a_node28"><a xlink:href="classSNN.html#a0eb87addfa5eebdfee4bd6b927b8945f" target="_top" xlink:title="Returns pointer to existing NeuronMonitor object, NULL else. ">
<polygon fill="#ffffff" stroke="#000000" points="683.5,-38.5 683.5,-57.5 805.5,-57.5 805.5,-38.5 683.5,-38.5"/>
<text text-anchor="middle" x="744.5" y="-45.5" font-family="Helvetica,sans-Serif" font-size="10.00" fill="#000000">SNN::getNeuronMonitor</text>
</a>
</g>
</g>
<!-- Node549&#45;&gt;Node553 -->
<g id="edge44" class="edge">
<title>Node549&#45;&gt;Node553</title>
<path fill="none" stroke="#191970" d="M578.3818,-95.4165C599.8976,-87.1828 632.2238,-75.3524 661,-67 669.7028,-64.474 678.995,-62.0737 688.1026,-59.8825"/>
<polygon fill="#191970" stroke="#191970" points="688.9393,-63.2814 697.8762,-57.5909 687.3413,-56.4662 688.9393,-63.2814"/>
</g>
<!-- Node554 -->
<g id="node29" class="node">
<title>Node554</title>
<g id="a_node29"><a xlink:href="classSNN.html#a9aa73fa9478383c4af1eed8387d82db9" target="_top" xlink:title="SNN::getNeuronMonitorCore">
<polygon fill="#ffffff" stroke="#000000" points="673,-.5 673,-19.5 816,-19.5 816,-.5 673,-.5"/>
<text text-anchor="middle" x="744.5" y="-7.5" font-family="Helvetica,sans-Serif" font-size="10.00" fill="#000000">SNN::getNeuronMonitorCore</text>
</a>
</g>
</g>
<!-- Node549&#45;&gt;Node554 -->
<g id="edge46" class="edge">
<title>Node549&#45;&gt;Node554</title>
<path fill="none" stroke="#191970" d="M564.3613,-95.4646C582.5212,-79.2805 621.898,-46.493 661,-29 666.4771,-26.5497 672.3027,-24.3997 678.2306,-22.5164"/>
<polygon fill="#191970" stroke="#191970" points="679.6394,-25.7514 688.2601,-19.5924 677.6802,-19.0312 679.6394,-25.7514"/>
</g>
<!-- Node551 -->
<g id="node26" class="node">
<title>Node551</title>
<g id="a_node26"><a xlink:href="classSNN.html#a292bdee57fec7c77ec4c15ea3f508d60" target="_top" xlink:title="SNN::getNumGroups">
<polygon fill="#ffffff" stroke="#000000" points="889,-57.5 889,-76.5 999,-76.5 999,-57.5 889,-57.5"/>
<text text-anchor="middle" x="944" y="-64.5" font-family="Helvetica,sans-Serif" font-size="10.00" fill="#000000">SNN::getNumGroups</text>
</a>
</g>
</g>
<!-- Node550&#45;&gt;Node551 -->
<g id="edge41" class="edge">
<title>Node550&#45;&gt;Node551</title>
<path fill="none" stroke="#191970" d="M790.1949,-114.4073C802.5246,-111.6002 815.8213,-108.3725 828,-105 854.8638,-97.5608 884.7459,-87.7343 907.4525,-79.9376"/>
<polygon fill="#191970" stroke="#191970" points="908.723,-83.2017 917.0286,-76.624 906.4339,-76.5865 908.723,-83.2017"/>
</g>
<!-- Node552&#45;&gt;Node551 -->
<g id="edge43" class="edge">
<title>Node552&#45;&gt;Node551</title>
<path fill="none" stroke="#191970" d="M812.5986,-79.5144C833.9396,-77.4819 857.437,-75.2441 878.5882,-73.2297"/>
<polygon fill="#191970" stroke="#191970" points="879.1403,-76.693 888.7634,-72.2606 878.4766,-69.7246 879.1403,-76.693"/>
</g>
<!-- Node553&#45;&gt;Node551 -->
<g id="edge45" class="edge">
<title>Node553&#45;&gt;Node551</title>
<path fill="none" stroke="#191970" d="M805.7124,-53.8297C828.7602,-56.0248 855.0516,-58.5287 878.4772,-60.7597"/>
<polygon fill="#191970" stroke="#191970" points="878.3819,-64.2664 888.6688,-61.7304 879.0457,-57.2979 878.3819,-64.2664"/>
</g>
<!-- Node554&#45;&gt;Node551 -->
<g id="edge47" class="edge">
<title>Node554&#45;&gt;Node551</title>
<path fill="none" stroke="#191970" d="M790.1949,-19.5927C802.5246,-22.3998 815.8213,-25.6275 828,-29 854.8638,-36.4392 884.7459,-46.2657 907.4525,-54.0624"/>
<polygon fill="#191970" stroke="#191970" points="906.4339,-57.4135 917.0286,-57.376 908.723,-50.7983 906.4339,-57.4135"/>
</g>
<!-- Node556&#45;&gt;Node545 -->
<g id="edge52" class="edge">
<title>Node556&#45;&gt;Node545</title>
<path fill="none" stroke="#191970" d="M620.6277,-404.6602C643.4134,-399.7562 668.6083,-394.3336 690.2937,-389.6664"/>
<polygon fill="#191970" stroke="#191970" points="691.2695,-393.0367 700.3092,-387.5109 689.7966,-386.1934 691.2695,-393.0367"/>
</g>
<!-- Node556&#45;&gt;Node547 -->
<g id="edge50" class="edge">
<title>Node556&#45;&gt;Node547</title>
<path fill="none" stroke="#191970" d="M620.6277,-432.2906C642.2039,-436.5945 665.9402,-441.3293 686.8115,-445.4926"/>
<polygon fill="#191970" stroke="#191970" points="686.3137,-448.9622 696.8052,-447.4861 687.6831,-442.0974 686.3137,-448.9622"/>
</g>
<!-- Node556&#45;&gt;Node548 -->
<g id="edge51" class="edge">
<title>Node556&#45;&gt;Node548</title>
<path fill="none" stroke="#191970" d="M620.6003,-422.2446C684.7776,-425.3712 782.3571,-430.1251 853.545,-433.5932"/>
<polygon fill="#191970" stroke="#191970" points="853.6911,-437.1044 863.8496,-434.0952 854.0317,-430.1127 853.6911,-437.1044"/>
</g>
<!-- Node558 -->
<g id="node33" class="node">
<title>Node558</title>
<g id="a_node33"><a xlink:href="classSpikeMonitorCore.html#a1d57dedf987505ea4cdcd4475578ce68" target="_top" xlink:title="sets pointer to spike file ">
<polygon fill="#ffffff" stroke="#000000" points="675,-278 675,-308 814,-308 814,-278 675,-278"/>
<text text-anchor="start" x="683" y="-296" font-family="Helvetica,sans-Serif" font-size="10.00" fill="#000000">SpikeMonitorCore::setSpike</text>
<text text-anchor="middle" x="744.5" y="-285" font-family="Helvetica,sans-Serif" font-size="10.00" fill="#000000">FileId</text>
</a>
</g>
</g>
<!-- Node557&#45;&gt;Node558 -->
<g id="edge54" class="edge">
<title>Node557&#45;&gt;Node558</title>
<path fill="none" stroke="#191970" d="M623.5835,-293C636.881,-293 650.8997,-293 664.4932,-293"/>
<polygon fill="#191970" stroke="#191970" points="664.7863,-296.5001 674.7863,-293 664.7863,-289.5001 664.7863,-296.5001"/>
</g>
<!-- Node558&#45;&gt;Node529 -->
<g id="edge55" class="edge">
<title>Node558&#45;&gt;Node529</title>
<path fill="none" stroke="#191970" d="M770.6574,-308.2169C788.9358,-320.0224 812.7138,-337.9013 828,-359 855.2239,-396.5758 840.7042,-416.8703 864,-457 881.4608,-487.0781 908.6773,-516.9672 926.4244,-534.965"/>
<polygon fill="#191970" stroke="#191970" points="924.2884,-537.7775 933.8431,-542.3555 929.2287,-532.8183 924.2884,-537.7775"/>
</g>
<!-- Node558&#45;&gt;Node535 -->
<g id="edge56" class="edge">
<title>Node558&#45;&gt;Node535</title>
<path fill="none" stroke="#191970" d="M814.4305,-278.5808C920.0782,-258.0893 1126.9134,-223 1304.5,-223 1304.5,-223 1304.5,-223 1667,-223 1765.9015,-223 1879.6342,-230.0048 1953.7253,-235.5079"/>
<polygon fill="#191970" stroke="#191970" points="1953.6769,-239.0141 1963.9111,-236.2736 1954.2016,-232.0338 1953.6769,-239.0141"/>
</g>
<!-- Node559 -->
<g id="node34" class="node">
<title>Node559</title>
<g id="a_node34"><a xlink:href="classSNN.html#ac13b30c40669d3cb8264bd6e211b449d" target="_top" xlink:title="SNN::getGroupGrid3D">
<polygon fill="#ffffff" stroke="#000000" points="886.5,-283.5 886.5,-302.5 1001.5,-302.5 1001.5,-283.5 886.5,-283.5"/>
<text text-anchor="middle" x="944" y="-290.5" font-family="Helvetica,sans-Serif" font-size="10.00" fill="#000000">SNN::getGroupGrid3D</text>
</a>
</g>
</g>
<!-- Node558&#45;&gt;Node559 -->
<g id="edge57" class="edge">
<title>Node558&#45;&gt;Node559</title>
<path fill="none" stroke="#191970" d="M814.2754,-293C834.3691,-293 856.2518,-293 876.2225,-293"/>
<polygon fill="#191970" stroke="#191970" points="876.4721,-296.5001 886.472,-293 876.472,-289.5001 876.4721,-296.5001"/>
</g>
</g>
</svg>
        <g id="navigator" transform="translate(0 0)" fill="#404254">
                <rect fill="#f2f5e9" fill-opacity="0.5" stroke="#606060" stroke-width=".5" x="0" y="0" width="60" height="60"/>
                <use id="zoomplus" xlink:href="#zoomPlus" x="17" y="9" onmousedown="handleZoom(evt,'in')"/>
                <use id="zoomminus" xlink:href="#zoomMin" x="42" y="9" onmousedown="handleZoom(evt,'out')"/>
                <use id="reset" xlink:href="#resetDef" x="30" y="36" onmousedown="handleReset()"/>
                <g id="arrowUp" xlink:href="#dirArrow" transform="translate(30 24)" onmousedown="handlePan(0,-1)">
                  <use xlink:href="#rim" fill="#404040">
                        <set attributeName="fill" to="#808080" begin="arrowUp.mouseover" end="arrowUp.mouseout"/>
                  </use>
                  <path fill="none" stroke="white" stroke-width="1.5" d="M0,-3.0v7 M-2.5,-0.5L0,-3.0L2.5,-0.5"/>
                </g>
                <g id="arrowRight" xlink:href="#dirArrow" transform="rotate(90) translate(36 -43)" onmousedown="handlePan(1,0)">
                  <use xlink:href="#rim" fill="#404040">
                        <set attributeName="fill" to="#808080" begin="arrowRight.mouseover" end="arrowRight.mouseout"/>
                  </use>
                  <path fill="none" stroke="white" stroke-width="1.5" d="M0,-3.0v7 M-2.5,-0.5L0,-3.0L2.5,-0.5"/>
                </g>
                <g id="arrowDown" xlink:href="#dirArrow" transform="rotate(180) translate(-30 -48)" onmousedown="handlePan(0,1)">
                  <use xlink:href="#rim" fill="#404040">
                        <set attributeName="fill" to="#808080" begin="arrowDown.mouseover" end="arrowDown.mouseout"/>
                  </use>
                  <path fill="none" stroke="white" stroke-width="1.5" d="M0,-3.0v7 M-2.5,-0.5L0,-3.0L2.5,-0.5"/>
                </g>
                <g id="arrowLeft" xlink:href="#dirArrow" transform="rotate(270) translate(-36 17)" onmousedown="handlePan(-1,0)">
                  <use xlink:href="#rim" fill="#404040">
                        <set attributeName="fill" to="#808080" begin="arrowLeft.mouseover" end="arrowLeft.mouseout"/>
                  </use>
                  <path fill="none" stroke="white" stroke-width="1.5" d="M0,-3.0v7 M-2.5,-0.5L0,-3.0L2.5,-0.5"/>
                </g>
        </g>
        <svg viewBox="0 0 15 15" width="100%" height="30px" preserveAspectRatio="xMaxYMin meet">
         <g id="arrow_out" transform="scale(0.3 0.3)">
          <a xlink:href="classSpikeMonitor_a25e0e98dd4519eaaa6b258f0dcb91ac7_cgraph_org.svg" target="_base">
           <rect id="button" ry="5" rx="5" y="6" x="6" height="38" width="38"
                fill="#f2f5e9" fill-opacity="0.5" stroke="#606060" stroke-width="1.0"/>
           <path id="arrow"
             d="M 11.500037,31.436501 C 11.940474,20.09759 22.043105,11.32322 32.158766,21.979434 L 37.068811,17.246167 C 37.068811,17.246167 37.088388,32 37.088388,32 L 22.160133,31.978069 C 22.160133,31.978069 26.997745,27.140456 26.997745,27.140456 C 18.528582,18.264221 13.291696,25.230495 11.500037,31.436501 z"
             style="fill:#404040;"/>
          </a>
         </g>
        </svg>
</svg>
