<?xml version="1.0" encoding="UTF-8" standalone="no"?>
<!DOCTYPE svg PUBLIC "-//W3C//DTD SVG 1.1//EN"
 "http://www.w3.org/Graphics/SVG/1.1/DTD/svg11.dtd">
<!-- Generated by graphviz version 2.40.1 (20161225.0304)
 -->
<!-- Title: setESTDP Pages: 1 -->
<svg width="498pt" height="218pt"
 viewBox="0.00 0.00 498.00 218.00" xmlns="http://www.w3.org/2000/svg" xmlns:xlink="http://www.w3.org/1999/xlink">
<g id="graph0" class="graph" transform="scale(1 1) rotate(0) translate(4 214)">
<title>setESTDP</title>
<polygon fill="#ffffff" stroke="transparent" points="-4,4 -4,-214 494,-214 494,4 -4,4"/>
<!-- Node856 -->
<g id="node1" class="node">
<title>Node856</title>
<polygon fill="#bfbfbf" stroke="#000000" points="0,-114.5 0,-133.5 64,-133.5 64,-114.5 0,-114.5"/>
<text text-anchor="middle" x="32" y="-121.5" font-family="Helvetica,sans-Serif" font-size="10.00" fill="#000000">setESTDP</text>
</g>
<!-- Node857 -->
<g id="node2" class="node">
<title>Node857</title>
<g id="a_node2"><a xlink:href="classCARLsim_1_1Impl.html#ab0367f8ebd4019bf7d34ebddb1563fe7" target="_top" xlink:title="getGroupName">
<polygon fill="#ffffff" stroke="#000000" points="104.5,-95.5 104.5,-114.5 187.5,-114.5 187.5,-95.5 104.5,-95.5"/>
<text text-anchor="middle" x="146" y="-102.5" font-family="Helvetica,sans-Serif" font-size="10.00" fill="#000000">getGroupName</text>
</a>
</g>
</g>
<!-- Node856&#45;&gt;Node857 -->
<g id="edge1" class="edge">
<title>Node856&#45;&gt;Node857</title>
<path fill="none" stroke="#191970" d="M64.0587,-118.6569C73.4432,-117.0928 83.9513,-115.3415 94.2305,-113.6282"/>
<polygon fill="#191970" stroke="#191970" points="95.0949,-117.0325 104.3834,-111.9361 93.9441,-110.1278 95.0949,-117.0325"/>
</g>
<!-- Node858 -->
<g id="node3" class="node">
<title>Node858</title>
<g id="a_node3"><a xlink:href="classUserErrors.html#a4bbedc6c0817d5e59e74e450bf00472c" target="_top" xlink:title="simple wrapper for assert statement ">
<polygon fill="#ffffff" stroke="#000000" points="228,-152.5 228,-171.5 344,-171.5 344,-152.5 228,-152.5"/>
<text text-anchor="middle" x="286" y="-159.5" font-family="Helvetica,sans-Serif" font-size="10.00" fill="#000000">UserErrors::assertTrue</text>
</a>
</g>
</g>
<!-- Node856&#45;&gt;Node858 -->
<g id="edge6" class="edge">
<title>Node856&#45;&gt;Node858</title>
<path fill="none" stroke="#191970" d="M44.6817,-133.7226C57.7328,-143.0659 79.0604,-156.5461 100,-162 137.9695,-171.8894 181.7972,-172.3912 217.3685,-170.1888"/>
<polygon fill="#191970" stroke="#191970" points="217.9186,-173.6588 227.6476,-169.4639 217.4261,-166.6761 217.9186,-173.6588"/>
</g>
<!-- Node862 -->
<g id="node7" class="node">
<title>Node862</title>
<g id="a_node7"><a xlink:href="classCARLsim_1_1Impl.html#ae136e178382096490a2d34f78cd2afa2" target="_top" xlink:title="isPoissonGroup">
<polygon fill="#ffffff" stroke="#000000" points="103,-133.5 103,-152.5 189,-152.5 189,-133.5 103,-133.5"/>
<text text-anchor="middle" x="146" y="-140.5" font-family="Helvetica,sans-Serif" font-size="10.00" fill="#000000">isPoissonGroup</text>
</a>
</g>
</g>
<!-- Node856&#45;&gt;Node862 -->
<g id="edge7" class="edge">
<title>Node856&#45;&gt;Node862</title>
<path fill="none" stroke="#191970" d="M64.0587,-129.3431C72.9545,-130.8257 82.8598,-132.4766 92.6227,-134.1038"/>
<polygon fill="#191970" stroke="#191970" points="92.2576,-137.5911 102.697,-135.7828 93.4085,-130.6864 92.2576,-137.5911"/>
</g>
<!-- Node864 -->
<g id="node9" class="node">
<title>Node864</title>
<g id="a_node9"><a xlink:href="classSNN.html#abe7f46d33329d940d390817f64114356" target="_top" xlink:title="Set the spike&#45;timing&#45;dependent plasticity (STDP) for a neuron group. ">
<polygon fill="#ffffff" stroke="#000000" points="100,-57.5 100,-76.5 192,-76.5 192,-57.5 100,-57.5"/>
<text text-anchor="middle" x="146" y="-64.5" font-family="Helvetica,sans-Serif" font-size="10.00" fill="#000000">SNN::setESTDP</text>
</a>
</g>
</g>
<!-- Node856&#45;&gt;Node864 -->
<g id="edge11" class="edge">
<title>Node856&#45;&gt;Node864</title>
<path fill="none" stroke="#191970" d="M47.9285,-114.3946C61.532,-106.3631 81.7394,-94.8354 100,-86 103.8501,-84.1371 107.9311,-82.2843 112.0098,-80.5073"/>
<polygon fill="#191970" stroke="#191970" points="113.5667,-83.649 121.4128,-76.5294 110.8394,-77.2022 113.5667,-83.649"/>
</g>
<!-- Node857&#45;&gt;Node858 -->
<g id="edge2" class="edge">
<title>Node857&#45;&gt;Node858</title>
<path fill="none" stroke="#191970" d="M170.5365,-114.6357C177.5295,-117.5162 185.1162,-120.7705 192,-124 208.3788,-131.684 211.3442,-135.9365 228,-143 233.0604,-145.146 238.4515,-147.2025 243.8316,-149.1176"/>
<polygon fill="#191970" stroke="#191970" points="242.8353,-152.4759 253.4298,-152.4009 245.1009,-145.8526 242.8353,-152.4759"/>
</g>
<!-- Node859 -->
<g id="node4" class="node">
<title>Node859</title>
<g id="a_node4"><a xlink:href="classCARLsim_1_1Impl.html#a292bdee57fec7c77ec4c15ea3f508d60" target="_top" xlink:title="getNumGroups">
<polygon fill="#ffffff" stroke="#000000" points="244.5,-114.5 244.5,-133.5 327.5,-133.5 327.5,-114.5 244.5,-114.5"/>
<text text-anchor="middle" x="286" y="-121.5" font-family="Helvetica,sans-Serif" font-size="10.00" fill="#000000">getNumGroups</text>
</a>
</g>
</g>
<!-- Node857&#45;&gt;Node859 -->
<g id="edge3" class="edge">
<title>Node857&#45;&gt;Node859</title>
<path fill="none" stroke="#191970" d="M187.6256,-110.6492C202.1641,-112.6223 218.6684,-114.8621 233.9489,-116.9359"/>
<polygon fill="#191970" stroke="#191970" points="233.9132,-120.4631 244.2931,-118.3398 234.8546,-113.5267 233.9132,-120.4631"/>
</g>
<!-- Node861 -->
<g id="node6" class="node">
<title>Node861</title>
<g id="a_node6"><a xlink:href="classSNN.html#ab0367f8ebd4019bf7d34ebddb1563fe7" target="_top" xlink:title="SNN::getGroupName">
<polygon fill="#ffffff" stroke="#000000" points="231,-76.5 231,-95.5 341,-95.5 341,-76.5 231,-76.5"/>
<text text-anchor="middle" x="286" y="-83.5" font-family="Helvetica,sans-Serif" font-size="10.00" fill="#000000">SNN::getGroupName</text>
</a>
</g>
</g>
<!-- Node857&#45;&gt;Node861 -->
<g id="edge5" class="edge">
<title>Node857&#45;&gt;Node861</title>
<path fill="none" stroke="#191970" d="M187.6256,-99.3508C197.993,-97.9438 209.36,-96.4011 220.57,-94.8798"/>
<polygon fill="#191970" stroke="#191970" points="221.3492,-98.3062 230.7876,-93.4931 220.4078,-91.3698 221.3492,-98.3062"/>
</g>
<!-- Node860 -->
<g id="node5" class="node">
<title>Node860</title>
<g id="a_node5"><a xlink:href="classSNN.html#a292bdee57fec7c77ec4c15ea3f508d60" target="_top" xlink:title="SNN::getNumGroups">
<polygon fill="#ffffff" stroke="#000000" points="380,-114.5 380,-133.5 490,-133.5 490,-114.5 380,-114.5"/>
<text text-anchor="middle" x="435" y="-121.5" font-family="Helvetica,sans-Serif" font-size="10.00" fill="#000000">SNN::getNumGroups</text>
</a>
</g>
</g>
<!-- Node859&#45;&gt;Node860 -->
<g id="edge4" class="edge">
<title>Node859&#45;&gt;Node860</title>
<path fill="none" stroke="#191970" d="M327.5048,-124C340.5315,-124 355.2449,-124 369.5109,-124"/>
<polygon fill="#191970" stroke="#191970" points="369.7892,-127.5001 379.7892,-124 369.7891,-120.5001 369.7892,-127.5001"/>
</g>
<!-- Node862&#45;&gt;Node858 -->
<g id="edge8" class="edge">
<title>Node862&#45;&gt;Node858</title>
<path fill="none" stroke="#191970" d="M189.147,-148.8557C198.2106,-150.0857 207.9822,-151.4119 217.7097,-152.732"/>
<polygon fill="#191970" stroke="#191970" points="217.4195,-156.2246 227.7994,-154.1013 218.3609,-149.2882 217.4195,-156.2246"/>
</g>
<!-- Node862&#45;&gt;Node859 -->
<g id="edge9" class="edge">
<title>Node862&#45;&gt;Node859</title>
<path fill="none" stroke="#191970" d="M189.147,-137.1443C203.3776,-135.213 219.3535,-133.0449 234.1639,-131.0349"/>
<polygon fill="#191970" stroke="#191970" points="234.7569,-134.4866 244.1954,-129.6735 233.8155,-127.5502 234.7569,-134.4866"/>
</g>
<!-- Node863 -->
<g id="node8" class="node">
<title>Node863</title>
<g id="a_node8"><a xlink:href="classSNN.html#a3764348d44236ad4932627cd4d199c31" target="_top" xlink:title="SNN::isPoissonGroup">
<polygon fill="#ffffff" stroke="#000000" points="229.5,-190.5 229.5,-209.5 342.5,-209.5 342.5,-190.5 229.5,-190.5"/>
<text text-anchor="middle" x="286" y="-197.5" font-family="Helvetica,sans-Serif" font-size="10.00" fill="#000000">SNN::isPoissonGroup</text>
</a>
</g>
</g>
<!-- Node862&#45;&gt;Node863 -->
<g id="edge10" class="edge">
<title>Node862&#45;&gt;Node863</title>
<path fill="none" stroke="#191970" d="M164.943,-152.5515C181.3881,-160.6559 205.9561,-172.3163 228,-181 233.4315,-183.1396 239.2114,-185.2383 244.9383,-187.2145"/>
<polygon fill="#191970" stroke="#191970" points="243.8612,-190.5449 254.4552,-190.4105 246.0897,-183.909 243.8612,-190.5449"/>
</g>
<!-- Node864&#45;&gt;Node861 -->
<g id="edge13" class="edge">
<title>Node864&#45;&gt;Node861</title>
<path fill="none" stroke="#191970" d="M192.2292,-73.274C201.3326,-74.5094 211.0445,-75.8275 220.6397,-77.1297"/>
<polygon fill="#191970" stroke="#191970" points="220.1863,-80.6001 230.5662,-78.4768 221.1278,-73.6637 220.1863,-80.6001"/>
</g>
<!-- Node865 -->
<g id="node10" class="node">
<title>Node865</title>
<g id="a_node10"><a xlink:href="classSNN.html#a44b05911f213714c351379021852e12a" target="_top" xlink:title="find connection ID based on pre&#45;post group pair, O(N) ">
<polygon fill="#ffffff" stroke="#000000" points="234.5,-38.5 234.5,-57.5 337.5,-57.5 337.5,-38.5 234.5,-38.5"/>
<text text-anchor="middle" x="286" y="-45.5" font-family="Helvetica,sans-Serif" font-size="10.00" fill="#000000">SNN::getConnectId</text>
</a>
</g>
</g>
<!-- Node864&#45;&gt;Node865 -->
<g id="edge12" class="edge">
<title>Node864&#45;&gt;Node865</title>
<path fill="none" stroke="#191970" d="M192.2292,-60.726C202.3692,-59.3499 213.2643,-57.8713 223.912,-56.4262"/>
<polygon fill="#191970" stroke="#191970" points="224.5737,-59.8686 234.0122,-55.0555 223.6323,-52.9322 224.5737,-59.8686"/>
</g>
<!-- Node866 -->
<g id="node11" class="node">
<title>Node866</title>
<g id="a_node11"><a xlink:href="classSNN.html#a477f99451786873b73e2623b6f89b766" target="_top" xlink:title="deallocates all dynamical structures and exits ">
<polygon fill="#ffffff" stroke="#000000" points="233,-.5 233,-19.5 339,-19.5 339,-.5 233,-.5"/>
<text text-anchor="middle" x="286" y="-7.5" font-family="Helvetica,sans-Serif" font-size="10.00" fill="#000000">SNN::exitSimulation</text>
</a>
</g>
</g>
<!-- Node864&#45;&gt;Node866 -->
<g id="edge14" class="edge">
<title>Node864&#45;&gt;Node866</title>
<path fill="none" stroke="#191970" d="M164.943,-57.4485C181.3881,-49.3441 205.9561,-37.6837 228,-29 233.4315,-26.8604 239.2114,-24.7617 244.9383,-22.7855"/>
<polygon fill="#191970" stroke="#191970" points="246.0897,-26.091 254.4552,-19.5895 243.8612,-19.4551 246.0897,-26.091"/>
</g>
</g>
</svg>
