<?xml version="1.0" encoding="UTF-8" standalone="no"?>
<!DOCTYPE svg PUBLIC "-//W3C//DTD SVG 1.1//EN"
 "http://www.w3.org/Graphics/SVG/1.1/DTD/svg11.dtd">
<!-- Generated by graphviz version 2.40.1 (20161225.0304)
 -->
<!-- Title: reset Pages: 1 -->
<svg width="666pt" height="106pt"
 viewBox="0.00 0.00 666.00 105.50" xmlns="http://www.w3.org/2000/svg" xmlns:xlink="http://www.w3.org/1999/xlink">
<g id="graph0" class="graph" transform="scale(1 1) rotate(0) translate(4 101.5)">
<title>reset</title>
<polygon fill="#ffffff" stroke="transparent" points="-4,4 -4,-101.5 662,-101.5 662,4 -4,4"/>
<!-- Node33 -->
<g id="node1" class="node">
<title>Node33</title>
<polygon fill="#bfbfbf" stroke="#000000" points="0,-47 0,-66 38,-66 38,-47 0,-47"/>
<text text-anchor="middle" x="19" y="-54" font-family="Helvetica,sans-Serif" font-size="10.00" fill="#000000">reset</text>
</g>
<!-- Node34 -->
<g id="node2" class="node">
<title>Node34</title>
<g id="a_node2"><a xlink:href="classSpikeBuffer_1_1Impl.html#ac939b37e116c96f75d7fad7401f37804" target="_top" xlink:title="Impl">
<polygon fill="#ffffff" stroke="#000000" points="104,-66 104,-85 139,-85 139,-66 104,-66"/>
<text text-anchor="middle" x="121.5" y="-73" font-family="Helvetica,sans-Serif" font-size="10.00" fill="#000000">Impl</text>
</a>
</g>
</g>
<!-- Node33&#45;&gt;Node34 -->
<g id="edge1" class="edge">
<title>Node33&#45;&gt;Node34</title>
<path fill="none" stroke="#191970" d="M48.2116,-61.9148C66.0954,-65.2299 88.4019,-69.3647 103.6788,-72.1966"/>
<polygon fill="#191970" stroke="#191970" points="48.7499,-58.4551 38.2795,-60.0738 47.474,-65.3378 48.7499,-58.4551"/>
</g>
<!-- Node35 -->
<g id="node3" class="node">
<title>Node35</title>
<g id="a_node3"><a xlink:href="classSpikeBuffer.html#adbf613d02805d9a0e54f115d2b0f48da" target="_top" xlink:title="Reset buffer data. ">
<polygon fill="#ffffff" stroke="#000000" points="74,-28 74,-47 169,-47 169,-28 74,-28"/>
<text text-anchor="middle" x="121.5" y="-35" font-family="Helvetica,sans-Serif" font-size="10.00" fill="#000000">SpikeBuffer::reset</text>
</a>
</g>
</g>
<!-- Node33&#45;&gt;Node35 -->
<g id="edge2" class="edge">
<title>Node33&#45;&gt;Node35</title>
<path fill="none" stroke="#191970" d="M48.1837,-51.0903C56.1703,-49.6099 65.0405,-47.9657 73.7736,-46.3468"/>
<polygon fill="#191970" stroke="#191970" points="47.474,-47.6622 38.2795,-52.9262 48.7499,-54.5449 47.474,-47.6622"/>
</g>
<!-- Node36 -->
<g id="node4" class="node">
<title>Node36</title>
<g id="a_node4"><a xlink:href="classSNN.html#a845adad4645977755e508610dc3c1464" target="_top" xlink:title="checks whether a point pre lies in the receptive field for point post ">
<polygon fill="#ffffff" stroke="#000000" points="218.5,-50 218.5,-69 320.5,-69 320.5,-50 218.5,-50"/>
<text text-anchor="middle" x="269.5" y="-57" font-family="Helvetica,sans-Serif" font-size="10.00" fill="#000000">SNN::getRFDist3D</text>
</a>
</g>
</g>
<!-- Node35&#45;&gt;Node36 -->
<g id="edge3" class="edge">
<title>Node35&#45;&gt;Node36</title>
<path fill="none" stroke="#191970" d="M179.3006,-46.092C192.1907,-48.0081 205.7704,-50.0267 218.3693,-51.8995"/>
<polygon fill="#191970" stroke="#191970" points="179.5488,-42.5905 169.1428,-44.582 178.5195,-49.5144 179.5488,-42.5905"/>
</g>
<!-- Node40 -->
<g id="node8" class="node">
<title>Node40</title>
<g id="a_node8"><a xlink:href="classSpikeBuffer_1_1SpikeIterator.html#a62ca91a5c80425f2cd4f6af0ca687e6a" target="_top" xlink:title="SpikeBuffer::SpikeIterator\l::operator++">
<polygon fill="#ffffff" stroke="#000000" points="205,-.5 205,-30.5 334,-30.5 334,-.5 205,-.5"/>
<text text-anchor="start" x="213" y="-18.5" font-family="Helvetica,sans-Serif" font-size="10.00" fill="#000000">SpikeBuffer::SpikeIterator</text>
<text text-anchor="middle" x="269.5" y="-7.5" font-family="Helvetica,sans-Serif" font-size="10.00" fill="#000000">::operator++</text>
</a>
</g>
</g>
<!-- Node35&#45;&gt;Node40 -->
<g id="edge9" class="edge">
<title>Node35&#45;&gt;Node40</title>
<path fill="none" stroke="#191970" d="M179.2451,-28.9163C187.6732,-27.6635 196.3972,-26.3666 204.95,-25.0953"/>
<polygon fill="#191970" stroke="#191970" points="178.5195,-25.4856 169.1428,-30.418 179.5488,-32.4095 178.5195,-25.4856"/>
</g>
<!-- Node37 -->
<g id="node5" class="node">
<title>Node37</title>
<g id="a_node5"><a xlink:href="classSNN.html#a3a42619b35349cd8d68f2ea21c865e36" target="_top" xlink:title="SNN::getConductanceConfig">
<polygon fill="#ffffff" stroke="#000000" points="514,-78 514,-97 658,-97 658,-78 514,-78"/>
<text text-anchor="middle" x="586" y="-85" font-family="Helvetica,sans-Serif" font-size="10.00" fill="#000000">SNN::getConductanceConfig</text>
</a>
</g>
</g>
<!-- Node36&#45;&gt;Node37 -->
<g id="edge4" class="edge">
<title>Node36&#45;&gt;Node37</title>
<path fill="none" stroke="#191970" d="M322.1718,-70.9478C337.5231,-73.879 354.371,-76.7066 370,-78.5 417.7285,-83.9766 471.7285,-86.2266 513.7963,-87.1075"/>
<polygon fill="#191970" stroke="#191970" points="322.8146,-67.5072 312.3278,-69.0164 321.4668,-74.3763 322.8146,-67.5072"/>
</g>
<!-- Node38 -->
<g id="node6" class="node">
<title>Node38</title>
<g id="a_node6"><a xlink:href="snn__manager_8cpp.html#af7e3c6ada8c131790477ada99ec34bc3" target="_top" xlink:title="compareDelay">
<polygon fill="#ffffff" stroke="#000000" points="546,-31 546,-50 626,-50 626,-31 546,-31"/>
<text text-anchor="middle" x="586" y="-38" font-family="Helvetica,sans-Serif" font-size="10.00" fill="#000000">compareDelay</text>
</a>
</g>
</g>
<!-- Node36&#45;&gt;Node38 -->
<g id="edge5" class="edge">
<title>Node36&#45;&gt;Node38</title>
<path fill="none" stroke="#191970" d="M320.429,-47.9617C336.2283,-44.8987 353.7569,-42.0219 370,-40.5 431.0451,-34.7802 502.2214,-36.3666 545.6875,-38.2597"/>
<polygon fill="#191970" stroke="#191970" points="319.443,-44.5897 310.3272,-49.9891 320.8205,-51.4529 319.443,-44.5897"/>
</g>
<!-- Node39 -->
<g id="node7" class="node">
<title>Node39</title>
<g id="a_node7"><a xlink:href="classSNN.html#aa1487d5e850f107e5b6890cf6933b7c1" target="_top" xlink:title="SNN::isPoint3DinRF">
<polygon fill="#ffffff" stroke="#000000" points="370,-50 370,-69 478,-69 478,-50 370,-50"/>
<text text-anchor="middle" x="424" y="-57" font-family="Helvetica,sans-Serif" font-size="10.00" fill="#000000">SNN::isPoint3DinRF</text>
</a>
</g>
</g>
<!-- Node36&#45;&gt;Node39 -->
<g id="edge6" class="edge">
<title>Node36&#45;&gt;Node39</title>
<path fill="none" stroke="#191970" d="M330.7221,-59.5C343.6507,-59.5 357.2059,-59.5 369.8515,-59.5"/>
<polygon fill="#191970" stroke="#191970" points="330.5173,-56.0001 320.5173,-59.5 330.5172,-63.0001 330.5173,-56.0001"/>
</g>
<!-- Node39&#45;&gt;Node37 -->
<g id="edge7" class="edge">
<title>Node39&#45;&gt;Node37</title>
<path fill="none" stroke="#191970" d="M488.478,-70.6443C502.5296,-73.073 517.274,-75.6214 530.9211,-77.9802"/>
<polygon fill="#191970" stroke="#191970" points="488.8443,-67.1558 478.3943,-68.9015 487.6521,-74.0536 488.8443,-67.1558"/>
</g>
<!-- Node39&#45;&gt;Node38 -->
<g id="edge8" class="edge">
<title>Node39&#45;&gt;Node38</title>
<path fill="none" stroke="#191970" d="M488.3891,-51.9482C507.7808,-49.6739 528.4998,-47.2438 545.838,-45.2104"/>
<polygon fill="#191970" stroke="#191970" points="487.9185,-48.4793 478.3943,-53.1204 488.734,-55.4316 487.9185,-48.4793"/>
</g>
</g>
</svg>
