<?xml version="1.0" encoding="UTF-8" standalone="no"?>
<!DOCTYPE svg PUBLIC "-//W3C//DTD SVG 1.1//EN"
 "http://www.w3.org/Graphics/SVG/1.1/DTD/svg11.dtd">
<!-- Generated by graphviz version 2.40.1 (20161225.0304)
 -->
<!-- Title: getMinWeight Pages: 1 -->
<svg width="922pt" height="170pt"
 viewBox="0.00 0.00 922.00 170.00" xmlns="http://www.w3.org/2000/svg" xmlns:xlink="http://www.w3.org/1999/xlink">
<g id="graph0" class="graph" transform="scale(1 1) rotate(0) translate(4 166)">
<title>getMinWeight</title>
<polygon fill="#ffffff" stroke="transparent" points="-4,4 -4,-166 918,-166 918,4 -4,4"/>
<!-- Node72 -->
<g id="node1" class="node">
<title>Node72</title>
<polygon fill="#bfbfbf" stroke="#000000" points="0,-74 0,-93 77,-93 77,-74 0,-74"/>
<text text-anchor="middle" x="38.5" y="-81" font-family="Helvetica,sans-Serif" font-size="10.00" fill="#000000">getMinWeight</text>
</g>
<!-- Node73 -->
<g id="node2" class="node">
<title>Node73</title>
<g id="a_node2"><a xlink:href="classConnectionMonitor.html#a45de31acfefa093a6156b7d09108a093" target="_top" xlink:title="Returns the min weight in the connection. ">
<polygon fill="#ffffff" stroke="#000000" points="123,-131.5 123,-161.5 227,-161.5 227,-131.5 123,-131.5"/>
<text text-anchor="start" x="131" y="-149.5" font-family="Helvetica,sans-Serif" font-size="10.00" fill="#000000">ConnectionMonitor::</text>
<text text-anchor="middle" x="175" y="-138.5" font-family="Helvetica,sans-Serif" font-size="10.00" fill="#000000">getMinWeight</text>
</a>
</g>
</g>
<!-- Node72&#45;&gt;Node73 -->
<g id="edge1" class="edge">
<title>Node72&#45;&gt;Node73</title>
<path fill="none" stroke="#191970" d="M68.3766,-97.2892C90.2369,-107.3786 119.878,-121.0591 142.3591,-131.435"/>
<polygon fill="#191970" stroke="#191970" points="69.7777,-94.0811 59.2314,-93.0683 66.8443,-100.4368 69.7777,-94.0811"/>
</g>
<!-- Node74 -->
<g id="node3" class="node">
<title>Node74</title>
<g id="a_node3"><a xlink:href="classConnectionMonitorCore.html#a6c63078d9c2226cd48f51e4d4ed0d4db" target="_top" xlink:title="returns number of weights with values in range e[minVal,maxVal] (inclusive) ">
<polygon fill="#ffffff" stroke="#000000" points="113,-55 113,-74 237,-74 237,-55 113,-55"/>
<text text-anchor="middle" x="175" y="-62" font-family="Helvetica,sans-Serif" font-size="10.00" fill="#000000">getNumWeightsInRange</text>
</a>
</g>
</g>
<!-- Node72&#45;&gt;Node74 -->
<g id="edge2" class="edge">
<title>Node72&#45;&gt;Node74</title>
<path fill="none" stroke="#191970" d="M87.1742,-76.7248C95.5139,-75.564 104.2797,-74.3438 112.9129,-73.1422"/>
<polygon fill="#191970" stroke="#191970" points="86.6723,-73.2609 77.2503,-78.1062 87.6374,-80.194 86.6723,-73.2609"/>
</g>
<!-- Node77 -->
<g id="node6" class="node">
<title>Node77</title>
<g id="a_node6"><a xlink:href="classConnectionMonitorCore.html#af0258258ab62c21e22a4bc98dcaa050e" target="_top" xlink:title="returns number of weights that have a certain value ">
<polygon fill="#ffffff" stroke="#000000" points="273,-102 273,-121 405,-121 405,-102 273,-102"/>
<text text-anchor="middle" x="339" y="-109" font-family="Helvetica,sans-Serif" font-size="10.00" fill="#000000">getNumWeightsWithValue</text>
</a>
</g>
</g>
<!-- Node72&#45;&gt;Node77 -->
<g id="edge15" class="edge">
<title>Node72&#45;&gt;Node77</title>
<path fill="none" stroke="#191970" d="M87.1765,-88.0356C137.6557,-92.7391 216.9003,-100.123 272.9959,-105.3499"/>
<polygon fill="#191970" stroke="#191970" points="87.4516,-84.5461 77.1699,-87.1032 86.8021,-91.5159 87.4516,-84.5461"/>
</g>
<!-- Node83 -->
<g id="node12" class="node">
<title>Node83</title>
<g id="a_node12"><a xlink:href="classConnectionMonitorCore.html#a8a5954a3717d51fa8730788e182cc345" target="_top" xlink:title="returns pointer to connection file ">
<polygon fill="#ffffff" stroke="#000000" points="129.5,-17 129.5,-36 220.5,-36 220.5,-17 129.5,-17"/>
<text text-anchor="middle" x="175" y="-24" font-family="Helvetica,sans-Serif" font-size="10.00" fill="#000000">getConnectFileId</text>
</a>
</g>
</g>
<!-- Node72&#45;&gt;Node83 -->
<g id="edge16" class="edge">
<title>Node72&#45;&gt;Node83</title>
<path fill="none" stroke="#191970" d="M64.355,-68.9041C78.4551,-61.3065 96.3779,-52.2263 113,-45.5 121.6618,-41.9949 131.2243,-38.7654 140.1929,-36.0013"/>
<polygon fill="#191970" stroke="#191970" points="62.3576,-66.0074 55.2671,-73.88 65.7194,-72.1474 62.3576,-66.0074"/>
</g>
<!-- Node75 -->
<g id="node4" class="node">
<title>Node75</title>
<g id="a_node4"><a xlink:href="classConnectionMonitor.html#ad005723dcdb0848e308eb2483c2dab2c" target="_top" xlink:title="Returns the number of weights in the connection whose values are within some range (inclusive) ...">
<polygon fill="#ffffff" stroke="#000000" points="609,-.5 609,-30.5 733,-30.5 733,-.5 609,-.5"/>
<text text-anchor="start" x="617" y="-18.5" font-family="Helvetica,sans-Serif" font-size="10.00" fill="#000000">ConnectionMonitor::</text>
<text text-anchor="middle" x="671" y="-7.5" font-family="Helvetica,sans-Serif" font-size="10.00" fill="#000000">getNumWeightsInRange</text>
</a>
</g>
</g>
<!-- Node74&#45;&gt;Node75 -->
<g id="edge3" class="edge">
<title>Node74&#45;&gt;Node75</title>
<path fill="none" stroke="#191970" d="M247.129,-57.3743C344.6217,-47.743 516.8171,-30.7318 608.8673,-21.6381"/>
<polygon fill="#191970" stroke="#191970" points="246.6734,-53.9022 237.066,-58.3685 247.3617,-60.8683 246.6734,-53.9022"/>
</g>
<!-- Node74&#45;&gt;Node77 -->
<g id="edge5" class="edge">
<title>Node74&#45;&gt;Node77</title>
<path fill="none" stroke="#191970" d="M217.9009,-76.7948C245.2845,-84.6425 280.2635,-94.667 305.5805,-101.9224"/>
<polygon fill="#191970" stroke="#191970" points="218.7651,-73.4016 208.1878,-74.0112 216.8366,-80.1307 218.7651,-73.4016"/>
</g>
<!-- Node80 -->
<g id="node9" class="node">
<title>Node80</title>
<g id="a_node9"><a xlink:href="classConnectionMonitorCore.html#a7373a8cecde25ccd48b3df967b5b0417" target="_top" xlink:title="returns number of synapses that exist in the connection ">
<polygon fill="#ffffff" stroke="#000000" points="459.5,-55 459.5,-74 554.5,-74 554.5,-55 459.5,-55"/>
<text text-anchor="middle" x="507" y="-62" font-family="Helvetica,sans-Serif" font-size="10.00" fill="#000000">getNumSynapses</text>
</a>
</g>
</g>
<!-- Node74&#45;&gt;Node80 -->
<g id="edge14" class="edge">
<title>Node74&#45;&gt;Node80</title>
<path fill="none" stroke="#191970" d="M247.1394,-58.819C311.5222,-57.1685 403.9632,-57.4292 459.4804,-59.6013"/>
<polygon fill="#191970" stroke="#191970" points="246.9557,-55.3227 237.0572,-59.1003 247.151,-62.3199 246.9557,-55.3227"/>
</g>
<!-- Node76 -->
<g id="node5" class="node">
<title>Node76</title>
<g id="a_node5"><a xlink:href="classConnectionMonitor.html#a173c90da62c3cb84f7e8c9db9a00d950" target="_top" xlink:title="Returns the percentage of weights whose values are within some range (inclusive) ">
<polygon fill="#ffffff" stroke="#000000" points="773,-.5 773,-30.5 910,-30.5 910,-.5 773,-.5"/>
<text text-anchor="start" x="781" y="-18.5" font-family="Helvetica,sans-Serif" font-size="10.00" fill="#000000">ConnectionMonitor::</text>
<text text-anchor="middle" x="841.5" y="-7.5" font-family="Helvetica,sans-Serif" font-size="10.00" fill="#000000">getPercentWeightsInRange</text>
</a>
</g>
</g>
<!-- Node75&#45;&gt;Node76 -->
<g id="edge4" class="edge">
<title>Node75&#45;&gt;Node76</title>
<path fill="none" stroke="#191970" d="M743.1837,-15.5C753.0252,-15.5 763.1046,-15.5 772.8805,-15.5"/>
<polygon fill="#191970" stroke="#191970" points="743.0368,-12.0001 733.0367,-15.5 743.0367,-19.0001 743.0368,-12.0001"/>
</g>
<!-- Node78 -->
<g id="node7" class="node">
<title>Node78</title>
<g id="a_node7"><a xlink:href="classConnectionMonitor.html#af0258258ab62c21e22a4bc98dcaa050e" target="_top" xlink:title="Returns the number of weights in the connection with a particular value. ">
<polygon fill="#ffffff" stroke="#000000" points="441,-96.5 441,-126.5 573,-126.5 573,-96.5 441,-96.5"/>
<text text-anchor="start" x="449" y="-114.5" font-family="Helvetica,sans-Serif" font-size="10.00" fill="#000000">ConnectionMonitor::</text>
<text text-anchor="middle" x="507" y="-103.5" font-family="Helvetica,sans-Serif" font-size="10.00" fill="#000000">getNumWeightsWithValue</text>
</a>
</g>
</g>
<!-- Node77&#45;&gt;Node78 -->
<g id="edge6" class="edge">
<title>Node77&#45;&gt;Node78</title>
<path fill="none" stroke="#191970" d="M415.5946,-111.5C424.0134,-111.5 432.5322,-111.5 440.8092,-111.5"/>
<polygon fill="#191970" stroke="#191970" points="415.3981,-108.0001 405.398,-111.5 415.398,-115.0001 415.3981,-108.0001"/>
</g>
<!-- Node77&#45;&gt;Node80 -->
<g id="edge8" class="edge">
<title>Node77&#45;&gt;Node80</title>
<path fill="none" stroke="#191970" d="M382.9473,-99.2052C410.9988,-91.3575 446.8309,-81.333 472.7654,-74.0776"/>
<polygon fill="#191970" stroke="#191970" points="381.6846,-95.924 372.9973,-101.9888 383.5705,-102.6652 381.6846,-95.924"/>
</g>
<!-- Node79 -->
<g id="node8" class="node">
<title>Node79</title>
<g id="a_node8"><a xlink:href="classConnectionMonitor.html#aaae3bcd84ecd00b25b7c8e03ac37e5c0" target="_top" xlink:title="Returns the percentage of weights in the connection with a particular value. ">
<polygon fill="#ffffff" stroke="#000000" points="769,-98.5 769,-128.5 914,-128.5 914,-98.5 769,-98.5"/>
<text text-anchor="start" x="777" y="-116.5" font-family="Helvetica,sans-Serif" font-size="10.00" fill="#000000">ConnectionMonitor::</text>
<text text-anchor="middle" x="841.5" y="-105.5" font-family="Helvetica,sans-Serif" font-size="10.00" fill="#000000">getPercentWeightsWithValue</text>
</a>
</g>
</g>
<!-- Node78&#45;&gt;Node79 -->
<g id="edge7" class="edge">
<title>Node78&#45;&gt;Node79</title>
<path fill="none" stroke="#191970" d="M583.2539,-111.9559C638.9629,-112.289 714.0365,-112.7379 768.8782,-113.0658"/>
<polygon fill="#191970" stroke="#191970" points="583.1072,-108.4551 573.0864,-111.8951 583.0653,-115.455 583.1072,-108.4551"/>
</g>
<!-- Node80&#45;&gt;Node74 -->
<g id="edge13" class="edge">
<title>Node80&#45;&gt;Node74</title>
<path fill="none" stroke="#191970" d="M449.1615,-69.7671C389.8376,-71.6991 297.8742,-71.7433 237.0572,-69.8997"/>
<polygon fill="#191970" stroke="#191970" points="449.6117,-73.2534 459.4804,-69.3987 449.3619,-66.2578 449.6117,-73.2534"/>
</g>
<!-- Node81 -->
<g id="node10" class="node">
<title>Node81</title>
<g id="a_node10"><a xlink:href="classConnectionMonitor.html#a7373a8cecde25ccd48b3df967b5b0417" target="_top" xlink:title="Returns the number of allocated synapses. ">
<polygon fill="#ffffff" stroke="#000000" points="619,-49.5 619,-79.5 723,-79.5 723,-49.5 619,-49.5"/>
<text text-anchor="start" x="627" y="-67.5" font-family="Helvetica,sans-Serif" font-size="10.00" fill="#000000">ConnectionMonitor::</text>
<text text-anchor="middle" x="671" y="-56.5" font-family="Helvetica,sans-Serif" font-size="10.00" fill="#000000">getNumSynapses</text>
</a>
</g>
</g>
<!-- Node80&#45;&gt;Node81 -->
<g id="edge9" class="edge">
<title>Node80&#45;&gt;Node81</title>
<path fill="none" stroke="#191970" d="M564.9816,-64.5C582.5058,-64.5 601.6351,-64.5 618.7607,-64.5"/>
<polygon fill="#191970" stroke="#191970" points="564.8765,-61.0001 554.8765,-64.5 564.8764,-68.0001 564.8765,-61.0001"/>
</g>
<!-- Node81&#45;&gt;Node76 -->
<g id="edge11" class="edge">
<title>Node81&#45;&gt;Node76</title>
<path fill="none" stroke="#191970" d="M732.8585,-46.7225C751.3173,-41.4176 771.3619,-35.657 789.1494,-30.5451"/>
<polygon fill="#191970" stroke="#191970" points="731.7263,-43.4061 723.0821,-49.5321 733.6598,-50.1338 731.7263,-43.4061"/>
</g>
<!-- Node81&#45;&gt;Node79 -->
<g id="edge12" class="edge">
<title>Node81&#45;&gt;Node79</title>
<path fill="none" stroke="#191970" d="M732.8585,-82.2775C751.3173,-87.5824 771.3619,-93.343 789.1494,-98.4549"/>
<polygon fill="#191970" stroke="#191970" points="733.6598,-78.8662 723.0821,-79.4679 731.7263,-85.5939 733.6598,-78.8662"/>
</g>
<!-- Node82 -->
<g id="node11" class="node">
<title>Node82</title>
<g id="a_node11"><a xlink:href="classConnectionMonitor.html#ab8aa0b542059991a270030b6528d92bd" target="_top" xlink:title="Returns the percentage of weights that have changed since the last snapshot. ">
<polygon fill="#ffffff" stroke="#000000" points="772,-49.5 772,-79.5 911,-79.5 911,-49.5 772,-49.5"/>
<text text-anchor="start" x="780" y="-67.5" font-family="Helvetica,sans-Serif" font-size="10.00" fill="#000000">ConnectionMonitor::</text>
<text text-anchor="middle" x="841.5" y="-56.5" font-family="Helvetica,sans-Serif" font-size="10.00" fill="#000000">getPercentWeightsChanged</text>
</a>
</g>
</g>
<!-- Node81&#45;&gt;Node82 -->
<g id="edge10" class="edge">
<title>Node81&#45;&gt;Node82</title>
<path fill="none" stroke="#191970" d="M733.3908,-64.5C745.8924,-64.5 759.1022,-64.5 771.8322,-64.5"/>
<polygon fill="#191970" stroke="#191970" points="733.0821,-61.0001 723.0821,-64.5 733.082,-68.0001 733.0821,-61.0001"/>
</g>
</g>
</svg>
