<?xml version="1.0" encoding="UTF-8" standalone="no"?>
<!DOCTYPE svg PUBLIC "-//W3C//DTD SVG 1.1//EN"
 "http://www.w3.org/Graphics/SVG/1.1/DTD/svg11.dtd">
<!-- Generated by graphviz version 2.40.1 (20161225.0304)
 -->
<!-- Title: setSpikeMonitor Pages: 1 -->
<!--zoomable 39 -->
<svg id="main" version="1.1" xmlns="http://www.w3.org/2000/svg" xmlns:xlink="http://www.w3.org/1999/xlink" xml:space="preserve" onload="init(evt)">
<style type="text/css"><![CDATA[
.edge:hover path { stroke: red; }
.edge:hover polygon { stroke: red; fill: red; }
]]></style>
<script type="text/javascript"><![CDATA[
var edges = document.getElementsByTagName('g');
if (edges && edges.length) {
  for (var i=0;i<edges.length;i++) {
    if (edges[i].id.substr(0,4)=='edge') {
      edges[i].setAttribute('class','edge');
    }
  }
}
]]></script>
        <defs>
                <circle id="rim" cx="0" cy="0" r="7"/>
                <circle id="rim2" cx="0" cy="0" r="3.5"/>
                <g id="zoomPlus">
                        <use xlink:href="#rim" fill="#404040">
                                <set attributeName="fill" to="#808080" begin="zoomplus.mouseover" end="zoomplus.mouseout"/>
                        </use>
                        <path d="M-4,0h8M0,-4v8" fill="none" stroke="white" stroke-width="1.5" pointer-events="none"/>
                </g>
                <g id="zoomMin">
                        <use xlink:href="#rim" fill="#404040">
                                <set attributeName="fill" to="#808080" begin="zoomminus.mouseover" end="zoomminus.mouseout"/>
                        </use>
                        <path d="M-4,0h8" fill="none" stroke="white" stroke-width="1.5" pointer-events="none"/>
                </g>
                <g id="dirArrow">
                        <path fill="none" stroke="white" stroke-width="1.5" d="M0,-3.0v7 M-2.5,-0.5L0,-3.0L2.5,-0.5"/>
                </g>
               <g id="resetDef">
                       <use xlink:href="#rim2" fill="#404040">
                               <set attributeName="fill" to="#808080" begin="reset.mouseover" end="reset.mouseout"/>
                       </use>
               </g>
        </defs>

<script type="text/javascript">
var viewWidth = 575;
var viewHeight = 39;
var sectionId = 'dynsection-200';
</script>
<script xlink:href="svgpan.js"/>
<svg id="graph" class="graph">
<g id="viewport">
<title>setSpikeMonitor</title>
<polygon fill="#ffffff" stroke="transparent" points="-4,4 -4,-35 571,-35 571,4 -4,4"/>
<!-- Node1180 -->
<g id="node1" class="node">
<title>Node1180</title>
<polygon fill="#bfbfbf" stroke="#000000" points="0,-6 0,-25 87,-25 87,-6 0,-6"/>
<text text-anchor="middle" x="43.5" y="-13" font-family="Helvetica,sans-Serif" font-size="10.00" fill="#000000">setSpikeMonitor</text>
</g>
<!-- Node1181 -->
<g id="node2" class="node">
<title>Node1181</title>
<g id="a_node2"><a xlink:href="classCARLsim.html#a1e0b4d170b65f5075f1a996554c842ab" target="_top" xlink:title="Sets a Spike Monitor for a groups, prints spikes to binary file. ">
<polygon fill="#ffffff" stroke="#000000" points="123,-6 123,-25 259,-25 259,-6 123,-6"/>
<text text-anchor="middle" x="191" y="-13" font-family="Helvetica,sans-Serif" font-size="10.00" fill="#000000">CARLsim::setSpikeMonitor</text>
</a>
</g>
</g>
<!-- Node1180&#45;&gt;Node1181 -->
<g id="edge1" class="edge">
<title>Node1180&#45;&gt;Node1181</title>
<path fill="none" stroke="#191970" d="M97.5977,-15.5C105.8607,-15.5 114.4788,-15.5 122.9942,-15.5"/>
<polygon fill="#191970" stroke="#191970" points="97.3555,-12.0001 87.3555,-15.5 97.3555,-19.0001 97.3555,-12.0001"/>
</g>
<!-- Node1182 -->
<g id="node3" class="node">
<title>Node1182</title>
<g id="a_node3"><a xlink:href="classSimpleWeightTuner_1_1Impl.html#ac1c93ba1766ad5ada73dea7ba499d541" target="_top" xlink:title="SimpleWeightTuner::\lImpl::setTargetFiringRate">
<polygon fill="#ffffff" stroke="#000000" points="295,-.5 295,-30.5 423,-30.5 423,-.5 295,-.5"/>
<text text-anchor="start" x="303" y="-18.5" font-family="Helvetica,sans-Serif" font-size="10.00" fill="#000000">SimpleWeightTuner::</text>
<text text-anchor="middle" x="359" y="-7.5" font-family="Helvetica,sans-Serif" font-size="10.00" fill="#000000">Impl::setTargetFiringRate</text>
</a>
</g>
</g>
<!-- Node1181&#45;&gt;Node1182 -->
<g id="edge2" class="edge">
<title>Node1181&#45;&gt;Node1182</title>
<path fill="none" stroke="#191970" d="M269.577,-15.5C278.0249,-15.5 286.5462,-15.5 294.7973,-15.5"/>
<polygon fill="#191970" stroke="#191970" points="269.3321,-12.0001 259.332,-15.5 269.332,-19.0001 269.3321,-12.0001"/>
</g>
<!-- Node1183 -->
<g id="node4" class="node">
<title>Node1183</title>
<g id="a_node4"><a xlink:href="classSimpleWeightTuner.html#ac1c93ba1766ad5ada73dea7ba499d541" target="_top" xlink:title="Sets up the target firing rate of a specific group. ">
<polygon fill="#ffffff" stroke="#000000" points="459,-.5 459,-30.5 567,-30.5 567,-.5 459,-.5"/>
<text text-anchor="start" x="467" y="-18.5" font-family="Helvetica,sans-Serif" font-size="10.00" fill="#000000">SimpleWeightTuner::</text>
<text text-anchor="middle" x="513" y="-7.5" font-family="Helvetica,sans-Serif" font-size="10.00" fill="#000000">setTargetFiringRate</text>
</a>
</g>
</g>
<!-- Node1182&#45;&gt;Node1183 -->
<g id="edge3" class="edge">
<title>Node1182&#45;&gt;Node1183</title>
<path fill="none" stroke="#191970" d="M433.6399,-15.5C442.0579,-15.5 450.5135,-15.5 458.6038,-15.5"/>
<polygon fill="#191970" stroke="#191970" points="433.4176,-12.0001 423.4176,-15.5 433.4175,-19.0001 433.4176,-12.0001"/>
</g>
</g>
</svg>
        <g id="navigator" transform="translate(0 0)" fill="#404254">
                <rect fill="#f2f5e9" fill-opacity="0.5" stroke="#606060" stroke-width=".5" x="0" y="0" width="60" height="60"/>
                <use id="zoomplus" xlink:href="#zoomPlus" x="17" y="9" onmousedown="handleZoom(evt,'in')"/>
                <use id="zoomminus" xlink:href="#zoomMin" x="42" y="9" onmousedown="handleZoom(evt,'out')"/>
                <use id="reset" xlink:href="#resetDef" x="30" y="36" onmousedown="handleReset()"/>
                <g id="arrowUp" xlink:href="#dirArrow" transform="translate(30 24)" onmousedown="handlePan(0,-1)">
                  <use xlink:href="#rim" fill="#404040">
                        <set attributeName="fill" to="#808080" begin="arrowUp.mouseover" end="arrowUp.mouseout"/>
                  </use>
                  <path fill="none" stroke="white" stroke-width="1.5" d="M0,-3.0v7 M-2.5,-0.5L0,-3.0L2.5,-0.5"/>
                </g>
                <g id="arrowRight" xlink:href="#dirArrow" transform="rotate(90) translate(36 -43)" onmousedown="handlePan(1,0)">
                  <use xlink:href="#rim" fill="#404040">
                        <set attributeName="fill" to="#808080" begin="arrowRight.mouseover" end="arrowRight.mouseout"/>
                  </use>
                  <path fill="none" stroke="white" stroke-width="1.5" d="M0,-3.0v7 M-2.5,-0.5L0,-3.0L2.5,-0.5"/>
                </g>
                <g id="arrowDown" xlink:href="#dirArrow" transform="rotate(180) translate(-30 -48)" onmousedown="handlePan(0,1)">
                  <use xlink:href="#rim" fill="#404040">
                        <set attributeName="fill" to="#808080" begin="arrowDown.mouseover" end="arrowDown.mouseout"/>
                  </use>
                  <path fill="none" stroke="white" stroke-width="1.5" d="M0,-3.0v7 M-2.5,-0.5L0,-3.0L2.5,-0.5"/>
                </g>
                <g id="arrowLeft" xlink:href="#dirArrow" transform="rotate(270) translate(-36 17)" onmousedown="handlePan(-1,0)">
                  <use xlink:href="#rim" fill="#404040">
                        <set attributeName="fill" to="#808080" begin="arrowLeft.mouseover" end="arrowLeft.mouseout"/>
                  </use>
                  <path fill="none" stroke="white" stroke-width="1.5" d="M0,-3.0v7 M-2.5,-0.5L0,-3.0L2.5,-0.5"/>
                </g>
        </g>
        <svg viewBox="0 0 15 15" width="100%" height="30px" preserveAspectRatio="xMaxYMin meet">
         <g id="arrow_out" transform="scale(0.3 0.3)">
          <a xlink:href="classCARLsim_1_1Impl_a76311719fdd8a942d292caead86cf0e6_icgraph_org.svg" target="_base">
           <rect id="button" ry="5" rx="5" y="6" x="6" height="38" width="38"
                fill="#f2f5e9" fill-opacity="0.5" stroke="#606060" stroke-width="1.0"/>
           <path id="arrow"
             d="M 11.500037,31.436501 C 11.940474,20.09759 22.043105,11.32322 32.158766,21.979434 L 37.068811,17.246167 C 37.068811,17.246167 37.088388,32 37.088388,32 L 22.160133,31.978069 C 22.160133,31.978069 26.997745,27.140456 26.997745,27.140456 C 18.528582,18.264221 13.291696,25.230495 11.500037,31.436501 z"
             style="fill:#404040;"/>
          </a>
         </g>
        </svg>
</svg>
