<?xml version="1.0" encoding="UTF-8" standalone="no"?>
<!DOCTYPE svg PUBLIC "-//W3C//DTD SVG 1.1//EN"
 "http://www.w3.org/Graphics/SVG/1.1/DTD/svg11.dtd">
<!-- Generated by graphviz version 2.40.1 (20161225.0304)
 -->
<!-- Title: writeConnectFileSnapshot Pages: 1 -->
<!--zoomable 129 -->
<svg id="main" version="1.1" xmlns="http://www.w3.org/2000/svg" xmlns:xlink="http://www.w3.org/1999/xlink" xml:space="preserve" onload="init(evt)">
<style type="text/css"><![CDATA[
.edge:hover path { stroke: red; }
.edge:hover polygon { stroke: red; fill: red; }
]]></style>
<script type="text/javascript"><![CDATA[
var edges = document.getElementsByTagName('g');
if (edges && edges.length) {
  for (var i=0;i<edges.length;i++) {
    if (edges[i].id.substr(0,4)=='edge') {
      edges[i].setAttribute('class','edge');
    }
  }
}
]]></script>
        <defs>
                <circle id="rim" cx="0" cy="0" r="7"/>
                <circle id="rim2" cx="0" cy="0" r="3.5"/>
                <g id="zoomPlus">
                        <use xlink:href="#rim" fill="#404040">
                                <set attributeName="fill" to="#808080" begin="zoomplus.mouseover" end="zoomplus.mouseout"/>
                        </use>
                        <path d="M-4,0h8M0,-4v8" fill="none" stroke="white" stroke-width="1.5" pointer-events="none"/>
                </g>
                <g id="zoomMin">
                        <use xlink:href="#rim" fill="#404040">
                                <set attributeName="fill" to="#808080" begin="zoomminus.mouseover" end="zoomminus.mouseout"/>
                        </use>
                        <path d="M-4,0h8" fill="none" stroke="white" stroke-width="1.5" pointer-events="none"/>
                </g>
                <g id="dirArrow">
                        <path fill="none" stroke="white" stroke-width="1.5" d="M0,-3.0v7 M-2.5,-0.5L0,-3.0L2.5,-0.5"/>
                </g>
               <g id="resetDef">
                       <use xlink:href="#rim2" fill="#404040">
                               <set attributeName="fill" to="#808080" begin="reset.mouseover" end="reset.mouseout"/>
                       </use>
               </g>
        </defs>

<script type="text/javascript">
var viewWidth = 1407;
var viewHeight = 129;
var sectionId = 'dynsection-41';
</script>
<script xlink:href="svgpan.js"/>
<svg id="graph" class="graph">
<g id="viewport">
<title>writeConnectFileSnapshot</title>
<polygon fill="#ffffff" stroke="transparent" points="-4,4 -4,-124.5 1403,-124.5 1403,4 -4,4"/>
<!-- Node375 -->
<g id="node1" class="node">
<title>Node375</title>
<polygon fill="#bfbfbf" stroke="#000000" points="0,-44 0,-63 131,-63 131,-44 0,-44"/>
<text text-anchor="middle" x="65.5" y="-51" font-family="Helvetica,sans-Serif" font-size="10.00" fill="#000000">writeConnectFileSnapshot</text>
</g>
<!-- Node376 -->
<g id="node2" class="node">
<title>Node376</title>
<g id="a_node2"><a xlink:href="classConnectionMonitorCore.html#a5e947985c6f12858e6d0f0b8fd9fd308" target="_top" xlink:title="destructor, cleans up all the memory upon object deletion ">
<polygon fill="#ffffff" stroke="#000000" points="167,-101 167,-120 292,-120 292,-101 167,-101"/>
<text text-anchor="middle" x="229.5" y="-108" font-family="Helvetica,sans-Serif" font-size="10.00" fill="#000000">~ConnectionMonitorCore</text>
</a>
</g>
</g>
<!-- Node375&#45;&gt;Node376 -->
<g id="edge1" class="edge">
<title>Node375&#45;&gt;Node376</title>
<path fill="none" stroke="#191970" d="M99.389,-66.7985C119.0264,-74.3508 144.2846,-83.8037 167,-91.5 176.5597,-94.739 187.0265,-98.0223 196.6142,-100.9276"/>
<polygon fill="#191970" stroke="#191970" points="100.5458,-63.4934 89.9565,-63.1511 98.0211,-70.0222 100.5458,-63.4934"/>
</g>
<!-- Node377 -->
<g id="node3" class="node">
<title>Node377</title>
<g id="a_node3"><a xlink:href="classConnectionMonitorCore.html#ab64d9ff17fece61e850660bdd4ca00d2" target="_top" xlink:title="takeSnapshot">
<polygon fill="#ffffff" stroke="#000000" points="191,-63 191,-82 268,-82 268,-63 191,-63"/>
<text text-anchor="middle" x="229.5" y="-70" font-family="Helvetica,sans-Serif" font-size="10.00" fill="#000000">takeSnapshot</text>
</a>
</g>
</g>
<!-- Node375&#45;&gt;Node377 -->
<g id="edge2" class="edge">
<title>Node375&#45;&gt;Node377</title>
<path fill="none" stroke="#191970" d="M141.2599,-62.2771C158.3535,-64.2574 175.8108,-66.2799 190.6375,-67.9976"/>
<polygon fill="#191970" stroke="#191970" points="141.5965,-58.7927 131.2601,-61.1185 140.7908,-65.7462 141.5965,-58.7927"/>
</g>
<!-- Node379 -->
<g id="node5" class="node">
<title>Node379</title>
<g id="a_node5"><a xlink:href="classConnectionMonitorCore.html#acf625cff31a558c7d6786773d0c2693c" target="_top" xlink:title="getUpdateTimeIntervalSec">
<polygon fill="#ffffff" stroke="#000000" points="328,-25 328,-44 461,-44 461,-25 328,-25"/>
<text text-anchor="middle" x="394.5" y="-32" font-family="Helvetica,sans-Serif" font-size="10.00" fill="#000000">getUpdateTimeIntervalSec</text>
</a>
</g>
</g>
<!-- Node375&#45;&gt;Node379 -->
<g id="edge11" class="edge">
<title>Node375&#45;&gt;Node379</title>
<path fill="none" stroke="#191970" d="M141.5737,-49.1067C197.9439,-45.8513 274.0261,-41.4575 327.9815,-38.3415"/>
<polygon fill="#191970" stroke="#191970" points="141.0689,-45.6299 131.2873,-49.7007 141.4725,-52.6183 141.0689,-45.6299"/>
</g>
<!-- Node380 -->
<g id="node6" class="node">
<title>Node380</title>
<g id="a_node6"><a xlink:href="classSNN.html#a68862cb4e6c749219c20c38aeab06986" target="_top" xlink:title="polls connection weights ">
<polygon fill="#ffffff" stroke="#000000" points="497,-6 497,-25 652,-25 652,-6 497,-6"/>
<text text-anchor="middle" x="574.5" y="-13" font-family="Helvetica,sans-Serif" font-size="10.00" fill="#000000">SNN::updateConnectionMonitor</text>
</a>
</g>
</g>
<!-- Node375&#45;&gt;Node380 -->
<g id="edge12" class="edge">
<title>Node375&#45;&gt;Node380</title>
<path fill="none" stroke="#191970" d="M130.3189,-42.2837C142.4941,-40.2791 155.1265,-38.2681 167,-36.5 238.3747,-25.8715 255.99,-20.1765 328,-15.5 384.4776,-11.8322 448.3876,-11.954 496.9782,-12.9288"/>
<polygon fill="#191970" stroke="#191970" points="129.5171,-38.8688 120.226,-43.9606 130.6645,-45.7742 129.5171,-38.8688"/>
</g>
<!-- Node378 -->
<g id="node4" class="node">
<title>Node378</title>
<g id="a_node4"><a xlink:href="classConnectionMonitor.html#ab64d9ff17fece61e850660bdd4ca00d2" target="_top" xlink:title="Takes a snapshot of the current weight state. ">
<polygon fill="#ffffff" stroke="#000000" points="342.5,-63.5 342.5,-93.5 446.5,-93.5 446.5,-63.5 342.5,-63.5"/>
<text text-anchor="start" x="350.5" y="-81.5" font-family="Helvetica,sans-Serif" font-size="10.00" fill="#000000">ConnectionMonitor::</text>
<text text-anchor="middle" x="394.5" y="-70.5" font-family="Helvetica,sans-Serif" font-size="10.00" fill="#000000">takeSnapshot</text>
</a>
</g>
</g>
<!-- Node377&#45;&gt;Node378 -->
<g id="edge3" class="edge">
<title>Node377&#45;&gt;Node378</title>
<path fill="none" stroke="#191970" d="M278.3841,-74.2776C298.5104,-75.0095 321.8566,-75.8584 342.3142,-76.6023"/>
<polygon fill="#191970" stroke="#191970" points="278.3058,-70.7725 268.1852,-73.9067 278.0513,-77.7679 278.3058,-70.7725"/>
</g>
<!-- Node377&#45;&gt;Node379 -->
<g id="edge4" class="edge">
<title>Node377&#45;&gt;Node379</title>
<path fill="none" stroke="#191970" d="M278.0978,-61.3078C301.9507,-55.8144 330.3807,-49.2669 353.1729,-44.0178"/>
<polygon fill="#191970" stroke="#191970" points="277.1446,-57.9356 268.1852,-63.5907 278.7156,-64.757 277.1446,-57.9356"/>
</g>
<!-- Node379&#45;&gt;Node380 -->
<g id="edge5" class="edge">
<title>Node379&#45;&gt;Node380</title>
<path fill="none" stroke="#191970" d="M471.2083,-26.403C479.6475,-25.5122 488.2461,-24.6046 496.6984,-23.7124"/>
<polygon fill="#191970" stroke="#191970" points="470.5913,-22.9486 461.0139,-27.4791 471.3261,-29.9099 470.5913,-22.9486"/>
</g>
<!-- Node381 -->
<g id="node7" class="node">
<title>Node381</title>
<g id="a_node7"><a xlink:href="classSNN.html#a3df37c7539f784fe7a939c5da922f41b" target="_top" xlink:title="run the simulation for n sec ">
<polygon fill="#ffffff" stroke="#000000" points="688,-6 688,-25 783,-25 783,-6 688,-6"/>
<text text-anchor="middle" x="735.5" y="-13" font-family="Helvetica,sans-Serif" font-size="10.00" fill="#000000">SNN::runNetwork</text>
</a>
</g>
</g>
<!-- Node380&#45;&gt;Node381 -->
<g id="edge6" class="edge">
<title>Node380&#45;&gt;Node381</title>
<path fill="none" stroke="#191970" d="M662.1932,-15.5C671.0469,-15.5 679.7837,-15.5 687.9704,-15.5"/>
<polygon fill="#191970" stroke="#191970" points="662.1705,-12.0001 652.1704,-15.5 662.1704,-19.0001 662.1705,-12.0001"/>
</g>
<!-- Node382 -->
<g id="node8" class="node">
<title>Node382</title>
<g id="a_node8"><a xlink:href="classCARLsim_1_1Impl.html#a749f370debe5eec8661cf9ca1b1bb4c0" target="_top" xlink:title="CARLsim::Impl::runNetwork">
<polygon fill="#ffffff" stroke="#000000" points="819,-6 819,-25 959,-25 959,-6 819,-6"/>
<text text-anchor="middle" x="889" y="-13" font-family="Helvetica,sans-Serif" font-size="10.00" fill="#000000">CARLsim::Impl::runNetwork</text>
</a>
</g>
</g>
<!-- Node381&#45;&gt;Node382 -->
<g id="edge7" class="edge">
<title>Node381&#45;&gt;Node382</title>
<path fill="none" stroke="#191970" d="M793.4873,-15.5C801.7425,-15.5 810.3063,-15.5 818.7638,-15.5"/>
<polygon fill="#191970" stroke="#191970" points="793.227,-12.0001 783.2269,-15.5 793.2269,-19.0001 793.227,-12.0001"/>
</g>
<!-- Node383 -->
<g id="node9" class="node">
<title>Node383</title>
<g id="a_node9"><a xlink:href="classCARLsim.html#aafb2d44405c96aafe089f96ff867018d" target="_top" xlink:title="run the simulation for time=(nSec*seconds + nMsec*milliseconds) ">
<polygon fill="#ffffff" stroke="#000000" points="995,-6 995,-25 1111,-25 1111,-6 995,-6"/>
<text text-anchor="middle" x="1053" y="-13" font-family="Helvetica,sans-Serif" font-size="10.00" fill="#000000">CARLsim::runNetwork</text>
</a>
</g>
</g>
<!-- Node382&#45;&gt;Node383 -->
<g id="edge8" class="edge">
<title>Node382&#45;&gt;Node383</title>
<path fill="none" stroke="#191970" d="M969.1489,-15.5C977.8022,-15.5 986.483,-15.5 994.8055,-15.5"/>
<polygon fill="#191970" stroke="#191970" points="969.0265,-12.0001 959.0265,-15.5 969.0264,-19.0001 969.0265,-12.0001"/>
</g>
<!-- Node384 -->
<g id="node10" class="node">
<title>Node384</title>
<g id="a_node10"><a xlink:href="classSimpleWeightTuner_1_1Impl.html#a312d84bfa66a5036bb52a4c39db6fa6c" target="_top" xlink:title="SimpleWeightTuner::\lImpl::iterate">
<polygon fill="#ffffff" stroke="#000000" points="1147,-.5 1147,-30.5 1255,-30.5 1255,-.5 1147,-.5"/>
<text text-anchor="start" x="1155" y="-18.5" font-family="Helvetica,sans-Serif" font-size="10.00" fill="#000000">SimpleWeightTuner::</text>
<text text-anchor="middle" x="1201" y="-7.5" font-family="Helvetica,sans-Serif" font-size="10.00" fill="#000000">Impl::iterate</text>
</a>
</g>
</g>
<!-- Node383&#45;&gt;Node384 -->
<g id="edge9" class="edge">
<title>Node383&#45;&gt;Node384</title>
<path fill="none" stroke="#191970" d="M1121.1513,-15.5C1129.8066,-15.5 1138.5692,-15.5 1146.9617,-15.5"/>
<polygon fill="#191970" stroke="#191970" points="1121.0688,-12.0001 1111.0687,-15.5 1121.0687,-19.0001 1121.0688,-12.0001"/>
</g>
<!-- Node385 -->
<g id="node11" class="node">
<title>Node385</title>
<g id="a_node11"><a xlink:href="classSimpleWeightTuner.html#a0df985e3ff7a27edc1e2e3fcc8261843" target="_top" xlink:title="Performs an iteration step of the tuning algorithm. ">
<polygon fill="#ffffff" stroke="#000000" points="1291,-.5 1291,-30.5 1399,-30.5 1399,-.5 1291,-.5"/>
<text text-anchor="start" x="1299" y="-18.5" font-family="Helvetica,sans-Serif" font-size="10.00" fill="#000000">SimpleWeightTuner::</text>
<text text-anchor="middle" x="1345" y="-7.5" font-family="Helvetica,sans-Serif" font-size="10.00" fill="#000000">iterate</text>
</a>
</g>
</g>
<!-- Node384&#45;&gt;Node385 -->
<g id="edge10" class="edge">
<title>Node384&#45;&gt;Node385</title>
<path fill="none" stroke="#191970" d="M1265.2702,-15.5C1273.7504,-15.5 1282.3754,-15.5 1290.6672,-15.5"/>
<polygon fill="#191970" stroke="#191970" points="1265.03,-12.0001 1255.03,-15.5 1265.0299,-19.0001 1265.03,-12.0001"/>
</g>
</g>
</svg>
        <g id="navigator" transform="translate(0 0)" fill="#404254">
                <rect fill="#f2f5e9" fill-opacity="0.5" stroke="#606060" stroke-width=".5" x="0" y="0" width="60" height="60"/>
                <use id="zoomplus" xlink:href="#zoomPlus" x="17" y="9" onmousedown="handleZoom(evt,'in')"/>
                <use id="zoomminus" xlink:href="#zoomMin" x="42" y="9" onmousedown="handleZoom(evt,'out')"/>
                <use id="reset" xlink:href="#resetDef" x="30" y="36" onmousedown="handleReset()"/>
                <g id="arrowUp" xlink:href="#dirArrow" transform="translate(30 24)" onmousedown="handlePan(0,-1)">
                  <use xlink:href="#rim" fill="#404040">
                        <set attributeName="fill" to="#808080" begin="arrowUp.mouseover" end="arrowUp.mouseout"/>
                  </use>
                  <path fill="none" stroke="white" stroke-width="1.5" d="M0,-3.0v7 M-2.5,-0.5L0,-3.0L2.5,-0.5"/>
                </g>
                <g id="arrowRight" xlink:href="#dirArrow" transform="rotate(90) translate(36 -43)" onmousedown="handlePan(1,0)">
                  <use xlink:href="#rim" fill="#404040">
                        <set attributeName="fill" to="#808080" begin="arrowRight.mouseover" end="arrowRight.mouseout"/>
                  </use>
                  <path fill="none" stroke="white" stroke-width="1.5" d="M0,-3.0v7 M-2.5,-0.5L0,-3.0L2.5,-0.5"/>
                </g>
                <g id="arrowDown" xlink:href="#dirArrow" transform="rotate(180) translate(-30 -48)" onmousedown="handlePan(0,1)">
                  <use xlink:href="#rim" fill="#404040">
                        <set attributeName="fill" to="#808080" begin="arrowDown.mouseover" end="arrowDown.mouseout"/>
                  </use>
                  <path fill="none" stroke="white" stroke-width="1.5" d="M0,-3.0v7 M-2.5,-0.5L0,-3.0L2.5,-0.5"/>
                </g>
                <g id="arrowLeft" xlink:href="#dirArrow" transform="rotate(270) translate(-36 17)" onmousedown="handlePan(-1,0)">
                  <use xlink:href="#rim" fill="#404040">
                        <set attributeName="fill" to="#808080" begin="arrowLeft.mouseover" end="arrowLeft.mouseout"/>
                  </use>
                  <path fill="none" stroke="white" stroke-width="1.5" d="M0,-3.0v7 M-2.5,-0.5L0,-3.0L2.5,-0.5"/>
                </g>
        </g>
        <svg viewBox="0 0 15 15" width="100%" height="30px" preserveAspectRatio="xMaxYMin meet">
         <g id="arrow_out" transform="scale(0.3 0.3)">
          <a xlink:href="classConnectionMonitorCore_a879cc76753757f4df109f005aac872a5_icgraph_org.svg" target="_base">
           <rect id="button" ry="5" rx="5" y="6" x="6" height="38" width="38"
                fill="#f2f5e9" fill-opacity="0.5" stroke="#606060" stroke-width="1.0"/>
           <path id="arrow"
             d="M 11.500037,31.436501 C 11.940474,20.09759 22.043105,11.32322 32.158766,21.979434 L 37.068811,17.246167 C 37.068811,17.246167 37.088388,32 37.088388,32 L 22.160133,31.978069 C 22.160133,31.978069 26.997745,27.140456 26.997745,27.140456 C 18.528582,18.264221 13.291696,25.230495 11.500037,31.436501 z"
             style="fill:#404040;"/>
          </a>
         </g>
        </svg>
</svg>
