<?xml version="1.0" encoding="UTF-8" standalone="no"?>
<!DOCTYPE svg PUBLIC "-//W3C//DTD SVG 1.1//EN"
 "http://www.w3.org/Graphics/SVG/1.1/DTD/svg11.dtd">
<!-- Generated by graphviz version 2.40.1 (20161225.0304)
 -->
<!-- Title: scaleWeights Pages: 1 -->
<!--zoomable 104 -->
<svg id="main" version="1.1" xmlns="http://www.w3.org/2000/svg" xmlns:xlink="http://www.w3.org/1999/xlink" xml:space="preserve" onload="init(evt)">
<style type="text/css"><![CDATA[
.edge:hover path { stroke: red; }
.edge:hover polygon { stroke: red; fill: red; }
]]></style>
<script type="text/javascript"><![CDATA[
var edges = document.getElementsByTagName('g');
if (edges && edges.length) {
  for (var i=0;i<edges.length;i++) {
    if (edges[i].id.substr(0,4)=='edge') {
      edges[i].setAttribute('class','edge');
    }
  }
}
]]></script>
        <defs>
                <circle id="rim" cx="0" cy="0" r="7"/>
                <circle id="rim2" cx="0" cy="0" r="3.5"/>
                <g id="zoomPlus">
                        <use xlink:href="#rim" fill="#404040">
                                <set attributeName="fill" to="#808080" begin="zoomplus.mouseover" end="zoomplus.mouseout"/>
                        </use>
                        <path d="M-4,0h8M0,-4v8" fill="none" stroke="white" stroke-width="1.5" pointer-events="none"/>
                </g>
                <g id="zoomMin">
                        <use xlink:href="#rim" fill="#404040">
                                <set attributeName="fill" to="#808080" begin="zoomminus.mouseover" end="zoomminus.mouseout"/>
                        </use>
                        <path d="M-4,0h8" fill="none" stroke="white" stroke-width="1.5" pointer-events="none"/>
                </g>
                <g id="dirArrow">
                        <path fill="none" stroke="white" stroke-width="1.5" d="M0,-3.0v7 M-2.5,-0.5L0,-3.0L2.5,-0.5"/>
                </g>
               <g id="resetDef">
                       <use xlink:href="#rim2" fill="#404040">
                               <set attributeName="fill" to="#808080" begin="reset.mouseover" end="reset.mouseout"/>
                       </use>
               </g>
        </defs>

<script type="text/javascript">
var viewWidth = 756;
var viewHeight = 104;
var sectionId = 'dynsection-125';
</script>
<script xlink:href="svgpan.js"/>
<svg id="graph" class="graph">
<g id="viewport">
<title>scaleWeights</title>
<polygon fill="#ffffff" stroke="transparent" points="-4,4 -4,-100 752,-100 752,4 -4,4"/>
<!-- Node715 -->
<g id="node1" class="node">
<title>Node715</title>
<polygon fill="#bfbfbf" stroke="#000000" points="0,-38.5 0,-57.5 76,-57.5 76,-38.5 0,-38.5"/>
<text text-anchor="middle" x="38" y="-45.5" font-family="Helvetica,sans-Serif" font-size="10.00" fill="#000000">scaleWeights</text>
</g>
<!-- Node716 -->
<g id="node2" class="node">
<title>Node716</title>
<g id="a_node2"><a xlink:href="classUserErrors.html#a4bbedc6c0817d5e59e74e450bf00472c" target="_top" xlink:title="simple wrapper for assert statement ">
<polygon fill="#ffffff" stroke="#000000" points="112,-76.5 112,-95.5 228,-95.5 228,-76.5 112,-76.5"/>
<text text-anchor="middle" x="170" y="-83.5" font-family="Helvetica,sans-Serif" font-size="10.00" fill="#000000">UserErrors::assertTrue</text>
</a>
</g>
</g>
<!-- Node715&#45;&gt;Node716 -->
<g id="edge1" class="edge">
<title>Node715&#45;&gt;Node716</title>
<path fill="none" stroke="#191970" d="M71.3092,-57.589C88.1928,-62.4494 108.8948,-68.4091 126.9705,-73.6127"/>
<polygon fill="#191970" stroke="#191970" points="126.1235,-77.011 136.7015,-76.4141 128.06,-70.2842 126.1235,-77.011"/>
</g>
<!-- Node717 -->
<g id="node3" class="node">
<title>Node717</title>
<g id="a_node3"><a xlink:href="classCARLsim_1_1Impl.html#a14efb66377e70d7f0f4596c223fbc5cc" target="_top" xlink:title="getNumConnections">
<polygon fill="#ffffff" stroke="#000000" points="117,-38.5 117,-57.5 223,-57.5 223,-38.5 117,-38.5"/>
<text text-anchor="middle" x="170" y="-45.5" font-family="Helvetica,sans-Serif" font-size="10.00" fill="#000000">getNumConnections</text>
</a>
</g>
</g>
<!-- Node715&#45;&gt;Node717 -->
<g id="edge2" class="edge">
<title>Node715&#45;&gt;Node717</title>
<path fill="none" stroke="#191970" d="M76.1799,-48C85.6595,-48 96.0764,-48 106.4142,-48"/>
<polygon fill="#191970" stroke="#191970" points="106.6881,-51.5001 116.6881,-48 106.688,-44.5001 106.6881,-51.5001"/>
</g>
<!-- Node721 -->
<g id="node7" class="node">
<title>Node721</title>
<g id="a_node7"><a xlink:href="classSNN.html#a1233e96d5b75c1de533375d52ee18869" target="_top" xlink:title="SNN::scaleWeights">
<polygon fill="#ffffff" stroke="#000000" points="118,-.5 118,-19.5 222,-19.5 222,-.5 118,-.5"/>
<text text-anchor="middle" x="170" y="-7.5" font-family="Helvetica,sans-Serif" font-size="10.00" fill="#000000">SNN::scaleWeights</text>
</a>
</g>
</g>
<!-- Node715&#45;&gt;Node721 -->
<g id="edge6" class="edge">
<title>Node715&#45;&gt;Node721</title>
<path fill="none" stroke="#191970" d="M71.3092,-38.411C88.1928,-33.5506 108.8948,-27.5909 126.9705,-22.3873"/>
<polygon fill="#191970" stroke="#191970" points="128.06,-25.7158 136.7015,-19.5859 126.1235,-18.989 128.06,-25.7158"/>
</g>
<!-- Node718 -->
<g id="node4" class="node">
<title>Node718</title>
<g id="a_node4"><a xlink:href="classSNN.html#a14efb66377e70d7f0f4596c223fbc5cc" target="_top" xlink:title="SNN::getNumConnections">
<polygon fill="#ffffff" stroke="#000000" points="264,-38.5 264,-57.5 398,-57.5 398,-38.5 264,-38.5"/>
<text text-anchor="middle" x="331" y="-45.5" font-family="Helvetica,sans-Serif" font-size="10.00" fill="#000000">SNN::getNumConnections</text>
</a>
</g>
</g>
<!-- Node717&#45;&gt;Node718 -->
<g id="edge3" class="edge">
<title>Node717&#45;&gt;Node718</title>
<path fill="none" stroke="#191970" d="M223.1636,-48C232.9183,-48 243.2807,-48 253.5758,-48"/>
<polygon fill="#191970" stroke="#191970" points="253.8237,-51.5001 263.8236,-48 253.8236,-44.5001 253.8237,-51.5001"/>
</g>
<!-- Node719 -->
<g id="node5" class="node">
<title>Node719</title>
<g id="a_node5"><a xlink:href="classSNN.html#a52f149e224abff772962dea6680398e2" target="_top" xlink:title="gets number of connections associated with a connection ID ">
<polygon fill="#ffffff" stroke="#000000" points="434,-38.5 434,-57.5 606,-57.5 606,-38.5 434,-38.5"/>
<text text-anchor="middle" x="520" y="-45.5" font-family="Helvetica,sans-Serif" font-size="10.00" fill="#000000">SNN::getNumSynapticConnections</text>
</a>
</g>
</g>
<!-- Node718&#45;&gt;Node719 -->
<g id="edge4" class="edge">
<title>Node718&#45;&gt;Node719</title>
<path fill="none" stroke="#191970" d="M398.1665,-48C406.4789,-48 415.1,-48 423.7407,-48"/>
<polygon fill="#191970" stroke="#191970" points="423.8759,-51.5001 433.8759,-48 423.8759,-44.5001 423.8759,-51.5001"/>
</g>
<!-- Node720 -->
<g id="node6" class="node">
<title>Node720</title>
<g id="a_node6"><a xlink:href="classSNN.html#a477f99451786873b73e2623b6f89b766" target="_top" xlink:title="deallocates all dynamical structures and exits ">
<polygon fill="#ffffff" stroke="#000000" points="642,-38.5 642,-57.5 748,-57.5 748,-38.5 642,-38.5"/>
<text text-anchor="middle" x="695" y="-45.5" font-family="Helvetica,sans-Serif" font-size="10.00" fill="#000000">SNN::exitSimulation</text>
</a>
</g>
</g>
<!-- Node719&#45;&gt;Node720 -->
<g id="edge5" class="edge">
<title>Node719&#45;&gt;Node720</title>
<path fill="none" stroke="#191970" d="M606.2183,-48C614.711,-48 623.2199,-48 631.4247,-48"/>
<polygon fill="#191970" stroke="#191970" points="631.6308,-51.5001 641.6308,-48 631.6308,-44.5001 631.6308,-51.5001"/>
</g>
</g>
</svg>
        <g id="navigator" transform="translate(0 0)" fill="#404254">
                <rect fill="#f2f5e9" fill-opacity="0.5" stroke="#606060" stroke-width=".5" x="0" y="0" width="60" height="60"/>
                <use id="zoomplus" xlink:href="#zoomPlus" x="17" y="9" onmousedown="handleZoom(evt,'in')"/>
                <use id="zoomminus" xlink:href="#zoomMin" x="42" y="9" onmousedown="handleZoom(evt,'out')"/>
                <use id="reset" xlink:href="#resetDef" x="30" y="36" onmousedown="handleReset()"/>
                <g id="arrowUp" xlink:href="#dirArrow" transform="translate(30 24)" onmousedown="handlePan(0,-1)">
                  <use xlink:href="#rim" fill="#404040">
                        <set attributeName="fill" to="#808080" begin="arrowUp.mouseover" end="arrowUp.mouseout"/>
                  </use>
                  <path fill="none" stroke="white" stroke-width="1.5" d="M0,-3.0v7 M-2.5,-0.5L0,-3.0L2.5,-0.5"/>
                </g>
                <g id="arrowRight" xlink:href="#dirArrow" transform="rotate(90) translate(36 -43)" onmousedown="handlePan(1,0)">
                  <use xlink:href="#rim" fill="#404040">
                        <set attributeName="fill" to="#808080" begin="arrowRight.mouseover" end="arrowRight.mouseout"/>
                  </use>
                  <path fill="none" stroke="white" stroke-width="1.5" d="M0,-3.0v7 M-2.5,-0.5L0,-3.0L2.5,-0.5"/>
                </g>
                <g id="arrowDown" xlink:href="#dirArrow" transform="rotate(180) translate(-30 -48)" onmousedown="handlePan(0,1)">
                  <use xlink:href="#rim" fill="#404040">
                        <set attributeName="fill" to="#808080" begin="arrowDown.mouseover" end="arrowDown.mouseout"/>
                  </use>
                  <path fill="none" stroke="white" stroke-width="1.5" d="M0,-3.0v7 M-2.5,-0.5L0,-3.0L2.5,-0.5"/>
                </g>
                <g id="arrowLeft" xlink:href="#dirArrow" transform="rotate(270) translate(-36 17)" onmousedown="handlePan(-1,0)">
                  <use xlink:href="#rim" fill="#404040">
                        <set attributeName="fill" to="#808080" begin="arrowLeft.mouseover" end="arrowLeft.mouseout"/>
                  </use>
                  <path fill="none" stroke="white" stroke-width="1.5" d="M0,-3.0v7 M-2.5,-0.5L0,-3.0L2.5,-0.5"/>
                </g>
        </g>
        <svg viewBox="0 0 15 15" width="100%" height="30px" preserveAspectRatio="xMaxYMin meet">
         <g id="arrow_out" transform="scale(0.3 0.3)">
          <a xlink:href="classCARLsim_1_1Impl_a7cc8c47ac0dac59e837ea3b0d229bec5_cgraph_org.svg" target="_base">
           <rect id="button" ry="5" rx="5" y="6" x="6" height="38" width="38"
                fill="#f2f5e9" fill-opacity="0.5" stroke="#606060" stroke-width="1.0"/>
           <path id="arrow"
             d="M 11.500037,31.436501 C 11.940474,20.09759 22.043105,11.32322 32.158766,21.979434 L 37.068811,17.246167 C 37.068811,17.246167 37.088388,32 37.088388,32 L 22.160133,31.978069 C 22.160133,31.978069 26.997745,27.140456 26.997745,27.140456 C 18.528582,18.264221 13.291696,25.230495 11.500037,31.436501 z"
             style="fill:#404040;"/>
          </a>
         </g>
        </svg>
</svg>
