<?xml version="1.0" encoding="UTF-8" standalone="no"?>
<!DOCTYPE svg PUBLIC "-//W3C//DTD SVG 1.1//EN"
 "http://www.w3.org/Graphics/SVG/1.1/DTD/svg11.dtd">
<!-- Generated by graphviz version 2.40.1 (20161225.0304)
 -->
<!-- Title: isGroupWithCOBA Pages: 1 -->
<svg width="613pt" height="28pt"
 viewBox="0.00 0.00 613.00 28.00" xmlns="http://www.w3.org/2000/svg" xmlns:xlink="http://www.w3.org/1999/xlink">
<g id="graph0" class="graph" transform="scale(1 1) rotate(0) translate(4 24)">
<title>isGroupWithCOBA</title>
<polygon fill="#ffffff" stroke="transparent" points="-4,4 -4,-24 609,-24 609,4 -4,4"/>
<!-- Node385 -->
<g id="node1" class="node">
<title>Node385</title>
<polygon fill="#bfbfbf" stroke="#000000" points="0,-.5 0,-19.5 99,-19.5 99,-.5 0,-.5"/>
<text text-anchor="middle" x="49.5" y="-7.5" font-family="Helvetica,sans-Serif" font-size="10.00" fill="#000000">isGroupWithCOBA</text>
</g>
<!-- Node386 -->
<g id="node2" class="node">
<title>Node386</title>
<g id="a_node2"><a xlink:href="classCARLsim_1_1Impl.html#aaee4444a6b301f4d169f14513a36c496" target="_top" xlink:title="CARLsim::Impl::isGroupWithCOBA">
<polygon fill="#ffffff" stroke="#000000" points="135,-.5 135,-19.5 308,-19.5 308,-.5 135,-.5"/>
<text text-anchor="middle" x="221.5" y="-7.5" font-family="Helvetica,sans-Serif" font-size="10.00" fill="#000000">CARLsim::Impl::isGroupWithCOBA</text>
</a>
</g>
</g>
<!-- Node385&#45;&gt;Node386 -->
<g id="edge1" class="edge">
<title>Node385&#45;&gt;Node386</title>
<path fill="none" stroke="#191970" d="M99.2495,-10C107.3952,-10 116.0721,-10 124.9002,-10"/>
<polygon fill="#191970" stroke="#191970" points="124.9115,-13.5001 134.9115,-10 124.9114,-6.5001 124.9115,-13.5001"/>
</g>
<!-- Node387 -->
<g id="node3" class="node">
<title>Node387</title>
<g id="a_node3"><a xlink:href="classSNN.html#aaee4444a6b301f4d169f14513a36c496" target="_top" xlink:title="SNN::isGroupWithCOBA">
<polygon fill="#ffffff" stroke="#000000" points="344,-.5 344,-19.5 471,-19.5 471,-.5 344,-.5"/>
<text text-anchor="middle" x="407.5" y="-7.5" font-family="Helvetica,sans-Serif" font-size="10.00" fill="#000000">SNN::isGroupWithCOBA</text>
</a>
</g>
</g>
<!-- Node386&#45;&gt;Node387 -->
<g id="edge2" class="edge">
<title>Node386&#45;&gt;Node387</title>
<path fill="none" stroke="#191970" d="M308.2376,-10C316.7888,-10 325.4108,-10 333.8129,-10"/>
<polygon fill="#191970" stroke="#191970" points="333.933,-13.5001 343.9329,-10 333.9329,-6.5001 333.933,-13.5001"/>
</g>
<!-- Node388 -->
<g id="node4" class="node">
<title>Node388</title>
<g id="a_node4"><a xlink:href="classSNN.html#a9b8aa1975049078149d963fb8eb06215" target="_top" xlink:title="SNN::isGroupWith">
<polygon fill="#ffffff" stroke="#000000" points="507,-.5 507,-19.5 605,-19.5 605,-.5 507,-.5"/>
<text text-anchor="middle" x="556" y="-7.5" font-family="Helvetica,sans-Serif" font-size="10.00" fill="#000000">SNN::isGroupWith</text>
</a>
</g>
</g>
<!-- Node387&#45;&gt;Node388 -->
<g id="edge3" class="edge">
<title>Node387&#45;&gt;Node388</title>
<path fill="none" stroke="#191970" d="M471.3392,-10C479.6301,-10 488.0978,-10 496.3175,-10"/>
<polygon fill="#191970" stroke="#191970" points="496.5646,-13.5001 506.5645,-10 496.5645,-6.5001 496.5646,-13.5001"/>
</g>
</g>
</svg>
