<?xml version="1.0" encoding="UTF-8" standalone="no"?>
<!DOCTYPE svg PUBLIC "-//W3C//DTD SVG 1.1//EN"
 "http://www.w3.org/Graphics/SVG/1.1/DTD/svg11.dtd">
<!-- Generated by graphviz version 2.40.1 (20161225.0304)
 -->
<!-- Title: isBufferBig Pages: 1 -->
<!--zoomable 142 -->
<svg id="main" version="1.1" xmlns="http://www.w3.org/2000/svg" xmlns:xlink="http://www.w3.org/1999/xlink" xml:space="preserve" onload="init(evt)">
<style type="text/css"><![CDATA[
.edge:hover path { stroke: red; }
.edge:hover polygon { stroke: red; fill: red; }
]]></style>
<script type="text/javascript"><![CDATA[
var edges = document.getElementsByTagName('g');
if (edges && edges.length) {
  for (var i=0;i<edges.length;i++) {
    if (edges[i].id.substr(0,4)=='edge') {
      edges[i].setAttribute('class','edge');
    }
  }
}
]]></script>
        <defs>
                <circle id="rim" cx="0" cy="0" r="7"/>
                <circle id="rim2" cx="0" cy="0" r="3.5"/>
                <g id="zoomPlus">
                        <use xlink:href="#rim" fill="#404040">
                                <set attributeName="fill" to="#808080" begin="zoomplus.mouseover" end="zoomplus.mouseout"/>
                        </use>
                        <path d="M-4,0h8M0,-4v8" fill="none" stroke="white" stroke-width="1.5" pointer-events="none"/>
                </g>
                <g id="zoomMin">
                        <use xlink:href="#rim" fill="#404040">
                                <set attributeName="fill" to="#808080" begin="zoomminus.mouseover" end="zoomminus.mouseout"/>
                        </use>
                        <path d="M-4,0h8" fill="none" stroke="white" stroke-width="1.5" pointer-events="none"/>
                </g>
                <g id="dirArrow">
                        <path fill="none" stroke="white" stroke-width="1.5" d="M0,-3.0v7 M-2.5,-0.5L0,-3.0L2.5,-0.5"/>
                </g>
               <g id="resetDef">
                       <use xlink:href="#rim2" fill="#404040">
                               <set attributeName="fill" to="#808080" begin="reset.mouseover" end="reset.mouseout"/>
                       </use>
               </g>
        </defs>

<script type="text/javascript">
var viewWidth = 1154;
var viewHeight = 142;
var sectionId = 'dynsection-47';
</script>
<script xlink:href="svgpan.js"/>
<svg id="graph" class="graph">
<g id="viewport">
<title>isBufferBig</title>
<polygon fill="#ffffff" stroke="transparent" points="-4,4 -4,-138 1150,-138 1150,4 -4,4"/>
<!-- Node964 -->
<g id="node1" class="node">
<title>Node964</title>
<polygon fill="#bfbfbf" stroke="#000000" points="0,-76.5 0,-95.5 65,-95.5 65,-76.5 0,-76.5"/>
<text text-anchor="middle" x="32.5" y="-83.5" font-family="Helvetica,sans-Serif" font-size="10.00" fill="#000000">isBufferBig</text>
</g>
<!-- Node965 -->
<g id="node2" class="node">
<title>Node965</title>
<g id="a_node2"><a xlink:href="classSNN.html#a876185f4e003c98fb227861e7b84fded" target="_top" xlink:title="copy required spikes from firing buffer to spike buffer ">
<polygon fill="#ffffff" stroke="#000000" points="223,-76.5 223,-95.5 354,-95.5 354,-76.5 223,-76.5"/>
<text text-anchor="middle" x="288.5" y="-83.5" font-family="Helvetica,sans-Serif" font-size="10.00" fill="#000000">SNN::updateSpikeMonitor</text>
</a>
</g>
</g>
<!-- Node964&#45;&gt;Node965 -->
<g id="edge1" class="edge">
<title>Node964&#45;&gt;Node965</title>
<path fill="none" stroke="#191970" d="M75.2027,-86C115.4596,-86 176.3755,-86 222.8155,-86"/>
<polygon fill="#191970" stroke="#191970" points="75.1826,-82.5001 65.1826,-86 75.1826,-89.5001 75.1826,-82.5001"/>
</g>
<!-- Node977 -->
<g id="node14" class="node">
<title>Node977</title>
<g id="a_node14"><a xlink:href="classSpikeMonitorCore.html#a38f87732cc929797d9648e68cd509f1b" target="_top" xlink:title="sets timestamp of last SpikeMonitor update ">
<polygon fill="#ffffff" stroke="#000000" points="101,-57.5 101,-76.5 187,-76.5 187,-57.5 101,-57.5"/>
<text text-anchor="middle" x="144" y="-64.5" font-family="Helvetica,sans-Serif" font-size="10.00" fill="#000000">setLastUpdated</text>
</a>
</g>
</g>
<!-- Node964&#45;&gt;Node977 -->
<g id="edge17" class="edge">
<title>Node964&#45;&gt;Node977</title>
<path fill="none" stroke="#191970" d="M75.0732,-78.7454C83.5099,-77.3077 92.3737,-75.7973 100.8301,-74.3563"/>
<polygon fill="#191970" stroke="#191970" points="74.3201,-75.3232 65.0502,-80.4533 75.496,-82.2237 74.3201,-75.3232"/>
</g>
<!-- Node966 -->
<g id="node3" class="node">
<title>Node966</title>
<g id="a_node3"><a xlink:href="classSNN.html#a3df37c7539f784fe7a939c5da922f41b" target="_top" xlink:title="run the simulation for n sec ">
<polygon fill="#ffffff" stroke="#000000" points="390,-114.5 390,-133.5 485,-133.5 485,-114.5 390,-114.5"/>
<text text-anchor="middle" x="437.5" y="-121.5" font-family="Helvetica,sans-Serif" font-size="10.00" fill="#000000">SNN::runNetwork</text>
</a>
</g>
</g>
<!-- Node965&#45;&gt;Node966 -->
<g id="edge2" class="edge">
<title>Node965&#45;&gt;Node966</title>
<path fill="none" stroke="#191970" d="M335.9922,-98.1121C356.7436,-103.4044 380.7282,-109.5213 400.1714,-114.4799"/>
<polygon fill="#191970" stroke="#191970" points="336.6538,-94.6689 326.099,-95.589 334.9239,-101.4518 336.6538,-94.6689"/>
</g>
<!-- Node971 -->
<g id="node8" class="node">
<title>Node971</title>
<g id="a_node8"><a xlink:href="classSpikeMonitorCore.html#ab91616c118b701c2afd9136393d1f19b" target="_top" xlink:title="starts recording AER data ">
<polygon fill="#ffffff" stroke="#000000" points="397.5,-76.5 397.5,-95.5 477.5,-95.5 477.5,-76.5 397.5,-76.5"/>
<text text-anchor="middle" x="437.5" y="-83.5" font-family="Helvetica,sans-Serif" font-size="10.00" fill="#000000">startRecording</text>
</a>
</g>
</g>
<!-- Node965&#45;&gt;Node971 -->
<g id="edge7" class="edge">
<title>Node965&#45;&gt;Node971</title>
<path fill="none" stroke="#191970" d="M364.2924,-86C375.6962,-86 387.0596,-86 397.3134,-86"/>
<polygon fill="#191970" stroke="#191970" points="364.2873,-82.5001 354.2873,-86 364.2873,-89.5001 364.2873,-82.5001"/>
</g>
<!-- Node975 -->
<g id="node12" class="node">
<title>Node975</title>
<g id="a_node12"><a xlink:href="classSpikeMonitorCore.html#a25e0e98dd4519eaaa6b258f0dcb91ac7" target="_top" xlink:title="stops recording AER data ">
<polygon fill="#ffffff" stroke="#000000" points="397.5,-38.5 397.5,-57.5 477.5,-57.5 477.5,-38.5 397.5,-38.5"/>
<text text-anchor="middle" x="437.5" y="-45.5" font-family="Helvetica,sans-Serif" font-size="10.00" fill="#000000">stopRecording</text>
</a>
</g>
</g>
<!-- Node965&#45;&gt;Node975 -->
<g id="edge13" class="edge">
<title>Node965&#45;&gt;Node975</title>
<path fill="none" stroke="#191970" d="M335.9922,-73.8879C356.7436,-68.5956 380.7282,-62.4787 400.1714,-57.5201"/>
<polygon fill="#191970" stroke="#191970" points="334.9239,-70.5482 326.099,-76.411 336.6538,-77.3311 334.9239,-70.5482"/>
</g>
<!-- Node967 -->
<g id="node4" class="node">
<title>Node967</title>
<g id="a_node4"><a xlink:href="classCARLsim_1_1Impl.html#a749f370debe5eec8661cf9ca1b1bb4c0" target="_top" xlink:title="CARLsim::Impl::runNetwork">
<polygon fill="#ffffff" stroke="#000000" points="522.5,-114.5 522.5,-133.5 662.5,-133.5 662.5,-114.5 522.5,-114.5"/>
<text text-anchor="middle" x="592.5" y="-121.5" font-family="Helvetica,sans-Serif" font-size="10.00" fill="#000000">CARLsim::Impl::runNetwork</text>
</a>
</g>
</g>
<!-- Node966&#45;&gt;Node967 -->
<g id="edge3" class="edge">
<title>Node966&#45;&gt;Node967</title>
<path fill="none" stroke="#191970" d="M495.4017,-124C504.1989,-124 513.3567,-124 522.3798,-124"/>
<polygon fill="#191970" stroke="#191970" points="495.2699,-120.5001 485.2699,-124 495.2698,-127.5001 495.2699,-120.5001"/>
</g>
<!-- Node968 -->
<g id="node5" class="node">
<title>Node968</title>
<g id="a_node5"><a xlink:href="classCARLsim.html#aafb2d44405c96aafe089f96ff867018d" target="_top" xlink:title="run the simulation for time=(nSec*seconds + nMsec*milliseconds) ">
<polygon fill="#ffffff" stroke="#000000" points="721,-114.5 721,-133.5 837,-133.5 837,-114.5 721,-114.5"/>
<text text-anchor="middle" x="779" y="-121.5" font-family="Helvetica,sans-Serif" font-size="10.00" fill="#000000">CARLsim::runNetwork</text>
</a>
</g>
</g>
<!-- Node967&#45;&gt;Node968 -->
<g id="edge4" class="edge">
<title>Node967&#45;&gt;Node968</title>
<path fill="none" stroke="#191970" d="M672.7499,-124C688.9632,-124 705.7113,-124 720.9817,-124"/>
<polygon fill="#191970" stroke="#191970" points="672.7419,-120.5001 662.7419,-124 672.7419,-127.5001 672.7419,-120.5001"/>
</g>
<!-- Node969 -->
<g id="node6" class="node">
<title>Node969</title>
<g id="a_node6"><a xlink:href="classSimpleWeightTuner_1_1Impl.html#a312d84bfa66a5036bb52a4c39db6fa6c" target="_top" xlink:title="SimpleWeightTuner::\lImpl::iterate">
<polygon fill="#ffffff" stroke="#000000" points="894,-52 894,-82 1002,-82 1002,-52 894,-52"/>
<text text-anchor="start" x="902" y="-70" font-family="Helvetica,sans-Serif" font-size="10.00" fill="#000000">SimpleWeightTuner::</text>
<text text-anchor="middle" x="948" y="-59" font-family="Helvetica,sans-Serif" font-size="10.00" fill="#000000">Impl::iterate</text>
</a>
</g>
</g>
<!-- Node968&#45;&gt;Node969 -->
<g id="edge5" class="edge">
<title>Node968&#45;&gt;Node969</title>
<path fill="none" stroke="#191970" d="M834.2014,-111.9467C842.2445,-109.8375 850.3787,-107.5068 858,-105 877.6561,-98.5348 899.0175,-89.6015 915.9948,-82.0208"/>
<polygon fill="#191970" stroke="#191970" points="833.3129,-108.5611 824.4765,-114.4065 835.0294,-115.3474 833.3129,-108.5611"/>
</g>
<!-- Node970 -->
<g id="node7" class="node">
<title>Node970</title>
<g id="a_node7"><a xlink:href="classSimpleWeightTuner.html#a0df985e3ff7a27edc1e2e3fcc8261843" target="_top" xlink:title="Performs an iteration step of the tuning algorithm. ">
<polygon fill="#ffffff" stroke="#000000" points="1038,-52 1038,-82 1146,-82 1146,-52 1038,-52"/>
<text text-anchor="start" x="1046" y="-70" font-family="Helvetica,sans-Serif" font-size="10.00" fill="#000000">SimpleWeightTuner::</text>
<text text-anchor="middle" x="1092" y="-59" font-family="Helvetica,sans-Serif" font-size="10.00" fill="#000000">iterate</text>
</a>
</g>
</g>
<!-- Node969&#45;&gt;Node970 -->
<g id="edge6" class="edge">
<title>Node969&#45;&gt;Node970</title>
<path fill="none" stroke="#191970" d="M1012.2702,-67C1020.7504,-67 1029.3754,-67 1037.6672,-67"/>
<polygon fill="#191970" stroke="#191970" points="1012.03,-63.5001 1002.03,-67 1012.0299,-70.5001 1012.03,-63.5001"/>
</g>
<!-- Node972 -->
<g id="node9" class="node">
<title>Node972</title>
<g id="a_node9"><a xlink:href="classSpikeMonitor.html#ab91616c118b701c2afd9136393d1f19b" target="_top" xlink:title="Starts a new recording period. ">
<polygon fill="#ffffff" stroke="#000000" points="707.5,-76.5 707.5,-95.5 850.5,-95.5 850.5,-76.5 707.5,-76.5"/>
<text text-anchor="middle" x="779" y="-83.5" font-family="Helvetica,sans-Serif" font-size="10.00" fill="#000000">SpikeMonitor::startRecording</text>
</a>
</g>
</g>
<!-- Node971&#45;&gt;Node972 -->
<g id="edge8" class="edge">
<title>Node971&#45;&gt;Node972</title>
<path fill="none" stroke="#191970" d="M487.705,-86C545.7263,-86 641.6492,-86 707.4624,-86"/>
<polygon fill="#191970" stroke="#191970" points="487.6786,-82.5001 477.6786,-86 487.6786,-89.5001 487.6786,-82.5001"/>
</g>
<!-- Node973 -->
<g id="node10" class="node">
<title>Node973</title>
<g id="a_node10"><a xlink:href="classSpikeMonitorCore.html#a7ac2c997b5281ea2f2bc00cc9706d37c" target="_top" xlink:title="sets status of PersistentData mode ">
<polygon fill="#ffffff" stroke="#000000" points="545,-38.5 545,-57.5 640,-57.5 640,-38.5 545,-38.5"/>
<text text-anchor="middle" x="592.5" y="-45.5" font-family="Helvetica,sans-Serif" font-size="10.00" fill="#000000">setPersistentData</text>
</a>
</g>
</g>
<!-- Node971&#45;&gt;Node973 -->
<g id="edge10" class="edge">
<title>Node971&#45;&gt;Node973</title>
<path fill="none" stroke="#191970" d="M486.6105,-73.96C508.2647,-68.6512 533.3502,-62.5012 553.6682,-57.5201"/>
<polygon fill="#191970" stroke="#191970" points="485.492,-70.6305 476.613,-76.411 487.1588,-77.4292 485.492,-70.6305"/>
</g>
<!-- Node972&#45;&gt;Node969 -->
<g id="edge9" class="edge">
<title>Node972&#45;&gt;Node969</title>
<path fill="none" stroke="#191970" d="M860.9175,-76.7903C872.1178,-75.5311 883.3786,-74.2651 893.9118,-73.0809"/>
<polygon fill="#191970" stroke="#191970" points="860.2176,-73.3469 850.6712,-77.9423 860.9997,-80.3031 860.2176,-73.3469"/>
</g>
<!-- Node974 -->
<g id="node11" class="node">
<title>Node974</title>
<g id="a_node11"><a xlink:href="classSpikeMonitor.html#a7ac2c997b5281ea2f2bc00cc9706d37c" target="_top" xlink:title="Sets PersistentMode either on (true) or off (false) ">
<polygon fill="#ffffff" stroke="#000000" points="700,-38.5 700,-57.5 858,-57.5 858,-38.5 700,-38.5"/>
<text text-anchor="middle" x="779" y="-45.5" font-family="Helvetica,sans-Serif" font-size="10.00" fill="#000000">SpikeMonitor::setPersistentData</text>
</a>
</g>
</g>
<!-- Node973&#45;&gt;Node974 -->
<g id="edge11" class="edge">
<title>Node973&#45;&gt;Node974</title>
<path fill="none" stroke="#191970" d="M650.0916,-48C665.7623,-48 683.0148,-48 699.6621,-48"/>
<polygon fill="#191970" stroke="#191970" points="650.0444,-44.5001 640.0444,-48 650.0443,-51.5001 650.0444,-44.5001"/>
</g>
<!-- Node974&#45;&gt;Node969 -->
<g id="edge12" class="edge">
<title>Node974&#45;&gt;Node969</title>
<path fill="none" stroke="#191970" d="M868.218,-58.0304C876.8663,-59.0027 885.4485,-59.9676 893.6007,-60.8841"/>
<polygon fill="#191970" stroke="#191970" points="868.3855,-54.5273 858.0571,-56.8881 867.6034,-61.4835 868.3855,-54.5273"/>
</g>
<!-- Node975&#45;&gt;Node973 -->
<g id="edge16" class="edge">
<title>Node975&#45;&gt;Node973</title>
<path fill="none" stroke="#191970" d="M488.0069,-48C506.3101,-48 526.9088,-48 544.9489,-48"/>
<polygon fill="#191970" stroke="#191970" points="487.8198,-44.5001 477.8198,-48 487.8198,-51.5001 487.8198,-44.5001"/>
</g>
<!-- Node976 -->
<g id="node13" class="node">
<title>Node976</title>
<g id="a_node13"><a xlink:href="classSpikeMonitor.html#a25e0e98dd4519eaaa6b258f0dcb91ac7" target="_top" xlink:title="Ends a recording period. ">
<polygon fill="#ffffff" stroke="#000000" points="521,-.5 521,-19.5 664,-19.5 664,-.5 521,-.5"/>
<text text-anchor="middle" x="592.5" y="-7.5" font-family="Helvetica,sans-Serif" font-size="10.00" fill="#000000">SpikeMonitor::stopRecording</text>
</a>
</g>
</g>
<!-- Node975&#45;&gt;Node976 -->
<g id="edge14" class="edge">
<title>Node975&#45;&gt;Node976</title>
<path fill="none" stroke="#191970" d="M486.6105,-35.96C508.2647,-30.6512 533.3502,-24.5012 553.6682,-19.5201"/>
<polygon fill="#191970" stroke="#191970" points="485.492,-32.6305 476.613,-38.411 487.1588,-39.4292 485.492,-32.6305"/>
</g>
<!-- Node976&#45;&gt;Node969 -->
<g id="edge15" class="edge">
<title>Node976&#45;&gt;Node969</title>
<path fill="none" stroke="#191970" d="M674.2136,-8.9759C727.2624,-9.9854 797.5262,-14.4905 858,-29 879.2754,-34.1046 901.9622,-43.7137 919.2356,-51.9915"/>
<polygon fill="#191970" stroke="#191970" points="674.2308,-5.4759 664.1785,-8.8225 674.1238,-12.475 674.2308,-5.4759"/>
</g>
<!-- Node977&#45;&gt;Node965 -->
<g id="edge18" class="edge">
<title>Node977&#45;&gt;Node965</title>
<path fill="none" stroke="#191970" d="M197.3331,-74.0127C205.6883,-75.1113 214.4066,-76.2576 222.9965,-77.3871"/>
<polygon fill="#191970" stroke="#191970" points="197.7257,-70.5342 187.3548,-72.7006 196.8131,-77.4745 197.7257,-70.5342"/>
</g>
</g>
</svg>
        <g id="navigator" transform="translate(0 0)" fill="#404254">
                <rect fill="#f2f5e9" fill-opacity="0.5" stroke="#606060" stroke-width=".5" x="0" y="0" width="60" height="60"/>
                <use id="zoomplus" xlink:href="#zoomPlus" x="17" y="9" onmousedown="handleZoom(evt,'in')"/>
                <use id="zoomminus" xlink:href="#zoomMin" x="42" y="9" onmousedown="handleZoom(evt,'out')"/>
                <use id="reset" xlink:href="#resetDef" x="30" y="36" onmousedown="handleReset()"/>
                <g id="arrowUp" xlink:href="#dirArrow" transform="translate(30 24)" onmousedown="handlePan(0,-1)">
                  <use xlink:href="#rim" fill="#404040">
                        <set attributeName="fill" to="#808080" begin="arrowUp.mouseover" end="arrowUp.mouseout"/>
                  </use>
                  <path fill="none" stroke="white" stroke-width="1.5" d="M0,-3.0v7 M-2.5,-0.5L0,-3.0L2.5,-0.5"/>
                </g>
                <g id="arrowRight" xlink:href="#dirArrow" transform="rotate(90) translate(36 -43)" onmousedown="handlePan(1,0)">
                  <use xlink:href="#rim" fill="#404040">
                        <set attributeName="fill" to="#808080" begin="arrowRight.mouseover" end="arrowRight.mouseout"/>
                  </use>
                  <path fill="none" stroke="white" stroke-width="1.5" d="M0,-3.0v7 M-2.5,-0.5L0,-3.0L2.5,-0.5"/>
                </g>
                <g id="arrowDown" xlink:href="#dirArrow" transform="rotate(180) translate(-30 -48)" onmousedown="handlePan(0,1)">
                  <use xlink:href="#rim" fill="#404040">
                        <set attributeName="fill" to="#808080" begin="arrowDown.mouseover" end="arrowDown.mouseout"/>
                  </use>
                  <path fill="none" stroke="white" stroke-width="1.5" d="M0,-3.0v7 M-2.5,-0.5L0,-3.0L2.5,-0.5"/>
                </g>
                <g id="arrowLeft" xlink:href="#dirArrow" transform="rotate(270) translate(-36 17)" onmousedown="handlePan(-1,0)">
                  <use xlink:href="#rim" fill="#404040">
                        <set attributeName="fill" to="#808080" begin="arrowLeft.mouseover" end="arrowLeft.mouseout"/>
                  </use>
                  <path fill="none" stroke="white" stroke-width="1.5" d="M0,-3.0v7 M-2.5,-0.5L0,-3.0L2.5,-0.5"/>
                </g>
        </g>
        <svg viewBox="0 0 15 15" width="100%" height="30px" preserveAspectRatio="xMaxYMin meet">
         <g id="arrow_out" transform="scale(0.3 0.3)">
          <a xlink:href="classSpikeMonitorCore_aaeb6a64ac5d9fd3b7a979f0f12ec87dc_icgraph_org.svg" target="_base">
           <rect id="button" ry="5" rx="5" y="6" x="6" height="38" width="38"
                fill="#f2f5e9" fill-opacity="0.5" stroke="#606060" stroke-width="1.0"/>
           <path id="arrow"
             d="M 11.500037,31.436501 C 11.940474,20.09759 22.043105,11.32322 32.158766,21.979434 L 37.068811,17.246167 C 37.068811,17.246167 37.088388,32 37.088388,32 L 22.160133,31.978069 C 22.160133,31.978069 26.997745,27.140456 26.997745,27.140456 C 18.528582,18.264221 13.291696,25.230495 11.500037,31.436501 z"
             style="fill:#404040;"/>
          </a>
         </g>
        </svg>
</svg>
