<?xml version="1.0" encoding="UTF-8" standalone="no"?>
<!DOCTYPE svg PUBLIC "-//W3C//DTD SVG 1.1//EN"
 "http://www.w3.org/Graphics/SVG/1.1/DTD/svg11.dtd">
<!-- Generated by graphviz version 2.40.1 (20161225.0304)
 -->
<!-- Title: setExternalCurrent Pages: 1 -->
<svg width="256pt" height="66pt"
 viewBox="0.00 0.00 256.00 66.00" xmlns="http://www.w3.org/2000/svg" xmlns:xlink="http://www.w3.org/1999/xlink">
<g id="graph0" class="graph" transform="scale(1 1) rotate(0) translate(4 62)">
<title>setExternalCurrent</title>
<polygon fill="#ffffff" stroke="transparent" points="-4,4 -4,-62 252,-62 252,4 -4,4"/>
<!-- Node1757 -->
<g id="node1" class="node">
<title>Node1757</title>
<polygon fill="#bfbfbf" stroke="#000000" points="0,-19.5 0,-38.5 98,-38.5 98,-19.5 0,-19.5"/>
<text text-anchor="middle" x="49" y="-26.5" font-family="Helvetica,sans-Serif" font-size="10.00" fill="#000000">setExternalCurrent</text>
</g>
<!-- Node1758 -->
<g id="node2" class="node">
<title>Node1758</title>
<g id="a_node2"><a xlink:href="classSNN.html#a3764348d44236ad4932627cd4d199c31" target="_top" xlink:title="isPoissonGroup">
<polygon fill="#ffffff" stroke="#000000" points="148,-38.5 148,-57.5 234,-57.5 234,-38.5 148,-38.5"/>
<text text-anchor="middle" x="191" y="-45.5" font-family="Helvetica,sans-Serif" font-size="10.00" fill="#000000">isPoissonGroup</text>
</a>
</g>
</g>
<!-- Node1757&#45;&gt;Node1758 -->
<g id="edge1" class="edge">
<title>Node1757&#45;&gt;Node1758</title>
<path fill="none" stroke="#191970" d="M98.2662,-35.592C111.0339,-37.3003 124.8394,-39.1475 137.7992,-40.8816"/>
<polygon fill="#191970" stroke="#191970" points="137.5994,-44.386 147.9753,-42.2432 138.5278,-37.4478 137.5994,-44.386"/>
</g>
<!-- Node1759 -->
<g id="node3" class="node">
<title>Node1759</title>
<g id="a_node3"><a xlink:href="classSNN.html#a11e19a0ccbeca92ba843a5933b3321e0" target="_top" xlink:title="getGroupNumNeurons">
<polygon fill="#ffffff" stroke="#000000" points="134,-.5 134,-19.5 248,-19.5 248,-.5 134,-.5"/>
<text text-anchor="middle" x="191" y="-7.5" font-family="Helvetica,sans-Serif" font-size="10.00" fill="#000000">getGroupNumNeurons</text>
</a>
</g>
</g>
<!-- Node1757&#45;&gt;Node1759 -->
<g id="edge2" class="edge">
<title>Node1757&#45;&gt;Node1759</title>
<path fill="none" stroke="#191970" d="M98.2662,-22.408C106.4418,-21.3141 115.0428,-20.1633 123.5749,-19.0217"/>
<polygon fill="#191970" stroke="#191970" points="124.0819,-22.4851 133.5294,-17.6897 123.1535,-15.5469 124.0819,-22.4851"/>
</g>
</g>
</svg>
