<?xml version="1.0" encoding="UTF-8" standalone="no"?>
<!DOCTYPE svg PUBLIC "-//W3C//DTD SVG 1.1//EN"
 "http://www.w3.org/Graphics/SVG/1.1/DTD/svg11.dtd">
<!-- Generated by graphviz version 2.40.1 (20161225.0304)
 -->
<!-- Title: isGroupWithHomeostasis Pages: 1 -->
<!--zoomable 100 -->
<svg id="main" version="1.1" xmlns="http://www.w3.org/2000/svg" xmlns:xlink="http://www.w3.org/1999/xlink" xml:space="preserve" onload="init(evt)">
<style type="text/css"><![CDATA[
.edge:hover path { stroke: red; }
.edge:hover polygon { stroke: red; fill: red; }
]]></style>
<script type="text/javascript"><![CDATA[
var edges = document.getElementsByTagName('g');
if (edges && edges.length) {
  for (var i=0;i<edges.length;i++) {
    if (edges[i].id.substr(0,4)=='edge') {
      edges[i].setAttribute('class','edge');
    }
  }
}
]]></script>
        <defs>
                <circle id="rim" cx="0" cy="0" r="7"/>
                <circle id="rim2" cx="0" cy="0" r="3.5"/>
                <g id="zoomPlus">
                        <use xlink:href="#rim" fill="#404040">
                                <set attributeName="fill" to="#808080" begin="zoomplus.mouseover" end="zoomplus.mouseout"/>
                        </use>
                        <path d="M-4,0h8M0,-4v8" fill="none" stroke="white" stroke-width="1.5" pointer-events="none"/>
                </g>
                <g id="zoomMin">
                        <use xlink:href="#rim" fill="#404040">
                                <set attributeName="fill" to="#808080" begin="zoomminus.mouseover" end="zoomminus.mouseout"/>
                        </use>
                        <path d="M-4,0h8" fill="none" stroke="white" stroke-width="1.5" pointer-events="none"/>
                </g>
                <g id="dirArrow">
                        <path fill="none" stroke="white" stroke-width="1.5" d="M0,-3.0v7 M-2.5,-0.5L0,-3.0L2.5,-0.5"/>
                </g>
               <g id="resetDef">
                       <use xlink:href="#rim2" fill="#404040">
                               <set attributeName="fill" to="#808080" begin="reset.mouseover" end="reset.mouseout"/>
                       </use>
               </g>
        </defs>

<script type="text/javascript">
var viewWidth = 743;
var viewHeight = 100;
var sectionId = 'dynsection-88';
</script>
<script xlink:href="svgpan.js"/>
<svg id="graph" class="graph">
<g id="viewport">
<title>isGroupWithHomeostasis</title>
<polygon fill="#ffffff" stroke="transparent" points="-4,4 -4,-95.5 739,-95.5 739,4 -4,4"/>
<!-- Node1480 -->
<g id="node1" class="node">
<title>Node1480</title>
<polygon fill="#bfbfbf" stroke="#000000" points="0,-22.5 0,-41.5 128,-41.5 128,-22.5 0,-22.5"/>
<text text-anchor="middle" x="64" y="-29.5" font-family="Helvetica,sans-Serif" font-size="10.00" fill="#000000">isGroupWithHomeostasis</text>
</g>
<!-- Node1481 -->
<g id="node2" class="node">
<title>Node1481</title>
<g id="a_node2"><a xlink:href="classCARLsim_1_1Impl.html#aa9a9c5646dd11beb60fcf70d2216024a" target="_top" xlink:title="CARLsim::Impl::isGroupWith\lHomeostasis">
<polygon fill="#ffffff" stroke="#000000" points="164,-39 164,-69 308,-69 308,-39 164,-39"/>
<text text-anchor="start" x="172" y="-57" font-family="Helvetica,sans-Serif" font-size="10.00" fill="#000000">CARLsim::Impl::isGroupWith</text>
<text text-anchor="middle" x="236" y="-46" font-family="Helvetica,sans-Serif" font-size="10.00" fill="#000000">Homeostasis</text>
</a>
</g>
</g>
<!-- Node1480&#45;&gt;Node1481 -->
<g id="edge1" class="edge">
<title>Node1480&#45;&gt;Node1481</title>
<path fill="none" stroke="#191970" d="M137.9941,-41.4644C146.5491,-42.5586 155.2657,-43.6735 163.7963,-44.7646"/>
<polygon fill="#191970" stroke="#191970" points="138.4097,-37.9891 128.0465,-40.192 137.5216,-44.9325 138.4097,-37.9891"/>
</g>
<!-- Node1485 -->
<g id="node6" class="node">
<title>Node1485</title>
<g id="a_node6"><a xlink:href="classSNN.html#a0ef541007b0004e308c89f2f326fb328" target="_top" xlink:title="isDopaminergicGroup">
<polygon fill="#ffffff" stroke="#000000" points="181,-.5 181,-19.5 291,-19.5 291,-.5 181,-.5"/>
<text text-anchor="middle" x="236" y="-7.5" font-family="Helvetica,sans-Serif" font-size="10.00" fill="#000000">isDopaminergicGroup</text>
</a>
</g>
</g>
<!-- Node1480&#45;&gt;Node1485 -->
<g id="edge5" class="edge">
<title>Node1480&#45;&gt;Node1485</title>
<path fill="none" stroke="#191970" d="M138.3555,-22.4894C152.6512,-20.6609 167.3842,-18.7764 180.935,-17.0432"/>
<polygon fill="#191970" stroke="#191970" points="137.5216,-19.0675 128.0465,-23.808 138.4097,-26.0109 137.5216,-19.0675"/>
</g>
<!-- Node1482 -->
<g id="node3" class="node">
<title>Node1482</title>
<g id="a_node3"><a xlink:href="classCARLsim_1_1Impl.html#aef4d35935c52e55a957aa96e4d6218f6" target="_top" xlink:title="CARLsim::Impl::setHomeoBase\lFiringRate">
<polygon fill="#ffffff" stroke="#000000" points="353.5,-61 353.5,-91 511.5,-91 511.5,-61 353.5,-61"/>
<text text-anchor="start" x="361.5" y="-79" font-family="Helvetica,sans-Serif" font-size="10.00" fill="#000000">CARLsim::Impl::setHomeoBase</text>
<text text-anchor="middle" x="432.5" y="-68" font-family="Helvetica,sans-Serif" font-size="10.00" fill="#000000">FiringRate</text>
</a>
</g>
</g>
<!-- Node1481&#45;&gt;Node1482 -->
<g id="edge2" class="edge">
<title>Node1481&#45;&gt;Node1482</title>
<path fill="none" stroke="#191970" d="M318.2184,-63.2051C329.8958,-64.5125 341.8838,-65.8547 353.4983,-67.155"/>
<polygon fill="#191970" stroke="#191970" points="318.3809,-59.7015 308.0536,-62.0671 317.602,-66.6581 318.3809,-59.7015"/>
</g>
<!-- Node1484 -->
<g id="node5" class="node">
<title>Node1484</title>
<g id="a_node5"><a xlink:href="classCARLsim.html#aa9a9c5646dd11beb60fcf70d2216024a" target="_top" xlink:title="Returns whether a group has homeostasis enabled. ">
<polygon fill="#ffffff" stroke="#000000" points="344,-22.5 344,-41.5 521,-41.5 521,-22.5 344,-22.5"/>
<text text-anchor="middle" x="432.5" y="-29.5" font-family="Helvetica,sans-Serif" font-size="10.00" fill="#000000">CARLsim::isGroupWithHomeostasis</text>
</a>
</g>
</g>
<!-- Node1481&#45;&gt;Node1484 -->
<g id="edge4" class="edge">
<title>Node1481&#45;&gt;Node1484</title>
<path fill="none" stroke="#191970" d="M318.0769,-44.8107C327.7863,-43.7237 337.7124,-42.6123 347.4618,-41.5208"/>
<polygon fill="#191970" stroke="#191970" points="317.602,-41.3419 308.0536,-45.9329 318.3809,-48.2985 317.602,-41.3419"/>
</g>
<!-- Node1483 -->
<g id="node4" class="node">
<title>Node1483</title>
<g id="a_node4"><a xlink:href="classCARLsim.html#a4f0d341bb17f0d6e0b3aa8db28ef4513" target="_top" xlink:title="Sets the homeostatic target firing rate (enforced through homeostatic synaptic scaling) ...">
<polygon fill="#ffffff" stroke="#000000" points="557,-66.5 557,-85.5 735,-85.5 735,-66.5 557,-66.5"/>
<text text-anchor="middle" x="646" y="-73.5" font-family="Helvetica,sans-Serif" font-size="10.00" fill="#000000">CARLsim::setHomeoBaseFiringRate</text>
</a>
</g>
</g>
<!-- Node1482&#45;&gt;Node1483 -->
<g id="edge3" class="edge">
<title>Node1482&#45;&gt;Node1483</title>
<path fill="none" stroke="#191970" d="M521.7991,-76C533.3946,-76 545.2724,-76 556.8652,-76"/>
<polygon fill="#191970" stroke="#191970" points="521.6962,-72.5001 511.6961,-76 521.6961,-79.5001 521.6962,-72.5001"/>
</g>
</g>
</svg>
        <g id="navigator" transform="translate(0 0)" fill="#404254">
                <rect fill="#f2f5e9" fill-opacity="0.5" stroke="#606060" stroke-width=".5" x="0" y="0" width="60" height="60"/>
                <use id="zoomplus" xlink:href="#zoomPlus" x="17" y="9" onmousedown="handleZoom(evt,'in')"/>
                <use id="zoomminus" xlink:href="#zoomMin" x="42" y="9" onmousedown="handleZoom(evt,'out')"/>
                <use id="reset" xlink:href="#resetDef" x="30" y="36" onmousedown="handleReset()"/>
                <g id="arrowUp" xlink:href="#dirArrow" transform="translate(30 24)" onmousedown="handlePan(0,-1)">
                  <use xlink:href="#rim" fill="#404040">
                        <set attributeName="fill" to="#808080" begin="arrowUp.mouseover" end="arrowUp.mouseout"/>
                  </use>
                  <path fill="none" stroke="white" stroke-width="1.5" d="M0,-3.0v7 M-2.5,-0.5L0,-3.0L2.5,-0.5"/>
                </g>
                <g id="arrowRight" xlink:href="#dirArrow" transform="rotate(90) translate(36 -43)" onmousedown="handlePan(1,0)">
                  <use xlink:href="#rim" fill="#404040">
                        <set attributeName="fill" to="#808080" begin="arrowRight.mouseover" end="arrowRight.mouseout"/>
                  </use>
                  <path fill="none" stroke="white" stroke-width="1.5" d="M0,-3.0v7 M-2.5,-0.5L0,-3.0L2.5,-0.5"/>
                </g>
                <g id="arrowDown" xlink:href="#dirArrow" transform="rotate(180) translate(-30 -48)" onmousedown="handlePan(0,1)">
                  <use xlink:href="#rim" fill="#404040">
                        <set attributeName="fill" to="#808080" begin="arrowDown.mouseover" end="arrowDown.mouseout"/>
                  </use>
                  <path fill="none" stroke="white" stroke-width="1.5" d="M0,-3.0v7 M-2.5,-0.5L0,-3.0L2.5,-0.5"/>
                </g>
                <g id="arrowLeft" xlink:href="#dirArrow" transform="rotate(270) translate(-36 17)" onmousedown="handlePan(-1,0)">
                  <use xlink:href="#rim" fill="#404040">
                        <set attributeName="fill" to="#808080" begin="arrowLeft.mouseover" end="arrowLeft.mouseout"/>
                  </use>
                  <path fill="none" stroke="white" stroke-width="1.5" d="M0,-3.0v7 M-2.5,-0.5L0,-3.0L2.5,-0.5"/>
                </g>
        </g>
        <svg viewBox="0 0 15 15" width="100%" height="30px" preserveAspectRatio="xMaxYMin meet">
         <g id="arrow_out" transform="scale(0.3 0.3)">
          <a xlink:href="classSNN_aa9a9c5646dd11beb60fcf70d2216024a_icgraph_org.svg" target="_base">
           <rect id="button" ry="5" rx="5" y="6" x="6" height="38" width="38"
                fill="#f2f5e9" fill-opacity="0.5" stroke="#606060" stroke-width="1.0"/>
           <path id="arrow"
             d="M 11.500037,31.436501 C 11.940474,20.09759 22.043105,11.32322 32.158766,21.979434 L 37.068811,17.246167 C 37.068811,17.246167 37.088388,32 37.088388,32 L 22.160133,31.978069 C 22.160133,31.978069 26.997745,27.140456 26.997745,27.140456 C 18.528582,18.264221 13.291696,25.230495 11.500037,31.436501 z"
             style="fill:#404040;"/>
          </a>
         </g>
        </svg>
</svg>
