<?xml version="1.0" encoding="UTF-8" standalone="no"?>
<!DOCTYPE svg PUBLIC "-//W3C//DTD SVG 1.1//EN"
 "http://www.w3.org/Graphics/SVG/1.1/DTD/svg11.dtd">
<!-- Generated by graphviz version 2.40.1 (20161225.0304)
 -->
<!-- Title: getConnectConfig Pages: 1 -->
<!--zoomable 275 -->
<svg id="main" version="1.1" xmlns="http://www.w3.org/2000/svg" xmlns:xlink="http://www.w3.org/1999/xlink" xml:space="preserve" onload="init(evt)">
<style type="text/css"><![CDATA[
.edge:hover path { stroke: red; }
.edge:hover polygon { stroke: red; fill: red; }
]]></style>
<script type="text/javascript"><![CDATA[
var edges = document.getElementsByTagName('g');
if (edges && edges.length) {
  for (var i=0;i<edges.length;i++) {
    if (edges[i].id.substr(0,4)=='edge') {
      edges[i].setAttribute('class','edge');
    }
  }
}
]]></script>
        <defs>
                <circle id="rim" cx="0" cy="0" r="7"/>
                <circle id="rim2" cx="0" cy="0" r="3.5"/>
                <g id="zoomPlus">
                        <use xlink:href="#rim" fill="#404040">
                                <set attributeName="fill" to="#808080" begin="zoomplus.mouseover" end="zoomplus.mouseout"/>
                        </use>
                        <path d="M-4,0h8M0,-4v8" fill="none" stroke="white" stroke-width="1.5" pointer-events="none"/>
                </g>
                <g id="zoomMin">
                        <use xlink:href="#rim" fill="#404040">
                                <set attributeName="fill" to="#808080" begin="zoomminus.mouseover" end="zoomminus.mouseout"/>
                        </use>
                        <path d="M-4,0h8" fill="none" stroke="white" stroke-width="1.5" pointer-events="none"/>
                </g>
                <g id="dirArrow">
                        <path fill="none" stroke="white" stroke-width="1.5" d="M0,-3.0v7 M-2.5,-0.5L0,-3.0L2.5,-0.5"/>
                </g>
               <g id="resetDef">
                       <use xlink:href="#rim2" fill="#404040">
                               <set attributeName="fill" to="#808080" begin="reset.mouseover" end="reset.mouseout"/>
                       </use>
               </g>
        </defs>

<script type="text/javascript">
var viewWidth = 1693;
var viewHeight = 275;
var sectionId = 'dynsection-24';
</script>
<script xlink:href="svgpan.js"/>
<svg id="graph" class="graph">
<g id="viewport">
<title>getConnectConfig</title>
<polygon fill="#ffffff" stroke="transparent" points="-4,4 -4,-270.5 1689,-270.5 1689,4 -4,4"/>
<!-- Node158 -->
<g id="node1" class="node">
<title>Node158</title>
<polygon fill="#bfbfbf" stroke="#000000" points="0,-126.5 0,-145.5 95,-145.5 95,-126.5 0,-126.5"/>
<text text-anchor="middle" x="47.5" y="-133.5" font-family="Helvetica,sans-Serif" font-size="10.00" fill="#000000">getConnectConfig</text>
</g>
<!-- Node159 -->
<g id="node2" class="node">
<title>Node159</title>
<g id="a_node2"><a xlink:href="classConnectionMonitorCore.html#a02fd73d861ef2e4aabb38c0c9ff82947" target="_top" xlink:title="ConnectionMonitorCore\l::init">
<polygon fill="#ffffff" stroke="#000000" points="271.5,-165 271.5,-195 390.5,-195 390.5,-165 271.5,-165"/>
<text text-anchor="start" x="279.5" y="-183" font-family="Helvetica,sans-Serif" font-size="10.00" fill="#000000">ConnectionMonitorCore</text>
<text text-anchor="middle" x="331" y="-172" font-family="Helvetica,sans-Serif" font-size="10.00" fill="#000000">::init</text>
</a>
</g>
</g>
<!-- Node158&#45;&gt;Node159 -->
<g id="edge1" class="edge">
<title>Node158&#45;&gt;Node159</title>
<path fill="none" stroke="#191970" d="M105.2776,-144.9672C153.6913,-152.4812 222.5408,-163.1668 271.4459,-170.757"/>
<polygon fill="#191970" stroke="#191970" points="105.6898,-141.4894 95.2713,-143.4142 104.6162,-148.4066 105.6898,-141.4894"/>
</g>
<!-- Node172 -->
<g id="node15" class="node">
<title>Node172</title>
<g id="a_node15"><a xlink:href="classSNN.html#acd2fe569d2092f6e9cf624d18b93b1bf" target="_top" xlink:title="returns file pointer to log file ">
<polygon fill="#ffffff" stroke="#000000" points="131,-107.5 131,-126.5 204,-126.5 204,-107.5 131,-107.5"/>
<text text-anchor="middle" x="167.5" y="-114.5" font-family="Helvetica,sans-Serif" font-size="10.00" fill="#000000">getLogFpLog</text>
</a>
</g>
</g>
<!-- Node158&#45;&gt;Node172 -->
<g id="edge15" class="edge">
<title>Node158&#45;&gt;Node172</title>
<path fill="none" stroke="#191970" d="M105.4237,-126.8288C114.1317,-125.45 122.8982,-124.062 130.9882,-122.781"/>
<polygon fill="#191970" stroke="#191970" points="104.6016,-123.4152 95.272,-128.4361 105.6963,-130.3291 104.6016,-123.4152"/>
</g>
<!-- Node160 -->
<g id="node3" class="node">
<title>Node160</title>
<g id="a_node3"><a xlink:href="classConnectionMonitorCore.html#ab64d9ff17fece61e850660bdd4ca00d2" target="_top" xlink:title="ConnectionMonitorCore\l::takeSnapshot">
<polygon fill="#ffffff" stroke="#000000" points="459.5,-225 459.5,-255 578.5,-255 578.5,-225 459.5,-225"/>
<text text-anchor="start" x="467.5" y="-243" font-family="Helvetica,sans-Serif" font-size="10.00" fill="#000000">ConnectionMonitorCore</text>
<text text-anchor="middle" x="519" y="-232" font-family="Helvetica,sans-Serif" font-size="10.00" fill="#000000">::takeSnapshot</text>
</a>
</g>
</g>
<!-- Node159&#45;&gt;Node160 -->
<g id="edge2" class="edge">
<title>Node159&#45;&gt;Node160</title>
<path fill="none" stroke="#191970" d="M388.0834,-198.2181C414.8975,-206.7758 446.4764,-216.8542 471.9008,-224.9683"/>
<polygon fill="#191970" stroke="#191970" points="389.0311,-194.8467 378.4403,-195.1405 386.9028,-201.5153 389.0311,-194.8467"/>
</g>
<!-- Node162 -->
<g id="node5" class="node">
<title>Node162</title>
<g id="a_node5"><a xlink:href="classConnectionMonitorCore.html#acf625cff31a558c7d6786773d0c2693c" target="_top" xlink:title="ConnectionMonitorCore\l::getUpdateTimeIntervalSec">
<polygon fill="#ffffff" stroke="#000000" points="623,-187 623,-217 762,-217 762,-187 623,-187"/>
<text text-anchor="start" x="631" y="-205" font-family="Helvetica,sans-Serif" font-size="10.00" fill="#000000">ConnectionMonitorCore</text>
<text text-anchor="middle" x="692.5" y="-194" font-family="Helvetica,sans-Serif" font-size="10.00" fill="#000000">::getUpdateTimeIntervalSec</text>
</a>
</g>
</g>
<!-- Node159&#45;&gt;Node162 -->
<g id="edge11" class="edge">
<title>Node159&#45;&gt;Node162</title>
<path fill="none" stroke="#191970" d="M400.6881,-184.241C464.6349,-188.1327 558.866,-193.8674 622.8125,-197.759"/>
<polygon fill="#191970" stroke="#191970" points="400.8885,-180.7469 390.6944,-183.6329 400.4633,-187.7339 400.8885,-180.7469"/>
</g>
<!-- Node169 -->
<g id="node12" class="node">
<title>Node169</title>
<g id="a_node12"><a xlink:href="classSNN.html#a9773c7b8f7fbb53c92ec5623ea99cb69" target="_top" xlink:title="sets up a network monitor registered with a callback to process the spikes. ">
<polygon fill="#ffffff" stroke="#000000" points="463,-148.5 463,-167.5 575,-167.5 575,-148.5 463,-148.5"/>
<text text-anchor="middle" x="519" y="-155.5" font-family="Helvetica,sans-Serif" font-size="10.00" fill="#000000">setConnectionMonitor</text>
</a>
</g>
</g>
<!-- Node159&#45;&gt;Node169 -->
<g id="edge12" class="edge">
<title>Node159&#45;&gt;Node169</title>
<path fill="none" stroke="#191970" d="M400.946,-171.8148C421.3922,-169.4222 443.4662,-166.8391 462.9324,-164.5611"/>
<polygon fill="#191970" stroke="#191970" points="400.2681,-168.3702 390.7427,-173.0088 401.0817,-175.3227 400.2681,-168.3702"/>
</g>
<!-- Node161 -->
<g id="node4" class="node">
<title>Node161</title>
<g id="a_node4"><a xlink:href="classConnectionMonitor.html#ab64d9ff17fece61e850660bdd4ca00d2" target="_top" xlink:title="Takes a snapshot of the current weight state. ">
<polygon fill="#ffffff" stroke="#000000" points="640.5,-236 640.5,-266 744.5,-266 744.5,-236 640.5,-236"/>
<text text-anchor="start" x="648.5" y="-254" font-family="Helvetica,sans-Serif" font-size="10.00" fill="#000000">ConnectionMonitor::</text>
<text text-anchor="middle" x="692.5" y="-243" font-family="Helvetica,sans-Serif" font-size="10.00" fill="#000000">takeSnapshot</text>
</a>
</g>
</g>
<!-- Node160&#45;&gt;Node161 -->
<g id="edge3" class="edge">
<title>Node160&#45;&gt;Node161</title>
<path fill="none" stroke="#191970" d="M588.7014,-244.4191C605.8918,-245.509 624.0121,-246.6578 640.2164,-247.6852"/>
<polygon fill="#191970" stroke="#191970" points="588.9103,-240.9254 578.7089,-243.7856 588.4673,-247.9114 588.9103,-240.9254"/>
</g>
<!-- Node160&#45;&gt;Node162 -->
<g id="edge4" class="edge">
<title>Node160&#45;&gt;Node162</title>
<path fill="none" stroke="#191970" d="M588.7203,-224.7299C600.2598,-222.2025 612.2178,-219.5834 623.7335,-217.0612"/>
<polygon fill="#191970" stroke="#191970" points="587.7285,-221.364 578.7089,-226.9226 589.2262,-228.2019 587.7285,-221.364"/>
</g>
<!-- Node163 -->
<g id="node6" class="node">
<title>Node163</title>
<g id="a_node6"><a xlink:href="classSNN.html#a68862cb4e6c749219c20c38aeab06986" target="_top" xlink:title="polls connection weights ">
<polygon fill="#ffffff" stroke="#000000" points="821.5,-192.5 821.5,-211.5 949.5,-211.5 949.5,-192.5 821.5,-192.5"/>
<text text-anchor="middle" x="885.5" y="-199.5" font-family="Helvetica,sans-Serif" font-size="10.00" fill="#000000">updateConnectionMonitor</text>
</a>
</g>
</g>
<!-- Node162&#45;&gt;Node163 -->
<g id="edge5" class="edge">
<title>Node162&#45;&gt;Node163</title>
<path fill="none" stroke="#191970" d="M772.2637,-202C788.6286,-202 805.6558,-202 821.3846,-202"/>
<polygon fill="#191970" stroke="#191970" points="772.1775,-198.5001 762.1774,-202 772.1774,-205.5001 772.1775,-198.5001"/>
</g>
<!-- Node164 -->
<g id="node7" class="node">
<title>Node164</title>
<g id="a_node7"><a xlink:href="classSNN.html#a3df37c7539f784fe7a939c5da922f41b" target="_top" xlink:title="run the simulation for n sec ">
<polygon fill="#ffffff" stroke="#000000" points="1002,-192.5 1002,-211.5 1069,-211.5 1069,-192.5 1002,-192.5"/>
<text text-anchor="middle" x="1035.5" y="-199.5" font-family="Helvetica,sans-Serif" font-size="10.00" fill="#000000">runNetwork</text>
</a>
</g>
</g>
<!-- Node163&#45;&gt;Node164 -->
<g id="edge6" class="edge">
<title>Node163&#45;&gt;Node164</title>
<path fill="none" stroke="#191970" d="M959.7339,-202C974.4957,-202 989.297,-202 1001.8502,-202"/>
<polygon fill="#191970" stroke="#191970" points="959.5486,-198.5001 949.5486,-202 959.5486,-205.5001 959.5486,-198.5001"/>
</g>
<!-- Node165 -->
<g id="node8" class="node">
<title>Node165</title>
<g id="a_node8"><a xlink:href="classCARLsim_1_1Impl.html#a749f370debe5eec8661cf9ca1b1bb4c0" target="_top" xlink:title="CARLsim::Impl::runNetwork">
<polygon fill="#ffffff" stroke="#000000" points="1105,-192.5 1105,-211.5 1245,-211.5 1245,-192.5 1105,-192.5"/>
<text text-anchor="middle" x="1175" y="-199.5" font-family="Helvetica,sans-Serif" font-size="10.00" fill="#000000">CARLsim::Impl::runNetwork</text>
</a>
</g>
</g>
<!-- Node164&#45;&gt;Node165 -->
<g id="edge7" class="edge">
<title>Node164&#45;&gt;Node165</title>
<path fill="none" stroke="#191970" d="M1079.2708,-202C1087.4331,-202 1096.1492,-202 1104.8732,-202"/>
<polygon fill="#191970" stroke="#191970" points="1079.2691,-198.5001 1069.2691,-202 1079.269,-205.5001 1079.2691,-198.5001"/>
</g>
<!-- Node166 -->
<g id="node9" class="node">
<title>Node166</title>
<g id="a_node9"><a xlink:href="classCARLsim.html#aafb2d44405c96aafe089f96ff867018d" target="_top" xlink:title="run the simulation for time=(nSec*seconds + nMsec*milliseconds) ">
<polygon fill="#ffffff" stroke="#000000" points="1281,-192.5 1281,-211.5 1397,-211.5 1397,-192.5 1281,-192.5"/>
<text text-anchor="middle" x="1339" y="-199.5" font-family="Helvetica,sans-Serif" font-size="10.00" fill="#000000">CARLsim::runNetwork</text>
</a>
</g>
</g>
<!-- Node165&#45;&gt;Node166 -->
<g id="edge8" class="edge">
<title>Node165&#45;&gt;Node166</title>
<path fill="none" stroke="#191970" d="M1255.1489,-202C1263.8022,-202 1272.483,-202 1280.8055,-202"/>
<polygon fill="#191970" stroke="#191970" points="1255.0265,-198.5001 1245.0265,-202 1255.0264,-205.5001 1255.0265,-198.5001"/>
</g>
<!-- Node167 -->
<g id="node10" class="node">
<title>Node167</title>
<g id="a_node10"><a xlink:href="classSimpleWeightTuner_1_1Impl.html#a312d84bfa66a5036bb52a4c39db6fa6c" target="_top" xlink:title="SimpleWeightTuner::\lImpl::iterate">
<polygon fill="#ffffff" stroke="#000000" points="1433,-187 1433,-217 1541,-217 1541,-187 1433,-187"/>
<text text-anchor="start" x="1441" y="-205" font-family="Helvetica,sans-Serif" font-size="10.00" fill="#000000">SimpleWeightTuner::</text>
<text text-anchor="middle" x="1487" y="-194" font-family="Helvetica,sans-Serif" font-size="10.00" fill="#000000">Impl::iterate</text>
</a>
</g>
</g>
<!-- Node166&#45;&gt;Node167 -->
<g id="edge9" class="edge">
<title>Node166&#45;&gt;Node167</title>
<path fill="none" stroke="#191970" d="M1407.1513,-202C1415.8066,-202 1424.5692,-202 1432.9617,-202"/>
<polygon fill="#191970" stroke="#191970" points="1407.0688,-198.5001 1397.0687,-202 1407.0687,-205.5001 1407.0688,-198.5001"/>
</g>
<!-- Node168 -->
<g id="node11" class="node">
<title>Node168</title>
<g id="a_node11"><a xlink:href="classSimpleWeightTuner.html#a0df985e3ff7a27edc1e2e3fcc8261843" target="_top" xlink:title="Performs an iteration step of the tuning algorithm. ">
<polygon fill="#ffffff" stroke="#000000" points="1577,-187 1577,-217 1685,-217 1685,-187 1577,-187"/>
<text text-anchor="start" x="1585" y="-205" font-family="Helvetica,sans-Serif" font-size="10.00" fill="#000000">SimpleWeightTuner::</text>
<text text-anchor="middle" x="1631" y="-194" font-family="Helvetica,sans-Serif" font-size="10.00" fill="#000000">iterate</text>
</a>
</g>
</g>
<!-- Node167&#45;&gt;Node168 -->
<g id="edge10" class="edge">
<title>Node167&#45;&gt;Node168</title>
<path fill="none" stroke="#191970" d="M1551.2702,-202C1559.7504,-202 1568.3754,-202 1576.6672,-202"/>
<polygon fill="#191970" stroke="#191970" points="1551.03,-198.5001 1541.03,-202 1551.0299,-205.5001 1551.03,-198.5001"/>
</g>
<!-- Node170 -->
<g id="node13" class="node">
<title>Node170</title>
<g id="a_node13"><a xlink:href="classCARLsim_1_1Impl.html#a012dcdbbe9769131d98ddf680743bff3" target="_top" xlink:title="CARLsim::Impl::setConnection\lMonitor">
<polygon fill="#ffffff" stroke="#000000" points="616,-138 616,-168 769,-168 769,-138 616,-138"/>
<text text-anchor="start" x="624" y="-156" font-family="Helvetica,sans-Serif" font-size="10.00" fill="#000000">CARLsim::Impl::setConnection</text>
<text text-anchor="middle" x="692.5" y="-145" font-family="Helvetica,sans-Serif" font-size="10.00" fill="#000000">Monitor</text>
</a>
</g>
</g>
<!-- Node169&#45;&gt;Node170 -->
<g id="edge13" class="edge">
<title>Node169&#45;&gt;Node170</title>
<path fill="none" stroke="#191970" d="M585.5391,-156.0824C595.4883,-155.7957 605.8131,-155.4982 615.9496,-155.2061"/>
<polygon fill="#191970" stroke="#191970" points="585.2255,-152.5899 575.3305,-156.3766 585.4272,-159.587 585.2255,-152.5899"/>
</g>
<!-- Node171 -->
<g id="node14" class="node">
<title>Node171</title>
<g id="a_node14"><a xlink:href="classCARLsim.html#a0f4f273689484d0ceaa5a40f64fc82fc" target="_top" xlink:title="Sets a connection monitor for a group, custom ConnectionMonitor class. ">
<polygon fill="#ffffff" stroke="#000000" points="805,-143.5 805,-162.5 966,-162.5 966,-143.5 805,-143.5"/>
<text text-anchor="middle" x="885.5" y="-150.5" font-family="Helvetica,sans-Serif" font-size="10.00" fill="#000000">CARLsim::setConnectionMonitor</text>
</a>
</g>
</g>
<!-- Node170&#45;&gt;Node171 -->
<g id="edge14" class="edge">
<title>Node170&#45;&gt;Node171</title>
<path fill="none" stroke="#191970" d="M779.0833,-153C787.6808,-153 796.3844,-153 804.9173,-153"/>
<polygon fill="#191970" stroke="#191970" points="779.0559,-149.5001 769.0559,-153 779.0559,-156.5001 779.0559,-149.5001"/>
</g>
<!-- Node172&#45;&gt;Node159 -->
<g id="edge18" class="edge">
<title>Node172&#45;&gt;Node159</title>
<path fill="none" stroke="#191970" d="M192.269,-131.6785C205.9953,-139.3751 223.5645,-148.5222 240,-155 249.9078,-158.905 260.6509,-162.4387 271.1664,-165.5379"/>
<polygon fill="#191970" stroke="#191970" points="193.8599,-128.5565 183.4412,-126.6325 190.3861,-134.6337 193.8599,-128.5565"/>
</g>
<!-- Node173 -->
<g id="node16" class="node">
<title>Node173</title>
<g id="a_node16"><a xlink:href="classCARLsim_1_1Impl.html#acd2fe569d2092f6e9cf624d18b93b1bf" target="_top" xlink:title="CARLsim::Impl::getLogFpLog">
<polygon fill="#ffffff" stroke="#000000" points="258,-126.5 258,-145.5 404,-145.5 404,-126.5 258,-126.5"/>
<text text-anchor="middle" x="331" y="-133.5" font-family="Helvetica,sans-Serif" font-size="10.00" fill="#000000">CARLsim::Impl::getLogFpLog</text>
</a>
</g>
</g>
<!-- Node172&#45;&gt;Node173 -->
<g id="edge16" class="edge">
<title>Node172&#45;&gt;Node173</title>
<path fill="none" stroke="#191970" d="M214.2657,-122.4346C227.8885,-124.0176 243.1086,-125.7863 257.9426,-127.5101"/>
<polygon fill="#191970" stroke="#191970" points="214.5298,-118.9418 204.1926,-121.264 213.7217,-125.895 214.5298,-118.9418"/>
</g>
<!-- Node175 -->
<g id="node18" class="node">
<title>Node175</title>
<g id="a_node18"><a xlink:href="classGroupMonitorCore.html#abbe561f1d7285414b1a9333fc09ac382" target="_top" xlink:title="constructor (called by CARLsim::setGroupMonitor) ">
<polygon fill="#ffffff" stroke="#000000" points="240,-88.5 240,-107.5 422,-107.5 422,-88.5 240,-88.5"/>
<text text-anchor="middle" x="331" y="-95.5" font-family="Helvetica,sans-Serif" font-size="10.00" fill="#000000">GroupMonitorCore::GroupMonitorCore</text>
</a>
</g>
</g>
<!-- Node172&#45;&gt;Node175 -->
<g id="edge19" class="edge">
<title>Node172&#45;&gt;Node175</title>
<path fill="none" stroke="#191970" d="M214.2847,-111.5632C225.1711,-110.2982 237.0768,-108.9146 248.9899,-107.5302"/>
<polygon fill="#191970" stroke="#191970" points="213.7217,-108.105 204.1926,-112.736 214.5298,-115.0582 213.7217,-108.105"/>
</g>
<!-- Node176 -->
<g id="node19" class="node">
<title>Node176</title>
<g id="a_node19"><a xlink:href="classNeuronMonitorCore.html#a1fea34ca55f65e7cfeb05d870b2e741b" target="_top" xlink:title="constructor (called by CARLsim::setNeuronMonitor) ">
<polygon fill="#ffffff" stroke="#000000" points="277.5,-39 277.5,-69 384.5,-69 384.5,-39 277.5,-39"/>
<text text-anchor="start" x="285.5" y="-57" font-family="Helvetica,sans-Serif" font-size="10.00" fill="#000000">NeuronMonitorCore::</text>
<text text-anchor="middle" x="331" y="-46" font-family="Helvetica,sans-Serif" font-size="10.00" fill="#000000">NeuronMonitorCore</text>
</a>
</g>
</g>
<!-- Node172&#45;&gt;Node176 -->
<g id="edge20" class="edge">
<title>Node172&#45;&gt;Node176</title>
<path fill="none" stroke="#191970" d="M192.269,-102.3215C205.9953,-94.6249 223.5645,-85.4778 240,-79 251.8893,-74.314 264.9816,-70.1626 277.4399,-66.6552"/>
<polygon fill="#191970" stroke="#191970" points="190.3861,-99.3663 183.4412,-107.3675 193.8599,-105.4435 190.3861,-99.3663"/>
</g>
<!-- Node177 -->
<g id="node20" class="node">
<title>Node177</title>
<g id="a_node20"><a xlink:href="classSpikeMonitorCore.html#ad925d84fd6af2e2d1565a65987c11e43" target="_top" xlink:title="constructor (called by CARLsim::setSpikeMonitor) ">
<polygon fill="#ffffff" stroke="#000000" points="241.5,-.5 241.5,-19.5 420.5,-19.5 420.5,-.5 241.5,-.5"/>
<text text-anchor="middle" x="331" y="-7.5" font-family="Helvetica,sans-Serif" font-size="10.00" fill="#000000">SpikeMonitorCore::SpikeMonitorCore</text>
</a>
</g>
</g>
<!-- Node172&#45;&gt;Node177 -->
<g id="edge21" class="edge">
<title>Node172&#45;&gt;Node177</title>
<path fill="none" stroke="#191970" d="M177.6857,-98.2697C189.7813,-77.9004 211.9035,-45.9855 240,-29 246.3533,-25.1591 253.3616,-22.0851 260.5843,-19.6264"/>
<polygon fill="#191970" stroke="#191970" points="174.491,-96.8063 172.5711,-107.2257 180.5696,-100.2777 174.491,-96.8063"/>
</g>
<!-- Node174 -->
<g id="node17" class="node">
<title>Node174</title>
<g id="a_node17"><a xlink:href="classCARLsim.html#a62495363b0ec3da7e68bf2a90bdc4fd8" target="_top" xlink:title="returns file pointer to log file ">
<polygon fill="#ffffff" stroke="#000000" points="458,-110.5 458,-129.5 580,-129.5 580,-110.5 458,-110.5"/>
<text text-anchor="middle" x="519" y="-117.5" font-family="Helvetica,sans-Serif" font-size="10.00" fill="#000000">CARLsim::getLogFpLog</text>
</a>
</g>
</g>
<!-- Node173&#45;&gt;Node174 -->
<g id="edge17" class="edge">
<title>Node173&#45;&gt;Node174</title>
<path fill="none" stroke="#191970" d="M414.2907,-128.9114C428.9382,-127.6648 443.9372,-126.3883 457.84,-125.2051"/>
<polygon fill="#191970" stroke="#191970" points="413.8912,-125.4327 404.224,-129.7682 414.4848,-132.4075 413.8912,-125.4327"/>
</g>
</g>
</svg>
        <g id="navigator" transform="translate(0 0)" fill="#404254">
                <rect fill="#f2f5e9" fill-opacity="0.5" stroke="#606060" stroke-width=".5" x="0" y="0" width="60" height="60"/>
                <use id="zoomplus" xlink:href="#zoomPlus" x="17" y="9" onmousedown="handleZoom(evt,'in')"/>
                <use id="zoomminus" xlink:href="#zoomMin" x="42" y="9" onmousedown="handleZoom(evt,'out')"/>
                <use id="reset" xlink:href="#resetDef" x="30" y="36" onmousedown="handleReset()"/>
                <g id="arrowUp" xlink:href="#dirArrow" transform="translate(30 24)" onmousedown="handlePan(0,-1)">
                  <use xlink:href="#rim" fill="#404040">
                        <set attributeName="fill" to="#808080" begin="arrowUp.mouseover" end="arrowUp.mouseout"/>
                  </use>
                  <path fill="none" stroke="white" stroke-width="1.5" d="M0,-3.0v7 M-2.5,-0.5L0,-3.0L2.5,-0.5"/>
                </g>
                <g id="arrowRight" xlink:href="#dirArrow" transform="rotate(90) translate(36 -43)" onmousedown="handlePan(1,0)">
                  <use xlink:href="#rim" fill="#404040">
                        <set attributeName="fill" to="#808080" begin="arrowRight.mouseover" end="arrowRight.mouseout"/>
                  </use>
                  <path fill="none" stroke="white" stroke-width="1.5" d="M0,-3.0v7 M-2.5,-0.5L0,-3.0L2.5,-0.5"/>
                </g>
                <g id="arrowDown" xlink:href="#dirArrow" transform="rotate(180) translate(-30 -48)" onmousedown="handlePan(0,1)">
                  <use xlink:href="#rim" fill="#404040">
                        <set attributeName="fill" to="#808080" begin="arrowDown.mouseover" end="arrowDown.mouseout"/>
                  </use>
                  <path fill="none" stroke="white" stroke-width="1.5" d="M0,-3.0v7 M-2.5,-0.5L0,-3.0L2.5,-0.5"/>
                </g>
                <g id="arrowLeft" xlink:href="#dirArrow" transform="rotate(270) translate(-36 17)" onmousedown="handlePan(-1,0)">
                  <use xlink:href="#rim" fill="#404040">
                        <set attributeName="fill" to="#808080" begin="arrowLeft.mouseover" end="arrowLeft.mouseout"/>
                  </use>
                  <path fill="none" stroke="white" stroke-width="1.5" d="M0,-3.0v7 M-2.5,-0.5L0,-3.0L2.5,-0.5"/>
                </g>
        </g>
        <svg viewBox="0 0 15 15" width="100%" height="30px" preserveAspectRatio="xMaxYMin meet">
         <g id="arrow_out" transform="scale(0.3 0.3)">
          <a xlink:href="classSNN_acdfe8b1c7c69be228cc51535cfec0215_icgraph_org.svg" target="_base">
           <rect id="button" ry="5" rx="5" y="6" x="6" height="38" width="38"
                fill="#f2f5e9" fill-opacity="0.5" stroke="#606060" stroke-width="1.0"/>
           <path id="arrow"
             d="M 11.500037,31.436501 C 11.940474,20.09759 22.043105,11.32322 32.158766,21.979434 L 37.068811,17.246167 C 37.068811,17.246167 37.088388,32 37.088388,32 L 22.160133,31.978069 C 22.160133,31.978069 26.997745,27.140456 26.997745,27.140456 C 18.528582,18.264221 13.291696,25.230495 11.500037,31.436501 z"
             style="fill:#404040;"/>
          </a>
         </g>
        </svg>
</svg>
