<?xml version="1.0" encoding="UTF-8" standalone="no"?>
<!DOCTYPE svg PUBLIC "-//W3C//DTD SVG 1.1//EN"
 "http://www.w3.org/Graphics/SVG/1.1/DTD/svg11.dtd">
<!-- Generated by graphviz version 2.40.1 (20161225.0304)
 -->
<!-- Title: isRecording Pages: 1 -->
<svg width="248pt" height="446pt"
 viewBox="0.00 0.00 248.00 446.00" xmlns="http://www.w3.org/2000/svg" xmlns:xlink="http://www.w3.org/1999/xlink">
<g id="graph0" class="graph" transform="scale(1 1) rotate(0) translate(4 442)">
<title>isRecording</title>
<polygon fill="#ffffff" stroke="transparent" points="-4,4 -4,-442 244,-442 244,4 -4,4"/>
<!-- Node75 -->
<g id="node1" class="node">
<title>Node75</title>
<polygon fill="#bfbfbf" stroke="#000000" points="0,-209.5 0,-228.5 68,-228.5 68,-209.5 0,-209.5"/>
<text text-anchor="middle" x="34" y="-216.5" font-family="Helvetica,sans-Serif" font-size="10.00" fill="#000000">isRecording</text>
</g>
<!-- Node76 -->
<g id="node2" class="node">
<title>Node76</title>
<g id="a_node2"><a xlink:href="classGroupMonitor.html#ab91616c118b701c2afd9136393d1f19b" target="_top" xlink:title="Starts a new recording period. ">
<polygon fill="#ffffff" stroke="#000000" points="132,-418.5 132,-437.5 212,-437.5 212,-418.5 132,-418.5"/>
<text text-anchor="middle" x="172" y="-425.5" font-family="Helvetica,sans-Serif" font-size="10.00" fill="#000000">startRecording</text>
</a>
</g>
</g>
<!-- Node75&#45;&gt;Node76 -->
<g id="edge1" class="edge">
<title>Node75&#45;&gt;Node76</title>
<path fill="none" stroke="#191970" d="M35.5124,-238.9353C39.5302,-277.5428 53.8909,-362.7719 104,-409 111.658,-416.0649 121.7272,-420.5329 131.7623,-423.3496"/>
<polygon fill="#191970" stroke="#191970" points="38.959,-238.1879 34.5694,-228.5453 31.9877,-238.8207 38.959,-238.1879"/>
</g>
<!-- Node77 -->
<g id="node3" class="node">
<title>Node77</title>
<g id="a_node3"><a xlink:href="classGroupMonitor.html#a25e0e98dd4519eaaa6b258f0dcb91ac7" target="_top" xlink:title="Ends a recording period. ">
<polygon fill="#ffffff" stroke="#000000" points="132,-380.5 132,-399.5 212,-399.5 212,-380.5 132,-380.5"/>
<text text-anchor="middle" x="172" y="-387.5" font-family="Helvetica,sans-Serif" font-size="10.00" fill="#000000">stopRecording</text>
</a>
</g>
</g>
<!-- Node75&#45;&gt;Node77 -->
<g id="edge2" class="edge">
<title>Node75&#45;&gt;Node77</title>
<path fill="none" stroke="#191970" d="M37.508,-238.5163C44.3685,-270.9275 62.6619,-335.7664 104,-371 111.8363,-377.6791 121.8513,-382.0207 131.7716,-384.8396"/>
<polygon fill="#191970" stroke="#191970" points="40.9033,-237.6426 35.5391,-228.5061 34.0349,-238.9936 40.9033,-237.6426"/>
</g>
<!-- Node78 -->
<g id="node4" class="node">
<title>Node78</title>
<g id="a_node4"><a xlink:href="classGroupMonitor.html#a422a2ad820a50c6cb6747cfcf3e5981f" target="_top" xlink:title="Returns the total recording time (ms) ">
<polygon fill="#ffffff" stroke="#000000" points="113,-342.5 113,-361.5 231,-361.5 231,-342.5 113,-342.5"/>
<text text-anchor="middle" x="172" y="-349.5" font-family="Helvetica,sans-Serif" font-size="10.00" fill="#000000">getRecordingTotalTime</text>
</a>
</g>
</g>
<!-- Node75&#45;&gt;Node78 -->
<g id="edge3" class="edge">
<title>Node75&#45;&gt;Node78</title>
<path fill="none" stroke="#191970" d="M40.6961,-238.2829C50.5486,-263.7951 71.391,-308.4007 104,-333 109.1864,-336.9124 115.1399,-340.0193 121.3206,-342.4864"/>
<polygon fill="#191970" stroke="#191970" points="43.8828,-236.8077 37.1442,-228.632 37.3136,-239.2255 43.8828,-236.8077"/>
</g>
<!-- Node79 -->
<g id="node5" class="node">
<title>Node79</title>
<g id="a_node5"><a xlink:href="classGroupMonitor.html#ad7a315436b7a12e601cbbf2a27b124c8" target="_top" xlink:title="Returns the simulation time (ms) of the last call to startRecording() ">
<polygon fill="#ffffff" stroke="#000000" points="104,-304.5 104,-323.5 240,-323.5 240,-304.5 104,-304.5"/>
<text text-anchor="middle" x="172" y="-311.5" font-family="Helvetica,sans-Serif" font-size="10.00" fill="#000000">getRecordingLastStartTime</text>
</a>
</g>
</g>
<!-- Node75&#45;&gt;Node79 -->
<g id="edge4" class="edge">
<title>Node75&#45;&gt;Node79</title>
<path fill="none" stroke="#191970" d="M46.146,-237.1726C58.6639,-254.516 79.7338,-280.14 104,-295 110.2721,-298.8408 117.3394,-301.925 124.4848,-304.3961"/>
<polygon fill="#191970" stroke="#191970" points="48.6963,-234.7109 40.1054,-228.5103 42.9545,-238.7149 48.6963,-234.7109"/>
</g>
<!-- Node80 -->
<g id="node6" class="node">
<title>Node80</title>
<g id="a_node6"><a xlink:href="classGroupMonitor.html#a2e2b6c27b006ddd754a7d6de56130d25" target="_top" xlink:title="Returns the simulation time (ms) of the first call to startRecording() ">
<polygon fill="#ffffff" stroke="#000000" points="113.5,-266.5 113.5,-285.5 230.5,-285.5 230.5,-266.5 113.5,-266.5"/>
<text text-anchor="middle" x="172" y="-273.5" font-family="Helvetica,sans-Serif" font-size="10.00" fill="#000000">getRecordingStartTime</text>
</a>
</g>
</g>
<!-- Node75&#45;&gt;Node80 -->
<g id="edge5" class="edge">
<title>Node75&#45;&gt;Node80</title>
<path fill="none" stroke="#191970" d="M58.2474,-233.9197C71.4287,-241.5749 88.221,-250.6078 104,-257 112.8615,-260.5899 122.6358,-263.756 131.9439,-266.4234"/>
<polygon fill="#191970" stroke="#191970" points="59.7404,-230.736 49.3536,-228.6466 56.1703,-236.7572 59.7404,-230.736"/>
</g>
<!-- Node81 -->
<g id="node7" class="node">
<title>Node81</title>
<g id="a_node7"><a xlink:href="classGroupMonitor.html#a219899d7deb62081f61a2f59e1bbcad8" target="_top" xlink:title="Returns the simulation time (ms) of the last call to stopRecording() ">
<polygon fill="#ffffff" stroke="#000000" points="114,-228.5 114,-247.5 230,-247.5 230,-228.5 114,-228.5"/>
<text text-anchor="middle" x="172" y="-235.5" font-family="Helvetica,sans-Serif" font-size="10.00" fill="#000000">getRecordingStopTime</text>
</a>
</g>
</g>
<!-- Node75&#45;&gt;Node81 -->
<g id="edge6" class="edge">
<title>Node75&#45;&gt;Node81</title>
<path fill="none" stroke="#191970" d="M78.1958,-225.0849C89.5373,-226.6464 101.9101,-228.3499 113.8396,-229.9924"/>
<polygon fill="#191970" stroke="#191970" points="78.4963,-221.5934 68.1124,-223.6966 77.5415,-228.528 78.4963,-221.5934"/>
</g>
<!-- Node82 -->
<g id="node8" class="node">
<title>Node82</title>
<g id="a_node8"><a xlink:href="classGroupMonitor.html#a6329f81702cbc0600a85d228e16ad81a" target="_top" xlink:title="return the group data vector ">
<polygon fill="#ffffff" stroke="#000000" points="132,-190.5 132,-209.5 212,-209.5 212,-190.5 132,-190.5"/>
<text text-anchor="middle" x="172" y="-197.5" font-family="Helvetica,sans-Serif" font-size="10.00" fill="#000000">getDataVector</text>
</a>
</g>
</g>
<!-- Node75&#45;&gt;Node82 -->
<g id="edge7" class="edge">
<title>Node75&#45;&gt;Node82</title>
<path fill="none" stroke="#191970" d="M78.4649,-212.878C95.6495,-210.512 115.1685,-207.8246 131.9138,-205.5191"/>
<polygon fill="#191970" stroke="#191970" points="77.5415,-209.4721 68.1124,-214.3034 78.4963,-216.4066 77.5415,-209.4721"/>
</g>
<!-- Node83 -->
<g id="node9" class="node">
<title>Node83</title>
<g id="a_node9"><a xlink:href="classGroupMonitor.html#a2c201ab6f3496fe546b464b34869c120" target="_top" xlink:title="return a vector of the timestamps for group data ">
<polygon fill="#ffffff" stroke="#000000" points="132,-152.5 132,-171.5 212,-171.5 212,-152.5 132,-152.5"/>
<text text-anchor="middle" x="172" y="-159.5" font-family="Helvetica,sans-Serif" font-size="10.00" fill="#000000">getTimeVector</text>
</a>
</g>
</g>
<!-- Node75&#45;&gt;Node83 -->
<g id="edge8" class="edge">
<title>Node75&#45;&gt;Node83</title>
<path fill="none" stroke="#191970" d="M58.2474,-204.0803C71.4287,-196.4251 88.221,-187.3922 104,-181 112.8615,-177.4101 122.6358,-174.244 131.9439,-171.5766"/>
<polygon fill="#191970" stroke="#191970" points="56.1703,-201.2428 49.3536,-209.3534 59.7404,-207.264 56.1703,-201.2428"/>
</g>
<!-- Node84 -->
<g id="node10" class="node">
<title>Node84</title>
<g id="a_node10"><a xlink:href="classGroupMonitor.html#ac67aace43cf118bfe525d93c48b0a563" target="_top" xlink:title="return a vector of the timestamps for peak values in group data ">
<polygon fill="#ffffff" stroke="#000000" points="120.5,-114.5 120.5,-133.5 223.5,-133.5 223.5,-114.5 120.5,-114.5"/>
<text text-anchor="middle" x="172" y="-121.5" font-family="Helvetica,sans-Serif" font-size="10.00" fill="#000000">getPeakTimeVector</text>
</a>
</g>
</g>
<!-- Node75&#45;&gt;Node84 -->
<g id="edge9" class="edge">
<title>Node75&#45;&gt;Node84</title>
<path fill="none" stroke="#191970" d="M46.146,-200.8274C58.6639,-183.484 79.7338,-157.86 104,-143 110.2721,-139.1592 117.3394,-136.075 124.4848,-133.6039"/>
<polygon fill="#191970" stroke="#191970" points="42.9545,-199.2851 40.1054,-209.4897 48.6963,-203.2891 42.9545,-199.2851"/>
</g>
<!-- Node85 -->
<g id="node11" class="node">
<title>Node85</title>
<g id="a_node11"><a xlink:href="classGroupMonitor.html#a0b4736eeef71ca99196f3f4376002a57" target="_top" xlink:title="return a vector of the timestamps for peak values in group data (sorted in decending order) ...">
<polygon fill="#ffffff" stroke="#000000" points="106.5,-76.5 106.5,-95.5 237.5,-95.5 237.5,-76.5 106.5,-76.5"/>
<text text-anchor="middle" x="172" y="-83.5" font-family="Helvetica,sans-Serif" font-size="10.00" fill="#000000">getSortedPeakTimeVector</text>
</a>
</g>
</g>
<!-- Node75&#45;&gt;Node85 -->
<g id="edge10" class="edge">
<title>Node75&#45;&gt;Node85</title>
<path fill="none" stroke="#191970" d="M40.6961,-199.7171C50.5486,-174.2049 71.391,-129.5993 104,-105 109.1864,-101.0876 115.1399,-97.9807 121.3206,-95.5136"/>
<polygon fill="#191970" stroke="#191970" points="37.3136,-198.7745 37.1442,-209.368 43.8828,-201.1923 37.3136,-198.7745"/>
</g>
<!-- Node86 -->
<g id="node12" class="node">
<title>Node86</title>
<g id="a_node12"><a xlink:href="classGroupMonitor.html#a968c489fb1424c09377ab40f33151dbe" target="_top" xlink:title="return a vector of peak values in group data ">
<polygon fill="#ffffff" stroke="#000000" points="119,-38.5 119,-57.5 225,-57.5 225,-38.5 119,-38.5"/>
<text text-anchor="middle" x="172" y="-45.5" font-family="Helvetica,sans-Serif" font-size="10.00" fill="#000000">getPeakValueVector</text>
</a>
</g>
</g>
<!-- Node75&#45;&gt;Node86 -->
<g id="edge11" class="edge">
<title>Node75&#45;&gt;Node86</title>
<path fill="none" stroke="#191970" d="M37.508,-199.4837C44.3685,-167.0725 62.6619,-102.2336 104,-67 108.5712,-63.1039 113.8837,-60.0031 119.4864,-57.536"/>
<polygon fill="#191970" stroke="#191970" points="34.0349,-199.0064 35.5391,-209.4939 40.9033,-200.3574 34.0349,-199.0064"/>
</g>
<!-- Node87 -->
<g id="node13" class="node">
<title>Node87</title>
<g id="a_node13"><a xlink:href="classGroupMonitor.html#a046178e9e1537ba897e738b6ccf5b501" target="_top" xlink:title="return a vector of peak values in group data (sorted in decending order) ">
<polygon fill="#ffffff" stroke="#000000" points="105,-.5 105,-19.5 239,-19.5 239,-.5 105,-.5"/>
<text text-anchor="middle" x="172" y="-7.5" font-family="Helvetica,sans-Serif" font-size="10.00" fill="#000000">getSortedPeakValueVector</text>
</a>
</g>
</g>
<!-- Node75&#45;&gt;Node87 -->
<g id="edge12" class="edge">
<title>Node75&#45;&gt;Node87</title>
<path fill="none" stroke="#191970" d="M35.5124,-199.0647C39.5302,-160.4572 53.8909,-75.2281 104,-29 108.2344,-25.0935 113.2061,-21.9811 118.5015,-19.5027"/>
<polygon fill="#191970" stroke="#191970" points="31.9877,-199.1793 34.5694,-209.4547 38.959,-199.8121 31.9877,-199.1793"/>
</g>
</g>
</svg>
