<?xml version="1.0" encoding="UTF-8" standalone="no"?>
<!DOCTYPE svg PUBLIC "-//W3C//DTD SVG 1.1//EN"
 "http://www.w3.org/Graphics/SVG/1.1/DTD/svg11.dtd">
<!-- Generated by graphviz version 2.40.1 (20161225.0304)
 -->
<!-- Title: connect Pages: 1 -->
<!--zoomable 265 -->
<svg id="main" version="1.1" xmlns="http://www.w3.org/2000/svg" xmlns:xlink="http://www.w3.org/1999/xlink" xml:space="preserve" onload="init(evt)">
<style type="text/css"><![CDATA[
.edge:hover path { stroke: red; }
.edge:hover polygon { stroke: red; fill: red; }
]]></style>
<script type="text/javascript"><![CDATA[
var edges = document.getElementsByTagName('g');
if (edges && edges.length) {
  for (var i=0;i<edges.length;i++) {
    if (edges[i].id.substr(0,4)=='edge') {
      edges[i].setAttribute('class','edge');
    }
  }
}
]]></script>
        <defs>
                <circle id="rim" cx="0" cy="0" r="7"/>
                <circle id="rim2" cx="0" cy="0" r="3.5"/>
                <g id="zoomPlus">
                        <use xlink:href="#rim" fill="#404040">
                                <set attributeName="fill" to="#808080" begin="zoomplus.mouseover" end="zoomplus.mouseout"/>
                        </use>
                        <path d="M-4,0h8M0,-4v8" fill="none" stroke="white" stroke-width="1.5" pointer-events="none"/>
                </g>
                <g id="zoomMin">
                        <use xlink:href="#rim" fill="#404040">
                                <set attributeName="fill" to="#808080" begin="zoomminus.mouseover" end="zoomminus.mouseout"/>
                        </use>
                        <path d="M-4,0h8" fill="none" stroke="white" stroke-width="1.5" pointer-events="none"/>
                </g>
                <g id="dirArrow">
                        <path fill="none" stroke="white" stroke-width="1.5" d="M0,-3.0v7 M-2.5,-0.5L0,-3.0L2.5,-0.5"/>
                </g>
               <g id="resetDef">
                       <use xlink:href="#rim2" fill="#404040">
                               <set attributeName="fill" to="#808080" begin="reset.mouseover" end="reset.mouseout"/>
                       </use>
               </g>
        </defs>

<script type="text/javascript">
var viewWidth = 750;
var viewHeight = 265;
var sectionId = 'dynsection-3';
</script>
<script xlink:href="svgpan.js"/>
<svg id="graph" class="graph">
<g id="viewport">
<title>connect</title>
<polygon fill="#ffffff" stroke="transparent" points="-4,4 -4,-260.5 746,-260.5 746,4 -4,4"/>
<!-- Node30 -->
<g id="node1" class="node">
<title>Node30</title>
<polygon fill="#bfbfbf" stroke="#000000" points="0,-149.5 0,-168.5 51,-168.5 51,-149.5 0,-149.5"/>
<text text-anchor="middle" x="25.5" y="-156.5" font-family="Helvetica,sans-Serif" font-size="10.00" fill="#000000">connect</text>
</g>
<!-- Node31 -->
<g id="node2" class="node">
<title>Node31</title>
<g id="a_node2"><a xlink:href="classCARLsim_1_1Impl.html#afed01f52e943df5e5476428c4fbef8f7" target="_top" xlink:title="CARLsim::Impl::connect">
<polygon fill="#ffffff" stroke="#000000" points="87,-149.5 87,-168.5 212,-168.5 212,-149.5 87,-149.5"/>
<text text-anchor="middle" x="149.5" y="-156.5" font-family="Helvetica,sans-Serif" font-size="10.00" fill="#000000">CARLsim::Impl::connect</text>
</a>
</g>
</g>
<!-- Node30&#45;&gt;Node31 -->
<g id="edge1" class="edge">
<title>Node30&#45;&gt;Node31</title>
<path fill="none" stroke="#191970" d="M51.1929,-159C58.7694,-159 67.4628,-159 76.4775,-159"/>
<polygon fill="#191970" stroke="#191970" points="76.7494,-162.5001 86.7493,-159 76.7493,-155.5001 76.7494,-162.5001"/>
</g>
<!-- Node32 -->
<g id="node3" class="node">
<title>Node32</title>
<g id="a_node3"><a xlink:href="classCARLsim_1_1Impl.html#ab0367f8ebd4019bf7d34ebddb1563fe7" target="_top" xlink:title="CARLsim::Impl::getGroupName">
<polygon fill="#ffffff" stroke="#000000" points="248,-149.5 248,-168.5 404,-168.5 404,-149.5 248,-149.5"/>
<text text-anchor="middle" x="326" y="-156.5" font-family="Helvetica,sans-Serif" font-size="10.00" fill="#000000">CARLsim::Impl::getGroupName</text>
</a>
</g>
</g>
<!-- Node31&#45;&gt;Node32 -->
<g id="edge2" class="edge">
<title>Node31&#45;&gt;Node32</title>
<path fill="none" stroke="#191970" d="M212.2243,-159C220.4854,-159 229.0731,-159 237.6619,-159"/>
<polygon fill="#191970" stroke="#191970" points="237.7254,-162.5001 247.7254,-159 237.7254,-155.5001 237.7254,-162.5001"/>
</g>
<!-- Node33 -->
<g id="node4" class="node">
<title>Node33</title>
<g id="a_node4"><a xlink:href="classUserErrors.html#a4bbedc6c0817d5e59e74e450bf00472c" target="_top" xlink:title="simple wrapper for assert statement ">
<polygon fill="#ffffff" stroke="#000000" points="460,-190.5 460,-209.5 576,-209.5 576,-190.5 460,-190.5"/>
<text text-anchor="middle" x="518" y="-197.5" font-family="Helvetica,sans-Serif" font-size="10.00" fill="#000000">UserErrors::assertTrue</text>
</a>
</g>
</g>
<!-- Node31&#45;&gt;Node33 -->
<g id="edge7" class="edge">
<title>Node31&#45;&gt;Node33</title>
<path fill="none" stroke="#191970" d="M193.4598,-168.5447C210.4334,-171.9496 230.0545,-175.5456 248,-178 316.2894,-187.34 394.8781,-193.1962 449.5931,-196.4964"/>
<polygon fill="#191970" stroke="#191970" points="449.6765,-200.0073 459.8654,-197.1029 450.0891,-193.0195 449.6765,-200.0073"/>
</g>
<!-- Node37 -->
<g id="node8" class="node">
<title>Node37</title>
<g id="a_node8"><a xlink:href="classCARLsim_1_1Impl.html#ae136e178382096490a2d34f78cd2afa2" target="_top" xlink:title="CARLsim::Impl::isPoisson\lGroup">
<polygon fill="#ffffff" stroke="#000000" points="259.5,-100 259.5,-130 392.5,-130 392.5,-100 259.5,-100"/>
<text text-anchor="start" x="267.5" y="-118" font-family="Helvetica,sans-Serif" font-size="10.00" fill="#000000">CARLsim::Impl::isPoisson</text>
<text text-anchor="middle" x="326" y="-107" font-family="Helvetica,sans-Serif" font-size="10.00" fill="#000000">Group</text>
</a>
</g>
</g>
<!-- Node31&#45;&gt;Node37 -->
<g id="edge8" class="edge">
<title>Node31&#45;&gt;Node37</title>
<path fill="none" stroke="#191970" d="M187.7979,-149.4527C207.6697,-144.4988 232.58,-138.2888 255.7592,-132.5105"/>
<polygon fill="#191970" stroke="#191970" points="256.7109,-135.8804 265.5673,-130.0654 255.0177,-129.0883 256.7109,-135.8804"/>
</g>
<!-- Node39 -->
<g id="node10" class="node">
<title>Node39</title>
<g id="a_node10"><a xlink:href="classCARLsim_1_1Impl.html#ad85b898d98abe24dcae4390f0fe61e84" target="_top" xlink:title="CARLsim::Impl::getGroupNum\lNeurons">
<polygon fill="#ffffff" stroke="#000000" points="250.5,-226 250.5,-256 401.5,-256 401.5,-226 250.5,-226"/>
<text text-anchor="start" x="258.5" y="-244" font-family="Helvetica,sans-Serif" font-size="10.00" fill="#000000">CARLsim::Impl::getGroupNum</text>
<text text-anchor="middle" x="326" y="-233" font-family="Helvetica,sans-Serif" font-size="10.00" fill="#000000">Neurons</text>
</a>
</g>
</g>
<!-- Node31&#45;&gt;Node39 -->
<g id="edge12" class="edge">
<title>Node31&#45;&gt;Node39</title>
<path fill="none" stroke="#191970" d="M166.277,-168.6414C185.6401,-179.5833 218.5988,-197.642 248,-211 256.4395,-214.8344 265.5248,-218.6234 274.4079,-222.151"/>
<polygon fill="#191970" stroke="#191970" points="273.3394,-225.491 283.9276,-225.8658 275.8841,-218.9699 273.3394,-225.491"/>
</g>
<!-- Node41 -->
<g id="node12" class="node">
<title>Node41</title>
<g id="a_node12"><a xlink:href="classSNN.html#a6eec2a657455176862ab71d4ee762e07" target="_top" xlink:title="make from each neuron in grpId1 to &#39;numPostSynapses&#39; neurons in grpId2 ">
<polygon fill="#ffffff" stroke="#000000" points="286.5,-50.5 286.5,-69.5 365.5,-69.5 365.5,-50.5 286.5,-50.5"/>
<text text-anchor="middle" x="326" y="-57.5" font-family="Helvetica,sans-Serif" font-size="10.00" fill="#000000">SNN::connect</text>
</a>
</g>
</g>
<!-- Node31&#45;&gt;Node41 -->
<g id="edge16" class="edge">
<title>Node31&#45;&gt;Node41</title>
<path fill="none" stroke="#191970" d="M161.3193,-149.2752C179.2137,-134.8966 214.6401,-107.7561 248,-90 260.0261,-83.599 273.7238,-77.8576 286.249,-73.1531"/>
<polygon fill="#191970" stroke="#191970" points="287.7875,-76.3178 295.9882,-69.6097 285.3941,-69.7397 287.7875,-76.3178"/>
</g>
<!-- Node32&#45;&gt;Node33 -->
<g id="edge3" class="edge">
<title>Node32&#45;&gt;Node33</title>
<path fill="none" stroke="#191970" d="M370.5313,-168.5093C398.1788,-174.4132 433.9124,-182.0438 463.2797,-188.3149"/>
<polygon fill="#191970" stroke="#191970" points="462.8676,-191.8058 473.3781,-190.4714 464.3295,-184.9601 462.8676,-191.8058"/>
</g>
<!-- Node34 -->
<g id="node5" class="node">
<title>Node34</title>
<g id="a_node5"><a xlink:href="classCARLsim_1_1Impl.html#a292bdee57fec7c77ec4c15ea3f508d60" target="_top" xlink:title="CARLsim::Impl::getNumGroups">
<polygon fill="#ffffff" stroke="#000000" points="440,-114.5 440,-133.5 596,-133.5 596,-114.5 440,-114.5"/>
<text text-anchor="middle" x="518" y="-121.5" font-family="Helvetica,sans-Serif" font-size="10.00" fill="#000000">CARLsim::Impl::getNumGroups</text>
</a>
</g>
</g>
<!-- Node32&#45;&gt;Node34 -->
<g id="edge4" class="edge">
<title>Node32&#45;&gt;Node34</title>
<path fill="none" stroke="#191970" d="M378.2112,-149.4823C402.1228,-145.1235 430.6471,-139.9237 455.6747,-135.3614"/>
<polygon fill="#191970" stroke="#191970" points="456.589,-138.7525 465.7992,-133.5158 455.3336,-131.866 456.589,-138.7525"/>
</g>
<!-- Node36 -->
<g id="node7" class="node">
<title>Node36</title>
<g id="a_node7"><a xlink:href="classSNN.html#ab0367f8ebd4019bf7d34ebddb1563fe7" target="_top" xlink:title="SNN::getGroupName">
<polygon fill="#ffffff" stroke="#000000" points="463,-152.5 463,-171.5 573,-171.5 573,-152.5 463,-152.5"/>
<text text-anchor="middle" x="518" y="-159.5" font-family="Helvetica,sans-Serif" font-size="10.00" fill="#000000">SNN::getGroupName</text>
</a>
</g>
</g>
<!-- Node32&#45;&gt;Node36 -->
<g id="edge6" class="edge">
<title>Node32&#45;&gt;Node36</title>
<path fill="none" stroke="#191970" d="M404.0938,-160.2202C420.2752,-160.473 437.1603,-160.7369 452.8212,-160.9816"/>
<polygon fill="#191970" stroke="#191970" points="452.8627,-164.4826 462.9162,-161.1393 452.9722,-157.4834 452.8627,-164.4826"/>
</g>
<!-- Node35 -->
<g id="node6" class="node">
<title>Node35</title>
<g id="a_node6"><a xlink:href="classSNN.html#a292bdee57fec7c77ec4c15ea3f508d60" target="_top" xlink:title="SNN::getNumGroups">
<polygon fill="#ffffff" stroke="#000000" points="632,-114.5 632,-133.5 742,-133.5 742,-114.5 632,-114.5"/>
<text text-anchor="middle" x="687" y="-121.5" font-family="Helvetica,sans-Serif" font-size="10.00" fill="#000000">SNN::getNumGroups</text>
</a>
</g>
</g>
<!-- Node34&#45;&gt;Node35 -->
<g id="edge5" class="edge">
<title>Node34&#45;&gt;Node35</title>
<path fill="none" stroke="#191970" d="M596.069,-124C604.6771,-124 613.3747,-124 621.8018,-124"/>
<polygon fill="#191970" stroke="#191970" points="621.9225,-127.5001 631.9225,-124 621.9225,-120.5001 621.9225,-127.5001"/>
</g>
<!-- Node37&#45;&gt;Node33 -->
<g id="edge9" class="edge">
<title>Node37&#45;&gt;Node33</title>
<path fill="none" stroke="#191970" d="M385.0903,-130.1105C391.718,-132.9068 398.1724,-136.1802 404,-140 424.2813,-153.2936 419.2582,-168.437 440,-181 443.6211,-183.1933 447.4811,-185.1335 451.4721,-186.85"/>
<polygon fill="#191970" stroke="#191970" points="450.381,-190.1795 460.9721,-190.4626 452.8691,-183.6366 450.381,-190.1795"/>
</g>
<!-- Node37&#45;&gt;Node34 -->
<g id="edge10" class="edge">
<title>Node37&#45;&gt;Node34</title>
<path fill="none" stroke="#191970" d="M392.6134,-118.1225C404.6637,-118.6874 417.3975,-119.2843 429.9489,-119.8726"/>
<polygon fill="#191970" stroke="#191970" points="429.8063,-123.3697 439.9592,-120.3418 430.1341,-116.3773 429.8063,-123.3697"/>
</g>
<!-- Node38 -->
<g id="node9" class="node">
<title>Node38</title>
<g id="a_node9"><a xlink:href="classSNN.html#a3764348d44236ad4932627cd4d199c31" target="_top" xlink:title="SNN::isPoissonGroup">
<polygon fill="#ffffff" stroke="#000000" points="461.5,-76.5 461.5,-95.5 574.5,-95.5 574.5,-76.5 461.5,-76.5"/>
<text text-anchor="middle" x="518" y="-83.5" font-family="Helvetica,sans-Serif" font-size="10.00" fill="#000000">SNN::isPoissonGroup</text>
</a>
</g>
</g>
<!-- Node37&#45;&gt;Node38 -->
<g id="edge11" class="edge">
<title>Node37&#45;&gt;Node38</title>
<path fill="none" stroke="#191970" d="M392.6134,-104.9386C411.6179,-102.0681 432.3227,-98.9408 451.3304,-96.0699"/>
<polygon fill="#191970" stroke="#191970" points="452.0296,-99.5041 461.3947,-94.5498 450.9841,-92.5826 452.0296,-99.5041"/>
</g>
<!-- Node39&#45;&gt;Node33 -->
<g id="edge13" class="edge">
<title>Node39&#45;&gt;Node33</title>
<path fill="none" stroke="#191970" d="M396.4035,-225.9659C418.4774,-221.2522 442.499,-216.1226 463.3172,-211.6771"/>
<polygon fill="#191970" stroke="#191970" points="464.2085,-215.0657 473.2571,-209.5545 462.7466,-208.2201 464.2085,-215.0657"/>
</g>
<!-- Node39&#45;&gt;Node34 -->
<g id="edge14" class="edge">
<title>Node39&#45;&gt;Node34</title>
<path fill="none" stroke="#191970" d="M345.6411,-225.9482C361.6652,-213.4769 384.723,-195.091 404,-178 420.6976,-163.1958 420.4715,-153.7988 440,-143 444.0193,-140.7774 448.2963,-138.8122 452.698,-137.075"/>
<polygon fill="#191970" stroke="#191970" points="454.2152,-140.2512 462.4818,-133.6244 451.887,-133.6497 454.2152,-140.2512"/>
</g>
<!-- Node40 -->
<g id="node11" class="node">
<title>Node40</title>
<g id="a_node11"><a xlink:href="classSNN.html#a11e19a0ccbeca92ba843a5933b3321e0" target="_top" xlink:title="SNN::getGroupNumNeurons">
<polygon fill="#ffffff" stroke="#000000" points="447,-231.5 447,-250.5 589,-250.5 589,-231.5 447,-231.5"/>
<text text-anchor="middle" x="518" y="-238.5" font-family="Helvetica,sans-Serif" font-size="10.00" fill="#000000">SNN::getGroupNumNeurons</text>
</a>
</g>
</g>
<!-- Node39&#45;&gt;Node40 -->
<g id="edge15" class="edge">
<title>Node39&#45;&gt;Node40</title>
<path fill="none" stroke="#191970" d="M401.6079,-241C413.1331,-241 425.0695,-241 436.7103,-241"/>
<polygon fill="#191970" stroke="#191970" points="436.8463,-244.5001 446.8463,-241 436.8462,-237.5001 436.8463,-244.5001"/>
</g>
<!-- Node41&#45;&gt;Node38 -->
<g id="edge17" class="edge">
<title>Node41&#45;&gt;Node38</title>
<path fill="none" stroke="#191970" d="M365.7825,-65.3872C390.3369,-68.7123 422.4672,-73.0633 450.8772,-76.9105"/>
<polygon fill="#191970" stroke="#191970" points="450.7755,-80.4285 461.1547,-78.3022 451.7149,-73.4919 450.7755,-80.4285"/>
</g>
<!-- Node42 -->
<g id="node13" class="node">
<title>Node42</title>
<g id="a_node13"><a xlink:href="classSNN.html#ac13b30c40669d3cb8264bd6e211b449d" target="_top" xlink:title="SNN::getGroupGrid3D">
<polygon fill="#ffffff" stroke="#000000" points="460.5,-.5 460.5,-19.5 575.5,-19.5 575.5,-.5 460.5,-.5"/>
<text text-anchor="middle" x="518" y="-7.5" font-family="Helvetica,sans-Serif" font-size="10.00" fill="#000000">SNN::getGroupGrid3D</text>
</a>
</g>
</g>
<!-- Node41&#45;&gt;Node42 -->
<g id="edge18" class="edge">
<title>Node41&#45;&gt;Node42</title>
<path fill="none" stroke="#191970" d="M360.1078,-50.4707C382.727,-44.214 413.0878,-35.9356 440,-29 449.0196,-26.6756 458.6454,-24.2699 467.9464,-21.9839"/>
<polygon fill="#191970" stroke="#191970" points="468.9839,-25.3334 477.8674,-19.5598 467.3223,-18.5335 468.9839,-25.3334"/>
</g>
<!-- Node43 -->
<g id="node14" class="node">
<title>Node43</title>
<g id="a_node14"><a xlink:href="classSNN.html#a477f99451786873b73e2623b6f89b766" target="_top" xlink:title="deallocates all dynamical structures and exits ">
<polygon fill="#ffffff" stroke="#000000" points="465,-38.5 465,-57.5 571,-57.5 571,-38.5 465,-38.5"/>
<text text-anchor="middle" x="518" y="-45.5" font-family="Helvetica,sans-Serif" font-size="10.00" fill="#000000">SNN::exitSimulation</text>
</a>
</g>
</g>
<!-- Node41&#45;&gt;Node43 -->
<g id="edge19" class="edge">
<title>Node41&#45;&gt;Node43</title>
<path fill="none" stroke="#191970" d="M365.7825,-57.5136C391.4271,-55.9108 425.3354,-53.7915 454.6385,-51.9601"/>
<polygon fill="#191970" stroke="#191970" points="455.028,-55.4427 464.7902,-51.3256 454.5913,-48.4563 455.028,-55.4427"/>
</g>
</g>
</svg>
        <g id="navigator" transform="translate(0 0)" fill="#404254">
                <rect fill="#f2f5e9" fill-opacity="0.5" stroke="#606060" stroke-width=".5" x="0" y="0" width="60" height="60"/>
                <use id="zoomplus" xlink:href="#zoomPlus" x="17" y="9" onmousedown="handleZoom(evt,'in')"/>
                <use id="zoomminus" xlink:href="#zoomMin" x="42" y="9" onmousedown="handleZoom(evt,'out')"/>
                <use id="reset" xlink:href="#resetDef" x="30" y="36" onmousedown="handleReset()"/>
                <g id="arrowUp" xlink:href="#dirArrow" transform="translate(30 24)" onmousedown="handlePan(0,-1)">
                  <use xlink:href="#rim" fill="#404040">
                        <set attributeName="fill" to="#808080" begin="arrowUp.mouseover" end="arrowUp.mouseout"/>
                  </use>
                  <path fill="none" stroke="white" stroke-width="1.5" d="M0,-3.0v7 M-2.5,-0.5L0,-3.0L2.5,-0.5"/>
                </g>
                <g id="arrowRight" xlink:href="#dirArrow" transform="rotate(90) translate(36 -43)" onmousedown="handlePan(1,0)">
                  <use xlink:href="#rim" fill="#404040">
                        <set attributeName="fill" to="#808080" begin="arrowRight.mouseover" end="arrowRight.mouseout"/>
                  </use>
                  <path fill="none" stroke="white" stroke-width="1.5" d="M0,-3.0v7 M-2.5,-0.5L0,-3.0L2.5,-0.5"/>
                </g>
                <g id="arrowDown" xlink:href="#dirArrow" transform="rotate(180) translate(-30 -48)" onmousedown="handlePan(0,1)">
                  <use xlink:href="#rim" fill="#404040">
                        <set attributeName="fill" to="#808080" begin="arrowDown.mouseover" end="arrowDown.mouseout"/>
                  </use>
                  <path fill="none" stroke="white" stroke-width="1.5" d="M0,-3.0v7 M-2.5,-0.5L0,-3.0L2.5,-0.5"/>
                </g>
                <g id="arrowLeft" xlink:href="#dirArrow" transform="rotate(270) translate(-36 17)" onmousedown="handlePan(-1,0)">
                  <use xlink:href="#rim" fill="#404040">
                        <set attributeName="fill" to="#808080" begin="arrowLeft.mouseover" end="arrowLeft.mouseout"/>
                  </use>
                  <path fill="none" stroke="white" stroke-width="1.5" d="M0,-3.0v7 M-2.5,-0.5L0,-3.0L2.5,-0.5"/>
                </g>
        </g>
        <svg viewBox="0 0 15 15" width="100%" height="30px" preserveAspectRatio="xMaxYMin meet">
         <g id="arrow_out" transform="scale(0.3 0.3)">
          <a xlink:href="classCARLsim_afe43f33ddd154aa799c2f1d1552bf988_cgraph_org.svg" target="_base">
           <rect id="button" ry="5" rx="5" y="6" x="6" height="38" width="38"
                fill="#f2f5e9" fill-opacity="0.5" stroke="#606060" stroke-width="1.0"/>
           <path id="arrow"
             d="M 11.500037,31.436501 C 11.940474,20.09759 22.043105,11.32322 32.158766,21.979434 L 37.068811,17.246167 C 37.068811,17.246167 37.088388,32 37.088388,32 L 22.160133,31.978069 C 22.160133,31.978069 26.997745,27.140456 26.997745,27.140456 C 18.528582,18.264221 13.291696,25.230495 11.500037,31.436501 z"
             style="fill:#404040;"/>
          </a>
         </g>
        </svg>
</svg>
