<?xml version="1.0" encoding="UTF-8" standalone="no"?>
<!DOCTYPE svg PUBLIC "-//W3C//DTD SVG 1.1//EN"
 "http://www.w3.org/Graphics/SVG/1.1/DTD/svg11.dtd">
<!-- Generated by graphviz version 2.40.1 (20161225.0304)
 -->
<!-- Title: getRecordingStartTime Pages: 1 -->
<svg width="511pt" height="116pt"
 viewBox="0.00 0.00 511.00 115.50" xmlns="http://www.w3.org/2000/svg" xmlns:xlink="http://www.w3.org/1999/xlink">
<g id="graph0" class="graph" transform="scale(1 1) rotate(0) translate(4 111.5)">
<title>getRecordingStartTime</title>
<polygon fill="#ffffff" stroke="transparent" points="-4,4 -4,-111.5 507,-111.5 507,4 -4,4"/>
<!-- Node37 -->
<g id="node1" class="node">
<title>Node37</title>
<polygon fill="#bfbfbf" stroke="#000000" points="0,-50 0,-69 117,-69 117,-50 0,-50"/>
<text text-anchor="middle" x="58.5" y="-57" font-family="Helvetica,sans-Serif" font-size="10.00" fill="#000000">getRecordingStartTime</text>
</g>
<!-- Node38 -->
<g id="node2" class="node">
<title>Node38</title>
<g id="a_node2"><a xlink:href="classUserErrors.html#a4bbedc6c0817d5e59e74e450bf00472c" target="_top" xlink:title="simple wrapper for assert statement ">
<polygon fill="#ffffff" stroke="#000000" points="175,-88 175,-107 291,-107 291,-88 175,-88"/>
<text text-anchor="middle" x="233" y="-95" font-family="Helvetica,sans-Serif" font-size="10.00" fill="#000000">UserErrors::assertTrue</text>
</a>
</g>
</g>
<!-- Node37&#45;&gt;Node38 -->
<g id="edge1" class="edge">
<title>Node37&#45;&gt;Node38</title>
<path fill="none" stroke="#191970" d="M102.5337,-69.089C125.8721,-74.1713 154.7296,-80.4554 179.3658,-85.8203"/>
<polygon fill="#191970" stroke="#191970" points="178.7672,-89.2719 189.2829,-87.9799 180.2567,-82.4322 178.7672,-89.2719"/>
</g>
<!-- Node39 -->
<g id="node3" class="node">
<title>Node39</title>
<g id="a_node3"><a xlink:href="classGroupMonitor.html#a3a3ffdb35b09328d22e5d72503ed1f55" target="_top" xlink:title="Recording status (true=recording, false=not recording) ">
<polygon fill="#ffffff" stroke="#000000" points="199,-50 199,-69 267,-69 267,-50 199,-50"/>
<text text-anchor="middle" x="233" y="-57" font-family="Helvetica,sans-Serif" font-size="10.00" fill="#000000">isRecording</text>
</a>
</g>
</g>
<!-- Node37&#45;&gt;Node39 -->
<g id="edge2" class="edge">
<title>Node37&#45;&gt;Node39</title>
<path fill="none" stroke="#191970" d="M117.0914,-59.5C140.4907,-59.5 166.9836,-59.5 188.729,-59.5"/>
<polygon fill="#191970" stroke="#191970" points="188.9883,-63.0001 198.9882,-59.5 188.9882,-56.0001 188.9883,-63.0001"/>
</g>
<!-- Node41 -->
<g id="node5" class="node">
<title>Node41</title>
<g id="a_node5"><a xlink:href="classGroupMonitorCore.html#a2e2b6c27b006ddd754a7d6de56130d25" target="_top" xlink:title="retunrs the timestamp of the first startRecording in ms ">
<polygon fill="#ffffff" stroke="#000000" points="153,-.5 153,-30.5 313,-30.5 313,-.5 153,-.5"/>
<text text-anchor="start" x="161" y="-18.5" font-family="Helvetica,sans-Serif" font-size="10.00" fill="#000000">GroupMonitorCore::getRecording</text>
<text text-anchor="middle" x="233" y="-7.5" font-family="Helvetica,sans-Serif" font-size="10.00" fill="#000000">StartTime</text>
</a>
</g>
</g>
<!-- Node37&#45;&gt;Node41 -->
<g id="edge4" class="edge">
<title>Node37&#45;&gt;Node41</title>
<path fill="none" stroke="#191970" d="M96.3639,-49.9527C116.0105,-44.9988 140.6386,-38.7888 163.5551,-33.0105"/>
<polygon fill="#191970" stroke="#191970" points="164.4114,-36.4042 173.2521,-30.5654 162.6999,-29.6166 164.4114,-36.4042"/>
</g>
<!-- Node40 -->
<g id="node4" class="node">
<title>Node40</title>
<g id="a_node4"><a xlink:href="classGroupMonitorCore.html#a3a3ffdb35b09328d22e5d72503ed1f55" target="_top" xlink:title="returns recording status ">
<polygon fill="#ffffff" stroke="#000000" points="349,-50 349,-69 503,-69 503,-50 349,-50"/>
<text text-anchor="middle" x="426" y="-57" font-family="Helvetica,sans-Serif" font-size="10.00" fill="#000000">GroupMonitorCore::isRecording</text>
</a>
</g>
</g>
<!-- Node39&#45;&gt;Node40 -->
<g id="edge3" class="edge">
<title>Node39&#45;&gt;Node40</title>
<path fill="none" stroke="#191970" d="M267.0603,-59.5C287.0269,-59.5 313.2435,-59.5 338.6126,-59.5"/>
<polygon fill="#191970" stroke="#191970" points="338.6539,-63.0001 348.6539,-59.5 338.6538,-56.0001 338.6539,-63.0001"/>
</g>
</g>
</svg>
