<?xml version="1.0" encoding="UTF-8" standalone="no"?>
<!DOCTYPE svg PUBLIC "-//W3C//DTD SVG 1.1//EN"
 "http://www.w3.org/Graphics/SVG/1.1/DTD/svg11.dtd">
<!-- Generated by graphviz version 2.40.1 (20161225.0304)
 -->
<!-- Title: getNumSilentNeurons Pages: 1 -->
<!--zoomable 474 -->
<svg id="main" version="1.1" xmlns="http://www.w3.org/2000/svg" xmlns:xlink="http://www.w3.org/1999/xlink" xml:space="preserve" onload="init(evt)">
<style type="text/css"><![CDATA[
.edge:hover path { stroke: red; }
.edge:hover polygon { stroke: red; fill: red; }
]]></style>
<script type="text/javascript"><![CDATA[
var edges = document.getElementsByTagName('g');
if (edges && edges.length) {
  for (var i=0;i<edges.length;i++) {
    if (edges[i].id.substr(0,4)=='edge') {
      edges[i].setAttribute('class','edge');
    }
  }
}
]]></script>
        <defs>
                <circle id="rim" cx="0" cy="0" r="7"/>
                <circle id="rim2" cx="0" cy="0" r="3.5"/>
                <g id="zoomPlus">
                        <use xlink:href="#rim" fill="#404040">
                                <set attributeName="fill" to="#808080" begin="zoomplus.mouseover" end="zoomplus.mouseout"/>
                        </use>
                        <path d="M-4,0h8M0,-4v8" fill="none" stroke="white" stroke-width="1.5" pointer-events="none"/>
                </g>
                <g id="zoomMin">
                        <use xlink:href="#rim" fill="#404040">
                                <set attributeName="fill" to="#808080" begin="zoomminus.mouseover" end="zoomminus.mouseout"/>
                        </use>
                        <path d="M-4,0h8" fill="none" stroke="white" stroke-width="1.5" pointer-events="none"/>
                </g>
                <g id="dirArrow">
                        <path fill="none" stroke="white" stroke-width="1.5" d="M0,-3.0v7 M-2.5,-0.5L0,-3.0L2.5,-0.5"/>
                </g>
               <g id="resetDef">
                       <use xlink:href="#rim2" fill="#404040">
                               <set attributeName="fill" to="#808080" begin="reset.mouseover" end="reset.mouseout"/>
                       </use>
               </g>
        </defs>

<script type="text/javascript">
var viewWidth = 1215;
var viewHeight = 474;
var sectionId = 'dynsection-23';
</script>
<script xlink:href="svgpan.js"/>
<svg id="graph" class="graph">
<g id="viewport">
<title>getNumSilentNeurons</title>
<polygon fill="#ffffff" stroke="transparent" points="-4,4 -4,-470 1211,-470 1211,4 -4,4"/>
<!-- Node521 -->
<g id="node1" class="node">
<title>Node521</title>
<polygon fill="#bfbfbf" stroke="#000000" points="0,-133.5 0,-152.5 113,-152.5 113,-133.5 0,-133.5"/>
<text text-anchor="middle" x="56.5" y="-140.5" font-family="Helvetica,sans-Serif" font-size="10.00" fill="#000000">getNumSilentNeurons</text>
</g>
<!-- Node522 -->
<g id="node2" class="node">
<title>Node522</title>
<g id="a_node2"><a xlink:href="classSpikeMonitorCore.html#a3a3ffdb35b09328d22e5d72503ed1f55" target="_top" xlink:title="returns recording status ">
<polygon fill="#ffffff" stroke="#000000" points="338,-133.5 338,-152.5 406,-152.5 406,-133.5 338,-133.5"/>
<text text-anchor="middle" x="372" y="-140.5" font-family="Helvetica,sans-Serif" font-size="10.00" fill="#000000">isRecording</text>
</a>
</g>
</g>
<!-- Node521&#45;&gt;Node522 -->
<g id="edge1" class="edge">
<title>Node521&#45;&gt;Node522</title>
<path fill="none" stroke="#191970" d="M113.2695,-143C174.6038,-143 271.0734,-143 327.2648,-143"/>
<polygon fill="#191970" stroke="#191970" points="327.6072,-146.5001 337.6071,-143 327.6071,-139.5001 327.6072,-146.5001"/>
</g>
<!-- Node535 -->
<g id="node15" class="node">
<title>Node535</title>
<g id="a_node15"><a xlink:href="classSpikeMonitorCore.html#a81857cacf011acddd1791775c34ae4fb" target="_top" xlink:title="returns number of neurons whose firing rate was in [min,max] during recording ">
<polygon fill="#ffffff" stroke="#000000" points="149,-114.5 149,-133.5 302,-133.5 302,-114.5 149,-114.5"/>
<text text-anchor="middle" x="225.5" y="-121.5" font-family="Helvetica,sans-Serif" font-size="10.00" fill="#000000">getNumNeuronsWithFiringRate</text>
</a>
</g>
</g>
<!-- Node521&#45;&gt;Node535 -->
<g id="edge28" class="edge">
<title>Node521&#45;&gt;Node535</title>
<path fill="none" stroke="#191970" d="M113.2447,-136.6204C121.4464,-135.6983 130.0405,-134.7321 138.6671,-133.7623"/>
<polygon fill="#191970" stroke="#191970" points="139.241,-137.2199 148.7873,-132.6245 138.4588,-130.2637 139.241,-137.2199"/>
</g>
<!-- Node523 -->
<g id="node3" class="node">
<title>Node523</title>
<g id="a_node3"><a xlink:href="classSpikeMonitorCore.html#af0ba89c38f6852cdf9d914687ad6a445" target="_top" xlink:title="prints the AER vector in human&#45;readable format ">
<polygon fill="#ffffff" stroke="#000000" points="454,-228.5 454,-247.5 489,-247.5 489,-228.5 454,-228.5"/>
<text text-anchor="middle" x="471.5" y="-235.5" font-family="Helvetica,sans-Serif" font-size="10.00" fill="#000000">print</text>
</a>
</g>
</g>
<!-- Node522&#45;&gt;Node523 -->
<g id="edge2" class="edge">
<title>Node522&#45;&gt;Node523</title>
<path fill="none" stroke="#191970" d="M387.5469,-152.7813C407.0505,-169.0506 440.1469,-200.7571 458.4158,-220.7655"/>
<polygon fill="#191970" stroke="#191970" points="455.8131,-223.1059 465.0482,-228.2986 461.0669,-218.4802 455.8131,-223.1059"/>
</g>
<!-- Node534 -->
<g id="node14" class="node">
<title>Node534</title>
<g id="a_node14"><a xlink:href="classSpikeMonitorCore.html#a6e116c2994e0449c41e56d03370fa54c" target="_top" xlink:title="inserts a (time,neurId) tupel into the 2D spike vector ">
<polygon fill="#ffffff" stroke="#000000" points="442,-.5 442,-19.5 501,-19.5 501,-.5 442,-.5"/>
<text text-anchor="middle" x="471.5" y="-7.5" font-family="Helvetica,sans-Serif" font-size="10.00" fill="#000000">pushAER</text>
</a>
</g>
</g>
<!-- Node522&#45;&gt;Node534 -->
<g id="edge25" class="edge">
<title>Node522&#45;&gt;Node534</title>
<path fill="none" stroke="#191970" d="M374.7971,-133.3991C382.7959,-112.856 407.0687,-66.6556 440.5725,-27.3006"/>
<polygon fill="#191970" stroke="#191970" points="443.4268,-29.3544 447.3942,-19.5305 438.1664,-24.7361 443.4268,-29.3544"/>
</g>
<!-- Node523&#45;&gt;Node522 -->
<g id="edge3" class="edge">
<title>Node523&#45;&gt;Node522</title>
<path fill="none" stroke="#191970" d="M456.2662,-228.4796C436.8499,-212.3273 403.6032,-180.496 385.2101,-160.3722"/>
<polygon fill="#191970" stroke="#191970" points="387.7668,-157.9797 378.5285,-152.7928 382.5158,-162.6087 387.7668,-157.9797"/>
</g>
<!-- Node524 -->
<g id="node4" class="node">
<title>Node524</title>
<g id="a_node4"><a xlink:href="classSNN.html#a5fd2b156623d78138bcb44167eabab78" target="_top" xlink:title="SNN::getSimTime">
<polygon fill="#ffffff" stroke="#000000" points="543.5,-304.5 543.5,-323.5 640.5,-323.5 640.5,-304.5 543.5,-304.5"/>
<text text-anchor="middle" x="592" y="-311.5" font-family="Helvetica,sans-Serif" font-size="10.00" fill="#000000">SNN::getSimTime</text>
</a>
</g>
</g>
<!-- Node523&#45;&gt;Node524 -->
<g id="edge4" class="edge">
<title>Node523&#45;&gt;Node524</title>
<path fill="none" stroke="#191970" d="M480.367,-247.756C492.195,-260.2545 514.2947,-281.8677 537,-295 540.4912,-297.0192 544.231,-298.8707 548.057,-300.5577"/>
<polygon fill="#191970" stroke="#191970" points="547.0688,-303.9326 557.6527,-304.4141 549.6791,-297.4374 547.0688,-303.9326"/>
</g>
<!-- Node525 -->
<g id="node5" class="node">
<title>Node525</title>
<g id="a_node5"><a xlink:href="classSNN.html#ab0367f8ebd4019bf7d34ebddb1563fe7" target="_top" xlink:title="SNN::getGroupName">
<polygon fill="#ffffff" stroke="#000000" points="537,-266.5 537,-285.5 647,-285.5 647,-266.5 537,-266.5"/>
<text text-anchor="middle" x="592" y="-273.5" font-family="Helvetica,sans-Serif" font-size="10.00" fill="#000000">SNN::getGroupName</text>
</a>
</g>
</g>
<!-- Node523&#45;&gt;Node525 -->
<g id="edge5" class="edge">
<title>Node523&#45;&gt;Node525</title>
<path fill="none" stroke="#191970" d="M489.0217,-243.5255C505.4759,-248.7144 530.6898,-256.6657 552.0494,-263.4015"/>
<polygon fill="#191970" stroke="#191970" points="551.2678,-266.8249 561.8575,-266.4945 553.3732,-260.1489 551.2678,-266.8249"/>
</g>
<!-- Node526 -->
<g id="node6" class="node">
<title>Node526</title>
<g id="a_node6"><a xlink:href="classSpikeMonitorCore.html#af6c333e6cefff92d0e354eca70625cdc" target="_top" xlink:title="returns the total number of recorded spikes in the group ">
<polygon fill="#ffffff" stroke="#000000" points="860,-209.5 860,-228.5 958,-228.5 958,-209.5 860,-209.5"/>
<text text-anchor="middle" x="909" y="-216.5" font-family="Helvetica,sans-Serif" font-size="10.00" fill="#000000">getPopNumSpikes</text>
</a>
</g>
</g>
<!-- Node523&#45;&gt;Node526 -->
<g id="edge6" class="edge">
<title>Node523&#45;&gt;Node526</title>
<path fill="none" stroke="#191970" d="M489.1924,-237.2316C549.5457,-234.6106 749.1498,-225.9421 849.8305,-221.5696"/>
<polygon fill="#191970" stroke="#191970" points="850.0052,-225.0655 859.8439,-221.1348 849.7015,-218.072 850.0052,-225.0655"/>
</g>
<!-- Node529 -->
<g id="node9" class="node">
<title>Node529</title>
<g id="a_node9"><a xlink:href="classSpikeMonitorCore.html#a9cf20c30ff0efdbc5e3c5194648a7fb3" target="_top" xlink:title="returns the total recorded time in ms ">
<polygon fill="#ffffff" stroke="#000000" points="850,-342.5 850,-361.5 968,-361.5 968,-342.5 850,-342.5"/>
<text text-anchor="middle" x="909" y="-349.5" font-family="Helvetica,sans-Serif" font-size="10.00" fill="#000000">getRecordingTotalTime</text>
</a>
</g>
</g>
<!-- Node523&#45;&gt;Node529 -->
<g id="edge11" class="edge">
<title>Node523&#45;&gt;Node529</title>
<path fill="none" stroke="#191970" d="M474.8424,-247.747C482.3281,-267.8768 502.5393,-313.7648 537,-333 587.1402,-360.9872 746.7383,-359.2875 839.7979,-355.621"/>
<polygon fill="#191970" stroke="#191970" points="840.1264,-359.1105 849.9738,-355.2018 839.8382,-352.1164 840.1264,-359.1105"/>
</g>
<!-- Node530 -->
<g id="node10" class="node">
<title>Node530</title>
<g id="a_node10"><a xlink:href="classSpikeMonitorCore.html#ae62d623e8edfc6b05309256c1d825bbd" target="_top" xlink:title="returns the recorded mean firing rate of the group ">
<polygon fill="#ffffff" stroke="#000000" points="690.5,-190.5 690.5,-209.5 806.5,-209.5 806.5,-190.5 690.5,-190.5"/>
<text text-anchor="middle" x="748.5" y="-197.5" font-family="Helvetica,sans-Serif" font-size="10.00" fill="#000000">getPopMeanFiringRate</text>
</a>
</g>
</g>
<!-- Node523&#45;&gt;Node530 -->
<g id="edge12" class="edge">
<title>Node523&#45;&gt;Node530</title>
<path fill="none" stroke="#191970" d="M489.2033,-233.7262C502.3328,-230.6763 520.7033,-226.6598 537,-224 584.6766,-216.2188 638.8103,-210.1264 680.3753,-206.0269"/>
<polygon fill="#191970" stroke="#191970" points="680.7752,-209.5047 690.3897,-205.0537 680.0981,-202.5375 680.7752,-209.5047"/>
</g>
<!-- Node531 -->
<g id="node11" class="node">
<title>Node531</title>
<g id="a_node11"><a xlink:href="classSpikeMonitorCore.html#ad0c4b32bb5cc0c7a8d95ed6023a2695f" target="_top" xlink:title="computes the standard deviation of firing rates in the group ">
<polygon fill="#ffffff" stroke="#000000" points="538.5,-114.5 538.5,-133.5 645.5,-133.5 645.5,-114.5 538.5,-114.5"/>
<text text-anchor="middle" x="592" y="-121.5" font-family="Helvetica,sans-Serif" font-size="10.00" fill="#000000">getPopStdFiringRate</text>
</a>
</g>
</g>
<!-- Node523&#45;&gt;Node531 -->
<g id="edge16" class="edge">
<title>Node523&#45;&gt;Node531</title>
<path fill="none" stroke="#191970" d="M481.7738,-228.2804C502.3164,-208.8459 548.6741,-164.9888 574.2409,-140.8011"/>
<polygon fill="#191970" stroke="#191970" points="576.8933,-143.1099 581.7522,-133.695 572.0826,-138.0249 576.8933,-143.1099"/>
</g>
<!-- Node533 -->
<g id="node13" class="node">
<title>Node533</title>
<g id="a_node13"><a xlink:href="classSpikeMonitorCore.html#aed09edf4583ac05d42fccc7e3556e3c5" target="_top" xlink:title="returns the recorded mean firing rate for a specific neuron ">
<polygon fill="#ffffff" stroke="#000000" points="683,-380.5 683,-399.5 814,-399.5 814,-380.5 683,-380.5"/>
<text text-anchor="middle" x="748.5" y="-387.5" font-family="Helvetica,sans-Serif" font-size="10.00" fill="#000000">getNeuronMeanFiringRate</text>
</a>
</g>
</g>
<!-- Node523&#45;&gt;Node533 -->
<g id="edge21" class="edge">
<title>Node523&#45;&gt;Node533</title>
<path fill="none" stroke="#191970" d="M473.2529,-247.7487C478.2324,-272.3164 494.9214,-336.8773 537,-366 576.1025,-393.0629 629.335,-398.9826 672.6116,-398.1771"/>
<polygon fill="#191970" stroke="#191970" points="672.9287,-401.669 682.8156,-397.8611 672.712,-394.6724 672.9287,-401.669"/>
</g>
<!-- Node526&#45;&gt;Node522 -->
<g id="edge7" class="edge">
<title>Node526&#45;&gt;Node522</title>
<path fill="none" stroke="#191970" d="M905.6313,-209.2015C896.1067,-183.2475 866.2277,-112.8773 814,-86 666.7569,-10.2261 600.6846,-59.6562 442,-107 425.6666,-111.8731 408.6326,-120.5433 395.4577,-128.1538"/>
<polygon fill="#191970" stroke="#191970" points="393.4013,-125.3053 386.6117,-133.4387 396.9914,-131.3146 393.4013,-125.3053"/>
</g>
<!-- Node527 -->
<g id="node7" class="node">
<title>Node527</title>
<g id="a_node7"><a xlink:href="classSpikeMonitorCore.html#a005a2f884f6260054483d4fa6ed6ddbb" target="_top" xlink:title="returns the number of recorded spikes of a specific neuron ">
<polygon fill="#ffffff" stroke="#000000" points="1004,-285.5 1004,-304.5 1117,-304.5 1117,-285.5 1004,-285.5"/>
<text text-anchor="middle" x="1060.5" y="-292.5" font-family="Helvetica,sans-Serif" font-size="10.00" fill="#000000">getNeuronNumSpikes</text>
</a>
</g>
</g>
<!-- Node526&#45;&gt;Node527 -->
<g id="edge8" class="edge">
<title>Node526&#45;&gt;Node527</title>
<path fill="none" stroke="#191970" d="M928.1876,-228.6255C954.4834,-241.8168 1001.907,-265.6068 1032.2612,-280.834"/>
<polygon fill="#191970" stroke="#191970" points="1030.9604,-284.0971 1041.4682,-285.4527 1034.0992,-277.8403 1030.9604,-284.0971"/>
</g>
<!-- Node527&#45;&gt;Node522 -->
<g id="edge9" class="edge">
<title>Node527&#45;&gt;Node522</title>
<path fill="none" stroke="#191970" d="M1054.313,-304.5997C1040.9655,-324.557 1007.4608,-370.7623 968,-396 881.7375,-451.1704 850.8962,-466 748.5,-466 592,-466 592,-466 592,-466 444.4998,-466 388.8623,-233.0667 375.4369,-162.8182"/>
<polygon fill="#191970" stroke="#191970" points="378.8221,-161.873 373.5786,-152.6667 371.9365,-163.1336 378.8221,-161.873"/>
</g>
<!-- Node528 -->
<g id="node8" class="node">
<title>Node528</title>
<g id="a_node8"><a xlink:href="classSpikeMonitorCore.html#abe76071e1ac3632d55f2455b239b3d12" target="_top" xlink:title="returns recording mode ">
<polygon fill="#ffffff" stroke="#000000" points="1153,-114.5 1153,-133.5 1207,-133.5 1207,-114.5 1153,-114.5"/>
<text text-anchor="middle" x="1180" y="-121.5" font-family="Helvetica,sans-Serif" font-size="10.00" fill="#000000">getMode</text>
</a>
</g>
</g>
<!-- Node527&#45;&gt;Node528 -->
<g id="edge10" class="edge">
<title>Node527&#45;&gt;Node528</title>
<path fill="none" stroke="#191970" d="M1067.2672,-285.3163C1086.5751,-257.6874 1142.1527,-178.1581 1167.3325,-142.1268"/>
<polygon fill="#191970" stroke="#191970" points="1170.4477,-143.7792 1173.307,-133.5774 1164.7099,-139.7694 1170.4477,-143.7792"/>
</g>
<!-- Node530&#45;&gt;Node522 -->
<g id="edge13" class="edge">
<title>Node530&#45;&gt;Node522</title>
<path fill="none" stroke="#191970" d="M690.452,-191.2119C614.7774,-179.7551 484.0803,-159.9683 416.0427,-149.6678"/>
<polygon fill="#191970" stroke="#191970" points="416.4872,-146.1953 406.0759,-148.1589 415.4393,-153.1164 416.4872,-146.1953"/>
</g>
<!-- Node530&#45;&gt;Node526 -->
<g id="edge14" class="edge">
<title>Node530&#45;&gt;Node526</title>
<path fill="none" stroke="#191970" d="M806.8982,-206.9132C820.8904,-208.5696 835.842,-210.3395 849.8671,-211.9998"/>
<polygon fill="#191970" stroke="#191970" points="849.5468,-215.4863 859.8889,-213.1862 850.3698,-208.5348 849.5468,-215.4863"/>
</g>
<!-- Node530&#45;&gt;Node529 -->
<g id="edge15" class="edge">
<title>Node530&#45;&gt;Node529</title>
<path fill="none" stroke="#191970" d="M758.54,-209.5083C785.2244,-234.7795 858.1543,-303.8471 891.6995,-335.6157"/>
<polygon fill="#191970" stroke="#191970" points="889.2964,-338.1604 898.9638,-342.4953 894.1097,-333.0778 889.2964,-338.1604"/>
</g>
<!-- Node531&#45;&gt;Node522 -->
<g id="edge17" class="edge">
<title>Node531&#45;&gt;Node522</title>
<path fill="none" stroke="#191970" d="M538.1819,-128.6479C500.7695,-131.879 451.5047,-136.1337 416.3486,-139.1699"/>
<polygon fill="#191970" stroke="#191970" points="416.0367,-135.6837 406.375,-140.0313 416.6391,-142.6577 416.0367,-135.6837"/>
</g>
<!-- Node531&#45;&gt;Node530 -->
<g id="edge18" class="edge">
<title>Node531&#45;&gt;Node530</title>
<path fill="none" stroke="#191970" d="M614.8882,-133.6112C624.8213,-137.8791 636.5495,-143.0487 647,-148 672.6413,-160.1484 701.3813,-174.9904 721.7158,-185.7036"/>
<polygon fill="#191970" stroke="#191970" points="720.2229,-188.8734 730.6989,-190.4558 723.4962,-182.6859 720.2229,-188.8734"/>
</g>
<!-- Node532 -->
<g id="node12" class="node">
<title>Node532</title>
<g id="a_node12"><a xlink:href="classSpikeMonitorCore.html#a0fc20fcc5876030d796debd148ae7cee" target="_top" xlink:title="returns a list of firing rates for all neurons in the group (sorted by neuron ID ascending) ...">
<polygon fill="#ffffff" stroke="#000000" points="702.5,-95.5 702.5,-114.5 794.5,-114.5 794.5,-95.5 702.5,-95.5"/>
<text text-anchor="middle" x="748.5" y="-102.5" font-family="Helvetica,sans-Serif" font-size="10.00" fill="#000000">getAllFiringRates</text>
</a>
</g>
</g>
<!-- Node531&#45;&gt;Node532 -->
<g id="edge19" class="edge">
<title>Node531&#45;&gt;Node532</title>
<path fill="none" stroke="#191970" d="M645.8584,-117.4613C660.801,-115.6472 677.0621,-113.673 692.1433,-111.842"/>
<polygon fill="#191970" stroke="#191970" points="692.8596,-115.2808 702.3649,-110.6011 692.0159,-108.3319 692.8596,-115.2808"/>
</g>
<!-- Node532&#45;&gt;Node522 -->
<g id="edge20" class="edge">
<title>Node532&#45;&gt;Node522</title>
<path fill="none" stroke="#191970" d="M702.1205,-101.9985C659.1557,-99.9282 593.5499,-98.5723 537,-105 494.2519,-109.8589 446.4515,-121.5826 413.3485,-130.7336"/>
<polygon fill="#191970" stroke="#191970" points="412.2498,-127.4066 403.5688,-133.4805 414.1427,-134.1458 412.2498,-127.4066"/>
</g>
<!-- Node533&#45;&gt;Node522 -->
<g id="edge22" class="edge">
<title>Node533&#45;&gt;Node522</title>
<path fill="none" stroke="#191970" d="M717.6783,-399.5814C674.5162,-411.1191 594.87,-425.4187 537,-395 441.6796,-344.896 392.9461,-212.3411 377.5282,-162.402"/>
<polygon fill="#191970" stroke="#191970" points="380.8057,-161.1446 374.596,-152.5603 374.0972,-163.1434 380.8057,-161.1446"/>
</g>
<!-- Node533&#45;&gt;Node527 -->
<g id="edge23" class="edge">
<title>Node533&#45;&gt;Node527</title>
<path fill="none" stroke="#191970" d="M814.2591,-394.311C859.1544,-394.8895 919.1198,-390.925 968,-371 999.7119,-358.0733 1028.9205,-330.3039 1045.7118,-312.1526"/>
<polygon fill="#191970" stroke="#191970" points="1048.4378,-314.3554 1052.5174,-304.5775 1043.2306,-309.6773 1048.4378,-314.3554"/>
</g>
<!-- Node533&#45;&gt;Node529 -->
<g id="edge24" class="edge">
<title>Node533&#45;&gt;Node529</title>
<path fill="none" stroke="#191970" d="M789.0009,-380.411C810.1806,-375.3965 836.3022,-369.2119 858.7604,-363.8947"/>
<polygon fill="#191970" stroke="#191970" points="859.8657,-367.2299 868.7903,-361.5201 858.2529,-360.4182 859.8657,-367.2299"/>
</g>
<!-- Node534&#45;&gt;Node522 -->
<g id="edge26" class="edge">
<title>Node534&#45;&gt;Node522</title>
<path fill="none" stroke="#191970" d="M466.5002,-19.5917C460.283,-26.6095 449.5676,-34.5329 442,-43 418.7362,-69.0291 397.948,-103.568 385.1866,-124.7204"/>
<polygon fill="#191970" stroke="#191970" points="382.104,-123.0537 379.908,-133.4184 388.0882,-126.6854 382.104,-123.0537"/>
</g>
<!-- Node534&#45;&gt;Node528 -->
<g id="edge27" class="edge">
<title>Node534&#45;&gt;Node528</title>
<path fill="none" stroke="#191970" d="M501.0166,-10C551.651,-10 658.3307,-10 748.5,-10 748.5,-10 748.5,-10 909,-10 1009.5183,-10 1115.7561,-77.4622 1159.4297,-108.5935"/>
<polygon fill="#191970" stroke="#191970" points="1157.3927,-111.4397 1167.5431,-114.4765 1161.5019,-105.7727 1157.3927,-111.4397"/>
</g>
<!-- Node535&#45;&gt;Node522 -->
<g id="edge29" class="edge">
<title>Node535&#45;&gt;Node522</title>
<path fill="none" stroke="#191970" d="M299.1792,-133.5557C309.0154,-134.8313 318.8413,-136.1057 327.9474,-137.2867"/>
<polygon fill="#191970" stroke="#191970" points="327.5176,-140.7602 337.8848,-138.5755 328.418,-133.8183 327.5176,-140.7602"/>
</g>
</g>
</svg>
        <g id="navigator" transform="translate(0 0)" fill="#404254">
                <rect fill="#f2f5e9" fill-opacity="0.5" stroke="#606060" stroke-width=".5" x="0" y="0" width="60" height="60"/>
                <use id="zoomplus" xlink:href="#zoomPlus" x="17" y="9" onmousedown="handleZoom(evt,'in')"/>
                <use id="zoomminus" xlink:href="#zoomMin" x="42" y="9" onmousedown="handleZoom(evt,'out')"/>
                <use id="reset" xlink:href="#resetDef" x="30" y="36" onmousedown="handleReset()"/>
                <g id="arrowUp" xlink:href="#dirArrow" transform="translate(30 24)" onmousedown="handlePan(0,-1)">
                  <use xlink:href="#rim" fill="#404040">
                        <set attributeName="fill" to="#808080" begin="arrowUp.mouseover" end="arrowUp.mouseout"/>
                  </use>
                  <path fill="none" stroke="white" stroke-width="1.5" d="M0,-3.0v7 M-2.5,-0.5L0,-3.0L2.5,-0.5"/>
                </g>
                <g id="arrowRight" xlink:href="#dirArrow" transform="rotate(90) translate(36 -43)" onmousedown="handlePan(1,0)">
                  <use xlink:href="#rim" fill="#404040">
                        <set attributeName="fill" to="#808080" begin="arrowRight.mouseover" end="arrowRight.mouseout"/>
                  </use>
                  <path fill="none" stroke="white" stroke-width="1.5" d="M0,-3.0v7 M-2.5,-0.5L0,-3.0L2.5,-0.5"/>
                </g>
                <g id="arrowDown" xlink:href="#dirArrow" transform="rotate(180) translate(-30 -48)" onmousedown="handlePan(0,1)">
                  <use xlink:href="#rim" fill="#404040">
                        <set attributeName="fill" to="#808080" begin="arrowDown.mouseover" end="arrowDown.mouseout"/>
                  </use>
                  <path fill="none" stroke="white" stroke-width="1.5" d="M0,-3.0v7 M-2.5,-0.5L0,-3.0L2.5,-0.5"/>
                </g>
                <g id="arrowLeft" xlink:href="#dirArrow" transform="rotate(270) translate(-36 17)" onmousedown="handlePan(-1,0)">
                  <use xlink:href="#rim" fill="#404040">
                        <set attributeName="fill" to="#808080" begin="arrowLeft.mouseover" end="arrowLeft.mouseout"/>
                  </use>
                  <path fill="none" stroke="white" stroke-width="1.5" d="M0,-3.0v7 M-2.5,-0.5L0,-3.0L2.5,-0.5"/>
                </g>
        </g>
        <svg viewBox="0 0 15 15" width="100%" height="30px" preserveAspectRatio="xMaxYMin meet">
         <g id="arrow_out" transform="scale(0.3 0.3)">
          <a xlink:href="classSpikeMonitorCore_a576be2fdd29d7b433d7c3645cb9f3b1f_cgraph_org.svg" target="_base">
           <rect id="button" ry="5" rx="5" y="6" x="6" height="38" width="38"
                fill="#f2f5e9" fill-opacity="0.5" stroke="#606060" stroke-width="1.0"/>
           <path id="arrow"
             d="M 11.500037,31.436501 C 11.940474,20.09759 22.043105,11.32322 32.158766,21.979434 L 37.068811,17.246167 C 37.068811,17.246167 37.088388,32 37.088388,32 L 22.160133,31.978069 C 22.160133,31.978069 26.997745,27.140456 26.997745,27.140456 C 18.528582,18.264221 13.291696,25.230495 11.500037,31.436501 z"
             style="fill:#404040;"/>
          </a>
         </g>
        </svg>
</svg>
