<?xml version="1.0" encoding="UTF-8" standalone="no"?>
<!DOCTYPE svg PUBLIC "-//W3C//DTD SVG 1.1//EN"
 "http://www.w3.org/Graphics/SVG/1.1/DTD/svg11.dtd">
<!-- Generated by graphviz version 2.40.1 (20161225.0304)
 -->
<!-- Title: getRatePtrCPU Pages: 1 -->
<svg width="374pt" height="39pt"
 viewBox="0.00 0.00 374.00 39.00" xmlns="http://www.w3.org/2000/svg" xmlns:xlink="http://www.w3.org/1999/xlink">
<g id="graph0" class="graph" transform="scale(1 1) rotate(0) translate(4 35)">
<title>getRatePtrCPU</title>
<polygon fill="#ffffff" stroke="transparent" points="-4,4 -4,-35 370,-35 370,4 -4,4"/>
<!-- Node16 -->
<g id="node1" class="node">
<title>Node16</title>
<polygon fill="#bfbfbf" stroke="#000000" points="0,-6 0,-25 86,-25 86,-6 0,-6"/>
<text text-anchor="middle" x="43" y="-13" font-family="Helvetica,sans-Serif" font-size="10.00" fill="#000000">getRatePtrCPU</text>
</g>
<!-- Node17 -->
<g id="node2" class="node">
<title>Node17</title>
<g id="a_node2"><a xlink:href="classPoissonRate_1_1Impl.html#a0c556a18de003bbbc945fd08f867b0c4" target="_top" xlink:title="PoissonRate::Impl::\lgetRatePtrCPU">
<polygon fill="#ffffff" stroke="#000000" points="122,-.5 122,-30.5 226,-30.5 226,-.5 122,-.5"/>
<text text-anchor="start" x="130" y="-18.5" font-family="Helvetica,sans-Serif" font-size="10.00" fill="#000000">PoissonRate::Impl::</text>
<text text-anchor="middle" x="174" y="-7.5" font-family="Helvetica,sans-Serif" font-size="10.00" fill="#000000">getRatePtrCPU</text>
</a>
</g>
</g>
<!-- Node16&#45;&gt;Node17 -->
<g id="edge1" class="edge">
<title>Node16&#45;&gt;Node17</title>
<path fill="none" stroke="#191970" d="M86.2574,-15.5C94.3993,-15.5 103.0616,-15.5 111.6515,-15.5"/>
<polygon fill="#191970" stroke="#191970" points="111.6665,-19.0001 121.6665,-15.5 111.6664,-12.0001 111.6665,-19.0001"/>
</g>
<!-- Node18 -->
<g id="node3" class="node">
<title>Node18</title>
<g id="a_node3"><a xlink:href="classPoissonRate_1_1Impl.html#a0bc9734220de46306a6db7b2b33f7902" target="_top" xlink:title="PoissonRate::Impl::\lisOnGPU">
<polygon fill="#ffffff" stroke="#000000" points="262,-.5 262,-30.5 366,-30.5 366,-.5 262,-.5"/>
<text text-anchor="start" x="270" y="-18.5" font-family="Helvetica,sans-Serif" font-size="10.00" fill="#000000">PoissonRate::Impl::</text>
<text text-anchor="middle" x="314" y="-7.5" font-family="Helvetica,sans-Serif" font-size="10.00" fill="#000000">isOnGPU</text>
</a>
</g>
</g>
<!-- Node17&#45;&gt;Node18 -->
<g id="edge2" class="edge">
<title>Node17&#45;&gt;Node18</title>
<path fill="none" stroke="#191970" d="M226.1308,-15.5C234.4213,-15.5 243.0702,-15.5 251.5685,-15.5"/>
<polygon fill="#191970" stroke="#191970" points="251.8257,-19.0001 261.8256,-15.5 251.8256,-12.0001 251.8257,-19.0001"/>
</g>
</g>
</svg>
