<?xml version="1.0" encoding="UTF-8" standalone="no"?>
<!DOCTYPE svg PUBLIC "-//W3C//DTD SVG 1.1//EN"
 "http://www.w3.org/Graphics/SVG/1.1/DTD/svg11.dtd">
<!-- Generated by graphviz version 2.40.1 (20161225.0304)
 -->
<!-- Title: getNeuronMeanFiringRate Pages: 1 -->
<!--zoomable 440 -->
<svg id="main" version="1.1" xmlns="http://www.w3.org/2000/svg" xmlns:xlink="http://www.w3.org/1999/xlink" xml:space="preserve" onload="init(evt)">
<style type="text/css"><![CDATA[
.edge:hover path { stroke: red; }
.edge:hover polygon { stroke: red; fill: red; }
]]></style>
<script type="text/javascript"><![CDATA[
var edges = document.getElementsByTagName('g');
if (edges && edges.length) {
  for (var i=0;i<edges.length;i++) {
    if (edges[i].id.substr(0,4)=='edge') {
      edges[i].setAttribute('class','edge');
    }
  }
}
]]></script>
        <defs>
                <circle id="rim" cx="0" cy="0" r="7"/>
                <circle id="rim2" cx="0" cy="0" r="3.5"/>
                <g id="zoomPlus">
                        <use xlink:href="#rim" fill="#404040">
                                <set attributeName="fill" to="#808080" begin="zoomplus.mouseover" end="zoomplus.mouseout"/>
                        </use>
                        <path d="M-4,0h8M0,-4v8" fill="none" stroke="white" stroke-width="1.5" pointer-events="none"/>
                </g>
                <g id="zoomMin">
                        <use xlink:href="#rim" fill="#404040">
                                <set attributeName="fill" to="#808080" begin="zoomminus.mouseover" end="zoomminus.mouseout"/>
                        </use>
                        <path d="M-4,0h8" fill="none" stroke="white" stroke-width="1.5" pointer-events="none"/>
                </g>
                <g id="dirArrow">
                        <path fill="none" stroke="white" stroke-width="1.5" d="M0,-3.0v7 M-2.5,-0.5L0,-3.0L2.5,-0.5"/>
                </g>
               <g id="resetDef">
                       <use xlink:href="#rim2" fill="#404040">
                               <set attributeName="fill" to="#808080" begin="reset.mouseover" end="reset.mouseout"/>
                       </use>
               </g>
        </defs>

<script type="text/javascript">
var viewWidth = 1029;
var viewHeight = 440;
var sectionId = 'dynsection-17';
</script>
<script xlink:href="svgpan.js"/>
<svg id="graph" class="graph">
<g id="viewport">
<title>getNeuronMeanFiringRate</title>
<polygon fill="#ffffff" stroke="transparent" points="-4,4 -4,-436.1425 1025,-436.1425 1025,4 -4,4"/>
<!-- Node342 -->
<g id="node1" class="node">
<title>Node342</title>
<polygon fill="#bfbfbf" stroke="#000000" points="0,-85.5 0,-104.5 131,-104.5 131,-85.5 0,-85.5"/>
<text text-anchor="middle" x="65.5" y="-92.5" font-family="Helvetica,sans-Serif" font-size="10.00" fill="#000000">getNeuronMeanFiringRate</text>
</g>
<!-- Node343 -->
<g id="node2" class="node">
<title>Node343</title>
<g id="a_node2"><a xlink:href="classSpikeMonitorCore.html#a3a3ffdb35b09328d22e5d72503ed1f55" target="_top" xlink:title="returns recording status ">
<polygon fill="#ffffff" stroke="#000000" points="167,-161.5 167,-180.5 235,-180.5 235,-161.5 167,-161.5"/>
<text text-anchor="middle" x="201" y="-168.5" font-family="Helvetica,sans-Serif" font-size="10.00" fill="#000000">isRecording</text>
</a>
</g>
</g>
<!-- Node342&#45;&gt;Node343 -->
<g id="edge1" class="edge">
<title>Node342&#45;&gt;Node343</title>
<path fill="none" stroke="#191970" d="M82.6612,-104.6255C105.9763,-117.7025 147.862,-141.1957 175.0349,-156.4366"/>
<polygon fill="#191970" stroke="#191970" points="173.5442,-159.6134 183.9782,-161.4527 176.9686,-153.5081 173.5442,-159.6134"/>
</g>
<!-- Node348 -->
<g id="node7" class="node">
<title>Node348</title>
<g id="a_node7"><a xlink:href="classSpikeMonitorCore.html#a005a2f884f6260054483d4fa6ed6ddbb" target="_top" xlink:title="returns the number of recorded spikes of a specific neuron ">
<polygon fill="#ffffff" stroke="#000000" points="818,-104.5 818,-123.5 931,-123.5 931,-104.5 818,-104.5"/>
<text text-anchor="middle" x="874.5" y="-111.5" font-family="Helvetica,sans-Serif" font-size="10.00" fill="#000000">getNeuronNumSpikes</text>
</a>
</g>
</g>
<!-- Node342&#45;&gt;Node348 -->
<g id="edge25" class="edge">
<title>Node342&#45;&gt;Node348</title>
<path fill="none" stroke="#191970" d="M78.7691,-85.3681C113.3916,-61.2163 210.0672,0 300.5,0 300.5,0 300.5,0 570,0 681.6286,0 802.4984,-68.0267 851.7204,-98.9816"/>
<polygon fill="#191970" stroke="#191970" points="850.0113,-102.0429 860.3229,-104.4765 853.7796,-96.1437 850.0113,-102.0429"/>
</g>
<!-- Node350 -->
<g id="node9" class="node">
<title>Node350</title>
<g id="a_node9"><a xlink:href="classSpikeMonitorCore.html#a9cf20c30ff0efdbc5e3c5194648a7fb3" target="_top" xlink:title="returns the total recorded time in ms ">
<polygon fill="#ffffff" stroke="#000000" points="664,-237.5 664,-256.5 782,-256.5 782,-237.5 664,-237.5"/>
<text text-anchor="middle" x="723" y="-244.5" font-family="Helvetica,sans-Serif" font-size="10.00" fill="#000000">getRecordingTotalTime</text>
</a>
</g>
</g>
<!-- Node342&#45;&gt;Node350 -->
<g id="edge26" class="edge">
<title>Node342&#45;&gt;Node350</title>
<path fill="none" stroke="#191970" d="M92.2711,-85.4065C140.155,-69.5244 243.5508,-41.0288 330,-57 469.4452,-82.762 504.943,-100.5329 628,-171 657.5641,-187.9295 687.5869,-213.6963 705.754,-230.4435"/>
<polygon fill="#191970" stroke="#191970" points="703.5315,-233.1574 713.2225,-237.4394 708.3169,-228.0486 703.5315,-233.1574"/>
</g>
<!-- Node344 -->
<g id="node3" class="node">
<title>Node344</title>
<g id="a_node3"><a xlink:href="classSpikeMonitorCore.html#af0ba89c38f6852cdf9d914687ad6a445" target="_top" xlink:title="prints the AER vector in human&#45;readable format ">
<polygon fill="#ffffff" stroke="#000000" points="283,-256.5 283,-275.5 318,-275.5 318,-256.5 283,-256.5"/>
<text text-anchor="middle" x="300.5" y="-263.5" font-family="Helvetica,sans-Serif" font-size="10.00" fill="#000000">print</text>
</a>
</g>
</g>
<!-- Node343&#45;&gt;Node344 -->
<g id="edge2" class="edge">
<title>Node343&#45;&gt;Node344</title>
<path fill="none" stroke="#191970" d="M216.3588,-180.5023C230.226,-193.3052 251.4018,-215.1867 271,-233 276.7118,-238.1915 283.3588,-243.6465 288.8958,-248.8988"/>
<polygon fill="#191970" stroke="#191970" points="286.5646,-251.5279 295.9756,-256.3946 291.6536,-246.7214 286.5646,-251.5279"/>
</g>
<!-- Node354 -->
<g id="node13" class="node">
<title>Node354</title>
<g id="a_node13"><a xlink:href="classSpikeMonitorCore.html#a6e116c2994e0449c41e56d03370fa54c" target="_top" xlink:title="inserts a (time,neurId) tupel into the 2D spike vector ">
<polygon fill="#ffffff" stroke="#000000" points="271,-66.5 271,-85.5 330,-85.5 330,-66.5 271,-66.5"/>
<text text-anchor="middle" x="300.5" y="-73.5" font-family="Helvetica,sans-Serif" font-size="10.00" fill="#000000">pushAER</text>
</a>
</g>
</g>
<!-- Node343&#45;&gt;Node354 -->
<g id="edge22" class="edge">
<title>Node343&#45;&gt;Node354</title>
<path fill="none" stroke="#191970" d="M205.576,-161.4163C215.6472,-146.4003 240.7606,-119.2135 269.6815,-92.4526"/>
<polygon fill="#191970" stroke="#191970" points="272.0878,-94.9951 277.1095,-85.6659 267.3661,-89.8273 272.0878,-94.9951"/>
</g>
<!-- Node344&#45;&gt;Node342 -->
<g id="edge21" class="edge">
<title>Node344&#45;&gt;Node342</title>
<path fill="none" stroke="#191970" d="M282.846,-257.6251C256.5079,-244.768 205.8645,-218.6312 167,-190 134.2084,-165.8426 100.5443,-132.2541 81.4066,-112.165"/>
<polygon fill="#191970" stroke="#191970" points="83.7689,-109.5683 74.3638,-104.6902 78.6741,-114.3686 83.7689,-109.5683"/>
</g>
<!-- Node344&#45;&gt;Node343 -->
<g id="edge3" class="edge">
<title>Node344&#45;&gt;Node343</title>
<path fill="none" stroke="#191970" d="M282.7634,-260.8599C278.8216,-257.8613 274.7132,-254.375 271,-251 248.966,-230.9728 224.938,-205.8032 211.544,-188.7138"/>
<polygon fill="#191970" stroke="#191970" points="214.315,-186.5739 205.576,-180.5837 208.6721,-190.7161 214.315,-186.5739"/>
</g>
<!-- Node345 -->
<g id="node4" class="node">
<title>Node345</title>
<g id="a_node4"><a xlink:href="classSNN.html#a5fd2b156623d78138bcb44167eabab78" target="_top" xlink:title="SNN::getSimTime">
<polygon fill="#ffffff" stroke="#000000" points="372.5,-370.5 372.5,-389.5 469.5,-389.5 469.5,-370.5 372.5,-370.5"/>
<text text-anchor="middle" x="421" y="-377.5" font-family="Helvetica,sans-Serif" font-size="10.00" fill="#000000">SNN::getSimTime</text>
</a>
</g>
</g>
<!-- Node344&#45;&gt;Node345 -->
<g id="edge4" class="edge">
<title>Node344&#45;&gt;Node345</title>
<path fill="none" stroke="#191970" d="M304.5869,-275.5848C313.1741,-294.6144 334.8986,-337.3617 366,-361 368.4544,-362.8654 371.1051,-364.5561 373.8705,-366.0871"/>
<polygon fill="#191970" stroke="#191970" points="372.462,-369.2932 382.9933,-370.4524 375.4835,-362.9788 372.462,-369.2932"/>
</g>
<!-- Node346 -->
<g id="node5" class="node">
<title>Node346</title>
<g id="a_node5"><a xlink:href="classSNN.html#ab0367f8ebd4019bf7d34ebddb1563fe7" target="_top" xlink:title="SNN::getGroupName">
<polygon fill="#ffffff" stroke="#000000" points="366,-332.5 366,-351.5 476,-351.5 476,-332.5 366,-332.5"/>
<text text-anchor="middle" x="421" y="-339.5" font-family="Helvetica,sans-Serif" font-size="10.00" fill="#000000">SNN::getGroupName</text>
</a>
</g>
</g>
<!-- Node344&#45;&gt;Node346 -->
<g id="edge5" class="edge">
<title>Node344&#45;&gt;Node346</title>
<path fill="none" stroke="#191970" d="M310.9871,-275.7544C323.4185,-286.9658 345.0937,-305.4332 366,-318 372.3229,-321.8007 379.3561,-325.3352 386.2229,-328.4598"/>
<polygon fill="#191970" stroke="#191970" points="384.835,-331.6728 395.4011,-332.4531 387.6278,-325.2541 384.835,-331.6728"/>
</g>
<!-- Node347 -->
<g id="node6" class="node">
<title>Node347</title>
<g id="a_node6"><a xlink:href="classSpikeMonitorCore.html#af6c333e6cefff92d0e354eca70625cdc" target="_top" xlink:title="returns the total number of recorded spikes in the group ">
<polygon fill="#ffffff" stroke="#000000" points="674,-341.5 674,-360.5 772,-360.5 772,-341.5 674,-341.5"/>
<text text-anchor="middle" x="723" y="-348.5" font-family="Helvetica,sans-Serif" font-size="10.00" fill="#000000">getPopNumSpikes</text>
</a>
</g>
</g>
<!-- Node344&#45;&gt;Node347 -->
<g id="edge6" class="edge">
<title>Node344&#45;&gt;Node347</title>
<path fill="none" stroke="#191970" d="M301.8085,-275.659C305.8573,-301.2664 320.7631,-370.8531 366,-399 473.3547,-465.7972 633.8157,-397.1442 696.5358,-365.3277"/>
<polygon fill="#191970" stroke="#191970" points="698.4675,-368.269 705.7396,-360.564 695.2498,-362.0523 698.4675,-368.269"/>
</g>
<!-- Node344&#45;&gt;Node350 -->
<g id="edge11" class="edge">
<title>Node344&#45;&gt;Node350</title>
<path fill="none" stroke="#191970" d="M318.2711,-267.7246C331.4343,-268.9123 349.8172,-270.3832 366,-271 482.3812,-275.4356 512.3055,-279.3802 628,-266 642.655,-264.3051 658.4198,-261.5413 672.8135,-258.6399"/>
<polygon fill="#191970" stroke="#191970" points="673.9396,-261.9806 683.0165,-256.5162 672.5131,-255.1275 673.9396,-261.9806"/>
</g>
<!-- Node351 -->
<g id="node10" class="node">
<title>Node351</title>
<g id="a_node10"><a xlink:href="classSpikeMonitorCore.html#ae62d623e8edfc6b05309256c1d825bbd" target="_top" xlink:title="returns the recorded mean firing rate of the group ">
<polygon fill="#ffffff" stroke="#000000" points="512,-237.5 512,-256.5 628,-256.5 628,-237.5 512,-237.5"/>
<text text-anchor="middle" x="570" y="-244.5" font-family="Helvetica,sans-Serif" font-size="10.00" fill="#000000">getPopMeanFiringRate</text>
</a>
</g>
</g>
<!-- Node344&#45;&gt;Node351 -->
<g id="edge12" class="edge">
<title>Node344&#45;&gt;Node351</title>
<path fill="none" stroke="#191970" d="M318.1826,-264.7534C354.7886,-262.1726 440.5635,-256.1254 501.8226,-251.8066"/>
<polygon fill="#191970" stroke="#191970" points="502.0838,-255.2969 511.8129,-251.1022 501.5915,-248.3143 502.0838,-255.2969"/>
</g>
<!-- Node352 -->
<g id="node11" class="node">
<title>Node352</title>
<g id="a_node11"><a xlink:href="classSpikeMonitorCore.html#ad0c4b32bb5cc0c7a8d95ed6023a2695f" target="_top" xlink:title="computes the standard deviation of firing rates in the group ">
<polygon fill="#ffffff" stroke="#000000" points="367.5,-180.5 367.5,-199.5 474.5,-199.5 474.5,-180.5 367.5,-180.5"/>
<text text-anchor="middle" x="421" y="-187.5" font-family="Helvetica,sans-Serif" font-size="10.00" fill="#000000">getPopStdFiringRate</text>
</a>
</g>
</g>
<!-- Node344&#45;&gt;Node352 -->
<g id="edge16" class="edge">
<title>Node344&#45;&gt;Node352</title>
<path fill="none" stroke="#191970" d="M315.7614,-256.3745C336.3144,-243.4117 373.0951,-220.2139 397.2732,-204.9646"/>
<polygon fill="#191970" stroke="#191970" points="399.2714,-207.8424 405.8625,-199.5473 395.5371,-201.9216 399.2714,-207.8424"/>
</g>
<!-- Node347&#45;&gt;Node343 -->
<g id="edge7" class="edge">
<title>Node347&#45;&gt;Node343</title>
<path fill="none" stroke="#191970" d="M714.5072,-360.7088C699.1974,-377.3977 665.0948,-410.9841 628,-424 606.7248,-431.4651 382.8374,-435.9935 366,-427 269.7548,-375.5916 221.4605,-240.7196 206.3498,-190.3459"/>
<polygon fill="#191970" stroke="#191970" points="209.6967,-189.3206 203.5536,-180.6886 202.9729,-191.2675 209.6967,-189.3206"/>
</g>
<!-- Node347&#45;&gt;Node348 -->
<g id="edge8" class="edge">
<title>Node347&#45;&gt;Node348</title>
<path fill="none" stroke="#191970" d="M730.0988,-341.1861C741.3825,-325.4961 763.9769,-293.7066 782,-266 812.7384,-218.7464 846.656,-161.6252 863.6013,-132.715"/>
<polygon fill="#191970" stroke="#191970" points="866.8296,-134.1276 868.8543,-123.728 860.7863,-130.5952 866.8296,-134.1276"/>
</g>
<!-- Node348&#45;&gt;Node343 -->
<g id="edge9" class="edge">
<title>Node348&#45;&gt;Node343</title>
<path fill="none" stroke="#191970" d="M817.8182,-114C756.6679,-114 656.4336,-114 570,-114 421,-114 421,-114 421,-114 351.7809,-114 274.1143,-140.7689 232.0857,-157.6175"/>
<polygon fill="#191970" stroke="#191970" points="230.6194,-154.4357 222.6874,-161.4595 233.2682,-160.9152 230.6194,-154.4357"/>
</g>
<!-- Node349 -->
<g id="node8" class="node">
<title>Node349</title>
<g id="a_node8"><a xlink:href="classSpikeMonitorCore.html#abe76071e1ac3632d55f2455b239b3d12" target="_top" xlink:title="returns recording mode ">
<polygon fill="#ffffff" stroke="#000000" points="967,-85.5 967,-104.5 1021,-104.5 1021,-85.5 967,-85.5"/>
<text text-anchor="middle" x="994" y="-92.5" font-family="Helvetica,sans-Serif" font-size="10.00" fill="#000000">getMode</text>
</a>
</g>
</g>
<!-- Node348&#45;&gt;Node349 -->
<g id="edge10" class="edge">
<title>Node348&#45;&gt;Node349</title>
<path fill="none" stroke="#191970" d="M931.1004,-105.0008C939.8383,-103.6115 948.6663,-102.2079 956.834,-100.9092"/>
<polygon fill="#191970" stroke="#191970" points="957.444,-104.3563 966.7703,-99.3294 956.3447,-97.4431 957.444,-104.3563"/>
</g>
<!-- Node351&#45;&gt;Node343 -->
<g id="edge13" class="edge">
<title>Node351&#45;&gt;Node343</title>
<path fill="none" stroke="#191970" d="M511.9455,-238.732C451.3664,-229.5886 353.8444,-213.4134 271,-193 260.3144,-190.367 248.8691,-187.0057 238.3938,-183.7075"/>
<polygon fill="#191970" stroke="#191970" points="239.2954,-180.321 228.704,-180.5904 237.1518,-186.9847 239.2954,-180.321"/>
</g>
<!-- Node351&#45;&gt;Node347 -->
<g id="edge14" class="edge">
<title>Node351&#45;&gt;Node347</title>
<path fill="none" stroke="#191970" d="M584.1196,-256.5977C610.7619,-274.7074 668.6378,-314.0479 700.6261,-335.7916"/>
<polygon fill="#191970" stroke="#191970" points="698.6766,-338.6985 708.9145,-341.4255 702.6118,-332.9093 698.6766,-338.6985"/>
</g>
<!-- Node351&#45;&gt;Node350 -->
<g id="edge15" class="edge">
<title>Node351&#45;&gt;Node350</title>
<path fill="none" stroke="#191970" d="M628.2792,-247C636.5644,-247 645.1524,-247 653.6228,-247"/>
<polygon fill="#191970" stroke="#191970" points="653.8685,-250.5001 663.8684,-247 653.8684,-243.5001 653.8685,-250.5001"/>
</g>
<!-- Node352&#45;&gt;Node343 -->
<g id="edge17" class="edge">
<title>Node352&#45;&gt;Node343</title>
<path fill="none" stroke="#191970" d="M367.1819,-185.3521C329.7695,-182.121 280.5047,-177.8663 245.3486,-174.8301"/>
<polygon fill="#191970" stroke="#191970" points="245.6391,-171.3423 235.375,-173.9688 245.0367,-178.3163 245.6391,-171.3423"/>
</g>
<!-- Node352&#45;&gt;Node351 -->
<g id="edge18" class="edge">
<title>Node352&#45;&gt;Node351</title>
<path fill="none" stroke="#191970" d="M445.9392,-199.5405C470.4355,-208.9116 508.015,-223.2876 535.3961,-233.7623"/>
<polygon fill="#191970" stroke="#191970" points="534.3889,-237.1243 544.9794,-237.4284 536.89,-230.5863 534.3889,-237.1243"/>
</g>
<!-- Node353 -->
<g id="node12" class="node">
<title>Node353</title>
<g id="a_node12"><a xlink:href="classSpikeMonitorCore.html#a0fc20fcc5876030d796debd148ae7cee" target="_top" xlink:title="returns a list of firing rates for all neurons in the group (sorted by neuron ID ascending) ...">
<polygon fill="#ffffff" stroke="#000000" points="524,-180.5 524,-199.5 616,-199.5 616,-180.5 524,-180.5"/>
<text text-anchor="middle" x="570" y="-187.5" font-family="Helvetica,sans-Serif" font-size="10.00" fill="#000000">getAllFiringRates</text>
</a>
</g>
</g>
<!-- Node352&#45;&gt;Node353 -->
<g id="edge19" class="edge">
<title>Node352&#45;&gt;Node353</title>
<path fill="none" stroke="#191970" d="M474.7924,-190C487.4211,-190 500.9122,-190 513.6496,-190"/>
<polygon fill="#191970" stroke="#191970" points="513.6723,-193.5001 523.6722,-190 513.6722,-186.5001 513.6723,-193.5001"/>
</g>
<!-- Node353&#45;&gt;Node343 -->
<g id="edge20" class="edge">
<title>Node353&#45;&gt;Node343</title>
<path fill="none" stroke="#191970" d="M531.8459,-180.4902C514.8663,-176.7252 494.5548,-172.8564 476,-171 394.9974,-162.8955 299.9006,-165.5871 245.4201,-168.2886"/>
<polygon fill="#191970" stroke="#191970" points="245.2124,-164.7946 235.4072,-168.8082 245.5752,-171.7852 245.2124,-164.7946"/>
</g>
<!-- Node354&#45;&gt;Node343 -->
<g id="edge23" class="edge">
<title>Node354&#45;&gt;Node343</title>
<path fill="none" stroke="#191970" d="M295.9756,-85.6054C290.0744,-92.9625 279.5012,-101.2731 271,-109 254.6171,-123.8908 237.1319,-141.6244 223.735,-154.5212"/>
<polygon fill="#191970" stroke="#191970" points="221.219,-152.0834 216.3588,-161.4977 226.029,-157.169 221.219,-152.0834"/>
</g>
<!-- Node354&#45;&gt;Node349 -->
<g id="edge24" class="edge">
<title>Node354&#45;&gt;Node349</title>
<path fill="none" stroke="#191970" d="M330.0102,-76C379.5875,-76 482.74,-76 570,-76 570,-76 570,-76 723,-76 806.6154,-76 904.3882,-85.1122 956.6087,-90.7158"/>
<polygon fill="#191970" stroke="#191970" points="956.413,-94.2151 966.7335,-91.8198 957.1718,-87.2563 956.413,-94.2151"/>
</g>
</g>
</svg>
        <g id="navigator" transform="translate(0 0)" fill="#404254">
                <rect fill="#f2f5e9" fill-opacity="0.5" stroke="#606060" stroke-width=".5" x="0" y="0" width="60" height="60"/>
                <use id="zoomplus" xlink:href="#zoomPlus" x="17" y="9" onmousedown="handleZoom(evt,'in')"/>
                <use id="zoomminus" xlink:href="#zoomMin" x="42" y="9" onmousedown="handleZoom(evt,'out')"/>
                <use id="reset" xlink:href="#resetDef" x="30" y="36" onmousedown="handleReset()"/>
                <g id="arrowUp" xlink:href="#dirArrow" transform="translate(30 24)" onmousedown="handlePan(0,-1)">
                  <use xlink:href="#rim" fill="#404040">
                        <set attributeName="fill" to="#808080" begin="arrowUp.mouseover" end="arrowUp.mouseout"/>
                  </use>
                  <path fill="none" stroke="white" stroke-width="1.5" d="M0,-3.0v7 M-2.5,-0.5L0,-3.0L2.5,-0.5"/>
                </g>
                <g id="arrowRight" xlink:href="#dirArrow" transform="rotate(90) translate(36 -43)" onmousedown="handlePan(1,0)">
                  <use xlink:href="#rim" fill="#404040">
                        <set attributeName="fill" to="#808080" begin="arrowRight.mouseover" end="arrowRight.mouseout"/>
                  </use>
                  <path fill="none" stroke="white" stroke-width="1.5" d="M0,-3.0v7 M-2.5,-0.5L0,-3.0L2.5,-0.5"/>
                </g>
                <g id="arrowDown" xlink:href="#dirArrow" transform="rotate(180) translate(-30 -48)" onmousedown="handlePan(0,1)">
                  <use xlink:href="#rim" fill="#404040">
                        <set attributeName="fill" to="#808080" begin="arrowDown.mouseover" end="arrowDown.mouseout"/>
                  </use>
                  <path fill="none" stroke="white" stroke-width="1.5" d="M0,-3.0v7 M-2.5,-0.5L0,-3.0L2.5,-0.5"/>
                </g>
                <g id="arrowLeft" xlink:href="#dirArrow" transform="rotate(270) translate(-36 17)" onmousedown="handlePan(-1,0)">
                  <use xlink:href="#rim" fill="#404040">
                        <set attributeName="fill" to="#808080" begin="arrowLeft.mouseover" end="arrowLeft.mouseout"/>
                  </use>
                  <path fill="none" stroke="white" stroke-width="1.5" d="M0,-3.0v7 M-2.5,-0.5L0,-3.0L2.5,-0.5"/>
                </g>
        </g>
        <svg viewBox="0 0 15 15" width="100%" height="30px" preserveAspectRatio="xMaxYMin meet">
         <g id="arrow_out" transform="scale(0.3 0.3)">
          <a xlink:href="classSpikeMonitorCore_aed09edf4583ac05d42fccc7e3556e3c5_cgraph_org.svg" target="_base">
           <rect id="button" ry="5" rx="5" y="6" x="6" height="38" width="38"
                fill="#f2f5e9" fill-opacity="0.5" stroke="#606060" stroke-width="1.0"/>
           <path id="arrow"
             d="M 11.500037,31.436501 C 11.940474,20.09759 22.043105,11.32322 32.158766,21.979434 L 37.068811,17.246167 C 37.068811,17.246167 37.088388,32 37.088388,32 L 22.160133,31.978069 C 22.160133,31.978069 26.997745,27.140456 26.997745,27.140456 C 18.528582,18.264221 13.291696,25.230495 11.500037,31.436501 z"
             style="fill:#404040;"/>
          </a>
         </g>
        </svg>
</svg>
