<?xml version="1.0" encoding="UTF-8" standalone="no"?>
<!DOCTYPE svg PUBLIC "-//W3C//DTD SVG 1.1//EN"
 "http://www.w3.org/Graphics/SVG/1.1/DTD/svg11.dtd">
<!-- Generated by graphviz version 2.40.1 (20161225.0304)
 -->
<!-- Title: connection_monitor_core.h Pages: 1 -->
<svg width="240pt" height="95pt"
 viewBox="0.00 0.00 240.00 95.00" xmlns="http://www.w3.org/2000/svg" xmlns:xlink="http://www.w3.org/1999/xlink">
<g id="graph0" class="graph" transform="scale(1 1) rotate(0) translate(4 91)">
<title>connection_monitor_core.h</title>
<polygon fill="#ffffff" stroke="transparent" points="-4,4 -4,-91 236,-91 236,4 -4,4"/>
<!-- Node0 -->
<g id="node1" class="node">
<title>Node0</title>
<polygon fill="#bfbfbf" stroke="#000000" points="35.5,-56.5 35.5,-86.5 136.5,-86.5 136.5,-56.5 35.5,-56.5"/>
<text text-anchor="start" x="43.5" y="-74.5" font-family="Helvetica,sans-Serif" font-size="10.00" fill="#000000">connection_monitor</text>
<text text-anchor="middle" x="86" y="-63.5" font-family="Helvetica,sans-Serif" font-size="10.00" fill="#000000">_core.h</text>
</g>
<!-- Node1 -->
<g id="node2" class="node">
<title>Node1</title>
<polygon fill="#ffffff" stroke="#bfbfbf" points="0,-.5 0,-19.5 46,-19.5 46,-.5 0,-.5"/>
<text text-anchor="middle" x="23" y="-7.5" font-family="Helvetica,sans-Serif" font-size="10.00" fill="#000000">stdio.h</text>
</g>
<!-- Node0&#45;&gt;Node1 -->
<g id="edge1" class="edge">
<title>Node0&#45;&gt;Node1</title>
<path fill="none" stroke="#191970" d="M70.427,-56.2977C61.3175,-47.4052 49.7966,-36.1586 40.3909,-26.9769"/>
<polygon fill="#191970" stroke="#191970" points="42.6878,-24.3278 33.0871,-19.8469 37.798,-29.3368 42.6878,-24.3278"/>
</g>
<!-- Node2 -->
<g id="node3" class="node">
<title>Node2</title>
<polygon fill="#ffffff" stroke="#bfbfbf" points="64,-.5 64,-19.5 108,-19.5 108,-.5 64,-.5"/>
<text text-anchor="middle" x="86" y="-7.5" font-family="Helvetica,sans-Serif" font-size="10.00" fill="#000000">vector</text>
</g>
<!-- Node0&#45;&gt;Node2 -->
<g id="edge2" class="edge">
<title>Node0&#45;&gt;Node2</title>
<path fill="none" stroke="#191970" d="M86,-56.2977C86,-48.3834 86,-38.6043 86,-30.0759"/>
<polygon fill="#191970" stroke="#191970" points="89.5001,-29.8469 86,-19.8469 82.5001,-29.847 89.5001,-29.8469"/>
</g>
<!-- Node3 -->
<g id="node4" class="node">
<title>Node3</title>
<g id="a_node4"><a xlink:href="carlsim__definitions_8h.html" target="_top" xlink:title="carlsim_definitions.h">
<polygon fill="#ffffff" stroke="#000000" points="126,-.5 126,-19.5 232,-19.5 232,-.5 126,-.5"/>
<text text-anchor="middle" x="179" y="-7.5" font-family="Helvetica,sans-Serif" font-size="10.00" fill="#000000">carlsim_definitions.h</text>
</a>
</g>
</g>
<!-- Node0&#45;&gt;Node3 -->
<g id="edge3" class="edge">
<title>Node0&#45;&gt;Node3</title>
<path fill="none" stroke="#191970" d="M108.9888,-56.2977C123.1966,-46.9022 141.3785,-34.8787 155.6525,-25.4395"/>
<polygon fill="#191970" stroke="#191970" points="157.9767,-28.0986 164.3872,-19.6633 154.1155,-22.2598 157.9767,-28.0986"/>
</g>
</g>
</svg>
