<?xml version="1.0" encoding="UTF-8" standalone="no"?>
<!DOCTYPE svg PUBLIC "-//W3C//DTD SVG 1.1//EN"
 "http://www.w3.org/Graphics/SVG/1.1/DTD/svg11.dtd">
<!-- Generated by graphviz version 2.40.1 (20161225.0304)
 -->
<!-- Title: connection_monitor.h Pages: 1 -->
<svg width="280pt" height="140pt"
 viewBox="0.00 0.00 280.00 140.00" xmlns="http://www.w3.org/2000/svg" xmlns:xlink="http://www.w3.org/1999/xlink">
<g id="graph0" class="graph" transform="scale(1 1) rotate(0) translate(4 136)">
<title>connection_monitor.h</title>
<polygon fill="#ffffff" stroke="transparent" points="-4,4 -4,-136 276,-136 276,4 -4,4"/>
<!-- Node0 -->
<g id="node1" class="node">
<title>Node0</title>
<polygon fill="#bfbfbf" stroke="#000000" points="71,-112.5 71,-131.5 181,-131.5 181,-112.5 71,-112.5"/>
<text text-anchor="middle" x="126" y="-119.5" font-family="Helvetica,sans-Serif" font-size="10.00" fill="#000000">connection_monitor.h</text>
</g>
<!-- Node1 -->
<g id="node2" class="node">
<title>Node1</title>
<g id="a_node2"><a xlink:href="carlsim__api_8h.html" target="_top" xlink:title="carlsim_api.h">
<polygon fill="#ffffff" stroke="#000000" points="12,-56.5 12,-75.5 86,-75.5 86,-56.5 12,-56.5"/>
<text text-anchor="middle" x="49" y="-63.5" font-family="Helvetica,sans-Serif" font-size="10.00" fill="#000000">carlsim_api.h</text>
</a>
</g>
</g>
<!-- Node0&#45;&gt;Node1 -->
<g id="edge1" class="edge">
<title>Node0&#45;&gt;Node1</title>
<path fill="none" stroke="#191970" d="M112.5876,-112.2455C100.9943,-103.814 84.0252,-91.4729 70.5322,-81.6598"/>
<polygon fill="#191970" stroke="#191970" points="72.4047,-78.6938 62.2587,-75.6427 68.2874,-84.355 72.4047,-78.6938"/>
</g>
<!-- Node3 -->
<g id="node4" class="node">
<title>Node3</title>
<polygon fill="#ffffff" stroke="#bfbfbf" points="104,-56.5 104,-75.5 148,-75.5 148,-56.5 104,-56.5"/>
<text text-anchor="middle" x="126" y="-63.5" font-family="Helvetica,sans-Serif" font-size="10.00" fill="#000000">vector</text>
</g>
<!-- Node0&#45;&gt;Node3 -->
<g id="edge3" class="edge">
<title>Node0&#45;&gt;Node3</title>
<path fill="none" stroke="#191970" d="M126,-112.2455C126,-104.9382 126,-94.6944 126,-85.7046"/>
<polygon fill="#191970" stroke="#191970" points="129.5001,-85.6426 126,-75.6427 122.5001,-85.6427 129.5001,-85.6426"/>
</g>
<!-- Node4 -->
<g id="node5" class="node">
<title>Node4</title>
<g id="a_node5"><a xlink:href="carlsim__definitions_8h.html" target="_top" xlink:title="carlsim_definitions.h">
<polygon fill="#ffffff" stroke="#000000" points="166,-56.5 166,-75.5 272,-75.5 272,-56.5 166,-56.5"/>
<text text-anchor="middle" x="219" y="-63.5" font-family="Helvetica,sans-Serif" font-size="10.00" fill="#000000">carlsim_definitions.h</text>
</a>
</g>
</g>
<!-- Node0&#45;&gt;Node4 -->
<g id="edge4" class="edge">
<title>Node0&#45;&gt;Node4</title>
<path fill="none" stroke="#191970" d="M142.1994,-112.2455C156.6018,-103.5731 177.8732,-90.7645 194.3799,-80.825"/>
<polygon fill="#191970" stroke="#191970" points="196.225,-83.7996 202.9863,-75.6427 192.614,-77.8028 196.225,-83.7996"/>
</g>
<!-- Node2 -->
<g id="node3" class="node">
<title>Node2</title>
<g id="a_node3"><a xlink:href="carlsim__conf__api_8h.html" target="_top" xlink:title="carlsim_conf_api.h">
<polygon fill="#ffffff" stroke="#000000" points="0,-.5 0,-19.5 98,-19.5 98,-.5 0,-.5"/>
<text text-anchor="middle" x="49" y="-7.5" font-family="Helvetica,sans-Serif" font-size="10.00" fill="#000000">carlsim_conf_api.h</text>
</a>
</g>
</g>
<!-- Node1&#45;&gt;Node2 -->
<g id="edge2" class="edge">
<title>Node1&#45;&gt;Node2</title>
<path fill="none" stroke="#191970" d="M49,-56.2455C49,-48.9382 49,-38.6944 49,-29.7046"/>
<polygon fill="#191970" stroke="#191970" points="52.5001,-29.6426 49,-19.6427 45.5001,-29.6427 52.5001,-29.6426"/>
</g>
</g>
</svg>
