<?xml version="1.0" encoding="UTF-8" standalone="no"?>
<!DOCTYPE svg PUBLIC "-//W3C//DTD SVG 1.1//EN"
 "http://www.w3.org/Graphics/SVG/1.1/DTD/svg11.dtd">
<!-- Generated by graphviz version 2.40.1 (20161225.0304)
 -->
<!-- Title: tools Pages: 1 -->
<svg width="502pt" height="132pt"
 viewBox="0.00 0.00 502.00 132.00" xmlns="http://www.w3.org/2000/svg" xmlns:xlink="http://www.w3.org/1999/xlink">
<g id="graph0" class="graph" transform="scale(1 1) rotate(0) translate(4 128)">
<title>tools</title>
<polygon fill="#ffffff" stroke="transparent" points="-4,4 -4,-128 498,-128 498,4 -4,4"/>
<g id="clust1" class="cluster">
<title>clusterdir_4eeb864c4eec08c7d6b9d3b0352cfdde</title>
<g id="a_clust1"><a xlink:href="dir_4eeb864c4eec08c7d6b9d3b0352cfdde.html" target="_top">
<polygon fill="#eeeeff" stroke="#000000" points="8,-64 8,-116 486,-116 486,-64 8,-64"/>
</a>
</g>
</g>
<!-- dir_4eeb864c4eec08c7d6b9d3b0352cfdde -->
<g id="node1" class="node">
<title>dir_4eeb864c4eec08c7d6b9d3b0352cfdde</title>
<text text-anchor="middle" x="451" y="-87.5" font-family="Helvetica,sans-Serif" font-size="10.00" fill="#000000">tools</text>
</g>
<!-- dir_c4d2c2c120c6b07b77137734a2f680cb -->
<g id="node2" class="node">
<title>dir_c4d2c2c120c6b07b77137734a2f680cb</title>
<g id="a_node2"><a xlink:href="dir_c4d2c2c120c6b07b77137734a2f680cb.html" target="_top" xlink:title="pti">
<polygon fill="#ffffff" stroke="#000000" points="406,-108 352,-108 352,-72 406,-72 406,-108"/>
<text text-anchor="middle" x="379" y="-87.5" font-family="Helvetica,sans-Serif" font-size="10.00" fill="#000000">pti</text>
</a>
</g>
</g>
<!-- dir_a3ddd016ac29e748eafb85b249bd25a4 -->
<g id="node3" class="node">
<title>dir_a3ddd016ac29e748eafb85b249bd25a4</title>
<g id="a_node3"><a xlink:href="dir_a3ddd016ac29e748eafb85b249bd25a4.html" target="_top" xlink:title="simple_weight_tuner">
<polygon fill="#ffffff" stroke="#000000" points="334,-108 228,-108 228,-72 334,-72 334,-108"/>
<text text-anchor="middle" x="281" y="-87.5" font-family="Helvetica,sans-Serif" font-size="10.00" fill="#000000">simple_weight_tuner</text>
</a>
</g>
</g>
<!-- dir_149f82d01cbdfd1b8607983cc286b463 -->
<g id="node6" class="node">
<title>dir_149f82d01cbdfd1b8607983cc286b463</title>
<g id="a_node6"><a xlink:href="dir_149f82d01cbdfd1b8607983cc286b463.html" target="_top" xlink:title="carlsim">
<polygon fill="#ffffff" stroke="#ff0000" points="191,-36 137,-36 137,0 191,0 191,-36"/>
<text text-anchor="middle" x="164" y="-15.5" font-family="Helvetica,sans-Serif" font-size="10.00" fill="#000000">carlsim</text>
</a>
</g>
</g>
<!-- dir_a3ddd016ac29e748eafb85b249bd25a4&#45;&gt;dir_149f82d01cbdfd1b8607983cc286b463 -->
<g id="edge2" class="edge">
<title>dir_a3ddd016ac29e748eafb85b249bd25a4&#45;&gt;dir_149f82d01cbdfd1b8607983cc286b463</title>
<path fill="none" stroke="#000000" d="M251.476,-71.8314C235.8255,-62.2003 216.4734,-50.2913 199.9535,-40.1252"/>
<polygon fill="#000000" stroke="#000000" points="201.4596,-36.9424 191.1086,-34.6822 197.7909,-42.9041 201.4596,-36.9424"/>
<g id="a_edge2&#45;headlabel"><a xlink:href="dir_000008_000000.html" target="_top" xlink:title="2">
<text text-anchor="middle" x="206.009" y="-33.9082" font-family="Helvetica,sans-Serif" font-size="10.00" fill="#000000">2</text>
</a>
</g>
</g>
<!-- dir_dbe4ad561a1cbed9080b60505f5edded -->
<g id="node4" class="node">
<title>dir_dbe4ad561a1cbed9080b60505f5edded</title>
<g id="a_node4"><a xlink:href="dir_dbe4ad561a1cbed9080b60505f5edded.html" target="_top" xlink:title="spike_generators">
<polygon fill="#ffffff" stroke="#000000" points="209.5,-108 118.5,-108 118.5,-72 209.5,-72 209.5,-108"/>
<text text-anchor="middle" x="164" y="-87.5" font-family="Helvetica,sans-Serif" font-size="10.00" fill="#000000">spike_generators</text>
</a>
</g>
</g>
<!-- dir_dbe4ad561a1cbed9080b60505f5edded&#45;&gt;dir_149f82d01cbdfd1b8607983cc286b463 -->
<g id="edge1" class="edge">
<title>dir_dbe4ad561a1cbed9080b60505f5edded&#45;&gt;dir_149f82d01cbdfd1b8607983cc286b463</title>
<path fill="none" stroke="#000000" d="M164,-71.8314C164,-64.131 164,-54.9743 164,-46.4166"/>
<polygon fill="#000000" stroke="#000000" points="167.5001,-46.4132 164,-36.4133 160.5001,-46.4133 167.5001,-46.4132"/>
<g id="a_edge1&#45;headlabel"><a xlink:href="dir_000009_000000.html" target="_top" xlink:title="9">
<text text-anchor="middle" x="170.3393" y="-47.5079" font-family="Helvetica,sans-Serif" font-size="10.00" fill="#000000">9</text>
</a>
</g>
</g>
<!-- dir_95458bcb3b66597ab6b729e9887c3c89 -->
<g id="node5" class="node">
<title>dir_95458bcb3b66597ab6b729e9887c3c89</title>
<g id="a_node5"><a xlink:href="dir_95458bcb3b66597ab6b729e9887c3c89.html" target="_top" xlink:title="visual_stimulus">
<polygon fill="#ffffff" stroke="#000000" points="100,-108 16,-108 16,-72 100,-72 100,-108"/>
<text text-anchor="middle" x="58" y="-87.5" font-family="Helvetica,sans-Serif" font-size="10.00" fill="#000000">visual_stimulus</text>
</a>
</g>
</g>
<!-- dir_95458bcb3b66597ab6b729e9887c3c89&#45;&gt;dir_149f82d01cbdfd1b8607983cc286b463 -->
<g id="edge3" class="edge">
<title>dir_95458bcb3b66597ab6b729e9887c3c89&#45;&gt;dir_149f82d01cbdfd1b8607983cc286b463</title>
<path fill="none" stroke="#000000" d="M84.7483,-71.8314C98.0553,-62.7927 114.316,-51.7476 128.6375,-42.0198"/>
<polygon fill="#000000" stroke="#000000" points="130.9547,-44.677 137.2603,-36.1628 127.0215,-38.8864 130.9547,-44.677"/>
<g id="a_edge3&#45;headlabel"><a xlink:href="dir_000010_000000.html" target="_top" xlink:title="2">
<text text-anchor="middle" x="129.5765" y="-46.5454" font-family="Helvetica,sans-Serif" font-size="10.00" fill="#000000">2</text>
</a>
</g>
</g>
</g>
</svg>
