<?xml version="1.0" encoding="UTF-8" standalone="no"?>
<!DOCTYPE svg PUBLIC "-//W3C//DTD SVG 1.1//EN"
 "http://www.w3.org/Graphics/SVG/1.1/DTD/svg11.dtd">
<!-- Generated by graphviz version 2.40.1 (20161225.0304)
 -->
<!-- Title: spike_generators Pages: 1 -->
<svg width="132pt" height="151pt"
 viewBox="0.00 0.00 132.00 151.00" xmlns="http://www.w3.org/2000/svg" xmlns:xlink="http://www.w3.org/1999/xlink">
<g id="graph0" class="graph" transform="scale(1 1) rotate(0) translate(4 147)">
<title>spike_generators</title>
<polygon fill="#ffffff" stroke="transparent" points="-4,4 -4,-147 128,-147 128,4 -4,4"/>
<g id="clust1" class="cluster">
<title>clusterdir_4eeb864c4eec08c7d6b9d3b0352cfdde</title>
<g id="a_clust1"><a xlink:href="dir_4eeb864c4eec08c7d6b9d3b0352cfdde.html" target="_top" xlink:title="tools">
<polygon fill="#ddddee" stroke="#000000" points="8,-64 8,-135 116,-135 116,-64 8,-64"/>
<text text-anchor="middle" x="62" y="-123" font-family="Helvetica,sans-Serif" font-size="10.00" fill="#000000">tools</text>
</a>
</g>
</g>
<!-- dir_dbe4ad561a1cbed9080b60505f5edded -->
<g id="node1" class="node">
<title>dir_dbe4ad561a1cbed9080b60505f5edded</title>
<g id="a_node1"><a xlink:href="dir_dbe4ad561a1cbed9080b60505f5edded.html" target="_top" xlink:title="spike_generators">
<polygon fill="#eeeeff" stroke="#000000" points="107.5,-108 16.5,-108 16.5,-72 107.5,-72 107.5,-108"/>
<text text-anchor="middle" x="62" y="-87.5" font-family="Helvetica,sans-Serif" font-size="10.00" fill="#000000">spike_generators</text>
</a>
</g>
</g>
<!-- dir_149f82d01cbdfd1b8607983cc286b463 -->
<g id="node2" class="node">
<title>dir_149f82d01cbdfd1b8607983cc286b463</title>
<g id="a_node2"><a xlink:href="dir_149f82d01cbdfd1b8607983cc286b463.html" target="_top" xlink:title="carlsim">
<polygon fill="#ffffff" stroke="#ff0000" points="89,-36 35,-36 35,0 89,0 89,-36"/>
<text text-anchor="middle" x="62" y="-15.5" font-family="Helvetica,sans-Serif" font-size="10.00" fill="#000000">carlsim</text>
</a>
</g>
</g>
<!-- dir_dbe4ad561a1cbed9080b60505f5edded&#45;&gt;dir_149f82d01cbdfd1b8607983cc286b463 -->
<g id="edge1" class="edge">
<title>dir_dbe4ad561a1cbed9080b60505f5edded&#45;&gt;dir_149f82d01cbdfd1b8607983cc286b463</title>
<path fill="none" stroke="#000000" d="M62,-71.8314C62,-64.131 62,-54.9743 62,-46.4166"/>
<polygon fill="#000000" stroke="#000000" points="65.5001,-46.4132 62,-36.4133 58.5001,-46.4133 65.5001,-46.4132"/>
<g id="a_edge1&#45;headlabel"><a xlink:href="dir_000009_000000.html" target="_top" xlink:title="9">
<text text-anchor="middle" x="68.3393" y="-47.5079" font-family="Helvetica,sans-Serif" font-size="10.00" fill="#000000">9</text>
</a>
</g>
</g>
</g>
</svg>
