<?xml version="1.0" encoding="UTF-8" standalone="no"?>
<!DOCTYPE svg PUBLIC "-//W3C//DTD SVG 1.1//EN"
 "http://www.w3.org/Graphics/SVG/1.1/DTD/svg11.dtd">
<!-- Generated by graphviz version 2.40.1 (20161225.0304)
 -->
<!-- Title: monitor Pages: 1 -->
<svg width="106pt" height="223pt"
 viewBox="0.00 0.00 106.00 223.00" xmlns="http://www.w3.org/2000/svg" xmlns:xlink="http://www.w3.org/1999/xlink">
<g id="graph0" class="graph" transform="scale(1 1) rotate(0) translate(4 219)">
<title>monitor</title>
<polygon fill="#ffffff" stroke="transparent" points="-4,4 -4,-219 102,-219 102,4 -4,4"/>
<g id="clust1" class="cluster">
<title>clusterdir_149f82d01cbdfd1b8607983cc286b463</title>
<g id="a_clust1"><a xlink:href="dir_149f82d01cbdfd1b8607983cc286b463.html" target="_top" xlink:title="carlsim">
<polygon fill="#ddddee" stroke="#000000" points="20,-136 20,-207 90,-207 90,-136 20,-136"/>
<text text-anchor="middle" x="55" y="-195" font-family="Helvetica,sans-Serif" font-size="10.00" fill="#000000">carlsim</text>
</a>
</g>
</g>
<!-- dir_befb8c34023644d1f932e4f9ae7b1bdc -->
<g id="node1" class="node">
<title>dir_befb8c34023644d1f932e4f9ae7b1bdc</title>
<g id="a_node1"><a xlink:href="dir_befb8c34023644d1f932e4f9ae7b1bdc.html" target="_top" xlink:title="monitor">
<polygon fill="#eeeeff" stroke="#000000" points="82,-180 28,-180 28,-144 82,-144 82,-180"/>
<text text-anchor="middle" x="55" y="-159.5" font-family="Helvetica,sans-Serif" font-size="10.00" fill="#000000">monitor</text>
</a>
</g>
</g>
<!-- dir_68542fa1d965aabd218f3576283ce1a5 -->
<g id="node2" class="node">
<title>dir_68542fa1d965aabd218f3576283ce1a5</title>
<g id="a_node2"><a xlink:href="dir_68542fa1d965aabd218f3576283ce1a5.html" target="_top" xlink:title="interface">
<polygon fill="#ffffff" stroke="#ff0000" points="54,-108 0,-108 0,-72 54,-72 54,-108"/>
<text text-anchor="middle" x="27" y="-87.5" font-family="Helvetica,sans-Serif" font-size="10.00" fill="#000000">interface</text>
</a>
</g>
</g>
<!-- dir_befb8c34023644d1f932e4f9ae7b1bdc&#45;&gt;dir_68542fa1d965aabd218f3576283ce1a5 -->
<g id="edge1" class="edge">
<title>dir_befb8c34023644d1f932e4f9ae7b1bdc&#45;&gt;dir_68542fa1d965aabd218f3576283ce1a5</title>
<path fill="none" stroke="#000000" d="M47.9344,-143.8314C44.874,-135.9617 41.2221,-126.5712 37.8318,-117.8533"/>
<polygon fill="#000000" stroke="#000000" points="41.0473,-116.4647 34.1607,-108.4133 34.5232,-119.0019 41.0473,-116.4647"/>
<g id="a_edge1&#45;headlabel"><a xlink:href="dir_000006_000001.html" target="_top" xlink:title="18">
<text text-anchor="middle" x="44.9963" y="-116.2859" font-family="Helvetica,sans-Serif" font-size="10.00" fill="#000000">18</text>
</a>
</g>
</g>
<!-- dir_06a4305d97c5fa523d824c152466b991 -->
<g id="node3" class="node">
<title>dir_06a4305d97c5fa523d824c152466b991</title>
<g id="a_node3"><a xlink:href="dir_06a4305d97c5fa523d824c152466b991.html" target="_top" xlink:title="kernel">
<polygon fill="#ffffff" stroke="#ff0000" points="54,-36 0,-36 0,0 54,0 54,-36"/>
<text text-anchor="middle" x="27" y="-15.5" font-family="Helvetica,sans-Serif" font-size="10.00" fill="#000000">kernel</text>
</a>
</g>
</g>
<!-- dir_befb8c34023644d1f932e4f9ae7b1bdc&#45;&gt;dir_06a4305d97c5fa523d824c152466b991 -->
<g id="edge2" class="edge">
<title>dir_befb8c34023644d1f932e4f9ae7b1bdc&#45;&gt;dir_06a4305d97c5fa523d824c152466b991</title>
<path fill="none" stroke="#000000" d="M60.5996,-143.6576C65.3299,-125.1725 70.2732,-96.0216 63,-72 60.0436,-62.2355 54.6748,-52.6229 48.97,-44.2762"/>
<polygon fill="#000000" stroke="#000000" points="51.7129,-42.0973 42.9905,-36.0831 46.0586,-46.2239 51.7129,-42.0973"/>
<g id="a_edge2&#45;headlabel"><a xlink:href="dir_000006_000004.html" target="_top" xlink:title="8">
<text text-anchor="middle" x="56.1253" y="-40.827" font-family="Helvetica,sans-Serif" font-size="10.00" fill="#000000">8</text>
</a>
</g>
</g>
<!-- dir_68542fa1d965aabd218f3576283ce1a5&#45;&gt;dir_06a4305d97c5fa523d824c152466b991 -->
<g id="edge3" class="edge">
<title>dir_68542fa1d965aabd218f3576283ce1a5&#45;&gt;dir_06a4305d97c5fa523d824c152466b991</title>
<path fill="none" stroke="#000000" d="M21.0476,-71.8314C20.2972,-64.131 20.0763,-54.9743 20.3849,-46.4166"/>
<polygon fill="#000000" stroke="#000000" points="23.8792,-46.6161 21.024,-36.4133 16.8935,-46.1697 23.8792,-46.6161"/>
<g id="a_edge3&#45;headlabel"><a xlink:href="dir_000001_000004.html" target="_top" xlink:title="2">
<text text-anchor="middle" x="26.4836" y="-47.8844" font-family="Helvetica,sans-Serif" font-size="10.00" fill="#000000">2</text>
</a>
</g>
</g>
<!-- dir_06a4305d97c5fa523d824c152466b991&#45;&gt;dir_68542fa1d965aabd218f3576283ce1a5 -->
<g id="edge4" class="edge">
<title>dir_06a4305d97c5fa523d824c152466b991&#45;&gt;dir_68542fa1d965aabd218f3576283ce1a5</title>
<path fill="none" stroke="#000000" d="M32.976,-36.4133C33.7071,-44.0593 33.9203,-53.1084 33.6155,-61.5726"/>
<polygon fill="#000000" stroke="#000000" points="30.1048,-61.6264 32.9524,-71.8314 37.0902,-62.078 30.1048,-61.6264"/>
<g id="a_edge4&#45;headlabel"><a xlink:href="dir_000004_000001.html" target="_top" xlink:title="4">
<text text-anchor="middle" x="27.5032" y="-55.3562" font-family="Helvetica,sans-Serif" font-size="10.00" fill="#000000">4</text>
</a>
</g>
</g>
</g>
</svg>
