<?xml version="1.0" encoding="UTF-8" standalone="no"?>
<!DOCTYPE svg PUBLIC "-//W3C//DTD SVG 1.1//EN"
 "http://www.w3.org/Graphics/SVG/1.1/DTD/svg11.dtd">
<!-- Generated by graphviz version 2.40.1 (20161225.0304)
 -->
<!-- Title: group_monitor.cpp Pages: 1 -->
<svg width="387pt" height="308pt"
 viewBox="0.00 0.00 387.00 308.00" xmlns="http://www.w3.org/2000/svg" xmlns:xlink="http://www.w3.org/1999/xlink">
<g id="graph0" class="graph" transform="scale(1 1) rotate(0) translate(4 304)">
<title>group_monitor.cpp</title>
<polygon fill="#ffffff" stroke="transparent" points="-4,4 -4,-304 383,-304 383,4 -4,4"/>
<!-- Node0 -->
<g id="node1" class="node">
<title>Node0</title>
<polygon fill="#bfbfbf" stroke="#000000" points="193.5,-280.5 193.5,-299.5 290.5,-299.5 290.5,-280.5 193.5,-280.5"/>
<text text-anchor="middle" x="242" y="-287.5" font-family="Helvetica,sans-Serif" font-size="10.00" fill="#000000">group_monitor.cpp</text>
</g>
<!-- Node1 -->
<g id="node2" class="node">
<title>Node1</title>
<g id="a_node2"><a xlink:href="group__monitor_8h.html" target="_top" xlink:title="group_monitor.h">
<polygon fill="#ffffff" stroke="#000000" points="0,-224.5 0,-243.5 86,-243.5 86,-224.5 0,-224.5"/>
<text text-anchor="middle" x="43" y="-231.5" font-family="Helvetica,sans-Serif" font-size="10.00" fill="#000000">group_monitor.h</text>
</a>
</g>
</g>
<!-- Node0&#45;&gt;Node1 -->
<g id="edge1" class="edge">
<title>Node0&#45;&gt;Node1</title>
<path fill="none" stroke="#191970" d="M207.7907,-280.3733C174.2703,-270.9404 123.0495,-256.5265 86.619,-246.2747"/>
<polygon fill="#191970" stroke="#191970" points="87.3372,-242.8409 76.7629,-243.5011 85.4409,-249.5792 87.3372,-242.8409"/>
</g>
<!-- Node4 -->
<g id="node5" class="node">
<title>Node4</title>
<g id="a_node5"><a xlink:href="carlsim__datastructures_8h.html" target="_top" xlink:title="carlsim_datastructures.h">
<polygon fill="#ffffff" stroke="#000000" points="147,-168.5 147,-187.5 271,-187.5 271,-168.5 147,-168.5"/>
<text text-anchor="middle" x="209" y="-175.5" font-family="Helvetica,sans-Serif" font-size="10.00" fill="#000000">carlsim_datastructures.h</text>
</a>
</g>
</g>
<!-- Node0&#45;&gt;Node4 -->
<g id="edge15" class="edge">
<title>Node0&#45;&gt;Node4</title>
<path fill="none" stroke="#191970" d="M239.2137,-280.1465C235.551,-267.2346 228.8904,-243.8935 223,-224 220.3963,-215.2065 217.4491,-205.489 214.9326,-197.2598"/>
<polygon fill="#191970" stroke="#191970" points="218.218,-196.0351 211.9378,-187.5021 211.526,-198.089 218.218,-196.0351"/>
</g>
<!-- Node6 -->
<g id="node7" class="node">
<title>Node6</title>
<g id="a_node7"><a xlink:href="user__errors_8h.html" target="_top" xlink:title="user_errors.h">
<polygon fill="#ffffff" stroke="#000000" points="212,-112.5 212,-131.5 286,-131.5 286,-112.5 212,-112.5"/>
<text text-anchor="middle" x="249" y="-119.5" font-family="Helvetica,sans-Serif" font-size="10.00" fill="#000000">user_errors.h</text>
</a>
</g>
</g>
<!-- Node0&#45;&gt;Node6 -->
<g id="edge14" class="edge">
<title>Node0&#45;&gt;Node6</title>
<path fill="none" stroke="#191970" d="M249.1595,-280.2066C263.3829,-259.5111 292.7689,-209.7959 280,-168 276.8591,-157.7192 270.5634,-147.6582 264.4612,-139.5799"/>
<polygon fill="#191970" stroke="#191970" points="267.0816,-137.2539 258.0741,-131.6757 261.637,-141.6535 267.0816,-137.2539"/>
</g>
<!-- Node9 -->
<g id="node10" class="node">
<title>Node9</title>
<g id="a_node10"><a xlink:href="group__monitor__core_8h.html" target="_top" xlink:title="group_monitor_core.h">
<polygon fill="#ffffff" stroke="#000000" points="104,-224.5 104,-243.5 214,-243.5 214,-224.5 104,-224.5"/>
<text text-anchor="middle" x="159" y="-231.5" font-family="Helvetica,sans-Serif" font-size="10.00" fill="#000000">group_monitor_core.h</text>
</a>
</g>
</g>
<!-- Node0&#45;&gt;Node9 -->
<g id="edge10" class="edge">
<title>Node0&#45;&gt;Node9</title>
<path fill="none" stroke="#191970" d="M227.5425,-280.2455C214.9268,-271.7337 196.4056,-259.2375 181.7955,-249.3801"/>
<polygon fill="#191970" stroke="#191970" points="183.5391,-246.3343 173.2918,-243.6427 179.6239,-252.1371 183.5391,-246.3343"/>
</g>
<!-- Node11 -->
<g id="node12" class="node">
<title>Node11</title>
<polygon fill="#ffffff" stroke="#bfbfbf" points="327,-224.5 327,-243.5 379,-243.5 379,-224.5 327,-224.5"/>
<text text-anchor="middle" x="353" y="-231.5" font-family="Helvetica,sans-Serif" font-size="10.00" fill="#000000">sstream</text>
</g>
<!-- Node0&#45;&gt;Node11 -->
<g id="edge16" class="edge">
<title>Node0&#45;&gt;Node11</title>
<path fill="none" stroke="#191970" d="M261.0816,-280.3733C278.7402,-271.4644 305.2053,-258.1127 325.2098,-248.0203"/>
<polygon fill="#191970" stroke="#191970" points="326.8158,-251.1303 334.1674,-243.5011 323.6628,-244.8806 326.8158,-251.1303"/>
</g>
<!-- Node2 -->
<g id="node3" class="node">
<title>Node2</title>
<g id="a_node3"><a xlink:href="carlsim__api_8h.html" target="_top" xlink:title="carlsim_api.h">
<polygon fill="#ffffff" stroke="#000000" points="66,-56.5 66,-75.5 140,-75.5 140,-56.5 66,-56.5"/>
<text text-anchor="middle" x="103" y="-63.5" font-family="Helvetica,sans-Serif" font-size="10.00" fill="#000000">carlsim_api.h</text>
</a>
</g>
</g>
<!-- Node1&#45;&gt;Node2 -->
<g id="edge2" class="edge">
<title>Node1&#45;&gt;Node2</title>
<path fill="none" stroke="#191970" d="M33.0805,-224.3584C21.2944,-211.6758 4.1532,-188.5822 12,-168 25.868,-131.6241 59.329,-99.9843 81.5785,-81.9473"/>
<polygon fill="#191970" stroke="#191970" points="83.7988,-84.6539 89.4926,-75.719 79.4697,-79.153 83.7988,-84.6539"/>
</g>
<!-- Node1&#45;&gt;Node4 -->
<g id="edge4" class="edge">
<title>Node1&#45;&gt;Node4</title>
<path fill="none" stroke="#191970" d="M71.5364,-224.3733C99.0202,-215.1016 140.7686,-201.0178 171.0452,-190.804"/>
<polygon fill="#191970" stroke="#191970" points="172.4794,-194.0141 180.836,-187.5011 170.2418,-187.3813 172.4794,-194.0141"/>
</g>
<!-- Node8 -->
<g id="node9" class="node">
<title>Node8</title>
<polygon fill="#ffffff" stroke="#bfbfbf" points="21,-168.5 21,-187.5 65,-187.5 65,-168.5 21,-168.5"/>
<text text-anchor="middle" x="43" y="-175.5" font-family="Helvetica,sans-Serif" font-size="10.00" fill="#000000">vector</text>
</g>
<!-- Node1&#45;&gt;Node8 -->
<g id="edge9" class="edge">
<title>Node1&#45;&gt;Node8</title>
<path fill="none" stroke="#191970" d="M43,-224.2455C43,-216.9382 43,-206.6944 43,-197.7046"/>
<polygon fill="#191970" stroke="#191970" points="46.5001,-197.6426 43,-187.6427 39.5001,-197.6427 46.5001,-197.6426"/>
</g>
<!-- Node3 -->
<g id="node4" class="node">
<title>Node3</title>
<g id="a_node4"><a xlink:href="carlsim__conf__api_8h.html" target="_top" xlink:title="carlsim_conf_api.h">
<polygon fill="#ffffff" stroke="#000000" points="54,-.5 54,-19.5 152,-19.5 152,-.5 54,-.5"/>
<text text-anchor="middle" x="103" y="-7.5" font-family="Helvetica,sans-Serif" font-size="10.00" fill="#000000">carlsim_conf_api.h</text>
</a>
</g>
</g>
<!-- Node2&#45;&gt;Node3 -->
<g id="edge3" class="edge">
<title>Node2&#45;&gt;Node3</title>
<path fill="none" stroke="#191970" d="M103,-56.2455C103,-48.9382 103,-38.6944 103,-29.7046"/>
<polygon fill="#191970" stroke="#191970" points="106.5001,-29.6426 103,-19.6427 99.5001,-29.6427 106.5001,-29.6426"/>
</g>
<!-- Node5 -->
<g id="node6" class="node">
<title>Node5</title>
<polygon fill="#ffffff" stroke="#bfbfbf" points="142,-112.5 142,-131.5 194,-131.5 194,-112.5 142,-112.5"/>
<text text-anchor="middle" x="168" y="-119.5" font-family="Helvetica,sans-Serif" font-size="10.00" fill="#000000">ostream</text>
</g>
<!-- Node4&#45;&gt;Node5 -->
<g id="edge5" class="edge">
<title>Node4&#45;&gt;Node5</title>
<path fill="none" stroke="#191970" d="M201.8583,-168.2455C196.1556,-160.4564 188.01,-149.3308 181.1375,-139.9439"/>
<polygon fill="#191970" stroke="#191970" points="183.7913,-137.6437 175.0598,-131.6427 178.1432,-141.7789 183.7913,-137.6437"/>
</g>
<!-- Node4&#45;&gt;Node6 -->
<g id="edge6" class="edge">
<title>Node4&#45;&gt;Node6</title>
<path fill="none" stroke="#191970" d="M215.9675,-168.2455C221.5311,-160.4564 229.478,-149.3308 236.1829,-139.9439"/>
<polygon fill="#191970" stroke="#191970" points="239.148,-141.8144 242.1124,-131.6427 233.4519,-137.7457 239.148,-141.8144"/>
</g>
<!-- Node6&#45;&gt;Node2 -->
<g id="edge7" class="edge">
<title>Node6&#45;&gt;Node2</title>
<path fill="none" stroke="#191970" d="M223.9017,-112.3733C200.0445,-103.2226 163.9665,-89.3844 137.429,-79.2057"/>
<polygon fill="#191970" stroke="#191970" points="138.361,-75.8145 127.7708,-75.5011 135.8541,-82.3503 138.361,-75.8145"/>
</g>
<!-- Node7 -->
<g id="node8" class="node">
<title>Node7</title>
<polygon fill="#ffffff" stroke="#bfbfbf" points="228.5,-56.5 228.5,-75.5 269.5,-75.5 269.5,-56.5 228.5,-56.5"/>
<text text-anchor="middle" x="249" y="-63.5" font-family="Helvetica,sans-Serif" font-size="10.00" fill="#000000">string</text>
</g>
<!-- Node6&#45;&gt;Node7 -->
<g id="edge8" class="edge">
<title>Node6&#45;&gt;Node7</title>
<path fill="none" stroke="#191970" d="M249,-112.2455C249,-104.9382 249,-94.6944 249,-85.7046"/>
<polygon fill="#191970" stroke="#191970" points="252.5001,-85.6426 249,-75.6427 245.5001,-85.6427 252.5001,-85.6426"/>
</g>
<!-- Node9&#45;&gt;Node4 -->
<g id="edge11" class="edge">
<title>Node9&#45;&gt;Node4</title>
<path fill="none" stroke="#191970" d="M167.7093,-224.2455C174.8073,-216.2958 185.0084,-204.8706 193.495,-195.3656"/>
<polygon fill="#191970" stroke="#191970" points="196.3411,-197.4331 200.3905,-187.6427 191.1195,-192.771 196.3411,-197.4331"/>
</g>
<!-- Node9&#45;&gt;Node8 -->
<g id="edge13" class="edge">
<title>Node9&#45;&gt;Node8</title>
<path fill="none" stroke="#191970" d="M139.0589,-224.3733C120.5214,-215.4241 92.6972,-201.9917 71.7587,-191.8835"/>
<polygon fill="#191970" stroke="#191970" points="73.2081,-188.6967 62.6809,-187.5011 70.1648,-195.0006 73.2081,-188.6967"/>
</g>
<!-- Node10 -->
<g id="node11" class="node">
<title>Node10</title>
<polygon fill="#ffffff" stroke="#bfbfbf" points="83,-168.5 83,-187.5 129,-187.5 129,-168.5 83,-168.5"/>
<text text-anchor="middle" x="106" y="-175.5" font-family="Helvetica,sans-Serif" font-size="10.00" fill="#000000">stdio.h</text>
</g>
<!-- Node9&#45;&gt;Node10 -->
<g id="edge12" class="edge">
<title>Node9&#45;&gt;Node10</title>
<path fill="none" stroke="#191970" d="M149.7681,-224.2455C142.1683,-216.2155 131.2123,-204.6394 122.1632,-195.0781"/>
<polygon fill="#191970" stroke="#191970" points="124.542,-192.4998 115.1261,-187.6427 119.4579,-197.3115 124.542,-192.4998"/>
</g>
</g>
</svg>
