<?xml version="1.0" encoding="UTF-8" standalone="no"?>
<!DOCTYPE svg PUBLIC "-//W3C//DTD SVG 1.1//EN"
 "http://www.w3.org/Graphics/SVG/1.1/DTD/svg11.dtd">
<!-- Generated by graphviz version 2.40.1 (20161225.0304)
 -->
<!-- Title: group_monitor_core.h Pages: 1 -->
<svg width="615pt" height="84pt"
 viewBox="0.00 0.00 614.50 84.00" xmlns="http://www.w3.org/2000/svg" xmlns:xlink="http://www.w3.org/1999/xlink">
<g id="graph0" class="graph" transform="scale(1 1) rotate(0) translate(4 80)">
<title>group_monitor_core.h</title>
<polygon fill="#ffffff" stroke="transparent" points="-4,4 -4,-80 610.5,-80 610.5,4 -4,4"/>
<!-- Node9 -->
<g id="node1" class="node">
<title>Node9</title>
<polygon fill="#bfbfbf" stroke="#000000" points="250,-56.5 250,-75.5 360,-75.5 360,-56.5 250,-56.5"/>
<text text-anchor="middle" x="305" y="-63.5" font-family="Helvetica,sans-Serif" font-size="10.00" fill="#000000">group_monitor_core.h</text>
</g>
<!-- Node10 -->
<g id="node2" class="node">
<title>Node10</title>
<g id="a_node2"><a xlink:href="print__snn__info_8cpp.html" target="_top" xlink:title="print_snn_info.cpp">
<polygon fill="#ffffff" stroke="#000000" points="0,-.5 0,-19.5 96,-19.5 96,-.5 0,-.5"/>
<text text-anchor="middle" x="48" y="-7.5" font-family="Helvetica,sans-Serif" font-size="10.00" fill="#000000">print_snn_info.cpp</text>
</a>
</g>
</g>
<!-- Node9&#45;&gt;Node10 -->
<g id="edge1" class="edge">
<title>Node9&#45;&gt;Node10</title>
<path fill="none" stroke="#191970" d="M251.3388,-54.3073C203.9821,-43.9883 135.8095,-29.1336 91.7068,-19.5237"/>
<polygon fill="#191970" stroke="#191970" points="250.5962,-57.7275 261.1121,-56.4369 252.0866,-50.888 250.5962,-57.7275"/>
</g>
<!-- Node11 -->
<g id="node3" class="node">
<title>Node11</title>
<g id="a_node3"><a xlink:href="snn__manager_01-_01Copy_8cpp.html" target="_top" xlink:title="snn_manager &#45; Copy.cpp">
<polygon fill="#ffffff" stroke="#000000" points="114,-.5 114,-19.5 240,-19.5 240,-.5 114,-.5"/>
<text text-anchor="middle" x="177" y="-7.5" font-family="Helvetica,sans-Serif" font-size="10.00" fill="#000000">snn_manager &#45; Copy.cpp</text>
</a>
</g>
</g>
<!-- Node9&#45;&gt;Node11 -->
<g id="edge2" class="edge">
<title>Node9&#45;&gt;Node11</title>
<path fill="none" stroke="#191970" d="M273.5652,-52.2473C250.3191,-42.0771 219.2589,-28.4883 198.7169,-19.5011"/>
<polygon fill="#191970" stroke="#191970" points="272.4315,-55.5716 282.996,-56.3733 275.2373,-49.1585 272.4315,-55.5716"/>
</g>
<!-- Node12 -->
<g id="node4" class="node">
<title>Node12</title>
<g id="a_node4"><a xlink:href="snn__manager_8cpp.html" target="_top" xlink:title="snn_manager.cpp">
<polygon fill="#ffffff" stroke="#000000" points="258,-.5 258,-19.5 352,-19.5 352,-.5 258,-.5"/>
<text text-anchor="middle" x="305" y="-7.5" font-family="Helvetica,sans-Serif" font-size="10.00" fill="#000000">snn_manager.cpp</text>
</a>
</g>
</g>
<!-- Node9&#45;&gt;Node12 -->
<g id="edge3" class="edge">
<title>Node9&#45;&gt;Node12</title>
<path fill="none" stroke="#191970" d="M305,-46.1575C305,-37.155 305,-26.9199 305,-19.6427"/>
<polygon fill="#191970" stroke="#191970" points="301.5001,-46.2455 305,-56.2455 308.5001,-46.2456 301.5001,-46.2455"/>
</g>
<!-- Node13 -->
<g id="node5" class="node">
<title>Node13</title>
<g id="a_node5"><a xlink:href="group__monitor_8cpp.html" target="_top" xlink:title="group_monitor.cpp">
<polygon fill="#ffffff" stroke="#000000" points="370.5,-.5 370.5,-19.5 467.5,-19.5 467.5,-.5 370.5,-.5"/>
<text text-anchor="middle" x="419" y="-7.5" font-family="Helvetica,sans-Serif" font-size="10.00" fill="#000000">group_monitor.cpp</text>
</a>
</g>
</g>
<!-- Node9&#45;&gt;Node13 -->
<g id="edge4" class="edge">
<title>Node9&#45;&gt;Node13</title>
<path fill="none" stroke="#191970" d="M333.8321,-51.8368C354.4395,-41.7139 381.6082,-28.3679 399.6584,-19.5011"/>
<polygon fill="#191970" stroke="#191970" points="332.0297,-48.8227 324.5973,-56.3733 335.116,-55.1056 332.0297,-48.8227"/>
</g>
<!-- Node14 -->
<g id="node6" class="node">
<title>Node14</title>
<g id="a_node6"><a xlink:href="group__monitor__core_8cpp.html" target="_top" xlink:title="group_monitor_core.cpp">
<polygon fill="#ffffff" stroke="#000000" points="485.5,-.5 485.5,-19.5 606.5,-19.5 606.5,-.5 485.5,-.5"/>
<text text-anchor="middle" x="546" y="-7.5" font-family="Helvetica,sans-Serif" font-size="10.00" fill="#000000">group_monitor_core.cpp</text>
</a>
</g>
</g>
<!-- Node9&#45;&gt;Node14 -->
<g id="edge5" class="edge">
<title>Node9&#45;&gt;Node14</title>
<path fill="none" stroke="#191970" d="M356.1588,-54.1125C400.5304,-43.8021 463.9168,-29.0733 505.0142,-19.5237"/>
<polygon fill="#191970" stroke="#191970" points="355.1038,-50.7643 346.1555,-56.4369 356.6882,-57.5826 355.1038,-50.7643"/>
</g>
</g>
</svg>
