<?xml version="1.0" encoding="UTF-8" standalone="no"?>
<!DOCTYPE svg PUBLIC "-//W3C//DTD SVG 1.1//EN"
 "http://www.w3.org/Graphics/SVG/1.1/DTD/svg11.dtd">
<!-- Generated by graphviz version 2.40.1 (20161225.0304)
 -->
<!-- Title: norm2 Pages: 1 -->
<svg width="194pt" height="28pt"
 viewBox="0.00 0.00 194.00 28.00" xmlns="http://www.w3.org/2000/svg" xmlns:xlink="http://www.w3.org/1999/xlink">
<g id="graph0" class="graph" transform="scale(1 1) rotate(0) translate(4 24)">
<title>norm2</title>
<polygon fill="#ffffff" stroke="transparent" points="-4,4 -4,-24 190,-24 190,4 -4,4"/>
<!-- Node9 -->
<g id="node1" class="node">
<title>Node9</title>
<polygon fill="#bfbfbf" stroke="#000000" points="0,-.5 0,-19.5 44,-19.5 44,-.5 0,-.5"/>
<text text-anchor="middle" x="22" y="-7.5" font-family="Helvetica,sans-Serif" font-size="10.00" fill="#000000">norm2</text>
</g>
<!-- Node10 -->
<g id="node2" class="node">
<title>Node10</title>
<g id="a_node2"><a xlink:href="linear__algebra_8cpp.html#a0a830939013e7c064b7a5a474572f343" target="_top" xlink:title="norm">
<polygon fill="#ffffff" stroke="#000000" points="80,-.5 80,-19.5 118,-19.5 118,-.5 80,-.5"/>
<text text-anchor="middle" x="99" y="-7.5" font-family="Helvetica,sans-Serif" font-size="10.00" fill="#000000">norm</text>
</a>
</g>
</g>
<!-- Node9&#45;&gt;Node10 -->
<g id="edge1" class="edge">
<title>Node9&#45;&gt;Node10</title>
<path fill="none" stroke="#191970" d="M54.5038,-10C63.1606,-10 72.232,-10 79.9091,-10"/>
<polygon fill="#191970" stroke="#191970" points="54.2716,-6.5001 44.2716,-10 54.2716,-13.5001 54.2716,-6.5001"/>
</g>
<!-- Node11 -->
<g id="node3" class="node">
<title>Node11</title>
<g id="a_node3"><a xlink:href="linear__algebra_8cpp.html#ae145d24c4483134c2323958b8da878b9" target="_top" xlink:title="dist">
<polygon fill="#ffffff" stroke="#000000" points="154,-.5 154,-19.5 186,-19.5 186,-.5 154,-.5"/>
<text text-anchor="middle" x="170" y="-7.5" font-family="Helvetica,sans-Serif" font-size="10.00" fill="#000000">dist</text>
</a>
</g>
</g>
<!-- Node10&#45;&gt;Node11 -->
<g id="edge2" class="edge">
<title>Node10&#45;&gt;Node11</title>
<path fill="none" stroke="#191970" d="M128.2688,-10C136.9977,-10 146.2456,-10 153.8113,-10"/>
<polygon fill="#191970" stroke="#191970" points="128.0267,-6.5001 118.0267,-10 128.0267,-13.5001 128.0267,-6.5001"/>
</g>
</g>
</svg>
