<?xml version="1.0" encoding="UTF-8" standalone="no"?>
<!DOCTYPE svg PUBLIC "-//W3C//DTD SVG 1.1//EN"
 "http://www.w3.org/Graphics/SVG/1.1/DTD/svg11.dtd">
<!-- Generated by graphviz version 2.40.1 (20161225.0304)
 -->
<!-- Title: Logger.cpp Pages: 1 -->
<svg width="405pt" height="140pt"
 viewBox="0.00 0.00 405.00 140.00" xmlns="http://www.w3.org/2000/svg" xmlns:xlink="http://www.w3.org/1999/xlink">
<g id="graph0" class="graph" transform="scale(1 1) rotate(0) translate(4 136)">
<title>Logger.cpp</title>
<polygon fill="#ffffff" stroke="transparent" points="-4,4 -4,-136 401,-136 401,4 -4,4"/>
<!-- Node0 -->
<g id="node1" class="node">
<title>Node0</title>
<polygon fill="#bfbfbf" stroke="#000000" points="168.5,-112.5 168.5,-131.5 233.5,-131.5 233.5,-112.5 168.5,-112.5"/>
<text text-anchor="middle" x="201" y="-119.5" font-family="Helvetica,sans-Serif" font-size="10.00" fill="#000000">Logger.cpp</text>
</g>
<!-- Node1 -->
<g id="node2" class="node">
<title>Node1</title>
<g id="a_node2"><a xlink:href="Logger_8h.html" target="_top" xlink:title="Logger.h">
<polygon fill="#ffffff" stroke="#000000" points="0,-56.5 0,-75.5 54,-75.5 54,-56.5 0,-56.5"/>
<text text-anchor="middle" x="27" y="-63.5" font-family="Helvetica,sans-Serif" font-size="10.00" fill="#000000">Logger.h</text>
</a>
</g>
</g>
<!-- Node0&#45;&gt;Node1 -->
<g id="edge1" class="edge">
<title>Node0&#45;&gt;Node1</title>
<path fill="none" stroke="#191970" d="M171.0883,-112.3733C141.4534,-102.8356 95.9959,-88.2056 64.0823,-77.9345"/>
<polygon fill="#191970" stroke="#191970" points="64.8253,-74.4969 54.2338,-74.7649 62.6807,-81.1603 64.8253,-74.4969"/>
</g>
<!-- Node3 -->
<g id="node4" class="node">
<title>Node3</title>
<polygon fill="#ffffff" stroke="#bfbfbf" points="72.5,-56.5 72.5,-75.5 131.5,-75.5 131.5,-56.5 72.5,-56.5"/>
<text text-anchor="middle" x="102" y="-63.5" font-family="Helvetica,sans-Serif" font-size="10.00" fill="#000000">stdexcept</text>
</g>
<!-- Node0&#45;&gt;Node3 -->
<g id="edge3" class="edge">
<title>Node0&#45;&gt;Node3</title>
<path fill="none" stroke="#191970" d="M183.7555,-112.2455C168.4239,-103.5731 145.7801,-90.7645 128.2084,-80.825"/>
<polygon fill="#191970" stroke="#191970" points="129.4741,-77.5198 119.0469,-75.6427 126.0276,-83.6126 129.4741,-77.5198"/>
</g>
<!-- Node4 -->
<g id="node5" class="node">
<title>Node4</title>
<polygon fill="#ffffff" stroke="#bfbfbf" points="149.5,-56.5 149.5,-75.5 190.5,-75.5 190.5,-56.5 149.5,-56.5"/>
<text text-anchor="middle" x="170" y="-63.5" font-family="Helvetica,sans-Serif" font-size="10.00" fill="#000000">string</text>
</g>
<!-- Node0&#45;&gt;Node4 -->
<g id="edge4" class="edge">
<title>Node0&#45;&gt;Node4</title>
<path fill="none" stroke="#191970" d="M195.6002,-112.2455C191.3773,-104.617 185.3827,-93.7881 180.2559,-84.5267"/>
<polygon fill="#191970" stroke="#191970" points="183.2432,-82.6965 175.3379,-75.6427 177.119,-86.0867 183.2432,-82.6965"/>
</g>
<!-- Node5 -->
<g id="node6" class="node">
<title>Node5</title>
<polygon fill="#ffffff" stroke="#bfbfbf" points="208.5,-56.5 208.5,-75.5 257.5,-75.5 257.5,-56.5 208.5,-56.5"/>
<text text-anchor="middle" x="233" y="-63.5" font-family="Helvetica,sans-Serif" font-size="10.00" fill="#000000">cassert</text>
</g>
<!-- Node0&#45;&gt;Node5 -->
<g id="edge5" class="edge">
<title>Node0&#45;&gt;Node5</title>
<path fill="none" stroke="#191970" d="M206.574,-112.2455C210.9331,-104.617 217.1211,-93.7881 222.4133,-84.5267"/>
<polygon fill="#191970" stroke="#191970" points="225.5673,-86.0616 227.4899,-75.6427 219.4896,-82.5886 225.5673,-86.0616"/>
</g>
<!-- Node6 -->
<g id="node7" class="node">
<title>Node6</title>
<polygon fill="#ffffff" stroke="#bfbfbf" points="275.5,-56.5 275.5,-75.5 326.5,-75.5 326.5,-56.5 275.5,-56.5"/>
<text text-anchor="middle" x="301" y="-63.5" font-family="Helvetica,sans-Serif" font-size="10.00" fill="#000000">typeinfo</text>
</g>
<!-- Node0&#45;&gt;Node6 -->
<g id="edge6" class="edge">
<title>Node0&#45;&gt;Node6</title>
<path fill="none" stroke="#191970" d="M218.4187,-112.2455C234.0485,-103.4928 257.2019,-90.527 275.0185,-80.5496"/>
<polygon fill="#191970" stroke="#191970" points="276.766,-83.5825 283.7809,-75.6427 273.3457,-77.475 276.766,-83.5825"/>
</g>
<!-- Node7 -->
<g id="node8" class="node">
<title>Node7</title>
<polygon fill="#ffffff" stroke="#bfbfbf" points="345,-56.5 345,-75.5 397,-75.5 397,-56.5 345,-56.5"/>
<text text-anchor="middle" x="371" y="-63.5" font-family="Helvetica,sans-Serif" font-size="10.00" fill="#000000">ostream</text>
</g>
<!-- Node0&#45;&gt;Node7 -->
<g id="edge7" class="edge">
<title>Node0&#45;&gt;Node7</title>
<path fill="none" stroke="#191970" d="M230.224,-112.3733C259.3491,-102.7791 304.1164,-88.0323 335.3223,-77.7527"/>
<polygon fill="#191970" stroke="#191970" points="336.5377,-81.0374 344.9406,-74.5843 334.3475,-74.3888 336.5377,-81.0374"/>
</g>
<!-- Node2 -->
<g id="node3" class="node">
<title>Node2</title>
<polygon fill="#ffffff" stroke="#bfbfbf" points="0,-.5 0,-19.5 54,-19.5 54,-.5 0,-.5"/>
<text text-anchor="middle" x="27" y="-7.5" font-family="Helvetica,sans-Serif" font-size="10.00" fill="#000000">iostream</text>
</g>
<!-- Node1&#45;&gt;Node2 -->
<g id="edge2" class="edge">
<title>Node1&#45;&gt;Node2</title>
<path fill="none" stroke="#191970" d="M27,-56.2455C27,-48.9382 27,-38.6944 27,-29.7046"/>
<polygon fill="#191970" stroke="#191970" points="30.5001,-29.6426 27,-19.6427 23.5001,-29.6427 30.5001,-29.6426"/>
</g>
</g>
</svg>
