<?xml version="1.0" encoding="UTF-8" standalone="no"?>
<!DOCTYPE svg PUBLIC "-//W3C//DTD SVG 1.1//EN"
 "http://www.w3.org/Graphics/SVG/1.1/DTD/svg11.dtd">
<!-- Generated by graphviz version 2.40.1 (20161225.0304)
 -->
<!-- Title: neuron_monitor_core.h Pages: 1 -->
<svg width="366pt" height="84pt"
 viewBox="0.00 0.00 366.00 84.00" xmlns="http://www.w3.org/2000/svg" xmlns:xlink="http://www.w3.org/1999/xlink">
<g id="graph0" class="graph" transform="scale(1 1) rotate(0) translate(4 80)">
<title>neuron_monitor_core.h</title>
<polygon fill="#ffffff" stroke="transparent" points="-4,4 -4,-80 362,-80 362,4 -4,4"/>
<!-- Node9 -->
<g id="node1" class="node">
<title>Node9</title>
<polygon fill="#bfbfbf" stroke="#000000" points="105,-56.5 105,-75.5 221,-75.5 221,-56.5 105,-56.5"/>
<text text-anchor="middle" x="163" y="-63.5" font-family="Helvetica,sans-Serif" font-size="10.00" fill="#000000">neuron_monitor_core.h</text>
</g>
<!-- Node10 -->
<g id="node2" class="node">
<title>Node10</title>
<g id="a_node2"><a xlink:href="snn__manager_8cpp.html" target="_top" xlink:title="snn_manager.cpp">
<polygon fill="#ffffff" stroke="#000000" points="0,-.5 0,-19.5 94,-19.5 94,-.5 0,-.5"/>
<text text-anchor="middle" x="47" y="-7.5" font-family="Helvetica,sans-Serif" font-size="10.00" fill="#000000">snn_manager.cpp</text>
</a>
</g>
</g>
<!-- Node9&#45;&gt;Node10 -->
<g id="edge1" class="edge">
<title>Node9&#45;&gt;Node10</title>
<path fill="none" stroke="#191970" d="M133.9463,-51.9741C112.9435,-41.8348 85.1309,-28.408 66.6809,-19.5011"/>
<polygon fill="#191970" stroke="#191970" points="132.5317,-55.1776 143.0589,-56.3733 135.575,-48.8738 132.5317,-55.1776"/>
</g>
<!-- Node11 -->
<g id="node3" class="node">
<title>Node11</title>
<g id="a_node3"><a xlink:href="neuron__monitor_8cpp.html" target="_top" xlink:title="neuron_monitor.cpp">
<polygon fill="#ffffff" stroke="#000000" points="112,-.5 112,-19.5 214,-19.5 214,-.5 112,-.5"/>
<text text-anchor="middle" x="163" y="-7.5" font-family="Helvetica,sans-Serif" font-size="10.00" fill="#000000">neuron_monitor.cpp</text>
</a>
</g>
</g>
<!-- Node9&#45;&gt;Node11 -->
<g id="edge2" class="edge">
<title>Node9&#45;&gt;Node11</title>
<path fill="none" stroke="#191970" d="M163,-46.1575C163,-37.155 163,-26.9199 163,-19.6427"/>
<polygon fill="#191970" stroke="#191970" points="159.5001,-46.2455 163,-56.2455 166.5001,-46.2456 159.5001,-46.2455"/>
</g>
<!-- Node12 -->
<g id="node4" class="node">
<title>Node12</title>
<g id="a_node4"><a xlink:href="neuron__monitor__core_8cpp.html" target="_top" xlink:title="neuron_monitor_core.cpp">
<polygon fill="#ffffff" stroke="#000000" points="232,-.5 232,-19.5 358,-19.5 358,-.5 232,-.5"/>
<text text-anchor="middle" x="295" y="-7.5" font-family="Helvetica,sans-Serif" font-size="10.00" fill="#000000">neuron_monitor_core.cpp</text>
</a>
</g>
</g>
<!-- Node9&#45;&gt;Node12 -->
<g id="edge3" class="edge">
<title>Node9&#45;&gt;Node12</title>
<path fill="none" stroke="#191970" d="M195.0965,-52.3833C219.1035,-42.1985 251.3259,-28.5284 272.6045,-19.5011"/>
<polygon fill="#191970" stroke="#191970" points="193.5305,-49.2457 185.6916,-56.3733 196.2644,-55.6897 193.5305,-49.2457"/>
</g>
</g>
</svg>
