<?xml version="1.0" encoding="UTF-8" standalone="no"?>
<!DOCTYPE svg PUBLIC "-//W3C//DTD SVG 1.1//EN"
 "http://www.w3.org/Graphics/SVG/1.1/DTD/svg11.dtd">
<!-- Generated by graphviz version 2.40.1 (20161225.0304)
 -->
<!-- Title: neuron_monitor.h Pages: 1 -->
<svg width="241pt" height="252pt"
 viewBox="0.00 0.00 241.00 252.00" xmlns="http://www.w3.org/2000/svg" xmlns:xlink="http://www.w3.org/1999/xlink">
<g id="graph0" class="graph" transform="scale(1 1) rotate(0) translate(4 248)">
<title>neuron_monitor.h</title>
<polygon fill="#ffffff" stroke="transparent" points="-4,4 -4,-248 237,-248 237,4 -4,4"/>
<!-- Node0 -->
<g id="node1" class="node">
<title>Node0</title>
<polygon fill="#bfbfbf" stroke="#000000" points="63,-224.5 63,-243.5 155,-243.5 155,-224.5 63,-224.5"/>
<text text-anchor="middle" x="109" y="-231.5" font-family="Helvetica,sans-Serif" font-size="10.00" fill="#000000">neuron_monitor.h</text>
</g>
<!-- Node1 -->
<g id="node2" class="node">
<title>Node1</title>
<g id="a_node2"><a xlink:href="carlsim__api_8h.html" target="_top" xlink:title="carlsim_api.h">
<polygon fill="#ffffff" stroke="#000000" points="12,-56.5 12,-75.5 86,-75.5 86,-56.5 12,-56.5"/>
<text text-anchor="middle" x="49" y="-63.5" font-family="Helvetica,sans-Serif" font-size="10.00" fill="#000000">carlsim_api.h</text>
</a>
</g>
</g>
<!-- Node0&#45;&gt;Node1 -->
<g id="edge1" class="edge">
<title>Node0&#45;&gt;Node1</title>
<path fill="none" stroke="#191970" d="M82.399,-224.397C66.4127,-217.0839 47.4002,-205.291 38,-188 20.2244,-155.3032 31.8917,-110.2984 41.0545,-85.0922"/>
<polygon fill="#191970" stroke="#191970" points="44.3848,-86.1843 44.7349,-75.5953 37.8578,-83.6548 44.3848,-86.1843"/>
</g>
<!-- Node3 -->
<g id="node4" class="node">
<title>Node3</title>
<g id="a_node4"><a xlink:href="carlsim__datastructures_8h.html" target="_top" xlink:title="carlsim_datastructures.h">
<polygon fill="#ffffff" stroke="#000000" points="47,-168.5 47,-187.5 171,-187.5 171,-168.5 47,-168.5"/>
<text text-anchor="middle" x="109" y="-175.5" font-family="Helvetica,sans-Serif" font-size="10.00" fill="#000000">carlsim_datastructures.h</text>
</a>
</g>
</g>
<!-- Node0&#45;&gt;Node3 -->
<g id="edge3" class="edge">
<title>Node0&#45;&gt;Node3</title>
<path fill="none" stroke="#191970" d="M109,-224.2455C109,-216.9382 109,-206.6944 109,-197.7046"/>
<polygon fill="#191970" stroke="#191970" points="112.5001,-197.6426 109,-187.6427 105.5001,-197.6427 112.5001,-197.6426"/>
</g>
<!-- Node7 -->
<g id="node8" class="node">
<title>Node7</title>
<polygon fill="#ffffff" stroke="#bfbfbf" points="189,-168.5 189,-187.5 233,-187.5 233,-168.5 189,-168.5"/>
<text text-anchor="middle" x="211" y="-175.5" font-family="Helvetica,sans-Serif" font-size="10.00" fill="#000000">vector</text>
</g>
<!-- Node0&#45;&gt;Node7 -->
<g id="edge8" class="edge">
<title>Node0&#45;&gt;Node7</title>
<path fill="none" stroke="#191970" d="M126.767,-224.2455C142.7095,-215.4928 166.3259,-202.527 184.4989,-192.5496"/>
<polygon fill="#191970" stroke="#191970" points="186.3552,-195.5233 193.4366,-187.6427 182.9863,-189.3873 186.3552,-195.5233"/>
</g>
<!-- Node2 -->
<g id="node3" class="node">
<title>Node2</title>
<g id="a_node3"><a xlink:href="carlsim__conf__api_8h.html" target="_top" xlink:title="carlsim_conf_api.h">
<polygon fill="#ffffff" stroke="#000000" points="0,-.5 0,-19.5 98,-19.5 98,-.5 0,-.5"/>
<text text-anchor="middle" x="49" y="-7.5" font-family="Helvetica,sans-Serif" font-size="10.00" fill="#000000">carlsim_conf_api.h</text>
</a>
</g>
</g>
<!-- Node1&#45;&gt;Node2 -->
<g id="edge2" class="edge">
<title>Node1&#45;&gt;Node2</title>
<path fill="none" stroke="#191970" d="M49,-56.2455C49,-48.9382 49,-38.6944 49,-29.7046"/>
<polygon fill="#191970" stroke="#191970" points="52.5001,-29.6426 49,-19.6427 45.5001,-29.6427 52.5001,-29.6426"/>
</g>
<!-- Node4 -->
<g id="node5" class="node">
<title>Node4</title>
<polygon fill="#ffffff" stroke="#bfbfbf" points="47,-112.5 47,-131.5 99,-131.5 99,-112.5 47,-112.5"/>
<text text-anchor="middle" x="73" y="-119.5" font-family="Helvetica,sans-Serif" font-size="10.00" fill="#000000">ostream</text>
</g>
<!-- Node3&#45;&gt;Node4 -->
<g id="edge4" class="edge">
<title>Node3&#45;&gt;Node4</title>
<path fill="none" stroke="#191970" d="M102.7293,-168.2455C97.7736,-160.5367 90.717,-149.5598 84.7224,-140.2348"/>
<polygon fill="#191970" stroke="#191970" points="87.5506,-138.1618 79.1989,-131.6427 81.6624,-141.9471 87.5506,-138.1618"/>
</g>
<!-- Node5 -->
<g id="node6" class="node">
<title>Node5</title>
<g id="a_node6"><a xlink:href="user__errors_8h.html" target="_top" xlink:title="user_errors.h">
<polygon fill="#ffffff" stroke="#000000" points="117,-112.5 117,-131.5 191,-131.5 191,-112.5 117,-112.5"/>
<text text-anchor="middle" x="154" y="-119.5" font-family="Helvetica,sans-Serif" font-size="10.00" fill="#000000">user_errors.h</text>
</a>
</g>
</g>
<!-- Node3&#45;&gt;Node5 -->
<g id="edge5" class="edge">
<title>Node3&#45;&gt;Node5</title>
<path fill="none" stroke="#191970" d="M116.8384,-168.2455C123.162,-160.3761 132.2224,-149.101 139.8136,-139.6542"/>
<polygon fill="#191970" stroke="#191970" points="142.7158,-141.6302 146.2514,-131.6427 137.2592,-137.2454 142.7158,-141.6302"/>
</g>
<!-- Node5&#45;&gt;Node1 -->
<g id="edge6" class="edge">
<title>Node5&#45;&gt;Node1</title>
<path fill="none" stroke="#191970" d="M135.7104,-112.2455C119.2238,-103.4527 94.7648,-90.4079 76.0235,-80.4125"/>
<polygon fill="#191970" stroke="#191970" points="77.5506,-77.2604 67.08,-75.6427 74.2565,-83.4368 77.5506,-77.2604"/>
</g>
<!-- Node6 -->
<g id="node7" class="node">
<title>Node6</title>
<polygon fill="#ffffff" stroke="#bfbfbf" points="133.5,-56.5 133.5,-75.5 174.5,-75.5 174.5,-56.5 133.5,-56.5"/>
<text text-anchor="middle" x="154" y="-63.5" font-family="Helvetica,sans-Serif" font-size="10.00" fill="#000000">string</text>
</g>
<!-- Node5&#45;&gt;Node6 -->
<g id="edge7" class="edge">
<title>Node5&#45;&gt;Node6</title>
<path fill="none" stroke="#191970" d="M154,-112.2455C154,-104.9382 154,-94.6944 154,-85.7046"/>
<polygon fill="#191970" stroke="#191970" points="157.5001,-85.6426 154,-75.6427 150.5001,-85.6427 157.5001,-85.6426"/>
</g>
</g>
</svg>
