<?xml version="1.0" encoding="UTF-8" standalone="no"?>
<!DOCTYPE svg PUBLIC "-//W3C//DTD SVG 1.1//EN"
 "http://www.w3.org/Graphics/SVG/1.1/DTD/svg11.dtd">
<!-- Generated by graphviz version 2.40.1 (20161225.0304)
 -->
<!-- Title: poisson_rate.cpp Pages: 1 -->
<svg width="628pt" height="196pt"
 viewBox="0.00 0.00 628.00 196.00" xmlns="http://www.w3.org/2000/svg" xmlns:xlink="http://www.w3.org/1999/xlink">
<g id="graph0" class="graph" transform="scale(1 1) rotate(0) translate(4 192)">
<title>poisson_rate.cpp</title>
<polygon fill="#ffffff" stroke="transparent" points="-4,4 -4,-192 624,-192 624,4 -4,4"/>
<!-- Node0 -->
<g id="node1" class="node">
<title>Node0</title>
<polygon fill="#bfbfbf" stroke="#000000" points="170,-168.5 170,-187.5 261,-187.5 261,-168.5 170,-168.5"/>
<text text-anchor="middle" x="215.5" y="-175.5" font-family="Helvetica,sans-Serif" font-size="10.00" fill="#000000">poisson_rate.cpp</text>
</g>
<!-- Node1 -->
<g id="node2" class="node">
<title>Node1</title>
<polygon fill="#ffffff" stroke="#bfbfbf" points="0,-112.5 0,-131.5 49,-131.5 49,-112.5 0,-112.5"/>
<text text-anchor="middle" x="24.5" y="-119.5" font-family="Helvetica,sans-Serif" font-size="10.00" fill="#000000">cassert</text>
</g>
<!-- Node0&#45;&gt;Node1 -->
<g id="edge1" class="edge">
<title>Node0&#45;&gt;Node1</title>
<path fill="none" stroke="#191970" d="M182.179,-168.4135C152.2437,-159.7757 106.828,-146.609 59.2233,-132.4939"/>
<polygon fill="#191970" stroke="#191970" points="59.9401,-129.0558 49.3575,-129.5643 57.9474,-135.7662 59.9401,-129.0558"/>
</g>
<!-- Node2 -->
<g id="node3" class="node">
<title>Node2</title>
<polygon fill="#ffffff" stroke="#bfbfbf" points="67,-112.5 67,-131.5 110,-131.5 110,-112.5 67,-112.5"/>
<text text-anchor="middle" x="88.5" y="-119.5" font-family="Helvetica,sans-Serif" font-size="10.00" fill="#000000">cstdio</text>
</g>
<!-- Node0&#45;&gt;Node2 -->
<g id="edge2" class="edge">
<title>Node0&#45;&gt;Node2</title>
<path fill="none" stroke="#191970" d="M193.6679,-168.3733C173.1897,-159.3435 142.3601,-145.7494 119.3681,-135.6111"/>
<polygon fill="#191970" stroke="#191970" points="120.6093,-132.3333 110.0472,-131.5011 117.785,-138.7383 120.6093,-132.3333"/>
</g>
<!-- Node3 -->
<g id="node4" class="node">
<title>Node3</title>
<polygon fill="#ffffff" stroke="#bfbfbf" points="128.5,-112.5 128.5,-131.5 174.5,-131.5 174.5,-112.5 128.5,-112.5"/>
<text text-anchor="middle" x="151.5" y="-119.5" font-family="Helvetica,sans-Serif" font-size="10.00" fill="#000000">cstring</text>
</g>
<!-- Node0&#45;&gt;Node3 -->
<g id="edge3" class="edge">
<title>Node0&#45;&gt;Node3</title>
<path fill="none" stroke="#191970" d="M204.3521,-168.2455C194.9913,-160.0549 181.4142,-148.1749 170.3651,-138.5069"/>
<polygon fill="#191970" stroke="#191970" points="172.3508,-135.5937 162.5202,-131.6427 167.7412,-140.8618 172.3508,-135.5937"/>
</g>
<!-- Node4 -->
<g id="node5" class="node">
<title>Node4</title>
<polygon fill="#ffffff" stroke="#bfbfbf" points="193,-112.5 193,-131.5 238,-131.5 238,-112.5 193,-112.5"/>
<text text-anchor="middle" x="215.5" y="-119.5" font-family="Helvetica,sans-Serif" font-size="10.00" fill="#000000">cstdlib</text>
</g>
<!-- Node0&#45;&gt;Node4 -->
<g id="edge4" class="edge">
<title>Node0&#45;&gt;Node4</title>
<path fill="none" stroke="#191970" d="M215.5,-168.2455C215.5,-160.9382 215.5,-150.6944 215.5,-141.7046"/>
<polygon fill="#191970" stroke="#191970" points="219.0001,-141.6426 215.5,-131.6427 212.0001,-141.6427 219.0001,-141.6426"/>
</g>
<!-- Node5 -->
<g id="node6" class="node">
<title>Node5</title>
<g id="a_node6"><a xlink:href="poisson__rate_8h.html" target="_top" xlink:title="poisson_rate.h">
<polygon fill="#ffffff" stroke="#000000" points="256.5,-112.5 256.5,-131.5 336.5,-131.5 336.5,-112.5 256.5,-112.5"/>
<text text-anchor="middle" x="296.5" y="-119.5" font-family="Helvetica,sans-Serif" font-size="10.00" fill="#000000">poisson_rate.h</text>
</a>
</g>
</g>
<!-- Node0&#45;&gt;Node5 -->
<g id="edge5" class="edge">
<title>Node0&#45;&gt;Node5</title>
<path fill="none" stroke="#191970" d="M229.6091,-168.2455C241.9209,-159.7337 259.9958,-147.2375 274.2538,-137.3801"/>
<polygon fill="#191970" stroke="#191970" points="276.3174,-140.2085 282.5526,-131.6427 272.3366,-134.4506 276.3174,-140.2085"/>
</g>
<!-- Node9 -->
<g id="node10" class="node">
<title>Node9</title>
<g id="a_node10"><a xlink:href="carlsim__definitions_8h.html" target="_top" xlink:title="carlsim_definitions.h">
<polygon fill="#ffffff" stroke="#000000" points="354.5,-112.5 354.5,-131.5 460.5,-131.5 460.5,-112.5 354.5,-112.5"/>
<text text-anchor="middle" x="407.5" y="-119.5" font-family="Helvetica,sans-Serif" font-size="10.00" fill="#000000">carlsim_definitions.h</text>
</a>
</g>
</g>
<!-- Node0&#45;&gt;Node9 -->
<g id="edge9" class="edge">
<title>Node0&#45;&gt;Node9</title>
<path fill="none" stroke="#191970" d="M248.506,-168.3733C280.7091,-158.9807 329.8442,-144.6496 364.9639,-134.4064"/>
<polygon fill="#191970" stroke="#191970" points="366.3047,-137.6612 374.9247,-131.5011 364.3447,-130.9412 366.3047,-137.6612"/>
</g>
<!-- Node10 -->
<g id="node11" class="node">
<title>Node10</title>
<g id="a_node11"><a xlink:href="cuda__version__control_8h.html" target="_top" xlink:title="cuda_version_control.h">
<polygon fill="#ffffff" stroke="#000000" points="479,-112.5 479,-131.5 596,-131.5 596,-112.5 479,-112.5"/>
<text text-anchor="middle" x="537.5" y="-119.5" font-family="Helvetica,sans-Serif" font-size="10.00" fill="#000000">cuda_version_control.h</text>
</a>
</g>
</g>
<!-- Node0&#45;&gt;Node10 -->
<g id="edge10" class="edge">
<title>Node0&#45;&gt;Node10</title>
<path fill="none" stroke="#191970" d="M261.2928,-170.036C316.5559,-160.4251 409.8487,-144.2002 472.5335,-133.2985"/>
<polygon fill="#191970" stroke="#191970" points="473.4537,-136.6911 482.7061,-131.5294 472.2543,-129.7946 473.4537,-136.6911"/>
</g>
<!-- Node6 -->
<g id="node7" class="node">
<title>Node6</title>
<g id="a_node7"><a xlink:href="carlsim__api_8h.html" target="_top" xlink:title="carlsim_api.h">
<polygon fill="#ffffff" stroke="#000000" points="221.5,-56.5 221.5,-75.5 295.5,-75.5 295.5,-56.5 221.5,-56.5"/>
<text text-anchor="middle" x="258.5" y="-63.5" font-family="Helvetica,sans-Serif" font-size="10.00" fill="#000000">carlsim_api.h</text>
</a>
</g>
</g>
<!-- Node5&#45;&gt;Node6 -->
<g id="edge6" class="edge">
<title>Node5&#45;&gt;Node6</title>
<path fill="none" stroke="#191970" d="M289.8809,-112.2455C284.5954,-104.4564 277.0459,-93.3308 270.6762,-83.9439"/>
<polygon fill="#191970" stroke="#191970" points="273.5545,-81.9522 265.0432,-75.6427 267.7621,-85.8827 273.5545,-81.9522"/>
</g>
<!-- Node8 -->
<g id="node9" class="node">
<title>Node8</title>
<polygon fill="#ffffff" stroke="#bfbfbf" points="313.5,-56.5 313.5,-75.5 357.5,-75.5 357.5,-56.5 313.5,-56.5"/>
<text text-anchor="middle" x="335.5" y="-63.5" font-family="Helvetica,sans-Serif" font-size="10.00" fill="#000000">vector</text>
</g>
<!-- Node5&#45;&gt;Node8 -->
<g id="edge8" class="edge">
<title>Node5&#45;&gt;Node8</title>
<path fill="none" stroke="#191970" d="M303.2933,-112.2455C308.7178,-104.4564 316.4661,-93.3308 323.0033,-83.9439"/>
<polygon fill="#191970" stroke="#191970" points="325.9417,-85.849 328.7846,-75.6427 320.1975,-81.8485 325.9417,-85.849"/>
</g>
<!-- Node7 -->
<g id="node8" class="node">
<title>Node7</title>
<g id="a_node8"><a xlink:href="carlsim__conf__api_8h.html" target="_top" xlink:title="carlsim_conf_api.h">
<polygon fill="#ffffff" stroke="#000000" points="209.5,-.5 209.5,-19.5 307.5,-19.5 307.5,-.5 209.5,-.5"/>
<text text-anchor="middle" x="258.5" y="-7.5" font-family="Helvetica,sans-Serif" font-size="10.00" fill="#000000">carlsim_conf_api.h</text>
</a>
</g>
</g>
<!-- Node6&#45;&gt;Node7 -->
<g id="edge7" class="edge">
<title>Node6&#45;&gt;Node7</title>
<path fill="none" stroke="#191970" d="M258.5,-56.2455C258.5,-48.9382 258.5,-38.6944 258.5,-29.7046"/>
<polygon fill="#191970" stroke="#191970" points="262.0001,-29.6426 258.5,-19.6427 255.0001,-29.6427 262.0001,-29.6426"/>
</g>
<!-- Node11 -->
<g id="node12" class="node">
<title>Node11</title>
<polygon fill="#ffffff" stroke="#bfbfbf" points="472.5,-56.5 472.5,-75.5 518.5,-75.5 518.5,-56.5 472.5,-56.5"/>
<text text-anchor="middle" x="495.5" y="-63.5" font-family="Helvetica,sans-Serif" font-size="10.00" fill="#000000">cuda.h</text>
</g>
<!-- Node10&#45;&gt;Node11 -->
<g id="edge11" class="edge">
<title>Node10&#45;&gt;Node11</title>
<path fill="none" stroke="#191970" d="M530.1842,-112.2455C524.2821,-104.3761 515.8258,-93.101 508.7406,-83.6542"/>
<polygon fill="#191970" stroke="#191970" points="511.5321,-81.5427 502.732,-75.6427 505.932,-85.7427 511.5321,-81.5427"/>
</g>
<!-- Node12 -->
<g id="node13" class="node">
<title>Node12</title>
<polygon fill="#ffffff" stroke="#bfbfbf" points="537,-56.5 537,-75.5 620,-75.5 620,-56.5 537,-56.5"/>
<text text-anchor="middle" x="578.5" y="-63.5" font-family="Helvetica,sans-Serif" font-size="10.00" fill="#000000">cuda_runtime.h</text>
</g>
<!-- Node10&#45;&gt;Node12 -->
<g id="edge12" class="edge">
<title>Node10&#45;&gt;Node12</title>
<path fill="none" stroke="#191970" d="M544.6417,-112.2455C550.3444,-104.4564 558.49,-93.3308 565.3625,-83.9439"/>
<polygon fill="#191970" stroke="#191970" points="568.3568,-85.7789 571.4402,-75.6427 562.7087,-81.6437 568.3568,-85.7789"/>
</g>
</g>
</svg>
