<?xml version="1.0" encoding="UTF-8" standalone="no"?>
<!DOCTYPE svg PUBLIC "-//W3C//DTD SVG 1.1//EN"
 "http://www.w3.org/Graphics/SVG/1.1/DTD/svg11.dtd">
<!-- Generated by graphviz version 2.40.1 (20161225.0304)
 -->
<!-- Title: poisson_rate.h Pages: 1 -->
<!--zoomable 207 -->
<svg id="main" version="1.1" xmlns="http://www.w3.org/2000/svg" xmlns:xlink="http://www.w3.org/1999/xlink" xml:space="preserve" onload="init(evt)">
<style type="text/css"><![CDATA[
.edge:hover path { stroke: red; }
.edge:hover polygon { stroke: red; fill: red; }
]]></style>
<script type="text/javascript"><![CDATA[
var edges = document.getElementsByTagName('g');
if (edges && edges.length) {
  for (var i=0;i<edges.length;i++) {
    if (edges[i].id.substr(0,4)=='edge') {
      edges[i].setAttribute('class','edge');
    }
  }
}
]]></script>
        <defs>
                <circle id="rim" cx="0" cy="0" r="7"/>
                <circle id="rim2" cx="0" cy="0" r="3.5"/>
                <g id="zoomPlus">
                        <use xlink:href="#rim" fill="#404040">
                                <set attributeName="fill" to="#808080" begin="zoomplus.mouseover" end="zoomplus.mouseout"/>
                        </use>
                        <path d="M-4,0h8M0,-4v8" fill="none" stroke="white" stroke-width="1.5" pointer-events="none"/>
                </g>
                <g id="zoomMin">
                        <use xlink:href="#rim" fill="#404040">
                                <set attributeName="fill" to="#808080" begin="zoomminus.mouseover" end="zoomminus.mouseout"/>
                        </use>
                        <path d="M-4,0h8" fill="none" stroke="white" stroke-width="1.5" pointer-events="none"/>
                </g>
                <g id="dirArrow">
                        <path fill="none" stroke="white" stroke-width="1.5" d="M0,-3.0v7 M-2.5,-0.5L0,-3.0L2.5,-0.5"/>
                </g>
               <g id="resetDef">
                       <use xlink:href="#rim2" fill="#404040">
                               <set attributeName="fill" to="#808080" begin="reset.mouseover" end="reset.mouseout"/>
                       </use>
               </g>
        </defs>

<script type="text/javascript">
var viewWidth = 971;
var viewHeight = 207;
var sectionId = 'dynsection-1';
</script>
<script xlink:href="svgpan.js"/>
<svg id="graph" class="graph">
<g id="viewport">
<title>poisson_rate.h</title>
<polygon fill="#ffffff" stroke="transparent" points="-4,4 -4,-203 966.5,-203 966.5,4 -4,4"/>
<!-- Node4 -->
<g id="node1" class="node">
<title>Node4</title>
<polygon fill="#bfbfbf" stroke="#000000" points="637,-179.5 637,-198.5 717,-198.5 717,-179.5 637,-179.5"/>
<text text-anchor="middle" x="677" y="-186.5" font-family="Helvetica,sans-Serif" font-size="10.00" fill="#000000">poisson_rate.h</text>
</g>
<!-- Node5 -->
<g id="node2" class="node">
<title>Node5</title>
<g id="a_node2"><a xlink:href="carlsim_8h.html" target="_top" xlink:title="carlsim.h">
<polygon fill="#ffffff" stroke="#000000" points="603,-123.5 603,-142.5 659,-142.5 659,-123.5 603,-123.5"/>
<text text-anchor="middle" x="631" y="-130.5" font-family="Helvetica,sans-Serif" font-size="10.00" fill="#000000">carlsim.h</text>
</a>
</g>
</g>
<!-- Node4&#45;&gt;Node5 -->
<g id="edge1" class="edge">
<title>Node4&#45;&gt;Node5</title>
<path fill="none" stroke="#191970" d="M662.6253,-171.5004C654.8029,-161.9775 645.424,-150.5596 638.9208,-142.6427"/>
<polygon fill="#191970" stroke="#191970" points="659.9354,-173.7399 668.9874,-179.2455 665.3445,-169.2967 659.9354,-173.7399"/>
</g>
<!-- Node7 -->
<g id="node4" class="node">
<title>Node7</title>
<g id="a_node4"><a xlink:href="snn_8h.html" target="_top" xlink:title="snn.h">
<polygon fill="#ffffff" stroke="#000000" points="513.5,-67.5 513.5,-86.5 554.5,-86.5 554.5,-67.5 513.5,-67.5"/>
<text text-anchor="middle" x="534" y="-74.5" font-family="Helvetica,sans-Serif" font-size="10.00" fill="#000000">snn.h</text>
</a>
</g>
</g>
<!-- Node4&#45;&gt;Node7 -->
<g id="edge15" class="edge">
<title>Node4&#45;&gt;Node7</title>
<path fill="none" stroke="#191970" d="M646.2205,-174.979C629.9018,-166.8163 609.9821,-155.6496 594,-143 572.3865,-125.8932 551.8217,-100.6672 541.2965,-86.8832"/>
<polygon fill="#191970" stroke="#191970" points="644.8325,-178.1959 655.3556,-179.4264 647.8966,-171.9022 644.8325,-178.1959"/>
</g>
<!-- Node17 -->
<g id="node14" class="node">
<title>Node17</title>
<g id="a_node14"><a xlink:href="poisson__rate_8cpp.html" target="_top" xlink:title="poisson_rate.cpp">
<polygon fill="#ffffff" stroke="#000000" points="677.5,-123.5 677.5,-142.5 768.5,-142.5 768.5,-123.5 677.5,-123.5"/>
<text text-anchor="middle" x="723" y="-130.5" font-family="Helvetica,sans-Serif" font-size="10.00" fill="#000000">poisson_rate.cpp</text>
</a>
</g>
</g>
<!-- Node4&#45;&gt;Node17 -->
<g id="edge14" class="edge">
<title>Node4&#45;&gt;Node17</title>
<path fill="none" stroke="#191970" d="M691.3747,-171.5004C699.1971,-161.9775 708.576,-150.5596 715.0792,-142.6427"/>
<polygon fill="#191970" stroke="#191970" points="688.6555,-169.2967 685.0126,-179.2455 694.0646,-173.7399 688.6555,-169.2967"/>
</g>
<!-- Node18 -->
<g id="node15" class="node">
<title>Node18</title>
<g id="a_node15"><a xlink:href="visual__stimulus_8cpp.html" target="_top" xlink:title="visual_stimulus.cpp">
<polygon fill="#ffffff" stroke="#000000" points="786.5,-123.5 786.5,-142.5 889.5,-142.5 889.5,-123.5 786.5,-123.5"/>
<text text-anchor="middle" x="838" y="-130.5" font-family="Helvetica,sans-Serif" font-size="10.00" fill="#000000">visual_stimulus.cpp</text>
</a>
</g>
</g>
<!-- Node4&#45;&gt;Node18 -->
<g id="edge16" class="edge">
<title>Node4&#45;&gt;Node18</title>
<path fill="none" stroke="#191970" d="M714.2111,-176.057C743.6759,-165.8084 784.1541,-151.729 810.6843,-142.5011"/>
<polygon fill="#191970" stroke="#191970" points="712.972,-172.7822 704.6769,-179.3733 715.2717,-179.3937 712.972,-172.7822"/>
</g>
<!-- Node6 -->
<g id="node3" class="node">
<title>Node6</title>
<g id="a_node3"><a xlink:href="carlsim_8cpp.html" target="_top" xlink:title="carlsim.cpp">
<polygon fill="#ffffff" stroke="#000000" points="895.5,-6 895.5,-25 962.5,-25 962.5,-6 895.5,-6"/>
<text text-anchor="middle" x="929" y="-13" font-family="Helvetica,sans-Serif" font-size="10.00" fill="#000000">carlsim.cpp</text>
</a>
</g>
</g>
<!-- Node5&#45;&gt;Node6 -->
<g id="edge2" class="edge">
<title>Node5&#45;&gt;Node6</title>
<path fill="none" stroke="#191970" d="M669.4223,-122.8477C746.5684,-105.9732 772.9793,-119.3342 841,-87 874.068,-71.2808 905.5387,-40.6592 920.2767,-25.0883"/>
<polygon fill="#191970" stroke="#191970" points="668.2019,-119.5367 659.2381,-125.1847 669.7676,-126.3593 668.2019,-119.5367"/>
</g>
<!-- Node5&#45;&gt;Node7 -->
<g id="edge3" class="edge">
<title>Node5&#45;&gt;Node7</title>
<path fill="none" stroke="#191970" d="M605.0984,-118.0465C587.8391,-108.0824 565.6624,-95.2794 550.7025,-86.6427"/>
<polygon fill="#191970" stroke="#191970" points="603.6936,-121.2768 614.1039,-123.2455 607.1935,-115.2146 603.6936,-121.2768"/>
</g>
<!-- Node15 -->
<g id="node12" class="node">
<title>Node15</title>
<g id="a_node12"><a xlink:href="spikegen__from__file_8cpp.html" target="_top" xlink:title="spikegen_from_file.cpp">
<polygon fill="#ffffff" stroke="#000000" points="572.5,-67.5 572.5,-86.5 689.5,-86.5 689.5,-67.5 572.5,-67.5"/>
<text text-anchor="middle" x="631" y="-74.5" font-family="Helvetica,sans-Serif" font-size="10.00" fill="#000000">spikegen_from_file.cpp</text>
</a>
</g>
</g>
<!-- Node5&#45;&gt;Node15 -->
<g id="edge12" class="edge">
<title>Node5&#45;&gt;Node15</title>
<path fill="none" stroke="#191970" d="M631,-113.1575C631,-104.155 631,-93.9199 631,-86.6427"/>
<polygon fill="#191970" stroke="#191970" points="627.5001,-113.2455 631,-123.2455 634.5001,-113.2456 627.5001,-113.2455"/>
</g>
<!-- Node16 -->
<g id="node13" class="node">
<title>Node16</title>
<g id="a_node13"><a xlink:href="simple__weight__tuner_8cpp.html" target="_top" xlink:title="simple_weight_tuner.cpp">
<polygon fill="#ffffff" stroke="#000000" points="707.5,-67.5 707.5,-86.5 832.5,-86.5 832.5,-67.5 707.5,-67.5"/>
<text text-anchor="middle" x="770" y="-74.5" font-family="Helvetica,sans-Serif" font-size="10.00" fill="#000000">simple_weight_tuner.cpp</text>
</a>
</g>
</g>
<!-- Node5&#45;&gt;Node16 -->
<g id="edge13" class="edge">
<title>Node5&#45;&gt;Node16</title>
<path fill="none" stroke="#191970" d="M664.4621,-119.5189C689.7769,-109.3201 723.9103,-95.5685 746.4169,-86.5011"/>
<polygon fill="#191970" stroke="#191970" points="662.8626,-116.3899 654.895,-123.3733 665.4784,-122.8827 662.8626,-116.3899"/>
</g>
<!-- Node7&#45;&gt;Node6 -->
<g id="edge4" class="edge">
<title>Node7&#45;&gt;Node6</title>
<path fill="none" stroke="#191970" d="M564.6401,-67.0336C705.8243,-36.5099 748.4695,-62.9817 886,-31 892.4926,-29.4902 899.354,-27.3024 905.6433,-25.0441"/>
<polygon fill="#191970" stroke="#191970" points="563.7535,-63.6452 554.7497,-69.2293 565.2706,-70.4788 563.7535,-63.6452"/>
</g>
<!-- Node8 -->
<g id="node5" class="node">
<title>Node8</title>
<g id="a_node5"><a xlink:href="print__snn__info_8cpp.html" target="_top" xlink:title="print_snn_info.cpp">
<polygon fill="#ffffff" stroke="#000000" points="0,-6 0,-25 96,-25 96,-6 0,-6"/>
<text text-anchor="middle" x="48" y="-13" font-family="Helvetica,sans-Serif" font-size="10.00" fill="#000000">print_snn_info.cpp</text>
</a>
</g>
</g>
<!-- Node7&#45;&gt;Node8 -->
<g id="edge5" class="edge">
<title>Node7&#45;&gt;Node8</title>
<path fill="none" stroke="#191970" d="M503.2724,-75.383C432.4999,-71.2943 252.7369,-58.8255 105,-31 96.6353,-29.4245 87.7028,-27.2414 79.4501,-25.0101"/>
<polygon fill="#191970" stroke="#191970" points="503.1099,-78.8793 513.2909,-75.9474 503.5037,-71.8904 503.1099,-78.8793"/>
</g>
<!-- Node9 -->
<g id="node6" class="node">
<title>Node9</title>
<g id="a_node6"><a xlink:href="snn__cpu__module_8cpp.html" target="_top" xlink:title="snn_cpu_module.cpp">
<polygon fill="#ffffff" stroke="#000000" points="114.5,-6 114.5,-25 223.5,-25 223.5,-6 114.5,-6"/>
<text text-anchor="middle" x="169" y="-13" font-family="Helvetica,sans-Serif" font-size="10.00" fill="#000000">snn_cpu_module.cpp</text>
</a>
</g>
</g>
<!-- Node7&#45;&gt;Node9 -->
<g id="edge6" class="edge">
<title>Node7&#45;&gt;Node9</title>
<path fill="none" stroke="#191970" d="M503.4077,-73.209C448.839,-66.2503 331.2204,-50.3619 233,-31 224.2512,-29.2754 214.8922,-27.1627 206.1072,-25.0587"/>
<polygon fill="#191970" stroke="#191970" points="503.0962,-76.6974 513.4564,-74.48 503.9747,-69.7527 503.0962,-76.6974"/>
</g>
<!-- Node10 -->
<g id="node7" class="node">
<title>Node10</title>
<g id="a_node7"><a xlink:href="snn__manager_8cpp.html" target="_top" xlink:title="snn_manager.cpp">
<polygon fill="#ffffff" stroke="#000000" points="242,-6 242,-25 336,-25 336,-6 242,-6"/>
<text text-anchor="middle" x="289" y="-13" font-family="Helvetica,sans-Serif" font-size="10.00" fill="#000000">snn_manager.cpp</text>
</a>
</g>
</g>
<!-- Node7&#45;&gt;Node10 -->
<g id="edge7" class="edge">
<title>Node7&#45;&gt;Node10</title>
<path fill="none" stroke="#191970" d="M503.4656,-69.8787C466.038,-61.0782 400.7166,-45.4873 345,-31 337.7753,-29.1214 330.0482,-27.0338 322.7128,-25.0149"/>
<polygon fill="#191970" stroke="#191970" points="502.7163,-73.2978 513.2513,-72.1742 504.315,-66.4828 502.7163,-73.2978"/>
</g>
<!-- Node11 -->
<g id="node8" class="node">
<title>Node11</title>
<g id="a_node8"><a xlink:href="connection__monitor__core_8cpp.html" target="_top" xlink:title="connection_monitor\l_core.cpp">
<polygon fill="#ffffff" stroke="#000000" points="354.5,-.5 354.5,-30.5 455.5,-30.5 455.5,-.5 354.5,-.5"/>
<text text-anchor="start" x="362.5" y="-18.5" font-family="Helvetica,sans-Serif" font-size="10.00" fill="#000000">connection_monitor</text>
<text text-anchor="middle" x="405" y="-7.5" font-family="Helvetica,sans-Serif" font-size="10.00" fill="#000000">_core.cpp</text>
</a>
</g>
</g>
<!-- Node7&#45;&gt;Node11 -->
<g id="edge8" class="edge">
<title>Node7&#45;&gt;Node11</title>
<path fill="none" stroke="#191970" d="M504.7468,-63.0537C484.4243,-53.3651 457.3644,-40.4644 436.557,-30.5446"/>
<polygon fill="#191970" stroke="#191970" points="503.3109,-66.2465 513.8438,-67.3906 506.3233,-59.9278 503.3109,-66.2465"/>
</g>
<!-- Node12 -->
<g id="node9" class="node">
<title>Node12</title>
<g id="a_node9"><a xlink:href="group__monitor__core_8cpp.html" target="_top" xlink:title="group_monitor_core.cpp">
<polygon fill="#ffffff" stroke="#000000" points="473.5,-6 473.5,-25 594.5,-25 594.5,-6 473.5,-6"/>
<text text-anchor="middle" x="534" y="-13" font-family="Helvetica,sans-Serif" font-size="10.00" fill="#000000">group_monitor_core.cpp</text>
</a>
</g>
</g>
<!-- Node7&#45;&gt;Node12 -->
<g id="edge9" class="edge">
<title>Node7&#45;&gt;Node12</title>
<path fill="none" stroke="#191970" d="M534,-57.2462C534,-46.5519 534,-33.814 534,-25.2449"/>
<polygon fill="#191970" stroke="#191970" points="530.5001,-57.3906 534,-67.3906 537.5001,-57.3907 530.5001,-57.3906"/>
</g>
<!-- Node13 -->
<g id="node10" class="node">
<title>Node13</title>
<g id="a_node10"><a xlink:href="neuron__monitor__core_8cpp.html" target="_top" xlink:title="neuron_monitor_core.cpp">
<polygon fill="#ffffff" stroke="#000000" points="613,-6 613,-25 739,-25 739,-6 613,-6"/>
<text text-anchor="middle" x="676" y="-13" font-family="Helvetica,sans-Serif" font-size="10.00" fill="#000000">neuron_monitor_core.cpp</text>
</a>
</g>
</g>
<!-- Node7&#45;&gt;Node13 -->
<g id="edge10" class="edge">
<title>Node7&#45;&gt;Node13</title>
<path fill="none" stroke="#191970" d="M563.9709,-64.0196C590.8802,-52.3653 629.7606,-35.5262 653.9245,-25.0609"/>
<polygon fill="#191970" stroke="#191970" points="562.4334,-60.8713 554.648,-68.0574 565.2154,-67.2948 562.4334,-60.8713"/>
</g>
<!-- Node14 -->
<g id="node11" class="node">
<title>Node14</title>
<g id="a_node11"><a xlink:href="spike__monitor__core_8cpp.html" target="_top" xlink:title="spike_monitor_core.cpp">
<polygon fill="#ffffff" stroke="#000000" points="757,-6 757,-25 877,-25 877,-6 757,-6"/>
<text text-anchor="middle" x="817" y="-13" font-family="Helvetica,sans-Serif" font-size="10.00" fill="#000000">spike_monitor_core.cpp</text>
</a>
</g>
</g>
<!-- Node7&#45;&gt;Node14 -->
<g id="edge11" class="edge">
<title>Node7&#45;&gt;Node14</title>
<path fill="none" stroke="#191970" d="M564.9436,-66.7289C645.7222,-45.4887 669.219,-47.5102 748,-31 756.8923,-29.1364 766.4092,-27.0551 775.4466,-25.0376"/>
<polygon fill="#191970" stroke="#191970" points="563.5595,-63.4758 554.801,-69.4373 565.3655,-70.2388 563.5595,-63.4758"/>
</g>
</g>
</svg>
        <g id="navigator" transform="translate(0 0)" fill="#404254">
                <rect fill="#f2f5e9" fill-opacity="0.5" stroke="#606060" stroke-width=".5" x="0" y="0" width="60" height="60"/>
                <use id="zoomplus" xlink:href="#zoomPlus" x="17" y="9" onmousedown="handleZoom(evt,'in')"/>
                <use id="zoomminus" xlink:href="#zoomMin" x="42" y="9" onmousedown="handleZoom(evt,'out')"/>
                <use id="reset" xlink:href="#resetDef" x="30" y="36" onmousedown="handleReset()"/>
                <g id="arrowUp" xlink:href="#dirArrow" transform="translate(30 24)" onmousedown="handlePan(0,-1)">
                  <use xlink:href="#rim" fill="#404040">
                        <set attributeName="fill" to="#808080" begin="arrowUp.mouseover" end="arrowUp.mouseout"/>
                  </use>
                  <path fill="none" stroke="white" stroke-width="1.5" d="M0,-3.0v7 M-2.5,-0.5L0,-3.0L2.5,-0.5"/>
                </g>
                <g id="arrowRight" xlink:href="#dirArrow" transform="rotate(90) translate(36 -43)" onmousedown="handlePan(1,0)">
                  <use xlink:href="#rim" fill="#404040">
                        <set attributeName="fill" to="#808080" begin="arrowRight.mouseover" end="arrowRight.mouseout"/>
                  </use>
                  <path fill="none" stroke="white" stroke-width="1.5" d="M0,-3.0v7 M-2.5,-0.5L0,-3.0L2.5,-0.5"/>
                </g>
                <g id="arrowDown" xlink:href="#dirArrow" transform="rotate(180) translate(-30 -48)" onmousedown="handlePan(0,1)">
                  <use xlink:href="#rim" fill="#404040">
                        <set attributeName="fill" to="#808080" begin="arrowDown.mouseover" end="arrowDown.mouseout"/>
                  </use>
                  <path fill="none" stroke="white" stroke-width="1.5" d="M0,-3.0v7 M-2.5,-0.5L0,-3.0L2.5,-0.5"/>
                </g>
                <g id="arrowLeft" xlink:href="#dirArrow" transform="rotate(270) translate(-36 17)" onmousedown="handlePan(-1,0)">
                  <use xlink:href="#rim" fill="#404040">
                        <set attributeName="fill" to="#808080" begin="arrowLeft.mouseover" end="arrowLeft.mouseout"/>
                  </use>
                  <path fill="none" stroke="white" stroke-width="1.5" d="M0,-3.0v7 M-2.5,-0.5L0,-3.0L2.5,-0.5"/>
                </g>
        </g>
        <svg viewBox="0 0 15 15" width="100%" height="30px" preserveAspectRatio="xMaxYMin meet">
         <g id="arrow_out" transform="scale(0.3 0.3)">
          <a xlink:href="poisson__rate_8h__dep__incl_org.svg" target="_base">
           <rect id="button" ry="5" rx="5" y="6" x="6" height="38" width="38"
                fill="#f2f5e9" fill-opacity="0.5" stroke="#606060" stroke-width="1.0"/>
           <path id="arrow"
             d="M 11.500037,31.436501 C 11.940474,20.09759 22.043105,11.32322 32.158766,21.979434 L 37.068811,17.246167 C 37.068811,17.246167 37.088388,32 37.088388,32 L 22.160133,31.978069 C 22.160133,31.978069 26.997745,27.140456 26.997745,27.140456 C 18.528582,18.264221 13.291696,25.230495 11.500037,31.436501 z"
             style="fill:#404040;"/>
          </a>
         </g>
        </svg>
</svg>
