<?xml version="1.0" encoding="UTF-8" standalone="no"?>
<!DOCTYPE svg PUBLIC "-//W3C//DTD SVG 1.1//EN"
 "http://www.w3.org/Graphics/SVG/1.1/DTD/svg11.dtd">
<!-- Generated by graphviz version 2.40.1 (20161225.0304)
 -->
<!-- Title: print_snn_info.cpp Pages: 1 -->
<svg width="1686pt" height="431pt"
 viewBox="0.00 0.00 1685.50 431.00" xmlns="http://www.w3.org/2000/svg" xmlns:xlink="http://www.w3.org/1999/xlink">
<g id="graph0" class="graph" transform="scale(1 1) rotate(0) translate(4 427)">
<title>print_snn_info.cpp</title>
<polygon fill="#ffffff" stroke="transparent" points="-4,4 -4,-427 1681.5,-427 1681.5,4 -4,4"/>
<!-- Node0 -->
<g id="node1" class="node">
<title>Node0</title>
<polygon fill="#bfbfbf" stroke="#000000" points="1020,-403.5 1020,-422.5 1116,-422.5 1116,-403.5 1020,-403.5"/>
<text text-anchor="middle" x="1068" y="-410.5" font-family="Helvetica,sans-Serif" font-size="10.00" fill="#000000">print_snn_info.cpp</text>
</g>
<!-- Node1 -->
<g id="node2" class="node">
<title>Node1</title>
<g id="a_node2"><a xlink:href="snn_8h.html" target="_top" xlink:title="snn.h">
<polygon fill="#ffffff" stroke="#000000" points="421.5,-347.5 421.5,-366.5 462.5,-366.5 462.5,-347.5 421.5,-347.5"/>
<text text-anchor="middle" x="442" y="-354.5" font-family="Helvetica,sans-Serif" font-size="10.00" fill="#000000">snn.h</text>
</a>
</g>
</g>
<!-- Node0&#45;&gt;Node1 -->
<g id="edge1" class="edge">
<title>Node0&#45;&gt;Node1</title>
<path fill="none" stroke="#191970" d="M1019.9183,-408.6988C896.9937,-397.7023 573.8282,-368.7929 472.7033,-359.7466"/>
<polygon fill="#191970" stroke="#191970" points="472.8261,-356.2437 462.554,-358.8387 472.2024,-363.2159 472.8261,-356.2437"/>
</g>
<!-- Node38 -->
<g id="node39" class="node">
<title>Node38</title>
<g id="a_node39"><a xlink:href="connection__monitor__core_8h.html" target="_top" xlink:title="connection_monitor\l_core.h">
<polygon fill="#ffffff" stroke="#000000" points="1417.5,-224.5 1417.5,-254.5 1518.5,-254.5 1518.5,-224.5 1417.5,-224.5"/>
<text text-anchor="start" x="1425.5" y="-242.5" font-family="Helvetica,sans-Serif" font-size="10.00" fill="#000000">connection_monitor</text>
<text text-anchor="middle" x="1468" y="-231.5" font-family="Helvetica,sans-Serif" font-size="10.00" fill="#000000">_core.h</text>
</a>
</g>
</g>
<!-- Node0&#45;&gt;Node38 -->
<g id="edge56" class="edge">
<title>Node0&#45;&gt;Node38</title>
<path fill="none" stroke="#191970" d="M1116.2759,-404.774C1204.3816,-388.9389 1386.6382,-352.1278 1435,-311 1448.9622,-299.1262 1457.3509,-280.0803 1462.1746,-264.6303"/>
<polygon fill="#191970" stroke="#191970" points="1465.6455,-265.2142 1464.9691,-254.641 1458.9044,-263.3283 1465.6455,-265.2142"/>
</g>
<!-- Node40 -->
<g id="node41" class="node">
<title>Node40</title>
<g id="a_node41"><a xlink:href="group__monitor__core_8h.html" target="_top" xlink:title="group_monitor_core.h">
<polygon fill="#ffffff" stroke="#000000" points="1013,-230 1013,-249 1123,-249 1123,-230 1013,-230"/>
<text text-anchor="middle" x="1068" y="-237" font-family="Helvetica,sans-Serif" font-size="10.00" fill="#000000">group_monitor_core.h</text>
</a>
</g>
</g>
<!-- Node0&#45;&gt;Node40 -->
<g id="edge60" class="edge">
<title>Node0&#45;&gt;Node40</title>
<path fill="none" stroke="#191970" d="M1068,-403.4248C1068,-375.999 1068,-296.732 1068,-259.3964"/>
<polygon fill="#191970" stroke="#191970" points="1071.5001,-259.2595 1068,-249.2595 1064.5001,-259.2596 1071.5001,-259.2595"/>
</g>
<!-- Node2 -->
<g id="node3" class="node">
<title>Node2</title>
<polygon fill="#ffffff" stroke="#bfbfbf" points="254.5,-291.5 254.5,-310.5 289.5,-310.5 289.5,-291.5 254.5,-291.5"/>
<text text-anchor="middle" x="272" y="-298.5" font-family="Helvetica,sans-Serif" font-size="10.00" fill="#000000">map</text>
</g>
<!-- Node1&#45;&gt;Node2 -->
<g id="edge2" class="edge">
<title>Node1&#45;&gt;Node2</title>
<path fill="none" stroke="#191970" d="M421.494,-350.2451C391.0022,-340.2007 333.6487,-321.3078 299.5306,-310.0689"/>
<polygon fill="#191970" stroke="#191970" points="300.3367,-306.6495 289.7437,-306.845 298.1465,-313.2981 300.3367,-306.6495"/>
</g>
<!-- Node3 -->
<g id="node4" class="node">
<title>Node3</title>
<polygon fill="#ffffff" stroke="#bfbfbf" points="558.5,-291.5 558.5,-310.5 587.5,-310.5 587.5,-291.5 558.5,-291.5"/>
<text text-anchor="middle" x="573" y="-298.5" font-family="Helvetica,sans-Serif" font-size="10.00" fill="#000000">list</text>
</g>
<!-- Node1&#45;&gt;Node3 -->
<g id="edge3" class="edge">
<title>Node1&#45;&gt;Node3</title>
<path fill="none" stroke="#191970" d="M462.7573,-348.1266C486.2187,-338.0974 524.3504,-321.7968 549.0522,-311.2372"/>
<polygon fill="#191970" stroke="#191970" points="550.6047,-314.38 558.424,-307.231 547.8532,-307.9435 550.6047,-314.38"/>
</g>
<!-- Node4 -->
<g id="node5" class="node">
<title>Node4</title>
<polygon fill="#ffffff" stroke="#bfbfbf" points="680,-291.5 680,-310.5 724,-310.5 724,-291.5 680,-291.5"/>
<text text-anchor="middle" x="702" y="-298.5" font-family="Helvetica,sans-Serif" font-size="10.00" fill="#000000">cmath</text>
</g>
<!-- Node1&#45;&gt;Node4 -->
<g id="edge4" class="edge">
<title>Node1&#45;&gt;Node4</title>
<path fill="none" stroke="#191970" d="M462.7069,-353.6544C501.5159,-347.2123 587.9665,-332.0504 669.7866,-311.0995"/>
<polygon fill="#191970" stroke="#191970" points="670.9385,-314.4165 679.7382,-308.516 669.1795,-307.6411 670.9385,-314.4165"/>
</g>
<!-- Node5 -->
<g id="node6" class="node">
<title>Node5</title>
<polygon fill="#ffffff" stroke="#bfbfbf" points="742,-291.5 742,-310.5 788,-310.5 788,-291.5 742,-291.5"/>
<text text-anchor="middle" x="765" y="-298.5" font-family="Helvetica,sans-Serif" font-size="10.00" fill="#000000">cstring</text>
</g>
<!-- Node1&#45;&gt;Node5 -->
<g id="edge5" class="edge">
<title>Node1&#45;&gt;Node5</title>
<path fill="none" stroke="#191970" d="M462.6624,-354.7857C509.1425,-349.5837 625.5587,-335.3204 731.7745,-311.0218"/>
<polygon fill="#191970" stroke="#191970" points="732.7423,-314.3902 741.69,-308.7167 731.1572,-307.572 732.7423,-314.3902"/>
</g>
<!-- Node6 -->
<g id="node7" class="node">
<title>Node6</title>
<polygon fill="#ffffff" stroke="#bfbfbf" points=".5,-291.5 .5,-310.5 49.5,-310.5 49.5,-291.5 .5,-291.5"/>
<text text-anchor="middle" x="25" y="-298.5" font-family="Helvetica,sans-Serif" font-size="10.00" fill="#000000">cassert</text>
</g>
<!-- Node1&#45;&gt;Node6 -->
<g id="edge6" class="edge">
<title>Node1&#45;&gt;Node6</title>
<path fill="none" stroke="#191970" d="M421.3964,-355.8045C364.8638,-352.2583 202.5288,-340.2895 59.5679,-311.0494"/>
<polygon fill="#191970" stroke="#191970" points="60.2489,-307.6162 49.7457,-309.0063 58.8234,-314.4695 60.2489,-307.6162"/>
</g>
<!-- Node7 -->
<g id="node8" class="node">
<title>Node7</title>
<polygon fill="#ffffff" stroke="#bfbfbf" points="67.5,-291.5 67.5,-310.5 110.5,-310.5 110.5,-291.5 67.5,-291.5"/>
<text text-anchor="middle" x="89" y="-298.5" font-family="Helvetica,sans-Serif" font-size="10.00" fill="#000000">cstdio</text>
</g>
<!-- Node1&#45;&gt;Node7 -->
<g id="edge7" class="edge">
<title>Node1&#45;&gt;Node7</title>
<path fill="none" stroke="#191970" d="M421.3542,-355.3603C371.2067,-351.1053 238.9649,-338.253 120.7577,-311.1043"/>
<polygon fill="#191970" stroke="#191970" points="121.3582,-307.6503 110.8238,-308.7806 119.7637,-314.4663 121.3582,-307.6503"/>
</g>
<!-- Node8 -->
<g id="node9" class="node">
<title>Node8</title>
<polygon fill="#ffffff" stroke="#bfbfbf" points="128.5,-291.5 128.5,-310.5 173.5,-310.5 173.5,-291.5 128.5,-291.5"/>
<text text-anchor="middle" x="151" y="-298.5" font-family="Helvetica,sans-Serif" font-size="10.00" fill="#000000">climits</text>
</g>
<!-- Node1&#45;&gt;Node8 -->
<g id="edge8" class="edge">
<title>Node1&#45;&gt;Node8</title>
<path fill="none" stroke="#191970" d="M421.334,-354.2411C378.7097,-348.3587 277.8379,-333.4478 183.6027,-310.8853"/>
<polygon fill="#191970" stroke="#191970" points="184.1694,-307.4212 173.6257,-308.4612 182.5166,-314.2233 184.1694,-307.4212"/>
</g>
<!-- Node9 -->
<g id="node10" class="node">
<title>Node9</title>
<polygon fill="#ffffff" stroke="#bfbfbf" points="192,-291.5 192,-310.5 236,-310.5 236,-291.5 192,-291.5"/>
<text text-anchor="middle" x="214" y="-298.5" font-family="Helvetica,sans-Serif" font-size="10.00" fill="#000000">mutex</text>
</g>
<!-- Node1&#45;&gt;Node9 -->
<g id="edge9" class="edge">
<title>Node1&#45;&gt;Node9</title>
<path fill="none" stroke="#191970" d="M421.4396,-352.7849C387.0667,-345.6138 315.5978,-330.175 246.0772,-311.1409"/>
<polygon fill="#191970" stroke="#191970" points="246.8558,-307.7249 236.2845,-308.4317 244.9892,-314.4715 246.8558,-307.7249"/>
</g>
<!-- Node10 -->
<g id="node11" class="node">
<title>Node10</title>
<g id="a_node11"><a xlink:href="carlsim_8h.html" target="_top" xlink:title="carlsim.h">
<polygon fill="#ffffff" stroke="#000000" points="606,-291.5 606,-310.5 662,-310.5 662,-291.5 606,-291.5"/>
<text text-anchor="middle" x="634" y="-298.5" font-family="Helvetica,sans-Serif" font-size="10.00" fill="#000000">carlsim.h</text>
</a>
</g>
</g>
<!-- Node1&#45;&gt;Node10 -->
<g id="edge10" class="edge">
<title>Node1&#45;&gt;Node10</title>
<path fill="none" stroke="#191970" d="M462.5474,-351.007C494.3853,-341.7209 556.1339,-323.7109 596.1857,-312.0292"/>
<polygon fill="#191970" stroke="#191970" points="597.2495,-315.3648 605.8695,-309.2047 595.2895,-308.6448 597.2495,-315.3648"/>
</g>
<!-- Node22 -->
<g id="node23" class="node">
<title>Node22</title>
<g id="a_node23"><a xlink:href="poisson__rate_8h.html" target="_top" xlink:title="poisson_rate.h">
<polygon fill="#ffffff" stroke="#000000" points="0,-230 0,-249 80,-249 80,-230 0,-230"/>
<text text-anchor="middle" x="40" y="-237" font-family="Helvetica,sans-Serif" font-size="10.00" fill="#000000">poisson_rate.h</text>
</a>
</g>
</g>
<!-- Node1&#45;&gt;Node22 -->
<g id="edge55" class="edge">
<title>Node1&#45;&gt;Node22</title>
<path fill="none" stroke="#191970" d="M421.3104,-348.3763C400.0115,-339.396 365.9436,-324.7458 337,-311 319.4039,-302.6433 316.4645,-297.2064 298,-291 210.7304,-261.6664 183.7037,-275.729 94,-255 89.8305,-254.0365 85.504,-252.948 81.1969,-251.8056"/>
<polygon fill="#191970" stroke="#191970" points="81.8348,-248.3512 71.2648,-249.0757 79.9796,-255.1009 81.8348,-248.3512"/>
</g>
<!-- Node31 -->
<g id="node32" class="node">
<title>Node31</title>
<g id="a_node32"><a xlink:href="callback__core_8h.html" target="_top" xlink:title="callback_core.h">
<polygon fill="#ffffff" stroke="#000000" points="346.5,-291.5 346.5,-310.5 431.5,-310.5 431.5,-291.5 346.5,-291.5"/>
<text text-anchor="middle" x="389" y="-298.5" font-family="Helvetica,sans-Serif" font-size="10.00" fill="#000000">callback_core.h</text>
</a>
</g>
</g>
<!-- Node1&#45;&gt;Node31 -->
<g id="edge48" class="edge">
<title>Node1&#45;&gt;Node31</title>
<path fill="none" stroke="#191970" d="M432.7681,-347.2455C425.1683,-339.2155 414.2123,-327.6394 405.1632,-318.0781"/>
<polygon fill="#191970" stroke="#191970" points="407.542,-315.4998 398.1261,-310.6427 402.4579,-320.3115 407.542,-315.4998"/>
</g>
<!-- Node32 -->
<g id="node33" class="node">
<title>Node32</title>
<g id="a_node33"><a xlink:href="snn__definitions_8h.html" target="_top" xlink:title="snn_definitions.h">
<polygon fill="#ffffff" stroke="#000000" points="450,-291.5 450,-310.5 540,-310.5 540,-291.5 450,-291.5"/>
<text text-anchor="middle" x="495" y="-298.5" font-family="Helvetica,sans-Serif" font-size="10.00" fill="#000000">snn_definitions.h</text>
</a>
</g>
</g>
<!-- Node1&#45;&gt;Node32 -->
<g id="edge49" class="edge">
<title>Node1&#45;&gt;Node32</title>
<path fill="none" stroke="#191970" d="M451.2319,-347.2455C458.8317,-339.2155 469.7877,-327.6394 478.8368,-318.0781"/>
<polygon fill="#191970" stroke="#191970" points="481.5421,-320.3115 485.8739,-310.6427 476.458,-315.4998 481.5421,-320.3115"/>
</g>
<!-- Node33 -->
<g id="node34" class="node">
<title>Node33</title>
<g id="a_node34"><a xlink:href="snn__datastructures_8h.html" target="_top" xlink:title="snn_datastructures.h">
<polygon fill="#ffffff" stroke="#000000" points="1318,-291.5 1318,-310.5 1426,-310.5 1426,-291.5 1318,-291.5"/>
<text text-anchor="middle" x="1372" y="-298.5" font-family="Helvetica,sans-Serif" font-size="10.00" fill="#000000">snn_datastructures.h</text>
</a>
</g>
</g>
<!-- Node1&#45;&gt;Node33 -->
<g id="edge50" class="edge">
<title>Node1&#45;&gt;Node33</title>
<path fill="none" stroke="#191970" d="M462.7283,-355.7518C575.7581,-348.9457 1119.5219,-316.203 1307.7274,-304.8702"/>
<polygon fill="#191970" stroke="#191970" points="1307.9782,-308.3615 1317.7497,-304.2667 1307.5574,-301.3742 1307.9782,-308.3615"/>
</g>
<!-- Node11 -->
<g id="node12" class="node">
<title>Node11</title>
<polygon fill="#ffffff" stroke="#bfbfbf" points="907.5,-230 907.5,-249 956.5,-249 956.5,-230 907.5,-230"/>
<text text-anchor="middle" x="932" y="-237" font-family="Helvetica,sans-Serif" font-size="10.00" fill="#000000">stdint.h</text>
</g>
<!-- Node10&#45;&gt;Node11 -->
<g id="edge11" class="edge">
<title>Node10&#45;&gt;Node11</title>
<path fill="none" stroke="#191970" d="M662.2062,-293.044C665.165,-292.3092 668.1369,-291.6121 671,-291 770.8923,-269.6437 800.1892,-284.4553 898,-255 899.9101,-254.4248 901.8519,-253.7641 903.7902,-253.0468"/>
<polygon fill="#191970" stroke="#191970" points="905.384,-256.1753 913.2898,-249.122 902.711,-249.7058 905.384,-256.1753"/>
</g>
<!-- Node12 -->
<g id="node13" class="node">
<title>Node12</title>
<polygon fill="#ffffff" stroke="#bfbfbf" points="1022.5,-56.5 1022.5,-75.5 1063.5,-75.5 1063.5,-56.5 1022.5,-56.5"/>
<text text-anchor="middle" x="1043" y="-63.5" font-family="Helvetica,sans-Serif" font-size="10.00" fill="#000000">string</text>
</g>
<!-- Node10&#45;&gt;Node12 -->
<g id="edge12" class="edge">
<title>Node10&#45;&gt;Node12</title>
<path fill="none" stroke="#191970" d="M662.1525,-292.7592C665.1217,-292.08 668.1108,-291.4737 671,-291 735.7027,-280.392 1215.0739,-302.7558 1260,-255 1330.2931,-180.2794 1148.2039,-103.8272 1073.3865,-76.4958"/>
<polygon fill="#191970" stroke="#191970" points="1074.1732,-73.0594 1063.5788,-72.9705 1071.8054,-79.6468 1074.1732,-73.0594"/>
</g>
<!-- Node13 -->
<g id="node14" class="node">
<title>Node13</title>
<polygon fill="#ffffff" stroke="#bfbfbf" points="916,-168.5 916,-187.5 960,-187.5 960,-168.5 916,-168.5"/>
<text text-anchor="middle" x="938" y="-175.5" font-family="Helvetica,sans-Serif" font-size="10.00" fill="#000000">vector</text>
</g>
<!-- Node10&#45;&gt;Node13 -->
<g id="edge13" class="edge">
<title>Node10&#45;&gt;Node13</title>
<path fill="none" stroke="#191970" d="M662.1848,-292.9395C665.1478,-292.225 668.1265,-291.5613 671,-291 735.6004,-278.3815 921.3773,-304.29 965,-255 979.8705,-238.1976 966.0041,-212.7109 953.268,-195.7181"/>
<polygon fill="#191970" stroke="#191970" points="955.8415,-193.3316 946.8691,-187.6972 950.3695,-197.6971 955.8415,-193.3316"/>
</g>
<!-- Node14 -->
<g id="node15" class="node">
<title>Node14</title>
<polygon fill="#ffffff" stroke="#bfbfbf" points="174,-230 174,-249 230,-249 230,-230 174,-230"/>
<text text-anchor="middle" x="202" y="-237" font-family="Helvetica,sans-Serif" font-size="10.00" fill="#000000">algorithm</text>
</g>
<!-- Node10&#45;&gt;Node14 -->
<g id="edge14" class="edge">
<title>Node10&#45;&gt;Node14</title>
<path fill="none" stroke="#191970" d="M605.8883,-293.0769C602.572,-292.2985 599.2222,-291.5827 596,-291 439.0742,-262.6206 393.5687,-294.2382 239,-255 236.5192,-254.3702 233.9882,-253.6019 231.4725,-252.7477"/>
<polygon fill="#191970" stroke="#191970" points="232.5754,-249.4226 221.9843,-249.1393 230.0871,-255.9654 232.5754,-249.4226"/>
</g>
<!-- Node15 -->
<g id="node16" class="node">
<title>Node15</title>
<g id="a_node16"><a xlink:href="carlsim__definitions_8h.html" target="_top" xlink:title="carlsim_definitions.h">
<polygon fill="#ffffff" stroke="#000000" points="1307,-168.5 1307,-187.5 1413,-187.5 1413,-168.5 1307,-168.5"/>
<text text-anchor="middle" x="1360" y="-175.5" font-family="Helvetica,sans-Serif" font-size="10.00" fill="#000000">carlsim_definitions.h</text>
</a>
</g>
</g>
<!-- Node10&#45;&gt;Node15 -->
<g id="edge15" class="edge">
<title>Node10&#45;&gt;Node15</title>
<path fill="none" stroke="#191970" d="M662.1509,-292.7496C665.1204,-292.0722 668.11,-291.469 671,-291 807.6655,-268.8204 1168.7101,-316.0033 1293,-255 1318.7378,-242.3675 1338.7051,-214.9455 1349.9151,-196.4745"/>
<polygon fill="#191970" stroke="#191970" points="1352.9807,-198.1647 1354.9631,-187.757 1346.923,-194.6569 1352.9807,-198.1647"/>
</g>
<!-- Node16 -->
<g id="node17" class="node">
<title>Node16</title>
<g id="a_node17"><a xlink:href="carlsim__datastructures_8h.html" target="_top" xlink:title="carlsim_datastructures.h">
<polygon fill="#ffffff" stroke="#000000" points="645,-168.5 645,-187.5 769,-187.5 769,-168.5 645,-168.5"/>
<text text-anchor="middle" x="707" y="-175.5" font-family="Helvetica,sans-Serif" font-size="10.00" fill="#000000">carlsim_datastructures.h</text>
</a>
</g>
</g>
<!-- Node10&#45;&gt;Node16 -->
<g id="edge16" class="edge">
<title>Node10&#45;&gt;Node16</title>
<path fill="none" stroke="#191970" d="M639.7282,-291.3484C651.8819,-270.8703 680.4221,-222.782 696.1413,-196.2962"/>
<polygon fill="#191970" stroke="#191970" points="699.2044,-197.9926 701.2984,-187.6068 693.1848,-194.42 699.2044,-197.9926"/>
</g>
<!-- Node19 -->
<g id="node20" class="node">
<title>Node19</title>
<g id="a_node20"><a xlink:href="carlsim__api_8h.html" target="_top" xlink:title="carlsim_api.h">
<polygon fill="#ffffff" stroke="#000000" points="695,-56.5 695,-75.5 769,-75.5 769,-56.5 695,-56.5"/>
<text text-anchor="middle" x="732" y="-63.5" font-family="Helvetica,sans-Serif" font-size="10.00" fill="#000000">carlsim_api.h</text>
</a>
</g>
</g>
<!-- Node10&#45;&gt;Node19 -->
<g id="edge22" class="edge">
<title>Node10&#45;&gt;Node19</title>
<path fill="none" stroke="#191970" d="M605.8993,-293.0143C602.5811,-292.2471 599.2278,-291.5511 596,-291 547.2109,-282.6695 185.5544,-291.3852 152,-255 142.6596,-244.8716 144.1564,-235.3272 152,-224 213.6897,-134.9118 556.9441,-86.3907 684.3712,-71.2434"/>
<polygon fill="#191970" stroke="#191970" points="685.0709,-74.6855 694.5953,-70.0449 684.2558,-67.7331 685.0709,-74.6855"/>
</g>
<!-- Node21 -->
<g id="node22" class="node">
<title>Node21</title>
<g id="a_node22"><a xlink:href="callback_8h.html" target="_top" xlink:title="callback.h">
<polygon fill="#ffffff" stroke="#000000" points="248.5,-230 248.5,-249 309.5,-249 309.5,-230 248.5,-230"/>
<text text-anchor="middle" x="279" y="-237" font-family="Helvetica,sans-Serif" font-size="10.00" fill="#000000">callback.h</text>
</a>
</g>
</g>
<!-- Node10&#45;&gt;Node21 -->
<g id="edge23" class="edge">
<title>Node10&#45;&gt;Node21</title>
<path fill="none" stroke="#191970" d="M605.8714,-293.167C602.5581,-292.3724 599.2137,-291.6282 596,-291 473.7272,-267.0973 438.6043,-286.2501 318,-255 315.2229,-254.2804 312.3774,-253.4155 309.5503,-252.467"/>
<polygon fill="#191970" stroke="#191970" points="310.7289,-249.1713 300.1353,-249.0097 308.316,-255.7423 310.7289,-249.1713"/>
</g>
<!-- Node10&#45;&gt;Node22 -->
<g id="edge24" class="edge">
<title>Node10&#45;&gt;Node22</title>
<path fill="none" stroke="#191970" d="M605.9043,-292.9846C602.5852,-292.2227 599.2303,-291.5361 596,-291 375.334,-254.3792 314.2459,-294.0678 94,-255 89.1532,-254.1403 84.1186,-253.0171 79.1588,-251.7678"/>
<polygon fill="#191970" stroke="#191970" points="79.7336,-248.2977 69.167,-249.0702 77.909,-255.0557 79.7336,-248.2977"/>
</g>
<!-- Node23 -->
<g id="node24" class="node">
<title>Node23</title>
<g id="a_node24"><a xlink:href="spike__monitor_8h.html" target="_top" xlink:title="spike_monitor.h">
<polygon fill="#ffffff" stroke="#000000" points="699,-230 699,-249 785,-249 785,-230 699,-230"/>
<text text-anchor="middle" x="742" y="-237" font-family="Helvetica,sans-Serif" font-size="10.00" fill="#000000">spike_monitor.h</text>
</a>
</g>
</g>
<!-- Node10&#45;&gt;Node23 -->
<g id="edge27" class="edge">
<title>Node10&#45;&gt;Node23</title>
<path fill="none" stroke="#191970" d="M650.875,-291.3906C668.4698,-281.3713 696.2566,-265.5483 716.5241,-254.0071"/>
<polygon fill="#191970" stroke="#191970" points="718.2856,-257.0318 725.2435,-249.0419 714.8217,-250.9489 718.2856,-257.0318"/>
</g>
<!-- Node24 -->
<g id="node25" class="node">
<title>Node24</title>
<g id="a_node25"><a xlink:href="neuron__monitor_8h.html" target="_top" xlink:title="neuron_monitor.h">
<polygon fill="#ffffff" stroke="#000000" points="551,-230 551,-249 643,-249 643,-230 551,-230"/>
<text text-anchor="middle" x="597" y="-237" font-family="Helvetica,sans-Serif" font-size="10.00" fill="#000000">neuron_monitor.h</text>
</a>
</g>
</g>
<!-- Node10&#45;&gt;Node24 -->
<g id="edge31" class="edge">
<title>Node10&#45;&gt;Node24</title>
<path fill="none" stroke="#191970" d="M628.2188,-291.3906C622.874,-282.5068 614.7841,-269.0601 608.1789,-258.0811"/>
<polygon fill="#191970" stroke="#191970" points="611.0171,-256.0093 602.8628,-249.2449 605.0189,-259.618 611.0171,-256.0093"/>
</g>
<!-- Node25 -->
<g id="node26" class="node">
<title>Node25</title>
<g id="a_node26"><a xlink:href="connection__monitor_8h.html" target="_top" xlink:title="connection_monitor.h">
<polygon fill="#ffffff" stroke="#000000" points="1141,-230 1141,-249 1251,-249 1251,-230 1141,-230"/>
<text text-anchor="middle" x="1196" y="-237" font-family="Helvetica,sans-Serif" font-size="10.00" fill="#000000">connection_monitor.h</text>
</a>
</g>
</g>
<!-- Node10&#45;&gt;Node25 -->
<g id="edge35" class="edge">
<title>Node10&#45;&gt;Node25</title>
<path fill="none" stroke="#191970" d="M662.1609,-292.8094C665.1285,-292.1203 668.1149,-291.4981 671,-291 873.5171,-256.0388 929.0399,-287.2899 1132,-255 1138.2238,-254.0098 1144.7348,-252.7274 1151.1207,-251.3245"/>
<polygon fill="#191970" stroke="#191970" points="1152.037,-254.7051 1160.9934,-249.0454 1150.4624,-247.8844 1152.037,-254.7051"/>
</g>
<!-- Node26 -->
<g id="node27" class="node">
<title>Node26</title>
<g id="a_node27"><a xlink:href="group__monitor_8h.html" target="_top" xlink:title="group_monitor.h">
<polygon fill="#ffffff" stroke="#000000" points="803,-230 803,-249 889,-249 889,-230 803,-230"/>
<text text-anchor="middle" x="846" y="-237" font-family="Helvetica,sans-Serif" font-size="10.00" fill="#000000">group_monitor.h</text>
</a>
</g>
</g>
<!-- Node10&#45;&gt;Node26 -->
<g id="edge39" class="edge">
<title>Node10&#45;&gt;Node26</title>
<path fill="none" stroke="#191970" d="M662.0597,-293.0223C694.0255,-283.9132 747.8153,-268.522 794,-255 797.3564,-254.0173 800.8329,-252.9937 804.3241,-251.9616"/>
<polygon fill="#191970" stroke="#191970" points="805.5224,-255.257 814.1144,-249.0578 803.5319,-248.5459 805.5224,-255.257"/>
</g>
<!-- Node27 -->
<g id="node28" class="node">
<title>Node27</title>
<g id="a_node28"><a xlink:href="linear__algebra_8h.html" target="_top" xlink:title="linear_algebra.h">
<polygon fill="#ffffff" stroke="#000000" points="310.5,-168.5 310.5,-187.5 395.5,-187.5 395.5,-168.5 310.5,-168.5"/>
<text text-anchor="middle" x="353" y="-175.5" font-family="Helvetica,sans-Serif" font-size="10.00" fill="#000000">linear_algebra.h</text>
</a>
</g>
</g>
<!-- Node10&#45;&gt;Node27 -->
<g id="edge43" class="edge">
<title>Node10&#45;&gt;Node27</title>
<path fill="none" stroke="#191970" d="M605.898,-293.0221C602.58,-292.2535 599.2271,-291.555 596,-291 548.6398,-282.8543 197.5355,-290.3664 165,-255 122.3555,-208.645 230.6938,-189.493 300.1194,-182.1486"/>
<polygon fill="#191970" stroke="#191970" points="300.8775,-185.5902 310.4779,-181.1089 300.1783,-178.6252 300.8775,-185.5902"/>
</g>
<!-- Node28 -->
<g id="node29" class="node">
<title>Node28</title>
<polygon fill="#ffffff" stroke="#bfbfbf" points="327.5,-230 327.5,-249 384.5,-249 384.5,-230 327.5,-230"/>
<text text-anchor="middle" x="356" y="-237" font-family="Helvetica,sans-Serif" font-size="10.00" fill="#000000">pthread.h</text>
</g>
<!-- Node10&#45;&gt;Node28 -->
<g id="edge45" class="edge">
<title>Node10&#45;&gt;Node28</title>
<path fill="none" stroke="#191970" d="M605.84,-293.3181C602.5324,-292.4964 599.1978,-291.7045 596,-291 506.9432,-271.38 481.5947,-280.3619 394,-255 391.6902,-254.3312 389.329,-253.5694 386.97,-252.7507"/>
<polygon fill="#191970" stroke="#191970" points="388.015,-249.4043 377.423,-249.1572 385.5491,-255.9556 388.015,-249.4043"/>
</g>
<!-- Node29 -->
<g id="node30" class="node">
<title>Node29</title>
<polygon fill="#ffffff" stroke="#bfbfbf" points="403,-230 403,-249 463,-249 463,-230 403,-230"/>
<text text-anchor="middle" x="433" y="-237" font-family="Helvetica,sans-Serif" font-size="10.00" fill="#000000">sys/stat.h</text>
</g>
<!-- Node10&#45;&gt;Node29 -->
<g id="edge46" class="edge">
<title>Node10&#45;&gt;Node29</title>
<path fill="none" stroke="#191970" d="M605.9029,-293.393C566.4951,-282.66 496.8456,-263.4404 472,-255 469.87,-254.2764 467.6865,-253.5019 465.4934,-252.6993"/>
<polygon fill="#191970" stroke="#191970" points="466.5439,-249.3543 455.9528,-249.0711 464.0557,-255.8972 466.5439,-249.3543"/>
</g>
<!-- Node30 -->
<g id="node31" class="node">
<title>Node30</title>
<polygon fill="#ffffff" stroke="#bfbfbf" points="481.5,-230 481.5,-249 532.5,-249 532.5,-230 481.5,-230"/>
<text text-anchor="middle" x="507" y="-237" font-family="Helvetica,sans-Serif" font-size="10.00" fill="#000000">unistd.h</text>
</g>
<!-- Node10&#45;&gt;Node30 -->
<g id="edge47" class="edge">
<title>Node10&#45;&gt;Node30</title>
<path fill="none" stroke="#191970" d="M614.1563,-291.3906C593.1864,-281.2359 559.9056,-265.1196 535.9964,-253.5416"/>
<polygon fill="#191970" stroke="#191970" points="537.2301,-250.2502 526.7044,-249.0419 534.1792,-256.5504 537.2301,-250.2502"/>
</g>
<!-- Node17 -->
<g id="node18" class="node">
<title>Node17</title>
<polygon fill="#ffffff" stroke="#bfbfbf" points="625,-112.5 625,-131.5 677,-131.5 677,-112.5 625,-112.5"/>
<text text-anchor="middle" x="651" y="-119.5" font-family="Helvetica,sans-Serif" font-size="10.00" fill="#000000">ostream</text>
</g>
<!-- Node16&#45;&gt;Node17 -->
<g id="edge17" class="edge">
<title>Node16&#45;&gt;Node17</title>
<path fill="none" stroke="#191970" d="M697.2455,-168.2455C689.1352,-160.1352 677.4075,-148.4075 667.7919,-138.7919"/>
<polygon fill="#191970" stroke="#191970" points="670.1887,-136.2389 660.6427,-131.6427 665.2389,-141.1887 670.1887,-136.2389"/>
</g>
<!-- Node18 -->
<g id="node19" class="node">
<title>Node18</title>
<g id="a_node19"><a xlink:href="user__errors_8h.html" target="_top" xlink:title="user_errors.h">
<polygon fill="#ffffff" stroke="#000000" points="695,-112.5 695,-131.5 769,-131.5 769,-112.5 695,-112.5"/>
<text text-anchor="middle" x="732" y="-119.5" font-family="Helvetica,sans-Serif" font-size="10.00" fill="#000000">user_errors.h</text>
</a>
</g>
</g>
<!-- Node16&#45;&gt;Node18 -->
<g id="edge18" class="edge">
<title>Node16&#45;&gt;Node18</title>
<path fill="none" stroke="#191970" d="M711.3547,-168.2455C714.7244,-160.6973 719.493,-150.0158 723.5983,-140.8197"/>
<polygon fill="#191970" stroke="#191970" points="726.8147,-142.2009 727.6952,-131.6427 720.4227,-139.3473 726.8147,-142.2009"/>
</g>
<!-- Node18&#45;&gt;Node12 -->
<g id="edge21" class="edge">
<title>Node18&#45;&gt;Node12</title>
<path fill="none" stroke="#191970" d="M769.205,-115.3007C831.2839,-104.1225 954.8346,-81.8754 1012.2929,-71.5293"/>
<polygon fill="#191970" stroke="#191970" points="1013.0013,-74.9581 1022.2228,-69.7412 1011.7608,-68.0689 1013.0013,-74.9581"/>
</g>
<!-- Node18&#45;&gt;Node19 -->
<g id="edge19" class="edge">
<title>Node18&#45;&gt;Node19</title>
<path fill="none" stroke="#191970" d="M732,-112.2455C732,-104.9382 732,-94.6944 732,-85.7046"/>
<polygon fill="#191970" stroke="#191970" points="735.5001,-85.6426 732,-75.6427 728.5001,-85.6427 735.5001,-85.6426"/>
</g>
<!-- Node20 -->
<g id="node21" class="node">
<title>Node20</title>
<g id="a_node21"><a xlink:href="carlsim__conf__api_8h.html" target="_top" xlink:title="carlsim_conf_api.h">
<polygon fill="#ffffff" stroke="#000000" points="683,-.5 683,-19.5 781,-19.5 781,-.5 683,-.5"/>
<text text-anchor="middle" x="732" y="-7.5" font-family="Helvetica,sans-Serif" font-size="10.00" fill="#000000">carlsim_conf_api.h</text>
</a>
</g>
</g>
<!-- Node19&#45;&gt;Node20 -->
<g id="edge20" class="edge">
<title>Node19&#45;&gt;Node20</title>
<path fill="none" stroke="#191970" d="M732,-56.2455C732,-48.9382 732,-38.6944 732,-29.7046"/>
<polygon fill="#191970" stroke="#191970" points="735.5001,-29.6426 732,-19.6427 728.5001,-29.6427 735.5001,-29.6426"/>
</g>
<!-- Node22&#45;&gt;Node13 -->
<g id="edge26" class="edge">
<title>Node22&#45;&gt;Node13</title>
<path fill="none" stroke="#191970" d="M80.1793,-233.8471C104.6533,-230.5709 136.5809,-226.5937 165,-224 436.7843,-199.195 505.5861,-204.512 778,-188 822.1783,-185.3222 873.2102,-182.1125 905.5338,-180.065"/>
<polygon fill="#191970" stroke="#191970" points="905.9832,-183.5436 915.7416,-179.4177 905.5401,-176.5577 905.9832,-183.5436"/>
</g>
<!-- Node22&#45;&gt;Node19 -->
<g id="edge25" class="edge">
<title>Node22&#45;&gt;Node19</title>
<path fill="none" stroke="#191970" d="M40.8038,-229.7498C43.4043,-205.1852 53.9231,-140.6763 94,-112 141.6408,-77.9115 544.1764,-68.7662 684.2117,-66.6044"/>
<polygon fill="#191970" stroke="#191970" points="684.6643,-70.0982 694.611,-66.4494 684.5599,-63.0989 684.6643,-70.0982"/>
</g>
<!-- Node23&#45;&gt;Node13 -->
<g id="edge30" class="edge">
<title>Node23&#45;&gt;Node13</title>
<path fill="none" stroke="#191970" d="M772.625,-229.8906C808.9396,-218.496 869.177,-199.595 906.0585,-188.0225"/>
<polygon fill="#191970" stroke="#191970" points="907.3088,-191.2985 915.8023,-184.9651 905.2131,-184.6195 907.3088,-191.2985"/>
</g>
<!-- Node23&#45;&gt;Node16 -->
<g id="edge29" class="edge">
<title>Node23&#45;&gt;Node16</title>
<path fill="none" stroke="#191970" d="M736.5313,-229.8906C731.4754,-221.0068 723.8228,-207.5601 717.5746,-196.5811"/>
<polygon fill="#191970" stroke="#191970" points="720.534,-194.7048 712.5459,-187.7449 714.4502,-198.1672 720.534,-194.7048"/>
</g>
<!-- Node23&#45;&gt;Node19 -->
<g id="edge28" class="edge">
<title>Node23&#45;&gt;Node19</title>
<path fill="none" stroke="#191970" d="M751.512,-229.8647C760.3236,-220.2045 772.8235,-204.4403 778,-188 788.1444,-155.7815 790.9262,-143.2066 778,-112 773.1688,-100.3363 763.7863,-90.0881 754.7482,-82.243"/>
<polygon fill="#191970" stroke="#191970" points="756.667,-79.2942 746.6852,-75.7423 752.2734,-84.7436 756.667,-79.2942"/>
</g>
<!-- Node24&#45;&gt;Node13 -->
<g id="edge34" class="edge">
<title>Node24&#45;&gt;Node13</title>
<path fill="none" stroke="#191970" d="M643.3437,-231.1418C713.4326,-218.5012 844.6582,-194.8344 905.4947,-183.8624"/>
<polygon fill="#191970" stroke="#191970" points="906.4431,-187.2479 915.6631,-182.0285 905.2006,-180.359 906.4431,-187.2479"/>
</g>
<!-- Node24&#45;&gt;Node16 -->
<g id="edge33" class="edge">
<title>Node24&#45;&gt;Node16</title>
<path fill="none" stroke="#191970" d="M614.1875,-229.8906C632.1082,-219.8713 660.4095,-204.0483 681.0523,-192.5071"/>
<polygon fill="#191970" stroke="#191970" points="682.9128,-195.4769 689.9332,-187.5419 679.4967,-189.367 682.9128,-195.4769"/>
</g>
<!-- Node24&#45;&gt;Node19 -->
<g id="edge32" class="edge">
<title>Node24&#45;&gt;Node19</title>
<path fill="none" stroke="#191970" d="M595.4755,-229.9449C592.3624,-206.9096 587.7666,-147.593 616,-112 632.8031,-90.8168 660.7928,-79.355 685.068,-73.1705"/>
<polygon fill="#191970" stroke="#191970" points="685.8997,-76.5706 694.8513,-70.9032 684.3193,-69.7514 685.8997,-76.5706"/>
</g>
<!-- Node25&#45;&gt;Node13 -->
<g id="edge37" class="edge">
<title>Node25&#45;&gt;Node13</title>
<path fill="none" stroke="#191970" d="M1156.7454,-229.9615C1148.5691,-227.9836 1140.0046,-225.9183 1132,-224 1075.0782,-210.3588 1008.7081,-194.6678 970.2086,-185.5872"/>
<polygon fill="#191970" stroke="#191970" points="970.6561,-182.0968 960.1198,-183.2085 969.0497,-188.91 970.6561,-182.0968"/>
</g>
<!-- Node25&#45;&gt;Node15 -->
<g id="edge38" class="edge">
<title>Node25&#45;&gt;Node15</title>
<path fill="none" stroke="#191970" d="M1221.625,-229.8906C1249.4263,-219.4652 1293.9844,-202.7559 1324.9994,-191.1252"/>
<polygon fill="#191970" stroke="#191970" points="1326.4206,-194.3303 1334.5549,-187.5419 1323.9627,-187.776 1326.4206,-194.3303"/>
</g>
<!-- Node25&#45;&gt;Node19 -->
<g id="edge36" class="edge">
<title>Node25&#45;&gt;Node19</title>
<path fill="none" stroke="#191970" d="M1188.1323,-229.5542C1175.3204,-214.0394 1148.4082,-184.1821 1119,-168 1006.6445,-106.1754 855.1365,-80.4788 779.3342,-70.952"/>
<polygon fill="#191970" stroke="#191970" points="779.5021,-67.4467 769.1525,-69.713 778.6565,-74.3955 779.5021,-67.4467"/>
</g>
<!-- Node26&#45;&gt;Node13 -->
<g id="edge42" class="edge">
<title>Node26&#45;&gt;Node13</title>
<path fill="none" stroke="#191970" d="M860.375,-229.8906C875.0931,-220.0519 898.1832,-204.6167 915.3589,-193.1351"/>
<polygon fill="#191970" stroke="#191970" points="917.3575,-196.0091 923.7259,-187.5419 913.4673,-190.1896 917.3575,-196.0091"/>
</g>
<!-- Node26&#45;&gt;Node16 -->
<g id="edge41" class="edge">
<title>Node26&#45;&gt;Node16</title>
<path fill="none" stroke="#191970" d="M824.2813,-229.8906C801.126,-219.6457 764.2559,-203.3326 738.0409,-191.7339"/>
<polygon fill="#191970" stroke="#191970" points="739.1273,-188.3874 728.5662,-187.5419 736.295,-194.7888 739.1273,-188.3874"/>
</g>
<!-- Node26&#45;&gt;Node19 -->
<g id="edge40" class="edge">
<title>Node26&#45;&gt;Node19</title>
<path fill="none" stroke="#191970" d="M844.1985,-229.9362C839.5646,-207.3827 825.4724,-149.9229 796,-112 786.2028,-99.3937 772.0413,-88.723 759.529,-80.8422"/>
<polygon fill="#191970" stroke="#191970" points="761.1725,-77.7468 750.7956,-75.6091 757.5745,-83.7513 761.1725,-77.7468"/>
</g>
<!-- Node27&#45;&gt;Node17 -->
<g id="edge44" class="edge">
<title>Node27&#45;&gt;Node17</title>
<path fill="none" stroke="#191970" d="M395.6961,-169.9766C454.5101,-158.9243 559.4324,-139.2073 614.6787,-128.8255"/>
<polygon fill="#191970" stroke="#191970" points="615.5343,-132.226 624.7158,-126.9393 614.2414,-125.3465 615.5343,-132.226"/>
</g>
<!-- Node34 -->
<g id="node35" class="node">
<title>Node34</title>
<g id="a_node35"><a xlink:href="cuda__version__control_8h.html" target="_top" xlink:title="cuda_version_control.h">
<polygon fill="#ffffff" stroke="#000000" points="1536.5,-230 1536.5,-249 1653.5,-249 1653.5,-230 1536.5,-230"/>
<text text-anchor="middle" x="1595" y="-237" font-family="Helvetica,sans-Serif" font-size="10.00" fill="#000000">cuda_version_control.h</text>
</a>
</g>
</g>
<!-- Node33&#45;&gt;Node34 -->
<g id="edge51" class="edge">
<title>Node33&#45;&gt;Node34</title>
<path fill="none" stroke="#191970" d="M1406.8438,-291.3906C1445.6286,-280.6944 1508.3977,-263.3836 1550.6559,-251.7294"/>
<polygon fill="#191970" stroke="#191970" points="1551.6913,-255.0746 1560.4009,-249.0419 1549.8303,-248.3265 1551.6913,-255.0746"/>
</g>
<!-- Node37 -->
<g id="node38" class="node">
<title>Node37</title>
<polygon fill="#ffffff" stroke="#bfbfbf" points="1345,-230 1345,-249 1399,-249 1399,-230 1345,-230"/>
<text text-anchor="middle" x="1372" y="-237" font-family="Helvetica,sans-Serif" font-size="10.00" fill="#000000">curand.h</text>
</g>
<!-- Node33&#45;&gt;Node37 -->
<g id="edge54" class="edge">
<title>Node33&#45;&gt;Node37</title>
<path fill="none" stroke="#191970" d="M1372,-291.3906C1372,-282.8657 1372,-270.1392 1372,-259.4235"/>
<polygon fill="#191970" stroke="#191970" points="1375.5001,-259.2448 1372,-249.2449 1368.5001,-259.2449 1375.5001,-259.2448"/>
</g>
<!-- Node35 -->
<g id="node36" class="node">
<title>Node35</title>
<polygon fill="#ffffff" stroke="#bfbfbf" points="1530,-168.5 1530,-187.5 1576,-187.5 1576,-168.5 1530,-168.5"/>
<text text-anchor="middle" x="1553" y="-175.5" font-family="Helvetica,sans-Serif" font-size="10.00" fill="#000000">cuda.h</text>
</g>
<!-- Node34&#45;&gt;Node35 -->
<g id="edge52" class="edge">
<title>Node34&#45;&gt;Node35</title>
<path fill="none" stroke="#191970" d="M1588.4375,-229.8906C1582.3092,-220.917 1573.0015,-207.2879 1565.4628,-196.2491"/>
<polygon fill="#191970" stroke="#191970" points="1568.185,-194.029 1559.655,-187.7449 1562.4044,-197.9768 1568.185,-194.029"/>
</g>
<!-- Node36 -->
<g id="node37" class="node">
<title>Node36</title>
<polygon fill="#ffffff" stroke="#bfbfbf" points="1594.5,-168.5 1594.5,-187.5 1677.5,-187.5 1677.5,-168.5 1594.5,-168.5"/>
<text text-anchor="middle" x="1636" y="-175.5" font-family="Helvetica,sans-Serif" font-size="10.00" fill="#000000">cuda_runtime.h</text>
</g>
<!-- Node34&#45;&gt;Node36 -->
<g id="edge53" class="edge">
<title>Node34&#45;&gt;Node36</title>
<path fill="none" stroke="#191970" d="M1601.4063,-229.8906C1607.3886,-220.917 1616.4747,-207.2879 1623.8339,-196.2491"/>
<polygon fill="#191970" stroke="#191970" points="1626.8686,-198.0068 1629.5034,-187.7449 1621.0442,-194.1239 1626.8686,-198.0068"/>
</g>
<!-- Node38&#45;&gt;Node13 -->
<g id="edge58" class="edge">
<title>Node38&#45;&gt;Node13</title>
<path fill="none" stroke="#191970" d="M1417.3823,-225.8343C1414.2184,-225.1633 1411.0723,-224.5438 1408,-224 1365.0609,-216.3999 1068.8902,-189.6625 970.0381,-180.8447"/>
<polygon fill="#191970" stroke="#191970" points="970.3113,-177.3553 960.0401,-179.954 969.69,-184.3276 970.3113,-177.3553"/>
</g>
<!-- Node38&#45;&gt;Node15 -->
<g id="edge59" class="edge">
<title>Node38&#45;&gt;Node15</title>
<path fill="none" stroke="#191970" d="M1441.5802,-224.4554C1424.5086,-214.734 1402.4098,-202.15 1385.5191,-192.5317"/>
<polygon fill="#191970" stroke="#191970" points="1387.158,-189.4373 1376.7362,-187.5303 1383.6941,-195.5202 1387.158,-189.4373"/>
</g>
<!-- Node39 -->
<g id="node40" class="node">
<title>Node39</title>
<polygon fill="#ffffff" stroke="#bfbfbf" points="1064,-168.5 1064,-187.5 1110,-187.5 1110,-168.5 1064,-168.5"/>
<text text-anchor="middle" x="1087" y="-175.5" font-family="Helvetica,sans-Serif" font-size="10.00" fill="#000000">stdio.h</text>
</g>
<!-- Node38&#45;&gt;Node39 -->
<g id="edge57" class="edge">
<title>Node38&#45;&gt;Node39</title>
<path fill="none" stroke="#191970" d="M1417.3518,-225.9962C1414.1955,-225.285 1411.0593,-224.6124 1408,-224 1303.8027,-203.1417 1178.7523,-188.0346 1120.244,-181.537"/>
<polygon fill="#191970" stroke="#191970" points="1120.4359,-178.0372 1110.1136,-180.4245 1119.6717,-184.9953 1120.4359,-178.0372"/>
</g>
<!-- Node40&#45;&gt;Node13 -->
<g id="edge63" class="edge">
<title>Node40&#45;&gt;Node13</title>
<path fill="none" stroke="#191970" d="M1047.6875,-229.8906C1026.1269,-219.6908 991.8522,-203.4763 967.3556,-191.8875"/>
<polygon fill="#191970" stroke="#191970" points="968.7061,-188.6545 958.1699,-187.5419 965.7126,-194.9822 968.7061,-188.6545"/>
</g>
<!-- Node40&#45;&gt;Node16 -->
<g id="edge61" class="edge">
<title>Node40&#45;&gt;Node16</title>
<path fill="none" stroke="#191970" d="M1012.7789,-230.0925C948.2074,-219.0921 841.4281,-200.9012 772.6681,-189.1872"/>
<polygon fill="#191970" stroke="#191970" points="773.2544,-185.7368 762.8086,-187.5076 772.0788,-192.6373 773.2544,-185.7368"/>
</g>
<!-- Node40&#45;&gt;Node39 -->
<g id="edge62" class="edge">
<title>Node40&#45;&gt;Node39</title>
<path fill="none" stroke="#191970" d="M1070.9688,-229.8906C1073.6302,-221.276 1077.6171,-208.3708 1080.9491,-197.5858"/>
<polygon fill="#191970" stroke="#191970" points="1084.3816,-198.3324 1083.9894,-187.7449 1077.6935,-196.2661 1084.3816,-198.3324"/>
</g>
</g>
</svg>
