<?xml version="1.0" encoding="UTF-8" standalone="no"?>
<!DOCTYPE svg PUBLIC "-//W3C//DTD SVG 1.1//EN"
 "http://www.w3.org/Graphics/SVG/1.1/DTD/svg11.dtd">
<!-- Generated by graphviz version 2.40.1 (20161225.0304)
 -->
<!-- Title: PTI.h Pages: 1 -->
<svg width="354pt" height="196pt"
 viewBox="0.00 0.00 353.50 196.00" xmlns="http://www.w3.org/2000/svg" xmlns:xlink="http://www.w3.org/1999/xlink">
<g id="graph0" class="graph" transform="scale(1 1) rotate(0) translate(4 192)">
<title>PTI.h</title>
<polygon fill="#ffffff" stroke="transparent" points="-4,4 -4,-192 349.5,-192 349.5,4 -4,4"/>
<!-- Node0 -->
<g id="node1" class="node">
<title>Node0</title>
<polygon fill="#bfbfbf" stroke="#000000" points="194,-168.5 194,-187.5 235,-187.5 235,-168.5 194,-168.5"/>
<text text-anchor="middle" x="214.5" y="-175.5" font-family="Helvetica,sans-Serif" font-size="10.00" fill="#000000">PTI.h</text>
</g>
<!-- Node1 -->
<g id="node2" class="node">
<title>Node1</title>
<g id="a_node2"><a xlink:href="Experiment_8h.html" target="_top" xlink:title="Experiment.h">
<polygon fill="#ffffff" stroke="#000000" points="69.5,-112.5 69.5,-131.5 143.5,-131.5 143.5,-112.5 69.5,-112.5"/>
<text text-anchor="middle" x="106.5" y="-119.5" font-family="Helvetica,sans-Serif" font-size="10.00" fill="#000000">Experiment.h</text>
</a>
</g>
</g>
<!-- Node0&#45;&gt;Node1 -->
<g id="edge1" class="edge">
<title>Node0&#45;&gt;Node1</title>
<path fill="none" stroke="#191970" d="M195.6878,-168.2455C178.6527,-159.4125 153.3425,-146.2887 134.0319,-136.2758"/>
<polygon fill="#191970" stroke="#191970" points="135.5853,-133.1388 125.0966,-131.6427 132.363,-139.353 135.5853,-133.1388"/>
</g>
<!-- Node6 -->
<g id="node7" class="node">
<title>Node6</title>
<polygon fill="#ffffff" stroke="#bfbfbf" points="162,-112.5 162,-131.5 203,-131.5 203,-112.5 162,-112.5"/>
<text text-anchor="middle" x="182.5" y="-119.5" font-family="Helvetica,sans-Serif" font-size="10.00" fill="#000000">string</text>
</g>
<!-- Node0&#45;&gt;Node6 -->
<g id="edge6" class="edge">
<title>Node0&#45;&gt;Node6</title>
<path fill="none" stroke="#191970" d="M208.926,-168.2455C204.5669,-160.617 198.3789,-149.7881 193.0867,-140.5267"/>
<polygon fill="#191970" stroke="#191970" points="196.0104,-138.5886 188.0101,-131.6427 189.9327,-142.0616 196.0104,-138.5886"/>
</g>
<!-- Node7 -->
<g id="node8" class="node">
<title>Node7</title>
<polygon fill="#ffffff" stroke="#bfbfbf" points="221.5,-112.5 221.5,-131.5 273.5,-131.5 273.5,-112.5 221.5,-112.5"/>
<text text-anchor="middle" x="247.5" y="-119.5" font-family="Helvetica,sans-Serif" font-size="10.00" fill="#000000">memory</text>
</g>
<!-- Node0&#45;&gt;Node7 -->
<g id="edge7" class="edge">
<title>Node0&#45;&gt;Node7</title>
<path fill="none" stroke="#191970" d="M220.2482,-168.2455C224.7435,-160.617 231.1248,-149.7881 236.5825,-140.5267"/>
<polygon fill="#191970" stroke="#191970" points="239.7561,-142.035 241.8177,-131.6427 233.7253,-138.4811 239.7561,-142.035"/>
</g>
<!-- Node8 -->
<g id="node9" class="node">
<title>Node8</title>
<polygon fill="#ffffff" stroke="#bfbfbf" points="291.5,-112.5 291.5,-131.5 345.5,-131.5 345.5,-112.5 291.5,-112.5"/>
<text text-anchor="middle" x="318.5" y="-119.5" font-family="Helvetica,sans-Serif" font-size="10.00" fill="#000000">iostream</text>
</g>
<!-- Node0&#45;&gt;Node8 -->
<g id="edge8" class="edge">
<title>Node0&#45;&gt;Node8</title>
<path fill="none" stroke="#191970" d="M232.6154,-168.2455C248.945,-159.4527 273.171,-146.4079 291.7339,-136.4125"/>
<polygon fill="#191970" stroke="#191970" points="293.4468,-139.4654 300.5922,-131.6427 290.1281,-133.3021 293.4468,-139.4654"/>
</g>
<!-- Node2 -->
<g id="node3" class="node">
<title>Node2</title>
<g id="a_node3"><a xlink:href="ParameterInstances_8h.html" target="_top" xlink:title="ParameterInstances.h">
<polygon fill="#ffffff" stroke="#000000" points="0,-56.5 0,-75.5 113,-75.5 113,-56.5 0,-56.5"/>
<text text-anchor="middle" x="56.5" y="-63.5" font-family="Helvetica,sans-Serif" font-size="10.00" fill="#000000">ParameterInstances.h</text>
</a>
</g>
</g>
<!-- Node1&#45;&gt;Node2 -->
<g id="edge2" class="edge">
<title>Node1&#45;&gt;Node2</title>
<path fill="none" stroke="#191970" d="M97.7907,-112.2455C90.6927,-104.2958 80.4916,-92.8706 72.005,-83.3656"/>
<polygon fill="#191970" stroke="#191970" points="74.3805,-80.771 65.1095,-75.6427 69.1589,-85.4331 74.3805,-80.771"/>
</g>
<!-- Node5 -->
<g id="node6" class="node">
<title>Node5</title>
<polygon fill="#ffffff" stroke="#bfbfbf" points="131.5,-56.5 131.5,-75.5 183.5,-75.5 183.5,-56.5 131.5,-56.5"/>
<text text-anchor="middle" x="157.5" y="-63.5" font-family="Helvetica,sans-Serif" font-size="10.00" fill="#000000">ostream</text>
</g>
<!-- Node1&#45;&gt;Node5 -->
<g id="edge5" class="edge">
<title>Node1&#45;&gt;Node5</title>
<path fill="none" stroke="#191970" d="M115.3835,-112.2455C122.6966,-104.2155 133.2391,-92.6394 141.9467,-83.0781"/>
<polygon fill="#191970" stroke="#191970" points="144.5727,-85.3928 148.7183,-75.6427 139.3972,-80.6795 144.5727,-85.3928"/>
</g>
<!-- Node3 -->
<g id="node4" class="node">
<title>Node3</title>
<polygon fill="#ffffff" stroke="#bfbfbf" points="0,-.5 0,-19.5 49,-19.5 49,-.5 0,-.5"/>
<text text-anchor="middle" x="24.5" y="-7.5" font-family="Helvetica,sans-Serif" font-size="10.00" fill="#000000">istream</text>
</g>
<!-- Node2&#45;&gt;Node3 -->
<g id="edge3" class="edge">
<title>Node2&#45;&gt;Node3</title>
<path fill="none" stroke="#191970" d="M50.926,-56.2455C46.5669,-48.617 40.3789,-37.7881 35.0867,-28.5267"/>
<polygon fill="#191970" stroke="#191970" points="38.0104,-26.5886 30.0101,-19.6427 31.9327,-30.0616 38.0104,-26.5886"/>
</g>
<!-- Node4 -->
<g id="node5" class="node">
<title>Node4</title>
<polygon fill="#ffffff" stroke="#bfbfbf" points="67.5,-.5 67.5,-19.5 111.5,-19.5 111.5,-.5 67.5,-.5"/>
<text text-anchor="middle" x="89.5" y="-7.5" font-family="Helvetica,sans-Serif" font-size="10.00" fill="#000000">vector</text>
</g>
<!-- Node2&#45;&gt;Node4 -->
<g id="edge4" class="edge">
<title>Node2&#45;&gt;Node4</title>
<path fill="none" stroke="#191970" d="M62.2482,-56.2455C66.7435,-48.617 73.1248,-37.7881 78.5825,-28.5267"/>
<polygon fill="#191970" stroke="#191970" points="81.7561,-30.035 83.8177,-19.6427 75.7253,-26.4811 81.7561,-30.035"/>
</g>
</g>
</svg>
