<?xml version="1.0" encoding="UTF-8" standalone="no"?>
<!DOCTYPE svg PUBLIC "-//W3C//DTD SVG 1.1//EN"
 "http://www.w3.org/Graphics/SVG/1.1/DTD/svg11.dtd">
<!-- Generated by graphviz version 2.40.1 (20161225.0304)
 -->
<!-- Title: PTI.cpp Pages: 1 -->
<!--zoomable 252 -->
<svg id="main" version="1.1" xmlns="http://www.w3.org/2000/svg" xmlns:xlink="http://www.w3.org/1999/xlink" xml:space="preserve" onload="init(evt)">
<style type="text/css"><![CDATA[
.edge:hover path { stroke: red; }
.edge:hover polygon { stroke: red; fill: red; }
]]></style>
<script type="text/javascript"><![CDATA[
var edges = document.getElementsByTagName('g');
if (edges && edges.length) {
  for (var i=0;i<edges.length;i++) {
    if (edges[i].id.substr(0,4)=='edge') {
      edges[i].setAttribute('class','edge');
    }
  }
}
]]></script>
        <defs>
                <circle id="rim" cx="0" cy="0" r="7"/>
                <circle id="rim2" cx="0" cy="0" r="3.5"/>
                <g id="zoomPlus">
                        <use xlink:href="#rim" fill="#404040">
                                <set attributeName="fill" to="#808080" begin="zoomplus.mouseover" end="zoomplus.mouseout"/>
                        </use>
                        <path d="M-4,0h8M0,-4v8" fill="none" stroke="white" stroke-width="1.5" pointer-events="none"/>
                </g>
                <g id="zoomMin">
                        <use xlink:href="#rim" fill="#404040">
                                <set attributeName="fill" to="#808080" begin="zoomminus.mouseover" end="zoomminus.mouseout"/>
                        </use>
                        <path d="M-4,0h8" fill="none" stroke="white" stroke-width="1.5" pointer-events="none"/>
                </g>
                <g id="dirArrow">
                        <path fill="none" stroke="white" stroke-width="1.5" d="M0,-3.0v7 M-2.5,-0.5L0,-3.0L2.5,-0.5"/>
                </g>
               <g id="resetDef">
                       <use xlink:href="#rim2" fill="#404040">
                               <set attributeName="fill" to="#808080" begin="reset.mouseover" end="reset.mouseout"/>
                       </use>
               </g>
        </defs>

<script type="text/javascript">
var viewWidth = 700;
var viewHeight = 252;
var sectionId = 'dynsection-0';
</script>
<script xlink:href="svgpan.js"/>
<svg id="graph" class="graph">
<g id="viewport">
<title>PTI.cpp</title>
<polygon fill="#ffffff" stroke="transparent" points="-4,4 -4,-248 696,-248 696,4 -4,4"/>
<!-- Node0 -->
<g id="node1" class="node">
<title>Node0</title>
<polygon fill="#bfbfbf" stroke="#000000" points="300,-224.5 300,-243.5 351,-243.5 351,-224.5 300,-224.5"/>
<text text-anchor="middle" x="325.5" y="-231.5" font-family="Helvetica,sans-Serif" font-size="10.00" fill="#000000">PTI.cpp</text>
</g>
<!-- Node1 -->
<g id="node2" class="node">
<title>Node1</title>
<g id="a_node2"><a xlink:href="PTI_8h.html" target="_top" xlink:title="PTI.h">
<polygon fill="#ffffff" stroke="#000000" points="165,-168.5 165,-187.5 206,-187.5 206,-168.5 165,-168.5"/>
<text text-anchor="middle" x="185.5" y="-175.5" font-family="Helvetica,sans-Serif" font-size="10.00" fill="#000000">PTI.h</text>
</a>
</g>
</g>
<!-- Node0&#45;&gt;Node1 -->
<g id="edge1" class="edge">
<title>Node0&#45;&gt;Node1</title>
<path fill="none" stroke="#191970" d="M301.4331,-224.3733C277.6909,-214.8764 241.3266,-200.3306 215.6664,-190.0666"/>
<polygon fill="#191970" stroke="#191970" points="216.6528,-186.6916 206.0682,-186.2273 214.053,-193.1909 216.6528,-186.6916"/>
</g>
<!-- Node3 -->
<g id="node4" class="node">
<title>Node3</title>
<g id="a_node4"><a xlink:href="ParameterInstances_8h.html" target="_top" xlink:title="ParameterInstances.h">
<polygon fill="#ffffff" stroke="#000000" points="0,-56.5 0,-75.5 113,-75.5 113,-56.5 0,-56.5"/>
<text text-anchor="middle" x="56.5" y="-63.5" font-family="Helvetica,sans-Serif" font-size="10.00" fill="#000000">ParameterInstances.h</text>
</a>
</g>
</g>
<!-- Node0&#45;&gt;Node3 -->
<g id="edge10" class="edge">
<title>Node0&#45;&gt;Node3</title>
<path fill="none" stroke="#191970" d="M299.9254,-232.1478C260.648,-228.4353 183.9931,-217.7056 126.5,-188 93.2173,-170.8034 80.6301,-165.3169 63.5,-132 56.1731,-117.7497 54.7407,-99.506 54.961,-85.8124"/>
<polygon fill="#191970" stroke="#191970" points="58.4691,-85.7206 55.4416,-75.5675 51.4768,-85.3925 58.4691,-85.7206"/>
</g>
<!-- Node7 -->
<g id="node8" class="node">
<title>Node7</title>
<polygon fill="#ffffff" stroke="#bfbfbf" points="73,-112.5 73,-131.5 114,-131.5 114,-112.5 73,-112.5"/>
<text text-anchor="middle" x="93.5" y="-119.5" font-family="Helvetica,sans-Serif" font-size="10.00" fill="#000000">string</text>
</g>
<!-- Node0&#45;&gt;Node7 -->
<g id="edge18" class="edge">
<title>Node0&#45;&gt;Node7</title>
<path fill="none" stroke="#191970" d="M299.8865,-231.48C265.0493,-227.1114 201.7741,-215.7663 155.5,-188 135.1823,-175.8086 117.298,-155.0955 106.0243,-140.1207"/>
<polygon fill="#191970" stroke="#191970" points="108.5989,-137.7088 99.8965,-131.6658 102.931,-141.8168 108.5989,-137.7088"/>
</g>
<!-- Node8 -->
<g id="node9" class="node">
<title>Node8</title>
<polygon fill="#ffffff" stroke="#bfbfbf" points="224.5,-112.5 224.5,-131.5 276.5,-131.5 276.5,-112.5 224.5,-112.5"/>
<text text-anchor="middle" x="250.5" y="-119.5" font-family="Helvetica,sans-Serif" font-size="10.00" fill="#000000">memory</text>
</g>
<!-- Node0&#45;&gt;Node8 -->
<g id="edge16" class="edge">
<title>Node0&#45;&gt;Node8</title>
<path fill="none" stroke="#191970" d="M316.2038,-224.2437C307.8818,-215.2415 295.6214,-201.2959 286.5,-188 276.1445,-172.9052 266.3304,-154.5405 259.5727,-141.0193"/>
<polygon fill="#191970" stroke="#191970" points="262.5806,-139.203 255.0424,-131.758 256.2926,-142.2789 262.5806,-139.203"/>
</g>
<!-- Node9 -->
<g id="node10" class="node">
<title>Node9</title>
<polygon fill="#ffffff" stroke="#bfbfbf" points="294.5,-112.5 294.5,-131.5 348.5,-131.5 348.5,-112.5 294.5,-112.5"/>
<text text-anchor="middle" x="321.5" y="-119.5" font-family="Helvetica,sans-Serif" font-size="10.00" fill="#000000">iostream</text>
</g>
<!-- Node0&#45;&gt;Node9 -->
<g id="edge15" class="edge">
<title>Node0&#45;&gt;Node9</title>
<path fill="none" stroke="#191970" d="M315.8508,-224.4346C307.85,-215.7723 297.0738,-202.2221 292.5,-188 287.0829,-171.1556 296.4932,-152.7873 306.0063,-139.7154"/>
<polygon fill="#191970" stroke="#191970" points="308.97,-141.6103 312.4277,-131.5956 303.4794,-137.2682 308.97,-141.6103"/>
</g>
<!-- Node10 -->
<g id="node11" class="node">
<title>Node10</title>
<polygon fill="#ffffff" stroke="#bfbfbf" points="301,-168.5 301,-187.5 350,-187.5 350,-168.5 301,-168.5"/>
<text text-anchor="middle" x="325.5" y="-175.5" font-family="Helvetica,sans-Serif" font-size="10.00" fill="#000000">cassert</text>
</g>
<!-- Node0&#45;&gt;Node10 -->
<g id="edge11" class="edge">
<title>Node0&#45;&gt;Node10</title>
<path fill="none" stroke="#191970" d="M325.5,-224.2455C325.5,-216.9382 325.5,-206.6944 325.5,-197.7046"/>
<polygon fill="#191970" stroke="#191970" points="329.0001,-197.6426 325.5,-187.6427 322.0001,-197.6427 329.0001,-197.6426"/>
</g>
<!-- Node11 -->
<g id="node12" class="node">
<title>Node11</title>
<polygon fill="#ffffff" stroke="#bfbfbf" points="368,-168.5 368,-187.5 413,-187.5 413,-168.5 368,-168.5"/>
<text text-anchor="middle" x="390.5" y="-175.5" font-family="Helvetica,sans-Serif" font-size="10.00" fill="#000000">cstdlib</text>
</g>
<!-- Node0&#45;&gt;Node11 -->
<g id="edge12" class="edge">
<title>Node0&#45;&gt;Node11</title>
<path fill="none" stroke="#191970" d="M336.8221,-224.2455C346.4223,-215.9746 360.3892,-203.9416 371.6695,-194.2232"/>
<polygon fill="#191970" stroke="#191970" points="374.016,-196.8214 379.3076,-187.6427 369.447,-191.5182 374.016,-196.8214"/>
</g>
<!-- Node12 -->
<g id="node13" class="node">
<title>Node12</title>
<polygon fill="#ffffff" stroke="#bfbfbf" points="431.5,-168.5 431.5,-187.5 477.5,-187.5 477.5,-168.5 431.5,-168.5"/>
<text text-anchor="middle" x="454.5" y="-175.5" font-family="Helvetica,sans-Serif" font-size="10.00" fill="#000000">cstring</text>
</g>
<!-- Node0&#45;&gt;Node12 -->
<g id="edge13" class="edge">
<title>Node0&#45;&gt;Node12</title>
<path fill="none" stroke="#191970" d="M347.6759,-224.3733C368.4766,-215.3435 399.7917,-201.7494 423.1458,-191.6111"/>
<polygon fill="#191970" stroke="#191970" points="424.8343,-194.6938 432.6135,-187.5011 422.0468,-188.2727 424.8343,-194.6938"/>
</g>
<!-- Node13 -->
<g id="node14" class="node">
<title>Node13</title>
<polygon fill="#ffffff" stroke="#bfbfbf" points="495.5,-168.5 495.5,-187.5 545.5,-187.5 545.5,-168.5 495.5,-168.5"/>
<text text-anchor="middle" x="520.5" y="-175.5" font-family="Helvetica,sans-Serif" font-size="10.00" fill="#000000">fstream</text>
</g>
<!-- Node0&#45;&gt;Node13 -->
<g id="edge14" class="edge">
<title>Node0&#45;&gt;Node13</title>
<path fill="none" stroke="#191970" d="M351.1711,-226.7317C381.0973,-218.2442 432.3002,-203.6782 485.3358,-188.3235"/>
<polygon fill="#191970" stroke="#191970" points="486.625,-191.594 495.2554,-185.4485 484.6763,-184.8706 486.625,-191.594"/>
</g>
<!-- Node14 -->
<g id="node15" class="node">
<title>Node14</title>
<polygon fill="#ffffff" stroke="#bfbfbf" points="564,-168.5 564,-187.5 623,-187.5 623,-168.5 564,-168.5"/>
<text text-anchor="middle" x="593.5" y="-175.5" font-family="Helvetica,sans-Serif" font-size="10.00" fill="#000000">stdexcept</text>
</g>
<!-- Node0&#45;&gt;Node14 -->
<g id="edge17" class="edge">
<title>Node0&#45;&gt;Node14</title>
<path fill="none" stroke="#191970" d="M351.009,-229.3312C391.6619,-221.7929 473.8623,-206.1525 553.5248,-188.1309"/>
<polygon fill="#191970" stroke="#191970" points="554.7563,-191.4401 563.7288,-185.806 553.2012,-184.615 554.7563,-191.4401"/>
</g>
<!-- Node15 -->
<g id="node16" class="node">
<title>Node15</title>
<polygon fill="#ffffff" stroke="#bfbfbf" points="641,-168.5 641,-187.5 692,-187.5 692,-168.5 641,-168.5"/>
<text text-anchor="middle" x="666.5" y="-175.5" font-family="Helvetica,sans-Serif" font-size="10.00" fill="#000000">typeinfo</text>
</g>
<!-- Node0&#45;&gt;Node15 -->
<g id="edge19" class="edge">
<title>Node0&#45;&gt;Node15</title>
<path fill="none" stroke="#191970" d="M351.1892,-231.3584C402.6401,-225.8113 522.083,-211.6458 631.1346,-188.075"/>
<polygon fill="#191970" stroke="#191970" points="631.9605,-191.4771 640.9779,-185.9151 630.4601,-184.6398 631.9605,-191.4771"/>
</g>
<!-- Node2 -->
<g id="node3" class="node">
<title>Node2</title>
<g id="a_node3"><a xlink:href="Experiment_8h.html" target="_top" xlink:title="Experiment.h">
<polygon fill="#ffffff" stroke="#000000" points="132.5,-112.5 132.5,-131.5 206.5,-131.5 206.5,-112.5 132.5,-112.5"/>
<text text-anchor="middle" x="169.5" y="-119.5" font-family="Helvetica,sans-Serif" font-size="10.00" fill="#000000">Experiment.h</text>
</a>
</g>
</g>
<!-- Node1&#45;&gt;Node2 -->
<g id="edge2" class="edge">
<title>Node1&#45;&gt;Node2</title>
<path fill="none" stroke="#191970" d="M182.713,-168.2455C180.6023,-160.8579 177.634,-150.4689 175.0453,-141.4087"/>
<polygon fill="#191970" stroke="#191970" points="178.3677,-140.2964 172.255,-131.6427 171.637,-142.2195 178.3677,-140.2964"/>
</g>
<!-- Node1&#45;&gt;Node7 -->
<g id="edge7" class="edge">
<title>Node1&#45;&gt;Node7</title>
<path fill="none" stroke="#191970" d="M169.4748,-168.2455C155.3592,-159.6534 134.5737,-147.0014 118.3101,-137.1018"/>
<polygon fill="#191970" stroke="#191970" points="119.7034,-133.8525 109.3415,-131.6427 116.0637,-139.8319 119.7034,-133.8525"/>
</g>
<!-- Node1&#45;&gt;Node8 -->
<g id="edge8" class="edge">
<title>Node1&#45;&gt;Node8</title>
<path fill="none" stroke="#191970" d="M196.8221,-168.2455C206.4223,-159.9746 220.3892,-147.9416 231.6695,-138.2232"/>
<polygon fill="#191970" stroke="#191970" points="234.016,-140.8214 239.3076,-131.6427 229.447,-135.5182 234.016,-140.8214"/>
</g>
<!-- Node1&#45;&gt;Node9 -->
<g id="edge9" class="edge">
<title>Node1&#45;&gt;Node9</title>
<path fill="none" stroke="#191970" d="M206.1555,-169.4948C228.1628,-160.433 263.3042,-145.963 289.0214,-135.3735"/>
<polygon fill="#191970" stroke="#191970" points="290.4551,-138.5683 298.3693,-131.5244 287.7898,-132.0956 290.4551,-138.5683"/>
</g>
<!-- Node2&#45;&gt;Node3 -->
<g id="edge3" class="edge">
<title>Node2&#45;&gt;Node3</title>
<path fill="none" stroke="#191970" d="M150.0746,-112.3733C132.0979,-103.4644 105.1559,-90.1127 84.791,-80.0203"/>
<polygon fill="#191970" stroke="#191970" points="86.1861,-76.8055 75.6719,-75.5011 83.0778,-83.0776 86.1861,-76.8055"/>
</g>
<!-- Node6 -->
<g id="node7" class="node">
<title>Node6</title>
<polygon fill="#ffffff" stroke="#bfbfbf" points="143.5,-56.5 143.5,-75.5 195.5,-75.5 195.5,-56.5 143.5,-56.5"/>
<text text-anchor="middle" x="169.5" y="-63.5" font-family="Helvetica,sans-Serif" font-size="10.00" fill="#000000">ostream</text>
</g>
<!-- Node2&#45;&gt;Node6 -->
<g id="edge6" class="edge">
<title>Node2&#45;&gt;Node6</title>
<path fill="none" stroke="#191970" d="M169.5,-112.2455C169.5,-104.9382 169.5,-94.6944 169.5,-85.7046"/>
<polygon fill="#191970" stroke="#191970" points="173.0001,-85.6426 169.5,-75.6427 166.0001,-85.6427 173.0001,-85.6426"/>
</g>
<!-- Node4 -->
<g id="node5" class="node">
<title>Node4</title>
<polygon fill="#ffffff" stroke="#bfbfbf" points="0,-.5 0,-19.5 49,-19.5 49,-.5 0,-.5"/>
<text text-anchor="middle" x="24.5" y="-7.5" font-family="Helvetica,sans-Serif" font-size="10.00" fill="#000000">istream</text>
</g>
<!-- Node3&#45;&gt;Node4 -->
<g id="edge4" class="edge">
<title>Node3&#45;&gt;Node4</title>
<path fill="none" stroke="#191970" d="M50.926,-56.2455C46.5669,-48.617 40.3789,-37.7881 35.0867,-28.5267"/>
<polygon fill="#191970" stroke="#191970" points="38.0104,-26.5886 30.0101,-19.6427 31.9327,-30.0616 38.0104,-26.5886"/>
</g>
<!-- Node5 -->
<g id="node6" class="node">
<title>Node5</title>
<polygon fill="#ffffff" stroke="#bfbfbf" points="67.5,-.5 67.5,-19.5 111.5,-19.5 111.5,-.5 67.5,-.5"/>
<text text-anchor="middle" x="89.5" y="-7.5" font-family="Helvetica,sans-Serif" font-size="10.00" fill="#000000">vector</text>
</g>
<!-- Node3&#45;&gt;Node5 -->
<g id="edge5" class="edge">
<title>Node3&#45;&gt;Node5</title>
<path fill="none" stroke="#191970" d="M62.2482,-56.2455C66.7435,-48.617 73.1248,-37.7881 78.5825,-28.5267"/>
<polygon fill="#191970" stroke="#191970" points="81.7561,-30.035 83.8177,-19.6427 75.7253,-26.4811 81.7561,-30.035"/>
</g>
</g>
</svg>
        <g id="navigator" transform="translate(0 0)" fill="#404254">
                <rect fill="#f2f5e9" fill-opacity="0.5" stroke="#606060" stroke-width=".5" x="0" y="0" width="60" height="60"/>
                <use id="zoomplus" xlink:href="#zoomPlus" x="17" y="9" onmousedown="handleZoom(evt,'in')"/>
                <use id="zoomminus" xlink:href="#zoomMin" x="42" y="9" onmousedown="handleZoom(evt,'out')"/>
                <use id="reset" xlink:href="#resetDef" x="30" y="36" onmousedown="handleReset()"/>
                <g id="arrowUp" xlink:href="#dirArrow" transform="translate(30 24)" onmousedown="handlePan(0,-1)">
                  <use xlink:href="#rim" fill="#404040">
                        <set attributeName="fill" to="#808080" begin="arrowUp.mouseover" end="arrowUp.mouseout"/>
                  </use>
                  <path fill="none" stroke="white" stroke-width="1.5" d="M0,-3.0v7 M-2.5,-0.5L0,-3.0L2.5,-0.5"/>
                </g>
                <g id="arrowRight" xlink:href="#dirArrow" transform="rotate(90) translate(36 -43)" onmousedown="handlePan(1,0)">
                  <use xlink:href="#rim" fill="#404040">
                        <set attributeName="fill" to="#808080" begin="arrowRight.mouseover" end="arrowRight.mouseout"/>
                  </use>
                  <path fill="none" stroke="white" stroke-width="1.5" d="M0,-3.0v7 M-2.5,-0.5L0,-3.0L2.5,-0.5"/>
                </g>
                <g id="arrowDown" xlink:href="#dirArrow" transform="rotate(180) translate(-30 -48)" onmousedown="handlePan(0,1)">
                  <use xlink:href="#rim" fill="#404040">
                        <set attributeName="fill" to="#808080" begin="arrowDown.mouseover" end="arrowDown.mouseout"/>
                  </use>
                  <path fill="none" stroke="white" stroke-width="1.5" d="M0,-3.0v7 M-2.5,-0.5L0,-3.0L2.5,-0.5"/>
                </g>
                <g id="arrowLeft" xlink:href="#dirArrow" transform="rotate(270) translate(-36 17)" onmousedown="handlePan(-1,0)">
                  <use xlink:href="#rim" fill="#404040">
                        <set attributeName="fill" to="#808080" begin="arrowLeft.mouseover" end="arrowLeft.mouseout"/>
                  </use>
                  <path fill="none" stroke="white" stroke-width="1.5" d="M0,-3.0v7 M-2.5,-0.5L0,-3.0L2.5,-0.5"/>
                </g>
        </g>
        <svg viewBox="0 0 15 15" width="100%" height="30px" preserveAspectRatio="xMaxYMin meet">
         <g id="arrow_out" transform="scale(0.3 0.3)">
          <a xlink:href="PTI_8cpp__incl_org.svg" target="_base">
           <rect id="button" ry="5" rx="5" y="6" x="6" height="38" width="38"
                fill="#f2f5e9" fill-opacity="0.5" stroke="#606060" stroke-width="1.0"/>
           <path id="arrow"
             d="M 11.500037,31.436501 C 11.940474,20.09759 22.043105,11.32322 32.158766,21.979434 L 37.068811,17.246167 C 37.068811,17.246167 37.088388,32 37.088388,32 L 22.160133,31.978069 C 22.160133,31.978069 26.997745,27.140456 26.997745,27.140456 C 18.528582,18.264221 13.291696,25.230495 11.500037,31.436501 z"
             style="fill:#404040;"/>
          </a>
         </g>
        </svg>
</svg>
