<?xml version="1.0" encoding="UTF-8" standalone="no"?>
<!DOCTYPE svg PUBLIC "-//W3C//DTD SVG 1.1//EN"
 "http://www.w3.org/Graphics/SVG/1.1/DTD/svg11.dtd">
<!-- Generated by graphviz version 2.40.1 (20161225.0304)
 -->
<!-- Title: simple_weight_tuner.h Pages: 1 -->
<svg width="124pt" height="151pt"
 viewBox="0.00 0.00 124.00 151.00" xmlns="http://www.w3.org/2000/svg" xmlns:xlink="http://www.w3.org/1999/xlink">
<g id="graph0" class="graph" transform="scale(1 1) rotate(0) translate(4 147)">
<title>simple_weight_tuner.h</title>
<polygon fill="#ffffff" stroke="transparent" points="-4,4 -4,-147 120,-147 120,4 -4,4"/>
<!-- Node0 -->
<g id="node1" class="node">
<title>Node0</title>
<polygon fill="#bfbfbf" stroke="#000000" points="1,-123.5 1,-142.5 115,-142.5 115,-123.5 1,-123.5"/>
<text text-anchor="middle" x="58" y="-130.5" font-family="Helvetica,sans-Serif" font-size="10.00" fill="#000000">simple_weight_tuner.h</text>
</g>
<!-- Node1 -->
<g id="node2" class="node">
<title>Node1</title>
<g id="a_node2"><a xlink:href="carlsim__simple__weight__tuner__api_8h.html" target="_top" xlink:title="carlsim_simple_weight\l_tuner_api.h">
<polygon fill="#ffffff" stroke="#000000" points="0,-56.5 0,-86.5 116,-86.5 116,-56.5 0,-56.5"/>
<text text-anchor="start" x="8" y="-74.5" font-family="Helvetica,sans-Serif" font-size="10.00" fill="#000000">carlsim_simple_weight</text>
<text text-anchor="middle" x="58" y="-63.5" font-family="Helvetica,sans-Serif" font-size="10.00" fill="#000000">_tuner_api.h</text>
</a>
</g>
</g>
<!-- Node0&#45;&gt;Node1 -->
<g id="edge1" class="edge">
<title>Node0&#45;&gt;Node1</title>
<path fill="none" stroke="#191970" d="M58,-123.3906C58,-116.2234 58,-106.0862 58,-96.671"/>
<polygon fill="#191970" stroke="#191970" points="61.5001,-96.5446 58,-86.5446 54.5001,-96.5446 61.5001,-96.5446"/>
</g>
<!-- Node2 -->
<g id="node3" class="node">
<title>Node2</title>
<g id="a_node3"><a xlink:href="carlsim__conf__api_8h.html" target="_top" xlink:title="carlsim_conf_api.h">
<polygon fill="#ffffff" stroke="#000000" points="9,-.5 9,-19.5 107,-19.5 107,-.5 9,-.5"/>
<text text-anchor="middle" x="58" y="-7.5" font-family="Helvetica,sans-Serif" font-size="10.00" fill="#000000">carlsim_conf_api.h</text>
</a>
</g>
</g>
<!-- Node1&#45;&gt;Node2 -->
<g id="edge2" class="edge">
<title>Node1&#45;&gt;Node2</title>
<path fill="none" stroke="#191970" d="M58,-56.2977C58,-48.3834 58,-38.6043 58,-30.0759"/>
<polygon fill="#191970" stroke="#191970" points="61.5001,-29.8469 58,-19.8469 54.5001,-29.847 61.5001,-29.8469"/>
</g>
</g>
</svg>
