<?xml version="1.0" encoding="UTF-8" standalone="no"?>
<!DOCTYPE svg PUBLIC "-//W3C//DTD SVG 1.1//EN"
 "http://www.w3.org/Graphics/SVG/1.1/DTD/svg11.dtd">
<!-- Generated by graphviz version 2.40.1 (20161225.0304)
 -->
<!-- Title: snn.h Pages: 1 -->
<!--zoomable 95 -->
<svg id="main" version="1.1" xmlns="http://www.w3.org/2000/svg" xmlns:xlink="http://www.w3.org/1999/xlink" xml:space="preserve" onload="init(evt)">
<style type="text/css"><![CDATA[
.edge:hover path { stroke: red; }
.edge:hover polygon { stroke: red; fill: red; }
]]></style>
<script type="text/javascript"><![CDATA[
var edges = document.getElementsByTagName('g');
if (edges && edges.length) {
  for (var i=0;i<edges.length;i++) {
    if (edges[i].id.substr(0,4)=='edge') {
      edges[i].setAttribute('class','edge');
    }
  }
}
]]></script>
        <defs>
                <circle id="rim" cx="0" cy="0" r="7"/>
                <circle id="rim2" cx="0" cy="0" r="3.5"/>
                <g id="zoomPlus">
                        <use xlink:href="#rim" fill="#404040">
                                <set attributeName="fill" to="#808080" begin="zoomplus.mouseover" end="zoomplus.mouseout"/>
                        </use>
                        <path d="M-4,0h8M0,-4v8" fill="none" stroke="white" stroke-width="1.5" pointer-events="none"/>
                </g>
                <g id="zoomMin">
                        <use xlink:href="#rim" fill="#404040">
                                <set attributeName="fill" to="#808080" begin="zoomminus.mouseover" end="zoomminus.mouseout"/>
                        </use>
                        <path d="M-4,0h8" fill="none" stroke="white" stroke-width="1.5" pointer-events="none"/>
                </g>
                <g id="dirArrow">
                        <path fill="none" stroke="white" stroke-width="1.5" d="M0,-3.0v7 M-2.5,-0.5L0,-3.0L2.5,-0.5"/>
                </g>
               <g id="resetDef">
                       <use xlink:href="#rim2" fill="#404040">
                               <set attributeName="fill" to="#808080" begin="reset.mouseover" end="reset.mouseout"/>
                       </use>
               </g>
        </defs>

<script type="text/javascript">
var viewWidth = 971;
var viewHeight = 95;
var sectionId = 'dynsection-1';
</script>
<script xlink:href="svgpan.js"/>
<svg id="graph" class="graph">
<g id="viewport">
<title>snn.h</title>
<polygon fill="#ffffff" stroke="transparent" points="-4,4 -4,-91 966.5,-91 966.5,4 -4,4"/>
<!-- Node37 -->
<g id="node1" class="node">
<title>Node37</title>
<polygon fill="#bfbfbf" stroke="#000000" points="412,-67.5 412,-86.5 453,-86.5 453,-67.5 412,-67.5"/>
<text text-anchor="middle" x="432.5" y="-74.5" font-family="Helvetica,sans-Serif" font-size="10.00" fill="#000000">snn.h</text>
</g>
<!-- Node38 -->
<g id="node2" class="node">
<title>Node38</title>
<g id="a_node2"><a xlink:href="carlsim_8cpp.html" target="_top" xlink:title="carlsim.cpp">
<polygon fill="#ffffff" stroke="#000000" points="0,-6 0,-25 67,-25 67,-6 0,-6"/>
<text text-anchor="middle" x="33.5" y="-13" font-family="Helvetica,sans-Serif" font-size="10.00" fill="#000000">carlsim.cpp</text>
</a>
</g>
</g>
<!-- Node37&#45;&gt;Node38 -->
<g id="edge1" class="edge">
<title>Node37&#45;&gt;Node38</title>
<path fill="none" stroke="#191970" d="M401.4253,-75.262C339.0565,-71.2767 194.5002,-59.531 76.5,-31 70.1752,-29.4707 63.4904,-27.3309 57.3252,-25.1284"/>
<polygon fill="#191970" stroke="#191970" points="401.5507,-78.7763 411.747,-75.8978 401.9812,-71.7895 401.5507,-78.7763"/>
</g>
<!-- Node39 -->
<g id="node3" class="node">
<title>Node39</title>
<g id="a_node3"><a xlink:href="print__snn__info_8cpp.html" target="_top" xlink:title="print_snn_info.cpp">
<polygon fill="#ffffff" stroke="#000000" points="85.5,-6 85.5,-25 181.5,-25 181.5,-6 85.5,-6"/>
<text text-anchor="middle" x="133.5" y="-13" font-family="Helvetica,sans-Serif" font-size="10.00" fill="#000000">print_snn_info.cpp</text>
</a>
</g>
</g>
<!-- Node37&#45;&gt;Node39 -->
<g id="edge2" class="edge">
<title>Node37&#45;&gt;Node39</title>
<path fill="none" stroke="#191970" d="M402.063,-71.9959C356.0384,-64.2532 266.0817,-48.4321 190.5,-31 182.8055,-29.2253 174.583,-27.116 166.8462,-25.0338"/>
<polygon fill="#191970" stroke="#191970" points="401.5508,-75.4588 411.991,-73.6552 402.7047,-68.5546 401.5508,-75.4588"/>
</g>
<!-- Node40 -->
<g id="node4" class="node">
<title>Node40</title>
<g id="a_node4"><a xlink:href="snn__cpu__module_8cpp.html" target="_top" xlink:title="snn_cpu_module.cpp">
<polygon fill="#ffffff" stroke="#000000" points="200,-6 200,-25 309,-25 309,-6 200,-6"/>
<text text-anchor="middle" x="254.5" y="-13" font-family="Helvetica,sans-Serif" font-size="10.00" fill="#000000">snn_cpu_module.cpp</text>
</a>
</g>
</g>
<!-- Node37&#45;&gt;Node40 -->
<g id="edge3" class="edge">
<title>Node37&#45;&gt;Node40</title>
<path fill="none" stroke="#191970" d="M401.9707,-66.452C368.2956,-54.817 314.5874,-36.2606 282.1218,-25.0435"/>
<polygon fill="#191970" stroke="#191970" points="401.138,-69.8672 411.7328,-69.8248 403.424,-63.251 401.138,-69.8672"/>
</g>
<!-- Node41 -->
<g id="node5" class="node">
<title>Node41</title>
<g id="a_node5"><a xlink:href="snn__manager_8cpp.html" target="_top" xlink:title="snn_manager.cpp">
<polygon fill="#ffffff" stroke="#000000" points="327.5,-6 327.5,-25 421.5,-25 421.5,-6 327.5,-6"/>
<text text-anchor="middle" x="374.5" y="-13" font-family="Helvetica,sans-Serif" font-size="10.00" fill="#000000">snn_manager.cpp</text>
</a>
</g>
</g>
<!-- Node37&#45;&gt;Node41 -->
<g id="edge4" class="edge">
<title>Node37&#45;&gt;Node41</title>
<path fill="none" stroke="#191970" d="M416.3739,-59.9007C405.8358,-48.7268 392.4523,-34.5356 383.6903,-25.2449"/>
<polygon fill="#191970" stroke="#191970" points="414.0302,-62.5169 423.4375,-67.3906 419.1227,-57.7142 414.0302,-62.5169"/>
</g>
<!-- Node42 -->
<g id="node6" class="node">
<title>Node42</title>
<g id="a_node6"><a xlink:href="connection__monitor__core_8cpp.html" target="_top" xlink:title="connection_monitor\l_core.cpp">
<polygon fill="#ffffff" stroke="#000000" points="440,-.5 440,-30.5 541,-30.5 541,-.5 440,-.5"/>
<text text-anchor="start" x="448" y="-18.5" font-family="Helvetica,sans-Serif" font-size="10.00" fill="#000000">connection_monitor</text>
<text text-anchor="middle" x="490.5" y="-7.5" font-family="Helvetica,sans-Serif" font-size="10.00" fill="#000000">_core.cpp</text>
</a>
</g>
</g>
<!-- Node37&#45;&gt;Node42 -->
<g id="edge5" class="edge">
<title>Node37&#45;&gt;Node42</title>
<path fill="none" stroke="#191970" d="M448.5973,-59.9314C457.2918,-50.7122 467.9299,-39.4321 476.3116,-30.5446"/>
<polygon fill="#191970" stroke="#191970" points="445.8773,-57.7142 441.5625,-67.3906 450.9698,-62.5169 445.8773,-57.7142"/>
</g>
<!-- Node43 -->
<g id="node7" class="node">
<title>Node43</title>
<g id="a_node7"><a xlink:href="group__monitor__core_8cpp.html" target="_top" xlink:title="group_monitor_core.cpp">
<polygon fill="#ffffff" stroke="#000000" points="559,-6 559,-25 680,-25 680,-6 559,-6"/>
<text text-anchor="middle" x="619.5" y="-13" font-family="Helvetica,sans-Serif" font-size="10.00" fill="#000000">group_monitor_core.cpp</text>
</a>
</g>
</g>
<!-- Node37&#45;&gt;Node43 -->
<g id="edge6" class="edge">
<title>Node37&#45;&gt;Node43</title>
<path fill="none" stroke="#191970" d="M462.9636,-66.9812C498.1968,-55.3938 555.7814,-36.4556 590.4176,-25.0645"/>
<polygon fill="#191970" stroke="#191970" points="461.6327,-63.7344 453.2268,-70.1834 463.8197,-70.384 461.6327,-63.7344"/>
</g>
<!-- Node44 -->
<g id="node8" class="node">
<title>Node44</title>
<g id="a_node8"><a xlink:href="neuron__monitor__core_8cpp.html" target="_top" xlink:title="neuron_monitor_core.cpp">
<polygon fill="#ffffff" stroke="#000000" points="698.5,-6 698.5,-25 824.5,-25 824.5,-6 698.5,-6"/>
<text text-anchor="middle" x="761.5" y="-13" font-family="Helvetica,sans-Serif" font-size="10.00" fill="#000000">neuron_monitor_core.cpp</text>
</a>
</g>
</g>
<!-- Node37&#45;&gt;Node44 -->
<g id="edge7" class="edge">
<title>Node37&#45;&gt;Node44</title>
<path fill="none" stroke="#191970" d="M463.3046,-71.8442C511.6023,-63.6799 608.0506,-47.0513 689.5,-31 698.9088,-29.1458 708.9845,-27.0477 718.5287,-25.0077"/>
<polygon fill="#191970" stroke="#191970" points="462.4789,-68.4339 453.1998,-73.5474 463.6425,-75.3365 462.4789,-68.4339"/>
</g>
<!-- Node45 -->
<g id="node9" class="node">
<title>Node45</title>
<g id="a_node9"><a xlink:href="spike__monitor__core_8cpp.html" target="_top" xlink:title="spike_monitor_core.cpp">
<polygon fill="#ffffff" stroke="#000000" points="842.5,-6 842.5,-25 962.5,-25 962.5,-6 842.5,-6"/>
<text text-anchor="middle" x="902.5" y="-13" font-family="Helvetica,sans-Serif" font-size="10.00" fill="#000000">spike_monitor_core.cpp</text>
</a>
</g>
</g>
<!-- Node37&#45;&gt;Node45 -->
<g id="edge8" class="edge">
<title>Node37&#45;&gt;Node45</title>
<path fill="none" stroke="#191970" d="M463.3943,-74.5882C530.8763,-69.0725 696.3838,-54.1971 833.5,-31 843.3056,-29.3411 853.8139,-27.1802 863.5985,-25.0011"/>
<polygon fill="#191970" stroke="#191970" points="462.7435,-71.1292 453.0573,-75.4221 463.3064,-78.1066 462.7435,-71.1292"/>
</g>
</g>
</svg>
        <g id="navigator" transform="translate(0 0)" fill="#404254">
                <rect fill="#f2f5e9" fill-opacity="0.5" stroke="#606060" stroke-width=".5" x="0" y="0" width="60" height="60"/>
                <use id="zoomplus" xlink:href="#zoomPlus" x="17" y="9" onmousedown="handleZoom(evt,'in')"/>
                <use id="zoomminus" xlink:href="#zoomMin" x="42" y="9" onmousedown="handleZoom(evt,'out')"/>
                <use id="reset" xlink:href="#resetDef" x="30" y="36" onmousedown="handleReset()"/>
                <g id="arrowUp" xlink:href="#dirArrow" transform="translate(30 24)" onmousedown="handlePan(0,-1)">
                  <use xlink:href="#rim" fill="#404040">
                        <set attributeName="fill" to="#808080" begin="arrowUp.mouseover" end="arrowUp.mouseout"/>
                  </use>
                  <path fill="none" stroke="white" stroke-width="1.5" d="M0,-3.0v7 M-2.5,-0.5L0,-3.0L2.5,-0.5"/>
                </g>
                <g id="arrowRight" xlink:href="#dirArrow" transform="rotate(90) translate(36 -43)" onmousedown="handlePan(1,0)">
                  <use xlink:href="#rim" fill="#404040">
                        <set attributeName="fill" to="#808080" begin="arrowRight.mouseover" end="arrowRight.mouseout"/>
                  </use>
                  <path fill="none" stroke="white" stroke-width="1.5" d="M0,-3.0v7 M-2.5,-0.5L0,-3.0L2.5,-0.5"/>
                </g>
                <g id="arrowDown" xlink:href="#dirArrow" transform="rotate(180) translate(-30 -48)" onmousedown="handlePan(0,1)">
                  <use xlink:href="#rim" fill="#404040">
                        <set attributeName="fill" to="#808080" begin="arrowDown.mouseover" end="arrowDown.mouseout"/>
                  </use>
                  <path fill="none" stroke="white" stroke-width="1.5" d="M0,-3.0v7 M-2.5,-0.5L0,-3.0L2.5,-0.5"/>
                </g>
                <g id="arrowLeft" xlink:href="#dirArrow" transform="rotate(270) translate(-36 17)" onmousedown="handlePan(-1,0)">
                  <use xlink:href="#rim" fill="#404040">
                        <set attributeName="fill" to="#808080" begin="arrowLeft.mouseover" end="arrowLeft.mouseout"/>
                  </use>
                  <path fill="none" stroke="white" stroke-width="1.5" d="M0,-3.0v7 M-2.5,-0.5L0,-3.0L2.5,-0.5"/>
                </g>
        </g>
        <svg viewBox="0 0 15 15" width="100%" height="30px" preserveAspectRatio="xMaxYMin meet">
         <g id="arrow_out" transform="scale(0.3 0.3)">
          <a xlink:href="snn_8h__dep__incl_org.svg" target="_base">
           <rect id="button" ry="5" rx="5" y="6" x="6" height="38" width="38"
                fill="#f2f5e9" fill-opacity="0.5" stroke="#606060" stroke-width="1.0"/>
           <path id="arrow"
             d="M 11.500037,31.436501 C 11.940474,20.09759 22.043105,11.32322 32.158766,21.979434 L 37.068811,17.246167 C 37.068811,17.246167 37.088388,32 37.088388,32 L 22.160133,31.978069 C 22.160133,31.978069 26.997745,27.140456 26.997745,27.140456 C 18.528582,18.264221 13.291696,25.230495 11.500037,31.436501 z"
             style="fill:#404040;"/>
          </a>
         </g>
        </svg>
</svg>
