<?xml version="1.0" encoding="UTF-8" standalone="no"?>
<!DOCTYPE svg PUBLIC "-//W3C//DTD SVG 1.1//EN"
 "http://www.w3.org/Graphics/SVG/1.1/DTD/svg11.dtd">
<!-- Generated by graphviz version 2.40.1 (20161225.0304)
 -->
<!-- Title: snn_definitions.h Pages: 1 -->
<svg width="971pt" height="151pt"
 viewBox="0.00 0.00 970.50 151.00" xmlns="http://www.w3.org/2000/svg" xmlns:xlink="http://www.w3.org/1999/xlink">
<g id="graph0" class="graph" transform="scale(1 1) rotate(0) translate(4 147)">
<title>snn_definitions.h</title>
<polygon fill="#ffffff" stroke="transparent" points="-4,4 -4,-147 966.5,-147 966.5,4 -4,4"/>
<!-- Node1 -->
<g id="node1" class="node">
<title>Node1</title>
<polygon fill="#bfbfbf" stroke="#000000" points="574.5,-123.5 574.5,-142.5 664.5,-142.5 664.5,-123.5 574.5,-123.5"/>
<text text-anchor="middle" x="619.5" y="-130.5" font-family="Helvetica,sans-Serif" font-size="10.00" fill="#000000">snn_definitions.h</text>
</g>
<!-- Node2 -->
<g id="node2" class="node">
<title>Node2</title>
<g id="a_node2"><a xlink:href="snn_8h.html" target="_top" xlink:title="snn.h">
<polygon fill="#ffffff" stroke="#000000" points="470,-67.5 470,-86.5 511,-86.5 511,-67.5 470,-67.5"/>
<text text-anchor="middle" x="490.5" y="-74.5" font-family="Helvetica,sans-Serif" font-size="10.00" fill="#000000">snn.h</text>
</a>
</g>
</g>
<!-- Node1&#45;&gt;Node2 -->
<g id="edge1" class="edge">
<title>Node1&#45;&gt;Node2</title>
<path fill="none" stroke="#191970" d="M587.9565,-119.3067C564.0277,-108.919 531.8242,-94.9392 511.1099,-85.9469"/>
<polygon fill="#191970" stroke="#191970" points="586.7574,-122.6017 597.3241,-123.3733 589.5449,-116.1806 586.7574,-122.6017"/>
</g>
<!-- Node7 -->
<g id="node7" class="node">
<title>Node7</title>
<g id="a_node7"><a xlink:href="connection__monitor__core_8cpp.html" target="_top" xlink:title="connection_monitor\l_core.cpp">
<polygon fill="#ffffff" stroke="#000000" points="440,-.5 440,-30.5 541,-30.5 541,-.5 440,-.5"/>
<text text-anchor="start" x="448" y="-18.5" font-family="Helvetica,sans-Serif" font-size="10.00" fill="#000000">connection_monitor</text>
<text text-anchor="middle" x="490.5" y="-7.5" font-family="Helvetica,sans-Serif" font-size="10.00" fill="#000000">_core.cpp</text>
</a>
</g>
</g>
<!-- Node1&#45;&gt;Node7 -->
<g id="edge10" class="edge">
<title>Node1&#45;&gt;Node7</title>
<path fill="none" stroke="#191970" d="M601.2528,-116.3795C576.1807,-93.5425 531.4369,-52.7875 507.2034,-30.7143"/>
<polygon fill="#191970" stroke="#191970" points="599.1936,-119.2381 608.9434,-123.3845 603.9073,-114.0631 599.1936,-119.2381"/>
</g>
<!-- Node8 -->
<g id="node8" class="node">
<title>Node8</title>
<g id="a_node8"><a xlink:href="group__monitor__core_8cpp.html" target="_top" xlink:title="group_monitor_core.cpp">
<polygon fill="#ffffff" stroke="#000000" points="559,-6 559,-25 680,-25 680,-6 559,-6"/>
<text text-anchor="middle" x="619.5" y="-13" font-family="Helvetica,sans-Serif" font-size="10.00" fill="#000000">group_monitor_core.cpp</text>
</a>
</g>
</g>
<!-- Node1&#45;&gt;Node8 -->
<g id="edge11" class="edge">
<title>Node1&#45;&gt;Node8</title>
<path fill="none" stroke="#191970" d="M619.5,-113.0662C619.5,-87.5834 619.5,-44.4662 619.5,-25.2484"/>
<polygon fill="#191970" stroke="#191970" points="616.0001,-113.3844 619.5,-123.3845 623.0001,-113.3845 616.0001,-113.3844"/>
</g>
<!-- Node9 -->
<g id="node9" class="node">
<title>Node9</title>
<g id="a_node9"><a xlink:href="neuron__monitor__core_8cpp.html" target="_top" xlink:title="neuron_monitor_core.cpp">
<polygon fill="#ffffff" stroke="#000000" points="698.5,-6 698.5,-25 824.5,-25 824.5,-6 698.5,-6"/>
<text text-anchor="middle" x="761.5" y="-13" font-family="Helvetica,sans-Serif" font-size="10.00" fill="#000000">neuron_monitor_core.cpp</text>
</a>
</g>
</g>
<!-- Node1&#45;&gt;Node9 -->
<g id="edge12" class="edge">
<title>Node1&#45;&gt;Node9</title>
<path fill="none" stroke="#191970" d="M639.1754,-116.7193C669.1517,-91.915 725.3433,-45.4184 749.719,-25.2484"/>
<polygon fill="#191970" stroke="#191970" points="636.5936,-114.3128 631.1205,-123.3845 641.0562,-119.7059 636.5936,-114.3128"/>
</g>
<!-- Node10 -->
<g id="node10" class="node">
<title>Node10</title>
<g id="a_node10"><a xlink:href="spike__monitor__core_8cpp.html" target="_top" xlink:title="spike_monitor_core.cpp">
<polygon fill="#ffffff" stroke="#000000" points="842.5,-6 842.5,-25 962.5,-25 962.5,-6 842.5,-6"/>
<text text-anchor="middle" x="902.5" y="-13" font-family="Helvetica,sans-Serif" font-size="10.00" fill="#000000">spike_monitor_core.cpp</text>
</a>
</g>
</g>
<!-- Node1&#45;&gt;Node10 -->
<g id="edge13" class="edge">
<title>Node1&#45;&gt;Node10</title>
<path fill="none" stroke="#191970" d="M652.0548,-119.4834C709.8938,-95.469 829.1979,-45.9346 879.4178,-25.0836"/>
<polygon fill="#191970" stroke="#191970" points="650.5526,-116.3174 642.6591,-123.3845 653.2368,-122.7823 650.5526,-116.3174"/>
</g>
<!-- Node3 -->
<g id="node3" class="node">
<title>Node3</title>
<g id="a_node3"><a xlink:href="carlsim_8cpp.html" target="_top" xlink:title="carlsim.cpp">
<polygon fill="#ffffff" stroke="#000000" points="0,-6 0,-25 67,-25 67,-6 0,-6"/>
<text text-anchor="middle" x="33.5" y="-13" font-family="Helvetica,sans-Serif" font-size="10.00" fill="#000000">carlsim.cpp</text>
</a>
</g>
</g>
<!-- Node2&#45;&gt;Node3 -->
<g id="edge2" class="edge">
<title>Node2&#45;&gt;Node3</title>
<path fill="none" stroke="#191970" d="M459.7629,-76.0513C390.4926,-73.3797 217.2479,-63.7047 76.5,-31 70.0072,-29.4913 63.1456,-27.3039 56.8564,-25.0455"/>
<polygon fill="#191970" stroke="#191970" points="459.8461,-79.5565 469.9667,-76.4224 460.1006,-72.5612 459.8461,-79.5565"/>
</g>
<!-- Node4 -->
<g id="node4" class="node">
<title>Node4</title>
<g id="a_node4"><a xlink:href="print__snn__info_8cpp.html" target="_top" xlink:title="print_snn_info.cpp">
<polygon fill="#ffffff" stroke="#000000" points="85.5,-6 85.5,-25 181.5,-25 181.5,-6 85.5,-6"/>
<text text-anchor="middle" x="133.5" y="-13" font-family="Helvetica,sans-Serif" font-size="10.00" fill="#000000">print_snn_info.cpp</text>
</a>
</g>
</g>
<!-- Node2&#45;&gt;Node4 -->
<g id="edge3" class="edge">
<title>Node2&#45;&gt;Node4</title>
<path fill="none" stroke="#191970" d="M459.9532,-73.4782C405.478,-66.9401 288.1177,-51.687 190.5,-31 182.5744,-29.3204 174.1123,-27.2014 166.1995,-25.0741"/>
<polygon fill="#191970" stroke="#191970" points="459.6425,-76.9658 469.9853,-74.6687 460.4674,-70.0146 459.6425,-76.9658"/>
</g>
<!-- Node5 -->
<g id="node5" class="node">
<title>Node5</title>
<g id="a_node5"><a xlink:href="snn__cpu__module_8cpp.html" target="_top" xlink:title="snn_cpu_module.cpp">
<polygon fill="#ffffff" stroke="#000000" points="200,-6 200,-25 309,-25 309,-6 200,-6"/>
<text text-anchor="middle" x="254.5" y="-13" font-family="Helvetica,sans-Serif" font-size="10.00" fill="#000000">snn_cpu_module.cpp</text>
</a>
</g>
</g>
<!-- Node2&#45;&gt;Node5 -->
<g id="edge4" class="edge">
<title>Node2&#45;&gt;Node5</title>
<path fill="none" stroke="#191970" d="M460.0379,-69.0618C416.7747,-57.7877 337.6415,-37.1661 291.201,-25.064"/>
<polygon fill="#191970" stroke="#191970" points="459.4099,-72.515 469.9694,-71.6499 461.1752,-65.7412 459.4099,-72.515"/>
</g>
<!-- Node6 -->
<g id="node6" class="node">
<title>Node6</title>
<g id="a_node6"><a xlink:href="snn__manager_8cpp.html" target="_top" xlink:title="snn_manager.cpp">
<polygon fill="#ffffff" stroke="#000000" points="327.5,-6 327.5,-25 421.5,-25 421.5,-6 327.5,-6"/>
<text text-anchor="middle" x="374.5" y="-13" font-family="Helvetica,sans-Serif" font-size="10.00" fill="#000000">snn_manager.cpp</text>
</a>
</g>
</g>
<!-- Node2&#45;&gt;Node6 -->
<g id="edge5" class="edge">
<title>Node2&#45;&gt;Node6</title>
<path fill="none" stroke="#191970" d="M463.2843,-62.571C441.4541,-50.9972 411.4315,-35.0801 392.4977,-25.0419"/>
<polygon fill="#191970" stroke="#191970" points="461.9004,-65.7987 472.375,-67.3906 465.1794,-59.6142 461.9004,-65.7987"/>
</g>
<!-- Node2&#45;&gt;Node7 -->
<g id="edge6" class="edge">
<title>Node2&#45;&gt;Node7</title>
<path fill="none" stroke="#191970" d="M490.5,-57.3693C490.5,-48.681 490.5,-38.6241 490.5,-30.5446"/>
<polygon fill="#191970" stroke="#191970" points="487.0001,-57.3906 490.5,-67.3906 494.0001,-57.3907 487.0001,-57.3906"/>
</g>
<!-- Node2&#45;&gt;Node8 -->
<g id="edge7" class="edge">
<title>Node2&#45;&gt;Node8</title>
<path fill="none" stroke="#191970" d="M519.791,-63.0357C544.1419,-51.4265 578.1464,-35.2151 599.4853,-25.0419"/>
<polygon fill="#191970" stroke="#191970" points="518.1767,-59.9278 510.6563,-67.3906 521.1891,-66.2465 518.1767,-59.9278"/>
</g>
<!-- Node2&#45;&gt;Node9 -->
<g id="edge8" class="edge">
<title>Node2&#45;&gt;Node9</title>
<path fill="none" stroke="#191970" d="M521.2255,-70.0272C569.7784,-59.0088 664.3526,-37.5464 719.2562,-25.0867"/>
<polygon fill="#191970" stroke="#191970" points="520.2924,-66.6499 511.3149,-72.2763 521.8416,-73.4764 520.2924,-66.6499"/>
</g>
<!-- Node2&#45;&gt;Node10 -->
<g id="edge9" class="edge">
<title>Node2&#45;&gt;Node10</title>
<path fill="none" stroke="#191970" d="M521.0514,-73.8128C581.1459,-67.343 718.848,-51.5249 833.5,-31 843.0476,-29.2908 853.2734,-27.1604 862.8496,-25.0316"/>
<polygon fill="#191970" stroke="#191970" points="520.6601,-70.3346 511.088,-74.8761 521.403,-77.2951 520.6601,-70.3346"/>
</g>
</g>
</svg>
