<?xml version="1.0" encoding="UTF-8" standalone="no"?>
<!DOCTYPE svg PUBLIC "-//W3C//DTD SVG 1.1//EN"
 "http://www.w3.org/Graphics/SVG/1.1/DTD/svg11.dtd">
<!-- Generated by graphviz version 2.40.1 (20161225.0304)
 -->
<!-- Title: snn_datastructures.h Pages: 1 -->
<svg width="971pt" height="151pt"
 viewBox="0.00 0.00 970.50 151.00" xmlns="http://www.w3.org/2000/svg" xmlns:xlink="http://www.w3.org/1999/xlink">
<g id="graph0" class="graph" transform="scale(1 1) rotate(0) translate(4 147)">
<title>snn_datastructures.h</title>
<polygon fill="#ffffff" stroke="transparent" points="-4,4 -4,-147 966.5,-147 966.5,4 -4,4"/>
<!-- Node5 -->
<g id="node1" class="node">
<title>Node5</title>
<polygon fill="#bfbfbf" stroke="#000000" points="378.5,-123.5 378.5,-142.5 486.5,-142.5 486.5,-123.5 378.5,-123.5"/>
<text text-anchor="middle" x="432.5" y="-130.5" font-family="Helvetica,sans-Serif" font-size="10.00" fill="#000000">snn_datastructures.h</text>
</g>
<!-- Node6 -->
<g id="node2" class="node">
<title>Node6</title>
<g id="a_node2"><a xlink:href="snn_8h.html" target="_top" xlink:title="snn.h">
<polygon fill="#ffffff" stroke="#000000" points="412,-67.5 412,-86.5 453,-86.5 453,-67.5 412,-67.5"/>
<text text-anchor="middle" x="432.5" y="-74.5" font-family="Helvetica,sans-Serif" font-size="10.00" fill="#000000">snn.h</text>
</a>
</g>
</g>
<!-- Node5&#45;&gt;Node6 -->
<g id="edge1" class="edge">
<title>Node5&#45;&gt;Node6</title>
<path fill="none" stroke="#191970" d="M432.5,-113.1575C432.5,-104.155 432.5,-93.9199 432.5,-86.6427"/>
<polygon fill="#191970" stroke="#191970" points="429.0001,-113.2455 432.5,-123.2455 436.0001,-113.2456 429.0001,-113.2455"/>
</g>
<!-- Node7 -->
<g id="node3" class="node">
<title>Node7</title>
<g id="a_node3"><a xlink:href="carlsim_8cpp.html" target="_top" xlink:title="carlsim.cpp">
<polygon fill="#ffffff" stroke="#000000" points="0,-6 0,-25 67,-25 67,-6 0,-6"/>
<text text-anchor="middle" x="33.5" y="-13" font-family="Helvetica,sans-Serif" font-size="10.00" fill="#000000">carlsim.cpp</text>
</a>
</g>
</g>
<!-- Node6&#45;&gt;Node7 -->
<g id="edge2" class="edge">
<title>Node6&#45;&gt;Node7</title>
<path fill="none" stroke="#191970" d="M401.4253,-75.262C339.0565,-71.2767 194.5002,-59.531 76.5,-31 70.1752,-29.4707 63.4904,-27.3309 57.3252,-25.1284"/>
<polygon fill="#191970" stroke="#191970" points="401.5507,-78.7763 411.747,-75.8978 401.9812,-71.7895 401.5507,-78.7763"/>
</g>
<!-- Node8 -->
<g id="node4" class="node">
<title>Node8</title>
<g id="a_node4"><a xlink:href="print__snn__info_8cpp.html" target="_top" xlink:title="print_snn_info.cpp">
<polygon fill="#ffffff" stroke="#000000" points="85.5,-6 85.5,-25 181.5,-25 181.5,-6 85.5,-6"/>
<text text-anchor="middle" x="133.5" y="-13" font-family="Helvetica,sans-Serif" font-size="10.00" fill="#000000">print_snn_info.cpp</text>
</a>
</g>
</g>
<!-- Node6&#45;&gt;Node8 -->
<g id="edge3" class="edge">
<title>Node6&#45;&gt;Node8</title>
<path fill="none" stroke="#191970" d="M402.063,-71.9959C356.0384,-64.2532 266.0817,-48.4321 190.5,-31 182.8055,-29.2253 174.583,-27.116 166.8462,-25.0338"/>
<polygon fill="#191970" stroke="#191970" points="401.5508,-75.4588 411.991,-73.6552 402.7047,-68.5546 401.5508,-75.4588"/>
</g>
<!-- Node9 -->
<g id="node5" class="node">
<title>Node9</title>
<g id="a_node5"><a xlink:href="snn__cpu__module_8cpp.html" target="_top" xlink:title="snn_cpu_module.cpp">
<polygon fill="#ffffff" stroke="#000000" points="200,-6 200,-25 309,-25 309,-6 200,-6"/>
<text text-anchor="middle" x="254.5" y="-13" font-family="Helvetica,sans-Serif" font-size="10.00" fill="#000000">snn_cpu_module.cpp</text>
</a>
</g>
</g>
<!-- Node6&#45;&gt;Node9 -->
<g id="edge4" class="edge">
<title>Node6&#45;&gt;Node9</title>
<path fill="none" stroke="#191970" d="M401.9707,-66.452C368.2956,-54.817 314.5874,-36.2606 282.1218,-25.0435"/>
<polygon fill="#191970" stroke="#191970" points="401.138,-69.8672 411.7328,-69.8248 403.424,-63.251 401.138,-69.8672"/>
</g>
<!-- Node10 -->
<g id="node6" class="node">
<title>Node10</title>
<g id="a_node6"><a xlink:href="snn__manager_8cpp.html" target="_top" xlink:title="snn_manager.cpp">
<polygon fill="#ffffff" stroke="#000000" points="327.5,-6 327.5,-25 421.5,-25 421.5,-6 327.5,-6"/>
<text text-anchor="middle" x="374.5" y="-13" font-family="Helvetica,sans-Serif" font-size="10.00" fill="#000000">snn_manager.cpp</text>
</a>
</g>
</g>
<!-- Node6&#45;&gt;Node10 -->
<g id="edge5" class="edge">
<title>Node6&#45;&gt;Node10</title>
<path fill="none" stroke="#191970" d="M416.3739,-59.9007C405.8358,-48.7268 392.4523,-34.5356 383.6903,-25.2449"/>
<polygon fill="#191970" stroke="#191970" points="414.0302,-62.5169 423.4375,-67.3906 419.1227,-57.7142 414.0302,-62.5169"/>
</g>
<!-- Node11 -->
<g id="node7" class="node">
<title>Node11</title>
<g id="a_node7"><a xlink:href="connection__monitor__core_8cpp.html" target="_top" xlink:title="connection_monitor\l_core.cpp">
<polygon fill="#ffffff" stroke="#000000" points="440,-.5 440,-30.5 541,-30.5 541,-.5 440,-.5"/>
<text text-anchor="start" x="448" y="-18.5" font-family="Helvetica,sans-Serif" font-size="10.00" fill="#000000">connection_monitor</text>
<text text-anchor="middle" x="490.5" y="-7.5" font-family="Helvetica,sans-Serif" font-size="10.00" fill="#000000">_core.cpp</text>
</a>
</g>
</g>
<!-- Node6&#45;&gt;Node11 -->
<g id="edge6" class="edge">
<title>Node6&#45;&gt;Node11</title>
<path fill="none" stroke="#191970" d="M448.5973,-59.9314C457.2918,-50.7122 467.9299,-39.4321 476.3116,-30.5446"/>
<polygon fill="#191970" stroke="#191970" points="445.8773,-57.7142 441.5625,-67.3906 450.9698,-62.5169 445.8773,-57.7142"/>
</g>
<!-- Node12 -->
<g id="node8" class="node">
<title>Node12</title>
<g id="a_node8"><a xlink:href="group__monitor__core_8cpp.html" target="_top" xlink:title="group_monitor_core.cpp">
<polygon fill="#ffffff" stroke="#000000" points="559,-6 559,-25 680,-25 680,-6 559,-6"/>
<text text-anchor="middle" x="619.5" y="-13" font-family="Helvetica,sans-Serif" font-size="10.00" fill="#000000">group_monitor_core.cpp</text>
</a>
</g>
</g>
<!-- Node6&#45;&gt;Node12 -->
<g id="edge7" class="edge">
<title>Node6&#45;&gt;Node12</title>
<path fill="none" stroke="#191970" d="M462.9636,-66.9812C498.1968,-55.3938 555.7814,-36.4556 590.4176,-25.0645"/>
<polygon fill="#191970" stroke="#191970" points="461.6327,-63.7344 453.2268,-70.1834 463.8197,-70.384 461.6327,-63.7344"/>
</g>
<!-- Node13 -->
<g id="node9" class="node">
<title>Node13</title>
<g id="a_node9"><a xlink:href="neuron__monitor__core_8cpp.html" target="_top" xlink:title="neuron_monitor_core.cpp">
<polygon fill="#ffffff" stroke="#000000" points="698.5,-6 698.5,-25 824.5,-25 824.5,-6 698.5,-6"/>
<text text-anchor="middle" x="761.5" y="-13" font-family="Helvetica,sans-Serif" font-size="10.00" fill="#000000">neuron_monitor_core.cpp</text>
</a>
</g>
</g>
<!-- Node6&#45;&gt;Node13 -->
<g id="edge8" class="edge">
<title>Node6&#45;&gt;Node13</title>
<path fill="none" stroke="#191970" d="M463.3046,-71.8442C511.6023,-63.6799 608.0506,-47.0513 689.5,-31 698.9088,-29.1458 708.9845,-27.0477 718.5287,-25.0077"/>
<polygon fill="#191970" stroke="#191970" points="462.4789,-68.4339 453.1998,-73.5474 463.6425,-75.3365 462.4789,-68.4339"/>
</g>
<!-- Node14 -->
<g id="node10" class="node">
<title>Node14</title>
<g id="a_node10"><a xlink:href="spike__monitor__core_8cpp.html" target="_top" xlink:title="spike_monitor_core.cpp">
<polygon fill="#ffffff" stroke="#000000" points="842.5,-6 842.5,-25 962.5,-25 962.5,-6 842.5,-6"/>
<text text-anchor="middle" x="902.5" y="-13" font-family="Helvetica,sans-Serif" font-size="10.00" fill="#000000">spike_monitor_core.cpp</text>
</a>
</g>
</g>
<!-- Node6&#45;&gt;Node14 -->
<g id="edge9" class="edge">
<title>Node6&#45;&gt;Node14</title>
<path fill="none" stroke="#191970" d="M463.3943,-74.5882C530.8763,-69.0725 696.3838,-54.1971 833.5,-31 843.3056,-29.3411 853.8139,-27.1802 863.5985,-25.0011"/>
<polygon fill="#191970" stroke="#191970" points="462.7435,-71.1292 453.0573,-75.4221 463.3064,-78.1066 462.7435,-71.1292"/>
</g>
</g>
</svg>
