<?xml version="1.0" encoding="UTF-8" standalone="no"?>
<!DOCTYPE svg PUBLIC "-//W3C//DTD SVG 1.1//EN"
 "http://www.w3.org/Graphics/SVG/1.1/DTD/svg11.dtd">
<!-- Generated by graphviz version 2.40.1 (20161225.0304)
 -->
<!-- Title: snn_datastructures.h Pages: 1 -->
<svg width="203pt" height="140pt"
 viewBox="0.00 0.00 203.00 140.00" xmlns="http://www.w3.org/2000/svg" xmlns:xlink="http://www.w3.org/1999/xlink">
<g id="graph0" class="graph" transform="scale(1 1) rotate(0) translate(4 136)">
<title>snn_datastructures.h</title>
<polygon fill="#ffffff" stroke="transparent" points="-4,4 -4,-136 199,-136 199,4 -4,4"/>
<!-- Node0 -->
<g id="node1" class="node">
<title>Node0</title>
<polygon fill="#bfbfbf" stroke="#000000" points="62,-112.5 62,-131.5 170,-131.5 170,-112.5 62,-112.5"/>
<text text-anchor="middle" x="116" y="-119.5" font-family="Helvetica,sans-Serif" font-size="10.00" fill="#000000">snn_datastructures.h</text>
</g>
<!-- Node1 -->
<g id="node2" class="node">
<title>Node1</title>
<g id="a_node2"><a xlink:href="cuda__version__control_8h.html" target="_top" xlink:title="cuda_version_control.h">
<polygon fill="#ffffff" stroke="#000000" points="5.5,-56.5 5.5,-75.5 122.5,-75.5 122.5,-56.5 5.5,-56.5"/>
<text text-anchor="middle" x="64" y="-63.5" font-family="Helvetica,sans-Serif" font-size="10.00" fill="#000000">cuda_version_control.h</text>
</a>
</g>
</g>
<!-- Node0&#45;&gt;Node1 -->
<g id="edge1" class="edge">
<title>Node0&#45;&gt;Node1</title>
<path fill="none" stroke="#191970" d="M106.9423,-112.2455C99.4858,-104.2155 88.7366,-92.6394 79.8583,-83.0781"/>
<polygon fill="#191970" stroke="#191970" points="82.3232,-80.589 72.9539,-75.6427 77.1937,-85.3522 82.3232,-80.589"/>
</g>
<!-- Node4 -->
<g id="node5" class="node">
<title>Node4</title>
<polygon fill="#ffffff" stroke="#bfbfbf" points="141,-56.5 141,-75.5 195,-75.5 195,-56.5 141,-56.5"/>
<text text-anchor="middle" x="168" y="-63.5" font-family="Helvetica,sans-Serif" font-size="10.00" fill="#000000">curand.h</text>
</g>
<!-- Node0&#45;&gt;Node4 -->
<g id="edge4" class="edge">
<title>Node0&#45;&gt;Node4</title>
<path fill="none" stroke="#191970" d="M125.0577,-112.2455C132.5142,-104.2155 143.2634,-92.6394 152.1417,-83.0781"/>
<polygon fill="#191970" stroke="#191970" points="154.8063,-85.3522 159.0461,-75.6427 149.6768,-80.589 154.8063,-85.3522"/>
</g>
<!-- Node2 -->
<g id="node3" class="node">
<title>Node2</title>
<polygon fill="#ffffff" stroke="#bfbfbf" points="0,-.5 0,-19.5 46,-19.5 46,-.5 0,-.5"/>
<text text-anchor="middle" x="23" y="-7.5" font-family="Helvetica,sans-Serif" font-size="10.00" fill="#000000">cuda.h</text>
</g>
<!-- Node1&#45;&gt;Node2 -->
<g id="edge2" class="edge">
<title>Node1&#45;&gt;Node2</title>
<path fill="none" stroke="#191970" d="M56.8583,-56.2455C51.1556,-48.4564 43.01,-37.3308 36.1375,-27.9439"/>
<polygon fill="#191970" stroke="#191970" points="38.7913,-25.6437 30.0598,-19.6427 33.1432,-29.7789 38.7913,-25.6437"/>
</g>
<!-- Node3 -->
<g id="node4" class="node">
<title>Node3</title>
<polygon fill="#ffffff" stroke="#bfbfbf" points="64.5,-.5 64.5,-19.5 147.5,-19.5 147.5,-.5 64.5,-.5"/>
<text text-anchor="middle" x="106" y="-7.5" font-family="Helvetica,sans-Serif" font-size="10.00" fill="#000000">cuda_runtime.h</text>
</g>
<!-- Node1&#45;&gt;Node3 -->
<g id="edge3" class="edge">
<title>Node1&#45;&gt;Node3</title>
<path fill="none" stroke="#191970" d="M71.3158,-56.2455C77.2179,-48.3761 85.6742,-37.101 92.7594,-27.6542"/>
<polygon fill="#191970" stroke="#191970" points="95.568,-29.7427 98.768,-19.6427 89.9679,-25.5427 95.568,-29.7427"/>
</g>
</g>
</svg>
