<?xml version="1.0" encoding="UTF-8" standalone="no"?>
<!DOCTYPE svg PUBLIC "-//W3C//DTD SVG 1.1//EN"
 "http://www.w3.org/Graphics/SVG/1.1/DTD/svg11.dtd">
<!-- Generated by graphviz version 2.40.1 (20161225.0304)
 -->
<!-- Title: spikegen_from_file.h Pages: 1 -->
<svg width="337pt" height="151pt"
 viewBox="0.00 0.00 337.00 151.00" xmlns="http://www.w3.org/2000/svg" xmlns:xlink="http://www.w3.org/1999/xlink">
<g id="graph0" class="graph" transform="scale(1 1) rotate(0) translate(4 147)">
<title>spikegen_from_file.h</title>
<polygon fill="#ffffff" stroke="transparent" points="-4,4 -4,-147 333,-147 333,4 -4,4"/>
<!-- Node0 -->
<g id="node1" class="node">
<title>Node0</title>
<polygon fill="#bfbfbf" stroke="#000000" points="157.5,-123.5 157.5,-142.5 264.5,-142.5 264.5,-123.5 157.5,-123.5"/>
<text text-anchor="middle" x="211" y="-130.5" font-family="Helvetica,sans-Serif" font-size="10.00" fill="#000000">spikegen_from_file.h</text>
</g>
<!-- Node1 -->
<g id="node2" class="node">
<title>Node1</title>
<g id="a_node2"><a xlink:href="carlsim__spike__generators__api_8h.html" target="_top" xlink:title="carlsim_spike_generators\l_api.h">
<polygon fill="#ffffff" stroke="#000000" points="0,-56.5 0,-86.5 128,-86.5 128,-56.5 0,-56.5"/>
<text text-anchor="start" x="8" y="-74.5" font-family="Helvetica,sans-Serif" font-size="10.00" fill="#000000">carlsim_spike_generators</text>
<text text-anchor="middle" x="64" y="-63.5" font-family="Helvetica,sans-Serif" font-size="10.00" fill="#000000">_api.h</text>
</a>
</g>
</g>
<!-- Node0&#45;&gt;Node1 -->
<g id="edge1" class="edge">
<title>Node0&#45;&gt;Node1</title>
<path fill="none" stroke="#191970" d="M188.0313,-123.3906C167.0313,-114.6049 135.3648,-101.3567 109.2855,-90.446"/>
<polygon fill="#191970" stroke="#191970" points="110.5363,-87.1754 99.9602,-86.5446 107.8346,-93.633 110.5363,-87.1754"/>
</g>
<!-- Node3 -->
<g id="node4" class="node">
<title>Node3</title>
<g id="a_node4"><a xlink:href="callback_8h.html" target="_top" xlink:title="callback.h">
<polygon fill="#ffffff" stroke="#000000" points="146.5,-62 146.5,-81 207.5,-81 207.5,-62 146.5,-62"/>
<text text-anchor="middle" x="177" y="-69" font-family="Helvetica,sans-Serif" font-size="10.00" fill="#000000">callback.h</text>
</a>
</g>
</g>
<!-- Node0&#45;&gt;Node3 -->
<g id="edge3" class="edge">
<title>Node0&#45;&gt;Node3</title>
<path fill="none" stroke="#191970" d="M205.6875,-123.3906C200.7761,-114.5068 193.3421,-101.0601 187.2725,-90.0811"/>
<polygon fill="#191970" stroke="#191970" points="190.2888,-88.3031 182.3874,-81.2449 184.1627,-91.6899 190.2888,-88.3031"/>
</g>
<!-- Node4 -->
<g id="node5" class="node">
<title>Node4</title>
<polygon fill="#ffffff" stroke="#bfbfbf" points="225.5,-62 225.5,-81 266.5,-81 266.5,-62 225.5,-62"/>
<text text-anchor="middle" x="246" y="-69" font-family="Helvetica,sans-Serif" font-size="10.00" fill="#000000">string</text>
</g>
<!-- Node0&#45;&gt;Node4 -->
<g id="edge4" class="edge">
<title>Node0&#45;&gt;Node4</title>
<path fill="none" stroke="#191970" d="M216.4688,-123.3906C221.5246,-114.5068 229.1772,-101.0601 235.4254,-90.0811"/>
<polygon fill="#191970" stroke="#191970" points="238.5498,-91.6672 240.4541,-81.2449 232.466,-88.2048 238.5498,-91.6672"/>
</g>
<!-- Node5 -->
<g id="node6" class="node">
<title>Node5</title>
<polygon fill="#ffffff" stroke="#bfbfbf" points="285,-62 285,-81 329,-81 329,-62 285,-62"/>
<text text-anchor="middle" x="307" y="-69" font-family="Helvetica,sans-Serif" font-size="10.00" fill="#000000">vector</text>
</g>
<!-- Node0&#45;&gt;Node5 -->
<g id="edge5" class="edge">
<title>Node0&#45;&gt;Node5</title>
<path fill="none" stroke="#191970" d="M226,-123.3906C241.3581,-113.5519 265.4521,-98.1167 283.3745,-86.6351"/>
<polygon fill="#191970" stroke="#191970" points="285.573,-89.3833 292.1053,-81.0419 281.797,-83.4891 285.573,-89.3833"/>
</g>
<!-- Node2 -->
<g id="node3" class="node">
<title>Node2</title>
<g id="a_node3"><a xlink:href="carlsim__conf__api_8h.html" target="_top" xlink:title="carlsim_conf_api.h">
<polygon fill="#ffffff" stroke="#000000" points="15,-.5 15,-19.5 113,-19.5 113,-.5 15,-.5"/>
<text text-anchor="middle" x="64" y="-7.5" font-family="Helvetica,sans-Serif" font-size="10.00" fill="#000000">carlsim_conf_api.h</text>
</a>
</g>
</g>
<!-- Node1&#45;&gt;Node2 -->
<g id="edge2" class="edge">
<title>Node1&#45;&gt;Node2</title>
<path fill="none" stroke="#191970" d="M64,-56.2977C64,-48.3834 64,-38.6043 64,-30.0759"/>
<polygon fill="#191970" stroke="#191970" points="67.5001,-29.8469 64,-19.8469 60.5001,-29.847 67.5001,-29.8469"/>
</g>
</g>
</svg>
