<?xml version="1.0" encoding="UTF-8" standalone="no"?>
<!DOCTYPE svg PUBLIC "-//W3C//DTD SVG 1.1//EN"
 "http://www.w3.org/Graphics/SVG/1.1/DTD/svg11.dtd">
<!-- Generated by graphviz version 2.40.1 (20161225.0304)
 -->
<!-- Title: spike_monitor_core.cpp Pages: 1 -->
<svg width="1569pt" height="420pt"
 viewBox="0.00 0.00 1568.50 420.00" xmlns="http://www.w3.org/2000/svg" xmlns:xlink="http://www.w3.org/1999/xlink">
<g id="graph0" class="graph" transform="scale(1 1) rotate(0) translate(4 416)">
<title>spike_monitor_core.cpp</title>
<polygon fill="#ffffff" stroke="transparent" points="-4,4 -4,-416 1564.5,-416 1564.5,4 -4,4"/>
<!-- Node0 -->
<g id="node1" class="node">
<title>Node0</title>
<polygon fill="#bfbfbf" stroke="#000000" points="1170.5,-392.5 1170.5,-411.5 1290.5,-411.5 1290.5,-392.5 1170.5,-392.5"/>
<text text-anchor="middle" x="1230.5" y="-399.5" font-family="Helvetica,sans-Serif" font-size="10.00" fill="#000000">spike_monitor_core.cpp</text>
</g>
<!-- Node1 -->
<g id="node2" class="node">
<title>Node1</title>
<g id="a_node2"><a xlink:href="spike__monitor__core_8h.html" target="_top" xlink:title="spike_monitor_core.h">
<polygon fill="#ffffff" stroke="#000000" points="1300.5,-224.5 1300.5,-243.5 1410.5,-243.5 1410.5,-224.5 1300.5,-224.5"/>
<text text-anchor="middle" x="1355.5" y="-231.5" font-family="Helvetica,sans-Serif" font-size="10.00" fill="#000000">spike_monitor_core.h</text>
</a>
</g>
</g>
<!-- Node0&#45;&gt;Node1 -->
<g id="edge1" class="edge">
<title>Node0&#45;&gt;Node1</title>
<path fill="none" stroke="#191970" d="M1237.5787,-392.4862C1257.766,-365.3545 1315.8573,-287.2798 1342.2131,-251.8576"/>
<polygon fill="#191970" stroke="#191970" points="1345.0262,-253.9401 1348.1876,-243.8279 1339.4101,-249.7615 1345.0262,-253.9401"/>
</g>
<!-- Node10 -->
<g id="node11" class="node">
<title>Node10</title>
<g id="a_node11"><a xlink:href="snn_8h.html" target="_top" xlink:title="snn.h">
<polygon fill="#ffffff" stroke="#000000" points="593,-336.5 593,-355.5 634,-355.5 634,-336.5 593,-336.5"/>
<text text-anchor="middle" x="613.5" y="-343.5" font-family="Helvetica,sans-Serif" font-size="10.00" fill="#000000">snn.h</text>
</a>
</g>
</g>
<!-- Node0&#45;&gt;Node10 -->
<g id="edge10" class="edge">
<title>Node0&#45;&gt;Node10</title>
<path fill="none" stroke="#191970" d="M1170.4977,-396.5541C1041.3375,-384.8313 740.8437,-357.5579 644.0975,-348.7771"/>
<polygon fill="#191970" stroke="#191970" points="644.3714,-345.2876 634.096,-347.8693 643.7386,-352.259 644.3714,-345.2876"/>
</g>
<!-- Node21 -->
<g id="node22" class="node">
<title>Node21</title>
<polygon fill="#ffffff" stroke="#bfbfbf" points="1504.5,-224.5 1504.5,-243.5 1560.5,-243.5 1560.5,-224.5 1504.5,-224.5"/>
<text text-anchor="middle" x="1532.5" y="-231.5" font-family="Helvetica,sans-Serif" font-size="10.00" fill="#000000">algorithm</text>
</g>
<!-- Node0&#45;&gt;Node21 -->
<g id="edge61" class="edge">
<title>Node0&#45;&gt;Node21</title>
<path fill="none" stroke="#191970" d="M1247.6021,-392.4862C1297.9397,-364.4839 1445.825,-282.2166 1506.2864,-248.5824"/>
<polygon fill="#191970" stroke="#191970" points="1508.1738,-251.5376 1515.2111,-243.6177 1504.7708,-245.4204 1508.1738,-251.5376"/>
</g>
<!-- Node34 -->
<g id="node35" class="node">
<title>Node34</title>
<g id="a_node35"><a xlink:href="snn__definitions_8h.html" target="_top" xlink:title="snn_definitions.h">
<polygon fill="#ffffff" stroke="#000000" points="1096.5,-280.5 1096.5,-299.5 1186.5,-299.5 1186.5,-280.5 1096.5,-280.5"/>
<text text-anchor="middle" x="1141.5" y="-287.5" font-family="Helvetica,sans-Serif" font-size="10.00" fill="#000000">snn_definitions.h</text>
</a>
</g>
</g>
<!-- Node0&#45;&gt;Node34 -->
<g id="edge60" class="edge">
<title>Node0&#45;&gt;Node34</title>
<path fill="none" stroke="#191970" d="M1222.9119,-392.4509C1207.9364,-373.6054 1174.3862,-331.3849 1155.3601,-307.4419"/>
<polygon fill="#191970" stroke="#191970" points="1158.0305,-305.1765 1149.0689,-299.5249 1152.5501,-309.5315 1158.0305,-305.1765"/>
</g>
<!-- Node2 -->
<g id="node3" class="node">
<title>Node2</title>
<g id="a_node3"><a xlink:href="carlsim__datastructures_8h.html" target="_top" xlink:title="carlsim_datastructures.h">
<polygon fill="#ffffff" stroke="#000000" points="1147.5,-168.5 1147.5,-187.5 1271.5,-187.5 1271.5,-168.5 1147.5,-168.5"/>
<text text-anchor="middle" x="1209.5" y="-175.5" font-family="Helvetica,sans-Serif" font-size="10.00" fill="#000000">carlsim_datastructures.h</text>
</a>
</g>
</g>
<!-- Node1&#45;&gt;Node2 -->
<g id="edge2" class="edge">
<title>Node1&#45;&gt;Node2</title>
<path fill="none" stroke="#191970" d="M1330.4017,-224.3733C1306.5445,-215.2226 1270.4665,-201.3844 1243.929,-191.2057"/>
<polygon fill="#191970" stroke="#191970" points="1244.861,-187.8145 1234.2708,-187.5011 1242.3541,-194.3503 1244.861,-187.8145"/>
</g>
<!-- Node8 -->
<g id="node9" class="node">
<title>Node8</title>
<polygon fill="#ffffff" stroke="#bfbfbf" points="1298.5,-168.5 1298.5,-187.5 1344.5,-187.5 1344.5,-168.5 1298.5,-168.5"/>
<text text-anchor="middle" x="1321.5" y="-175.5" font-family="Helvetica,sans-Serif" font-size="10.00" fill="#000000">stdio.h</text>
</g>
<!-- Node1&#45;&gt;Node8 -->
<g id="edge8" class="edge">
<title>Node1&#45;&gt;Node8</title>
<path fill="none" stroke="#191970" d="M1349.5777,-224.2455C1344.8973,-216.5367 1338.2327,-205.5598 1332.5711,-196.2348"/>
<polygon fill="#191970" stroke="#191970" points="1335.5361,-194.3741 1327.3545,-187.6427 1329.5525,-198.007 1335.5361,-194.3741"/>
</g>
<!-- Node9 -->
<g id="node10" class="node">
<title>Node9</title>
<polygon fill="#ffffff" stroke="#bfbfbf" points="620.5,-168.5 620.5,-187.5 664.5,-187.5 664.5,-168.5 620.5,-168.5"/>
<text text-anchor="middle" x="642.5" y="-175.5" font-family="Helvetica,sans-Serif" font-size="10.00" fill="#000000">vector</text>
</g>
<!-- Node1&#45;&gt;Node9 -->
<g id="edge9" class="edge">
<title>Node1&#45;&gt;Node9</title>
<path fill="none" stroke="#191970" d="M1300.4675,-228.375C1285.2584,-226.883 1268.7451,-225.321 1253.5,-224 1032.508,-204.8507 766.1436,-186.3771 674.9469,-180.1837"/>
<polygon fill="#191970" stroke="#191970" points="674.9223,-176.6741 664.7086,-179.49 674.4491,-183.658 674.9223,-176.6741"/>
</g>
<!-- Node3 -->
<g id="node4" class="node">
<title>Node3</title>
<polygon fill="#ffffff" stroke="#bfbfbf" points="1325.5,-112.5 1325.5,-131.5 1377.5,-131.5 1377.5,-112.5 1325.5,-112.5"/>
<text text-anchor="middle" x="1351.5" y="-119.5" font-family="Helvetica,sans-Serif" font-size="10.00" fill="#000000">ostream</text>
</g>
<!-- Node2&#45;&gt;Node3 -->
<g id="edge3" class="edge">
<title>Node2&#45;&gt;Node3</title>
<path fill="none" stroke="#191970" d="M1233.9107,-168.3733C1257.1142,-159.2226 1292.2038,-145.3844 1318.0142,-135.2057"/>
<polygon fill="#191970" stroke="#191970" points="1319.3892,-138.4258 1327.4079,-131.5011 1316.8211,-131.9139 1319.3892,-138.4258"/>
</g>
<!-- Node4 -->
<g id="node5" class="node">
<title>Node4</title>
<g id="a_node5"><a xlink:href="user__errors_8h.html" target="_top" xlink:title="user_errors.h">
<polygon fill="#ffffff" stroke="#000000" points="1172.5,-112.5 1172.5,-131.5 1246.5,-131.5 1246.5,-112.5 1172.5,-112.5"/>
<text text-anchor="middle" x="1209.5" y="-119.5" font-family="Helvetica,sans-Serif" font-size="10.00" fill="#000000">user_errors.h</text>
</a>
</g>
</g>
<!-- Node2&#45;&gt;Node4 -->
<g id="edge4" class="edge">
<title>Node2&#45;&gt;Node4</title>
<path fill="none" stroke="#191970" d="M1209.5,-168.2455C1209.5,-160.9382 1209.5,-150.6944 1209.5,-141.7046"/>
<polygon fill="#191970" stroke="#191970" points="1213.0001,-141.6426 1209.5,-131.6427 1206.0001,-141.6427 1213.0001,-141.6426"/>
</g>
<!-- Node5 -->
<g id="node6" class="node">
<title>Node5</title>
<g id="a_node6"><a xlink:href="carlsim__api_8h.html" target="_top" xlink:title="carlsim_api.h">
<polygon fill="#ffffff" stroke="#000000" points="555.5,-56.5 555.5,-75.5 629.5,-75.5 629.5,-56.5 555.5,-56.5"/>
<text text-anchor="middle" x="592.5" y="-63.5" font-family="Helvetica,sans-Serif" font-size="10.00" fill="#000000">carlsim_api.h</text>
</a>
</g>
</g>
<!-- Node4&#45;&gt;Node5 -->
<g id="edge5" class="edge">
<title>Node4&#45;&gt;Node5</title>
<path fill="none" stroke="#191970" d="M1172.2934,-118.6231C1065.5669,-108.9364 758.4838,-81.065 639.9606,-70.3076"/>
<polygon fill="#191970" stroke="#191970" points="640.0306,-66.7997 629.7551,-69.3813 639.3978,-73.771 640.0306,-66.7997"/>
</g>
<!-- Node7 -->
<g id="node8" class="node">
<title>Node7</title>
<polygon fill="#ffffff" stroke="#bfbfbf" points="1326,-56.5 1326,-75.5 1367,-75.5 1367,-56.5 1326,-56.5"/>
<text text-anchor="middle" x="1346.5" y="-63.5" font-family="Helvetica,sans-Serif" font-size="10.00" fill="#000000">string</text>
</g>
<!-- Node4&#45;&gt;Node7 -->
<g id="edge7" class="edge">
<title>Node4&#45;&gt;Node7</title>
<path fill="none" stroke="#191970" d="M1233.0511,-112.3733C1256.1495,-102.9316 1291.4563,-88.4996 1316.541,-78.246"/>
<polygon fill="#191970" stroke="#191970" points="1318.0054,-81.4286 1325.9376,-74.4051 1315.3567,-74.949 1318.0054,-81.4286"/>
</g>
<!-- Node6 -->
<g id="node7" class="node">
<title>Node6</title>
<g id="a_node7"><a xlink:href="carlsim__conf__api_8h.html" target="_top" xlink:title="carlsim_conf_api.h">
<polygon fill="#ffffff" stroke="#000000" points="543.5,-.5 543.5,-19.5 641.5,-19.5 641.5,-.5 543.5,-.5"/>
<text text-anchor="middle" x="592.5" y="-7.5" font-family="Helvetica,sans-Serif" font-size="10.00" fill="#000000">carlsim_conf_api.h</text>
</a>
</g>
</g>
<!-- Node5&#45;&gt;Node6 -->
<g id="edge6" class="edge">
<title>Node5&#45;&gt;Node6</title>
<path fill="none" stroke="#191970" d="M592.5,-56.2455C592.5,-48.9382 592.5,-38.6944 592.5,-29.7046"/>
<polygon fill="#191970" stroke="#191970" points="596.0001,-29.6426 592.5,-19.6427 589.0001,-29.6427 596.0001,-29.6426"/>
</g>
<!-- Node11 -->
<g id="node12" class="node">
<title>Node11</title>
<polygon fill="#ffffff" stroke="#bfbfbf" points="901,-280.5 901,-299.5 936,-299.5 936,-280.5 901,-280.5"/>
<text text-anchor="middle" x="918.5" y="-287.5" font-family="Helvetica,sans-Serif" font-size="10.00" fill="#000000">map</text>
</g>
<!-- Node10&#45;&gt;Node11 -->
<g id="edge11" class="edge">
<title>Node10&#45;&gt;Node11</title>
<path fill="none" stroke="#191970" d="M634.0125,-343.9614C678.9975,-339.2068 789.7198,-325.9546 891.1523,-299.6405"/>
<polygon fill="#191970" stroke="#191970" points="892.1639,-302.9934 900.9368,-297.0531 890.3743,-296.226 892.1639,-302.9934"/>
</g>
<!-- Node12 -->
<g id="node13" class="node">
<title>Node12</title>
<polygon fill="#ffffff" stroke="#bfbfbf" points="257,-280.5 257,-299.5 286,-299.5 286,-280.5 257,-280.5"/>
<text text-anchor="middle" x="271.5" y="-287.5" font-family="Helvetica,sans-Serif" font-size="10.00" fill="#000000">list</text>
</g>
<!-- Node10&#45;&gt;Node12 -->
<g id="edge12" class="edge">
<title>Node10&#45;&gt;Node12</title>
<path fill="none" stroke="#191970" d="M592.6699,-344.7992C541.3275,-341.4517 404.9291,-330.194 295.5,-300 295.4021,-299.973 295.3041,-299.9457 295.2059,-299.9181"/>
<polygon fill="#191970" stroke="#191970" points="296.6119,-296.7012 286.0171,-296.7322 294.3188,-303.315 296.6119,-296.7012"/>
</g>
<!-- Node13 -->
<g id="node14" class="node">
<title>Node13</title>
<polygon fill="#ffffff" stroke="#bfbfbf" points="304.5,-280.5 304.5,-299.5 348.5,-299.5 348.5,-280.5 304.5,-280.5"/>
<text text-anchor="middle" x="326.5" y="-287.5" font-family="Helvetica,sans-Serif" font-size="10.00" fill="#000000">cmath</text>
</g>
<!-- Node10&#45;&gt;Node13 -->
<g id="edge13" class="edge">
<title>Node10&#45;&gt;Node13</title>
<path fill="none" stroke="#191970" d="M592.7269,-343.2334C550.3767,-337.3895 450.9144,-322.6261 358.5268,-300.0028"/>
<polygon fill="#191970" stroke="#191970" points="359.2967,-296.5878 348.7477,-297.5715 357.6077,-303.381 359.2967,-296.5878"/>
</g>
<!-- Node14 -->
<g id="node15" class="node">
<title>Node14</title>
<polygon fill="#ffffff" stroke="#bfbfbf" points="366.5,-280.5 366.5,-299.5 412.5,-299.5 412.5,-280.5 366.5,-280.5"/>
<text text-anchor="middle" x="389.5" y="-287.5" font-family="Helvetica,sans-Serif" font-size="10.00" fill="#000000">cstring</text>
</g>
<!-- Node10&#45;&gt;Node14 -->
<g id="edge14" class="edge">
<title>Node10&#45;&gt;Node14</title>
<path fill="none" stroke="#191970" d="M592.9243,-341.5511C559.3069,-334.1802 490.3275,-318.6309 422.51,-300.1454"/>
<polygon fill="#191970" stroke="#191970" points="423.0871,-296.6742 412.5169,-297.3973 421.231,-303.4237 423.0871,-296.6742"/>
</g>
<!-- Node15 -->
<g id="node16" class="node">
<title>Node15</title>
<polygon fill="#ffffff" stroke="#bfbfbf" points="431,-280.5 431,-299.5 480,-299.5 480,-280.5 431,-280.5"/>
<text text-anchor="middle" x="455.5" y="-287.5" font-family="Helvetica,sans-Serif" font-size="10.00" fill="#000000">cassert</text>
</g>
<!-- Node10&#45;&gt;Node15 -->
<g id="edge15" class="edge">
<title>Node10&#45;&gt;Node15</title>
<path fill="none" stroke="#191970" d="M592.8443,-338.679C566.653,-329.396 521.1305,-313.2614 489.7161,-302.1272"/>
<polygon fill="#191970" stroke="#191970" points="490.6495,-298.7448 480.0547,-298.7029 488.311,-305.3426 490.6495,-298.7448"/>
</g>
<!-- Node16 -->
<g id="node17" class="node">
<title>Node16</title>
<polygon fill="#ffffff" stroke="#bfbfbf" points="498,-280.5 498,-299.5 541,-299.5 541,-280.5 498,-280.5"/>
<text text-anchor="middle" x="519.5" y="-287.5" font-family="Helvetica,sans-Serif" font-size="10.00" fill="#000000">cstdio</text>
</g>
<!-- Node10&#45;&gt;Node16 -->
<g id="edge16" class="edge">
<title>Node10&#45;&gt;Node16</title>
<path fill="none" stroke="#191970" d="M597.1264,-336.2455C582.5692,-327.5731 561.069,-314.7645 544.3848,-304.825"/>
<polygon fill="#191970" stroke="#191970" points="546.0683,-301.7539 535.6859,-299.6427 542.4856,-307.7676 546.0683,-301.7539"/>
</g>
<!-- Node17 -->
<g id="node18" class="node">
<title>Node17</title>
<polygon fill="#ffffff" stroke="#bfbfbf" points="559,-280.5 559,-299.5 604,-299.5 604,-280.5 559,-280.5"/>
<text text-anchor="middle" x="581.5" y="-287.5" font-family="Helvetica,sans-Serif" font-size="10.00" fill="#000000">climits</text>
</g>
<!-- Node10&#45;&gt;Node17 -->
<g id="edge17" class="edge">
<title>Node10&#45;&gt;Node17</title>
<path fill="none" stroke="#191970" d="M607.926,-336.2455C603.5669,-328.617 597.3789,-317.7881 592.0867,-308.5267"/>
<polygon fill="#191970" stroke="#191970" points="595.0104,-306.5886 587.0101,-299.6427 588.9327,-310.0616 595.0104,-306.5886"/>
</g>
<!-- Node18 -->
<g id="node19" class="node">
<title>Node18</title>
<polygon fill="#ffffff" stroke="#bfbfbf" points="622.5,-280.5 622.5,-299.5 666.5,-299.5 666.5,-280.5 622.5,-280.5"/>
<text text-anchor="middle" x="644.5" y="-287.5" font-family="Helvetica,sans-Serif" font-size="10.00" fill="#000000">mutex</text>
</g>
<!-- Node10&#45;&gt;Node18 -->
<g id="edge18" class="edge">
<title>Node10&#45;&gt;Node18</title>
<path fill="none" stroke="#191970" d="M618.8998,-336.2455C623.1227,-328.617 629.1173,-317.7881 634.2441,-308.5267"/>
<polygon fill="#191970" stroke="#191970" points="637.381,-310.0867 639.1621,-299.6427 631.2568,-306.6965 637.381,-310.0867"/>
</g>
<!-- Node19 -->
<g id="node20" class="node">
<title>Node19</title>
<g id="a_node20"><a xlink:href="carlsim_8h.html" target="_top" xlink:title="carlsim.h">
<polygon fill="#ffffff" stroke="#000000" points="826.5,-280.5 826.5,-299.5 882.5,-299.5 882.5,-280.5 826.5,-280.5"/>
<text text-anchor="middle" x="854.5" y="-287.5" font-family="Helvetica,sans-Serif" font-size="10.00" fill="#000000">carlsim.h</text>
</a>
</g>
</g>
<!-- Node10&#45;&gt;Node19 -->
<g id="edge19" class="edge">
<title>Node10&#45;&gt;Node19</title>
<path fill="none" stroke="#191970" d="M634.1369,-341.2767C670.2898,-332.9917 747.4257,-315.2679 812.5,-300 813.7725,-299.7014 815.0665,-299.3972 816.3731,-299.0893"/>
<polygon fill="#191970" stroke="#191970" points="817.5663,-302.4038 826.492,-296.6956 815.9548,-295.5918 817.5663,-302.4038"/>
</g>
<!-- Node24 -->
<g id="node25" class="node">
<title>Node24</title>
<g id="a_node25"><a xlink:href="poisson__rate_8h.html" target="_top" xlink:title="poisson_rate.h">
<polygon fill="#ffffff" stroke="#000000" points="272.5,-224.5 272.5,-243.5 352.5,-243.5 352.5,-224.5 272.5,-224.5"/>
<text text-anchor="middle" x="312.5" y="-231.5" font-family="Helvetica,sans-Serif" font-size="10.00" fill="#000000">poisson_rate.h</text>
</a>
</g>
</g>
<!-- Node10&#45;&gt;Node24 -->
<g id="edge59" class="edge">
<title>Node10&#45;&gt;Node24</title>
<path fill="none" stroke="#191970" d="M634.0634,-344.8466C687.137,-341.1766 821.6489,-327.0836 778.5,-280 747.4533,-246.1222 412.0333,-250.1908 366.5,-244 365.2246,-243.8266 363.9335,-243.6437 362.632,-243.4527"/>
<polygon fill="#191970" stroke="#191970" points="362.9596,-239.9611 352.5356,-241.8561 361.8661,-246.8752 362.9596,-239.9611"/>
</g>
<!-- Node33 -->
<g id="node34" class="node">
<title>Node33</title>
<g id="a_node34"><a xlink:href="callback__core_8h.html" target="_top" xlink:title="callback_core.h">
<polygon fill="#ffffff" stroke="#000000" points="685,-280.5 685,-299.5 770,-299.5 770,-280.5 685,-280.5"/>
<text text-anchor="middle" x="727.5" y="-287.5" font-family="Helvetica,sans-Serif" font-size="10.00" fill="#000000">callback_core.h</text>
</a>
</g>
</g>
<!-- Node10&#45;&gt;Node33 -->
<g id="edge52" class="edge">
<title>Node10&#45;&gt;Node33</title>
<path fill="none" stroke="#191970" d="M633.0973,-336.3733C651.2331,-327.4644 678.4135,-314.1127 698.9587,-304.0203"/>
<polygon fill="#191970" stroke="#191970" points="700.7261,-307.0517 708.1584,-299.5011 697.6397,-300.7688 700.7261,-307.0517"/>
</g>
<!-- Node10&#45;&gt;Node34 -->
<g id="edge53" class="edge">
<title>Node10&#45;&gt;Node34</title>
<path fill="none" stroke="#191970" d="M634.1982,-343.8047C709.6173,-335.8057 971.3007,-308.0514 1086.4236,-295.8414"/>
<polygon fill="#191970" stroke="#191970" points="1086.8625,-299.3146 1096.4376,-294.7793 1086.1242,-292.3536 1086.8625,-299.3146"/>
</g>
<!-- Node35 -->
<g id="node36" class="node">
<title>Node35</title>
<g id="a_node36"><a xlink:href="snn__datastructures_8h.html" target="_top" xlink:title="snn_datastructures.h">
<polygon fill="#ffffff" stroke="#000000" points="130.5,-280.5 130.5,-299.5 238.5,-299.5 238.5,-280.5 130.5,-280.5"/>
<text text-anchor="middle" x="184.5" y="-287.5" font-family="Helvetica,sans-Serif" font-size="10.00" fill="#000000">snn_datastructures.h</text>
</a>
</g>
</g>
<!-- Node10&#45;&gt;Node35 -->
<g id="edge54" class="edge">
<title>Node10&#45;&gt;Node35</title>
<path fill="none" stroke="#191970" d="M592.8315,-343.6401C538.4043,-337.3756 386.4145,-319.5581 249.0618,-300.1871"/>
<polygon fill="#191970" stroke="#191970" points="249.1715,-296.6678 238.7793,-298.7301 248.1894,-303.5986 249.1715,-296.6678"/>
</g>
<!-- Node19&#45;&gt;Node2 -->
<g id="edge25" class="edge">
<title>Node19&#45;&gt;Node2</title>
<path fill="none" stroke="#191970" d="M882.6721,-281.8722C885.6375,-281.1709 888.6203,-280.5286 891.5,-280 971.0127,-265.4043 1199.2387,-303.9251 1253.5,-244 1267.6394,-228.3847 1249.1712,-207.8656 1232.0153,-193.8785"/>
<polygon fill="#191970" stroke="#191970" points="1233.9054,-190.9165 1223.8473,-187.587 1229.6337,-196.4621 1233.9054,-190.9165"/>
</g>
<!-- Node19&#45;&gt;Node5 -->
<g id="edge26" class="edge">
<title>Node19&#45;&gt;Node5</title>
<path fill="none" stroke="#191970" d="M826.3955,-285.8859C812.0818,-283.8964 794.3895,-281.5992 778.5,-280 721.4265,-274.2558 302.6212,-285.9513 263.5,-244 173.305,-147.28 434.7932,-91.8014 545.5257,-73.154"/>
<polygon fill="#191970" stroke="#191970" points="546.1451,-76.5992 555.4404,-71.5151 545.0034,-69.6929 546.1451,-76.5992"/>
</g>
<!-- Node19&#45;&gt;Node7 -->
<g id="edge21" class="edge">
<title>Node19&#45;&gt;Node7</title>
<path fill="none" stroke="#191970" d="M882.6548,-281.7735C885.6236,-281.0914 888.6119,-280.4806 891.5,-280 951.4736,-270.0196 1389.2754,-281.0247 1437.5,-244 1465.1167,-222.7971 1470.4282,-199.91 1456.5,-168 1439.464,-128.97 1399.3131,-98.1856 1372.5262,-81.0367"/>
<polygon fill="#191970" stroke="#191970" points="1374.3497,-78.0492 1364.007,-75.7515 1370.6594,-83.9975 1374.3497,-78.0492"/>
</g>
<!-- Node19&#45;&gt;Node9 -->
<g id="edge22" class="edge">
<title>Node19&#45;&gt;Node9</title>
<path fill="none" stroke="#191970" d="M826.1074,-282.8782C821.5707,-281.8447 816.917,-280.846 812.5,-280 758.0214,-269.5658 601.7839,-285.9556 565.5,-244 546.9781,-222.5829 582.1146,-202.0281 610.8021,-189.7043"/>
<polygon fill="#191970" stroke="#191970" points="612.273,-192.8841 620.1969,-185.8511 609.6167,-186.4076 612.273,-192.8841"/>
</g>
<!-- Node20 -->
<g id="node21" class="node">
<title>Node20</title>
<polygon fill="#ffffff" stroke="#bfbfbf" points="679,-224.5 679,-243.5 728,-243.5 728,-224.5 679,-224.5"/>
<text text-anchor="middle" x="703.5" y="-231.5" font-family="Helvetica,sans-Serif" font-size="10.00" fill="#000000">stdint.h</text>
</g>
<!-- Node19&#45;&gt;Node20 -->
<g id="edge20" class="edge">
<title>Node19&#45;&gt;Node20</title>
<path fill="none" stroke="#191970" d="M828.5422,-280.3733C803.4589,-271.0708 765.3136,-256.9242 737.7512,-246.7024"/>
<polygon fill="#191970" stroke="#191970" points="738.7122,-243.326 728.1192,-243.1303 736.2782,-249.8892 738.7122,-243.326"/>
</g>
<!-- Node19&#45;&gt;Node21 -->
<g id="edge23" class="edge">
<title>Node19&#45;&gt;Node21</title>
<path fill="none" stroke="#191970" d="M882.652,-281.7562C885.6213,-281.0775 888.6105,-280.4722 891.5,-280 1154.7107,-236.984 1226.6693,-283.034 1490.5,-244 1491.7512,-243.8149 1493.02,-243.6107 1494.2986,-243.3908"/>
<polygon fill="#191970" stroke="#191970" points="1495.0261,-246.8149 1504.1635,-241.452 1493.6762,-239.9463 1495.0261,-246.8149"/>
</g>
<!-- Node22 -->
<g id="node23" class="node">
<title>Node22</title>
<g id="a_node23"><a xlink:href="carlsim__definitions_8h.html" target="_top" xlink:title="carlsim_definitions.h">
<polygon fill="#ffffff" stroke="#000000" points="379.5,-168.5 379.5,-187.5 485.5,-187.5 485.5,-168.5 379.5,-168.5"/>
<text text-anchor="middle" x="432.5" y="-175.5" font-family="Helvetica,sans-Serif" font-size="10.00" fill="#000000">carlsim_definitions.h</text>
</a>
</g>
</g>
<!-- Node19&#45;&gt;Node22 -->
<g id="edge24" class="edge">
<title>Node19&#45;&gt;Node22</title>
<path fill="none" stroke="#191970" d="M826.4496,-284.5992C817.2505,-282.9565 806.9617,-281.2557 797.5,-280 753.4832,-274.1585 429.4499,-276.7812 399.5,-244 386.5224,-229.7955 400.1299,-209.5417 413.5958,-195.2255"/>
<polygon fill="#191970" stroke="#191970" points="416.2766,-197.4954 420.8926,-187.959 411.3371,-192.5353 416.2766,-197.4954"/>
</g>
<!-- Node23 -->
<g id="node24" class="node">
<title>Node23</title>
<g id="a_node24"><a xlink:href="callback_8h.html" target="_top" xlink:title="callback.h">
<polygon fill="#ffffff" stroke="#000000" points="746,-224.5 746,-243.5 807,-243.5 807,-224.5 746,-224.5"/>
<text text-anchor="middle" x="776.5" y="-231.5" font-family="Helvetica,sans-Serif" font-size="10.00" fill="#000000">callback.h</text>
</a>
</g>
</g>
<!-- Node19&#45;&gt;Node23 -->
<g id="edge27" class="edge">
<title>Node19&#45;&gt;Node23</title>
<path fill="none" stroke="#191970" d="M840.9134,-280.2455C829.1695,-271.814 811.9801,-259.4729 798.3118,-249.6598"/>
<polygon fill="#191970" stroke="#191970" points="800.0954,-246.6316 789.9309,-243.6427 796.0129,-252.3179 800.0954,-246.6316"/>
</g>
<!-- Node19&#45;&gt;Node24 -->
<g id="edge28" class="edge">
<title>Node19&#45;&gt;Node24</title>
<path fill="none" stroke="#191970" d="M826.1512,-282.6281C821.6088,-281.627 816.9419,-280.7038 812.5,-280 616.0834,-248.8779 563.6414,-270.1401 366.5,-244 365.224,-243.8308 363.9325,-243.6517 362.6305,-243.4641"/>
<polygon fill="#191970" stroke="#191970" points="362.9521,-239.9719 352.5316,-241.8858 361.8712,-246.888 362.9521,-239.9719"/>
</g>
<!-- Node25 -->
<g id="node26" class="node">
<title>Node25</title>
<g id="a_node26"><a xlink:href="spike__monitor_8h.html" target="_top" xlink:title="spike_monitor.h">
<polygon fill="#ffffff" stroke="#000000" points="574.5,-224.5 574.5,-243.5 660.5,-243.5 660.5,-224.5 574.5,-224.5"/>
<text text-anchor="middle" x="617.5" y="-231.5" font-family="Helvetica,sans-Serif" font-size="10.00" fill="#000000">spike_monitor.h</text>
</a>
</g>
</g>
<!-- Node19&#45;&gt;Node25 -->
<g id="edge31" class="edge">
<title>Node19&#45;&gt;Node25</title>
<path fill="none" stroke="#191970" d="M826.4878,-283.3219C821.8171,-282.2108 817.022,-281.0717 812.5,-280 763.4615,-268.3781 707.4692,-255.1767 668.1022,-245.9065"/>
<polygon fill="#191970" stroke="#191970" points="668.7512,-242.4637 658.2152,-243.5786 667.1469,-249.2773 668.7512,-242.4637"/>
</g>
<!-- Node26 -->
<g id="node27" class="node">
<title>Node26</title>
<g id="a_node27"><a xlink:href="neuron__monitor_8h.html" target="_top" xlink:title="neuron_monitor.h">
<polygon fill="#ffffff" stroke="#000000" points="1048.5,-224.5 1048.5,-243.5 1140.5,-243.5 1140.5,-224.5 1048.5,-224.5"/>
<text text-anchor="middle" x="1094.5" y="-231.5" font-family="Helvetica,sans-Serif" font-size="10.00" fill="#000000">neuron_monitor.h</text>
</a>
</g>
</g>
<!-- Node19&#45;&gt;Node26 -->
<g id="edge35" class="edge">
<title>Node19&#45;&gt;Node26</title>
<path fill="none" stroke="#191970" d="M882.7507,-282.2364C885.7008,-281.4641 888.6585,-280.7056 891.5,-280 941.7199,-267.5292 999.2718,-254.6174 1040.241,-245.6597"/>
<polygon fill="#191970" stroke="#191970" points="1040.9985,-249.0768 1050.0234,-243.527 1039.5074,-242.2375 1040.9985,-249.0768"/>
</g>
<!-- Node27 -->
<g id="node28" class="node">
<title>Node27</title>
<g id="a_node28"><a xlink:href="connection__monitor_8h.html" target="_top" xlink:title="connection_monitor.h">
<polygon fill="#ffffff" stroke="#000000" points="408.5,-224.5 408.5,-243.5 518.5,-243.5 518.5,-224.5 408.5,-224.5"/>
<text text-anchor="middle" x="463.5" y="-231.5" font-family="Helvetica,sans-Serif" font-size="10.00" fill="#000000">connection_monitor.h</text>
</a>
</g>
</g>
<!-- Node19&#45;&gt;Node27 -->
<g id="edge39" class="edge">
<title>Node19&#45;&gt;Node27</title>
<path fill="none" stroke="#191970" d="M826.1197,-282.8126C821.5814,-281.7877 816.924,-280.8087 812.5,-280 689.0765,-257.4378 656.812,-260.9985 532.5,-244 531.3907,-243.8483 530.2714,-243.6945 529.1444,-243.539"/>
<polygon fill="#191970" stroke="#191970" points="529.2385,-240.0183 518.8505,-242.1016 528.2704,-246.951 529.2385,-240.0183"/>
</g>
<!-- Node28 -->
<g id="node29" class="node">
<title>Node28</title>
<g id="a_node29"><a xlink:href="group__monitor_8h.html" target="_top" xlink:title="group_monitor.h">
<polygon fill="#ffffff" stroke="#000000" points="1158.5,-224.5 1158.5,-243.5 1244.5,-243.5 1244.5,-224.5 1158.5,-224.5"/>
<text text-anchor="middle" x="1201.5" y="-231.5" font-family="Helvetica,sans-Serif" font-size="10.00" fill="#000000">group_monitor.h</text>
</a>
</g>
</g>
<!-- Node19&#45;&gt;Node28 -->
<g id="edge43" class="edge">
<title>Node19&#45;&gt;Node28</title>
<path fill="none" stroke="#191970" d="M882.6947,-281.9891C885.6557,-281.265 888.6313,-280.5854 891.5,-280 1001.8378,-257.4838 1033.5604,-262.6273 1148.5053,-244.0861"/>
<polygon fill="#191970" stroke="#191970" points="1149.0978,-247.5357 1158.4004,-242.465 1147.966,-240.6278 1149.0978,-247.5357"/>
</g>
<!-- Node29 -->
<g id="node30" class="node">
<title>Node29</title>
<g id="a_node30"><a xlink:href="linear__algebra_8h.html" target="_top" xlink:title="linear_algebra.h">
<polygon fill="#ffffff" stroke="#000000" points="1363,-168.5 1363,-187.5 1448,-187.5 1448,-168.5 1363,-168.5"/>
<text text-anchor="middle" x="1405.5" y="-175.5" font-family="Helvetica,sans-Serif" font-size="10.00" fill="#000000">linear_algebra.h</text>
</a>
</g>
</g>
<!-- Node19&#45;&gt;Node29 -->
<g id="edge47" class="edge">
<title>Node19&#45;&gt;Node29</title>
<path fill="none" stroke="#191970" d="M882.6559,-281.7801C885.6245,-281.0968 888.6125,-280.4838 891.5,-280 949.4943,-270.2823 1379.3592,-286.9709 1419.5,-244 1431.3064,-231.3612 1424.8359,-211.3453 1417.2443,-196.667"/>
<polygon fill="#191970" stroke="#191970" points="1420.2588,-194.8875 1412.2745,-187.9231 1414.1731,-198.3465 1420.2588,-194.8875"/>
</g>
<!-- Node30 -->
<g id="node31" class="node">
<title>Node30</title>
<polygon fill="#ffffff" stroke="#bfbfbf" points="825,-224.5 825,-243.5 882,-243.5 882,-224.5 825,-224.5"/>
<text text-anchor="middle" x="853.5" y="-231.5" font-family="Helvetica,sans-Serif" font-size="10.00" fill="#000000">pthread.h</text>
</g>
<!-- Node19&#45;&gt;Node30 -->
<g id="edge49" class="edge">
<title>Node19&#45;&gt;Node30</title>
<path fill="none" stroke="#191970" d="M854.3258,-280.2455C854.1953,-272.9382 854.0124,-262.6944 853.8519,-253.7046"/>
<polygon fill="#191970" stroke="#191970" points="857.3503,-253.5786 853.6722,-243.6427 850.3514,-253.7036 857.3503,-253.5786"/>
</g>
<!-- Node31 -->
<g id="node32" class="node">
<title>Node31</title>
<polygon fill="#ffffff" stroke="#bfbfbf" points="900.5,-224.5 900.5,-243.5 960.5,-243.5 960.5,-224.5 900.5,-224.5"/>
<text text-anchor="middle" x="930.5" y="-231.5" font-family="Helvetica,sans-Serif" font-size="10.00" fill="#000000">sys/stat.h</text>
</g>
<!-- Node19&#45;&gt;Node31 -->
<g id="edge50" class="edge">
<title>Node19&#45;&gt;Node31</title>
<path fill="none" stroke="#191970" d="M867.7382,-280.2455C879.181,-271.814 895.9296,-259.4729 909.2475,-249.6598"/>
<polygon fill="#191970" stroke="#191970" points="911.4391,-252.3924 917.4135,-243.6427 907.2867,-246.757 911.4391,-252.3924"/>
</g>
<!-- Node32 -->
<g id="node33" class="node">
<title>Node32</title>
<polygon fill="#ffffff" stroke="#bfbfbf" points="979,-224.5 979,-243.5 1030,-243.5 1030,-224.5 979,-224.5"/>
<text text-anchor="middle" x="1004.5" y="-231.5" font-family="Helvetica,sans-Serif" font-size="10.00" fill="#000000">unistd.h</text>
</g>
<!-- Node19&#45;&gt;Node32 -->
<g id="edge51" class="edge">
<title>Node19&#45;&gt;Node32</title>
<path fill="none" stroke="#191970" d="M880.2859,-280.3733C904.9047,-271.1822 942.19,-257.2624 969.4875,-247.0713"/>
<polygon fill="#191970" stroke="#191970" points="970.9063,-250.2777 979.0506,-243.5011 968.458,-243.7198 970.9063,-250.2777"/>
</g>
<!-- Node24&#45;&gt;Node5 -->
<g id="edge29" class="edge">
<title>Node24&#45;&gt;Node5</title>
<path fill="none" stroke="#191970" d="M318.9783,-224.3401C328.7518,-210.3687 348.4808,-184.4031 370.5,-168 427.5407,-125.5078 505.1122,-94.9169 551.8403,-78.8688"/>
<polygon fill="#191970" stroke="#191970" points="553.2523,-82.0862 561.6079,-75.5721 551.0138,-75.4538 553.2523,-82.0862"/>
</g>
<!-- Node24&#45;&gt;Node9 -->
<g id="edge30" class="edge">
<title>Node24&#45;&gt;Node9</title>
<path fill="none" stroke="#191970" d="M352.6346,-227.1893C418.7467,-215.9703 549.2672,-193.8213 609.9986,-183.5154"/>
<polygon fill="#191970" stroke="#191970" points="610.8805,-186.9159 620.154,-181.7921 609.7093,-180.0145 610.8805,-186.9159"/>
</g>
<!-- Node25&#45;&gt;Node2 -->
<g id="edge33" class="edge">
<title>Node25&#45;&gt;Node2</title>
<path fill="none" stroke="#191970" d="M660.5724,-225.3557C663.5879,-224.8618 666.5859,-224.4032 669.5,-224 836.141,-200.944 1033.4191,-187.6552 1137.2525,-181.7368"/>
<polygon fill="#191970" stroke="#191970" points="1137.5228,-185.2272 1147.31,-181.17 1137.1288,-178.2383 1137.5228,-185.2272"/>
</g>
<!-- Node25&#45;&gt;Node5 -->
<g id="edge32" class="edge">
<title>Node25&#45;&gt;Node5</title>
<path fill="none" stroke="#191970" d="M616.0843,-224.4862C612.1323,-197.9293 600.9174,-122.5651 595.5008,-86.1655"/>
<polygon fill="#191970" stroke="#191970" points="598.8963,-85.2038 593.9625,-75.8279 591.9726,-86.2342 598.8963,-85.2038"/>
</g>
<!-- Node25&#45;&gt;Node9 -->
<g id="edge34" class="edge">
<title>Node25&#45;&gt;Node9</title>
<path fill="none" stroke="#191970" d="M621.8547,-224.2455C625.2244,-216.6973 629.993,-206.0158 634.0983,-196.8197"/>
<polygon fill="#191970" stroke="#191970" points="637.3147,-198.2009 638.1952,-187.6427 630.9227,-195.3473 637.3147,-198.2009"/>
</g>
<!-- Node26&#45;&gt;Node2 -->
<g id="edge37" class="edge">
<title>Node26&#45;&gt;Node2</title>
<path fill="none" stroke="#191970" d="M1114.2692,-224.3733C1132.6469,-215.4241 1160.2312,-201.9917 1180.9893,-191.8835"/>
<polygon fill="#191970" stroke="#191970" points="1182.5304,-195.026 1189.9888,-187.5011 1179.4657,-188.7325 1182.5304,-195.026"/>
</g>
<!-- Node26&#45;&gt;Node5 -->
<g id="edge36" class="edge">
<title>Node26&#45;&gt;Node5</title>
<path fill="none" stroke="#191970" d="M1066.072,-224.4862C980.8347,-195.9606 727.3318,-111.123 630.5937,-78.7485"/>
<polygon fill="#191970" stroke="#191970" points="631.5204,-75.3679 620.9266,-75.5133 629.2989,-82.006 631.5204,-75.3679"/>
</g>
<!-- Node26&#45;&gt;Node9 -->
<g id="edge38" class="edge">
<title>Node26&#45;&gt;Node9</title>
<path fill="none" stroke="#191970" d="M1048.3916,-225.5363C1045.0479,-224.9932 1041.7243,-224.4747 1038.5,-224 903.9563,-204.1916 742.6599,-187.6915 674.9385,-181.0905"/>
<polygon fill="#191970" stroke="#191970" points="675.1824,-177.5978 664.8915,-180.1171 674.5073,-184.5652 675.1824,-177.5978"/>
</g>
<!-- Node27&#45;&gt;Node5 -->
<g id="edge40" class="edge">
<title>Node27&#45;&gt;Node5</title>
<path fill="none" stroke="#191970" d="M470.8052,-224.4862C491.6385,-197.3545 551.5888,-119.2798 578.7879,-83.8576"/>
<polygon fill="#191970" stroke="#191970" points="581.6393,-85.891 584.9536,-75.8279 576.0873,-81.6278 581.6393,-85.891"/>
</g>
<!-- Node27&#45;&gt;Node9 -->
<g id="edge41" class="edge">
<title>Node27&#45;&gt;Node9</title>
<path fill="none" stroke="#191970" d="M494.2712,-224.3733C526.7921,-214.1991 577.8349,-198.2304 610.7293,-187.9394"/>
<polygon fill="#191970" stroke="#191970" points="611.8158,-191.2669 620.3146,-184.9407 609.7257,-184.5862 611.8158,-191.2669"/>
</g>
<!-- Node27&#45;&gt;Node22 -->
<g id="edge42" class="edge">
<title>Node27&#45;&gt;Node22</title>
<path fill="none" stroke="#191970" d="M458.1002,-224.2455C453.8773,-216.617 447.8827,-205.7881 442.7559,-196.5267"/>
<polygon fill="#191970" stroke="#191970" points="445.7432,-194.6965 437.8379,-187.6427 439.619,-198.0867 445.7432,-194.6965"/>
</g>
<!-- Node28&#45;&gt;Node2 -->
<g id="edge45" class="edge">
<title>Node28&#45;&gt;Node2</title>
<path fill="none" stroke="#191970" d="M1202.8935,-224.2455C1203.9374,-216.9382 1205.4008,-206.6944 1206.6851,-197.7046"/>
<polygon fill="#191970" stroke="#191970" points="1210.173,-198.0372 1208.1225,-187.6427 1203.2434,-197.0472 1210.173,-198.0372"/>
</g>
<!-- Node28&#45;&gt;Node5 -->
<g id="edge44" class="edge">
<title>Node28&#45;&gt;Node5</title>
<path fill="none" stroke="#191970" d="M1169.3735,-224.5C1098.2357,-203.5394 921.9598,-152.0151 773.5,-112 728.1452,-99.7753 676.1552,-86.6544 639.5664,-77.5671"/>
<polygon fill="#191970" stroke="#191970" points="640.2216,-74.1236 629.6733,-75.115 638.5375,-80.918 640.2216,-74.1236"/>
</g>
<!-- Node28&#45;&gt;Node9 -->
<g id="edge46" class="edge">
<title>Node28&#45;&gt;Node9</title>
<path fill="none" stroke="#191970" d="M1158.425,-225.3742C1155.4102,-224.8758 1152.4129,-224.4112 1149.5,-224 971.1032,-198.8172 755.3447,-184.5727 674.8398,-179.814"/>
<polygon fill="#191970" stroke="#191970" points="675.0167,-176.3185 664.8299,-179.2303 674.6091,-183.3066 675.0167,-176.3185"/>
</g>
<!-- Node29&#45;&gt;Node3 -->
<g id="edge48" class="edge">
<title>Node29&#45;&gt;Node3</title>
<path fill="none" stroke="#191970" d="M1396.0939,-168.2455C1388.3507,-160.2155 1377.188,-148.6394 1367.9682,-139.0781"/>
<polygon fill="#191970" stroke="#191970" points="1370.2591,-136.4117 1360.7983,-131.6427 1365.2202,-141.2706 1370.2591,-136.4117"/>
</g>
<!-- Node36 -->
<g id="node37" class="node">
<title>Node36</title>
<g id="a_node37"><a xlink:href="cuda__version__control_8h.html" target="_top" xlink:title="cuda_version_control.h">
<polygon fill="#ffffff" stroke="#000000" points="24,-224.5 24,-243.5 141,-243.5 141,-224.5 24,-224.5"/>
<text text-anchor="middle" x="82.5" y="-231.5" font-family="Helvetica,sans-Serif" font-size="10.00" fill="#000000">cuda_version_control.h</text>
</a>
</g>
</g>
<!-- Node35&#45;&gt;Node36 -->
<g id="edge55" class="edge">
<title>Node35&#45;&gt;Node36</title>
<path fill="none" stroke="#191970" d="M166.733,-280.2455C150.7905,-271.4928 127.1741,-258.527 109.0011,-248.5496"/>
<polygon fill="#191970" stroke="#191970" points="110.5137,-245.3873 100.0634,-243.6427 107.1448,-251.5233 110.5137,-245.3873"/>
</g>
<!-- Node39 -->
<g id="node40" class="node">
<title>Node39</title>
<polygon fill="#ffffff" stroke="#bfbfbf" points="159.5,-224.5 159.5,-243.5 213.5,-243.5 213.5,-224.5 159.5,-224.5"/>
<text text-anchor="middle" x="186.5" y="-231.5" font-family="Helvetica,sans-Serif" font-size="10.00" fill="#000000">curand.h</text>
</g>
<!-- Node35&#45;&gt;Node39 -->
<g id="edge58" class="edge">
<title>Node35&#45;&gt;Node39</title>
<path fill="none" stroke="#191970" d="M184.8484,-280.2455C185.1093,-272.9382 185.4752,-262.6944 185.7963,-253.7046"/>
<polygon fill="#191970" stroke="#191970" points="189.2964,-253.7613 186.1556,-243.6427 182.3008,-253.5113 189.2964,-253.7613"/>
</g>
<!-- Node37 -->
<g id="node38" class="node">
<title>Node37</title>
<polygon fill="#ffffff" stroke="#bfbfbf" points="101.5,-168.5 101.5,-187.5 147.5,-187.5 147.5,-168.5 101.5,-168.5"/>
<text text-anchor="middle" x="124.5" y="-175.5" font-family="Helvetica,sans-Serif" font-size="10.00" fill="#000000">cuda.h</text>
</g>
<!-- Node36&#45;&gt;Node37 -->
<g id="edge56" class="edge">
<title>Node36&#45;&gt;Node37</title>
<path fill="none" stroke="#191970" d="M89.8158,-224.2455C95.7179,-216.3761 104.1742,-205.101 111.2594,-195.6542"/>
<polygon fill="#191970" stroke="#191970" points="114.068,-197.7427 117.268,-187.6427 108.4679,-193.5427 114.068,-197.7427"/>
</g>
<!-- Node38 -->
<g id="node39" class="node">
<title>Node38</title>
<polygon fill="#ffffff" stroke="#bfbfbf" points="0,-168.5 0,-187.5 83,-187.5 83,-168.5 0,-168.5"/>
<text text-anchor="middle" x="41.5" y="-175.5" font-family="Helvetica,sans-Serif" font-size="10.00" fill="#000000">cuda_runtime.h</text>
</g>
<!-- Node36&#45;&gt;Node38 -->
<g id="edge57" class="edge">
<title>Node36&#45;&gt;Node38</title>
<path fill="none" stroke="#191970" d="M75.3583,-224.2455C69.6556,-216.4564 61.51,-205.3308 54.6375,-195.9439"/>
<polygon fill="#191970" stroke="#191970" points="57.2913,-193.6437 48.5598,-187.6427 51.6432,-197.7789 57.2913,-193.6437"/>
</g>
</g>
</svg>
