<?xml version="1.0" encoding="UTF-8" standalone="no"?>
<!DOCTYPE svg PUBLIC "-//W3C//DTD SVG 1.1//EN"
 "http://www.w3.org/Graphics/SVG/1.1/DTD/svg11.dtd">
<!-- Generated by graphviz version 2.40.1 (20161225.0304)
 -->
<!-- Title: spike_buffer.h Pages: 1 -->
<svg width="337pt" height="84pt"
 viewBox="0.00 0.00 337.00 84.00" xmlns="http://www.w3.org/2000/svg" xmlns:xlink="http://www.w3.org/1999/xlink">
<g id="graph0" class="graph" transform="scale(1 1) rotate(0) translate(4 80)">
<title>spike_buffer.h</title>
<polygon fill="#ffffff" stroke="transparent" points="-4,4 -4,-80 333,-80 333,4 -4,4"/>
<!-- Node2 -->
<g id="node1" class="node">
<title>Node2</title>
<polygon fill="#bfbfbf" stroke="#000000" points="135.5,-56.5 135.5,-75.5 213.5,-75.5 213.5,-56.5 135.5,-56.5"/>
<text text-anchor="middle" x="174.5" y="-63.5" font-family="Helvetica,sans-Serif" font-size="10.00" fill="#000000">spike_buffer.h</text>
</g>
<!-- Node3 -->
<g id="node2" class="node">
<title>Node3</title>
<g id="a_node2"><a xlink:href="snn__cpu__module_8cpp.html" target="_top" xlink:title="snn_cpu_module.cpp">
<polygon fill="#ffffff" stroke="#000000" points="0,-.5 0,-19.5 109,-19.5 109,-.5 0,-.5"/>
<text text-anchor="middle" x="54.5" y="-7.5" font-family="Helvetica,sans-Serif" font-size="10.00" fill="#000000">snn_cpu_module.cpp</text>
</a>
</g>
</g>
<!-- Node2&#45;&gt;Node3 -->
<g id="edge1" class="edge">
<title>Node2&#45;&gt;Node3</title>
<path fill="none" stroke="#191970" d="M144.7376,-52.1109C122.9768,-41.9559 94.0318,-28.4482 74.8595,-19.5011"/>
<polygon fill="#191970" stroke="#191970" points="143.3293,-55.316 153.8713,-56.3733 146.2895,-48.9727 143.3293,-55.316"/>
</g>
<!-- Node4 -->
<g id="node3" class="node">
<title>Node4</title>
<g id="a_node3"><a xlink:href="snn__manager_8cpp.html" target="_top" xlink:title="snn_manager.cpp">
<polygon fill="#ffffff" stroke="#000000" points="127.5,-.5 127.5,-19.5 221.5,-19.5 221.5,-.5 127.5,-.5"/>
<text text-anchor="middle" x="174.5" y="-7.5" font-family="Helvetica,sans-Serif" font-size="10.00" fill="#000000">snn_manager.cpp</text>
</a>
</g>
</g>
<!-- Node2&#45;&gt;Node4 -->
<g id="edge2" class="edge">
<title>Node2&#45;&gt;Node4</title>
<path fill="none" stroke="#191970" d="M174.5,-46.1575C174.5,-37.155 174.5,-26.9199 174.5,-19.6427"/>
<polygon fill="#191970" stroke="#191970" points="171.0001,-46.2455 174.5,-56.2455 178.0001,-46.2456 171.0001,-46.2455"/>
</g>
<!-- Node5 -->
<g id="node4" class="node">
<title>Node5</title>
<g id="a_node4"><a xlink:href="spike__buffer_8cpp.html" target="_top" xlink:title="spike_buffer.cpp">
<polygon fill="#ffffff" stroke="#000000" points="240,-.5 240,-19.5 329,-19.5 329,-.5 240,-.5"/>
<text text-anchor="middle" x="284.5" y="-7.5" font-family="Helvetica,sans-Serif" font-size="10.00" fill="#000000">spike_buffer.cpp</text>
</a>
</g>
</g>
<!-- Node2&#45;&gt;Node5 -->
<g id="edge3" class="edge">
<title>Node2&#45;&gt;Node5</title>
<path fill="none" stroke="#191970" d="M202.7914,-51.5971C222.5111,-41.558 248.28,-28.4393 265.559,-19.6427"/>
<polygon fill="#191970" stroke="#191970" points="200.9843,-48.5896 193.6605,-56.2455 204.1601,-54.8277 200.9843,-48.5896"/>
</g>
</g>
</svg>
