<?xml version="1.0" encoding="UTF-8" standalone="no"?>
<!DOCTYPE svg PUBLIC "-//W3C//DTD SVG 1.1//EN"
 "http://www.w3.org/Graphics/SVG/1.1/DTD/svg11.dtd">
<!-- Generated by graphviz version 2.40.1 (20161225.0304)
 -->
<!-- Title: spikegen_from_vector.cpp Pages: 1 -->
<svg width="440pt" height="207pt"
 viewBox="0.00 0.00 440.00 207.00" xmlns="http://www.w3.org/2000/svg" xmlns:xlink="http://www.w3.org/1999/xlink">
<g id="graph0" class="graph" transform="scale(1 1) rotate(0) translate(4 203)">
<title>spikegen_from_vector.cpp</title>
<polygon fill="#ffffff" stroke="transparent" points="-4,4 -4,-203 436,-203 436,4 -4,4"/>
<!-- Node0 -->
<g id="node1" class="node">
<title>Node0</title>
<polygon fill="#bfbfbf" stroke="#000000" points="259.5,-179.5 259.5,-198.5 390.5,-198.5 390.5,-179.5 259.5,-179.5"/>
<text text-anchor="middle" x="325" y="-186.5" font-family="Helvetica,sans-Serif" font-size="10.00" fill="#000000">spikegen_from_vector.cpp</text>
</g>
<!-- Node1 -->
<g id="node2" class="node">
<title>Node1</title>
<g id="a_node2"><a xlink:href="spikegen__from__vector_8h.html" target="_top" xlink:title="spikegen_from_vector.h">
<polygon fill="#ffffff" stroke="#000000" points="132.5,-123.5 132.5,-142.5 253.5,-142.5 253.5,-123.5 132.5,-123.5"/>
<text text-anchor="middle" x="193" y="-130.5" font-family="Helvetica,sans-Serif" font-size="10.00" fill="#000000">spikegen_from_vector.h</text>
</a>
</g>
</g>
<!-- Node0&#45;&gt;Node1 -->
<g id="edge1" class="edge">
<title>Node0&#45;&gt;Node1</title>
<path fill="none" stroke="#191970" d="M302.3084,-179.3733C280.9289,-170.3032 248.6943,-156.6279 224.7638,-146.4755"/>
<polygon fill="#191970" stroke="#191970" points="225.9683,-143.1846 215.3955,-142.5011 223.2344,-149.6287 225.9683,-143.1846"/>
</g>
<!-- Node6 -->
<g id="node7" class="node">
<title>Node6</title>
<g id="a_node7"><a xlink:href="user__errors_8h.html" target="_top" xlink:title="user_errors.h">
<polygon fill="#ffffff" stroke="#000000" points="288,-123.5 288,-142.5 362,-142.5 362,-123.5 288,-123.5"/>
<text text-anchor="middle" x="325" y="-130.5" font-family="Helvetica,sans-Serif" font-size="10.00" fill="#000000">user_errors.h</text>
</a>
</g>
</g>
<!-- Node0&#45;&gt;Node6 -->
<g id="edge6" class="edge">
<title>Node0&#45;&gt;Node6</title>
<path fill="none" stroke="#191970" d="M325,-179.2455C325,-171.9382 325,-161.6944 325,-152.7046"/>
<polygon fill="#191970" stroke="#191970" points="328.5001,-152.6426 325,-142.6427 321.5001,-152.6427 328.5001,-152.6426"/>
</g>
<!-- Node9 -->
<g id="node10" class="node">
<title>Node9</title>
<polygon fill="#ffffff" stroke="#bfbfbf" points="380,-123.5 380,-142.5 432,-142.5 432,-123.5 380,-123.5"/>
<text text-anchor="middle" x="406" y="-130.5" font-family="Helvetica,sans-Serif" font-size="10.00" fill="#000000">sstream</text>
</g>
<!-- Node0&#45;&gt;Node9 -->
<g id="edge10" class="edge">
<title>Node0&#45;&gt;Node9</title>
<path fill="none" stroke="#191970" d="M339.1091,-179.2455C351.4209,-170.7337 369.4958,-158.2375 383.7538,-148.3801"/>
<polygon fill="#191970" stroke="#191970" points="385.8174,-151.2085 392.0526,-142.6427 381.8366,-145.4506 385.8174,-151.2085"/>
</g>
<!-- Node2 -->
<g id="node3" class="node">
<title>Node2</title>
<g id="a_node3"><a xlink:href="carlsim__spike__generators__api_8h.html" target="_top" xlink:title="carlsim_spike_generators\l_api.h">
<polygon fill="#ffffff" stroke="#000000" points="0,-56.5 0,-86.5 128,-86.5 128,-56.5 0,-56.5"/>
<text text-anchor="start" x="8" y="-74.5" font-family="Helvetica,sans-Serif" font-size="10.00" fill="#000000">carlsim_spike_generators</text>
<text text-anchor="middle" x="64" y="-63.5" font-family="Helvetica,sans-Serif" font-size="10.00" fill="#000000">_api.h</text>
</a>
</g>
</g>
<!-- Node1&#45;&gt;Node2 -->
<g id="edge2" class="edge">
<title>Node1&#45;&gt;Node2</title>
<path fill="none" stroke="#191970" d="M172.8438,-123.3906C154.6577,-114.7205 127.3559,-101.7046 104.6463,-90.8779"/>
<polygon fill="#191970" stroke="#191970" points="106.0898,-87.6887 95.557,-86.5446 103.0774,-94.0074 106.0898,-87.6887"/>
</g>
<!-- Node4 -->
<g id="node5" class="node">
<title>Node4</title>
<g id="a_node5"><a xlink:href="callback_8h.html" target="_top" xlink:title="callback.h">
<polygon fill="#ffffff" stroke="#000000" points="146.5,-62 146.5,-81 207.5,-81 207.5,-62 146.5,-62"/>
<text text-anchor="middle" x="177" y="-69" font-family="Helvetica,sans-Serif" font-size="10.00" fill="#000000">callback.h</text>
</a>
</g>
</g>
<!-- Node1&#45;&gt;Node4 -->
<g id="edge4" class="edge">
<title>Node1&#45;&gt;Node4</title>
<path fill="none" stroke="#191970" d="M190.5,-123.3906C188.2588,-114.776 184.9014,-101.8708 182.0955,-91.0858"/>
<polygon fill="#191970" stroke="#191970" points="185.4404,-90.0414 179.5352,-81.2449 178.6659,-91.804 185.4404,-90.0414"/>
</g>
<!-- Node5 -->
<g id="node6" class="node">
<title>Node5</title>
<polygon fill="#ffffff" stroke="#bfbfbf" points="226,-62 226,-81 270,-81 270,-62 226,-62"/>
<text text-anchor="middle" x="248" y="-69" font-family="Helvetica,sans-Serif" font-size="10.00" fill="#000000">vector</text>
</g>
<!-- Node1&#45;&gt;Node5 -->
<g id="edge5" class="edge">
<title>Node1&#45;&gt;Node5</title>
<path fill="none" stroke="#191970" d="M201.5938,-123.3906C209.8597,-114.1478 222.5426,-99.966 232.5617,-88.7628"/>
<polygon fill="#191970" stroke="#191970" points="235.2278,-91.0321 239.2851,-81.2449 230.01,-86.3657 235.2278,-91.0321"/>
</g>
<!-- Node3 -->
<g id="node4" class="node">
<title>Node3</title>
<g id="a_node4"><a xlink:href="carlsim__conf__api_8h.html" target="_top" xlink:title="carlsim_conf_api.h">
<polygon fill="#ffffff" stroke="#000000" points="145,-.5 145,-19.5 243,-19.5 243,-.5 145,-.5"/>
<text text-anchor="middle" x="194" y="-7.5" font-family="Helvetica,sans-Serif" font-size="10.00" fill="#000000">carlsim_conf_api.h</text>
</a>
</g>
</g>
<!-- Node2&#45;&gt;Node3 -->
<g id="edge3" class="edge">
<title>Node2&#45;&gt;Node3</title>
<path fill="none" stroke="#191970" d="M95.8016,-56.4554C116.8265,-46.509 144.1859,-33.5659 164.6843,-23.8686"/>
<polygon fill="#191970" stroke="#191970" points="166.3119,-26.9706 173.8546,-19.5303 163.3184,-20.6429 166.3119,-26.9706"/>
</g>
<!-- Node7 -->
<g id="node8" class="node">
<title>Node7</title>
<g id="a_node8"><a xlink:href="carlsim__api_8h.html" target="_top" xlink:title="carlsim_api.h">
<polygon fill="#ffffff" stroke="#000000" points="288,-62 288,-81 362,-81 362,-62 288,-62"/>
<text text-anchor="middle" x="325" y="-69" font-family="Helvetica,sans-Serif" font-size="10.00" fill="#000000">carlsim_api.h</text>
</a>
</g>
</g>
<!-- Node6&#45;&gt;Node7 -->
<g id="edge7" class="edge">
<title>Node6&#45;&gt;Node7</title>
<path fill="none" stroke="#191970" d="M325,-123.3906C325,-114.8657 325,-102.1392 325,-91.4235"/>
<polygon fill="#191970" stroke="#191970" points="328.5001,-91.2448 325,-81.2449 321.5001,-91.2449 328.5001,-91.2448"/>
</g>
<!-- Node8 -->
<g id="node9" class="node">
<title>Node8</title>
<polygon fill="#ffffff" stroke="#bfbfbf" points="380.5,-62 380.5,-81 421.5,-81 421.5,-62 380.5,-62"/>
<text text-anchor="middle" x="401" y="-69" font-family="Helvetica,sans-Serif" font-size="10.00" fill="#000000">string</text>
</g>
<!-- Node6&#45;&gt;Node8 -->
<g id="edge9" class="edge">
<title>Node6&#45;&gt;Node8</title>
<path fill="none" stroke="#191970" d="M336.875,-123.3906C348.6297,-113.8786 366.8486,-99.1357 380.8672,-87.7917"/>
<polygon fill="#191970" stroke="#191970" points="383.3856,-90.2562 388.9576,-81.2449 378.9822,-84.8146 383.3856,-90.2562"/>
</g>
<!-- Node7&#45;&gt;Node3 -->
<g id="edge8" class="edge">
<title>Node7&#45;&gt;Node3</title>
<path fill="none" stroke="#191970" d="M304.5313,-61.8906C282.8048,-51.6908 248.2665,-35.4763 223.5815,-23.8875"/>
<polygon fill="#191970" stroke="#191970" points="224.8645,-20.6234 214.325,-19.5419 221.8897,-26.9598 224.8645,-20.6234"/>
</g>
</g>
</svg>
