<?xml version="1.0" encoding="UTF-8" standalone="no"?>
<!DOCTYPE svg PUBLIC "-//W3C//DTD SVG 1.1//EN"
 "http://www.w3.org/Graphics/SVG/1.1/DTD/svg11.dtd">
<!-- Generated by graphviz version 2.40.1 (20161225.0304)
 -->
<!-- Title: spike_monitor.cpp Pages: 1 -->
<svg width="451pt" height="308pt"
 viewBox="0.00 0.00 451.28 308.00" xmlns="http://www.w3.org/2000/svg" xmlns:xlink="http://www.w3.org/1999/xlink">
<g id="graph0" class="graph" transform="scale(1 1) rotate(0) translate(4 304)">
<title>spike_monitor.cpp</title>
<polygon fill="#ffffff" stroke="transparent" points="-4,4 -4,-304 447.2768,-304 447.2768,4 -4,4"/>
<!-- Node0 -->
<g id="node1" class="node">
<title>Node0</title>
<polygon fill="#bfbfbf" stroke="#000000" points="241.2768,-280.5 241.2768,-299.5 337.2768,-299.5 337.2768,-280.5 241.2768,-280.5"/>
<text text-anchor="middle" x="289.2768" y="-287.5" font-family="Helvetica,sans-Serif" font-size="10.00" fill="#000000">spike_monitor.cpp</text>
</g>
<!-- Node1 -->
<g id="node2" class="node">
<title>Node1</title>
<g id="a_node2"><a xlink:href="spike__monitor_8h.html" target="_top" xlink:title="spike_monitor.h">
<polygon fill="#ffffff" stroke="#000000" points="5.2768,-224.5 5.2768,-243.5 91.2768,-243.5 91.2768,-224.5 5.2768,-224.5"/>
<text text-anchor="middle" x="48.2768" y="-231.5" font-family="Helvetica,sans-Serif" font-size="10.00" fill="#000000">spike_monitor.h</text>
</a>
</g>
</g>
<!-- Node0&#45;&gt;Node1 -->
<g id="edge1" class="edge">
<title>Node0&#45;&gt;Node1</title>
<path fill="none" stroke="#191970" d="M248.1213,-280.4369C206.9627,-270.8731 143.5718,-256.1432 99.2526,-245.845"/>
<polygon fill="#191970" stroke="#191970" points="99.7953,-242.3779 89.2626,-243.5237 98.2109,-249.1963 99.7953,-242.3779"/>
</g>
<!-- Node6 -->
<g id="node7" class="node">
<title>Node6</title>
<g id="a_node7"><a xlink:href="user__errors_8h.html" target="_top" xlink:title="user_errors.h">
<polygon fill="#ffffff" stroke="#000000" points="138.2768,-112.5 138.2768,-131.5 212.2768,-131.5 212.2768,-112.5 138.2768,-112.5"/>
<text text-anchor="middle" x="175.2768" y="-119.5" font-family="Helvetica,sans-Serif" font-size="10.00" fill="#000000">user_errors.h</text>
</a>
</g>
</g>
<!-- Node0&#45;&gt;Node6 -->
<g id="edge14" class="edge">
<title>Node0&#45;&gt;Node6</title>
<path fill="none" stroke="#191970" d="M290.5722,-280.3215C293.004,-258.0902 295.91,-202.6317 270.2768,-168 258.5027,-152.0926 239.755,-141.4201 222.0133,-134.3966"/>
<polygon fill="#191970" stroke="#191970" points="222.9049,-130.9964 212.3109,-130.8601 220.5076,-137.5731 222.9049,-130.9964"/>
</g>
<!-- Node9 -->
<g id="node10" class="node">
<title>Node9</title>
<g id="a_node10"><a xlink:href="spike__monitor__core_8h.html" target="_top" xlink:title="spike_monitor_core.h">
<polygon fill="#ffffff" stroke="#000000" points="137.2768,-224.5 137.2768,-243.5 247.2768,-243.5 247.2768,-224.5 137.2768,-224.5"/>
<text text-anchor="middle" x="192.2768" y="-231.5" font-family="Helvetica,sans-Serif" font-size="10.00" fill="#000000">spike_monitor_core.h</text>
</a>
</g>
</g>
<!-- Node0&#45;&gt;Node9 -->
<g id="edge10" class="edge">
<title>Node0&#45;&gt;Node9</title>
<path fill="none" stroke="#191970" d="M272.3807,-280.2455C257.3589,-271.5731 235.1725,-258.7645 217.9558,-248.825"/>
<polygon fill="#191970" stroke="#191970" points="219.3897,-245.6114 208.9793,-243.6427 215.8898,-251.6737 219.3897,-245.6114"/>
</g>
<!-- Node11 -->
<g id="node12" class="node">
<title>Node11</title>
<polygon fill="#ffffff" stroke="#bfbfbf" points="317.2768,-224.5 317.2768,-243.5 369.2768,-243.5 369.2768,-224.5 317.2768,-224.5"/>
<text text-anchor="middle" x="343.2768" y="-231.5" font-family="Helvetica,sans-Serif" font-size="10.00" fill="#000000">sstream</text>
</g>
<!-- Node0&#45;&gt;Node11 -->
<g id="edge15" class="edge">
<title>Node0&#45;&gt;Node11</title>
<path fill="none" stroke="#191970" d="M298.6829,-280.2455C306.4262,-272.2155 317.5889,-260.6394 326.8086,-251.0781"/>
<polygon fill="#191970" stroke="#191970" points="329.5566,-253.2706 333.9785,-243.6427 324.5177,-248.4117 329.5566,-253.2706"/>
</g>
<!-- Node12 -->
<g id="node13" class="node">
<title>Node12</title>
<polygon fill="#ffffff" stroke="#bfbfbf" points="387.2768,-224.5 387.2768,-243.5 443.2768,-243.5 443.2768,-224.5 387.2768,-224.5"/>
<text text-anchor="middle" x="415.2768" y="-231.5" font-family="Helvetica,sans-Serif" font-size="10.00" fill="#000000">algorithm</text>
</g>
<!-- Node0&#45;&gt;Node12 -->
<g id="edge16" class="edge">
<title>Node0&#45;&gt;Node12</title>
<path fill="none" stroke="#191970" d="M310.937,-280.3733C331.254,-271.3435 361.8408,-257.7494 384.6518,-247.6111"/>
<polygon fill="#191970" stroke="#191970" points="386.1827,-250.7609 393.8993,-243.5011 383.3397,-244.3642 386.1827,-250.7609"/>
</g>
<!-- Node2 -->
<g id="node3" class="node">
<title>Node2</title>
<g id="a_node3"><a xlink:href="carlsim__api_8h.html" target="_top" xlink:title="carlsim_api.h">
<polygon fill="#ffffff" stroke="#000000" points="24.2768,-56.5 24.2768,-75.5 98.2768,-75.5 98.2768,-56.5 24.2768,-56.5"/>
<text text-anchor="middle" x="61.2768" y="-63.5" font-family="Helvetica,sans-Serif" font-size="10.00" fill="#000000">carlsim_api.h</text>
</a>
</g>
</g>
<!-- Node1&#45;&gt;Node2 -->
<g id="edge2" class="edge">
<title>Node1&#45;&gt;Node2</title>
<path fill="none" stroke="#191970" d="M33.5916,-224.2577C22.6615,-216.0536 8.587,-203.2342 2.2768,-188 -1.1248,-179.7877 -.0273,-176.5851 2.2768,-168 10.9288,-135.7625 32.5185,-103.1846 47.0398,-83.7953"/>
<polygon fill="#191970" stroke="#191970" points="49.9999,-85.6879 53.3278,-75.6293 44.4536,-81.4172 49.9999,-85.6879"/>
</g>
<!-- Node4 -->
<g id="node5" class="node">
<title>Node4</title>
<g id="a_node5"><a xlink:href="carlsim__datastructures_8h.html" target="_top" xlink:title="carlsim_datastructures.h">
<polygon fill="#ffffff" stroke="#000000" points="73.2768,-168.5 73.2768,-187.5 197.2768,-187.5 197.2768,-168.5 73.2768,-168.5"/>
<text text-anchor="middle" x="135.2768" y="-175.5" font-family="Helvetica,sans-Serif" font-size="10.00" fill="#000000">carlsim_datastructures.h</text>
</a>
</g>
</g>
<!-- Node1&#45;&gt;Node4 -->
<g id="edge4" class="edge">
<title>Node1&#45;&gt;Node4</title>
<path fill="none" stroke="#191970" d="M63.4311,-224.2455C76.7796,-215.6534 96.4355,-203.0014 111.8151,-193.1018"/>
<polygon fill="#191970" stroke="#191970" points="113.782,-195.9982 120.2963,-187.6427 109.9932,-190.1121 113.782,-195.9982"/>
</g>
<!-- Node8 -->
<g id="node9" class="node">
<title>Node8</title>
<polygon fill="#ffffff" stroke="#bfbfbf" points="11.2768,-168.5 11.2768,-187.5 55.2768,-187.5 55.2768,-168.5 11.2768,-168.5"/>
<text text-anchor="middle" x="33.2768" y="-175.5" font-family="Helvetica,sans-Serif" font-size="10.00" fill="#000000">vector</text>
</g>
<!-- Node1&#45;&gt;Node8 -->
<g id="edge9" class="edge">
<title>Node1&#45;&gt;Node8</title>
<path fill="none" stroke="#191970" d="M45.664,-224.2455C43.6852,-216.8579 40.9024,-206.4689 38.4756,-197.4087"/>
<polygon fill="#191970" stroke="#191970" points="41.828,-196.3966 35.8597,-187.6427 35.0663,-198.2078 41.828,-196.3966"/>
</g>
<!-- Node3 -->
<g id="node4" class="node">
<title>Node3</title>
<g id="a_node4"><a xlink:href="carlsim__conf__api_8h.html" target="_top" xlink:title="carlsim_conf_api.h">
<polygon fill="#ffffff" stroke="#000000" points="12.2768,-.5 12.2768,-19.5 110.2768,-19.5 110.2768,-.5 12.2768,-.5"/>
<text text-anchor="middle" x="61.2768" y="-7.5" font-family="Helvetica,sans-Serif" font-size="10.00" fill="#000000">carlsim_conf_api.h</text>
</a>
</g>
</g>
<!-- Node2&#45;&gt;Node3 -->
<g id="edge3" class="edge">
<title>Node2&#45;&gt;Node3</title>
<path fill="none" stroke="#191970" d="M61.2768,-56.2455C61.2768,-48.9382 61.2768,-38.6944 61.2768,-29.7046"/>
<polygon fill="#191970" stroke="#191970" points="64.7769,-29.6426 61.2768,-19.6427 57.7769,-29.6427 64.7769,-29.6426"/>
</g>
<!-- Node5 -->
<g id="node6" class="node">
<title>Node5</title>
<polygon fill="#ffffff" stroke="#bfbfbf" points="68.2768,-112.5 68.2768,-131.5 120.2768,-131.5 120.2768,-112.5 68.2768,-112.5"/>
<text text-anchor="middle" x="94.2768" y="-119.5" font-family="Helvetica,sans-Serif" font-size="10.00" fill="#000000">ostream</text>
</g>
<!-- Node4&#45;&gt;Node5 -->
<g id="edge5" class="edge">
<title>Node4&#45;&gt;Node5</title>
<path fill="none" stroke="#191970" d="M128.1352,-168.2455C122.4324,-160.4564 114.2869,-149.3308 107.4144,-139.9439"/>
<polygon fill="#191970" stroke="#191970" points="110.0681,-137.6437 101.3367,-131.6427 104.4201,-141.7789 110.0681,-137.6437"/>
</g>
<!-- Node4&#45;&gt;Node6 -->
<g id="edge6" class="edge">
<title>Node4&#45;&gt;Node6</title>
<path fill="none" stroke="#191970" d="M142.2443,-168.2455C147.808,-160.4564 155.7549,-149.3308 162.4597,-139.9439"/>
<polygon fill="#191970" stroke="#191970" points="165.4249,-141.8144 168.3892,-131.6427 159.7287,-137.7457 165.4249,-141.8144"/>
</g>
<!-- Node6&#45;&gt;Node2 -->
<g id="edge7" class="edge">
<title>Node6&#45;&gt;Node2</title>
<path fill="none" stroke="#191970" d="M155.6795,-112.3733C137.5437,-103.4644 110.3633,-90.1127 89.8182,-80.0203"/>
<polygon fill="#191970" stroke="#191970" points="91.1371,-76.7688 80.6184,-75.5011 88.0508,-83.0517 91.1371,-76.7688"/>
</g>
<!-- Node7 -->
<g id="node8" class="node">
<title>Node7</title>
<polygon fill="#ffffff" stroke="#bfbfbf" points="154.7768,-56.5 154.7768,-75.5 195.7768,-75.5 195.7768,-56.5 154.7768,-56.5"/>
<text text-anchor="middle" x="175.2768" y="-63.5" font-family="Helvetica,sans-Serif" font-size="10.00" fill="#000000">string</text>
</g>
<!-- Node6&#45;&gt;Node7 -->
<g id="edge8" class="edge">
<title>Node6&#45;&gt;Node7</title>
<path fill="none" stroke="#191970" d="M175.2768,-112.2455C175.2768,-104.9382 175.2768,-94.6944 175.2768,-85.7046"/>
<polygon fill="#191970" stroke="#191970" points="178.7769,-85.6426 175.2768,-75.6427 171.7769,-85.6427 178.7769,-85.6426"/>
</g>
<!-- Node9&#45;&gt;Node4 -->
<g id="edge11" class="edge">
<title>Node9&#45;&gt;Node4</title>
<path fill="none" stroke="#191970" d="M182.3482,-224.2455C174.093,-216.1352 162.1559,-204.4075 152.3686,-194.7919"/>
<polygon fill="#191970" stroke="#191970" points="154.678,-192.1542 145.0917,-187.6427 149.7722,-197.1476 154.678,-192.1542"/>
</g>
<!-- Node9&#45;&gt;Node8 -->
<g id="edge13" class="edge">
<title>Node9&#45;&gt;Node8</title>
<path fill="none" stroke="#191970" d="M164.9438,-224.3733C137.3037,-214.6384 94.6013,-199.5985 65.3699,-189.3032"/>
<polygon fill="#191970" stroke="#191970" points="66.2339,-185.8968 55.639,-185.876 63.9084,-192.4993 66.2339,-185.8968"/>
</g>
<!-- Node10 -->
<g id="node11" class="node">
<title>Node10</title>
<polygon fill="#ffffff" stroke="#bfbfbf" points="215.2768,-168.5 215.2768,-187.5 261.2768,-187.5 261.2768,-168.5 215.2768,-168.5"/>
<text text-anchor="middle" x="238.2768" y="-175.5" font-family="Helvetica,sans-Serif" font-size="10.00" fill="#000000">stdio.h</text>
</g>
<!-- Node9&#45;&gt;Node10 -->
<g id="edge12" class="edge">
<title>Node9&#45;&gt;Node10</title>
<path fill="none" stroke="#191970" d="M200.2894,-224.2455C206.7536,-216.3761 216.0153,-205.101 223.7752,-195.6542"/>
<polygon fill="#191970" stroke="#191970" points="226.7132,-197.5916 230.3561,-187.6427 221.3041,-193.1484 226.7132,-197.5916"/>
</g>
</g>
</svg>
