<?xml version="1.0" encoding="UTF-8" standalone="no"?>
<!DOCTYPE svg PUBLIC "-//W3C//DTD SVG 1.1//EN"
 "http://www.w3.org/Graphics/SVG/1.1/DTD/svg11.dtd">
<!-- Generated by graphviz version 2.40.1 (20161225.0304)
 -->
<!-- Title: ConnectConfig_s Pages: 1 -->
<svg width="319pt" height="95pt"
 viewBox="0.00 0.00 318.50 95.00" xmlns="http://www.w3.org/2000/svg" xmlns:xlink="http://www.w3.org/1999/xlink">
<g id="graph0" class="graph" transform="scale(1 1) rotate(0) translate(4 91)">
<title>ConnectConfig_s</title>
<polygon fill="#ffffff" stroke="transparent" points="-4,4 -4,-91 314.5,-91 314.5,4 -4,4"/>
<!-- Node1 -->
<g id="node1" class="node">
<title>Node1</title>
<polygon fill="#bfbfbf" stroke="#000000" points="85.5,-.5 85.5,-19.5 177.5,-19.5 177.5,-.5 85.5,-.5"/>
<text text-anchor="middle" x="131.5" y="-7.5" font-family="Helvetica,sans-Serif" font-size="10.00" fill="#000000">ConnectConfig_s</text>
</g>
<!-- Node2 -->
<g id="node2" class="node">
<title>Node2</title>
<g id="a_node2"><a xlink:href="structSTDPConfig__s.html" target="_top" xlink:title="STDPConfig_s">
<polygon fill="#ffffff" stroke="#000000" points="0,-67.5 0,-86.5 83,-86.5 83,-67.5 0,-67.5"/>
<text text-anchor="middle" x="41.5" y="-74.5" font-family="Helvetica,sans-Serif" font-size="10.00" fill="#000000">STDPConfig_s</text>
</a>
</g>
</g>
<!-- Node2&#45;&gt;Node1 -->
<g id="edge1" class="edge">
<title>Node2&#45;&gt;Node1</title>
<path fill="none" stroke="#9a32cd" stroke-dasharray="5,2" d="M54.8104,-59.4984C60.8918,-52.2561 68.515,-44.1354 76.5,-38 86.1009,-30.6231 97.9422,-24.3031 108.1754,-19.5443"/>
<polygon fill="#9a32cd" stroke="#9a32cd" points="51.9786,-57.435 48.4503,-67.4251 57.4384,-61.8158 51.9786,-57.435"/>
<text text-anchor="middle" x="102" y="-41" font-family="Helvetica,sans-Serif" font-size="10.00" fill="#000000"> stdpConfig</text>
</g>
<!-- Node3 -->
<g id="node3" class="node">
<title>Node3</title>
<g id="a_node3"><a xlink:href="structRadiusRF.html" target="_top" xlink:title="A struct to specify the receptive field (RF) radius in 3 dimensions. ">
<polygon fill="#ffffff" stroke="#000000" points="101,-67.5 101,-86.5 162,-86.5 162,-67.5 101,-67.5"/>
<text text-anchor="middle" x="131.5" y="-74.5" font-family="Helvetica,sans-Serif" font-size="10.00" fill="#000000">RadiusRF</text>
</a>
</g>
</g>
<!-- Node3&#45;&gt;Node1 -->
<g id="edge2" class="edge">
<title>Node3&#45;&gt;Node1</title>
<path fill="none" stroke="#9a32cd" stroke-dasharray="5,2" d="M131.5,-57.1079C131.5,-44.714 131.5,-29.3263 131.5,-19.5817"/>
<polygon fill="#9a32cd" stroke="#9a32cd" points="128.0001,-57.4005 131.5,-67.4005 135.0001,-57.4006 128.0001,-57.4005"/>
<text text-anchor="middle" x="159" y="-41" font-family="Helvetica,sans-Serif" font-size="10.00" fill="#000000"> connRadius</text>
</g>
<!-- Node4 -->
<g id="node4" class="node">
<title>Node4</title>
<g id="a_node4"><a xlink:href="classConnectionGeneratorCore.html" target="_top" xlink:title="used for relaying callback to ConnectionGenerator ">
<polygon fill="#ffffff" stroke="#000000" points="180.5,-67.5 180.5,-86.5 310.5,-86.5 310.5,-67.5 180.5,-67.5"/>
<text text-anchor="middle" x="245.5" y="-74.5" font-family="Helvetica,sans-Serif" font-size="10.00" fill="#000000">ConnectionGeneratorCore</text>
</a>
</g>
</g>
<!-- Node4&#45;&gt;Node1 -->
<g id="edge3" class="edge">
<title>Node4&#45;&gt;Node1</title>
<path fill="none" stroke="#9a32cd" stroke-dasharray="5,2" d="M225.0606,-61.2229C214.9409,-53.7482 202.3737,-44.9563 190.5,-38 178.8585,-31.1798 165.2912,-24.65 154.1041,-19.6144"/>
<polygon fill="#9a32cd" stroke="#9a32cd" points="223.1477,-64.1635 233.2447,-67.3732 227.3531,-58.5675 223.1477,-64.1635"/>
<text text-anchor="middle" x="220" y="-41" font-family="Helvetica,sans-Serif" font-size="10.00" fill="#000000"> conn</text>
</g>
</g>
</svg>
