<?xml version="1.0" encoding="UTF-8" standalone="no"?>
<!DOCTYPE svg PUBLIC "-//W3C//DTD SVG 1.1//EN"
 "http://www.w3.org/Graphics/SVG/1.1/DTD/svg11.dtd">
<!-- Generated by graphviz version 2.40.1 (20161225.0304)
 -->
<!-- Title: getNumInstances Pages: 1 -->
<svg width="382pt" height="88pt"
 viewBox="0.00 0.00 382.00 88.00" xmlns="http://www.w3.org/2000/svg" xmlns:xlink="http://www.w3.org/1999/xlink">
<g id="graph0" class="graph" transform="scale(1 1) rotate(0) translate(4 84)">
<title>getNumInstances</title>
<polygon fill="#ffffff" stroke="transparent" points="-4,4 -4,-84 378,-84 378,4 -4,4"/>
<!-- Node8 -->
<g id="node1" class="node">
<title>Node8</title>
<polygon fill="#bfbfbf" stroke="#000000" points="0,-30 0,-49 94,-49 94,-30 0,-30"/>
<text text-anchor="middle" x="47" y="-37" font-family="Helvetica,sans-Serif" font-size="10.00" fill="#000000">getNumInstances</text>
</g>
<!-- Node9 -->
<g id="node2" class="node">
<title>Node9</title>
<g id="a_node2"><a xlink:href="classParameterInstances.html#ac03921debef2a267dfc292209cfe099e" target="_top" xlink:title="ParameterInstances\l::getNumInstances">
<polygon fill="#ffffff" stroke="#000000" points="130,-24.5 130,-54.5 234,-54.5 234,-24.5 130,-24.5"/>
<text text-anchor="start" x="138" y="-42.5" font-family="Helvetica,sans-Serif" font-size="10.00" fill="#000000">ParameterInstances</text>
<text text-anchor="middle" x="182" y="-31.5" font-family="Helvetica,sans-Serif" font-size="10.00" fill="#000000">::getNumInstances</text>
</a>
</g>
</g>
<!-- Node8&#45;&gt;Node9 -->
<g id="edge1" class="edge">
<title>Node8&#45;&gt;Node9</title>
<path fill="none" stroke="#191970" d="M104.4209,-39.5C112.9056,-39.5 121.6077,-39.5 129.9744,-39.5"/>
<polygon fill="#191970" stroke="#191970" points="104.2165,-36.0001 94.2164,-39.5 104.2164,-43.0001 104.2165,-36.0001"/>
</g>
<!-- Node10 -->
<g id="node3" class="node">
<title>Node10</title>
<g id="a_node3"><a xlink:href="classParameterInstances.html#a369e22115d5eb25c2cce26d25442dba4" target="_top" xlink:title="ParameterInstances\l::getInstance">
<polygon fill="#ffffff" stroke="#000000" points="270,-49.5 270,-79.5 374,-79.5 374,-49.5 270,-49.5"/>
<text text-anchor="start" x="278" y="-67.5" font-family="Helvetica,sans-Serif" font-size="10.00" fill="#000000">ParameterInstances</text>
<text text-anchor="middle" x="322" y="-56.5" font-family="Helvetica,sans-Serif" font-size="10.00" fill="#000000">::getInstance</text>
</a>
</g>
</g>
<!-- Node9&#45;&gt;Node10 -->
<g id="edge2" class="edge">
<title>Node9&#45;&gt;Node10</title>
<path fill="none" stroke="#191970" d="M244.1068,-50.5905C252.6945,-52.124 261.4428,-53.6862 269.8256,-55.1831"/>
<polygon fill="#191970" stroke="#191970" points="244.5904,-47.1216 234.1308,-48.8091 243.3598,-54.0126 244.5904,-47.1216"/>
</g>
<!-- Node11 -->
<g id="node4" class="node">
<title>Node11</title>
<g id="a_node4"><a xlink:href="classParameterInstances.html#a4b0f3b5fa03252eabce3894973d30460" target="_top" xlink:title="ParameterInstances\l::getParameter">
<polygon fill="#ffffff" stroke="#000000" points="270,-.5 270,-30.5 374,-30.5 374,-.5 270,-.5"/>
<text text-anchor="start" x="278" y="-18.5" font-family="Helvetica,sans-Serif" font-size="10.00" fill="#000000">ParameterInstances</text>
<text text-anchor="middle" x="322" y="-7.5" font-family="Helvetica,sans-Serif" font-size="10.00" fill="#000000">::getParameter</text>
</a>
</g>
</g>
<!-- Node9&#45;&gt;Node11 -->
<g id="edge3" class="edge">
<title>Node9&#45;&gt;Node11</title>
<path fill="none" stroke="#191970" d="M244.1068,-28.8531C252.6945,-27.3809 261.4428,-25.8812 269.8256,-24.4442"/>
<polygon fill="#191970" stroke="#191970" points="243.3957,-25.4239 234.1308,-30.5633 244.5785,-32.3232 243.3957,-25.4239"/>
</g>
</g>
</svg>
