<?xml version="1.0" encoding="UTF-8" standalone="no"?>
<!DOCTYPE svg PUBLIC "-//W3C//DTD SVG 1.1//EN"
 "http://www.w3.org/Graphics/SVG/1.1/DTD/svg11.dtd">
<!-- Generated by graphviz version 2.40.1 (20161225.0304)
 -->
<!-- Title: user_errors.h Pages: 1 -->
<svg width="1395pt" height="319pt"
 viewBox="0.00 0.00 1394.50 319.00" xmlns="http://www.w3.org/2000/svg" xmlns:xlink="http://www.w3.org/1999/xlink">
<g id="graph0" class="graph" transform="scale(1 1) rotate(0) translate(4 315)">
<title>user_errors.h</title>
<polygon fill="#ffffff" stroke="transparent" points="-4,4 -4,-315 1390.5,-315 1390.5,4 -4,4"/>
<!-- Node4 -->
<g id="node1" class="node">
<title>Node4</title>
<polygon fill="#bfbfbf" stroke="#000000" points="819,-291.5 819,-310.5 893,-310.5 893,-291.5 819,-291.5"/>
<text text-anchor="middle" x="856" y="-298.5" font-family="Helvetica,sans-Serif" font-size="10.00" fill="#000000">user_errors.h</text>
</g>
<!-- Node5 -->
<g id="node2" class="node">
<title>Node5</title>
<g id="a_node2"><a xlink:href="carlsim__datastructures_8h.html" target="_top" xlink:title="carlsim_datastructures.h">
<polygon fill="#ffffff" stroke="#000000" points="500,-235.5 500,-254.5 624,-254.5 624,-235.5 500,-235.5"/>
<text text-anchor="middle" x="562" y="-242.5" font-family="Helvetica,sans-Serif" font-size="10.00" fill="#000000">carlsim_datastructures.h</text>
</a>
</g>
</g>
<!-- Node4&#45;&gt;Node5 -->
<g id="edge1" class="edge">
<title>Node4&#45;&gt;Node5</title>
<path fill="none" stroke="#191970" d="M808.7776,-292.0053C754.8445,-281.7323 666.9749,-264.9952 611.9342,-254.5113"/>
<polygon fill="#191970" stroke="#191970" points="808.2864,-295.4745 818.7647,-293.9076 809.5962,-288.5982 808.2864,-295.4745"/>
</g>
<!-- Node7 -->
<g id="node4" class="node">
<title>Node7</title>
<g id="a_node4"><a xlink:href="carlsim_8cpp.html" target="_top" xlink:title="carlsim.cpp">
<polygon fill="#ffffff" stroke="#000000" points="960.5,-6 960.5,-25 1027.5,-25 1027.5,-6 960.5,-6"/>
<text text-anchor="middle" x="994" y="-13" font-family="Helvetica,sans-Serif" font-size="10.00" fill="#000000">carlsim.cpp</text>
</a>
</g>
</g>
<!-- Node4&#45;&gt;Node7 -->
<g id="edge41" class="edge">
<title>Node4&#45;&gt;Node7</title>
<path fill="none" stroke="#191970" d="M860.4518,-281.4203C863.7686,-268.087 868.7889,-250.173 875,-235 909.8144,-149.9529 968.5766,-55.2339 987.7476,-25.1867"/>
<polygon fill="#191970" stroke="#191970" points="856.9914,-280.8433 858.0776,-291.3823 863.8006,-282.4662 856.9914,-280.8433"/>
</g>
<!-- Node18 -->
<g id="node15" class="node">
<title>Node18</title>
<g id="a_node15"><a xlink:href="group__monitor_8cpp.html" target="_top" xlink:title="group_monitor.cpp">
<polygon fill="#ffffff" stroke="#000000" points="655.5,-123.5 655.5,-142.5 752.5,-142.5 752.5,-123.5 655.5,-123.5"/>
<text text-anchor="middle" x="704" y="-130.5" font-family="Helvetica,sans-Serif" font-size="10.00" fill="#000000">group_monitor.cpp</text>
</a>
</g>
</g>
<!-- Node4&#45;&gt;Node18 -->
<g id="edge44" class="edge">
<title>Node4&#45;&gt;Node18</title>
<path fill="none" stroke="#191970" d="M839.6197,-283.8103C820.5257,-263.6817 788.1245,-229.2414 761,-199 743.4102,-179.389 723.399,-155.9464 712.384,-142.9405"/>
<polygon fill="#191970" stroke="#191970" points="837.2796,-286.4287 846.7054,-291.2666 842.3539,-281.6066 837.2796,-286.4287"/>
</g>
<!-- Node22 -->
<g id="node19" class="node">
<title>Node22</title>
<g id="a_node19"><a xlink:href="neuron__monitor_8cpp.html" target="_top" xlink:title="neuron_monitor.cpp">
<polygon fill="#ffffff" stroke="#000000" points="93,-123.5 93,-142.5 195,-142.5 195,-123.5 93,-123.5"/>
<text text-anchor="middle" x="144" y="-130.5" font-family="Helvetica,sans-Serif" font-size="10.00" fill="#000000">neuron_monitor.cpp</text>
</a>
</g>
</g>
<!-- Node4&#45;&gt;Node22 -->
<g id="edge45" class="edge">
<title>Node4&#45;&gt;Node22</title>
<path fill="none" stroke="#191970" d="M808.7599,-297.0895C660.4345,-284.3989 210.9878,-242.6524 163,-199 146.947,-184.3973 144.1162,-157.1993 143.8209,-142.6956"/>
<polygon fill="#191970" stroke="#191970" points="808.6486,-300.5926 818.9092,-297.9526 809.2418,-293.6178 808.6486,-300.5926"/>
</g>
<!-- Node25 -->
<g id="node22" class="node">
<title>Node25</title>
<g id="a_node22"><a xlink:href="spike__monitor_8cpp.html" target="_top" xlink:title="spike_monitor.cpp">
<polygon fill="#ffffff" stroke="#000000" points="365,-123.5 365,-142.5 461,-142.5 461,-123.5 365,-123.5"/>
<text text-anchor="middle" x="413" y="-130.5" font-family="Helvetica,sans-Serif" font-size="10.00" fill="#000000">spike_monitor.cpp</text>
</a>
</g>
</g>
<!-- Node4&#45;&gt;Node25 -->
<g id="edge46" class="edge">
<title>Node4&#45;&gt;Node25</title>
<path fill="none" stroke="#191970" d="M808.544,-299.0268C722.6875,-294.805 545.419,-282.91 491,-255 445.1434,-231.4814 422.7115,-167.3967 415.5937,-142.7964"/>
<polygon fill="#191970" stroke="#191970" points="808.639,-302.5353 818.7944,-299.5157 808.9725,-295.5432 808.639,-302.5353"/>
</g>
<!-- Node27 -->
<g id="node24" class="node">
<title>Node27</title>
<g id="a_node24"><a xlink:href="user__errors_8cpp.html" target="_top" xlink:title="user_errors.cpp">
<polygon fill="#ffffff" stroke="#000000" points="884,-235.5 884,-254.5 968,-254.5 968,-235.5 884,-235.5"/>
<text text-anchor="middle" x="926" y="-242.5" font-family="Helvetica,sans-Serif" font-size="10.00" fill="#000000">user_errors.cpp</text>
</a>
</g>
</g>
<!-- Node4&#45;&gt;Node27 -->
<g id="edge42" class="edge">
<title>Node4&#45;&gt;Node27</title>
<path fill="none" stroke="#191970" d="M876.09,-284.928C888.3253,-275.1397 903.5507,-262.9595 913.9467,-254.6427"/>
<polygon fill="#191970" stroke="#191970" points="873.8153,-282.2655 868.1931,-291.2455 878.1882,-287.7316 873.8153,-282.2655"/>
</g>
<!-- Node28 -->
<g id="node25" class="node">
<title>Node28</title>
<g id="a_node25"><a xlink:href="connection__monitor_8cpp.html" target="_top" xlink:title="connection_monitor.cpp">
<polygon fill="#ffffff" stroke="#000000" points="986,-235.5 986,-254.5 1106,-254.5 1106,-235.5 986,-235.5"/>
<text text-anchor="middle" x="1046" y="-242.5" font-family="Helvetica,sans-Serif" font-size="10.00" fill="#000000">connection_monitor.cpp</text>
</a>
</g>
</g>
<!-- Node4&#45;&gt;Node28 -->
<g id="edge43" class="edge">
<title>Node4&#45;&gt;Node28</title>
<path fill="none" stroke="#191970" d="M898.5597,-288.4561C933.4369,-278.1765 982.0468,-263.8494 1013.764,-254.5011"/>
<polygon fill="#191970" stroke="#191970" points="897.2647,-285.1888 888.6622,-291.3733 899.2437,-291.9033 897.2647,-285.1888"/>
</g>
<!-- Node29 -->
<g id="node26" class="node">
<title>Node29</title>
<g id="a_node26"><a xlink:href="periodic__spikegen_8cpp.html" target="_top" xlink:title="periodic_spikegen.cpp">
<polygon fill="#ffffff" stroke="#000000" points="1124.5,-235.5 1124.5,-254.5 1237.5,-254.5 1237.5,-235.5 1124.5,-235.5"/>
<text text-anchor="middle" x="1181" y="-242.5" font-family="Helvetica,sans-Serif" font-size="10.00" fill="#000000">periodic_spikegen.cpp</text>
</a>
</g>
</g>
<!-- Node4&#45;&gt;Node29 -->
<g id="edge47" class="edge">
<title>Node4&#45;&gt;Node29</title>
<path fill="none" stroke="#191970" d="M903.4561,-292.823C962.5387,-282.6426 1063.2749,-265.2849 1125.7647,-254.5175"/>
<polygon fill="#191970" stroke="#191970" points="902.5421,-289.4288 893.2816,-294.5761 903.7308,-296.3271 902.5421,-289.4288"/>
</g>
<!-- Node30 -->
<g id="node27" class="node">
<title>Node30</title>
<g id="a_node27"><a xlink:href="spikegen__from__vector_8cpp.html" target="_top" xlink:title="spikegen_from_vector.cpp">
<polygon fill="#ffffff" stroke="#000000" points="1255.5,-235.5 1255.5,-254.5 1386.5,-254.5 1386.5,-235.5 1255.5,-235.5"/>
<text text-anchor="middle" x="1321" y="-242.5" font-family="Helvetica,sans-Serif" font-size="10.00" fill="#000000">spikegen_from_vector.cpp</text>
</a>
</g>
</g>
<!-- Node4&#45;&gt;Node30 -->
<g id="edge48" class="edge">
<title>Node4&#45;&gt;Node30</title>
<path fill="none" stroke="#191970" d="M903.5527,-295.6727C977.189,-287.363 1123.2296,-270.6423 1247,-255 1249.701,-254.6586 1252.4567,-254.306 1255.2402,-253.9462"/>
<polygon fill="#191970" stroke="#191970" points="902.77,-292.2387 893.2249,-296.8366 903.554,-299.1947 902.77,-292.2387"/>
</g>
<!-- Node6 -->
<g id="node3" class="node">
<title>Node6</title>
<g id="a_node3"><a xlink:href="carlsim_8h.html" target="_top" xlink:title="carlsim.h">
<polygon fill="#ffffff" stroke="#000000" points="536,-123.5 536,-142.5 592,-142.5 592,-123.5 536,-123.5"/>
<text text-anchor="middle" x="564" y="-130.5" font-family="Helvetica,sans-Serif" font-size="10.00" fill="#000000">carlsim.h</text>
</a>
</g>
</g>
<!-- Node5&#45;&gt;Node6 -->
<g id="edge2" class="edge">
<title>Node5&#45;&gt;Node6</title>
<path fill="none" stroke="#191970" d="M562.3523,-225.2702C562.7857,-200.9985 563.5041,-160.7725 563.8299,-142.5249"/>
<polygon fill="#191970" stroke="#191970" points="558.8497,-225.39 562.1705,-235.4509 565.8486,-225.5151 558.8497,-225.39"/>
</g>
<!-- Node5&#45;&gt;Node18 -->
<g id="edge15" class="edge">
<title>Node5&#45;&gt;Node18</title>
<path fill="none" stroke="#191970" d="M628.4992,-232.4351C649.0105,-225.6056 670.096,-215.1076 685,-199 699.5764,-183.2465 703.0481,-157.017 703.8247,-142.8316"/>
<polygon fill="#191970" stroke="#191970" points="627.3528,-229.1259 618.824,-235.4116 629.4111,-235.8164 627.3528,-229.1259"/>
</g>
<!-- Node19 -->
<g id="node16" class="node">
<title>Node19</title>
<g id="a_node16"><a xlink:href="group__monitor_8h.html" target="_top" xlink:title="group_monitor.h">
<polygon fill="#ffffff" stroke="#000000" points="590,-179.5 590,-198.5 676,-198.5 676,-179.5 590,-179.5"/>
<text text-anchor="middle" x="633" y="-186.5" font-family="Helvetica,sans-Serif" font-size="10.00" fill="#000000">group_monitor.h</text>
</a>
</g>
</g>
<!-- Node5&#45;&gt;Node19 -->
<g id="edge16" class="edge">
<title>Node5&#45;&gt;Node19</title>
<path fill="none" stroke="#191970" d="M582.377,-228.928C594.7871,-219.1397 610.23,-206.9595 620.7745,-198.6427"/>
<polygon fill="#191970" stroke="#191970" points="580.0514,-226.3046 574.3673,-235.2455 584.3864,-231.8007 580.0514,-226.3046"/>
</g>
<!-- Node20 -->
<g id="node17" class="node">
<title>Node20</title>
<g id="a_node17"><a xlink:href="group__monitor__core_8h.html" target="_top" xlink:title="group_monitor_core.h">
<polygon fill="#ffffff" stroke="#000000" points="770,-179.5 770,-198.5 880,-198.5 880,-179.5 770,-179.5"/>
<text text-anchor="middle" x="825" y="-186.5" font-family="Helvetica,sans-Serif" font-size="10.00" fill="#000000">group_monitor_core.h</text>
</a>
</g>
</g>
<!-- Node5&#45;&gt;Node20 -->
<g id="edge20" class="edge">
<title>Node5&#45;&gt;Node20</title>
<path fill="none" stroke="#191970" d="M616.914,-233.3073C665.3763,-222.9883 735.1405,-208.1336 780.2728,-198.5237"/>
<polygon fill="#191970" stroke="#191970" points="615.9643,-229.931 606.9125,-235.4369 617.4222,-236.7775 615.9643,-229.931"/>
</g>
<!-- Node21 -->
<g id="node18" class="node">
<title>Node21</title>
<g id="a_node18"><a xlink:href="neuron__monitor_8h.html" target="_top" xlink:title="neuron_monitor.h">
<polygon fill="#ffffff" stroke="#000000" points="172,-179.5 172,-198.5 264,-198.5 264,-179.5 172,-179.5"/>
<text text-anchor="middle" x="218" y="-186.5" font-family="Helvetica,sans-Serif" font-size="10.00" fill="#000000">neuron_monitor.h</text>
</a>
</g>
</g>
<!-- Node5&#45;&gt;Node21 -->
<g id="edge25" class="edge">
<title>Node5&#45;&gt;Node21</title>
<path fill="none" stroke="#191970" d="M490.0368,-233.9958C431.5227,-224.9398 346.8563,-211.5905 273,-199 270.1299,-198.5107 267.1771,-197.9988 264.2005,-197.4762"/>
<polygon fill="#191970" stroke="#191970" points="489.5052,-237.4551 499.9224,-235.5234 490.5742,-230.5372 489.5052,-237.4551"/>
</g>
<!-- Node23 -->
<g id="node20" class="node">
<title>Node23</title>
<g id="a_node20"><a xlink:href="neuron__monitor__core_8h.html" target="_top" xlink:title="neuron_monitor_core.h">
<polygon fill="#ffffff" stroke="#000000" points="0,-179.5 0,-198.5 116,-198.5 116,-179.5 0,-179.5"/>
<text text-anchor="middle" x="58" y="-186.5" font-family="Helvetica,sans-Serif" font-size="10.00" fill="#000000">neuron_monitor_core.h</text>
</a>
</g>
</g>
<!-- Node5&#45;&gt;Node23 -->
<g id="edge29" class="edge">
<title>Node5&#45;&gt;Node23</title>
<path fill="none" stroke="#191970" d="M489.8753,-236.9861C389.3117,-225.8124 208.9227,-205.7692 116.3331,-195.4815"/>
<polygon fill="#191970" stroke="#191970" points="489.6218,-240.4794 499.9472,-238.1052 490.3949,-233.5222 489.6218,-240.4794"/>
</g>
<!-- Node24 -->
<g id="node21" class="node">
<title>Node24</title>
<g id="a_node21"><a xlink:href="spike__monitor_8h.html" target="_top" xlink:title="spike_monitor.h">
<polygon fill="#ffffff" stroke="#000000" points="448,-179.5 448,-198.5 534,-198.5 534,-179.5 448,-179.5"/>
<text text-anchor="middle" x="491" y="-186.5" font-family="Helvetica,sans-Serif" font-size="10.00" fill="#000000">spike_monitor.h</text>
</a>
</g>
</g>
<!-- Node5&#45;&gt;Node24 -->
<g id="edge33" class="edge">
<title>Node5&#45;&gt;Node24</title>
<path fill="none" stroke="#191970" d="M541.623,-228.928C529.2129,-219.1397 513.77,-206.9595 503.2255,-198.6427"/>
<polygon fill="#191970" stroke="#191970" points="539.6136,-231.8007 549.6327,-235.2455 543.9486,-226.3046 539.6136,-231.8007"/>
</g>
<!-- Node26 -->
<g id="node23" class="node">
<title>Node26</title>
<g id="a_node23"><a xlink:href="spike__monitor__core_8h.html" target="_top" xlink:title="spike_monitor_core.h">
<polygon fill="#ffffff" stroke="#000000" points="282,-179.5 282,-198.5 392,-198.5 392,-179.5 282,-179.5"/>
<text text-anchor="middle" x="337" y="-186.5" font-family="Helvetica,sans-Serif" font-size="10.00" fill="#000000">spike_monitor_core.h</text>
</a>
</g>
</g>
<!-- Node5&#45;&gt;Node26 -->
<g id="edge37" class="edge">
<title>Node5&#45;&gt;Node26</title>
<path fill="none" stroke="#191970" d="M513.7134,-232.982C472.3139,-222.6781 413.4721,-208.0331 375.2647,-198.5237"/>
<polygon fill="#191970" stroke="#191970" points="513.0275,-236.418 523.5768,-235.4369 514.7182,-229.6252 513.0275,-236.418"/>
</g>
<!-- Node6&#45;&gt;Node7 -->
<g id="edge3" class="edge">
<title>Node6&#45;&gt;Node7</title>
<path fill="none" stroke="#191970" d="M602.0892,-125.7907C644.5386,-117.5028 715.093,-102.9709 775,-87 854.7255,-65.7456 873.9415,-57.7353 952,-31 957.4412,-29.1364 963.2462,-27.055 968.7499,-25.0375"/>
<polygon fill="#191970" stroke="#191970" points="601.3352,-122.3716 592.184,-127.7107 602.6673,-129.2437 601.3352,-122.3716"/>
</g>
<!-- Node8 -->
<g id="node5" class="node">
<title>Node8</title>
<g id="a_node5"><a xlink:href="snn_8h.html" target="_top" xlink:title="snn.h">
<polygon fill="#ffffff" stroke="#000000" points="725.5,-67.5 725.5,-86.5 766.5,-86.5 766.5,-67.5 725.5,-67.5"/>
<text text-anchor="middle" x="746" y="-74.5" font-family="Helvetica,sans-Serif" font-size="10.00" fill="#000000">snn.h</text>
</a>
</g>
</g>
<!-- Node6&#45;&gt;Node8 -->
<g id="edge4" class="edge">
<title>Node6&#45;&gt;Node8</title>
<path fill="none" stroke="#191970" d="M601.6051,-121.4292C639.0792,-109.8987 695.2456,-92.6167 725.2891,-83.3726"/>
<polygon fill="#191970" stroke="#191970" points="600.5671,-118.0866 592.0386,-124.3727 602.6258,-124.777 600.5671,-118.0866"/>
</g>
<!-- Node16 -->
<g id="node13" class="node">
<title>Node16</title>
<g id="a_node13"><a xlink:href="spikegen__from__file_8cpp.html" target="_top" xlink:title="spikegen_from_file.cpp">
<polygon fill="#ffffff" stroke="#000000" points="508.5,-67.5 508.5,-86.5 625.5,-86.5 625.5,-67.5 508.5,-67.5"/>
<text text-anchor="middle" x="567" y="-74.5" font-family="Helvetica,sans-Serif" font-size="10.00" fill="#000000">spikegen_from_file.cpp</text>
</a>
</g>
</g>
<!-- Node6&#45;&gt;Node16 -->
<g id="edge13" class="edge">
<title>Node6&#45;&gt;Node16</title>
<path fill="none" stroke="#191970" d="M565.063,-113.1575C565.5453,-104.155 566.0936,-93.9199 566.4834,-86.6427"/>
<polygon fill="#191970" stroke="#191970" points="561.5626,-113.0726 564.5226,-123.2455 568.5526,-113.4471 561.5626,-113.0726"/>
</g>
<!-- Node17 -->
<g id="node14" class="node">
<title>Node17</title>
<g id="a_node14"><a xlink:href="simple__weight__tuner_8cpp.html" target="_top" xlink:title="simple_weight_tuner.cpp">
<polygon fill="#ffffff" stroke="#000000" points="365.5,-67.5 365.5,-86.5 490.5,-86.5 490.5,-67.5 365.5,-67.5"/>
<text text-anchor="middle" x="428" y="-74.5" font-family="Helvetica,sans-Serif" font-size="10.00" fill="#000000">simple_weight_tuner.cpp</text>
</a>
</g>
</g>
<!-- Node6&#45;&gt;Node17 -->
<g id="edge14" class="edge">
<title>Node6&#45;&gt;Node17</title>
<path fill="none" stroke="#191970" d="M531.2601,-119.5189C506.4917,-109.3201 473.095,-95.5685 451.0742,-86.5011"/>
<polygon fill="#191970" stroke="#191970" points="530.0413,-122.8021 540.6208,-123.3733 532.7066,-116.3293 530.0413,-122.8021"/>
</g>
<!-- Node8&#45;&gt;Node7 -->
<g id="edge5" class="edge">
<title>Node8&#45;&gt;Node7</title>
<path fill="none" stroke="#191970" d="M776.7522,-71.4674C817.3037,-63.8692 890.6938,-49.0691 952,-31 957.8151,-29.2861 963.9857,-27.1776 969.7553,-25.0742"/>
<polygon fill="#191970" stroke="#191970" points="775.8952,-68.0665 766.6997,-73.329 777.1699,-74.9495 775.8952,-68.0665"/>
</g>
<!-- Node9 -->
<g id="node6" class="node">
<title>Node9</title>
<g id="a_node6"><a xlink:href="print__snn__info_8cpp.html" target="_top" xlink:title="print_snn_info.cpp">
<polygon fill="#ffffff" stroke="#000000" points="707,-6 707,-25 803,-25 803,-6 707,-6"/>
<text text-anchor="middle" x="755" y="-13" font-family="Helvetica,sans-Serif" font-size="10.00" fill="#000000">print_snn_info.cpp</text>
</a>
</g>
</g>
<!-- Node8&#45;&gt;Node9 -->
<g id="edge6" class="edge">
<title>Node8&#45;&gt;Node9</title>
<path fill="none" stroke="#191970" d="M748.8908,-57.2462C750.4558,-46.5519 752.3199,-33.814 753.5739,-25.2449"/>
<polygon fill="#191970" stroke="#191970" points="745.3912,-56.9892 747.4063,-67.3906 752.3174,-58.0028 745.3912,-56.9892"/>
</g>
<!-- Node10 -->
<g id="node7" class="node">
<title>Node10</title>
<g id="a_node7"><a xlink:href="snn__cpu__module_8cpp.html" target="_top" xlink:title="snn_cpu_module.cpp">
<polygon fill="#ffffff" stroke="#000000" points="579.5,-6 579.5,-25 688.5,-25 688.5,-6 579.5,-6"/>
<text text-anchor="middle" x="634" y="-13" font-family="Helvetica,sans-Serif" font-size="10.00" fill="#000000">snn_cpu_module.cpp</text>
</a>
</g>
</g>
<!-- Node8&#45;&gt;Node10 -->
<g id="edge7" class="edge">
<title>Node8&#45;&gt;Node10</title>
<path fill="none" stroke="#191970" d="M719.7227,-62.571C698.6453,-50.9972 669.658,-35.0801 651.3771,-25.0419"/>
<polygon fill="#191970" stroke="#191970" points="718.0499,-65.6453 728.5,-67.3906 721.4192,-59.5095 718.0499,-65.6453"/>
</g>
<!-- Node11 -->
<g id="node8" class="node">
<title>Node11</title>
<g id="a_node8"><a xlink:href="snn__manager_8cpp.html" target="_top" xlink:title="snn_manager.cpp">
<polygon fill="#ffffff" stroke="#000000" points="210,-6 210,-25 304,-25 304,-6 210,-6"/>
<text text-anchor="middle" x="257" y="-13" font-family="Helvetica,sans-Serif" font-size="10.00" fill="#000000">snn_manager.cpp</text>
</a>
</g>
</g>
<!-- Node8&#45;&gt;Node11 -->
<g id="edge8" class="edge">
<title>Node8&#45;&gt;Node11</title>
<path fill="none" stroke="#191970" d="M715.4911,-67.9212C713.9784,-67.585 712.4755,-67.275 711,-67 536.3953,-34.4594 487.7378,-62.8179 313,-31 304.6634,-29.482 295.7683,-27.2913 287.579,-25.0329"/>
<polygon fill="#191970" stroke="#191970" points="714.8732,-71.3749 725.4254,-70.4258 716.5845,-64.5873 714.8732,-71.3749"/>
</g>
<!-- Node12 -->
<g id="node9" class="node">
<title>Node12</title>
<g id="a_node9"><a xlink:href="connection__monitor__core_8cpp.html" target="_top" xlink:title="connection_monitor\l_core.cpp">
<polygon fill="#ffffff" stroke="#000000" points="460.5,-.5 460.5,-30.5 561.5,-30.5 561.5,-.5 460.5,-.5"/>
<text text-anchor="start" x="468.5" y="-18.5" font-family="Helvetica,sans-Serif" font-size="10.00" fill="#000000">connection_monitor</text>
<text text-anchor="middle" x="511" y="-7.5" font-family="Helvetica,sans-Serif" font-size="10.00" fill="#000000">_core.cpp</text>
</a>
</g>
</g>
<!-- Node8&#45;&gt;Node12 -->
<g id="edge9" class="edge">
<title>Node8&#45;&gt;Node12</title>
<path fill="none" stroke="#191970" d="M715.4253,-68.2098C713.9301,-67.7971 712.4488,-67.3919 711,-67 648.5662,-50.1142 632.6109,-47.217 570,-31 567.2319,-30.283 564.3914,-29.5449 561.5245,-28.798"/>
<polygon fill="#191970" stroke="#191970" points="714.7252,-71.6485 725.2989,-70.9805 716.6165,-64.9088 714.7252,-71.6485"/>
</g>
<!-- Node13 -->
<g id="node10" class="node">
<title>Node13</title>
<g id="a_node10"><a xlink:href="group__monitor__core_8cpp.html" target="_top" xlink:title="group_monitor_core.cpp">
<polygon fill="#ffffff" stroke="#000000" points="821.5,-6 821.5,-25 942.5,-25 942.5,-6 821.5,-6"/>
<text text-anchor="middle" x="882" y="-13" font-family="Helvetica,sans-Serif" font-size="10.00" fill="#000000">group_monitor_core.cpp</text>
</a>
</g>
</g>
<!-- Node8&#45;&gt;Node13 -->
<g id="edge10" class="edge">
<title>Node8&#45;&gt;Node13</title>
<path fill="none" stroke="#191970" d="M775.9158,-63.4719C801.5735,-51.8694 837.908,-35.4387 860.701,-25.1316"/>
<polygon fill="#191970" stroke="#191970" points="774.325,-60.35 766.6555,-67.6595 777.2093,-66.7282 774.325,-60.35"/>
</g>
<!-- Node14 -->
<g id="node11" class="node">
<title>Node14</title>
<g id="a_node11"><a xlink:href="neuron__monitor__core_8cpp.html" target="_top" xlink:title="neuron_monitor_core.cpp">
<polygon fill="#ffffff" stroke="#000000" points="13,-6 13,-25 139,-25 139,-6 13,-6"/>
<text text-anchor="middle" x="76" y="-13" font-family="Helvetica,sans-Serif" font-size="10.00" fill="#000000">neuron_monitor_core.cpp</text>
</a>
</g>
</g>
<!-- Node8&#45;&gt;Node14 -->
<g id="edge11" class="edge">
<title>Node8&#45;&gt;Node14</title>
<path fill="none" stroke="#191970" d="M715.3804,-74.2154C692.8709,-72.1807 661.5364,-69.374 634,-67 441.6052,-50.4132 393.0818,-50.8858 201,-31 180.88,-28.917 158.9801,-26.3157 139.2134,-23.8425"/>
<polygon fill="#191970" stroke="#191970" points="715.0858,-77.7029 725.3608,-75.1192 715.7172,-70.7315 715.0858,-77.7029"/>
</g>
<!-- Node15 -->
<g id="node12" class="node">
<title>Node15</title>
<g id="a_node12"><a xlink:href="spike__monitor__core_8cpp.html" target="_top" xlink:title="spike_monitor_core.cpp">
<polygon fill="#ffffff" stroke="#000000" points="322,-6 322,-25 442,-25 442,-6 322,-6"/>
<text text-anchor="middle" x="382" y="-13" font-family="Helvetica,sans-Serif" font-size="10.00" fill="#000000">spike_monitor_core.cpp</text>
</a>
</g>
</g>
<!-- Node8&#45;&gt;Node15 -->
<g id="edge12" class="edge">
<title>Node8&#45;&gt;Node15</title>
<path fill="none" stroke="#191970" d="M715.474,-68.0073C713.9659,-67.6483 712.4686,-67.3099 711,-67 596.8551,-42.9162 565.7883,-51.8024 451,-31 441.4561,-29.2704 431.2317,-27.1322 421.6556,-25.0024"/>
<polygon fill="#191970" stroke="#191970" points="714.8331,-71.4571 725.3925,-70.5913 716.5979,-64.6832 714.8331,-71.4571"/>
</g>
<!-- Node19&#45;&gt;Node6 -->
<g id="edge17" class="edge">
<title>Node19&#45;&gt;Node6</title>
<path fill="none" stroke="#191970" d="M613.197,-172.928C601.1364,-163.1397 586.1286,-150.9595 575.8812,-142.6427"/>
<polygon fill="#191970" stroke="#191970" points="611.0109,-175.6614 620.9811,-179.2455 615.4221,-170.2262 611.0109,-175.6614"/>
</g>
<!-- Node19&#45;&gt;Node11 -->
<g id="edge18" class="edge">
<title>Node19&#45;&gt;Node11</title>
<path fill="none" stroke="#191970" d="M636.1833,-169.5471C640.7044,-138.9686 647.0769,-81.6255 634,-67 586.1555,-13.4898 383.4772,-44.6166 313,-31 304.8782,-29.4308 296.2139,-27.2766 288.1878,-25.0731"/>
<polygon fill="#191970" stroke="#191970" points="632.718,-169.0543 634.6409,-179.4732 639.635,-170.1292 632.718,-169.0543"/>
</g>
<!-- Node19&#45;&gt;Node18 -->
<g id="edge19" class="edge">
<title>Node19&#45;&gt;Node18</title>
<path fill="none" stroke="#191970" d="M653.377,-172.928C665.7871,-163.1397 681.23,-150.9595 691.7745,-142.6427"/>
<polygon fill="#191970" stroke="#191970" points="651.0514,-170.3046 645.3673,-179.2455 655.3864,-175.8007 651.0514,-170.3046"/>
</g>
<!-- Node20&#45;&gt;Node9 -->
<g id="edge21" class="edge">
<title>Node20&#45;&gt;Node9</title>
<path fill="none" stroke="#191970" d="M817.266,-169.8308C802.3616,-132.8892 770.1439,-53.0353 758.9376,-25.2595"/>
<polygon fill="#191970" stroke="#191970" points="814.1494,-171.4606 821.1368,-179.4248 820.641,-168.8415 814.1494,-171.4606"/>
</g>
<!-- Node20&#45;&gt;Node11 -->
<g id="edge22" class="edge">
<title>Node20&#45;&gt;Node11</title>
<path fill="none" stroke="#191970" d="M810.4262,-171.0084C798.257,-156.7656 779.9036,-137.0068 761,-123 717.2396,-90.5754 704.1867,-82.5844 652,-67 506.8213,-23.6457 461.8467,-59.304 313,-31 304.7745,-29.4359 295.9962,-27.2567 287.8881,-25.0256"/>
<polygon fill="#191970" stroke="#191970" points="808.0569,-173.6317 817.1537,-179.063 813.4295,-169.1443 808.0569,-173.6317"/>
</g>
<!-- Node20&#45;&gt;Node13 -->
<g id="edge24" class="edge">
<title>Node20&#45;&gt;Node13</title>
<path fill="none" stroke="#191970" d="M831.2977,-169.8308C843.4341,-132.8892 869.6685,-53.0353 878.7937,-25.2595"/>
<polygon fill="#191970" stroke="#191970" points="827.9419,-168.8319 828.1458,-179.4248 834.5922,-171.0167 827.9419,-168.8319"/>
</g>
<!-- Node20&#45;&gt;Node18 -->
<g id="edge23" class="edge">
<title>Node20&#45;&gt;Node18</title>
<path fill="none" stroke="#191970" d="M794.9896,-175.1109C773.0475,-164.9559 743.8612,-151.4482 724.5292,-142.5011"/>
<polygon fill="#191970" stroke="#191970" points="793.6541,-178.3494 804.1994,-179.3733 796.5942,-171.9968 793.6541,-178.3494"/>
</g>
<!-- Node21&#45;&gt;Node6 -->
<g id="edge26" class="edge">
<title>Node21&#45;&gt;Node6</title>
<path fill="none" stroke="#191970" d="M274.0797,-178.8447C376.4127,-161.5468 485.5198,-144.8375 535.8731,-137.2255"/>
<polygon fill="#191970" stroke="#191970" points="273.4739,-175.3973 264.1999,-180.5202 274.6444,-182.2988 273.4739,-175.3973"/>
</g>
<!-- Node21&#45;&gt;Node11 -->
<g id="edge27" class="edge">
<title>Node21&#45;&gt;Node11</title>
<path fill="none" stroke="#191970" d="M222.4164,-169.3528C230.7667,-132.2047 248.5895,-52.9161 254.8062,-25.2595"/>
<polygon fill="#191970" stroke="#191970" points="218.9308,-168.9006 220.1524,-179.4248 225.7603,-170.4358 218.9308,-168.9006"/>
</g>
<!-- Node21&#45;&gt;Node22 -->
<g id="edge28" class="edge">
<title>Node21&#45;&gt;Node22</title>
<path fill="none" stroke="#191970" d="M197.1343,-173.2097C184.1375,-163.3743 167.8378,-151.0394 156.7421,-142.6427"/>
<polygon fill="#191970" stroke="#191970" points="195.024,-176.002 205.1102,-179.2455 199.2482,-170.4201 195.024,-176.002"/>
</g>
<!-- Node23&#45;&gt;Node11 -->
<g id="edge30" class="edge">
<title>Node23&#45;&gt;Node11</title>
<path fill="none" stroke="#191970" d="M62.3387,-168.9199C66.174,-154.8592 72.9226,-136.2849 84,-123 124.9886,-73.8434 194.4983,-40.4588 231.7085,-25.1166"/>
<polygon fill="#191970" stroke="#191970" points="58.8392,-168.4959 59.8604,-179.0414 65.6383,-170.1608 58.8392,-168.4959"/>
</g>
<!-- Node23&#45;&gt;Node14 -->
<g id="edge32" class="edge">
<title>Node23&#45;&gt;Node14</title>
<path fill="none" stroke="#191970" d="M53.5032,-169.2454C48.7209,-144.8779 42.8753,-102.3415 51,-67 54.5628,-51.5022 63.4377,-35.2595 69.5929,-25.2568"/>
<polygon fill="#191970" stroke="#191970" points="50.147,-170.2925 55.6356,-179.3548 56.9963,-168.8477 50.147,-170.2925"/>
</g>
<!-- Node23&#45;&gt;Node22 -->
<g id="edge31" class="edge">
<title>Node23&#45;&gt;Node22</title>
<path fill="none" stroke="#191970" d="M81.3905,-173.769C96.6299,-163.8456 116.0509,-151.1994 129.1916,-142.6427"/>
<polygon fill="#191970" stroke="#191970" points="79.4502,-170.8558 72.9801,-179.2455 83.2699,-176.7218 79.4502,-170.8558"/>
</g>
<!-- Node24&#45;&gt;Node6 -->
<g id="edge34" class="edge">
<title>Node24&#45;&gt;Node6</title>
<path fill="none" stroke="#191970" d="M511.951,-172.928C524.7107,-163.1397 540.5885,-150.9595 551.4301,-142.6427"/>
<polygon fill="#191970" stroke="#191970" points="509.5196,-170.3819 503.7156,-179.2455 513.7803,-175.9359 509.5196,-170.3819"/>
</g>
<!-- Node24&#45;&gt;Node11 -->
<g id="edge35" class="edge">
<title>Node24&#45;&gt;Node11</title>
<path fill="none" stroke="#191970" d="M489.4716,-169.0069C487.3293,-154.4332 482.209,-135.1825 470,-123 432.3885,-85.4702 403.4751,-110.8584 356,-87 321.1435,-69.483 285.2497,-40.2097 267.8166,-25.1291"/>
<polygon fill="#191970" stroke="#191970" points="486.0046,-169.4977 490.5974,-179.0453 492.961,-168.7175 486.0046,-169.4977"/>
</g>
<!-- Node24&#45;&gt;Node25 -->
<g id="edge36" class="edge">
<title>Node24&#45;&gt;Node25</title>
<path fill="none" stroke="#191970" d="M469.0064,-173.2097C455.3071,-163.3743 438.1264,-151.0394 426.4309,-142.6427"/>
<polygon fill="#191970" stroke="#191970" points="467.2489,-176.2566 477.4134,-179.2455 471.3314,-170.5703 467.2489,-176.2566"/>
</g>
<!-- Node26&#45;&gt;Node11 -->
<g id="edge38" class="edge">
<title>Node26&#45;&gt;Node11</title>
<path fill="none" stroke="#191970" d="M326.7356,-170.2439C315.8151,-149.9844 298.3129,-116.6236 285,-87 275.2731,-65.3559 265.5358,-39.2433 260.5051,-25.3402"/>
<polygon fill="#191970" stroke="#191970" points="323.8092,-172.1894 331.6551,-179.3093 329.9617,-168.8506 323.8092,-172.1894"/>
</g>
<!-- Node26&#45;&gt;Node15 -->
<g id="edge40" class="edge">
<title>Node26&#45;&gt;Node15</title>
<path fill="none" stroke="#191970" d="M338.1854,-169.0933C340.0774,-144.5728 344.7873,-101.8825 356,-67 360.9041,-51.7435 369.8343,-35.4405 375.8423,-25.3586"/>
<polygon fill="#191970" stroke="#191970" points="334.6797,-169.0559 337.4838,-179.2729 341.6632,-169.5373 334.6797,-169.0559"/>
</g>
<!-- Node26&#45;&gt;Node25 -->
<g id="edge39" class="edge">
<title>Node26&#45;&gt;Node25</title>
<path fill="none" stroke="#191970" d="M358.4297,-173.2097C371.7777,-163.3743 388.5179,-151.0394 399.9135,-142.6427"/>
<polygon fill="#191970" stroke="#191970" points="356.2126,-170.4958 350.2382,-179.2455 360.365,-176.1312 356.2126,-170.4958"/>
</g>
</g>
</svg>
