<?xml version="1.0" encoding="UTF-8" standalone="no"?>
<!DOCTYPE svg PUBLIC "-//W3C//DTD SVG 1.1//EN"
 "http://www.w3.org/Graphics/SVG/1.1/DTD/svg11.dtd">
<!-- Generated by graphviz version 2.40.1 (20161225.0304)
 -->
<!-- Title: user_errors.h Pages: 1 -->
<svg width="154pt" height="140pt"
 viewBox="0.00 0.00 153.50 140.00" xmlns="http://www.w3.org/2000/svg" xmlns:xlink="http://www.w3.org/1999/xlink">
<g id="graph0" class="graph" transform="scale(1 1) rotate(0) translate(4 136)">
<title>user_errors.h</title>
<polygon fill="#ffffff" stroke="transparent" points="-4,4 -4,-136 149.5,-136 149.5,4 -4,4"/>
<!-- Node0 -->
<g id="node1" class="node">
<title>Node0</title>
<polygon fill="#bfbfbf" stroke="#000000" points="50,-112.5 50,-131.5 124,-131.5 124,-112.5 50,-112.5"/>
<text text-anchor="middle" x="87" y="-119.5" font-family="Helvetica,sans-Serif" font-size="10.00" fill="#000000">user_errors.h</text>
</g>
<!-- Node1 -->
<g id="node2" class="node">
<title>Node1</title>
<g id="a_node2"><a xlink:href="carlsim__api_8h.html" target="_top" xlink:title="carlsim_api.h">
<polygon fill="#ffffff" stroke="#000000" points="12,-56.5 12,-75.5 86,-75.5 86,-56.5 12,-56.5"/>
<text text-anchor="middle" x="49" y="-63.5" font-family="Helvetica,sans-Serif" font-size="10.00" fill="#000000">carlsim_api.h</text>
</a>
</g>
</g>
<!-- Node0&#45;&gt;Node1 -->
<g id="edge1" class="edge">
<title>Node0&#45;&gt;Node1</title>
<path fill="none" stroke="#191970" d="M80.3809,-112.2455C75.0954,-104.4564 67.5459,-93.3308 61.1762,-83.9439"/>
<polygon fill="#191970" stroke="#191970" points="64.0545,-81.9522 55.5432,-75.6427 58.2621,-85.8827 64.0545,-81.9522"/>
</g>
<!-- Node3 -->
<g id="node4" class="node">
<title>Node3</title>
<polygon fill="#ffffff" stroke="#bfbfbf" points="104.5,-56.5 104.5,-75.5 145.5,-75.5 145.5,-56.5 104.5,-56.5"/>
<text text-anchor="middle" x="125" y="-63.5" font-family="Helvetica,sans-Serif" font-size="10.00" fill="#000000">string</text>
</g>
<!-- Node0&#45;&gt;Node3 -->
<g id="edge3" class="edge">
<title>Node0&#45;&gt;Node3</title>
<path fill="none" stroke="#191970" d="M93.6191,-112.2455C98.9046,-104.4564 106.4541,-93.3308 112.8238,-83.9439"/>
<polygon fill="#191970" stroke="#191970" points="115.7379,-85.8827 118.4568,-75.6427 109.9455,-81.9522 115.7379,-85.8827"/>
</g>
<!-- Node2 -->
<g id="node3" class="node">
<title>Node2</title>
<g id="a_node3"><a xlink:href="carlsim__conf__api_8h.html" target="_top" xlink:title="carlsim_conf_api.h">
<polygon fill="#ffffff" stroke="#000000" points="0,-.5 0,-19.5 98,-19.5 98,-.5 0,-.5"/>
<text text-anchor="middle" x="49" y="-7.5" font-family="Helvetica,sans-Serif" font-size="10.00" fill="#000000">carlsim_conf_api.h</text>
</a>
</g>
</g>
<!-- Node1&#45;&gt;Node2 -->
<g id="edge2" class="edge">
<title>Node1&#45;&gt;Node2</title>
<path fill="none" stroke="#191970" d="M49,-56.2455C49,-48.9382 49,-38.6944 49,-29.7046"/>
<polygon fill="#191970" stroke="#191970" points="52.5001,-29.6426 49,-19.6427 45.5001,-29.6427 52.5001,-29.6426"/>
</g>
</g>
</svg>
