<?xml version="1.0" encoding="UTF-8" standalone="no"?>
<!DOCTYPE svg PUBLIC "-//W3C//DTD SVG 1.1//EN"
 "http://www.w3.org/Graphics/SVG/1.1/DTD/svg11.dtd">
<!-- Generated by graphviz version 2.40.1 (20161225.0304)
 -->
<!-- Title: Util.h Pages: 1 -->
<svg width="200pt" height="84pt"
 viewBox="0.00 0.00 199.50 84.00" xmlns="http://www.w3.org/2000/svg" xmlns:xlink="http://www.w3.org/1999/xlink">
<g id="graph0" class="graph" transform="scale(1 1) rotate(0) translate(4 80)">
<title>Util.h</title>
<polygon fill="#ffffff" stroke="transparent" points="-4,4 -4,-80 195.5,-80 195.5,4 -4,4"/>
<!-- Node2 -->
<g id="node1" class="node">
<title>Node2</title>
<polygon fill="#bfbfbf" stroke="#000000" points="93.5,-56.5 93.5,-75.5 133.5,-75.5 133.5,-56.5 93.5,-56.5"/>
<text text-anchor="middle" x="113.5" y="-63.5" font-family="Helvetica,sans-Serif" font-size="10.00" fill="#000000">Util.h</text>
</g>
<!-- Node3 -->
<g id="node2" class="node">
<title>Node3</title>
<g id="a_node2"><a xlink:href="ParameterInstances_8cpp.html" target="_top" xlink:title="ParameterInstances.cpp">
<polygon fill="#ffffff" stroke="#000000" points="0,-.5 0,-19.5 123,-19.5 123,-.5 0,-.5"/>
<text text-anchor="middle" x="61.5" y="-7.5" font-family="Helvetica,sans-Serif" font-size="10.00" fill="#000000">ParameterInstances.cpp</text>
</a>
</g>
</g>
<!-- Node2&#45;&gt;Node3 -->
<g id="edge1" class="edge">
<title>Node2&#45;&gt;Node3</title>
<path fill="none" stroke="#191970" d="M97.5178,-48.7884C88.6222,-39.2085 77.8796,-27.6396 70.4539,-19.6427"/>
<polygon fill="#191970" stroke="#191970" points="95.073,-51.2992 104.4423,-56.2455 100.2025,-46.536 95.073,-51.2992"/>
</g>
<!-- Node4 -->
<g id="node3" class="node">
<title>Node4</title>
<g id="a_node3"><a xlink:href="Util_8cpp.html" target="_top" xlink:title="Util.cpp">
<polygon fill="#ffffff" stroke="#000000" points="141.5,-.5 141.5,-19.5 191.5,-19.5 191.5,-.5 141.5,-.5"/>
<text text-anchor="middle" x="166.5" y="-7.5" font-family="Helvetica,sans-Serif" font-size="10.00" fill="#000000">Util.cpp</text>
</a>
</g>
</g>
<!-- Node2&#45;&gt;Node4 -->
<g id="edge2" class="edge">
<title>Node2&#45;&gt;Node4</title>
<path fill="none" stroke="#191970" d="M129.7896,-48.7884C138.8562,-39.2085 149.8054,-27.6396 157.3739,-19.6427"/>
<polygon fill="#191970" stroke="#191970" points="127.0637,-46.5767 122.7319,-56.2455 132.1478,-51.3884 127.0637,-46.5767"/>
</g>
</g>
</svg>
